<?xml version="1.0" encoding="UTF-8"?>
<svg width="600px" height="600px" viewBox="0 0 600 600" version="1.1" xmlns="http://www.w3.org/2000/svg" xmlns:xlink="http://www.w3.org/1999/xlink">
    <title>api3-1</title>
    <g id="api3-1" stroke="none" stroke-width="1" fill="none" fill-rule="evenodd">
        <path d="M300,0 C465.685425,0 600,134.314575 600,300 C600,465.685425 465.685425,600 300,600 C134.314575,600 0,465.685425 0,300 C0,134.314575 134.314575,0 300,0 Z M300,77 C219.398216,77 152.372029,135.124036 138.549275,211.741392 C80.6197822,225.383049 37.5,277.405942 37.5,339.5 C37.5,411.987373 96.2626266,470.75 168.75,470.75 L168.75,470.75 L304.378,470.75 L291,488 L310,500 L331.578,470.75 L331.918,470.75 L348.41203,448.281023 L355.815,438.25 L183.875,438.25 L182.16964,438.236603 C126.00184,437.353524 80.75,392.92619 80.75,338.25 C80.75,287.16533 120.252168,245.027303 171.252172,238.991635 C174.613081,172.865446 230.970027,120.25 300,120.25 C368.953272,120.25 425.261663,172.748586 428.736272,238.774699 C480.704971,243.923641 521.25,286.495403 521.25,338.25 C521.25,393.478475 475.079365,438.25 418.125,438.25 L418.125,438.25 L417.875,438.248 L417.875,438.25 L378.824,438.25 L355.882,470.75 L431.25,470.75 C503.0125,470.75 561.323375,413.15675 562.482416,341.670459 L562.5,339.5 C562.5,277.405942 519.380218,225.383049 461.450323,211.74387 C447.627971,135.124036 380.601784,77 300,77 Z" id="形状结合" fill="#A8B6D3"></path>
        <text id="API" font-family="FZLTCHJW--GB1-0, FZLanTingHeiS-B-GB" font-size="150" font-weight="normal" fill="#FFFFFF">
            <tspan x="146.859375" y="363">API</tspan>
        </text>
    </g>
</svg>