<?xml version="1.0" encoding="UTF-8"?>
<svg width="22px" height="22px" viewBox="0 0 22 22" version="1.1" xmlns="http://www.w3.org/2000/svg" xmlns:xlink="http://www.w3.org/1999/xlink">
    <title>单据拆分-画布@1x</title>
    <g id="页面-1" stroke="none" stroke-width="1" fill="none" fill-rule="evenodd">
        <g id="单据拆分图标补充" transform="translate(-205, -525)" fill="#A8B6D3">
            <g id="单据拆分-画布" transform="translate(206, 525)">
                <path d="M14.6732602,0 C14.8859752,-2.03747656e-15 15.0931485,0.0678297215 15.264675,0.19363256 L19.5914149,3.36699767 C19.84826,3.55537582 20,3.85484395 20,4.17336511 L20,20 C20,21.1045695 19.1045695,22 18,22 L2,22 C0.8954305,22 6.76353751e-17,21.1045695 0,20 L0,2 C-1.3527075e-16,0.8954305 0.8954305,1.3527075e-16 2,0 L14.6732602,0 Z M5.9496306,10.3181818 L3,10.3181818 L3,11.9337974 L5.22230376,11.9337974 L8.99229205,15.9649199 L9.23760247,16.2272727 L12.285,16.227 L12.2857143,18 L16,15.6363636 L12.2857143,13.2727273 L12.285,14.611 L9.96395187,14.611411 L6.19494102,10.5805347 L5.9496306,10.3181818 Z M12.2857143,5 L12.285,6.772 L9.13512105,6.77272727 L8.88867632,7.1264193 L7.05704394,9.34622464 L8.15678467,10.599168 L10.0239116,8.35894315 L12.285,8.358 L12.2857143,9.72727273 L16,7.36363636 L12.2857143,5 Z" id="形状结合备份-2"></path>
            </g>
        </g>
    </g>
</svg>