<?xml version="1.0" encoding="UTF-8"?>
<svg width="32px" height="32px" viewBox="0 0 32 32" version="1.1" xmlns="http://www.w3.org/2000/svg" xmlns:xlink="http://www.w3.org/1999/xlink">
    <title>0.全局样式/1.图标/6.工具栏按钮图标/绿色类/批量新增</title>
    <g id="0.全局样式/1.图标/6.工具栏按钮图标/绿色类/批量新增" stroke="none" stroke-width="1" fill="none" fill-rule="evenodd">
        <path d="M26,30 L26,31 C26,31.5522847 25.5522847,32 25,32 L1,32 C0.44771525,32 0,31.5522847 0,31 L0,7 C0,6.44771525 0.44771525,6 1,6 L2,6 L2,30 L26,30 Z M5,28 C4.44771525,28 4,27.5522847 4,27 L4,3 C4,2.44771525 4.44771525,2 5,2 L29,2 C29.5522847,2 30,2.44771525 30,3 L30,27 C30,27.5522847 29.5522847,28 29,28 L5,28 Z M17,8 C16.4871642,8 16.0644928,8.38604019 16.0067277,8.88337887 L16,9 L16,14 L11,14 C10.4477153,14 10,14.4477153 10,15 C10,15.5128358 10.3860402,15.9355072 10.8833789,15.9932723 L11,16 L16,16 L16,21 C16,21.5522847 16.4477153,22 17,22 C17.5128358,22 17.9355072,21.6139598 17.9932723,21.1166211 L18,21 L18,16 L23,16 C23.5522847,16 24,15.5522847 24,15 C24,14.4871642 23.6139598,14.0644928 23.1166211,14.0067277 L23,14 L18,14 L18,9 C18,8.44771525 17.5522847,8 17,8 Z" id="合并形状" fill="#5582F3"></path>
    </g>
</svg>