<?xml version="1.0" encoding="UTF-8"?>
<svg width="96px" height="96px" viewBox="0 0 96 96" version="1.1" xmlns="http://www.w3.org/2000/svg" xmlns:xlink="http://www.w3.org/1999/xlink">
    <title>补偿图标</title>
    <g id="补偿图标" stroke="none" stroke-width="1" fill="none" fill-rule="evenodd">
        <g id="转移图标" transform="translate(2.000000, 3.000000)">
            <path d="" id="形状结合" stroke="#E7D1BB" stroke-width="7.92774194"></path>
            <path d="M23.7832258,9.66338121e-13 C36.9183387,9.66338121e-13 47.5664516,10.6481129 47.5664516,23.7832258 C47.5664516,35.9144162 38.4838166,45.9242435 26.7477654,47.3834889 L26.747,69.947 L69.793,70.002 L69.7939381,62.2864695 C69.7939381,61.1819 70.6893686,60.2864695 71.7939381,60.2864695 C72.1707189,60.2864695 72.5398364,60.3929015 72.8587743,60.5935065 L90.8512105,71.9103504 C91.7862082,72.4984432 92.0674301,73.733152 91.4793373,74.6681496 C91.3212179,74.9195406 91.1090974,75.1325625 90.858379,75.2917463 L72.8659428,86.7153426 C71.933447,87.3073945 70.697557,87.0314102 70.1055051,86.0989144 C69.9020042,85.7783955 69.7939381,85.406574 69.7939381,85.0269097 L69.793,77.931 L22.7781168,77.8703492 C20.6592777,77.8676182 18.930484,76.2028087 18.8245036,74.1102783 L18.8193548,73.9064815 L18.8194946,47.0476997 C8.06702923,44.7647595 -1.76214598e-12,35.2160705 -1.76214598e-12,23.7832258 C-1.76214598e-12,10.6481129 10.6481129,9.66338121e-13 23.7832258,9.66338121e-13 Z" id="形状结合" fill="#E79C51"></path>
            <polyline id="直线-4" stroke="#E7D1BB" stroke-width="3.96387097" stroke-linecap="round" stroke-linejoin="round" points="18.7872871 11.4556082 12.4771613 23.7832258 18.7872871 36.1212638"></polyline>
            <polyline id="直线-4" stroke="#FFFFFF" stroke-width="3.96387097" stroke-linecap="round" stroke-linejoin="round" points="16.831206 9.90967742 9.51329032 23.7832258 16.831206 37.6567742"></polyline>
            <polyline id="直线-4" stroke="#E7D1BB" stroke-width="3.96387097" stroke-linecap="round" stroke-linejoin="round" points="35.0115536 11.4396928 28.7228189 23.7832258 35.0115536 36.1212638"></polyline>
            <polyline id="直线-4" stroke="#FFFFFF" stroke-width="3.96387097" stroke-linecap="round" stroke-linejoin="round" points="33.0768635 9.90967742 25.7589479 23.7832258 33.0768635 37.6567742"></polyline>
        </g>
    </g>
</svg>