<?xml version="1.0" standalone="no"?><!DOCTYPE svg PUBLIC "-//W3C//DTD SVG 1.1//EN" "http://www.w3.org/Graphics/SVG/1.1/DTD/svg11.dtd"><svg t="1715582216162" class="icon" viewBox="0 0 1024 1024" version="1.1" xmlns="http://www.w3.org/2000/svg" p-id="6904" xmlns:xlink="http://www.w3.org/1999/xlink" width="22" height="22"><path d="M223.96928 487.60225224c-97.4241189 19.6001189-170.55137223 106.26540999-169.60474112 209.22368 0.94056334 115.70744889 94.59029333 208.98702222 209.94579001 209.92758442h3.53772999l234.24872334-1.88719332-39.15776 41.3240889c-12.74311111 13.45915221-12.26979555 34.70980779 0.70390557 47.69564444l0.70997333 0.70997333c13.44701667 12.75524779 34.67946667 12.28193223 47.65316665-0.70997333l0.70390556-0.70390556 94.12911446-99.6511289a33.90274333 33.90274333 0 0 0 1.65053554-44.86788778l-0.47331556-0.70997334-96.01024-112.63696554a34.03624334 34.03624334 0 0 0-48.12041444-3.78045668 34.1818789 34.1818789 0 0 0-4.49043 47.46505558l0.47331555 0.70997333 48.36314112 56.90709333-241.33025223 1.89326222c-79.25608334 0.70390557-143.89399666-63.04805888-144.60396999-142.15850666-0.70390557-78.40047445 61.80408889-142.62575445 139.88901888-144.51901668h2.36051001l483.83165667-4.01104554h3.53772999c115.35549667-2.83382557 207.35468999-97.76393443 206.40805888-213.47745224-0.94056334-116.88467001-96.48355555-210.86814777-213.48352-209.92758556l-357.62631111 2.83989334 0.47331556 68.47905222 357.62024334-2.83382556h2.36051001c78.08492999 0.70997333 141.53955555 63.75803221 142.24952889 142.15850667 0.70390557 79.10437888-62.98737778 143.80904334-142.24952889 144.51294891M189.53253888 27.6062811c-2.83382557 0-5.66158222 0-8.49540665 0.23665778-36.09334557 2.12385223-69.35893333 18.41683001-93.41307335 45.57179336-24.06627555 27.15496334-36.09334557 62.10749667-33.73890333 98.47390776 2.12385223 36.12975445 18.40469333 69.41961443 45.52931556 93.51016334 27.12462222 24.09054777 62.04074667 36.12975445 98.37075001 33.76924445 36.09334557-2.36657778 69.35893333-18.42289778 93.41913998-45.57786112s36.09334557-62.10749667 33.73283556-98.46784c-2.36051001-36.12975445-18.39862557-69.42568334-45.52931556-93.51016334-25.24349667-21.96669667-56.85248-34.00590222-89.87534222-34.00590223z m-0.47331555 218.42906112c-20.05523001 0-39.15776-7.32425443-54.25531222-20.54675-16.51749888-14.6424411-26.19012779-34.70980779-27.60400554-56.67650333-1.4138789-21.95456 5.89824-43.20521443 20.52247665-59.50426112 14.62423666-16.52963555 34.67946667-26.2144 56.61582223-27.62827776a80.64568889 80.64568889 0 0 1 59.44964778 20.54674887c16.51143111 14.63637333 26.18405888 34.70980779 27.59793778 56.67650446 1.4138789 21.95456-5.89824 43.20521443-20.5224778 59.50425999-14.62423666 16.52963555-34.67946667 26.2144-56.61582222 27.62827889-1.65053667-0.24272555-3.30107221 0-5.18826666 0z" fill="#A8B6D3" p-id="6905"></path><path d="M831.41518222 734.60622222c-2.83382557 0-5.66158222 0-8.49540779 0.23665778-36.09334557 2.12385223-69.35893333 18.41683001-93.41307221 45.57179222-24.06627555 27.16103111-36.09334557 62.10749667-33.73890332 98.4739089 2.12385223 36.12975445 18.40469333 69.41961443 45.52931555 93.51016221 27.13068999 24.09054777 62.04681443 36.12975445 98.37074888 33.76924444 36.09334557-2.36657778 69.35893333-18.41683001 93.41914112-45.57179221 24.06020779-27.16103111 36.09334557-62.10749667 33.73283555-98.47390777-2.36051001-36.12975445-18.39862557-69.41961443-45.52931555-93.51016334-25.24349667-22.19728555-56.85248-34.00590222-89.87534223-34.00590223z m-0.24272555 218.19240335c-20.0491611 0-39.15169223-7.31818667-54.24924444-20.54068224-16.51749888-14.6424411-26.19012779-34.70980779-27.60400668-56.67650333-1.4138789-21.96062777 5.89824-43.21128334 20.52247779-59.50426112 14.62423666-16.52963555 34.67946667-26.2144 56.61582223-27.62827776a80.64568889 80.64568889 0 0 1 59.44964664 20.5406811c16.51143111 14.6424411 26.18405888 34.70980779 27.59793778 56.67650333 1.4138789 21.96062777-5.89824 43.21128334-20.52247666 59.50426112-14.62423666 16.52963555-34.67946667 26.2144-56.61582222 27.6282789h-5.18826666z" fill="#A8B6D3" p-id="6906"></path></svg>