<?xml version="1.0" encoding="utf-8"?>
<!-- Generator: Adobe Illustrator 15.0.0, SVG Export Plug-In . SVG Version: 6.00 Build 0)  -->
<!DOCTYPE svg PUBLIC "-//W3C//DTD SVG 1.1//EN" "http://www.w3.org/Graphics/SVG/1.1/DTD/svg11.dtd">
<svg version="1.1" id="图层_1" xmlns="http://www.w3.org/2000/svg" xmlns:xlink="http://www.w3.org/1999/xlink" x="0px" y="0px"
	 width="24px" height="24px" viewBox="0 0 24 24" enable-background="new 0 0 24 24" xml:space="preserve">
<title>24/集成服务云/11@2x</title>
<g id="_x32_4_x2F_集成服务云_x2F_11">
	<path id="形状" fill="#F35A59" d="M12.01,1l0.001,5.735c1.458,0.567,2.501,2.095,2.501,3.89s-1.044,3.323-2.501,3.89L12.01,17.5
		h5.005v-2.75L22,18.875L17.015,23v-2.75H9.507v-5.735c-1.458-0.565-2.502-2.093-2.502-3.89c0-1.796,1.045-3.324,2.502-3.89V3.75H2
		V1H12.01z M10.758,7.875c-1.382,0-2.502,1.231-2.502,2.75s1.12,2.75,2.502,2.75c1.382,0,2.502-1.231,2.502-2.75
		S12.141,7.875,10.758,7.875z"/>
</g>
</svg>
