<?xml version="1.0" encoding="utf-8"?>
<!-- Generator: Adobe Illustrator 15.0.0, SVG Export Plug-In . SVG Version: 6.00 Build 0)  -->
<!DOCTYPE svg PUBLIC "-//W3C//DTD SVG 1.1//EN" "http://www.w3.org/Graphics/SVG/1.1/DTD/svg11.dtd">
<svg version="1.1" id="图层_1" xmlns="http://www.w3.org/2000/svg" xmlns:xlink="http://www.w3.org/1999/xlink" x="0px" y="0px"
	 width="24px" height="24px" viewBox="0 0 24 24" enable-background="new 0 0 24 24" xml:space="preserve">
<title>图标2备份 13</title>
<g id="视觉">
	<g id="图标2" transform="translate(-291.000000, -111.000000)">
		<g id="形状结合" transform="translate(291.000000, 111.000000)">
			<path fill="#5681F3" d="M19.578,2c1.219,0,2.218,0.759,2.314,2.019l0.007,0.203H19.7V11c-0.354-0.073-0.724-0.111-1.1-0.111
				c-3.039,0-5.5,2.488-5.5,5.555c0,2.635,1.815,4.842,4.251,5.411c-0.226,0.071-0.462,0.117-0.705,0.135L16.399,22H3.322
				c-1.218,0-2.218-0.76-2.314-2.02L1,19.778h2.2L3.322,6.18c0-2.229,1.621-4.05,3.662-4.173L7.205,2H19.578z M18.601,12
				C21.03,12,23,13.99,23,16.444c0,2.455-1.97,4.444-4.399,4.444c-2.431,0-4.4-1.989-4.4-4.444C14.2,13.99,16.17,12,18.601,12z
				 M17.5,14.222v4.446l3.3-2.224L17.5,14.222z M11.457,12H5.943c-0.3,0-0.543,0.249-0.543,0.556c0,0.272,0.192,0.499,0.445,0.547
				l0.098,0.009h5.514c0.299,0,0.543-0.25,0.543-0.556C12,12.249,11.756,12,11.457,12z M16.957,7.556H5.943
				c-0.3,0-0.543,0.249-0.543,0.555c0,0.273,0.192,0.5,0.445,0.547l0.098,0.009h11.014c0.3,0,0.543-0.249,0.543-0.556
				C17.5,7.805,17.257,7.556,16.957,7.556z"/>
		</g>
	</g>
</g>
</svg>
