<?xml version="1.0" encoding="utf-8"?>
<!-- Generator: Adobe Illustrator 15.0.0, SVG Export Plug-In . SVG Version: 6.00 Build 0)  -->
<!DOCTYPE svg PUBLIC "-//W3C//DTD SVG 1.1//EN" "http://www.w3.org/Graphics/SVG/1.1/DTD/svg11.dtd">
<svg version="1.1" id="图层_1" xmlns="http://www.w3.org/2000/svg" xmlns:xlink="http://www.w3.org/1999/xlink" x="0px" y="0px"
	 width="24px" height="24px" viewBox="0 0 24 24" enable-background="new 0 0 24 24" xml:space="preserve">
<title>图标2备份 26</title>
<g id="视觉">
	<g id="图标2" transform="translate(-291.000000, -69.000000)">
		<g id="形状结合" transform="translate(291.000000, 69.000000)">
			<path fill="#A7B5D3" d="M18.2,4c0.997,0,1.814,0.607,1.894,1.615l0.005,0.163H18.3V11.2c-0.29-0.059-0.592-0.089-0.9-0.089
				c-2.486,0-4.5,1.99-4.5,4.443c0,2.108,1.485,3.874,3.479,4.33c-0.186,0.056-0.379,0.094-0.577,0.107L15.599,20H4.899
				c-0.996,0-1.814-0.607-1.893-1.615L3,18.222h1.8L4.899,7.344c0-1.783,1.327-3.24,2.997-3.339L8.077,4H18.2z M17.401,12
				C19.388,12,21,13.592,21,15.555c0,1.964-1.612,3.557-3.599,3.557c-1.989,0-3.601-1.593-3.601-3.557
				C13.8,13.592,15.412,12,17.401,12z M16.5,13.778v3.556l2.7-1.779L16.5,13.778z M11.556,12H7.044C6.799,12,6.6,12.199,6.6,12.445
				c0,0.217,0.157,0.398,0.364,0.438l0.08,0.006h4.512c0.245,0,0.444-0.199,0.444-0.443C12,12.199,11.8,12,11.556,12z M16.056,8.445
				H7.044C6.799,8.445,6.6,8.644,6.6,8.889c0,0.218,0.157,0.4,0.364,0.438l0.08,0.007h9.012c0.245,0,0.444-0.199,0.444-0.445
				C16.5,8.644,16.301,8.445,16.056,8.445z"/>
		</g>
	</g>
</g>
</svg>
