<?xml version="1.0" encoding="utf-8"?>
<!-- Generator: Adobe Illustrator 15.0.0, SVG Export Plug-In . SVG Version: 6.00 Build 0)  -->
<!DOCTYPE svg PUBLIC "-//W3C//DTD SVG 1.1//EN" "http://www.w3.org/Graphics/SVG/1.1/DTD/svg11.dtd">
<svg version="1.1" id="图层_1" xmlns="http://www.w3.org/2000/svg" xmlns:xlink="http://www.w3.org/1999/xlink" x="0px" y="0px"
	 width="24px" height="24px" viewBox="0 0 24 24" enable-background="new 0 0 24 24" xml:space="preserve">
<title>苍穹/icon/事件触发备份</title>
<g id="视觉">
	<g id="图标2" transform="translate(-224.000000, -73.000000)">
		<g id="形状结合" transform="translate(221.000000, 69.000000)">
			<path fill="#A7B5D3" d="M21.2,8c0.997,0,1.814,0.607,1.894,1.615l0.005,0.163H21.3V15.2c-0.29-0.059-0.592-0.089-0.9-0.089
				c-2.486,0-4.5,1.99-4.5,4.443c0,2.108,1.484,3.874,3.479,4.33c-0.187,0.055-0.379,0.094-0.577,0.107L18.599,24H7.899
				c-0.996,0-1.814-0.607-1.893-1.615L6,22.222h1.8l0.099-10.877c0-1.783,1.327-3.24,2.997-3.339L11.077,8H21.2z M20.401,16
				C22.388,16,24,17.592,24,19.555c0,1.964-1.612,3.557-3.599,3.557c-1.989,0-3.6-1.593-3.6-3.557C16.8,17.592,18.412,16,20.401,16z
				 M21.129,17.334l-2.079,2.361l1.085,0.26l-0.464,1.82l2.079-2.361l-1.084-0.258L21.129,17.334z M14.556,16h-4.512
				C9.799,16,9.6,16.199,9.6,16.445c0,0.217,0.157,0.398,0.364,0.438l0.08,0.006h4.512c0.245,0,0.444-0.199,0.444-0.443
				C15,16.199,14.8,16,14.556,16z M19.056,12.445h-9.012c-0.245,0-0.444,0.199-0.444,0.444c0,0.218,0.157,0.4,0.364,0.438
				l0.08,0.007h9.012c0.245,0,0.444-0.199,0.444-0.445C19.5,12.644,19.301,12.445,19.056,12.445z"/>
		</g>
	</g>
</g>
</svg>
