<?xml version="1.0" encoding="utf-8"?>
<!-- Generator: Adobe Illustrator 15.0.0, SVG Export Plug-In . SVG Version: 6.00 Build 0)  -->
<!DOCTYPE svg PUBLIC "-//W3C//DTD SVG 1.1//EN" "http://www.w3.org/Graphics/SVG/1.1/DTD/svg11.dtd">
<svg version="1.1" id="图层_1" xmlns="http://www.w3.org/2000/svg" xmlns:xlink="http://www.w3.org/1999/xlink" x="0px" y="0px"
	 width="24px" height="24px" viewBox="-3.5 -4 24 24" enable-background="new -3.5 -4 24 24" xml:space="preserve">
<title>苍穹/icon/外部工作流</title>
<g id="视觉">
	<g id="图标2" transform="translate(-810.000000, -35.000000)">
		<g id="编组" transform="translate(806.000000, 31.000000)">
			<g id="路径" transform="translate(4.000000, 4.000000)">
				<path fill="#A7B5D3" d="M13.817,1.65h-1.076v-2.06c0-0.326-0.225-0.59-0.501-0.59H4.76c-0.276,0-0.5,0.264-0.5,0.59v3.82
					c0,0.156,0.053,0.306,0.147,0.417S4.627,4,4.76,4h7.48c0.276,0,0.501-0.264,0.501-0.59V2.85h1.076
					c1,0.075,1.759,1.091,1.695,2.27c0.063,1.179-0.695,2.195-1.695,2.27h-1.076v-1.3c0-0.326-0.225-0.59-0.501-0.59H4.76
					c-0.276,0-0.5,0.264-0.5,0.59v1.56H3.183c-1.554,0.092-2.752,1.648-2.68,3.48c-0.067,1.829,1.129,3.378,2.68,3.471h1.077v1.81
					c0,0.157,0.053,0.307,0.147,0.416C4.5,16.938,4.627,17,4.76,17h7.48c0.276,0,0.501-0.264,0.501-0.59v-3.82
					c0-0.325-0.225-0.59-0.501-0.59H4.76c-0.276,0-0.5,0.265-0.5,0.59v0.81H3.183c-1-0.074-1.759-1.091-1.696-2.27
					C1.423,9.951,2.183,8.935,3.183,8.86h1.077v1.06c0,0.326,0.225,0.59,0.5,0.59h7.48c0.276,0,0.501-0.264,0.501-0.59V8.6h1.076
					c1.555-0.092,2.752-1.647,2.68-3.479C16.564,3.291,15.368,1.742,13.817,1.65z"/>
			</g>
		</g>
	</g>
</g>
</svg>
