<?xml version="1.0" encoding="utf-8"?>
<!-- Generator: Adobe Illustrator 15.0.0, SVG Export Plug-In . SVG Version: 6.00 Build 0)  -->
<!DOCTYPE svg PUBLIC "-//W3C//DTD SVG 1.1//EN" "http://www.w3.org/Graphics/SVG/1.1/DTD/svg11.dtd">
<svg version="1.1" id="图层_1" xmlns="http://www.w3.org/2000/svg" xmlns:xlink="http://www.w3.org/1999/xlink" x="0px" y="0px"
	 width="24px" height="24px" viewBox="0 0 24 24" enable-background="new 0 0 24 24" xml:space="preserve">
<title>图标2备份 29</title>
<g id="视觉">
	<g id="图标2" transform="translate(-806.000000, -96.000000)">
		<g id="路径" transform="translate(806.000000, 96.000000)">
			<path fill="#5681F3" d="M18.646,4.239h-1.345V1.721C17.302,1.323,17.021,1,16.675,1h-9.35C6.98,1,6.699,1.323,6.699,1.721V6.39
				c0,0.191,0.066,0.374,0.184,0.51C7,7.035,7.159,7.111,7.325,7.111h9.35c0.346,0,0.627-0.323,0.627-0.721V5.706h1.345
				c1.25,0.091,2.198,1.333,2.119,2.774c0.079,1.441-0.869,2.683-2.119,2.774h-1.345V9.666c0-0.398-0.281-0.721-0.627-0.721h-9.35
				c-0.345,0-0.625,0.323-0.625,0.721v1.907H5.354c-1.942,0.112-3.44,2.014-3.35,4.253c-0.084,2.235,1.412,4.129,3.35,4.242h1.346
				v2.212c0,0.192,0.066,0.375,0.184,0.508C7,22.925,7.159,23,7.325,23h9.35c0.346,0,0.627-0.322,0.627-0.721v-4.67
				c0-0.397-0.281-0.721-0.627-0.721h-9.35c-0.345,0-0.625,0.323-0.625,0.721v0.99H5.354c-1.25-0.091-2.199-1.334-2.121-2.774
				c-0.079-1.44,0.871-2.683,2.121-2.773h1.346v1.295c0,0.398,0.281,0.721,0.625,0.721h9.35c0.346,0,0.627-0.322,0.627-0.721v-1.614
				h1.345c1.943-0.111,3.44-2.013,3.35-4.252C22.08,6.245,20.585,4.351,18.646,4.239z"/>
		</g>
	</g>
</g>
</svg>
