<?xml version="1.0" encoding="utf-8"?>
<!-- Generator: Adobe Illustrator 15.0.0, SVG Export Plug-In . SVG Version: 6.00 Build 0)  -->
<!DOCTYPE svg PUBLIC "-//W3C//DTD SVG 1.1//EN" "http://www.w3.org/Graphics/SVG/1.1/DTD/svg11.dtd">
<svg version="1.1" id="图层_1" xmlns="http://www.w3.org/2000/svg" xmlns:xlink="http://www.w3.org/1999/xlink" x="0px" y="0px"
	 width="24px" height="24px" viewBox="0 0 24 24" enable-background="new 0 0 24 24" xml:space="preserve">
<title>图标2备份 28</title>
<g id="视觉">
	<g id="图标2" transform="translate(-861.000000, -31.000000)">
		<g id="形状" transform="translate(861.000000, 31.000000)">
			<path fill="#A7B5D3" d="M9.156,10.57h5.625c0.808,0,1.463,0.64,1.463,1.43s-0.655,1.43-1.463,1.43H9.156
				c-0.808,0-1.462-0.64-1.462-1.43S8.348,10.57,9.156,10.57L9.156,10.57z M12.869,14.75h1.912c1.553,0,2.813-1.231,2.813-2.75
				s-1.26-2.75-2.813-2.75h-1.912c-0.125,0-0.226-0.099-0.226-0.22V6.72c0-0.121,0.101-0.22,0.226-0.22h2.506
				C18.481,6.5,21,8.962,21,12c0,3.037-2.519,5.5-5.625,5.5h-2.506c-0.125,0-0.226-0.099-0.226-0.22V14.97
				C12.644,14.85,12.744,14.75,12.869,14.75L12.869,14.75z M11.068,9.25H9.156c-1.553,0-2.813,1.231-2.813,2.75
				s1.259,2.75,2.813,2.75h1.913c0.124,0,0.225,0.1,0.225,0.22v2.311c0,0.121-0.101,0.22-0.225,0.22H8.625C5.519,17.5,3,15.037,3,12
				c0-3.038,2.519-5.5,5.625-5.5h2.443c0.124,0,0.225,0.099,0.225,0.22V9.03C11.293,9.151,11.193,9.25,11.068,9.25z"/>
		</g>
	</g>
</g>
</svg>
