<?xml version="1.0" encoding="utf-8"?>
<!-- Generator: Adobe Illustrator 15.0.0, SVG Export Plug-In . SVG Version: 6.00 Build 0)  -->
<!DOCTYPE svg PUBLIC "-//W3C//DTD SVG 1.1//EN" "http://www.w3.org/Graphics/SVG/1.1/DTD/svg11.dtd">
<svg version="1.1" id="图层_1" xmlns="http://www.w3.org/2000/svg" xmlns:xlink="http://www.w3.org/1999/xlink" x="0px" y="0px"
	 width="24px" height="24px" viewBox="0 0 24 24" enable-background="new 0 0 24 24" xml:space="preserve">
<title>图标2备份 30</title>
<g id="视觉">
	<g id="图标2" transform="translate(-861.000000, -96.000000)">
		<g id="形状" transform="translate(861.000000, 96.000000)">
			<path fill="#5681F3" d="M8.524,10.05h6.875c0.987,0,1.788,0.873,1.788,1.95s-0.801,1.949-1.788,1.949H8.524
				c-0.987,0-1.788-0.872-1.788-1.949S7.537,10.05,8.524,10.05L8.524,10.05z M13.063,15.75h2.337c1.897,0,3.438-1.68,3.438-3.75
				c0-2.071-1.54-3.75-3.438-3.75h-2.337c-0.153,0-0.276-0.134-0.276-0.3V4.8c0-0.165,0.123-0.3,0.276-0.3h3.063
				C19.922,4.5,23,7.858,23,12c0,4.142-3.078,7.5-6.875,7.5h-3.063c-0.153,0-0.276-0.135-0.276-0.3v-3.15
				C12.786,15.886,12.909,15.75,13.063,15.75L13.063,15.75z M10.861,8.25H8.524c-1.898,0-3.438,1.679-3.438,3.75
				c0,2.07,1.539,3.75,3.438,3.75h2.337c0.151,0,0.275,0.136,0.275,0.3v3.15c0,0.165-0.123,0.3-0.275,0.3H7.875
				C4.078,19.5,1,16.142,1,12c0-4.142,3.078-7.5,6.875-7.5h2.986c0.151,0,0.275,0.135,0.275,0.3v3.15
				C11.136,8.116,11.014,8.25,10.861,8.25z"/>
		</g>
	</g>
</g>
</svg>
