<?xml version="1.0" encoding="utf-8"?>
<!-- Generator: Adobe Illustrator 15.0.0, SVG Export Plug-In . SVG Version: 6.00 Build 0)  -->
<!DOCTYPE svg PUBLIC "-//W3C//DTD SVG 1.1//EN" "http://www.w3.org/Graphics/SVG/1.1/DTD/svg11.dtd">
<svg version="1.1" id="图层_1" xmlns="http://www.w3.org/2000/svg" xmlns:xlink="http://www.w3.org/1999/xlink" x="0px" y="0px"
	 width="24px" height="24px" viewBox="0 0 24 24" enable-background="new 0 0 24 24" xml:space="preserve">
<title>图标2备份 8</title>
<g id="视觉">
	<g id="图标2" transform="translate(-116.000000, -111.000000)">
		<g id="形状结合" transform="translate(116.000000, 111.000000)">
			<path fill="#5681F3" d="M12,1c6.074,0,11,4.925,11,11s-4.925,11-11,11S1,18.075,1,12S5.925,1,12,1z M12.331,6.502
				c-0.484-0.02-0.958,0.146-1.329,0.463c-0.339,0.289-0.612,0.649-0.798,1.057c-0.202,0.446-0.367,0.909-0.495,1.383l0,0
				L9.602,9.782H8.594l-0.155,0.536h1.008l-1.597,5.323c-0.093,0.351-0.223,0.69-0.388,1.013c-0.088,0.192-0.273,0.319-0.481,0.326
				c-0.198,0-0.311-0.139-0.332-0.398c-0.009-0.172-0.055-0.34-0.135-0.492c-0.109-0.143-0.284-0.215-0.459-0.188
				c-0.179-0.006-0.352,0.069-0.471,0.205c-0.118,0.128-0.184,0.297-0.184,0.472c0.01,0.257,0.139,0.493,0.346,0.638
				c0.287,0.204,0.633,0.305,0.982,0.283c0.539,0.018,1.065-0.175,1.471-0.537c0.382-0.358,0.688-0.795,0.897-1.282
				c0.274-0.666,0.512-1.349,0.714-2.041l0,0l0.996-3.324h0.954l0.162-0.536h-0.961l0.693-2.302
				c0.027-0.115,0.073-0.225,0.134-0.326c0.047-0.081,0.134-0.128,0.226-0.123c0.071-0.006,0.141,0.02,0.19,0.072
				c0.051,0.061,0.087,0.133,0.106,0.21c0.051,0.183,0.13,0.356,0.233,0.514c0.089,0.114,0.228,0.173,0.368,0.16
				c0.156,0.003,0.306-0.063,0.41-0.18c0.105-0.119,0.164-0.274,0.162-0.435c0.005-0.172-0.052-0.34-0.157-0.474
				c-0.118-0.132-0.266-0.231-0.431-0.29C12.715,6.536,12.523,6.502,12.331,6.502z M16.969,9.594L16.878,9.6
				c-0.366,0.054-0.698,0.251-0.925,0.55l0,0l-0.885,0.97l-0.092-0.297c-0.089-0.325-0.241-0.628-0.445-0.893
				c-0.179-0.215-0.443-0.335-0.72-0.326c-0.229,0.001-0.453,0.078-0.637,0.217c-0.219,0.167-0.401,0.379-0.537,0.622
				c-0.181,0.322-0.323,0.665-0.425,1.021l0,0h0.522c0.147-0.572,0.333-0.862,0.552-0.862c0.071,0,0.141,0.028,0.19,0.079
				c0.058,0.061,0.101,0.132,0.128,0.211c0.049,0.137,0.092,0.274,0.135,0.412l0,0l0.283,0.912l-1.464,1.585
				c-0.155,0.159-0.247,0.231-0.318,0.231c-0.07,0-0.106-0.058-0.106-0.181c0.04-0.266,0.111-0.526,0.212-0.774l0,0h-0.622
				c-0.129,0.306-0.197,0.636-0.198,0.969c0,0.457,0.166,0.682,0.501,0.682c0.365-0.072,0.689-0.281,0.911-0.586l0,0l1.251-1.369
				l0.22,0.731c0.088,0.324,0.229,0.63,0.418,0.905c0.164,0.219,0.424,0.338,0.692,0.319c0.21-0.007,0.414-0.068,0.593-0.181
				c0.235-0.15,0.435-0.352,0.587-0.588c0.207-0.314,0.357-0.666,0.445-1.034l0,0H16.63c-0.056,0.193-0.133,0.381-0.226,0.557
				c-0.105,0.203-0.227,0.313-0.36,0.313c-0.078,0-0.141-0.059-0.198-0.167c-0.063-0.137-0.117-0.277-0.162-0.421l0,0l-0.48-1.549
				l1.067-1.144c0.106-0.109,0.205-0.217,0.317-0.319c0.046-0.035,0.101-0.053,0.155-0.051c0.069-0.009,0.136,0.025,0.17,0.086
				c0.028,0.051,0.043,0.108,0.043,0.166c-0.004,0.249-0.042,0.495-0.113,0.732l0,0h0.551c0.07-0.232,0.106-0.474,0.106-0.716l0,0
				l-0.017-0.185c-0.016-0.124-0.043-0.245-0.082-0.363c-0.102-0.193-0.311-0.3-0.523-0.268L16.969,9.594z"/>
		</g>
	</g>
</g>
</svg>
