<?xml version="1.0" encoding="utf-8"?>
<!-- Generator: Adobe Illustrator 15.0.0, SVG Export Plug-In . SVG Version: 6.00 Build 0)  -->
<!DOCTYPE svg PUBLIC "-//W3C//DTD SVG 1.1//EN" "http://www.w3.org/Graphics/SVG/1.1/DTD/svg11.dtd">
<svg version="1.1" id="图层_1" xmlns="http://www.w3.org/2000/svg" xmlns:xlink="http://www.w3.org/1999/xlink" x="0px" y="0px"
	 width="24px" height="24px" viewBox="0 0 24 24" enable-background="new 0 0 24 24" xml:space="preserve">
<title>苍穹/icon/函数备份</title>
<g id="视觉">
	<g id="图标2" transform="translate(-119.000000, -72.000000)">
		<g id="形状结合" transform="translate(116.000000, 69.000000)">
			<path fill="#A7B5D3" d="M15,6c4.97,0,9,4.029,9,9s-4.029,9-9,9s-9-4.029-9-9S10.029,6,15,6z M15.271,10.501
				c-0.396-0.016-0.784,0.12-1.087,0.379c-0.277,0.236-0.501,0.531-0.653,0.865c-0.166,0.365-0.301,0.744-0.405,1.132l0,0
				l-0.087,0.309h-0.825l-0.127,0.438h0.825l-1.307,4.355c-0.076,0.289-0.183,0.565-0.317,0.83c-0.072,0.156-0.224,0.26-0.394,0.267
				c-0.162,0-0.254-0.114-0.271-0.325c-0.007-0.141-0.045-0.278-0.11-0.403c-0.09-0.116-0.232-0.176-0.375-0.154
				c-0.147-0.004-0.288,0.057-0.386,0.168c-0.097,0.104-0.15,0.243-0.15,0.386c0.008,0.211,0.114,0.404,0.283,0.522
				c0.235,0.167,0.518,0.249,0.803,0.231c0.441,0.015,0.872-0.143,1.204-0.439c0.313-0.292,0.563-0.65,0.734-1.048
				c0.224-0.545,0.419-1.104,0.584-1.67l0,0l0.815-2.721h0.78l0.133-0.438H14.15l0.567-1.884c0.022-0.094,0.06-0.184,0.11-0.267
				c0.038-0.066,0.109-0.104,0.185-0.101c0.058-0.005,0.115,0.017,0.155,0.059c0.042,0.05,0.071,0.109,0.087,0.172
				c0.042,0.15,0.106,0.291,0.19,0.421c0.072,0.093,0.187,0.141,0.301,0.13c0.127,0.002,0.25-0.051,0.335-0.147
				c0.086-0.098,0.135-0.224,0.133-0.356c0.005-0.141-0.042-0.278-0.128-0.388c-0.097-0.108-0.217-0.189-0.354-0.237
				C15.585,10.53,15.428,10.501,15.271,10.501z M19.065,13.031l-0.074,0.005c-0.3,0.044-0.571,0.205-0.757,0.45l0,0l-0.724,0.794
				l-0.075-0.243c-0.073-0.266-0.198-0.514-0.364-0.73c-0.147-0.176-0.363-0.274-0.59-0.267c-0.188,0.001-0.371,0.064-0.521,0.177
				c-0.18,0.137-0.327,0.311-0.439,0.509c-0.148,0.264-0.265,0.544-0.348,0.835l0,0H15.6c0.119-0.468,0.271-0.705,0.452-0.705
				c0.058,0,0.115,0.022,0.154,0.064c0.049,0.05,0.084,0.108,0.104,0.173c0.04,0.112,0.075,0.224,0.11,0.337l0,0l0.231,0.746
				l-1.197,1.297c-0.127,0.13-0.203,0.189-0.26,0.189c-0.057,0-0.086-0.048-0.086-0.148c0.033-0.219,0.091-0.431,0.173-0.634l0,0
				h-0.509c-0.105,0.251-0.161,0.521-0.162,0.793c0,0.374,0.136,0.559,0.41,0.559c0.299-0.059,0.564-0.229,0.746-0.479l0,0
				l1.024-1.12l0.18,0.598c0.072,0.266,0.188,0.516,0.343,0.74c0.134,0.18,0.347,0.277,0.566,0.262
				c0.171-0.007,0.339-0.056,0.484-0.149c0.193-0.122,0.355-0.288,0.48-0.481c0.17-0.256,0.293-0.545,0.364-0.846l0,0h-0.421
				c-0.046,0.158-0.108,0.313-0.185,0.457c-0.086,0.166-0.187,0.256-0.295,0.256c-0.063,0-0.116-0.048-0.162-0.137
				c-0.051-0.112-0.096-0.227-0.133-0.345l0,0l-0.392-1.267l0.873-0.936c0.086-0.089,0.168-0.178,0.259-0.261
				c0.037-0.028,0.083-0.043,0.127-0.042c0.057-0.007,0.111,0.021,0.139,0.07c0.023,0.042,0.035,0.088,0.035,0.136
				c-0.003,0.204-0.034,0.405-0.093,0.599l0,0h0.452c0.057-0.19,0.086-0.388,0.086-0.586l0,0l-0.015-0.151
				c-0.014-0.102-0.035-0.201-0.066-0.297c-0.084-0.158-0.255-0.246-0.428-0.219L19.065,13.031z"/>
		</g>
	</g>
</g>
</svg>
