<?xml version="1.0" encoding="utf-8"?>
<!-- Generator: Adobe Illustrator 15.0.0, SVG Export Plug-In . SVG Version: 6.00 Build 0)  -->
<!DOCTYPE svg PUBLIC "-//W3C//DTD SVG 1.1//EN" "http://www.w3.org/Graphics/SVG/1.1/DTD/svg11.dtd">
<svg version="1.1" id="图层_1" xmlns="http://www.w3.org/2000/svg" xmlns:xlink="http://www.w3.org/1999/xlink" x="0px" y="0px"
	 width="24px" height="24px" viewBox="0 0 24 24" enable-background="new 0 0 24 24" xml:space="preserve">
<title>图标2备份 22</title>
<g id="视觉">
	<g id="图标2" transform="translate(-431.000000, -69.000000)">
		<g id="形状结合" transform="translate(431.000000, 69.000000)">
			<path fill="#A7B5D3" d="M18.609,3C19.378,3,20,3.733,20,4.636l0,0v14.728C20,20.267,19.378,21,18.609,21l0,0H5.392
				C4.622,21,4,20.267,4,19.364l0,0V4.636C4,3.733,4.622,3,5.392,3l0,0H18.609z M11.568,10.001l-0.203,0.004
				c-0.92,0.082-1.48,0.517-2.082,1.191c-0.024,0.026-0.617,0.646-1.429,0.289c-0.354-0.159-0.685-0.407-1.003-0.651
				c-0.34-0.259-1.579-0.638-1.962-0.798l0,0v0.964c0.162,0.104,0.446,0,1.393,0.475c0.425,0.215,0.742,0.563,1.199,0.768
				c1.44,0.637,2.471-0.487,2.515-0.537c0.549-0.614,0.886-0.816,1.446-0.864c0.402-0.036,0.814,0.274,1.287,0.632
				c0.349,0.265,0.743,0.565,1.199,0.767c0.318,0.14,0.615,0.195,0.886,0.195c0.954,0,1.58-0.696,1.603-0.719
				c0.524-0.552,0.815-0.858,1.43-0.876l0,0h0.026c0.396,0,0.781,0.272,1.222,0.597l0,0v1.853c-0.387-0.238-0.802-0.414-1.272-0.398
				c-1.002,0.028-1.535,0.59-2.111,1.195c-0.025,0.026-0.599,0.642-1.408,0.284c-0.354-0.155-0.684-0.407-1.004-0.652
				c-0.577-0.438-1.177-0.892-1.937-0.827c-0.921,0.081-1.479,0.518-2.082,1.191c-0.025,0.025-0.616,0.646-1.428,0.288
				c-0.354-0.157-0.298-0.374-1.003-0.652c-0.704-0.277-1.517-0.221-1.962-0.556l0,0v1.336c0.162,0.103,0.89,0,1.393,0.234
				c0.438,0.204,0.742,0.563,1.2,0.768c1.44,0.638,2.471-0.487,2.515-0.537c0.549-0.613,0.887-0.816,1.446-0.863
				c0.402-0.036,0.815,0.275,1.287,0.632c0.35,0.264,0.744,0.563,1.2,0.768c0.318,0.141,0.615,0.194,0.886,0.194
				c0.954,0,1.579-0.697,1.602-0.719c0.525-0.554,0.816-0.859,1.431-0.876l0,0h0.026c0.395,0,0.781,0.271,1.222,0.597l0,0v1.853
				c-0.387-0.237-0.802-0.413-1.272-0.397c-1.004,0.027-1.535,0.589-2.111,1.195c-0.023,0.025-0.599,0.639-1.408,0.282
				c-0.354-0.154-0.684-0.406-1.004-0.65c-0.578-0.438-1.177-0.892-1.937-0.827c-0.921,0.08-1.48,0.516-2.082,1.189
				c-0.026,0.025-0.617,0.645-1.43,0.288c-0.354-0.157-0.685-0.406-1.003-0.65c-0.339-0.257-1.578-0.521-1.962-0.681l0,0v2.511
				c0,0.725,0.519,1.063,1.16,1.063l0,0h11.902c0.641,0,1.161-0.339,1.161-1.063l0,0l-0.014-8.406
				c-0.387-0.238-0.802-0.413-1.272-0.398c-1.001,0.029-1.534,0.589-2.112,1.195c-0.021,0.026-0.597,0.641-1.407,0.284
				c-0.353-0.156-0.685-0.408-1.004-0.651c-0.576-0.438-1.176-0.893-1.936-0.828L11.568,10.001z"/>
		</g>
	</g>
</g>
</svg>
