<?xml version="1.0" encoding="utf-8"?>
<!-- Generator: Adobe Illustrator 15.0.0, SVG Export Plug-In . SVG Version: 6.00 Build 0)  -->
<!DOCTYPE svg PUBLIC "-//W3C//DTD SVG 1.1//EN" "http://www.w3.org/Graphics/SVG/1.1/DTD/svg11.dtd">
<svg version="1.1" id="图层_1" xmlns="http://www.w3.org/2000/svg" xmlns:xlink="http://www.w3.org/1999/xlink" x="0px" y="0px"
	 width="24px" height="24px" viewBox="0 0 24 24" enable-background="new 0 0 24 24" xml:space="preserve">
<title>图标2备份 17</title>
<g id="视觉">
	<g id="图标2" transform="translate(-431.000000, -111.000000)">
		<g id="形状结合" transform="translate(431.000000, 111.000000)">
			<path fill="#5681F3" d="M20.261,1C21.223,1,22,1.896,22,3l0,0v18.001C22,22.104,21.223,23,20.261,23l0,0H3.74
				C2.778,23,2,22.104,2,21.001l0,0V3c0-1.104,0.778-2,1.74-2l0,0H20.261z M11.46,9.557l-0.254,0.006
				c-1.151,0.099-1.85,0.631-2.602,1.455c-0.031,0.032-0.771,0.79-1.786,0.353c-0.443-0.194-0.856-0.498-1.254-0.796
				C5.138,10.259,3.591,9.796,3.111,9.6l0,0v1.179c0.202,0.126,0.557,0,1.741,0.581c0.532,0.262,0.928,0.688,1.499,0.938
				c1.8,0.779,3.089-0.596,3.144-0.656c0.686-0.751,1.108-0.998,1.808-1.056c0.502-0.044,1.018,0.336,1.609,0.773
				c0.436,0.324,0.929,0.691,1.499,0.938c0.397,0.171,0.768,0.238,1.106,0.238c1.194,0,1.976-0.851,2.004-0.879
				c0.656-0.674,1.02-1.048,1.788-1.071l0,0h0.032c0.495,0,0.977,0.333,1.527,0.73l0,0v2.264c-0.483-0.291-1.002-0.506-1.59-0.487
				c-1.252,0.035-1.919,0.721-2.64,1.461c-0.03,0.032-0.747,0.784-1.76,0.348c-0.442-0.19-0.855-0.498-1.254-0.797
				c-0.722-0.535-1.471-1.09-2.421-1.012c-1.151,0.1-1.849,0.633-2.602,1.456c-0.031,0.031-0.77,0.79-1.785,0.353
				c-0.443-0.193-0.373-0.457-1.254-0.797c-0.88-0.34-1.896-0.271-2.453-0.68l0,0v1.633c0.202,0.125,1.112,0,1.741,0.286
				c0.547,0.25,0.928,0.688,1.5,0.938c1.8,0.779,3.089-0.596,3.144-0.656c0.686-0.75,1.108-0.998,1.808-1.055
				c0.502-0.045,1.019,0.336,1.609,0.772c0.437,0.322,0.93,0.689,1.5,0.938c0.397,0.172,0.768,0.238,1.106,0.238
				c1.194,0,1.975-0.853,2.003-0.879c0.657-0.676,1.021-1.05,1.789-1.07l0,0h0.032c0.494,0,0.977,0.332,1.527,0.729l0,0v2.265
				c-0.483-0.291-1.002-0.506-1.591-0.487c-1.253,0.034-1.918,0.72-2.639,1.461c-0.029,0.032-0.747,0.782-1.76,0.345
				c-0.442-0.189-0.855-0.496-1.255-0.795c-0.722-0.535-1.47-1.09-2.42-1.011c-1.151,0.098-1.85,0.631-2.602,1.454
				c-0.033,0.031-0.771,0.789-1.787,0.352c-0.443-0.193-0.856-0.496-1.254-0.795c-0.424-0.314-1.972-0.637-2.453-0.832l0,0v3.069
				c0,0.886,0.649,1.3,1.45,1.3l0,0h14.878c0.801,0,1.451-0.414,1.451-1.3l0,0L20.87,10.05c-0.484-0.291-1.003-0.505-1.59-0.487
				c-1.252,0.035-1.918,0.72-2.641,1.461c-0.026,0.032-0.746,0.783-1.759,0.346c-0.441-0.19-0.856-0.498-1.255-0.796
				c-0.721-0.535-1.47-1.091-2.42-1.011L11.46,9.557z"/>
		</g>
	</g>
</g>
</svg>
