<?xml version="1.0" encoding="utf-8"?>
<!-- Generator: Adobe Illustrator 15.0.0, SVG Export Plug-In . SVG Version: 6.00 Build 0)  -->
<!DOCTYPE svg PUBLIC "-//W3C//DTD SVG 1.1//EN" "http://www.w3.org/Graphics/SVG/1.1/DTD/svg11.dtd">
<svg version="1.1" id="图层_1" xmlns="http://www.w3.org/2000/svg" xmlns:xlink="http://www.w3.org/1999/xlink" x="0px" y="0px"
	 width="24px" height="24px" viewBox="0 0 24 24" enable-background="new 0 0 24 24" xml:space="preserve">
<title>苍穹/icon/人工启动备份</title>
<g id="视觉">
	<g id="图标2" transform="translate(-190.000000, -72.000000)">
		<g id="形状结合" transform="translate(187.000000, 69.000000)">
			<path fill="#A7B5D3" d="M20.294,16.589c2.047,0,3.706,1.657,3.706,3.704C24,22.342,22.341,24,20.294,24s-3.705-1.658-3.705-3.706
				S18.247,16.589,20.294,16.589z M13.733,6c2.163,0,3.914,1.603,3.914,4.235c0,1.7-0.733,3.408-1.833,4.408
				c-0.822,0.819-0.361,1.687,0.567,1.897c0.313,0.103,0.603,0.208,0.875,0.315c-1.056,0.776-1.727,1.949-1.727,3.263
				c0,1.057,0.437,2.023,1.155,2.765c-0.837,0.042-1.926,0.059-2.952,0.059C8.792,22.941,6,22.58,6,20.823
				c0-1.425,1.142-3.244,5.066-4.28c0.899-0.197,1.366-1.013,0.671-1.802l-0.103-0.107c-1.087-1-1.815-2.704-1.815-4.398
				C9.819,7.603,11.571,6,13.733,6z M19.367,18.441v3.705l2.779-1.854L19.367,18.441z"/>
		</g>
	</g>
</g>
</svg>
