<?xml version="1.0" encoding="utf-8"?>
<!-- Generator: Adobe Illustrator 15.0.0, SVG Export Plug-In . SVG Version: 6.00 Build 0)  -->
<!DOCTYPE svg PUBLIC "-//W3C//DTD SVG 1.1//EN" "http://www.w3.org/Graphics/SVG/1.1/DTD/svg11.dtd">
<svg version="1.1" id="图层_1" xmlns="http://www.w3.org/2000/svg" xmlns:xlink="http://www.w3.org/1999/xlink" x="0px" y="0px"
	 width="24px" height="24px" viewBox="0 0 24 24" enable-background="new 0 0 24 24" xml:space="preserve">
<title>图标2备份 10</title>
<g id="视觉">
	<g id="图标2" transform="translate(-187.000000, -111.000000)">
		<g id="形状结合" transform="translate(187.000000, 111.000000)">
			<path fill="#5681F3" d="M18.471,13.941c2.502,0,4.529,2.027,4.529,4.529S20.973,23,18.471,23s-4.529-2.027-4.529-4.529
				S15.969,13.941,18.471,13.941z M10.452,1c2.643,0,4.784,1.959,4.784,5.176c0,2.077-0.896,4.165-2.241,5.387
				c-1.004,1.001-0.441,2.061,0.694,2.319c0.382,0.126,0.738,0.255,1.071,0.386c-1.291,0.949-2.112,2.383-2.112,3.988
				c0,1.291,0.533,2.473,1.412,3.379c-1.023,0.051-2.354,0.071-3.608,0.071C4.413,21.706,1,21.264,1,19.117
				c0-1.741,1.395-3.964,6.192-5.231c1.099-0.241,1.669-1.237,0.82-2.203l-0.125-0.131c-1.329-1.223-2.219-3.305-2.219-5.375
				C5.668,2.959,7.809,1,10.452,1z M17.338,16.206v4.529l3.397-2.265L17.338,16.206z"/>
		</g>
	</g>
</g>
</svg>
