<?xml version="1.0" encoding="utf-8"?>
<!-- Generator: Adobe Illustrator 15.0.0, SVG Export Plug-In . SVG Version: 6.00 Build 0)  -->
<!DOCTYPE svg PUBLIC "-//W3C//DTD SVG 1.1//EN" "http://www.w3.org/Graphics/SVG/1.1/DTD/svg11.dtd">
<svg version="1.1" id="图层_1" xmlns="http://www.w3.org/2000/svg" xmlns:xlink="http://www.w3.org/1999/xlink" x="0px" y="0px"
	 width="24px" height="24px" viewBox="0 0 24 24" enable-background="new 0 0 24 24" xml:space="preserve">
<title>图标2备份 14</title>
<g id="视觉">
	<g id="图标2" transform="translate(-327.000000, -111.000000)">
		<g id="形状结合" transform="translate(327.000000, 111.000000)">
			<path fill="#5681F3" d="M12,2c6.076,0,11,3.917,11,8.75c0,4.831-4.924,8.75-11,8.75c-0.704,0-1.389-0.059-2.057-0.159L5.125,22
				v-4.426C2.613,15.97,1,13.509,1,10.75C1,5.917,5.923,2,12,2z M12.656,6.211c-0.187,0-0.34,0.14-0.351,0.319l0,0L12,11.719
				c0,0.046,0.025,0.093,0.066,0.123c0.017,0.023,0.042,0.039,0.067,0.053l0,0l3.797,1.592c0.125,0.052,0.273,0.006,0.346-0.107
				c0.068-0.11,0.037-0.256-0.075-0.329l0,0l-2.913-1.897L13.008,6.53C12.997,6.35,12.843,6.211,12.656,6.211z"/>
		</g>
	</g>
</g>
</svg>
