<?xml version="1.0" encoding="utf-8"?>
<!-- Generator: Adobe Illustrator 15.0.0, SVG Export Plug-In . SVG Version: 6.00 Build 0)  -->
<!DOCTYPE svg PUBLIC "-//W3C//DTD SVG 1.1//EN" "http://www.w3.org/Graphics/SVG/1.1/DTD/svg11.dtd">
<svg version="1.1" id="图层_1" xmlns="http://www.w3.org/2000/svg" xmlns:xlink="http://www.w3.org/1999/xlink" x="0px" y="0px"
	 width="24px" height="24px" viewBox="0 0 24 24" enable-background="new 0 0 24 24" xml:space="preserve">
<title>图标2备份 15</title>
<g id="视觉">
	<g id="图标2" transform="translate(-361.000000, -111.000000)">
		<g id="形状结合" transform="translate(361.000000, 111.000000)">
			<path fill="#5681F3" d="M12,2c6.076,0,11,3.917,11,8.75c0,4.832-4.924,8.75-11,8.75c-0.704,0-1.389-0.059-2.057-0.159L5.125,22
				v-4.425C2.613,15.97,1,13.51,1,10.75C1,5.917,5.923,2,12,2z M15.667,7.295l-8.556,2.98l2.353,1.451l4.405-2.902l-3.635,3.256
				l0.128,2.04l1.155-0.98l1.881,1.215L15.667,7.295z"/>
		</g>
	</g>
</g>
</svg>
