<?xml version="1.0" encoding="utf-8"?>
<!-- Generator: Adobe Illustrator 15.0.0, SVG Export Plug-In . SVG Version: 6.00 Build 0)  -->
<!DOCTYPE svg PUBLIC "-//W3C//DTD SVG 1.1//EN" "http://www.w3.org/Graphics/SVG/1.1/DTD/svg11.dtd">
<svg version="1.1" id="图层_1" xmlns="http://www.w3.org/2000/svg" xmlns:xlink="http://www.w3.org/1999/xlink" x="0px" y="0px"
	 width="24px" height="24px" viewBox="0 0 24 24" enable-background="new 0 0 24 24" xml:space="preserve">
<title>图标2备份 25</title>
<g id="视觉">
	<g id="图标2" transform="translate(-327.000000, -69.000000)">
		<g id="形状结合" transform="translate(327.000000, 69.000000)">
			<path fill="#A7B5D3" d="M12,4c4.972,0,9,3.134,9,7c0,3.865-4.028,7-9,7c-0.576,0-1.137-0.047-1.683-0.127L6.375,20v-3.541
				C4.319,15.176,3,13.207,3,11C3,7.134,7.028,4,12,4z M12.537,7.369c-0.153,0-0.279,0.112-0.288,0.255l0,0L12,11.775
				c0,0.037,0.021,0.075,0.054,0.099c0.014,0.019,0.035,0.031,0.055,0.042l0,0l3.106,1.273c0.103,0.042,0.224,0.005,0.283-0.086
				c0.056-0.088,0.03-0.204-0.061-0.263l0,0l-2.384-1.518l-0.229-3.699C12.815,7.48,12.689,7.369,12.537,7.369z"/>
		</g>
	</g>
</g>
</svg>
