<?xml version="1.0" encoding="utf-8"?>
<!-- Generator: Adobe Illustrator 15.0.0, SVG Export Plug-In . SVG Version: 6.00 Build 0)  -->
<!DOCTYPE svg PUBLIC "-//W3C//DTD SVG 1.1//EN" "http://www.w3.org/Graphics/SVG/1.1/DTD/svg11.dtd">
<svg version="1.1" id="图层_1" xmlns="http://www.w3.org/2000/svg" xmlns:xlink="http://www.w3.org/1999/xlink" x="0px" y="0px"
	 width="24px" height="24px" viewBox="0 0 24 24" enable-background="new 0 0 24 24" xml:space="preserve">
<title>苍穹/icon/租户 copy备份 14@2x</title>
<g id="视觉">
	<g id="图标" transform="translate(-56.000000, -108.000000)">
		<g id="苍穹_x2F_icon_x2F_租户-copy备份-14" transform="translate(51.000000, 103.000000)">
			<path id="形状" fill="#5582F3" d="M17.01,6l0.001,5.735c1.458,0.567,2.5,2.095,2.5,3.89s-1.044,3.323-2.5,3.891L17.01,22.5
				h5.006v-2.75L27,23.875L22.016,28v-2.75h-7.508v-5.734c-1.458-0.565-2.502-2.095-2.502-3.891s1.045-3.324,2.502-3.89V8.75H7V6
				H17.01z M15.759,12.875c-1.382,0-2.502,1.231-2.502,2.75s1.12,2.75,2.502,2.75c1.382,0,2.503-1.231,2.503-2.75
				S17.141,12.875,15.759,12.875z"/>
		</g>
	</g>
</g>
</svg>
