<?xml version="1.0" encoding="UTF-8"?>
<svg width="16px" height="16px" viewBox="0 0 16 16" version="1.1" xmlns="http://www.w3.org/2000/svg" xmlns:xlink="http://www.w3.org/1999/xlink">
    <!-- Generator: Sketch 62 (91390) - https://sketch.com -->
    <title>勾绿</title>
    <desc>Created with Sketch.</desc>
    <g id="勾绿" stroke="none" stroke-width="1" fill="none" fill-rule="evenodd">
        <circle id="椭圆形" fill="#1BA854" cx="8" cy="8" r="7"></circle>
        <path d="M8,2 C4.6862915,2 2,4.6862915 2,8 C2,11.3137085 4.6862915,14 8,14 C11.3137085,14 14,11.3137085 14,8 C14,4.6862915 11.3137085,2 8,2 Z" id="路径" fill="#1BA854"></path>
        <path d="M8,1 C11.8659932,1 15,4.13400675 15,8 C15,11.8659932 11.8659932,15 8,15 C4.13400675,15 1,11.8659932 1,8 C1,4.13400675 4.13400675,1 8,1 Z" id="路径" fill="#1BA854"></path>
        <path d="M11.63003,5.6636636 C11.8157834,5.45933479 12.1320076,5.4442765 12.3363364,5.63002996 C12.517962,5.79514415 12.5500405,6.0633463 12.4244662,6.26441499 L12.36997,6.3363364 L7.36997004,11.8363364 C7.21236474,12.0097022 6.95973284,12.0474992 6.76123105,11.9394009 L6.6799078,11.8841106 L3.6799078,9.38411064 C3.46776935,9.2073286 3.43910732,8.89204625 3.61588936,8.6799078 C3.77302895,8.49134029 4.03960089,8.4477418 4.24589071,8.56454092 L4.3200922,8.61588936 L6.952,10.809 L11.63003,5.6636636 Z" id="路径" fill="#FFFFFF"></path>
    </g>
</svg>