<?xml version="1.0" encoding="UTF-8"?>
<svg width="16px" height="16px" viewBox="0 0 16 16" version="1.1" xmlns="http://www.w3.org/2000/svg" xmlns:xlink="http://www.w3.org/1999/xlink">
    <!-- Generator: Sketch 62 (91390) - https://sketch.com -->
    <title>转移</title>
    <desc>Created with Sketch.</desc>
    <g id="转移" stroke="none" stroke-width="1" fill="none" fill-rule="evenodd">
        <path d="M8,1 L8.24064975,1.00405902 C11.9952166,1.13090132 15,4.21454828 15,8 C15,11.7854517 11.9952166,14.8690987 8.24064975,14.995941 L8,15 C4.13400675,15 1,11.8659932 1,8 C1,4.13400675 4.13400675,1 8,1 Z" id="椭圆形" fill="#E79C51"></path>
        <path d="M7.14644661,4.14644661 C7.34170876,3.95118446 7.65829124,3.95118446 7.85355339,4.14644661 C8.02711974,4.32001296 8.04640489,4.58943736 7.91140884,4.7843055 L7.85355339,4.85355339 L4.707,8 L7.85355339,11.1464466 C8.02711974,11.320013 8.04640489,11.5894374 7.91140884,11.7843055 L7.85355339,11.8535534 C7.67998704,12.0271197 7.41056264,12.0464049 7.2156945,11.9114088 L7.14644661,11.8535534 L3.64644661,8.35355339 C3.47288026,8.17998704 3.45359511,7.91056264 3.58859116,7.7156945 L3.64644661,7.64644661 L7.14644661,4.14644661 Z" id="路径" fill="#FFFFFF" fill-rule="nonzero"></path>
        <path d="M10.1464466,4.14644661 C10.3417088,3.95118446 10.6582912,3.95118446 10.8535534,4.14644661 C11.0271197,4.32001296 11.0464049,4.58943736 10.9114088,4.7843055 L10.8535534,4.85355339 L7.707,8 L10.8535534,11.1464466 C11.0271197,11.320013 11.0464049,11.5894374 10.9114088,11.7843055 L10.8535534,11.8535534 C10.679987,12.0271197 10.4105626,12.0464049 10.2156945,11.9114088 L10.1464466,11.8535534 L6.64644661,8.35355339 C6.47288026,8.17998704 6.45359511,7.91056264 6.58859116,7.7156945 L6.64644661,7.64644661 L10.1464466,4.14644661 Z" id="路径" fill="#FFFFFF" fill-rule="nonzero"></path>
    </g>
</svg>