<?xml version="1.0" encoding="utf-8"?>
<!-- Generator: Adobe Illustrator 24.1.2, SVG Export Plug-In . SVG Version: 6.00 Build 0)  -->
<svg version="1.1" id="图层_1" xmlns="http://www.w3.org/2000/svg" xmlns:xlink="http://www.w3.org/1999/xlink" x="0px" y="0px"
	 viewBox="0 0 24 24" style="enable-background:new 0 0 24 24;" xml:space="preserve">
<style type="text/css">
	.st0{fill-rule:evenodd;clip-rule:evenodd;fill:#5582F3;}
	.st1{fill-rule:evenodd;clip-rule:evenodd;fill:#FFFFFF;}
</style>
<g id="第一期-控制台页面支持">
	<g id="全LOGO-示例样式" transform="translate(-271.000000, -934.000000)">
		<g id="设计器-48_x2A_48" transform="translate(271.000000, 934.000000)">
			<path id="矩形" class="st0" d="M3,0h18c1.6,0,3,1.4,3,3v18c0,1.6-1.4,3-3,3H3c-1.6,0-3-1.4-3-3V3C0,1.4,1.4,0,3,0z"/>
			<path id="形状结合" class="st1" d="M5,7.5h1V12c0,3.3,2.7,6,6,6s6-2.7,6-6s-2.7-6-6-6V5c3.9,0,7,3.1,7,7s-3.1,7-7,7
				s-7-3.1-7-7l0,0V7.5z M5.7,4.8C5.7,4.8,5.7,4.8,5.7,4.8l1.6,2.4c0.1,0.1,0.1,0.3-0.1,0.3c0,0-0.1,0-0.1,0H4
				c-0.2,0-0.3-0.1-0.3-0.3c0-0.1,0-0.1,0-0.2l1.6-2.3C5.3,4.7,5.5,4.7,5.7,4.8z M12,5v1h-1.5C10.2,6,10,5.8,10,5.5S10.2,5,10.5,5
				H12z M9.5,9h5c1.1,0,2,0.9,2,2v2c0,1.1-0.9,2-2,2h-5c-1.1,0-2-0.9-2-2v-2C7.5,9.9,8.4,9,9.5,9z M10.3,10.5c0.4,0,0.8,0.4,0.8,0.8
				v1c0,0.4-0.4,0.8-0.8,0.8s-0.8-0.4-0.8-0.8v-1C9.5,10.9,9.9,10.5,10.3,10.5z M13.8,10.5c0.4,0,0.8,0.4,0.8,0.8v1
				c0,0.4-0.4,0.8-0.8,0.8S13,12.6,13,12.3v-1C13,10.9,13.4,10.5,13.8,10.5z"/>
		</g>
	</g>
</g>
</svg>
