<?xml version="1.0" encoding="utf-8"?>
<!-- Generator: Adobe Illustrator 15.0.0, SVG Export Plug-In . SVG Version: 6.00 Build 0)  -->
<!DOCTYPE svg PUBLIC "-//W3C//DTD SVG 1.1//EN" "http://www.w3.org/Graphics/SVG/1.1/DTD/svg11.dtd">
<svg version="1.1" id="图层_1" xmlns="http://www.w3.org/2000/svg" xmlns:xlink="http://www.w3.org/1999/xlink" x="0px" y="0px"
	 width="24px" height="24px" viewBox="0 0 24 24" enable-background="new 0 0 24 24" xml:space="preserve">
<title>苍穹/icon/租户 copy备份 24@2x</title>
<g id="视觉">
	<g id="图标" transform="translate(-369.000000, -108.000000)">
		<g id="苍穹_x2F_icon_x2F_租户-copy备份-24" transform="translate(366.000000, 103.000000)">
			<path id="Shape" fill="#5582F3" d="M17.838,8.924L16.419,8.5c-0.284,0-0.709,0.283-0.709,0.565l-4.116,15.125
				c-0.142,0.426,0.142,0.707,0.567,0.851l1.42,0.423c0.426,0.143,0.709-0.141,0.851-0.564l3.975-14.984
				C18.548,9.49,18.266,9.065,17.838,8.924z M11.167,13.448c0.284-0.283,0.284-0.707,0-0.989l-0.994-0.99
				c-0.284-0.283-0.709-0.283-0.993,0l-4.967,4.947c-0.284,0.283-0.284,0.707,0,0.99l4.967,4.946c0.284,0.284,0.709,0.284,0.993,0
				l0.994-0.987c0.284-0.282,0.284-0.707,0-0.989l-2.98-2.828c-0.284-0.282-0.284-0.848,0-1.131L11.167,13.448z M25.788,16.416
				l-4.97-4.947c-0.282-0.283-0.709-0.283-0.992,0l-0.994,0.99c-0.284,0.282-0.284,0.707,0,0.989l2.98,2.968
				c0.283,0.283,0.283,0.707,0,0.99l-2.98,2.969c-0.284,0.282-0.284,0.707,0,0.989l0.994,0.987c0.283,0.284,0.71,0.284,0.992,0
				l4.97-4.946C26.071,17.265,26.071,16.699,25.788,16.416L25.788,16.416z"/>
		</g>
	</g>
</g>
</svg>
