<?xml version="1.0" encoding="utf-8"?>
<!-- Generator: Adobe Illustrator 15.0.0, SVG Export Plug-In . SVG Version: 6.00 Build 0)  -->
<!DOCTYPE svg PUBLIC "-//W3C//DTD SVG 1.1//EN" "http://www.w3.org/Graphics/SVG/1.1/DTD/svg11.dtd">
<svg version="1.1" id="图层_1" xmlns="http://www.w3.org/2000/svg" xmlns:xlink="http://www.w3.org/1999/xlink" x="0px" y="0px"
	 width="24px" height="24px" viewBox="0 0 24 24" enable-background="new 0 0 24 24" xml:space="preserve">
<title>24/集成服务云/1@2x</title>
<g id="_x32_4_x2F_集成服务云_x2F_1">
	<path id="Shape" fill="#A7B5D3" d="M14.322,5.824L13.161,5.5c-0.232,0-0.58,0.217-0.58,0.432L9.213,17.498
		c-0.116,0.325,0.116,0.54,0.464,0.65l1.162,0.323c0.349,0.109,0.58-0.107,0.696-0.432l3.252-11.458
		C14.903,6.257,14.672,5.932,14.322,5.824z M8.865,9.284c0.232-0.217,0.232-0.541,0-0.757L8.051,7.771
		c-0.232-0.216-0.58-0.216-0.813,0l-4.064,3.783c-0.232,0.217-0.232,0.541,0,0.757l4.064,3.783c0.232,0.217,0.58,0.217,0.813,0
		l0.813-0.756c0.232-0.216,0.232-0.54,0-0.756l-2.438-2.163c-0.232-0.215-0.232-0.648,0-0.865L8.865,9.284z M20.826,11.553
		l-4.065-3.783c-0.23-0.216-0.58-0.216-0.812,0l-0.813,0.757c-0.232,0.216-0.232,0.541,0,0.757l2.438,2.269
		c0.231,0.217,0.231,0.541,0,0.757l-2.438,2.271c-0.232,0.216-0.232,0.54,0,0.756l0.813,0.756c0.231,0.217,0.581,0.217,0.812,0
		l4.065-3.783C21.059,12.203,21.059,11.77,20.826,11.553L20.826,11.553z"/>
</g>
</svg>
