<?xml version="1.0" encoding="utf-8"?>
<!-- Generator: Adobe Illustrator 15.0.0, SVG Export Plug-In . SVG Version: 6.00 Build 0)  -->
<!DOCTYPE svg PUBLIC "-//W3C//DTD SVG 1.1//EN" "http://www.w3.org/Graphics/SVG/1.1/DTD/svg11.dtd">
<svg version="1.1" id="图层_1" xmlns="http://www.w3.org/2000/svg" xmlns:xlink="http://www.w3.org/1999/xlink" x="0px" y="0px"
	 width="24px" height="24px" viewBox="0 0 24 24" enable-background="new 0 0 24 24" xml:space="preserve">
<title>图标2备份 4</title>
<g id="视觉">
	<g id="图标2" transform="translate(-80.000000, -69.000000)">
		<g id="形状结合" transform="translate(80.000000, 69.000000)">
			<path fill="#A7B5D3" d="M11.986,3.762c4.555,0,8.248,3.797,8.248,8.483c0.001,2.035-0.71,4-1.995,5.529l2.052,2.113
				c0.119,0.12,0.188,0.288,0.188,0.46s-0.068,0.34-0.188,0.46c-0.248,0.257-0.649,0.257-0.897,0l-2.054-2.11
				c-1.495,1.314-3.393,2.035-5.352,2.03c-1.952,0.003-3.843-0.712-5.337-2.021l-2.042,2.102c-0.25,0.256-0.648,0.256-0.898,0
				c-0.118-0.122-0.185-0.29-0.185-0.461c0-0.173,0.067-0.34,0.185-0.461l2.038-2.097c-1.295-1.531-2.009-3.504-2.008-5.545
				C3.74,7.56,7.432,3.762,11.986,3.762z M10.5,9.4v6.001l5-3L10.5,9.4z M18.728,3C19.982,3,21,4.047,21,5.337
				c0,0.719-0.321,1.396-0.869,1.838c-0.797-1.345-1.889-2.472-3.187-3.288C17.379,3.325,18.034,2.998,18.728,3z M5.272,3
				c0.69,0,1.343,0.322,1.773,0.877C5.852,4.623,4.833,5.63,4.057,6.831L3.852,7.16l-0.14-0.123C3.26,6.599,3,5.985,3,5.337
				c0-0.619,0.24-1.213,0.665-1.654C4.094,3.245,4.671,2.999,5.272,3z"/>
		</g>
	</g>
</g>
</svg>
