<?xml version="1.0" encoding="utf-8"?>
<!-- Generator: Adobe Illustrator 15.0.0, SVG Export Plug-In . SVG Version: 6.00 Build 0)  -->
<!DOCTYPE svg PUBLIC "-//W3C//DTD SVG 1.1//EN" "http://www.w3.org/Graphics/SVG/1.1/DTD/svg11.dtd">
<svg version="1.1" id="图层_1" xmlns="http://www.w3.org/2000/svg" xmlns:xlink="http://www.w3.org/1999/xlink" x="0px" y="0px"
	 width="24px" height="24px" viewBox="0 0 24 24" enable-background="new 0 0 24 24" xml:space="preserve">
<title>图标2备份 7</title>
<g id="视觉">
	<g id="图标2" transform="translate(-80.000000, -111.000000)">
		<g id="形状结合" transform="translate(80.000000, 111.000000)">
			<path fill="#5681F3" d="M11.983,1.931c5.567,0,10.08,4.642,10.08,10.368c0.002,2.488-0.867,4.889-2.438,6.758l2.508,2.582
				c0.146,0.147,0.229,0.353,0.229,0.563s-0.084,0.415-0.229,0.563c-0.303,0.313-0.793,0.313-1.097,0l-2.51-2.58
				c-1.827,1.606-4.146,2.487-6.542,2.481c-2.386,0.004-4.697-0.87-6.523-2.47l-2.495,2.568c-0.305,0.313-0.792,0.313-1.098,0
				c-0.144-0.149-0.226-0.354-0.226-0.563c0-0.212,0.082-0.416,0.226-0.563l2.491-2.563c-1.583-1.872-2.456-4.282-2.454-6.777
				C1.905,6.574,6.417,1.931,11.983,1.931z M10.167,8.823v7.334l6.112-3.667L10.167,8.823z M20.223,1C21.757,1,23,2.28,23,3.856
				c0,0.879-0.393,1.708-1.063,2.248c-0.974-1.645-2.309-3.021-3.895-4.019C18.574,1.397,19.375,0.998,20.223,1z M3.777,1
				C4.62,1,5.418,1.394,5.944,2.072C4.486,2.983,3.24,4.215,2.292,5.683L2.041,6.084L1.87,5.935C1.318,5.399,1,4.648,1,3.856
				C1,3.1,1.293,2.373,1.813,1.835C2.337,1.299,3.043,0.999,3.777,1z"/>
		</g>
	</g>
</g>
</svg>
