<?xml version="1.0" encoding="utf-8"?>
<!-- Generator: Adobe Illustrator 15.0.0, SVG Export Plug-In . SVG Version: 6.00 Build 0)  -->
<!DOCTYPE svg PUBLIC "-//W3C//DTD SVG 1.1//EN" "http://www.w3.org/Graphics/SVG/1.1/DTD/svg11.dtd">
<svg version="1.1" id="图层_1" xmlns="http://www.w3.org/2000/svg" xmlns:xlink="http://www.w3.org/1999/xlink" x="0px" y="0px"
	 width="24px" height="24px" viewBox="0 0 24 24" enable-background="new 0 0 24 24" xml:space="preserve">
<title>24/集成服务云/8@2x</title>
<g id="_x32_4_x2F_集成服务云_x2F_8">
	<path id="Shape" fill="#A7B5D3" d="M20.778,4.866c-0.14-0.129-0.329-0.2-0.528-0.198c-0.198-0.004-0.391,0.067-0.525,0.198
		l-1.522,1.342c-0.838-0.698-1.815-1.251-2.88-1.63C14.268,4.198,13.14,4.001,12,4C9.954,3.969,7.96,4.583,6.375,5.735
		c-1.597,1.148-2.711,2.742-3.164,4.522v0.074c-0.001,0.088,0.039,0.173,0.111,0.234c0.068,0.064,0.165,0.101,0.264,0.1h2.331
		c0.169,0.003,0.316-0.1,0.352-0.246c0.183-0.416,0.39-0.822,0.62-1.218C7.978,7.62,9.915,6.657,12,6.661
		c1.52-0.019,2.985,0.493,4.086,1.427l-1.607,1.436c-0.15,0.119-0.234,0.291-0.234,0.469s0.086,0.349,0.234,0.469
		c0.136,0.13,0.326,0.203,0.527,0.198h5.246c0.199,0.001,0.391-0.07,0.526-0.198c0.146-0.122,0.226-0.292,0.221-0.469V5.328
		C21.001,5.153,20.92,4.985,20.778,4.866z M20.334,13.33h-2.257c-0.164-0.004-0.311,0.096-0.346,0.238
		c-0.332,0.692-0.539,1.1-0.623,1.219c-0.534,0.775-1.282,1.418-2.174,1.864c-0.896,0.445-1.907,0.68-2.936,0.677
		c-0.75,0.002-1.495-0.123-2.191-0.369c-0.698-0.247-1.337-0.606-1.886-1.063l1.604-1.427c0.212-0.19,0.276-0.475,0.16-0.723
		c-0.114-0.247-0.386-0.41-0.688-0.41H3.75C3.337,13.34,3.004,13.636,3,14.002v4.665c-0.002,0.271,0.18,0.514,0.461,0.617
		c0.281,0.103,0.604,0.045,0.817-0.149l1.512-1.344c0.824,0.703,1.793,1.257,2.853,1.635c1.052,0.38,2.176,0.574,3.311,0.572
		c2.038,0.031,4.024-0.583,5.599-1.732c1.592-1.15,2.699-2.744,3.144-4.524c0.014-0.021,0.019-0.048,0.014-0.072
		C20.711,13.483,20.543,13.333,20.334,13.33L20.334,13.33L20.334,13.33z"/>
</g>
</svg>
