<?xml version="1.0" encoding="UTF-8"?>
<svg width="160px" height="168px" viewBox="0 0 160 168" version="1.1" xmlns="http://www.w3.org/2000/svg" xmlns:xlink="http://www.w3.org/1999/xlink">
    <title>未命名</title>
    <g id="页面-1" stroke="none" stroke-width="1" fill="none" fill-rule="evenodd">
        <g id="API网关" transform="translate(0.833333, 0.666667)" fill="#A4B6D6" fill-rule="nonzero">
            <path d="M141.666667,89.5833334 C146.25,90 150.416667,91.25 154.166667,92.9166668 L154.166667,89.5833334 C154.166667,59.1666668 136.25,32.5 110.416667,20 C110.416667,24.5833334 109.166667,28.75 107.5,32.5 C127.916667,43.3333334 141.666667,65 141.666667,89.5833334 Z M12.9166666,94.1666668 C12.9166666,92.5 12.5,90.8333334 12.5,89.5833334 C12.5,65 26.25,43.3333334 46.6666666,32.5 C45,28.75 43.75,24.5833334 43.75,20 C17.9166666,32.5 1.42108547e-14,59.1666668 1.42108547e-14,89.5833334 C1.42108547e-14,92.9166668 0.416666602,95.8333334 0.833333203,99.1666668 M88.4037729,153.237211 C84.7199979,153.853496 80.9364623,154.166667 77.0833332,154.166667 C65.8333332,154.166667 55.4166666,151.25 45.8333332,146.25 C43.3333332,150 39.9999998,152.916667 36.6666666,155 C48.3333332,162.083333 62.0833332,166.666667 77.0833332,166.666667 C94.1666666,166.666667 110,160.833333 122.5,151.666667 C119.166667,149.583333 115.833333,146.666667 113.333333,143.333333 C105.926924,148.369692 97.4673,151.720908 88.4037729,153.237211 Z" id="形状"></path>
            <path d="M58.3333332,18.75 C58.3333332,29.1053391 66.7279941,37.5 77.0833332,37.5 C87.4386723,37.5 95.8333332,29.1053391 95.8333332,18.75 C95.8333332,8.39466094 87.4386723,-3.55271368e-15 77.0833332,-3.55271368e-15 C66.7279941,-3.55271368e-15 58.3333332,8.39466094 58.3333332,18.75 Z" id="路径"></path>
            <path d="M0,127.083333 C0,133.782063 3.57372964,139.971945 9.37499989,143.32131 C15.1762701,146.670675 22.3237299,146.670675 28.1250001,143.32131 C33.9262704,139.971945 37.5,133.782063 37.5,127.083333 C37.5,116.727994 29.1053391,108.333333 18.75,108.333333 C8.39466094,108.333333 0,116.727994 0,127.083333 L0,127.083333 Z" id="路径"></path>
            <path d="M120.833333,122.916667 C120.833333,133.272006 129.227994,141.666667 139.583333,141.666667 C149.938672,141.666667 158.333333,133.272006 158.333333,122.916667 C158.333333,112.561328 149.938672,104.166667 139.583333,104.166667 C129.227994,104.166667 120.833333,112.561328 120.833333,122.916667 Z" id="路径"></path>
            <path d="M43.3333332,101.666667 L43.3333332,102.916667 C43.3333332,105 44.5833332,106.25 46.6666666,106.25 C48.3333332,106.25 49.5833332,105.416667 50.4166666,103.75 L52.0833332,99.1666668 L65.8333332,99.1666668 L67.0833332,103.75 C67.9166666,105.416667 69.1666666,106.25 70.8333332,106.25 C72.9166666,106.25 74.1666666,105.416667 74.1666666,103.333333 C74.1666666,102.916667 74.1666666,102.083333 73.75,101.25 L64.1666666,74.1666668 C62.9166666,71.2500002 61.25,70 58.75,70 C56.25,70 54.5833334,71.6666666 53.3333332,74.1666668 L43.3333332,101.666667 L43.3333332,101.666667 Z M58.75,77.9166668 L63.3333332,92.5 L54.1666666,92.5 L58.75,77.9166668 L58.75,77.9166668 Z M76.6666666,74.1666668 L76.6666666,102.5 C76.6666666,105 77.9166666,105.833333 80.4166666,105.833333 C82.9166666,105.833333 84.1666666,104.583333 84.1666666,102.5 L84.1666666,94.1666668 L89.5833332,94.1666668 C97.4999998,93.7500002 101.666667,89.5833334 102.083333,82.0833334 C101.666667,74.5833334 97.4999998,71.2500002 89.5833332,70.4166668 L80.4166666,70.4166668 C77.9166666,70.4166668 76.6666666,71.6666668 76.6666666,74.1666668 Z M92.2260764,87.9166668 L84.1666666,87.9166668 L84.1666666,77.5 L92.2260764,77.5 C95.5594098,77.5 94.1666666,79.1666666 94.1666666,82.5 C93.75,85.8333334 95.142743,87.5 92.2260764,87.9166668 Z M107.916667,106.25 C110.416667,106.25 111.666667,105 111.666667,102.916667 L111.666667,74.5833334 C111.666667,72.0833334 110.416667,70.8333334 107.916667,70.8333334 C105.416667,70.8333334 104.166667,72.0833334 104.166667,74.5833334 L104.166667,102.916667 C104.583333,105 105.833333,106.25 107.916667,106.25 Z" id="形状"></path>
        </g>
    </g>
</svg>