<?xml version="1.0" encoding="UTF-8"?>
<svg width="32px" height="32px" viewBox="0 0 32 32" version="1.1" xmlns="http://www.w3.org/2000/svg" xmlns:xlink="http://www.w3.org/1999/xlink">
    <title>0.全局样式/1.图标/5.调整</title>
    <g id="0.全局样式/1.图标/5.调整" stroke="none" stroke-width="1" fill="none" fill-rule="evenodd">
        <path d="M19.1388293,5.1244629 C22.1604408,5.42795761 24.5848003,7.24706388 25.1020467,10.3676597 L23.3530843,10.3676597 L26.1756119,14.5700372 L29,10.3676597 L27.0519536,10.3676597 C26.5347073,6.16528215 23.3549449,3.43382985 19.3379133,3.04468634 C18.7815944,3 18.2662087,3.47665425 18.2662087,4.08364366 C18.3034206,4.60498425 18.6606555,5.07977657 19.1388293,5.1244629 Z M14.7664234,3 L4.94804637,3 C4.39172749,3 3.9544869,3.47665425 3.9544869,4.08364366 L3.9544869,13.4435692 C3.9544869,14.0505586 4.39172749,14.5272128 4.94804637,14.5272128 L14.7664234,14.5272128 C15.3227422,14.5272128 15.7599828,14.0505586 15.7599828,13.4435692 L15.7599828,4.08364366 C15.7599828,3.47665425 15.3227422,3 14.7664234,3 Z M13.8119365,12.4474363 L5.90253328,12.4474363 L5.90253328,5.07977657 L13.8137971,5.07977657 L13.8137971,12.4474363 L13.8119365,12.4474363 L13.8119365,12.4474363 Z M12.8574495,26.8345746 C9.47860312,26.5310799 6.89423215,24.2781438 6.77515386,20.5505586 L8.6431945,20.5505586 L5.82252755,16.348181 L3,20.5505586 L4.86804065,20.5505586 C4.94618577,25.3617875 8.3250322,28.4805213 12.6602261,28.9143512 C13.216545,28.9571756 13.733891,28.4805213 13.733891,27.8735319 C13.7408981,27.3571759 13.3673047,26.9142578 12.8574495,26.8345746 L12.8574495,26.8345746 Z M27.0910262,17.4299628 L17.2707886,17.4299628 C16.7126091,17.4299628 16.2772291,17.9084789 16.2772291,18.5136064 L16.2772291,27.9182183 C16.2772291,28.5233457 16.7126091,29 17.2707886,29 L27.0891656,29 C27.6454845,29 28.0808699,28.5233457 28.0808699,27.9182183 L28.0808699,18.5136064 C28.0827251,17.9084789 27.6064119,17.4299628 27.0910262,17.4299628 L27.0910262,17.4299628 Z M26.1346787,26.877399 L18.2252755,26.877399 L18.2252755,19.5525637 L26.1346787,19.5525637 L26.1346787,26.877399 L26.1346787,26.877399 Z" id="形状" fill="#666666" fill-rule="nonzero"></path>
    </g>
</svg>