 <!DOCTYPE svg PUBLIC "-//W3C//DTD SVG 1.1//EN" "http://www.w3.org/Graphics/SVG/1.1/DTD/svg11.dtd"><svg class="icon" width="200" height="200" style="vertical-align:middle;fill:currentColor;overflow:hidden;" viewBox="0 0 1024 1024" version="1.1" xmlns="http://www.w3.org/2000/svg">
<path d="M814.234722 100.025944L814.253559 100.040127L814.324241 100.093462C828.08525 110.479433 830.835403 130.047799 820.470228 143.82448L256.213296 893.796188C245.846798 907.574628 226.273459 910.340553 212.495019 899.974056C212.482459 899.964606 212.469906 899.955147 212.45736 899.945678L212.405502 899.906538C198.644492 889.520566 195.894341 869.9522 206.259515 856.175519L770.516447 106.203812C780.882944 92.425372 800.456284 89.659447 814.234722 100.025944zM718.75 568.117981C805.044491 568.117981 875 638.183494 875 724.613684C875 811.043872 805.044491 881.109384 718.75 881.109384C632.455509 881.109384 562.5 811.043872 562.5 724.613684C562.5 638.183494 632.455509 568.117981 718.75 568.117981zM718.75 630.716263C666.973306 630.716263 625 672.755569 625 724.613684C625 776.471797 666.973306 818.511103 718.75 818.511103C770.526694 818.511103 812.5 776.471797 812.5 724.613684C812.5 672.755569 770.526694 630.716263 718.75 630.716263zM281.25 129.930019C367.544491 129.930019 437.5 199.995531 437.5 286.42572C437.5 372.855909 367.544491 442.921422 281.25 442.921422C194.955508 442.921422 125 372.855909 125 286.42572C125 199.995531 194.955508 129.930019 281.25 129.930019zM281.25 192.528299C229.473305 192.528299 187.5 234.567607 187.5 286.42572C187.5 338.283834 229.473305 380.323141 281.25 380.323141C333.026694 380.323141 375 338.283834 375 286.42572C375 234.567607 333.026694 192.528299 281.25 192.528299z">
</path>
</svg>