<?xml version="1.0" standalone="no"?><!DOCTYPE svg PUBLIC "-//W3C//DTD SVG 1.1//EN" "http://www.w3.org/Graphics/SVG/1.1/DTD/svg11.dtd"><svg t="1566194818128" class="icon" viewBox="0 0 1024 1024" version="1.1" xmlns="http://www.w3.org/2000/svg" p-id="15021" xmlns:xlink="http://www.w3.org/1999/xlink" width="200" height="200"><defs><style type="text/css"></style></defs><path d="M523.34592 133.12c-150.3232 0-246.29248 121.28256-246.29248 271.5648s209.63328 366.30528 246.29248 366.30528S769.6384 555.008 769.6384 404.6848s-96.01024-271.5648-246.29248-271.5648z m0 353.6896A107.3152 107.3152 0 1 1 630.784 379.45344a107.23328 107.23328 0 0 1-107.43808 107.3152z m-189.44 195.70688c-89.7024 18.96448-145.24416 49.152-145.24416 94.69952 0 70.73792 151.552 113.664 340.992 113.664s340.992-42.92608 340.992-113.664c0-46.73536-59.31008-78.27456-155.40224-97.23904a25.02656 25.02656 0 0 0-8.8064 49.152c72.00768 13.88544 114.93376 36.6592 114.93376 48.00512 0 2.53952-3.80928 6.3488-13.88544 13.88544a235.9296 235.9296 0 0 1-60.57984 25.23136c-56.85248 16.384-133.89824 25.23136-215.98208 25.23136s-160.3584-8.8064-215.98208-25.23136a238.96064 238.96064 0 0 1-60.57984-25.23136c-11.34592-7.61856-15.1552-11.34592-15.1552-13.88544 0-10.07616 39.19872-31.58016 104.8576-45.4656a24.20736 24.20736 0 0 0 18.96448-30.3104 22.56896 22.56896 0 0 0-29.12256-18.96448z" p-id="15022" fill="#ffffff"></path></svg>