<?xml version="1.0" encoding="UTF-8"?>
<svg width="100px" height="429px" viewBox="0 0 100 429" version="1.1" xmlns="http://www.w3.org/2000/svg" xmlns:xlink="http://www.w3.org/1999/xlink">
    <!-- Generator: Sketch 56.2 (81672) - https://sketch.com -->
    <title>编组 6备份 2@2x</title>
    <desc>Created with Sketch.</desc>
    <defs>
        <linearGradient x1="50%" y1="100%" x2="50%" y2="3.061617e-15%" id="linearGradient-1">
            <stop stop-color="#B683FA" offset="0%"></stop>
            <stop stop-color="#816DF9" offset="100%"></stop>
        </linearGradient>
        <polygon id="path-2" points="-1.11449311e-13 0 100 0 100 429 -1.11449311e-13 429"></polygon>
        <linearGradient x1="50%" y1="33.4397971%" x2="50%" y2="128.91613%" id="linearGradient-4">
            <stop stop-color="#FFFFFF" offset="0%"></stop>
            <stop stop-color="#FFFFFF" stop-opacity="0.401333042" offset="100%"></stop>
        </linearGradient>
    </defs>
    <g id="新提案" stroke="none" stroke-width="1" fill="none" fill-rule="evenodd">
        <g id="采购商城-首页" transform="translate(-360.000000, -1130.000000)">
            <g id="编组-6备份-2" transform="translate(360.000000, 1130.000000)">
                <g id="JL22O2N5WPEG4">
                    <mask id="mask-3" fill="white">
                        <use xlink:href="#path-2"></use>
                    </mask>
                    <use id="蒙版" fill="url(#linearGradient-1)" xlink:href="#path-2"></use>
                </g>
                <g id="编组" transform="translate(18.000000, 166.000000)">
                    <g id="编组-7">
                        <g id="编组-12">
                            <text id="新品上市" font-family="PingFangSC-Medium, PingFang SC" font-size="16" font-weight="400" line-spacing="12.8" fill="#FFFFFF">
                                <tspan x="0" y="81">新品上市</tspan>
                            </text>
                            <text id="new" opacity="0.600000024" font-family="PingFangSC-Regular, PingFang SC" font-size="11" font-weight="normal" line-spacing="12.8" fill="#FFFFFF">
                                <tspan x="19.992" y="84"></tspan>
                                <tspan x="19.2" y="96.8">NEW</tspan>
                            </text>
                            <g id="新品" transform="translate(6.400000, 0.000000)" fill-rule="nonzero">
                                <rect id="矩形" fill="#000000" opacity="0" x="0" y="0" width="51.2" height="52"></rect>
                                <path d="M49.352,27.0769687 C48.55445,26.1315234 48.73125,25.7251719 49.39935,24.8956094 C52.85985,20.593625 50.98415,14.6485625 45.67185,13.2360312 C44.3366,12.8813242 43.7695,12.4838086 44.2291,11.3473242 C44.368,5.89367187 39.1882,2.22396484 34.14375,4.13054688 C32.9589,4.57818359 32.53975,4.48433984 31.8288,3.4279375 C28.76765,-1.11749219 22.40135,-1.12155469 19.3633,3.43027344 C18.64065,4.51201563 18.18615,4.5556875 17.04265,4.13791016 C11.87265,2.24742578 6.63645,5.98431641 6.98845,11.3619492 C7.07715,12.7088203 6.652,12.9227109 5.51715,13.231918 C0.2138,14.6793359 -1.7206,20.715957 1.79625,24.9010938 C2.56975,25.8214023 2.47905,26.2212031 1.7738,27.0995664 C-1.7394,31.4733555 0.2693,37.3885078 5.746,38.8271406 C6.75715,39.0927266 7.07715,39.2965117 7.01,40.4380234 C6.6726,46.1363906 11.8082,49.8043203 17.2751,47.7867813 C18.30025,47.4072422 18.6508,47.5034219 19.25505,48.4149453 C22.42105,53.1894492 28.77925,53.1701016 31.94855,48.3648242 C32.581,47.4063789 32.9474,47.4265898 33.93275,47.8006445 C39.34595,49.8559141 44.65225,45.9758711 44.16785,40.317418 C44.07855,39.2724922 44.34825,39.105625 45.303,38.8644648 C50.93115,37.4453828 53.01685,31.4217617 49.352,27.0769687 Z M10.73175,36.4713984 L7.79285,27.8922617 C7.53845,27.1482656 7.803,26.625168 8.5849,26.3251016 C9.0304,26.2658398 9.4265,26.3320586 9.7713,26.521625 L17.03545,31.1976133 L17.098,31.1764375 L15.1462,25.4775625 C14.8915,24.7335156 15.1561,24.210418 15.9383,23.9094883 C16.7062,23.7005742 17.2379,23.9629102 17.53535,24.693043 L20.4725,33.2722813 C20.67265,33.9909883 20.3949,34.4735625 19.64085,34.7211719 C19.2217,34.8596523 18.83975,34.8329922 18.49435,34.6401758 L11.24995,30.0252266 L11.1874,30.0455391 L13.1185,35.6860156 C13.3177,36.4050781 13.04065,36.8873477 12.2868,37.1361758 C11.4915,37.3984609 10.9724,37.1766992 10.7318,36.4714492 L10.73175,36.4713984 Z M21.836,32.7589844 L18.9986,24.4745313 C18.7167,23.6510625 18.9671,23.0902344 19.75025,22.7892031 L23.7719,21.4687891 C24.45565,21.2865859 24.9466,21.4972266 25.2459,22.0959375 C25.40225,22.8288125 25.1459,23.3055469 24.47625,23.5257852 L21.64815,24.4543711 L22.3929,26.6284688 L25.0326,25.7624453 C25.77255,25.6069531 26.2899,25.8287148 26.58925,26.4277813 C26.73215,27.1215547 26.45615,27.6041289 25.75755,27.8767227 L23.11785,28.7439141 L23.90255,31.0348086 L26.85705,30.06575 C27.58295,29.8715625 28.07395,30.0819492 28.331,30.6923906 C28.48735,31.4249609 28.2309,31.9016953 27.56135,32.1219844 L23.41385,33.4843945 C22.6443,33.6942227 22.11855,33.4512852 21.836,32.7589844 L21.836,32.7589844 Z M30.7805,29.8878125 L25.88915,22.3422266 C25.751,22.2142578 25.6701,22.0452578 25.64525,21.8331445 C25.48555,21.2323516 25.74865,20.7767422 26.43465,20.4643359 C27.10425,20.2449102 27.6723,20.4722578 28.137,21.147293 L31.6296,27.0600586 L31.6934,27.0389844 L31.51295,19.7769609 C31.5345,19.1609336 31.8536,18.7284805 32.46865,18.4832578 C33.0687,18.329543 33.58795,18.486457 34.0271,18.9511563 L38.3546,24.8524453 L38.41845,24.8316758 L37.6273,18.0323203 C37.47,17.2989375 37.7621,16.789043 38.50265,16.5024336 C39.19865,16.3616172 39.6899,16.5695664 39.9757,17.1290742 C40.04375,17.3264609 40.08145,17.5101367 40.09405,17.6794414 L40.9008,26.5663633 C40.8487,27.3678438 40.44545,27.8932773 39.6914,28.1390586 C38.85215,28.4151563 38.1949,28.2614414 37.71465,27.6779141 L33.83775,22.479793 L33.9444,28.9170273 C33.8791,29.6789492 33.4699,30.1832578 32.7149,30.4308672 C31.8339,30.7182891 31.1883,30.5384219 30.7805,29.8878125 L30.7805,29.8878125 Z" id="形状" fill="url(#linearGradient-4)"></path>
                            </g>
                        </g>
                    </g>
                </g>
            </g>
        </g>
    </g>
</svg>