<?xml version="1.0" encoding="UTF-8"?>
<svg width="37px" height="31px" viewBox="0 0 37 31" version="1.1" xmlns="http://www.w3.org/2000/svg" xmlns:xlink="http://www.w3.org/1999/xlink">
    <title>编组 2</title>
    <g id="视觉" stroke="none" stroke-width="1" fill="none" fill-rule="evenodd">
        <g id="画板" transform="translate(-107.000000, -112.000000)" fill="#21A854">
            <g id="编组-2" transform="translate(107.000000, 112.000000)">
                <path d="M0,0 L32,0 C34.7614237,-5.07265313e-16 37,2.23857625 37,5 L37,30.5 L37,30.5 L0,0 Z" id="矩形备份-9" opacity="0.177562314"></path>
                <path d="M29.8348531,7.19560667 C30.1011301,6.93505834 30.5331558,6.93475987 30.7998096,7.19494002 C31.0664634,7.45512017 31.0667689,7.877254 30.8004919,8.13780233 L25.3491582,13.4709853 C25.0970938,13.7177196 24.6930368,13.7330237 24.4221813,13.5060954 L21.2382568,10.8395039 C20.9521346,10.5998191 20.9190429,10.1788792 21.1643443,9.89930822 C21.4096457,9.61973729 21.8404496,9.58740321 22.1265717,9.82708803 L24.8301785,12.0919131 L29.8348531,7.19560667 Z" id="路径备份-4" fill-rule="nonzero"></path>
            </g>
        </g>
    </g>
</svg>