<?xml version="1.0" encoding="UTF-8"?>
<svg width="179px" height="177px" viewBox="0 0 179 177" version="1.1" xmlns="http://www.w3.org/2000/svg" xmlns:xlink="http://www.w3.org/1999/xlink">
    <title>Group 11 Copy</title>
    <defs>
        <ellipse id="path-1" cx="87.3686797" cy="87.39819" rx="87.0807888" ry="87.1040724"></ellipse>
        <path d="M172.834908,4.97379915e-13 C185.998564,4.97379915e-13 196.669816,8.10800373 196.669816,18.1097332 C196.669816,28.1114627 185.998564,36.2194664 172.834908,36.2194664 C168.616779,36.2194664 164.65457,35.386935 161.217388,33.9263381 C159.667629,42.3846843 152.153457,48.801085 143.117284,48.801085 C137.928131,48.801085 133.240903,46.6850866 129.897022,43.2815903 C128.663997,47.9887493 126.706318,51.8527631 123.878301,51.8527631 C123.769849,51.8527631 123.66093,51.8470805 123.551603,51.8358857 C120.929001,63.6538655 111.581185,72.3956599 100.45177,72.3956599 C93.7257061,72.3956599 87.6503524,69.2028153 83.3167604,64.0674972 C78.9255617,67.4398776 73.486956,69.4345952 67.5980381,69.4345952 C56.9866514,69.4345952 47.8373981,62.9578815 43.6419508,53.6169248 C39.5756795,55.4753159 34.9801884,56.5216266 30.1152689,56.5216266 C13.4830651,56.5216266 1.42108547e-14,44.2921205 1.42108547e-14,29.2062602 C1.42108547e-14,14.1203999 13.4830651,1.89089374 30.1152689,1.89089374 C41.9337374,1.89089374 52.162142,8.0658194 57.0928253,17.0527248 C60.3116802,15.6056997 63.8643508,14.8038623 67.5980381,14.8038623 C74.9760319,14.8038623 81.6471887,17.9348906 86.4378764,22.9827121 C90.3704372,19.7012777 95.2137868,17.7649271 100.45177,17.7649271 C105.400265,17.7649271 109.996542,19.4931598 113.806109,22.4516868 C115.624427,19.4696149 118.45786,17.5520801 121.640919,17.5520801 C124.036085,17.5520801 126.233287,18.6378186 127.948952,20.4460423 C131.264319,15.6964883 136.82137,12.5816186 143.117284,12.5816186 C145.432305,12.5816186 147.647429,13.0027644 149.687943,13.7714915 C152.24641,5.86492653 161.639218,4.97379915e-13 172.834908,4.97379915e-13 Z" id="path-3"></path>
        <filter x="-1.0%" y="-2.8%" width="102.0%" height="105.5%" filterUnits="objectBoundingBox" id="filter-5">
            <feOffset dx="0" dy="4" in="SourceAlpha" result="shadowOffsetInner1"></feOffset>
            <feComposite in="shadowOffsetInner1" in2="SourceAlpha" operator="arithmetic" k2="-1" k3="1" result="shadowInnerInner1"></feComposite>
            <feColorMatrix values="0 0 0 0 1   0 0 0 0 1   0 0 0 0 1  0 0 0 0.707257699 0" type="matrix" in="shadowInnerInner1"></feColorMatrix>
        </filter>
        <ellipse id="path-6" cx="17.9914733" cy="18.0029598" rx="17.721024" ry="17.7666227"></ellipse>
    </defs>
    <g id="界面" stroke="none" stroke-width="1" fill="none" fill-rule="evenodd">
        <g id="轻分析-数据管理" transform="translate(-594.000000, -308.000000)">
            <g id="Group-11-Copy" transform="translate(594.000000, 309.000000)">
                <g id="Group" transform="translate(3.000000, 0.000000)">
                    <mask id="mask-2" fill="white">
                        <use xlink:href="#path-1"></use>
                    </mask>
                    <ellipse stroke="#BEC8E4" cx="87.3686797" cy="87.39819" rx="87.5807888" ry="87.6040724"></ellipse>
                    <g mask="url(#mask-2)">
                        <g transform="translate(-11.188720, 11.642534)">
                            <path d="M118.810141,106.48881 C118.813975,106.906154 118.818173,107.513508 118.820028,108.314704 L118.820028,108.314704 L118.820029,110.04046 C118.818222,110.872701 118.813686,111.821639 118.804851,112.87631 C118.770983,116.919584 117.62548,118.211278 117.62548,118.211278 C117.085938,119.246056 116.258084,120.063447 115.294011,120.656614 C114.330382,121.249508 113.225779,121.621304 112.203252,121.616902 L112.203252,121.616902 L51.0485164,121.353632 L51.0485165,119.195218 C51.8679662,119.073768 53.5948303,118.593646 55.7337959,116.7251 C58.1802681,114.587924 58.6246071,108.458723 58.6986581,106.558597 L58.6986581,106.558597 Z" id="Combined-Shape" stroke="#7684AC" stroke-width="1" fill="#D7DBEE" transform="translate(84.934755, 114.052588) scale(-1, 1) translate(-84.934755, -114.052588) "></path>
                            <path d="M111.314503,24.9588235 C113.38411,24.9588235 115.257759,25.7986912 116.61426,27.1551234 C117.971596,28.5123901 118.81123,30.3869037 118.811108,32.4549875 L118.811108,32.4549875 L118.811021,33.8016292 L118.810047,51.5449776 L118.81,52.5571333 L118.809974,107.730741 L118.810066,108.383521 L118.810993,112.460863 L118.811594,113.648811 C118.81351,116.237462 119.776195,118.095832 121.052974,119.426333 C122.008321,120.421877 123.145158,121.117122 124.188943,121.596701 L124.188943,121.596701 L67.5309096,121.688076 C64.9096977,121.692145 62.5365665,120.631275 60.8183141,118.914958 C59.0986541,117.197236 58.0348837,114.822988 58.0348837,112.202535 L58.0348837,112.202535 L58.0348837,24.9588235 Z" id="Rectangle-18" stroke="#7684AC" stroke-width="1" fill="#FFFFFF" transform="translate(92.486332, 73.323456) scale(-1, 1) translate(-92.486332, -73.323456) "></path>
                            <polygon id="Rectangle-32" stroke="none" fill="#D7DBEE" points="65.6856455 117.635294 122.740978 117.635294 120.412189 121.129412 63.3568565 121.129412"></polygon>
                            <path d="M70.3934591,26.7882353 L126.273386,25.6235294 L126.408835,40.7647059 L73.8364074,40.7647059 C73.8364074,40.7647059 76.233369,32.6593957 75.5385555,29.3059304 C74.8437419,25.9524651 70.3934591,26.7882353 70.3934591,26.7882353 Z" id="Rectangle-32-Copy" stroke="none" fill="#D7DBEE"></path>
                            <path d="M134.944139,24.9588235 C128.104752,25.6680851 130.993267,35.2388019 131.948367,37.9352937 L131.948367,37.9352937 L76.4231854,37.9352945 C75.8087994,37.4539052 73.1720128,35.221358 73.1720128,32.362229 C73.1720128,29.1487171 74.3320267,27.698507 74.3320267,27.698507 C74.7082536,26.8521945 75.3511624,26.2111013 76.1328914,25.7419493 C76.935489,25.2602731 77.891114,24.9588235 78.8128791,24.9588235 L78.8128791,24.9588235 Z" id="Rectangle-20-Copy" stroke="#7684AC" stroke-width="1" fill="#FFFFFF" transform="translate(104.262216, 31.447059) scale(-1, 1) translate(-104.262216, -31.447059) "></path>
                            <polygon id="Rectangle-33" stroke="none" fill="#D7DBEE" points="77.329591 25.6235294 132.056135 25.6235294 133.220529 27.9529412 78.4939856 27.9529412"></polygon>
                            <g id="Combined-Shape-Copy" stroke="none" stroke-width="1" fill="none" transform="translate(0.000000, 115.470588)">
                                <mask id="mask-4" fill="white">
                                    <use xlink:href="#path-3"></use>
                                </mask>
                                <g id="Mask">
                                    <use fill="#EEF3FF" fill-rule="evenodd" xlink:href="#path-3"></use>
                                    <use fill="black" fill-opacity="1" filter="url(#filter-5)" xlink:href="#path-3"></use>
                                    <path stroke="#7684AC" stroke-width="1" d="M172.834908,0.5 C179.297006,0.5 185.150386,2.48393981 189.386242,5.70233774 C193.565414,8.87766714 196.169816,13.2584991 196.169816,18.1097332 C196.169816,22.9609673 193.565414,27.3417993 189.386242,30.5171287 C185.150386,33.7355266 179.297006,35.7194664 172.834908,35.7194664 C168.687953,35.7194664 164.792262,34.9021748 161.412935,33.4661627 C161.217815,33.3832484 161.022985,33.2976632 160.82841,33.2103798 C160.798044,33.4190633 160.76378,33.6277089 160.725575,33.8362269 C159.965922,37.9822932 157.731618,41.623172 154.577818,44.2149785 C151.473176,46.7663878 147.477186,48.301085 143.117284,48.301085 C138.068316,48.301085 133.507353,46.2428493 130.253685,42.9311744 C130.041593,42.715301 129.834924,42.4939678 129.634038,42.2682459 C129.564942,42.5617874 129.491225,42.8575623 129.413341,43.1548917 C128.767235,45.6214455 127.923617,47.8541649 126.846501,49.3880708 C126.012019,50.5764438 125.041522,51.3527631 123.878301,51.3527631 C121.923352,57.61295 118.839177,62.7234246 114.726012,66.3302891 C110.750987,69.8160184 105.813923,71.8956599 100.45177,71.8956599 C93.8732848,71.8956599 87.9358319,68.7658301 83.6988817,63.7450327 C78.7060946,66.9779884 73.3729823,68.9345952 67.5980381,68.9345952 C62.4787541,68.9345952 57.7066017,67.3971229 53.6891597,64.7444955 C49.5365673,62.0026314 46.1900977,58.0698917 44.0980573,53.4120667 C44.028595,53.2574123 43.9606489,53.1022552 43.8940586,52.9473635 C43.741146,53.0203158 43.587825,53.091918 43.4341149,53.1621675 C39.4303215,54.9920046 34.9053479,56.0216266 30.1152689,56.0216266 C21.931261,56.0216266 14.5202987,53.0159238 9.15647574,48.1507908 C3.81118019,43.3024626 0.5,36.6060046 0.5,29.2062602 C0.5,21.8065157 3.81118019,15.1100577 9.15647574,10.2617296 C14.5202987,5.39659657 21.931261,2.39089374 30.1152689,2.39089374 C35.8365417,2.39089374 41.1796797,3.85977242 45.7101386,6.40596495 C50.3834002,9.03241497 54.1920365,12.8050817 56.654468,17.2932304 C60.4538742,16.0899767 63.9372251,15.3038623 67.5980381,15.3038623 C74.8344686,15.3038623 81.3767403,18.3762575 86.0752066,23.3269077 C90.6008837,20.1601912 95.3327647,18.2649271 100.45177,18.2649271 C105.287196,18.2649271 109.777347,19.9560027 113.499428,22.8465873 C113.650728,22.9640879 113.800422,23.0833088 113.948648,23.2036568 C114.039027,23.0385662 114.133846,22.8746173 114.233008,22.7119886 C115.952251,19.8924023 118.622327,18.0520801 121.640919,18.0520801 C123.901208,18.0520801 125.969224,19.0859405 127.586237,20.7901905 C127.731417,20.9432027 127.87101,21.0995617 128.005233,21.2588606 C128.119943,21.0812719 128.237862,20.9056965 128.358946,20.7322332 C131.5847,16.1110577 136.991968,13.0816186 143.117284,13.0816186 C145.370177,13.0816186 147.525898,13.4912848 149.511671,14.2393891 C149.678203,14.3021268 149.844062,14.3674418 150.009355,14.434874 C150.057628,14.2640037 150.109055,14.0941673 150.163657,13.9254267 C151.421893,10.0370364 154.387393,6.66475601 158.4078,4.27277953 C162.384273,1.90694186 167.39348,0.5 172.834908,0.5 Z" stroke-linejoin="square"></path>
                                </g>
                            </g>
                        </g>
                    </g>
                </g>
                <g id="Group-2" transform="translate(80.574918, 74.357466)">
                    <path d="M26.1663575,0 C40.6176377,0 52.3327149,11.7452218 52.3327149,26.2336871 C52.3327149,31.5550996 50.7523615,36.5064509 48.036527,40.641724 L57.6914301,50.2976581 C59.5313208,52.1375488 59.5835861,55.0894487 57.8586812,56.9930451 L57.6917651,57.1683702 C55.7945629,59.0655724 52.7237539,59.070736 50.821053,57.1680351 L41.2942158,47.6413008 C37.0230007,50.680645 31.8028,52.4673743 26.1663575,52.4673743 C11.7150773,52.4673743 0,40.7221525 0,26.2336871 C0,11.7452218 11.7150773,0 26.1663575,0 Z" id="Combined-Shape" fill="#FFFFFF"></path>
                    <path d="M28.574682,1.87718164 C42.284592,1.87718164 53.3986701,13.0198577 53.3986701,26.7650453 C53.3986701,31.8135113 51.8993616,36.5108941 49.322807,40.4340453 L58.4824759,49.594502 C60.2262731,51.3382993 60.2774633,54.1349987 58.6459362,55.941113 L58.4827938,56.1127373 C56.6829206,57.9126105 53.7696482,57.9175092 51.9645584,56.1124195 L42.9265102,47.0743844 C38.874405,49.9578275 33.9219892,51.6529089 28.574682,51.6529089 C14.864772,51.6529089 3.75069397,40.5102328 3.75069397,26.7650453 C3.75069397,13.0198577 14.864772,1.87718164 28.574682,1.87718164 Z" id="Combined-Shape" fill="#FFEDAB"></path>
                    <path d="M43.1921856,44.1137686 L41.2576337,45.7867879 C41.2576337,45.7867879 50.5429182,57.0142442 52.8064658,57.3764893 C55.0700134,57.7387344 57.3801946,57.9053816 58.5100656,54.6163731 C59.6399365,51.3273646 56.9352791,50.6334982 56.9352791,50.6334982 C56.9352791,50.6334982 58.1508383,52.6394893 56.9352791,53.9170455 C55.7197199,55.1946016 54.2678231,55.5188797 51.3783442,52.6394893 C48.6945809,49.9650964 43.1921856,44.1137686 43.1921856,44.1137686 Z" id="Path-88" fill="#FFDD6E"></path>
                    <path d="M26.1663575,0.5 C33.2537797,0.5 39.6701779,3.38023578 44.3147589,8.03676788 C48.9598043,12.6937656 51.8327149,19.1273784 51.8327149,26.2336871 C51.8327149,31.5994196 50.1949366,36.5816857 47.3928619,40.7051347 L47.3928619,40.7051347 L57.3378767,50.6512115 C58.160628,51.4739628 58.5848105,52.5446189 58.61175,53.6230574 C58.6387878,54.7054332 58.2658968,55.7958554 57.4933994,56.6512346 C56.5710872,57.5719606 55.4294298,58.0426188 54.300881,58.0706801 C53.1591223,58.0990698 52.0338843,57.6737596 51.1746045,56.8144798 L51.1746045,56.8144798 L41.3463225,46.986304 C37.0950232,50.117748 31.8461236,51.9673743 26.1663575,51.9673743 C19.0789352,51.9673743 12.662537,49.0871385 8.01795605,44.4306064 C3.37291064,39.7736087 0.5,33.3399959 0.5,26.2336871 C0.5,19.1273784 3.37291064,12.6937656 8.01795605,8.03676788 C12.662537,3.38023578 19.0789352,0.5 26.1663575,0.5 Z" id="Combined-Shape" stroke="#FDBF2C"></path>
                    <g id="Rectangle-40-Copy-3" transform="translate(8.439061, 7.508727)">
                        <mask id="mask-7" fill="white">
                            <use xlink:href="#path-6"></use>
                        </mask>
                        <use id="Mask" fill="#FFFFFF" xlink:href="#path-6"></use>
                        <rect stroke="#1D90D2" stroke-width="4" fill="#FFFFFF" opacity="0" mask="url(#mask-7)" x="-2.49907942" y="12.3018778" width="20.4041644" height="20.4669597" rx="8"></rect>
                    </g>
                    <path d="M26.933922,19.130583 C27.411365,18.652673 28.1839394,18.6511579 28.664767,19.132456 L28.7499535,19.2177258 C29.2284298,19.6966702 29.2300476,20.4715733 28.7518246,20.9502641 L20.9292003,28.7805413 C20.4517574,29.2584513 19.679183,29.2599664 19.1983553,28.7786683 L19.1131689,28.6933985 C18.6346925,28.214454 18.6330748,27.439551 19.1112977,26.9608602" id="Rectangle-106" fill="#FFDD6E"></path>
                    <path d="M32.559963,22.8849463 C33.0374059,22.4070362 33.8099803,22.4055212 34.290808,22.8868193 L34.3759945,22.972089 C34.8544708,23.4510335 34.8560885,24.2259366 34.3778656,24.7046273 L26.5552413,32.5349045 C26.0777983,33.0128146 25.305224,33.0143296 24.8243963,32.5330316 L24.7392098,32.4477618 C24.2607335,31.9688173 24.2591157,31.1939142 24.7373387,30.7152235" id="Rectangle-106-Copy" fill="#FFDD6E"></path>
                    <ellipse id="Oval-8" stroke="#FDBF2C" cx="26.1865004" cy="26.2419184" rx="18.1851125" ry="18.2331919"></ellipse>
                </g>
                <path d="M140.306995,89.4248986 L147.230956,93.4224499 C147.881715,93.7981654 148.131229,94.601043 147.821922,95.2768777 L147.75734,95.4019726 C147.356623,96.0960351 146.470256,96.3344894 145.779831,95.9358723 L138.855869,91.9383211 C138.205111,91.5626055 137.955597,90.759728 138.264904,90.0838933 L138.329486,89.9587983 C138.730203,89.2647359 139.61657,89.0262816 140.306995,89.4248986 Z M150.613741,78.8863279 L150.644678,79.0236688 C150.783845,79.8129275 150.258125,80.5653397 149.473002,80.7037779 L141.599363,82.0921129 C140.859348,82.2225975 140.152129,81.7679423 139.954654,81.0514043 L139.923717,80.9140634 C139.78455,80.1248047 140.310271,79.3723925 141.095393,79.2339543 L148.969032,77.8456193 C149.709047,77.7151347 150.416266,78.1697899 150.613741,78.8863279 Z M142.21176,64.5305859 L142.33092,64.6208301 C142.944854,65.1359821 143.02577,66.0502902 142.513318,66.6610069 L137.374165,72.7856107 C136.893041,73.3589918 136.063657,73.466708 135.45247,73.0505012 L135.33331,72.960257 C134.719376,72.4451049 134.63846,71.5307969 135.150912,70.9200802 L140.290065,64.7954764 C140.771189,64.2220953 141.600573,64.1143791 142.21176,64.5305859 Z" id="Rectangle-100" fill="#FDBF2C" transform="translate(142.740485, 80.203865) rotate(-16.000000) translate(-142.740485, -80.203865) "></path>
                <path d="M38.8259001,44.0950226 C40.5572622,44.0950226 41.9608085,42.691101 41.9608085,40.959276 C41.9608085,39.227451 40.5572622,37.8235294 38.8259001,37.8235294 C37.094538,37.8235294 35.6909917,39.227451 35.6909917,40.959276 C35.6909917,42.691101 37.094538,44.0950226 38.8259001,44.0950226 Z" id="Oval-12-Copy" stroke="#FFFFFF" stroke-width="2"></path>
                <path d="M113.687064,22.3755656 C115.171089,22.3755656 116.374129,21.1722043 116.374129,19.6877828 C116.374129,18.2033614 115.171089,17 113.687064,17 C112.20304,17 111,18.2033614 111,19.6877828 C111,21.1722043 112.20304,22.3755656 113.687064,22.3755656 Z" id="Oval-12-Copy-5" fill="#FDBF2C" opacity="0.528451493"></path>
                <path d="M35.9534309,44.001 L35.9384901,44 C36.6891977,44 37.3002113,44.6097978 37.3032145,45.3588602 L37.3154309,48.485 L40.446424,48.4852739 C41.1409075,48.4852739 41.7116325,49.0135256 41.7763736,49.6986063 L41.7824897,49.8288061 C41.7824897,50.5708184 41.188898,51.1723383 40.446424,51.1723383 L37.3254309,51.172 L37.3390146,54.2881986 C37.3418465,54.9945306 36.8040611,55.5749927 36.1158862,55.6408383 L36.0004309,55.646 L35.8857423,55.6408245 C35.1961869,55.574836 34.6547768,54.9931985 34.6519502,54.2881986 L34.6384309,51.172 L31.4714967,51.1723383 C30.7770131,51.1723383 30.2062881,50.6440865 30.141547,49.9590059 L30.1354309,49.8288061 C30.1354309,49.0867938 30.7290227,48.4852739 31.4714967,48.4852739 L34.6284309,48.485 L34.6161501,45.3588602 C34.6133183,44.6525282 35.1511036,44.0720661 35.8392786,44.0062205 L35.9534309,44.001 Z" id="Combined-Shape-Copy-2" fill="#FDBF2C" opacity="0.567688899"></path>
                <path d="M3.5,132 C4.19032536,132 4.81528561,132.279905 5.26767244,132.732413 C5.72015601,133.185017 6,133.810291 6,134.500936 C6,135.191581 5.72015601,135.816854 5.26767244,136.269459 C4.81528561,136.721967 4.19032536,137.001872 3.5,137.001872 C2.80967464,137.001872 2.18471439,136.721967 1.73232756,136.269459 C1.27984399,135.816854 1,135.191581 1,134.500936 C1,133.810291 1.27984399,133.185017 1.73232756,132.732413 C2.18471439,132.279905 2.80967464,132 3.5,132 Z" id="Oval-12-Copy-3" stroke="#7684AC" stroke-width="2" opacity="0.510319496"></path>
            </g>
        </g>
    </g>
</svg>