<svg xmlns="http://www.w3.org/2000/svg" viewBox="0,0,800,707" width="100%" height="100%">
	<defs>
		<style type="text/css">
.qing-map-1616123885421
{
	fill: #DDDDDD;
	fill-opacity: 1.0;
	stroke: #FFFFFF;
	stroke-opacity: 1.0;
	stroke-width: 1;
}

.qing-map-1616123885421:hover
{
	fill: #56A4FF;
	fill-opacity: 1.0;
}
</style>
	</defs>
	<g>
		<path id="L1610962600259" name="朝阳市" class="qing-map-1616123885421" d="M101.83,219.67L102.67,220.17L103.67,221.67L103.5,223.33L103.0,224.83L103.5,226.17L103.33,228.5L102.5,231.67L101.67,232.67L100.17,235.17L98.33,236.83L98.17,238.0L98.5,239.83L97.67,241.5L99.33,243.17L99.0,244.83L98.83,247.0L97.83,248.83L98.17,250.0L98.67,251.67L97.67,252.67L98.0,254.33L97.17,255.17L96.67,259.67L94.33,261.67L94.67,263.0L96.83,265.0L96.67,266.33L95.67,267.83L97.33,268.67L97.0,270.5L95.5,271.17L95.83,273.33L96.5,275.5L96.67,277.67L96.17,279.17L96.5,280.17L96.5,281.33L97.5,281.17L98.83,283.33L99.67,284.83L100.67,285.33L102.0,285.83L103.33,286.5L104.67,287.17L106.0,288.0L107.17,288.83L106.33,289.5L107.17,290.67L106.5,291.67L105.33,291.67L104.17,291.33L101.83,291.33L102.0,293.83L103.5,295.67L103.67,297.17L104.67,297.33L105.5,299.17L104.67,299.33L105.5,301.83L105.0,303.5L103.67,304.17L102.33,307.0L103.0,310.5L101.5,310.83L101.17,311.67L98.5,311.83L96.67,313.33L98.5,314.83L98.5,316.83L97.33,318.17L98.17,319.33L98.5,321.33L97.5,322.5L97.0,321.17L96.0,322.0L95.0,323.0L93.33,322.67L91.5,323.0L90.67,323.0L89.5,324.17L90.5,326.67L90.67,329.33L89.33,331.67L87.67,332.17L87.5,333.5L86.5,333.83L86.67,336.0L85.17,337.17L83.83,336.67L82.5,337.5L85.0,339.5L85.33,340.83L84.33,341.83L80.5,345.17L80.0,346.67L78.67,347.67L76.67,348.17L74.33,348.17L74.17,349.17L74.0,352.17L73.67,354.67L72.83,356.5L71.17,356.17L70.33,356.0L70.17,357.0L69.17,357.83L68.33,357.17L66.83,357.17L64.33,356.0L62.67,356.17L60.33,358.0L60.17,361.17L60.83,363.0L63.0,363.5L64.67,364.33L65.67,364.17L68.0,365.0L67.83,367.33L65.83,369.17L63.33,371.0L60.67,371.33L58.0,370.5L56.17,371.5L55.83,374.17L56.0,376.33L54.83,375.83L55.33,378.17L54.83,382.0L53.67,384.33L53.67,385.5L52.17,386.17L51.0,389.5L51.17,391.17L52.33,391.67L53.17,393.17L54.5,394.5L56.33,394.33L56.83,395.5L55.5,397.5L57.0,397.5L58.17,398.17L59.83,398.5L61.0,399.33L62.0,402.5L64.0,404.5L65.17,405.5L66.67,406.83L68.17,406.0L70.33,407.67L71.17,409.5L72.17,409.83L73.83,408.17L76.0,409.67L77.17,409.5L81.67,406.0L82.83,406.33L84.17,408.67L83.67,410.33L80.0,413.5L81.67,415.67L81.5,417.67L83.67,416.67L84.33,417.83L85.5,417.17L87.33,416.83L89.0,417.67L90.17,416.5L91.0,415.33L92.33,416.83L94.67,416.17L96.5,414.0L97.33,413.17L97.67,411.67L99.33,410.83L100.33,408.5L102.67,407.67L105.5,407.33L106.5,405.67L107.83,404.67L107.33,402.83L108.33,401.5L108.83,400.0L111.0,398.83L111.0,397.17L113.33,396.83L114.83,396.17L116.67,393.83L117.0,391.83L118.5,389.67L118.0,388.0L119.5,386.83L121.0,387.83L121.83,389.33L126.0,387.17L128.67,388.0L129.5,389.83L131.0,390.83L131.0,393.33L132.83,394.33L134.17,393.17L135.83,389.17L134.33,388.0L135.17,386.33L136.0,384.67L137.5,384.0L138.67,383.17L139.83,384.33L141.17,384.33L142.33,385.33L143.5,384.67L144.67,384.33L144.83,382.83L146.33,382.33L147.5,380.0L146.83,375.17L147.83,374.33L150.0,375.17L151.33,377.0L153.67,377.17L155.0,377.5L156.17,375.0L158.17,373.0L159.17,371.5L160.5,374.33L161.5,374.83L164.83,371.5L165.17,368.83L167.0,365.83L166.33,363.0L166.5,360.83L165.5,359.83L165.0,357.83L163.5,356.83L165.17,355.5L166.83,355.0L168.33,354.5L170.33,353.0L171.5,352.5L173.0,353.67L174.67,354.0L176.0,355.33L175.33,356.67L175.33,357.83L177.5,359.33L177.67,360.67L178.17,361.83L178.83,364.0L179.17,365.17L182.0,363.17L183.33,364.0L183.17,365.33L184.33,366.0L184.67,368.0L184.5,369.17L183.5,370.17L183.0,371.17L181.67,371.67L181.17,373.17L181.17,374.67L182.17,375.67L183.83,375.17L184.5,373.83L186.17,371.5L187.5,371.83L188.5,372.17L189.67,372.0L191.5,373.0L192.83,372.0L193.17,370.17L194.5,369.5L196.33,365.83L198.83,365.67L201.67,369.5L203.67,370.67L205.17,372.0L206.67,371.33L208.0,369.33L209.33,366.17L209.5,358.33L211.33,355.67L213.67,355.33L215.0,357.0L216.5,357.83L217.67,357.67L218.17,356.0L218.67,353.83L220.67,352.67L222.5,352.0L223.67,351.17L224.33,348.83L225.17,347.33L224.83,344.67L226.17,344.17L228.0,343.33L228.83,341.67L230.83,342.0L232.5,340.5L233.33,339.0L233.5,341.33L234.83,341.5L238.0,340.17L239.33,340.5L240.17,339.17L239.0,337.67L238.17,336.83L235.83,336.67L237.67,334.0L240.33,332.83L239.17,330.83L237.17,329.5L237.5,328.0L239.0,327.33L238.83,324.67L238.67,322.17L239.0,319.83L240.33,318.5L240.83,316.33L242.83,314.0L245.0,312.33L245.5,310.17L246.17,312.67L247.5,312.83L247.5,311.0L248.17,310.17L249.67,310.83L251.83,310.33L251.5,308.83L251.17,303.67L251.67,302.83L253.17,303.5L253.67,302.17L253.83,297.67L256.67,296.33L260.5,292.17L261.33,290.0L260.83,287.83L262.67,287.0L264.0,285.83L265.5,286.17L267.0,284.67L269.17,285.17L272.0,284.83L276.5,280.5L277.83,278.33L279.83,277.5L281.83,277.5L285.5,276.5L285.0,274.17L285.67,272.67L286.17,270.83L284.67,268.17L285.17,266.67L285.67,265.33L288.83,264.0L289.17,261.5L289.67,259.83L289.67,257.83L292.83,252.67L292.67,250.33L292.33,248.33L290.33,248.17L286.0,245.83L284.0,243.83L283.67,240.0L282.33,238.17L280.5,237.67L278.83,236.33L277.33,236.83L276.0,238.0L273.5,238.5L271.0,237.0L268.67,236.83L268.33,234.67L269.0,231.67L268.5,229.67L267.67,226.33L268.33,225.0L270.17,223.5L270.17,222.0L271.67,218.5L270.5,215.5L270.17,213.33L269.33,211.33L268.33,208.17L268.5,206.33L267.83,205.17L266.67,204.5L266.67,202.83L265.67,201.5L262.5,199.0L260.0,199.0L258.83,197.67L257.33,197.0L256.33,197.5L255.33,197.5L254.0,198.17L252.0,197.67L252.5,200.67L252.33,201.67L250.17,200.83L249.0,200.33L246.83,200.83L246.17,201.67L246.33,203.83L244.67,203.0L243.0,203.0L243.5,204.17L243.0,204.83L239.67,204.67L237.5,204.33L237.33,206.0L236.33,206.0L236.17,207.17L234.33,206.83L233.67,207.5L233.33,208.67L231.5,209.67L230.0,210.33L228.83,211.5L227.67,211.33L227.17,212.33L225.0,213.17L223.67,212.0L222.67,212.0L221.83,213.17L221.0,214.17L219.83,214.17L220.0,215.33L218.17,214.83L217.5,215.67L216.17,215.83L214.5,217.25L213.88,218.13L212.63,218.13L211.13,219.88L211.88,221.38L212.75,220.75L213.63,221.38L213.25,222.13L212.5,222.5L213.13,223.75L213.0,224.75L212.13,225.38L211.38,225.5L210.63,226.13L209.38,226.63L209.13,227.75L209.25,229.38L209.25,230.25L209.63,232.0L208.75,232.88L207.88,233.38L206.88,233.25L205.75,234.25L206.25,235.25L206.25,236.0L204.38,236.38L202.63,235.63L201.38,235.0L200.25,235.75L199.25,236.63L198.5,237.13L197.38,236.63L197.75,237.75L197.38,239.0L196.38,239.13L195.5,240.0L195.25,241.0L195.75,241.88L196.0,242.88L195.38,243.75L193.88,244.25L194.0,243.0L193.25,242.25L192.75,243.0L193.0,244.0L192.88,245.13L191.88,244.88L191.63,244.13L191.0,244.63L191.13,245.75L190.63,246.63L191.63,247.13L192.75,247.0L194.0,248.5L193.38,249.75L189.0,249.38L187.38,252.38L184.38,254.0L183.25,253.88L183.13,256.75L182.25,258.0L181.38,257.88L181.0,259.13L180.25,259.5L180.38,261.0L179.25,261.63L178.63,263.13L177.63,263.63L177.13,264.5L177.63,265.63L177.13,266.88L178.25,269.88L175.88,272.0L174.63,273.63L173.63,274.0L172.75,274.25L172.25,273.38L170.75,273.63L169.5,272.38L167.88,272.38L168.13,270.75L167.13,269.5L167.0,268.63L167.75,267.5L167.5,266.75L168.0,265.63L169.5,264.0L167.63,262.75L168.38,262.13L169.0,260.0L168.63,258.5L169.13,257.0L166.75,258.13L166.5,256.75L165.5,256.0L165.63,253.0L164.38,251.5L163.63,250.13L164.0,249.38L163.25,248.75L164.13,248.13L162.5,246.38L161.5,245.13L160.5,244.5L160.13,243.25L160.5,241.13L160.63,239.0L160.13,237.25L158.88,236.5L157.63,236.13L157.38,234.75L157.25,233.63L156.5,232.25L155.38,232.0L154.75,231.25L154.63,230.0L154.38,228.75L154.5,227.63L153.0,226.75L153.0,225.75L152.5,224.88L152.5,224.25L151.63,223.75L151.63,222.88L150.88,222.5L150.63,221.75L150.0,221.13L149.0,220.88L149.0,219.75L148.88,218.5L148.38,217.38L148.38,216.63L148.0,215.88L147.63,214.88L149.0,214.13L150.13,212.5L149.88,211.63L150.63,209.88L150.13,208.75L149.5,208.0L150.13,206.88L148.88,206.88L149.13,205.75L147.75,205.63L146.0,205.63L143.88,205.13L143.25,205.75L142.5,205.63L141.38,206.0L140.88,205.13L139.0,205.88L138.5,204.75L136.88,204.63L136.75,203.5L135.25,204.13L133.75,203.0L132.75,202.5L129.13,202.0L129.0,201.38L127.63,200.0L126.63,200.0L125.5,197.25L123.75,196.75L123.25,195.88L121.88,196.0L122.38,195.0L122.0,194.0L121.13,195.0L120.0,194.63L119.0,194.63L119.13,193.63L119.25,192.63L120.5,191.13L120.63,190.13L122.25,188.88L122.0,186.25L120.5,185.63L119.5,185.25L118.75,185.25L118.5,184.5L117.13,184.13L116.13,182.38L115.38,181.88L115.0,183.88L114.88,186.0L113.25,187.63L111.25,189.13L109.75,189.63L109.0,190.63L108.25,191.75L107.38,191.63L106.63,192.75L104.75,192.75L102.88,193.63L101.25,193.5L100.25,193.88L98.75,195.13L96.75,197.5L95.38,198.38L94.13,198.5L93.25,199.25L93.13,202.0L90.5,204.75L90.63,206.13L89.75,206.75L90.25,207.88L91.13,208.38L93.0,208.88L93.13,210.75L94.0,211.88L94.0,213.25L95.25,213.75L96.25,214.75L95.63,216.38L96.75,218.0L98.63,218.25L100.13,218.13Z" />
		<path id="L1611024115218" name="葫芦岛市" class="qing-map-1616123885421" d="M243.25,341.75L242.0,343.75L242.38,344.63L243.38,345.13L244.13,346.75L245.88,347.13L246.88,348.25L249.13,347.25L250.5,345.75L251.88,345.38L254.25,347.5L253.13,348.63L254.25,349.88L257.13,350.0L257.5,351.5L258.63,354.0L258.25,356.75L258.5,359.25L259.5,359.5L260.25,360.13L261.13,360.0L262.0,361.13L263.88,361.13L266.5,359.38L266.25,362.13L265.75,363.25L265.0,365.0L265.38,366.38L264.38,368.63L265.0,370.5L264.5,372.13L264.5,373.25L266.88,373.75L266.75,374.75L267.0,375.63L266.13,376.88L266.75,378.88L267.0,381.25L264.0,383.25L263.38,385.0L264.38,386.5L264.38,388.25L263.38,388.63L263.5,389.63L262.88,390.63L261.63,389.0L260.0,390.38L259.75,391.5L260.88,392.5L261.25,393.25L260.88,394.5L259.88,395.0L259.5,395.5L260.75,396.13L261.13,397.63L261.0,399.5L258.63,399.63L258.63,400.5L262.13,400.38L263.13,399.5L264.75,399.75L264.75,401.5L265.75,402.0L265.63,403.13L263.63,402.38L263.63,403.5L261.88,403.13L261.38,404.0L260.13,404.88L258.75,404.63L257.63,405.63L256.13,406.13L254.38,406.13L253.0,406.88L249.88,407.25L248.25,407.13L247.0,407.88L246.13,408.75L246.13,409.5L246.63,411.25L246.13,412.38L244.5,413.88L244.13,414.63L243.88,415.88L243.38,416.5L243.38,417.5L242.0,418.25L240.38,419.13L239.38,420.5L238.75,422.0L236.38,423.25L236.38,424.13L235.63,425.13L235.0,424.63L233.75,424.88L233.75,425.88L232.75,426.75L231.38,427.0L230.88,428.0L231.13,429.38L230.75,430.0L230.63,431.0L229.88,431.5L230.25,432.25L229.63,433.13L228.38,433.63L227.5,433.25L226.5,432.88L225.5,433.88L224.13,434.63L222.88,435.63L222.5,436.75L223.13,437.88L224.63,438.5L224.38,439.63L222.88,441.13L222.25,442.0L222.38,443.38L221.25,444.38L222.38,446.13L223.25,446.0L223.13,447.13L223.13,448.5L221.25,449.13L219.25,450.38L218.38,450.38L218.0,451.25L214.25,453.5L214.13,458.13L214.25,459.5L214.0,461.63L214.5,462.75L211.38,466.38L211.38,467.25L209.88,468.63L209.0,470.0L205.5,470.38L201.88,470.13L200.38,471.0L197.88,471.5L196.13,471.38L194.13,472.75L193.38,473.63L192.75,474.75L191.88,474.38L191.0,475.75L189.38,476.5L187.38,477.5L184.5,478.63L181.88,480.0L180.25,481.25L177.13,482.25L174.75,483.25L173.88,484.38L171.25,484.38L169.75,485.0L168.25,485.25L165.25,486.63L163.13,487.38L159.38,488.63L157.63,490.0L156.63,489.88L156.0,490.63L156.38,491.38L155.88,492.38L155.63,493.38L156.0,494.5L156.75,495.0L155.75,495.75L153.75,495.88L152.38,496.63L150.13,496.63L149.38,495.63L148.75,494.75L149.13,493.88L149.5,492.63L150.0,491.63L148.88,490.38L148.25,489.5L147.5,489.63L146.5,489.0L145.0,490.5L142.5,490.0L141.63,489.0L140.75,488.0L141.13,486.5L142.0,485.38L138.75,483.0L138.63,481.88L140.0,480.25L140.63,479.13L140.88,477.88L141.0,477.0L140.13,475.75L140.13,471.88L139.5,470.38L139.5,469.63L137.13,469.0L136.88,470.0L136.25,470.5L135.5,469.63L134.13,468.75L133.0,467.5L132.63,466.38L132.25,465.25L131.0,465.13L129.75,465.63L128.25,466.38L127.75,465.63L128.25,464.13L129.38,462.13L130.13,460.75L129.5,459.13L128.25,457.63L126.38,456.25L126.38,454.88L126.5,453.25L124.13,451.25L125.63,449.0L124.5,447.88L123.5,446.88L123.25,445.75L124.5,445.0L124.63,443.38L125.0,441.5L124.63,440.25L124.13,439.38L125.0,438.13L125.0,435.38L121.38,432.25L121.5,430.88L120.63,430.13L120.0,429.38L120.75,427.88L121.75,427.25L120.75,426.13L119.5,424.75L118.5,424.25L117.38,425.13L115.75,424.13L114.0,426.13L114.13,427.75L112.63,426.63L111.38,425.88L110.75,426.5L110.25,427.0L109.0,425.75L105.88,425.88L105.63,427.38L104.5,427.88L104.0,426.75L104.5,425.63L103.5,424.88L100.5,426.13L99.38,427.13L97.88,426.25L95.0,427.75L94.63,426.25L93.13,425.88L91.63,426.38L91.25,425.25L90.0,424.38L88.75,422.63L87.75,421.88L87.88,420.88L88.88,420.0L89.0,417.67L90.17,416.5L91.0,415.33L92.33,416.83L94.67,416.17L96.5,414.0L97.33,413.17L97.67,411.67L99.33,410.83L100.33,408.5L102.67,407.67L105.5,407.33L106.5,405.67L107.83,404.67L107.33,402.83L108.33,401.5L108.83,400.0L111.0,398.83L111.0,397.17L113.33,396.83L114.83,396.17L116.67,393.83L117.0,391.83L118.5,389.67L118.0,388.0L119.5,386.83L121.0,387.83L121.83,389.33L126.0,387.17L128.67,388.0L129.5,389.83L131.0,390.83L131.0,393.33L132.83,394.33L134.17,393.17L135.83,389.17L134.33,388.0L135.17,386.33L136.0,384.67L137.5,384.0L138.67,383.17L139.83,384.33L141.17,384.33L142.33,385.33L143.5,384.67L144.67,384.33L144.83,382.83L146.33,382.33L147.5,380.0L146.83,375.17L147.83,374.33L150.0,375.17L151.33,377.0L153.67,377.17L155.0,377.5L156.17,375.0L158.17,373.0L159.17,371.5L160.5,374.33L161.5,374.83L164.83,371.5L165.17,368.83L167.0,365.83L166.33,363.0L166.5,360.83L165.5,359.83L165.0,357.83L163.5,356.83L165.17,355.5L166.83,355.0L168.33,354.5L170.33,353.0L171.5,352.5L173.0,353.67L174.67,354.0L176.0,355.33L175.33,356.67L175.33,357.83L177.5,359.33L177.67,360.67L178.17,361.83L178.83,364.0L179.17,365.17L182.0,363.17L183.33,364.0L183.17,365.33L184.33,366.0L184.67,368.0L184.5,369.17L183.5,370.17L183.0,371.17L181.67,371.67L181.17,373.17L181.17,374.67L182.17,375.67L183.83,375.17L184.5,373.83L186.17,371.5L187.5,371.83L188.5,372.17L189.67,372.0L191.5,373.0L192.83,372.0L193.17,370.17L194.5,369.5L196.33,365.83L198.83,365.67L201.67,369.5L203.67,370.67L205.17,372.0L206.67,371.33L208.0,369.33L209.33,366.17L209.5,358.33L211.33,355.67L213.67,355.33L215.0,357.0L216.5,357.83L217.67,357.67L218.17,356.0L218.67,353.83L220.67,352.67L222.5,352.0L223.67,351.17L224.33,348.83L225.17,347.33L224.83,344.67L226.17,344.17L228.0,343.33L228.83,341.67L230.83,342.0L232.5,340.5L233.33,339.0L233.5,341.33L234.83,341.5L238.0,340.17L239.33,340.5L240.83,339.67L242.33,339.0ZM243.4,430.5L243.1,431.4L242.3,431.4L241.8,431.6L241.8,432.2L241.2,432.8L241.2,433.9L242.2,434.0L242.5,433.3L243.1,432.7L243.7,432.0L244.8,432.5L245.7,432.2L246.2,431.9L246.2,430.8L246.1,429.6L245.3,428.9L245.0,428.4L244.4,429.2L243.7,429.4L243.1,429.6ZM225.2,443.8L225.2,444.9L226.0,444.3L225.8,443.3Z" />
		<path id="L1611024957228" name="阜新市" class="qing-map-1616123885421" d="M265.67,201.5L266.67,202.83L266.67,204.5L267.83,205.17L268.5,206.33L268.33,208.17L269.33,211.33L270.17,213.33L270.5,215.5L271.67,218.5L270.17,222.0L270.17,223.5L268.33,225.0L267.67,226.33L268.5,229.67L269.0,231.67L268.33,234.67L268.67,236.83L271.0,237.0L273.5,238.5L276.0,238.0L277.33,236.83L278.83,236.33L280.5,237.67L282.33,238.17L283.67,240.0L284.0,243.83L286.0,245.83L290.33,248.17L292.33,248.33L292.67,250.33L292.83,252.67L289.67,257.83L289.67,259.83L289.17,261.5L291.5,262.5L292.17,264.33L293.33,264.67L296.0,264.33L297.17,266.0L295.83,268.17L296.17,269.17L298.83,270.67L300.83,270.33L308.17,271.83L308.0,273.67L310.17,274.33L309.83,272.33L311.83,270.33L313.5,270.83L313.83,268.83L313.67,265.83L314.5,264.67L317.5,262.67L324.33,262.5L326.0,263.83L328.67,262.67L330.0,264.17L330.83,262.33L332.5,260.5L333.5,261.17L334.67,260.5L337.17,261.67L338.5,261.17L339.5,259.67L341.5,260.33L345.5,262.5L346.67,261.0L348.17,259.33L346.33,258.0L345.33,257.17L346.33,256.17L346.17,254.33L348.67,254.83L352.0,253.83L353.5,253.0L357.17,250.33L357.67,247.33L360.13,247.25L360.83,246.33L361.33,244.17L363.17,244.33L364.67,242.83L366.0,242.17L367.67,240.83L368.5,238.5L370.33,238.0L373.33,235.67L374.83,234.33L376.33,230.67L380.0,230.0L381.83,228.83L384.67,227.5L387.67,225.17L390.5,223.17L394.0,221.83L395.5,221.0L397.83,221.0L398.83,219.17L403.83,216.67L403.67,214.5L404.83,213.33L407.17,214.17L415.17,209.17L420.5,206.5L422.33,204.17L423.67,204.5L427.5,202.33L432.83,197.67L434.83,196.0L436.5,194.5L440.0,193.5L441.67,191.67L443.17,190.17L445.83,189.33L448.0,187.17L450.33,187.0L450.5,185.33L449.17,183.0L448.83,181.67L447.33,180.5L446.5,179.5L444.0,178.17L443.5,174.67L443.0,171.33L443.5,168.0L445.0,167.33L448.33,166.83L451.67,166.17L452.0,162.67L453.17,162.17L454.17,161.33L455.5,161.33L457.5,159.17L458.83,157.83L457.83,156.33L454.0,154.67L452.67,154.0L451.67,151.67L449.5,152.33L447.5,152.33L447.0,150.67L445.33,149.17L444.83,147.0L439.67,146.17L439.17,144.0L438.33,142.67L436.17,141.83L435.67,139.67L437.67,139.0L440.0,137.0L441.83,137.17L443.33,137.67L444.5,137.33L442.83,135.67L441.83,134.67L440.33,134.83L439.83,133.17L439.0,132.33L437.0,132.17L436.83,131.0L435.33,131.17L434.33,130.17L434.0,128.67L431.0,129.17L427.5,129.0L426.17,129.17L423.5,130.33L422.67,129.5L419.5,128.33L418.83,127.0L417.83,125.67L418.33,124.17L417.33,123.0L411.83,122.17L408.17,121.67L404.17,121.0L398.67,121.83L396.83,122.33L396.5,123.33L397.33,125.17L397.5,127.33L398.0,129.67L404.33,130.67L406.67,129.83L407.0,132.0L405.33,133.5L405.0,135.67L402.0,138.17L400.83,139.0L401.0,140.83L401.17,142.17L399.0,142.67L397.83,142.17L396.33,143.0L395.0,144.17L394.67,143.0L393.17,142.0L392.17,143.0L392.0,141.83L387.67,140.5L386.5,139.5L385.67,138.83L383.33,136.17L382.0,136.17L382.33,137.83L382.17,139.5L382.17,141.67L381.17,142.67L381.0,141.5L378.67,141.5L377.0,141.83L374.83,141.33L371.67,139.67L370.33,138.33L368.67,138.83L368.5,137.33L367.17,137.17L366.67,138.67L364.33,138.83L363.5,140.33L361.5,139.17L361.0,140.17L360.0,141.17L359.0,139.67L358.17,140.0L358.0,141.5L356.0,141.67L355.67,142.33L356.33,144.17L355.83,145.0L354.67,144.33L353.5,145.67L353.83,146.67L354.33,148.33L352.67,148.83L353.67,149.67L352.33,150.33L353.83,152.5L353.0,153.67L353.5,154.83L352.0,154.33L352.67,156.0L352.83,157.17L350.17,159.83L349.0,160.67L349.17,163.0L348.5,163.5L347.5,161.83L347.0,163.83L345.33,162.5L344.17,163.83L344.0,166.17L342.67,166.83L342.33,165.5L341.0,167.0L339.5,168.0L337.83,168.67L336.83,168.67L334.83,172.33L333.33,174.33L332.0,175.17L330.17,174.83L329.17,175.67L327.83,174.83L327.33,174.0L326.33,172.67L326.33,169.83L324.66,170.0L322.67,167.67L322.34,165.67L320.67,167.5L319.33,168.83L317.83,168.67L315.5,169.33L313.83,168.67L312.67,169.67L312.0,168.5L310.17,167.83L309.33,168.83L309.0,169.83L307.0,170.33L305.33,170.0L304.0,170.0L301.67,170.33L301.17,173.33L300.5,174.0L298.83,173.0L297.67,173.17L295.67,174.83L294.33,175.0L293.17,175.67L294.0,176.83L293.33,178.67L292.33,180.83L291.5,182.17L288.67,184.0L284.83,184.5L284.33,185.5L283.0,186.67L281.67,187.17L281.67,188.0L281.33,189.67L279.83,191.0L278.5,191.5L278.0,193.33L277.0,194.0L276.17,194.0L275.17,196.17L273.5,196.67L272.5,196.5L271.5,197.0L270.17,200.0L269.17,200.33L268.0,199.67L267.17,200.0L267.17,201.33Z" />
		<path id="L1611026399629" name="锦州市" class="qing-map-1616123885421" d="M264.88,389.0L265.13,391.88L264.5,392.5L265.13,393.75L265.5,392.88L267.25,393.0L267.5,390.88L269.63,392.5L269.5,390.75L271.38,392.0L270.0,388.75L270.75,388.25L271.63,387.0L270.63,386.0L271.13,384.13L271.13,383.25L272.88,382.0L275.13,382.0L275.88,381.0L277.38,381.13L279.0,382.5L279.75,382.38L281.88,380.88L285.63,380.5L286.0,381.63L284.63,382.0L283.75,384.25L285.88,384.38L286.25,385.25L287.13,384.88L287.25,380.88L288.75,380.88L288.88,377.38L294.88,377.25L296.38,376.75L298.13,379.13L304.5,381.13L305.75,380.38L307.25,381.25L312.5,381.38L313.38,383.13L315.5,383.5L315.38,384.75L316.38,385.13L318.75,382.63L321.5,381.63L323.13,380.63L325.0,378.13L325.25,376.25L326.75,374.63L326.63,372.5L328.63,371.13L330.0,369.13L330.38,366.38L330.25,362.63L329.25,360.88L328.88,359.38L328.13,358.13L329.25,358.0L331.63,354.25L333.63,354.5L336.25,354.63L337.5,353.63L337.38,352.5L332.13,352.13L330.75,352.63L329.25,353.0L327.88,352.38L326.5,352.38L324.75,351.38L323.63,352.0L322.63,351.13L320.75,351.63L320.13,348.13L319.75,346.0L320.0,343.88L321.5,343.13L322.75,342.38L323.88,342.0L324.63,338.75L322.75,338.13L321.5,338.0L320.38,336.88L321.25,336.13L320.5,334.13L323.75,331.88L323.5,330.75L325.0,330.75L325.5,329.25L326.88,327.88L327.25,326.88L328.13,327.13L330.13,325.5L331.38,325.88L333.0,325.13L334.5,324.88L334.63,323.25L335.5,322.38L336.75,321.75L337.88,322.13L338.0,323.38L339.13,323.25L339.63,321.25L341.0,321.75L342.63,321.38L342.88,319.5L344.25,319.63L346.25,319.38L348.63,321.0L348.88,322.38L350.25,323.13L352.0,322.0L352.25,320.38L352.75,318.88L354.38,318.0L356.5,317.25L357.25,316.13L357.63,314.63L359.88,315.63L363.5,315.63L363.5,317.0L364.75,317.13L365.75,317.38L367.0,316.75L368.25,315.63L369.38,314.88L370.63,314.13L371.75,313.25L373.75,311.75L377.63,309.38L380.25,306.75L384.0,301.5L389.88,297.63L391.5,297.25L397.25,294.75L398.38,293.0L405.5,293.25L410.13,291.38L409.38,290.13L410.5,288.5L410.13,286.88L410.5,285.25L411.25,284.0L413.13,282.88L413.13,281.13L413.63,280.0L412.88,279.0L413.13,276.63L414.88,277.63L415.63,276.63L416.13,275.38L416.5,273.63L417.13,272.13L418.25,271.13L418.38,267.5L421.25,264.88L420.63,264.0L417.0,264.0L417.5,262.25L416.63,261.5L415.75,261.88L414.25,259.5L411.88,257.5L409.75,256.0L407.75,254.88L407.25,253.25L407.38,251.38L407.5,250.0L405.25,248.38L405.63,246.75L406.63,246.25L407.75,245.88L410.13,246.63L413.13,247.0L413.0,244.88L412.5,242.13L411.5,240.88L411.75,239.38L411.25,237.63L411.0,236.0L410.25,232.88L408.38,229.75L409.0,227.75L407.63,227.88L407.0,226.88L406.63,225.75L406.38,224.0L404.75,223.25L406.13,221.63L404.38,220.88L405.75,218.88L405.13,217.63L403.83,216.67L398.83,219.17L397.83,221.0L395.5,221.0L394.0,221.83L390.5,223.17L387.67,225.17L384.67,227.5L381.83,228.83L380.0,230.0L376.33,230.67L374.83,234.33L373.33,235.67L370.33,238.0L368.5,238.5L367.67,240.83L366.0,242.17L364.67,242.83L363.17,244.33L361.33,244.17L360.83,246.33L360.13,247.25L357.67,247.33L357.17,250.33L353.5,253.0L352.0,253.83L348.67,254.83L346.17,254.33L346.33,256.17L345.33,257.17L346.33,258.0L348.17,259.33L346.67,261.0L345.5,262.5L341.5,260.33L339.5,259.67L338.5,261.17L337.17,261.67L334.67,260.5L333.5,261.17L332.5,260.5L330.83,262.33L330.0,264.17L328.67,262.67L326.0,263.83L324.33,262.5L317.5,262.67L314.5,264.67L313.67,265.83L313.83,268.83L313.5,270.83L311.83,270.33L309.83,272.33L310.17,274.33L308.0,273.67L308.17,271.83L300.83,270.33L298.83,270.67L296.17,269.17L295.83,268.17L297.17,266.0L296.0,264.33L293.33,264.67L292.17,264.33L291.5,262.5L289.17,261.5L288.83,264.0L285.67,265.33L285.17,266.67L284.67,268.17L286.17,270.83L285.67,272.67L285.0,274.17L285.5,276.5L281.83,277.5L279.83,277.5L277.83,278.33L276.5,280.5L272.0,284.83L269.17,285.17L267.0,284.67L265.5,286.17L264.0,285.83L262.67,287.0L260.83,287.83L261.33,290.0L260.5,292.17L256.67,296.33L253.83,297.67L253.67,302.17L253.17,303.5L251.67,302.83L251.17,303.67L251.5,308.83L251.83,310.33L249.67,310.83L248.17,310.17L247.5,311.0L247.5,312.83L246.17,312.67L245.5,310.17L245.0,312.33L242.83,314.0L240.83,316.33L240.33,318.5L239.0,319.83L238.67,322.17L238.83,324.67L239.0,327.33L237.5,328.0L237.17,329.5L239.17,330.83L240.33,332.83L237.67,334.0L235.83,336.67L238.17,336.83L239.0,337.67L240.17,339.17L240.83,339.67L242.33,339.0L243.25,341.75L242.0,343.75L242.38,344.63L243.38,345.13L244.13,346.75L245.88,347.13L246.88,348.25L249.13,347.25L250.5,345.75L251.88,345.38L254.25,347.5L253.13,348.63L254.25,349.88L257.13,350.0L257.5,351.5L258.63,354.0L258.25,356.75L258.5,359.25L259.5,359.5L260.25,360.13L261.13,360.0L262.0,361.13L263.88,361.13L266.5,359.38L266.25,362.13L265.75,363.25L265.0,365.0L265.38,366.38L264.38,368.63L265.0,370.5L264.5,372.13L264.5,373.25L266.88,373.75L266.75,374.75L267.0,375.63L266.13,376.88L266.75,378.88L267.0,381.25L264.0,383.25L263.38,385.0L264.38,386.5L264.38,388.25Z" />
		<path id="L1611027004666" name="沈阳市" class="qing-map-1616123885421" d="M527.0,255.0L527.0,256.17L528.17,258.33L526.5,259.83L526.5,261.5L529.0,263.0L531.83,263.33L534.17,262.17L535.67,262.5L535.5,260.67L537.33,260.83L538.67,261.67L537.33,263.0L537.83,264.0L539.0,264.5L538.83,268.67L539.67,270.0L540.33,271.5L540.67,272.83L539.17,274.83L538.67,275.83L539.17,277.33L537.33,279.0L536.33,279.5L535.0,281.33L534.67,282.5L535.67,284.17L537.17,285.83L538.17,286.17L537.5,287.33L534.33,289.5L532.33,290.5L532.0,292.0L532.83,293.0L532.83,294.0L533.83,295.0L534.0,296.5L533.33,297.83L531.5,298.67L529.67,297.17L528.17,297.0L526.67,296.17L525.0,297.0L523.5,296.67L519.67,300.66L517.67,300.83L515.17,302.33L513.5,301.83L512.67,301.17L511.33,302.0L509.0,302.67L506.5,304.67L503.0,303.33L502.33,301.83L501.0,300.0L499.67,300.5L498.33,299.5L496.33,299.17L494.17,298.5L492.5,299.17L491.5,297.33L489.67,297.17L488.5,296.0L487.5,294.83L484.67,294.33L483.17,292.5L480.83,292.0L479.33,293.0L477.17,293.83L475.5,294.67L473.67,293.17L471.67,290.33L472.17,288.17L473.67,285.5L471.17,285.67L470.5,287.17L469.17,287.33L468.83,289.17L468.83,291.17L467.67,292.5L464.83,293.5L464.0,296.0L463.17,297.83L461.83,299.33L460.33,298.0L458.0,298.33L456.67,299.0L456.5,300.67L458.0,300.67L458.33,301.83L457.17,303.33L455.83,303.67L454.67,302.83L454.0,304.33L454.83,306.0L453.33,307.33L452.33,308.5L453.67,309.5L452.5,310.67L450.5,310.83L449.33,309.67L448.17,310.83L446.83,310.17L446.33,311.33L446.17,313.67L445.33,315.17L443.33,316.33L441.5,316.33L440.0,317.33L438.33,317.67L437.17,317.5L436.33,318.67L435.33,320.67L435.5,322.33L433.83,322.67L432.83,323.0L433.0,324.67L431.5,325.33L430.83,326.67L431.33,328.0L431.0,329.0L430.33,330.0L429.0,330.83L428.0,332.5L427.5,334.17L427.67,336.33L426.67,337.5L424.67,337.67L423.83,339.17L422.83,338.83L422.5,337.5L422.17,335.5L421.17,333.67L420.17,332.67L418.67,333.0L417.0,333.67L417.0,331.33L419.0,329.5L420.5,328.5L420.5,327.0L420.5,325.67L421.5,325.33L421.67,323.5L423.33,323.5L426.33,319.67L425.83,317.83L425.5,316.5L426.5,314.83L427.0,313.5L425.17,312.67L424.5,310.83L425.67,309.83L424.0,308.5L424.33,306.83L423.67,305.17L423.5,303.67L424.33,302.5L423.83,301.17L424.83,299.67L422.83,297.67L420.33,298.33L421.33,296.17L419.17,295.67L417.83,294.67L416.5,293.5L414.33,294.83L412.0,295.0L410.33,293.5L411.17,292.33L410.13,291.38L409.38,290.13L410.5,288.5L410.13,286.88L410.5,285.25L411.25,284.0L413.13,282.88L413.13,281.13L413.63,280.0L412.88,279.0L413.13,276.63L414.88,277.63L415.63,276.63L416.13,275.38L416.5,273.63L417.13,272.13L418.25,271.13L418.38,267.5L421.25,264.88L420.63,264.0L417.0,264.0L417.5,262.25L416.63,261.5L415.75,261.88L414.25,259.5L411.88,257.5L409.75,256.0L407.75,254.88L407.25,253.25L407.38,251.38L407.5,250.0L405.25,248.38L405.63,246.75L406.63,246.25L407.75,245.88L410.13,246.63L413.13,247.0L413.0,244.88L412.5,242.13L411.5,240.88L411.75,239.38L411.25,237.63L411.0,236.0L410.25,232.88L408.38,229.75L409.0,227.75L407.63,227.88L407.0,226.88L406.63,225.75L406.38,224.0L404.75,223.25L406.13,221.63L404.38,220.88L405.75,218.88L405.13,217.63L403.83,216.67L403.67,214.5L404.83,213.33L407.17,214.17L415.17,209.17L420.5,206.5L422.33,204.17L423.67,204.5L427.5,202.33L432.83,197.67L434.83,196.0L436.5,194.5L440.0,193.5L441.67,191.67L443.17,190.17L445.83,189.33L448.0,187.17L450.33,187.0L450.5,185.33L449.17,183.0L448.83,181.67L447.33,180.5L446.5,179.5L444.0,178.17L443.5,174.67L443.0,171.33L443.5,168.0L445.0,167.33L448.33,166.83L451.67,166.17L452.0,162.67L453.17,162.17L454.17,161.33L455.5,161.33L457.5,159.17L458.83,157.83L457.83,156.33L454.0,154.67L452.67,154.0L451.67,151.67L449.5,152.33L447.5,152.33L447.0,150.67L445.33,149.17L444.83,147.0L439.67,146.17L439.17,144.0L438.33,142.67L436.17,141.83L435.67,139.67L437.67,139.0L440.0,137.0L441.83,137.17L443.33,137.67L444.5,137.33L445.33,139.17L446.17,139.17L446.33,137.83L447.0,136.33L448.5,135.0L448.83,133.67L448.5,132.5L449.17,130.83L453.17,130.67L455.17,132.67L457.67,131.67L457.83,130.5L458.83,129.67L461.17,130.33L463.83,131.0L464.83,130.33L465.83,130.67L468.83,128.83L471.33,127.0L474.83,126.0L477.0,125.17L478.67,123.5L482.5,123.17L483.0,122.17L476.99,119.17L479.17,115.0L479.0,113.0L479.0,109.5L481.17,106.17L482.17,105.83L483.33,104.67L484.33,102.5L485.83,100.67L488.33,100.17L492.5,99.67L493.5,99.0L497.67,98.17L498.67,97.5L500.17,97.0L501.67,95.83L502.83,96.17L505.0,94.67L506.0,94.67L506.67,94.0L508.67,95.5L510.0,96.67L511.17,95.83L512.33,97.0L512.5,98.33L514.83,98.17L515.83,98.83L516.33,101.34L514.5,101.17L514.67,103.33L516.5,104.0L515.83,105.83L517.83,106.0L518.83,107.17L520.0,107.83L518.5,108.83L519.67,112.17L519.33,113.5L518.5,115.33L520.33,115.5L518.5,118.33L518.83,119.33L519.67,120.17L519.5,121.5L519.17,122.67L519.83,124.5L519.33,125.83L519.83,128.33L518.83,129.67L518.17,130.83L517.33,133.17L516.0,133.67L516.0,135.0L517.33,135.67L516.67,137.17L517.5,138.17L516.67,139.83L517.5,140.83L519.0,141.5L517.83,143.33L518.83,144.33L521.33,142.83L522.17,143.5L521.5,144.83L522.33,146.83L523.83,148.33L525.0,148.83L524.83,150.5L525.33,151.67L526.33,152.83L528.17,153.17L529.17,155.0L530.33,156.17L531.33,157.0L532.17,158.17L533.33,159.0L534.5,159.0L535.67,159.83L533.5,161.0L532.5,161.83L531.0,161.83L528.17,164.83L526.17,164.17L526.0,161.5L524.5,159.83L522.83,159.83L521.67,161.67L521.5,164.5L520.67,165.33L519.33,166.0L518.17,166.33L516.5,166.5L514.5,169.5L512.0,168.83L510.5,171.0L508.67,171.67L507.17,172.17L505.33,174.67L506.0,176.17L507.0,177.83L507.33,179.17L507.33,180.67L506.83,181.83L506.83,182.67L508.0,184.17L508.83,185.17L510.67,185.33L512.33,188.17L512.67,189.83L511.5,191.67L511.5,193.67L510.33,195.17L509.5,196.5L508.33,198.0L508.0,200.0L508.17,202.17L506.83,203.33L505.33,205.17L505.67,207.83L508.33,209.33L511.0,208.0L512.33,208.67L513.67,209.17L514.0,213.83L515.33,214.33L517.0,216.0L520.17,217.33L522.0,218.33L522.67,219.83L524.5,221.0L527.33,220.83L529.0,221.33L533.5,224.0L534.67,225.83L535.17,227.33L536.83,227.83L537.67,228.5L538.17,227.17L538.5,226.0L539.5,225.83L540.33,226.67L540.67,227.67L540.33,228.83L540.33,230.33L539.0,232.0L537.67,230.5L536.33,231.17L535.67,233.33L536.83,233.83L538.17,235.33L537.33,237.5L535.0,237.5L533.33,238.0L532.17,238.83L532.5,239.67L532.17,241.0L533.33,243.67L532.5,245.5L532.83,247.0L531.33,248.33L534.17,250.83L531.17,254.5Z" />
		<path id="L1611034541305" name="盘锦市" class="qing-map-1616123885421" d="M318.75,382.63L321.5,381.63L323.13,380.63L325.0,378.13L325.25,376.25L326.75,374.63L326.63,372.5L328.63,371.13L330.0,369.13L330.38,366.38L330.25,362.63L329.25,360.88L328.88,359.38L328.13,358.13L329.25,358.0L331.63,354.25L333.63,354.5L336.25,354.63L337.5,353.63L337.38,352.5L332.13,352.13L330.75,352.63L329.25,353.0L327.88,352.38L326.5,352.38L324.75,351.38L323.63,352.0L322.63,351.13L320.75,351.63L320.13,348.13L319.75,346.0L320.0,343.88L321.5,343.13L322.75,342.38L323.88,342.0L324.63,338.75L322.75,338.13L321.5,338.0L320.38,336.88L321.25,336.13L320.5,334.13L323.75,331.88L323.5,330.75L325.0,330.75L325.5,329.25L326.88,327.88L327.25,326.88L328.13,327.13L330.13,325.5L331.38,325.88L333.0,325.13L334.5,324.88L334.63,323.25L335.5,322.38L336.75,321.75L337.88,322.13L338.0,323.38L339.13,323.25L339.63,321.25L341.0,321.75L342.63,321.38L342.88,319.5L344.25,319.63L346.25,319.38L348.63,321.0L348.88,322.38L350.25,323.13L352.0,322.0L352.25,320.38L352.75,318.88L354.38,318.0L356.5,317.25L357.25,316.13L357.63,314.63L359.88,315.63L363.5,315.63L363.5,317.0L364.75,317.13L365.75,317.38L367.0,316.75L368.25,315.63L369.38,314.88L370.63,314.13L371.75,313.25L373.75,311.75L377.63,309.38L380.25,306.75L381.33,308.17L381.5,310.0L382.5,311.0L382.33,312.5L383.83,312.83L384.5,313.67L385.17,314.83L385.17,316.17L388.17,318.0L389.0,318.83L389.33,320.17L389.33,321.5L388.67,322.5L388.83,323.67L388.33,324.83L388.33,325.83L387.83,326.83L387.83,328.17L386.83,329.33L386.33,332.33L385.67,334.0L385.0,335.5L383.5,335.5L382.83,336.0L383.5,337.5L384.67,338.67L386.83,339.67L388.17,340.0L388.67,340.83L390.5,340.67L392.17,340.33L393.83,340.17L395.33,340.5L396.83,339.67L395.83,338.33L397.5,338.17L399.67,336.17L400.67,334.33L401.83,332.83L403.33,333.0L404.33,332.0L406.67,332.83L407.67,331.83L408.83,331.83L410.33,331.83L410.33,333.17L408.83,334.17L407.67,334.5L407.17,335.5L406.17,336.33L405.67,337.5L404.33,337.5L403.0,337.17L402.5,338.5L401.67,339.83L399.83,339.67L399.33,341.0L398.17,342.33L398.17,343.83L399.67,344.17L399.83,345.67L399.83,346.83L399.83,348.33L401.0,349.5L400.67,351.83L402.5,353.5L402.83,355.0L402.5,356.83L401.83,359.67L401.83,360.83L402.5,362.33L403.33,363.33L402.83,365.33L402.0,366.0L400.83,364.17L400.83,366.33L400.0,367.17L398.17,365.67L396.5,365.83L396.33,367.0L397.33,367.83L396.67,369.33L394.67,369.33L394.5,370.5L396.17,371.17L396.17,372.5L395.83,373.83L395.33,375.5L393.67,374.67L393.67,376.33L393.17,378.17L391.83,380.17L390.83,381.33L389.83,382.33L389.83,383.5L387.83,382.5L386.17,382.83L384.83,383.0L383.83,385.0L380.0,381.5L379.33,382.67L379.33,384.33L379.83,385.33L380.5,386.83L379.17,387.5L377.33,386.33L375.67,387.83L374.5,389.67L371.5,391.33L371.83,393.0L375.17,395.0L378.67,397.67L381.83,399.33L382.17,401.17L382.0,402.83L383.17,403.83L386.0,403.33L388.17,403.33L389.0,404.83L388.33,406.0L385.33,407.33L381.33,405.83L379.33,404.17L377.83,403.5L377.17,405.33L377.0,407.5L376.33,409.33L375.17,410.0L370.5,409.67L369.17,410.33L367.5,410.5L363.83,407.33L362.17,408.5L362.67,406.67L360.17,404.5L362.17,401.17L361.17,400.0L359.33,401.83L359.83,399.5L358.17,398.0L357.5,399.0L358.5,404.0L359.5,407.0L357.33,403.83L356.33,397.83L357.83,396.33L357.67,394.17L357.67,393.0L356.33,390.17L357.33,389.5L357.5,387.67L353.67,387.5L352.5,388.33L353.33,389.83L353.33,390.83L349.5,389.83L346.33,383.0L346.17,379.67L345.33,378.83L346.67,376.67L345.0,374.33L344.67,371.67L347.67,369.0L346.0,368.33L343.0,370.67L342.33,372.83L341.67,374.67L342.67,377.5L339.5,380.83L338.33,380.67L337.83,382.67L336.17,384.17L335.33,385.83L331.5,385.17L331.17,387.5L330.5,385.83L329.83,387.33L328.17,387.33L327.83,385.17L326.83,386.17L324.67,385.17L324.17,383.83L322.17,386.33L318.67,386.17L319.67,383.5Z" />
		<path id="L1611035071401" name="鞍山市" class="qing-map-1616123885421" d="M422.5,337.5L422.17,335.5L421.17,333.67L420.17,332.67L418.67,333.0L417.0,333.67L417.0,331.33L419.0,329.5L420.5,328.5L420.5,327.0L420.5,325.67L421.5,325.33L421.67,323.5L423.33,323.5L426.33,319.67L425.83,317.83L425.5,316.5L426.5,314.83L427.0,313.5L425.17,312.67L424.5,310.83L425.67,309.83L424.0,308.5L424.33,306.83L423.67,305.17L423.5,303.67L424.33,302.5L423.83,301.17L424.83,299.67L422.83,297.67L420.33,298.33L421.33,296.17L419.17,295.67L417.83,294.67L416.5,293.5L414.33,294.83L412.0,295.0L410.33,293.5L411.17,292.33L410.13,291.38L405.5,293.25L398.38,293.0L397.25,294.75L391.5,297.25L389.88,297.63L384.0,301.5L380.25,306.75L381.33,308.17L381.5,310.0L382.5,311.0L382.33,312.5L383.83,312.83L384.5,313.67L385.17,314.83L385.17,316.17L388.17,318.0L389.0,318.83L389.33,320.17L389.33,321.5L388.67,322.5L388.83,323.67L388.33,324.83L388.33,325.83L387.83,326.83L387.83,328.17L386.83,329.33L386.33,332.33L385.67,334.0L385.0,335.5L383.5,335.5L382.83,336.0L383.5,337.5L384.67,338.67L386.83,339.67L388.17,340.0L388.67,340.83L390.5,340.67L392.17,340.33L393.83,340.17L395.33,340.5L396.83,339.67L395.83,338.33L397.5,338.17L399.67,336.17L400.67,334.33L401.83,332.83L403.33,333.0L404.33,332.0L406.67,332.83L407.67,331.83L408.83,331.83L410.33,331.83L410.33,333.17L408.83,334.17L407.67,334.5L407.17,335.5L406.17,336.33L405.67,337.5L404.33,337.5L403.0,337.17L402.5,338.5L401.67,339.83L399.83,339.67L399.33,341.0L398.17,342.33L398.17,343.83L399.67,344.17L399.83,345.0L399.83,345.67L399.83,346.83L399.83,348.33L401.0,349.5L400.67,351.83L402.5,353.5L402.83,355.0L402.5,356.83L401.83,359.67L401.83,360.83L402.5,362.33L403.33,363.33L402.83,365.33L402.0,366.0L400.83,364.17L400.83,366.33L400.0,367.17L398.17,365.67L396.5,365.83L396.33,367.0L397.33,367.83L396.67,369.33L394.67,369.33L394.5,370.5L396.17,371.17L396.17,372.5L395.83,373.83L395.33,375.5L393.67,374.67L393.67,376.33L393.17,378.17L394.17,379.67L396.0,379.33L396.83,377.67L398.33,377.33L399.5,375.83L400.67,375.83L402.83,375.83L404.5,374.33L406.67,373.83L408.5,374.5L410.17,374.5L411.5,374.67L412.0,376.33L410.17,378.83L411.17,381.67L410.0,384.5L411.67,385.83L413.17,387.33L414.0,388.83L415.17,389.0L415.33,391.5L412.83,395.83L414.0,396.5L415.17,397.0L416.83,396.5L418.0,397.17L419.33,398.67L420.17,397.5L421.33,397.5L422.0,398.5L423.67,397.5L425.33,398.33L426.0,399.83L425.83,401.5L426.0,403.83L423.67,405.83L423.33,408.17L424.17,409.33L425.83,409.17L427.5,408.0L428.33,408.83L427.67,410.67L426.83,411.67L426.0,412.83L426.5,414.5L425.83,415.67L424.0,416.67L426.5,419.83L427.67,418.83L429.5,418.67L431.5,417.83L433.0,418.83L433.67,420.17L436.33,420.17L438.17,421.67L439.83,420.67L441.33,421.5L441.5,423.17L442.83,424.0L443.5,426.0L445.67,426.5L448.0,427.33L450.5,426.83L453.5,426.5L455.0,427.83L455.5,429.5L457.5,429.83L458.17,430.67L459.0,432.33L461.17,433.33L458.83,435.83L460.0,438.5L460.0,440.17L458.83,441.83L455.5,442.0L454.33,442.67L454.17,446.17L454.33,447.5L453.5,448.5L454.0,450.5L449.5,455.33L449.0,456.67L449.0,458.17L448.67,459.83L448.0,461.17L448.67,463.0L449.33,464.67L450.0,466.83L450.33,469.5L450.33,471.33L451.0,472.83L453.5,472.33L455.0,473.17L455.0,474.83L455.33,478.17L457.83,480.5L459.17,480.83L459.83,481.67L459.0,483.0L459.83,484.33L460.5,486.33L463.0,486.67L464.0,487.83L468.33,490.17L470.33,486.33L472.33,487.17L473.5,485.5L474.83,486.83L476.83,486.83L478.67,487.5L480.17,487.17L483.0,489.67L484.67,490.67L486.83,490.67L488.0,493.33L489.33,494.5L490.67,492.67L492.83,493.33L494.33,493.33L496.0,495.0L497.67,495.17L499.17,494.17L500.5,494.5L501.67,492.67L503.0,491.33L504.67,491.0L507.0,491.33L505.67,489.33L507.5,488.33L507.5,486.33L511.17,484.0L512.5,482.5L515.17,482.83L516.0,481.67L516.83,480.67L519.5,477.83L520.5,475.83L519.5,473.83L518.17,474.0L516.33,472.33L516.33,470.83L517.67,468.67L518.67,466.5L519.17,464.67L521.17,464.33L523.67,461.5L525.67,460.83L528.17,458.17L530.83,456.67L530.0,454.33L530.0,452.17L532.33,451.0L535.0,445.33L535.67,443.5L534.17,441.83L536.0,439.5L535.33,436.67L535.33,434.67L536.0,431.33L534.0,430.17L533.67,427.83L533.33,426.17L533.5,424.67L533.17,423.17L533.17,421.5L531.5,419.83L532.0,418.51L533.67,418.17L534.33,416.5L533.5,414.83L533.33,412.67L532.33,411.0L530.83,410.0L529.17,409.67L522.67,405.83L519.67,406.83L517.83,406.17L517.5,404.17L515.33,402.33L516.17,397.0L518.5,396.0L517.67,393.67L516.83,392.17L515.5,391.83L515.17,390.0L514.17,388.5L512.83,388.67L512.0,389.67L509.33,390.33L507.17,390.5L504.17,391.83L501.5,390.83L500.17,391.83L499.83,393.5L498.17,394.83L496.17,394.83L494.83,395.83L492.83,395.67L491.0,395.67L489.0,397.83L488.17,398.67L486.5,398.5L486.17,400.17L485.0,400.33L483.5,400.33L481.0,401.33L479.67,401.67L478.17,403.33L476.17,401.83L474.0,402.33L472.17,400.5L470.67,400.0L469.83,398.83L468.0,396.67L467.83,393.67L469.67,391.83L470.5,390.33L470.5,388.67L469.17,388.0L467.5,387.33L466.17,387.33L465.33,385.67L465.17,383.83L465.33,382.0L467.33,379.67L467.0,376.17L468.17,375.83L469.17,374.83L470.33,374.5L469.5,372.67L469.0,370.5L472.5,367.5L474.33,367.5L475.67,368.17L478.33,367.33L480.0,367.33L480.0,365.83L481.5,363.67L480.67,361.67L481.5,360.5L483.83,359.83L483.33,358.17L483.5,356.83L481.33,355.5L481.5,353.17L479.33,352.0L478.33,352.83L476.83,353.0L475.5,352.0L475.17,350.5L475.0,349.17L475.17,347.33L475.5,345.83L474.33,344.5L473.5,343.5L472.0,342.17L470.33,342.5L466.83,341.5L466.33,340.0L465.33,338.5L464.17,339.0L462.5,339.0L461.83,340.5L460.5,341.17L459.5,339.83L458.17,339.0L457.0,340.5L455.5,340.17L451.5,340.17L450.67,341.5L450.17,343.5L448.83,343.5L448.0,343.83L448.33,345.33L447.5,346.5L446.17,347.0L446.33,350.33L444.67,352.67L443.67,354.33L441.5,353.67L437.83,352.33L435.67,351.5L430.67,350.17L429.5,348.5L426.67,346.67L424.67,344.83L423.5,343.33L420.67,343.0L421.33,341.67L421.33,339.5L422.83,338.83Z" />
		<path id="L1611039710168" name="营口市" class="qing-map-1616123885421" d="M377.0,407.5L377.17,405.33L377.83,403.5L379.33,404.17L381.33,405.83L385.33,407.33L388.33,406.0L389.0,404.83L388.17,403.33L386.0,403.33L383.17,403.83L382.0,402.83L382.17,401.17L381.83,399.33L378.67,397.67L375.17,395.0L371.83,393.0L371.5,391.33L374.5,389.67L375.67,387.83L377.33,386.33L379.17,387.5L380.5,386.83L379.83,385.33L379.33,384.33L379.33,382.67L380.0,381.5L383.83,385.0L384.83,383.0L386.17,382.83L387.83,382.5L389.83,383.5L389.83,382.33L390.83,381.33L391.83,380.17L393.17,378.17L394.17,379.67L396.0,379.33L396.83,377.67L398.33,377.33L399.5,375.83L400.67,375.83L402.83,375.83L404.5,374.33L406.67,373.83L408.5,374.5L410.17,374.5L411.5,374.67L412.0,376.33L410.17,378.83L411.17,381.67L410.0,384.5L411.67,385.83L413.17,387.33L414.0,388.83L415.17,389.0L415.33,391.5L412.83,395.83L414.0,396.5L415.17,397.0L416.83,396.5L418.0,397.17L419.33,398.67L420.17,397.5L421.33,397.5L422.0,398.5L423.67,397.5L425.33,398.33L426.0,399.83L425.83,401.5L426.0,403.83L423.67,405.83L423.33,408.17L424.17,409.33L425.83,409.17L427.5,408.0L428.33,408.83L427.67,410.67L426.83,411.67L426.0,412.83L426.5,414.5L425.83,415.67L424.0,416.67L426.5,419.83L427.67,418.83L429.5,418.67L431.5,417.83L433.0,418.83L433.67,420.17L436.33,420.17L438.17,421.67L439.83,420.67L441.33,421.5L441.5,423.17L442.83,424.0L443.5,426.0L445.67,426.5L448.0,427.33L450.5,426.83L453.5,426.5L455.0,427.83L455.5,429.5L457.5,429.83L458.17,430.67L459.0,432.33L461.17,433.33L458.83,435.83L460.0,438.5L460.0,440.17L458.83,441.83L455.5,442.0L454.33,442.67L454.17,446.17L454.33,447.5L453.5,448.5L454.0,450.5L449.5,455.33L449.0,456.67L449.0,458.17L448.67,459.83L448.0,461.17L448.67,463.0L449.33,464.67L450.0,466.83L450.33,469.5L448.83,470.67L448.0,472.17L447.33,473.83L445.83,476.0L446.5,478.17L445.67,479.67L444.0,480.0L442.5,481.0L441.83,482.17L439.33,481.67L437.67,481.67L433.17,485.17L432.17,486.67L430.67,486.5L427.67,487.5L422.83,487.83L421.67,489.0L419.17,489.0L417.5,488.67L415.67,488.0L414.17,489.5L415.17,491.5L416.17,492.17L415.83,493.5L414.17,493.67L413.17,494.67L413.5,496.0L415.0,496.33L415.5,498.83L416.17,499.5L416.5,501.17L416.5,502.33L417.0,503.67L413.67,503.5L412.17,505.17L410.83,503.67L409.0,502.33L407.17,502.33L405.17,501.5L404.0,500.5L403.33,499.67L401.67,499.67L399.83,500.17L398.33,500.33L397.0,499.5L395.5,498.0L393.67,498.0L392.0,498.83L390.0,500.5L388.0,497.5L387.33,495.5L386.33,493.5L384.67,494.17L383.33,495.83L381.5,495.17L380.0,494.5L379.33,492.5L378.0,491.67L376.33,491.67L374.0,490.67L371.0,490.5L369.83,489.33L368.5,487.83L366.83,487.67L365.33,488.0L361.83,489.17L360.67,488.0L360.5,485.67L359.83,484.17L359.33,482.67L358.83,480.5L360.33,480.67L361.5,480.0L363.0,478.67L363.83,477.0L363.67,475.17L363.0,473.5L361.84,471.67L364.0,471.83L365.67,471.17L367.5,469.83L369.5,468.0L371.83,465.83L373.17,463.5L373.17,461.67L373.33,460.5L373.0,459.33L371.83,457.33L372.5,456.17L373.17,456.33L374.83,455.33L376.17,453.67L377.17,453.67L378.0,452.83L378.0,452.17L379.5,450.67L381.67,449.0L381.67,447.83L382.83,446.33L382.0,442.0L382.67,441.5L384.17,441.67L385.67,440.67L386.67,439.17L387.83,438.83L387.67,438.0L390.67,436.0L389.67,434.17L389.83,432.83L390.5,431.33L388.67,428.0L385.0,424.17L384.83,423.17L383.0,422.67L382.5,421.5L376.83,417.33L376.0,415.17L378.5,411.5L378.17,408.83Z" />
		<path id="L1611040556952" name="大连市" class="qing-map-1616123885421" d="M285.6,650.0L286.0,649.2L286.4,648.7L287.0,649.1L287.7,648.5L288.8,649.0L289.3,649.3L289.0,649.9L289.5,650.3L290.4,650.0L291.1,650.2L291.8,650.0L292.5,650.1L293.4,650.2L295.1,648.6L295.1,647.7L296.2,646.5L297.1,646.8L297.7,646.2L298.9,646.2L299.5,646.8L300.9,646.8L302.1,647.4L302.7,647.0L303.0,646.0L303.5,647.3L304.5,647.7L305.0,647.2L305.4,647.8L306.9,646.9L307.8,647.3L309.0,647.2L310.3,647.0L310.9,646.6L311.7,646.4L312.2,646.3L312.6,647.0L313.5,646.6L313.0,645.5L313.5,644.8L313.4,644.1L314.4,644.1L315.4,643.4L316.1,643.1L316.7,641.3L317.7,640.9L319.3,639.8L320.7,639.8L322.1,640.2L322.9,640.4L324.2,641.2L327.3,641.5L328.5,641.6L329.9,641.2L330.5,639.7L331.9,641.1L333.3,639.5L333.6,638.3L334.4,636.3L333.2,635.2L330.7,634.1L329.8,632.9L328.9,633.1L328.2,632.6L327.2,632.6L327.0,631.8L325.9,631.9L324.9,632.6L323.9,632.8L323.7,631.6L323.7,630.9L323.6,630.2L325.1,630.2L325.7,629.0L326.5,628.5L327.4,628.6L328.2,627.6L329.0,627.0L329.0,625.9L328.9,625.3L329.0,624.7L328.2,624.1L327.4,624.4L326.6,624.2L326.9,623.6L326.8,622.7L327.0,622.1L327.6,622.6L328.2,622.0L329.1,621.8L329.9,621.9L330.7,622.7L331.0,621.8L331.5,622.4L332.1,621.7L332.9,621.8L333.5,621.9L333.8,622.7L334.5,623.4L335.3,623.5L336.2,623.1L336.9,622.7L337.4,623.3L337.7,622.5L337.2,621.7L336.3,621.2L335.4,621.1L334.6,620.7L334.6,619.9L335.1,618.9L335.8,618.5L336.5,619.0L337.7,619.2L338.4,619.6L339.1,620.1L339.5,620.6L341.2,620.8L341.8,621.2L341.5,622.1L341.7,622.9L342.2,623.4L342.6,624.6L343.0,625.0L343.1,626.3L343.7,627.1L344.6,627.3L345.7,627.4L346.3,627.9L346.2,628.7L345.1,629.1L346.0,630.0L347.1,629.7L349.3,630.5L350.8,628.8L352.3,628.1L351.8,627.4L351.8,626.2L351.7,625.2L351.7,624.5L350.5,623.6L349.9,623.9L349.8,623.0L347.7,621.2L347.4,622.3L346.1,621.5L346.2,619.9L346.2,618.1L348.4,617.8L349.6,618.2L350.9,617.8L351.4,620.2L352.6,620.0L353.4,621.1L354.0,621.8L354.5,621.3L354.0,620.2L353.8,619.2L352.7,618.8L351.5,617.7L351.9,616.9L351.1,616.1L351.7,615.0L352.8,615.3L353.6,615.5L355.9,618.2L357.3,619.1L358.5,619.4L359.0,619.0L359.1,617.9L360.2,615.8L363.4,613.7L364.5,614.0L365.2,614.8L367.0,615.0L368.2,615.7L368.5,615.1L368.2,614.1L367.4,613.3L366.4,612.9L366.4,612.2L365.9,610.8L366.0,609.6L366.4,609.0L367.0,608.8L367.9,609.7L368.7,609.3L369.8,609.6L370.3,609.2L370.0,608.6L370.7,608.3L371.1,607.9L371.3,607.4L372.1,606.9L373.1,606.7L373.4,605.9L373.8,605.0L374.8,605.0L375.7,604.6L377.2,604.5L378.1,604.4L376.4,603.7L375.1,603.0L373.8,603.4L372.4,603.2L372.6,602.4L372.0,602.1L371.4,601.0L372.6,600.9L373.9,598.4L372.9,597.5L373.4,596.1L374.5,595.3L375.3,595.6L376.7,593.7L378.3,592.5L379.9,591.1L381.4,590.6L382.6,590.9L382.8,589.9L383.7,589.2L384.5,589.1L386.1,587.8L386.1,586.9L387.8,585.4L388.0,583.8L386.8,583.0L387.6,582.8L388.2,583.0L390.9,579.8L391.7,579.4L391.9,578.5L393.4,577.1L393.6,576.2L394.4,575.9L395.3,575.3L395.8,575.2L396.9,574.6L397.0,573.9L400.3,571.9L400.6,570.9L404.3,570.8L407.7,570.5L408.3,570.9L409.3,571.3L409.8,570.7L411.6,570.1L412.5,570.9L413.8,570.5L416.6,567.9L416.8,566.7L417.4,566.2L417.9,565.5L417.7,564.4L418.1,563.7L418.0,562.7L417.8,562.1L418.8,561.7L419.6,562.3L419.7,563.0L419.1,563.5L418.6,564.3L419.4,564.2L420.1,563.8L420.3,563.1L421.1,562.9L421.8,562.7L421.8,561.7L422.5,561.7L423.7,562.4L423.7,561.7L423.2,561.0L423.6,560.3L424.8,560.7L425.0,559.7L425.5,558.4L425.7,557.4L426.0,556.6L425.9,555.7L427.1,556.2L428.0,556.8L428.7,557.9L429.6,558.0L429.6,557.2L430.4,556.7L430.3,556.0L431.2,555.0L431.8,554.1L433.6,553.9L434.0,553.1L435.3,552.2L436.3,552.3L438.4,551.0L441.2,549.3L442.9,547.9L444.6,547.5L447.0,546.1L447.9,545.6L449.1,545.5L450.9,544.7L451.6,544.7L455.5,544.4L456.7,544.0L458.3,542.5L459.1,541.7L460.8,540.8L459.6,539.6L460.0,538.4L460.2,537.5L461.1,538.4L461.5,537.3L461.8,539.0L462.7,539.4L463.6,538.9L464.4,538.6L465.6,538.6L466.8,538.2L467.7,537.6L468.0,538.4L468.6,539.1L469.2,539.0L468.9,538.1L469.0,537.5L470.1,537.4L470.6,536.2L471.2,536.2L470.9,537.6L472.1,538.4L473.2,539.1L473.9,539.8L474.8,540.0L475.0,539.2L476.0,538.3L477.1,537.5L478.8,537.3L480.3,537.2L481.6,537.1L482.2,536.5L481.5,535.8L481.6,534.9L482.1,534.4L483.1,534.4L484.0,535.0L484.7,534.8L485.4,535.3L486.6,534.4L487.4,534.9L488.2,535.1L488.3,534.4L487.2,533.6L486.9,533.2L487.1,532.2L486.7,531.3L486.6,530.4L485.4,529.7L484.2,529.4L484.1,528.5L484.7,527.9L485.9,528.2L486.9,528.0L487.3,527.4L489.5,526.6L488.1,523.6L488.7,522.5L489.0,523.8L490.0,525.3L491.2,525.9L495.9,525.3L496.4,524.8L497.0,524.1L499.8,523.5L500.8,522.2L500.8,524.0L501.4,525.3L501.8,526.5L501.1,526.9L501.4,527.7L501.2,528.8L501.4,529.8L502.6,530.3L503.8,529.7L505.0,528.8L506.1,528.1L507.1,528.0L506.2,527.0L506.4,526.0L507.5,525.7L508.0,524.8L508.4,524.2L508.6,523.5L511.6,523.3L511.8,520.9L510.3,519.0L509.6,517.3L510.5,515.9L507.4,512.9L508.6,508.6L507.3,506.6L505.5,506.2L504.0,505.6L502.8,505.3L501.4,504.5L500.1,505.5L499.5,504.2L499.4,502.9L498.4,501.2L498.3,499.8L500.0,498.2L500.7,496.3L500.5,494.5L499.17,494.17L497.67,495.17L496.0,495.0L494.33,493.33L492.83,493.33L490.67,492.67L489.33,494.5L488.0,493.33L486.83,490.67L484.67,490.67L483.0,489.67L480.17,487.17L478.67,487.5L476.83,486.83L474.83,486.83L473.5,485.5L472.33,487.17L470.33,486.33L468.33,490.17L464.0,487.83L463.0,486.67L460.5,486.33L459.83,484.33L459.0,483.0L459.83,481.67L459.17,480.83L457.83,480.5L455.33,478.17L455.0,474.83L455.0,473.17L453.5,472.33L451.0,472.83L450.33,471.33L450.33,469.5L448.83,470.67L448.0,472.17L447.33,473.83L445.83,476.0L446.5,478.17L445.67,479.67L444.0,480.0L442.5,481.0L441.83,482.17L439.33,481.67L437.67,481.67L433.17,485.17L432.17,486.67L430.67,486.5L427.67,487.5L422.83,487.83L421.67,489.0L419.17,489.0L417.5,488.67L415.67,488.0L414.17,489.5L415.17,491.5L416.17,492.17L415.83,493.5L414.17,493.67L413.17,494.67L413.5,496.0L415.0,496.33L415.5,498.83L416.17,499.5L416.5,501.17L416.5,502.33L417.0,503.67L413.67,503.5L412.17,505.17L410.83,503.67L409.0,502.33L407.17,502.33L405.17,501.5L404.0,500.5L403.33,499.67L401.67,499.67L399.83,500.17L398.33,500.33L397.0,499.5L395.5,498.0L393.67,498.0L392.0,498.83L390.0,500.5L388.0,497.5L387.33,495.5L386.33,493.5L384.67,494.17L383.33,495.83L381.5,495.17L380.0,494.5L379.33,492.5L378.0,491.67L376.33,491.67L374.0,490.67L371.0,490.5L369.83,489.33L368.5,487.83L366.83,487.67L365.33,488.0L361.83,489.17L360.67,488.0L360.5,485.67L359.83,484.17L359.33,482.67L358.83,480.5L357.5,481.0L355.67,483.5L355.67,485.0L352.67,489.0L351.33,489.83L349.83,491.5L348.17,492.33L346.17,492.33L346.0,493.67L346.83,494.67L347.67,494.67L349.5,496.5L348.0,497.67L346.33,500.0L343.83,500.0L341.83,501.33L341.0,502.5L341.67,504.67L340.0,505.33L340.0,506.17L338.33,507.0L335.33,506.83L333.5,505.5L332.5,505.33L328.33,508.5L326.5,508.5L325.83,511.33L322.0,513.83L321.0,514.5L317.17,513.83L316.5,515.0L312.17,520.17L310.5,521.0L310.33,521.83L311.83,524.5L311.5,526.83L309.33,528.67L309.33,529.83L313.33,533.17L313.33,536.17L314.5,537.83L315.33,539.0L315.5,541.0L316.0,543.0L316.67,545.33L313.83,541.33L309.5,541.0L309.17,542.5L308.17,544.33L306.5,545.17L305.17,545.17L304.33,546.33L303.17,546.83L301.33,547.33L299.33,547.33L297.17,547.33L296.0,548.17L294.67,548.0L293.83,547.17L293.17,548.17L292.83,549.5L291.0,551.33L289.67,552.67L286.33,555.17L286.0,558.33L289.16,559.16L291.0,558.5L292.33,559.67L292.83,561.33L295.17,561.5L295.67,559.5L300.17,557.5L303.5,559.5L304.83,559.33L306.5,559.0L307.17,558.33L308.5,557.0L309.67,556.17L310.83,556.0L310.83,557.17L309.83,557.5L308.83,558.0L308.0,559.0L307.33,559.83L305.5,560.0L304.0,560.83L303.0,561.67L301.83,561.17L301.0,559.67L299.17,559.5L297.67,560.67L295.67,562.83L295.17,564.17L295.17,565.33L294.67,566.0L293.5,566.67L292.0,566.83L290.5,567.0L290.5,568.0L290.67,569.67L289.67,571.17L289.5,572.33L288.83,574.0L288.5,575.33L290.33,576.17L291.83,574.83L292.99,573.5L296.5,569.17L299.0,567.83L299.67,569.0L300.0,570.33L298.0,571.33L296.67,572.5L295.67,574.33L296.5,576.33L298.17,575.83L299.83,576.83L301.33,577.0L302.99,578.49L305.16,577.5L306.17,575.5L306.67,573.83L307.5,573.0L307.5,571.67L307.17,570.17L307.5,568.83L308.5,569.67L308.5,571.0L309.83,572.0L312.5,575.33L314.0,577.0L315.67,578.33L317.17,578.67L318.33,580.17L318.5,582.0L319.33,583.17L323.17,582.66L324.83,582.5L326.34,581.5L326.5,578.83L327.67,578.67L329.83,577.33L331.67,578.0L333.67,577.67L334.17,575.83L333.17,573.83L333.17,572.67L335.17,573.83L338.33,575.5L340.17,575.5L341.5,575.0L343.67,576.17L345.17,575.67L346.83,574.83L348.17,573.83L351.0,573.0L353.67,572.83L352.83,574.0L351.17,574.0L349.33,575.33L348.17,576.33L347.83,577.17L346.17,576.83L345.0,577.17L343.67,577.67L342.0,577.33L340.83,577.33L339.0,576.67L337.33,576.17L335.67,576.67L337.5,577.67L335.83,579.0L335.0,581.17L335.17,582.83L336.0,583.5L336.9,583.9L336.3,584.5L335.8,585.0L335.2,584.8L336.3,585.7L336.4,586.6L334.8,585.6L332.5,587.2L331.5,586.3L331.5,585.6L330.9,585.8L330.6,586.2L331.3,587.2L331.3,588.1L329.3,589.3L328.4,588.9L327.3,589.0L325.4,588.5L324.0,589.4L322.1,589.5L322.2,590.9L323.4,590.6L324.5,591.9L324.7,592.3L325.2,592.4L325.9,592.7L326.6,592.7L327.4,592.3L327.2,593.3L326.4,594.2L326.1,595.0L326.1,595.8L326.5,596.5L326.2,597.2L324.9,597.1L324.1,596.8L323.6,597.9L323.5,598.4L323.0,598.7L322.6,598.2L322.0,598.3L321.4,598.7L321.4,599.5L322.1,599.2L322.5,599.7L322.8,601.0L323.2,602.1L324.0,602.1L325.5,600.9L326.4,601.7L326.9,603.3L327.5,603.8L327.5,604.7L328.7,604.9L329.3,605.7L330.7,606.4L331.4,607.9L331.4,609.0L331.9,610.4L331.0,610.7L330.3,611.9L329.0,612.8L327.9,612.3L326.7,613.1L326.3,613.1L326.6,614.0L325.9,614.4L325.2,614.6L324.3,614.4L323.5,614.9L322.7,615.4L321.9,615.5L321.5,616.2L319.6,617.3L318.6,617.2L317.8,617.3L317.2,617.1L316.3,617.9L314.6,619.6L313.2,620.4L311.8,621.0L310.8,621.5L310.1,621.0L309.8,621.7L308.9,621.7L308.2,621.3L306.9,621.5L306.2,621.2L305.9,621.7L304.8,621.9L303.7,621.4L303.4,620.9L303.7,619.8L301.1,617.5L300.5,616.4L299.9,617.9L299.0,618.6L298.2,618.4L297.6,619.0L297.6,619.8L297.3,620.5L296.4,620.8L296.4,621.6L295.9,622.0L295.2,622.8L295.3,623.6L296.6,623.6L297.1,624.4L297.2,625.2L297.6,626.0L297.6,626.9L296.8,627.3L296.2,627.5L295.7,628.0L294.8,628.1L294.3,628.4L293.4,628.1L292.7,628.0L291.9,628.2L291.2,628.0L290.9,628.5L289.3,629.8L288.5,629.8L287.4,630.5L286.4,630.5L286.2,631.4L285.7,631.7L285.8,632.4L284.6,632.9L283.3,632.2L282.4,631.5L281.6,630.3L280.8,630.1L279.6,630.5L278.0,630.0L275.8,630.6L275.4,632.0L274.6,632.3L273.6,632.7L272.9,633.8L272.3,635.2L272.4,635.9L272.7,637.2L273.7,637.5L274.3,637.2L275.1,637.8L276.0,638.0L276.0,637.4L276.7,637.6L277.5,637.1L278.4,637.2L279.2,637.5L279.4,638.5L278.7,638.1L278.0,638.0L277.0,638.1L276.5,638.9L276.0,639.8L276.0,640.7L275.2,640.8L274.7,641.4L274.6,642.2L274.3,642.8L274.6,643.8L274.7,644.4L274.8,645.3L274.8,646.5L275.4,647.1L275.7,647.7L276.3,647.3L276.8,647.0L277.3,647.6L277.5,648.3L277.0,648.7L277.4,649.3L278.0,649.9L277.8,651.0L276.9,652.2L275.5,651.6L274.7,652.1L275.2,653.2L276.3,654.0L276.6,655.1L276.8,656.1L276.8,657.4L277.6,658.7L279.0,658.9L280.8,658.9L283.1,659.2L284.6,656.8L284.6,655.4L285.3,654.5L286.8,653.7L287.7,652.3L288.2,650.8L287.3,650.7L286.2,651.2L285.2,652.5L285.0,651.0ZM325.9,596.2L324.8,596.2L324.1,595.6L323.5,595.3L322.8,595.3L321.9,595.2L321.9,595.9L322.2,596.5L323.0,597.0L323.3,596.4L324.0,596.3L325.2,596.6ZM345.1,639.2L345.0,639.9L345.0,640.9L345.5,640.9L345.9,640.2ZM319.5,600.0L319.8,599.3L320.4,600.0ZM279.2,613.1L280.0,612.5L279.7,612.0L278.8,612.7ZM311.6,598.8L312.4,598.4L312.1,597.9ZM261.1,629.9L261.8,630.4L261.9,629.8ZM345.4,638.1L345.9,637.6L345.2,637.6ZM390.0,589.1L390.6,589.5L391.0,590.2L391.4,589.6L391.5,588.9L390.7,588.6L390.0,588.3ZM394.7,581.2L395.5,581.4L396.1,580.8L395.5,580.5ZM399.7,597.1L399.1,598.0L397.9,598.3L397.2,598.3L396.3,598.3L396.3,599.0L395.8,599.3L395.2,600.0L393.7,600.4L393.8,601.7L393.3,602.9L393.8,603.7L394.6,604.4L395.0,605.3L395.9,605.4L396.5,604.7L397.3,604.3L397.6,603.5L397.5,602.3L397.9,601.7L398.9,601.5L399.6,602.2L400.3,602.9L400.9,603.1L400.6,602.1L400.5,601.3L400.2,600.7L399.6,599.9L399.6,599.0L400.2,598.2L400.2,597.4ZM401.4,597.2L401.8,596.3L401.0,596.6ZM403.9,594.9L404.6,595.4L405.4,595.0L405.0,594.0ZM404.5,590.3L406.1,591.6L406.1,590.9ZM410.7,594.5L412.1,595.1L412.9,595.3L413.7,595.2L414.5,595.3L415.6,594.8L415.5,594.2L414.3,594.5L413.1,594.2L412.0,594.3ZM421.1,596.2L420.5,596.9L420.5,597.6L421.2,597.2L421.9,596.7ZM412.3,585.8L411.3,585.9L412.3,587.0L413.5,587.2L414.8,587.6L415.8,588.4L416.7,589.1L417.7,589.0L418.5,589.1L418.8,590.0L419.0,590.9L419.6,590.6L419.7,589.4L422.2,589.3L423.4,590.0L426.1,590.1L427.4,591.2L428.6,590.3L427.8,589.5L426.7,589.1L425.7,588.7L425.3,587.7L424.2,587.5L424.1,588.1L421.7,588.7L420.4,588.7L419.6,588.1L418.6,587.9L417.3,586.4L416.7,586.6L416.7,587.6L416.1,587.3L415.4,585.3L414.4,585.7L413.8,586.1L413.1,585.3ZM424.1,594.2L424.6,594.9L425.4,594.7L426.1,594.2L426.9,594.0L427.5,594.1L428.2,593.9L429.2,594.0L430.6,594.2L431.6,594.5L431.7,595.4L431.2,596.2L430.5,597.4L431.6,596.6L432.4,596.1L432.9,596.3L433.3,595.9L433.4,595.2L434.4,595.0L435.2,594.9L436.1,594.7L435.0,594.0L434.5,593.1L433.9,592.7L433.5,593.3L432.1,592.9L430.7,592.8L430.2,593.3L428.9,593.3L427.8,593.3L426.8,593.3L425.8,593.3L425.0,593.5ZM438.1,595.3L439.2,595.9L439.4,595.2L438.5,594.6L438.5,595.1ZM459.6,591.6L460.7,592.0L461.4,591.6L460.9,590.9ZM477.4,614.6L476.6,614.2L476.0,613.9L475.2,614.0L475.3,613.1L476.4,613.1L477.1,613.6L477.9,613.6L478.3,613.8L478.8,614.0L479.5,614.3L479.2,615.0L479.7,615.5L480.4,615.8L480.1,616.6L479.3,617.3L478.9,617.8L478.4,618.1L477.9,619.0L477.1,619.3L476.7,620.2L476.0,620.1L475.7,618.9L475.2,617.8L476.0,616.7L475.9,615.4L476.7,616.5L477.3,616.9L477.7,616.5L477.7,616.0L477.4,615.4ZM433.8,620.0L433.5,619.3L433.1,618.5L432.8,617.9L432.1,618.5L433.0,619.8L433.1,620.4L433.6,621.2L434.1,621.9L434.7,621.8L435.9,622.2L436.8,622.3L436.9,621.4L436.0,621.1L435.3,619.5ZM442.7,617.9L443.8,616.9L444.4,617.6L443.3,618.5ZM446.9,617.1L446.7,616.0L447.4,616.0L447.9,616.1L447.4,617.2ZM439.3,614.7L440.4,615.0L439.7,613.9ZM441.1,614.1L441.7,614.5L441.8,613.8ZM459.7,556.1L461.0,554.8L461.0,553.6L463.7,555.7L463.5,556.9L462.6,558.2L461.1,559.4L460.7,560.5L460.0,560.2L459.2,560.4L458.4,560.1L457.9,558.9L457.8,557.7L456.6,557.2L455.6,557.2L455.9,556.3L456.7,555.8L457.0,554.9L457.2,554.2L458.4,553.2L458.7,554.1L458.8,554.8ZM467.2,562.4L466.3,560.0L467.0,559.8L466.9,560.4ZM466.7,566.3L467.8,566.7L469.1,567.0L468.9,567.6L468.8,569.0L468.1,567.8L467.0,568.0L466.6,567.3L466.3,566.5Z" />
		<path id="L1611043554623" name="丹东市" class="qing-map-1616123885421" d="M721.0,390.4L721.6,391.8L724.2,393.4L725.8,394.6L725.2,396.2L723.0,396.2L721.4,396.8L719.2,397.2L717.2,396.6L715.0,395.4L713.4,395.4L712.8,397.4L712.0,400.2L711.0,401.8L709.6,402.2L706.8,402.0L704.8,402.6L703.4,404.6L703.2,407.0L702.4,408.8L699.8,408.2L699.0,409.8L699.8,411.6L699.2,414.0L697.6,414.4L696.0,412.4L694.8,411.2L690.8,412.8L688.2,411.0L685.6,410.6L684.8,412.2L684.8,414.4L683.8,415.4L682.0,416.2L678.0,416.8L675.6,417.8L673.0,419.4L670.8,421.6L667.8,423.2L664.6,424.8L662.2,425.8L659.8,426.6L658.2,428.8L659.2,430.4L660.6,431.6L662.0,433.0L662.4,435.0L661.2,436.6L659.4,436.2L657.6,435.2L655.4,435.2L653.2,436.6L650.6,437.0L649.0,435.8L649.0,434.4L647.4,433.4L644.8,438.6L643.6,440.6L642.6,441.0L639.6,443.8L638.0,445.0L635.8,445.4L633.2,446.2L632.0,448.6L631.4,451.6L630.8,454.4L628.4,455.8L626.4,456.6L623.8,456.4L621.6,457.8L619.2,459.8L614.4,464.2L612.2,465.6L610.6,466.4L609.8,468.0L608.2,471.0L607.8,472.6L604.2,472.6L602.6,476.4L600.2,477.6L597.0,481.6L593.4,485.2L592.6,488.0L592.4,490.2L593.8,490.6L595.2,491.8L595.4,493.2L594.8,495.0L594.4,497.0L593.4,497.8L591.4,499.0L590.2,500.0L588.2,500.2L588.0,501.6L588.2,503.8L586.6,504.6L584.2,504.4L582.8,505.8L581.2,507.0L580.8,509.0L580.6,510.8L580.0,512.8L577.2,515.6L575.4,516.8L575.2,518.6L573.2,517.6L569.2,518.0L568.0,518.0L562.8,520.4L560.2,521.0L555.2,519.8L554.6,518.8L550.4,519.2L549.8,518.0L547.2,518.2L545.4,518.2L544.6,516.6L543.0,516.6L541.6,515.8L541.4,517.0L539.4,517.6L538.4,518.4L533.4,518.4L529.6,519.4L528.2,518.2L525.8,516.6L525.4,514.2L524.4,512.8L522.8,511.2L524.4,515.6L524.2,517.2L523.0,516.8L522.6,521.8L521.4,522.2L521.2,523.0L519.6,523.2L517.2,523.4L516.2,524.4L516.2,525.8L514.8,526.6L514.8,524.2L513.6,523.0L511.6,523.3L511.8,520.9L510.3,519.0L509.6,517.3L510.5,515.9L507.4,512.9L508.6,508.6L507.3,506.6L505.5,506.2L504.0,505.6L502.8,505.3L501.4,504.5L500.1,505.5L499.5,504.2L499.4,502.9L498.4,501.2L498.3,499.8L500.0,498.2L500.7,496.3L500.5,494.5L501.67,492.67L503.0,491.33L504.67,491.0L507.0,491.33L505.67,489.33L507.5,488.33L507.5,486.33L511.17,484.0L512.5,482.5L515.17,482.83L516.0,481.67L516.83,480.67L519.5,477.83L520.5,475.83L519.5,473.83L518.17,474.0L516.33,472.33L516.33,470.83L517.67,468.67L518.67,466.5L519.17,464.67L521.17,464.33L523.67,461.5L525.67,460.83L528.17,458.17L530.83,456.67L530.0,454.33L530.0,452.17L532.33,451.0L535.0,445.33L535.67,443.5L534.17,441.83L536.0,439.5L535.33,436.67L535.33,434.67L536.0,431.33L534.0,430.17L533.67,427.83L533.33,426.17L533.5,424.67L533.17,423.17L533.17,421.5L531.5,419.83L532.0,418.51L533.67,418.17L534.33,416.5L533.5,414.83L533.33,412.67L532.33,411.0L530.83,410.0L529.17,409.67L522.67,405.83L519.67,406.83L517.83,406.17L517.5,404.17L515.33,402.33L516.17,397.0L518.5,396.0L517.67,393.67L516.83,392.17L515.5,391.83L515.17,390.0L514.17,388.5L514.6,386.4L514.6,383.8L517.4,384.2L520.6,384.8L523.8,386.0L525.8,387.8L527.2,388.2L528.4,388.6L529.8,389.8L531.0,388.4L532.2,388.0L533.4,385.6L535.8,385.2L537.4,384.6L539.2,384.8L542.0,383.8L543.2,384.4L545.0,385.0L546.2,386.4L547.8,386.6L549.4,387.2L550.6,387.4L552.4,388.0L555.8,385.2L557.4,383.0L560.2,383.8L563.6,383.2L565.8,384.0L568.0,383.6L568.8,386.0L570.0,385.0L571.8,385.6L573.4,384.0L573.2,382.4L573.4,380.0L572.2,376.8L572.6,375.0L574.0,372.4L571.6,370.2L571.6,368.2L570.6,366.8L570.6,365.0L569.2,362.2L568.6,359.2L572.0,359.4L573.6,359.0L577.2,361.8L579.6,360.6L581.2,360.2L583.0,359.0L584.2,356.6L584.2,354.2L585.6,352.8L588.4,352.8L590.0,353.6L589.6,355.2L589.4,357.0L591.6,356.8L593.6,356.0L594.4,358.0L595.8,358.4L597.4,357.4L598.4,357.8L599.8,356.4L602.4,356.0L604.4,357.2L606.6,358.0L609.4,359.2L610.6,357.6L612.4,356.2L612.8,354.0L614.2,352.8L616.4,351.8L618.2,352.8L619.6,353.6L624.2,353.6L625.2,351.8L626.0,349.4L628.8,349.0L630.0,347.0L632.0,345.0L633.6,347.0L635.6,347.8L637.0,348.6L639.6,347.6L643.2,347.6L646.2,348.8L649.4,350.2L652.2,350.2L655.0,350.6L657.6,352.2L659.8,351.6L661.6,351.0L664.0,351.2L665.4,352.4L667.8,353.2L670.0,353.4L671.8,353.2L672.8,352.0L676.8,352.0L678.0,352.6L679.8,351.0L683.0,352.6L684.8,352.4L687.6,354.8L687.8,357.2L690.2,360.2L692.0,360.8L692.4,361.8L691.6,363.6L692.8,365.6L695.8,365.8L696.0,364.0L698.0,363.8L699.6,364.2L700.2,362.4L702.0,361.6L703.0,362.8L703.0,364.6L703.8,366.0L702.8,368.6L703.2,370.2L705.0,371.0L707.0,371.6L705.8,368.4L707.2,367.0L709.2,367.0L710.4,368.0L710.0,370.0L709.4,371.6L707.2,373.0L708.8,376.6L710.4,377.4L712.2,376.6L712.8,375.0L714.0,374.8L715.4,376.2L714.8,378.0L714.8,379.2L717.0,379.4L718.8,378.0L721.6,378.0L722.6,376.6L723.8,378.0L725.4,379.0L726.8,381.2L727.2,383.4L726.8,385.6L722.6,388.8ZM531.2,528.2L532.4,527.8L533.6,527.5L534.8,527.7L533.6,526.4L532.5,526.8ZM540.7,522.8L541.7,523.1L541.7,522.3L541.0,522.2Z" />
		<path id="L1611044260640" name="辽阳市" class="qing-map-1616123885421" d="M519.67,300.66L517.67,300.83L515.17,302.33L513.5,301.83L512.67,301.17L511.33,302.0L509.0,302.67L506.5,304.67L503.0,303.33L502.33,301.83L501.0,300.0L499.67,300.5L498.33,299.5L496.33,299.17L494.17,298.5L492.5,299.17L491.5,297.33L489.67,297.17L488.5,296.0L487.5,294.83L484.67,294.33L483.17,292.5L480.83,292.0L479.33,293.0L477.17,293.83L475.5,294.67L473.67,293.17L471.67,290.33L472.17,288.17L473.67,285.5L471.17,285.67L470.5,287.17L469.17,287.33L468.83,289.17L468.83,291.17L467.67,292.5L464.83,293.5L464.0,296.0L463.17,297.83L461.83,299.33L460.33,298.0L458.0,298.33L456.67,299.0L456.5,300.67L458.0,300.67L458.33,301.83L457.17,303.33L455.83,303.67L454.67,302.83L454.0,304.33L454.83,306.0L453.33,307.33L452.33,308.5L453.67,309.5L452.5,310.67L450.5,310.83L449.33,309.67L448.17,310.83L446.83,310.17L446.33,311.33L446.17,313.67L445.33,315.17L443.33,316.33L441.5,316.33L440.0,317.33L438.33,317.67L437.17,317.5L436.33,318.67L435.33,320.67L435.5,322.33L433.83,322.67L432.83,323.0L433.0,324.67L431.5,325.33L430.83,326.67L431.33,328.0L431.0,329.0L430.33,330.0L429.0,330.83L428.0,332.5L427.5,334.17L427.67,336.33L426.67,337.5L424.67,337.67L423.83,339.17L422.83,338.83L421.33,339.5L421.33,341.67L420.67,343.0L423.5,343.33L424.67,344.83L426.67,346.67L429.5,348.5L430.67,350.17L435.67,351.5L437.83,352.33L441.5,353.67L443.67,354.33L444.67,352.67L446.33,350.33L446.17,347.0L447.5,346.5L448.33,345.33L448.0,343.83L448.83,343.5L450.17,343.5L450.67,341.5L451.5,340.17L455.5,340.17L457.0,340.5L458.17,339.0L459.5,339.83L460.5,341.17L461.83,340.5L462.5,339.0L464.17,339.0L465.33,338.5L466.33,340.0L466.83,341.5L470.33,342.5L472.0,342.17L473.5,343.5L474.33,344.5L475.5,345.83L475.17,347.33L475.0,349.17L475.17,350.5L475.5,352.0L476.83,353.0L478.33,352.83L479.33,352.0L481.5,353.17L481.33,355.5L483.5,356.83L483.33,358.17L483.83,359.83L481.5,360.5L480.67,361.67L481.5,363.67L480.0,365.83L480.0,367.33L478.33,367.33L475.67,368.17L474.33,367.5L472.5,367.5L469.0,370.5L469.5,372.67L470.33,374.5L469.17,374.83L468.17,375.83L467.0,376.17L467.33,379.67L465.33,382.0L465.17,383.83L465.33,385.67L466.17,387.33L467.5,387.33L469.17,388.0L470.5,388.67L470.5,390.33L469.67,391.83L467.83,393.67L468.0,396.67L469.83,398.83L470.67,400.0L472.17,400.5L474.0,402.33L476.17,401.83L478.17,403.33L479.67,401.67L481.0,401.33L483.5,400.33L485.0,400.33L486.17,400.17L486.5,398.5L488.17,398.67L489.0,397.83L491.0,395.67L492.83,395.67L494.83,395.83L496.17,394.83L498.17,394.83L499.83,393.5L500.17,391.83L501.5,390.83L504.17,391.83L507.17,390.5L509.33,390.33L512.0,389.67L512.83,388.67L514.17,388.5L514.6,386.4L514.6,383.8L517.4,384.2L519.17,383.5L520.5,382.5L521.0,380.33L522.0,378.5L522.5,376.67L524.0,375.33L525.17,372.83L525.0,368.33L524.67,364.5L525.83,362.5L525.83,360.67L528.5,358.33L527.0,355.67L525.17,353.17L524.67,350.17L525.67,347.83L524.17,345.33L523.5,343.5L522.5,341.5L522.17,339.67L519.83,338.5L520.5,336.5L519.83,335.0L521.33,333.17L523.33,333.5L526.33,332.17L526.67,330.5L525.0,327.83L525.33,325.67L525.67,323.67L525.33,321.5L525.33,319.33L525.0,315.33L523.83,312.5L524.5,310.5L525.5,308.17L524.67,304.83L521.67,304.5L521.33,303.33L520.33,302.67L519.67,301.83Z" />
		<path id="L1611044603704" name="本溪市" class="qing-map-1616123885421" d="M534.0,296.5L533.33,297.83L531.5,298.67L529.67,297.17L528.17,297.0L526.67,296.17L525.0,297.0L523.5,296.67L519.67,300.66L519.67,301.83L520.33,302.67L521.33,303.33L521.67,304.5L524.67,304.83L525.5,308.17L524.5,310.5L523.83,312.5L525.0,315.33L525.33,319.33L525.33,321.5L525.67,323.67L525.33,325.67L525.0,327.83L526.67,330.5L526.33,332.17L523.33,333.5L521.33,333.17L519.83,335.0L520.5,336.5L519.83,338.5L522.17,339.67L522.5,341.5L523.5,343.5L524.17,345.33L525.67,347.83L524.67,350.17L525.17,353.17L527.0,355.67L528.5,358.33L525.83,360.67L525.83,362.5L524.67,364.5L525.0,368.33L525.17,372.83L524.0,375.33L522.5,376.67L522.0,378.5L521.0,380.33L520.5,382.5L519.17,383.5L517.4,384.2L520.6,384.8L523.8,386.0L525.8,387.8L527.2,388.2L528.4,388.6L529.8,389.8L531.0,388.4L532.2,388.0L533.4,385.6L535.8,385.2L537.4,384.6L539.2,384.8L542.0,383.8L543.2,384.4L545.0,385.0L546.2,386.4L547.8,386.6L549.4,387.2L550.6,387.4L552.4,388.0L555.8,385.2L557.4,383.0L560.2,383.8L563.6,383.2L565.8,384.0L568.0,383.6L568.8,386.0L570.0,385.0L571.8,385.6L573.4,384.0L573.2,382.4L573.4,380.0L572.2,376.8L572.6,375.0L574.0,372.4L571.6,370.2L571.6,368.2L570.6,366.8L570.6,365.0L569.2,362.2L568.6,359.2L572.0,359.4L573.6,359.0L577.2,361.8L579.6,360.6L581.2,360.2L583.0,359.0L584.2,356.6L584.2,354.2L585.6,352.8L588.4,352.8L590.0,353.6L589.6,355.2L589.4,357.0L591.6,356.8L593.6,356.0L594.4,358.0L595.8,358.4L597.4,357.4L598.4,357.8L599.8,356.4L602.4,356.0L604.4,357.2L606.6,358.0L609.4,359.2L610.6,357.6L612.4,356.2L612.8,354.0L614.2,352.8L616.4,351.8L618.2,352.8L619.6,353.6L624.2,353.6L625.2,351.8L626.0,349.4L628.8,349.0L630.0,347.0L632.0,345.0L633.6,347.0L635.6,347.8L637.0,348.6L639.6,347.6L643.2,347.6L646.2,348.8L649.4,350.2L652.2,350.2L655.0,350.6L657.6,352.2L659.8,351.6L661.6,351.0L664.0,351.2L665.4,352.4L667.8,353.2L670.0,353.4L671.8,353.2L672.8,352.0L676.8,352.0L678.0,352.6L679.8,351.0L683.0,352.6L684.8,352.4L687.6,354.8L687.8,357.2L690.2,360.2L692.0,360.8L692.4,361.8L691.6,363.6L692.8,365.6L695.8,365.8L696.0,364.0L698.0,363.8L699.6,364.2L700.2,362.4L702.0,361.6L703.0,362.8L703.0,364.6L703.8,366.0L702.8,368.6L703.2,370.2L705.0,371.0L707.0,371.6L705.8,368.4L707.2,367.0L709.2,367.0L710.4,368.0L710.0,370.0L709.4,371.6L707.2,373.0L708.8,376.6L710.4,377.4L712.2,376.6L712.8,375.0L714.0,374.8L716.0,375.83L716.33,374.67L717.83,373.83L719.33,373.5L720.84,373.17L721.5,371.33L722.17,369.33L723.83,368.83L724.67,368.67L725.5,367.83L725.0,366.17L725.0,364.5L725.0,363.33L727.17,362.0L729.0,358.67L729.83,357.17L730.83,354.83L730.17,353.33L728.33,353.17L728.17,351.83L729.67,349.83L731.33,349.33L732.83,347.83L733.0,346.67L735.83,344.0L735.17,343.17L733.0,343.5L731.83,342.67L730.67,342.5L730.67,339.5L731.0,338.5L732.67,335.5L732.17,334.17L731.17,333.67L730.0,333.83L729.17,334.0L728.67,333.33L727.67,333.5L726.5,333.67L726.17,331.67L725.83,330.5L724.67,329.67L723.83,330.17L722.5,330.83L721.5,329.67L721.17,328.0L721.33,326.83L719.33,324.33L720.33,322.83L720.83,321.67L720.83,320.5L718.17,317.83L717.17,318.17L715.67,318.33L715.0,317.33L715.17,316.33L715.5,314.83L715.17,313.5L713.83,313.83L712.17,313.0L712.0,312.0L711.67,310.83L710.5,310.33L710.83,308.83L710.5,307.17L711.17,304.5L710.83,302.83L709.5,303.0L708.83,301.5L707.83,300.0L707.0,299.17L706.83,297.33L707.67,296.33L707.17,295.17L705.33,294.0L704.67,292.67L703.67,291.5L702.83,291.67L702.17,292.83L700.67,292.5L699.67,293.5L698.83,294.33L695.83,292.0L695.33,293.17L694.67,294.67L693.67,295.17L692.33,295.83L692.0,297.33L690.67,298.17L689.33,300.5L687.5,300.83L685.5,300.67L684.5,300.83L683.0,301.67L679.17,302.67L678.0,301.33L677.67,299.83L676.17,300.33L674.5,301.67L672.83,301.0L671.0,299.5L669.67,300.5L667.33,301.33L666.0,300.67L664.67,301.5L665.0,303.0L663.17,302.17L661.17,301.67L659.83,300.33L657.83,300.33L656.33,300.0L654.67,299.0L654.17,297.83L652.5,299.33L650.83,299.5L648.83,301.5L647.83,303.17L646.17,303.5L646.67,305.17L646.5,306.5L645.33,307.5L644.0,308.5L643.67,310.5L644.17,312.17L643.67,315.0L644.17,316.83L644.33,318.33L645.17,320.0L644.83,321.5L644.17,322.83L642.67,323.17L641.83,325.5L639.83,326.17L638.33,326.83L636.83,329.0L635.33,330.0L633.0,329.5L631.5,330.33L630.0,331.0L626.83,331.5L624.17,333.83L623.17,332.83L622.67,330.67L620.83,331.17L618.67,330.5L617.0,328.83L615.5,327.83L613.33,325.0L610.5,324.0L608.5,321.83L606.5,322.17L605.5,323.83L605.5,325.33L601.83,325.83L601.33,323.17L600.17,321.5L598.17,320.33L598.5,318.33L596.83,316.33L594.5,314.83L593.83,311.5L593.67,309.33L595.17,307.33L597.5,306.0L596.67,304.0L593.33,304.17L592.17,302.83L591.33,301.5L589.83,300.33L590.33,298.83L590.0,297.0L589.0,295.33L587.0,294.0L585.5,294.5L582.33,293.67L580.5,295.0L578.67,295.33L576.5,297.0L574.67,296.67L572.0,299.33L570.17,298.0L569.33,296.0L566.83,295.67L565.33,295.33L563.83,295.67L562.67,294.5L561.5,293.67L558.67,291.83L557.0,291.83L555.67,292.17L554.5,293.83L553.17,293.17L551.83,291.33L549.33,292.0L547.5,291.5L546.5,293.0L545.67,294.17L546.5,295.5L545.83,297.17L540.5,299.33L538.5,297.83L539.0,295.83L537.67,294.5L536.83,295.67L535.5,296.33Z" />
		<path id="L1611045193047" name="抚顺市" class="qing-map-1616123885421" d="M538.17,235.33L537.33,237.5L535.0,237.5L533.33,238.0L532.17,238.83L532.5,239.67L532.17,241.0L533.33,243.67L532.5,245.5L532.83,247.0L531.33,248.33L534.17,250.83L531.17,254.5L527.0,255.0L527.0,256.17L528.17,258.33L526.5,259.83L526.5,261.5L529.0,263.0L531.83,263.33L534.17,262.17L535.67,262.5L535.5,260.67L537.33,260.83L538.67,261.67L537.33,263.0L537.83,264.0L539.0,264.5L538.83,268.67L539.67,270.0L540.33,271.5L540.67,272.83L539.17,274.83L538.67,275.83L539.17,277.33L537.33,279.0L536.33,279.5L535.0,281.33L534.67,282.5L535.67,284.17L537.17,285.83L538.17,286.17L537.5,287.33L534.33,289.5L532.33,290.5L532.0,292.0L532.83,293.0L532.83,294.0L533.83,295.0L534.0,296.5L535.5,296.33L536.83,295.67L537.67,294.5L539.0,295.83L538.5,297.83L540.5,299.33L545.83,297.17L546.5,295.5L545.67,294.17L546.5,293.0L547.5,291.5L549.33,292.0L551.83,291.33L553.17,293.17L554.5,293.83L555.67,292.17L557.0,291.83L558.67,291.83L561.5,293.67L562.67,294.5L563.83,295.67L565.33,295.33L566.83,295.67L569.33,296.0L570.17,298.0L572.0,299.33L574.67,296.67L576.5,297.0L578.67,295.33L580.5,295.0L582.33,293.67L585.5,294.5L587.0,294.0L589.0,295.33L590.0,297.0L590.33,298.83L589.83,300.33L591.33,301.5L592.17,302.83L593.33,304.17L596.67,304.0L597.5,306.0L595.17,307.33L593.67,309.33L593.83,311.5L594.5,314.83L596.83,316.33L598.5,318.33L598.17,320.33L600.17,321.5L601.33,323.17L601.83,325.83L605.5,325.33L605.5,323.83L606.5,322.17L608.5,321.83L610.5,324.0L613.33,325.0L615.5,327.83L617.0,328.83L618.67,330.5L620.83,331.17L622.67,330.67L623.17,332.83L624.17,333.83L626.83,331.5L630.0,331.0L631.5,330.33L633.0,329.5L635.33,330.0L636.83,329.0L638.33,326.83L639.83,326.17L641.83,325.5L642.67,323.17L644.17,322.83L644.83,321.5L645.17,320.0L644.33,318.33L644.17,316.83L643.67,315.0L644.17,312.17L643.67,310.5L644.0,308.5L645.33,307.5L646.5,306.5L646.67,305.17L646.17,303.5L647.83,303.17L648.83,301.5L650.83,299.5L652.5,299.33L654.17,297.83L654.67,299.0L656.33,300.0L657.83,300.33L659.83,300.33L661.17,301.67L663.17,302.17L665.0,303.0L664.67,301.5L666.0,300.67L667.33,301.33L669.67,300.5L671.0,299.5L672.83,301.0L674.5,301.67L676.17,300.33L677.67,299.83L678.0,301.33L679.17,302.67L683.0,301.67L684.5,300.83L685.5,300.67L687.5,300.83L689.33,300.5L690.67,298.17L692.0,297.33L692.33,295.83L693.67,295.17L694.67,294.67L695.33,293.17L695.83,292.0L698.83,294.33L699.67,293.5L700.67,292.5L702.17,292.83L702.83,291.67L703.83,289.5L702.83,288.0L702.33,285.67L702.67,284.17L703.83,283.0L704.33,282.0L703.33,281.0L702.5,279.5L702.83,278.33L702.17,277.17L700.33,276.83L698.5,275.17L696.5,275.0L695.33,275.17L693.83,276.5L692.0,276.5L690.33,277.17L689.17,276.17L689.67,274.5L690.0,273.0L690.5,271.33L690.17,268.83L689.83,267.0L690.17,265.0L689.33,263.67L689.17,261.83L688.17,260.0L687.5,258.5L686.67,257.0L686.83,254.67L686.33,253.5L687.17,252.33L687.33,250.83L687.0,249.33L687.5,247.5L688.0,246.0L688.0,244.33L688.67,243.33L691.83,243.0L692.33,242.17L690.67,241.33L688.83,240.83L688.0,239.5L686.83,239.5L687.0,238.0L687.83,236.83L688.67,236.67L690.17,236.33L691.0,235.5L691.83,233.83L692.83,234.17L694.17,233.17L693.83,231.0L696.17,228.67L697.67,226.33L698.67,225.0L699.5,223.17L699.33,221.5L698.5,220.5L701.67,220.67L702.67,220.0L702.83,218.5L703.83,218.67L706.0,216.17L703.17,212.67L701.67,213.17L700.0,213.33L698.33,212.67L696.5,211.67L695.33,210.33L693.83,209.83L692.83,209.83L692.67,211.5L692.67,212.83L693.17,213.83L692.5,214.67L691.0,214.17L690.17,215.0L688.17,214.33L688.17,212.67L688.83,211.33L689.0,210.17L689.33,208.5L689.5,206.83L688.67,206.67L688.33,207.83L687.0,209.17L686.83,208.17L687.33,207.17L687.83,206.17L688.33,204.5L686.5,203.5L685.5,203.17L686.0,201.17L686.17,200.0L685.67,198.67L685.33,197.67L687.17,196.0L686.67,195.0L685.33,194.5L683.5,192.33L682.67,192.5L681.33,192.17L679.5,193.83L677.33,193.17L675.5,192.83L674.83,191.5L675.67,190.17L675.67,188.5L674.83,187.0L676.67,185.83L677.67,184.67L677.83,183.33L676.17,182.5L676.0,181.17L677.17,179.67L676.5,178.17L675.66,175.83L671.67,174.51L672.67,172.83L671.33,171.5L670.0,170.83L668.17,170.0L665.5,171.5L665.33,173.33L661.67,174.83L662.0,177.83L661.33,179.33L659.67,179.67L658.0,180.0L657.83,183.0L656.0,183.5L655.33,184.33L653.83,183.67L653.83,181.83L651.83,180.0L650.33,180.67L647.33,180.67L646.17,179.5L641.83,178.5L640.5,178.0L638.33,178.17L635.67,181.17L636.83,183.0L637.0,185.17L637.33,187.67L635.67,188.67L634.5,188.0L631.5,189.0L631.0,190.33L629.33,190.33L627.67,191.5L625.5,191.17L623.5,191.17L621.17,190.33L620.83,189.0L621.67,187.67L619.67,187.5L617.17,186.67L615.67,186.67L615.83,188.33L615.33,189.5L616.17,190.33L615.67,192.33L614.33,194.67L614.17,196.5L613.33,198.17L612.0,199.83L610.33,201.33L610.33,203.33L610.33,205.5L611.0,206.83L611.83,208.0L611.83,209.33L613.5,209.83L614.17,211.17L614.83,212.33L613.83,212.83L614.0,214.33L613.0,215.83L613.67,218.33L612.17,220.5L610.67,222.5L604.5,223.67L603.17,224.33L601.0,226.5L597.67,228.67L595.83,228.83L595.67,230.67L593.5,232.33L591.83,231.5L590.67,231.33L589.17,232.67L587.33,233.17L586.67,229.83L586.67,227.83L585.5,226.33L584.33,224.67L581.5,226.17L579.83,226.17L578.0,225.5L576.5,225.17L575.17,226.33L574.17,225.0L572.5,224.67L571.0,224.67L569.67,223.83L567.67,224.83L565.83,224.67L564.83,225.67L564.17,226.67L563.33,228.0L563.5,229.33L562.5,230.83L560.67,231.33L559.0,233.0L555.67,232.67L553.83,231.83L552.0,231.33L549.83,229.5L548.0,229.17L546.5,230.67L544.83,230.83L543.5,231.0L541.33,231.5L541.67,233.33L540.33,234.17Z" />
		<path id="L1611045780760" name="铁岭市" class="qing-map-1616123885421" d="M515.83,98.83L516.33,101.34L514.5,101.17L514.67,103.33L516.5,104.0L515.83,105.83L517.83,106.0L518.83,107.17L520.0,107.83L518.5,108.83L519.67,112.17L519.33,113.5L518.5,115.33L520.33,115.5L518.5,118.33L518.83,119.33L519.67,120.17L519.5,121.5L519.17,122.67L519.83,124.5L519.33,125.83L519.83,128.33L518.83,129.67L518.17,130.83L517.33,133.17L516.0,133.67L516.0,135.0L517.33,135.67L516.67,137.17L517.5,138.17L516.67,139.83L517.5,140.83L519.0,141.5L517.83,143.33L518.83,144.33L521.33,142.83L522.17,143.5L521.5,144.83L522.33,146.83L523.83,148.33L525.0,148.83L524.83,150.5L525.33,151.67L526.33,152.83L528.17,153.17L529.17,155.0L530.33,156.17L531.33,157.0L532.17,158.17L533.33,159.0L534.5,159.0L535.67,159.83L533.5,161.0L532.5,161.83L531.0,161.83L528.17,164.83L526.17,164.17L526.0,161.5L524.5,159.83L522.83,159.83L521.67,161.67L521.5,164.5L520.67,165.33L519.33,166.0L518.17,166.33L516.5,166.5L514.5,169.5L512.0,168.83L510.5,171.0L508.67,171.67L507.17,172.17L505.33,174.67L506.0,176.17L507.0,177.83L507.33,179.17L507.33,180.67L506.83,181.83L506.83,182.67L508.0,184.17L508.83,185.17L510.67,185.33L512.33,188.17L512.67,189.83L511.5,191.67L511.5,193.67L510.33,195.17L509.5,196.5L508.33,198.0L508.0,200.0L508.17,202.17L506.83,203.33L505.33,205.17L505.67,207.83L508.33,209.33L511.0,208.0L512.33,208.67L513.67,209.17L514.0,213.83L515.33,214.33L517.0,216.0L520.17,217.33L522.0,218.33L522.67,219.83L524.5,221.0L527.33,220.83L529.0,221.33L533.5,224.0L534.67,225.83L535.17,227.33L536.83,227.83L537.67,228.5L538.17,227.17L538.5,226.0L539.5,225.83L540.33,226.67L540.67,227.67L540.33,228.83L540.33,230.33L539.0,232.0L537.67,230.5L536.33,231.17L535.67,233.33L536.83,233.83L538.17,235.33L540.33,234.17L541.67,233.33L541.33,231.5L543.5,231.0L544.83,230.83L546.5,230.67L548.0,229.17L549.83,229.5L552.0,231.33L553.83,231.83L555.67,232.67L559.0,233.0L560.67,231.33L562.5,230.83L563.5,229.33L563.75,228.0L564.17,226.67L564.83,225.67L565.83,224.67L567.67,224.83L569.67,223.83L571.0,224.67L572.5,224.67L574.17,225.0L575.17,226.33L576.5,225.17L578.0,225.5L579.83,226.17L581.5,226.17L584.33,224.67L585.5,226.33L586.67,227.83L586.67,229.83L587.33,233.17L589.17,232.67L590.67,231.33L591.83,231.5L593.5,232.33L595.67,230.67L595.83,228.83L597.67,228.67L601.0,226.5L603.17,224.33L604.5,223.67L610.67,222.5L612.17,220.5L613.67,218.33L613.0,215.83L614.0,214.33L613.83,212.83L614.83,212.33L614.17,211.17L613.5,209.83L611.83,209.33L611.83,208.0L611.0,206.83L610.33,205.5L610.33,203.33L610.33,201.33L612.0,199.83L613.33,198.17L614.17,196.5L614.33,194.67L615.67,192.33L616.17,190.33L615.33,189.5L615.83,188.33L615.67,186.67L617.17,186.67L619.67,187.5L621.67,187.67L620.83,189.0L621.17,190.33L623.5,191.17L625.5,191.17L627.67,191.5L629.33,190.33L631.0,190.33L631.5,189.0L634.5,188.0L635.67,188.67L637.33,187.67L637.0,185.17L636.83,183.0L635.67,181.17L638.33,178.17L640.5,178.0L641.83,178.5L646.17,179.5L647.33,180.67L650.33,180.67L651.83,180.0L653.83,181.83L653.83,183.67L655.33,184.33L656.0,183.5L657.83,183.0L658.0,180.0L659.67,179.67L661.33,179.33L662.0,177.83L661.67,174.83L665.33,173.33L665.5,171.5L668.17,170.0L668.5,168.63L667.5,167.75L666.25,167.0L664.63,167.13L665.13,166.25L665.88,165.38L666.88,165.0L664.63,162.75L664.63,162.0L665.38,161.63L665.38,159.38L666.75,157.38L666.38,155.88L665.88,155.0L667.0,153.75L667.38,152.5L667.38,151.38L666.13,150.13L665.25,149.88L664.0,150.75L663.25,150.25L661.5,151.5L660.5,150.5L659.0,149.5L659.63,146.5L659.0,145.38L659.25,144.5L657.13,143.13L655.38,143.75L654.63,142.75L656.63,141.5L656.63,140.38L654.88,138.38L655.38,137.63L655.0,137.0L655.88,136.25L656.75,136.25L657.38,134.5L656.63,133.25L655.88,132.13L656.75,131.75L657.0,129.75L655.25,128.63L655.63,126.25L653.63,125.63L652.38,125.38L651.63,125.0L651.38,124.0L649.25,124.25L649.25,126.0L648.0,128.0L646.88,128.25L645.5,127.63L644.75,126.38L643.88,124.0L643.88,122.38L643.88,120.75L643.5,119.75L643.63,117.75L642.75,116.75L642.88,115.88L643.5,114.75L643.13,113.5L643.88,112.25L643.88,111.0L644.25,110.13L645.0,108.5L644.38,107.5L644.75,106.38L644.63,104.63L645.38,103.63L644.63,102.63L645.0,101.75L643.5,99.75L644.0,99.13L643.0,96.88L642.0,95.88L642.38,94.88L643.5,94.88L643.88,93.75L644.0,92.5L644.88,91.88L645.0,91.0L645.88,90.38L646.75,89.25L646.13,88.25L645.63,86.38L645.63,85.13L646.0,83.63L646.38,82.13L645.13,82.5L644.13,83.13L643.38,83.38L641.63,82.63L640.63,82.63L640.0,83.5L639.0,83.75L638.25,83.13L637.0,83.88L636.5,85.75L634.38,87.63L632.63,90.5L630.0,90.5L627.75,92.0L626.0,95.38L626.25,98.0L626.13,99.75L624.63,101.75L624.38,103.75L623.0,103.13L621.88,103.5L621.88,105.0L622.38,106.0L620.5,107.75L619.0,108.25L618.63,109.13L618.88,110.38L615.25,113.63L614.75,114.75L613.88,114.63L612.75,115.13L612.75,116.25L612.5,117.75L611.13,116.88L610.13,116.88L608.0,118.38L606.63,119.13L605.13,120.38L605.75,122.25L605.5,123.63L604.0,123.38L603.63,120.88L603.88,119.5L602.88,118.25L602.5,117.75L602.5,116.5L602.0,116.13L600.75,116.63L600.13,116.0L598.25,116.0L596.88,115.88L595.5,115.38L595.25,113.0L596.5,111.38L597.75,111.75L598.38,111.25L598.63,110.5L600.75,109.38L601.75,109.0L601.75,108.25L602.75,107.75L602.75,105.63L601.63,104.38L600.38,102.88L598.5,103.75L596.63,103.63L594.63,103.0L592.13,100.13L595.0,97.25L596.63,94.88L599.5,91.25L600.88,89.25L598.38,87.25L595.75,83.88L594.88,83.25L593.25,82.88L592.0,80.75L590.88,79.63L589.88,78.88L588.63,79.38L587.75,78.75L588.38,78.13L587.63,77.5L587.13,76.88L586.38,75.75L587.0,74.25L586.63,73.13L587.38,71.63L586.88,70.88L586.63,68.88L586.0,68.25L585.0,67.88L584.25,68.13L583.5,67.75L582.75,68.13L581.5,67.63L581.5,67.0L580.88,66.5L580.63,65.38L579.63,65.38L579.0,66.0L578.0,66.5L577.38,66.63L576.38,66.63L575.88,66.13L575.0,65.75L574.25,66.0L573.63,65.63L572.88,65.5L572.25,66.0L571.13,65.75L570.38,66.75L570.38,65.38L570.63,64.25L570.25,63.5L570.25,62.88L570.38,61.88L568.75,61.63L568.88,60.25L565.5,60.25L563.88,60.25L562.63,61.38L559.88,59.38L558.63,57.88L556.88,55.5L555.25,53.75L553.5,52.13L551.75,50.88L550.88,50.88L548.88,50.63L549.13,49.13L549.13,48.0L548.25,46.5L546.5,46.25L545.38,45.25L544.63,44.38L544.63,41.75L544.88,40.38L546.38,38.5L545.13,37.0L544.25,36.13L542.63,35.5L541.75,35.63L539.88,34.25L538.5,32.88L538.25,33.88L537.38,34.63L536.5,34.25L534.63,35.63L535.13,36.63L535.0,37.5L534.38,38.38L534.38,39.75L534.13,40.63L532.5,41.88L531.25,43.0L530.63,44.0L530.25,44.88L529.75,45.88L530.5,46.63L529.88,47.38L529.75,48.38L530.25,48.88L530.13,50.0L530.75,51.5L531.0,52.75L529.88,53.25L531.25,54.5L530.13,55.25L531.13,56.13L531.5,56.75L530.88,57.38L529.5,57.75L530.13,58.63L530.0,59.38L529.13,59.75L528.0,60.25L529.5,60.75L530.0,61.63L529.63,62.25L528.38,62.5L527.38,62.88L526.63,62.38L526.63,63.63L526.88,64.75L527.75,65.5L527.75,66.0L527.0,66.88L527.38,67.63L527.63,68.38L527.25,69.13L526.0,69.63L525.0,70.38L524.75,71.88L525.88,72.0L526.25,73.38L527.25,74.38L526.63,74.75L526.13,75.5L525.5,75.88L524.13,75.63L524.88,76.5L525.5,77.0L524.88,78.38L524.75,79.25L523.88,79.88L523.63,80.88L523.5,82.0L523.0,83.13L523.0,84.13L522.88,85.0L523.13,85.75L522.88,86.25L522.63,87.25L522.38,88.0L522.0,88.88L521.13,89.38L520.75,90.5L520.13,90.5L519.5,91.63L520.75,92.13L521.38,93.0L520.38,94.0L519.25,94.88L518.38,94.88L518.38,95.38L517.88,96.0L517.63,96.88L517.88,97.38L517.63,98.13L517.25,99.13Z" />
	</g>
</svg>
