<svg xmlns="http://www.w3.org/2000/svg" viewBox="0,0,381,600" width="100%" height="100%">
	<defs>
		<style type="text/css">
.qing-map-1616136125630
{
	fill: #DDDDDD;
	fill-opacity: 1.0;
	stroke: #FFFFFF;
	stroke-opacity: 1.0;
	stroke-width: 1;
}

.qing-map-1616136125630:hover
{
	fill: #56A4FF;
	fill-opacity: 1.0;
}
</style>
	</defs>
	<g>
		<path id="L1610958874878" name="石嘴山市" class="qing-map-1616136125630" d="M279.2,114.4L280.4,113.2L280.8,110.4L281.2,107.2L281.8,105.2L281.8,102.2L281.4,99.4L279.2,98.0L278.2,96.8L275.8,95.8L273.2,94.4L271.2,94.6L270.2,92.4L268.4,90.0L269.8,87.4L268.6,84.6L267.8,82.6L267.0,81.2L264.8,80.0L264.8,76.2L263.8,74.6L264.4,73.0L265.4,70.6L264.8,67.8L265.6,64.8L263.6,62.6L264.8,61.4L264.0,60.2L263.0,58.6L260.2,57.8L259.0,56.4L257.4,57.4L255.0,58.4L253.2,60.2L251.0,60.2L248.8,60.2L247.6,59.4L244.8,58.0L243.0,61.4L240.8,63.8L239.2,65.6L237.8,67.6L236.4,69.8L235.4,72.0L235.2,71.2L233.4,70.6L230.6,70.0L228.0,69.4L225.8,69.4L223.2,69.2L220.0,69.6L217.6,70.2L215.6,70.6L213.0,70.6L212.4,72.0L212.6,74.2L212.8,76.0L213.8,78.0L212.8,79.4L213.2,81.4L214.4,82.8L214.4,84.2L215.0,86.0L213.6,87.6L211.6,88.4L209.0,89.0L207.2,88.4L206.2,89.2L204.8,88.4L202.6,87.6L200.8,86.0L199.0,86.4L198.6,88.2L197.2,90.2L195.8,91.4L196.0,94.0L194.2,94.8L194.0,97.2L193.4,98.8L193.2,101.8L192.6,103.0L194.0,104.0L193.6,105.2L192.8,106.6L191.4,108.4L191.0,110.2L189.6,111.6L187.4,111.6L185.0,114.4L184.6,116.0L182.6,118.2L181.6,120.0L183.4,121.8L184.8,122.4L187.4,122.4L190.4,123.0L192.0,124.8L195.2,126.8L197.4,126.8L197.4,128.4L199.2,130.0L202.4,129.6L205.4,131.2L208.0,129.6L208.8,132.0L211.0,132.0L213.2,134.4L216.2,133.2L217.0,135.6L218.4,134.8L219.6,135.4L223.2,135.4L222.2,137.4L224.6,138.2L224.2,141.6L226.4,142.4L228.4,142.2L228.2,145.6L229.8,145.0L230.8,143.4L232.8,143.6L234.6,145.0L237.6,144.8L239.0,146.6L240.2,146.6L242.0,146.8L243.8,146.8L243.6,150.6L246.4,151.0L248.6,152.0L249.2,155.2L251.4,157.2L251.8,154.2L252.8,151.8L253.4,149.2L254.6,145.6L255.2,142.8L257.8,140.6L260.2,138.6L262.4,135.0L263.8,132.2L265.8,130.2L267.2,127.0L268.8,125.6L270.4,123.8L272.2,121.8L274.0,120.2L275.8,118.0L277.4,116.6Z" />
		<path id="L1610958920461" name="银川市" class="qing-map-1616136125630" d="M251.4,157.2L249.2,155.2L248.6,152.0L246.4,151.0L243.6,150.6L243.8,146.8L242.0,146.8L240.2,146.6L239.0,146.6L237.6,144.8L234.6,145.0L232.8,143.6L230.8,143.4L229.8,145.0L228.2,145.6L228.4,142.2L226.4,142.4L224.2,141.6L224.6,138.2L222.2,137.4L223.2,135.4L219.6,135.4L218.4,134.8L217.0,135.6L216.2,133.2L213.2,134.4L211.0,132.0L208.8,132.0L208.0,129.6L205.4,131.2L202.4,129.6L199.2,130.0L197.4,128.4L197.4,126.8L195.2,126.8L192.0,124.8L190.4,123.0L187.4,122.4L184.8,122.4L184.2,124.0L183.6,125.4L180.8,127.2L179.0,129.4L178.8,131.8L177.2,132.4L174.6,133.4L175.6,135.6L174.6,136.8L175.0,138.6L175.2,139.8L175.8,140.6L174.0,142.0L173.6,143.0L173.8,145.2L173.6,146.8L172.2,148.2L172.0,150.6L170.8,151.0L169.8,152.8L170.0,155.2L171.0,156.8L172.2,158.6L171.0,160.6L170.2,162.8L171.4,164.4L170.8,167.6L169.4,168.4L169.8,170.8L168.8,172.8L168.4,175.2L169.6,177.2L168.2,178.2L168.0,181.0L167.6,182.4L168.4,184.6L167.0,187.4L167.6,189.0L169.0,191.4L170.8,194.4L171.2,197.4L171.4,199.4L170.4,201.0L174.4,201.0L175.8,203.0L179.0,204.0L181.0,205.0L182.0,206.2L180.8,208.6L178.8,213.6L181.0,215.6L182.6,211.6L184.4,209.2L186.0,211.0L188.2,212.6L190.4,209.4L192.6,208.0L193.0,209.8L195.4,211.0L197.0,211.8L197.6,212.6L197.4,215.4L199.8,214.0L202.0,215.4L206.2,217.8L207.0,220.8L205.4,224.8L207.8,227.0L209.2,230.2L211.0,231.4L211.4,235.4L212.6,235.0L215.8,238.6L214.6,240.4L215.2,242.0L218.2,241.4L218.2,243.8L220.6,244.2L221.0,248.6L218.8,250.4L213.8,250.2L212.2,252.0L213.0,254.4L215.2,257.8L219.2,258.8L221.8,261.6L222.8,262.8L224.0,265.2L226.4,267.4L227.6,267.0L228.8,269.0L229.0,271.0L232.0,272.4L233.8,275.6L236.8,277.4L237.2,280.6L239.0,284.6L241.8,286.0L243.4,282.0L246.0,280.6L249.2,280.0L249.6,277.8L251.6,278.4L254.2,279.2L257.0,279.8L261.6,279.8L261.8,275.4L261.2,270.2L261.2,269.0L261.2,267.2L263.4,266.8L268.0,264.4L270.6,260.6L272.6,256.4L272.8,253.6L273.0,251.4L269.8,250.6L268.6,252.2L267.0,250.6L267.0,247.0L267.0,244.0L266.2,242.6L267.8,241.2L264.6,240.6L263.0,242.2L261.8,240.0L261.0,236.8L260.4,233.6L261.8,231.8L263.4,229.0L266.6,229.6L268.2,230.0L270.6,228.6L270.0,226.2L268.8,224.2L267.2,221.6L265.8,219.0L265.8,217.6L266.6,215.2L267.8,213.2L266.0,212.8L262.4,211.8L260.6,211.0L257.4,208.8L255.6,206.6L253.6,206.4L250.4,204.8L246.4,203.4L243.2,202.0L240.2,199.8L238.6,198.2L237.6,196.4L234.4,195.8L232.6,193.6L235.0,191.8L238.4,189.6L241.6,187.0L244.6,184.2L246.6,180.6L247.8,178.6L249.0,175.4L249.4,174.4L249.8,171.2L250.4,168.4L250.2,164.8L250.8,161.6Z" />
		<path id="L1610958929405" name="中卫市" class="qing-map-1616136125630" d="M229.4,407.6L228.0,406.6L224.6,408.0L223.6,407.2L222.2,409.8L220.0,410.4L216.4,411.8L214.0,409.0L212.4,409.8L212.2,408.0L210.2,408.0L209.4,410.0L208.2,409.0L205.8,410.2L205.4,412.4L204.0,411.8L201.6,413.4L199.4,412.6L198.8,409.2L200.2,407.8L198.2,406.8L198.2,405.2L196.8,404.8L196.8,402.8L195.4,400.8L195.4,398.4L192.8,396.2L191.4,393.0L192.4,390.0L187.6,386.6L187.2,382.6L184.6,380.6L182.4,380.8L182.0,379.4L184.0,377.6L182.2,375.6L181.4,372.4L180.2,370.6L176.8,369.4L176.0,370.4L173.0,370.4L175.4,374.0L174.0,376.4L172.0,379.8L167.0,383.0L165.4,382.0L164.0,383.0L160.8,383.0L160.8,382.0L158.6,382.8L158.0,379.0L159.8,377.6L159.4,374.8L160.6,373.4L160.8,371.2L163.0,370.2L163.8,368.6L165.8,367.8L167.8,365.6L167.8,364.0L169.0,362.0L167.0,358.2L164.4,353.8L162.4,350.0L159.6,349.8L156.4,346.2L153.4,345.0L151.6,341.6L151.8,339.0L151.4,336.4L147.8,336.4L146.4,335.0L143.0,336.0L142.0,333.4L143.0,332.0L145.4,332.4L147.0,331.0L149.0,328.2L151.6,326.4L154.0,329.0L154.4,331.8L153.2,333.2L156.0,336.0L156.0,337.0L161.2,336.4L163.2,334.6L162.0,334.4L161.6,331.4L160.2,329.6L159.4,326.6L158.0,324.4L162.8,322.6L164.2,320.2L168.0,320.8L172.6,321.6L176.8,322.2L179.0,320.4L179.0,318.2L178.2,317.4L176.6,316.6L174.4,315.8L172.4,314.6L170.6,313.6L168.6,312.2L169.8,310.2L173.2,310.8L172.4,308.2L174.0,306.6L176.0,305.8L178.4,306.6L178.6,304.0L183.0,303.6L182.0,302.2L182.8,300.2L185.8,300.2L186.8,297.2L188.0,295.2L189.8,294.6L192.0,293.8L190.6,291.8L188.4,291.2L187.2,289.8L186.2,287.8L185.2,285.6L185.2,283.2L186.8,283.4L186.8,279.6L184.8,277.8L182.2,277.0L180.0,277.6L177.6,277.6L176.2,280.4L174.8,283.0L173.0,282.6L174.0,281.2L173.2,279.2L172.6,277.0L174.0,275.2L173.6,272.6L173.2,270.4L175.0,268.8L175.0,267.2L172.2,267.4L170.0,266.6L169.0,268.4L167.2,267.4L165.4,267.2L162.6,267.4L160.6,268.8L158.6,268.4L155.4,268.4L152.2,268.6L149.8,271.0L147.6,271.2L145.0,271.0L142.2,272.6L139.4,272.6L134.6,272.2L130.0,272.6L126.8,271.6L121.4,270.6L116.2,272.2L111.6,274.0L109.2,275.8L105.8,275.8L101.0,277.6L98.0,280.2L94.8,282.6L87.6,287.8L84.4,288.2L80.0,288.4L77.4,288.4L75.2,289.4L72.2,289.4L69.2,290.4L65.4,292.8L58.0,293.6L52.0,294.2L46.0,295.2L38.6,295.6L32.2,295.6L26.8,296.2L25.8,302.2L22.2,302.6L19.2,304.8L17.6,304.2L15.6,305.0L14.0,306.6L14.8,308.6L16.8,308.0L19.0,307.6L21.4,308.2L23.8,306.6L25.0,305.6L28.4,304.4L30.0,307.2L35.0,308.0L36.4,305.8L37.8,306.0L39.0,307.6L42.0,307.0L45.0,307.8L47.4,308.6L48.6,307.8L50.8,308.6L52.8,309.0L51.0,313.0L51.6,315.4L54.2,317.2L56.6,317.0L56.2,318.8L52.6,320.8L52.2,322.8L50.2,324.2L47.4,323.4L45.8,326.0L45.2,327.8L45.0,330.0L46.0,332.0L47.8,334.6L52.2,335.2L56.8,334.6L58.4,333.0L62.2,329.6L63.4,330.8L65.8,331.2L68.4,332.8L70.8,334.0L70.8,336.4L71.0,338.4L73.4,340.2L74.8,344.0L76.8,347.0L76.4,348.6L78.6,349.4L80.4,351.6L80.4,354.8L81.4,356.6L85.0,355.6L86.2,356.8L86.0,358.4L88.2,359.8L90.4,357.6L91.8,358.2L94.4,360.4L97.4,361.2L101.0,361.2L101.8,364.2L102.2,366.0L103.2,367.6L102.6,370.0L103.4,373.0L105.6,373.4L107.6,375.4L108.4,373.6L112.6,377.0L112.4,379.2L114.6,380.0L114.6,382.6L116.8,384.2L118.0,385.4L119.4,390.0L117.8,391.8L115.8,393.2L113.8,391.8L112.2,391.8L112.2,393.4L109.6,393.0L108.4,394.4L106.2,394.6L105.6,397.2L105.4,400.4L107.6,402.4L106.8,406.4L109.2,407.4L109.6,410.0L110.8,410.4L112.0,413.0L111.8,415.2L110.4,417.2L110.6,419.0L113.2,420.4L115.0,420.0L116.8,418.2L119.2,422.0L121.0,423.4L121.4,425.8L121.8,428.4L121.0,429.8L123.2,430.2L124.6,431.8L124.8,434.2L125.4,437.2L126.8,439.2L125.4,440.4L127.8,444.6L129.8,444.8L130.8,447.4L132.4,448.6L132.2,450.0L131.2,451.8L131.6,453.4L130.6,454.4L131.0,457.8L132.4,458.4L133.6,461.6L138.2,458.2L140.6,458.4L141.8,456.4L143.8,455.8L145.6,456.6L145.6,458.6L149.0,462.0L149.0,463.6L151.4,464.4L153.8,466.6L155.6,464.6L156.8,463.4L159.2,463.6L159.6,462.6L162.0,463.2L162.4,465.6L160.6,468.2L165.0,467.2L166.4,469.8L167.2,470.0L168.6,468.2L170.6,466.2L170.4,465.0L172.8,463.2L172.8,460.4L173.0,458.2L178.2,457.4L181.0,459.0L183.4,459.6L184.0,461.0L185.4,461.0L185.0,458.8L183.6,455.4L182.8,450.8L181.0,449.6L182.8,446.0L184.2,447.0L187.0,444.2L190.2,443.6L191.8,445.0L193.0,443.8L194.6,446.2L197.4,444.8L199.6,444.6L204.8,443.0L205.0,441.2L209.6,437.6L211.6,437.4L212.6,435.2L212.2,433.6L213.6,434.6L216.0,433.6L216.8,430.2L215.6,425.8L218.2,425.2L218.0,423.4L222.2,421.0L224.6,422.2L226.6,419.4L224.8,417.2L221.8,417.0L220.8,414.0L221.8,413.4L223.6,415.6L224.4,413.4L227.4,415.8L230.6,415.8L229.6,413.8L232.0,412.8L228.8,410.4Z" />
		<path id="L1610958938382" name="吴忠市" class="qing-map-1616136125630" d="M267.8,213.2L266.6,215.2L265.8,217.6L265.8,219.0L267.2,221.6L268.8,224.2L270.0,226.2L270.6,228.6L268.2,230.0L266.6,229.6L263.4,229.0L261.8,231.8L260.4,233.6L261.0,236.8L261.8,240.0L263.0,242.2L264.6,240.6L267.8,241.2L266.2,242.6L267.0,244.0L267.0,247.0L267.0,250.6L268.6,252.2L269.8,250.6L273.0,251.4L272.8,253.6L272.6,256.4L270.6,260.6L268.0,264.4L263.4,266.8L261.2,267.2L261.2,269.0L261.2,270.2L261.8,275.4L261.6,279.8L257.0,279.8L254.2,279.2L251.6,278.4L249.6,277.8L249.2,280.0L246.0,280.6L243.4,282.0L241.8,286.0L239.0,284.6L237.2,280.6L236.8,277.4L233.8,275.6L232.0,272.4L229.0,271.0L228.8,269.0L227.6,267.0L226.4,267.4L224.0,265.2L222.8,262.8L221.8,261.6L219.2,258.8L215.2,257.8L213.0,254.4L212.2,252.0L213.8,250.2L218.8,250.4L221.0,248.6L220.6,244.2L218.2,243.8L218.2,241.4L215.2,242.0L214.6,240.4L215.8,238.6L212.6,235.0L211.4,235.4L211.0,231.4L209.2,230.2L207.8,227.0L205.4,224.8L207.0,220.8L206.2,217.8L202.0,215.4L199.8,214.0L197.4,215.4L197.6,212.6L197.0,211.8L195.4,211.0L193.0,209.8L192.6,208.0L190.4,209.4L188.2,212.6L186.0,211.0L184.4,209.2L182.6,211.6L181.0,215.6L178.8,213.6L180.8,208.6L182.0,206.2L181.0,205.0L179.0,204.0L175.8,203.0L174.4,201.0L170.4,201.0L169.8,202.8L168.2,204.6L166.0,206.4L163.4,208.0L162.8,210.6L162.4,213.6L162.2,216.4L162.8,218.2L162.4,220.4L163.6,223.0L164.8,225.4L166.4,228.2L167.4,231.0L168.8,232.4L168.6,235.2L167.4,237.4L165.8,239.8L164.6,242.0L164.6,244.4L165.4,246.4L165.2,248.8L165.4,251.6L164.2,253.8L163.8,255.2L162.6,258.0L162.6,259.6L159.0,260.2L155.6,261.4L150.8,264.0L149.0,262.8L147.0,263.0L147.0,264.6L146.8,267.4L146.6,269.6L145.0,271.0L147.6,271.2L149.8,271.0L152.2,268.6L155.4,268.4L158.6,268.4L160.6,268.8L162.6,267.4L165.4,267.2L167.2,267.4L169.0,268.4L170.0,266.6L172.2,267.4L175.0,267.2L175.0,268.8L173.2,270.4L173.6,272.6L174.0,275.2L172.6,277.0L173.2,279.2L174.0,281.2L173.0,282.6L174.8,283.0L176.2,280.4L177.6,277.6L180.0,277.6L182.2,277.0L184.8,277.8L186.8,279.6L186.8,283.4L185.2,283.2L185.2,285.6L186.2,287.8L187.2,289.8L188.4,291.2L190.6,291.8L192.0,293.8L189.8,294.6L188.0,295.2L186.8,297.2L185.8,300.2L182.8,300.2L182.0,302.2L183.0,303.6L178.6,304.0L178.4,306.6L176.0,305.8L174.0,306.6L172.4,308.2L173.2,310.8L169.8,310.2L168.6,312.2L170.6,313.6L172.4,314.6L174.4,315.8L176.6,316.6L178.2,317.4L179.0,318.2L179.0,320.4L176.8,322.2L172.6,321.6L168.0,320.8L164.2,320.2L162.8,322.6L158.0,324.4L159.4,326.6L160.2,329.6L161.6,331.4L162.0,334.4L163.2,334.6L161.2,336.4L156.0,337.0L156.0,336.0L153.2,333.2L154.4,331.8L154.0,329.0L151.6,326.4L149.0,328.2L147.0,331.0L145.4,332.4L143.0,332.0L142.0,333.4L143.0,336.0L146.4,335.0L147.8,336.4L151.4,336.4L151.8,339.0L151.6,341.6L153.4,345.0L156.4,346.2L159.6,349.8L162.4,350.0L164.4,353.8L167.0,358.2L169.0,362.0L167.8,364.0L167.8,365.6L165.8,367.8L163.8,368.6L163.0,370.2L160.8,371.2L160.6,373.4L159.4,374.8L159.8,377.6L158.0,379.0L158.6,382.8L160.8,382.0L160.8,383.0L164.0,383.0L165.4,382.0L167.0,383.0L172.0,379.8L174.0,376.4L175.4,374.0L173.0,370.4L176.0,370.4L176.8,369.4L180.2,370.6L181.4,372.4L182.2,375.6L184.0,377.6L182.0,379.4L182.4,380.8L184.6,380.6L187.2,382.6L187.6,386.6L192.4,390.0L191.4,393.0L192.8,396.2L195.4,398.4L195.4,400.8L196.8,402.8L196.8,404.8L198.2,405.2L198.2,406.8L200.2,407.8L198.8,409.2L199.4,412.6L201.6,413.4L204.0,411.8L205.4,412.4L205.8,410.2L208.2,409.0L209.4,410.0L210.2,408.0L212.2,408.0L212.4,409.8L214.0,409.0L216.4,411.8L220.0,410.4L222.2,409.8L223.6,407.2L224.6,408.0L228.0,406.6L229.4,407.6L231.6,408.2L233.6,407.0L234.6,405.6L233.8,400.4L235.2,399.2L237.6,399.6L236.4,396.4L237.4,394.2L239.6,394.4L239.8,393.4L242.2,393.8L242.0,392.2L244.6,392.4L245.6,393.8L248.0,393.6L248.4,390.8L249.2,387.6L248.8,385.0L250.2,384.8L250.2,382.8L248.6,382.0L248.8,379.2L247.4,377.6L248.8,376.8L248.8,375.4L247.4,374.0L245.4,375.4L244.6,374.0L245.8,372.0L245.2,370.6L241.6,369.2L239.6,367.8L240.0,366.4L241.4,365.2L242.8,366.8L244.0,364.8L246.0,365.2L248.4,365.2L249.0,363.2L248.8,360.2L251.6,358.2L250.0,356.6L249.4,352.8L248.8,350.4L247.6,350.2L246.2,347.6L245.2,344.6L246.8,343.4L248.2,344.0L248.6,345.4L250.8,344.6L252.2,346.0L253.2,344.8L255.4,345.6L257.2,345.0L257.8,347.2L261.0,348.4L261.0,346.8L262.2,346.4L261.2,344.4L262.8,340.8L265.4,342.2L267.2,344.0L270.2,346.0L272.4,346.2L273.4,348.2L275.4,346.8L275.0,345.8L276.4,344.6L274.4,342.8L275.4,341.8L277.8,342.2L278.6,343.6L280.4,345.8L283.6,347.4L283.8,344.8L286.8,346.4L288.2,343.4L290.2,344.8L291.8,344.0L294.6,346.0L297.2,344.6L300.2,343.4L302.6,342.4L304.4,344.0L307.6,347.2L307.6,349.0L309.4,347.2L311.8,348.6L311.6,345.0L313.0,344.4L315.4,347.2L317.0,345.4L318.2,344.2L318.8,341.2L317.6,337.4L315.2,335.0L313.0,333.0L310.4,332.4L311.6,331.2L315.8,330.4L315.2,327.4L313.4,324.4L311.4,323.4L310.0,319.8L311.2,316.8L310.6,311.2L312.0,310.8L313.2,307.8L312.2,307.0L313.4,304.4L313.0,299.4L315.8,297.6L319.4,294.8L320.0,291.6L321.8,288.2L321.0,286.6L318.4,287.2L315.4,283.6L317.6,283.8L320.6,283.6L320.2,281.8L322.4,280.0L324.6,278.2L326.8,278.6L326.8,277.2L323.4,276.0L323.0,273.4L325.4,273.4L326.6,275.0L328.6,273.8L331.6,273.6L332.8,269.8L335.0,267.8L334.2,266.2L334.2,264.4L338.8,262.0L339.6,263.6L341.6,263.0L344.2,260.8L346.4,263.6L347.4,263.0L347.6,261.2L349.0,258.6L350.2,257.4L350.0,255.4L351.2,255.2L351.4,253.0L348.6,250.4L344.2,248.8L340.4,247.6L338.6,245.6L335.2,243.4L334.6,241.4L332.0,241.4L330.2,241.8L329.8,242.8L327.2,242.2L325.8,241.0L327.2,237.8L328.6,234.6L326.2,233.2L322.4,229.8L320.4,228.0L319.2,223.8L318.0,223.2L313.4,222.2L310.2,220.6L307.8,218.8L306.0,218.0L304.8,216.2L303.8,214.6L301.0,213.8L299.8,214.6L298.2,214.8L297.4,216.4L294.6,217.0L291.8,218.0L289.0,218.4L288.4,219.6L285.2,219.2L281.6,217.6L277.8,216.4L274.0,215.8L270.0,214.6Z" />
		<path id="L1610958948916" name="固原市" class="qing-map-1616136125630" d="M226.6,419.4L224.6,422.2L222.2,421.0L218.0,423.4L218.2,425.2L215.6,425.8L216.8,430.2L216.0,433.6L213.6,434.6L212.2,433.6L212.6,435.2L211.6,437.4L209.6,437.6L205.0,441.2L204.8,443.0L199.6,444.6L197.4,444.8L194.6,446.2L193.0,443.8L191.8,445.0L190.2,443.6L187.0,444.2L184.2,447.0L182.8,446.0L181.0,449.6L182.8,450.8L183.6,455.4L185.0,458.8L185.4,461.0L184.0,461.0L183.4,459.6L181.0,459.0L178.2,457.4L173.0,458.2L172.8,460.4L172.8,463.2L170.4,465.0L170.6,466.2L168.6,468.2L167.2,470.0L166.4,469.8L165.0,467.2L160.6,468.2L162.4,465.6L162.0,463.2L159.6,462.6L159.2,463.6L156.8,463.4L155.6,464.6L153.8,466.6L151.4,464.4L149.0,463.6L149.0,462.0L145.6,458.6L145.6,456.6L143.8,455.8L141.8,456.4L140.6,458.4L138.2,458.2L133.6,461.6L134.2,463.8L136.4,466.6L135.4,470.0L133.6,472.8L127.6,472.8L125.8,475.6L123.4,476.6L121.2,479.2L121.8,481.4L119.2,481.2L118.4,484.2L118.0,487.4L118.4,490.4L117.4,492.2L118.2,494.0L118.8,496.0L117.4,496.2L118.4,498.8L119.6,500.6L121.2,500.2L124.2,501.8L124.4,502.8L122.0,504.4L122.6,506.0L122.8,509.0L123.6,510.6L125.2,507.8L125.8,506.8L128.0,508.0L127.8,511.4L130.4,513.4L130.4,515.8L132.4,516.4L132.8,518.6L135.8,520.0L137.6,518.6L138.8,519.8L139.8,518.8L141.4,520.4L140.8,522.2L142.2,523.2L142.6,521.8L142.6,520.4L144.2,520.2L144.6,519.0L147.0,518.8L149.6,517.4L151.8,516.2L152.4,518.0L155.2,517.8L156.6,517.4L158.2,519.0L160.0,518.0L160.4,519.4L159.4,522.0L157.6,522.2L157.4,519.8L156.0,520.6L154.0,522.0L154.2,523.4L156.8,524.2L157.4,526.0L156.4,528.8L158.6,529.6L159.0,531.6L160.6,532.2L161.2,534.2L162.8,534.4L162.8,536.2L164.8,538.6L166.0,537.4L167.6,539.6L167.0,542.0L168.4,542.4L168.2,546.2L169.6,547.2L171.2,542.4L175.0,541.4L177.0,542.2L180.4,542.2L186.4,544.2L185.8,546.6L187.0,547.6L190.2,546.6L192.6,546.0L194.0,545.8L194.4,546.8L193.2,548.2L191.6,548.2L191.6,551.4L192.4,553.0L192.8,557.2L194.6,560.2L195.8,563.2L197.6,561.6L197.0,559.6L199.2,559.2L201.4,556.6L203.0,555.6L204.0,557.8L206.8,557.2L208.6,558.0L209.2,564.0L210.6,567.2L212.8,567.8L213.4,569.8L213.6,571.2L215.8,573.0L218.2,577.6L219.2,577.0L221.0,578.6L221.8,576.6L221.0,575.4L223.2,575.0L225.6,574.0L227.8,571.6L228.8,571.6L230.0,570.4L232.0,570.0L233.2,568.0L234.0,565.0L235.8,564.2L234.0,562.4L234.0,560.2L235.4,557.0L233.2,553.4L233.6,549.6L231.0,548.8L231.0,546.8L228.6,544.2L230.2,542.2L229.8,540.0L230.8,537.4L232.8,537.0L230.0,531.2L230.6,529.6L229.2,526.6L228.2,523.8L229.8,522.6L230.6,520.2L233.6,519.6L234.0,517.8L237.6,517.4L240.4,517.4L244.2,518.8L245.2,517.2L246.6,517.4L246.4,519.0L249.2,521.0L251.8,520.4L252.4,518.8L255.0,521.0L257.2,522.0L257.0,523.4L259.4,522.8L260.0,519.0L263.6,519.2L265.2,521.2L267.0,519.8L266.6,517.2L269.8,516.8L271.2,518.0L271.2,514.2L272.0,512.6L273.2,512.6L273.8,514.8L275.6,513.4L276.2,509.8L277.4,508.8L276.2,506.4L274.8,506.8L273.2,504.4L272.4,503.6L271.8,501.8L272.2,500.2L269.6,499.4L271.2,497.0L272.8,495.4L274.8,496.0L276.0,493.8L277.6,494.4L279.4,492.4L277.8,491.0L276.6,492.6L274.8,492.4L274.0,489.0L276.4,489.6L277.2,487.8L279.0,487.4L279.8,484.4L277.6,484.2L277.4,481.8L279.0,480.8L278.4,477.2L280.6,476.0L281.0,473.8L278.2,472.2L278.2,470.6L276.6,470.0L275.4,468.4L275.8,466.0L274.4,464.0L273.0,464.2L271.2,462.0L270.6,459.6L268.8,459.8L268.4,457.0L266.6,459.0L263.6,457.6L261.4,459.0L258.6,455.8L256.2,456.4L254.6,455.6L253.0,451.4L249.4,453.2L246.2,451.4L244.0,451.4L242.8,449.4L241.2,449.4L241.0,452.2L239.0,454.0L236.4,451.4L235.8,452.4L233.4,450.0L231.6,446.6L233.2,446.2L235.0,449.0L236.0,447.8L234.6,445.8L235.6,445.0L235.2,440.0L237.8,439.0L238.0,436.6L235.2,435.2L234.0,435.8L233.8,433.2L235.0,433.8L236.0,432.8L235.0,431.8L235.8,429.0L237.0,426.6L235.8,425.0L233.4,425.4L232.6,424.2L230.8,424.0L228.8,422.0L228.4,420.8ZM179.0,555.6L177.6,556.0L176.4,557.4L174.4,557.0L173.8,554.6L174.4,553.2L177.2,552.2L179.8,551.6L182.8,550.4L184.4,549.8L187.2,549.6L187.6,548.6L190.2,548.2L189.6,549.8L190.2,552.2L188.2,550.6L186.6,551.6L185.2,553.2L182.0,555.6Z" />
	</g>
</svg>
