<svg xmlns="http://www.w3.org/2000/svg" viewBox="0,0,800,748" width="100%" height="100%">
	<defs>
		<style type="text/css">
.qing-map-1616123866396
{
	fill: #DDDDDD;
	fill-opacity: 1.0;
	stroke: #FFFFFF;
	stroke-opacity: 1.0;
	stroke-width: 1;
}

.qing-map-1616123866396:hover
{
	fill: #56A4FF;
	fill-opacity: 1.0;
}
</style>
	</defs>
	<g>
		<path id="L1610936585840" name="徐州市" class="qing-map-1616123866396" d="M264.0,114.6L266.0,117.0L267.6,118.0L268.8,117.8L268.4,120.6L267.8,122.6L267.4,124.2L264.4,124.0L262.6,126.4L264.0,129.0L269.8,132.8L270.0,135.2L269.6,137.6L269.6,139.8L268.8,142.0L268.4,144.0L274.8,144.6L275.6,142.4L276.8,140.8L279.4,140.4L282.2,140.8L284.6,139.6L285.8,137.2L287.8,137.2L290.4,137.8L292.2,138.2L293.4,138.8L296.2,139.4L297.4,138.2L298.4,137.0L301.75,135.5L304.75,139.0L309.0,140.5L312.75,138.5L314.75,136.0L317.0,134.25L325.0,137.75L326.5,135.0L327.75,133.5L333.0,134.25L333.75,136.25L335.25,136.75L336.75,137.75L337.5,141.5L334.0,144.5L333.75,147.25L332.25,148.75L332.25,155.25L331.5,156.75L326.0,156.75L324.25,157.75L324.25,160.75L323.25,162.25L322.25,164.5L322.5,166.25L323.5,168.75L322.75,173.5L321.75,179.75L317.75,179.5L315.75,180.25L314.5,182.0L315.25,183.75L314.25,185.75L316.0,188.0L310.5,191.25L307.75,190.0L304.75,190.25L300.25,189.25L298.0,188.0L293.0,188.25L289.25,188.75L285.5,190.5L277.5,190.75L275.5,188.75L274.25,185.75L274.25,183.75L271.25,181.0L269.25,181.25L267.25,180.75L266.25,182.5L266.25,183.75L263.75,184.5L262.0,183.75L259.75,184.5L255.0,179.5L252.25,182.75L245.0,184.5L244.5,187.0L244.5,189.0L245.25,191.25L247.25,193.25L251.5,192.5L252.75,195.25L253.5,198.0L253.5,200.75L253.5,203.5L252.75,205.75L250.25,205.25L249.0,208.25L252.5,212.25L256.75,213.5L256.75,216.75L260.0,218.0L262.25,215.5L264.5,218.25L265.0,221.5L265.25,223.5L268.0,226.75L268.5,232.25L270.75,236.0L268.75,239.25L266.75,241.25L268.75,243.5L269.0,245.5L267.25,248.5L265.0,249.0L263.0,248.25L261.75,246.75L260.75,245.75L258.5,246.5L255.0,246.25L252.25,247.75L249.75,249.0L247.75,249.5L242.75,249.25L239.75,247.5L238.5,252.0L235.0,251.75L233.25,250.75L231.5,251.0L232.0,253.25L231.0,254.75L229.25,253.25L225.0,251.25L216.75,251.25L214.5,253.0L212.5,253.75L209.5,253.75L207.5,249.0L209.0,248.25L209.0,245.0L211.75,240.5L210.25,236.25L211.5,235.0L211.25,230.75L212.0,226.5L210.25,225.25L205.5,226.5L203.75,225.0L202.5,220.0L200.25,219.25L200.5,215.5L198.75,214.5L198.25,211.75L199.75,209.5L199.0,206.5L193.75,203.75L193.5,201.0L191.0,201.75L192.0,206.25L189.0,207.75L188.75,209.75L185.75,210.5L185.75,208.0L182.25,205.5L182.0,203.0L182.25,200.25L179.25,197.5L177.25,197.25L176.25,199.5L173.75,199.75L171.0,201.25L170.25,202.5L165.75,203.75L162.75,202.75L163.0,200.25L160.0,195.75L156.0,193.5L152.0,193.6L150.8,196.4L145.8,194.6L139.2,197.2L132.6,194.8L128.8,194.2L128.4,191.4L124.8,191.0L126.6,188.8L125.2,186.4L122.0,185.6L121.6,183.6L117.8,184.0L116.6,182.4L111.8,179.8L111.8,177.8L114.2,173.8L113.0,166.4L110.4,167.0L107.4,163.0L104.6,160.6L104.2,157.2L104.4,155.4L103.8,153.4L104.6,151.2L105.0,148.2L102.6,146.2L103.6,142.8L100.0,141.4L96.4,140.2L94.6,139.6L90.8,140.0L88.0,141.6L85.6,142.4L84.4,144.6L82.8,142.4L81.4,140.6L77.8,137.4L77.2,135.0L76.4,132.8L74.4,131.4L72.2,130.8L70.6,129.8L69.4,128.8L62.0,128.8L59.4,128.0L57.0,126.6L51.0,127.0L52.4,125.0L51.6,123.4L46.8,117.6L42.4,117.6L40.4,115.4L38.4,113.4L36.8,109.6L36.8,106.2L34.6,104.8L32.0,103.8L30.0,103.0L30.8,100.6L29.8,99.2L25.2,100.4L23.0,98.2L24.4,91.6L23.8,89.2L21.8,86.6L21.6,83.2L25.8,83.0L26.4,81.0L26.8,79.4L25.8,75.8L26.6,70.2L27.6,64.8L29.4,62.8L31.8,58.8L42.8,57.6L45.4,56.0L47.6,56.6L54.4,54.4L55.8,51.4L57.8,51.4L59.0,52.6L67.6,52.6L74.0,55.0L78.0,56.18L78.8,52.8L78.85,49.4L78.8,45.6L80.2,45.8L80.0,53.6L82.4,53.6L82.0,49.8L81.4,46.2L82.52,47.28L83.35,53.7L88.3,54.37L92.22,57.2L96.4,59.2L97.6,60.6L97.4,61.4L101.0,62.0L103.2,62.4L103.2,66.8L104.45,69.93L105.35,72.6L106.4,75.8L109.8,79.6L109.2,75.4L113.6,78.0L114.4,80.2L114.4,81.6L117.0,83.4L117.0,87.0L119.8,90.8L118.0,92.2L116.6,94.6L116.6,99.2L118.0,101.4L120.2,101.6L124.2,99.8L125.6,102.4L127.0,107.4L128.2,111.6L130.0,115.8L129.4,119.6L129.8,123.0L130.2,124.6L132.6,126.0L135.4,128.4L137.4,131.6L138.4,133.0L141.8,132.6L144.4,127.2L143.8,125.2L145.6,123.8L145.4,119.0L148.4,118.8L149.6,115.0L153.0,114.8L153.2,112.6L155.4,111.2L159.2,110.8L162.4,112.6L162.6,115.4L164.4,118.0L166.8,118.8L168.8,121.2L170.8,123.2L171.2,125.2L171.8,126.8L174.4,127.2L176.4,128.4L178.6,129.4L181.2,130.0L183.4,129.0L186.2,130.8L189.4,130.2L191.0,128.2L192.0,126.4L194.2,125.8L196.4,125.6L198.4,124.6L201.4,120.2L201.6,116.6L207.8,118.4L212.6,119.6L217.0,121.0L217.8,120.2L217.0,116.8L216.6,113.8L216.6,110.2L217.6,106.8L218.0,103.8L217.0,101.0L219.0,100.8L221.4,99.8L224.8,100.0L227.8,100.0L229.6,100.0L231.0,100.4L232.2,99.8L233.0,97.8L233.4,96.6L235.2,98.0L236.4,98.0L238.2,96.0L239.4,95.4L241.0,96.2L243.2,98.2L245.0,98.6L248.0,98.2L250.2,99.0L253.4,98.8L256.0,98.2L258.4,99.4L257.8,102.0L260.8,105.4L258.8,108.8L256.0,113.0L261.8,115.2Z" />
		<path id="L1610938442527" name="连云港市" class="qing-map-1616123866396" d="M302.2,129.8L301.75,135.5L304.75,139.0L309.0,140.5L312.75,138.5L314.75,136.0L317.0,134.25L325.0,137.75L326.5,135.0L327.75,133.5L333.0,134.25L333.75,136.25L335.25,136.75L336.75,137.75L337.5,141.5L334.0,144.5L333.75,147.25L335.4,150.2L339.8,150.4L345.4,153.6L347.8,153.2L350.0,156.0L352.4,156.2L356.0,151.4L356.2,149.4L358.0,147.4L361.0,146.6L373.0,145.8L375.0,145.0L376.6,147.4L381.8,143.0L381.8,140.4L386.6,140.8L388.0,137.4L394.2,137.8L394.0,139.4L391.0,139.8L389.8,144.2L390.6,151.0L393.0,153.6L393.6,156.2L392.0,158.4L391.8,162.8L394.6,164.8L395.4,173.2L400.4,174.2L401.8,177.8L402.2,181.2L400.6,183.6L404.2,185.6L405.8,186.8L406.2,188.0L405.4,189.6L406.6,192.0L408.4,193.4L409.8,197.0L412.6,198.4L413.8,199.0L415.0,201.4L417.0,201.8L418.8,201.2L421.4,200.6L423.4,200.8L425.4,201.8L426.8,203.2L429.4,202.6L432.6,202.6L436.6,202.2L438.0,203.8L437.8,205.2L438.0,207.0L440.2,207.2L441.0,209.0L441.8,210.2L443.0,210.4L448.4,207.0L451.6,204.6L453.8,202.0L456.2,204.0L460.2,204.6L460.4,201.6L459.0,197.8L462.6,194.6L462.6,192.4L458.2,188.8L456.4,189.4L454.0,185.0L455.2,183.6L455.0,180.0L453.0,181.0L452.0,179.0L454.0,177.6L456.0,175.4L458.4,173.4L462.2,172.8L464.6,170.6L469.8,166.2L473.0,165.4L475.6,164.2L479.0,160.6L482.0,158.0L484.8,155.4L486.2,153.0L486.0,150.8L488.6,148.8L489.8,146.8L492.2,145.4L490.8,140.8L492.0,137.2L491.4,129.8L491.4,126.4L490.0,124.2L486.2,122.2L485.0,122.6L481.6,120.4L479.0,119.8L477.4,120.4L476.0,121.0L472.8,121.2L471.0,122.0L468.6,124.0L471.2,120.2L471.4,115.2L469.4,113.8L463.6,111.2L459.4,109.0L455.6,105.8L451.2,101.2L448.4,98.2L444.8,95.6L447.2,93.0L448.8,90.0L446.4,86.8L444.0,84.8L440.6,84.8L437.0,84.8L434.2,83.2L433.2,82.0L432.6,80.8L428.8,80.6L428.0,84.4L423.2,84.6L413.4,78.4L410.6,73.6L408.4,69.0L407.6,66.4L408.0,60.2L409.8,57.6L410.2,55.2L410.0,50.0L410.6,43.6L411.2,39.2L412.2,35.0L414.4,31.8L416.6,31.8L418.4,29.2L422.8,27.8L423.4,24.8L421.4,22.0L415.6,20.2L414.2,22.0L413.4,23.0L409.4,22.6L400.6,25.0L401.0,27.0L399.2,29.4L399.8,31.8L397.6,33.2L395.6,32.2L394.8,31.4L392.8,31.4L390.8,33.0L388.4,33.4L386.0,32.6L383.6,32.0L376.6,34.2L374.6,34.2L372.2,33.0L370.6,33.0L366.8,35.8L364.0,36.0L363.2,37.4L364.4,40.0L364.6,41.6L362.8,47.2L364.0,48.8L363.6,51.2L363.2,53.4L360.8,54.0L358.2,56.8L357.6,59.2L355.0,61.6L355.6,66.8L352.2,66.2L350.8,68.6L351.8,71.8L351.0,75.4L349.4,76.6L347.2,75.8L346.6,80.2L343.2,80.8L343.4,82.2L346.0,85.2L349.8,84.2L352.4,87.0L350.0,89.4L347.4,91.6L345.6,92.2L343.8,92.6L339.4,94.8L337.6,91.6L333.8,91.6L331.8,93.4L327.6,93.2L328.2,89.8L325.4,89.0L317.4,88.8L317.4,91.2L318.0,93.8L315.2,93.6L313.4,97.0L310.4,95.6L308.8,96.6L309.0,100.4L310.8,102.2L307.8,104.8L305.0,103.8L303.6,106.2L303.8,110.4L303.2,113.2L304.6,115.0L304.6,118.0L305.6,122.2L303.6,126.8Z" />
		<path id="L1610938992167" name="宿迁市" class="qing-map-1616123866396" d="M259.6,290.2L260.2,285.0L261.6,275.6L260.6,270.8L263.0,268.6L265.8,266.2L268.2,263.0L268.2,257.0L268.0,251.8L269.4,251.4L270.2,250.0L267.25,248.5L269.0,245.5L268.75,243.5L266.75,241.25L268.75,239.25L270.75,236.0L268.5,232.25L268.0,226.75L265.25,223.5L265.0,221.5L264.5,218.25L262.25,215.5L260.0,218.0L256.75,216.75L256.75,213.5L252.5,212.25L249.0,208.25L250.25,205.25L252.75,205.75L253.5,203.5L253.5,200.75L253.5,198.0L252.75,195.25L251.5,192.5L247.25,193.25L245.25,191.25L244.5,189.0L244.5,187.0L245.0,184.5L252.25,182.75L255.0,179.5L259.75,184.5L262.0,183.75L263.75,184.5L266.25,183.75L266.25,182.5L267.25,180.75L269.25,181.25L271.25,181.0L274.25,183.75L274.25,185.75L275.5,188.75L277.5,190.75L285.5,190.5L289.25,188.75L293.0,188.25L298.0,188.0L300.25,189.25L304.75,190.25L307.75,190.0L310.5,191.25L316.0,188.0L314.25,185.75L315.25,183.75L314.5,182.0L315.75,180.25L317.75,179.5L321.75,179.75L322.75,173.5L323.5,168.75L322.5,166.25L322.25,164.5L323.25,162.25L324.25,160.75L324.25,157.75L326.0,156.75L331.5,156.75L332.25,155.25L332.25,148.75L333.75,147.25L335.4,150.2L339.8,150.4L345.4,153.6L347.8,153.2L350.0,156.0L352.4,156.2L356.0,151.4L356.2,149.4L358.0,147.4L361.0,146.6L373.0,145.8L375.0,145.0L376.6,147.4L381.8,143.0L381.8,140.4L386.6,140.8L388.0,137.4L394.2,137.8L394.0,139.4L391.0,139.8L389.8,144.2L390.6,151.0L393.0,153.6L393.6,156.2L392.0,158.4L391.8,162.8L394.6,164.8L395.4,173.2L400.4,174.2L401.8,177.8L402.2,181.2L400.6,183.6L404.2,185.6L405.8,186.8L406.2,188.0L405.4,189.6L406.6,192.0L405.0,193.8L403.8,195.2L403.4,198.8L399.8,202.6L398.2,203.6L396.2,205.2L394.0,207.6L394.0,209.4L389.2,212.4L389.2,214.0L389.4,216.0L389.4,218.0L387.4,220.0L383.2,224.6L378.4,221.0L376.2,221.2L374.6,223.4L372.2,223.8L370.4,225.4L368.8,226.2L366.4,226.6L365.0,225.6L359.4,231.0L358.0,233.2L356.8,235.2L355.2,238.0L355.6,241.4L354.2,244.8L355.8,247.0L355.2,249.2L356.4,252.0L356.8,256.2L355.2,259.2L354.2,262.2L354.8,265.4L349.2,267.6L350.4,271.6L351.8,273.8L355.2,277.2L353.6,284.0L353.6,289.2L352.2,292.2L352.2,299.4L348.0,308.6L352.0,315.2L315.6,328.6L303.8,341.4L281.4,339.2L275.4,342.0L273.0,338.6L270.2,336.8L268.2,337.2L266.6,340.0L266.8,342.8L265.4,344.4L256.4,347.6L252.2,347.6L248.2,346.0L243.8,342.6L243.4,336.8L241.4,334.4L239.6,335.6L238.0,335.2L237.0,333.0L238.0,331.0L237.4,329.2L241.6,326.2L242.8,323.8L244.0,317.0L241.8,316.4L241.6,315.0L244.2,315.2L246.6,314.2L248.6,311.8L249.0,307.4L247.4,305.6L248.8,297.2L251.4,295.0L252.0,291.8L259.4,294.8Z" />
		<path id="L1610939404903" name="淮安市" class="qing-map-1616123866396" d="M275.4,342.0L281.4,339.2L303.8,341.4L315.6,328.6L352.0,315.2L348.0,308.6L352.2,299.4L352.2,292.2L353.6,289.2L353.6,284.0L355.2,277.2L351.8,273.8L350.4,271.6L349.2,267.6L354.8,265.4L354.2,262.2L355.2,259.2L356.8,256.2L356.4,252.0L355.2,249.2L355.8,247.0L354.2,244.8L355.6,241.4L355.2,238.0L356.8,235.2L358.0,233.2L359.4,231.0L365.0,225.6L366.4,226.6L368.8,226.2L370.4,225.4L372.2,223.8L374.6,223.4L376.2,221.2L378.4,221.0L383.2,224.6L387.4,220.0L389.4,218.0L389.4,216.0L389.2,214.0L389.2,212.4L394.0,209.4L394.0,207.6L396.2,205.2L398.2,203.6L399.8,202.6L403.4,198.8L403.8,195.2L405.0,193.8L406.6,192.0L408.4,193.4L409.8,197.0L412.6,198.4L413.8,199.0L415.0,201.4L417.0,201.8L418.8,201.2L421.4,200.6L423.4,200.8L425.4,201.8L426.8,203.2L429.4,202.6L432.6,202.6L436.6,202.2L438.0,203.8L437.8,205.2L438.0,207.0L440.2,207.2L441.0,209.0L441.8,210.2L443.0,210.4L448.4,207.0L451.6,204.6L453.8,202.0L456.2,204.0L460.2,204.6L461.8,207.4L464.2,208.0L465.0,210.0L465.4,213.0L467.4,216.0L468.8,216.0L470.2,216.0L470.8,217.4L471.0,219.6L469.4,222.0L469.4,224.4L467.6,227.6L465.0,228.4L463.4,229.4L459.4,233.8L456.8,239.4L455.4,242.4L454.2,245.8L453.4,248.6L452.0,250.8L451.8,253.8L447.8,257.2L449.2,260.8L449.0,263.2L449.6,265.0L447.8,266.6L445.6,266.6L445.6,269.8L447.2,274.0L448.0,276.6L448.8,279.4L448.4,282.6L450.2,285.6L451.8,287.6L453.8,289.4L455.6,290.2L458.6,294.2L462.2,296.0L465.0,297.4L467.2,299.8L459.8,306.6L456.4,303.8L447.0,306.0L444.6,309.0L443.2,309.4L437.6,310.8L433.0,311.6L425.6,312.0L420.0,313.6L417.0,314.4L414.8,315.8L418.2,321.8L412.8,323.8L406.6,324.2L404.2,324.6L404.6,327.4L403.2,329.6L402.0,332.2L402.2,334.4L403.0,337.0L404.4,337.8L411.2,339.0L412.4,339.6L413.2,342.6L413.4,347.2L417.4,346.6L424.6,350.4L425.6,352.6L426.0,355.2L427.2,357.0L428.0,359.0L429.2,361.2L431.4,362.8L432.2,364.0L431.8,366.8L430.0,368.8L428.8,370.0L426.6,372.8L426.0,374.6L425.4,386.8L425.6,399.4L416.2,401.2L407.4,400.0L398.4,401.2L396.0,399.6L393.8,396.0L391.4,393.4L388.6,389.6L388.4,386.8L384.8,386.8L384.4,384.0L386.2,383.4L384.6,379.0L381.2,378.4L378.0,380.4L374.6,380.6L373.0,381.8L369.6,381.2L367.4,379.2L364.0,378.4L361.6,378.6L360.2,380.4L361.2,382.4L359.6,386.6L358.0,385.2L356.6,387.4L356.8,394.0L353.6,396.8L348.0,395.2L346.4,396.2L347.4,402.0L346.2,405.2L345.6,409.2L348.2,412.0L348.8,415.0L346.6,415.6L344.4,417.4L341.4,417.6L339.8,416.2L335.0,415.2L332.8,413.4L329.2,414.6L328.2,416.2L324.0,417.6L320.4,415.8L311.2,417.4L307.8,416.6L306.8,413.8L304.0,417.4L295.8,417.4L296.0,412.2L295.0,409.6L292.0,409.4L287.2,408.0L286.0,405.8L286.8,402.6L284.2,395.4L281.6,395.2L279.4,396.6L278.2,390.4L276.6,384.8L277.8,382.2L281.0,381.4L284.2,380.6L287.2,378.6L285.4,376.6L281.4,376.4L278.6,372.6L278.4,368.6L278.0,365.2L277.2,361.6L274.2,361.6L275.4,357.6L275.8,349.2Z" />
		<path id="L1610939820265" name="盐城市" class="qing-map-1616123866396" d="M562.2,174.8L558.2,165.4L558.8,164.2L559.6,159.2L556.4,155.8L544.4,150.6L535.0,145.8L532.6,145.8L531.6,143.6L523.6,137.6L519.2,136.4L516.2,135.2L512.2,133.4L504.8,132.0L499.0,131.4L495.8,129.6L491.4,129.8L492.0,137.2L490.8,140.8L492.2,145.4L489.8,146.8L488.6,148.8L486.0,150.8L486.2,153.0L484.8,155.4L482.0,158.0L479.0,160.6L475.6,164.2L473.0,165.4L469.8,166.2L464.6,170.6L462.2,172.8L458.4,173.4L456.0,175.4L454.0,177.6L452.0,179.0L453.0,181.0L455.0,180.0L455.2,183.6L454.0,185.0L456.4,189.4L458.2,188.8L462.6,192.4L462.6,194.6L459.0,197.8L460.4,201.6L460.2,204.6L461.8,207.4L464.2,208.0L465.0,210.0L465.4,213.0L467.4,216.0L468.8,216.0L470.2,216.0L470.8,217.4L471.0,219.6L469.4,222.0L469.4,224.4L467.6,227.6L465.0,228.4L463.4,229.4L459.4,233.8L456.8,239.4L455.4,242.4L454.2,245.8L453.4,248.6L452.0,250.8L451.8,253.8L447.8,257.2L449.2,260.8L449.0,263.2L449.6,265.0L447.8,266.6L445.6,266.6L445.6,269.8L447.2,274.0L448.0,276.6L448.8,279.4L448.4,282.6L450.2,285.6L451.8,287.6L453.8,289.4L455.6,290.2L458.6,294.2L462.2,296.0L465.0,297.4L467.2,299.8L459.8,306.6L461.4,310.0L465.0,309.8L466.8,317.0L468.6,317.2L470.4,320.8L470.2,323.4L472.4,325.6L477.6,324.2L479.8,325.6L480.0,327.4L476.8,333.4L480.6,336.6L482.6,338.2L482.4,342.6L484.6,343.6L485.2,345.6L484.2,347.4L484.2,350.0L486.8,350.4L489.8,349.4L498.6,346.4L502.6,348.0L511.4,346.4L515.4,347.4L520.8,346.4L526.2,345.0L530.2,342.0L540.2,345.8L549.0,349.6L555.8,350.8L559.6,350.4L559.8,358.2L561.6,361.8L562.6,364.8L561.6,367.4L562.0,373.6L561.2,376.2L559.0,378.8L559.0,381.2L558.4,383.4L557.2,383.8L552.6,383.4L549.6,384.8L548.2,384.6L547.0,383.8L544.0,382.8L544.4,385.6L544.2,388.0L543.8,390.6L545.8,391.8L547.6,393.6L547.8,396.2L545.0,398.8L545.2,401.4L543.0,402.4L542.6,404.2L541.4,407.0L545.0,409.2L546.4,406.8L549.8,406.2L550.6,408.0L549.2,409.4L548.0,412.2L547.6,414.2L546.2,416.0L542.4,417.8L540.6,418.8L539.2,422.0L536.8,423.2L536.0,425.0L536.2,431.6L534.6,432.4L535.2,435.0L538.6,435.0L541.8,434.2L544.2,433.8L545.8,434.4L547.0,437.0L550.8,429.6L550.4,425.8L554.0,424.4L557.6,424.4L562.2,421.0L572.4,419.8L573.2,422.4L575.8,423.0L577.0,423.8L578.4,425.6L579.2,427.4L580.0,432.0L585.6,432.0L588.6,430.8L591.2,431.4L599.0,431.4L602.2,429.2L605.8,434.4L608.8,436.0L609.0,439.4L610.0,441.4L612.4,438.8L615.6,436.8L620.8,439.6L621.2,437.8L627.8,437.2L628.4,440.4L633.2,438.0L634.4,435.6L636.2,436.0L640.0,435.0L643.4,432.2L642.8,428.2L644.2,425.2L643.0,423.0L643.2,418.6L637.8,416.4L637.4,413.2L639.2,410.6L641.2,408.6L641.6,404.4L642.0,401.4L644.6,393.4L644.0,390.0L642.8,382.4L641.8,379.4L641.4,377.8L640.6,369.2L629.8,364.0L633.0,359.8L631.0,357.8L632.2,354.8L631.6,351.2L629.8,351.0L628.8,348.6L630.4,346.4L630.2,342.2L627.6,342.2L625.8,340.4L627.0,337.6L623.4,335.0L624.2,333.4L621.4,332.2L623.4,330.2L621.4,326.0L621.2,320.0L620.4,316.8L619.0,315.0L617.6,304.4L615.4,300.8L615.2,298.0L613.2,294.4L611.2,294.0L611.6,288.4L601.8,268.2L599.4,267.6L599.2,262.6L596.6,255.4L592.2,244.0L591.0,242.4L586.2,238.2L586.2,234.6L578.6,219.4L578.0,216.6L574.6,210.6L573.8,205.4L567.4,193.2L565.2,191.2L561.6,190.6L564.0,189.6L565.6,188.2L565.8,185.4L564.6,181.4L563.6,178.6Z" />
		<path id="L1610940321496" name="扬州市" class="qing-map-1616123866396" d="M461.4,489.0L457.4,488.6L454.0,493.0L450.0,493.6L445.2,492.2L440.8,493.8L437.6,495.8L435.4,497.8L429.8,497.4L426.4,496.8L419.8,496.8L416.2,497.2L414.4,498.6L408.8,497.2L405.2,495.6L400.8,495.2L396.8,495.4L394.8,496.0L392.4,494.4L389.8,493.4L387.2,492.0L387.8,489.0L387.4,482.0L386.4,479.2L388.2,475.6L386.2,472.2L384.4,468.8L386.0,465.2L385.4,463.0L388.6,459.8L390.8,459.8L392.8,460.6L394.6,458.8L397.6,457.6L402.0,454.6L403.6,452.0L403.2,448.0L405.2,446.6L403.6,444.4L407.0,440.8L409.2,441.0L411.0,442.8L412.4,439.8L413.2,437.6L411.0,434.6L411.8,433.8L411.6,432.2L411.2,430.6L411.4,427.0L411.6,421.8L411.6,417.6L410.6,413.0L409.6,409.6L408.4,405.0L407.4,400.0L416.2,401.2L425.6,399.4L425.4,386.8L426.0,374.6L426.6,372.8L428.8,370.0L430.0,368.8L431.8,366.8L432.2,364.0L431.4,362.8L429.2,361.2L428.0,359.0L427.2,357.0L426.0,355.2L425.6,352.6L424.6,350.4L417.4,346.6L413.4,347.2L413.2,342.6L412.4,339.6L411.2,339.0L404.4,337.8L403.0,337.0L402.2,334.4L402.0,332.2L403.2,329.6L404.6,327.4L404.2,324.6L406.6,324.2L412.8,323.8L418.2,321.8L414.8,315.8L417.0,314.4L420.0,313.6L425.6,312.0L433.0,311.6L437.6,310.8L443.2,309.4L444.6,309.0L447.0,306.0L456.4,303.8L459.8,306.6L461.4,310.0L465.0,309.8L466.8,317.0L468.6,317.2L470.4,320.8L470.2,323.4L472.4,325.6L477.6,324.2L479.8,325.6L480.0,327.4L476.8,333.4L480.6,336.6L479.4,338.8L478.0,341.2L471.6,346.6L471.6,355.2L473.8,357.2L475.4,358.4L477.4,358.8L476.6,361.0L476.6,364.6L477.2,368.4L477.8,370.2L479.0,370.6L480.0,372.8L478.6,374.4L477.0,378.4L477.4,379.6L479.6,381.0L480.2,382.6L480.6,387.2L483.4,388.4L486.4,387.2L489.6,387.0L490.2,390.8L492.2,393.2L491.4,397.4L493.0,400.0L491.8,403.0L495.4,403.8L496.8,406.0L498.2,407.6L499.4,408.4L500.8,409.0L500.0,411.0L498.6,413.0L500.4,419.8L502.8,421.2L501.6,423.2L505.0,425.8L507.4,432.8L503.2,434.4L500.2,431.6L496.8,431.0L494.0,433.6L495.2,436.2L494.6,438.6L494.6,443.0L497.0,444.2L497.2,447.2L495.6,449.4L495.0,458.2L496.2,460.0L499.6,459.2L501.6,463.8L501.8,466.6L500.0,467.4L499.6,470.0L499.2,472.2L500.4,473.6L497.6,476.6L497.6,479.2L498.4,481.0L495.4,485.2L492.6,484.0L489.0,483.2L485.8,483.4L483.2,484.0L480.2,487.0L479.2,488.8L477.2,489.0L475.0,491.4L470.4,492.0L468.6,494.2L465.6,494.2L463.6,493.8L461.0,495.2L460.6,491.8Z" />
		<path id="L1610940662599" name="南京市" class="qing-map-1616123866396" d="M298.0,525.6L299.0,523.0L302.2,520.6L304.6,520.8L308.8,518.6L310.0,516.2L312.0,515.0L313.4,513.4L313.6,511.4L313.0,505.8L319.6,503.0L322.0,502.2L324.2,502.0L325.6,503.0L330.0,501.4L331.6,502.0L334.6,499.4L336.6,497.0L337.8,494.0L336.4,492.2L337.6,488.6L336.0,485.6L338.6,483.4L339.6,481.4L341.4,481.2L341.0,478.8L341.6,476.4L340.6,473.4L338.8,471.4L339.8,468.2L339.4,465.6L340.0,458.2L337.4,457.8L334.2,457.0L333.2,458.4L329.2,458.4L327.0,456.6L326.6,453.6L328.4,453.2L329.8,451.2L328.4,449.6L328.8,447.4L323.2,443.2L323.4,439.6L327.2,437.4L330.0,438.4L332.0,441.0L334.6,439.2L337.4,438.8L340.0,439.4L341.2,439.0L341.4,437.4L341.6,436.2L343.6,435.8L344.4,437.4L346.0,439.2L348.8,436.8L351.4,438.0L352.2,440.4L357.6,437.2L358.6,439.8L360.6,442.4L362.0,441.4L367.2,441.6L366.8,443.8L368.2,445.6L373.0,444.8L378.0,449.6L378.4,452.4L381.6,453.0L382.8,451.4L387.2,451.4L388.2,455.0L391.0,456.2L390.8,459.8L388.6,459.8L385.4,463.0L386.0,465.2L384.4,468.8L386.2,472.2L388.2,475.6L386.4,479.2L387.4,482.0L387.8,489.0L387.2,492.0L389.8,493.4L392.4,494.4L394.8,496.0L396.8,495.4L400.8,495.2L405.2,495.6L408.8,497.2L414.4,498.6L412.8,502.2L411.2,504.2L409.4,504.2L407.6,503.8L404.6,505.0L402.0,504.0L397.4,505.2L393.8,506.0L393.0,507.8L388.0,509.4L385.4,512.8L383.8,515.6L386.8,516.4L389.2,518.0L393.2,517.8L395.8,522.6L394.2,525.6L395.0,530.6L395.8,532.8L397.4,534.6L397.6,539.2L394.4,538.8L391.4,539.0L386.4,541.6L387.6,544.2L391.8,544.8L394.2,546.0L396.8,547.6L397.4,551.2L396.6,554.2L395.8,556.2L393.8,556.8L391.6,555.4L386.6,558.4L385.4,559.8L382.6,559.8L379.4,560.0L378.8,563.4L381.2,564.6L382.6,566.4L383.0,568.2L382.4,569.4L380.2,569.8L379.8,572.2L383.0,572.2L385.6,570.0L388.8,568.8L391.8,570.4L394.0,572.0L394.8,573.8L397.6,575.4L399.6,577.8L402.6,582.2L408.0,584.8L408.4,590.4L409.6,591.8L411.4,594.2L414.2,595.0L412.4,601.4L412.0,602.8L410.6,605.6L409.4,607.4L408.0,607.6L407.2,610.2L408.8,611.8L407.2,615.0L405.2,616.0L403.8,616.0L402.8,617.2L403.0,620.8L401.8,623.8L404.0,625.8L405.0,627.2L405.2,632.2L406.6,634.4L408.2,634.8L410.2,637.4L412.0,639.4L410.0,641.6L407.8,647.6L405.8,648.6L403.4,648.4L402.6,650.6L400.2,653.2L396.8,654.6L396.2,657.8L394.0,658.4L390.8,657.2L389.2,658.0L384.2,656.4L381.4,658.8L379.6,657.6L375.6,658.0L371.4,656.4L368.8,658.6L366.6,657.6L357.6,658.0L355.6,659.2L352.2,656.4L352.0,653.4L349.6,651.2L344.6,650.0L343.6,647.8L343.6,644.8L348.6,634.2L350.2,634.8L350.6,637.0L358.4,635.6L364.2,629.0L366.0,624.2L366.2,617.0L367.2,612.0L364.4,605.6L365.4,600.6L363.8,597.2L363.0,595.2L359.8,594.0L357.8,595.2L355.2,596.0L353.6,592.8L352.2,590.0L354.2,588.6L351.2,586.0L348.2,586.4L347.6,590.0L346.6,593.6L343.2,592.6L339.8,593.8L335.2,592.0L334.0,589.4L334.0,586.8L337.0,585.4L337.2,583.8L339.6,582.6L339.6,580.0L336.6,578.8L335.0,577.8L333.8,576.8L333.0,575.6L332.8,573.2L330.2,574.2L327.8,573.6L326.4,575.8L323.2,576.4L320.0,578.0L317.6,573.6L315.8,572.8L315.0,572.2L311.8,569.6L313.2,563.4L314.0,560.6L311.0,559.0L308.8,556.8L310.8,555.2L310.6,553.6L306.4,553.0L305.0,551.2L302.2,552.6L301.2,549.6L297.6,548.0L296.0,546.2L296.0,540.4L297.6,540.0L299.2,535.8L297.8,529.6L299.0,527.4Z" />
		<path id="L1610948017158" name="镇江市" class="qing-map-1616123866396" d="M506.8,532.4L505.8,530.2L505.0,527.8L503.0,527.8L502.2,526.4L500.2,525.6L497.8,525.8L496.4,526.8L493.4,526.0L491.8,526.8L490.4,529.2L489.0,532.0L489.2,537.6L487.8,541.8L490.6,546.0L489.2,549.6L487.6,551.6L486.0,553.6L486.8,555.4L487.0,557.6L488.8,558.2L493.0,558.4L490.6,564.2L490.6,565.8L487.8,566.0L487.2,567.8L486.2,569.6L483.6,572.6L483.4,577.6L479.4,577.2L478.0,574.4L476.4,572.0L473.4,571.6L471.2,570.2L470.8,567.8L468.4,567.4L466.6,567.6L465.0,564.8L465.0,562.8L463.4,559.8L460.0,558.8L456.8,558.4L453.4,559.0L451.6,558.6L449.6,557.0L447.2,554.6L445.0,553.8L440.4,555.8L440.0,557.2L441.0,559.8L441.8,562.2L438.6,562.2L436.6,560.6L434.2,559.6L432.6,558.2L428.6,557.6L428.2,560.2L425.6,564.2L426.2,569.4L424.2,572.0L424.4,577.2L426.4,578.2L427.0,580.4L427.0,582.8L426.0,586.0L425.4,588.6L421.4,591.8L418.4,594.0L414.2,595.0L411.4,594.2L409.6,591.8L408.4,590.4L408.0,584.8L402.6,582.2L399.6,577.8L397.6,575.4L394.8,573.8L394.0,572.0L391.8,570.4L388.8,568.8L385.6,570.0L383.0,572.2L379.8,572.2L380.2,569.8L382.4,569.4L383.0,568.2L382.6,566.4L381.2,564.6L378.8,563.4L379.4,560.0L382.6,559.8L385.4,559.8L386.6,558.4L391.6,555.4L393.8,556.8L395.8,556.2L396.6,554.2L397.4,551.2L396.8,547.6L394.2,546.0L391.8,544.8L387.6,544.2L386.4,541.6L391.4,539.0L394.4,538.8L397.6,539.2L397.4,534.6L395.8,532.8L395.0,530.6L394.2,525.6L395.8,522.6L393.2,517.8L389.2,518.0L386.8,516.4L383.8,515.6L385.4,512.8L388.0,509.4L393.0,507.8L393.8,506.0L397.4,505.2L402.0,504.0L404.6,505.0L407.6,503.8L409.4,504.2L411.2,504.2L412.8,502.2L414.4,498.6L416.2,497.2L419.8,496.8L426.4,496.8L429.8,497.4L435.4,497.8L437.6,495.8L440.8,493.8L445.2,492.2L450.0,493.6L454.0,493.0L457.4,488.6L461.4,489.0L460.6,491.8L461.0,495.2L463.6,493.8L465.6,494.2L468.6,494.2L470.4,492.0L475.0,491.4L477.2,489.0L479.2,488.8L480.2,487.0L483.2,484.0L485.8,483.4L489.0,483.2L492.6,484.0L495.4,485.2L500.2,489.4L502.2,492.2L503.0,494.2L504.8,501.6L506.6,511.4L509.8,520.4L513.0,527.0L517.6,534.0L509.2,534.6Z" />
		<path id="L1610952092829" name="泰州市" class="qing-map-1616123866396" d="M517.6,534.0L513.0,527.0L509.8,520.4L506.6,511.4L504.8,501.6L503.0,494.2L502.2,492.2L500.2,489.4L495.4,485.2L498.4,481.0L497.6,479.2L497.6,476.6L500.4,473.6L499.2,472.2L499.6,470.0L500.0,467.4L501.8,466.6L501.6,463.8L499.6,459.2L496.2,460.0L495.0,458.2L495.6,449.4L497.2,447.2L497.0,444.2L494.6,443.0L494.6,438.6L495.2,436.2L494.0,433.6L496.8,431.0L500.2,431.6L503.2,434.4L507.4,432.8L505.0,425.8L501.6,423.2L502.8,421.2L500.4,419.8L498.6,413.0L500.0,411.0L500.8,409.0L499.4,408.4L498.2,407.6L496.8,406.0L495.4,403.8L491.8,403.0L493.0,400.0L491.4,397.4L492.2,393.2L490.2,390.8L489.6,387.0L486.4,387.2L483.4,388.4L480.6,387.2L480.2,382.6L479.6,381.0L477.4,379.6L477.0,378.4L478.6,374.4L480.0,372.8L479.0,370.6L477.8,370.2L477.2,368.4L476.6,364.6L476.6,361.0L477.4,358.8L475.4,358.4L473.8,357.2L471.6,355.2L471.6,346.6L478.0,341.2L479.4,338.8L480.6,336.6L482.6,338.2L482.4,342.6L484.6,343.6L485.2,345.6L484.2,347.4L484.2,350.0L486.8,350.4L489.8,349.4L498.6,346.4L502.6,348.0L511.4,346.4L515.4,347.4L520.8,346.4L526.2,345.0L530.2,342.0L540.2,345.8L549.0,349.6L555.8,350.8L559.6,350.4L559.8,358.2L561.6,361.8L562.6,364.8L561.6,367.4L562.0,373.6L561.2,376.2L559.0,378.8L559.0,381.2L558.4,383.4L557.2,383.8L552.6,383.4L549.6,384.8L548.2,384.6L547.0,383.8L544.0,382.8L544.4,385.6L544.2,388.0L543.8,390.6L545.8,391.8L547.6,393.6L547.8,396.2L545.0,398.8L545.2,401.4L543.0,402.4L542.6,404.2L541.4,407.0L545.0,409.2L546.4,406.8L549.8,406.2L550.6,408.0L549.2,409.4L548.0,412.2L547.6,414.2L546.2,416.0L542.4,417.8L540.6,418.8L539.2,422.0L536.8,423.2L536.0,425.0L536.2,431.6L534.6,432.4L535.2,435.0L538.6,435.0L541.8,434.2L544.2,433.8L545.8,434.4L547.0,437.0L550.6,439.8L554.4,438.2L556.2,444.8L555.4,451.8L555.8,454.6L558.0,464.4L559.2,470.8L558.6,473.8L559.8,474.6L561.8,475.8L567.2,473.6L569.0,476.6L567.2,479.4L569.2,484.2L568.0,485.8L567.2,494.0L569.4,496.4L570.2,498.6L570.0,501.0L567.4,505.6L566.8,509.4L568.2,512.8L573.2,514.0L577.2,514.8L581.6,516.4L584.4,517.2L586.8,518.8L589.8,520.2L590.2,523.2L591.4,524.8L593.8,525.8L596.2,529.0L594.4,532.0L586.6,530.0L579.0,529.4L577.6,529.8L574.6,532.8L570.2,536.2L563.0,540.6L553.8,545.4L545.4,546.2L538.2,545.0L528.8,541.8L522.0,539.6L519.6,537.4Z" />
		<path id="L1610952445303" name="南通市" class="qing-map-1616123866396" d="M713.6,496.8L714.4,495.0L714.4,493.4L713.2,492.2L709.6,489.8L710.6,489.0L710.8,473.4L708.4,470.6L704.0,467.6L699.6,464.4L688.6,460.0L682.6,458.4L680.8,455.8L667.6,450.0L663.0,449.6L657.6,446.8L655.0,447.8L654.2,444.8L647.8,439.8L647.8,438.0L643.8,435.4L643.4,432.2L640.0,435.0L636.2,436.0L634.4,435.6L633.2,438.0L628.4,440.4L627.8,437.2L621.2,437.8L620.8,439.6L615.6,436.8L612.4,438.8L610.0,441.4L609.0,439.4L608.8,436.0L605.8,434.4L602.2,429.2L599.0,431.4L591.2,431.4L588.6,430.8L585.6,432.0L580.0,432.0L579.2,427.4L578.4,425.6L577.0,423.8L575.8,423.0L573.2,422.4L572.4,419.8L562.2,421.0L557.6,424.4L554.0,424.4L550.4,425.8L550.8,429.6L547.0,437.0L550.6,439.8L554.4,438.2L556.2,444.8L555.4,451.8L555.8,454.6L558.0,464.4L559.2,470.8L558.6,473.8L559.8,474.6L561.8,475.8L567.2,473.6L569.0,476.6L567.2,479.4L569.2,484.2L568.0,485.8L567.2,494.0L569.4,496.4L570.2,498.6L570.0,501.0L567.4,505.6L566.8,509.4L568.2,512.8L573.2,514.0L577.2,514.8L581.6,516.4L584.4,517.2L586.8,518.8L589.8,520.2L590.2,523.2L591.4,524.8L593.8,525.8L596.2,529.0L594.4,532.0L598.4,533.8L606.4,534.0L626.0,533.6L627.8,535.0L629.4,538.8L637.4,554.2L641.6,561.8L646.0,568.2L649.2,569.0L651.4,569.6L658.4,569.4L664.8,570.0L670.8,573.2L674.6,570.0L677.0,568.0L679.6,565.0L682.6,562.4L686.0,560.0L690.0,558.4L693.2,556.8L695.8,554.8L699.4,554.8L708.2,559.8L710.6,563.0L712.4,565.6L712.8,567.8L715.6,571.4L718.4,573.2L722.0,574.2L725.4,574.8L731.4,578.0L735.6,581.2L738.8,582.0L743.2,583.8L745.4,582.8L754.0,587.0L761.8,589.8L769.4,592.4L777.2,593.6L778.0,589.2L780.2,586.2L780.4,583.4L782.2,583.0L783.6,578.4L781.6,572.4L779.6,568.2L776.4,562.4L776.2,557.6L774.0,552.8L773.8,549.8L773.2,548.4L772.2,547.0L771.0,547.0L769.2,544.4L768.0,542.6L766.6,540.2L765.0,538.2L763.6,537.0L761.8,536.0L759.4,534.6L757.8,532.8L756.8,531.4L755.8,530.0L753.6,528.6L750.8,527.4L747.2,525.6L745.8,524.6L742.4,523.2L739.2,521.6L735.6,520.2L731.0,518.2L728.2,517.2L724.4,516.6L720.6,516.6L715.8,516.0L715.4,508.0L714.4,506.8L709.0,506.6L708.6,503.8L706.8,502.2L708.0,499.6Z" />
		<path id="L1610953620789" name="常州市" class="qing-map-1616123866396" d="M407.8,647.6L410.0,641.6L412.0,639.4L410.2,637.4L408.2,634.8L406.6,634.4L405.2,632.2L405.0,627.2L404.0,625.8L401.8,623.8L403.0,620.8L402.8,617.2L403.8,616.0L405.2,616.0L407.2,615.0L408.8,611.8L407.2,610.2L408.0,607.6L409.4,607.4L410.6,605.6L412.0,602.8L412.4,601.4L414.2,595.0L418.4,594.0L421.4,591.8L425.4,588.6L426.0,586.0L427.0,582.8L427.0,580.4L426.4,578.2L424.4,577.2L424.2,572.0L426.2,569.4L425.6,564.2L428.2,560.2L428.6,557.6L432.6,558.2L434.2,559.6L436.6,560.6L438.6,562.2L441.8,562.2L441.0,559.8L440.0,557.2L440.4,555.8L445.0,553.8L447.2,554.6L449.6,557.0L451.6,558.6L453.4,559.0L456.8,558.4L460.0,558.8L463.4,559.8L465.0,562.8L465.0,564.8L466.6,567.6L468.4,567.4L470.8,567.8L471.2,570.2L473.4,571.6L476.4,572.0L478.0,574.4L479.4,577.2L483.4,577.6L483.6,572.6L486.2,569.6L487.2,567.8L487.8,566.0L490.6,565.8L490.6,564.2L493.0,558.4L488.8,558.2L487.0,557.6L486.8,555.4L486.0,553.6L487.6,551.6L489.2,549.6L490.6,546.0L487.8,541.8L489.2,537.6L489.0,532.0L490.4,529.2L491.8,526.8L493.4,526.0L496.4,526.8L497.8,525.8L500.2,525.6L502.2,526.4L503.0,527.8L505.0,527.8L505.8,530.2L506.8,532.4L509.2,534.6L517.6,534.0L519.6,537.4L522.0,539.6L521.0,541.6L520.4,545.4L522.4,547.4L520.6,548.6L519.2,551.2L521.2,553.8L520.8,555.8L519.8,557.4L518.2,557.6L519.4,560.0L520.2,562.6L525.6,562.8L532.8,558.4L539.4,557.8L542.0,556.4L544.0,555.8L545.2,557.6L542.4,562.0L543.6,565.4L543.6,567.4L546.6,573.8L545.2,575.2L543.0,573.8L541.2,574.0L541.0,582.2L539.4,583.8L539.4,586.8L537.4,585.8L535.6,594.0L530.4,598.0L529.8,600.0L527.2,603.6L527.6,605.8L529.8,607.2L533.0,607.6L534.2,612.4L536.6,614.6L534.8,618.6L534.4,621.2L527.4,625.8L525.2,633.6L525.4,637.0L527.2,638.0L530.2,638.4L532.4,639.2L533.2,640.8L531.8,642.6L528.6,642.2L525.8,640.8L524.0,638.6L522.8,636.0L523.0,631.8L524.6,628.0L526.0,617.4L522.0,614.6L519.2,615.6L516.6,613.0L516.0,610.6L514.6,609.4L511.2,607.4L506.4,608.4L501.0,608.6L498.6,611.0L496.0,610.4L494.0,608.0L489.8,607.4L486.4,606.6L483.8,606.0L480.8,606.0L479.8,603.2L478.4,603.0L477.6,600.2L475.6,598.0L473.2,598.2L470.6,599.2L471.2,602.8L468.2,606.0L466.4,606.6L463.6,610.6L462.2,614.0L460.2,614.2L460.4,619.4L462.6,620.6L463.2,623.6L461.2,626.0L458.4,626.0L458.0,628.4L456.2,629.6L456.8,632.4L455.2,635.8L455.0,638.8L455.0,641.2L454.8,643.2L453.2,644.6L453.8,646.6L455.0,648.6L456.0,650.2L455.4,651.8L455.4,654.2L454.0,656.0L458.2,660.0L458.0,666.6L455.2,669.8L445.2,670.4L443.2,667.6L440.0,668.0L438.2,666.6L435.4,667.8L434.0,665.4L432.0,664.2L432.0,657.4L433.4,655.6L434.2,652.6L430.4,650.6L427.6,653.2L424.0,652.6L419.6,654.6L417.6,653.2L415.6,654.4L413.2,654.0L411.4,651.6L409.4,652.8L409.4,648.6Z" />
		<path id="L1610954039686" name="无锡市" class="qing-map-1616123866396" d="M455.2,669.8L458.0,666.6L458.2,660.0L454.0,656.0L455.4,654.2L455.4,651.8L456.0,650.2L455.0,648.6L453.8,646.6L453.2,644.6L454.8,643.2L455.0,641.2L455.0,638.8L455.2,635.8L456.8,632.4L456.2,629.6L458.0,628.4L458.4,626.0L461.2,626.0L463.2,623.6L462.6,620.6L460.4,619.4L460.2,614.2L462.2,614.0L463.6,610.6L466.4,606.6L468.2,606.0L471.2,602.8L470.6,599.2L473.2,598.2L475.6,598.0L477.6,600.2L478.4,603.0L479.8,603.2L480.8,606.0L483.8,606.0L486.4,606.6L489.8,607.4L494.0,608.0L496.0,610.4L498.6,611.0L501.0,608.6L506.4,608.4L511.2,607.4L514.6,609.4L516.0,610.6L516.6,613.0L519.2,615.6L522.0,614.6L526.0,617.4L524.6,628.0L523.0,631.8L522.8,636.0L524.0,638.6L525.8,640.8L528.6,642.2L531.8,642.6L533.2,640.8L532.4,639.2L530.2,638.4L527.2,638.0L525.4,637.0L525.2,633.6L527.4,625.8L534.4,621.2L534.8,618.6L536.6,614.6L534.2,612.4L533.0,607.6L529.8,607.2L527.6,605.8L527.2,603.6L529.8,600.0L530.4,598.0L535.6,594.0L537.4,585.8L539.4,586.8L539.4,583.8L541.0,582.2L541.2,574.0L543.0,573.8L545.2,575.2L546.6,573.8L543.6,567.4L543.6,565.4L542.4,562.0L545.2,557.6L544.0,555.8L542.0,556.4L539.4,557.8L532.8,558.4L525.6,562.8L520.2,562.6L519.4,560.0L518.2,557.6L519.8,557.4L520.8,555.8L521.2,553.8L519.2,551.2L520.6,548.6L522.4,547.4L520.4,545.4L521.0,541.6L522.0,539.6L528.8,541.8L538.2,545.0L545.4,546.2L553.8,545.4L563.0,540.6L570.2,536.2L570.2,540.0L570.2,542.6L571.4,544.6L572.8,545.4L571.8,548.6L582.6,552.6L584.0,554.2L586.6,555.6L588.8,558.8L592.0,562.0L591.4,564.6L592.0,567.6L593.0,569.4L596.0,569.0L598.4,568.4L600.0,570.2L600.0,572.8L601.6,575.6L599.6,578.4L599.6,580.6L602.2,581.6L600.0,584.4L597.6,585.6L598.2,590.0L601.0,591.2L600.2,596.8L599.0,596.8L597.0,598.8L594.2,598.8L595.0,603.6L598.0,602.0L600.8,603.4L602.2,607.6L602.2,610.0L600.6,611.0L599.6,614.2L595.8,614.0L594.6,616.6L595.6,618.8L594.0,620.4L591.6,620.2L589.0,622.4L584.2,624.2L580.6,624.6L577.4,623.6L574.4,625.6L570.0,627.8L560.6,633.8L555.0,637.0L546.8,643.0L540.2,647.4L535.6,650.8L529.0,652.8L521.0,655.0L519.2,657.0L515.6,660.8L512.2,664.2L508.4,668.2L506.4,668.4L502.6,669.8L500.8,668.4L498.0,669.0L496.0,667.6L493.0,671.8L490.6,670.4L490.6,668.4L489.4,666.8L485.0,668.4L480.4,668.2L478.2,670.8L475.0,669.4L472.4,670.4L470.2,671.8L470.0,673.4L466.8,674.6L463.2,678.8L461.4,677.4L459.6,674.6Z" />
		<path id="L1610954551749" name="苏州市" class="qing-map-1616123866396" d="M508.4,668.2L512.2,664.2L515.6,660.8L519.2,657.0L521.0,655.0L529.0,652.8L535.6,650.8L540.2,647.4L546.8,643.0L555.0,637.0L560.6,633.8L570.0,627.8L574.4,625.6L577.4,623.6L580.6,624.6L584.2,624.2L589.0,622.4L591.6,620.2L594.0,620.4L595.6,618.8L594.6,616.6L595.8,614.0L599.6,614.2L600.6,611.0L602.2,610.0L602.2,607.6L600.8,603.4L598.0,602.0L595.0,603.6L594.2,598.8L597.0,598.8L599.0,596.8L600.2,596.8L601.0,591.2L598.2,590.0L597.6,585.6L600.0,584.4L602.2,581.6L599.6,580.6L599.6,578.4L601.6,575.6L600.0,572.8L600.0,570.2L598.4,568.4L596.0,569.0L593.0,569.4L592.0,567.6L591.4,564.6L592.0,562.0L588.8,558.8L586.6,555.6L584.0,554.2L582.6,552.6L571.8,548.6L572.8,545.4L571.4,544.6L570.2,542.6L570.2,540.0L570.2,536.2L574.6,532.8L577.6,529.8L579.0,529.4L586.6,530.0L594.4,532.0L598.4,533.8L606.4,534.0L626.0,533.6L627.8,535.0L629.4,538.8L637.4,554.2L641.6,561.8L646.0,568.2L649.2,569.0L651.4,569.6L658.4,569.4L664.8,570.0L670.8,573.2L678.0,579.6L687.0,586.8L693.8,592.6L700.8,602.0L709.2,608.0L701.8,614.4L698.4,614.4L697.6,616.6L695.4,616.6L690.6,619.0L689.0,617.0L687.6,619.2L684.8,619.2L682.6,620.6L682.2,622.6L679.2,623.4L676.8,625.2L677.8,629.8L675.0,633.4L672.6,635.2L671.4,637.2L672.6,639.8L674.4,640.6L674.4,646.4L676.2,646.2L678.0,650.8L676.4,651.6L675.2,651.0L672.4,650.0L671.2,651.2L668.4,649.0L667.0,652.0L665.2,652.4L664.6,657.0L666.8,667.6L665.8,671.8L662.8,671.4L658.6,673.8L653.8,674.4L647.6,672.8L644.4,673.6L640.4,673.4L637.2,678.4L642.0,680.8L642.8,682.8L642.2,684.8L642.0,687.0L642.6,689.0L643.0,691.6L641.6,694.8L637.8,697.0L635.2,697.2L632.0,694.6L625.8,695.2L624.0,698.8L621.4,701.0L619.6,700.6L615.4,700.2L613.2,702.6L616.2,705.0L617.0,707.6L617.2,714.2L613.6,714.0L609.8,717.2L601.8,718.2L597.0,721.4L588.8,734.0L586.6,733.0L585.6,731.0L584.8,729.6L585.2,726.8L582.6,724.8L582.6,721.2L579.8,718.2L581.2,716.8L577.0,711.4L571.4,714.2L568.4,714.0L568.2,711.2L569.2,708.4L568.6,704.4L562.2,706.4L557.8,707.4L551.4,707.8L545.4,706.6L540.0,705.6L537.4,704.6L534.8,703.0L533.0,701.2L530.8,699.2L527.6,695.0L520.0,691.4L517.6,686.4L515.6,684.8L512.2,679.0L511.2,672.4L509.2,670.6Z" />
	</g>
</svg>
