<svg xmlns="http://www.w3.org/2000/svg" viewBox="0,0,800,701" width="100%" height="100%">
	<defs>
		<style type="text/css">
.qing-map-1616149882495
{
	fill: #DDDDDD;
	fill-opacity: 1.0;
	stroke: #FFFFFF;
	stroke-opacity: 1.0;
	stroke-width: 1;
}

.qing-map-1616149882495:hover
{
	fill: #56A4FF;
	fill-opacity: 1.0;
}
</style>
	</defs>
	<g>
		<path id="L1611652214334" name="北区" class="qing-map-1616149882495" d="M313.2,137.4L314.6,134.6L313.4,130.8L308.2,128.8L306.6,125.8L307.4,123.6L312.4,122.4L316.0,120.0L318.2,116.6L322.4,116.4L326.4,119.0L328.8,119.4L334.4,119.0L337.6,119.8L339.8,122.2L342.8,125.0L348.2,123.6L348.2,119.2L353.6,118.8L355.0,117.8L355.0,114.6L356.8,113.4L358.8,112.2L361.0,113.2L363.8,110.0L368.4,111.4L372.0,108.2L383.2,110.6L388.0,103.8L386.6,103.2L386.4,100.0L389.0,98.6L388.8,94.8L393.2,94.4L397.2,88.4L399.8,85.6L401.8,88.8L404.4,88.6L406.2,86.8L407.6,86.8L409.8,88.8L418.4,89.0L418.2,92.8L421.2,95.4L423.0,93.6L427.8,94.4L429.6,93.0L431.6,95.4L433.4,93.8L438.0,93.4L440.0,91.2L444.0,92.0L445.8,93.2L451.0,92.0L456.6,94.2L459.8,94.8L463.0,93.2L466.8,98.2L467.0,99.2L469.8,100.0L472.8,103.6L471.8,105.6L472.2,108.2L466.6,108.2L462.8,108.0L462.0,109.0L462.0,110.6L459.4,112.8L459.2,116.0L458.4,117.6L458.6,118.8L457.6,119.2L456.8,120.4L454.6,119.2L452.6,119.8L452.6,121.4L452.8,123.2L452.4,126.4L452.4,128.8L452.6,131.8L453.6,132.6L455.6,131.0L458.8,131.0L461.2,129.4L461.2,132.8L462.8,133.6L465.0,130.2L467.2,128.0L467.6,125.6L470.4,127.4L472.6,125.4L474.6,125.4L475.4,123.0L476.4,121.8L477.8,122.2L481.0,123.4L482.8,123.0L484.6,119.4L486.6,117.0L486.6,115.2L486.8,112.8L488.8,109.4L489.8,105.0L490.6,103.4L492.6,105.0L493.8,102.6L495.8,102.4L495.6,105.0L497.0,106.6L499.2,107.6L500.8,105.8L500.2,104.2L502.8,104.8L501.2,107.2L503.0,107.4L505.6,105.2L505.4,103.8L505.2,102.0L505.8,100.8L507.0,102.6L509.2,104.0L510.4,104.0L507.6,106.0L507.4,107.6L508.4,108.4L509.8,108.4L509.0,110.4L507.2,113.8L506.2,115.0L507.0,116.0L508.8,116.2L514.0,114.2L514.8,115.6L512.8,120.0L514.6,121.6L516.6,119.0L519.2,119.0L519.8,121.6L515.8,123.4L514.8,127.8L514.0,131.2L516.0,132.2L518.4,131.2L520.8,130.8L523.2,132.4L527.6,132.2L529.6,130.4L530.0,128.4L535.4,128.2L530.8,133.0L530.4,134.4L532.2,135.6L534.2,135.6L536.2,133.8L539.4,134.4L534.8,138.6L535.8,140.0L534.4,140.8L533.2,142.4L533.6,145.0L531.4,145.4L530.0,142.8L527.4,141.6L525.0,142.8L524.8,146.2L526.8,147.2L528.2,148.2L528.4,150.2L531.6,151.0L535.2,150.2L539.4,149.8L539.4,151.6L541.4,151.8L541.8,155.0L545.0,156.2L544.8,152.8L546.4,151.4L552.2,157.2L556.4,160.4L560.6,163.6L563.8,161.4L567.0,160.4L572.6,158.0L579.0,158.0L583.6,155.6L586.8,155.4L591.2,151.8L594.8,149.4L596.2,150.6L591.8,155.4L588.2,157.8L584.2,159.4L580.6,160.8L576.8,163.0L572.8,167.8L567.8,170.2L564.8,172.0L560.0,173.4L557.2,173.4L554.2,172.6L550.8,171.4L547.0,169.4L543.2,167.4L538.6,165.2L535.6,164.2L532.0,165.0L528.6,166.6L523.4,167.2L519.4,167.8L517.0,169.2L515.6,170.6L502.2,170.8L498.8,168.6L496.4,165.8L494.8,162.6L491.6,159.8L491.2,157.0L486.8,157.2L485.0,159.2L483.4,161.6L481.8,163.6L478.8,165.0L477.4,168.4L476.0,170.2L473.4,172.4L471.0,174.0L469.2,176.4L460.0,174.2L455.2,174.6L450.8,174.6L447.6,172.8L445.2,171.0L439.2,170.8L436.4,168.6L429.4,168.0L421.8,167.6L415.6,173.6L413.8,176.4L411.2,179.8L406.4,179.8L402.6,176.0L394.8,176.0L389.0,176.2L389.4,184.8L386.4,187.8L383.2,191.6L379.2,193.8L376.0,196.2L371.8,198.8L368.0,200.8L365.2,200.8L363.0,202.4L360.2,202.6L356.2,202.4L352.6,201.0L349.6,199.6L347.4,198.2L346.2,196.2L341.4,198.6L339.2,198.6L335.4,198.0L332.6,199.6L328.2,201.4L323.4,202.4L320.4,202.0L318.2,199.0L318.4,191.2L318.6,183.6L321.0,179.8L321.8,175.8L322.2,171.4L320.4,167.4L320.6,161.0L320.2,154.8L321.4,151.4L323.0,150.0L322.6,147.8L320.8,145.0L320.8,140.2L321.2,137.0L319.8,134.4L318.2,133.8L317.2,135.0L317.0,136.8L314.6,138.2ZM522.4,99.8L521.1,99.4L521.0,98.7L520.5,97.9L521.7,97.9L523.2,99.4ZM528.8,123.3L528.8,121.3L530.7,121.3L530.6,122.3L529.6,123.6ZM544.3,115.7L548.9,116.0L550.0,113.7L547.9,109.5L546.3,109.2L542.0,104.8L544.3,104.6L545.1,106.3L545.7,106.4L546.2,105.5L546.9,104.9L547.2,102.8L547.4,102.2L545.8,100.6L545.7,100.1L544.3,98.9L544.5,96.0L545.4,95.9L546.1,95.3L546.8,95.5L548.2,96.4L549.0,96.5L549.1,99.3L549.7,99.9L551.0,99.8L551.3,100.5L552.7,100.4L552.7,100.9L570.1,101.0L571.1,101.6L571.3,102.0L572.4,102.2L571.8,103.4L570.9,103.4L570.9,104.1L568.3,104.0L568.3,103.6L566.0,103.4L565.8,104.4L565.2,105.0L563.4,105.0L561.5,107.2L560.0,107.2L558.5,106.0L556.0,103.9L555.3,103.5L551.5,103.6L550.9,104.8L550.4,105.9L549.8,106.3L550.0,107.1L549.2,107.9L550.6,109.5L552.0,109.7L552.8,110.3L553.6,111.1L553.7,113.5L555.1,114.8L556.2,115.2L559.7,118.7L562.2,118.9L562.2,121.6L561.6,121.7L561.6,122.6L559.0,122.9L559.0,122.4L556.2,122.3L556.1,121.4L556.7,121.3L556.7,120.3L557.3,119.9L557.0,119.2L556.7,117.1L555.9,117.7L554.3,118.7L553.0,119.9L551.9,119.8L551.4,120.6L549.2,120.3L548.8,120.9L547.8,120.6L547.6,121.3L545.0,121.3L544.6,120.8L544.0,121.2L542.0,121.4L541.7,122.0L541.2,121.7L541.4,120.4L541.9,119.5L542.0,119.1L542.9,119.1L543.7,118.3L543.8,117.6ZM566.8,112.9L566.8,112.3L564.3,112.5L563.8,112.7L563.2,112.8L562.7,113.4L563.0,115.5L563.8,116.4L564.4,115.6L565.4,115.9L565.6,115.5L567.2,114.0ZM541.7,138.1L541.1,137.3L540.4,138.3L540.9,139.5L541.8,139.7L543.1,138.9ZM590.5,112.8L590.7,113.6L591.7,113.6L591.6,111.2L590.6,111.4L590.5,110.5L589.7,111.2L589.6,111.8ZM579.2,124.8L580.9,123.2L581.0,121.1L580.3,119.7L579.8,118.5L579.3,118.3L579.7,117.3L577.9,117.3L577.4,118.7L577.0,119.3L576.9,120.8L577.4,121.2L577.3,122.1L577.8,122.5L578.1,123.8L574.4,127.9L573.3,127.5L572.4,127.5L572.2,125.2L568.2,121.0L566.2,120.9L566.0,121.9L565.5,122.8L565.8,124.1L565.8,125.3L566.2,126.3L566.8,127.3L568.5,128.0L569.6,128.3L570.1,129.1L570.7,128.7L571.4,130.0L572.1,130.0L574.0,131.8L575.6,132.1L576.1,132.5L577.1,132.7L578.7,133.6L579.6,133.0L579.4,129.1L578.8,129.0ZM562.63,149.25L559.63,149.13L558.13,146.88L554.13,146.75L553.75,147.25L551.88,147.25L552.25,148.13L553.88,148.75L554.63,150.13L554.5,151.88L554.0,153.25L554.75,155.13L555.63,155.75L557.25,156.0L558.75,154.75L560.63,153.88L562.0,152.63L562.13,151.13L563.75,150.5L564.88,150.5L566.38,151.63L569.0,151.75L570.88,148.25L574.13,147.38L579.25,142.13L578.25,140.25L575.88,140.13L575.88,139.13L575.38,136.88L573.38,134.38L571.0,132.88L568.38,131.88L567.88,132.13L568.13,134.38L567.63,135.13L567.75,138.25L568.38,140.63L565.63,144.0L564.13,145.75L562.75,147.38Z" />
		<path id="L1611661109218" name="落马洲河套地区" class="qing-map-1616149882495" d="M306.6,125.8L308.2,128.8L313.4,130.8L314.6,134.6L313.2,137.4L307.2,143.4L304.6,143.8L299.4,140.0L301.6,136.8L303.2,133.8L304.2,129.2Z" />
		<path id="L1611661160550" name="元朗区" class="qing-map-1616149882495" d="M299.4,140.0L304.6,143.8L307.2,143.4L313.2,137.4L314.6,138.2L317.0,136.8L317.2,135.0L318.2,133.8L319.8,134.4L321.2,137.0L320.8,140.2L320.8,145.0L322.6,147.8L323.0,150.0L321.4,151.4L320.2,154.8L320.6,161.0L320.4,167.4L322.2,171.4L321.8,175.8L321.0,179.8L318.6,183.6L318.4,191.2L318.2,199.0L320.4,202.0L323.4,202.4L328.2,201.4L332.6,199.6L335.4,198.0L339.2,198.6L341.4,198.6L346.2,196.2L347.4,198.2L349.6,199.6L352.6,201.0L356.2,202.4L360.2,202.6L363.0,202.4L358.2,206.4L358.2,209.4L344.4,229.4L347.6,237.2L350.2,240.8L350.4,246.8L355.8,252.0L359.6,257.4L360.04,263.03L357.2,269.2L350.2,269.2L341.2,275.6L338.8,275.8L335.4,273.8L332.4,273.8L329.2,277.0L323.6,283.6L321.6,283.8L317.4,280.8L315.6,280.6L311.8,282.8L307.8,286.2L303.0,286.8L301.6,287.6L300.6,290.8L298.4,291.6L294.8,291.8L292.6,293.6L292.4,286.0L283.6,285.0L283.2,277.2L285.8,276.8L285.4,272.2L276.2,272.2L276.2,277.2L232.2,277.2L232.2,265.0L226.2,264.4L225.8,256.0L216.0,255.6L211.6,251.6L211.6,248.8L214.2,245.8L211.8,244.0L209.0,244.2L205.4,246.8L201.8,246.6L199.6,245.6L185.2,245.4L185.0,242.6L163.0,242.4L160.0,246.2L158.6,250.0L157.8,252.0L154.6,254.0L152.4,255.8L150.6,258.6L150.2,255.4L148.8,254.2L145.6,253.6L142.4,253.0L145.6,251.6L149.0,251.2L153.8,248.0L156.6,245.4L158.4,241.8L159.2,238.4L160.6,234.4L163.2,231.2L166.0,229.8L166.8,225.2L168.4,223.2L171.4,222.6L174.4,221.6L176.8,220.2L178.8,219.0L182.2,219.0L186.4,217.4L189.8,215.2L192.2,213.0L194.2,209.2L196.4,203.8L199.2,199.8L201.2,197.0L204.0,195.0L206.4,192.8L209.2,189.2L210.8,187.2L212.4,182.6L213.2,179.6L215.6,178.2L216.6,176.4L219.8,175.0L222.8,175.4L226.6,177.4L229.8,178.8L231.6,179.4L231.0,186.4L230.4,190.4L230.2,192.2L231.8,193.4L233.8,194.2L241.2,188.0L242.4,187.8L244.0,189.2L249.8,194.6L250.8,195.4L250.8,198.0L252.6,198.6L254.8,197.4L253.4,193.4L253.0,189.2L253.2,186.6L255.6,185.4L255.0,179.0L255.0,172.8L257.4,170.2L260.0,166.8L257.8,165.0L257.0,163.2L267.2,158.2L269.4,156.4L272.2,158.6L276.6,158.8L281.4,157.4L283.2,154.4L283.6,149.2L285.0,146.2L288.4,142.6L292.6,140.8ZM250.6,191.6L248.4,189.6L247.6,187.8L249.2,186.2L250.4,188.0L250.8,189.6Z" />
		<path id="L1611661565809" name="屯门区" class="qing-map-1616149882495" d="M142.4,253.0L139.8,254.0L138.8,255.6L137.0,256.0L136.0,254.8L130.4,255.2L126.2,256.4L122.2,257.4L121.8,259.8L111.2,271.0L108.2,274.2L108.6,275.8L111.0,276.6L113.4,277.6L115.6,276.2L118.2,278.8L120.8,279.8L122.8,282.8L122.8,286.8L121.8,287.0L122.4,289.8L123.2,291.4L126.0,293.2L128.4,296.2L129.8,298.8L130.0,304.2L127.8,308.0L124.8,308.0L123.4,311.6L124.6,314.0L127.2,316.0L131.4,319.6L137.0,323.8L144.4,329.2L147.2,330.8L149.4,328.4L154.8,329.6L157.8,330.2L161.2,333.2L161.4,331.4L159.2,328.0L158.6,324.0L161.4,323.0L163.4,319.8L166.2,316.6L168.8,315.2L172.8,315.0L178.2,315.8L186.0,316.4L182.6,310.2L183.0,309.2L191.2,305.4L196.6,307.4L196.6,310.2L198.4,311.6L201.8,312.4L204.0,314.4L205.6,317.4L207.4,317.2L208.8,316.0L211.6,319.2L209.2,321.8L210.8,324.2L213.8,324.6L216.0,327.0L217.6,328.0L220.2,328.2L226.6,325.4L230.0,325.2L231.4,327.6L233.0,327.6L235.4,327.4L237.8,329.6L239.2,333.6L242.2,335.4L245.6,336.2L248.2,336.2L250.8,337.2L250.6,331.6L253.4,329.8L256.2,327.0L257.4,324.2L264.0,321.0L263.2,319.8L258.6,319.0L256.2,313.8L253.6,312.2L253.0,310.6L255.0,308.0L257.6,309.2L259.8,308.4L259.8,306.0L261.0,305.6L264.2,305.2L269.2,307.2L270.8,306.2L270.2,302.8L270.4,301.4L272.4,299.0L278.4,301.0L291.8,301.0L291.6,295.2L292.6,293.6L292.4,286.0L283.6,285.0L283.2,277.2L285.8,276.8L285.4,272.2L276.2,272.2L276.2,277.2L232.2,277.2L232.2,265.0L226.2,264.4L225.8,256.0L216.0,255.6L211.6,251.6L211.6,248.8L214.2,245.8L211.8,244.0L209.0,244.2L205.4,246.8L201.8,246.6L199.6,245.6L185.2,245.4L185.0,242.6L163.0,242.4L160.0,246.2L158.6,250.0L157.8,252.0L154.6,254.0L152.4,255.8L150.6,258.6L150.2,255.4L148.8,254.2L145.6,253.6ZM88.7,307.7L86.8,306.9L84.9,306.7L84.0,305.8L83.2,305.4L82.0,304.9L81.1,304.7L80.8,306.6L81.3,307.8L82.7,307.7L84.0,308.0L85.3,309.6L86.2,310.3L86.5,311.9L86.5,312.9L85.5,314.2L84.8,315.2L84.7,318.5L85.9,319.0L86.9,318.2L87.3,316.8L88.0,315.7L87.7,314.3L87.4,313.7L87.6,312.5L88.0,311.5L87.8,310.2L87.9,309.4L89.1,309.3ZM91.5,342.1L92.7,341.2L93.1,340.1L93.5,339.0L91.1,339.2L89.8,341.0ZM95.9,354.0L95.0,353.9L95.0,354.9L96.1,354.8ZM93.6,347.6L91.4,345.5L90.5,345.4L90.5,346.1L93.6,349.0L93.8,350.6L94.6,351.6L95.4,350.9L95.5,349.5L97.1,348.8L96.3,347.8ZM180.9,364.3L180.5,363.4L179.6,363.4L179.7,368.4L180.6,369.1L181.8,368.4L183.5,366.6L182.7,365.7L181.8,365.6ZM198.5,355.5L197.9,357.2L197.1,358.2L197.0,359.0L196.2,359.1L196.6,361.5L197.2,362.6L198.1,361.1L199.1,360.5L199.1,359.6L199.8,359.0L199.5,357.8L200.1,357.0L199.6,356.1L199.7,354.8Z" />
		<path id="L1611662069639" name="荃湾区" class="qing-map-1616149882495" d="M250.8,337.2L250.6,331.6L253.4,329.8L256.2,327.0L257.4,324.2L264.0,321.0L263.2,319.8L258.6,319.0L256.2,313.8L253.6,312.2L253.0,310.6L255.0,308.0L257.6,309.2L259.8,308.4L259.8,306.0L261.0,305.6L264.2,305.2L269.2,307.2L270.8,306.2L270.2,302.8L270.4,301.4L272.4,299.0L278.4,301.0L291.8,301.0L291.6,295.2L292.6,293.6L294.8,291.8L298.4,291.6L300.6,290.8L301.6,287.6L303.0,286.8L307.8,286.2L311.8,282.8L315.6,280.6L317.4,280.8L321.6,283.8L323.6,283.6L329.2,277.0L332.4,273.8L335.4,273.8L338.8,275.8L341.2,275.6L350.2,269.2L357.2,269.2L360.04,263.03L374.4,261.6L379.2,263.8L382.4,262.2L384.6,267.6L396.8,267.6L398.2,266.4L408.6,266.6L404.8,268.8L404.8,272.6L406.8,276.6L407.0,289.0L403.2,292.8L400.8,294.6L399.0,298.0L396.8,302.0L394.2,304.2L390.6,305.2L389.0,305.8L386.6,307.4L382.4,308.6L379.4,306.2L380.4,303.4L380.6,301.4L379.2,301.8L371.8,304.4L372.2,306.0L373.0,308.0L373.0,312.0L372.2,315.6L370.6,318.4L368.4,318.8L366.2,318.2L362.8,317.8L359.2,318.6L357.0,319.2L355.8,322.0L354.6,324.8L352.4,326.8L349.4,328.6L346.4,330.6L344.8,329.2L345.4,324.8L343.4,323.0L341.0,321.0L339.6,318.2L337.8,317.0L335.4,316.8L333.4,318.2L330.2,320.2L326.2,320.8L322.4,321.6L318.0,322.2L315.6,322.4L313.0,321.4L311.2,320.2L308.6,320.4L307.8,321.8L304.8,321.6L302.2,322.4L299.8,324.2L297.4,325.8L295.6,326.6L291.6,326.0L289.2,324.6L285.6,324.4L282.8,324.2L279.8,326.8L276.6,328.6L273.0,329.6L270.6,329.6L267.8,329.8L262.2,332.6ZM213.37,386.62L215.0,384.0L215.63,382.75L215.25,380.88L217.63,379.25L220.13,379.63L224.75,377.13L227.88,374.88L230.13,373.25L231.13,372.38L231.75,370.5L233.5,369.38L235.75,369.13L236.75,368.5L238.25,368.63L240.13,366.88L240.25,364.75L241.0,363.88L242.5,364.38L243.63,365.25L245.13,364.75L245.5,363.0L245.0,362.0L244.25,361.0L244.25,359.38L245.5,360.13L246.63,361.38L246.75,362.88L246.63,365.0L245.38,366.38L244.63,367.63L244.38,369.5L242.25,370.5L242.5,372.13L244.38,372.13L245.25,371.13L246.75,370.38L249.13,367.75L250.63,365.38L253.13,362.75L255.63,361.38L258.25,360.0L260.13,358.63L261.88,356.75L263.0,355.25L265.0,354.38L266.0,354.38L266.38,352.75L267.5,351.75L268.75,351.25L268.63,347.88L269.63,346.75L270.75,347.25L271.88,348.0L274.13,348.0L275.63,348.25L276.38,349.0L277.25,350.75L279.38,351.5L280.75,354.38L282.5,357.88L283.38,359.13L283.13,361.0L282.13,361.75L280.88,361.88L280.63,363.25L281.38,364.38L280.75,365.5L280.75,367.0L282.13,367.38L282.38,368.63L280.63,369.88L280.88,371.88L280.25,372.25L280.5,374.38L280.13,374.88L280.38,375.63L281.13,377.13L281.25,378.38L280.25,378.25L279.63,377.13L278.63,378.75L277.25,380.75L276.25,381.25L274.88,381.25L274.38,382.38L276.0,384.13L273.0,387.75L233.38,387.13L230.75,385.88L227.5,385.75L225.38,387.25L222.88,388.25L221.12,386.63ZM287.38,341.88L289.5,340.63L289.5,338.75L290.88,338.75L291.25,337.38L292.38,338.0L291.63,336.13L290.5,336.13L289.75,337.13L288.38,337.63L287.5,336.5L284.75,336.38L284.63,337.25L282.5,337.25L282.5,338.38L283.25,340.13L283.25,341.75L280.5,344.5L282.13,345.63L283.38,346.5L283.5,349.38L286.25,351.75L287.88,351.38L289.0,350.75L290.88,350.25L291.88,349.88L293.38,348.63L291.63,347.88L290.88,346.75L291.13,344.63L288.0,344.88ZM289.63,356.63L288.5,355.88L288.63,354.25L290.75,355.5ZM295.75,344.38L293.88,344.38L294.0,342.88L295.25,342.88Z" />
		<path id="L1611662612760" name="葵青区" class="qing-map-1616149882495" d="M371.83,354.5L372.33,353.33L375.33,354.0L377.33,355.33L379.5,353.33L382.67,355.17L384.0,355.67L386.0,354.5L383.83,352.5L384.49,350.01L383.0,346.5L381.83,344.67L379.33,344.0L378.67,342.33L378.0,337.17L378.33,333.0L379.5,331.0L382.17,328.5L383.17,326.5L383.0,325.0L381.0,322.67L381.83,320.67L383.33,318.67L383.67,317.0L383.0,314.67L382.5,312.83L385.0,311.67L386.83,310.33L386.6,307.4L382.4,308.6L379.4,306.2L380.4,303.4L380.6,301.4L379.2,301.8L371.8,304.4L372.2,306.0L373.0,308.0L373.0,312.0L372.2,315.6L370.6,318.4L368.4,318.8L366.2,318.2L362.8,317.8L359.2,318.6L357.0,319.2L355.8,322.0L354.6,324.8L352.4,326.8L349.4,328.6L346.4,330.6L347.63,333.88L348.0,335.5L349.13,337.63L350.38,338.38L350.0,340.13L348.9,341.2L347.5,340.2L347.2,341.0L349.4,345.9L354.0,344.9L358.2,357.2L364.0,355.8L365.2,358.6L359.3,361.1L361.3,368.5L362.4,368.7L369.6,366.6L370.7,367.3L371.5,370.4L357.9,375.0L357.1,376.5L357.3,378.0L360.0,379.6L362.9,381.5L365.4,382.2L367.2,382.1L366.3,380.3L365.4,378.6L366.0,376.9L367.8,376.4L371.0,375.3L372.4,372.7L373.6,371.3L374.6,370.7L376.4,369.8L378.7,367.9L378.6,365.7L376.6,365.4L375.8,364.3L375.0,362.4L370.5,361.3L368.6,360.4L367.9,358.5L367.6,356.5L369.9,356.5ZM351.13,366.25L351.0,365.0L341.38,337.88L341.13,335.25L341.5,331.38L339.0,327.5L331.5,327.13L329.13,328.75L327.38,329.13L320.25,328.63L317.75,328.88L315.38,329.75L310.38,331.88L308.88,332.63L308.13,333.63L308.63,335.63L308.88,336.38L308.88,338.38L309.0,340.13L310.0,341.5L311.5,342.0L313.25,342.38L313.13,344.0L314.0,345.25L314.25,346.25L313.88,347.63L313.25,348.13L314.25,350.13L316.13,350.75L317.63,351.0L319.5,350.88L320.63,352.38L321.75,353.38L320.38,354.25L320.0,355.63L320.63,356.5L321.88,356.38L323.38,358.0L322.13,359.5L320.88,361.13L320.13,363.25L319.63,365.5L319.38,367.0L320.75,370.13L321.63,372.13L326.0,372.38L326.63,370.88L328.88,370.25L331.88,370.13L333.5,369.75L334.88,369.88L336.38,370.25L337.88,370.75L347.13,371.0Z" />
		<path id="L1611663343433" name="大埔区" class="qing-map-1616149882495" d="M468.75,210.25L469.13,208.75L469.25,206.88L467.75,207.25L466.75,208.88L467.13,210.13ZM471.5,223.0L470.5,221.13L473.25,219.75L474.25,218.0L475.13,215.38L476.88,213.88L478.13,212.88L480.25,212.75L481.5,214.0L480.63,215.75L479.0,218.13L477.63,219.25L477.0,220.63L476.38,221.5L474.75,221.63ZM703.88,106.5L702.88,96.75L698.63,99.13L697.25,102.75L698.38,104.0L698.63,106.38L699.13,110.38L700.38,112.13L702.5,112.0L708.5,115.38L712.0,115.88L715.5,113.0L713.75,111.0L712.13,110.63L710.5,110.88ZM624.38,165.0L622.63,165.88L620.0,163.0L621.13,159.13L621.88,157.5L623.88,157.25L627.13,157.75L626.5,159.38ZM592.5,188.75L591.25,188.38L591.5,185.13L592.88,185.63L593.38,187.38ZM623.13,196.0L622.0,193.75L621.25,191.88L620.5,190.38L620.38,188.75L619.5,187.13L617.88,185.0L618.88,183.5L619.88,183.5L623.5,179.38L624.38,179.13L626.25,179.13L628.5,181.13L629.5,183.63L628.25,185.5L628.5,187.75L630.5,189.0L631.75,190.0L631.88,192.88L631.63,195.0L630.75,195.88L629.75,196.13L628.88,198.25L628.75,201.13L626.25,203.63L624.63,203.5L623.13,202.13L623.38,199.25L623.75,197.0ZM633.25,230.63L632.0,228.25L631.5,226.5L631.63,224.88L633.75,223.88L635.75,222.5L635.63,216.5L632.88,214.75L632.13,212.38L627.38,209.75L626.0,209.75L626.0,211.0L625.75,216.0L626.25,216.88L627.13,218.38L626.5,219.88L622.88,219.75L621.25,221.13L619.88,222.38L618.13,222.0L616.38,223.13L617.5,224.63L617.88,225.88L618.0,227.75L619.75,227.25L620.63,228.63L619.75,229.88L619.25,231.25L619.63,233.25L620.25,234.75L619.75,236.38L619.0,237.88L618.63,240.13L618.38,242.75L618.13,245.88L618.25,247.88L619.63,249.88L620.13,251.63L619.5,252.63L618.38,252.63L618.38,253.88L619.25,255.13L618.38,256.0L616.75,256.38L614.88,255.75L613.0,255.38L611.13,254.88L610.5,254.0L611.0,252.5L612.38,251.38L613.88,250.75L613.63,248.75L612.63,246.75L612.63,243.88L609.88,239.75L610.38,237.5L609.13,236.25L605.5,238.5L605.5,241.5L604.38,242.63L604.38,244.13L603.0,245.38L601.5,244.63L600.75,244.75L601.25,246.38L602.88,247.75L603.38,248.63L601.5,249.5L600.25,249.0L598.63,248.88L597.5,249.5L595.88,249.25L594.25,247.75L595.88,247.5L597.13,247.38L598.13,245.38L598.25,244.13L598.25,242.0L598.88,241.0L598.0,239.38L596.5,237.88L593.75,235.25L595.75,233.63L597.75,233.13L599.0,233.25L600.5,233.75L602.88,231.25L603.38,230.25L603.25,226.38L600.5,224.63L600.25,222.63L600.25,219.63L599.25,218.25L599.5,214.0L600.13,213.5L599.38,212.38L600.38,211.13L600.25,209.88L599.38,208.38L599.5,206.38L601.13,206.38L603.25,206.5L605.63,208.5L609.13,208.5L609.38,207.38L610.0,207.0L610.13,205.38L608.38,202.75L607.88,200.63L606.38,199.13L606.5,196.25L606.38,194.5L605.63,193.25L605.25,191.0L605.0,188.88L604.0,187.75L602.25,189.25L601.25,190.75L601.0,192.63L601.13,195.75L601.0,197.38L600.75,198.75L599.75,199.75L600.25,200.63L599.0,201.38L598.0,202.13L598.13,204.13L597.25,205.38L596.38,206.38L595.5,207.13L594.13,207.13L593.25,206.13L591.75,206.13L591.5,207.63L590.63,208.38L588.88,208.38L587.38,207.13L587.38,204.5L588.88,201.88L589.63,200.25L590.13,198.38L590.25,197.0L592.38,196.88L592.25,195.0L591.13,193.63L589.5,194.13L588.75,195.75L587.38,196.5L585.63,196.5L583.38,195.5L582.63,193.5L583.13,191.0L582.75,188.75L581.5,186.13L580.25,187.13L579.63,188.75L579.25,189.88L576.25,189.88L575.13,190.88L574.0,192.38L573.0,194.13L571.25,196.63L568.38,196.38L566.88,197.5L565.38,199.38L563.75,201.38L562.63,204.0L562.38,205.38L560.38,207.25L560.75,209.25L561.75,211.0L561.5,214.25L560.0,216.63L557.25,216.88L556.38,214.5L554.13,215.0L552.88,215.25L550.25,214.88L549.13,213.13L548.0,213.0L547.88,219.25L548.63,220.75L547.5,221.88L545.63,221.88L544.5,220.13L543.0,218.63L541.5,218.38L539.63,219.88L537.75,221.5L535.63,224.5L533.5,227.5L532.5,228.38L532.25,230.0L533.5,230.63L534.5,230.63L535.63,230.0L537.38,230.0L537.88,231.38L537.38,233.13L536.63,234.38L537.0,236.88L538.38,240.5L539.75,244.25L540.88,246.75L543.63,247.63L544.5,248.25L544.0,249.13L543.25,249.75L543.0,251.5L541.88,252.0L539.75,253.75L530.75,261.25L530.25,262.13L530.25,270.13L525.63,264.38L523.5,262.88L522.0,260.75L521.0,257.5L523.5,255.38L524.25,252.38L524.88,250.13L524.38,246.5L522.88,243.63L520.75,242.5L516.88,242.38L514.13,243.13L511.0,243.63L505.63,244.0L503.88,241.25L499.25,243.13L498.88,244.63L497.25,246.88L497.25,249.25L499.0,252.25L498.88,256.25L498.0,262.88L498.13,264.5L500.75,268.63L502.38,270.38L502.25,274.38L503.5,277.13L504.38,279.63L504.25,281.63L503.0,283.63L502.63,286.5L502.5,289.5L504.25,289.38L508.75,284.75L525.75,285.0L530.38,279.88L536.88,279.88L542.5,272.5L542.63,266.13L545.88,262.88L553.0,263.88L561.63,264.5L563.63,262.0L564.0,259.0L563.88,255.25L564.25,252.0L565.63,250.5L569.5,249.63L572.5,249.75L576.38,250.88L580.13,252.63L582.38,254.25L583.75,258.13L584.75,260.13L587.0,262.88L590.88,264.0L597.38,263.75L600.38,260.0L601.13,259.75L608.0,268.63L609.25,269.38L615.0,272.13L616.5,275.5L619.5,275.25L622.0,273.38L624.63,270.75L627.0,268.0L629.38,264.5L631.0,261.25L631.88,257.63L632.5,254.5L632.38,250.13L631.88,247.5L632.5,244.38L628.88,240.38L629.25,237.38L629.5,233.63L629.13,231.88ZM483.83,200.0L488.63,205.13L488.88,206.0L490.0,206.25L497.25,214.25L498.63,215.5L500.75,214.25L501.75,210.75L503.13,209.88L504.63,209.63L506.13,210.5L506.88,212.5L508.5,213.38L510.25,212.38L511.13,210.5L512.25,209.38L513.38,207.88L514.5,206.63L515.63,205.63L516.13,204.5L514.5,203.88L513.13,203.88L511.38,204.13L510.25,203.13L512.13,200.63L514.13,198.38L516.38,196.88L518.5,195.88L520.0,195.75L521.38,194.88L522.75,193.0L523.88,192.75L525.38,193.75L527.38,194.13L530.63,193.25L532.0,192.0L533.13,191.88L534.75,191.88L536.25,191.38L538.88,189.13L541.25,186.63L542.88,186.0L543.0,183.63L543.63,183.13L544.38,181.13L546.0,179.13L544.25,176.75L543.0,175.88L541.5,175.88L540.63,178.38L539.63,180.25L537.88,178.5L537.75,176.88L540.0,174.88L540.13,171.88L538.88,171.25L537.13,171.63L535.0,171.63L532.88,172.5L530.0,173.5L527.5,174.5L524.88,174.63L521.88,174.63L519.63,176.25L518.63,177.63L518.13,179.5L517.75,180.75L516.75,182.13L515.63,182.13L513.88,180.88L513.13,179.5L511.75,178.38L509.25,177.38L505.75,176.63L502.75,176.0L501.13,175.75L493.75,171.63L493.25,170.5L492.25,168.0L492.63,166.88L490.75,165.13L490.0,165.63L490.38,168.25L490.63,171.38L491.63,173.75L491.5,177.25L493.13,179.13L492.5,181.25L491.25,183.75L489.38,187.0L488.5,189.13L486.75,189.88L486.75,191.63L484.83,193.83L484.0,195.33L483.33,197.33L483.17,199.5L480.0,200.63L479.88,197.38L479.38,196.0L475.88,195.75L472.5,197.75L470.75,199.25L469.13,200.13L466.88,200.63L465.63,201.38L463.75,200.63L463.75,198.38L459.5,194.38L458.0,194.0L456.13,197.0L455.88,199.25L455.13,200.88L454.0,202.5L454.13,204.75L454.25,206.25L452.75,207.63L452.5,210.75L454.88,212.38L457.13,213.13L459.63,213.63L461.5,213.88L463.25,214.75L463.5,215.38L462.13,215.75L461.63,217.13L460.5,218.0L461.75,220.13L462.75,220.75L464.5,220.63L465.88,221.25L467.13,221.75L469.13,221.25L469.63,221.88L468.88,223.13L467.0,223.5L465.0,223.13L462.88,223.0L463.0,224.5L461.75,225.63L460.13,224.38L458.5,223.5L456.63,223.25L454.88,222.75L455.13,220.88L457.75,218.63L459.0,217.38L458.38,215.5L456.25,214.25L454.25,214.13L450.75,214.25L448.25,212.13L445.5,210.75L443.75,211.5L441.75,213.38L440.63,215.25L441.38,218.38L439.38,220.25L436.25,221.13L434.13,221.5L432.38,221.0L428.25,220.13L424.5,219.75L423.13,220.5L421.63,221.88L421.0,223.0L419.25,223.5L418.75,226.38L419.75,229.13L421.75,231.13L425.13,233.38L427.63,233.88L430.0,235.0L434.25,234.88L435.75,234.75L437.75,235.5L441.75,237.63L455.63,248.38L453.75,250.25L451.5,251.75L449.5,252.13L445.88,252.0L444.75,252.88L443.38,255.75L442.75,258.25L441.13,259.75L435.13,260.13L427.25,260.0L427.25,263.5L414.0,263.38L413.63,267.0L408.6,266.6L398.2,266.4L396.8,267.6L384.6,267.6L382.4,262.2L379.2,263.8L374.4,261.6L360.04,263.03L359.6,257.4L355.8,252.0L350.4,246.8L350.2,240.8L347.6,237.2L344.4,229.4L358.2,209.4L358.2,206.4L363.0,202.4L365.2,200.8L368.0,200.8L371.8,198.8L376.0,196.2L379.2,193.8L383.2,191.6L386.4,187.8L389.4,184.8L389.0,176.2L394.8,176.0L402.6,176.0L406.4,179.8L411.2,179.8L413.8,176.4L415.6,173.6L421.8,167.6L429.4,168.0L436.4,168.6L439.2,170.8L445.2,171.0L447.6,172.8L450.8,174.6L455.2,174.6L460.0,174.2L469.2,176.4L471.0,174.0L473.4,172.4L476.0,170.2L477.4,168.4L478.8,165.0L481.8,163.6L483.4,161.6L485.0,159.2L486.8,157.2L491.2,157.0L491.6,159.8L494.8,162.6L496.4,165.8L498.8,168.6L502.2,170.8L515.6,170.6L517.0,169.2L519.4,167.8L523.4,167.2L528.6,166.6L532.0,165.0L535.6,164.2L538.6,165.2L543.2,167.4L547.0,169.4L550.8,171.4L554.2,172.6L557.2,173.4L560.0,173.4L564.8,172.0L567.8,170.2L572.8,167.8L576.8,163.0L580.6,160.8L584.2,159.4L588.2,157.8L591.8,155.4L596.2,150.6L596.88,153.0L595.75,154.75L594.0,155.88L591.0,157.5L589.63,158.25L588.5,159.38L587.88,160.63L585.63,161.38L584.5,162.13L583.75,163.75L582.63,165.5L580.75,166.75L579.13,168.13L578.13,168.88L577.63,169.88L577.75,171.38L576.38,172.0L575.88,171.5L574.63,173.13L573.88,174.38L573.0,175.5L570.88,176.38L570.25,175.63L570.25,173.88L567.25,175.75L565.25,177.13L564.5,178.5L565.13,179.25L566.38,179.25L565.88,180.38L564.38,182.0L562.38,183.5L559.88,185.13L558.0,186.13L557.0,186.0L555.25,186.88L553.63,187.13L551.75,186.75L550.38,187.63L549.13,189.5L548.25,191.0L545.5,192.13L543.75,192.75L542.13,193.5L539.75,194.38L538.25,195.13L535.88,196.25L534.63,197.25L529.0,196.88L526.25,197.88L523.38,199.75L523.13,201.25L524.25,201.5L525.5,201.0L526.63,199.88L528.25,200.38L527.75,201.5L525.88,202.63L524.25,202.88L522.25,203.0L520.0,204.63L517.88,206.38L515.5,208.38L514.5,210.25L512.88,212.38L511.13,213.5L509.75,215.5L508.38,216.63L505.75,217.63L503.75,218.25L502.25,217.63L500.63,217.88L498.88,218.88L497.38,220.88L496.88,222.38L496.0,220.5L496.38,218.25L497.0,216.75L482.5,201.17L479.83,199.83Z" />
		<path id="L1611711188671" name="黄大仙区" class="qing-map-1616149882495" d="M422.83,343.67L426.0,342.67L432.67,342.17L433.5,340.33L434.67,339.0L436.67,338.83L439.67,337.83L441.67,337.0L453.0,337.33L455.83,336.67L458.83,335.33L462.83,333.17L468.67,333.0L468.33,337.17L468.33,342.17L468.83,347.67L469.5,353.33L470.17,357.17L470.83,362.0L467.0,362.67L465.5,362.5L462.67,364.33L459.83,365.0L457.33,362.5L456.17,362.0L453.5,362.83L452.17,363.83L449.67,362.17L447.83,361.17L444.67,361.67L441.0,363.83L438.5,365.67L436.33,366.67L434.0,363.67L430.17,363.33L428.5,360.17L427.67,357.33L425.17,354.83L425.83,352.0L425.0,350.67L423.33,349.33L422.83,347.33Z" />
		<path id="L1611711304367" name="深水埗区" class="qing-map-1616149882495" d="M384.49,350.01L383.83,352.5L386.0,354.5L384.0,355.67L382.67,355.17L379.5,353.33L377.33,355.33L375.33,354.0L372.33,353.33L371.83,354.5L369.9,356.5L367.6,356.5L367.9,358.5L368.6,360.4L370.5,361.3L375.0,362.4L375.8,364.3L376.6,365.4L378.6,365.7L378.7,367.9L376.4,369.8L374.6,370.7L373.6,371.3L372.4,372.7L371.0,375.3L367.8,376.4L366.0,376.9L365.4,378.6L366.3,380.3L367.2,382.1L368.67,381.33L369.0,380.33L371.0,380.83L371.33,380.0L373.67,380.33L374.33,381.17L376.5,381.17L378.83,383.67L380.83,381.67L380.83,379.83L383.5,377.67L382.83,375.67L380.33,377.5L378.0,377.67L377.33,375.17L378.33,374.17L377.33,372.5L376.17,372.67L376.0,371.33L377.5,370.0L379.5,370.17L381.33,368.67L383.5,369.5L386.17,370.83L388.0,372.17L390.17,374.5L390.67,376.0L392.67,374.17L396.33,376.33L398.0,376.17L397.17,373.67L400.67,371.67L414.17,371.67L415.67,369.17L418.67,366.5L418.5,360.83L414.0,354.83L414.17,349.33L413.17,347.17L407.0,347.33L404.0,345.33L401.67,344.83L398.83,346.67L397.33,347.67L392.17,347.17L389.0,346.67L388.0,348.5Z" />
		<path id="L1611711545449" name="沙田区" class="qing-map-1616149882495" d="M455.63,248.38L453.75,250.25L451.5,251.75L449.5,252.13L445.88,252.0L444.75,252.88L443.38,255.75L442.75,258.25L441.13,259.75L435.13,260.13L427.25,260.0L427.25,263.5L414.0,263.38L413.63,267.0L408.6,266.6L404.8,268.8L404.8,272.6L406.8,276.6L407.0,289.0L403.2,292.8L400.8,294.6L399.0,298.0L396.8,302.0L394.2,304.2L390.6,305.2L389.0,305.8L386.6,307.4L386.83,310.33L385.0,311.67L382.5,312.83L383.0,314.67L383.67,317.0L383.33,318.67L381.83,320.67L381.0,322.67L383.0,325.0L383.17,326.5L382.17,328.5L379.5,331.0L378.33,333.0L378.0,337.17L378.67,342.33L379.33,344.0L381.83,344.67L383.0,346.5L384.49,350.01L388.0,348.5L389.0,346.67L392.17,347.17L397.33,347.67L398.83,346.67L401.67,344.83L404.0,345.33L407.0,347.33L413.17,347.17L415.17,344.83L417.83,344.0L420.5,344.17L422.83,343.67L426.0,342.67L432.67,342.17L433.5,340.33L434.67,339.0L436.67,338.83L439.67,337.83L441.67,337.0L453.0,337.33L455.83,336.67L458.83,335.33L462.83,333.17L468.67,333.0L471.5,333.0L470.67,328.83L471.67,324.83L473.17,321.17L474.83,317.67L480.17,317.5L483.33,316.17L486.67,314.17L490.17,311.17L493.0,307.5L495.17,304.33L497.33,301.0L497.67,298.17L505.0,298.5L505.0,296.5L502.83,294.33L502.5,289.5L502.63,286.5L503.0,283.63L504.25,281.63L504.38,279.63L503.5,277.13L502.25,274.38L502.38,270.38L500.75,268.63L498.13,264.5L498.0,262.88L498.88,256.25L499.0,252.25L497.25,249.25L497.25,246.88L498.88,244.63L499.25,243.13L494.83,245.17L493.0,243.0L495.33,241.33L496.83,240.33L496.0,239.17L494.0,239.67L491.83,238.67L489.5,237.83L487.67,238.17L486.33,238.67L486.33,240.5L487.67,241.83L487.5,244.5L485.0,246.17L482.83,247.5L481.5,248.5L479.17,248.17L476.83,248.5L474.17,250.67L472.17,253.33L471.17,256.0L470.33,258.83L469.33,262.67L468.67,266.17L467.33,270.17L466.33,272.83L464.5,274.0L462.0,272.17L458.5,269.67L459.5,264.83L460.0,259.83L460.0,254.67L460.17,252.5Z" />
		<path id="L1611711807015" name="油尖旺区" class="qing-map-1616149882495" d="M390.67,376.0L392.67,374.17L396.33,376.33L398.0,376.17L397.17,373.67L400.67,371.67L414.17,371.67L413.0,374.0L413.33,377.17L415.5,381.83L417.17,385.5L418.83,389.17L420.5,392.67L422.83,396.33L425.33,399.0L427.33,399.17L427.17,401.67L429.0,402.0L429.0,404.33L426.5,404.5L424.0,404.33L422.83,403.67L421.17,405.33L419.17,406.83L417.67,407.83L417.17,410.0L416.0,411.5L413.83,411.83L411.33,411.17L409.83,411.0L408.83,408.83L408.17,407.33L408.67,404.67L408.0,403.0L405.0,402.67L402.67,403.33L400.17,403.5L397.17,405.17L395.0,405.17L393.33,404.17L393.17,402.0L393.0,400.67L394.5,399.5L396.83,397.83L399.0,396.83L399.17,389.83L399.0,384.67L398.0,383.5L395.83,383.67L394.17,383.0L393.5,382.17L393.17,379.0L392.5,377.67L390.83,377.33Z" />
		<path id="L1611711990802" name="九龙城区" class="qing-map-1616149882495" d="M444.5,380.33L451.83,387.0L453.5,384.5L445.17,377.16L443.5,379.33L441.17,380.0L439.0,379.83L437.83,381.17L436.83,382.17L435.67,384.67L434.67,387.33L434.33,389.33L435.17,391.67L436.5,393.83L436.5,397.17L436.33,400.17L432.83,402.0L429.0,404.33L429.0,402.0L427.17,401.67L427.33,399.17L425.33,399.0L422.83,396.33L420.5,392.67L418.83,389.17L417.17,385.5L415.5,381.83L413.33,377.17L413.0,374.0L414.17,371.67L415.67,369.17L418.67,366.5L418.5,360.83L414.0,354.83L414.17,349.33L413.17,347.17L415.17,344.83L417.83,344.0L420.5,344.17L422.83,343.67L422.83,347.33L423.33,349.33L425.0,350.67L425.83,352.0L425.17,354.83L427.67,357.33L428.5,360.17L430.17,363.33L434.0,363.67L436.33,366.67L438.5,365.67L441.0,363.83L444.67,361.67L447.83,361.17L449.67,362.17L449.83,369.5L446.0,374.33L446.5,375.33L448.17,375.17L448.83,377.5L456.0,384.17L455.33,386.17L454.33,388.17L458.0,391.67L459.17,391.67L461.0,393.83L461.33,396.0L462.67,397.17L461.17,399.5L442.33,380.83L440.5,379.33Z" />
		<path id="L1611712215153" name="观塘区" class="qing-map-1616149882495" d="M470.83,362.0L467.0,362.67L465.5,362.5L462.67,364.33L459.83,365.0L457.33,362.5L456.17,362.0L453.5,362.83L452.17,363.83L449.67,362.17L449.83,369.5L446.0,374.33L446.5,375.33L448.17,375.17L448.83,377.5L456.0,384.17L455.33,386.17L456.5,386.67L458.0,386.0L459.17,385.33L461.83,387.83L465.67,391.5L467.83,395.33L470.0,397.83L472.5,400.83L475.0,401.5L475.5,403.67L477.17,405.67L484.0,405.67L484.17,407.33L482.33,408.83L481.17,410.5L482.5,412.17L484.5,414.33L485.0,417.0L488.33,419.0L490.67,420.17L491.83,419.33L491.17,418.0L490.67,415.17L491.17,412.33L493.0,410.5L494.67,409.17L494.67,406.33L494.33,403.17L491.83,400.33L490.33,398.67L489.67,396.83L489.5,393.67L490.5,392.0L492.83,390.0L494.33,388.0L494.5,385.83L492.17,384.83L492.0,380.5L491.83,378.17L489.5,378.67L487.67,379.83L486.0,378.17L485.17,376.83L482.83,376.83L481.67,376.0L480.33,373.83L479.17,370.83L478.17,368.0L476.83,363.83L476.5,362.0Z" />
		<path id="L1611712387478" name="中西区" class="qing-map-1616149882495" d="M345.0,421.0L344.75,423.5L348.0,423.75L348.5,422.88L347.25,421.13ZM350.63,435.87L349.88,433.88L350.0,431.88L350.38,429.38L352.38,427.5L354.0,425.63L356.88,424.75L360.25,423.5L363.13,422.38L365.13,421.5L366.63,420.0L368.13,418.38L370.5,417.13L373.25,416.38L375.63,415.88L378.13,415.75L380.75,415.88L384.38,415.75L387.5,416.38L390.13,417.38L392.0,417.88L394.13,418.5L396.63,419.0L398.75,419.75L400.5,421.0L400.88,422.13L402.75,423.38L403.5,423.88L405.13,424.38L407.25,424.25L407.38,432.13L406.5,434.13L405.75,436.13L405.63,438.13L406.13,440.13L406.63,441.38L406.5,445.63L404.75,448.88L403.75,451.25L403.0,452.25L402.88,453.63L401.63,453.38L400.0,454.0L398.13,454.63L396.63,454.25L395.25,453.38L394.38,452.75L393.63,454.25L393.25,455.5L391.63,457.25L389.5,458.88L385.25,461.5L382.75,461.0L382.38,457.5L383.5,456.13L384.25,454.88L382.63,453.25L380.75,452.13L377.63,443.0L375.25,441.38L373.63,439.13L372.38,438.0L370.38,436.88L367.25,434.75L365.5,433.5L364.25,433.5L361.25,435.0L358.5,436.0L356.5,436.63L354.88,436.38L352.63,434.88Z" />
		<path id="L1611712600053" name="湾仔区" class="qing-map-1616149882495" d="M402.88,453.63L403.0,452.25L403.75,451.25L404.75,448.88L406.5,445.63L406.63,441.38L406.13,440.13L405.63,438.13L405.75,436.13L406.5,434.13L407.38,432.13L407.25,424.25L409.63,425.5L410.5,425.0L411.88,425.0L413.25,422.38L414.38,422.75L415.63,423.63L416.75,424.63L418.0,424.38L419.75,424.38L421.5,424.25L422.75,423.75L423.75,423.38L423.88,425.0L424.75,425.63L428.25,425.5L430.0,428.63L431.75,427.75L433.75,427.0L435.63,426.88L437.0,430.13L438.38,432.25L439.75,433.88L441.63,435.75L444.38,435.63L445.63,433.63L446.88,431.63L448.0,432.0L448.88,433.13L450.13,435.13L451.13,436.88L452.0,439.13L450.88,440.75L448.5,442.75L447.0,443.25L444.75,443.75L443.0,444.5L442.25,446.75L442.0,449.63L441.75,454.0L440.0,455.38L435.75,455.63L432.75,455.75L430.88,456.75L429.13,457.75L428.0,458.0L426.0,457.5L424.38,456.75L422.13,456.0L420.0,456.13L418.25,456.63L418.13,458.63L415.38,458.38L413.0,457.5L410.0,455.75L406.75,455.38L405.0,454.75Z" />
		<path id="L1611712759594" name="东区" class="qing-map-1616149882495" d="M441.75,454.0L442.0,449.63L442.25,446.75L443.0,444.5L444.75,443.75L447.0,443.25L448.5,442.75L450.88,440.75L452.0,439.13L451.13,436.88L450.13,435.13L448.88,433.13L448.0,432.0L446.88,431.63L445.63,433.63L444.38,435.63L441.63,435.75L439.75,433.88L438.38,432.25L437.0,430.13L435.63,426.88L433.75,427.0L431.75,427.75L430.0,428.63L428.25,425.5L424.75,425.63L423.88,425.0L423.75,423.38L425.25,423.25L426.13,424.5L427.25,423.25L428.13,423.13L428.75,422.25L429.75,422.0L431.25,421.63L432.0,420.25L431.63,419.13L432.38,418.63L433.63,417.5L434.75,416.38L435.5,416.38L437.5,414.38L438.38,413.38L440.38,412.88L442.25,412.38L443.88,412.13L446.5,412.25L448.88,412.25L450.63,412.25L452.75,412.88L454.75,413.38L456.38,413.63L458.13,414.38L460.5,415.63L461.5,416.25L463.0,416.25L463.88,416.75L465.38,416.75L466.25,417.63L467.88,417.88L471.0,420.75L472.75,422.0L472.88,423.38L473.38,424.63L477.75,425.0L479.13,424.38L480.25,423.88L481.88,423.38L483.75,423.38L486.13,425.38L488.38,427.5L489.63,429.38L490.0,431.0L490.88,433.0L492.0,434.38L493.0,435.88L492.63,437.75L491.75,439.38L491.75,440.75L492.88,442.25L494.63,441.75L495.63,441.63L495.63,438.75L496.63,439.63L497.25,441.25L498.0,442.25L499.0,441.63L499.88,441.75L507.0,448.75L507.88,449.5L506.75,450.63L507.0,453.88L507.5,456.25L506.88,456.63L507.0,459.25L506.38,459.88L506.63,460.88L505.5,461.88L505.38,464.88L504.5,465.75L503.38,465.0L501.75,464.88L501.0,466.5L500.13,467.5L497.5,460.0L495.13,460.0L493.25,458.88L491.0,457.38L488.88,456.13L486.75,455.38L485.5,455.38L483.5,456.5L482.0,457.5L480.75,457.88L478.75,456.75L477.63,455.75L468.25,455.63L466.0,455.13L463.63,454.38L461.75,453.63L459.63,452.75L458.13,452.75L457.13,454.25L455.88,455.63L454.13,455.88L452.75,455.63L451.38,454.63L450.0,453.63L446.75,453.25L444.13,453.88Z" />
		<path id="L1611713230365" name="南区" class="qing-map-1616149882495" d="M350.63,435.87L352.63,434.88L354.88,436.38L356.5,436.63L358.5,436.0L361.25,435.0L364.25,433.5L365.5,433.5L367.25,434.75L370.38,436.88L372.38,438.0L373.63,439.13L375.25,441.38L377.63,443.0L380.75,452.13L382.63,453.25L384.25,454.88L383.5,456.13L382.38,457.5L382.75,461.0L385.25,461.5L389.5,458.88L391.63,457.25L393.25,455.5L393.63,454.25L394.38,452.75L395.25,453.38L396.63,454.25L398.13,454.63L400.0,454.0L401.63,453.38L402.88,453.63L405.0,454.75L406.75,455.38L410.0,455.75L413.0,457.5L415.38,458.38L418.13,458.63L418.25,456.63L420.0,456.13L422.13,456.0L424.38,456.75L426.0,457.5L428.0,458.0L429.13,457.75L430.88,456.75L432.75,455.75L435.75,455.63L440.0,455.38L441.75,454.0L444.13,453.88L446.75,453.25L450.0,453.63L451.38,454.63L452.75,455.63L454.13,455.88L455.88,455.63L457.13,454.25L458.13,452.75L459.63,452.75L461.75,453.63L463.63,454.38L466.0,455.13L468.25,455.63L477.63,455.75L478.75,456.75L480.75,457.88L482.0,457.5L483.5,456.5L485.5,455.38L486.75,455.38L488.88,456.13L491.0,457.38L493.25,458.88L495.13,460.0L497.5,460.0L500.13,467.5L498.63,468.0L497.38,468.38L497.13,470.5L498.0,472.13L498.88,473.5L501.0,474.75L501.5,476.13L501.88,478.0L503.13,479.38L504.5,480.5L504.5,482.75L503.5,484.25L502.63,485.0L503.25,486.63L505.25,488.13L506.5,489.0L507.88,488.63L509.63,487.88L511.75,487.88L512.5,488.25L512.38,489.13L510.88,489.25L509.5,489.25L508.25,489.63L506.63,490.13L505.38,490.5L503.88,490.13L503.0,490.13L502.13,491.63L501.75,493.0L502.75,494.63L504.13,496.63L506.38,500.38L506.25,503.0L506.5,505.5L506.75,508.0L506.88,509.13L506.0,510.63L507.0,511.5L508.13,511.75L510.0,511.25L510.38,512.63L511.0,514.0L512.13,514.0L513.63,514.5L513.5,515.88L512.88,517.13L513.5,518.63L512.5,519.0L511.38,517.75L512.0,516.25L511.75,515.38L510.88,515.38L510.0,516.25L508.88,515.5L507.75,514.75L506.5,514.88L506.25,516.38L505.38,517.0L504.13,516.0L503.13,515.13L501.88,515.5L500.25,516.13L499.0,516.75L496.0,517.25L494.63,516.5L493.13,515.5L491.75,514.25L491.0,513.0L491.88,511.75L493.0,511.13L493.13,510.25L492.75,508.38L492.5,506.75L492.13,505.25L491.13,503.25L490.5,502.0L489.5,501.5L488.0,501.75L486.63,501.25L485.5,500.0L484.88,498.75L485.0,497.25L485.63,496.25L485.63,494.63L485.5,492.63L485.25,490.5L484.75,488.0L484.13,485.75L483.38,483.75L482.88,482.13L483.25,481.0L483.38,479.13L483.38,478.0L482.88,476.5L480.75,476.5L479.38,475.75L477.88,474.75L477.13,473.75L475.63,473.63L474.0,473.88L473.13,473.13L473.25,471.88L473.0,470.38L472.63,469.13L471.63,468.75L470.75,470.0L471.0,472.25L471.38,473.75L471.25,476.13L471.88,477.5L473.5,478.5L475.63,479.0L476.88,480.13L477.13,482.13L477.75,484.63L478.0,487.25L476.88,489.0L474.75,488.88L473.13,488.25L472.13,486.75L471.5,485.5L470.13,485.13L469.63,486.25L469.25,487.75L468.0,489.25L466.25,490.0L465.25,490.5L465.13,492.13L463.75,493.25L462.13,494.25L461.5,495.38L460.75,497.63L460.75,499.75L461.88,502.0L464.25,504.25L466.75,505.25L468.63,505.63L469.25,507.0L469.63,509.13L468.63,509.63L467.5,510.5L467.5,512.0L466.25,513.13L465.0,513.25L465.38,515.88L466.25,517.0L466.25,519.25L468.5,522.0L470.13,524.13L471.13,526.25L470.88,528.5L469.88,530.0L467.63,530.63L465.0,531.0L462.63,531.25L460.0,531.25L458.13,529.63L457.63,527.88L457.5,525.63L457.5,523.13L457.75,520.75L458.0,517.88L458.25,514.88L458.75,513.13L459.63,512.0L461.0,511.25L461.13,509.38L460.5,507.88L459.75,506.0L458.88,504.25L457.38,503.0L456.63,502.63L455.5,503.75L454.5,504.5L452.88,504.25L452.0,505.38L452.13,507.25L451.38,508.5L450.0,509.25L448.25,509.38L446.25,509.25L445.5,511.0L443.75,512.25L441.63,512.38L440.75,511.13L441.25,509.25L442.63,507.0L444.0,505.63L445.13,505.13L446.5,504.63L446.88,502.38L446.5,500.63L444.75,499.38L442.38,499.13L440.5,498.25L438.75,497.63L438.13,496.25L439.25,495.5L440.88,495.5L441.63,494.5L441.75,492.88L440.63,491.38L440.75,489.5L441.75,489.25L442.75,487.75L443.13,486.13L442.63,484.25L441.75,481.88L439.75,480.5L438.0,479.38L436.13,480.13L435.0,481.13L433.5,481.13L432.0,479.5L430.5,478.13L429.5,476.5L429.5,475.25L430.0,474.0L430.63,473.38L430.63,472.13L429.25,470.88L427.38,470.0L425.38,469.63L423.88,469.75L422.0,470.13L420.38,471.38L419.63,473.75L419.25,475.38L417.38,478.0L416.13,480.13L415.38,482.5L415.0,484.63L414.5,486.63L414.13,488.0L412.75,488.75L411.0,487.63L409.0,486.25L407.0,484.63L405.88,482.75L405.5,480.5L405.25,477.75L405.38,474.5L404.75,472.63L404.63,471.13L404.13,470.25L403.25,469.63L402.5,470.25L400.63,470.25L399.25,469.13L397.75,468.13L396.63,467.88L394.38,468.13L392.13,468.13L390.5,467.75L388.5,467.0L387.0,466.88L383.88,466.38L381.25,466.38L377.63,466.25L374.88,466.0L373.63,465.38L372.13,464.75L371.13,463.38L370.63,462.38L369.13,462.13L368.0,461.5L366.75,459.75L366.63,458.63L367.63,457.88L365.38,454.5L363.5,452.13L361.75,449.5L360.5,447.5L359.13,445.88L357.38,443.38L356.63,441.63L355.88,440.25L355.25,439.38L353.88,438.5L352.5,438.0ZM429.8,507.0L430.9,507.0L431.4,506.0L430.6,505.0L429.2,504.5L427.5,504.3L426.1,504.4L426.1,506.1L426.5,507.4L427.4,508.3L428.3,508.3L428.7,507.3ZM429.4,483.9L430.9,483.9L432.0,483.6L432.1,482.3L431.6,481.4L429.6,481.5L427.9,481.6L425.8,481.2L424.3,481.2L424.0,482.5L424.5,483.8L425.3,484.5L426.2,485.4L427.4,485.6L428.2,485.3L428.8,484.5ZM400.5,486.9L401.1,485.8L400.2,485.0L398.8,484.6L398.7,485.9L399.1,487.2L399.8,488.6L400.6,489.1L401.3,488.4ZM398.4,483.8L399.1,482.3L399.7,480.0L400.2,478.3L400.2,475.7L400.2,474.5L399.6,474.0L399.3,473.2L399.0,472.4L398.6,471.4L398.6,470.6L397.4,470.2L395.1,470.2L393.9,470.7L391.6,470.7L389.6,469.9L388.4,469.8L386.2,469.9L384.3,470.3L382.5,471.1L381.8,472.1L383.4,472.9L384.5,474.1L385.5,475.1L386.0,476.5L387.0,477.2L388.5,478.0L389.7,477.9L391.0,479.4L392.5,480.7L393.6,482.2L395.2,483.0Z" />
		<path id="L1611713207560" name="离岛区" class="qing-map-1616149882495" d="M132.4,577.8L130.6,579.6L132.4,580.6L134.0,580.0ZM112.0,557.6L110.8,556.8L110.8,555.2L112.6,555.4ZM134.4,552.2L132.8,550.4L132.8,548.8L134.8,549.0L136.4,551.0ZM107.2,559.4L104.4,559.8L105.6,558.2L108.8,557.4L108.4,559.6ZM125.6,571.4L124.6,570.4L126.0,569.6ZM562.2,544.4L563.0,541.8L563.6,538.8L565.0,539.6L565.8,542.4L564.4,545.0L561.6,547.6L560.4,547.8L560.2,545.4ZM545.4,547.0L543.2,548.0L539.8,546.6L538.8,544.2L538.2,542.2L538.4,540.4L541.2,539.8L542.6,537.0L544.6,537.8L545.2,542.0ZM501.4,549.6L496.4,547.0L496.4,548.8L494.6,549.8L493.6,545.8L494.2,542.2L494.0,538.6L498.8,538.8L502.6,537.8L505.2,536.4L507.8,538.8L508.4,541.6L508.2,544.8L507.6,546.2ZM526.2,561.6L525.4,558.6L526.6,556.6L526.0,553.4L523.2,551.8L520.8,549.6L518.4,548.2L517.0,549.8L516.2,552.0L513.6,552.4L510.0,553.4L507.0,555.6L504.6,559.4L502.2,562.2L501.2,565.0L502.2,567.2L505.8,567.2L504.4,569.2L503.4,570.8L506.8,572.0L509.8,572.6L508.8,575.0L507.6,578.2L509.8,577.6L513.0,576.2L514.2,573.8L513.4,572.6L515.6,571.0L517.6,568.2L519.8,569.4L524.2,569.8L528.8,568.8L528.0,564.2L526.0,563.2ZM370.0,497.0L372.2,495.6L372.4,492.2L369.8,492.4L369.2,494.0ZM336.0,501.2L338.8,497.2L341.8,495.0L343.8,494.8L343.4,493.0L341.4,492.8L341.2,490.6L343.2,488.0L342.8,486.0L340.4,485.6L337.0,483.6L340.2,482.2L344.2,479.8L349.0,479.0L351.2,477.6L354.8,477.4L357.2,479.0L357.2,481.4L355.0,483.8L354.2,486.6L356.2,490.0L360.2,492.6L360.0,497.8L363.0,500.4L367.0,503.0L368.6,500.6L370.8,499.6L373.4,501.4L373.6,504.4L372.4,507.2L370.6,509.6L366.8,511.6L363.2,512.2L362.0,515.4L361.8,517.4L366.0,521.6L366.6,518.6L369.2,516.2L372.6,514.4L376.0,514.0L379.2,514.4L381.6,516.0L384.2,513.2L386.4,511.4L390.2,511.2L392.4,513.4L395.0,512.6L399.0,513.2L399.6,515.8L397.2,518.6L394.4,519.6L391.8,518.8L390.0,517.6L387.6,518.8L386.8,520.8L385.0,521.6L385.0,524.2L382.8,524.6L381.4,526.8L379.0,527.0L377.0,526.4L376.8,529.0L379.0,531.6L380.8,533.2L381.6,536.4L384.0,538.4L384.8,541.8L386.8,544.6L388.4,546.0L387.0,547.6L385.2,545.4L381.6,544.6L380.2,541.4L377.2,539.4L374.2,538.0L373.8,535.4L371.6,535.2L370.2,537.6L370.8,540.6L373.0,543.4L374.2,548.0L374.8,550.8L371.0,550.8L370.0,548.8L369.2,546.0L368.2,545.0L366.0,546.6L364.6,549.4L361.8,551.0L359.4,548.8L357.2,548.4L354.8,549.6L351.2,548.2L348.6,545.6L348.4,542.4L350.6,539.4L352.8,537.6L354.8,536.0L355.2,531.6L355.4,527.6L356.8,523.0L358.0,519.8L355.8,517.8L354.4,516.0L356.2,514.2L356.0,509.8L355.2,505.6L354.8,503.2L350.4,500.8L348.2,500.0L346.2,501.6L346.6,504.2L345.8,507.0L343.0,507.0L342.0,505.4L339.0,505.0L339.6,507.0L340.8,509.4L340.4,511.2L337.2,511.0L335.6,510.6L335.8,503.8ZM308.6,424.6L307.2,422.8L308.2,420.2L305.0,420.2L302.8,421.6L302.2,424.6L303.0,425.6ZM286.2,419.0L283.4,418.2L283.4,416.2L286.4,416.6ZM256.6,417.2L254.6,417.0L255.2,415.6ZM270.0,415.0L264.2,419.0L263.8,421.4L265.6,421.8L268.2,420.4L270.6,420.4L271.4,423.4L269.6,426.4L265.6,428.2L262.8,426.8L261.4,425.0L262.6,423.0L260.6,422.4L259.4,419.0L259.0,416.0L261.8,414.8L265.8,414.2ZM276.2,455.6L280.6,453.2L280.8,451.0L282.8,448.8L281.2,447.0L278.0,447.0L274.8,448.6L272.2,450.2L272.2,453.6L274.2,454.8ZM268.8,462.0L270.0,458.4L270.0,456.2L267.2,454.8L262.6,455.2L260.0,454.2L252.6,454.0L250.0,455.8L249.0,457.6L252.2,458.8L255.2,458.6L257.8,461.6L259.0,464.2L261.2,463.6L262.2,466.6L262.8,470.0L266.4,473.2L268.6,475.0L270.2,472.8L271.0,470.6L271.8,467.4L268.6,463.6ZM256.0,502.0L258.0,501.4L259.8,499.2L258.4,496.8L256.8,496.4L256.0,498.0L251.8,497.8L249.4,498.4L248.0,501.0L249.6,503.4L248.0,506.0L246.0,507.8L243.8,508.6L245.2,510.6L247.8,510.4L249.6,511.6L251.0,514.8L249.8,518.2L246.8,517.8L244.4,519.0L244.0,521.6L242.4,523.8L239.0,523.0L239.6,526.0L240.8,527.4L243.0,527.4L243.6,529.8L247.6,528.2L249.4,524.8L252.6,522.8L255.2,522.4L256.4,521.4L259.4,523.8L261.2,522.2L263.2,520.2L265.2,518.4L264.0,516.4L262.8,514.6L260.8,514.6L259.2,517.0L256.2,516.0L254.4,514.2L252.6,512.4L252.2,508.6L254.0,505.6L259.0,504.6ZM210.8,527.4L209.6,529.0L209.6,531.0L211.8,531.0L213.6,532.8L213.4,535.2L210.2,538.0L207.0,538.0L205.4,536.2L202.2,535.2L199.6,533.2L199.4,530.2L199.6,527.4L202.4,524.4L204.4,522.4L207.4,522.4ZM36.2,504.8L33.8,503.8L33.4,505.8L35.4,506.8L37.0,506.2ZM125.6,549.0L128.4,549.4L128.8,547.4L125.6,546.8L124.2,545.2L121.2,545.4L117.6,542.0L114.8,539.8L112.8,540.8L112.6,543.4L112.8,547.2L111.4,549.6L112.8,551.0L115.2,549.6L117.2,547.4L121.2,547.6L120.8,550.2L123.0,550.6L124.8,552.6L126.6,552.6ZM125.8,564.0L122.8,562.2L119.0,561.6L117.2,562.8L116.6,565.0L118.0,566.6L116.2,568.6L113.8,569.6L111.0,569.2L107.4,570.0L105.0,572.8L106.8,575.6L108.8,577.8L111.0,577.6L112.4,575.4L113.6,574.0L116.0,574.6L119.0,575.2L120.4,573.6L123.2,574.4L124.0,573.2L123.6,570.8L121.4,570.4L120.8,568.0L121.6,565.8L125.0,565.2ZM142.2,375.0L98.4,390.6L98.0,393.0L101.0,394.8L102.2,398.0L103.6,401.0L103.2,403.4L100.8,405.8L99.6,408.4L99.8,410.6L102.4,411.6L106.6,411.4L110.2,410.2L123.8,409.4L126.8,410.0L132.8,412.2L139.4,414.8L145.2,414.6L148.2,411.6L150.2,408.6L149.6,404.4L152.8,403.8L153.6,400.6L153.6,397.4L152.0,394.6L152.6,392.0L154.6,390.8L159.4,388.8L162.8,390.4L166.4,391.8L170.6,392.4L173.0,391.6L173.8,388.2L175.8,384.8L176.4,381.0L176.8,375.2L173.0,375.2L172.2,378.0L166.6,376.8L161.8,376.2L160.0,377.2L159.0,380.6L157.8,385.0L154.8,385.8L155.8,380.8L158.4,378.4L157.4,375.8L154.2,375.2L151.6,377.6L147.0,378.4L143.4,375.6ZM273.0,387.75L233.38,387.13L230.75,385.88L227.5,385.75L225.38,387.25L222.88,388.25L221.12,386.63L213.37,386.62L210.6,389.2L206.6,390.4L203.0,391.6L199.2,393.6L195.6,395.8L193.0,399.0L190.6,401.2L185.8,403.2L180.8,405.0L175.4,406.2L172.0,406.4L170.4,408.6L168.2,408.8L166.6,407.2L164.0,407.4L159.6,407.8L157.0,410.0L153.4,411.2L149.8,413.0L147.2,415.4L146.8,418.2L145.4,420.2L145.6,422.4L144.0,424.4L142.6,426.6L138.8,428.2L137.4,425.8L136.8,423.8L134.4,421.2L134.0,417.4L131.4,414.8L128.6,414.8L126.2,413.6L123.6,412.6L121.2,413.8L119.2,414.4L117.2,415.8L115.0,414.4L113.4,413.0L111.0,412.2L109.6,413.4L109.4,415.0L107.2,416.8L105.2,415.2L103.4,414.0L101.8,416.4L99.8,418.2L99.6,422.0L98.8,425.2L96.6,427.6L92.2,430.0L89.8,431.6L89.6,434.8L91.2,436.8L92.6,439.8L91.8,441.2L89.4,441.0L88.2,438.0L87.8,437.0L85.0,439.0L81.8,441.2L79.4,442.0L76.2,441.4L73.4,441.6L71.6,445.0L70.0,448.2L68.2,451.0L67.2,453.2L64.8,453.6L63.6,452.0L60.8,450.4L56.6,452.4L54.4,455.2L51.4,457.0L53.2,461.8L56.6,460.2L57.8,458.0L60.8,459.2L62.6,462.2L63.8,462.8L64.8,465.2L63.8,467.2L62.0,469.4L58.6,470.8L54.2,471.2L51.4,472.6L50.8,474.4L51.6,477.2L52.8,480.4L53.0,483.6L51.8,485.6L49.2,485.8L46.8,483.4L43.6,482.8L41.0,482.8L40.0,486.2L39.8,489.0L38.4,491.0L38.4,496.0L38.4,499.8L39.2,502.8L41.4,504.6L43.0,507.0L43.0,508.8L43.0,510.0L40.6,511.4L41.4,515.4L43.6,517.8L45.0,518.8L47.2,519.0L49.2,520.8L48.6,523.0L46.8,523.6L46.0,526.4L44.2,528.8L44.8,530.4L47.0,530.4L47.6,527.8L49.8,528.6L52.0,529.2L53.8,528.4L53.6,526.6L53.0,523.8L54.6,522.4L58.2,521.6L60.6,521.2L63.6,519.4L66.8,522.4L69.2,521.6L70.8,518.6L72.0,515.6L74.2,513.6L76.8,511.8L79.2,511.2L82.4,512.4L83.8,511.8L81.4,508.0L83.0,506.2L85.0,505.0L85.6,503.2L88.2,500.8L90.6,499.8L93.2,500.0L95.8,499.4L96.4,497.8L98.8,496.8L100.0,498.8L102.0,497.6L104.4,498.4L104.2,501.0L103.2,502.8L104.2,505.4L106.0,507.8L108.2,509.4L110.6,511.2L112.6,513.2L115.2,515.6L118.0,517.0L119.8,517.4L121.6,514.8L122.2,511.2L124.8,511.2L126.6,512.2L128.4,514.6L130.2,515.8L132.4,515.2L137.0,514.0L141.2,512.6L141.4,507.8L141.4,505.6L139.2,503.8L136.8,502.4L135.2,502.4L134.4,504.2L131.6,504.0L129.2,503.2L127.2,501.2L127.4,498.8L130.0,498.6L131.2,495.6L133.0,493.2L135.0,492.6L138.2,495.4L142.0,494.2L146.0,492.8L149.4,491.4L149.8,489.6L154.4,488.2L157.6,485.8L160.8,484.8L163.4,483.8L166.8,483.6L169.6,484.4L171.0,486.4L172.4,487.0L173.4,485.0L175.6,484.6L177.2,483.4L176.8,481.0L180.4,480.6L182.6,478.6L186.2,476.8L188.6,475.6L193.6,477.0L196.6,478.4L197.6,480.8L195.8,483.8L195.2,487.2L194.8,490.2L198.2,493.2L200.2,495.4L200.4,498.6L198.8,501.8L196.6,503.0L198.4,505.0L201.6,505.8L203.4,506.0L204.2,509.2L207.2,509.2L207.8,506.0L210.2,506.2L212.6,506.2L214.2,503.4L218.0,502.8L219.2,504.8L221.0,506.6L224.0,506.0L224.2,503.4L225.6,501.8L229.0,501.8L230.6,500.4L230.6,498.4L231.8,496.2L232.6,495.2L235.0,495.0L237.8,493.8L238.8,492.6L238.6,490.0L240.8,488.8L242.6,488.0L240.6,486.2L235.6,486.0L232.8,485.6L231.2,484.6L230.2,482.6L228.0,482.8L225.6,484.2L223.4,483.0L223.4,481.6L221.8,479.8L220.4,479.0L218.4,477.8L217.8,475.4L215.4,476.2L212.8,476.4L212.2,473.0L215.4,471.2L219.0,468.8L219.6,465.8L223.0,465.2L226.6,464.0L229.6,462.4L233.0,460.8L230.4,457.6L228.4,457.0L227.8,455.0L227.2,452.8L224.2,450.6L221.2,449.2L221.4,445.8L218.0,444.0L217.2,441.2L218.6,439.2L220.2,437.0L222.4,437.0L224.6,439.2L227.6,440.8L230.8,441.8L231.2,443.6L234.8,445.2L237.2,445.6L240.6,445.2L243.4,443.8L243.6,439.0L243.4,435.6L243.4,430.8L245.4,429.8L244.2,427.6L245.2,424.4L245.4,422.2L242.2,421.8L240.4,420.2L240.0,417.4L241.2,414.6L240.2,412.6L242.2,411.4L244.0,413.2L245.8,413.4L246.2,411.8L245.8,410.2L247.8,411.0L247.4,408.2L246.8,404.6L244.8,406.0L241.8,408.6L238.2,408.0L236.2,405.2L236.4,403.0L239.8,403.0L239.8,400.4L237.2,399.6L236.4,397.2L238.2,395.6L238.0,392.0L240.4,391.2L243.8,391.6L247.4,391.8L249.8,390.6L251.6,388.6L254.4,389.6L255.8,391.6L258.0,394.6L260.6,396.0L263.0,396.4L266.8,395.8L269.6,394.6L271.8,394.8L273.6,395.4L276.4,393.8L274.6,392.4L272.6,392.4Z" />
		<path id="L1611714220466" name="西贡区" class="qing-map-1616149882495" d="M601.4,308.8L601.8,311.2L602.6,313.0L605.2,318.2L608.2,319.4L608.8,321.8L611.8,323.2L613.4,319.8L615.0,319.4L617.8,322.4L617.8,325.0L619.6,326.6L624.2,328.4L626.4,330.4L630.4,328.6L632.6,331.4L636.6,329.6L638.2,326.6L639.8,324.0L639.6,321.0L636.6,319.0L633.4,320.4L631.6,317.2L629.4,315.4L628.6,312.8L632.2,309.8L636.4,305.4L638.2,301.6L636.4,301.4L633.8,303.6L631.6,305.2L629.8,304.0L629.2,306.6L628.0,308.6L625.2,307.8L625.0,304.4L625.4,301.4L625.2,298.4L623.8,297.0L622.6,299.4L619.6,300.4L611.8,303.2L610.2,301.2L608.0,298.0L608.6,295.8L606.0,294.2L604.6,295.0L605.6,296.8L604.6,298.6L602.2,296.2L602.2,293.6L600.4,292.4L597.4,289.2L597.4,291.6L596.8,293.2L594.4,290.4L592.0,289.6L592.2,291.2L595.6,295.4L597.2,298.0L598.2,299.6L596.8,303.0L597.2,304.6L598.8,306.2L596.2,308.8L594.8,309.4L592.8,310.0L589.8,309.4L586.2,307.6L583.8,306.2L583.0,304.6L583.2,302.4L581.2,303.8L578.2,304.0L577.6,302.2L578.8,300.4L579.8,297.4L577.2,295.0L576.8,292.0L579.6,291.0L580.0,289.4L576.8,289.4L573.8,289.0L572.2,291.2L568.8,291.4L567.4,293.0L566.4,297.0L568.2,298.8L566.8,300.2L564.4,300.0L562.6,301.2L561.6,299.0L559.4,297.2L559.2,301.0L556.8,300.8L557.0,298.8L555.8,297.2L553.8,295.8L553.0,294.2L551.8,295.2L549.8,296.6L547.0,295.6L545.8,293.0L545.0,289.8L542.2,288.2L539.8,288.0L537.0,290.2L535.0,291.4L532.4,290.0L530.8,292.0L530.6,295.4L530.6,298.4L531.4,301.4L529.6,303.2L527.6,306.0L524.4,308.6L526.0,309.6L528.2,309.4L529.0,311.2L529.0,313.8L527.4,314.8L525.6,317.8L525.4,321.0L526.6,323.4L526.8,326.4L528.8,329.6L532.2,331.0L532.8,332.8L531.2,334.8L533.0,337.0L531.2,337.6L529.4,338.4L529.8,341.0L528.6,341.6L526.2,338.2L525.4,335.2L525.4,331.4L524.0,332.8L522.4,334.0L520.4,333.8L518.4,335.0L518.4,331.4L521.0,330.2L523.0,328.6L523.8,325.6L523.0,322.2L520.8,318.6L517.8,317.2L515.6,316.4L516.6,318.6L516.2,320.8L514.6,321.0L511.8,321.2L512.6,323.6L511.8,325.2L509.4,327.2L508.2,329.6L508.6,331.4L510.6,333.6L508.0,334.4L505.4,335.0L503.2,336.4L502.0,338.2L502.8,340.2L504.2,339.0L506.6,339.8L508.0,337.8L510.4,338.8L512.4,338.2L511.4,335.4L513.2,335.2L514.0,337.6L515.0,339.0L517.4,340.6L517.4,342.6L519.2,342.2L521.8,341.8L521.2,343.6L519.8,346.4L518.8,350.2L519.0,354.2L520.6,357.6L523.0,359.0L523.8,361.6L524.0,365.0L525.2,366.0L526.0,368.8L525.6,372.4L525.2,377.0L528.4,377.2L531.0,377.8L532.6,379.8L534.4,379.8L536.8,378.8L540.0,378.0L542.2,379.4L545.2,378.8L545.2,382.2L545.6,386.4L548.0,387.4L548.2,389.4L548.2,391.2L547.0,393.8L549.2,395.4L549.4,398.4L552.0,398.8L553.2,397.4L551.8,395.8L553.0,394.4L554.4,392.8L556.0,391.6L558.6,392.2L561.0,391.8L562.4,393.6L563.0,395.8L566.2,399.2L569.0,400.8L570.6,403.4L570.4,405.6L568.6,405.8L568.8,407.8L569.2,409.6L568.2,411.2L566.2,412.4L563.0,413.0L561.6,415.6L559.4,418.4L556.8,418.6L553.8,418.2L551.2,416.8L549.4,414.4L547.6,414.0L545.4,415.8L543.6,418.2L544.2,420.2L545.4,421.0L545.6,422.2L544.0,423.6L543.8,425.4L545.8,428.0L549.0,428.6L551.6,428.4L552.6,429.4L551.0,431.2L549.0,432.8L549.0,434.4L549.8,436.0L552.4,435.8L553.4,434.4L552.6,432.0L554.2,431.4L555.8,429.6L557.4,427.8L559.2,427.0L560.4,428.8L558.0,430.2L557.8,432.2L558.4,435.2L559.8,437.0L558.2,439.8L559.2,441.6L561.4,441.4L563.6,440.4L564.6,442.0L564.6,444.4L563.2,446.2L561.0,445.2L558.8,443.6L558.0,444.8L557.6,447.0L557.8,451.0L555.6,450.2L554.4,447.8L553.0,445.4L550.8,444.6L547.8,443.6L547.0,441.0L545.4,438.8L543.0,439.0L539.8,438.8L536.6,437.6L536.8,441.2L534.8,443.0L532.4,444.8L532.2,448.0L530.0,448.6L527.4,447.8L526.2,444.6L524.8,440.8L522.2,437.6L523.0,435.6L522.0,434.2L520.2,435.0L518.4,434.6L517.2,432.2L518.8,428.8L520.8,425.4L521.4,422.6L524.0,418.2L525.6,415.2L523.8,413.6L521.2,413.0L520.2,411.4L519.8,408.4L517.8,406.6L516.2,404.2L515.8,401.6L510.8,401.8L507.4,402.0L505.4,405.0L503.2,408.8L500.8,411.2L497.8,413.6L494.8,416.8L493.4,419.2L491.83,419.33L491.17,418.0L490.67,415.17L491.17,412.33L493.0,410.5L494.67,409.17L494.67,406.33L494.33,403.17L491.83,400.33L490.33,398.67L489.67,396.83L489.5,393.67L490.5,392.0L492.83,390.0L494.33,388.0L494.5,385.83L492.17,384.83L492.0,380.5L491.83,378.17L489.5,378.67L487.67,379.83L486.0,378.17L485.17,376.83L482.83,376.83L481.67,376.0L480.33,373.83L479.17,370.83L478.17,368.0L476.83,363.83L476.5,362.0L470.83,362.0L470.17,357.17L469.5,353.33L468.83,347.67L468.33,342.17L468.33,337.17L468.67,333.0L471.5,333.0L470.67,328.83L471.67,324.83L473.17,321.17L474.83,317.67L480.17,317.5L483.33,316.17L486.67,314.17L490.17,311.17L493.0,307.5L495.17,304.33L497.33,301.0L497.67,298.17L505.0,298.5L505.0,296.5L502.83,294.33L502.5,289.5L504.25,289.38L508.75,284.75L525.75,285.0L530.38,279.88L536.88,279.88L542.5,272.5L542.63,266.13L545.88,262.88L553.0,263.88L561.63,264.5L563.63,262.0L564.0,259.0L563.88,255.25L564.25,252.0L565.63,250.5L569.5,249.63L572.5,249.75L576.38,250.88L580.13,252.63L582.38,254.25L583.75,258.13L584.75,260.13L587.0,262.88L590.88,264.0L597.38,263.75L600.38,260.0L601.13,259.75L608.0,268.63L609.25,269.38L615.0,272.13L616.5,275.5L619.5,275.25L622.0,273.38L624.63,270.75L627.0,268.0L629.38,264.5L631.0,261.25L631.88,257.63L632.5,254.5L632.38,250.13L631.88,247.5L632.5,244.38L628.88,240.38L629.25,237.38L629.5,233.63L629.13,231.88L633.25,230.63L635.0,234.8L636.4,238.2L639.8,237.2L642.4,236.2L644.2,237.4L647.6,239.0L650.0,238.8L652.6,236.8L655.8,236.0L659.8,235.6L660.8,237.6L662.6,236.6L664.4,237.6L665.0,240.4L667.8,238.8L670.6,239.8L668.2,241.4L667.4,244.6L664.4,246.4L665.2,248.2L666.4,251.2L666.2,254.2L666.4,255.2L670.4,257.6L673.6,259.0L673.4,262.0L674.2,263.8L675.4,266.2L674.2,268.2L670.6,267.4L668.0,266.6L665.0,263.4L663.2,259.6L659.6,258.0L656.8,256.8L654.0,257.4L651.0,259.6L650.0,261.8L648.2,262.4L646.8,264.4L645.2,267.8L646.0,270.6L643.0,270.2L641.0,272.0L641.0,274.2L641.2,277.0L639.0,280.4L636.4,282.4L637.2,285.0L639.0,286.4L641.8,284.6L644.4,286.8L647.8,288.8L649.2,292.4L651.2,293.6L653.0,295.0L655.2,294.8L658.4,297.4L658.2,299.4L658.2,303.0L660.0,307.4L659.6,310.0L656.8,310.8L655.8,312.0L656.6,314.8L659.6,317.6L660.2,320.2L659.4,324.0L657.6,325.0L654.4,322.2L653.0,318.6L650.8,315.4L650.0,313.4L647.4,314.0L645.0,312.4L642.6,313.6L642.0,317.6L643.8,321.0L647.4,323.8L647.0,326.8L644.2,326.2L642.6,328.4L641.0,331.4L643.6,331.6L645.2,333.6L641.6,334.2L641.6,336.8L640.2,338.2L638.2,340.4L636.8,339.6L634.2,338.0L631.4,338.0L629.8,339.2L630.6,340.4L632.8,341.6L632.6,342.8L630.2,343.6L628.8,342.0L626.4,340.6L624.6,341.6L624.4,343.2L625.0,345.4L623.8,346.8L623.6,349.0L625.6,351.2L625.6,353.6L623.6,356.4L623.8,359.0L621.6,360.2L619.2,359.0L618.8,356.0L618.4,352.4L616.8,350.0L616.6,346.0L618.8,345.0L616.6,341.0L615.2,337.6L612.6,338.4L612.6,341.6L608.6,341.8L607.8,343.6L607.6,345.8L604.8,346.2L601.4,341.8L601.0,337.6L603.6,337.8L604.8,337.4L603.6,333.4L600.6,333.4L599.6,331.4L597.0,331.6L594.8,330.0L592.4,325.8L594.4,322.2L596.4,321.8L598.8,319.8L596.2,318.4L596.2,315.4L596.6,311.6L597.0,309.4L598.2,305.2ZM559.4,372.0L556.6,371.0L554.6,368.4L551.8,366.2L549.6,366.6L549.4,370.0L550.8,373.2L553.4,376.0L556.8,376.6L558.6,376.0ZM633.0,394.0L632.8,391.6L634.6,390.8L636.6,390.2L634.2,387.8L634.0,383.6L632.0,380.4L630.2,378.8L626.6,379.0L626.4,382.8L627.2,385.6L629.2,387.8L630.2,390.0L631.0,392.6L631.2,394.8L633.2,395.6ZM597.6,361.4L594.6,361.2L595.0,359.4L596.8,357.8ZM638.0,368.6L637.2,365.4L637.0,362.6L639.2,364.6L641.4,366.4L643.4,367.6L645.0,369.4ZM630.8,368.6L628.8,367.0L625.4,366.8L626.8,364.0L626.4,360.6L626.4,357.2L628.6,357.2L630.2,357.6L631.4,355.6L633.0,358.2L633.6,360.4L631.6,362.4L632.2,365.0L632.6,367.4ZM654.2,281.2L653.2,279.4L652.8,277.6L655.2,278.6L655.8,280.2ZM615.0,455.4L615.8,453.0L617.2,454.8L616.0,457.0L615.8,459.0L613.8,458.4L612.6,460.0L611.2,456.8L611.8,454.0ZM635.4,445.8L632.2,444.4L633.2,443.6L636.6,445.0L637.0,446.4ZM612.6,447.2L613.0,443.8L616.0,439.8L614.4,438.2L610.4,441.6L609.6,444.8L609.2,447.8L610.2,448.8ZM573.8,434.0L571.4,432.8L572.6,430.8L575.6,431.0L575.6,433.0ZM576.6,300.4L577.6,298.4L574.2,298.4L573.6,299.8L574.4,301.8ZM587.8,323.6L587.6,321.8L586.6,320.0L586.8,316.8L586.0,314.6L584.4,314.6L584.2,316.4L582.8,317.0L580.8,314.4L580.6,311.8L582.8,310.4L586.0,311.4L588.6,313.4L589.8,315.2L589.6,318.8L589.4,322.0L589.0,324.2ZM561.0,313.8L560.4,311.8L559.0,312.6L559.2,314.0L557.6,314.0L557.6,311.4L558.2,308.4L558.2,306.0L560.6,305.8L561.2,307.0L563.4,307.2L564.6,309.6L564.2,311.2ZM583.4,369.8L582.4,371.2L580.2,370.6L578.6,367.8L579.6,364.8L577.2,363.6L577.4,361.4L575.2,358.2L576.4,355.6L579.0,354.4L581.8,353.8L586.2,354.4L587.2,357.6L589.0,360.6L591.2,362.6L591.6,366.8L591.2,370.0L589.6,370.0L588.4,372.6L585.2,370.6ZM618.0,376.8L620.6,375.8L622.0,372.6L620.0,371.2L619.2,373.2L617.6,375.0L615.6,373.6L613.0,373.6L612.0,376.4L611.6,379.0L609.6,381.4L609.8,384.6L611.2,388.0L612.8,387.0L612.2,384.8L613.6,383.4L616.2,383.8L617.8,381.2L617.4,378.2ZM578.8,330.6L580.0,327.2L580.2,322.6L579.2,320.4L576.4,318.6L576.8,313.4L576.2,309.8L574.6,309.8L572.8,311.4L571.2,312.4L570.6,310.8L571.8,309.0L572.4,307.0L570.0,307.2L568.0,309.6L566.4,312.2L564.6,314.2L562.2,316.0L562.2,317.8L560.2,319.6L560.8,322.2L562.4,324.2L563.8,327.2L564.0,331.2L565.0,333.6L563.0,337.2L562.0,341.0L562.6,344.4L565.8,347.6L569.0,350.0L571.0,351.2L571.8,348.0L573.0,347.2L575.0,349.8L577.8,351.0L581.0,351.8L583.8,351.6L585.6,349.4L583.6,348.0L583.4,345.6L586.2,345.8L586.8,342.2L588.0,341.2L587.4,339.0L587.2,337.4L588.2,334.8L586.2,333.6L582.8,333.4L579.8,333.2ZM554.8,338.0L553.6,334.2L553.0,331.8L552.4,329.2L553.8,325.8L552.0,324.0L550.0,321.8L550.0,319.6L552.6,318.4L551.2,317.6L549.4,317.0L550.2,315.4L552.4,315.2L551.6,313.2L549.6,312.4L547.6,314.2L547.0,316.4L545.4,318.4L545.8,320.2L543.6,321.8L543.2,324.0L541.4,327.2L543.2,328.0L543.8,325.4L545.0,325.2L547.2,326.6L549.0,329.2L549.0,332.2L550.2,334.2L552.0,335.6L551.8,337.8L553.2,339.0ZM545.2,474.0L546.6,472.6L549.6,473.4L552.4,473.8L553.0,470.2L553.2,466.6L555.2,466.6L554.6,464.2L553.2,463.6L552.2,459.8L555.0,457.6L553.2,456.0L552.6,454.4L550.6,455.2L547.4,455.6L546.6,457.4L544.6,459.0L541.4,458.8L538.2,459.8L535.8,462.8L535.8,466.6L536.2,470.4L539.6,472.6L542.0,473.2L543.6,474.0L542.6,475.4L543.6,478.8L545.8,476.6ZM621.8,310.6L619.0,309.8L617.2,307.0L618.0,304.4L621.0,303.4L621.4,306.4L623.0,308.6Z" />
	</g>
</svg>
