<svg xmlns="http://www.w3.org/2000/svg" viewBox="0,0,800,613" width="100%" height="100%">
	<defs>
		<style type="text/css">
.qing-map-1616134801942
{
	fill: #DDDDDD;
	fill-opacity: 1.0;
	stroke: #FFFFFF;
	stroke-opacity: 1.0;
	stroke-width: 1;
}

.qing-map-1616134801942:hover
{
	fill: #56A4FF;
	fill-opacity: 1.0;
}
</style>
	</defs>
	<g>
		<path id="L1611041970733" name="韶关市" class="qing-map-1616134801942" d="M436.0,146.6L435.4,143.6L432.8,143.0L430.8,139.0L432.2,136.6L428.6,134.8L426.6,132.8L423.4,132.6L422.6,135.6L419.4,132.4L418.6,129.8L415.0,128.0L411.4,125.6L410.0,123.8L409.2,125.6L405.4,124.6L403.4,129.2L401.8,127.2L400.4,129.0L399.2,128.6L396.6,131.0L392.4,129.6L393.2,127.8L389.6,127.2L386.8,128.8L383.6,129.2L380.8,130.4L377.4,128.0L375.8,124.6L372.6,126.8L371.4,128.4L369.8,128.4L367.4,128.2L366.8,129.4L364.4,127.2L362.6,125.8L360.8,126.4L359.8,128.4L356.4,129.0L353.6,126.0L351.4,122.6L349.4,120.4L347.6,118.0L347.6,115.8L343.8,114.8L340.2,115.0L340.8,111.0L342.8,107.4L341.0,102.0L343.8,101.4L345.0,99.6L344.6,97.8L346.2,95.0L346.8,92.2L347.0,90.6L349.0,89.8L351.6,87.4L353.6,86.8L352.4,83.8L350.6,78.8L350.6,77.6L352.0,76.8L352.0,75.0L351.8,72.0L350.4,71.2L350.8,68.8L349.4,67.6L351.2,65.0L350.8,63.4L353.2,61.6L351.8,61.0L348.2,55.6L348.6,53.0L352.0,50.0L353.8,50.4L354.6,48.0L353.2,48.0L351.0,45.0L351.2,43.8L349.6,43.0L346.6,43.0L344.4,43.0L341.8,44.4L340.0,43.6L338.0,42.8L338.6,40.4L337.2,38.0L337.6,35.8L336.6,33.6L338.4,34.8L340.2,33.8L341.0,37.2L343.6,38.4L344.2,35.8L348.2,32.8L350.4,32.4L353.6,33.0L354.0,31.0L357.6,29.2L359.2,28.8L361.2,25.0L364.6,25.4L364.0,21.8L364.0,19.8L366.2,19.6L366.0,16.8L367.8,16.8L368.8,19.2L370.8,18.4L372.4,17.0L372.8,15.6L375.4,13.8L377.0,16.0L379.4,16.0L380.8,13.8L381.6,15.8L382.4,21.4L384.0,21.0L387.6,22.8L388.2,26.6L390.8,27.0L393.0,27.0L393.6,29.0L395.8,31.2L396.8,30.2L398.4,30.2L402.2,30.0L403.0,32.0L405.0,30.8L408.8,33.2L409.0,36.6L412.4,35.0L416.2,35.0L417.4,34.0L419.6,34.2L419.8,31.6L422.2,31.6L424.6,32.6L425.6,30.8L427.2,34.4L429.4,34.0L433.0,34.6L434.8,31.4L437.8,29.8L439.8,25.4L439.2,23.0L442.2,22.6L444.8,23.2L447.2,21.4L451.8,22.4L449.0,25.2L451.2,26.8L453.8,28.0L453.0,29.6L455.6,30.2L456.0,32.4L454.6,33.4L456.0,36.2L454.0,37.4L452.6,39.8L453.8,41.2L455.0,43.2L456.8,40.0L458.8,40.2L462.0,37.6L464.6,37.0L467.4,36.8L470.0,36.6L471.0,37.4L473.8,38.4L477.4,39.0L479.0,38.0L481.0,39.2L482.4,37.4L481.6,35.4L482.4,33.6L487.2,35.0L488.8,36.6L493.0,34.0L495.8,28.6L498.8,30.4L502.0,28.2L501.4,26.6L503.8,26.2L504.6,24.4L507.6,26.2L508.0,28.6L508.8,27.0L510.8,28.4L511.2,31.0L513.4,34.0L516.6,35.2L518.8,36.4L519.8,35.4L523.2,37.8L522.8,39.8L525.2,41.0L525.2,43.0L524.2,44.8L525.8,45.2L522.8,45.2L520.6,46.8L520.2,48.8L518.8,49.2L519.6,50.8L521.4,53.0L523.6,53.0L524.0,55.2L523.8,57.4L519.6,59.0L517.6,59.8L515.2,63.0L511.2,62.0L507.4,62.0L505.0,64.8L504.6,67.6L502.4,68.2L501.8,70.8L499.0,70.2L496.4,71.6L496.2,73.2L492.8,74.0L493.6,75.4L491.0,75.8L490.6,78.2L489.6,80.0L491.2,82.0L491.2,84.0L488.4,86.6L486.4,90.0L485.6,92.2L484.0,94.2L485.4,95.8L484.2,99.0L481.0,100.4L478.6,101.2L479.0,102.6L477.0,104.0L473.2,104.0L471.6,105.2L470.2,104.6L468.2,104.6L470.0,108.2L471.6,109.2L474.0,109.8L476.2,109.8L477.2,111.4L479.6,113.4L481.6,117.4L481.6,119.0L479.8,120.6L478.2,122.2L478.8,125.4L482.0,127.8L479.6,130.2L476.0,133.2L476.4,136.6L475.8,141.2L479.2,141.2L480.4,143.2L478.4,145.0L479.4,147.0L477.4,149.8L476.6,152.2L478.6,157.2L480.8,158.6L479.6,160.6L482.0,164.0L484.0,166.6L486.2,164.6L488.0,166.2L488.6,165.0L493.2,165.2L493.0,167.8L494.6,166.8L497.5,167.1L497.4,164.6L497.4,162.0L501.0,158.6L505.4,155.4L506.8,153.6L508.2,155.6L510.6,156.2L509.8,159.0L511.0,161.4L506.8,163.4L507.0,166.6L504.6,166.6L504.0,165.0L502.4,167.4L500.5,169.0L499.4,169.8L496.0,172.6L494.8,176.0L491.0,177.6L489.6,179.4L488.8,187.2L485.8,192.8L483.8,191.2L482.4,192.2L479.6,190.6L477.8,190.4L474.2,190.0L478.0,186.2L477.6,184.4L474.0,186.6L471.0,186.6L468.6,184.8L467.0,186.8L463.8,187.6L459.6,188.6L456.6,187.4L454.4,190.8L453.2,188.6L449.0,188.4L444.4,188.8L439.2,188.0L431.2,191.4L430.8,188.4L428.8,186.8L428.2,184.8L425.8,184.4L423.6,181.4L426.8,177.4L430.2,178.4L431.4,174.6L434.4,173.2L435.0,168.8L437.6,165.4L436.8,162.4L441.4,160.0L444.0,160.0L440.2,157.0L439.8,153.8L438.2,153.6L435.2,152.0L435.6,149.4Z" />
		<path id="L1611042631142" name="清远市" class="qing-map-1616134801942" d="M245.0,154.8L247.0,153.4L247.4,151.8L249.6,152.8L250.6,151.0L253.8,148.2L255.0,146.6L255.4,144.8L257.2,143.8L257.2,138.2L256.0,138.0L255.4,135.4L253.4,131.8L251.8,131.0L250.4,129.8L250.0,127.8L252.4,125.8L252.0,123.8L251.2,120.4L248.6,117.2L245.6,115.4L245.6,113.4L244.4,111.0L246.8,109.4L245.6,106.8L245.4,105.6L247.0,104.4L248.4,101.4L251.2,100.6L253.0,100.8L254.8,98.6L255.0,95.6L257.2,94.2L258.2,92.4L259.6,92.6L261.2,90.6L264.6,88.6L266.6,89.0L268.4,87.2L268.0,85.6L267.8,82.6L269.2,79.0L266.2,77.6L264.2,75.2L263.2,72.4L267.2,68.0L266.6,66.4L266.8,64.4L268.0,64.0L268.8,59.4L268.8,56.6L270.2,54.4L271.4,52.2L270.4,50.8L273.0,50.4L276.4,51.2L276.8,52.8L279.2,52.6L281.6,53.8L282.4,52.0L284.2,51.6L286.6,50.6L288.6,50.2L288.4,51.4L290.4,52.8L289.4,54.0L291.8,55.2L294.4,51.6L296.0,50.4L296.6,51.8L296.6,54.4L300.2,55.0L306.0,56.6L309.2,57.4L312.2,56.4L314.2,55.4L317.6,57.0L320.8,60.6L323.0,62.0L323.0,65.2L322.2,66.4L323.8,69.4L325.8,71.6L325.4,75.6L329.0,76.4L329.6,78.6L329.2,82.4L332.4,82.6L334.2,82.6L338.6,82.2L339.2,80.6L341.6,80.0L344.0,79.6L346.6,79.6L349.0,79.4L350.6,78.8L352.4,83.8L353.6,86.8L351.6,87.4L349.0,89.8L347.0,90.6L346.8,92.2L346.2,95.0L344.6,97.8L345.0,99.6L343.8,101.4L341.0,102.0L342.8,107.4L340.8,111.0L340.2,115.0L343.8,114.8L347.6,115.8L347.6,118.0L349.4,120.4L351.4,122.6L353.6,126.0L356.4,129.0L359.8,128.4L360.8,126.4L362.6,125.8L364.4,127.2L366.8,129.4L367.4,128.2L369.8,128.4L371.4,128.4L372.6,126.8L375.8,124.6L377.4,128.0L380.8,130.4L383.6,129.2L386.8,128.8L389.6,127.2L393.2,127.8L392.4,129.6L396.6,131.0L399.2,128.6L400.4,129.0L401.8,127.2L403.4,129.2L405.4,124.6L409.2,125.6L410.0,123.8L411.4,125.6L415.0,128.0L418.6,129.8L419.4,132.4L422.6,135.6L423.4,132.6L426.6,132.8L428.6,134.8L432.2,136.6L430.8,139.0L432.8,143.0L435.4,143.6L436.0,146.6L435.6,149.4L435.2,152.0L438.2,153.6L439.8,153.8L440.2,157.0L444.0,160.0L441.4,160.0L436.8,162.4L437.6,165.4L435.0,168.8L434.4,173.2L431.4,174.6L430.2,178.4L426.8,177.4L423.6,181.4L425.8,184.4L428.2,184.8L428.8,186.8L430.8,188.4L431.2,191.4L429.6,192.2L427.6,196.0L424.8,196.4L422.4,195.8L422.8,200.8L420.6,199.8L419.4,201.4L416.0,200.4L413.2,204.2L414.6,207.8L413.8,211.6L415.4,212.8L413.4,214.0L411.0,216.8L408.0,215.4L406.6,213.0L403.2,214.8L398.8,214.8L397.8,212.6L395.4,210.6L392.0,210.4L389.2,210.0L387.6,212.6L386.4,216.6L383.8,219.4L380.4,219.2L380.4,221.6L378.4,223.0L375.6,223.6L375.6,225.4L374.0,225.6L371.0,226.8L372.6,229.8L370.6,232.4L371.2,234.2L368.6,233.8L366.4,235.2L364.6,233.6L362.6,235.4L359.4,236.4L356.0,238.4L352.0,238.6L348.6,238.8L347.4,241.0L345.0,239.0L344.4,236.2L341.4,236.6L340.2,233.4L343.0,229.8L341.8,227.4L340.4,228.8L338.2,227.2L334.0,227.4L334.0,229.6L331.2,229.6L331.2,227.2L331.2,225.0L329.4,225.0L328.2,223.6L326.4,223.6L326.4,221.2L329.8,219.2L329.0,215.6L325.6,216.2L322.6,213.6L322.2,211.8L325.6,207.6L322.2,207.4L320.8,205.6L322.0,201.8L319.8,201.0L316.2,201.0L318.2,199.2L319.0,195.4L320.6,190.6L319.2,187.2L317.6,185.8L315.2,186.8L309.4,185.2L307.6,182.6L305.2,183.8L302.8,182.4L302.2,180.2L303.4,177.6L301.2,173.0L300.2,168.6L297.6,167.2L295.8,167.2L294.0,165.6L294.8,161.0L297.0,157.6L296.2,150.0L293.8,149.4L292.2,147.2L289.2,143.6L286.8,142.0L284.2,139.8L282.2,138.8L279.6,138.2L280.8,141.8L280.4,144.8L277.4,145.4L277.0,148.0L277.0,152.0L276.2,154.0L273.4,153.4L272.6,156.0L270.8,157.8L267.4,160.0L263.8,157.8L261.8,155.6L260.2,152.8L258.0,152.2L256.4,156.0L255.2,157.6L256.0,159.2L252.2,160.0L250.2,157.2L247.8,154.8Z" />
		<path id="L1611044740153" name="河源市" class="qing-map-1616134801942" d="M481.6,117.4L483.6,117.0L485.2,117.4L486.4,116.6L489.2,118.8L489.6,121.8L491.2,122.8L491.4,126.0L493.2,126.8L495.4,125.8L497.2,125.6L499.2,123.2L501.2,121.8L504.0,119.6L506.0,121.4L507.8,121.2L510.2,121.6L511.0,120.2L513.2,117.8L514.6,118.2L517.0,116.8L518.8,120.8L521.4,122.8L523.0,120.2L524.6,119.0L523.8,114.6L525.8,113.2L528.2,114.2L530.8,114.4L533.2,116.2L534.2,115.0L536.0,115.0L536.0,117.4L537.4,118.8L539.4,117.6L541.6,113.8L541.2,111.2L542.2,108.4L544.4,108.2L544.8,109.4L546.0,109.0L547.8,107.4L550.2,106.8L552.8,107.0L555.0,105.8L555.8,103.4L557.8,103.6L560.0,106.4L562.4,107.8L563.6,105.8L566.0,105.4L570.4,104.8L569.4,102.8L573.4,101.0L574.4,101.6L576.8,100.4L578.2,97.8L581.6,97.6L584.4,98.8L586.0,100.4L587.2,99.6L587.8,96.2L589.6,95.6L591.4,93.6L594.2,95.8L595.8,96.8L597.8,96.6L600.4,99.6L601.4,102.0L603.0,102.0L602.6,103.6L605.8,105.2L606.2,109.8L604.2,111.0L603.0,112.8L601.6,114.8L602.2,116.6L599.0,118.8L599.6,122.6L600.0,126.2L604.8,127.6L606.4,129.6L608.4,128.0L608.8,130.0L607.8,132.6L608.6,135.0L607.6,137.8L606.2,138.4L605.2,143.8L608.0,147.2L608.6,150.6L610.4,153.2L608.0,154.4L607.8,159.0L604.8,159.0L605.0,161.6L602.0,160.0L602.2,164.8L604.4,168.0L602.0,170.0L600.8,166.6L598.8,166.8L598.6,165.0L596.4,166.8L594.6,169.8L592.4,172.0L594.2,175.6L595.2,179.2L595.8,183.2L593.8,185.4L591.8,185.8L590.2,191.8L588.0,196.2L585.6,198.2L586.2,200.2L585.8,203.6L581.8,206.6L587.6,207.0L589.8,204.6L591.0,205.8L589.2,209.2L591.4,210.6L591.4,213.0L593.6,213.4L595.8,212.2L596.2,215.6L595.2,218.6L593.8,223.2L594.2,227.6L595.6,229.4L593.6,232.0L594.6,235.0L592.2,236.2L594.0,239.2L594.4,242.8L596.4,246.4L597.6,248.8L598.2,253.2L600.0,254.2L597.4,255.6L596.2,258.0L593.6,259.0L592.0,262.2L590.6,258.6L585.6,255.4L584.2,254.2L581.4,255.6L580.8,250.6L577.6,248.0L574.8,248.4L568.2,248.2L566.2,250.6L563.2,249.2L556.6,253.8L551.6,253.0L550.0,257.4L547.8,256.8L546.8,253.6L545.2,251.4L542.2,252.2L542.2,255.8L540.4,260.6L540.6,262.8L538.8,263.6L536.8,266.4L537.4,268.8L535.2,271.8L530.2,267.2L528.8,266.4L530.0,263.0L527.4,258.4L529.0,257.0L527.8,255.0L523.8,253.4L522.8,250.2L520.6,249.4L521.0,245.6L517.4,245.0L515.2,246.4L513.8,244.8L519.2,239.8L521.0,239.0L519.6,234.8L521.2,232.2L517.8,231.6L516.8,228.2L514.2,229.2L513.2,232.4L511.0,230.6L510.8,229.0L508.0,227.6L506.2,225.0L506.4,222.8L504.8,219.2L502.4,215.8L498.6,212.4L494.8,214.2L493.0,212.4L491.0,212.0L489.0,208.4L487.8,210.6L486.4,209.0L484.6,205.8L486.0,203.6L485.0,201.8L483.6,200.0L484.4,196.2L487.0,194.4L485.8,192.8L488.8,187.2L489.6,179.4L491.0,177.6L494.8,176.0L496.0,172.6L499.4,169.8L500.5,169.0L502.4,167.4L504.0,165.0L504.6,166.6L507.0,166.6L506.8,163.4L511.0,161.4L509.8,159.0L510.6,156.2L508.2,155.6L506.8,153.6L505.4,155.4L501.0,158.6L497.4,162.0L497.4,164.6L497.5,167.1L494.6,166.8L493.0,167.8L493.2,165.2L488.6,165.0L488.0,166.2L486.2,164.6L484.0,166.6L482.0,164.0L479.6,160.6L480.8,158.6L478.6,157.2L476.6,152.2L477.4,149.8L479.4,147.0L478.4,145.0L480.4,143.2L479.2,141.2L475.8,141.2L476.4,136.6L476.0,133.2L479.6,130.2L482.0,127.8L478.8,125.4L478.2,122.2L479.8,120.6L481.6,119.0Z" />
		<path id="L1611045687216" name="梅州市" class="qing-map-1616134801942" d="M597.6,248.8L596.4,246.4L594.4,242.8L594.0,239.2L592.2,236.2L594.6,235.0L593.6,232.0L595.6,229.4L594.2,227.6L593.8,223.2L595.2,218.6L596.2,215.6L595.8,212.2L593.6,213.4L591.4,213.0L591.4,210.6L589.2,209.2L591.0,205.8L589.8,204.6L587.6,207.0L581.8,206.6L585.8,203.6L586.2,200.2L585.6,198.2L588.0,196.2L590.2,191.8L591.8,185.8L593.8,185.4L595.8,183.2L595.2,179.2L594.2,175.6L592.4,172.0L594.6,169.8L596.4,166.8L598.6,165.0L598.8,166.8L600.8,166.6L602.0,170.0L604.4,168.0L602.2,164.8L602.0,160.0L605.0,161.6L604.8,159.0L607.8,159.0L608.0,154.4L610.4,153.2L608.6,150.6L608.0,147.2L605.2,143.8L606.2,138.4L607.6,137.8L608.6,135.0L607.8,132.6L608.8,130.0L608.4,128.0L606.4,129.6L604.8,127.6L600.0,126.2L599.6,122.6L599.0,118.8L602.2,116.6L601.6,114.8L603.0,112.8L604.2,111.0L606.2,109.8L607.8,113.0L610.2,113.2L611.2,112.2L614.0,114.2L615.8,113.4L617.8,114.8L619.0,118.0L618.2,119.4L619.6,121.2L622.0,121.4L625.4,121.2L629.4,118.2L632.0,119.0L635.6,118.6L633.8,115.4L630.0,111.4L629.6,109.8L629.2,108.4L627.2,107.6L628.6,106.4L630.6,106.2L631.4,103.8L629.4,103.6L627.6,102.8L628.0,101.0L626.0,99.4L627.6,96.6L628.4,95.2L627.0,93.8L629.0,90.4L630.0,89.0L629.2,87.2L631.2,86.0L631.4,83.4L632.8,81.2L635.4,82.8L636.0,85.6L638.6,85.4L641.2,84.0L640.4,82.4L639.2,81.0L638.6,78.4L641.0,79.2L644.0,80.0L647.4,80.2L648.6,81.8L650.8,82.0L652.0,81.4L654.2,83.6L654.2,85.2L657.2,87.0L659.0,87.6L658.6,89.4L660.6,87.4L665.4,88.0L669.4,84.4L670.2,86.2L671.8,88.0L672.4,89.8L675.2,89.2L673.8,92.6L675.8,93.4L679.4,92.8L682.8,90.8L685.4,89.4L686.2,86.2L687.4,85.0L689.8,84.2L689.6,86.6L691.8,88.0L689.0,89.8L688.0,92.0L689.0,93.8L691.6,95.4L692.4,98.0L694.0,100.0L694.2,101.4L698.2,102.0L700.0,103.4L700.4,106.0L701.8,109.2L700.8,112.8L703.2,114.2L706.0,113.0L709.6,109.8L712.2,110.0L714.4,109.6L717.2,108.4L720.0,109.0L721.8,108.0L724.4,108.0L725.8,108.2L729.2,106.6L731.2,109.2L730.0,111.0L727.8,114.8L725.6,117.0L726.6,118.4L725.6,119.6L728.2,123.2L731.6,127.2L733.2,126.4L736.2,130.4L734.6,131.8L737.4,137.4L738.8,137.2L740.4,140.2L740.4,143.2L742.0,145.6L741.2,147.2L741.8,149.6L744.0,149.8L744.6,155.6L742.2,155.2L740.4,156.0L741.2,158.2L738.8,159.0L738.0,162.0L736.8,162.4L735.4,160.4L733.8,162.4L731.4,161.4L728.2,164.0L727.0,167.2L727.4,172.2L726.0,172.0L723.8,175.2L721.6,173.6L720.4,175.4L721.2,178.4L719.8,180.0L719.6,182.6L717.4,182.0L714.8,181.0L714.2,183.6L711.8,183.6L713.0,186.2L711.0,186.4L710.8,190.0L709.4,191.4L707.2,190.0L705.8,191.6L699.6,195.2L703.2,199.2L701.4,200.0L700.4,207.0L697.2,207.2L693.6,204.6L687.2,209.8L684.4,207.0L683.2,204.8L680.4,206.6L678.0,207.2L673.8,210.4L672.0,210.6L672.0,213.2L668.8,215.2L668.6,218.0L669.8,219.4L667.0,221.8L663.0,222.0L657.4,219.6L654.0,219.4L652.0,218.2L651.2,215.6L648.4,216.2L645.8,219.4L642.2,221.6L639.2,221.2L636.8,218.8L635.0,217.4L631.0,222.0L631.4,225.2L631.6,228.4L630.4,230.4L629.8,233.0L626.8,232.6L624.0,232.8L622.4,233.2L619.4,228.6L617.0,230.6L614.8,232.4L612.2,237.6L610.0,238.4L608.4,241.6L604.8,241.6L602.0,243.8L601.0,247.8Z" />
		<path id="L1611046180214" name="肇庆市" class="qing-map-1616134801942" d="M334.0,229.6L334.8,231.0L336.6,231.8L336.0,236.6L332.8,239.0L331.4,243.4L329.8,246.2L330.4,248.6L332.2,249.0L332.2,247.2L334.8,247.4L337.2,251.2L339.6,251.4L338.4,255.6L338.0,258.6L334.4,262.0L336.2,264.0L333.6,265.6L331.2,264.6L332.6,267.0L330.0,266.2L328.6,264.6L328.6,270.4L331.2,274.6L331.8,279.2L333.2,281.2L333.4,284.4L334.2,287.4L330.6,290.2L328.6,289.6L327.8,291.2L326.0,290.4L324.8,291.4L325.4,294.2L322.4,296.6L321.6,294.6L319.0,295.2L320.4,298.0L319.6,300.2L315.0,302.6L310.0,303.4L307.4,303.0L308.6,306.0L304.4,309.0L302.0,308.0L300.6,310.2L298.4,312.0L296.0,311.6L290.8,314.6L289.6,311.4L283.0,312.4L284.8,310.6L283.4,308.4L282.6,305.6L281.0,303.2L282.2,299.0L278.2,299.2L277.2,295.0L280.4,295.0L279.6,292.6L281.2,289.0L280.4,284.6L281.6,280.6L284.0,280.0L284.0,277.2L279.8,275.4L274.4,276.8L270.2,281.0L265.2,280.0L262.4,279.8L259.2,281.2L255.4,281.8L254.0,280.6L250.2,279.6L249.2,275.6L246.2,275.4L242.0,275.6L238.2,273.6L236.0,274.8L232.4,275.4L228.2,275.6L224.6,273.8L220.8,272.4L219.0,273.0L215.8,270.6L214.8,268.6L211.6,268.6L204.8,265.6L205.6,264.2L208.8,262.4L209.4,260.0L204.4,253.8L203.0,257.0L201.6,259.0L197.0,259.6L196.2,257.6L193.8,254.8L190.8,253.8L189.0,254.8L188.2,252.6L189.4,249.8L191.0,248.0L190.4,245.8L191.2,241.8L192.0,238.4L194.2,238.6L196.4,236.0L198.0,234.2L200.0,231.2L200.8,228.0L200.2,223.8L200.4,221.6L202.6,221.0L203.8,221.2L206.4,220.0L207.4,220.6L209.4,219.8L212.6,220.4L213.6,218.8L213.6,216.4L215.2,216.2L216.2,214.0L218.8,213.0L218.4,211.0L213.6,209.4L214.8,207.8L214.2,203.8L215.8,203.6L217.4,199.0L220.2,200.8L221.4,198.2L224.8,200.2L230.6,201.6L234.0,199.4L234.4,195.4L232.6,193.2L234.0,190.4L236.8,190.8L237.0,186.6L239.6,186.8L241.8,186.8L243.8,184.8L245.8,182.0L244.0,180.0L243.6,176.2L240.6,172.0L240.8,170.8L239.2,168.6L239.8,166.2L240.6,162.6L238.8,160.8L239.6,155.8L243.4,156.0L245.0,154.8L247.8,154.8L250.2,157.2L252.2,160.0L256.0,159.2L255.2,157.6L256.4,156.0L258.0,152.2L260.2,152.8L261.8,155.6L263.8,157.8L267.4,160.0L270.8,157.8L272.6,156.0L273.4,153.4L276.2,154.0L277.0,152.0L277.0,148.0L277.4,145.4L280.4,144.8L280.8,141.8L279.6,138.2L282.2,138.8L284.2,139.8L286.8,142.0L289.2,143.6L292.2,147.2L293.8,149.4L296.2,150.0L297.0,157.6L294.8,161.0L294.0,165.6L295.8,167.2L297.6,167.2L300.2,168.6L301.2,173.0L303.4,177.6L302.2,180.2L302.8,182.4L305.2,183.8L307.6,182.6L309.4,185.2L315.2,186.8L317.6,185.8L319.2,187.2L320.6,190.6L319.0,195.4L318.2,199.2L316.2,201.0L319.8,201.0L322.0,201.8L320.8,205.6L322.2,207.4L325.6,207.6L322.2,211.8L322.6,213.6L325.6,216.2L329.0,215.6L329.8,219.2L326.4,221.2L326.4,223.6L328.2,223.6L329.4,225.0L331.2,225.0L331.2,227.2L331.2,229.6Z" />
		<path id="L1611046631832" name="佛山市" class="qing-map-1616134801942" d="M290.8,314.6L296.0,311.6L298.4,312.0L300.6,310.2L302.0,308.0L304.4,309.0L308.6,306.0L307.4,303.0L310.0,303.4L315.0,302.6L319.6,300.2L320.4,298.0L319.0,295.2L321.6,294.6L322.4,296.6L325.4,294.2L324.8,291.4L326.0,290.4L327.8,291.2L328.6,289.6L330.6,290.2L334.2,287.4L333.4,284.4L333.2,281.2L331.8,279.2L331.2,274.6L328.6,270.4L328.6,264.6L330.0,266.2L332.6,267.0L331.2,264.6L333.6,265.6L336.2,264.0L334.4,262.0L338.0,258.6L338.4,255.6L339.6,251.4L337.2,251.2L334.8,247.4L332.2,247.2L332.2,249.0L330.4,248.6L329.8,246.2L331.4,243.4L332.8,239.0L336.0,236.6L336.6,231.8L334.8,231.0L334.0,229.6L334.0,227.4L338.2,227.2L340.4,228.8L341.8,227.4L343.0,229.8L340.2,233.4L341.4,236.6L344.4,236.2L345.0,239.0L347.4,241.0L347.2,243.2L350.4,241.2L351.0,245.2L349.4,248.8L350.6,251.2L352.4,251.8L354.6,250.6L353.6,253.4L355.0,254.6L354.6,257.0L356.0,259.4L355.6,262.2L359.2,261.8L358.6,258.6L361.4,257.8L362.2,255.6L364.2,255.0L366.8,256.6L369.0,259.4L369.2,263.8L369.4,266.2L372.2,268.0L371.8,270.8L369.8,272.0L370.2,273.6L372.8,273.8L371.8,276.8L372.4,279.4L369.6,281.0L369.4,282.6L373.2,284.4L376.8,284.4L376.8,288.6L376.4,292.4L381.2,295.6L379.6,297.2L379.8,299.8L381.0,302.4L381.4,305.0L382.4,307.8L385.4,308.8L388.4,308.4L390.4,309.4L387.0,312.2L387.6,313.8L384.6,316.0L384.0,317.6L379.6,317.2L378.0,318.8L375.8,316.6L372.6,321.0L371.0,324.0L367.4,324.2L364.0,322.8L361.0,321.4L359.6,316.8L358.4,312.0L355.4,310.0L352.6,310.8L349.2,310.8L345.6,306.4L343.0,305.0L339.4,306.0L337.4,307.4L335.8,306.8L336.6,309.2L332.8,310.6L332.4,311.8L333.0,314.4L331.4,315.2L332.0,318.8L329.6,319.4L327.4,322.4L323.8,322.2L320.4,320.2L321.8,318.6L322.2,315.4L319.8,315.6L319.4,318.4L318.2,320.0L316.6,319.0L315.2,319.8L312.0,321.2L310.2,322.0L310.8,323.2L309.8,325.0L307.8,327.0L305.0,328.2L305.6,324.4L306.8,322.8L305.6,319.4L301.0,319.0L299.4,321.2L296.0,320.6L294.6,324.0L292.0,324.2L292.0,321.4L291.2,318.6Z" />
		<path id="L1611046905868" name="广州市" class="qing-map-1616134801942" d="M387.6,313.8L387.0,312.2L390.4,309.4L388.4,308.4L385.4,308.8L382.4,307.8L381.4,305.0L381.0,302.4L379.8,299.8L379.6,297.2L381.2,295.6L376.4,292.4L376.8,288.6L376.8,284.4L373.2,284.4L369.4,282.6L369.6,281.0L372.4,279.4L371.8,276.8L372.8,273.8L370.2,273.6L369.8,272.0L371.8,270.8L372.2,268.0L369.4,266.2L369.2,263.8L369.0,259.4L366.8,256.6L364.2,255.0L362.2,255.6L361.4,257.8L358.6,258.6L359.2,261.8L355.6,262.2L356.0,259.4L354.6,257.0L355.0,254.6L353.6,253.4L354.6,250.6L352.4,251.8L350.6,251.2L349.4,248.8L351.0,245.2L350.4,241.2L347.2,243.2L347.4,241.0L348.6,238.8L352.0,238.6L356.0,238.4L359.4,236.4L362.6,235.4L364.6,233.6L366.4,235.2L368.6,233.8L371.2,234.2L370.6,232.4L372.6,229.8L371.0,226.8L374.0,225.6L375.6,225.4L375.6,223.6L378.4,223.0L380.4,221.6L380.4,219.2L383.8,219.4L386.4,216.6L387.6,212.6L389.2,210.0L392.0,210.4L395.4,210.6L397.8,212.6L398.8,214.8L403.2,214.8L406.6,213.0L408.0,215.4L411.0,216.8L413.4,214.0L415.4,212.8L413.8,211.6L414.6,207.8L413.2,204.2L416.0,200.4L419.4,201.4L420.6,199.8L422.8,200.8L422.4,195.8L424.8,196.4L427.6,196.0L429.6,192.2L431.2,191.4L439.2,188.0L444.4,188.8L449.0,188.4L453.2,188.6L454.4,190.8L454.6,194.2L456.6,197.6L454.4,200.0L455.6,201.8L455.0,202.8L456.8,204.6L453.6,207.2L452.6,204.8L449.0,206.8L448.8,208.4L446.2,209.4L445.0,209.0L441.2,211.6L439.8,214.8L436.0,215.8L433.4,218.0L432.4,220.6L433.0,221.8L437.0,222.4L437.0,225.6L436.2,227.4L438.0,230.6L440.2,232.0L443.2,235.4L445.6,236.2L449.0,237.2L446.6,239.0L446.2,241.6L449.6,242.6L449.4,245.0L451.0,246.4L449.2,248.0L451.2,252.0L449.8,253.6L450.6,256.8L447.2,255.4L446.4,253.0L443.6,252.0L440.6,251.8L440.6,254.8L440.2,258.4L438.6,260.2L440.4,261.4L440.4,264.6L441.4,266.2L439.8,267.2L439.6,269.2L441.2,270.4L440.2,272.0L437.6,271.8L436.0,274.0L435.8,276.8L432.6,275.4L429.6,275.4L426.2,274.8L424.4,273.8L420.8,275.0L417.8,276.4L416.0,276.4L415.2,278.0L412.4,277.6L410.2,279.2L407.2,280.0L405.6,282.4L403.2,285.4L403.6,290.6L405.8,296.0L408.8,300.8L408.2,305.2L410.6,308.6L414.2,313.8L415.0,315.6L413.0,316.0L411.8,317.4L409.4,317.4L407.2,316.6L406.5,317.6L409.1,320.2L409.6,322.0L410.9,323.4L412.8,324.7L415.3,327.9L416.3,330.2L415.0,331.4L416.5,333.8L414.4,335.6L410.6,330.8L409.7,331.0L409.9,333.0L407.2,332.4L404.5,326.9L405.4,325.5L397.5,320.0L396.5,317.7L393.6,317.9ZM412.6,320.3L414.3,319.3L415.6,320.5L414.4,322.0L414.2,324.1L411.9,322.4L410.0,321.0L410.3,319.8ZM415.2,325.3L416.7,324.4L417.8,326.2L416.8,327.2ZM415.2,322.4L415.3,323.3L416.2,322.9Z" />
		<path id="L1611047255457" name="东莞市" class="qing-map-1616134801942" d="M415.0,315.6L414.2,313.8L410.6,308.6L408.2,305.2L408.8,300.8L405.8,296.0L403.6,290.6L403.2,285.4L405.6,282.4L407.2,280.0L410.2,279.2L412.4,277.6L415.2,278.0L416.0,276.4L417.8,276.4L420.8,275.0L424.4,273.8L426.2,274.8L429.6,275.4L432.6,275.4L435.8,276.8L438.8,275.8L443.8,276.8L447.8,276.6L450.6,279.4L453.8,281.0L456.8,278.6L459.6,278.8L460.0,282.4L465.8,286.6L463.2,289.0L465.6,291.4L469.0,290.2L472.8,291.4L472.0,294.6L473.4,298.2L476.8,299.4L476.0,302.0L474.6,301.4L474.2,308.6L472.4,310.2L472.6,311.8L469.2,313.0L469.6,315.0L472.4,318.0L470.8,320.2L469.2,326.8L466.6,325.6L467.4,324.0L465.2,320.2L462.6,319.6L460.6,316.4L458.6,316.4L456.0,314.0L452.6,315.4L450.6,314.6L449.8,310.8L445.8,308.0L442.4,307.4L440.4,305.2L437.8,306.6L435.2,307.2L434.6,310.8L431.6,313.0L430.4,315.8L426.8,318.0L424.4,317.4L422.4,316.0L420.0,317.6L417.6,316.8L416.8,315.2Z" />
		<path id="L1611047393924" name="惠州市" class="qing-map-1616134801942" d="M551.4,321.6L549.1,323.5L548.3,322.4L547.2,322.4L546.3,320.6L546.4,317.6L544.5,316.6L542.5,316.8L539.6,315.0L538.2,315.2L538.2,316.6L539.9,317.5L539.0,318.7L540.0,319.2L540.5,320.3L542.8,319.5L544.4,321.0L546.0,322.2L546.7,323.0L547.6,323.3L547.9,324.7L545.7,326.5L543.9,328.3L542.0,332.0L541.2,335.3L542.6,336.0L542.9,337.4L540.6,337.9L540.0,336.7L540.4,335.8L540.0,334.3L538.2,333.2L535.7,332.7L532.0,333.9L528.6,333.3L526.8,334.1L525.7,332.2L526.1,330.9L526.1,328.6L524.6,327.1L527.6,322.9L525.2,321.2L525.9,317.6L527.8,315.7L529.0,315.3L530.6,313.8L533.8,312.6L532.1,310.8L530.8,308.4L529.8,309.8L528.5,307.8L528.6,311.5L527.0,312.9L524.9,313.7L523.6,311.9L522.5,312.4L520.7,312.1L520.2,313.5L517.9,314.0L516.0,314.6L515.3,315.9L513.2,315.7L511.7,316.8L508.8,318.3L507.7,318.9L506.5,318.1L505.1,318.3L505.8,319.6L507.6,319.9L508.2,320.7L508.9,322.0L508.3,323.0L506.5,321.8L505.0,320.8L504.2,321.2L504.7,322.3L505.4,323.4L504.1,324.3L503.0,324.2L502.2,324.0L502.6,326.0L499.9,325.3L498.6,326.6L496.6,325.2L495.1,326.3L493.3,324.8L495.5,322.7L491.9,320.3L493.1,315.7L491.5,313.2L490.3,315.4L486.4,314.8L485.2,312.4L485.9,310.1L481.0,311.2L479.7,310.4L477.5,313.2L474.6,311.9L474.2,308.6L474.6,301.4L476.0,302.0L476.8,299.4L473.4,298.2L472.0,294.6L472.8,291.4L469.0,290.2L465.6,291.4L463.2,289.0L465.8,286.6L460.0,282.4L459.6,278.8L456.8,278.6L453.8,281.0L450.6,279.4L447.8,276.6L443.8,276.8L438.8,275.8L435.8,276.8L436.0,274.0L437.6,271.8L440.2,272.0L441.2,270.4L439.6,269.2L439.8,267.2L441.4,266.2L440.4,264.6L440.4,261.4L438.6,260.2L440.2,258.4L440.6,254.8L440.6,251.8L443.6,252.0L446.4,253.0L447.2,255.4L450.6,256.8L449.8,253.6L451.2,252.0L449.2,248.0L451.0,246.4L449.4,245.0L449.6,242.6L446.2,241.6L446.6,239.0L449.0,237.2L445.6,236.2L443.2,235.4L440.2,232.0L438.0,230.6L436.2,227.4L437.0,225.6L437.0,222.4L433.0,221.8L432.4,220.6L433.4,218.0L436.0,215.8L439.8,214.8L441.2,211.6L445.0,209.0L446.2,209.4L448.8,208.4L449.0,206.8L452.6,204.8L453.6,207.2L456.8,204.6L455.0,202.8L455.6,201.8L454.4,200.0L456.6,197.6L454.6,194.2L454.4,190.8L456.6,187.4L459.6,188.6L463.8,187.6L467.0,186.8L468.6,184.8L471.0,186.6L474.0,186.6L477.6,184.4L478.0,186.2L474.2,190.0L477.8,190.4L479.6,190.6L482.4,192.2L483.8,191.2L485.8,192.8L487.0,194.4L484.4,196.2L483.6,200.0L485.0,201.8L486.0,203.6L484.6,205.8L486.4,209.0L487.8,210.6L489.0,208.4L491.0,212.0L493.0,212.4L494.8,214.2L498.6,212.4L502.4,215.8L504.8,219.2L506.4,222.8L506.2,225.0L508.0,227.6L510.8,229.0L511.0,230.6L513.2,232.4L514.2,229.2L516.8,228.2L517.8,231.6L521.2,232.2L519.6,234.8L521.0,239.0L519.2,239.8L513.8,244.8L515.2,246.4L517.4,245.0L521.0,245.6L520.6,249.4L522.8,250.2L523.8,253.4L527.8,255.0L529.0,257.0L527.4,258.4L530.0,263.0L528.8,266.4L530.2,267.2L535.2,271.8L537.4,268.8L536.8,266.4L538.8,263.6L540.6,262.8L540.4,260.6L542.2,255.8L542.2,252.2L545.2,251.4L546.8,253.6L547.8,256.8L550.0,257.4L551.6,253.0L556.6,253.8L563.2,249.2L566.2,250.6L568.2,248.2L574.8,248.4L577.6,248.0L580.8,250.6L581.4,255.6L584.2,254.2L585.6,255.4L590.6,258.6L592.0,262.2L591.6,263.6L590.6,266.0L586.8,267.0L585.0,268.0L583.6,271.2L579.8,271.8L578.8,275.0L579.6,279.2L577.6,279.2L575.6,282.6L567.8,285.6L565.8,290.0L562.0,288.2L560.8,289.8L559.0,288.2L555.8,292.0L551.2,294.2L550.4,296.2L548.2,296.2L542.8,298.6L543.2,300.8L545.0,302.8L542.8,304.2L544.4,306.0L546.0,307.6L545.6,310.8L547.8,312.4L550.8,314.0L550.6,315.6L551.6,318.0L552.8,321.2ZM544.2,319.0L545.4,318.4L545.5,320.5ZM535.4,341.9L534.9,342.2L535.8,342.7ZM509.7,320.8L511.1,320.6L510.6,321.2ZM512.2,324.7L512.8,325.3L511.7,326.0ZM523.3,334.1L523.7,335.1L522.8,334.8ZM514.8,334.6L516.8,336.2L515.4,335.6ZM513.4,348.0L512.8,347.1L514.7,346.7L515.4,347.5L516.3,347.1L516.6,347.8L514.1,349.3ZM515.4,348.9L515.8,349.7L515.0,350.6L515.7,351.3L516.7,350.4L516.4,349.4Z" />
		<path id="L1611048088485" name="深圳市" class="qing-map-1616134801942" d="M426.8,318.0L430.4,315.8L431.6,313.0L434.6,310.8L435.2,307.2L437.8,306.6L440.4,305.2L442.4,307.4L445.8,308.0L449.8,310.8L450.6,314.6L452.6,315.4L456.0,314.0L458.6,316.4L460.6,316.4L462.6,319.6L465.2,320.2L467.4,324.0L466.6,325.6L469.2,326.8L470.8,320.2L472.4,318.0L469.6,315.0L469.2,313.0L472.6,311.8L472.4,310.2L474.2,308.6L474.6,311.9L477.5,313.2L479.7,310.4L481.0,311.2L485.9,310.1L485.2,312.4L486.4,314.8L490.3,315.4L491.5,313.2L493.1,315.7L491.9,320.3L495.5,322.7L493.3,324.8L495.1,326.3L496.6,325.2L498.6,326.6L499.9,325.3L502.6,326.0L501.33,327.17L502.33,327.83L503.5,327.0L505.33,327.33L507.67,327.17L510.83,327.17L509.33,329.5L508.33,331.0L506.33,332.83L506.0,333.83L502.5,333.5L501.5,335.83L501.5,338.33L503.5,338.5L504.5,336.33L506.0,336.17L507.33,337.67L509.33,339.0L511.67,339.17L511.83,340.5L513.33,342.5L510.17,344.5L507.0,345.83L506.0,345.17L504.33,346.17L503.67,348.33L501.5,349.33L500.67,347.5L499.83,344.67L499.0,342.33L499.83,341.17L499.33,338.67L497.33,336.33L495.17,336.33L495.0,334.67L494.17,332.83L491.83,331.83L489.33,331.5L485.17,333.83L484.0,332.5L482.0,333.17L481.33,334.83L479.33,334.33L477.5,336.33L476.17,336.33L474.67,338.67L473.0,338.17L470.0,338.0L467.83,337.0L466.17,339.0L462.83,340.5L460.5,339.83L459.67,341.5L457.67,341.67L456.67,343.0L454.67,342.0L450.83,341.0L446.83,341.33L446.67,342.83L445.67,345.0L443.83,345.83L441.33,346.5L440.67,348.83L440.0,346.33L439.0,346.17L438.0,343.33L437.5,342.0L439.83,340.5L439.5,338.83L437.5,338.33L438.33,340.0L437.0,340.5L436.33,337.33L433.67,332.67L432.17,332.0L428.67,325.17L427.17,323.33Z" />
		<path id="L1611049301301" name="汕尾市" class="qing-map-1616134801942" d="M552.8,321.2L551.6,318.0L550.6,315.6L550.8,314.0L547.8,312.4L545.6,310.8L546.0,307.6L544.4,306.0L542.8,304.2L545.0,302.8L543.2,300.8L542.8,298.6L548.2,296.2L550.4,296.2L551.2,294.2L555.8,292.0L559.0,288.2L560.8,289.8L562.0,288.2L565.8,290.0L567.8,285.6L575.6,282.6L577.6,279.2L579.6,279.2L578.8,275.0L579.8,271.8L583.6,271.2L585.0,268.0L586.8,267.0L590.6,266.0L591.6,263.6L592.0,262.2L593.6,259.0L596.2,258.0L597.4,255.6L600.0,254.2L598.2,253.2L597.6,248.8L601.0,247.8L602.0,243.8L604.8,241.6L608.4,241.6L610.0,238.4L612.2,237.6L613.6,240.6L615.4,240.6L616.0,243.6L618.8,245.0L617.8,247.4L618.2,251.0L619.8,250.8L621.0,248.8L624.0,249.2L628.0,247.2L631.2,251.8L632.6,253.0L631.0,254.2L629.8,258.6L632.8,259.0L633.8,261.8L626.4,262.2L625.4,264.6L626.8,266.2L625.8,268.6L624.0,266.0L623.4,270.0L626.0,272.0L628.4,271.4L628.6,273.2L633.4,275.8L635.4,278.8L637.0,276.4L639.4,276.2L641.2,275.2L643.0,278.8L644.2,281.8L646.8,283.4L646.0,286.6L643.0,287.2L644.8,288.6L645.0,291.2L644.8,293.4L646.6,294.8L648.4,292.6L648.8,296.6L651.4,295.4L654.4,296.4L659.0,298.6L659.2,300.4L664.0,300.0L665.6,301.0L667.6,301.0L668.4,297.6L672.2,297.0L672.8,298.8L669.4,302.4L664.8,306.4L662.2,307.6L661.0,309.2L659.0,306.2L655.6,305.8L652.8,306.8L650.4,307.6L646.6,311.2L645.2,309.8L642.0,311.8L639.4,311.4L636.0,313.8L632.8,317.0L630.8,316.0L631.0,312.8L630.4,310.6L630.2,308.8L624.8,305.8L620.6,305.8L620.4,303.6L618.0,302.6L614.2,303.2L611.8,304.2L611.2,305.4L607.2,308.6L606.6,311.2L604.6,313.4L603.8,315.4L602.6,316.4L603.8,317.4L604.8,320.0L605.8,320.8L606.8,320.8L608.2,318.9L606.6,317.2L607.1,316.1L609.0,317.4L610.9,316.4L611.0,318.1L609.1,319.2L607.3,321.6L607.2,323.5L609.1,325.2L607.5,326.4L605.6,325.2L604.0,325.2L602.0,323.4L600.6,323.8L597.8,322.2L595.2,322.4L593.0,323.8L589.2,323.2L585.0,319.0L586.4,317.2L585.2,313.8L582.6,312.2L575.0,313.0L574.2,311.4L575.8,310.2L577.8,309.2L579.6,307.8L579.9,305.9L582.6,304.5L582.8,301.7L581.8,303.6L579.9,304.3L578.8,306.0L578.5,307.1L576.5,308.9L573.6,307.9L570.2,308.1L568.4,309.8L568.4,311.6L570.2,312.4L569.2,313.9L568.0,312.6L566.2,311.5L566.7,310.1L562.8,310.5L561.5,311.8L556.6,312.3L556.2,314.3L555.7,316.4L553.4,317.4L554.4,320.3L553.7,321.6ZM561.5,312.8L561.4,314.1L562.5,313.2ZM649.1,497.0L650.8,498.5L653.3,497.4L653.0,495.1L651.6,494.1L648.9,495.1ZM645.0,510.3L646.9,511.5L649.1,509.7L649.1,508.2L647.2,507.2L645.1,507.7ZM720.8,534.9L722.5,537.0L724.7,536.8L725.7,534.7L724.5,532.9L722.4,532.9Z" />
		<path id="L1611049652142" name="揭阳市" class="qing-map-1616134801942" d="M705.6,236.4L705.0,232.6L707.4,230.4L706.8,226.6L704.6,226.6L702.6,224.6L703.6,222.4L701.6,218.2L698.2,218.4L697.4,216.8L694.2,216.2L693.6,214.2L690.2,213.0L687.2,209.8L684.4,207.0L683.2,204.8L680.4,206.6L678.0,207.2L673.8,210.4L672.0,210.6L672.0,213.2L668.8,215.2L668.6,218.0L669.8,219.4L667.0,221.8L663.0,222.0L657.4,219.6L654.0,219.4L652.0,218.2L651.2,215.6L648.4,216.2L645.8,219.4L642.2,221.6L639.2,221.2L636.8,218.8L635.0,217.4L631.0,222.0L631.4,225.2L631.6,228.4L630.4,230.4L629.8,233.0L626.8,232.6L624.0,232.8L622.4,233.2L619.4,228.6L617.0,230.6L614.8,232.4L612.2,237.6L613.6,240.6L615.4,240.6L616.0,243.6L618.8,245.0L617.8,247.4L618.2,251.0L619.8,250.8L621.0,248.8L624.0,249.2L628.0,247.2L631.2,251.8L632.6,253.0L631.0,254.2L629.8,258.6L632.8,259.0L633.8,261.8L626.4,262.2L625.4,264.6L626.8,266.2L625.8,268.6L624.0,266.0L623.4,270.0L626.0,272.0L628.4,271.4L628.6,273.2L633.4,275.8L635.4,278.8L637.0,276.4L639.4,276.2L641.2,275.2L643.0,278.8L644.2,281.8L646.8,283.4L646.0,286.6L643.0,287.2L644.8,288.6L645.0,291.2L644.8,293.4L646.6,294.8L648.4,292.6L648.8,296.6L651.4,295.4L654.4,296.4L659.0,298.6L659.2,300.4L664.0,300.0L665.6,301.0L667.6,301.0L668.4,297.6L672.2,297.0L672.8,298.8L677.4,295.2L679.8,294.2L682.8,293.6L684.4,295.2L685.8,296.0L689.6,297.4L693.0,296.2L695.6,295.6L698.0,295.6L700.2,296.4L701.0,294.4L702.4,292.8L702.6,290.6L704.4,288.8L705.6,289.4L706.2,288.0L707.6,287.4L706.4,285.6L705.6,283.2L705.8,279.6L704.4,278.4L702.4,279.2L698.8,277.6L695.2,279.4L693.2,282.4L688.6,284.6L687.0,283.2L685.6,281.8L684.0,279.0L679.8,278.6L676.8,276.6L675.4,273.2L676.6,267.8L676.4,265.0L680.2,263.4L681.4,258.6L683.6,255.6L682.8,253.0L685.8,252.0L685.4,245.0L682.6,243.4L682.2,240.8L685.6,240.6L686.0,238.8L687.4,235.6L689.8,234.8L691.8,234.0L691.8,237.6L693.6,237.8L698.6,235.2L700.0,236.8L698.6,238.4L697.2,241.6L701.8,241.6L705.0,244.0L707.0,247.6L708.0,244.2L709.2,241.6L708.6,239.4L711.0,241.6L713.8,242.8L713.0,239.2L709.8,238.0Z" />
		<path id="L1611052790015" name="汕头市" class="qing-map-1616134801942" d="M704.4,278.4L702.4,279.2L698.8,277.6L695.2,279.4L693.2,282.4L688.6,284.6L687.0,283.2L685.6,281.8L684.0,279.0L679.8,278.6L676.8,276.6L675.4,273.2L676.6,267.8L676.4,265.0L680.2,263.4L681.4,258.6L683.6,255.6L682.8,253.0L685.8,252.0L685.4,245.0L682.6,243.4L682.2,240.8L685.6,240.6L686.0,238.8L687.4,235.6L689.8,234.8L691.8,234.0L691.8,237.6L693.6,237.8L698.6,235.2L700.0,236.8L698.6,238.4L697.2,241.6L701.8,241.6L705.0,244.0L707.0,247.6L708.0,244.2L709.2,241.6L708.6,239.4L711.0,241.6L713.8,242.8L717.4,242.4L720.6,242.2L720.8,240.2L722.2,239.2L720.8,233.8L721.0,230.4L722.6,227.8L720.8,226.2L722.4,223.8L724.6,224.2L726.6,226.2L729.4,226.2L730.2,223.2L733.6,222.2L733.4,219.0L736.2,220.0L737.2,222.6L740.6,222.0L741.4,226.6L742.8,229.8L739.0,229.4L740.4,230.4L737.4,235.2L736.6,237.4L737.8,238.6L735.2,239.8L737.0,241.2L736.0,242.8L737.4,244.8L734.8,243.4L732.8,246.2L731.0,246.0L731.6,248.0L727.2,254.0L726.6,256.4L728.0,258.2L728.2,260.6L728.2,263.2L731.2,263.6L730.4,265.0L729.2,266.6L728.4,264.8L726.2,264.2L725.4,261.8L723.2,261.2L724.4,262.6L719.8,264.8L717.2,267.4L715.4,272.2L713.4,269.8L711.2,269.2L712.0,265.6L709.8,268.8L706.4,271.8ZM742.0,239.4L743.1,239.4L742.5,240.2ZM748.3,239.5L745.0,243.0L748.3,244.1L750.5,244.1L753.0,244.3L754.0,245.6L755.9,245.8L758.1,245.1L760.4,245.6L760.8,246.8L762.2,245.9L763.2,247.4L764.0,246.5L764.9,244.6L763.7,243.3L763.9,241.5L765.3,241.4L764.4,240.4L764.6,239.6L763.4,240.0L762.7,239.4L763.4,238.4L763.0,236.9L762.4,237.5L761.3,237.5L759.7,239.8L758.5,239.3L757.7,238.2L755.7,238.2L755.5,239.9L754.7,240.2L754.1,241.2L753.2,241.6L753.4,242.9L752.2,242.3L750.8,241.0L750.3,239.8Z" />
		<path id="L1611053201695" name="潮州市" class="qing-map-1616134801942" d="M742.8,229.8L741.4,226.6L740.6,222.0L737.2,222.6L736.2,220.0L733.4,219.0L733.6,222.2L730.2,223.2L729.4,226.2L726.6,226.2L724.6,224.2L722.4,223.8L720.8,226.2L722.6,227.8L721.0,230.4L720.8,233.8L722.2,239.2L720.8,240.2L720.6,242.2L717.4,242.4L713.8,242.8L713.0,239.2L709.8,238.0L705.6,236.4L705.0,232.6L707.4,230.4L706.8,226.6L704.6,226.6L702.6,224.6L703.6,222.4L701.6,218.2L698.2,218.4L697.4,216.8L694.2,216.2L693.6,214.2L690.2,213.0L687.2,209.8L693.6,204.6L697.2,207.2L700.4,207.0L701.4,200.0L703.2,199.2L699.6,195.2L705.8,191.6L707.2,190.0L709.4,191.4L710.8,190.0L711.0,186.4L713.0,186.2L711.8,183.6L714.2,183.6L714.8,181.0L717.4,182.0L719.6,182.6L719.8,180.0L721.2,178.4L720.4,175.4L721.6,173.6L723.8,175.2L726.0,172.0L727.4,172.2L727.0,167.2L728.2,164.0L731.4,161.4L733.8,162.4L735.4,160.4L736.8,162.4L738.0,162.0L738.8,159.0L741.2,158.2L740.4,156.0L742.2,155.2L744.6,155.6L745.4,156.8L747.4,158.4L750.0,161.0L746.0,164.4L744.2,166.8L742.6,169.8L743.8,173.8L745.8,175.0L744.2,176.8L745.8,178.4L745.8,180.2L748.2,180.6L747.6,182.6L748.2,186.0L747.2,188.0L745.8,188.8L746.2,191.2L748.0,192.2L747.8,194.4L746.2,195.0L748.0,196.4L749.8,195.8L750.8,196.4L752.4,198.6L753.6,200.4L752.2,201.2L753.6,203.2L754.2,206.4L755.0,209.4L755.2,213.8L758.8,216.8L762.6,219.6L764.8,219.0L766.0,220.2L769.4,222.0L766.4,223.6L763.4,226.8L763.2,228.2L761.0,227.8L759.0,229.6L758.4,228.6L756.8,227.6L757.9,226.9L758.8,227.3L759.2,226.1L758.1,224.5L758.0,222.2L757.4,220.9L757.0,219.7L756.3,219.3L755.9,222.2L753.9,222.2L752.3,223.2L750.0,221.4L748.4,222.5L746.8,222.9L747.3,224.3L748.3,224.4L747.5,226.6L746.8,227.1L747.3,228.8L748.3,228.3L749.2,229.4L750.1,228.8L751.3,227.9L752.5,228.3L752.9,229.2L751.9,229.9L750.6,230.3L750.2,234.3L748.2,234.2L744.8,233.4L743.5,231.6L744.7,231.4L746.4,231.0L747.5,229.9L745.7,230.5L744.1,230.7ZM753.1,227.2L754.1,226.6L754.7,227.0L754.0,228.3Z" />
		<path id="L1611053810125" name="云浮市" class="qing-map-1616134801942" d="M189.0,254.8L190.8,253.8L193.8,254.8L196.2,257.6L197.0,259.6L201.6,259.0L203.0,257.0L204.4,253.8L209.4,260.0L208.8,262.4L205.6,264.2L204.8,265.6L211.6,268.6L214.8,268.6L215.8,270.6L219.0,273.0L220.8,272.4L224.6,273.8L228.2,275.6L232.4,275.4L236.0,274.8L238.2,273.6L242.0,275.6L246.2,275.4L249.2,275.6L250.2,279.6L254.0,280.6L255.4,281.8L259.2,281.2L262.4,279.8L265.2,280.0L270.2,281.0L274.4,276.8L279.8,275.4L284.0,277.2L284.0,280.0L281.6,280.6L280.4,284.6L281.2,289.0L279.6,292.6L280.4,295.0L277.2,295.0L278.2,299.2L282.2,299.0L281.0,303.2L282.6,305.6L283.4,308.4L284.8,310.6L283.0,312.4L289.6,311.4L290.8,314.6L291.2,318.6L292.0,321.4L292.0,324.2L294.6,324.0L296.0,320.6L299.4,321.2L300.8,324.4L302.6,326.8L301.6,328.4L304.0,331.2L298.6,333.8L295.8,331.8L296.0,328.6L294.2,325.8L292.6,327.4L292.0,330.4L290.0,333.0L288.6,337.2L286.6,338.6L284.2,338.2L284.2,336.0L282.0,335.8L282.4,341.2L277.6,342.8L278.0,345.8L275.0,350.6L276.0,353.4L274.0,353.8L271.0,354.4L270.2,357.6L268.0,356.0L267.6,353.6L266.2,352.6L264.4,353.2L258.8,352.0L257.4,348.8L253.0,346.4L251.0,343.6L249.8,340.6L248.6,337.4L251.4,336.0L251.0,333.8L247.6,329.0L245.2,330.2L244.2,332.4L241.8,335.2L238.2,335.8L234.4,333.2L236.8,331.6L237.2,329.0L238.6,328.8L239.0,326.2L235.8,323.2L233.6,324.4L232.4,327.0L233.4,328.8L230.4,331.2L228.0,333.8L225.0,335.8L223.6,339.4L223.0,343.4L220.0,345.6L218.8,343.4L214.2,341.8L213.0,339.0L211.2,337.8L208.4,339.6L206.8,341.2L204.8,345.0L200.4,343.0L198.8,344.6L199.4,347.8L198.6,349.6L196.4,350.4L194.2,351.8L193.6,349.2L192.2,345.8L193.4,342.2L190.4,342.2L187.8,342.0L187.0,342.4L185.4,341.2L181.6,342.4L179.8,344.0L178.4,343.2L181.0,339.4L181.4,338.4L184.0,337.8L182.6,336.0L180.6,334.2L177.6,333.6L174.4,334.4L172.8,332.8L172.2,331.8L169.8,331.8L167.4,330.2L165.0,326.4L165.2,323.6L163.2,321.2L160.2,322.6L160.0,320.6L158.2,318.8L160.8,318.2L163.2,317.8L165.6,317.6L171.4,318.0L173.4,316.4L175.2,315.0L177.6,312.2L180.2,311.4L181.0,308.4L182.8,306.2L188.0,301.8L188.4,299.6L189.4,296.4L188.6,295.2L188.0,293.0L192.0,290.8L190.6,289.2L193.2,287.2L194.8,285.4L194.2,283.2L194.8,281.8L193.2,282.0L189.0,279.6L190.0,276.0L188.6,273.2L191.8,272.4L191.2,271.0L190.0,270.6L191.0,266.6L189.4,265.6L188.2,263.4L189.0,261.6L188.2,259.6L186.8,259.8L189.8,255.6Z" />
		<path id="L1611054635658" name="茂名市" class="qing-map-1616134801942" d="M160.2,322.6L163.2,321.2L165.2,323.6L165.0,326.4L167.4,330.2L169.8,331.8L172.2,331.8L172.8,332.8L174.4,334.4L177.6,333.6L180.6,334.2L182.6,336.0L184.0,337.8L181.4,338.4L181.0,339.4L178.4,343.2L179.8,344.0L181.6,342.4L185.4,341.2L187.0,342.4L187.8,342.0L190.4,342.2L193.4,342.2L192.2,345.8L193.6,349.2L194.2,351.8L196.4,350.4L198.6,349.6L199.4,347.8L198.8,344.6L200.4,343.0L204.8,345.0L206.8,341.2L208.4,339.6L211.2,337.8L213.0,339.0L214.2,341.8L218.8,343.4L220.0,345.6L218.33,349.73L214.2,355.0L211.53,355.53L211.13,357.53L205.53,358.13L203.53,358.13L202.13,360.13L200.73,361.53L198.33,362.33L197.53,367.93L194.73,367.53L187.93,372.13L186.53,374.2L186.93,377.4L184.33,378.6L185.53,381.0L185.93,383.8L180.33,391.2L182.33,393.8L182.33,396.0L179.93,398.0L180.53,403.0L181.53,404.2L180.53,406.4L182.93,408.4L185.53,410.8L187.93,410.4L188.73,412.6L192.93,413.4L193.73,417.4L190.93,420.2L189.33,421.8L190.73,423.6L189.53,426.2L194.73,428.2L195.53,431.0L193.93,436.2L194.13,438.8L193.53,441.2L195.53,443.4L195.27,446.33L196.87,447.93L194.87,448.73L191.67,447.13L187.47,448.33L189.87,448.33L192.47,449.13L190.87,450.33L188.07,452.33L184.07,456.13L182.07,457.73L180.07,459.33L178.07,459.93L177.67,457.33L179.47,457.93L180.87,456.73L180.27,455.53L183.07,453.13L179.27,451.73L176.47,452.13L173.27,449.53L170.87,451.53L174.07,451.53L175.47,453.53L172.47,453.73L166.27,455.13L162.47,455.33L159.67,452.73L160.47,450.53L156.07,449.13L152.47,450.93L152.47,452.93L154.07,453.73L158.47,453.13L160.07,454.93L156.27,456.53L151.47,459.13L148.87,459.53L147.07,457.07L144.07,456.87L141.87,458.87L139.87,456.87L141.67,455.27L139.07,454.27L138.47,450.87L136.07,451.47L136.07,447.67L133.47,446.07L133.67,442.07L131.67,442.07L132.07,437.27L128.67,435.27L125.27,438.07L126.67,441.87L125.27,447.07L124.47,449.67L125.27,451.27L122.87,451.27L122.47,449.07L119.27,448.47L120.87,451.67L117.07,451.07L116.47,453.27L113.67,453.27L112.07,450.67L110.07,451.67L108.47,449.47L106.67,453.67L103.67,453.47L102.27,451.67L101.87,449.27L99.87,448.47L100.07,445.67L94.47,444.93L95.27,442.73L96.67,441.53L94.27,440.73L91.47,436.93L92.47,435.13L90.27,433.33L92.87,432.33L92.67,430.73L90.47,431.53L87.47,428.73L88.47,426.93L89.27,423.13L90.67,419.13L85.67,417.93L87.47,411.73L90.47,413.13L91.87,412.53L91.07,409.13L91.67,407.0L96.47,403.6L90.47,402.0L87.87,399.0L89.27,396.2L87.27,394.2L88.07,387.2L88.67,383.6L84.47,380.8L86.47,378.2L86.87,376.6L89.87,379.4L91.27,378.8L93.07,377.0L93.67,375.0L100.87,380.6L100.07,381.8L104.67,381.2L105.27,379.4L107.27,376.4L112.07,377.8L111.27,380.2L113.47,380.4L115.47,381.2L118.67,379.2L119.87,378.8L118.47,375.6L117.07,372.93L117.87,371.53L120.67,370.93L121.87,367.93L124.47,365.73L127.27,367.53L130.47,366.73L129.67,365.13L126.87,361.93L126.47,359.33L125.07,357.93L123.07,357.53L123.27,353.53L123.27,350.13L120.47,347.13L120.87,345.93L122.47,347.53L126.27,347.53L126.27,344.33L127.07,341.73L128.47,341.33L127.67,339.13L128.67,334.53L131.27,337.13L132.67,337.13L133.27,335.13L136.07,334.13L139.27,334.33L141.67,333.53L142.27,331.53L145.87,331.93L148.47,330.33L148.27,328.73L150.47,328.13L151.47,329.53L153.87,327.53L155.27,327.73L158.47,327.13ZM170.8,463.7L169.9,464.4L170.1,464.9Z" />
		<path id="L1611057125951" name="阳江市" class="qing-map-1616134801942" d="M195.53,443.4L193.53,441.2L194.13,438.8L193.93,436.2L195.53,431.0L194.73,428.2L189.53,426.2L190.73,423.6L189.33,421.8L190.93,420.2L193.73,417.4L192.93,413.4L188.73,412.6L187.93,410.4L185.53,410.8L182.93,408.4L180.53,406.4L181.53,404.2L180.53,403.0L179.93,398.0L182.33,396.0L182.33,393.8L180.33,391.2L185.93,383.8L185.53,381.0L184.33,378.6L186.93,377.4L186.53,374.2L187.93,372.13L194.73,367.53L197.53,367.93L198.33,362.33L200.73,361.53L202.13,360.13L203.53,358.13L205.53,358.13L211.13,357.53L211.53,355.53L214.2,355.0L218.33,349.73L220.0,345.6L223.0,343.4L223.6,339.4L225.0,335.8L228.0,333.8L230.4,331.2L233.4,328.8L232.4,327.0L233.6,324.4L235.8,323.2L239.0,326.2L238.6,328.8L237.2,329.0L236.8,331.6L234.4,333.2L238.2,335.8L241.8,335.2L244.2,332.4L245.2,330.2L247.6,329.0L251.0,333.8L251.4,336.0L248.6,337.4L249.8,340.6L251.0,343.6L253.0,346.4L257.4,348.8L258.8,352.0L264.4,353.2L266.2,352.6L267.6,353.6L268.0,356.0L265.87,357.93L266.27,360.93L264.07,360.33L261.67,359.33L260.07,359.73L258.07,362.13L258.07,365.33L255.27,368.73L252.87,368.73L252.07,370.73L254.87,372.33L254.87,374.33L257.07,375.93L255.47,378.13L255.67,379.73L256.47,381.53L254.47,383.53L255.67,385.13L260.47,382.53L264.47,386.73L267.47,387.33L270.07,390.33L272.47,390.13L274.87,391.33L273.67,393.13L274.67,396.73L278.27,397.33L279.07,399.13L282.07,399.13L284.47,401.8L285.67,406.0L285.87,410.4L288.27,412.0L286.87,414.0L286.67,416.4L284.27,419.0L284.67,421.8L282.47,424.6L282.47,429.0L280.47,429.53L276.47,429.33L276.27,426.33L273.67,425.93L271.47,424.73L272.07,422.73L271.27,420.13L269.67,418.53L265.27,418.73L259.67,420.73L254.27,419.93L254.07,417.53L252.47,419.13L253.67,420.73L255.87,422.33L250.07,425.13L247.67,427.93L246.47,428.93L246.07,430.33L242.07,432.93L238.47,432.73L235.27,431.13L235.87,428.73L233.87,428.93L233.67,425.73L236.47,423.93L232.07,425.93L232.07,424.73L232.47,422.73L230.27,421.93L229.27,423.33L227.87,421.53L223.27,423.13L220.47,422.13L222.07,425.13L224.47,426.73L225.67,428.73L226.47,426.93L230.47,428.73L230.27,431.53L229.47,435.93L228.07,435.73L230.47,438.33L226.67,438.73L222.47,440.33L219.27,443.13L219.27,447.33L216.47,449.53L215.27,447.13L213.67,447.53L210.47,448.33L207.67,450.33L206.07,449.93L206.87,448.53L204.27,448.73L201.27,450.73L198.47,449.73L198.67,447.93L197.87,445.73L197.67,443.53L196.07,441.13ZM231.7,429.4L231.4,432.6L232.6,430.7ZM234.1,443.6L232.8,443.7L233.2,445.1L234.8,445.0L235.8,444.0L236.8,444.1L238.1,444.9L243.0,440.6L243.0,439.6L244.4,439.4L244.7,440.4L246.3,439.9L247.8,440.6L251.4,438.7L252.6,438.7L253.3,436.4L250.5,434.6L249.0,436.3L248.0,434.6L247.0,435.7L245.7,436.1L244.7,433.7L242.5,433.5L241.8,434.4L237.9,435.6L236.7,434.7L234.8,437.3L236.6,437.1L237.4,439.3L236.6,441.0L235.2,440.5L234.1,441.7Z" />
		<path id="L1611057953550" name="江门市" class="qing-map-1616134801942" d="M292.18,417.71L293.18,421.46L291.93,425.46L289.68,427.21L285.93,428.46L282.47,429.0L282.47,424.6L284.67,421.8L284.27,419.0L286.67,416.4L286.87,414.0L288.27,412.0L285.87,410.4L285.67,406.0L284.47,401.8L282.07,399.13L279.07,399.13L278.27,397.33L274.67,396.73L273.67,393.13L274.87,391.33L272.47,390.13L270.07,390.33L267.47,387.33L264.47,386.73L260.47,382.53L255.67,385.13L254.47,383.53L256.47,381.53L255.67,379.73L255.47,378.13L257.07,375.93L254.87,374.33L254.87,372.33L252.07,370.73L252.87,368.73L255.27,368.73L258.07,365.33L258.07,362.13L260.07,359.73L261.67,359.33L264.07,360.33L266.27,360.93L265.87,357.93L268.0,356.0L270.2,357.6L271.0,354.4L274.0,353.8L276.0,353.4L275.0,350.6L278.0,345.8L277.6,342.8L282.4,341.2L282.0,335.8L284.2,336.0L284.2,338.2L286.6,338.6L288.6,337.2L290.0,333.0L292.0,330.4L292.6,327.4L294.2,325.8L296.0,328.6L295.8,331.8L298.6,333.8L304.0,331.2L301.6,328.4L302.6,326.8L300.8,324.4L299.4,321.2L301.0,319.0L305.6,319.4L306.8,322.8L305.6,324.4L305.0,328.2L307.8,327.0L309.8,325.0L310.8,323.2L310.2,322.0L312.0,321.2L315.2,319.8L316.6,319.0L318.2,320.0L319.4,318.4L319.8,315.6L322.2,315.4L321.8,318.6L320.4,320.2L323.8,322.2L327.4,322.4L329.6,319.4L332.0,318.8L331.4,315.2L333.0,314.4L332.4,311.8L332.8,310.6L336.6,309.2L335.8,306.8L337.4,307.4L339.4,306.0L343.0,305.0L345.6,306.4L349.2,310.8L352.6,310.8L355.4,310.0L358.4,312.0L359.6,316.8L361.0,321.4L364.0,322.8L367.4,324.2L367.71,326.61L366.46,331.11L369.96,336.11L369.46,339.11L374.21,344.11L375.46,347.86L376.96,354.11L374.46,354.61L372.71,354.11L370.46,355.86L368.46,353.86L366.96,355.11L370.21,358.61L369.21,365.86L367.96,371.61L362.46,374.71L359.71,372.96L359.96,375.96L359.96,378.71L358.96,380.46L357.46,379.46L352.96,384.71L352.21,388.46L350.21,387.96L349.96,390.71L351.46,391.21L351.21,392.96L353.21,393.71L351.71,395.71L352.96,398.71L353.21,401.21L354.96,402.46L352.46,404.46L349.71,406.46L350.21,407.96L347.96,409.96L344.71,411.21L343.21,413.46L340.96,411.96L340.71,409.71L338.46,408.96L338.96,405.96L334.96,402.96L330.71,402.96L327.21,405.21L326.71,408.46L325.21,409.46L323.71,408.21L320.46,412.21L320.46,413.71L317.96,414.96L316.46,416.96L316.46,419.96L313.96,419.96L313.71,422.21L309.96,422.96L306.21,422.71L302.46,420.46L296.21,417.96L293.46,414.21L294.9,410.9L293.8,407.4L296.1,405.7L298.5,406.2L300.7,404.3L300.3,403.0L298.2,402.6L297.2,404.0L294.8,404.5L292.4,404.0L291.0,401.7L289.4,398.6L290.4,397.4L292.7,397.0L290.6,396.0L291.3,394.7L291.9,392.4L290.0,393.6L289.0,395.3L288.3,398.3L289.2,401.6L290.5,404.9L291.6,409.8L291.9,411.5L292.3,414.5L293.0,416.4ZM297.0,432.1L295.2,433.9L296.3,434.9L297.1,434.5L297.1,433.5L297.7,433.1ZM352.4,411.4L353.3,413.5L355.8,413.0L355.9,410.3ZM334.4,425.1L337.3,424.8L339.0,423.6L338.4,422.5L336.1,422.0L333.4,422.5L331.8,422.9L331.7,423.7L329.9,423.5L329.4,424.3L330.2,425.5L329.1,426.6L329.0,427.8L327.5,428.1L327.5,426.9L326.5,427.2L324.5,428.0L324.2,428.9L322.7,429.2L323.6,430.5L322.5,431.6L323.2,432.1L324.1,431.9L324.8,433.0L326.2,432.7L326.4,431.5L330.0,431.9L329.7,433.6L329.7,435.2L328.2,435.9L327.0,435.3L325.0,438.8L325.5,440.0L326.7,438.6L328.0,439.1L327.7,440.0L326.9,441.7L328.4,441.1L329.1,442.1L327.8,443.2L329.0,444.3L331.1,443.2L332.8,441.7L332.5,440.8L331.0,439.1L330.8,437.9L333.4,434.6L331.9,431.8L332.6,429.0L333.6,426.4ZM338.3,440.5L338.5,439.4L341.4,439.6L340.6,440.7ZM331.3,444.3L333.1,443.5L333.0,442.5ZM311.4,432.0L310.6,430.9L313.4,429.6L314.0,430.2L314.9,429.1L316.2,428.4L317.3,429.3L318.4,430.0L317.9,431.1L315.0,432.6L315.1,434.7L316.0,435.6L318.0,436.2L316.7,437.1L314.7,437.0L314.5,437.9L313.5,438.5L311.7,439.4L310.8,438.5L308.9,438.1L306.9,438.7L305.7,439.7L304.5,441.5L305.3,438.7L305.6,437.3L307.0,437.3L308.6,436.0L309.0,434.3L307.9,433.5L311.1,432.8ZM309.4,441.3L310.3,440.5L311.4,440.7L310.8,441.4Z" />
		<path id="L1611058467950" name="珠海市" class="qing-map-1616134801942" d="M368.5,400.0L369.5,401.8L371.5,402.3L372.8,401.6L373.5,401.7L375.0,403.4L374.0,405.2L373.6,406.8L375.2,407.9L375.7,409.7L377.5,410.0L379.2,410.1L379.7,409.0L380.8,408.7L379.8,407.6L380.5,406.5L381.6,406.4L379.7,405.1L379.5,403.8L378.6,403.1L377.6,403.4L376.1,403.4L374.3,401.5L374.9,400.1L373.7,399.2L374.9,397.5L377.2,397.1L375.8,395.6L376.9,394.3L377.2,392.6L378.5,391.7L379.7,392.6L379.8,394.8L380.3,395.4L383.6,389.3L382.8,391.8L382.8,392.5L382.9,394.0L381.2,396.1L382.1,397.5L384.1,396.9L384.9,397.6L386.7,396.8L387.4,397.7L387.1,399.4L389.8,397.3L391.4,396.5L391.8,395.9L391.1,394.5L392.0,392.5L393.0,390.7L388.1,381.3L394.4,391.0L395.2,391.9L397.3,392.6L398.6,391.7L396.8,390.4L396.9,389.4L395.9,389.5L396.3,388.5L393.6,381.0L392.9,379.5L394.9,379.5L397.3,384.6L398.8,384.5L399.2,386.0L398.1,386.2L399.0,387.9L401.0,389.4L401.5,389.6L401.4,391.0L402.5,390.2L403.3,389.4L405.7,388.9L406.9,389.1L405.6,386.2L406.3,385.4L406.2,381.9L405.1,379.7L404.0,379.2L404.8,375.0L406.6,374.6L407.5,372.9L409.5,372.0L410.7,370.3L409.4,369.0L409.2,366.2L409.7,364.1L411.6,363.5L411.1,362.1L410.6,361.2L411.5,359.1L412.5,359.1L414.1,357.4L412.9,357.3L412.0,356.7L410.6,357.6L408.6,356.0L407.8,353.0L404.2,352.4L401.2,352.4L400.0,355.2L400.2,357.8L400.2,360.0L400.6,362.6L398.6,364.0L401.8,368.2L402.6,370.2L399.0,371.0L399.8,373.0L397.8,373.2L392.4,375.6L391.0,372.6L388.2,372.0L385.8,370.4L383.4,364.2L383.6,361.8L381.2,359.2L376.96,354.11L374.46,354.61L372.71,354.11L370.46,355.86L368.46,353.86L366.96,355.11L370.21,358.61L369.21,365.86L367.96,371.61L362.46,374.71L362.0,377.4L363.2,381.6L362.2,386.8L362.6,389.6L365.8,393.2L369.4,398.0L370.2,399.8ZM412.7,353.4L413.4,351.4L414.3,352.0L415.2,350.7L416.8,350.6L417.2,352.0L416.5,353.3L416.0,353.8L416.3,354.8L414.5,355.0L414.2,355.8ZM430.8,352.8L431.4,352.2L433.2,354.0L432.7,354.1ZM365.2,405.8L366.1,404.7L366.7,405.6L365.7,406.6L363.8,407.5ZM365.2,411.7L365.6,415.2L367.0,413.3L368.0,412.6L369.4,413.2L371.4,412.1L371.0,411.5L369.6,412.5L368.2,411.9L367.9,411.0L366.8,412.5ZM425.8,398.6L427.5,401.4L428.6,399.9L428.6,398.1ZM421.2,395.1L422.9,394.2L423.7,395.3L422.0,396.0ZM420.5,401.7L419.5,404.0L421.2,403.6L421.4,402.0ZM423.9,402.5L426.1,403.4L425.0,405.3L423.2,404.3ZM469.5,396.8L469.6,398.0L471.9,397.8L473.1,397.0ZM473.8,395.1L480.9,393.4L482.2,391.7L479.2,392.1L477.9,393.2ZM454.1,386.7L455.4,385.9L456.3,387.7ZM433.8,381.7L433.4,383.1L433.6,384.2L434.9,383.0ZM465.8,399.2L468.1,397.8L467.3,399.0Z" />
		<path id="L1611058851967" name="中山市" class="qing-map-1616134801942" d="M407.8,353.0L404.2,352.4L401.2,352.4L400.0,355.2L400.2,357.8L400.2,360.0L400.6,362.6L398.6,364.0L401.8,368.2L402.6,370.2L399.0,371.0L399.8,373.0L397.8,373.2L392.4,375.6L391.0,372.6L388.2,372.0L385.8,370.4L383.4,364.2L383.6,361.8L381.2,359.2L376.96,354.11L375.46,347.86L374.21,344.11L369.46,339.11L369.96,336.11L366.46,331.11L367.71,326.61L367.4,324.2L371.0,324.0L372.6,321.0L375.8,316.6L378.0,318.8L379.6,317.2L384.0,317.6L384.6,316.0L387.6,313.8L393.6,317.9L396.5,317.7L397.5,320.0L405.4,325.5L404.5,326.9L407.2,332.4L409.9,333.0L407.6,334.6L409.2,335.1L411.0,334.4L413.6,337.1L414.3,343.0L413.1,342.9L412.6,343.7L410.7,343.6L410.2,345.2L409.0,345.2L409.0,346.8L409.6,347.4L409.8,350.9Z" />
		<path id="L1611059007573" name="湛江市" class="qing-map-1616134801942" d="M91.8,541.6L91.0,543.6L92.4,545.0L91.6,546.6L93.6,549.33L97.4,551.13L99.4,549.53L103.8,556.13L105.6,560.73L104.2,565.8L102.8,566.8L100.2,569.4L99.4,572.2L97.0,574.6L95.0,577.2L93.0,579.4L91.6,578.8L89.4,579.8L86.0,582.2L83.0,583.8L80.4,584.8L78.0,582.4L74.8,582.6L72.8,581.6L71.6,584.6L65.0,585.8L64.2,583.8L61.6,582.8L59.4,582.2L57.8,580.6L55.6,580.8L53.8,580.6L53.8,582.2L52.6,582.4L50.6,580.6L45.8,586.8L44.6,583.8L45.8,581.2L46.0,578.8L45.2,575.4L43.0,573.8L41.0,572.0L40.2,569.4L42.0,568.4L42.8,566.2L43.8,567.4L45.8,567.0L48.2,569.0L49.8,568.8L49.0,570.6L50.2,574.6L51.8,574.2L51.4,571.0L53.4,568.0L53.2,565.8L50.8,564.6L50.2,563.0L49.6,561.4L47.0,564.2L47.0,561.6L45.4,557.6L45.8,560.2L45.2,564.2L44.4,563.4L43.6,559.6L41.0,559.0L39.8,557.8L37.6,558.0L35.4,557.0L34.8,553.8L36.6,553.0L35.0,549.0L32.2,544.8L29.6,543.8L27.8,544.0L27.0,541.2L28.2,539.8L30.0,537.8L32.2,539.2L33.6,538.4L35.6,535.6L32.8,535.4L30.8,536.6L27.4,532.2L28.4,530.2L29.4,527.8L27.8,524.6L28.4,523.4L27.0,521.0L26.2,522.2L26.2,525.4L25.2,526.4L19.8,517.53L19.0,513.13L20.0,509.93L21.2,509.53L21.2,507.13L23.2,504.73L22.6,503.33L23.8,497.73L19.8,492.07L22.6,488.67L25.8,485.47L28.2,488.07L27.2,485.67L30.6,480.27L30.0,474.87L30.2,472.07L29.0,468.07L29.6,466.87L31.0,469.27L32.8,467.67L35.8,468.47L40.0,466.87L44.2,466.67L42.6,464.6L44.2,460.2L45.8,458.6L44.2,457.8L44.2,454.2L42.0,455.8L38.2,456.2L34.6,456.0L32.4,454.2L31.6,449.8L32.2,447.8L31.8,447.0L30.0,447.0L28.8,444.6L30.4,443.8L28.6,443.4L26.6,440.93L27.8,436.73L29.8,433.33L30.2,435.93L32.2,437.73L33.0,435.93L35.4,436.53L38.8,435.13L41.8,434.93L43.2,432.33L43.0,430.53L44.2,429.53L45.0,426.73L46.2,426.53L45.6,424.13L45.8,421.93L46.2,417.33L47.2,414.93L47.2,413.53L50.0,411.73L51.6,410.33L53.4,411.13L56.8,412.53L59.8,412.33L61.6,409.53L62.0,411.53L63.2,410.93L64.4,407.93L65.8,410.33L66.8,409.73L67.6,408.73L72.6,408.73L73.4,410.13L78.4,410.33L79.0,408.93L80.6,408.53L80.6,406.73L85.6,409.53L91.07,409.13L91.87,412.53L90.47,413.13L87.47,411.73L85.67,417.93L90.67,419.13L89.27,423.13L88.47,426.93L87.47,428.73L90.47,431.53L92.67,430.73L92.87,432.33L90.27,433.33L92.47,435.13L91.47,436.93L94.27,440.73L96.67,441.53L95.27,442.73L94.47,444.93L100.07,445.67L99.87,448.47L101.87,449.27L102.27,451.67L103.67,453.47L106.67,453.67L108.47,449.47L110.07,451.67L112.07,450.67L113.67,453.27L116.47,453.27L117.07,451.07L120.87,451.67L119.27,448.47L122.47,449.07L122.87,451.27L125.27,451.27L124.47,449.67L125.27,447.07L126.67,441.87L125.27,438.07L128.67,435.27L132.07,437.27L131.67,442.07L133.67,442.07L133.47,446.07L136.07,447.67L136.07,451.47L138.47,450.87L139.07,454.27L141.67,455.27L139.87,456.87L141.87,458.87L144.07,456.87L147.07,457.07L148.87,459.53L145.8,460.2L143.0,461.4L140.8,463.8L137.2,463.0L135.4,463.2L131.8,462.2L128.2,463.4L124.6,465.8L121.0,470.6L118.4,477.0L115.2,480.8L113.2,481.3L112.9,479.9L111.4,481.2L107.9,481.4L105.9,482.5L101.9,481.5L99.8,481.9L98.0,483.4L96.2,484.4L95.2,483.4L96.5,481.3L97.3,479.1L95.8,478.4L95.2,476.2L95.8,474.4L97.6,472.2L94.8,471.5L95.1,469.7L95.2,466.2L95.9,464.5L94.2,464.8L91.8,463.6L91.1,463.9L92.4,466.7L93.3,469.2L91.8,469.8L92.2,471.5L93.4,471.2L93.7,472.7L93.7,474.4L90.6,475.5L92.8,477.7L94.6,479.6L94.4,482.1L93.8,484.8L91.1,487.9L89.1,490.1L87.2,493.1L84.9,492.9L83.0,493.8L78.7,495.4L77.0,494.6L77.5,496.2L76.2,498.0L76.3,500.1L74.7,501.0L74.1,498.0L74.5,495.9L74.8,493.5L72.9,492.9L72.5,493.9L73.6,495.5L72.8,497.7L72.0,499.13L71.4,502.73L70.2,504.33L68.4,506.53L69.4,508.73L68.6,511.53L69.6,515.13L71.8,520.33L70.0,521.93L73.2,522.13L76.0,522.33L81.4,521.53L84.2,521.53L89.0,524.13L90.8,526.33L91.8,531.13L90.4,535.53L88.0,535.13L86.6,532.93L86.7,531.2L85.5,529.8L85.0,532.3L83.6,532.2L82.9,533.6L84.3,534.3L85.8,535.9L85.6,537.3L82.8,538.4L82.7,539.6L81.5,541.2L82.3,541.9L83.1,540.7L84.4,539.7L85.7,539.8L85.1,540.7L85.6,541.8L86.6,541.1L87.0,540.2L87.8,542.3L88.9,543.0L90.1,542.2L90.9,540.6ZM91.67,407.0L96.47,403.6L90.47,402.0L90.2,403.93ZM115.1,482.8L113.5,485.2L111.4,490.5L109.8,494.5L105.9,495.0L105.6,494.4L106.2,493.6L105.9,492.0L104.6,492.0L104.8,488.1L103.4,488.2L102.8,489.2L101.6,488.5L101.5,489.3L98.8,488.7L97.5,487.4L97.5,486.6L95.2,486.6L95.4,485.5L98.2,484.9L98.9,483.7L100.0,483.3L101.2,483.2L101.7,482.4L102.6,483.2L103.4,484.3L102.6,485.3L104.5,485.3L105.6,484.5L108.2,483.6L109.3,484.7L111.2,485.0L112.3,484.0L113.4,484.4L113.5,482.9ZM91.7,493.6L93.7,493.0L94.5,494.2ZM107.5,498.5L107.3,500.4L106.0,504.2L105.0,507.2L105.4,511.5L104.5,513.2L103.0,512.7L102.1,510.7L102.5,509.6L101.5,509.1L99.8,506.2L98.4,505.2L95.9,505.5L94.4,504.8L91.7,505.5L87.8,505.4L85.6,506.7L82.9,508.1L78.4,509.0L77.8,508.0L77.6,506.8L79.5,505.8L80.5,505.7L80.5,503.7L81.5,502.2L82.3,501.3L84.1,501.9L85.0,502.1L84.5,500.5L83.5,500.3L82.6,499.4L84.1,499.3L84.1,498.3L83.4,497.4L86.3,497.2L88.9,497.2L89.9,496.5L91.3,495.4L92.9,496.2L93.6,495.7L93.8,497.6L94.7,498.6L96.6,499.3L97.9,499.1L99.3,499.3L100.1,498.6L101.7,498.2L102.5,498.9L102.7,497.7L103.2,496.7L104.6,496.8L106.0,497.3ZM72.9,508.0L72.8,510.7L76.5,509.2L76.8,507.9ZM111.6,510.5L115.9,512.0L115.8,513.8L114.7,514.5L114.5,516.4L113.2,517.4L113.1,519.0L108.6,518.7L109.1,516.5L107.4,515.2L108.7,514.2L110.0,512.1ZM94.3,487.8L96.1,487.3L96.7,487.9L95.5,488.5ZM87.6,538.4L90.0,540.2L89.3,540.6ZM92.7,537.3L93.7,539.1L94.2,537.8L95.2,537.8L94.0,535.5L93.9,537.0ZM93.0,541.7L94.7,541.2L95.8,541.6L95.4,540.1L96.7,540.5L96.9,541.7L98.0,542.6L99.2,542.0L100.0,543.7L100.3,545.9L100.1,548.3L98.3,549.3L97.5,549.3L96.3,546.1L96.0,544.2L94.1,543.4ZM93.7,546.2L94.3,548.3L94.7,547.6Z" />
	</g>
</svg>
