<svg xmlns="http://www.w3.org/2000/svg" viewBox="0,0,800,782" width="100%" height="100%">
	<defs>
		<style type="text/css">
.qing-map-1616414168790
{
	fill: #DDDDDD;
	fill-opacity: 1.0;
	stroke: #FFFFFF;
	stroke-opacity: 1.0;
	stroke-width: 1;
}

.qing-map-1616414168790:hover
{
	fill: #56A4FF;
	fill-opacity: 1.0;
}
</style>
	</defs>
	<g>
		<path id="L1610938115970" name="延庆区" class="qing-map-1616414168790" d="M223.4,376.6L226.8,374.8L229.0,372.6L228.4,369.4L228.2,365.2L231.0,362.6L231.8,360.8L229.2,358.2L227.2,356.8L227.0,354.0L232.8,349.6L235.4,351.0L238.4,347.2L240.8,346.6L244.2,351.2L245.2,355.0L247.4,356.8L249.4,355.8L253.2,355.6L255.6,352.8L254.6,350.2L256.8,346.2L261.4,345.0L264.6,348.2L273.4,349.0L277.4,357.0L280.2,357.6L284.4,355.0L283.6,350.8L285.2,346.2L284.6,344.8L283.8,343.2L284.4,341.6L285.0,340.6L286.0,342.0L286.0,343.8L285.4,344.8L286.6,345.6L288.6,344.8L290.2,342.0L287.2,339.0L287.6,333.8L292.2,331.8L294.2,332.2L296.4,329.6L298.4,330.6L306.2,327.0L308.4,325.0L313.4,325.4L315.6,327.4L320.0,326.8L321.4,327.8L323.8,324.4L326.8,325.8L328.0,324.4L333.0,327.4L335.6,325.0L335.2,321.0L334.4,318.0L335.6,315.8L334.4,314.6L336.0,312.4L335.2,309.4L339.0,307.8L336.2,299.0L337.4,295.2L337.4,292.8L341.4,287.4L337.6,281.4L336.8,277.6L339.2,276.8L341.0,277.6L341.8,274.8L344.0,274.6L344.0,272.8L347.2,270.6L350.8,270.8L354.2,270.8L355.6,271.8L357.8,270.4L365.0,271.4L366.0,274.4L366.2,277.6L368.8,279.2L369.2,282.6L372.0,283.8L375.4,279.8L379.6,279.0L382.8,280.8L386.4,280.8L392.2,279.4L393.6,278.2L393.6,275.8L399.2,277.8L402.6,277.8L405.6,279.6L409.2,278.8L411.8,278.0L414.2,275.6L415.2,272.2L411.4,267.6L409.0,266.2L407.2,262.0L400.4,264.0L398.8,262.0L396.2,261.8L395.0,258.8L397.8,257.2L398.8,254.2L402.2,250.8L403.4,247.4L406.8,246.6L409.6,243.2L411.4,238.0L413.2,238.0L418.0,233.2L419.6,228.4L420.6,226.4L420.0,223.8L420.0,220.8L421.4,216.2L422.6,213.4L425.4,213.0L429.6,212.6L432.4,213.8L434.6,211.0L433.6,208.2L430.4,207.8L424.6,202.4L423.6,199.8L421.0,198.8L418.4,200.0L417.6,198.0L416.2,197.0L414.6,194.8L413.8,192.0L408.2,192.0L404.2,191.2L403.4,187.8L404.8,183.8L407.0,182.0L409.4,181.2L408.8,177.0L410.6,174.4L410.0,170.6L412.4,166.8L412.8,162.8L412.8,159.8L410.2,159.4L409.2,156.8L410.2,153.4L408.6,151.2L404.6,149.6L401.6,146.4L397.2,146.0L394.8,146.8L393.4,150.6L389.2,148.4L380.8,148.4L379.4,146.8L378.2,144.2L373.0,144.2L365.2,146.4L356.0,147.0L343.8,147.4L342.8,154.4L339.6,153.6L332.6,151.4L330.0,150.8L325.4,140.4L321.4,138.6L317.0,141.4L315.6,149.6L315.2,154.6L313.0,154.6L311.4,160.4L308.0,160.8L306.6,163.8L303.8,167.2L300.0,173.0L297.0,179.8L295.4,187.8L293.2,195.8L291.4,197.4L283.4,195.0L274.2,202.8L275.2,207.2L277.0,212.2L272.2,213.6L268.4,212.4L264.2,214.0L260.0,218.6L256.0,222.4L250.2,225.2L246.8,226.4L244.6,223.2L236.8,233.0L233.6,232.6L233.0,235.0L229.8,235.2L226.4,224.4L223.4,224.8L224.0,222.4L204.2,218.2L197.6,226.8L189.4,227.8L185.6,230.2L181.8,228.8L176.0,231.4L173.4,242.4L171.0,246.0L163.2,243.8L156.4,248.4L152.4,253.8L148.2,254.2L151.6,257.2L147.2,261.0L144.4,266.6L145.6,273.2L147.0,272.2L151.2,272.2L158.2,274.4L158.2,280.6L154.6,285.8L155.4,288.0L159.2,289.4L156.2,292.2L156.8,296.4L162.0,302.4L164.6,302.8L164.0,304.8L182.4,327.6L186.4,329.2L185.8,333.0L192.2,335.4L198.2,337.0L203.8,336.6L206.4,339.0L208.0,344.0L209.2,347.4L210.2,349.0L207.4,352.2L210.2,353.4L213.0,355.8L215.4,357.8L214.6,362.4L216.6,364.0L216.8,367.2L218.4,367.6L218.6,371.4Z" />
		<path id="L1610940243797" name="怀柔区" class="qing-map-1616414168790" d="M401.6,146.4L404.6,149.6L408.6,151.2L410.2,153.4L409.2,156.8L410.2,159.4L412.8,159.8L412.8,162.8L412.4,166.8L410.0,170.6L410.6,174.4L408.8,177.0L409.4,181.2L407.0,182.0L404.8,183.8L403.4,187.8L404.2,191.2L408.2,192.0L413.8,192.0L414.6,194.8L416.2,197.0L417.6,198.0L418.4,200.0L421.0,198.8L423.6,199.8L424.6,202.4L430.4,207.8L433.6,208.2L434.6,211.0L432.4,213.8L429.6,212.6L425.4,213.0L422.6,213.4L421.4,216.2L420.0,220.8L420.0,223.8L420.6,226.4L419.6,228.4L418.0,233.2L413.2,238.0L411.4,238.0L409.6,243.2L406.8,246.6L403.4,247.4L402.2,250.8L398.8,254.2L397.8,257.2L395.0,258.8L396.2,261.8L398.8,262.0L400.4,264.0L407.2,262.0L409.0,266.2L411.4,267.6L415.2,272.2L414.2,275.6L411.8,278.0L409.2,278.8L405.6,279.6L402.6,277.8L399.2,277.8L393.6,275.8L393.6,278.2L392.2,279.4L386.4,280.8L382.8,280.8L379.6,279.0L375.4,279.8L372.0,283.8L369.2,282.6L368.8,279.2L366.2,277.6L366.0,274.4L365.0,271.4L357.8,270.4L355.6,271.8L354.2,270.8L350.8,270.8L347.2,270.6L344.0,272.8L344.0,274.6L341.8,274.8L341.0,277.6L339.2,276.8L336.8,277.6L337.6,281.4L341.4,287.4L337.4,292.8L337.4,295.2L336.2,299.0L339.0,307.8L335.2,309.4L336.0,312.4L334.4,314.6L335.6,315.8L334.4,318.0L335.2,321.0L339.2,322.6L342.8,321.4L347.4,323.0L356.0,330.2L358.0,330.0L358.8,331.4L355.4,336.4L357.8,336.6L359.0,335.2L362.2,336.8L361.0,340.4L362.6,343.2L361.8,347.0L364.2,347.6L364.6,345.4L369.4,345.2L371.4,346.8L375.8,347.4L379.0,349.0L381.8,349.0L384.6,349.8L386.2,347.8L388.0,352.4L389.4,352.4L392.6,355.4L389.2,360.6L390.0,362.4L390.2,364.6L390.4,368.4L394.6,368.4L397.4,370.0L397.6,371.8L400.2,371.6L402.2,373.6L402.6,377.8L405.8,379.8L409.6,379.8L412.0,380.6L414.0,381.4L416.0,381.4L416.4,380.0L420.4,379.6L421.6,377.6L421.2,373.2L430.0,372.6L431.4,374.0L432.6,374.0L433.0,376.4L438.6,376.4L439.8,378.0L442.6,378.0L444.2,382.0L444.4,384.0L447.0,383.8L450.0,383.8L450.6,380.2L454.8,380.0L456.6,381.6L458.2,381.2L466.6,379.0L468.6,386.2L468.2,391.0L473.4,391.4L476.4,385.0L479.4,384.0L479.0,381.4L481.2,381.6L490.9,370.0L493.4,366.8L492.6,365.4L496.4,362.0L497.8,361.6L499.0,358.6L501.8,357.2L499.2,351.8L498.4,348.6L496.4,348.0L495.6,346.6L493.8,348.0L493.4,345.8L488.6,347.0L488.0,345.4L485.2,345.8L485.6,343.6L487.2,341.0L487.6,338.2L487.0,335.6L484.6,335.2L484.6,332.4L482.2,331.8L480.2,328.8L482.2,326.6L482.4,323.6L482.0,321.2L479.4,320.4L482.2,318.0L486.0,314.6L486.6,313.0L491.6,311.2L489.4,308.8L486.6,309.2L485.6,306.8L485.6,303.6L485.4,299.8L486.6,297.6L484.8,295.4L484.6,292.4L485.4,290.8L483.6,291.4L481.6,291.2L478.2,287.6L475.6,283.0L475.0,280.2L476.8,279.6L475.0,277.8L475.8,275.2L477.8,273.6L477.8,270.4L478.6,265.0L482.0,264.0L482.4,261.8L483.6,260.0L478.8,255.2L478.6,251.4L475.4,249.8L472.2,249.4L470.0,247.8L471.4,246.6L470.6,243.2L473.6,242.2L477.4,242.6L480.8,242.2L482.6,239.4L482.6,235.0L480.8,230.2L481.8,228.4L481.2,224.8L479.8,223.6L481.0,222.4L480.4,220.4L479.0,221.0L478.0,217.8L478.2,216.4L479.8,215.0L479.6,212.8L478.4,210.6L480.0,208.6L482.2,206.8L480.8,203.8L482.6,202.0L482.0,199.2L481.2,195.6L482.2,193.4L481.8,189.4L485.6,187.8L486.8,185.2L490.2,183.2L494.4,180.8L496.2,177.8L497.8,176.0L500.8,177.4L503.0,178.0L505.0,179.2L506.6,179.4L507.0,176.2L508.2,173.4L508.6,168.6L508.4,164.6L506.8,160.6L505.8,156.6L506.8,153.4L511.0,157.4L514.6,158.0L518.0,155.8L522.0,155.8L526.8,151.2L524.4,146.8L529.4,144.8L531.0,143.4L532.4,142.8L534.8,141.2L534.0,137.8L536.0,135.0L537.8,133.8L539.6,135.2L542.0,134.0L540.8,132.4L541.4,129.2L537.2,123.4L530.6,116.4L524.0,114.2L521.0,115.0L519.6,111.8L516.2,111.8L514.2,115.2L510.6,106.0L506.6,99.8L502.0,96.2L498.6,97.0L498.6,93.2L488.8,89.0L481.8,83.6L484.2,76.0L479.0,71.6L470.6,56.0L470.6,49.0L474.4,39.2L474.0,35.8L476.2,35.6L478.4,32.8L474.8,22.4L471.0,22.8L465.2,20.4L459.0,15.2L453.8,14.8L451.6,18.2L449.0,18.2L447.8,23.8L450.6,29.2L450.6,36.6L448.2,41.4L449.4,43.0L449.0,49.6L446.2,52.8L442.6,53.8L438.6,51.8L432.0,45.8L430.0,45.0L428.0,48.0L422.6,47.0L414.2,53.4L395.6,49.8L392.0,51.2L390.4,62.4L401.2,88.0L398.4,89.8L391.2,88.8L378.6,88.2L374.6,86.0L371.4,82.0L364.4,69.0L361.6,68.4L360.4,72.2L356.8,72.2L351.0,79.4L350.8,85.8L371.2,107.2L375.0,114.8L377.0,120.0L382.4,123.8L387.0,125.0L387.4,129.6L394.2,135.2L396.0,141.6L397.2,146.0Z" />
		<path id="L1610948126378" name="密云区" class="qing-map-1616414168790" d="M673.4,265.2L670.4,265.4L667.2,265.8L665.0,263.2L661.8,266.0L659.4,266.0L657.0,265.0L655.6,266.4L655.2,269.6L666.2,291.8L673.4,296.4L673.6,298.8L663.6,309.6L664.6,319.2L661.0,323.4L659.6,327.8L657.8,326.6L656.6,327.6L654.6,328.6L652.6,328.8L651.0,327.6L648.2,326.8L644.6,327.2L641.6,328.6L639.8,330.2L637.6,329.0L635.2,329.4L631.0,333.8L621.8,338.2L619.2,336.0L616.0,335.6L614.8,336.0L613.6,338.0L612.2,338.8L609.0,340.4L607.8,340.4L605.8,343.2L603.8,342.8L601.4,345.4L600.0,345.6L596.8,343.4L594.6,345.2L590.8,345.6L588.6,346.4L585.2,352.0L584.0,355.0L585.6,359.0L583.6,361.4L582.4,362.4L582.6,365.2L581.4,366.6L579.2,366.6L579.2,368.0L576.2,368.0L572.0,371.2L571.2,373.0L568.4,374.0L568.2,375.8L565.4,378.2L565.8,380.0L568.4,383.2L571.0,383.4L573.0,385.6L571.8,388.2L569.8,390.2L568.2,392.8L565.6,392.0L563.4,391.6L562.0,392.8L559.4,394.4L557.4,394.4L556.0,396.2L555.0,398.4L553.0,397.8L550.6,398.0L550.2,395.0L545.8,393.2L546.2,390.8L544.6,388.2L542.8,386.0L542.8,383.8L539.8,380.4L539.6,378.8L537.6,376.6L538.4,374.2L537.0,370.6L536.6,366.2L532.8,365.4L530.4,362.2L530.4,359.0L528.0,357.8L524.8,358.2L522.4,360.6L522.0,363.2L521.2,365.6L520.2,369.4L516.4,370.2L514.6,368.2L512.2,368.0L508.8,367.8L508.0,371.2L506.6,372.6L506.2,374.6L502.6,377.4L496.8,374.2L492.8,371.8L491.2,372.0L491.0,370.0L493.4,366.8L492.6,365.4L496.4,362.0L497.8,361.6L499.0,358.6L501.8,357.2L499.2,351.8L498.4,348.6L496.4,348.0L495.6,346.6L493.8,348.0L493.4,345.8L488.6,347.0L488.0,345.4L485.2,345.8L485.6,343.6L487.2,341.0L487.6,338.2L487.0,335.6L484.6,335.2L484.6,332.4L482.2,331.8L480.2,328.8L482.2,326.6L482.4,323.6L482.0,321.2L479.4,320.4L482.2,318.0L486.0,314.6L486.6,313.0L491.6,311.2L489.4,308.8L486.6,309.2L485.6,306.8L485.6,303.6L485.4,299.8L486.6,297.6L484.8,295.4L484.6,292.4L485.4,290.8L483.6,291.4L481.6,291.2L478.2,287.6L475.6,283.0L475.0,280.2L476.8,279.6L475.0,277.8L475.8,275.2L477.8,273.6L477.8,270.4L478.6,265.0L482.0,264.0L482.4,261.8L483.6,260.0L478.8,255.2L478.6,251.4L475.4,249.8L472.2,249.4L470.0,247.8L471.4,246.6L470.6,243.2L473.6,242.2L477.4,242.6L480.8,242.2L482.6,239.4L482.6,235.0L480.8,230.2L481.8,228.4L481.2,224.8L479.8,223.6L481.0,222.4L480.4,220.4L479.0,221.0L478.0,217.8L478.2,216.4L479.8,215.0L479.6,212.8L478.4,210.6L480.0,208.6L482.2,206.8L480.8,203.8L482.6,202.0L482.0,199.2L481.2,195.6L482.2,193.4L481.8,189.4L485.6,187.8L486.8,185.2L490.2,183.2L494.4,180.8L496.2,177.8L497.8,176.0L500.8,177.4L503.0,178.0L505.0,179.2L506.6,179.4L507.0,176.2L508.2,173.4L508.6,168.6L508.4,164.6L506.8,160.6L505.8,156.6L506.8,153.4L511.0,157.4L514.6,158.0L518.0,155.8L522.0,155.8L526.8,151.2L524.4,146.8L529.4,144.8L531.0,143.4L532.4,142.8L534.8,141.2L534.0,137.8L536.0,135.0L537.8,133.8L539.6,135.2L542.0,134.0L543.8,134.4L546.4,136.4L545.8,140.8L547.2,143.8L555.0,145.0L556.0,150.4L556.2,154.2L555.0,155.8L558.4,159.6L561.2,160.6L562.4,166.2L569.6,171.6L570.0,175.4L579.4,180.2L585.4,182.2L591.4,182.2L598.6,180.2L609.0,179.4L620.2,176.4L622.6,179.8L628.8,180.6L636.4,182.0L639.8,180.0L642.6,183.0L657.6,187.0L671.2,191.4L677.4,194.2L683.2,197.6L689.6,199.6L696.0,198.8L700.6,195.2L707.8,191.6L714.2,189.4L722.0,189.2L729.8,190.0L736.0,191.2L744.8,192.6L752.4,192.4L757.4,195.4L760.4,199.4L758.2,202.4L755.6,206.2L752.2,208.6L748.2,208.0L745.0,204.2L741.6,201.6L738.4,202.2L737.6,206.4L737.2,210.8L734.4,213.4L730.8,213.0L729.6,208.2L727.4,210.0L728.8,216.0L725.8,221.2L725.4,226.0L727.6,233.6L730.8,234.8L729.8,238.0L726.8,240.0L720.6,239.4L715.2,243.0L712.8,241.8L704.2,235.0L700.4,234.4L697.0,237.2L693.8,236.0L690.2,236.0L687.0,240.2L684.2,242.2L677.4,244.2L669.0,249.8L668.8,253.4L671.2,257.2L673.2,261.8Z" />
		<path id="L1610951407451" name="昌平区" class="qing-map-1616414168790" d="M405.8,379.8L402.6,377.8L402.2,373.6L400.2,371.6L397.6,371.8L397.4,370.0L394.6,368.4L390.4,368.4L390.2,364.6L390.0,362.4L389.2,360.6L392.6,355.4L389.4,352.4L388.0,352.4L386.2,347.8L384.6,349.8L381.8,349.0L379.0,349.0L375.8,347.4L371.4,346.8L369.4,345.2L364.6,345.4L364.2,347.6L361.8,347.0L362.6,343.2L361.0,340.4L362.2,336.8L359.0,335.2L357.8,336.6L355.4,336.4L358.8,331.4L358.0,330.0L356.0,330.2L347.4,323.0L342.8,321.4L339.2,322.6L335.2,321.0L335.6,325.0L333.0,327.4L328.0,324.4L326.8,325.8L323.8,324.4L321.4,327.8L320.0,326.8L315.6,327.4L313.4,325.4L308.4,325.0L306.2,327.0L298.4,330.6L296.4,329.6L294.2,332.2L292.2,331.8L287.6,333.8L287.2,339.0L290.2,342.0L288.6,344.8L286.6,345.6L285.4,344.8L286.0,343.8L286.0,342.0L285.0,340.6L284.4,341.6L283.8,343.2L284.6,344.8L285.2,346.2L283.6,350.8L284.4,355.0L280.2,357.6L277.4,357.0L273.4,349.0L264.6,348.2L261.4,345.0L256.8,346.2L254.6,350.2L255.6,352.8L253.2,355.6L249.4,355.8L247.4,356.8L245.2,355.0L244.2,351.2L240.8,346.6L238.4,347.2L235.4,351.0L232.8,349.6L227.0,354.0L227.2,356.8L229.2,358.2L231.8,360.8L231.0,362.6L228.2,365.2L228.4,369.4L229.0,372.6L226.8,374.8L223.4,376.6L223.8,379.2L223.2,381.2L216.0,383.8L213.2,381.8L206.2,387.0L205.2,391.4L202.2,392.4L200.4,391.2L196.6,396.0L194.4,400.0L196.8,402.6L194.2,403.4L195.8,405.8L192.6,406.4L191.8,411.8L189.2,414.6L184.2,413.2L183.4,414.8L183.6,418.6L183.0,422.6L185.4,425.0L183.0,426.4L183.8,430.8L188.2,431.4L193.0,434.8L205.2,435.6L206.8,436.6L208.4,436.6L216.2,449.6L215.8,452.4L220.0,453.8L221.8,452.0L222.2,456.8L223.8,460.0L224.6,463.8L229.2,461.0L234.4,460.6L238.0,462.2L242.8,464.4L244.8,461.2L247.4,461.4L249.0,460.4L252.2,459.8L255.4,454.6L257.4,452.2L260.0,449.4L260.2,446.6L264.2,444.8L268.2,443.6L270.6,445.4L274.8,446.2L280.8,446.4L281.4,443.2L289.0,442.4L294.8,440.8L294.0,437.4L294.0,432.6L298.2,432.0L299.4,426.8L301.4,427.6L302.0,426.0L306.0,425.0L306.0,429.0L307.8,433.4L316.2,435.2L320.8,436.6L320.8,442.8L319.0,445.0L320.6,449.8L324.8,450.0L326.8,448.2L326.4,453.6L327.2,455.6L330.2,455.6L331.8,462.0L336.0,461.4L341.0,470.6L345.8,470.6L347.6,474.2L350.2,472.4L354.8,471.2L357.4,469.2L361.0,467.8L362.8,467.0L364.8,468.4L367.6,470.6L366.0,471.8L363.8,472.4L364.0,474.2L362.4,475.8L366.4,478.8L370.0,479.4L372.6,480.8L375.8,479.0L375.4,476.6L377.4,472.8L383.0,470.2L389.0,470.2L392.2,470.8L394.4,470.4L394.2,466.8L395.4,463.2L396.6,461.2L397.4,457.8L396.6,455.4L400.2,454.2L404.0,453.6L405.2,449.2L404.0,442.6L403.2,436.2L402.0,434.2L401.8,431.4L404.6,429.0L404.4,427.4L400.8,426.6L401.2,422.2L403.4,412.0L399.0,406.6L400.2,397.0L403.2,397.0L402.0,387.0L409.2,383.8L409.6,379.8Z" />
		<path id="L1610952413372" name="顺义区" class="qing-map-1616414168790" d="M559.4,394.4L557.4,394.4L556.0,396.2L555.0,398.4L553.0,397.8L550.6,398.0L550.2,395.0L545.8,393.2L546.2,390.8L544.6,388.2L542.8,386.0L542.8,383.8L539.8,380.4L539.6,378.8L537.6,376.6L538.4,374.2L537.0,370.6L536.6,366.2L532.8,365.4L530.4,362.2L530.4,359.0L528.0,357.8L524.8,358.2L522.4,360.6L522.0,363.2L521.2,365.6L520.2,369.4L516.4,370.2L514.6,368.2L512.2,368.0L508.8,367.8L508.0,371.2L506.6,372.6L506.2,374.6L502.6,377.4L496.8,374.2L492.8,371.8L491.2,372.0L491.0,370.0L493.4,366.8L481.2,381.6L479.0,381.4L479.4,384.0L476.4,385.0L473.4,391.4L468.2,391.0L468.6,386.2L466.6,379.0L458.2,381.2L456.6,381.6L454.8,380.0L450.6,380.2L450.0,383.8L447.0,383.8L444.4,384.0L444.2,382.0L442.6,378.0L439.8,378.0L438.6,376.4L433.0,376.4L432.6,374.0L431.4,374.0L430.0,372.6L421.2,373.2L421.6,377.6L420.4,379.6L416.4,380.0L416.0,381.4L414.0,381.4L412.0,380.6L409.6,379.8L409.2,383.8L402.0,387.0L403.2,397.0L400.2,397.0L399.0,406.6L403.4,412.0L401.2,422.2L400.8,426.6L404.4,427.4L404.6,429.0L401.8,431.4L402.0,434.2L403.2,436.2L404.0,442.6L405.2,449.2L404.0,453.6L400.2,454.2L396.6,455.4L397.4,457.8L399.8,459.6L402.4,460.8L406.2,461.2L411.8,465.8L416.8,465.8L424.0,471.4L426.6,471.2L426.4,475.2L425.0,475.6L433.0,482.4L436.0,482.8L436.0,485.6L442.0,490.2L444.4,487.8L445.6,484.4L448.0,483.6L452.0,488.0L454.8,487.0L455.8,488.4L459.6,487.2L462.0,489.2L463.6,488.0L466.0,491.2L472.0,491.4L472.8,493.8L474.0,493.8L473.2,490.6L476.4,489.6L478.6,489.0L479.4,486.8L486.8,488.0L488.8,487.4L490.0,485.6L493.2,486.0L493.4,487.2L495.2,489.0L496.2,490.6L502.0,491.0L504.6,486.6L504.6,483.4L508.6,483.0L509.4,484.6L513.0,485.0L513.6,483.4L516.6,483.8L518.0,485.2L520.0,485.6L520.8,479.4L522.6,476.6L528.2,475.2L530.8,474.0L533.0,476.4L537.2,479.6L550.8,475.2L553.6,478.6L557.8,474.2L562.8,478.8L568.2,476.0L569.2,470.4L573.4,469.0L577.4,463.8L575.4,462.0L574.4,458.8L574.8,456.4L571.6,452.8L573.4,448.6L571.6,446.0L571.6,442.6L569.6,440.6L571.0,435.0L574.0,429.8L571.6,427.4L571.8,423.8L569.4,421.4L568.6,419.4L564.8,419.4L562.4,417.0L563.2,414.4L564.4,413.2L561.8,410.2L559.6,407.2L557.8,403.2L561.2,402.4L561.2,399.2L561.0,396.8Z" />
		<path id="L1610954139710" name="平谷区" class="qing-map-1616414168790" d="M568.2,476.0L569.2,470.4L573.4,469.0L577.4,463.8L575.4,462.0L574.4,458.8L574.8,456.4L571.6,452.8L573.4,448.6L571.6,446.0L571.6,442.6L569.6,440.6L571.0,435.0L574.0,429.8L571.6,427.4L571.8,423.8L569.4,421.4L568.6,419.4L564.8,419.4L562.4,417.0L563.2,414.4L564.4,413.2L561.8,410.2L559.6,407.2L557.8,403.2L561.2,402.4L561.2,399.2L561.0,396.8L559.4,394.4L562.0,392.8L563.4,391.6L565.6,392.0L568.2,392.8L569.8,390.2L571.8,388.2L573.0,385.6L571.0,383.4L568.4,383.2L565.8,380.0L565.4,378.2L568.2,375.8L568.4,374.0L571.2,373.0L572.0,371.2L576.2,368.0L579.2,368.0L579.2,366.6L581.4,366.6L582.6,365.2L582.4,362.4L583.6,361.4L585.6,359.0L584.0,355.0L585.2,352.0L588.6,346.4L590.8,345.6L594.6,345.2L596.8,343.4L600.0,345.6L601.4,345.4L603.8,342.8L605.8,343.2L607.8,340.4L609.0,340.4L612.2,338.8L613.6,338.0L614.8,336.0L616.0,335.6L619.2,336.0L621.8,338.2L631.0,333.8L635.2,329.4L637.6,329.0L639.8,330.2L641.6,328.6L644.6,327.2L648.2,326.8L651.0,327.6L652.6,328.8L654.6,328.6L656.6,327.6L657.8,326.6L659.6,327.8L660.4,330.8L665.4,330.6L673.0,346.8L677.8,347.2L676.0,350.8L677.0,356.8L684.0,365.4L683.6,369.6L686.6,372.2L691.8,371.0L696.6,367.8L698.2,373.6L697.8,381.6L703.6,393.2L709.6,393.0L713.6,394.8L716.8,395.0L717.6,398.4L712.8,399.2L713.8,403.0L717.8,405.0L718.2,406.6L713.6,406.4L715.2,412.4L717.8,412.4L719.8,411.4L723.0,414.0L718.4,417.6L717.2,420.0L713.4,418.4L705.4,419.2L703.6,421.8L706.8,427.4L702.8,431.8L704.8,434.4L701.8,437.4L696.4,438.0L694.2,434.6L690.0,434.6L685.6,444.2L681.0,443.0L677.6,446.6L677.0,449.2L675.4,450.2L671.6,446.4L667.0,446.0L662.4,450.8L659.2,455.6L655.4,455.2L654.8,460.8L653.0,463.2L653.6,465.4L652.6,466.8L650.2,467.4L648.8,464.6L647.6,460.0L645.0,462.2L644.6,466.4L641.0,465.4L636.6,463.2L636.6,466.6L628.4,469.2L620.0,466.2L612.2,464.8L610.8,468.8L607.8,467.4L600.0,471.4L591.2,482.8L590.6,485.0L588.0,485.0L586.8,483.2L582.4,484.6L579.4,481.6L576.0,481.0L572.2,481.8L571.0,476.0Z" />
		<path id="L1610953311889" name="朝阳区" class="qing-map-1616414168790" d="M442.0,490.2L436.0,485.6L436.0,482.8L433.0,482.4L425.0,475.6L426.4,475.2L426.6,471.2L424.0,471.4L416.8,465.8L411.8,465.8L406.2,461.2L402.4,460.8L399.8,459.6L397.4,457.8L396.6,461.2L395.4,463.2L394.2,466.8L394.4,470.4L392.2,470.8L389.0,470.2L383.0,470.2L377.4,472.8L375.4,476.6L375.8,479.0L372.6,480.8L370.0,479.4L370.47,483.33L366.0,483.67L356.0,485.33L365.67,502.0L367.2,510.6L371.2,511.2L371.4,512.4L369.8,513.9L369.4,516.2L369.6,517.6L370.8,515.2L376.8,515.4L376.2,511.2L378.0,515.6L382.2,516.0L384.0,521.8L386.8,521.6L389.0,523.6L388.8,530.2L385.4,530.4L386.0,542.2L389.8,542.0L389.6,545.8L391.2,547.8L389.2,547.8L389.2,551.0L388.0,555.0L389.2,556.6L389.0,560.2L392.2,562.2L396.4,564.6L394.8,566.8L393.0,565.8L389.4,567.8L387.4,571.0L383.8,573.6L382.8,575.2L385.6,575.6L388.4,576.8L389.2,579.2L392.2,578.8L395.8,582.2L397.4,582.2L399.0,584.0L403.2,583.8L404.2,581.0L405.8,580.6L406.8,581.2L408.0,581.6L413.4,578.4L413.2,575.4L417.0,575.6L419.8,576.8L422.0,575.0L423.4,575.2L423.2,573.6L433.4,574.6L435.4,576.4L438.2,576.4L438.0,577.6L440.4,578.0L442.6,577.0L444.0,574.0L443.6,571.0L445.4,568.4L445.2,566.4L447.8,566.4L453.0,561.6L450.6,556.6L451.8,554.2L451.8,552.4L453.4,552.0L453.0,547.2L449.4,547.2L449.2,544.6L451.4,542.0L451.2,537.0L451.0,533.2L454.2,533.8L452.4,529.8L454.0,529.0L454.0,526.6L453.2,522.4L454.6,521.0L458.2,522.6L458.2,513.8L456.8,511.6L457.2,506.6L455.4,506.4L455.4,504.8L458.6,502.6L457.8,499.6L455.8,495.8L453.4,496.4L452.8,494.2L450.2,492.2L447.0,492.0ZM436.6,457.8L441.4,457.4L442.6,456.4L442.8,453.4L444.2,455.8L444.4,459.6L445.6,465.0L446.6,474.2L443.2,474.8L444.0,479.2L442.4,479.2L440.6,478.2L440.0,475.0L439.2,471.0L439.2,468.0L438.6,465.8L435.8,464.8L435.0,461.2L435.0,458.0L434.0,453.4L434.6,449.8L436.2,452.6Z" />
		<path id="L1610954593483" name="海淀区" class="qing-map-1616414168790" d="M372.6,480.8L370.0,479.4L366.4,478.8L362.4,475.8L364.0,474.2L363.8,472.4L366.0,471.8L367.6,470.6L364.8,468.4L362.8,467.0L361.0,467.8L357.4,469.2L354.8,471.2L350.2,472.4L347.6,474.2L345.8,470.6L341.0,470.6L336.0,461.4L331.8,462.0L330.2,455.6L327.2,455.6L326.4,453.6L326.8,448.2L324.8,450.0L320.6,449.8L319.0,445.0L320.8,442.8L320.8,436.6L316.2,435.2L307.8,433.4L306.0,429.0L306.0,425.0L302.0,426.0L301.4,427.6L299.4,426.8L298.2,432.0L294.0,432.6L294.0,437.4L294.8,440.8L289.0,442.4L281.4,443.2L280.8,446.4L274.8,446.2L270.6,445.4L268.2,443.6L264.2,444.8L260.2,446.6L260.0,449.4L257.4,452.2L255.4,454.6L252.8,458.6L252.2,459.8L257.8,465.2L260.2,471.0L259.4,475.2L263.2,484.0L265.4,484.4L267.8,483.8L270.2,483.4L276.2,483.4L279.2,484.8L281.8,484.2L287.2,488.0L289.4,488.0L296.4,495.0L295.4,497.6L288.8,499.2L287.8,501.2L290.0,504.8L292.0,504.4L294.0,507.8L296.4,506.4L296.8,504.2L300.2,506.0L299.8,512.2L301.6,513.2L303.6,515.4L305.4,517.4L309.4,522.0L309.8,526.2L309.6,528.6L310.0,531.8L306.4,533.2L307.0,535.2L308.8,535.6L314.4,535.6L320.6,535.0L321.6,536.0L322.8,536.6L323.0,544.6L327.0,544.4L336.8,545.0L337.4,548.8L341.8,545.6L348.4,545.0L351.2,543.8L351.6,538.8L351.0,527.8L349.8,523.8L352.8,524.6L356.2,524.2L357.0,520.8L359.0,521.2L359.2,523.0L361.8,521.6L364.0,521.0L363.8,514.6L363.4,512.8L366.4,513.0L367.2,510.6L365.67,502.0L356.0,485.33L366.0,483.67L370.47,483.33L370.0,479.4Z" />
		<path id="L1610955212048" name="石景山区" class="qing-map-1616414168790" d="M287.8,501.2L290.0,504.8L292.0,504.4L294.0,507.8L296.4,506.4L296.8,504.2L300.2,506.0L299.8,512.2L301.6,513.2L303.6,515.4L305.4,517.4L309.4,522.0L309.8,526.2L309.6,528.6L310.0,531.8L306.4,533.2L307.0,535.2L308.8,535.6L314.4,535.6L320.6,535.0L321.6,536.0L322.8,536.6L323.0,544.6L318.8,545.6L314.0,548.2L314.2,550.8L311.8,551.0L310.6,553.2L308.8,553.2L308.6,555.0L307.0,555.4L306.6,553.8L303.8,551.6L297.2,551.0L292.6,549.0L291.0,544.8L287.8,542.8L287.8,540.6L284.4,538.0L284.4,534.2L281.2,531.0L278.8,528.8L277.2,528.8L275.2,525.8L275.6,521.8L276.8,521.2L275.4,517.4L277.2,515.6L278.2,513.0L276.2,511.4L275.0,507.0L277.6,504.6L282.0,503.8L285.2,502.8Z" />
		<path id="L1610955498015" name="门头沟区" class="qing-map-1616414168790" d="M183.8,430.8L188.2,431.4L193.0,434.8L205.2,435.6L206.8,436.6L208.4,436.6L216.2,449.6L215.8,452.4L220.0,453.8L221.8,452.0L222.2,456.8L223.8,460.0L224.6,463.8L229.2,461.0L234.4,460.6L238.0,462.2L242.8,464.4L244.8,461.2L247.4,461.4L249.0,460.4L252.2,459.8L252.2,459.8L257.8,465.2L260.2,471.0L259.4,475.2L263.2,484.0L265.4,484.4L267.8,483.8L270.2,483.4L276.2,483.4L279.2,484.8L281.8,484.2L287.2,488.0L289.4,488.0L296.4,495.0L295.4,497.6L288.8,499.2L287.8,501.2L285.2,502.8L282.0,503.8L277.6,504.6L275.0,507.0L276.2,511.4L278.2,513.0L277.2,515.6L275.4,517.4L276.8,521.2L275.6,521.8L275.2,525.8L277.2,528.8L278.8,528.8L281.2,531.0L284.4,534.2L284.4,538.0L287.8,540.6L287.8,542.8L291.0,544.8L292.6,549.0L289.2,548.2L287.4,550.4L284.2,550.4L278.8,553.2L273.8,555.6L270.8,555.0L271.0,558.0L269.0,557.6L267.2,558.0L264.8,558.0L263.0,557.4L259.2,558.0L259.8,562.8L256.2,564.8L254.6,566.8L253.8,567.8L252.2,566.8L248.0,568.4L243.6,570.0L242.0,569.8L242.0,567.4L238.6,566.0L233.0,569.4L231.2,566.0L230.8,561.8L231.6,560.8L230.8,559.0L233.4,557.6L234.6,554.6L232.4,554.0L227.6,556.2L225.6,557.4L224.2,556.4L222.8,557.6L219.8,557.8L218.6,556.2L210.8,553.8L208.8,549.8L213.2,545.2L216.2,542.2L216.2,540.4L216.8,539.0L214.2,535.0L209.4,536.6L206.0,536.6L202.0,536.8L198.0,535.4L193.2,536.6L190.8,539.0L187.0,542.4L181.6,544.0L180.0,542.4L176.4,541.6L173.4,537.0L170.0,536.6L166.0,533.4L159.4,533.6L157.8,534.8L156.2,532.6L151.2,534.2L148.8,534.6L148.0,536.8L141.6,540.0L138.4,540.0L134.2,540.8L130.0,542.0L127.4,544.2L124.6,549.0L121.6,549.2L120.4,550.4L115.6,551.0L113.6,554.0L111.6,553.8L111.2,555.4L108.0,555.8L104.8,558.4L102.0,562.4L101.6,567.0L98.2,570.8L97.4,574.6L94.8,579.8L89.8,582.6L86.4,582.6L81.6,580.0L75.6,574.6L73.4,572.8L68.6,572.2L65.8,568.6L70.0,560.8L70.0,558.0L72.0,556.8L71.8,554.6L65.2,551.2L69.0,546.4L69.0,543.2L65.0,538.0L60.8,535.4L57.6,534.6L55.4,528.0L43.0,520.4L37.2,521.2L35.6,518.6L36.4,508.2L40.6,502.6L45.8,501.8L42.4,492.6L46.6,484.2L50.6,484.2L56.0,481.0L72.8,463.0L77.2,462.6L82.2,455.6L86.8,453.8L91.0,455.6L93.2,454.6L95.6,444.8L108.6,445.6L113.6,439.4L132.4,441.4L135.0,439.6L133.8,438.0L134.8,437.2L137.0,438.0L142.2,440.0L146.2,437.8L150.6,432.2L149.0,428.0L156.0,424.0L161.0,419.4L168.6,428.6L172.6,429.2L177.6,432.0L177.8,429.6L181.0,431.6Z" />
		<path id="L1610956110654" name="西城区" class="qing-map-1616414168790" d="M348.4,545.0L351.2,543.8L351.6,538.8L351.0,527.8L349.8,523.8L352.8,524.6L356.2,524.2L357.0,520.8L359.0,521.2L359.2,523.0L361.8,521.6L364.0,521.0L363.8,514.6L363.4,512.8L366.4,513.0L367.2,510.6L371.2,511.2L371.4,512.4L369.8,513.9L369.4,516.2L369.6,517.6L371.6,518.0L372.0,525.0L372.6,529.2L373.6,532.2L371.0,534.0L371.4,536.6L370.6,538.4L372.4,539.8L372.6,543.4L373.6,551.4L373.0,556.2L367.6,556.4L356.8,556.8L354.6,554.6L346.8,554.4L346.8,551.8Z" />
		<path id="L1610956211456" name="东城区" class="qing-map-1616414168790" d="M367.6,556.4L373.0,556.2L373.6,551.4L372.6,543.4L372.4,539.8L370.6,538.4L371.4,536.6L371.0,534.0L373.6,532.2L372.6,529.2L372.0,525.0L371.6,518.0L369.6,517.6L370.8,515.2L376.8,515.4L376.2,511.2L378.0,515.6L382.2,516.0L384.0,521.8L386.8,521.6L389.0,523.6L388.8,530.2L385.4,530.4L386.0,542.2L389.8,542.0L389.6,545.8L391.2,547.8L389.2,547.8L389.2,551.0L388.0,555.0L382.2,555.4L379.2,558.2L378.8,560.6L377.4,562.2L374.0,561.8L372.0,562.4L372.4,560.8L371.0,559.0L369.0,559.0L367.6,558.6Z" />
		<path id="L1610938290912" name="丰台区" class="qing-map-1616414168790" d="M338.0,596.0L335.8,591.2L337.0,590.2L334.8,590.0L330.6,590.0L326.8,591.4L325.0,590.4L323.4,591.2L319.6,581.4L314.8,577.2L309.6,579.2L309.0,582.2L307.8,584.2L307.2,587.8L305.0,589.6L304.8,595.6L304.2,598.2L299.8,595.4L293.4,595.0L292.8,598.4L291.8,603.0L288.6,603.2L282.8,603.4L279.2,605.0L277.2,603.4L277.0,599.2L280.6,598.2L280.8,596.2L277.4,594.4L276.8,592.6L273.4,594.2L271.0,594.4L269.2,597.0L267.4,594.2L265.2,591.0L264.8,586.4L265.2,582.4L265.6,577.4L265.2,574.6L261.6,575.0L259.0,570.2L256.8,570.8L253.8,567.8L254.6,566.8L256.2,564.8L259.8,562.8L259.2,558.0L263.0,557.4L264.8,558.0L267.2,558.0L269.0,557.6L271.0,558.0L270.8,555.0L273.8,555.6L278.8,553.2L284.2,550.4L287.4,550.4L289.2,548.2L292.6,549.0L297.2,551.0L303.8,551.6L306.6,553.8L307.0,555.4L308.6,555.0L308.8,553.2L310.6,553.2L311.8,551.0L314.2,550.8L314.0,548.2L318.8,545.6L323.0,544.6L327.0,544.4L336.8,545.0L337.4,548.8L341.8,545.6L348.4,545.0L346.8,551.8L346.8,554.4L354.6,554.6L356.8,556.8L367.6,556.4L367.6,558.6L369.0,559.0L371.0,559.0L372.4,560.8L372.0,562.4L374.0,561.8L377.4,562.2L378.8,560.6L379.2,558.2L382.2,555.4L388.0,555.0L389.2,556.6L389.0,560.2L392.2,562.2L396.4,564.6L394.8,566.8L393.0,565.8L389.4,567.8L387.4,571.0L383.8,573.6L382.8,575.2L379.8,576.0L380.0,578.2L381.0,581.2L379.8,581.8L378.2,581.6L377.6,583.4L379.0,583.4L381.0,584.2L382.4,585.0L382.6,586.4L384.0,587.0L384.6,589.0L384.4,591.2L381.8,591.0L380.8,594.2L373.0,594.8L373.0,597.4L373.4,603.8L371.4,604.2L370.4,602.8L370.0,598.2L367.4,598.0L366.6,598.0L366.4,595.2L363.0,595.2L362.0,589.2L358.2,588.4L358.2,586.4L354.6,586.0L353.0,588.2L351.0,588.4L349.0,588.4L348.8,589.2L347.0,590.2L347.0,591.4L346.6,595.8L342.0,602.8Z" />
		<path id="L1610959616795" name="房山区" class="qing-map-1616414168790" d="M319.6,581.4L314.8,577.2L309.6,579.2L309.0,582.2L307.8,584.2L307.2,587.8L305.0,589.6L304.8,595.6L304.2,598.2L299.8,595.4L293.4,595.0L292.8,598.4L291.8,603.0L288.6,603.2L282.8,603.4L279.2,605.0L277.2,603.4L277.0,599.2L280.6,598.2L280.8,596.2L277.4,594.4L276.8,592.6L273.4,594.2L271.0,594.4L269.2,597.0L267.4,594.2L265.2,591.0L264.8,586.4L265.2,582.4L265.6,577.4L265.2,574.6L261.6,575.0L259.0,570.2L256.8,570.8L253.8,567.8L252.2,566.8L248.0,568.4L243.6,570.0L242.0,569.8L242.0,567.4L238.6,566.0L233.0,569.4L231.2,566.0L230.8,561.8L231.6,560.8L230.8,559.0L233.4,557.6L234.6,554.6L232.4,554.0L227.6,556.2L225.6,557.4L224.2,556.4L222.8,557.6L219.8,557.8L218.6,556.2L210.8,553.8L208.8,549.8L213.2,545.2L216.2,542.2L216.2,540.4L216.8,539.0L214.2,535.0L209.4,536.6L206.0,536.6L202.0,536.8L198.0,535.4L193.2,536.6L190.8,539.0L187.0,542.4L181.6,544.0L180.0,542.4L176.4,541.6L173.4,537.0L170.0,536.6L166.0,533.4L159.4,533.6L157.8,534.8L156.2,532.6L151.2,534.2L148.8,534.6L148.0,536.8L141.6,540.0L138.4,540.0L134.2,540.8L130.0,542.0L127.4,544.2L124.6,549.0L121.6,549.2L120.4,550.4L115.6,551.0L113.6,554.0L111.6,553.8L111.2,555.4L108.0,555.8L104.8,558.4L102.0,562.4L101.6,567.0L98.2,570.8L97.4,574.6L94.8,579.8L89.8,582.6L86.4,582.6L83.6,586.2L81.6,589.4L77.0,590.4L70.4,591.6L68.0,592.2L64.2,595.2L57.2,589.8L51.8,590.8L47.0,595.6L42.2,595.0L38.8,595.8L37.2,599.2L36.2,601.6L37.4,603.0L39.8,602.4L40.8,603.2L40.0,605.4L40.2,610.0L43.8,612.2L49.6,613.8L55.8,614.6L59.8,616.4L58.4,619.2L58.4,624.0L59.4,628.0L59.0,631.6L58.2,634.2L61.0,635.6L61.6,638.2L57.4,645.2L60.0,648.4L57.6,650.0L54.6,654.0L55.0,655.6L58.0,656.0L61.4,655.6L63.6,657.0L68.6,662.6L69.2,667.2L69.0,670.8L66.8,674.0L66.8,677.8L67.4,683.0L69.2,681.0L71.8,678.6L74.2,673.4L77.6,672.0L82.6,675.6L84.4,678.0L87.2,680.8L86.0,683.4L92.4,682.8L97.6,678.8L103.8,677.8L107.2,679.8L108.4,677.0L110.8,677.2L111.8,679.6L118.4,678.6L120.0,674.8L126.0,678.2L126.8,682.2L129.2,686.8L128.6,690.6L128.8,694.8L132.4,695.8L134.4,696.6L139.4,704.2L144.8,703.8L146.2,711.2L149.2,718.8L151.2,717.8L155.6,717.8L159.2,719.2L165.8,719.6L168.8,721.2L170.0,719.2L174.4,720.8L176.2,718.4L174.6,715.2L173.0,710.2L175.6,707.8L176.0,705.6L182.0,704.8L182.4,700.4L184.8,700.2L190.2,703.2L195.4,701.6L197.8,698.8L197.4,693.2L203.0,693.6L205.6,690.0L207.0,686.4L203.6,686.0L204.4,679.4L209.6,682.2L212.6,685.2L214.6,690.4L221.6,696.4L226.8,692.8L226.8,684.0L228.4,680.4L231.8,681.2L232.4,687.6L235.0,689.0L238.8,687.2L241.8,687.8L243.8,691.8L252.4,691.8L261.4,691.6L269.6,688.2L271.4,689.8L271.6,692.6L282.4,692.8L285.0,691.2L286.4,692.6L288.2,689.0L288.4,687.4L294.2,686.6L299.0,684.4L303.4,684.8L308.2,688.4L311.4,688.8L314.0,683.2L311.8,675.6L311.4,669.4L311.0,663.4L310.6,655.8L312.6,649.6L311.8,642.6L314.8,637.8L315.4,631.8L319.8,627.2L320.2,623.8L321.8,620.8L319.8,616.2L323.4,609.0L323.8,605.0L323.8,599.2L323.0,594.4L323.4,591.2Z" />
		<path id="L1610960287701" name="大兴区" class="qing-map-1616414168790" d="M379.8,576.0L380.0,578.2L381.0,581.2L379.8,581.8L378.2,581.6L377.6,583.4L379.0,583.4L381.0,584.2L382.4,585.0L382.6,586.4L384.0,587.0L384.6,589.0L384.4,591.2L381.8,591.0L380.8,594.2L373.0,594.8L373.0,597.4L373.4,603.8L371.4,604.2L370.4,602.8L370.0,598.2L367.4,598.0L366.6,598.0L366.4,595.2L363.0,595.2L362.0,589.2L358.2,588.4L358.2,586.4L354.6,586.0L353.0,588.2L351.0,588.4L349.0,588.4L348.8,589.2L347.0,590.2L347.0,591.4L346.6,595.8L342.0,602.8L338.0,596.0L335.8,591.2L337.0,590.2L334.8,590.0L330.6,590.0L326.8,591.4L325.0,590.4L323.4,591.2L323.0,594.4L323.8,599.2L323.8,605.0L323.4,609.0L319.8,616.2L321.8,620.8L320.2,623.8L319.8,627.2L315.4,631.8L314.8,637.8L311.8,642.6L312.6,649.6L310.6,655.8L311.0,663.4L311.4,669.4L311.8,675.6L314.0,683.2L311.4,688.8L312.6,692.2L315.4,693.8L318.4,695.0L319.8,698.4L319.4,700.6L320.2,702.8L320.6,706.4L320.6,708.8L320.0,713.8L325.8,725.6L340.0,728.4L342.2,731.4L344.4,733.6L351.4,744.2L362.4,744.6L369.6,745.2L372.6,745.6L376.4,746.0L389.2,748.0L393.6,744.6L389.6,734.8L388.0,732.4L385.0,734.4L383.2,734.0L384.0,731.0L382.6,729.8L379.2,731.6L378.8,729.0L379.4,723.4L375.0,717.8L374.8,711.8L376.4,712.8L382.0,712.6L382.2,719.0L386.0,720.6L389.0,718.6L387.2,712.2L395.2,712.2L399.8,707.4L401.0,705.0L399.0,700.4L399.6,698.6L403.4,699.0L406.2,701.4L411.4,700.6L411.2,695.4L416.0,689.8L416.0,685.6L419.0,680.4L422.2,681.8L423.0,678.8L424.6,678.8L424.8,680.8L431.8,677.0L431.4,670.2L435.6,670.2L436.0,668.2L439.0,668.8L442.0,670.6L443.4,668.4L445.8,668.6L451.4,678.8L455.2,679.0L455.2,676.6L459.2,678.0L459.4,679.4L463.0,679.6L463.2,677.8L467.2,677.0L472.8,678.6L475.2,679.2L480.4,684.4L486.6,682.8L486.8,680.8L479.4,674.4L478.6,671.2L487.6,670.0L484.8,663.2L486.0,661.8L480.4,660.6L478.6,656.2L478.2,650.8L478.4,645.2L469.2,644.0L466.0,645.0L465.8,642.6L467.2,641.0L464.8,639.4L461.2,639.2L461.0,636.6L459.2,635.8L458.6,633.6L461.4,632.0L461.2,630.4L459.0,630.2L457.4,628.0L456.2,623.8L454.0,623.6L452.0,621.4L447.6,622.4L446.2,625.0L445.0,625.6L444.6,627.2L441.2,628.8L440.2,627.8L436.8,627.8L436.8,629.2L434.6,629.2L434.4,627.4L424.2,627.4L421.0,628.6L418.2,628.0L418.0,626.0L419.6,625.8L420.8,624.0L421.2,621.2L420.2,620.0L420.0,614.4L418.4,613.6L419.4,611.8L416.2,611.8L416.6,608.4L417.0,606.0L416.0,604.0L417.0,603.2L418.2,605.6L422.4,605.8L422.4,604.2L419.0,598.2L421.8,596.8L419.2,592.6L420.8,588.0L423.2,586.6L422.8,583.2L420.6,581.2L419.8,576.8L417.0,575.6L413.2,575.4L413.4,578.4L408.0,581.6L406.8,581.2L405.8,580.6L404.2,581.0L403.2,583.8L399.0,584.0L397.4,582.2L395.8,582.2L392.2,578.8L389.2,579.2L388.4,576.8L385.6,575.6L382.8,575.2Z" />
		<path id="L1610960951171" name="通州区" class="qing-map-1616414168790" d="M487.6,670.0L484.8,663.2L486.0,661.8L480.4,660.6L478.6,656.2L478.2,650.8L478.4,645.2L469.2,644.0L466.0,645.0L465.8,642.6L467.2,641.0L464.8,639.4L461.2,639.2L461.0,636.6L459.2,635.8L458.6,633.6L461.4,632.0L461.2,630.4L459.0,630.2L457.4,628.0L456.2,623.8L454.0,623.6L452.0,621.4L447.6,622.4L446.2,625.0L445.0,625.6L444.6,627.2L441.2,628.8L440.2,627.8L436.8,627.8L436.8,629.2L434.6,629.2L434.4,627.4L424.2,627.4L421.0,628.6L418.2,628.0L418.0,626.0L419.6,625.8L420.8,624.0L421.2,621.2L420.2,620.0L420.0,614.4L418.4,613.6L419.4,611.8L416.2,611.8L416.6,608.4L417.0,606.0L416.0,604.0L417.0,603.2L418.2,605.6L422.4,605.8L422.4,604.2L419.0,598.2L421.8,596.8L419.2,592.6L420.8,588.0L423.2,586.6L422.8,583.2L420.6,581.2L419.8,576.8L422.0,575.0L423.4,575.2L423.2,573.6L433.4,574.6L435.4,576.4L438.2,576.4L438.0,577.6L440.4,578.0L442.6,577.0L444.0,574.0L443.6,571.0L445.4,568.4L445.2,566.4L447.8,566.4L453.0,561.6L450.6,556.6L451.8,554.2L451.8,552.4L453.4,552.0L453.0,547.2L449.4,547.2L449.2,544.6L451.4,542.0L451.2,537.0L451.0,533.2L454.2,533.8L452.4,529.8L454.0,529.0L454.0,526.6L453.2,522.4L454.6,521.0L458.2,522.6L458.2,513.8L456.8,511.6L457.2,506.6L455.4,506.4L455.4,504.8L458.6,502.6L457.8,499.6L455.8,495.8L453.4,496.4L452.8,494.2L450.2,492.2L447.0,492.0L442.0,490.2L444.4,487.8L445.6,484.4L448.0,483.6L452.0,488.0L454.8,487.0L455.8,488.4L459.6,487.2L462.0,489.2L463.6,488.0L466.0,491.2L472.0,491.4L472.8,493.8L474.0,493.8L473.2,490.6L476.4,489.6L478.6,489.0L479.4,486.8L486.8,488.0L488.8,487.4L490.0,485.6L493.2,486.0L493.4,487.2L495.2,489.0L496.2,490.6L502.0,491.0L502.2,494.4L503.0,496.2L503.6,501.4L500.6,505.6L500.6,509.8L497.0,513.0L499.8,518.6L502.8,518.4L503.0,516.2L504.6,516.4L505.6,519.2L505.8,521.0L507.0,524.4L506.0,527.8L505.6,530.8L506.8,533.2L505.6,536.2L506.6,540.2L507.2,544.2L505.6,547.4L507.6,549.2L511.4,553.0L514.0,553.0L514.4,549.4L517.2,549.6L521.6,555.8L527.0,560.0L530.8,560.6L535.4,568.6L539.6,569.6L540.8,567.4L543.6,570.2L545.0,573.2L547.2,575.2L549.4,574.8L549.8,571.8L548.0,569.2L548.8,566.8L552.6,567.0L555.6,571.6L557.2,578.2L556.8,581.0L558.6,584.6L561.0,584.4L561.6,587.6L558.4,587.6L559.4,589.4L560.8,591.6L564.6,592.2L566.0,595.8L563.6,598.2L557.2,596.8L554.4,596.6L552.6,598.6L554.4,602.6L552.0,606.0L549.4,603.0L547.0,606.6L551.6,612.0L552.4,619.4L544.4,622.2L542.2,626.0L544.6,636.2L543.8,638.2L544.4,639.0L549.2,639.4L550.0,643.0L545.0,646.0L542.4,644.4L539.8,644.6L538.8,647.8L532.6,647.4L530.6,649.4L530.6,655.6L527.0,657.0L527.4,658.8L525.8,659.2L524.2,658.4L522.4,661.2L523.4,664.0L526.0,666.8L526.0,669.8L521.8,672.6L519.2,671.2L510.0,675.2L509.4,679.0L507.6,681.2L504.4,678.6L498.6,671.2L494.4,670.4L491.2,672.8Z" />
	</g>
</svg>
