<svg xmlns="http://www.w3.org/2000/svg" viewBox="0,0,800,591" width="100%" height="100%">
	<defs>
		<style type="text/css">
.qing-map-1616136114805
{
	fill: #DDDDDD;
	fill-opacity: 1.0;
	stroke: #FFFFFF;
	stroke-opacity: 1.0;
	stroke-width: 1;
}

.qing-map-1616136114805:hover
{
	fill: #56A4FF;
	fill-opacity: 1.0;
}
</style>
	</defs>
	<g>
		<path id="L1611122382374" name="海西蒙古族藏族自治州" class="qing-map-1616136114805" d="M461.6,129.4L462.4,131.4L464.0,131.4L464.4,133.2L464.4,135.4L465.6,135.6L466.6,137.8L468.8,137.4L470.4,138.6L471.6,137.4L476.2,141.6L479.2,142.0L482.8,142.4L484.4,143.0L484.6,144.6L487.2,146.4L490.8,145.8L492.6,146.6L492.8,149.0L494.2,148.4L494.8,149.6L496.8,148.8L499.6,149.2L502.4,150.2L505.8,152.6L505.0,153.8L506.4,154.8L504.0,155.0L502.0,156.6L504.0,157.8L502.0,161.0L504.0,162.4L505.0,161.0L505.2,162.2L506.4,161.6L507.6,163.0L512.4,163.4L513.6,161.0L514.8,161.4L515.2,159.6L516.4,159.6L517.8,158.0L519.4,159.6L519.2,161.0L520.6,162.0L524.4,163.4L526.2,162.6L529.6,163.8L531.2,163.4L531.6,164.6L533.0,166.8L534.2,166.0L536.0,166.6L536.2,169.4L535.2,172.2L537.4,173.0L538.2,174.6L539.6,174.4L540.2,175.4L537.4,175.6L534.4,177.0L533.2,177.0L528.8,178.4L527.8,177.6L524.2,180.8L526.4,182.6L524.8,184.0L527.2,185.6L528.8,185.2L529.0,186.6L530.2,186.8L530.4,189.4L531.8,187.6L533.0,189.2L535.0,188.4L536.4,190.0L539.2,191.2L538.0,192.6L538.4,194.2L539.8,195.6L539.0,196.6L541.2,197.0L541.0,198.8L541.2,200.4L538.6,201.0L537.8,202.4L536.2,202.4L535.8,204.0L534.6,203.8L533.8,204.2L533.6,206.8L532.2,207.0L530.8,209.4L529.4,211.8L530.4,213.2L530.2,216.4L527.4,217.8L527.4,221.0L528.8,224.0L527.2,226.8L528.4,230.0L529.4,231.2L529.8,232.2L527.2,231.2L525.4,231.2L524.2,231.5L524.0,233.0L522.6,233.4L521.8,234.8L521.0,234.6L520.0,237.4L518.6,241.0L517.4,243.6L514.6,242.8L514.4,244.6L516.2,245.4L517.2,246.6L518.4,247.0L519.8,247.6L520.8,250.6L522.4,250.6L528.0,256.2L527.0,258.6L529.0,260.6L526.6,262.4L524.4,262.2L523.4,263.6L518.4,266.6L512.8,269.0L511.4,270.0L509.8,270.8L508.6,271.2L507.4,271.0L507.2,272.2L503.2,272.6L503.0,274.4L502.4,275.6L504.0,276.0L504.2,277.8L506.2,278.0L506.8,279.8L508.2,279.8L508.0,281.6L509.6,282.6L510.2,284.2L508.8,285.0L509.4,287.4L509.6,289.6L508.4,289.8L507.2,291.4L506.6,293.4L504.0,294.0L505.6,295.4L505.6,298.0L507.4,298.0L507.0,299.6L508.6,300.2L509.0,301.2L510.4,301.6L510.8,304.0L510.0,304.6L510.8,305.6L512.6,308.6L511.4,310.0L513.0,311.6L513.0,312.8L511.6,314.4L512.6,315.8L514.63,315.0L514.4,316.8L515.8,317.4L515.4,319.2L517.8,320.2L516.6,323.9L515.0,326.8L512.6,326.0L512.0,327.6L510.6,328.4L508.4,327.0L507.4,328.0L504.2,327.6L502.38,327.25L502.6,328.8L500.2,329.4L497.6,328.0L496.6,326.8L495.2,327.2L495.2,329.0L494.6,331.2L492.2,332.6L490.6,332.2L490.0,333.4L487.6,334.6L487.4,336.2L485.2,335.6L482.8,336.8L480.4,335.6L479.0,334.6L478.0,335.6L474.4,335.8L473.8,335.0L473.0,335.8L471.8,334.6L473.13,333.63L470.25,332.55L470.2,333.8L468.2,334.8L468.6,337.6L466.2,344.8L464.3,344.3L464.0,343.2L462.6,344.0L461.6,344.0L460.8,345.8L459.2,345.0L457.8,346.4L455.0,346.4L453.8,345.2L452.4,345.8L451.2,344.4L450.2,344.8L448.4,343.8L447.8,345.0L445.0,343.6L445.4,342.6L442.8,343.2L440.8,342.8L441.4,341.0L438.8,340.4L438.0,342.8L438.0,344.8L438.4,347.8L436.8,348.2L435.8,347.0L434.0,348.0L432.6,347.2L430.8,346.4L429.6,345.4L427.8,345.4L426.4,345.6L425.2,345.6L423.6,344.8L423.8,343.0L422.0,344.0L420.4,344.4L419.0,342.6L417.4,344.0L416.0,343.0L414.0,343.0L410.2,339.6L410.2,337.6L408.2,335.8L408.6,334.8L406.6,335.0L404.8,335.0L404.8,333.6L403.4,335.0L401.8,335.0L400.2,334.2L398.4,334.0L395.4,332.2L395.4,331.0L394.0,330.6L394.0,329.4L392.6,327.8L391.4,329.0L390.2,328.4L388.2,329.2L385.2,327.8L384.6,325.6L383.0,324.8L378.2,324.8L376.4,323.8L375.0,325.6L373.2,325.0L370.0,324.8L368.2,325.2L365.8,324.8L364.8,325.8L361.6,327.0L360.4,330.8L357.0,331.6L355.0,329.0L354.6,327.0L353.0,325.8L345.8,326.0L345.2,324.2L337.6,324.2L332.6,324.2L331.0,327.0L329.2,327.6L328.0,325.6L326.0,325.8L324.6,324.0L323.0,324.8L321.6,324.4L320.2,324.6L318.6,324.8L317.8,323.4L316.0,325.8L314.6,327.6L314.6,329.6L313.6,330.6L314.6,332.2L313.13,332.75L311.4,331.0L308.0,330.0L307.4,328.4L303.2,328.4L302.2,326.8L299.0,326.4L298.0,327.6L296.4,326.0L293.2,327.4L288.8,327.0L285.2,327.2L284.2,325.8L280.0,326.0L280.0,324.8L276.6,324.8L275.6,324.2L273.8,325.0L271.6,323.6L269.2,324.4L268.4,323.0L267.2,324.0L266.4,323.2L265.4,324.6L263.0,325.4L261.2,324.2L259.2,322.8L257.2,320.6L254.4,321.4L252.6,321.2L251.6,319.6L248.2,319.6L247.8,317.2L246.2,318.2L245.2,318.8L244.2,317.6L242.8,317.8L240.6,317.8L239.0,316.0L237.6,316.4L237.0,318.0L234.2,318.2L232.0,316.6L230.6,317.2L229.0,316.2L227.6,316.8L226.2,315.8L225.0,316.6L221.8,316.2L221.4,314.8L219.8,315.8L218.2,315.8L217.8,315.0L215.0,314.8L213.6,312.6L210.4,312.0L210.6,313.2L208.0,312.8L203.8,311.2L197.2,311.0L195.2,310.2L193.6,310.6L189.8,310.6L183.6,309.4L181.4,308.2L179.0,308.2L178.2,309.4L176.6,307.8L175.2,308.8L171.4,308.8L168.8,307.6L166.8,307.2L165.0,306.4L161.6,305.2L161.2,304.0L160.4,304.8L159.6,302.8L156.4,301.8L154.8,302.0L151.8,302.4L150.2,302.6L148.6,302.6L147.6,302.6L147.0,301.4L145.6,300.4L144.4,300.2L142.8,301.2L142.2,299.6L141.4,300.2L139.2,298.6L140.0,294.2L139.4,293.0L137.4,295.8L132.2,298.6L129.4,299.2L126.0,297.6L123.0,296.2L120.2,294.8L118.4,294.2L116.8,294.0L116.8,292.6L115.8,291.6L116.8,290.4L113.4,288.2L115.8,285.8L115.0,285.0L114.2,285.0L113.8,283.8L113.8,282.2L113.2,281.0L113.8,280.2L113.6,278.4L114.2,277.2L113.2,276.6L113.4,274.6L113.4,273.2L113.0,272.2L113.4,270.4L112.0,270.2L110.6,269.8L109.0,269.0L107.8,269.6L106.6,268.6L105.4,269.2L104.6,268.6L102.6,269.2L103.0,267.8L101.2,267.6L99.0,267.0L98.2,265.8L99.0,265.0L98.4,264.0L98.2,263.0L97.6,262.2L98.2,260.4L99.4,259.4L100.0,258.6L98.6,257.2L98.4,255.8L97.8,254.4L98.4,253.0L99.4,252.6L100.2,252.4L101.0,251.2L102.4,249.6L104.6,247.2L109.4,247.2L111.4,247.4L113.6,246.2L113.8,244.4L115.8,244.0L117.6,243.6L118.6,241.6L120.2,240.2L121.2,241.4L124.2,241.6L126.4,240.6L126.0,238.8L126.6,235.8L125.8,235.0L125.6,233.6L125.2,231.6L124.2,230.8L122.4,229.2L121.6,229.2L121.2,227.8L121.4,226.4L121.4,225.0L120.4,224.2L120.0,222.6L118.6,221.8L118.2,219.6L117.4,218.4L116.6,216.8L116.8,215.6L116.4,213.8L115.0,212.4L112.6,210.8L110.6,211.2L109.0,212.0L108.8,211.0L104.4,208.4L105.8,205.8L104.2,204.6L102.6,204.0L102.2,202.6L101.2,202.6L100.6,201.4L99.4,201.4L99.0,200.4L97.6,199.8L95.4,199.4L95.8,198.2L94.4,198.2L92.8,198.2L91.2,198.4L91.0,196.8L88.8,196.6L87.6,196.2L87.8,192.4L87.8,188.4L88.0,183.0L87.6,175.6L87.8,169.2L87.2,166.0L88.2,159.8L84.0,159.6L82.0,159.8L80.0,160.6L79.6,165.0L76.0,164.8L72.2,161.4L69.0,158.2L69.2,157.0L70.4,156.8L71.0,154.2L68.6,154.0L68.0,153.0L67.8,149.4L68.0,148.4L70.8,148.6L72.2,148.4L74.4,148.2L76.4,147.8L79.0,148.8L80.8,148.6L82.8,148.4L83.8,147.2L85.0,147.0L84.8,144.2L86.2,144.4L87.8,144.2L88.8,144.4L88.0,142.6L89.8,142.4L92.8,142.4L92.0,140.8L94.2,139.6L93.0,138.0L94.8,137.0L96.2,137.4L97.6,138.2L99.2,137.8L101.8,137.8L104.6,137.2L108.0,135.8L109.4,135.8L111.6,135.4L113.6,135.0L117.2,134.8L119.2,134.2L123.6,132.0L126.4,132.6L128.4,131.0L129.2,132.0L129.4,130.4L131.4,129.2L131.0,130.0L133.2,128.4L135.2,128.0L138.0,127.6L141.0,126.8L143.6,126.0L145.6,125.0L148.4,124.8L150.4,125.2L151.6,124.4L154.2,124.2L155.2,123.2L157.2,122.0L159.8,121.0L163.0,120.0L166.6,119.0L168.8,118.6L170.4,117.8L173.4,116.8L175.8,116.0L178.2,116.4L179.8,116.0L181.4,115.4L181.2,114.4L181.6,113.2L183.4,114.0L184.2,112.2L185.4,110.2L187.0,110.0L188.2,109.4L190.0,109.4L191.2,109.4L192.8,109.0L193.6,109.0L195.0,108.8L197.0,108.2L200.0,107.4L201.0,108.2L203.0,107.4L204.4,108.0L205.0,105.8L207.0,105.2L208.0,106.2L209.0,107.2L210.2,106.4L212.4,106.8L213.8,105.8L216.0,104.8L217.0,106.0L217.0,107.0L216.8,109.0L219.0,110.8L219.8,113.0L220.2,115.8L219.6,121.0L224.0,123.2L226.8,122.2L231.6,122.4L236.0,121.6L240.6,121.4L247.2,121.6L251.4,124.6L254.0,124.4L254.4,127.2L250.4,127.4L249.0,127.2L248.4,128.2L248.6,130.0L250.6,132.4L253.6,133.4L255.2,133.6L256.4,134.4L260.8,133.2L265.0,132.8L267.6,132.4L271.4,131.8L273.0,131.6L275.4,132.0L277.8,131.2L278.8,134.0L281.2,139.6L282.4,143.8L283.8,147.0L284.2,149.8L286.0,152.0L285.8,156.2L287.0,157.2L289.4,155.4L291.4,155.4L293.2,155.4L296.0,155.4L299.0,155.2L302.0,154.8L303.6,152.4L307.4,152.6L310.0,152.4L313.2,154.4L314.2,153.2L316.2,154.6L319.0,156.0L319.4,158.6L320.4,158.6L321.8,160.6L325.0,159.0L325.4,159.8L327.0,159.6L329.0,160.4L330.0,160.2L331.0,160.8L332.8,159.6L334.0,160.8L336.4,159.2L337.4,157.8L339.4,158.2L340.4,156.2L342.0,156.2L343.0,154.2L346.0,156.0L347.4,157.4L349.8,157.0L351.6,159.4L351.2,160.6L351.8,161.6L353.2,161.2L355.4,163.4L356.6,164.8L358.4,166.4L360.4,168.4L362.4,168.2L364.2,168.0L367.2,168.8L368.2,170.2L369.6,168.6L371.2,170.0L374.0,169.6L373.8,167.0L375.4,164.2L377.2,161.8L379.8,162.2L383.4,163.0L386.8,164.2L389.8,165.0L391.8,165.6L391.0,162.0L391.0,160.8L389.8,159.0L389.6,158.0L393.0,153.6L393.2,150.4L390.8,148.6L392.4,148.2L393.6,148.0L395.0,148.2L397.0,147.8L397.4,145.8L396.0,145.0L397.6,143.6L398.6,144.4L398.4,141.4L399.8,142.4L401.2,143.2L402.8,143.4L404.4,144.6L410.4,142.4L410.6,139.2L410.8,137.2L409.6,136.4L408.6,134.8L409.4,132.0L408.0,131.0L408.0,123.6L406.0,123.8L405.2,122.0L405.4,119.8L404.8,118.6L406.2,115.2L406.2,113.2L406.0,111.8L406.2,110.6L406.6,109.8L407.2,108.8L408.6,107.6L408.4,106.6L407.8,105.4L407.2,104.6L406.2,103.8L408.4,103.0L410.2,103.0L411.0,103.6L413.2,103.4L415.4,103.4L418.0,104.2L420.8,104.8L422.8,106.2L424.2,105.0L426.4,106.8L428.8,108.0L431.4,109.0L432.2,110.2L434.0,111.4L435.8,112.8L438.4,113.8L441.4,115.8L441.4,117.8L444.6,118.4L446.0,120.0L448.0,120.2L450.2,121.2L451.8,122.8L454.4,124.0L457.4,124.6L458.8,126.8ZM189.4,498.4L189.0,497.2L189.8,497.0L190.0,493.6L191.2,492.6L190.0,491.4L190.0,490.0L192.2,489.4L193.0,488.0L193.0,486.6L194.0,486.4L195.8,484.4L195.2,482.0L196.8,481.4L197.0,479.0L196.6,476.6L194.8,475.8L193.6,474.8L196.0,471.6L195.8,470.0L197.2,469.2L193.0,466.0L191.4,466.2L190.2,465.2L191.8,464.4L190.6,462.6L193.8,460.4L193.0,458.4L195.4,456.4L195.0,454.6L196.8,455.6L198.6,454.6L200.2,454.8L203.4,452.6L203.2,451.4L200.8,449.8L201.2,446.8L199.4,445.4L200.4,442.6L198.0,441.4L199.2,440.2L198.2,438.8L197.8,437.6L198.8,436.4L197.6,434.2L197.6,432.0L198.0,429.0L195.8,427.2L198.0,424.0L199.8,421.4L202.4,421.8L203.4,420.6L204.4,420.8L206.6,418.6L205.4,418.0L203.8,418.0L201.4,419.2L200.4,418.0L198.0,420.0L197.6,419.0L195.8,419.2L193.4,416.8L193.6,414.6L192.8,413.6L191.4,409.6L191.0,407.8L189.4,406.4L189.4,404.4L187.8,403.8L187.2,402.2L187.0,400.6L188.0,398.8L186.8,398.4L185.2,401.0L183.2,401.0L180.2,400.4L179.2,401.4L175.8,400.4L173.6,400.2L172.0,401.2L171.2,399.8L166.4,397.2L164.2,397.2L162.8,396.2L161.4,395.2L157.2,394.4L157.8,392.6L158.6,390.6L159.0,389.4L157.6,388.4L156.4,388.4L154.8,388.4L153.8,388.4L153.0,388.4L153.0,386.6L150.4,386.8L149.2,385.0L147.0,383.6L145.4,385.0L140.6,382.0L139.6,381.0L138.4,381.2L135.8,381.0L134.4,380.0L133.0,378.8L131.6,378.6L129.4,378.4L128.2,376.0L124.6,376.6L122.8,375.2L121.6,375.6L119.8,375.8L118.4,377.2L116.8,375.8L115.0,375.8L114.8,377.6L112.8,377.8L111.8,379.4L111.0,378.4L109.4,378.2L109.8,375.8L107.6,375.6L107.4,373.8L103.2,371.6L101.6,371.0L100.8,370.2L98.6,370.6L97.0,369.4L94.6,369.4L92.8,368.0L90.8,368.4L84.8,368.4L83.0,367.2L78.8,367.6L77.6,368.6L76.6,368.2L75.8,368.0L75.2,366.8L72.4,367.0L71.6,368.4L71.6,370.8L69.2,371.8L68.2,371.6L67.0,369.2L65.6,369.0L64.4,369.0L63.0,368.8L62.2,369.8L60.6,369.4L60.0,371.4L58.2,371.6L56.8,371.0L56.0,370.4L56.4,369.2L53.6,369.8L52.6,371.0L54.2,372.4L54.4,373.8L55.8,374.4L54.6,375.8L53.8,377.0L53.0,377.0L53.2,379.2L51.6,379.0L50.2,379.2L49.2,379.6L49.0,381.2L49.8,382.6L50.0,384.0L50.8,385.6L52.6,386.0L52.6,387.6L51.4,388.2L51.8,389.2L53.2,390.4L53.2,392.6L53.4,394.0L53.4,395.2L53.6,397.2L53.2,400.0L54.4,400.6L53.8,401.6L55.0,402.2L55.6,403.4L54.2,405.8L54.6,407.6L54.2,409.6L53.8,410.4L54.0,411.6L53.2,412.0L53.4,413.6L52.0,414.8L50.4,415.0L50.4,416.0L48.0,415.8L46.8,416.8L46.0,418.2L45.8,420.0L44.8,420.8L45.0,422.8L46.2,424.0L47.0,426.0L48.2,427.2L49.8,428.6L51.0,430.2L52.2,431.6L53.4,431.2L55.0,432.2L55.8,433.4L56.6,434.6L59.2,435.4L57.8,438.2L60.2,439.8L61.4,440.4L60.8,441.2L62.4,442.4L62.2,444.0L61.4,446.2L61.6,448.0L62.6,449.8L66.4,451.6L66.4,455.0L68.6,455.8L70.8,456.6L72.8,457.0L74.4,458.2L76.2,460.8L77.8,463.6L80.0,466.6L81.0,466.2L82.2,467.8L86.2,467.0L87.6,468.4L89.6,469.2L90.8,470.4L92.0,471.6L94.6,473.2L96.6,475.0L98.6,474.4L101.6,476.0L103.6,476.4L105.4,475.8L106.8,478.0L107.8,475.4L109.6,475.8L112.4,475.8L113.4,477.2L115.2,476.6L118.6,479.0L118.8,477.8L119.2,476.4L120.4,476.8L121.2,476.4L121.0,475.0L122.0,475.2L123.0,474.4L124.8,475.0L126.4,476.4L128.6,477.0L130.2,477.4L131.6,478.0L132.8,479.0L134.2,478.0L135.4,476.4L137.2,477.4L138.8,477.4L138.8,479.0L140.2,480.6L142.6,481.0L144.4,482.6L145.6,483.6L147.0,483.6L149.0,485.6L150.2,486.0L152.8,486.0L153.8,487.4L154.6,488.6L155.6,488.8L156.2,490.4L157.8,490.6L158.2,492.4L158.6,494.2L160.4,493.0L162.0,492.8L162.0,491.8L163.2,491.6L165.0,491.2L166.0,491.0L167.4,489.4L169.0,490.4L170.8,490.8L172.4,492.4L170.6,494.2L171.4,495.8L171.0,497.6L174.0,499.2L175.8,497.8L178.0,498.4L178.6,497.0L181.0,497.8L182.2,496.6L183.4,497.0L184.6,497.6L186.0,498.2L186.8,498.4L188.0,498.8Z" />
		<path id="L1611122399645" name="海北藏族自治州" class="qing-map-1616136114805" d="M461.6,129.4L462.4,131.4L464.0,131.4L464.4,133.2L464.4,135.4L465.6,135.6L466.6,137.8L468.8,137.4L470.4,138.6L471.6,137.4L476.2,141.6L479.2,142.0L482.8,142.4L484.4,143.0L484.6,144.6L487.2,146.4L490.8,145.8L492.6,146.6L492.8,149.0L494.2,148.4L494.8,149.6L496.8,148.8L499.6,149.2L502.4,150.2L505.8,152.6L505.0,153.8L506.4,154.8L504.0,155.0L502.0,156.6L504.0,157.8L502.0,161.0L504.0,162.4L505.0,161.0L505.2,162.2L506.4,161.6L507.6,163.0L512.4,163.4L513.6,161.0L514.8,161.4L515.2,159.6L516.4,159.6L517.8,158.0L519.4,159.6L519.2,161.0L520.6,162.0L524.4,163.4L526.2,162.6L529.6,163.8L531.2,163.4L531.6,164.6L533.0,166.8L534.2,166.0L536.0,166.6L536.2,169.4L535.2,172.2L537.4,173.0L538.2,174.6L539.6,174.4L540.2,175.4L537.4,175.6L534.4,177.0L533.2,177.0L528.8,178.4L527.8,177.6L524.2,180.8L526.4,182.6L524.8,184.0L527.2,185.6L528.8,185.2L529.0,186.6L530.2,186.8L530.4,189.4L531.8,187.6L533.0,189.2L535.0,188.4L536.4,190.0L539.2,191.2L538.0,192.6L538.4,194.2L539.8,195.6L539.0,196.6L541.2,197.0L541.0,198.8L541.2,200.4L538.6,201.0L537.8,202.4L536.2,202.4L535.8,204.0L534.6,203.8L533.8,204.2L533.6,206.8L532.2,207.0L530.8,209.4L529.4,211.8L530.4,213.2L530.2,216.4L527.4,217.8L527.4,221.0L528.8,224.0L527.2,226.8L528.4,230.0L529.4,231.2L529.8,232.2L531.4,232.4L533.8,234.6L535.2,234.6L536.8,235.8L538.6,237.4L539.4,237.4L540.4,238.6L542.8,239.2L543.2,240.8L544.4,240.0L545.4,241.2L545.4,242.4L546.6,242.2L548.0,243.6L551.8,244.4L560.0,247.4L569.4,249.8L580.2,252.8L590.4,255.4L591.2,257.4L593.0,256.4L595.6,256.6L598.2,254.8L600.0,256.2L601.2,257.4L601.2,255.4L600.0,254.8L603.4,252.6L606.8,255.0L608.4,253.8L609.4,254.4L611.6,251.8L612.6,250.2L613.6,250.2L614.0,248.6L615.2,248.0L615.8,247.0L619.2,247.8L620.0,246.8L618.8,244.4L620.0,242.0L618.4,240.0L618.2,238.6L618.6,237.6L617.2,237.0L616.8,235.0L615.2,234.8L613.0,232.8L613.4,230.8L612.0,230.0L612.0,229.0L609.6,227.2L607.8,228.0L606.2,226.2L604.2,226.0L603.4,226.8L601.8,225.6L601.8,224.6L601.0,223.8L601.4,222.4L600.2,221.8L600.2,220.6L599.0,220.0L599.88,218.25L599.6,216.4L600.0,214.6L601.2,215.0L602.6,212.2L603.8,213.0L604.2,214.4L606.0,215.0L606.2,216.4L608.8,216.6L610.4,218.2L611.2,218.2L612.8,217.8L614.2,218.6L615.4,217.8L617.6,218.8L619.2,217.2L620.8,219.4L624.2,220.4L625.6,219.8L627.8,220.6L629.6,220.6L631.6,221.2L631.4,224.4L633.6,224.8L636.5,226.0L639.0,225.6L640.63,227.38L641.8,226.0L643.2,228.2L645.0,228.2L647.2,230.4L648.6,230.6L650.4,232.6L651.8,232.8L653.2,234.4L654.8,235.2L657.0,235.8L658.4,237.4L659.2,237.0L660.4,238.6L662.4,238.0L663.6,238.8L664.63,236.63L666.2,237.0L667.6,236.2L669.0,236.4L670.2,235.0L672.0,235.8L673.8,235.4L676.4,235.6L678.6,236.8L679.4,236.0L680.4,236.4L681.8,235.6L682.6,235.6L683.4,235.0L685.6,235.2L686.4,235.6L685.8,233.8L684.8,231.4L683.2,231.2L682.6,229.4L681.0,228.0L679.2,228.2L675.2,223.8L676.0,222.6L673.8,222.0L670.8,220.0L669.4,219.2L669.6,217.6L668.2,217.2L666.8,215.8L664.2,216.0L663.8,214.4L661.8,212.0L659.8,211.8L659.6,210.8L660.6,209.8L660.4,208.6L661.2,208.0L660.4,207.0L660.0,205.6L658.8,205.4L657.8,204.2L656.2,202.8L657.4,201.0L655.8,199.8L655.4,197.8L654.4,197.0L652.2,196.4L650.8,197.8L649.8,198.0L648.2,199.6L645.8,200.6L645.6,199.4L644.6,198.4L642.0,197.8L639.2,196.8L638.0,196.6L638.0,194.8L636.8,193.6L636.2,192.2L635.0,190.2L633.6,189.6L632.4,189.6L630.4,189.0L629.0,189.0L627.6,188.0L625.8,189.2L624.6,190.8L624.0,191.8L623.0,192.8L621.4,191.4L619.4,190.0L617.8,190.2L615.6,189.0L613.0,187.4L613.0,185.8L611.4,185.0L610.6,182.8L609.8,183.4L607.6,181.6L606.2,180.8L604.6,179.2L602.4,178.6L601.2,179.4L599.8,178.8L600.0,178.0L599.6,176.2L601.6,174.4L600.6,172.2L602.2,169.4L601.2,168.4L598.6,169.8L597.8,170.0L596.8,169.6L596.0,168.6L594.8,167.8L593.8,165.8L593.0,164.4L591.6,163.6L590.4,164.2L586.8,162.8L585.6,164.0L583.6,163.8L582.2,163.0L581.6,162.2L579.6,161.6L578.6,162.6L577.4,162.6L577.6,161.2L577.0,160.2L576.0,161.2L574.6,160.6L573.6,160.0L572.0,159.4L572.4,158.2L570.8,155.0L569.2,156.4L568.2,155.8L568.2,154.4L568.2,151.8L567.0,151.0L565.4,150.6L564.6,150.6L563.0,149.4L561.8,148.4L560.8,148.4L559.6,147.4L558.0,147.0L557.2,148.0L556.0,149.8L557.0,151.2L557.6,152.0L558.6,152.8L560.0,153.4L561.0,155.0L562.0,157.6L562.4,158.6L564.0,158.8L563.6,160.6L564.6,162.8L565.0,164.2L564.4,165.8L563.2,165.0L562.4,164.8L561.8,164.0L560.2,161.8L559.0,162.0L557.2,160.6L554.0,159.6L553.2,158.2L552.2,158.2L547.0,156.2L545.6,155.0L544.6,153.6L543.2,154.0L542.0,152.6L539.6,152.2L539.4,150.0L539.0,149.2L537.0,149.6L535.2,147.8L533.8,145.6L531.6,144.0L532.0,141.6L531.0,140.4L529.6,141.6L527.6,140.2L528.4,139.8L527.2,137.2L526.2,137.2L525.4,136.4L525.0,134.8L524.0,133.2L522.8,133.2L522.2,132.2L521.0,131.6L520.6,130.6L519.6,130.6L518.4,130.0L516.8,128.2L515.6,128.0L515.4,127.2L514.0,126.6L513.0,125.6L511.4,124.2L510.0,122.6L512.2,119.4L510.2,119.2L508.0,117.2L506.6,117.8L503.6,116.8L502.0,116.0L500.6,113.2L499.6,113.4L497.8,112.2L497.4,111.0L494.2,110.6L494.2,112.4L492.4,113.6L490.6,116.2L488.2,117.2L488.6,119.0L487.2,119.8L486.2,120.6L484.6,119.8L483.4,119.0L481.6,119.6L478.8,118.6L478.8,116.6L477.0,116.4L476.6,114.6L474.4,114.4L472.0,114.0L471.6,115.0L471.4,116.8L471.0,118.6L469.2,120.6L469.8,122.4L470.4,123.6L469.2,124.2L468.2,125.0L466.4,126.2L465.4,127.2L463.4,128.2Z" />
		<path id="L1611122414796" name="西宁市" class="qing-map-1616136114805" d="M601.2,257.4L601.2,255.4L600.0,254.8L603.4,252.6L606.8,255.0L608.4,253.8L609.4,254.4L611.6,251.8L612.6,250.2L613.6,250.2L614.0,248.6L615.2,248.0L615.8,247.0L619.2,247.8L620.0,246.8L618.8,244.4L620.0,242.0L618.4,240.0L618.2,238.6L618.6,237.6L617.2,237.0L616.8,235.0L615.2,234.8L613.0,232.8L613.4,230.8L612.0,230.0L612.0,229.0L609.6,227.2L607.8,228.0L606.2,226.2L604.2,226.0L603.4,226.8L601.8,225.6L601.8,224.6L601.0,223.8L601.4,222.4L600.2,221.8L600.2,220.6L599.0,220.0L599.88,218.25L599.6,216.4L600.0,214.6L601.2,215.0L602.6,212.2L603.8,213.0L604.2,214.4L606.0,215.0L606.2,216.4L608.8,216.6L610.4,218.2L611.2,218.2L612.8,217.8L614.2,218.6L615.4,217.8L617.6,218.8L619.2,217.2L620.8,219.4L624.2,220.4L625.6,219.8L627.8,220.6L629.6,220.6L631.6,221.2L631.4,224.4L633.6,224.8L636.5,226.0L639.0,225.6L640.63,227.38L641.8,226.0L643.2,228.2L645.0,228.2L647.2,230.4L648.6,230.6L650.4,232.6L650.5,233.38L649.5,233.5L648.63,235.13L649.75,236.5L649.25,238.63L647.63,239.5L646.75,240.75L646.25,242.38L647.25,244.0L646.88,245.88L645.13,246.5L645.75,247.63L644.75,249.25L645.5,252.63L644.13,253.75L645.13,254.63L645.13,255.75L643.75,256.0L644.75,257.75L644.0,258.25L644.75,259.88L643.5,261.88L644.13,262.88L645.0,262.0L644.88,263.13L646.5,263.25L647.5,263.25L647.63,264.75L649.0,266.13L650.38,268.0L650.13,269.63L649.25,270.63L649.63,272.63L648.5,274.13L648.63,275.25L647.5,275.5L647.38,277.5L647.63,279.0L648.13,279.75L646.63,282.63L646.63,284.0L646.0,284.88L644.38,285.0L643.38,285.63L642.38,284.25L642.0,286.0L640.88,286.0L640.5,287.63L638.25,289.0L637.25,287.75L637.38,286.5L636.5,285.5L634.88,285.75L635.63,283.75L634.63,282.63L633.0,283.13L631.75,283.63L630.25,282.75L627.63,281.75L626.88,280.25L625.5,280.13L623.75,278.0L622.25,279.0L619.75,280.5L618.63,282.38L616.88,283.5L615.88,282.63L614.75,282.38L614.75,280.25L612.75,279.88L610.75,277.5L610.88,276.25L609.13,276.0L609.63,274.75L609.0,273.5L607.5,272.0L605.88,271.25L606.0,269.38L605.13,268.63L605.38,266.75L604.88,264.63L603.0,262.88L602.38,261.63L603.13,260.63L602.5,259.88L601.0,258.38Z" />
		<path id="L1611122428764" name="海东市" class="qing-map-1616136114805" d="M678.6,236.8L676.4,235.6L673.8,235.4L672.0,235.8L670.2,235.0L669.0,236.4L667.6,236.2L666.2,237.0L664.63,236.63L663.6,238.8L662.4,238.0L660.4,238.6L659.2,237.0L658.4,237.4L657.0,235.8L654.8,235.2L653.2,234.4L651.8,232.8L650.4,232.6L650.5,233.38L649.5,233.5L648.63,235.13L649.75,236.5L649.25,238.63L647.63,239.5L646.75,240.75L646.25,242.38L647.25,244.0L646.88,245.88L645.13,246.5L645.75,247.63L644.75,249.25L645.5,252.63L644.13,253.75L645.13,254.63L645.13,255.75L643.75,256.0L644.75,257.75L644.0,258.25L644.75,259.88L643.5,261.88L644.13,262.88L645.0,262.0L644.88,263.13L646.5,263.25L647.5,263.25L647.63,264.75L649.0,266.13L650.38,268.0L650.13,269.63L649.25,270.63L649.63,272.63L648.5,274.13L648.63,275.25L647.5,275.5L647.38,277.5L647.63,279.0L648.13,279.75L646.63,282.63L646.63,284.0L646.0,284.88L644.38,285.0L643.38,285.63L642.38,284.25L642.0,286.0L640.88,286.0L640.5,287.63L638.25,289.0L638.75,290.13L638.13,290.88L638.38,293.13L639.63,293.13L641.25,292.5L641.5,293.5L641.63,294.13L642.5,292.63L643.25,293.88L644.0,293.75L644.63,295.63L645.25,296.63L645.75,295.63L647.25,295.63L648.0,296.38L649.5,296.38L650.63,297.63L649.5,298.75L651.63,299.13L652.63,299.13L652.13,300.75L652.75,301.38L654.13,301.38L654.25,303.13L656.25,303.63L656.75,304.63L656.5,306.38L658.88,306.25L656.63,307.63L657.25,308.63L658.75,308.0L659.25,307.63L660.38,309.38L660.38,311.25L658.75,311.25L658.88,312.88L660.0,313.63L658.88,314.5L660.13,316.5L661.88,318.38L660.75,319.38L663.13,319.38L662.38,320.5L663.0,322.13L665.25,320.5L666.0,322.88L665.25,324.25L666.25,325.25L668.0,326.38L669.38,325.38L670.25,325.75L670.5,327.0L672.0,326.88L671.75,328.38L673.38,329.63L675.0,330.88L676.0,331.5L675.88,332.75L675.88,334.25L674.63,335.0L676.13,336.63L676.88,336.88L676.38,335.75L677.5,334.75L677.5,333.25L678.13,332.5L678.88,331.0L679.13,329.13L680.25,329.38L679.63,328.13L682.0,329.63L683.0,330.63L685.0,331.25L685.88,331.38L686.75,331.88L688.0,331.63L688.88,332.0L690.38,333.13L691.63,334.13L693.5,332.13L692.9,331.68L691.38,332.38L690.5,331.88L691.5,330.88L693.05,330.55L693.5,330.0L694.25,330.0L694.38,329.25L692.88,328.0L692.25,325.5L692.75,324.5L691.13,323.5L690.88,322.25L689.38,320.63L689.0,319.0L688.5,317.5L689.13,316.5L689.13,315.75L689.75,314.5L691.25,314.5L693.25,311.63L695.13,312.25L695.88,311.88L696.88,312.25L698.63,312.63L699.88,312.75L700.88,313.25L701.75,312.88L701.63,312.0L701.75,310.63L701.63,309.38L701.75,307.88L701.25,306.88L701.88,305.25L702.75,303.5L701.5,301.88L702.88,300.63L701.25,300.13L700.13,298.88L699.0,298.88L698.0,298.0L698.63,297.5L699.63,297.88L700.88,296.88L701.5,295.63L701.5,294.0L702.63,293.88L702.88,292.0L704.13,291.0L705.13,290.5L706.13,291.0L707.13,291.0L707.38,290.25L705.75,289.0L705.13,288.88L705.25,287.88L703.75,287.0L702.75,285.75L701.5,285.38L700.5,284.88L700.0,283.75L698.38,282.63L696.75,282.63L695.75,281.75L695.63,280.88L694.88,279.38L695.25,278.38L693.75,277.0L693.63,276.0L692.75,274.63L693.75,273.88L693.88,272.88L692.88,271.5L692.25,271.13L691.0,268.13L692.38,268.13L690.13,266.75L690.13,265.5L688.75,265.25L685.63,263.13L685.63,262.13L685.0,261.75L684.38,259.38L685.0,257.88L686.38,258.5L686.88,256.88L688.38,255.63L690.25,256.0L689.63,254.75L688.63,253.75L688.0,252.75L686.75,252.25L686.88,251.25L685.75,250.5L683.75,249.63L682.88,248.88L682.88,247.88L682.5,246.5L680.88,246.25L680.5,245.5L679.88,245.5L679.63,244.63L677.13,243.88L677.75,243.5L677.88,242.63L680.0,240.5L679.25,239.13L679.5,237.88Z" />
		<path id="L1611122460261" name="黄南藏族自治州" class="qing-map-1616136114805" d="M676.88,336.88L676.63,337.63L675.75,338.38L674.88,338.13L674.75,339.25L673.63,338.5L671.88,338.25L670.25,337.25L669.13,338.0L669.63,339.0L668.38,340.38L668.75,341.63L669.5,341.88L669.75,342.75L670.5,342.88L670.13,344.75L669.5,344.63L668.63,345.13L670.63,347.0L671.38,346.75L672.88,348.0L672.63,349.38L673.13,350.13L673.75,351.38L675.0,352.63L673.63,353.88L672.0,353.63L671.38,354.38L671.38,355.5L670.25,355.5L669.75,356.88L669.38,359.5L667.38,360.88L666.0,360.25L665.38,360.5L665.25,361.88L663.63,361.75L662.63,363.13L661.0,362.63L660.13,364.38L658.25,365.75L658.63,366.88L657.5,367.88L656.88,369.0L658.0,369.88L657.13,370.5L656.13,370.0L653.88,369.88L653.25,370.5L651.88,370.25L650.75,371.38L651.0,372.13L651.25,373.0L651.0,375.38L650.63,378.88L650.5,380.75L651.13,382.38L650.88,383.13L650.88,385.0L650.88,387.75L652.25,389.0L653.38,390.5L654.0,391.38L655.0,391.5L657.25,391.75L659.0,391.63L659.88,392.5L660.75,392.5L661.5,393.63L662.0,393.25L662.75,394.88L663.38,396.63L664.38,398.13L665.0,399.5L665.63,400.63L667.0,401.5L667.63,402.5L666.0,403.38L664.75,403.25L664.0,402.5L663.38,404.13L663.13,405.5L662.13,406.63L661.88,407.38L660.63,406.88L658.25,406.25L657.5,407.13L658.13,409.88L656.0,410.13L655.25,410.75L656.38,411.63L656.38,412.25L655.5,412.38L655.5,413.63L654.5,414.13L653.25,413.75L652.63,414.13L652.88,416.0L652.63,417.13L650.25,416.0L648.63,416.0L648.0,414.75L647.38,414.63L647.25,415.88L646.63,416.38L645.63,416.13L643.75,416.13L643.25,416.63L642.5,418.0L641.75,418.88L641.5,418.13L640.75,418.88L640.75,417.5L640.5,417.0L639.5,417.13L638.0,416.63L637.13,415.75L637.5,414.88L636.63,414.13L636.38,413.13L635.25,413.0L634.25,412.13L632.75,412.5L631.88,411.13L630.0,411.88L629.5,411.0L627.63,410.38L625.63,410.5L625.25,409.38L624.0,409.5L623.5,408.88L621.63,409.0L621.38,407.75L619.75,407.63L618.88,407.63L618.13,407.13L618.25,406.25L616.88,406.5L616.88,404.88L616.63,404.0L615.38,404.13L615.13,403.5L614.0,404.88L613.13,404.13L612.25,404.5L610.25,404.25L609.63,404.5L608.75,404.25L608.0,404.88L607.63,403.63L606.75,403.38L604.88,401.63L603.13,401.38L602.63,400.25L604.25,397.75L604.13,395.13L603.5,392.25L603.5,390.88L602.25,391.25L601.38,390.5L601.88,389.0L600.88,388.75L601.38,386.63L600.25,386.0L600.38,384.38L604.5,383.88L605.25,384.75L606.25,385.38L607.5,384.38L608.38,382.88L608.88,380.88L610.13,380.88L610.13,380.13L609.88,378.75L610.38,378.0L609.25,377.13L609.63,376.13L611.0,375.88L612.75,373.88L612.38,371.63L611.5,370.5L610.13,370.25L607.5,370.38L607.38,368.75L604.88,368.75L603.0,367.63L602.38,365.75L601.63,364.5L600.5,365.0L599.38,363.5L595.88,363.75L595.38,362.25L594.13,362.75L593.63,361.38L592.0,361.63L591.38,359.88L590.5,358.88L590.5,356.63L591.13,355.88L591.25,354.75L592.63,354.25L594.38,352.75L596.63,351.63L596.88,350.38L599.13,349.25L600.5,347.25L601.25,346.38L601.0,345.0L600.0,345.38L598.88,344.5L598.13,343.75L596.25,344.88L596.25,343.38L595.38,343.0L592.63,343.25L591.88,342.13L590.0,341.25L590.13,339.5L590.13,338.25L591.63,338.25L593.63,338.5L594.88,338.25L596.75,339.0L596.75,338.0L598.88,337.88L600.5,338.63L602.25,338.63L603.88,339.5L604.88,339.38L607.25,338.75L609.63,339.5L611.5,338.75L612.25,339.75L613.5,339.25L614.25,340.25L616.38,340.25L617.0,341.5L618.63,341.25L620.13,341.88L620.63,341.75L622.88,343.0L624.0,343.88L626.75,343.63L627.88,343.25L629.0,341.75L628.25,341.25L628.25,339.63L627.0,339.13L627.0,337.88L625.5,337.63L625.0,334.88L625.38,332.88L626.13,334.0L627.13,334.13L628.75,334.75L629.75,333.88L631.38,335.38L633.75,333.13L634.88,333.63L635.5,333.0L636.38,333.13L638.63,331.88L638.13,331.13L638.63,330.13L638.88,328.63L639.88,328.63L639.25,326.88L640.13,327.0L641.38,324.88L642.88,324.0L643.88,320.5L642.38,319.88L643.5,318.63L641.88,317.63L640.38,317.75L639.13,318.25L638.0,316.75L638.75,315.75L638.38,314.38L639.88,311.88L640.63,309.75L642.0,309.75L641.88,309.0L639.13,308.0L639.38,306.63L638.88,304.5L637.25,303.13L638.25,302.88L637.63,302.13L636.88,300.5L637.88,299.38L637.0,298.38L637.75,297.75L637.0,296.75L636.5,295.5L637.75,294.63L637.0,293.38L638.38,293.13L639.63,293.13L641.25,292.5L641.5,293.5L641.63,294.13L642.5,292.63L643.25,293.88L644.0,293.75L644.63,295.63L645.25,296.63L645.75,295.63L647.25,295.63L648.0,296.38L649.5,296.38L650.63,297.63L649.5,298.75L651.63,299.13L652.63,299.13L652.13,300.75L652.75,301.38L654.13,301.38L654.25,303.13L656.25,303.63L656.75,304.63L656.5,306.38L658.88,306.25L656.63,307.63L657.25,308.63L658.75,308.0L659.25,307.63L660.38,309.38L660.38,311.25L658.75,311.25L658.88,312.88L660.0,313.63L658.88,314.5L660.13,316.5L661.88,318.38L660.75,319.38L663.13,319.38L662.38,320.5L663.0,322.13L665.25,320.5L666.0,322.88L665.25,324.25L666.25,325.25L668.0,326.38L669.38,325.38L670.25,325.75L670.5,327.0L672.0,326.88L671.75,328.38L673.38,329.63L675.0,330.88L676.0,331.5L675.88,332.75L675.88,334.25L674.63,335.0L676.13,336.63Z" />
		<path id="L1611122443556" name="海南藏族自治州" class="qing-map-1616136114805" d="M638.38,293.13L637.0,293.38L637.75,294.63L636.5,295.5L637.0,296.75L637.75,297.75L637.0,298.38L637.88,299.38L636.88,300.5L637.63,302.13L638.25,302.88L637.25,303.13L638.88,304.5L639.38,306.63L639.13,308.0L641.88,309.0L642.0,309.75L640.63,309.75L639.88,311.88L638.38,314.38L638.75,315.75L638.0,316.75L639.13,318.25L640.38,317.75L641.88,317.63L643.5,318.63L642.38,319.88L643.88,320.5L642.88,324.0L641.38,324.88L640.13,327.0L639.25,326.88L639.88,328.63L638.88,328.63L638.63,330.13L638.13,331.13L638.63,331.88L636.38,333.13L635.5,333.0L634.88,333.63L633.75,333.13L631.38,335.38L629.75,333.88L628.75,334.75L627.13,334.13L626.13,334.0L625.38,332.88L625.0,334.88L625.5,337.63L627.0,337.88L627.0,339.13L628.25,339.63L628.25,341.25L629.0,341.75L627.88,343.25L626.75,343.63L624.0,343.88L622.88,343.0L620.63,341.75L620.13,341.88L618.63,341.25L617.0,341.5L616.38,340.25L614.25,340.25L613.5,339.25L612.25,339.75L611.5,338.75L609.63,339.5L607.25,338.75L604.88,339.38L603.88,339.5L602.25,338.63L600.5,338.63L598.88,337.88L596.75,338.0L596.75,339.0L594.88,338.25L593.63,338.5L591.63,338.25L590.13,338.25L590.13,339.5L590.0,341.25L591.88,342.13L592.63,343.25L595.38,343.0L596.25,343.38L596.25,344.88L598.13,343.75L598.88,344.5L600.0,345.38L601.0,345.0L601.25,346.38L600.5,347.25L599.13,349.25L596.88,350.38L596.63,351.63L594.38,352.75L592.63,354.25L591.25,354.75L591.13,355.88L590.5,356.63L590.5,358.88L591.38,359.88L592.0,361.63L593.63,361.38L594.13,362.75L595.38,362.25L595.88,363.75L599.38,363.5L600.5,365.0L601.63,364.5L602.38,365.75L603.0,367.63L604.88,368.75L607.38,368.75L607.5,370.38L610.13,370.25L611.5,370.5L612.38,371.63L612.75,373.88L611.0,375.88L609.63,376.13L609.25,377.13L610.38,378.0L609.88,378.75L610.13,380.13L610.13,380.88L608.88,380.88L608.38,382.88L607.5,384.38L606.25,385.38L605.25,384.75L604.5,383.88L600.38,384.38L599.88,383.0L599.88,382.0L598.5,380.38L597.63,380.88L597.13,381.63L596.0,382.13L595.25,382.13L595.13,383.38L594.38,383.63L593.25,383.0L592.5,383.75L591.75,383.13L590.63,383.5L589.75,383.13L589.75,382.0L588.88,381.88L588.5,380.75L586.0,381.88L585.75,380.63L585.0,380.0L584.0,380.25L583.38,378.88L581.63,377.88L581.5,376.75L579.13,375.13L575.88,375.13L573.88,374.75L571.63,373.25L572.25,371.75L571.25,371.0L571.5,370.13L570.63,369.5L569.63,370.25L568.13,370.25L567.13,370.75L566.0,370.5L564.75,370.13L563.5,371.0L562.63,370.25L560.75,371.25L560.25,373.88L558.5,374.88L557.88,374.38L557.25,375.5L556.38,375.25L555.75,375.5L553.63,374.63L552.38,374.75L551.75,373.88L550.25,373.0L549.0,373.88L547.75,373.88L545.75,372.38L543.5,372.25L542.88,370.38L541.75,370.25L541.25,370.0L539.0,369.13L539.0,367.38L537.63,367.75L536.38,367.38L535.5,368.13L534.25,366.25L532.75,367.25L531.5,366.0L530.25,366.13L529.5,364.0L528.0,363.63L528.5,362.5L527.63,361.0L526.25,361.0L525.0,359.5L525.13,358.38L523.75,358.25L523.5,355.88L522.75,355.88L522.63,354.63L520.25,353.25L520.88,352.63L519.63,350.75L517.63,350.75L517.63,348.88L515.5,347.5L515.25,346.0L516.5,343.75L518.38,343.25L519.5,341.5L521.88,340.5L521.88,338.63L521.63,337.75L520.38,337.63L520.38,336.63L518.0,336.5L516.5,336.13L517.5,334.5L519.38,334.88L520.0,334.88L520.38,333.63L521.75,332.5L522.63,333.0L523.63,333.0L522.88,331.63L522.88,330.25L521.63,329.63L519.38,328.38L517.25,326.88L516.0,326.38L515.0,326.8L516.5,323.75L517.8,320.2L515.4,319.2L515.8,317.4L514.4,316.8L514.63,315.0L512.6,315.8L511.6,314.4L513.0,312.8L513.0,311.6L511.4,310.0L512.6,308.6L510.8,305.6L510.0,304.6L510.8,304.0L510.4,301.6L509.0,301.2L508.6,300.2L507.0,299.6L507.4,298.0L505.6,298.0L505.6,295.4L504.0,294.0L506.6,293.4L507.2,291.4L508.4,289.8L509.6,289.6L509.4,287.4L508.8,285.0L510.2,284.2L509.6,282.6L508.0,281.6L508.2,279.8L506.8,279.8L506.2,278.0L504.2,277.8L504.0,276.0L502.4,275.6L503.0,274.4L503.2,272.6L507.2,272.2L507.4,271.0L508.6,271.2L509.8,270.8L511.4,270.0L512.8,269.0L518.4,266.6L523.4,263.6L524.4,262.2L526.6,262.4L529.0,260.6L527.0,258.6L528.0,256.2L522.4,250.6L520.8,250.6L519.8,247.6L518.4,247.0L517.2,246.6L516.2,245.4L514.4,244.6L514.6,242.8L517.4,243.6L518.6,241.0L520.0,237.4L521.0,234.6L521.8,234.8L522.6,233.4L524.0,233.0L524.2,231.5L525.4,231.2L527.2,231.2L528.38,231.88L529.8,232.2L531.4,232.4L533.8,234.6L535.2,234.6L536.8,235.8L538.6,237.4L539.4,237.4L540.4,238.6L542.8,239.2L543.2,240.8L544.4,240.0L545.4,241.2L545.4,242.4L546.6,242.2L548.0,243.6L551.8,244.4L560.0,247.4L569.4,249.8L580.2,252.8L590.4,255.4L591.2,257.4L593.0,256.4L595.6,256.6L598.2,254.8L600.0,256.2L601.2,257.4L601.0,258.38L602.5,259.88L603.13,260.63L602.38,261.63L603.0,262.88L604.88,264.63L605.38,266.75L605.13,268.63L606.0,269.38L605.88,271.25L607.5,272.0L609.0,273.5L609.63,274.75L609.13,276.0L610.88,276.25L610.75,277.5L612.75,279.88L614.75,280.25L614.75,282.38L615.88,282.63L616.88,283.5L618.63,282.38L619.75,280.5L622.25,279.0L623.75,278.0L625.5,280.13L626.88,280.25L627.63,281.75L630.25,282.75L631.75,283.63L633.0,283.13L634.63,282.63L635.63,283.75L634.88,285.75L636.5,285.5L637.38,286.5L637.25,287.75L638.25,289.0L638.75,290.13L638.13,290.88ZM625.88,346.13L623.25,347.0L621.38,346.75L623.0,349.0L622.38,350.5L622.0,352.75L623.0,353.63L625.25,353.63L626.25,352.25L625.25,349.5L626.13,348.25L627.75,348.5L628.13,350.63L629.0,350.25L630.38,350.88L631.0,349.38L632.5,348.63L632.13,346.88L632.75,344.88L630.5,343.75L629.63,345.13L628.25,346.75Z" />
		<path id="L1611122493987" name="玉树藏族自治州" class="qing-map-1616136114805" d="M440.88,416.25L439.25,414.5L439.75,413.5L438.88,412.88L438.75,411.0L437.63,410.88L436.5,411.88L436.63,413.5L434.63,413.88L434.25,413.0L434.25,411.88L432.63,411.88L432.38,410.13L431.13,409.13L431.38,407.38L430.0,406.5L428.75,406.5L427.75,404.38L425.75,403.13L425.75,401.25L424.0,401.63L423.5,400.88L422.75,400.0L423.63,398.88L424.88,398.63L424.25,395.63L423.0,395.63L420.88,394.75L419.38,393.75L417.0,394.88L415.25,393.63L417.5,392.13L417.38,390.63L418.13,388.0L417.38,386.88L416.13,387.25L414.63,385.63L412.75,386.38L411.25,384.75L411.25,383.0L413.75,382.88L415.13,380.25L413.5,380.25L412.63,379.88L412.13,378.88L408.88,378.25L408.25,379.13L408.5,380.0L407.75,380.38L406.25,378.88L405.5,378.75L404.5,376.63L405.88,374.88L408.0,374.63L407.5,373.5L409.13,371.63L408.13,369.88L409.25,369.0L410.88,369.0L411.63,369.88L412.88,367.75L414.5,366.25L416.75,365.0L418.63,363.88L418.88,362.38L417.88,361.5L418.63,360.5L418.63,359.38L419.75,359.25L419.88,357.63L421.0,355.63L421.88,354.38L423.75,352.0L426.25,349.75L425.38,348.25L425.2,345.6L423.6,344.8L423.8,343.0L422.0,344.0L420.4,344.4L419.0,342.6L417.4,344.0L416.0,343.0L414.0,343.0L410.2,339.6L410.2,337.6L408.2,335.8L408.6,334.8L406.6,335.0L404.8,335.0L404.8,333.6L403.4,335.0L401.8,335.0L400.2,334.2L398.4,334.0L395.4,332.2L395.4,331.0L394.0,330.6L394.0,329.4L392.6,327.8L391.4,329.0L390.2,328.4L388.2,329.2L385.2,327.8L384.6,325.6L383.0,324.8L378.2,324.8L376.4,323.8L375.0,325.6L373.2,325.0L370.0,324.8L368.2,325.2L365.8,324.8L364.8,325.8L361.6,327.0L360.4,330.8L357.0,331.6L355.0,329.0L354.6,327.0L353.0,325.8L345.8,326.0L345.2,324.2L337.6,324.2L332.6,324.2L331.0,327.0L329.2,327.6L328.0,325.6L326.0,325.8L324.6,324.0L323.0,324.8L321.6,324.4L320.2,324.6L318.6,324.8L317.8,323.4L316.0,325.8L314.6,327.6L314.6,329.6L313.6,330.6L314.6,332.2L313.13,332.75L311.4,331.0L308.0,330.0L307.4,328.4L303.2,328.4L302.2,326.8L299.0,326.4L298.0,327.6L296.4,326.0L293.2,327.4L288.8,327.0L285.2,327.2L284.2,325.8L280.0,326.0L280.0,324.8L276.6,324.8L275.6,324.2L273.8,325.0L271.6,323.6L269.2,324.4L268.4,323.0L267.2,324.0L266.4,323.2L265.4,324.6L263.0,325.4L261.2,324.2L259.2,322.8L257.2,320.6L254.4,321.4L252.6,321.2L251.6,319.6L248.2,319.6L247.8,317.2L246.2,318.2L245.2,318.8L244.2,317.6L242.8,317.8L240.6,317.8L239.0,316.0L237.6,316.4L237.0,318.0L234.2,318.2L232.0,316.6L230.6,317.2L229.0,316.2L227.6,316.8L226.2,315.8L225.0,316.6L221.8,316.2L221.4,314.8L219.8,315.8L218.2,315.8L217.8,315.0L215.0,314.8L213.6,312.6L210.4,312.0L210.6,313.2L208.0,312.8L203.8,311.2L197.2,311.0L195.2,310.2L193.6,310.6L189.8,310.6L183.6,309.4L181.4,308.2L179.0,308.2L178.2,309.4L176.6,307.8L175.2,308.8L171.4,308.8L168.8,307.6L166.8,307.2L165.0,306.4L161.6,305.2L161.2,304.0L160.4,304.8L159.6,302.8L156.4,301.8L154.8,302.0L151.8,302.4L150.2,302.6L148.6,302.6L147.6,302.6L147.0,301.4L145.6,300.4L144.4,300.2L142.8,301.2L142.2,299.6L141.4,300.2L139.2,298.6L140.0,294.2L139.4,293.0L137.4,295.8L132.2,298.6L129.4,299.2L126.0,297.6L123.0,296.2L120.2,294.8L118.4,294.2L116.8,294.0L117.63,295.13L117.88,296.38L116.75,297.75L115.5,297.88L114.5,297.5L113.63,297.5L113.0,296.88L111.75,297.13L110.88,296.5L109.88,297.75L109.38,299.25L108.38,300.63L107.38,301.38L106.88,301.13L106.0,301.5L105.38,301.88L104.0,302.13L102.75,301.13L102.75,300.5L102.0,300.5L100.5,298.13L100.75,297.63L99.63,297.38L98.5,297.0L95.88,295.5L94.88,294.75L93.63,295.13L92.13,295.5L91.38,295.0L90.88,295.5L89.5,294.25L87.5,294.25L85.88,295.38L83.63,295.0L81.13,294.5L80.5,294.13L79.5,294.38L78.25,293.38L76.63,293.5L75.88,293.0L74.63,293.63L72.25,291.38L70.5,291.63L69.75,290.63L68.13,290.63L69.25,288.38L68.25,288.13L66.5,288.0L65.38,287.88L64.0,286.25L62.88,286.38L63.75,287.13L63.38,288.25L63.63,290.0L62.63,290.88L62.75,292.25L62.25,293.25L61.0,294.25L60.13,294.38L59.25,295.25L59.75,296.25L59.75,297.5L59.88,298.88L58.13,298.5L57.0,298.5L55.38,298.38L54.25,298.5L53.25,298.5L52.38,298.88L50.75,298.63L49.5,298.38L48.0,297.5L46.88,297.63L46.25,298.13L45.13,299.13L44.63,299.63L43.63,300.5L42.25,301.0L41.13,301.0L40.38,301.38L39.0,301.63L37.25,301.63L35.75,301.88L34.75,301.75L33.75,300.38L32.88,302.13L33.75,303.0L34.63,303.25L34.13,304.0L34.13,305.38L34.38,306.38L33.75,307.0L34.0,308.0L35.0,308.38L35.63,309.25L37.0,309.25L38.38,310.0L40.13,310.25L40.13,310.75L39.25,310.88L40.0,311.75L41.38,311.5L42.0,312.0L42.5,311.75L43.5,311.5L44.88,312.0L45.63,312.63L46.13,312.0L46.75,312.38L48.13,312.38L48.88,311.88L49.75,312.0L50.75,311.63L51.75,311.75L52.75,312.25L51.63,313.38L51.75,314.75L51.0,314.88L51.13,316.25L51.5,317.0L50.88,317.75L50.38,317.5L49.75,318.0L50.13,319.38L49.5,320.5L50.25,320.88L50.13,322.88L50.25,323.63L48.88,324.38L49.5,325.25L49.63,326.0L50.25,327.0L50.75,328.13L50.25,328.88L48.13,328.5L48.0,330.25L47.13,330.63L47.75,332.25L47.75,332.75L48.63,332.88L49.5,333.0L50.0,333.88L50.75,334.38L49.75,335.0L49.25,335.63L48.88,336.5L48.13,336.5L48.38,337.25L47.5,337.25L47.63,338.0L46.88,338.75L45.63,338.25L44.63,338.38L43.75,339.0L42.88,339.38L42.88,340.0L41.75,340.75L40.88,340.75L39.63,341.5L37.88,341.38L37.75,342.0L38.5,343.25L38.13,344.5L37.5,346.13L39.25,346.38L39.0,347.25L37.25,348.25L35.38,349.63L36.38,351.25L37.5,353.25L38.25,355.5L39.13,355.88L39.88,357.0L40.75,356.38L42.5,357.25L41.88,357.75L42.25,359.38L41.88,360.5L41.88,362.5L41.25,363.0L41.63,363.63L41.25,365.25L40.75,366.88L40.75,368.38L42.0,369.25L41.75,370.0L43.5,370.0L43.5,370.88L44.38,370.5L45.25,370.88L46.88,369.63L48.0,368.63L49.5,369.5L51.63,368.5L53.6,369.8L56.4,369.2L56.0,370.4L56.8,371.0L58.2,371.6L60.0,371.4L60.6,369.4L62.2,369.8L63.0,368.8L64.4,369.0L65.6,369.0L67.0,369.2L68.2,371.6L69.2,371.8L71.6,370.8L71.6,368.4L72.4,367.0L75.2,366.8L75.8,368.0L76.6,368.2L77.6,368.6L78.8,367.6L83.0,367.2L84.8,368.4L90.8,368.4L92.8,368.0L94.6,369.4L97.0,369.4L98.6,370.6L100.8,370.2L101.6,371.0L103.2,371.6L107.4,373.8L107.6,375.6L109.8,375.8L109.4,378.2L111.0,378.4L111.8,379.4L112.8,377.8L114.8,377.6L115.0,375.8L116.8,375.8L118.4,377.2L119.8,375.8L121.6,375.6L122.8,375.2L124.6,376.6L128.2,376.0L129.4,378.4L131.6,378.6L133.0,378.8L134.4,380.0L135.8,381.0L138.4,381.2L139.6,381.0L140.6,382.0L145.4,385.0L147.0,383.6L149.2,385.0L150.4,386.8L153.0,386.6L153.0,388.4L153.8,388.4L154.8,388.4L156.4,388.4L157.6,388.4L159.0,389.4L158.6,390.6L157.8,392.6L157.2,394.4L161.4,395.2L162.8,396.2L164.2,397.2L166.4,397.2L171.2,399.8L172.0,401.2L173.6,400.2L175.8,400.4L179.2,401.4L180.2,400.4L183.2,401.0L185.2,401.0L186.8,398.4L188.0,398.8L187.0,400.6L187.2,402.2L187.8,403.8L189.4,404.4L189.4,406.4L191.0,407.8L191.4,409.6L192.8,413.6L193.6,414.6L193.4,416.8L195.8,419.2L197.6,419.0L198.0,420.0L200.4,418.0L201.4,419.2L203.8,418.0L205.4,418.0L206.6,418.6L204.4,420.8L203.4,420.6L202.4,421.8L199.8,421.4L198.0,424.0L195.8,427.2L198.0,429.0L197.6,432.0L197.6,434.2L198.8,436.4L197.8,437.6L198.2,438.8L199.2,440.2L198.0,441.4L200.4,442.6L199.4,445.4L201.2,446.8L200.8,449.8L203.2,451.4L203.4,452.6L200.2,454.8L198.6,454.6L196.8,455.6L195.0,454.6L195.4,456.4L193.0,458.4L193.8,460.4L190.6,462.6L191.8,464.4L190.2,465.2L191.4,466.2L193.0,466.0L197.2,469.2L195.8,470.0L196.0,471.6L193.6,474.8L194.8,475.8L196.6,476.6L197.0,479.0L196.8,481.4L195.2,482.0L195.8,484.4L194.0,486.4L193.0,486.6L193.0,488.0L192.2,489.4L190.0,490.0L190.0,491.4L191.2,492.6L190.0,493.6L189.8,497.0L189.0,497.2L189.4,498.4L190.38,498.25L191.25,498.88L192.38,498.5L192.5,499.5L193.63,499.13L194.25,498.13L195.13,496.75L196.25,497.63L197.5,497.63L198.5,498.25L199.5,499.5L201.63,498.88L203.0,499.88L204.13,501.0L204.63,499.88L206.38,500.13L207.13,499.5L208.0,499.75L209.0,499.63L210.0,498.25L211.25,498.13L211.75,499.88L211.75,500.63L212.88,500.88L212.25,501.75L212.5,503.13L213.38,503.38L213.38,505.0L214.75,504.38L215.88,504.25L216.25,503.75L217.25,504.0L218.25,503.88L218.5,502.75L219.13,502.0L220.38,503.13L221.75,503.13L222.5,502.88L223.0,504.25L223.75,505.25L225.38,505.5L225.88,506.38L225.75,507.5L227.13,508.13L229.0,509.88L229.25,511.13L229.88,510.25L230.75,509.63L230.75,509.0L231.88,509.0L232.88,509.0L233.13,509.88L233.88,510.63L233.88,512.25L235.25,512.0L236.25,513.75L237.0,513.0L238.0,512.88L238.5,512.0L239.38,512.0L241.13,510.75L241.5,509.88L241.0,509.25L242.25,509.0L242.13,508.13L243.25,507.88L244.0,508.25L245.75,508.0L247.5,508.25L248.63,508.88L250.5,509.13L251.38,510.75L252.63,511.88L252.5,512.88L252.88,514.38L254.5,513.88L255.38,514.38L256.13,513.88L257.75,513.38L258.5,514.75L259.5,514.5L260.63,515.75L261.38,515.38L261.5,514.75L262.38,514.0L263.25,514.38L264.0,514.5L265.0,515.63L266.25,516.13L267.13,516.0L267.25,515.13L268.75,515.13L268.75,514.5L268.38,513.38L269.63,511.5L271.5,511.75L272.13,511.13L274.0,512.13L274.38,511.38L275.13,510.5L276.13,510.63L277.0,510.38L277.75,511.25L278.88,509.5L278.25,508.5L279.63,506.25L279.88,507.38L281.25,508.5L282.75,508.0L282.75,507.25L282.38,506.63L283.38,506.0L284.0,506.75L284.63,506.25L285.75,506.88L287.38,506.25L287.75,504.75L288.88,504.75L289.5,504.5L289.13,504.0L289.13,502.75L290.13,502.5L291.13,503.38L291.88,504.38L292.88,505.38L294.0,505.5L293.75,506.13L294.25,506.5L295.25,506.13L296.0,507.13L296.38,508.25L298.0,509.13L297.25,510.13L297.63,511.0L298.63,510.88L299.13,512.25L299.38,513.13L300.13,513.13L301.38,513.63L301.75,514.63L303.38,514.0L304.25,514.88L304.5,516.0L304.63,517.38L306.5,517.75L308.0,517.5L308.75,517.0L309.88,517.63L310.63,517.75L311.88,518.5L312.75,520.0L313.5,519.0L314.38,519.0L315.25,519.13L315.63,518.5L316.13,518.13L317.38,519.0L318.13,518.63L319.5,518.63L320.13,518.38L320.5,519.5L320.38,520.25L321.13,520.25L322.13,520.88L321.63,521.5L320.5,521.25L319.25,522.0L316.63,521.75L316.0,522.63L314.0,522.63L313.63,523.63L313.25,524.13L313.25,525.25L313.88,526.0L314.75,526.0L315.38,525.88L316.0,525.5L317.38,525.0L319.13,524.25L319.63,522.75L320.88,523.0L321.0,524.13L321.0,524.88L321.25,525.88L321.5,526.75L321.63,528.5L323.0,529.38L322.5,530.13L322.88,531.5L324.0,532.0L324.5,532.88L325.88,532.75L326.88,533.13L326.75,532.13L327.25,531.0L328.75,531.0L329.88,531.75L331.13,532.38L330.88,533.38L330.38,534.25L331.13,534.88L331.75,537.75L330.5,538.13L330.13,539.25L331.63,541.13L330.5,541.75L329.0,541.25L328.75,541.88L328.13,542.25L327.0,543.63L327.38,544.38L327.38,545.25L328.5,545.75L329.5,546.5L329.88,548.25L330.5,550.13L330.88,551.5L331.88,551.88L331.88,552.88L332.88,553.25L333.75,554.75L334.38,556.13L335.25,556.13L336.0,556.75L336.5,556.25L337.13,556.75L337.75,556.13L337.63,555.13L338.88,555.25L339.38,554.25L341.88,554.5L342.88,554.75L343.5,555.0L345.5,555.13L346.63,555.75L348.25,556.5L348.5,558.0L349.25,559.25L349.88,559.88L350.75,558.88L351.5,558.5L351.0,557.0L351.63,556.63L351.5,555.5L352.75,554.38L353.25,553.25L353.5,552.25L355.75,551.88L357.88,551.88L358.13,554.0L359.5,555.88L360.63,557.0L361.38,557.25L361.88,558.0L363.5,558.13L363.88,559.13L365.13,559.13L366.0,560.13L365.88,562.13L366.13,564.13L366.75,564.88L367.63,564.25L369.13,564.88L369.0,564.13L369.5,563.63L369.5,561.63L370.25,561.63L371.0,561.38L370.75,559.13L369.38,557.25L369.88,556.13L367.38,554.63L367.5,553.13L367.38,551.25L369.25,550.25L369.25,549.13L367.88,547.25L369.13,546.88L370.63,545.75L371.5,546.0L372.38,546.25L376.0,546.38L377.0,546.0L378.13,547.5L378.0,548.5L378.63,549.75L378.88,551.0L379.5,551.88L380.0,553.13L381.63,554.88L382.88,555.25L384.13,555.88L385.25,557.5L386.63,558.25L388.75,556.88L390.0,558.13L391.5,558.75L391.5,557.88L392.25,557.5L392.75,557.88L394.0,559.75L395.5,560.63L397.25,560.5L397.13,559.63L397.5,558.88L399.0,558.88L400.0,557.5L399.63,556.75L398.0,555.0L398.0,553.63L396.5,551.88L396.13,549.5L397.38,549.25L398.63,547.75L397.5,546.88L396.63,545.0L395.75,545.0L395.63,543.75L395.0,543.0L395.13,541.25L394.25,540.5L394.63,539.88L395.88,540.63L397.0,540.88L397.38,540.38L399.0,540.88L400.13,541.75L400.38,543.13L401.63,543.63L401.38,542.0L402.25,541.5L402.63,540.88L403.75,541.38L405.13,542.13L406.25,540.88L405.63,540.25L404.63,539.38L405.38,538.25L406.63,537.63L407.88,537.5L409.0,538.5L410.75,539.13L411.88,538.63L412.88,539.5L414.5,538.88L415.63,539.75L417.13,538.75L417.63,538.63L418.88,539.0L419.75,538.0L418.0,536.13L419.0,535.5L419.5,536.63L420.13,536.75L420.88,537.25L423.13,537.13L422.63,535.88L423.63,534.13L421.5,533.63L421.63,532.63L420.88,531.63L421.0,530.0L421.75,529.0L422.63,524.75L423.38,523.63L424.88,524.25L424.75,525.25L425.75,525.5L426.88,525.13L428.0,524.63L428.38,523.0L428.88,522.75L428.25,522.0L428.63,520.88L428.0,519.38L427.5,517.63L426.88,517.38L427.38,516.88L426.0,516.25L424.63,516.25L424.75,515.13L425.38,514.13L426.38,513.63L427.0,512.38L426.0,511.63L424.75,511.5L424.38,511.0L425.0,508.88L426.38,509.38L427.88,508.75L428.25,507.75L429.38,507.38L430.63,508.25L431.13,509.63L432.75,510.63L434.13,510.88L434.5,510.38L436.38,510.75L437.25,510.75L438.75,511.25L441.13,511.38L441.5,510.63L443.63,511.0L442.88,510.5L442.13,509.63L440.38,508.88L439.13,507.88L438.5,507.25L437.88,505.5L437.38,505.88L435.13,505.38L434.25,504.25L433.13,503.75L432.63,503.75L429.75,501.0L429.25,500.88L429.25,499.25L427.88,497.13L427.13,495.88L426.63,493.13L427.38,493.0L427.5,491.88L426.75,491.38L427.5,491.0L426.75,490.5L426.75,489.63L425.13,489.13L426.0,488.38L426.13,487.5L425.63,486.25L426.5,485.63L427.25,485.63L428.63,484.63L429.75,484.5L430.63,484.63L431.25,484.5L433.38,484.13L433.75,483.25L432.63,481.75L434.75,480.63L434.38,478.88L433.5,477.25L432.13,477.0L432.75,475.0L432.0,474.5L431.75,473.13L433.38,472.63L434.25,471.0L436.13,470.13L436.25,469.5L437.63,467.63L438.0,466.0L438.38,463.63L439.13,462.75L441.25,463.0L441.25,462.0L442.38,462.0L443.0,461.13L443.88,460.13L445.0,459.0L443.75,458.13L443.0,457.63L441.13,457.75L441.25,456.75L440.38,456.75L439.13,455.75L437.75,456.13L436.63,455.63L435.5,455.63L435.0,454.0L433.38,452.5L433.38,451.38L433.88,448.88L432.63,448.63L431.5,448.25L430.13,449.0L429.63,447.63L429.0,447.25L428.13,446.38L429.0,444.5L429.38,443.0L429.38,442.5L428.5,441.25L429.63,440.5L428.88,440.13L428.38,439.13L428.75,438.13L428.25,437.63L427.63,435.75L426.88,434.88L425.75,434.5L426.5,434.0L426.25,433.25L427.63,432.75L427.13,432.0L427.5,431.38L427.13,430.88L427.5,430.25L428.13,430.5L430.13,430.5L430.88,429.63L432.25,429.88L433.0,429.13L433.88,429.63L435.25,429.0L437.5,427.88L438.75,428.38L439.5,428.5L439.63,427.13L440.5,426.25L440.63,424.5L440.13,423.63L440.38,422.75L441.63,422.88L442.5,422.0L442.63,420.38L442.13,419.38L441.88,418.88L441.5,418.25L441.0,417.5Z" />
		<path id="L1611122517981" name="果洛藏族自治州" class="qing-map-1616136114805" d="M440.88,416.25L442.25,416.0L442.75,414.88L443.88,414.75L445.75,414.25L446.38,413.88L447.0,412.13L447.88,411.25L449.25,411.25L451.25,411.75L452.0,411.25L453.63,412.0L454.38,411.75L455.5,413.13L456.88,414.38L457.5,415.13L458.75,416.5L460.13,416.5L461.75,416.5L463.75,417.5L465.0,417.5L466.25,418.13L467.5,418.88L469.0,418.75L471.0,418.38L473.0,418.63L473.75,417.63L475.25,418.13L477.25,418.25L476.5,420.13L478.38,422.13L478.75,423.38L479.13,425.0L478.75,426.13L477.88,426.38L477.5,428.0L478.25,429.0L478.75,430.0L477.88,431.25L478.75,432.63L479.63,432.63L480.63,434.0L481.5,435.5L481.25,436.63L481.75,437.38L482.75,436.88L483.5,437.88L483.88,438.88L485.0,439.13L486.0,439.75L486.5,440.5L486.5,442.0L487.75,442.63L489.13,444.13L488.75,444.88L487.75,445.25L488.13,446.63L490.13,448.25L489.63,449.38L489.5,451.0L490.63,450.75L490.75,451.88L491.5,452.0L492.63,452.88L493.25,454.13L494.0,454.75L494.0,456.88L493.38,457.75L493.63,459.0L494.25,458.88L494.63,460.0L495.75,460.88L495.75,463.13L495.13,463.88L495.63,465.0L495.0,466.25L496.25,466.75L497.13,467.13L497.38,468.38L497.25,469.63L497.25,470.63L498.13,471.0L498.25,472.0L499.0,472.88L499.75,474.13L500.25,474.13L501.5,475.38L502.63,476.0L504.75,475.75L505.0,477.25L506.13,477.5L506.88,478.13L507.5,477.38L508.63,478.25L509.38,477.75L510.0,478.5L511.0,478.38L511.5,479.25L512.38,479.25L512.88,480.25L513.75,479.75L515.38,480.5L516.63,481.75L516.88,483.0L518.0,483.75L518.0,485.25L519.0,485.63L518.75,487.13L519.5,488.13L520.25,490.13L521.38,489.5L522.5,490.0L522.63,489.13L523.13,488.88L524.13,489.75L525.13,488.75L526.75,489.63L528.5,491.0L530.25,491.38L532.5,491.88L533.63,492.0L534.5,493.0L535.63,494.25L535.63,495.38L536.5,495.88L537.38,495.63L538.0,495.25L538.63,496.13L539.38,495.88L540.25,496.75L541.38,496.63L541.88,497.88L542.5,499.13L543.25,498.5L543.0,497.75L543.63,496.75L544.25,495.88L544.38,494.75L544.38,493.38L544.75,492.88L544.75,491.75L545.88,490.63L545.75,489.5L545.38,488.0L545.25,487.25L544.5,487.25L544.5,486.38L545.38,485.25L546.0,486.0L547.25,485.63L548.88,486.25L548.63,485.13L549.25,484.38L549.75,482.88L550.0,481.88L550.0,480.38L551.0,480.0L551.25,481.63L552.13,482.5L553.5,483.88L553.25,485.38L554.88,486.5L556.13,486.38L556.88,486.63L558.25,486.88L557.5,488.63L558.75,489.5L559.63,489.25L560.13,490.63L561.38,490.88L561.13,492.0L562.13,492.38L561.75,493.88L562.38,495.75L562.5,497.75L563.0,499.38L562.0,499.88L561.5,501.63L560.88,501.63L560.5,502.5L561.88,504.0L562.75,504.38L563.5,504.0L564.25,504.75L565.13,504.88L565.63,505.5L566.63,506.25L566.5,505.63L566.88,504.75L567.5,503.63L567.25,501.25L567.63,499.63L568.5,499.38L569.13,498.88L569.0,498.13L571.0,498.88L572.63,499.25L575.0,497.75L575.75,497.63L575.38,498.88L574.38,500.63L575.0,500.75L576.38,499.13L577.63,500.25L577.88,501.13L578.88,500.63L579.5,502.13L581.25,504.38L581.38,505.75L582.25,507.13L583.0,508.25L583.63,508.13L586.63,509.63L588.5,511.0L588.5,509.5L588.25,506.75L589.0,504.88L590.5,505.75L591.63,505.25L591.13,504.63L591.13,503.88L590.0,502.63L590.0,502.0L591.75,502.75L593.0,503.5L593.63,502.88L594.38,504.13L595.0,503.38L596.25,504.0L597.25,503.75L598.5,504.38L600.0,504.38L600.0,505.5L601.0,505.63L601.63,506.38L603.38,505.0L605.0,505.0L606.0,503.63L609.0,501.5L609.25,502.25L610.0,502.13L610.88,502.63L610.75,504.63L611.5,503.13L613.13,503.0L614.63,501.5L615.75,499.88L616.75,498.5L616.13,496.5L617.13,495.75L616.25,495.25L616.88,493.25L616.0,492.63L616.38,491.25L615.88,490.88L614.25,489.38L612.88,488.75L611.38,488.5L612.0,487.38L611.63,485.63L611.63,483.75L614.63,483.63L613.75,481.88L614.38,480.38L612.38,479.63L612.25,478.13L613.88,477.13L613.63,476.13L612.75,475.63L613.13,474.25L612.5,474.25L612.25,473.25L611.75,472.75L611.75,471.88L611.13,471.88L611.38,470.0L612.88,469.25L613.13,468.25L614.0,468.25L615.13,467.0L615.88,467.75L616.5,467.0L617.75,467.63L618.63,467.25L619.88,467.75L620.63,468.5L621.63,468.75L621.25,469.88L622.38,470.75L623.0,472.5L624.13,473.63L624.88,472.25L624.88,470.63L625.0,469.75L626.5,469.75L628.38,469.75L629.5,469.5L630.88,471.13L631.38,472.38L633.13,473.75L635.13,475.38L636.13,477.0L638.0,474.88L637.5,473.63L639.0,472.38L638.88,471.13L640.63,470.25L641.25,469.75L641.0,468.13L642.13,467.63L641.63,466.75L641.0,466.13L640.5,465.38L638.88,465.5L637.38,464.0L637.88,460.5L639.75,457.88L641.38,456.63L643.13,456.5L643.5,454.63L643.63,452.25L643.38,451.38L643.0,452.0L641.25,453.63L639.38,453.5L638.63,453.5L637.88,453.5L636.75,453.88L635.5,452.13L635.63,449.88L635.75,447.75L634.25,444.88L633.88,443.38L633.0,443.5L632.75,442.25L631.25,442.13L630.25,441.5L628.63,442.5L627.13,442.75L626.75,444.0L624.63,445.0L623.38,444.38L621.75,444.38L620.75,443.88L619.75,444.0L616.75,442.25L616.0,443.13L615.03,443.43L614.25,444.13L613.63,443.88L614.13,442.75L613.38,441.63L613.25,440.88L614.5,439.0L614.38,436.0L612.75,434.13L613.0,433.38L612.38,433.25L611.5,432.88L610.88,432.38L610.13,432.38L607.88,431.88L607.75,430.5L607.13,430.63L606.75,430.0L605.38,430.0L603.75,427.5L602.38,425.63L601.25,425.0L602.13,424.25L600.63,422.5L600.5,421.25L599.75,421.63L599.38,421.13L599.25,420.0L598.75,419.88L599.0,418.88L597.75,418.13L596.88,416.13L596.13,415.25L596.25,414.25L593.88,413.38L594.5,411.13L595.25,409.88L595.5,409.13L595.38,408.25L595.63,407.75L595.63,406.63L596.13,406.5L596.13,404.88L597.0,404.25L598.5,404.13L600.0,402.88L599.88,401.5L601.38,401.25L602.63,400.25L604.25,397.75L604.13,395.13L603.5,392.25L603.5,390.88L602.25,391.25L601.38,390.5L601.88,389.0L600.88,388.75L601.38,386.63L600.25,386.0L600.38,384.38L599.88,383.0L599.88,382.0L598.5,380.38L597.63,380.88L597.13,381.63L596.0,382.13L595.25,382.13L595.13,383.38L594.38,383.63L593.25,383.0L592.5,383.75L591.75,383.13L590.63,383.5L589.75,383.13L589.75,382.0L588.88,381.88L588.5,380.75L586.0,381.88L585.75,380.63L585.0,380.0L584.0,380.25L583.38,378.88L581.63,377.88L581.5,376.75L579.13,375.13L575.88,375.13L573.88,374.75L571.63,373.25L572.25,371.75L571.25,371.0L571.5,370.13L570.63,369.5L569.63,370.25L568.13,370.25L567.13,370.75L566.0,370.5L564.75,370.13L563.5,371.0L562.63,370.25L560.75,371.25L560.25,373.88L558.5,374.88L557.88,374.38L557.25,375.5L556.38,375.25L555.75,375.5L553.63,374.63L552.38,374.75L551.75,373.88L550.25,373.0L549.0,373.88L547.75,373.88L545.75,372.38L543.5,372.25L542.88,370.38L541.75,370.25L541.25,370.0L539.0,369.13L539.0,367.38L537.63,367.75L536.38,367.38L535.5,368.13L534.25,366.25L532.75,367.25L531.5,366.0L530.25,366.13L529.5,364.0L528.0,363.63L528.5,362.5L527.63,361.0L526.25,361.0L525.0,359.5L525.13,358.38L523.75,358.25L523.5,355.88L522.75,355.88L522.63,354.63L520.25,353.25L520.88,352.63L519.63,350.75L517.63,350.75L517.63,348.88L515.5,347.5L515.25,346.0L516.5,343.75L518.38,343.25L519.5,341.5L521.88,340.5L521.88,338.63L521.63,337.75L520.38,337.63L520.38,336.63L518.0,336.5L516.5,336.13L517.5,334.5L519.38,334.88L520.0,334.88L520.38,333.63L521.75,332.5L522.63,333.0L523.63,333.0L522.88,331.63L522.88,330.25L521.63,329.63L519.38,328.38L517.25,326.88L516.0,326.38L515.0,326.8L512.6,326.0L512.0,327.6L510.6,328.4L508.4,327.0L507.4,328.0L504.2,327.6L502.38,327.25L502.6,328.8L500.2,329.4L497.6,328.0L496.6,326.8L495.2,327.2L495.2,329.0L494.6,331.2L492.2,332.6L490.6,332.2L490.0,333.4L487.6,334.6L487.4,336.2L485.2,335.6L482.8,336.8L480.4,335.6L479.0,334.6L478.0,335.6L474.4,335.8L473.8,335.0L473.0,335.8L471.8,334.6L473.13,333.63L470.25,332.55L470.2,333.8L468.2,334.8L468.6,337.6L466.2,344.8L464.3,344.3L464.0,343.2L462.6,344.0L461.6,344.0L460.8,345.8L459.2,345.0L457.8,346.4L455.0,346.4L453.8,345.2L452.4,345.8L451.2,344.4L450.2,344.8L448.4,343.8L447.8,345.0L445.0,343.6L445.4,342.6L442.8,343.2L440.8,342.8L441.4,341.0L438.8,340.4L438.0,342.8L438.0,344.8L438.4,347.8L436.8,348.2L435.8,347.0L434.0,348.0L432.6,347.2L430.8,346.4L429.6,345.4L427.8,345.4L426.4,345.6L425.2,345.6L425.38,348.25L426.25,349.75L423.75,352.0L421.88,354.38L421.0,355.63L419.88,357.63L419.75,359.25L418.63,359.38L418.63,360.5L417.88,361.5L418.88,362.38L418.63,363.88L416.75,365.0L414.5,366.25L412.88,367.75L411.63,369.88L410.88,369.0L409.25,369.0L408.13,369.88L409.13,371.63L407.5,373.5L408.0,374.63L405.88,374.88L404.5,376.63L405.5,378.75L406.25,378.88L407.75,380.38L408.5,380.0L408.25,379.13L408.88,378.25L412.13,378.88L412.63,379.88L413.5,380.25L415.13,380.25L413.75,382.88L411.25,383.0L411.25,384.75L412.75,386.38L414.63,385.63L416.13,387.25L417.38,386.88L418.13,388.0L417.38,390.63L417.5,392.13L415.25,393.63L417.0,394.88L419.38,393.75L420.88,394.75L423.0,395.63L424.25,395.63L424.88,398.63L423.63,398.88L422.75,400.0L423.5,400.88L424.0,401.63L425.75,401.25L425.75,403.13L427.75,404.38L428.75,406.5L430.0,406.5L431.38,407.38L431.13,409.13L432.38,410.13L432.63,411.88L434.25,411.88L434.25,413.0L434.63,413.88L436.63,413.5L436.5,411.88L437.63,410.88L438.75,411.0L438.88,412.88L439.75,413.5L439.25,414.5Z" />
	</g>
</svg>
