<svg xmlns="http://www.w3.org/2000/svg" viewBox="0,0,800,683" width="100%" height="100%">
	<defs>
		<style type="text/css">
.qing-map-1616134807731
{
	fill: #DDDDDD;
	fill-opacity: 1.0;
	stroke: #FFFFFF;
	stroke-opacity: 1.0;
	stroke-width: 1;
}

.qing-map-1616134807731:hover
{
	fill: #56A4FF;
	fill-opacity: 1.0;
}
</style>
	</defs>
	<g>
		<path id="L1611642270611" name="甘孜藏族自治州" class="qing-map-1616134807731" d="M173.0,127.4L169.4,126.4L164.6,123.0L162.6,124.0L160.0,125.2L158.6,124.4L156.8,124.6L157.0,122.6L155.8,121.8L155.8,120.0L155.0,118.6L154.6,116.2L153.0,115.6L153.0,113.4L150.8,112.0L148.0,112.0L145.4,109.6L144.2,109.8L142.2,108.8L140.2,108.8L137.8,107.8L137.6,106.6L135.0,106.4L132.2,104.4L128.6,101.4L128.8,99.8L127.6,99.6L126.8,94.6L124.0,93.6L124.8,92.4L124.2,90.6L125.2,90.4L125.6,87.0L123.6,84.8L122.2,83.0L123.0,79.6L121.8,78.0L122.2,76.4L119.2,74.6L118.2,72.6L117.4,72.6L117.8,70.4L115.2,68.2L114.2,65.8L116.4,65.2L116.4,63.8L113.8,61.4L113.4,58.8L110.0,57.2L108.4,55.2L107.2,55.2L106.2,54.4L106.6,53.2L105.0,49.4L103.0,50.0L101.0,48.0L102.8,45.6L101.4,43.0L101.6,41.0L102.8,39.4L102.8,36.2L100.2,33.0L101.0,31.2L96.4,29.8L95.6,30.2L92.4,31.0L89.8,31.0L88.6,31.6L87.6,30.0L84.8,29.2L81.6,28.0L76.8,27.8L74.2,25.2L71.8,22.4L68.6,21.0L62.0,21.2L60.8,23.8L54.0,27.4L52.6,29.2L55.4,33.2L54.4,35.6L52.6,36.4L52.8,40.4L52.0,42.0L51.0,43.8L49.0,42.8L43.8,45.0L42.4,44.8L39.4,46.4L34.4,46.8L34.8,49.4L33.2,51.4L35.6,53.0L37.0,60.6L38.0,62.4L35.6,67.4L37.8,69.6L39.2,70.8L41.2,70.0L43.8,70.6L42.8,75.2L45.2,77.4L45.8,79.0L48.0,79.0L48.6,80.8L50.4,80.0L51.2,81.0L53.0,81.0L54.0,82.0L57.6,83.6L58.2,84.6L57.0,85.4L55.2,87.8L54.0,87.8L54.0,89.2L51.4,89.0L50.0,89.8L49.0,92.8L48.8,95.6L47.0,98.0L45.4,99.6L44.2,99.6L43.4,101.4L40.8,102.8L42.0,105.0L41.4,107.0L43.4,108.6L44.6,111.6L45.0,112.6L42.4,115.4L43.4,116.8L40.8,117.2L39.8,118.0L37.8,117.6L35.8,119.0L33.6,119.0L33.6,121.2L32.4,123.8L33.8,124.2L34.4,125.8L35.0,127.8L34.4,129.4L34.8,133.2L37.6,137.0L37.2,138.8L40.8,142.4L43.4,143.2L45.2,145.2L49.2,145.6L50.4,148.2L55.2,151.8L59.6,152.8L60.8,152.8L62.0,154.0L65.6,154.6L67.6,155.6L70.6,155.8L75.8,158.0L77.2,160.0L78.0,160.4L81.4,162.8L82.8,162.4L84.4,164.0L88.8,166.2L88.2,169.2L89.4,172.6L89.2,175.0L91.0,176.0L94.4,181.6L94.0,183.4L97.0,185.4L100.8,189.4L101.0,191.4L103.0,192.2L102.8,196.0L102.0,197.2L102.6,198.8L100.6,200.2L102.2,204.0L101.8,205.8L103.4,206.2L103.4,208.2L104.8,210.0L107.8,212.0L108.4,214.4L110.0,215.2L111.0,217.2L110.6,219.8L113.4,221.8L114.8,224.6L118.0,226.4L121.0,230.8L125.8,233.6L126.2,234.8L128.8,236.0L129.8,238.2L131.0,239.0L132.0,241.0L130.6,243.4L129.4,243.8L127.2,246.0L127.2,247.8L125.4,250.2L123.0,249.2L121.2,246.6L120.0,244.4L116.2,243.6L114.6,247.6L114.0,252.0L114.8,252.4L114.8,255.6L118.4,257.6L121.0,260.8L121.2,263.4L123.8,266.8L125.0,267.2L127.0,269.0L127.0,271.6L124.8,276.2L127.6,279.4L129.6,280.8L131.4,283.0L132.4,284.8L134.4,286.2L136.4,286.6L137.2,289.4L135.8,291.6L133.8,292.0L134.2,295.8L134.6,298.6L136.0,300.8L134.8,302.0L135.6,304.0L135.4,306.6L136.0,309.2L137.6,311.2L137.8,320.4L139.0,323.2L137.4,325.6L138.4,327.8L138.8,329.2L137.8,332.0L139.2,333.8L140.6,335.0L142.0,338.0L142.2,340.6L142.4,342.2L143.6,348.4L143.2,351.4L140.6,358.2L140.6,360.6L139.6,363.6L139.0,370.4L140.6,373.2L140.4,375.0L142.0,375.4L142.8,377.6L142.8,382.4L143.8,384.4L143.8,390.0L144.2,394.8L144.4,397.4L145.4,399.0L147.2,402.2L146.8,406.8L147.2,410.6L147.4,415.0L147.8,420.2L148.4,423.4L147.8,424.6L148.0,426.0L146.2,432.2L146.8,435.2L147.0,437.6L148.2,439.0L147.6,442.2L149.0,444.0L149.2,446.8L150.8,448.0L150.0,449.4L151.2,450.0L150.8,452.2L151.0,455.0L151.6,456.2L151.8,460.4L150.6,461.8L150.8,464.0L152.8,466.2L154.6,468.2L155.4,470.8L158.4,472.0L157.8,474.2L159.0,474.8L159.4,476.6L162.0,478.4L163.2,480.4L165.0,480.4L166.2,474.6L166.8,473.8L165.4,470.4L166.2,469.4L166.2,467.6L167.8,465.2L166.0,461.2L167.0,459.8L167.0,458.0L165.2,456.8L165.6,453.2L168.0,452.4L169.8,452.8L170.0,451.0L172.2,449.4L173.6,448.2L174.6,448.2L175.0,444.2L174.8,443.2L176.4,441.0L180.2,439.0L179.2,436.8L180.2,434.2L181.4,433.0L184.6,433.6L186.4,431.8L186.6,438.0L187.6,439.0L187.6,440.8L189.4,442.4L192.0,442.6L194.6,445.4L194.4,447.4L196.2,447.0L196.4,448.4L201.2,450.8L202.2,452.6L202.8,454.6L203.6,454.8L204.0,458.4L208.8,460.8L209.4,462.6L208.2,465.6L210.6,467.2L212.8,467.4L216.0,470.0L215.6,472.0L214.4,472.2L216.4,474.8L215.2,476.4L214.8,478.2L211.6,478.4L210.6,480.6L208.4,479.4L207.4,480.0L206.6,481.4L206.4,483.6L208.4,487.2L217.4,494.8L219.8,495.0L221.6,497.0L223.8,494.6L224.2,492.8L230.4,492.6L232.6,492.6L231.4,489.4L230.2,488.0L231.0,485.8L228.6,476.0L231.8,472.8L232.0,470.6L230.0,469.2L232.0,465.2L232.2,461.0L235.6,457.0L236.8,457.0L237.4,453.0L239.2,450.4L238.2,447.4L239.4,445.0L236.0,441.0L237.8,440.8L241.6,438.0L243.2,438.2L242.8,434.6L242.6,432.6L241.2,432.4L239.6,427.8L239.4,425.6L238.8,423.4L241.2,423.2L244.8,422.8L246.0,420.6L249.0,418.6L250.2,419.8L251.8,418.8L255.6,419.8L257.2,420.6L259.8,417.4L258.2,415.4L255.2,415.0L254.6,412.8L257.2,411.4L260.0,411.4L262.6,408.4L265.4,410.4L264.8,413.0L267.0,414.8L270.6,409.8L274.0,408.2L277.6,411.2L277.2,414.0L279.2,416.0L280.0,418.8L279.2,420.4L280.6,424.0L282.2,424.4L282.0,426.8L281.6,429.2L281.0,433.6L281.4,436.4L283.2,438.2L282.6,441.0L283.4,443.2L282.8,445.0L287.0,444.8L290.0,444.2L291.2,444.4L293.6,445.0L293.8,447.0L297.6,446.4L299.4,447.6L301.2,447.4L302.6,449.2L303.0,450.8L304.8,449.6L308.8,453.4L310.4,454.2L309.8,455.8L310.4,457.8L307.6,458.8L301.4,456.6L297.8,456.0L297.2,455.0L293.2,459.0L294.6,460.0L297.4,457.8L299.4,463.4L301.0,465.8L300.4,467.8L301.4,470.4L304.8,469.8L307.2,469.4L309.4,466.0L310.8,467.2L312.8,467.4L317.2,464.0L317.2,462.2L319.0,458.0L318.8,454.4L323.6,449.8L327.4,448.6L329.0,448.6L330.0,446.8L331.6,443.0L335.2,441.0L336.4,439.2L335.0,437.8L333.6,434.4L332.0,432.8L334.0,430.0L334.2,427.0L336.6,426.4L338.4,425.2L338.4,423.0L342.8,420.0L342.8,418.6L344.8,416.6L346.0,413.8L344.8,411.8L345.2,410.0L342.8,406.4L340.0,406.6L337.6,406.2L342.8,402.6L340.4,398.8L338.2,397.6L336.6,397.8L334.4,397.0L331.8,395.4L331.8,393.6L332.8,390.6L333.8,388.2L331.4,387.0L331.4,383.8L330.8,381.8L333.2,382.8L336.6,382.8L341.2,382.4L343.6,381.2L345.2,379.6L346.4,381.4L346.4,384.6L347.6,385.4L355.2,380.2L355.2,377.6L353.0,374.2L353.8,372.8L353.8,370.6L354.4,368.0L357.0,366.0L355.8,364.2L358.4,362.0L357.0,360.0L355.8,358.2L353.8,357.0L352.4,354.2L353.6,351.0L354.4,349.2L354.4,345.6L352.8,344.2L352.8,341.6L352.4,339.2L354.4,336.8L353.4,335.4L354.6,333.2L357.0,329.4L358.4,328.8L359.0,327.6L360.4,327.8L362.0,321.4L363.0,317.6L362.0,315.6L363.4,313.2L362.0,310.8L361.8,307.8L363.0,302.2L364.0,297.8L365.6,296.4L365.4,294.6L367.2,292.2L365.6,286.8L365.2,292.2L364.0,293.6L360.6,291.4L356.8,291.8L355.2,293.8L353.4,293.8L351.8,297.4L348.0,297.2L346.8,299.6L344.6,299.0L342.0,296.6L341.0,294.4L337.8,294.2L338.6,292.6L337.4,291.4L338.8,289.2L336.8,287.0L338.2,285.2L338.8,278.6L342.6,276.6L346.0,276.8L347.8,276.0L346.4,274.2L347.2,272.4L345.4,269.8L345.0,265.4L345.6,262.4L345.6,258.6L343.4,259.8L341.0,262.0L337.4,263.8L335.6,258.0L333.6,257.4L332.8,255.6L330.4,256.6L329.2,258.0L327.4,257.0L326.8,255.0L325.8,253.4L325.6,249.2L323.4,247.4L320.2,248.0L319.4,246.6L316.4,245.2L314.6,244.2L314.0,241.8L312.0,240.2L308.6,240.6L307.2,243.4L305.0,240.0L302.4,241.2L301.0,241.4L299.2,244.4L299.2,247.0L297.4,242.0L299.6,238.4L298.8,236.2L296.4,236.2L295.6,238.6L291.8,241.0L290.2,240.6L289.6,241.8L287.0,240.4L285.6,238.4L286.6,235.4L286.0,230.8L283.6,228.6L283.2,230.4L278.8,231.4L277.0,233.4L275.6,232.0L274.2,230.8L274.4,229.0L273.2,226.8L274.2,225.2L273.4,223.6L274.0,221.2L272.4,220.8L269.8,218.4L267.8,217.6L267.4,214.6L265.4,212.0L261.0,213.0L260.6,209.8L265.6,206.8L267.2,203.4L269.6,203.2L269.8,200.4L269.2,198.8L270.4,196.8L269.2,194.4L267.4,194.4L266.2,193.8L261.2,195.6L258.8,193.8L255.6,192.2L257.0,189.4L253.8,187.2L254.0,185.4L252.2,184.6L249.4,180.8L251.8,180.2L251.8,179.0L249.0,178.4L246.6,175.0L244.2,175.4L242.6,173.0L241.4,171.6L241.4,169.6L238.8,167.2L240.0,161.6L241.4,160.6L243.4,160.0L245.8,157.0L244.8,154.4L246.6,153.6L247.8,152.2L245.0,150.8L241.0,149.2L238.4,145.0L238.0,143.4L235.8,140.6L235.4,139.6L232.2,136.8L230.4,139.0L229.0,138.4L230.2,136.0L229.0,135.2L226.8,137.4L221.2,135.8L221.4,136.8L220.4,136.8L219.2,140.4L219.8,142.4L218.4,145.0L216.8,144.4L214.6,143.8L213.0,143.8L211.4,141.6L213.4,136.8L212.2,132.0L212.6,128.0L211.4,125.6L210.6,126.2L209.4,124.2L206.8,123.2L207.4,121.0L202.4,119.8L201.2,116.8L199.6,115.0L198.6,111.6L197.0,111.6L196.8,114.8L196.6,116.2L195.2,119.4L194.0,119.2L192.2,119.8L191.0,119.2L189.6,120.2L191.4,124.8L189.8,128.0L189.8,132.2L188.4,134.6L188.0,136.4L186.4,136.4L185.4,133.6L183.6,133.6L183.2,132.4L182.0,132.4L181.0,131.2L179.0,132.4L178.0,131.2L175.6,127.6Z" />
		<path id="L1611645596082" name="凉山彝族自治州" class="qing-map-1616134807731" d="M208.4,487.2L217.4,494.8L219.8,495.0L221.6,497.0L223.8,494.6L224.2,492.8L230.4,492.6L232.6,492.6L231.4,489.4L230.2,488.0L231.0,485.8L228.6,476.0L231.8,472.8L232.0,470.6L230.0,469.2L232.0,465.2L232.2,461.0L235.6,457.0L236.8,457.0L237.4,453.0L239.2,450.4L238.2,447.4L239.4,445.0L236.0,441.0L237.8,440.8L241.6,438.0L243.2,438.2L242.8,434.6L242.6,432.6L241.2,432.4L239.6,427.8L239.4,425.6L238.8,423.4L241.2,423.2L244.8,422.8L246.0,420.6L249.0,418.6L250.2,419.8L251.8,418.8L255.6,419.8L257.2,420.6L259.8,417.4L258.2,415.4L255.2,415.0L254.6,412.8L257.2,411.4L260.0,411.4L262.6,408.4L265.4,410.4L264.8,413.0L267.0,414.8L270.6,409.8L274.0,408.2L277.6,411.2L277.2,414.0L279.2,416.0L280.0,418.8L279.2,420.4L280.6,424.0L282.2,424.4L282.0,426.8L281.6,429.2L281.0,433.6L281.4,436.4L283.2,438.2L282.6,441.0L283.4,443.2L282.8,445.0L287.0,444.8L290.0,444.2L291.2,444.4L293.6,445.0L293.8,447.0L297.6,446.4L299.4,447.6L301.2,447.4L302.6,449.2L303.0,450.8L304.8,449.6L308.8,453.4L310.4,454.2L309.8,455.8L310.4,457.8L307.6,458.8L301.4,456.6L297.8,456.0L297.2,455.0L293.2,459.0L294.6,460.0L297.4,457.8L299.4,463.4L301.0,465.8L300.4,467.8L301.4,470.4L304.8,469.8L307.2,469.4L309.4,466.0L310.8,467.2L312.8,467.4L317.2,464.0L317.2,462.2L319.0,458.0L318.8,454.4L323.6,449.8L327.4,448.6L329.0,448.6L330.0,446.8L331.6,443.0L335.2,441.0L336.4,439.2L335.0,437.8L333.6,434.4L332.0,432.8L334.0,430.0L334.2,427.0L336.6,426.4L338.4,425.2L338.4,423.0L342.8,420.0L342.8,418.6L344.8,416.6L346.6,418.0L348.4,421.4L350.0,422.8L350.8,424.0L351.0,427.2L353.0,427.0L356.2,428.6L357.2,430.4L362.6,430.8L365.4,428.8L364.8,427.6L366.6,424.4L365.4,423.0L365.4,421.2L367.2,419.0L369.0,416.4L368.2,414.8L369.0,413.4L368.8,411.0L370.8,410.6L372.0,407.4L373.8,407.4L373.0,405.2L377.0,403.8L377.4,405.8L379.8,407.6L383.4,408.2L385.6,406.8L384.4,405.2L385.8,402.6L385.0,401.0L389.0,401.8L389.6,404.2L391.8,404.6L393.8,402.8L394.4,399.6L395.8,397.2L399.6,398.0L402.0,398.8L401.8,401.2L399.4,401.4L398.6,400.6L397.8,404.8L396.0,405.0L396.0,408.0L394.8,409.8L398.4,414.4L396.2,416.8L393.8,417.0L396.8,424.8L395.4,427.2L396.6,429.8L395.0,433.4L396.0,437.0L396.2,440.0L398.0,443.8L399.6,443.8L402.8,444.6L404.2,443.6L404.8,440.8L404.8,439.0L406.8,436.8L407.0,434.4L410.6,432.4L413.4,433.6L417.4,433.6L419.2,437.2L421.4,439.0L421.8,440.0L419.8,441.6L419.8,442.6L418.0,446.6L418.0,448.0L415.6,450.0L415.2,452.4L418.6,454.4L421.8,460.6L423.0,461.0L424.4,462.6L427.8,460.0L428.8,457.8L427.2,455.8L429.4,453.2L432.2,452.8L433.8,450.2L434.0,448.2L437.0,448.4L439.6,449.2L441.8,449.2L444.8,452.0L446.6,453.2L444.2,455.0L444.6,456.8L447.2,459.0L448.4,455.6L451.0,455.0L453.4,458.6L453.8,461.6L455.6,465.0L455.4,467.2L457.2,471.2L454.8,472.6L452.8,474.4L450.0,476.0L448.2,476.4L447.0,478.4L444.8,478.6L443.6,476.4L441.0,474.8L436.8,477.2L433.2,482.8L430.2,484.6L428.8,484.8L429.6,486.6L428.2,488.2L428.8,491.6L431.6,491.2L433.0,495.6L435.2,496.4L435.4,497.2L432.6,500.0L433.0,504.6L432.6,507.8L430.4,509.6L429.2,511.6L427.6,512.2L425.4,515.2L423.8,515.6L422.6,517.0L418.4,521.8L419.2,522.8L419.0,525.8L418.2,525.8L414.2,526.2L413.0,528.4L412.2,529.0L409.4,534.2L409.0,536.2L406.6,538.2L404.8,537.8L403.6,537.2L402.0,539.2L398.6,539.6L397.0,537.4L392.6,545.4L392.0,548.4L394.0,550.0L393.8,554.8L394.4,557.0L393.6,559.8L391.8,565.2L393.4,566.8L393.0,568.8L392.4,571.0L394.8,575.8L398.0,579.2L399.6,583.2L399.4,584.8L400.2,586.8L400.8,588.6L400.4,590.8L401.8,591.8L402.0,596.2L400.8,597.4L403.4,599.8L403.6,602.0L402.0,605.2L399.6,605.2L399.2,610.0L399.8,613.4L398.8,614.8L395.2,615.8L394.4,614.8L392.6,615.2L392.0,614.0L391.0,615.6L388.4,617.8L385.8,618.2L384.6,620.0L382.6,620.6L381.6,622.8L381.6,624.6L378.0,624.8L377.6,623.6L375.2,622.2L374.0,621.6L374.2,620.0L376.0,617.2L375.8,615.4L372.0,613.8L370.0,614.4L369.6,616.0L363.2,618.4L360.4,618.2L358.2,621.8L353.6,623.8L351.4,624.2L350.8,625.6L348.0,628.4L346.4,629.0L344.6,632.4L343.4,632.6L342.8,633.4L341.4,634.8L337.6,634.4L337.0,633.0L331.8,633.6L330.4,632.4L328.4,632.2L325.8,635.8L324.4,635.8L324.6,632.6L323.4,631.4L324.4,630.6L324.4,628.4L328.8,626.0L328.8,624.2L328.6,622.4L329.8,620.0L329.8,618.2L330.4,616.6L330.0,614.2L330.4,610.4L330.0,608.4L333.4,606.8L334.6,608.8L337.6,608.8L336.8,606.0L338.2,604.0L337.2,601.6L336.4,600.8L337.4,598.2L336.8,596.8L335.2,596.2L334.8,593.6L333.8,592.6L334.2,588.4L336.6,587.6L338.4,586.6L338.2,589.6L339.8,591.2L342.2,594.0L343.6,593.8L343.4,591.6L346.2,588.0L347.0,586.2L347.0,584.6L346.6,580.4L348.8,580.4L347.6,579.0L348.4,574.8L350.2,571.6L349.0,569.2L349.6,565.8L349.2,563.8L350.4,561.8L350.4,559.4L347.8,557.2L346.4,556.4L345.0,554.2L340.4,556.2L340.8,557.8L337.8,561.4L335.0,560.8L333.4,558.4L331.0,559.4L329.8,557.2L331.0,555.8L328.6,552.0L328.6,549.2L327.0,548.0L327.0,551.0L327.0,552.0L325.8,553.2L326.2,555.2L326.8,557.6L324.0,558.0L322.8,559.6L319.4,557.0L316.4,557.6L314.0,556.2L311.6,551.6L313.0,545.2L311.4,543.6L310.8,542.0L308.2,542.0L304.6,546.6L303.4,550.0L301.4,550.2L296.8,551.4L296.6,555.0L295.0,555.8L292.8,553.8L291.6,553.6L290.0,552.6L288.2,553.2L284.8,554.4L282.2,553.4L280.6,554.4L279.8,552.8L277.8,552.0L274.8,553.2L272.2,550.8L271.6,547.6L271.4,545.6L270.4,543.8L270.6,542.4L268.8,540.0L266.6,535.4L266.6,533.8L263.4,532.2L263.8,529.0L262.0,525.4L259.8,522.2L258.6,522.2L259.8,520.0L258.4,518.8L259.6,517.6L258.4,517.0L256.4,516.8L255.2,515.4L255.0,513.2L253.6,511.6L253.2,510.0L250.2,506.8L250.8,503.8L249.0,503.0L249.8,501.8L248.8,499.6L246.6,500.2L244.4,502.4L244.2,504.6L241.0,506.6L238.4,506.8L237.6,505.0L236.6,505.2L235.4,503.8L232.4,503.8L232.0,505.8L231.0,508.0L229.6,510.2L229.0,512.2L227.8,511.6L226.8,514.4L224.6,513.8L224.0,509.4L223.2,507.2L224.4,506.0L223.6,503.2L221.2,503.8L215.6,501.2L217.2,499.0L212.8,492.8L210.4,491.4Z" />
		<path id="L1611646534133" name="攀枝花市" class="qing-map-1616134807731" d="M280.6,554.4L282.2,553.4L284.8,554.4L288.2,553.2L290.0,552.6L291.6,553.6L292.8,553.8L295.0,555.8L296.6,555.0L296.8,551.4L301.4,550.2L303.4,550.0L304.6,546.6L308.2,542.0L310.8,542.0L311.4,543.6L313.0,545.2L311.6,551.6L314.0,556.2L316.4,557.6L319.4,557.0L322.8,559.6L324.0,558.0L326.8,557.6L326.2,555.2L325.8,553.2L327.0,552.0L327.0,551.0L327.0,548.0L328.6,549.2L328.6,552.0L331.0,555.8L329.8,557.2L331.0,559.4L333.4,558.4L335.0,560.8L337.8,561.4L340.8,557.8L340.4,556.2L345.0,554.2L346.4,556.4L347.8,557.2L350.4,559.4L350.4,561.8L349.2,563.8L349.6,565.8L349.0,569.2L350.2,571.6L348.4,574.8L347.6,579.0L348.8,580.4L346.6,580.4L347.0,584.6L347.0,586.2L346.2,588.0L343.4,591.6L343.6,593.8L342.2,594.0L339.8,591.2L338.2,589.6L338.4,586.6L336.6,587.6L334.2,588.4L333.8,592.6L334.8,593.6L335.2,596.2L336.8,596.8L337.4,598.2L336.4,600.8L337.2,601.6L338.2,604.0L336.8,606.0L337.6,608.8L334.6,608.8L333.4,606.8L330.0,608.4L330.4,610.4L330.0,614.2L330.4,616.6L329.8,618.2L329.8,620.0L328.6,622.4L328.8,624.2L328.8,626.0L324.4,628.4L324.4,630.6L323.4,631.4L324.6,632.6L324.4,635.8L323.2,634.0L322.0,632.6L321.2,630.2L322.6,628.6L320.2,627.6L317.6,623.8L315.6,623.8L314.8,622.4L313.6,623.0L312.4,623.0L311.2,623.6L309.0,621.8L308.6,617.8L311.2,616.6L312.6,614.8L310.8,614.0L311.0,612.2L307.8,609.2L305.6,606.6L303.8,606.2L302.6,604.0L299.4,603.8L298.4,602.6L298.4,601.8L297.2,601.2L295.6,598.2L295.8,596.4L299.6,595.8L300.8,591.6L299.0,589.0L302.0,586.4L301.8,584.4L299.8,582.4L298.6,583.8L299.6,586.4L298.2,586.4L296.8,587.4L294.6,587.2L294.8,585.6L293.4,584.2L293.4,582.6L294.2,580.8L295.4,579.0L294.0,577.2L293.4,576.4L290.4,575.4L289.6,574.4L287.2,574.2L286.2,573.0L286.4,571.0L284.4,570.0L284.4,568.2L280.6,566.6L278.4,565.2L279.6,560.2L279.4,558.8Z" />
		<path id="L1611646756467" name="阿坝藏族羌族自治州" class="qing-map-1616134807731" d="M247.8,152.2L246.6,153.6L244.8,154.4L245.8,157.0L243.4,160.0L241.4,160.6L240.0,161.6L238.8,167.2L241.4,169.6L241.4,171.6L242.6,173.0L244.2,175.4L246.6,175.0L249.0,178.4L251.8,179.0L251.8,180.2L249.4,180.8L252.2,184.6L254.0,185.4L253.8,187.2L257.0,189.4L255.6,192.2L258.8,193.8L261.2,195.6L266.2,193.8L267.4,194.4L269.2,194.4L270.4,196.8L269.2,198.8L269.8,200.4L269.6,203.2L267.2,203.4L265.6,206.8L260.6,209.8L261.0,213.0L265.4,212.0L267.4,214.6L267.8,217.6L269.8,218.4L272.4,220.8L274.0,221.2L273.4,223.6L274.2,225.2L273.2,226.8L274.4,229.0L274.2,230.8L275.6,232.0L277.0,233.4L278.8,231.4L283.2,230.4L283.6,228.6L286.0,230.8L286.6,235.4L285.6,238.4L287.0,240.4L289.6,241.8L290.2,240.6L291.8,241.0L295.6,238.6L296.4,236.2L298.8,236.2L299.6,238.4L297.4,242.0L299.2,247.0L299.2,244.4L301.0,241.4L302.4,241.2L305.0,240.0L307.2,243.4L308.6,240.6L312.0,240.2L314.0,241.8L314.6,244.2L316.4,245.2L319.4,246.6L320.2,248.0L323.4,247.4L325.6,249.2L325.8,253.4L326.8,255.0L327.4,257.0L329.2,258.0L330.4,256.6L332.8,255.6L333.6,257.4L335.6,258.0L337.4,263.8L341.0,262.0L342.88,259.75L345.6,258.6L345.6,262.4L345.0,265.4L345.4,269.8L347.2,272.4L346.4,274.2L347.8,276.0L346.0,276.8L342.6,276.6L338.8,278.6L338.2,285.2L336.8,287.0L338.8,289.2L337.4,291.4L338.6,292.6L337.8,294.2L341.0,294.4L342.0,296.6L344.6,299.0L346.8,299.6L348.0,297.2L351.8,297.4L353.4,293.8L355.2,293.8L356.8,291.8L360.6,291.4L364.0,293.6L365.2,292.2L365.6,286.8L366.75,285.25L369.0,285.0L369.5,283.88L372.13,282.5L372.38,280.5L376.13,281.0L379.5,280.0L379.75,276.63L381.88,275.13L383.38,276.13L386.38,274.25L388.63,274.5L390.88,274.38L393.13,276.88L391.13,284.13L392.25,286.5L394.25,287.63L399.5,285.88L404.88,283.88L407.63,284.88L411.5,281.25L414.63,282.13L416.88,281.5L419.75,283.63L422.0,282.88L424.5,280.25L426.5,279.63L429.13,277.38L429.75,274.63L433.13,271.75L433.63,267.5L432.38,266.38L433.88,263.25L434.13,261.5L436.5,257.63L436.63,256.5L438.0,254.88L437.88,251.13L436.75,249.13L437.5,247.63L436.88,245.38L436.88,243.5L439.63,242.75L441.13,243.13L444.5,241.88L445.5,239.75L448.0,239.38L449.25,237.13L452.0,235.75L451.63,233.5L454.63,230.38L455.5,228.88L458.5,229.88L459.25,228.13L458.63,226.38L459.88,223.25L460.5,220.5L464.0,217.75L466.5,217.38L467.88,216.25L471.0,216.88L473.5,214.88L475.75,213.75L476.38,210.0L474.88,209.13L473.5,206.13L470.25,205.25L469.13,205.75L468.0,204.75L466.5,204.13L463.13,203.88L462.0,202.25L462.0,200.0L460.0,197.63L457.63,198.38L456.88,199.0L454.88,199.0L449.5,196.75L449.0,193.13L451.75,189.75L453.25,188.25L452.75,184.88L453.75,182.75L455.63,183.25L455.38,180.75L458.5,180.75L460.38,182.13L463.5,181.88L464.88,183.63L467.5,183.0L470.25,183.5L474.88,181.0L475.0,179.88L479.13,176.5L481.25,176.13L481.13,174.0L478.88,171.63L478.88,170.25L476.75,169.13L475.38,173.0L475.13,174.0L473.13,175.25L469.75,174.63L467.25,174.25L463.63,169.63L459.63,168.63L457.88,164.88L459.25,159.63L458.25,152.88L454.88,148.13L455.63,145.38L458.13,143.75L460.75,144.0L464.88,143.0L465.63,143.38L468.0,142.88L470.5,149.13L473.5,151.88L473.63,155.0L472.13,156.25L473.88,156.88L476.0,152.38L475.75,148.88L476.25,146.5L476.88,142.13L473.75,136.88L473.75,135.63L474.75,134.75L473.0,131.75L471.88,131.0L471.88,128.38L470.63,126.63L467.5,128.25L465.0,130.0L462.75,128.13L464.63,126.75L464.63,125.38L462.5,124.63L462.38,122.63L463.25,121.75L462.5,119.63L463.75,117.25L464.38,113.13L466.38,112.63L470.63,115.63L472.38,115.5L477.75,122.13L479.5,123.13L479.5,124.25L481.63,125.13L482.88,124.25L483.63,120.38L484.5,119.38L487.88,120.38L489.25,120.0L489.88,118.13L489.63,116.25L492.25,114.75L492.75,113.75L490.63,112.88L489.5,113.38L486.88,112.25L487.88,111.13L488.38,108.38L489.63,107.63L488.0,103.0L487.63,101.75L485.88,98.5L486.5,97.13L485.0,92.13L486.13,91.38L487.75,92.25L490.38,92.75L490.63,91.75L491.88,90.38L489.5,88.75L486.38,90.0L485.38,89.25L484.13,89.63L483.5,87.38L482.63,86.25L482.38,84.88L481.13,83.88L479.25,84.0L479.25,81.88L479.25,80.75L476.88,79.5L476.5,76.13L475.25,74.75L475.63,71.75L476.75,70.63L476.25,68.38L473.63,66.38L472.38,64.38L467.75,62.13L463.38,63.25L460.25,62.75L456.88,62.63L455.88,62.13L454.75,63.13L453.5,62.5L452.13,63.75L450.0,64.63L448.88,63.75L445.0,61.88L443.25,62.38L443.38,60.5L442.0,59.75L441.0,60.25L440.25,59.13L436.88,61.13L435.75,62.88L433.75,62.88L435.25,59.88L435.5,58.13L434.5,57.5L434.13,52.88L432.0,52.88L431.0,52.13L429.63,54.63L428.75,54.63L428.75,56.38L428.0,57.75L425.13,57.25L421.38,57.88L417.63,55.25L418.38,54.25L417.88,52.63L416.13,52.38L414.88,53.88L412.0,53.5L410.13,52.75L409.88,51.5L410.88,49.25L410.63,48.13L411.75,45.63L410.75,43.13L408.38,43.25L407.75,40.63L410.13,37.38L409.63,34.75L407.75,34.38L408.13,32.75L409.63,32.88L411.38,31.75L409.5,29.63L408.0,28.88L407.88,24.5L403.25,22.25L402.13,22.88L399.88,23.0L398.38,22.25L398.63,20.75L398.13,18.13L397.0,16.75L397.13,14.13L393.88,13.0L391.88,13.0L390.38,16.0L386.38,15.88L385.63,17.13L385.63,19.0L382.63,19.13L379.25,22.25L377.75,22.5L377.25,23.63L374.63,25.0L374.13,26.25L377.75,28.63L377.88,30.38L376.5,31.0L374.75,29.75L372.0,29.75L371.38,31.0L368.25,31.0L367.13,31.88L364.75,32.25L363.88,30.88L362.75,31.5L362.5,33.5L360.88,36.63L360.38,39.75L357.25,39.25L353.88,39.38L352.25,38.13L350.38,40.38L348.25,40.5L347.75,39.5L345.5,39.0L343.88,39.75L344.0,41.25L346.88,43.63L349.63,47.38L351.13,48.5L352.0,50.88L351.13,52.13L350.38,54.0L351.38,54.5L354.38,54.75L355.88,57.25L354.0,57.88L353.25,60.0L354.63,60.13L355.5,59.25L356.75,59.13L355.5,62.75L356.63,67.63L358.38,69.13L360.0,69.38L361.75,70.75L363.63,71.13L364.38,72.63L365.88,74.13L364.0,74.25L364.5,76.5L364.38,77.88L365.13,79.25L365.0,80.63L363.88,80.63L361.88,82.5L361.0,83.75L357.0,84.25L355.25,84.88L354.13,83.5L350.38,85.63L349.25,88.25L347.13,89.25L348.13,91.0L347.88,92.13L348.63,94.5L348.88,96.63L348.25,98.13L345.88,97.5L344.63,96.5L344.13,94.63L342.25,93.63L341.5,95.38L341.38,96.88L340.5,98.25L340.75,99.38L338.63,100.75L335.25,100.75L334.5,100.0L333.0,100.63L330.75,101.13L329.5,103.63L327.25,104.75L326.13,107.13L323.5,106.5L323.13,105.63L324.38,104.13L324.5,100.63L324.38,99.75L320.13,96.75L319.75,94.75L322.13,93.88L323.38,94.75L324.13,93.13L326.63,90.38L327.13,86.63L329.38,84.0L330.13,80.13L329.0,78.5L328.38,77.0L328.25,75.13L329.0,73.38L327.25,71.75L327.0,70.75L324.5,69.13L324.0,72.0L322.13,72.88L321.13,72.75L320.0,73.0L320.38,74.0L320.25,78.5L319.88,79.88L319.88,81.0L315.38,81.88L312.88,85.88L312.13,90.63L314.13,92.5L315.13,92.25L317.38,93.63L317.88,94.75L317.0,96.13L317.13,98.5L315.5,99.63L314.0,100.0L314.25,101.63L312.25,103.13L313.0,104.75L311.13,107.75L306.5,103.0L303.13,100.88L302.0,98.5L299.0,98.25L297.75,97.63L295.5,98.5L295.38,103.0L292.13,99.25L290.75,97.63L289.13,95.38L287.38,94.75L286.13,95.13L284.0,94.5L281.38,94.75L279.63,97.25L278.0,98.38L276.88,100.25L278.5,102.75L279.13,104.88L280.5,106.75L280.25,108.5L278.75,109.38L279.13,111.25L281.0,112.25L281.75,112.13L280.75,114.13L282.13,116.5L278.38,117.13L278.38,120.0L277.75,120.63L278.75,123.13L279.88,123.5L283.88,126.5L284.25,128.25L285.25,129.25L284.25,133.5L284.88,136.63L283.0,139.63L281.63,140.38L280.5,141.5L278.5,142.0L277.88,143.38L276.88,142.88L276.88,141.88L274.25,140.5L269.75,144.38L267.63,144.75L265.0,146.63L262.75,144.25L261.25,144.25L259.0,143.13L258.25,143.5L256.5,142.5L255.5,143.5L250.88,141.0L249.88,140.88L251.38,143.75L251.75,145.13L250.63,146.13L248.5,144.63L247.38,146.25Z" />
		<path id="L1611648208660" name="雅安市" class="qing-map-1616134807731" d="M399.5,285.88L394.25,287.63L392.25,286.5L391.13,284.13L393.13,276.88L390.88,274.38L388.63,274.5L386.38,274.25L383.38,276.13L381.88,275.13L379.75,276.63L379.5,280.0L376.13,281.0L372.38,280.5L372.13,282.5L369.5,283.88L369.0,285.0L366.75,285.25L365.6,286.8L367.2,292.2L365.4,294.6L365.6,296.4L364.0,297.8L363.0,302.2L361.8,307.8L362.0,310.8L363.4,313.2L362.0,315.6L363.0,317.6L362.0,321.4L360.4,327.8L359.0,327.6L358.4,328.8L357.0,329.4L354.6,333.2L353.4,335.4L354.4,336.8L352.4,339.2L352.8,341.6L352.8,344.2L354.4,345.6L354.4,349.2L353.6,351.0L352.4,354.2L353.8,357.0L355.8,358.2L357.0,360.0L358.4,362.0L355.8,364.2L357.0,366.0L354.4,368.0L353.8,370.6L353.8,372.8L353.0,374.2L355.2,377.6L355.2,380.2L347.6,385.4L346.4,384.6L346.4,381.4L345.2,379.6L343.6,381.2L341.2,382.4L336.6,382.8L333.2,382.8L330.8,381.8L331.4,383.8L331.4,387.0L333.8,388.2L332.8,390.6L331.8,393.6L331.8,395.4L334.4,397.0L336.6,397.8L338.2,397.6L340.4,398.8L342.8,402.6L337.6,406.2L340.0,406.6L342.8,406.4L345.2,410.0L344.8,411.8L346.0,413.8L344.8,416.6L346.6,418.0L348.4,421.4L350.0,422.8L350.8,424.0L351.0,427.2L353.0,427.0L356.2,428.6L357.2,430.4L362.6,430.8L365.4,428.8L364.8,427.6L366.6,424.4L365.4,423.0L365.4,421.2L367.2,419.0L369.0,416.4L368.2,414.8L369.0,413.4L368.8,411.0L370.8,410.6L372.0,407.4L373.8,407.4L373.0,405.2L377.0,403.8L377.4,405.8L379.8,407.6L383.4,408.2L385.6,406.8L384.4,405.2L385.8,402.6L385.0,401.0L389.0,401.8L389.6,404.2L391.8,404.6L393.8,402.8L394.4,399.6L395.8,397.2L399.6,398.0L399.0,396.25L398.75,394.25L399.63,392.13L398.13,389.88L394.0,389.0L394.0,387.75L393.0,384.88L390.13,382.5L395.0,377.63L395.5,366.63L397.5,365.88L399.38,366.88L400.88,365.88L403.25,368.88L406.25,368.0L409.13,369.88L409.25,367.5L410.5,365.0L409.13,363.0L410.75,361.88L409.25,359.0L408.5,355.75L405.88,353.75L406.25,352.25L409.88,350.75L411.25,349.0L412.63,348.88L416.88,341.75L419.25,339.0L421.5,339.63L422.63,338.25L424.25,338.38L425.5,337.75L423.63,332.75L424.13,328.5L422.5,327.0L420.75,327.5L420.63,325.88L418.38,325.25L415.75,327.0L415.13,329.0L413.75,328.25L411.88,326.38L409.38,329.38L406.75,328.63L404.5,328.13L404.5,325.75L404.0,322.13L408.13,317.5L407.63,316.5L407.38,312.25L409.13,309.63L411.13,308.75L412.13,306.13L410.5,305.0L410.63,303.13L408.75,300.75L408.63,295.5L407.63,294.38L406.63,294.0L404.75,291.0L402.13,291.88L401.75,289.75L400.13,288.38Z" />
		<path id="L1611649775375" name="绵阳市" class="qing-map-1616134807731" d="M482.88,124.25L481.63,125.13L479.5,124.25L479.5,123.13L477.75,122.13L472.38,115.5L470.63,115.63L466.38,112.63L464.38,113.13L463.75,117.25L462.5,119.63L463.25,121.75L462.38,122.63L462.5,124.63L464.63,125.38L464.63,126.75L462.75,128.13L465.0,130.0L467.5,128.25L470.63,126.63L471.88,128.38L471.88,131.0L473.0,131.75L474.75,134.75L473.75,135.63L473.75,136.88L476.88,142.13L476.25,146.5L475.75,148.88L476.0,152.38L473.88,156.88L472.13,156.25L473.63,155.0L473.5,151.88L470.5,149.13L468.0,142.88L465.63,143.38L464.88,143.0L460.75,144.0L458.13,143.75L455.63,145.38L454.88,148.13L458.25,152.88L459.25,159.63L457.88,164.88L459.63,168.63L463.63,169.63L467.25,174.25L469.75,174.63L473.13,175.25L475.13,174.0L475.38,173.0L476.75,169.13L478.88,170.25L478.88,171.63L481.13,174.0L481.25,176.13L479.13,176.5L475.0,179.88L474.88,181.0L470.25,183.5L467.5,183.0L464.88,183.63L463.5,181.88L460.38,182.13L458.5,180.75L455.38,180.75L455.63,183.25L453.75,182.75L452.75,184.88L453.25,188.25L451.75,189.75L449.0,193.13L449.5,196.75L454.88,199.0L456.88,199.0L457.63,198.38L460.0,197.63L462.0,200.0L462.0,202.25L463.13,203.88L466.5,204.13L468.0,204.75L469.13,205.75L470.25,205.25L473.5,206.13L474.88,209.13L476.38,210.0L475.75,213.75L473.5,214.88L471.0,216.88L472.38,217.88L471.5,219.5L471.75,221.75L474.13,224.75L474.13,226.5L475.13,226.88L474.88,229.63L477.88,230.0L480.38,233.75L482.25,234.5L483.38,235.88L485.0,237.0L486.75,239.75L488.5,240.25L489.38,240.88L490.13,240.25L492.5,241.0L494.38,240.38L495.88,240.25L496.13,238.75L497.25,237.88L499.0,235.88L501.63,238.38L503.13,238.63L503.25,242.13L507.13,244.0L508.75,248.38L511.25,248.75L512.5,248.25L513.63,249.63L513.25,251.75L511.5,252.5L511.63,256.63L513.13,257.0L514.13,258.75L516.63,259.88L515.38,262.5L518.38,265.25L518.5,267.25L519.38,268.5L519.0,270.13L519.88,271.38L520.63,273.63L522.0,274.25L524.25,273.5L526.0,274.25L526.63,276.88L527.75,277.0L527.38,279.5L529.38,279.25L529.63,283.75L532.88,286.38L535.25,287.13L540.75,291.0L544.75,290.0L547.63,288.5L547.5,284.38L545.0,281.38L545.0,278.88L543.5,278.38L542.5,276.5L542.25,274.25L541.5,273.13L543.0,272.0L542.5,269.25L541.25,266.13L542.25,265.25L542.63,262.25L546.88,261.5L548.88,260.88L551.0,260.5L553.0,257.38L554.38,257.75L555.13,261.0L556.88,264.0L560.5,264.38L562.38,266.88L564.63,267.25L568.0,271.0L570.25,271.0L571.13,268.88L573.25,268.88L576.38,266.0L576.88,263.25L577.0,258.13L576.13,256.5L573.75,256.25L574.0,253.13L573.38,251.13L574.25,250.25L571.75,249.88L571.13,247.5L568.5,246.25L572.13,240.38L570.88,238.63L568.5,238.88L567.5,240.13L565.5,238.88L563.5,239.75L561.0,236.88L562.38,234.75L561.25,232.75L558.88,232.5L559.88,231.13L559.63,229.0L557.5,228.0L555.63,226.25L555.5,222.25L553.88,222.0L551.63,221.38L552.5,218.13L550.75,216.13L550.75,214.63L548.63,215.88L546.88,215.88L547.0,214.63L550.25,212.5L550.63,211.0L548.75,208.88L546.25,208.88L546.13,207.0L543.63,205.38L544.38,201.63L542.25,200.13L543.5,197.13L542.25,195.5L542.75,192.63L545.13,191.63L546.5,192.75L546.88,190.63L545.75,189.25L546.75,187.75L546.63,185.88L548.63,184.25L547.0,183.25L548.25,182.5L547.5,180.5L546.25,179.88L547.25,178.63L545.63,176.75L547.0,175.38L546.38,175.13L547.63,173.0L545.5,171.0L546.25,169.5L546.25,168.5L542.38,169.75L536.25,169.13L535.13,171.13L533.0,170.88L532.25,172.0L530.0,173.63L529.75,172.13L527.88,169.25L528.5,167.25L524.38,167.88L522.38,165.5L520.0,165.63L518.38,164.5L515.5,162.5L515.13,161.0L513.38,157.38L514.63,155.13L513.63,153.75L513.25,152.0L511.13,150.38L507.5,149.63L506.5,147.38L505.38,146.63L505.25,144.5L506.13,141.5L503.75,139.38L502.88,137.38L501.0,136.25L499.63,137.0L498.13,134.88L496.88,134.5L495.0,135.13L492.63,133.25L489.5,131.13L488.63,129.63L484.38,128.63Z" />
		<path id="L1611650938053" name="德阳市" class="qing-map-1616134807731" d="M452.0,235.75L451.63,233.5L454.63,230.38L455.5,228.88L458.5,229.88L459.25,228.13L458.63,226.38L459.88,223.25L460.5,220.5L464.0,217.75L466.5,217.38L467.88,216.25L471.0,216.88L472.38,217.88L471.5,219.5L471.75,221.75L474.13,224.75L474.13,226.5L475.13,226.88L474.88,229.63L477.88,230.0L480.38,233.75L482.25,234.5L483.38,235.88L485.0,237.0L486.75,239.75L488.5,240.25L489.38,240.88L490.13,240.25L492.5,241.0L494.38,240.38L495.88,240.25L496.13,238.75L497.25,237.88L499.0,235.88L501.63,238.38L503.13,238.63L503.25,242.13L507.13,244.0L508.75,248.38L511.25,248.75L512.5,248.25L513.63,249.63L513.25,251.75L511.5,252.5L511.63,256.63L513.13,257.0L514.13,258.75L516.63,259.88L515.38,262.5L518.38,265.25L518.5,267.25L519.38,268.5L519.0,270.13L519.88,271.38L520.63,273.63L522.0,274.25L524.25,273.5L526.0,274.25L526.63,276.88L527.75,277.0L527.38,279.5L529.38,279.25L529.63,283.75L532.88,286.38L535.25,287.13L540.75,291.0L540.38,294.0L539.63,294.63L539.63,297.0L536.25,300.75L534.25,304.5L532.13,303.5L531.25,304.75L528.88,305.13L527.75,302.38L528.0,300.88L525.88,299.0L525.25,297.5L523.5,299.0L521.75,299.0L521.0,301.13L518.5,299.63L520.0,297.63L520.0,296.25L518.75,296.25L516.75,292.88L516.5,290.63L513.88,289.75L512.75,286.13L511.25,286.25L510.63,283.13L506.0,281.25L504.5,281.0L503.75,279.63L499.38,278.5L499.5,275.5L498.25,274.5L496.63,274.0L493.88,273.75L490.5,275.0L489.38,274.25L487.38,276.75L485.63,277.63L483.0,276.75L480.63,277.5L477.75,276.25L475.25,276.38L474.63,274.25L475.88,271.88L475.88,270.0L473.13,268.38L472.63,267.0L470.88,267.25L468.88,264.5L468.63,263.25L466.5,261.63L466.63,259.0L465.75,257.25L463.75,254.25L461.75,254.0L460.38,251.75L460.5,249.5L458.13,246.38L457.75,244.75L460.25,242.63L458.5,237.88L456.13,237.25L453.63,238.13Z" />
		<path id="L1611651158282" name="成都市" class="qing-map-1616134807731" d="M425.5,337.75L423.63,332.75L424.13,328.5L422.5,327.0L420.75,327.5L420.63,325.88L418.38,325.25L415.75,327.0L415.13,329.0L413.75,328.25L411.88,326.38L409.38,329.38L406.75,328.63L404.5,328.13L404.5,325.75L404.0,322.13L408.13,317.5L407.63,316.5L407.38,312.25L409.13,309.63L411.13,308.75L412.13,306.13L410.5,305.0L410.63,303.13L408.75,300.75L408.63,295.5L407.63,294.38L406.63,294.0L404.75,291.0L402.13,291.88L401.75,289.75L400.13,288.38L399.5,285.88L404.88,283.88L407.63,284.88L411.5,281.25L414.63,282.13L416.88,281.5L419.75,283.63L422.0,282.88L424.5,280.25L426.5,279.63L429.13,277.38L429.75,274.63L433.13,271.75L433.63,267.5L432.38,266.38L433.88,263.25L434.13,261.5L436.5,257.63L436.63,256.5L438.0,254.88L437.88,251.13L436.75,249.13L437.5,247.63L436.88,245.38L436.88,243.5L439.63,242.75L441.13,243.13L444.5,241.88L445.5,239.75L448.0,239.38L449.25,237.13L452.0,235.75L453.63,238.13L456.13,237.25L458.5,237.88L460.25,242.63L457.75,244.75L458.13,246.38L460.5,249.5L460.38,251.75L461.75,254.0L463.75,254.25L465.75,257.25L466.63,259.0L466.5,261.63L468.63,263.25L468.88,264.5L470.88,267.25L472.63,267.0L473.13,268.38L475.88,270.0L475.88,271.88L474.63,274.25L475.25,276.38L477.75,276.25L480.63,277.5L483.0,276.75L485.63,277.63L487.38,276.75L489.38,274.25L490.5,275.0L493.88,273.75L496.63,274.0L498.25,274.5L499.5,275.5L499.38,278.5L503.75,279.63L504.5,281.0L506.0,281.25L510.63,283.13L511.25,286.25L512.75,286.13L513.88,289.75L516.5,290.63L516.75,292.88L518.75,296.25L520.0,296.25L520.0,297.63L518.5,299.63L521.0,301.13L523.0,303.63L523.13,305.13L521.38,306.5L521.88,314.63L523.5,316.13L522.38,317.75L520.75,317.63L520.13,319.13L520.13,321.38L516.5,323.63L515.5,322.38L513.88,322.13L513.13,323.0L511.88,321.38L510.75,322.25L510.0,324.13L506.88,323.38L506.63,325.0L507.38,326.75L505.38,327.25L501.0,330.88L496.88,330.88L495.5,334.13L494.38,334.88L494.5,337.75L492.38,338.13L491.5,336.0L490.25,334.75L490.0,332.88L488.38,331.75L487.88,330.38L484.5,329.5L482.38,326.63L479.5,325.75L480.88,324.75L480.0,321.75L477.0,320.0L474.38,325.0L474.25,326.5L472.88,327.88L468.13,324.63L465.13,324.88L463.25,322.88L463.0,321.38L459.75,318.38L458.75,320.0L457.38,319.88L456.63,318.5L454.75,319.38L450.88,319.0L447.25,321.63L447.63,322.75L445.75,324.5L444.5,324.38L444.63,325.88L444.0,326.75L442.38,327.25L442.0,330.0L440.75,328.88L435.38,331.5L435.13,333.63L432.63,336.0L430.5,336.38L430.38,338.13L428.5,337.5Z" />
		<path id="L1611651391155" name="眉山市" class="qing-map-1616134807731" d="M398.13,389.88L394.0,389.0L394.0,387.75L393.0,384.88L390.13,382.5L395.0,377.63L395.5,366.63L397.5,365.88L399.38,366.88L400.88,365.88L403.25,368.88L406.25,368.0L409.13,369.88L409.25,367.5L410.5,365.0L409.13,363.0L410.75,361.88L409.25,359.0L408.5,355.75L405.88,353.75L406.25,352.25L409.88,350.75L411.25,349.0L412.63,348.88L416.88,341.75L419.25,339.0L421.5,339.63L422.63,338.25L424.25,338.38L425.5,337.75L428.5,337.5L430.38,338.13L430.5,336.38L432.63,336.0L435.13,333.63L435.38,331.5L440.75,328.88L442.0,330.0L442.38,327.25L444.0,326.75L444.63,325.88L444.5,324.38L445.75,324.5L447.63,322.75L447.25,321.63L450.88,319.0L454.75,319.38L456.63,318.5L457.38,319.88L458.75,320.0L459.75,318.38L463.0,321.38L463.25,322.88L465.13,324.88L468.13,324.63L472.88,327.88L474.25,326.5L474.38,325.0L477.0,320.0L480.0,321.75L480.88,324.75L479.5,325.75L482.38,326.63L484.5,329.5L487.88,330.38L488.38,331.75L490.0,332.88L490.25,334.75L491.5,336.0L492.38,338.13L494.5,337.75L496.0,339.25L494.38,341.88L495.38,342.63L494.25,343.25L494.5,345.38L496.63,345.75L495.13,348.63L496.38,350.38L496.5,352.63L497.63,354.75L496.63,355.63L496.0,358.88L497.38,360.25L495.63,361.13L494.13,364.5L492.0,364.88L490.75,364.13L486.63,365.75L487.75,366.63L487.0,367.75L485.38,367.13L482.75,372.13L482.0,372.38L479.5,370.0L478.25,369.75L477.0,366.63L474.88,366.5L472.63,365.88L471.75,364.0L469.88,362.75L470.5,359.13L468.13,357.13L468.0,355.13L465.88,354.25L463.88,355.75L463.0,355.63L460.38,358.25L460.25,359.63L458.75,361.0L457.88,363.88L455.75,363.75L454.5,365.13L453.13,365.13L452.13,366.63L449.75,367.0L448.0,365.0L446.63,365.88L444.5,362.38L448.38,360.5L447.25,357.0L446.25,354.25L443.25,350.38L439.0,351.5L437.38,352.63L437.88,354.13L435.88,355.0L434.25,353.88L434.5,356.38L433.25,356.75L431.75,358.75L428.0,358.25L427.5,362.0L425.5,359.63L424.5,360.13L422.75,359.88L420.38,361.75L420.63,364.25L419.38,365.25L419.5,367.38L419.25,368.13L421.25,369.75L422.75,368.5L424.25,369.5L422.0,371.0L422.0,372.5L419.0,374.88L417.13,374.88L417.5,377.13L416.5,378.0L417.75,379.75L416.75,381.38L418.5,382.13L417.25,384.0L412.88,383.38L411.75,387.5L408.88,387.88L408.13,387.0L405.63,388.38L403.13,386.13L401.5,386.25Z" />
		<path id="L1611651641882" name="乐山市" class="qing-map-1616134807731" d="M439.6,449.2L437.0,448.4L434.0,448.2L433.8,450.2L432.2,452.8L429.4,453.2L427.2,455.8L428.8,457.8L427.8,460.0L424.4,462.6L423.0,461.0L421.8,460.6L418.6,454.4L415.2,452.4L415.6,450.0L418.0,448.0L418.0,446.6L419.8,442.6L419.8,441.6L421.8,440.0L421.4,439.0L419.2,437.2L417.4,433.6L413.4,433.6L410.6,432.4L407.0,434.4L406.8,436.8L404.8,439.0L404.8,440.8L404.2,443.6L402.8,444.6L399.6,443.8L398.0,443.8L396.2,440.0L396.0,437.0L395.0,433.4L396.6,429.8L395.4,427.2L396.8,424.8L393.8,417.0L396.2,416.8L398.4,414.4L394.8,409.8L396.0,408.0L396.0,405.0L397.8,404.8L398.6,400.6L399.4,401.4L401.8,401.2L402.0,398.8L399.6,398.0L399.0,396.25L398.75,394.25L399.63,392.13L398.13,389.88L401.5,386.25L403.13,386.13L405.63,388.38L408.13,387.0L408.88,387.88L411.75,387.5L412.88,383.38L417.25,384.0L418.5,382.13L416.75,381.38L417.75,379.75L416.5,378.0L417.5,377.13L417.13,374.88L419.0,374.88L422.0,372.5L422.0,371.0L424.25,369.5L422.75,368.5L421.25,369.75L419.25,368.13L419.5,367.38L419.38,365.25L420.63,364.25L420.38,361.75L422.75,359.88L424.5,360.13L425.5,359.63L427.5,362.0L428.0,358.25L431.75,358.75L433.25,356.75L434.5,356.38L434.25,353.88L435.88,355.0L437.88,354.13L437.38,352.63L439.0,351.5L443.25,350.38L446.25,354.25L447.25,357.0L448.38,360.5L444.5,362.38L446.63,365.88L448.0,365.0L449.75,367.0L452.13,366.63L453.13,365.13L454.5,365.13L455.75,363.75L457.88,363.88L458.75,361.0L460.25,359.63L460.38,358.25L463.0,355.63L463.88,355.75L465.88,354.25L468.0,355.13L468.13,357.13L470.5,359.13L469.88,362.75L471.75,364.0L472.63,365.88L474.88,366.5L477.0,366.63L478.25,369.75L479.5,370.0L482.0,372.38L480.63,373.88L478.88,373.88L477.63,373.0L476.13,375.38L474.38,375.13L475.63,378.0L474.5,380.88L475.5,384.0L473.38,382.63L471.0,384.88L469.13,384.13L468.25,385.63L469.0,387.75L470.5,386.88L471.13,390.75L473.5,390.0L475.75,393.63L472.25,394.5L470.75,393.5L470.0,395.5L473.88,396.88L474.5,398.25L472.63,399.75L474.38,401.0L474.5,405.25L476.0,405.5L477.13,407.13L476.38,410.13L475.5,411.38L474.63,414.25L474.38,417.25L473.13,418.88L472.5,423.5L469.25,422.0L470.0,425.75L469.0,427.25L467.0,428.0L467.0,430.75L464.75,430.38L464.0,432.63L464.88,435.0L462.88,435.5L461.13,437.13L454.5,431.38L452.25,431.75L450.88,432.75L449.63,432.88L449.63,435.38L448.38,437.13L446.25,437.75L447.0,441.13L446.63,442.0L447.25,443.5L444.75,445.5L444.38,446.75L441.75,447.5Z" />
		<path id="L1611651987561" name="遂宁市" class="qing-map-1616134807731" d="M570.25,271.0L568.0,271.0L564.63,267.25L562.38,266.88L560.5,264.38L556.88,264.0L555.13,261.0L554.38,257.75L553.0,257.38L551.0,260.5L548.88,260.88L546.88,261.5L542.63,262.25L542.25,265.25L541.25,266.13L542.5,269.25L543.0,272.0L541.5,273.13L542.25,274.25L542.5,276.5L543.5,278.38L545.0,278.88L545.0,281.38L547.5,284.38L547.63,288.5L544.75,290.0L540.75,291.0L540.38,294.0L539.63,294.63L539.63,297.0L536.25,300.75L534.25,304.5L534.38,306.88L535.25,307.5L534.88,309.25L536.25,311.25L535.13,313.5L536.88,316.88L540.38,320.88L543.63,322.13L544.75,323.63L546.88,323.88L547.38,323.38L548.88,323.38L551.5,321.75L553.13,322.0L554.0,324.0L556.25,322.88L557.63,325.38L559.88,325.5L561.63,327.25L561.25,328.63L563.63,329.38L564.75,328.25L566.63,331.25L569.13,331.63L570.0,330.75L571.75,330.75L571.75,328.88L569.75,325.75L570.38,324.25L572.38,324.5L574.25,326.0L576.88,325.88L575.75,322.38L576.13,321.13L577.88,320.88L578.25,319.5L579.13,319.13L578.88,318.0L580.0,316.5L579.5,315.13L580.75,314.13L583.38,312.0L585.0,313.63L586.63,314.38L588.88,314.5L591.5,317.13L592.88,316.5L594.75,317.13L595.13,315.38L593.88,313.25L592.0,312.38L591.88,311.13L593.25,310.63L592.75,308.88L591.88,307.75L589.0,310.38L587.38,310.13L587.0,307.5L585.75,308.38L585.25,307.38L587.0,303.25L585.63,302.63L582.38,297.75L582.88,294.88L581.63,292.25L581.5,289.13L580.38,287.38L581.88,284.13L578.88,281.5L577.5,278.5L578.25,277.38L577.38,276.25L575.75,276.25L575.25,275.13L572.88,275.13L572.88,273.75Z" />
		<path id="L1611652157184" name="资阳市" class="qing-map-1616134807731" d="M576.0,357.13L577.88,355.75L577.88,353.63L576.63,352.88L575.63,350.88L577.5,348.13L577.13,347.13L577.75,344.88L579.13,343.63L578.0,342.75L574.38,341.63L573.88,339.75L571.5,339.38L571.38,337.38L568.88,336.88L567.63,334.88L568.38,333.75L567.88,332.88L565.13,333.38L565.38,331.5L566.63,331.25L564.75,328.25L563.63,329.38L561.25,328.63L561.63,327.25L559.88,325.5L557.63,325.38L556.25,322.88L554.0,324.0L553.13,322.0L551.5,321.75L548.88,323.38L547.38,323.38L546.88,323.88L544.75,323.63L543.63,322.13L540.38,320.88L536.88,316.88L535.13,313.5L536.25,311.25L534.88,309.25L535.25,307.5L534.38,306.88L534.25,304.5L532.13,303.5L531.25,304.75L528.88,305.13L527.75,302.38L528.0,300.88L525.88,299.0L525.25,297.5L523.5,299.0L521.75,299.0L521.0,301.13L523.0,303.63L523.13,305.13L521.38,306.5L521.88,314.63L523.5,316.13L522.38,317.75L520.75,317.63L520.13,319.13L520.13,321.38L516.5,323.63L515.5,322.38L513.88,322.13L513.13,323.0L511.88,321.38L510.75,322.25L510.0,324.13L506.88,323.38L506.63,325.0L507.38,326.75L505.38,327.25L501.0,330.88L496.88,330.88L495.5,334.13L494.38,334.88L494.5,337.75L496.0,339.25L494.38,341.88L495.38,342.63L497.13,343.0L497.75,341.75L499.38,343.38L499.63,345.0L502.13,345.25L502.75,348.25L505.13,349.38L507.5,348.25L508.63,349.75L508.13,350.88L509.5,352.25L509.88,348.63L512.88,349.63L513.63,351.5L515.0,352.38L515.25,353.38L518.25,354.63L519.63,353.13L523.38,352.25L524.63,350.63L524.75,347.88L528.0,345.5L530.0,346.75L531.13,345.75L533.0,347.63L533.38,349.0L534.38,349.25L534.38,350.88L536.38,351.88L536.5,353.88L535.38,354.75L536.75,357.0L538.63,357.88L541.38,356.63L544.13,356.63L545.5,358.25L545.13,359.63L549.0,359.63L550.0,358.0L552.25,358.88L554.38,358.13L554.63,360.25L556.25,361.0L555.5,364.13L557.13,365.75L557.25,368.38L558.25,369.25L561.0,369.25L560.63,367.75L561.13,366.38L563.5,367.13L565.63,365.88L566.88,365.88L567.25,363.25L567.13,362.0L568.13,358.38L569.63,358.5L569.88,357.0L571.75,356.88L573.38,356.63L573.88,355.75Z" />
		<path id="L1611652627718" name="内江市" class="qing-map-1616134807731" d="M494.25,343.25L494.5,345.38L496.63,345.75L495.13,348.63L496.38,350.38L496.5,352.63L497.63,354.75L496.63,355.63L496.0,358.88L497.38,360.25L495.63,361.13L494.13,364.5L492.0,364.88L490.75,364.13L486.63,365.75L487.75,366.63L487.0,367.75L485.38,367.13L482.75,372.13L483.5,374.13L485.5,374.88L487.5,377.5L489.88,376.13L490.13,373.5L493.38,374.88L495.88,374.5L496.88,375.38L496.75,378.38L499.5,381.25L500.0,385.25L498.25,385.63L499.38,387.88L502.38,386.88L503.38,388.25L505.0,387.25L507.0,387.38L507.25,389.13L508.88,391.38L511.13,391.5L511.25,392.63L514.25,391.38L513.38,387.5L513.75,385.63L515.25,386.13L517.25,385.5L518.63,387.0L520.0,385.0L524.5,386.88L525.75,386.75L527.0,387.75L529.0,387.0L531.63,387.13L531.38,385.25L532.75,384.13L534.25,385.5L534.25,387.25L535.25,388.25L532.88,389.38L532.88,392.0L534.13,392.38L534.13,393.88L537.63,396.75L537.38,398.38L539.38,400.13L543.0,401.88L542.88,403.25L543.88,404.25L544.88,403.25L547.63,406.13L548.38,403.88L552.25,398.5L555.13,398.63L555.25,397.13L557.38,396.0L556.63,393.88L558.0,392.88L558.0,391.5L558.63,390.25L557.75,388.75L556.63,388.38L555.25,385.75L553.38,385.75L551.75,386.75L551.88,385.25L550.5,383.75L550.5,381.75L549.25,380.25L548.88,378.38L550.13,375.25L551.63,374.0L555.13,371.38L554.88,369.5L556.13,369.38L557.25,368.38L557.13,365.75L555.5,364.13L556.25,361.0L554.63,360.25L554.38,358.13L552.25,358.88L550.0,358.0L549.0,359.63L545.13,359.63L545.5,358.25L544.13,356.63L541.38,356.63L538.63,357.88L536.75,357.0L535.38,354.75L536.5,353.88L536.38,351.88L534.38,350.88L534.38,349.25L533.38,349.0L533.0,347.63L531.13,345.75L530.0,346.75L528.0,345.5L524.75,347.88L524.63,350.63L523.38,352.25L519.63,353.13L518.25,354.63L515.25,353.38L515.0,352.38L513.63,351.5L512.88,349.63L509.88,348.63L509.5,352.25L508.13,350.88L508.63,349.75L507.5,348.25L505.13,349.38L502.75,348.25L502.13,345.25L499.63,345.0L499.38,343.38L497.75,341.75L497.13,343.0L495.38,342.63L494.38,341.88Z" />
		<path id="L1611653444130" name="自贡市" class="qing-map-1616134807731" d="M476.0,405.5L474.5,405.25L474.38,401.0L472.63,399.75L474.5,398.25L473.88,396.88L470.0,395.5L470.75,393.5L472.25,394.5L475.75,393.63L473.5,390.0L471.13,390.75L470.5,386.88L469.0,387.75L468.25,385.63L469.13,384.13L471.0,384.88L473.38,382.63L475.5,384.0L474.5,380.88L475.63,378.0L474.38,375.13L476.13,375.38L477.63,373.0L478.88,373.88L480.63,373.88L482.0,372.38L483.5,374.13L485.5,374.88L487.5,377.5L489.88,376.13L490.13,373.5L493.38,374.88L495.88,374.5L496.88,375.38L496.75,378.38L499.5,381.25L500.0,385.25L498.25,385.63L499.38,387.88L502.38,386.88L503.38,388.25L505.0,387.25L507.0,387.38L507.25,389.13L508.88,391.38L511.13,391.5L511.25,392.63L514.25,391.38L513.38,387.5L513.75,385.63L515.25,386.13L517.25,385.5L518.63,387.0L520.0,385.0L524.5,386.88L525.75,386.75L527.0,387.75L529.0,387.0L531.63,387.13L531.38,385.25L532.75,384.13L534.25,385.5L534.25,387.25L535.25,388.25L532.88,389.38L532.88,392.0L534.13,392.38L534.13,393.88L537.63,396.75L537.38,398.38L539.38,400.13L543.0,401.88L542.88,403.25L543.88,404.25L544.88,403.25L547.63,406.13L547.63,408.0L545.88,409.63L546.25,411.13L542.25,415.63L542.75,418.13L544.88,417.88L547.38,419.0L547.5,421.5L545.75,422.5L546.5,424.0L545.13,424.75L544.0,423.25L543.38,424.5L541.5,425.13L540.25,424.0L535.13,424.5L530.75,421.75L530.0,420.38L527.63,418.5L526.38,418.13L526.25,415.5L522.88,416.63L522.25,418.13L520.88,418.63L520.5,419.63L518.63,419.5L517.5,420.63L516.13,419.25L513.25,420.38L511.88,419.75L511.0,416.25L512.5,414.38L509.5,408.75L510.13,407.63L510.0,405.0L507.5,404.75L505.75,404.63L503.75,405.63L503.38,407.0L500.13,409.13L499.13,408.0L497.88,408.25L494.88,404.13L494.88,403.25L493.25,402.88L493.75,402.0L492.13,401.88L491.25,401.63L490.0,402.0L488.63,401.38L487.5,402.38L483.88,401.38L483.5,400.25L481.5,400.5L481.25,401.25L482.25,403.13L480.25,404.13L478.0,402.5Z" />
		<path id="L1611653678329" name="宜宾市" class="qing-map-1616134807731" d="M451.0,455.0L448.4,455.6L447.2,459.0L444.6,456.8L444.2,455.0L446.6,453.2L444.8,452.0L441.8,449.2L439.6,449.2L441.75,447.5L444.38,446.75L444.75,445.5L447.25,443.5L446.63,442.0L447.0,441.13L446.25,437.75L448.38,437.13L449.63,435.38L449.63,432.88L450.88,432.75L452.25,431.75L454.5,431.38L461.13,437.13L462.88,435.5L464.88,435.0L464.0,432.63L464.75,430.38L467.0,430.75L467.0,428.0L469.0,427.25L470.0,425.75L469.25,422.0L472.5,423.5L473.13,418.88L474.38,417.25L474.63,414.25L475.5,411.38L476.38,410.13L477.13,407.13L476.0,405.5L478.0,402.5L480.25,404.13L482.25,403.13L481.25,401.25L481.5,400.5L483.5,400.25L483.88,401.38L487.5,402.38L488.63,401.38L490.0,402.0L491.25,401.63L492.13,401.88L493.75,402.0L493.25,402.88L494.88,403.25L494.88,404.13L497.88,408.25L499.13,408.0L500.13,409.13L503.38,407.0L503.75,405.63L505.75,404.63L507.5,404.75L510.0,405.0L510.13,407.63L509.5,408.75L512.5,414.38L511.0,416.25L511.88,419.75L513.25,420.38L516.13,419.25L517.5,420.63L518.63,419.5L520.5,419.63L520.88,418.63L522.25,418.13L522.88,416.63L526.25,415.5L526.38,418.13L527.63,418.5L530.0,420.38L530.75,421.75L535.13,424.5L540.25,424.0L541.5,425.13L542.75,427.25L543.13,429.13L543.88,430.25L544.0,433.38L545.38,436.25L544.0,437.63L544.38,440.63L543.13,444.0L541.13,445.5L540.88,448.75L543.38,451.38L543.25,453.5L544.88,454.5L545.13,456.63L544.13,459.13L542.38,460.25L549.0,460.75L549.88,462.25L551.0,462.63L550.5,464.0L550.75,465.5L549.13,466.38L550.25,468.13L550.5,469.63L551.75,470.38L551.25,472.5L552.25,473.5L551.63,475.0L552.0,477.75L552.5,480.5L553.25,482.38L552.63,483.5L547.0,484.25L543.88,487.13L541.25,489.0L537.13,488.63L535.63,487.38L532.88,487.13L530.75,488.88L528.5,489.25L528.13,491.75L526.38,495.0L523.75,496.38L525.0,498.25L523.38,498.75L522.5,500.25L519.63,501.13L516.25,501.38L514.63,502.63L513.5,501.88L513.13,501.13L510.25,502.25L509.5,502.5L506.13,505.0L504.63,504.38L502.38,505.75L501.13,504.75L501.25,503.38L499.75,502.0L498.5,502.88L497.0,501.5L495.88,501.25L494.0,499.0L491.88,497.13L491.0,497.13L490.38,495.88L489.5,495.13L488.63,492.88L485.63,491.88L484.5,490.63L485.0,489.75L489.63,490.0L491.0,488.63L490.63,486.75L492.75,486.63L494.13,484.88L493.75,481.38L492.63,481.25L491.88,481.25L491.13,479.5L492.38,478.5L494.13,477.5L493.63,474.88L493.75,473.88L493.13,473.38L491.13,474.0L489.75,469.88L487.63,469.0L485.5,471.25L483.75,470.75L484.5,469.63L483.0,467.88L481.5,464.13L482.0,462.63L481.5,461.0L482.25,459.38L482.25,457.0L480.88,455.63L481.25,454.5L482.0,453.88L483.25,454.25L484.25,453.5L485.5,453.75L486.25,452.38L487.25,452.5L488.63,450.38L489.75,449.38L491.75,449.38L492.38,448.0L490.25,446.38L489.0,445.88L486.5,446.88L485.25,448.13L483.63,446.88L482.88,447.0L481.13,445.25L480.0,446.88L477.25,446.88L476.25,446.25L472.88,446.75L471.75,448.75L470.25,448.88L468.63,447.5L463.88,448.75L460.88,449.0L460.38,447.75L458.75,447.25L457.5,447.88L456.25,447.25L456.25,445.13L455.25,444.88L454.38,447.5L454.5,450.38L452.13,452.25L452.13,454.13Z" />
		<path id="L1611654145488" name="泸州市" class="qing-map-1616134807731" d="M541.25,489.0L543.88,487.13L547.0,484.25L552.63,483.5L553.25,482.38L552.5,480.5L552.0,477.75L551.63,475.0L552.25,473.5L551.25,472.5L551.75,470.38L550.5,469.63L550.25,468.13L549.13,466.38L550.75,465.5L550.5,464.0L551.0,462.63L549.88,462.25L549.0,460.75L542.38,460.25L544.13,459.13L545.13,456.63L544.88,454.5L543.25,453.5L543.38,451.38L540.88,448.75L541.13,445.5L543.13,444.0L544.38,440.63L544.0,437.63L545.38,436.25L544.0,433.38L543.88,430.25L543.13,429.13L542.75,427.25L541.5,425.13L543.38,424.5L544.0,423.25L545.13,424.75L546.5,424.0L545.75,422.5L547.5,421.5L547.38,419.0L544.88,417.88L542.75,418.13L542.25,415.63L546.25,411.13L545.88,409.63L547.63,408.0L547.63,406.13L548.38,403.88L552.25,398.5L555.13,398.63L555.25,397.13L557.38,396.0L559.25,395.25L560.38,396.0L560.5,398.13L561.13,399.13L562.75,398.38L563.63,400.0L566.0,398.88L567.75,399.63L571.25,399.5L572.0,401.0L573.13,400.88L574.5,398.25L576.25,402.88L575.5,406.38L577.38,408.25L577.5,412.5L578.75,414.38L578.25,416.88L579.63,418.88L579.75,420.75L581.38,421.75L582.25,423.75L583.75,423.75L584.88,424.88L587.13,424.75L587.75,426.5L593.0,422.88L595.13,421.75L595.88,423.0L597.63,423.25L598.13,426.63L599.63,425.75L600.75,426.88L604.5,426.88L606.25,426.13L609.75,428.0L610.38,429.25L611.38,429.75L612.25,431.13L611.13,434.75L611.5,436.13L612.88,436.63L612.63,437.75L613.0,439.25L614.88,441.13L614.88,444.25L615.5,444.75L615.0,446.38L616.38,447.0L615.88,448.5L617.5,450.5L616.5,452.75L617.0,454.25L618.25,454.25L619.0,455.5L619.13,458.25L616.5,458.38L614.75,456.75L614.0,454.38L612.5,454.63L609.63,451.88L608.38,451.88L606.63,450.38L605.13,446.63L601.38,446.88L600.38,443.5L597.38,442.63L595.13,438.75L593.5,438.5L593.0,437.75L592.25,439.75L592.25,441.0L590.63,441.88L590.88,442.88L588.75,444.5L587.88,445.75L588.25,448.13L587.13,449.88L585.75,449.0L584.75,449.25L582.63,449.5L581.0,448.75L579.38,450.25L578.13,448.38L576.38,450.13L575.25,449.88L574.88,452.13L574.13,452.88L574.38,454.25L573.13,455.25L570.5,455.5L570.75,457.5L569.75,458.63L569.88,459.63L569.38,461.5L572.0,462.13L572.0,463.25L571.63,464.25L572.38,466.38L572.25,468.25L571.38,470.13L572.75,470.75L575.25,472.88L577.63,473.75L577.75,471.38L580.88,471.0L580.0,470.13L581.25,469.25L581.75,470.5L582.75,471.13L583.5,471.38L585.38,474.88L586.38,474.88L587.5,476.63L586.0,481.13L586.25,483.0L587.38,483.38L587.13,484.88L588.5,484.38L589.63,483.63L590.75,483.63L591.88,483.25L594.75,485.25L596.25,485.0L597.25,483.5L598.75,483.5L600.88,481.88L602.63,481.5L605.88,482.63L608.5,484.5L609.75,485.38L609.75,486.13L611.5,487.25L612.13,489.25L610.75,491.88L611.13,493.13L614.13,493.75L616.13,496.88L614.75,498.63L614.88,501.13L616.13,502.0L617.0,504.13L615.5,505.75L617.13,507.25L614.0,508.38L612.0,510.0L609.5,511.25L607.13,511.88L603.0,510.0L599.38,510.13L598.63,511.38L596.13,512.63L594.0,512.25L590.25,514.0L589.63,512.63L586.5,513.63L584.63,515.63L581.38,514.88L577.5,515.5L576.63,517.38L573.63,517.0L571.38,518.63L570.5,518.63L570.38,517.38L568.13,514.63L565.63,514.25L564.63,512.13L561.38,510.38L559.13,511.0L558.25,510.5L556.88,511.13L553.13,512.38L551.25,514.13L549.75,515.5L549.0,515.13L549.13,512.5L547.75,508.75L548.13,508.25L548.38,507.25L546.25,506.88L546.25,504.88L545.0,501.88L545.88,500.13L547.13,500.25L548.13,498.88L548.13,496.5L546.75,493.88L545.13,493.38L544.63,494.38L541.88,494.0L540.75,491.88L541.75,490.75Z" />
		<path id="L1611654557639" name="广元市" class="qing-map-1616134807731" d="M506.13,141.5L505.25,144.5L505.38,146.63L506.5,147.38L507.5,149.63L511.13,150.38L513.25,152.0L513.63,153.75L514.63,155.13L513.38,157.38L515.13,161.0L515.5,162.5L518.38,164.5L520.0,165.63L522.38,165.5L524.38,167.88L528.5,167.25L527.88,169.25L529.75,172.13L530.0,173.63L532.25,172.0L533.0,170.88L535.13,171.13L536.25,169.13L542.38,169.75L546.25,168.5L546.25,169.5L545.5,171.0L547.63,173.0L546.38,175.13L547.0,175.38L545.63,176.75L547.25,178.63L546.25,179.88L547.5,180.5L548.25,182.5L547.0,183.25L548.63,184.25L546.63,185.88L546.75,187.75L545.75,189.25L546.88,190.63L546.5,192.75L545.13,191.63L542.75,192.63L542.25,195.5L543.5,197.13L542.25,200.13L544.38,201.63L543.63,205.38L546.13,207.0L546.25,208.88L548.75,208.88L550.63,211.0L550.25,212.5L547.0,214.63L546.88,215.88L548.63,215.88L550.75,214.63L550.75,216.13L552.5,218.13L551.63,221.38L553.88,222.0L555.5,222.25L555.63,226.25L557.5,228.0L559.63,229.0L562.13,227.38L563.25,225.13L564.75,226.38L567.13,226.5L568.63,225.25L569.5,227.38L570.38,225.5L570.88,223.75L574.13,223.0L575.5,219.75L576.88,219.0L577.5,213.88L579.0,214.5L580.0,214.38L583.88,218.88L584.75,219.25L585.13,221.5L586.5,222.25L587.25,221.25L589.88,221.38L590.13,218.88L592.25,217.88L593.63,219.0L595.5,217.13L598.25,216.63L601.63,213.5L602.13,211.25L603.5,210.63L602.13,209.0L602.63,207.0L605.0,207.63L607.0,206.75L607.5,208.88L608.75,210.5L612.38,210.0L612.75,207.75L615.38,207.25L616.88,204.5L618.88,205.25L620.0,207.75L622.25,205.75L621.25,204.25L621.75,201.38L623.0,198.63L625.13,196.75L624.13,195.38L627.63,193.0L627.0,191.38L628.0,190.75L628.5,187.25L629.63,186.5L629.88,184.63L632.13,182.88L631.0,179.38L631.75,175.38L637.88,173.63L639.13,172.0L641.25,172.5L641.63,170.25L643.63,171.0L645.0,169.63L641.75,166.5L640.0,166.25L640.13,161.5L639.38,160.0L639.5,156.5L637.5,154.25L638.13,152.5L637.63,148.63L637.5,147.25L638.25,146.13L636.88,143.75L636.5,140.0L635.13,140.38L632.88,139.75L631.0,141.37L628.38,141.5L627.25,143.0L624.75,142.5L623.75,143.75L622.38,145.38L621.13,145.25L620.13,144.75L619.88,143.5L617.25,141.13L613.63,141.13L612.63,140.88L611.5,139.38L607.5,139.25L605.38,138.5L604.0,137.13L602.38,137.25L601.88,136.0L600.0,134.88L599.25,132.88L601.5,131.63L600.63,129.38L599.5,129.0L596.63,126.88L595.88,128.75L594.63,129.38L592.88,127.62L590.75,129.13L588.25,128.13L584.88,129.75L583.38,132.0L583.63,132.75L582.0,134.63L580.75,135.25L580.0,134.38L578.88,133.75L578.13,134.63L577.0,134.25L573.38,137.13L570.75,138.75L568.88,138.5L568.0,136.5L567.0,136.88L565.75,136.0L566.88,134.0L566.0,133.0L565.88,131.63L564.88,131.5L564.38,129.0L561.88,125.38L562.25,122.88L560.13,121.13L557.38,121.13L556.75,122.25L556.25,124.63L554.38,125.13L555.63,126.38L555.75,129.0L557.25,131.13L557.5,133.13L559.63,134.38L559.0,136.38L557.63,136.5L553.0,139.38L552.38,140.25L550.13,141.38L549.5,142.13L547.5,142.75L545.63,141.5L543.88,142.0L543.88,143.63L542.13,144.63L541.75,145.75L537.25,147.0L534.88,144.0L531.75,143.0L530.5,144.13L528.38,144.13L524.0,146.5L522.63,146.5L521.25,144.5L518.5,142.13L516.38,143.5L514.38,143.25L513.25,143.88L512.0,143.5L510.63,140.88L508.0,141.88Z" />
		<path id="L1611657869299" name="南充市" class="qing-map-1616134807731" d="M592.75,308.88L591.88,307.75L589.0,310.38L587.38,310.13L587.0,307.5L585.75,308.38L585.25,307.38L587.0,303.25L585.63,302.63L582.38,297.75L582.88,294.88L581.63,292.25L581.5,289.13L580.38,287.38L581.88,284.13L578.88,281.5L577.5,278.5L578.25,277.38L577.38,276.25L575.75,276.25L575.25,275.13L572.88,275.13L572.88,273.75L570.25,271.0L571.13,268.88L573.25,268.88L576.38,266.0L576.88,263.25L577.0,258.13L576.13,256.5L573.75,256.25L574.0,253.13L573.38,251.13L574.25,250.25L571.75,249.88L571.13,247.5L568.5,246.25L572.13,240.38L570.88,238.63L568.5,238.88L567.5,240.13L565.5,238.88L563.5,239.75L561.0,236.88L562.38,234.75L561.25,232.75L558.88,232.5L559.88,231.13L559.63,229.0L562.13,227.38L563.25,225.13L564.75,226.38L567.13,226.5L568.63,225.25L569.5,227.38L570.38,225.5L570.88,223.75L574.13,223.0L575.5,219.75L576.88,219.0L577.5,213.88L579.0,214.5L580.0,214.38L583.88,218.88L584.75,219.25L585.13,221.5L586.5,222.25L587.25,221.25L589.88,221.38L590.13,218.88L592.25,217.88L593.63,219.0L595.5,217.13L598.25,216.63L601.63,213.5L602.13,211.25L603.5,210.63L602.13,209.0L602.63,207.0L605.0,207.63L607.0,206.75L607.5,208.88L608.75,210.5L612.38,210.0L612.75,207.75L615.38,207.25L616.88,204.5L618.88,205.25L620.0,207.75L621.63,209.63L621.63,214.0L619.88,213.75L618.75,216.13L620.88,217.5L621.25,219.0L624.0,220.13L624.75,224.88L626.38,224.75L627.25,225.88L629.13,225.38L631.5,227.88L631.88,229.63L634.88,230.75L636.75,228.13L636.0,226.0L637.13,224.38L638.38,224.38L640.0,226.75L641.5,226.13L642.63,226.38L645.13,226.0L644.88,227.0L646.0,228.88L647.63,228.0L647.5,229.75L649.5,231.0L649.75,235.13L652.25,237.13L651.25,238.75L651.88,239.88L654.13,240.13L656.38,243.5L655.63,245.88L656.25,247.25L656.25,248.63L658.0,250.63L656.13,254.38L656.0,256.38L657.0,257.0L656.75,258.63L655.25,259.25L655.5,260.75L654.25,261.0L653.0,262.63L651.75,263.0L649.38,265.63L647.63,269.88L646.0,270.25L646.0,271.75L643.5,271.38L643.38,273.25L641.88,273.88L641.25,275.63L639.0,275.0L638.5,276.38L639.5,278.13L638.75,279.63L638.88,281.5L635.0,283.25L635.0,284.63L635.75,285.88L634.88,287.0L633.38,287.5L632.63,289.25L631.38,289.13L629.38,289.75L627.75,287.63L627.5,285.38L624.25,288.0L623.88,290.13L622.63,291.13L622.5,292.63L621.38,292.88L620.38,293.88L618.0,291.0L614.5,293.13L613.25,291.38L611.5,291.38L610.38,290.25L610.0,292.75L606.25,296.0L606.63,298.25L607.38,299.0L606.5,300.13L605.38,299.63L603.13,303.63L602.38,306.88L601.13,307.0L599.75,308.0L597.0,306.25L596.63,308.5Z" />
		<path id="L1611658494356" name="巴中市" class="qing-map-1616134807731" d="M658.0,250.63L656.25,248.63L656.25,247.25L655.63,245.88L656.38,243.5L654.13,240.13L651.88,239.88L651.25,238.75L652.25,237.13L649.75,235.13L649.5,231.0L647.5,229.75L647.63,228.0L646.0,228.88L644.88,227.0L645.13,226.0L642.63,226.38L641.5,226.13L640.0,226.75L638.38,224.38L637.13,224.38L636.0,226.0L636.75,228.13L634.88,230.75L631.88,229.63L631.5,227.88L629.13,225.38L627.25,225.88L626.38,224.75L624.75,224.88L624.0,220.13L621.25,219.0L620.88,217.5L618.75,216.13L619.88,213.75L621.63,214.0L621.63,209.63L620.0,207.75L622.25,205.75L621.25,204.25L621.75,201.38L623.0,198.63L625.13,196.75L624.13,195.38L627.63,193.0L627.0,191.38L628.0,190.75L628.5,187.25L629.63,186.5L629.88,184.63L632.13,182.88L631.0,179.38L631.75,175.38L637.88,173.63L639.13,172.0L641.25,172.5L641.63,170.25L643.63,171.0L645.0,169.63L641.75,166.5L640.0,166.25L640.13,161.5L639.38,160.0L639.5,156.5L637.5,154.25L638.13,152.5L637.63,148.63L637.5,147.25L638.25,146.13L636.88,143.75L636.5,140.0L638.5,139.63L639.0,138.75L642.38,136.25L645.38,136.13L645.75,138.88L647.0,138.0L648.13,138.63L649.88,137.5L652.88,137.38L654.25,138.88L656.13,138.5L656.5,137.75L659.0,138.38L660.38,137.63L661.88,137.75L663.63,138.25L664.0,139.5L663.75,141.25L665.88,141.5L666.25,142.63L665.88,144.0L667.0,147.0L665.75,149.38L666.0,150.25L664.88,152.13L666.75,153.25L668.13,155.13L667.88,156.25L670.38,156.38L671.5,155.75L673.0,157.0L673.38,158.75L675.5,161.25L678.38,160.13L679.13,155.25L682.13,154.0L683.88,152.5L684.25,150.88L685.75,151.38L687.63,151.5L688.0,153.5L687.75,154.13L688.38,156.88L689.5,157.63L690.13,160.5L691.63,160.38L692.38,162.63L694.88,163.38L698.75,161.25L701.25,161.88L701.88,161.13L705.0,163.88L705.13,165.63L706.13,167.38L705.63,171.88L704.0,173.5L704.75,175.75L700.88,177.88L701.0,182.0L704.25,182.38L706.5,184.25L708.0,184.75L709.63,187.5L707.63,189.88L705.5,190.63L704.38,192.13L699.88,192.0L696.75,194.13L697.63,195.63L696.63,196.88L695.25,197.38L694.0,199.13L695.75,201.13L695.0,202.13L693.75,201.63L693.0,203.63L697.0,205.63L696.13,210.25L694.75,211.5L695.13,213.0L692.38,213.63L693.0,216.5L694.5,217.38L693.5,220.5L692.5,221.38L692.0,223.88L690.38,223.63L686.38,227.25L683.38,227.38L681.75,228.75L681.0,231.63L679.0,231.88L677.13,235.38L675.88,234.13L674.5,236.38L671.5,236.88L669.25,240.5L669.63,242.5L668.0,243.75L665.38,242.5L665.25,241.38L663.13,242.25L663.63,244.63L662.5,244.88L662.38,247.0L661.0,246.13L659.38,248.38L659.88,249.5Z" />
		<path id="L1611659137287" name="达州市" class="qing-map-1616134807731" d="M640.0,282.25L642.25,281.63L643.88,284.75L647.13,286.0L650.0,289.25L651.63,289.13L655.0,291.63L653.25,292.25L654.63,295.5L656.25,295.88L657.0,297.13L658.0,295.88L659.63,296.63L662.63,296.25L661.13,303.75L658.63,303.5L658.88,307.13L661.63,305.38L662.5,306.0L664.75,306.25L665.38,308.25L668.25,309.0L666.63,306.63L668.0,305.0L670.88,307.0L673.0,305.38L673.75,306.88L671.25,310.88L674.0,313.63L673.75,315.88L675.38,316.75L675.25,318.63L676.5,320.0L678.0,319.5L678.25,318.0L680.13,318.13L681.63,316.63L682.0,314.13L683.13,310.38L686.5,306.38L688.88,304.88L687.88,303.38L690.0,302.0L690.38,300.75L691.88,299.5L692.0,298.25L693.38,296.38L692.13,294.88L691.0,294.88L689.5,293.25L689.63,292.13L688.5,291.0L688.13,288.88L688.63,287.25L690.38,286.13L691.0,284.5L692.25,283.88L691.13,281.63L693.63,280.38L694.38,281.0L697.75,281.0L701.75,283.63L704.75,279.25L705.5,279.38L706.5,278.13L709.0,279.5L708.5,281.13L710.0,283.25L711.25,283.13L712.63,284.38L715.63,284.88L718.25,282.0L722.13,279.38L722.0,278.38L724.63,276.5L720.88,274.88L721.38,270.5L723.88,270.63L725.25,267.38L728.0,266.75L728.75,265.5L726.75,264.25L726.63,262.88L725.63,261.0L727.0,260.38L727.38,258.75L731.13,254.75L729.5,252.0L727.0,252.63L726.38,250.88L730.38,249.5L732.13,247.88L734.0,246.88L735.63,245.25L737.13,244.38L737.13,243.13L735.13,241.0L736.25,240.38L736.63,239.25L738.25,239.38L739.0,237.75L738.88,235.88L739.63,235.0L739.5,233.88L737.88,233.63L737.5,231.88L739.25,231.38L739.5,230.75L740.88,231.63L743.25,230.5L745.5,231.25L747.38,230.0L747.63,228.0L750.13,228.0L750.5,224.63L752.25,222.25L754.25,221.13L755.5,221.88L755.88,220.75L759.63,217.88L758.88,214.13L758.13,213.38L759.75,211.63L754.75,209.25L755.13,207.5L752.5,207.63L750.25,206.13L750.13,204.38L748.13,204.25L744.88,200.38L743.63,200.13L743.63,197.63L742.88,196.25L742.0,195.38L745.25,193.13L747.88,195.13L748.63,193.38L746.63,191.75L746.75,190.75L748.88,190.13L748.13,188.5L749.25,187.13L750.5,187.5L751.88,187.63L752.63,188.38L754.13,187.38L754.25,185.88L752.25,183.88L751.5,182.13L749.13,180.0L751.63,177.88L753.25,178.38L755.88,179.25L757.63,177.88L758.38,175.75L755.63,172.38L754.63,173.0L753.5,172.63L751.88,173.5L750.5,172.88L749.25,173.63L747.63,173.5L746.63,175.0L744.88,174.75L740.63,172.25L737.63,175.88L735.25,174.63L734.25,176.13L732.75,176.25L730.25,175.13L728.75,175.63L726.0,178.25L726.5,179.75L724.0,182.01L718.0,176.63L716.38,177.5L713.13,174.38L711.13,171.25L710.38,169.0L708.13,167.25L706.13,167.38L705.63,171.88L704.0,173.5L704.75,175.75L700.88,177.88L701.0,182.0L704.25,182.38L706.5,184.25L708.0,184.75L709.63,187.5L707.63,189.88L705.5,190.63L704.38,192.13L699.88,192.0L696.75,194.13L697.63,195.63L696.63,196.88L695.25,197.38L694.0,199.13L695.75,201.13L695.0,202.13L693.75,201.63L693.0,203.63L697.0,205.63L696.13,210.25L694.75,211.5L695.13,213.0L692.38,213.63L693.0,216.5L694.5,217.38L693.5,220.5L692.5,221.38L692.0,223.88L690.38,223.63L686.38,227.25L683.38,227.38L681.75,228.75L681.0,231.63L679.0,231.88L677.13,235.38L675.88,234.13L674.5,236.38L671.5,236.88L669.25,240.5L669.63,242.5L668.0,243.75L665.38,242.5L665.25,241.38L663.13,242.25L663.63,244.63L662.5,244.88L662.38,247.0L661.0,246.13L659.38,248.38L659.88,249.5L658.0,250.63L656.13,254.38L656.0,256.38L657.0,257.0L656.75,258.63L655.25,259.25L655.5,260.75L654.25,261.0L653.0,262.63L651.75,263.0L649.38,265.63L647.63,269.88L646.0,270.25L646.0,271.75L643.5,271.38L643.38,273.25L641.88,273.88L641.25,275.63L639.0,275.0L638.5,276.38L639.5,278.13L638.75,279.63L638.88,281.5Z" />
		<path id="L1611659812785" name="广安市" class="qing-map-1616134807731" d="M594.75,317.13L595.13,315.38L593.88,313.25L592.0,312.38L591.88,311.13L593.25,310.63L592.75,308.88L596.63,308.5L597.0,306.25L599.75,308.0L601.13,307.0L602.38,306.88L603.13,303.63L605.38,299.63L606.5,300.13L607.38,299.0L606.63,298.25L606.25,296.0L610.0,292.75L610.38,290.25L611.5,291.38L613.25,291.38L614.5,293.13L618.0,291.0L620.38,293.88L621.38,292.88L622.5,292.63L622.63,291.13L623.88,290.13L624.25,288.0L627.5,285.38L627.75,287.63L629.38,289.75L631.38,289.13L632.63,289.25L633.38,287.5L634.88,287.0L635.75,285.88L635.0,284.63L635.0,283.25L638.88,281.5L640.0,282.25L642.25,281.63L643.88,284.75L647.13,286.0L650.0,289.25L651.63,289.13L655.0,291.63L653.25,292.25L654.63,295.5L656.25,295.88L657.0,297.13L658.0,295.88L659.63,296.63L662.63,296.25L661.13,303.75L658.63,303.5L658.88,307.13L661.63,305.38L662.5,306.0L664.75,306.25L665.38,308.25L668.25,309.0L666.63,306.63L668.0,305.0L670.88,307.0L673.0,305.38L673.75,306.88L671.25,310.88L674.0,313.63L673.75,315.88L675.38,316.75L675.25,318.63L676.5,320.0L678.0,319.5L678.13,320.88L677.25,322.88L675.88,326.75L673.0,330.63L669.5,334.13L668.88,335.38L666.88,336.5L667.0,337.38L665.25,337.88L664.63,338.88L665.38,340.25L664.88,340.88L662.88,341.13L661.13,342.25L659.0,339.13L657.38,339.5L656.75,341.5L654.0,342.5L650.75,342.5L649.5,341.38L648.75,342.38L647.0,342.75L646.25,343.63L644.88,343.13L643.63,343.38L642.5,342.75L642.25,340.88L640.5,339.5L639.88,336.5L638.88,335.75L638.5,334.0L637.38,332.5L636.88,331.25L635.63,330.13L635.0,327.75L635.88,326.38L636.0,324.75L634.88,323.38L633.25,322.75L631.38,321.25L630.25,322.5L625.25,322.63L623.88,321.75L623.63,323.88L622.38,326.0L620.13,326.75L619.13,326.25L617.0,327.13L616.38,328.0L614.25,328.25L614.25,329.38L612.63,329.38L610.75,331.0L609.75,328.88L608.13,329.5L607.75,327.38L607.25,327.88L605.63,326.25L606.63,324.75L605.88,322.0L603.0,321.13L601.5,321.25L600.38,320.63L600.63,319.25L599.0,319.38L597.0,317.13Z" />
	</g>
</svg>
