<svg xmlns="http://www.w3.org/2000/svg" viewBox="0,0,568,600" width="100%" height="100%">
	<defs>
		<style type="text/css">
.qing-map-1616134789537
{
	fill: #DDDDDD;
	fill-opacity: 1.0;
	stroke: #FFFFFF;
	stroke-opacity: 1.0;
	stroke-width: 1;
}

.qing-map-1616134789537:hover
{
	fill: #56A4FF;
	fill-opacity: 1.0;
}
</style>
	</defs>
	<g>
		<path id="L1611660325986" name="迪庆藏族自治州" class="qing-map-1616134789537" d="M107.38,113.38L106.75,115.13L107.88,116.88L108.25,118.88L109.63,119.0L109.88,121.63L111.0,121.88L111.38,123.5L113.13,124.88L113.13,134.75L114.0,136.63L114.63,139.25L116.25,139.0L118.13,144.63L116.0,146.25L116.0,147.75L119.13,149.88L120.63,152.38L118.5,155.88L120.5,159.38L119.13,161.63L120.75,163.75L120.63,167.0L119.75,167.75L120.75,169.38L120.88,172.25L122.13,171.5L123.63,172.5L125.5,172.38L126.0,175.75L124.63,176.38L124.88,180.5L123.63,181.25L123.38,182.88L125.0,184.13L124.38,184.88L124.5,187.88L123.75,189.0L125.0,190.38L124.88,191.38L126.25,191.75L125.25,192.5L125.38,194.63L128.63,195.38L130.88,194.5L131.63,193.75L133.0,194.38L134.38,194.25L135.63,194.88L138.63,195.5L141.5,192.63L140.38,190.0L140.88,189.13L143.25,189.5L145.13,193.88L146.38,195.63L146.38,198.13L148.13,199.5L149.88,196.13L151.0,196.88L152.0,196.13L154.0,196.88L154.38,195.63L153.25,194.38L153.0,192.75L151.5,191.63L150.63,186.63L151.25,185.63L151.13,184.38L149.63,183.88L149.38,181.75L148.0,180.13L150.25,179.0L149.25,176.13L149.38,174.13L151.38,171.25L150.25,169.0L150.13,167.0L149.5,166.13L149.88,164.88L149.63,162.5L153.0,161.88L154.88,160.75L154.88,158.63L158.0,157.0L158.0,158.38L159.13,159.38L158.5,161.13L160.0,164.13L161.5,164.88L160.63,166.13L162.25,168.5L164.13,170.5L163.38,172.5L164.63,174.25L164.5,175.38L166.88,176.88L167.13,177.88L169.38,180.63L171.5,181.38L172.38,181.88L172.88,183.88L173.88,183.88L176.0,188.38L178.0,189.13L178.25,190.5L180.75,193.63L181.38,194.25L181.38,195.13L182.5,196.5L181.75,197.25L181.5,200.5L182.38,203.0L186.25,200.88L187.38,198.75L187.5,196.63L188.88,193.0L188.25,192.0L189.0,190.63L187.5,187.0L188.13,183.63L190.25,182.5L196.63,174.5L197.75,174.13L198.25,171.13L196.88,169.0L197.13,166.63L194.63,162.75L195.63,160.38L197.13,159.0L198.88,157.13L198.88,155.13L200.13,154.38L199.63,152.63L201.63,150.0L200.75,147.75L202.38,145.25L202.38,142.88L202.38,141.75L201.38,140.88L202.38,139.0L202.38,137.13L200.5,136.13L199.38,136.75L194.5,134.63L195.88,132.0L192.5,128.0L192.0,126.75L189.75,125.75L188.38,123.25L187.0,119.88L185.88,118.5L186.13,115.88L186.88,115.75L188.0,115.0L189.38,115.75L190.63,114.25L193.5,113.88L193.75,112.63L195.38,111.0L193.0,108.13L194.0,107.88L194.75,106.25L193.38,105.75L191.5,103.88L190.13,103.75L187.75,102.5L188.13,101.13L188.63,99.25L187.88,97.88L184.75,96.88L184.13,96.0L183.5,92.38L182.38,91.5L182.38,90.13L181.13,89.0L177.63,87.0L177.0,85.13L175.5,85.5L175.25,83.88L172.88,81.38L170.13,80.88L168.63,79.38L168.88,78.38L167.88,77.25L167.88,72.38L167.38,71.75L165.63,73.38L162.5,73.13L162.13,74.5L161.38,75.25L161.38,77.13L161.75,78.25L159.63,79.75L158.13,80.25L157.0,81.88L157.63,83.0L157.13,85.5L156.5,86.63L154.75,86.38L154.63,87.5L153.0,88.88L152.75,91.0L150.0,90.75L149.25,91.63L148.88,92.75L149.25,94.88L150.25,96.63L149.5,97.75L149.63,99.63L151.13,101.5L149.88,102.88L149.25,103.88L149.63,105.25L148.5,106.75L149.75,108.25L149.5,110.0L148.38,112.38L148.0,115.38L148.25,116.88L147.25,115.75L143.88,112.63L142.88,110.38L142.25,110.0L142.38,108.38L139.5,106.63L139.13,104.5L137.38,103.13L136.0,100.88L135.38,99.0L136.25,98.38L136.25,96.13L136.88,94.13L135.5,90.5L136.38,88.5L135.25,87.88L135.63,86.63L134.5,84.88L133.88,82.13L133.0,81.0L133.38,78.75L132.63,77.25L132.5,75.63L131.5,73.5L131.88,70.63L133.0,67.88L132.75,65.63L133.63,64.38L132.63,61.0L133.0,59.75L132.38,58.38L132.25,55.13L132.38,52.25L131.63,49.88L132.5,46.88L132.13,45.63L129.38,46.5L127.88,46.5L126.75,47.88L124.25,47.0L123.75,48.13L122.88,49.13L123.5,51.88L125.88,55.25L126.25,57.25L125.5,58.88L124.13,59.25L123.13,61.0L120.75,62.25L120.88,65.25L120.38,67.13L121.5,68.75L122.63,69.5L123.63,69.13L123.5,72.25L121.25,72.13L120.75,73.75L118.88,74.13L117.88,73.5L116.88,74.0L115.38,72.38L114.5,65.75L114.75,64.38L112.88,61.63L112.13,60.38L111.13,60.38L109.88,61.63L108.13,63.0L105.38,62.5L103.5,62.75L103.63,64.0L105.38,66.13L104.5,67.38L105.25,70.0L106.0,71.25L105.25,72.88L105.5,73.88L106.75,76.0L106.63,77.38L106.88,78.5L106.13,80.0L104.5,80.75L103.75,81.75L101.88,82.13L101.88,83.5L103.13,85.75L102.75,86.63L103.0,87.88L103.25,89.25L104.38,90.63L103.0,94.13L104.13,95.25L106.0,95.75L107.13,97.75L107.25,99.13L109.0,101.5L110.0,103.63L110.13,104.88L110.88,106.38L108.75,107.13L108.75,109.75L108.63,112.25Z" />
		<path id="L1611660965507" name="怒江傈僳族自治州" class="qing-map-1616134789537" d="M107.38,113.38L106.75,115.13L107.88,116.88L108.25,118.88L109.63,119.0L109.88,121.63L111.0,121.88L111.38,123.5L113.13,124.88L113.13,134.75L114.0,136.63L114.63,139.25L116.25,139.0L118.13,144.63L116.0,146.25L116.0,147.75L119.13,149.88L120.63,152.38L118.5,155.88L120.5,159.38L119.13,161.63L120.75,163.75L120.63,167.0L119.75,167.75L120.75,169.38L120.88,172.25L122.13,171.5L123.63,172.5L125.5,172.38L126.0,175.75L124.63,176.38L124.88,180.5L123.63,181.25L123.38,182.88L125.0,184.13L124.38,184.88L124.5,187.88L123.75,189.0L125.0,190.38L124.88,191.38L126.25,191.75L125.25,192.5L125.38,194.63L128.63,195.38L130.88,194.5L131.63,193.75L133.0,194.38L134.38,194.25L135.63,194.88L138.63,195.5L141.5,192.63L140.38,190.0L140.88,189.13L143.25,189.5L145.13,193.88L146.38,195.63L146.38,198.13L148.13,199.5L149.88,196.13L151.0,196.88L152.0,196.13L154.0,196.88L155.25,198.38L156.38,200.0L158.88,200.63L158.13,202.13L158.63,203.63L159.38,204.13L159.13,205.0L160.0,205.5L159.38,207.63L160.38,211.13L161.13,212.38L161.0,214.13L163.38,215.38L162.25,216.63L162.25,218.75L160.75,219.25L154.5,222.38L154.63,223.75L155.25,224.63L155.25,228.5L156.38,230.88L152.88,235.5L151.88,236.75L150.38,237.75L149.0,237.38L146.25,239.13L144.63,238.88L143.5,241.75L144.63,243.25L143.5,244.88L141.63,244.75L137.38,247.63L135.13,249.63L136.25,251.75L137.5,252.38L136.75,253.25L135.5,252.13L133.63,251.38L131.88,251.88L131.13,249.88L128.38,249.5L127.25,250.75L126.0,252.25L125.88,255.0L125.38,256.5L126.13,258.25L125.88,262.75L127.75,262.88L129.0,262.38L133.25,273.75L131.0,274.13L129.88,274.63L129.0,273.38L129.13,271.88L127.13,271.88L127.25,273.63L126.63,274.38L128.5,276.13L128.38,277.13L127.25,277.0L126.13,278.25L122.5,276.0L120.5,276.0L120.25,274.38L118.25,274.13L117.38,275.5L118.13,276.75L119.5,277.25L118.25,278.25L118.5,281.63L119.0,283.0L118.13,284.38L118.88,285.75L118.5,286.88L118.63,287.75L117.13,289.25L114.25,289.0L112.63,290.0L110.75,287.88L112.0,284.25L111.0,283.38L111.5,280.5L110.63,279.38L111.0,278.38L109.63,277.13L110.5,275.0L108.38,273.25L109.38,272.0L109.38,270.75L108.0,269.13L108.13,267.5L107.13,265.75L107.25,264.88L104.5,261.75L103.13,261.88L102.38,259.13L102.13,256.75L100.5,252.75L101.25,251.13L102.5,251.38L104.13,250.38L105.63,251.5L105.88,252.38L105.38,253.0L106.01,254.38L109.0,251.63L108.38,250.38L110.0,248.13L108.63,244.88L106.5,244.25L106.88,241.63L106.88,239.63L109.0,238.13L109.88,236.88L109.63,235.13L110.25,235.0L110.88,232.5L110.25,231.63L111.0,228.75L111.0,225.88L110.88,223.13L112.0,222.0L112.75,219.25L112.0,217.88L111.5,216.5L112.0,215.13L110.75,214.25L110.38,213.38L111.13,211.5L111.5,206.88L109.63,204.0L111.13,202.25L110.88,199.38L110.0,198.13L110.38,194.88L110.0,193.75L111.63,192.5L111.63,191.38L110.63,189.75L109.25,189.63L108.75,188.88L108.5,184.13L108.13,182.0L107.5,181.0L107.88,180.0L109.0,179.38L108.75,178.75L109.38,177.75L108.75,176.88L108.63,176.38L109.63,175.25L110.0,174.5L110.25,172.88L110.13,171.38L109.13,170.38L108.63,170.0L107.88,166.75L107.13,165.75L107.88,163.5L106.88,162.0L107.13,160.13L107.63,159.5L107.75,158.63L108.0,157.38L107.25,156.63L106.0,155.63L104.88,156.38L101.5,155.5L99.38,151.5L97.63,152.75L96.13,152.25L94.63,152.25L92.5,149.88L92.13,150.5L92.38,151.88L92.25,152.63L92.13,157.13L90.13,158.88L88.75,160.75L87.25,160.25L85.75,159.75L84.63,157.25L84.88,156.25L84.25,153.5L84.25,152.63L83.38,151.38L82.5,150.5L80.38,148.25L80.0,146.25L81.13,145.13L79.75,144.0L79.63,141.5L79.5,140.25L76.88,138.38L77.0,136.63L78.13,136.13L78.75,135.5L77.38,131.75L75.63,131.38L74.5,129.0L75.13,128.13L75.0,125.5L75.25,124.13L76.13,121.5L74.75,118.13L76.5,116.38L76.5,113.88L78.13,113.13L79.5,113.63L81.38,111.75L82.25,110.63L81.13,108.88L79.88,106.25L79.13,104.38L80.75,104.25L80.63,103.25L83.75,101.5L84.5,103.38L85.75,104.63L85.63,106.5L86.75,108.25L87.88,108.38L89.13,111.25L88.5,112.13L88.88,114.0L88.5,115.63L89.63,116.88L89.63,120.13L91.88,120.75L94.63,117.63L96.13,118.13L98.38,116.13L100.38,115.75L101.38,115.75L103.63,116.75L104.75,115.13L105.5,114.0Z" />
		<path id="L1611661672106" name="保山市" class="qing-map-1616134789537" d="M72.0,303.5L73.75,306.88L75.25,306.75L78.13,309.0L77.5,310.75L78.13,312.13L76.88,313.75L77.75,316.75L80.5,318.88L82.5,318.88L82.75,319.75L81.88,320.88L81.63,322.25L79.75,325.25L79.75,327.63L81.0,329.13L81.13,330.13L83.13,329.5L84.0,329.38L85.13,328.75L86.25,329.25L86.25,331.0L88.5,332.25L92.13,331.75L93.25,333.13L96.88,331.5L98.38,332.75L98.63,335.0L99.5,336.75L98.5,338.75L96.0,338.13L94.63,339.5L92.0,340.13L91.63,341.25L93.13,342.5L92.5,345.0L93.63,346.38L91.88,347.75L91.88,349.25L93.75,350.13L93.88,352.0L94.88,353.13L95.13,354.88L96.38,354.63L98.63,354.75L101.0,352.88L104.25,352.88L105.25,353.5L107.88,354.25L107.13,355.5L109.13,359.0L107.0,361.75L108.88,366.0L108.88,369.5L107.88,373.0L109.5,376.75L107.75,378.38L107.13,380.88L108.25,382.5L111.63,382.0L116.38,381.88L118.13,380.5L120.38,378.38L122.63,378.25L126.13,376.63L127.13,375.38L128.75,375.38L131.0,374.63L132.25,373.25L134.88,371.25L136.13,369.88L136.75,368.88L137.88,368.38L138.0,366.25L141.0,362.0L143.38,361.75L145.25,365.38L146.25,366.88L146.0,369.0L147.13,370.13L146.5,372.0L146.88,374.88L150.0,375.5L151.38,374.38L152.5,374.5L153.63,373.25L153.88,371.38L155.0,369.63L157.38,368.88L160.13,366.88L161.25,363.38L163.63,360.88L165.38,361.25L165.5,358.88L166.63,357.0L165.25,353.75L163.88,353.63L164.25,352.13L165.75,351.75L165.75,349.88L168.5,349.0L168.25,347.75L169.38,346.0L172.75,345.13L173.25,341.88L170.88,339.25L172.88,337.88L174.13,336.38L173.38,334.38L176.63,331.5L175.25,329.38L176.88,327.88L179.25,325.38L181.75,325.0L184.63,323.0L187.13,322.13L186.5,320.0L186.25,318.38L183.5,318.75L183.0,316.5L181.25,315.0L180.63,312.5L176.13,313.75L176.13,315.0L174.25,317.25L174.0,319.63L169.5,319.75L168.63,321.38L166.63,322.13L165.38,321.25L163.88,320.75L161.75,318.63L159.75,318.38L158.0,316.88L155.0,317.5L149.63,311.75L147.38,307.38L145.13,306.25L142.75,301.88L142.75,300.5L142.75,297.88L145.5,298.5L145.63,296.88L146.13,295.75L144.88,293.0L144.75,292.0L143.13,291.75L141.5,289.88L139.5,289.75L136.75,291.88L135.13,291.0L134.38,292.63L132.25,294.63L129.75,294.5L128.5,291.88L129.88,290.63L128.88,288.63L126.38,288.75L125.75,287.5L126.5,286.0L125.75,284.25L122.0,283.75L120.5,284.5L118.13,284.38L118.88,285.75L118.5,286.88L118.63,287.75L117.13,289.25L114.25,289.0L112.75,289.5L110.75,287.88L112.0,284.25L111.0,283.38L111.5,280.5L110.63,279.38L111.0,278.38L109.63,277.13L110.5,275.0L108.38,273.25L109.38,272.0L109.38,270.75L108.0,269.13L106.63,270.25L106.63,271.63L105.5,272.13L104.25,273.38L102.0,272.38L100.0,270.25L97.75,270.38L97.25,271.63L94.63,274.38L94.75,276.0L93.75,277.88L94.0,280.38L92.25,281.38L91.25,281.88L90.88,282.75L90.38,284.38L90.5,286.25L89.13,286.75L87.5,287.63L86.88,287.88L84.88,289.38L84.13,288.5L81.25,285.63L80.38,286.0L79.25,285.25L78.38,285.38L77.0,284.38L77.75,288.0L76.5,290.38L75.38,291.13L73.88,292.25L75.88,295.38L75.25,297.13L75.75,298.13L74.38,300.63L72.5,299.5Z" />
		<path id="L1611662205664" name="德宏傣族景颇族自治州" class="qing-map-1616134789537" d="M72.0,303.5L73.75,306.88L75.25,306.75L78.13,309.0L77.5,310.75L78.13,312.13L76.88,313.75L77.75,316.75L80.5,318.88L82.5,318.88L82.75,319.75L81.88,320.88L81.63,322.25L79.75,325.25L79.75,327.63L81.0,329.13L81.13,330.13L83.13,329.5L84.0,329.38L85.13,328.75L86.25,329.25L86.25,331.0L88.5,332.25L92.13,331.75L93.25,333.13L96.88,331.5L98.38,332.75L98.63,335.0L99.5,336.75L98.5,338.75L96.0,338.13L94.63,339.5L92.0,340.13L91.63,341.25L93.13,342.5L92.5,345.0L93.63,346.38L91.88,347.75L91.88,349.25L93.75,350.13L93.88,352.0L94.88,353.13L95.13,354.88L96.38,354.63L98.63,354.75L101.0,352.88L104.25,352.88L105.25,353.5L107.88,354.25L107.13,355.5L109.13,359.0L107.0,361.75L108.88,366.0L108.88,369.5L107.88,373.0L109.5,376.75L107.75,378.38L107.13,380.88L108.25,382.5L106.75,383.88L104.75,383.63L101.75,385.25L101.25,384.38L99.63,383.5L99.0,382.25L97.0,382.25L94.88,382.5L93.75,382.0L88.5,383.25L86.88,383.88L83.75,383.63L80.75,383.13L79.5,383.0L75.5,384.63L73.25,384.25L71.75,385.5L69.25,385.75L66.63,387.25L65.13,388.38L63.25,389.0L61.88,389.13L60.0,391.0L60.0,392.25L58.5,391.25L57.38,392.63L56.63,392.25L54.63,393.5L53.5,394.38L52.75,396.38L51.25,396.75L49.88,398.63L49.5,399.63L48.0,398.38L47.5,399.38L46.13,399.5L45.13,398.13L42.63,396.5L39.25,395.0L39.25,393.88L41.13,392.63L41.5,391.5L44.75,390.13L44.75,388.75L45.25,387.13L46.13,386.25L47.25,385.5L50.13,383.25L51.63,380.5L52.38,379.0L51.0,378.0L50.88,375.25L52.88,373.5L50.13,371.13L47.25,371.13L46.88,368.63L47.13,367.88L48.25,368.13L49.75,367.38L50.0,366.38L47.88,364.5L47.5,361.25L44.0,361.88L39.25,361.88L40.38,358.5L41.25,351.25L41.5,344.13L40.0,342.25L41.25,340.63L42.5,340.5L44.13,340.0L45.38,339.0L46.38,338.63L49.13,335.75L51.13,336.63L53.25,336.63L54.75,335.5L53.88,333.25L53.0,333.25L50.88,331.38L50.88,328.25L50.25,326.0L50.5,323.25L50.5,322.0L50.25,320.25L51.63,320.13L53.13,317.75L54.63,315.25L55.63,311.63L57.0,309.25L57.0,307.63L59.0,308.13L60.25,310.0L61.88,311.63L63.63,311.38L64.38,310.0L67.13,307.38L67.0,305.88L67.88,305.25L69.5,305.75L71.13,305.0L71.25,303.88Z" />
		<path id="L1611662936873" name="丽江市" class="qing-map-1616134789537" d="M258.25,199.38L258.88,197.38L257.0,197.13L256.75,195.5L253.63,193.75L252.5,193.75L251.0,192.5L252.38,187.88L251.88,187.0L253.38,181.75L250.13,180.5L247.75,181.38L245.75,179.38L245.75,177.88L244.75,176.38L245.13,174.63L243.63,173.5L244.38,171.5L243.25,170.63L240.38,165.88L240.75,164.63L239.38,163.0L237.5,162.5L238.0,160.25L236.63,157.63L235.0,155.0L234.13,153.38L232.75,153.63L234.25,151.5L233.5,150.75L234.25,149.63L233.38,148.88L231.38,148.88L230.38,148.13L230.0,145.0L229.13,143.88L228.63,142.88L226.13,141.5L225.88,138.88L226.75,137.25L225.75,136.63L225.75,135.63L224.13,132.88L222.63,133.88L221.88,133.38L220.38,135.88L220.38,137.0L217.25,139.38L214.88,139.5L214.13,138.13L212.75,137.5L210.13,136.63L209.88,137.63L208.88,138.38L208.5,139.75L207.0,142.13L206.25,144.0L204.88,144.13L204.0,146.25L202.38,145.25L200.75,147.75L201.63,150.0L199.63,152.63L200.13,154.38L198.88,155.13L198.88,157.13L197.13,159.0L195.63,160.38L194.63,162.75L197.13,166.63L196.88,169.0L198.25,171.13L197.75,174.13L196.63,174.5L190.25,182.5L188.13,183.63L187.5,187.0L189.0,190.63L188.25,192.0L188.88,193.0L187.5,196.63L187.38,198.75L186.25,200.88L182.38,203.0L181.5,200.5L181.75,197.25L182.5,196.5L181.38,195.13L181.38,194.25L180.75,193.63L178.25,190.5L178.0,189.13L176.0,188.38L173.88,183.88L172.88,183.88L172.38,181.88L171.5,181.38L169.38,180.63L167.13,177.88L166.88,176.88L164.5,175.38L164.63,174.25L163.38,172.5L164.13,170.5L162.25,168.5L160.63,166.13L161.5,164.88L160.0,164.13L158.5,161.13L159.13,159.38L158.0,158.38L158.0,157.0L154.88,158.63L154.88,160.75L153.0,161.88L149.63,162.5L149.88,164.88L149.5,166.13L150.13,167.0L150.25,169.0L151.38,171.25L149.38,174.13L149.25,176.13L150.25,179.0L148.0,180.13L149.38,181.75L149.63,183.88L151.13,184.38L151.25,185.63L150.63,186.63L151.5,191.63L153.0,192.75L153.25,194.38L154.38,195.63L154.0,196.88L155.25,198.38L156.38,200.0L158.88,200.63L158.13,202.13L158.63,203.63L159.38,204.13L159.13,205.0L160.0,205.5L159.38,207.63L160.38,211.13L161.13,212.38L161.0,214.13L163.38,215.38L166.38,216.88L167.0,219.38L168.5,219.38L172.25,217.75L174.38,219.25L178.13,219.25L178.13,218.0L180.13,218.38L181.25,220.0L183.25,220.38L185.63,221.88L187.88,220.5L187.13,219.38L187.63,217.63L190.25,219.5L192.25,220.25L194.13,219.0L196.25,215.13L198.5,214.38L198.25,216.38L199.25,218.0L201.63,217.38L202.0,218.75L204.63,219.38L204.25,220.63L206.0,221.5L205.38,222.75L208.13,223.13L208.88,224.88L210.88,224.63L210.63,227.13L212.13,227.88L209.5,228.5L210.75,232.38L212.25,232.0L213.63,232.75L213.63,234.13L210.88,233.63L210.75,235.38L209.75,236.38L210.0,238.0L209.13,239.25L207.63,240.25L208.5,241.63L209.0,244.13L210.38,246.5L208.63,248.38L209.63,251.38L212.25,251.0L213.63,252.63L212.63,253.75L212.5,255.75L213.25,259.13L215.76,258.63L217.5,259.5L217.38,260.88L219.38,260.75L221.38,259.88L222.63,260.63L223.88,260.25L222.75,257.38L222.38,254.25L225.63,250.25L229.38,249.0L229.38,247.63L230.75,247.88L231.75,247.25L233.25,247.5L233.38,248.63L235.63,250.0L238.0,249.13L239.13,246.38L243.13,243.25L245.75,241.88L246.63,240.0L248.25,239.5L250.38,237.75L253.0,237.5L255.13,236.13L256.75,236.63L258.38,236.25L260.13,236.38L263.63,235.25L265.0,234.5L268.25,234.75L269.25,232.88L271.25,232.13L271.38,231.0L269.75,229.88L270.5,227.38L269.25,226.5L269.38,225.25L268.25,225.0L266.38,223.13L267.0,222.13L266.75,220.75L269.88,220.38L270.13,217.88L271.5,215.63L270.0,213.75L271.0,212.38L272.38,212.0L272.13,210.88L273.38,210.63L271.0,208.5L269.63,209.5L270.13,211.0L269.75,211.88L269.0,211.38L268.13,212.25L266.38,212.5L266.25,210.63L265.63,210.5L265.0,209.38L265.5,208.5L265.63,207.0L267.13,204.88L265.0,203.13L265.0,201.88L262.5,201.88L261.63,200.5L260.0,201.12Z" />
		<path id="L1611663686798" name="大理白族自治州" class="qing-map-1616134789537" d="M184.63,323.0L187.13,322.13L186.5,320.0L186.25,318.38L183.5,318.75L183.0,316.5L181.25,315.0L180.63,312.5L176.13,313.75L176.13,315.0L174.25,317.25L174.0,319.63L169.5,319.75L168.63,321.38L166.63,322.13L165.38,321.25L163.88,320.75L161.75,318.63L159.75,318.38L158.0,316.88L155.0,317.5L149.63,311.75L147.38,307.38L145.13,306.25L142.75,301.88L142.75,300.5L142.75,297.88L145.5,298.5L145.63,296.88L146.13,295.75L144.88,293.0L144.75,292.0L143.13,291.75L141.5,289.88L139.5,289.75L136.75,291.88L135.13,291.0L134.38,292.63L132.25,294.63L129.75,294.5L128.5,291.88L129.88,290.63L128.88,288.63L126.38,288.75L125.75,287.5L126.5,286.0L125.75,284.25L122.0,283.75L120.5,284.5L118.13,284.38L119.0,283.0L118.5,281.63L118.25,278.25L119.5,277.25L118.13,276.75L117.38,275.5L118.25,274.13L120.25,274.38L120.5,276.0L122.5,276.0L126.13,278.25L127.25,277.0L128.38,277.13L128.5,276.13L126.63,274.38L127.25,273.63L127.13,271.88L129.13,271.88L129.0,273.38L129.88,274.63L131.0,274.13L133.25,273.75L129.0,262.38L127.75,262.88L125.88,262.75L126.13,258.25L125.38,256.5L125.88,255.0L126.0,252.25L127.25,250.75L128.38,249.5L131.13,249.88L131.88,251.88L133.63,251.38L135.5,252.13L136.75,253.25L137.5,252.38L136.25,251.75L135.13,249.63L137.38,247.63L141.63,244.75L143.5,244.88L144.63,243.25L143.5,241.75L144.63,238.88L146.25,239.13L149.0,237.38L150.38,237.75L151.88,236.75L152.88,235.5L156.38,230.88L155.25,228.5L155.25,224.63L154.63,223.75L154.5,222.38L160.75,219.25L162.25,218.75L162.25,216.63L163.38,215.38L166.38,216.88L167.0,219.38L168.5,219.38L172.25,217.75L174.38,219.25L178.13,219.25L178.13,218.0L180.13,218.38L181.25,220.0L183.25,220.38L185.63,221.88L187.88,220.5L187.13,219.38L187.63,217.63L190.25,219.5L192.25,220.25L194.13,219.0L196.25,215.13L198.5,214.38L198.25,216.38L199.25,218.0L201.63,217.38L202.0,218.75L204.63,219.38L204.25,220.63L206.0,221.5L205.38,222.75L208.13,223.13L208.88,224.88L210.88,224.63L210.63,227.13L212.13,227.88L209.5,228.5L210.75,232.38L212.25,232.0L213.63,232.75L213.63,234.13L210.88,233.63L210.75,235.38L209.75,236.38L210.0,238.0L209.13,239.25L207.63,240.25L208.5,241.63L209.0,244.13L210.38,246.5L208.63,248.38L209.63,251.38L212.25,251.0L213.63,252.63L212.63,253.75L212.5,255.75L213.25,259.13L215.76,258.63L217.5,259.5L217.38,260.88L219.38,260.75L221.38,259.88L222.63,260.63L223.88,260.25L222.75,257.38L222.38,254.25L225.63,250.25L229.38,249.0L229.38,247.63L230.75,247.88L231.75,247.25L233.25,247.5L233.38,248.63L235.63,250.0L238.0,249.13L238.63,250.38L238.5,252.75L238.13,256.38L239.88,257.75L237.63,260.25L238.38,261.88L240.38,262.13L241.25,263.63L240.5,266.88L238.88,267.63L239.63,268.38L237.13,271.5L238.75,273.25L239.0,274.38L241.63,277.5L239.5,279.75L241.0,282.13L242.75,282.88L243.25,288.63L241.0,289.0L240.38,291.0L239.75,294.25L240.5,295.5L240.38,296.88L242.0,298.13L245.13,298.75L244.88,300.88L245.63,302.38L243.13,302.63L242.0,304.38L241.0,305.25L242.38,307.75L242.0,308.88L239.88,308.75L239.0,309.75L237.38,309.5L234.75,308.5L232.75,307.13L233.38,308.88L232.88,310.5L232.75,312.5L230.38,312.13L230.0,313.63L228.63,315.63L229.13,316.75L228.63,318.25L229.75,320.13L229.38,321.88L228.38,322.13L230.38,325.0L227.25,326.5L226.5,327.75L227.5,328.25L228.13,329.5L229.38,330.13L229.25,331.88L227.75,333.13L228.13,335.88L229.38,336.75L228.13,337.88L228.38,339.5L226.75,339.38L225.88,338.5L222.0,337.0L221.5,341.38L218.13,344.63L216.63,344.0L214.75,343.38L214.13,342.38L212.13,342.63L211.25,343.5L210.63,342.63L208.5,344.38L205.5,342.0L204.25,341.88L202.75,341.13L198.63,342.25L195.88,342.38L192.75,344.38L191.25,347.5L190.25,346.63L190.25,344.13L193.5,339.38L193.5,337.0L195.0,334.25L195.13,332.63L196.25,330.38L196.88,327.88L195.0,326.38L193.25,326.88L190.63,326.13L188.88,327.0L187.63,329.25L185.75,328.13Z" />
		<path id="L1611666214800" name="临沧市" class="qing-map-1616134789537" d="M118.13,380.5L120.38,378.38L122.63,378.25L126.13,376.63L127.13,375.38L128.75,375.38L131.0,374.63L132.25,373.25L134.88,371.25L136.13,369.88L136.75,368.88L137.88,368.38L138.0,366.25L141.0,362.0L143.38,361.75L145.25,365.38L146.25,366.88L146.0,369.0L147.13,370.13L146.5,372.0L146.88,374.88L150.0,375.5L151.38,374.38L152.5,374.5L153.63,373.25L153.88,371.38L155.0,369.63L157.38,368.88L160.13,366.88L161.25,363.38L163.63,360.88L165.38,361.25L165.5,358.88L166.63,357.0L165.25,353.75L163.88,353.63L164.25,352.13L165.75,351.75L165.75,349.88L168.5,349.0L168.25,347.75L169.38,346.0L172.75,345.13L173.25,341.88L170.88,339.25L172.88,337.88L174.13,336.38L173.38,334.38L176.63,331.5L175.25,329.38L176.88,327.88L179.25,325.38L181.75,325.0L184.63,323.0L185.75,328.13L187.63,329.25L188.88,327.0L190.63,326.13L193.25,326.88L195.0,326.38L196.88,327.88L196.25,330.38L195.13,332.63L195.0,334.25L193.5,337.0L193.5,339.38L190.25,344.13L190.25,346.63L191.25,347.5L192.75,344.38L195.88,342.38L198.63,342.25L202.75,341.13L204.25,341.88L205.5,342.0L208.5,344.38L208.0,346.13L209.38,346.38L209.25,348.5L212.75,352.13L213.88,354.38L214.0,356.25L215.88,357.5L216.0,358.75L216.88,360.5L215.0,360.63L214.13,362.38L214.5,367.63L213.75,368.38L214.63,369.5L214.63,372.88L214.0,374.13L215.13,375.38L215.0,379.75L213.63,383.75L211.38,385.5L206.88,385.88L205.63,387.38L206.5,389.0L206.5,390.5L207.38,391.25L207.5,393.0L209.13,395.38L208.25,398.13L205.13,399.75L206.0,401.25L205.5,402.88L206.13,404.63L205.13,406.25L207.25,407.88L207.13,410.0L210.0,412.25L208.88,412.75L206.63,414.88L203.0,414.88L201.38,413.38L199.63,414.0L198.13,415.5L197.25,414.88L195.5,415.13L195.63,417.0L193.63,423.88L192.38,426.0L190.88,426.5L190.75,428.0L190.88,429.75L189.0,432.13L188.88,434.38L189.63,436.75L188.63,440.0L186.13,440.75L184.0,440.0L183.0,439.88L180.63,438.38L178.25,438.38L175.63,441.13L173.25,441.5L168.63,439.63L166.75,439.25L165.25,438.38L163.38,440.5L161.63,442.38L163.0,444.5L162.25,444.75L160.5,443.63L158.0,445.0L156.88,446.75L155.13,446.88L155.75,449.38L154.0,448.88L151.75,449.38L148.13,448.0L145.13,446.0L144.38,447.63L143.0,448.25L141.38,447.63L140.88,449.25L139.63,449.5L137.63,448.13L134.75,447.75L132.5,448.0L131.5,448.88L130.38,447.63L128.5,446.88L128.25,444.88L128.0,444.38L125.75,444.25L120.38,442.5L119.38,442.88L119.0,441.25L120.38,439.5L119.88,438.5L121.0,437.63L121.0,436.25L121.75,434.88L119.88,432.88L119.63,431.88L120.63,431.88L120.63,430.0L120.0,428.25L120.25,427.25L119.25,425.88L119.5,425.13L118.13,423.25L115.63,424.25L114.0,420.25L116.0,418.13L117.13,417.25L118.0,417.25L119.13,416.25L119.13,415.13L116.63,413.25L116.25,410.88L115.0,410.0L115.38,407.88L113.38,404.5L111.13,404.75L109.5,403.88L107.5,404.13L107.38,403.25L108.0,401.0L107.5,399.88L107.63,398.88L106.88,395.88L107.88,393.63L106.75,392.88L107.75,391.25L109.63,392.38L111.88,390.5L111.75,389.25L112.5,388.25L113.63,388.75L114.88,387.13L117.63,386.0L117.88,384.75L119.75,383.38Z" />
		<path id="L1611667306739" name="楚雄彝族自治州" class="qing-map-1616134789537" d="M270.5,227.38L269.75,229.88L271.38,231.0L271.25,232.13L269.25,232.88L268.25,234.75L265.0,234.5L263.63,235.25L260.13,236.38L258.38,236.25L256.75,236.63L255.13,236.13L253.0,237.5L250.38,237.75L248.25,239.5L246.63,240.0L245.75,241.88L243.13,243.25L239.13,246.38L238.0,249.13L238.63,250.38L238.5,252.75L238.13,256.38L239.88,257.75L237.63,260.25L238.38,261.88L240.38,262.13L241.25,263.63L240.5,266.88L238.88,267.63L239.63,268.38L237.13,271.5L238.75,273.25L239.0,274.38L241.63,277.5L239.5,279.75L241.0,282.13L242.75,282.88L243.25,288.63L241.0,289.0L240.38,291.0L239.75,294.25L240.5,295.5L240.38,296.88L242.0,298.13L245.13,298.75L244.88,300.88L245.63,302.38L243.13,302.63L242.0,304.38L241.0,305.25L242.38,307.75L242.0,308.88L239.88,308.75L239.0,309.75L237.38,309.5L234.75,308.5L232.75,307.13L233.38,308.88L232.88,310.5L232.75,312.5L230.38,312.13L230.0,313.63L228.63,315.63L229.13,316.75L228.63,318.25L229.75,320.13L229.38,321.88L228.38,322.13L230.38,325.0L227.25,326.5L226.5,327.75L227.5,328.25L228.13,329.5L229.38,330.13L229.25,331.88L227.75,333.13L228.13,335.88L229.38,336.75L228.13,337.88L228.38,339.5L229.63,340.75L229.5,341.5L230.88,343.25L232.75,342.5L236.25,343.13L237.5,341.75L238.25,343.25L239.75,342.88L240.13,346.75L241.88,348.63L242.88,351.13L244.13,352.13L244.5,353.63L245.5,354.0L245.25,355.63L245.88,356.63L245.75,357.75L247.5,359.38L248.13,361.38L250.5,363.5L250.63,364.75L252.38,365.38L252.88,367.25L255.0,368.88L257.63,371.0L259.38,371.13L260.63,369.25L262.63,369.38L263.0,368.0L265.5,366.63L265.75,365.0L265.0,364.25L266.25,362.88L267.88,364.38L269.13,364.5L269.63,367.88L270.75,369.63L270.63,371.5L271.63,372.38L271.38,374.38L272.88,375.88L277.5,374.13L278.5,371.38L280.0,369.5L281.88,366.25L284.38,368.38L287.63,369.88L288.63,371.5L290.0,370.75L292.0,370.25L290.63,372.5L292.13,374.5L294.75,374.38L295.63,374.63L296.88,373.0L298.0,373.38L299.25,372.38L300.38,372.5L302.0,371.0L301.88,369.5L303.75,366.5L303.38,364.13L301.75,364.0L302.88,362.5L302.38,361.13L302.5,359.63L300.25,360.5L298.88,358.5L297.0,356.88L296.25,355.63L296.75,355.13L295.75,353.25L298.88,352.25L298.0,350.0L296.63,349.63L296.63,348.63L298.0,348.13L299.5,344.75L298.13,344.13L298.25,341.88L300.0,339.25L301.0,339.0L301.38,337.5L302.13,337.5L302.75,336.25L301.75,334.38L306.13,334.5L306.88,332.88L309.0,330.88L309.63,328.5L312.25,330.75L315.75,331.13L315.25,329.63L316.75,326.63L316.0,326.13L314.88,325.5L313.5,325.5L312.38,323.88L312.88,322.88L312.0,321.75L313.88,319.75L314.0,321.0L315.63,322.0L315.63,322.88L317.38,323.0L320.38,321.0L322.38,321.25L322.13,319.88L324.0,317.88L323.0,315.5L324.5,312.25L326.13,311.63L326.5,309.0L324.25,307.25L323.5,304.75L323.88,303.5L322.5,302.5L323.38,300.63L325.13,300.25L325.5,301.38L327.63,300.5L327.75,299.5L329.0,298.25L328.88,297.13L330.25,296.0L330.38,293.63L329.13,292.38L329.25,290.75L328.13,289.63L328.63,287.75L327.5,287.63L324.5,285.63L323.88,283.13L324.63,282.0L324.5,279.63L322.63,277.63L323.38,274.0L324.5,273.5L323.88,272.75L324.0,271.0L322.0,270.13L321.0,267.63L322.0,264.5L320.88,263.0L321.63,260.88L321.63,259.63L322.25,258.0L322.5,255.13L320.25,254.0L318.88,252.25L317.25,251.75L317.25,250.38L315.88,248.0L314.13,249.5L312.5,250.25L311.0,253.0L309.75,253.13L309.38,254.13L308.75,254.5L307.88,256.0L306.38,255.88L304.38,254.75L304.25,254.13L301.88,253.88L299.5,254.38L297.25,252.75L295.75,253.38L294.13,256.5L292.5,256.88L292.5,254.5L291.88,254.38L290.13,252.5L290.13,250.75L291.38,249.5L288.88,248.63L286.63,245.63L284.88,245.38L284.13,244.0L282.5,244.88L281.63,244.38L280.75,245.0L279.5,244.38L279.88,243.38L278.5,242.88L278.25,240.25L280.88,239.13L282.13,237.25L280.38,236.63L280.75,234.63L277.63,231.88L276.0,229.5L274.38,229.25L273.38,227.25Z" />
		<path id="L1611713662096" name="普洱市" class="qing-map-1616134789537" d="M259.38,371.13L257.63,371.0L255.0,368.88L252.88,367.25L252.38,365.38L250.63,364.75L250.5,363.5L248.13,361.38L247.5,359.38L245.75,357.75L245.88,356.63L245.25,355.63L245.5,354.0L244.5,353.63L244.13,352.13L242.88,351.13L241.88,348.63L240.13,346.75L239.75,342.88L238.25,343.25L237.5,341.75L236.25,343.13L232.75,342.5L230.88,343.25L229.5,341.5L229.63,340.75L228.38,339.5L226.75,339.38L225.88,338.5L222.0,337.0L221.5,341.38L218.13,344.63L216.63,344.0L214.75,343.38L214.13,342.38L212.13,342.63L211.25,343.5L210.63,342.63L208.5,344.38L208.0,346.13L209.38,346.38L209.25,348.5L212.75,352.13L213.88,354.38L214.0,356.25L215.88,357.5L216.0,358.75L216.88,360.5L215.0,360.63L214.13,362.38L214.5,367.63L213.75,368.38L214.63,369.5L214.63,372.88L214.0,374.13L215.13,375.38L215.0,379.75L213.63,383.75L211.38,385.5L206.88,385.88L205.63,387.38L206.5,389.0L206.5,390.5L207.38,391.25L207.5,393.0L209.13,395.38L208.25,398.13L205.13,399.75L206.0,401.25L205.5,402.88L206.13,404.63L205.13,406.25L207.25,407.88L207.13,410.0L210.0,412.25L208.88,412.75L206.63,414.88L203.0,414.88L201.38,413.38L199.63,414.0L198.13,415.5L197.25,414.88L195.5,415.13L195.63,417.0L193.63,423.88L192.38,426.0L190.88,426.5L190.75,428.0L190.88,429.75L189.0,432.13L188.88,434.38L189.63,436.75L188.63,440.0L186.13,440.75L184.0,440.0L183.0,439.88L180.63,438.38L178.25,438.38L175.63,441.13L173.25,441.5L168.63,439.63L166.75,439.25L165.25,438.38L163.38,440.5L161.63,442.38L163.0,444.5L162.25,444.75L160.5,443.63L158.0,445.0L156.88,446.75L155.13,446.88L155.75,449.38L156.25,451.63L155.38,453.25L157.13,456.38L157.13,457.13L158.5,458.13L158.0,460.38L156.75,460.75L152.25,458.75L151.5,459.13L151.63,460.75L152.63,464.13L150.13,465.5L148.88,466.13L148.5,469.63L145.25,470.38L144.38,471.25L144.75,472.63L146.25,475.38L146.63,476.38L147.25,479.5L148.13,481.5L146.88,484.63L147.38,485.75L148.0,487.13L145.25,489.88L144.38,490.38L142.75,492.38L141.63,493.13L140.25,493.5L141.63,494.63L142.0,496.0L141.5,497.0L140.5,497.75L139.88,498.0L139.13,499.25L139.13,501.13L139.38,501.88L138.75,502.88L137.75,503.75L135.88,506.0L136.13,507.13L136.0,507.88L134.63,508.13L137.75,510.25L141.63,512.0L142.5,511.25L144.63,512.5L147.0,511.75L150.13,512.0L150.88,511.13L152.0,511.0L153.63,509.75L155.88,511.75L158.5,511.0L159.5,511.75L160.25,511.25L161.25,512.25L163.13,512.0L165.25,513.5L165.88,513.5L166.13,515.5L167.38,515.75L167.88,514.25L169.0,514.13L170.5,514.13L171.5,514.88L172.88,514.88L175.13,516.38L177.13,516.38L176.38,514.63L177.5,514.0L179.88,514.63L180.75,514.5L182.25,515.38L184.13,512.63L184.25,511.13L186.88,510.13L188.25,508.13L188.13,507.0L189.5,503.63L189.88,502.13L191.75,502.88L194.38,503.0L196.25,501.13L195.63,500.25L197.0,499.63L200.0,499.75L204.88,502.88L206.63,501.0L206.63,497.88L207.5,496.75L207.5,494.5L206.5,494.13L207.0,492.13L207.88,492.38L209.0,490.75L210.5,491.13L211.5,489.75L214.5,489.0L218.25,489.13L219.5,490.25L221.13,489.63L220.38,488.0L221.0,486.75L223.0,486.75L223.38,485.0L224.75,484.88L226.25,485.13L228.75,482.13L232.25,481.38L233.38,482.5L235.38,481.75L236.0,483.38L237.13,483.38L237.25,482.38L239.75,481.0L241.25,482.13L242.5,480.88L243.88,481.75L244.88,480.5L249.25,483.63L251.88,483.63L253.0,483.0L255.5,484.38L257.13,484.25L257.88,483.38L258.63,484.25L259.88,483.63L261.13,484.5L264.0,482.88L269.0,481.25L270.63,484.25L272.25,488.88L273.38,490.38L273.38,492.63L275.88,494.13L275.75,496.88L278.0,497.0L279.38,496.5L281.5,496.5L281.63,495.25L282.75,494.63L281.75,493.13L281.63,492.13L282.25,491.63L282.75,488.13L284.63,488.25L286.5,486.88L288.38,486.0L292.0,489.5L291.88,491.0L294.63,493.88L295.88,494.0L297.0,492.75L297.0,490.63L299.13,490.5L300.0,491.0L301.63,491.0L303.5,489.25L305.88,489.75L308.13,490.13L309.38,490.63L310.0,492.5L310.63,493.0L311.13,491.38L313.25,490.88L316.0,491.13L317.13,491.75L317.63,491.0L316.88,489.25L318.13,488.13L318.63,486.63L321.0,483.25L319.38,481.75L318.63,479.25L317.38,479.63L314.63,478.25L313.5,478.88L310.75,478.25L308.25,476.88L307.13,476.88L305.38,473.88L305.5,472.0L301.38,467.38L299.88,467.38L298.5,465.88L297.25,466.0L296.13,467.38L291.88,464.88L290.5,462.25L293.75,459.63L293.25,456.0L294.5,455.5L294.38,453.25L296.0,452.88L296.88,453.75L300.25,453.63L300.38,455.13L303.13,455.38L305.38,452.38L305.63,451.0L304.5,450.13L306.0,447.88L304.5,447.5L304.13,445.75L301.63,444.75L300.75,442.5L298.5,445.0L297.38,444.38L295.5,445.0L292.0,443.5L292.75,440.63L292.13,440.0L292.0,438.13L294.75,437.5L295.63,435.75L294.5,434.88L294.75,433.5L292.63,431.88L291.5,431.88L291.5,430.5L289.13,429.88L287.75,429.88L287.13,427.38L288.25,427.63L289.5,425.63L287.75,421.5L286.25,421.88L285.0,419.5L285.88,418.13L282.63,415.63L282.25,414.5L284.38,412.13L283.25,410.75L280.38,413.13L277.13,410.38L276.5,411.13L275.25,410.25L275.25,408.25L276.88,407.63L274.88,404.38L273.63,404.63L271.88,404.63L270.63,406.5L270.75,407.75L268.38,407.63L267.13,405.88L268.38,404.25L268.0,402.38L266.88,401.13L269.5,399.88L271.13,400.0L274.0,395.75L273.25,393.75L272.25,393.13L269.5,388.75L267.63,387.63L267.38,385.5L265.63,383.38L265.63,381.75L263.88,380.75L263.13,376.75Z" />
		<path id="L1611714538084" name="西双版纳傣族自治州" class="qing-map-1616134789537" d="M182.25,515.38L184.13,512.63L184.25,511.13L186.88,510.13L188.25,508.13L188.13,507.0L189.5,503.63L189.88,502.13L191.75,502.88L194.38,503.0L196.25,501.13L195.63,500.25L197.0,499.63L200.0,499.75L204.88,502.88L206.63,501.0L206.63,497.88L207.5,496.75L207.5,494.5L206.5,494.13L207.0,492.13L207.88,492.38L209.0,490.75L210.5,491.13L211.5,489.75L214.5,489.0L218.25,489.13L219.5,490.25L221.13,489.63L220.38,488.0L221.0,486.75L223.0,486.75L223.38,485.0L224.75,484.88L226.25,485.13L228.75,482.13L232.25,481.38L233.38,482.5L235.38,481.75L236.0,483.38L237.13,483.38L237.25,482.38L239.75,481.0L241.25,482.13L242.5,480.88L243.88,481.75L244.88,480.5L249.25,483.63L251.88,483.63L253.0,483.0L255.5,484.38L257.13,484.25L257.88,483.38L258.63,484.25L259.88,483.63L261.13,484.5L264.0,482.88L269.0,481.25L270.63,484.25L272.25,488.88L273.38,490.38L273.38,492.63L275.88,494.13L275.75,496.88L278.0,497.0L279.38,496.5L281.5,496.5L280.38,499.0L280.13,500.5L278.25,501.25L276.88,500.88L275.88,503.13L276.88,504.63L276.88,505.88L278.5,508.13L278.5,510.0L277.63,510.38L277.5,511.5L279.63,515.38L279.5,519.63L282.63,522.38L284.13,521.75L284.63,523.38L284.25,524.5L285.13,525.75L286.75,526.63L286.75,527.75L288.88,529.13L288.25,531.75L288.0,533.25L287.38,534.0L287.5,535.88L288.75,536.75L288.88,539.88L289.38,541.25L290.63,540.75L291.25,542.0L292.5,542.75L291.5,544.63L290.13,545.38L287.5,544.88L287.38,545.5L288.0,546.38L287.63,547.25L289.13,549.38L286.75,551.13L287.75,553.88L287.13,554.5L286.75,557.25L287.13,557.88L286.13,559.5L287.0,562.13L288.38,563.5L290.25,563.38L291.13,565.13L292.88,565.63L292.63,566.88L292.38,569.13L290.5,568.5L289.63,569.38L288.5,572.5L285.5,572.5L284.0,572.25L284.38,571.0L282.75,568.88L281.25,569.5L278.38,570.63L277.63,570.13L279.13,567.5L278.75,566.88L273.38,565.75L272.13,566.25L270.38,567.5L266.0,567.5L262.5,569.88L261.5,569.75L260.38,570.38L259.0,569.25L257.38,568.25L257.38,567.75L256.25,566.63L257.75,564.13L257.38,562.5L254.0,560.75L254.0,559.88L252.5,557.75L251.63,555.63L253.5,555.5L254.63,554.75L254.5,551.63L255.25,549.88L255.13,548.38L255.63,547.5L255.38,546.5L253.38,546.25L251.88,545.88L251.75,544.5L252.75,544.25L253.25,543.63L252.63,542.63L252.63,541.13L249.88,537.75L250.0,536.0L249.63,534.38L250.13,532.63L248.38,532.75L245.0,535.38L244.13,537.0L242.63,537.0L242.0,537.63L239.63,537.5L238.5,538.38L236.63,538.38L234.13,541.63L231.88,543.13L231.13,545.5L230.25,545.75L229.38,546.75L228.88,547.0L227.25,549.38L225.5,549.5L224.0,551.25L222.63,551.25L220.25,552.5L218.25,553.38L215.63,552.0L212.63,552.88L209.63,547.88L207.0,548.63L205.13,547.88L202.0,551.38L201.0,551.13L199.63,552.13L198.25,552.13L196.38,549.38L195.13,548.88L194.38,550.88L191.88,549.25L191.5,546.88L191.5,545.75L190.38,543.75L192.25,542.5L192.13,541.5L194.25,540.13L192.13,537.63L190.25,537.13L186.88,538.63L186.25,537.88L183.88,536.88L183.13,534.5L182.63,533.0L181.0,529.5L181.0,527.0L182.38,525.5L182.13,523.88L183.38,523.0L183.25,522.13L184.25,520.13L182.38,517.13Z" />
		<path id="L1611715026657" name="昆明市" class="qing-map-1616134789537" d="M315.88,248.0L317.25,250.38L317.25,251.75L318.88,252.25L320.25,254.0L322.5,255.13L322.25,258.0L321.63,259.63L321.63,260.88L320.88,263.0L322.0,264.5L321.0,267.63L322.0,270.13L324.0,271.0L323.88,272.75L324.5,273.5L323.38,274.0L322.63,277.63L324.5,279.63L324.63,282.0L323.88,283.13L324.5,285.63L327.5,287.63L328.63,287.75L328.13,289.63L329.25,290.75L329.13,292.38L330.38,293.63L330.25,296.0L328.88,297.13L329.0,298.25L327.75,299.5L327.63,300.5L325.5,301.38L325.13,300.25L323.38,300.63L322.5,302.5L323.88,303.5L323.5,304.75L324.25,307.25L326.5,309.0L326.13,311.63L324.5,312.25L323.0,315.5L324.0,317.88L322.13,319.88L322.38,321.25L320.38,321.0L317.38,323.0L315.63,322.88L315.63,322.0L314.0,321.0L313.88,319.75L312.0,321.75L312.88,322.88L312.38,323.88L313.5,325.5L314.88,325.5L316.0,326.13L316.75,326.63L315.25,329.63L315.75,331.13L317.0,330.88L318.0,333.0L318.75,333.25L318.75,335.0L319.5,338.13L319.0,339.0L319.13,340.25L319.0,343.88L319.0,345.25L319.0,346.38L318.63,350.75L319.5,352.25L317.88,354.5L314.25,357.13L314.38,359.0L316.63,361.38L320.13,362.75L319.0,364.0L320.13,365.0L323.75,363.63L323.0,361.5L324.13,361.13L324.63,358.63L325.88,357.88L327.0,359.25L329.0,357.0L331.13,357.63L332.0,356.25L333.5,356.75L335.5,355.25L337.25,355.88L337.0,357.5L338.25,358.5L341.5,357.75L342.88,360.13L346.38,359.0L347.13,359.38L347.63,358.25L350.13,357.13L348.5,355.75L349.13,353.38L349.0,351.63L350.25,350.63L349.38,349.25L351.0,348.25L350.75,346.63L352.25,345.13L351.75,341.75L353.88,341.5L356.13,340.13L355.25,338.25L356.0,334.38L358.38,334.25L359.25,332.5L360.13,332.88L360.88,332.25L360.88,331.0L363.0,334.25L362.38,337.88L361.63,338.75L362.25,341.13L363.13,340.38L365.38,341.25L363.38,345.75L362.75,348.63L363.75,351.38L363.38,353.63L365.38,354.0L367.5,353.88L367.63,357.0L369.63,356.13L374.5,356.38L375.25,355.38L376.13,355.0L375.63,352.13L377.5,351.0L377.25,347.88L378.13,347.63L379.13,348.88L382.25,350.38L382.88,351.5L385.75,352.63L387.5,354.0L389.38,354.0L389.75,355.13L388.63,356.63L388.75,357.75L392.13,356.25L392.88,354.25L394.5,353.88L397.88,350.75L397.5,348.63L398.5,348.0L397.88,346.75L400.0,342.75L400.25,341.13L399.25,339.63L400.0,337.75L399.25,336.13L399.38,333.38L397.0,333.13L395.5,332.88L395.0,335.13L393.13,334.25L391.88,335.88L390.13,336.5L387.25,332.5L386.88,330.13L388.25,329.0L388.13,325.63L386.63,324.13L387.0,323.25L384.88,322.63L386.38,320.5L387.63,320.5L389.75,318.38L388.5,317.38L389.25,315.88L388.0,315.13L387.88,314.13L385.13,313.13L384.63,315.25L380.63,314.5L379.88,316.38L379.13,314.0L377.88,313.25L378.25,312.13L376.13,310.88L376.88,308.5L378.25,308.38L378.13,306.5L378.88,305.88L379.63,304.13L378.13,304.0L376.88,303.13L378.5,298.75L380.38,298.38L382.38,295.88L382.0,293.5L386.13,293.5L386.25,292.25L385.25,290.5L386.0,289.5L386.25,288.0L389.25,289.13L391.25,287.63L392.13,288.0L393.25,287.25L391.75,285.75L390.63,285.75L389.63,283.38L391.13,281.38L390.75,280.0L391.75,278.75L390.88,276.75L393.5,274.0L392.5,272.13L391.5,272.38L390.25,271.75L389.0,271.88L388.13,269.13L385.88,270.88L384.13,271.13L382.88,269.75L382.13,270.13L381.0,269.25L379.75,270.63L378.25,269.75L377.75,267.13L378.88,266.13L378.75,263.75L377.75,263.38L378.0,261.75L377.5,260.25L378.88,256.63L376.63,254.25L376.63,253.13L375.25,249.75L375.88,248.38L373.25,245.63L372.13,245.63L371.63,247.0L369.75,245.38L369.63,244.13L367.38,243.0L367.25,240.63L366.63,239.5L366.63,235.75L365.75,234.13L365.0,228.0L364.38,226.13L363.0,228.0L360.5,228.25L360.5,230.25L360.5,232.0L360.13,233.25L360.75,235.75L359.75,237.25L357.63,237.5L356.5,237.5L354.5,237.5L354.0,236.25L352.13,238.5L351.0,239.63L348.38,240.38L347.5,241.25L345.5,242.63L344.5,243.88L344.13,245.75L342.88,246.0L341.63,246.38L340.75,245.25L337.63,243.63L338.0,241.63L339.5,240.13L339.0,238.25L336.75,237.25L335.0,236.25L334.13,236.5L333.5,237.63L327.63,240.38L325.0,240.63L323.13,243.63L319.13,245.38L316.75,245.75Z" />
		<path id="L1611715671750" name="玉溪市" class="qing-map-1616134789537" d="M367.63,357.0L367.5,353.88L365.38,354.0L363.38,353.63L363.75,351.38L362.75,348.63L363.38,345.75L365.38,341.25L363.13,340.38L362.25,341.13L361.63,338.75L362.38,337.88L363.0,334.25L360.88,331.0L360.88,332.25L360.13,332.88L359.25,332.5L358.38,334.25L356.0,334.38L355.25,338.25L356.13,340.13L353.88,341.5L351.75,341.75L352.25,345.13L350.75,346.63L351.0,348.25L349.38,349.25L350.25,350.63L349.0,351.63L349.13,353.38L348.5,355.75L350.13,357.13L347.63,358.25L347.13,359.38L346.38,359.0L342.88,360.13L341.5,357.75L338.25,358.5L337.0,357.5L337.25,355.88L335.5,355.25L333.5,356.75L332.0,356.25L331.13,357.63L329.0,357.0L327.0,359.25L325.88,357.88L324.63,358.63L324.13,361.13L323.0,361.5L323.75,363.63L320.13,365.0L319.0,364.0L320.13,362.75L316.63,361.38L314.38,359.0L314.25,357.13L317.88,354.5L319.5,352.25L318.63,350.75L319.0,346.38L319.0,345.25L319.0,343.88L319.13,340.25L319.0,339.0L319.5,338.13L318.75,335.0L318.75,333.25L317.5,333.25L317.0,330.88L315.75,331.13L312.25,330.75L309.63,328.5L309.0,330.88L306.88,332.88L306.13,334.5L301.75,334.38L302.75,336.25L302.13,337.5L301.38,337.5L301.0,339.0L300.0,339.25L298.25,341.88L298.13,344.13L299.5,344.75L298.0,348.13L296.63,348.63L296.63,349.63L298.0,350.0L298.88,352.25L295.75,353.25L296.75,355.13L296.25,355.63L297.0,356.88L298.88,358.5L300.25,360.5L302.5,359.63L302.38,361.13L302.88,362.5L301.75,364.0L303.38,364.13L303.75,366.5L301.88,369.5L302.0,371.0L300.38,372.5L299.25,372.38L298.0,373.38L296.88,373.0L295.63,374.63L294.75,374.38L292.13,374.5L290.63,372.5L292.0,370.25L290.0,370.75L288.63,371.5L287.63,369.88L284.38,368.38L281.88,366.25L280.0,369.5L278.5,371.38L277.5,374.13L272.88,375.88L271.38,374.38L271.63,372.38L270.63,371.5L270.75,369.63L269.63,367.88L269.13,364.5L267.88,364.38L266.25,362.88L265.0,364.25L265.75,365.0L265.5,366.63L263.0,368.0L262.63,369.38L260.63,369.25L259.38,371.13L263.13,376.75L263.88,380.75L265.63,381.75L265.63,383.38L267.38,385.5L267.63,387.63L269.5,388.75L272.25,393.13L273.25,393.75L274.0,395.75L271.13,400.0L269.5,399.88L266.88,401.13L268.0,402.38L268.38,404.25L267.13,405.88L268.38,407.63L270.75,407.75L270.63,406.5L271.88,404.63L273.63,404.63L274.88,404.38L276.88,407.63L275.25,408.25L275.25,410.25L276.5,411.13L277.13,410.38L280.38,413.13L283.25,410.75L284.38,412.13L282.25,414.5L282.63,415.63L285.88,418.13L285.0,419.5L286.25,421.88L287.75,421.5L289.5,425.63L288.25,427.63L287.13,427.38L287.75,429.88L289.13,429.88L291.5,430.5L291.5,431.88L292.63,431.88L294.75,433.5L296.63,431.0L298.5,431.75L299.5,431.38L301.13,432.5L302.75,432.5L303.88,433.38L306.88,433.13L307.75,434.38L310.88,432.13L310.88,430.38L312.38,427.75L314.25,428.13L315.5,427.0L318.38,427.5L320.88,427.75L321.75,424.88L323.25,423.63L323.0,421.13L320.88,419.38L321.0,417.38L319.75,416.13L319.38,414.25L314.38,409.5L311.63,410.0L310.63,408.25L312.75,404.88L311.25,403.38L310.0,401.0L311.88,397.75L314.38,397.0L316.0,396.63L316.88,395.88L317.88,396.38L318.63,395.0L317.75,394.75L317.88,393.25L315.5,389.0L318.25,387.88L321.5,387.5L321.5,386.13L320.13,386.25L319.25,384.63L321.88,383.63L324.88,384.88L326.88,385.75L326.88,386.75L330.13,386.38L331.0,385.88L331.75,387.88L333.0,388.0L334.25,387.25L335.88,388.25L337.88,387.0L339.13,387.38L338.75,388.5L340.25,389.5L339.63,390.38L340.25,391.63L339.5,392.88L340.25,395.25L342.38,395.75L342.38,393.88L344.25,392.13L345.38,392.13L346.38,388.88L349.88,388.0L351.0,387.25L352.0,390.38L353.38,390.88L354.0,390.88L353.75,389.25L355.38,389.13L356.5,386.88L359.38,385.75L362.38,388.13L363.38,388.0L362.88,386.38L365.63,383.5L366.63,380.88L368.75,379.63L368.75,377.0L370.0,375.88L368.13,373.75L369.0,370.88L367.88,370.38L366.5,368.13L366.75,364.25L364.63,362.75L364.75,361.75L366.0,361.5L367.13,359.5L366.75,358.38Z" />
		<path id="L1611717175496" name="红河哈尼族彝族自治州" class="qing-map-1616134789537" d="M321.0,483.25L319.38,481.75L318.63,479.25L317.38,479.63L314.63,478.25L313.5,478.88L310.75,478.25L308.25,476.88L307.13,476.88L305.38,473.88L305.5,472.0L301.38,467.38L299.88,467.38L298.5,465.88L297.25,466.0L296.13,467.38L291.88,464.88L290.5,462.25L293.75,459.63L293.25,456.0L294.5,455.5L294.38,453.25L296.0,452.88L296.88,453.75L300.25,453.63L300.38,455.13L303.13,455.38L305.38,452.38L305.63,451.0L304.5,450.13L306.0,447.88L304.5,447.5L304.13,445.75L301.63,444.75L300.75,442.5L298.5,445.0L297.38,444.38L295.5,445.0L292.0,443.5L292.75,440.63L292.13,440.0L292.0,438.13L294.75,437.5L295.63,435.75L294.5,434.88L294.75,433.5L296.63,431.0L298.5,431.75L299.5,431.38L301.13,432.5L302.75,432.5L303.88,433.38L306.88,433.13L307.75,434.38L310.88,432.13L310.88,430.38L312.38,427.75L314.25,428.13L315.5,427.0L318.38,427.5L320.88,427.75L321.75,424.88L323.25,423.63L323.0,421.13L320.88,419.38L321.0,417.38L319.75,416.13L319.38,414.25L314.38,409.5L311.63,410.0L310.63,408.25L312.75,404.88L311.25,403.38L310.0,401.0L311.88,397.75L314.38,397.0L316.0,396.63L316.88,395.88L317.88,396.38L318.63,395.0L317.75,394.75L317.88,393.25L315.5,389.0L318.25,387.88L321.5,387.5L321.5,386.13L320.13,386.25L319.25,384.63L321.88,383.63L324.88,384.88L326.88,385.75L326.88,386.75L330.13,386.38L331.0,385.88L331.75,387.88L333.0,388.0L334.25,387.25L335.88,388.25L337.88,387.0L339.13,387.38L338.75,388.5L340.25,389.5L339.63,390.38L340.25,391.63L339.5,392.88L340.25,395.25L342.38,395.75L342.38,393.88L344.25,392.13L345.38,392.13L346.38,388.88L349.88,388.0L351.0,387.25L352.0,390.38L353.38,390.88L354.0,390.88L353.75,389.25L355.38,389.13L356.5,386.88L359.38,385.75L362.38,388.13L363.38,388.0L362.88,386.38L365.63,383.5L366.63,380.88L368.75,379.63L368.75,377.0L370.0,375.88L368.13,373.75L369.0,370.88L367.88,370.38L366.5,368.13L366.75,364.25L364.63,362.75L364.75,361.75L366.0,361.5L367.13,359.5L366.75,358.38L367.63,357.0L369.63,356.13L374.5,356.38L375.25,355.38L376.13,355.0L375.63,352.13L377.5,351.0L377.25,347.88L378.13,347.63L379.13,348.88L382.25,350.38L382.88,351.5L385.75,352.63L387.5,354.0L389.38,354.0L389.75,355.13L388.63,356.63L388.75,357.75L392.13,356.25L392.88,354.25L394.5,353.88L397.88,350.75L397.5,348.63L398.5,348.0L397.88,346.75L400.0,342.75L402.0,342.0L403.25,341.0L404.5,342.38L403.0,344.25L406.13,344.88L406.88,343.25L408.5,343.5L411.0,345.88L412.38,346.0L413.63,346.88L415.13,346.5L416.13,347.5L416.13,348.63L417.38,347.63L418.63,349.0L419.38,350.38L418.25,351.5L419.13,353.75L420.13,353.88L422.38,357.25L420.38,359.13L420.25,361.25L418.88,362.13L417.5,361.88L412.88,366.5L411.75,367.0L410.13,370.5L409.13,370.63L408.63,373.5L407.13,374.13L407.13,376.38L404.88,377.13L402.88,377.38L402.0,377.0L401.38,378.25L400.0,378.0L398.38,379.25L397.63,380.88L395.38,382.88L394.5,384.63L394.88,386.75L398.63,390.63L398.0,391.88L401.75,393.75L401.5,395.13L402.5,396.63L401.38,397.38L401.13,398.5L399.88,398.88L400.25,400.0L398.75,401.75L399.38,402.63L398.63,405.75L397.75,406.25L399.0,407.63L399.13,411.13L400.13,412.63L398.38,414.88L398.0,416.25L395.25,417.5L395.5,419.13L398.75,422.38L400.88,420.63L401.88,421.13L403.0,419.0L404.75,419.88L403.63,420.88L404.38,422.75L406.63,422.38L407.75,423.25L407.5,424.25L408.5,424.75L408.25,426.0L409.63,427.13L408.13,428.25L409.0,430.75L408.5,432.5L411.25,433.13L413.13,433.38L414.63,435.25L416.0,438.38L414.63,439.63L414.38,442.25L416.13,444.88L416.38,447.88L416.38,449.0L415.88,451.5L416.88,453.38L416.75,457.13L414.38,459.5L414.63,460.75L414.88,464.13L414.25,466.25L412.88,466.0L413.38,469.0L414.38,470.88L413.13,471.88L414.38,474.63L416.25,473.13L418.0,473.88L419.63,472.0L419.88,470.25L421.5,469.5L421.5,468.13L422.0,467.13L421.13,465.88L421.88,464.75L423.0,465.5L424.75,464.75L427.0,460.88L428.0,461.13L428.63,463.13L430.25,462.38L430.38,464.25L432.5,462.63L433.75,463.0L435.38,462.5L435.75,465.13L434.38,464.5L433.13,465.63L429.63,466.13L427.88,467.25L426.63,466.75L425.13,468.88L423.38,470.63L421.63,474.0L422.0,475.25L421.63,477.88L420.25,481.88L420.75,483.13L420.5,484.88L417.75,486.13L416.38,484.88L415.0,484.5L413.5,482.38L412.0,482.25L409.5,479.13L407.0,475.88L406.0,474.63L402.63,471.13L401.63,470.88L400.0,469.0L399.0,467.88L397.38,468.25L396.88,469.88L394.13,473.75L395.0,475.63L394.38,477.38L393.38,478.0L392.5,480.0L390.0,479.25L388.25,476.88L387.5,476.75L387.5,475.13L386.5,474.0L386.13,471.5L386.88,470.88L385.25,469.13L383.63,468.63L382.63,467.5L379.75,466.88L379.5,469.25L377.75,471.38L377.5,475.0L375.0,475.88L373.63,477.25L372.13,477.0L370.5,480.13L370.88,481.63L371.25,482.75L370.25,483.88L368.88,484.0L367.75,485.38L365.38,486.25L365.25,487.38L365.75,488.88L365.38,490.0L362.5,490.13L361.75,489.38L360.13,488.75L359.75,487.75L356.63,487.38L356.63,486.38L354.38,484.38L354.63,483.38L353.5,481.88L353.5,480.38L351.38,480.13L351.25,479.25L350.5,478.5L348.63,478.5L347.5,476.88L346.25,476.0L344.25,475.25L342.38,473.38L340.5,474.5L338.0,472.13L336.88,472.5L335.75,473.63L335.0,472.0L332.88,469.63L331.13,468.75L328.88,470.0L327.88,473.5L326.25,474.88L325.0,474.38L324.88,475.0L326.13,477.63L324.25,480.75L322.63,480.75L322.88,482.38Z" />
		<path id="L1611717879109" name="昭通市" class="qing-map-1616134789537" d="M364.38,226.13L364.63,225.13L364.63,220.88L367.13,219.25L368.13,218.13L371.38,219.88L373.38,219.0L373.0,217.63L374.13,217.0L373.38,216.0L374.5,214.63L374.5,212.5L376.0,212.5L378.63,212.13L380.5,213.0L382.25,211.63L383.2,212.17L383.1,213.17L384.3,213.67L384.8,212.97L383.7,211.97L384.2,210.97L382.5,209.17L383.63,206.88L383.63,204.38L385.13,201.88L385.75,199.13L386.75,197.5L385.38,193.88L387.63,194.88L389.38,193.63L391.13,194.25L394.0,194.0L396.63,195.0L397.63,193.13L396.25,189.88L396.88,189.13L399.0,189.75L399.75,189.13L399.38,187.88L397.63,187.63L397.75,186.5L400.5,185.63L401.88,185.75L402.75,185.13L402.5,184.0L403.88,182.25L407.88,178.0L407.88,176.75L409.5,176.63L410.88,175.13L411.88,175.63L411.88,174.13L412.38,173.5L412.38,172.25L414.0,171.5L414.25,168.75L415.75,165.0L417.75,166.38L420.38,165.88L420.75,169.25L424.75,172.38L426.0,172.0L427.38,172.75L427.5,174.0L429.75,176.75L432.38,175.75L432.5,174.5L434.5,174.5L435.13,173.88L434.25,172.13L437.38,168.88L437.75,167.5L439.0,167.13L439.75,165.5L439.5,164.63L441.13,163.5L443.5,164.25L445.0,165.75L447.88,166.75L450.25,169.63L450.5,170.88L451.5,172.0L453.0,172.38L455.63,174.13L457.63,172.88L459.5,173.0L460.0,172.38L462.13,171.75L463.25,172.25L464.13,171.75L464.63,173.13L465.75,173.0L467.25,170.75L469.25,171.63L469.63,174.38L471.0,174.63L472.75,174.0L473.88,172.63L477.88,169.88L482.75,166.63L487.88,167.0L489.13,167.88L489.13,170.0L492.13,165.88L491.75,164.75L492.25,163.75L492.38,162.13L494.0,160.0L493.63,158.0L492.75,157.25L493.38,156.13L496.38,153.5L496.0,152.5L496.88,150.5L496.13,149.25L496.38,147.5L495.75,146.75L495.88,144.5L494.63,141.38L495.38,141.25L495.5,140.25L493.13,139.38L493.13,137.38L492.13,134.63L493.25,133.5L494.88,132.5L495.13,130.38L493.88,127.63L492.0,127.25L491.63,128.38L489.63,128.0L488.38,126.38L489.63,124.63L488.0,123.13L486.88,123.13L485.5,123.13L484.63,122.38L481.13,121.63L479.75,122.88L478.13,123.25L477.0,123.63L476.75,126.25L475.63,127.75L474.63,128.63L473.38,129.38L472.88,130.5L473.75,131.63L472.25,132.0L472.13,133.5L470.63,134.0L467.63,134.75L466.63,134.13L464.88,135.38L463.63,134.5L460.5,135.38L457.0,137.5L455.5,137.0L453.5,138.5L452.5,137.75L452.63,136.5L450.88,135.13L449.88,135.88L448.13,134.38L447.38,134.38L446.5,133.13L444.75,132.0L444.13,131.25L443.38,131.25L441.38,128.38L441.25,126.88L438.63,126.13L437.25,124.88L438.5,124.13L441.88,124.38L443.38,123.25L442.88,121.63L444.75,121.25L446.25,120.13L445.75,116.25L444.0,116.38L443.25,114.38L445.63,113.88L446.13,112.25L446.88,111.63L445.88,110.5L446.0,109.63L444.88,109.0L443.75,109.5L442.25,106.25L440.5,105.13L438.5,107.0L436.88,107.0L437.5,105.88L436.25,104.25L435.0,101.25L435.63,99.5L435.25,97.75L435.5,96.5L435.25,95.13L435.63,94.25L434.5,93.13L434.75,92.0L436.0,92.0L437.25,91.88L438.5,92.0L439.38,90.38L440.63,90.25L441.63,88.5L442.88,87.75L444.0,87.75L445.0,86.38L443.13,84.75L441.38,84.25L439.63,85.13L438.5,86.13L437.0,85.88L436.5,85.13L435.63,85.5L434.38,83.75L433.25,85.25L431.13,85.25L430.13,84.88L426.75,85.13L425.88,86.75L424.63,87.13L422.63,85.88L416.25,87.5L416.0,86.0L414.5,85.25L413.38,86.38L412.38,85.63L412.0,83.5L410.75,83.38L410.25,84.13L410.5,85.5L409.75,86.38L410.25,88.38L408.0,90.0L407.75,92.13L406.63,92.5L409.38,95.75L409.63,98.75L410.63,100.13L411.38,102.5L411.13,103.88L412.5,106.75L411.38,108.13L409.5,108.88L409.0,110.0L407.25,110.63L406.38,112.25L404.0,112.0L403.0,114.25L402.0,113.88L401.5,112.13L398.75,110.38L398.13,110.0L396.88,111.63L394.5,112.25L393.13,115.38L391.0,117.38L388.5,119.5L387.25,119.5L387.63,121.5L386.13,123.13L386.0,124.75L387.38,126.38L389.38,125.63L390.0,128.63L391.13,130.0L392.5,130.0L393.38,129.38L393.63,130.63L392.38,131.25L390.75,133.25L390.13,136.5L390.75,138.25L390.13,140.75L388.0,142.38L387.63,143.63L385.75,144.88L384.0,146.88L382.38,147.25L381.63,149.0L379.25,151.0L377.5,153.0L378.25,154.63L378.25,156.38L376.88,157.13L376.13,156.38L374.25,156.63L373.75,157.5L373.0,158.75L372.25,159.38L369.38,164.63L369.13,166.38L367.25,167.75L365.0,167.75L364.38,167.13L362.25,169.13L360.0,170.13L358.75,168.63L357.75,166.88L356.25,170.13L354.5,173.75L353.75,174.75L353.75,176.88L355.25,179.25L355.25,183.25L356.0,185.38L354.88,188.5L355.0,189.13L354.63,189.63L353.25,192.63L354.75,194.13L354.38,197.75L355.13,200.5L355.88,202.0L357.63,204.38L358.88,205.25L360.38,209.25L359.88,210.0L361.0,211.88L360.63,212.63L361.5,214.0L361.0,215.25L362.38,216.5L362.5,220.5L361.88,221.0L363.5,223.88Z" />
		<path id="L1611725537195" name="曲靖市" class="qing-map-1616134789537" d="M397.63,193.13L396.63,195.0L394.0,194.0L391.13,194.25L389.38,193.63L387.63,194.88L385.38,193.88L386.75,197.5L385.75,199.13L385.13,201.88L383.63,204.38L383.63,206.88L382.5,209.17L384.2,210.97L383.7,211.97L384.8,212.97L384.3,213.67L383.1,213.17L383.2,212.17L382.25,211.63L380.5,213.0L378.63,212.13L376.0,212.5L374.5,212.5L374.5,214.63L373.38,216.0L374.13,217.0L373.0,217.63L373.38,219.0L371.38,219.88L368.13,218.13L367.13,219.25L364.63,220.88L364.63,225.13L364.38,226.13L365.0,228.0L365.75,234.13L366.63,235.75L366.63,239.5L367.25,240.63L367.38,243.0L369.63,244.13L369.75,245.38L371.63,247.0L372.13,245.63L373.25,245.63L375.88,248.38L375.25,249.75L376.63,253.13L376.63,254.25L378.88,256.63L377.5,260.25L378.0,261.75L377.75,263.38L378.75,263.75L378.88,266.13L377.75,267.13L378.25,269.75L379.75,270.63L381.0,269.25L382.13,270.13L382.88,269.75L384.13,271.13L385.88,270.88L388.13,269.13L389.0,271.88L390.25,271.75L391.5,272.38L392.5,272.13L393.5,274.0L390.88,276.75L391.75,278.75L390.75,280.0L391.13,281.38L389.63,283.38L390.63,285.75L391.75,285.75L393.25,287.25L392.13,288.0L391.25,287.63L389.25,289.13L386.25,288.0L386.0,289.5L385.25,290.5L386.25,292.25L386.13,293.5L382.0,293.5L382.38,295.88L380.38,298.38L378.5,298.75L376.88,303.13L378.13,304.0L379.63,304.13L378.88,305.88L378.13,306.5L378.25,308.38L376.88,308.5L376.13,310.88L378.25,312.13L377.88,313.25L379.13,314.0L379.88,316.38L380.63,314.5L384.63,315.25L385.13,313.13L387.88,314.13L388.0,315.13L389.25,315.88L388.5,317.38L389.75,318.38L387.63,320.5L386.38,320.5L384.88,322.63L387.0,323.25L386.63,324.13L388.13,325.63L388.25,329.0L386.88,330.13L387.25,332.5L390.13,336.5L391.88,335.88L393.13,334.25L395.0,335.13L395.5,332.88L397.0,333.13L399.38,333.38L399.25,336.13L400.0,337.75L399.25,339.63L400.25,341.13L400.0,342.75L402.0,342.0L403.25,341.0L404.5,342.38L403.0,344.25L406.13,344.88L406.88,343.25L408.5,343.5L411.0,345.88L412.38,346.0L413.63,346.88L415.13,346.5L416.13,347.5L416.13,348.63L417.38,347.63L418.63,349.0L419.38,350.38L418.25,351.5L419.13,353.75L420.13,353.88L422.38,357.25L420.38,359.13L420.25,361.25L420.55,362.38L424.05,363.13L426.05,362.63L427.68,360.63L429.18,361.13L430.68,360.75L431.68,362.0L432.55,363.5L433.68,364.13L431.8,366.88L433.43,366.63L434.55,367.38L435.55,366.5L436.93,367.88L437.68,367.13L440.18,366.63L440.05,365.63L442.91,365.88L444.29,365.38L443.91,364.0L446.16,361.88L449.29,361.75L451.41,361.13L452.91,359.75L451.79,358.13L452.04,356.5L451.29,355.75L450.41,355.63L449.41,351.86L449.41,349.36L448.41,348.98L450.16,343.23L451.66,340.46L451.54,337.34L453.66,334.96L454.91,332.71L457.16,331.46L457.29,330.34L458.66,328.59L458.79,327.59L459.91,327.09L460.16,326.2L461.66,325.45L460.66,322.57L459.04,321.7L456.04,321.7L456.16,321.07L458.91,321.07L459.91,320.45L460.41,317.95L461.91,316.2L462.04,315.45L462.91,314.07L462.16,313.07L463.16,311.7L465.16,313.0L467.04,315.0L468.16,314.5L467.41,313.36L467.54,312.36L467.16,310.61L468.41,309.59L467.54,308.34L466.16,308.96L464.66,307.45L463.16,308.07L461.54,307.2L461.16,305.95L459.54,306.45L458.66,306.95L457.41,306.2L457.66,303.02L457.29,301.77L455.66,301.64L454.54,300.14L453.16,299.14L452.54,299.64L451.54,298.14L452.41,291.39L450.66,291.13L447.66,293.38L446.29,293.0L445.91,294.5L444.41,293.0L445.16,291.63L445.41,289.5L444.54,287.38L443.04,286.5L441.29,287.75L441.04,286.0L439.79,285.88L438.29,284.13L438.79,283.48L437.91,282.36L438.41,279.36L438.16,278.23L439.41,276.36L441.16,277.61L443.04,275.73L443.41,273.86L445.04,272.23L444.41,270.61L445.41,268.86L445.41,267.23L444.16,267.23L444.04,265.86L445.79,264.34L445.54,262.84L446.79,261.09L446.66,257.95L447.41,256.82L446.54,255.45L447.04,254.32L449.16,255.32L450.79,253.57L450.41,251.7L450.16,249.45L452.04,246.02L451.66,243.64L454.04,240.77L454.66,239.27L458.54,237.77L458.54,236.89L459.79,235.52L458.91,234.14L458.79,231.5L457.54,231.13L456.79,230.13L457.16,228.63L455.04,225.88L453.54,225.75L453.04,225.0L453.91,223.13L452.66,221.63L448.91,221.38L448.04,221.88L446.66,220.38L447.16,217.38L445.54,215.84L445.29,214.84L444.41,213.59L443.29,213.59L442.91,215.21L441.91,217.48L441.04,218.11L440.54,219.11L438.18,219.71L437.05,218.59L435.8,218.59L434.05,218.84L433.3,219.21L432.3,218.96L431.05,218.34L429.55,218.21L428.8,217.59L427.68,217.59L427.05,217.96L424.55,221.59L423.68,222.21L423.55,223.71L423.8,225.98L422.3,226.73L421.05,225.98L418.8,225.86L418.05,225.98L416.93,225.86L414.3,226.23L412.93,225.96L411.68,226.34L410.18,225.09L409.05,225.09L408.3,223.34L405.55,221.71L406.18,220.34L404.8,219.21L405.68,217.32L405.55,214.7L406.3,212.07L404.8,212.2L403.68,211.2L403.18,209.2L402.05,207.2L401.93,206.07L403.3,204.7L403.3,204.07L406.18,202.95L406.68,202.2L405.8,201.57L405.55,199.7L406.55,197.95L405.3,196.82L403.8,193.04L402.3,190.79L400.05,190.91L399.18,192.66Z" />
		<path id="L1611726312085" name="文山壮族苗族自治州" class="qing-map-1616134789537" d="M435.75,465.13L435.38,462.5L433.75,463.0L432.5,462.63L430.38,464.25L430.25,462.38L428.63,463.13L428.0,461.13L427.0,460.88L424.75,464.75L423.0,465.5L421.88,464.75L421.13,465.88L422.0,467.13L421.5,468.13L421.5,469.5L419.88,470.25L419.63,472.0L418.0,473.88L416.25,473.13L414.38,474.63L413.13,471.88L414.38,470.88L413.38,469.0L412.88,466.0L414.25,466.25L414.88,464.13L414.63,460.75L414.38,459.5L416.75,457.13L416.88,453.38L415.88,451.5L416.38,449.0L416.38,447.88L416.13,444.88L414.38,442.25L414.63,439.63L416.0,438.38L414.63,435.25L413.13,433.38L411.25,433.13L408.5,432.5L409.0,430.75L408.13,428.25L409.63,427.13L408.25,426.0L408.5,424.75L407.5,424.25L407.75,423.25L406.63,422.38L404.38,422.75L403.63,420.88L404.75,419.88L403.0,419.0L401.88,421.13L400.88,420.63L398.75,422.38L395.5,419.13L395.25,417.5L398.0,416.25L398.38,414.88L400.13,412.63L399.13,411.13L399.0,407.63L397.75,406.25L398.63,405.75L399.38,402.63L398.75,401.75L400.25,400.0L399.88,398.88L401.13,398.5L401.38,397.38L402.5,396.63L401.5,395.13L401.75,393.75L398.0,391.88L398.63,390.63L394.88,386.75L394.5,384.63L395.38,382.88L397.63,380.88L398.38,379.25L400.0,378.0L401.38,378.25L402.0,377.0L402.88,377.38L404.88,377.13L407.13,376.38L407.13,374.13L408.63,373.5L409.13,370.63L410.13,370.5L411.75,367.0L412.88,366.5L417.5,361.88L418.88,362.13L420.25,361.25L420.55,362.38L424.05,363.13L426.05,362.63L427.68,360.63L429.18,361.13L430.68,360.75L431.68,362.0L432.55,363.5L433.68,364.13L431.8,366.88L433.43,366.63L434.55,367.38L435.55,366.5L436.93,367.88L437.68,367.13L440.18,366.63L440.05,365.63L442.91,365.88L444.29,365.38L443.91,364.0L446.16,361.88L449.29,361.75L451.41,361.13L452.91,359.75L453.8,362.9L455.92,363.02L456.67,364.02L455.92,365.9L457.67,366.52L460.92,369.4L462.42,368.02L461.67,366.77L462.05,366.27L460.92,362.77L461.92,361.4L463.8,361.9L463.92,360.65L464.8,360.65L465.55,361.52L466.67,361.52L467.55,361.9L468.42,361.02L470.55,362.15L473.55,362.65L474.27,363.9L476.4,363.9L479.15,361.9L481.65,361.77L484.9,363.52L484.15,365.27L485.27,366.02L486.52,366.02L489.52,367.77L490.15,369.02L488.65,370.4L489.02,371.02L488.27,371.9L490.4,374.27L490.65,375.77L492.65,376.9L491.77,379.4L489.27,379.4L489.4,381.77L490.27,383.4L491.77,385.02L493.77,385.77L495.27,385.77L495.27,384.65L494.52,384.15L495.9,382.65L497.4,382.77L498.4,384.27L500.77,385.77L501.9,386.02L502.65,388.02L503.9,387.77L507.27,389.02L508.27,388.65L508.02,387.15L509.02,385.27L509.02,383.4L512.02,381.77L513.02,381.77L513.65,381.27L515.27,381.77L515.52,383.65L516.4,385.52L516.15,386.9L516.52,388.15L518.27,387.77L519.65,386.15L521.9,386.52L523.15,385.4L524.52,385.77L525.27,386.4L524.65,388.27L525.15,388.77L526.4,388.15L528.02,388.15L528.77,386.52L531.15,387.77L531.9,385.52L531.02,384.27L532.02,382.4L532.77,382.27L534.52,383.15L536.9,382.27L538.02,383.4L539.52,383.77L540.4,386.9L543.02,388.65L542.77,390.52L543.9,392.52L545.27,392.9L545.4,395.15L546.9,397.65L548.52,397.52L548.9,399.02L547.65,398.9L548.02,400.15L548.9,400.52L548.02,402.02L546.9,401.4L545.4,402.4L546.02,407.4L547.02,408.15L546.15,409.9L546.15,412.4L545.27,413.27L545.52,414.65L544.27,415.9L545.4,417.4L545.02,418.77L543.65,420.77L542.15,420.77L541.52,423.27L539.4,423.65L537.9,425.4L536.77,425.77L536.77,422.77L534.15,422.9L533.4,422.02L531.4,422.27L531.52,421.27L530.15,420.27L528.02,420.65L526.52,422.4L526.15,424.27L523.02,425.15L522.52,426.27L521.4,426.9L521.15,427.77L519.02,428.9L518.4,428.15L516.9,428.9L519.02,430.77L518.9,432.27L519.52,433.27L518.52,434.02L517.52,432.15L513.4,434.77L513.15,435.77L512.4,436.15L511.9,438.15L510.52,439.02L509.77,439.02L509.65,440.27L510.52,441.4L510.52,442.4L507.77,441.27L507.52,439.77L506.02,438.15L505.02,436.27L504.02,435.4L503.15,436.27L501.52,434.65L500.77,434.27L499.4,432.52L499.02,430.77L497.52,429.65L495.02,432.65L493.52,433.02L493.4,435.4L492.9,436.27L492.27,437.77L489.4,436.77L488.15,437.02L485.02,438.77L484.02,437.4L482.27,438.15L480.02,440.65L478.52,440.9L478.15,441.9L476.4,442.02L475.02,444.65L473.15,443.02L471.65,443.9L471.27,446.27L469.52,447.02L467.15,447.15L467.15,449.15L467.52,449.52L467.77,451.15L468.52,452.9L469.02,455.4L470.27,456.15L470.52,457.77L469.02,459.4L467.9,459.65L466.52,460.77L465.02,461.27L463.9,463.77L462.8,464.08L462.55,466.58L460.92,466.08L459.05,466.33L458.05,465.08L456.8,465.2L455.67,466.33L454.8,464.58L453.92,463.83L452.42,465.2L451.55,465.58L450.05,467.95L447.05,470.45L444.8,471.2L443.05,473.7L441.92,474.08L440.42,474.08L439.3,472.2L437.17,471.58L435.42,471.33L435.67,470.33L434.67,468.95Z" />
	</g>
</svg>
