<svg xmlns="http://www.w3.org/2000/svg" viewBox="0,0,451,600" width="100%" height="100%">
	<defs>
		<style type="text/css">
.qing-map-1616124461770
{
	fill: #DDDDDD;
	fill-opacity: 1.0;
	stroke: #FFFFFF;
	stroke-opacity: 1.0;
	stroke-width: 1;
}

.qing-map-1616124461770:hover
{
	fill: #56A4FF;
	fill-opacity: 1.0;
}
</style>
	</defs>
	<g>
		<path id="L1610961717391" name="合肥市" class="qing-map-1616124461770" d="M181.6,310.6L183.4,309.6L185.8,309.4L188.0,307.2L190.0,304.8L194.2,303.8L195.6,301.6L194.8,299.8L197.0,298.8L198.6,299.8L201.2,300.2L201.2,301.8L204.4,301.6L204.4,299.8L205.8,298.0L205.2,296.0L203.8,292.6L203.6,291.0L201.0,289.0L200.0,286.4L201.8,285.8L204.0,282.6L202.0,279.6L207.0,277.6L207.8,274.0L206.6,272.4L205.4,273.0L205.0,271.0L206.4,268.0L205.0,266.4L205.0,262.2L202.4,262.0L203.0,260.0L205.4,258.4L206.0,256.4L207.8,253.4L208.4,249.8L208.4,247.2L211.0,247.0L213.2,248.0L216.0,246.4L218.4,246.0L219.8,248.4L220.4,253.2L223.8,254.2L226.4,255.6L228.8,255.0L230.0,256.2L232.0,254.6L234.6,254.4L236.0,252.2L236.6,253.8L235.2,255.8L235.2,258.6L234.0,260.8L232.8,261.6L233.6,262.8L235.6,262.0L237.6,262.6L240.0,264.4L239.8,266.0L238.4,267.0L236.4,271.8L237.6,274.2L238.6,275.2L239.4,277.4L241.8,277.8L244.4,280.6L249.8,279.8L250.8,278.4L258.2,274.8L260.2,275.4L262.2,275.2L263.4,276.8L265.0,276.4L267.0,277.2L269.6,277.2L270.6,278.6L273.4,277.6L276.2,280.0L277.6,286.6L275.8,289.2L276.2,291.6L278.0,294.8L276.2,297.6L274.4,298.0L274.4,299.8L272.6,301.4L274.8,305.0L276.4,306.2L277.0,308.4L280.2,308.8L283.0,310.2L284.4,311.6L283.0,316.2L280.6,317.8L280.0,320.2L281.0,322.8L280.2,324.8L281.4,326.0L281.0,327.0L282.2,329.0L280.0,331.6L283.2,334.6L284.8,335.4L286.0,339.6L284.8,339.0L283.6,339.2L282.6,341.2L282.2,345.2L280.8,346.6L282.2,348.2L284.2,348.4L283.4,349.8L285.2,352.8L283.4,353.8L281.0,352.4L276.2,354.0L274.4,354.6L273.6,354.0L272.6,354.6L269.8,354.4L266.8,356.2L265.0,355.6L262.8,356.4L261.2,361.4L258.4,366.0L258.4,368.0L257.2,370.2L257.0,373.0L255.2,373.6L254.0,375.2L250.8,376.2L249.8,381.2L247.6,382.4L248.0,385.0L249.8,386.2L249.2,388.4L247.0,389.4L247.2,391.4L246.6,392.4L247.4,394.8L246.0,398.4L243.6,398.8L245.2,402.8L243.0,404.0L240.8,404.8L240.0,406.0L237.8,405.6L235.2,406.8L234.6,408.4L233.0,407.4L233.4,406.0L231.6,404.4L229.8,404.4L228.4,403.6L227.2,404.8L224.2,403.4L221.2,401.0L220.8,399.0L216.8,395.0L214.4,396.2L211.6,394.4L212.2,392.4L211.4,390.6L212.0,388.0L208.2,381.6L208.6,378.6L206.4,379.4L204.2,377.0L205.4,376.0L205.4,374.8L207.4,373.4L207.4,369.6L208.4,367.8L208.0,366.0L208.6,364.0L209.8,360.6L212.8,355.6L217.4,353.2L221.6,353.2L221.6,350.2L221.0,348.6L219.6,348.4L217.8,347.2L215.4,347.6L213.6,347.2L211.6,348.2L208.0,347.4L205.6,349.0L202.2,347.4L201.2,346.4L200.2,349.0L196.0,348.8L193.6,349.2L191.2,349.0L189.2,349.6L187.0,350.6L184.8,348.8L182.0,345.8L181.0,341.0L180.8,338.6L180.8,336.6L181.0,332.2L179.4,330.2L180.4,329.0L180.4,326.4L178.2,323.6L175.6,320.6L176.4,318.0L178.2,317.2L178.8,316.0L177.4,314.8L177.4,313.0L179.8,312.2Z" />
		<path id="L1610962740595" name="芜湖市" class="qing-map-1616124461770" d="M245.2,402.8L243.6,398.8L246.0,398.4L247.4,394.8L246.6,392.4L247.2,391.4L247.0,389.4L249.2,388.4L249.8,386.2L248.0,385.0L247.6,382.4L249.8,381.2L250.8,376.2L254.0,375.2L255.2,373.6L257.0,373.0L257.2,370.2L258.4,368.0L258.4,366.0L261.2,361.4L262.8,356.4L265.0,355.6L266.8,356.2L269.8,354.4L272.6,354.6L273.6,354.0L274.4,354.6L276.2,354.0L281.0,352.4L283.4,353.8L283.4,353.8L285.2,354.4L286.6,354.8L286.0,356.2L286.0,358.4L301.2,362.6L302.8,362.4L302.6,361.0L303.4,359.4L300.0,358.8L299.4,356.6L300.6,354.4L300.0,351.0L302.2,350.4L303.6,349.0L306.4,350.2L309.4,349.8L314.0,352.4L315.4,352.0L316.0,358.8L321.0,351.0L323.2,353.0L324.4,352.6L325.4,355.6L325.0,357.2L326.4,363.0L329.4,363.6L333.2,362.6L333.6,365.2L336.4,368.0L335.8,369.8L337.6,372.8L342.0,373.2L345.4,373.2L344.4,377.8L349.0,385.0L351.0,385.8L351.4,388.2L347.6,391.0L347.8,392.4L347.0,394.4L347.2,396.2L345.6,397.4L343.6,400.4L341.2,399.8L339.8,398.8L339.2,400.2L337.8,401.2L338.8,402.8L339.0,404.6L338.0,406.0L336.2,406.4L334.4,407.6L332.8,408.2L333.6,409.6L332.0,409.8L333.2,411.8L331.2,413.0L331.2,415.0L330.2,416.2L331.6,417.6L330.2,420.2L331.8,421.6L332.2,422.8L330.2,425.0L330.0,427.4L327.6,425.8L327.4,424.2L325.8,423.8L324.4,422.2L325.0,419.8L322.4,418.8L319.8,419.6L318.2,420.6L315.8,421.8L314.6,423.8L314.8,425.6L313.4,427.8L312.6,429.2L313.8,431.0L315.2,432.2L315.4,433.6L313.8,433.6L312.8,432.8L310.8,432.8L309.4,434.0L307.2,432.4L302.2,435.6L300.6,438.0L297.8,439.0L296.6,438.0L299.2,435.0L299.2,432.6L298.0,430.8L297.0,429.8L294.0,428.6L294.0,427.0L291.4,426.0L289.0,425.6L287.6,424.2L285.8,423.8L287.4,421.4L286.8,419.4L288.6,417.8L290.6,418.2L292.0,416.8L293.6,416.2L295.0,416.2L299.4,413.2L300.8,413.2L302.2,412.0L301.4,410.0L301.8,406.6L297.6,406.2L295.0,402.6L291.2,401.2L289.4,399.8L289.6,396.6L288.0,396.0L286.4,395.0L282.8,396.4L279.6,395.8L276.8,392.4L275.4,390.6L272.6,390.6L269.8,391.8L268.0,393.8L267.4,396.2L265.4,401.8L262.8,402.2L261.4,403.6L260.4,406.6L260.2,407.8L259.0,408.2L257.0,407.0L255.2,406.4L253.0,405.8L251.8,407.0L250.0,406.2L248.0,406.6L247.8,405.2L247.2,403.6Z" />
		<path id="L1610963128090" name="蚌埠市" class="qing-map-1616124461770" d="M184.6,167.0L186.2,167.0L188.6,169.6L190.8,167.8L194.8,166.4L197.4,168.2L202.4,169.4L203.6,168.2L209.4,168.8L210.2,166.4L207.6,165.0L209.6,161.8L206.6,159.6L209.0,156.4L211.6,158.0L213.2,158.2L214.0,155.8L213.0,154.4L213.6,153.0L214.8,152.6L215.6,151.0L218.6,154.0L219.4,152.0L221.2,150.8L221.2,149.4L222.6,148.0L223.0,146.6L228.4,147.6L229.4,149.2L234.6,150.8L235.8,152.4L236.2,154.6L238.0,157.0L239.0,159.4L243.0,162.8L245.0,163.2L249.0,164.4L252.2,164.8L255.2,163.2L258.2,164.8L260.0,166.4L262.4,168.6L265.8,170.0L269.6,169.4L271.6,170.2L272.6,168.0L275.2,168.0L275.8,164.8L278.4,164.6L280.2,163.2L281.6,164.2L286.2,163.6L287.4,164.0L286.8,167.4L286.2,169.0L284.4,170.6L283.4,171.2L283.8,172.6L283.2,173.8L283.8,175.2L285.8,174.8L287.0,176.2L287.0,179.4L290.0,181.8L293.4,183.2L294.2,184.6L294.6,186.4L294.2,188.4L294.2,191.0L291.8,191.4L290.6,191.8L289.4,193.2L289.0,194.0L290.6,195.4L290.8,197.2L288.6,198.0L287.2,197.4L285.6,198.0L284.6,197.2L281.4,199.8L278.2,198.4L279.4,197.2L278.0,194.4L271.4,195.4L269.0,193.6L266.2,197.2L263.0,198.2L262.0,201.6L260.2,206.6L257.8,207.6L256.2,206.6L253.4,206.0L248.2,201.0L247.6,204.4L246.6,205.4L245.8,209.8L246.0,211.4L244.8,212.8L243.4,214.4L242.0,214.6L239.0,215.0L237.0,215.6L233.8,215.0L231.6,216.2L229.0,216.4L228.0,217.8L226.2,217.4L225.2,219.2L223.6,219.2L222.0,220.4L222.0,222.6L218.8,225.6L216.2,225.6L214.0,224.2L211.0,224.4L208.8,225.4L209.8,227.2L208.6,227.8L207.0,226.8L205.4,226.0L204.6,223.6L203.6,223.4L202.4,222.0L200.2,221.0L193.2,216.2L192.8,214.8L190.6,215.0L187.6,212.0L187.6,210.4L185.8,209.8L183.4,208.4L182.2,207.0L180.6,207.2L178.4,205.4L179.6,204.2L178.4,202.4L179.6,200.2L180.2,198.8L182.2,198.2L183.8,198.8L185.2,198.2L185.4,196.4L180.2,192.8L179.8,190.2L181.2,188.4L181.2,185.8L181.2,183.0L183.4,181.2L185.2,181.8L186.0,178.2L186.6,175.0L185.4,172.2L184.6,170.2Z" />
		<path id="L1610963756331" name="淮南市" class="qing-map-1616124461770" d="M178.4,205.4L180.6,207.2L182.2,207.0L183.4,208.4L185.8,209.8L187.6,210.4L187.6,212.0L190.6,215.0L192.8,214.8L193.2,216.2L200.2,221.0L202.4,222.0L203.6,223.4L204.6,223.6L205.4,226.0L207.0,226.8L208.6,227.8L209.8,227.2L208.8,225.4L211.0,224.4L214.0,224.2L216.2,225.6L218.8,225.6L219.0,226.8L218.0,227.6L217.6,229.8L215.8,231.0L217.0,233.6L218.6,238.8L219.0,242.6L220.0,244.6L218.4,246.0L216.0,246.4L213.2,248.0L211.0,247.0L208.4,247.2L208.4,249.8L207.8,253.4L206.0,256.4L205.4,258.4L203.0,260.0L202.4,262.0L205.0,262.2L205.0,266.4L206.4,268.0L205.0,271.0L205.4,273.0L206.6,272.4L207.8,274.0L207.0,277.6L202.0,279.6L204.0,282.6L201.8,285.8L200.0,286.4L201.0,289.0L203.6,291.0L203.8,292.6L205.2,296.0L205.8,298.0L204.4,299.8L204.4,301.6L201.2,301.8L201.2,300.2L198.6,299.8L197.0,298.8L194.8,299.8L195.6,301.6L194.2,303.8L190.0,304.8L188.0,307.2L185.8,309.4L183.4,309.6L181.6,310.6L178.0,309.6L175.8,311.4L174.0,304.6L172.8,303.2L170.8,302.0L167.6,301.4L166.2,299.6L162.6,298.4L162.2,295.6L162.4,293.2L160.4,289.4L161.0,286.6L159.2,283.6L159.6,281.4L158.0,279.4L160.8,277.6L160.0,275.0L160.8,273.2L159.8,269.2L158.4,266.0L156.4,263.8L157.8,260.6L156.0,259.6L156.8,257.8L156.4,256.6L157.4,254.8L157.6,253.6L159.0,253.8L159.6,252.4L160.6,250.8L160.6,249.6L161.8,247.2L164.6,245.8L168.2,245.6L169.6,244.0L168.2,241.4L166.2,240.8L163.0,241.0L162.4,239.6L160.2,233.8L158.2,233.2L158.0,231.4L154.6,231.6L152.8,229.2L154.2,227.2L153.4,224.8L153.4,223.0L153.4,220.4L152.4,217.6L153.2,215.4L152.0,214.4L150.0,214.0L148.8,213.6L148.2,211.8L148.2,209.6L148.8,208.0L146.6,204.8L146.6,203.2L147.2,201.2L147.2,198.6L170.4,204.8L174.6,204.8Z" />
		<path id="L1610964730971" name="马鞍山市" class="qing-map-1616124461770" d="M284.4,311.6L286.6,312.4L287.2,313.8L288.8,314.4L291.0,316.8L293.8,315.4L295.0,316.4L295.8,315.2L296.0,313.6L298.8,311.2L303.2,311.2L305.8,308.8L308.6,308.2L314.2,303.0L316.2,299.2L321.4,295.6L322.0,296.8L321.6,298.0L322.0,302.6L320.6,303.2L321.4,304.6L320.0,305.2L320.8,309.2L323.2,310.6L323.8,313.0L325.8,311.8L327.0,313.2L329.2,313.4L328.4,315.8L332.0,317.6L330.2,323.2L333.0,325.6L334.6,325.4L335.0,326.6L334.0,327.6L336.0,329.2L337.0,328.2L339.4,327.8L340.8,326.6L342.0,327.0L343.6,326.0L344.6,329.0L347.8,329.6L348.2,331.6L346.6,332.6L346.2,334.2L345.0,334.4L345.2,337.2L348.2,338.6L350.0,338.2L350.6,339.4L352.0,339.2L353.2,336.8L353.2,335.6L354.0,334.6L356.0,334.6L357.0,335.4L356.0,336.6L357.6,339.4L360.2,339.6L362.8,340.2L364.0,342.6L363.8,344.8L364.4,346.2L363.4,347.2L365.0,349.2L364.6,355.0L365.0,357.8L361.8,363.6L358.6,365.8L354.6,366.0L354.8,364.2L353.8,364.4L351.2,370.0L349.8,371.6L345.4,373.2L342.0,373.2L337.6,372.8L335.8,369.8L336.4,368.0L333.6,365.2L333.2,362.6L329.4,363.6L326.4,363.0L325.0,357.2L325.4,355.6L324.4,352.6L323.2,353.0L321.0,351.0L316.0,358.8L315.4,352.0L314.0,352.4L309.4,349.8L306.4,350.2L303.6,349.0L302.2,350.4L300.0,351.0L300.6,354.4L299.4,356.6L300.0,358.8L303.4,359.4L302.6,361.0L302.8,362.4L301.2,362.6L286.0,358.4L286.0,356.2L286.6,354.8L285.2,354.4L283.4,353.8L285.2,352.8L283.4,349.8L284.2,348.4L282.2,348.2L280.8,346.6L282.2,345.2L282.6,341.2L283.6,339.2L284.8,339.0L286.0,339.6L284.8,335.4L283.2,334.6L280.0,331.6L282.2,329.0L281.0,327.0L281.4,326.0L280.2,324.8L281.0,322.8L280.0,320.2L280.6,317.8L283.0,316.2Z" />
		<path id="L1610965123041" name="淮北市" class="qing-map-1616124461770" d="M166.83,92.33L170.67,92.5L173.33,93.17L179.0,92.5L180.83,93.17L182.83,93.33L184.33,94.17L185.0,87.83L185.67,86.67L186.67,87.67L188.67,86.17L190.83,86.5L193.83,83.33L196.0,84.5L196.0,85.67L198.83,86.5L197.33,89.33L197.17,90.83L199.17,91.33L199.33,92.83L199.83,94.17L198.67,96.83L198.83,98.0L200.83,98.33L201.17,100.67L201.17,102.83L198.5,105.67L198.17,109.17L197.33,111.67L197.33,115.67L196.33,118.33L196.83,120.17L196.17,121.0L196.33,124.33L195.67,125.5L195.5,128.5L192.33,127.67L191.17,128.17L190.67,128.83L191.33,130.33L191.0,132.33L189.67,133.17L190.4,135.8L192.6,138.4L195.2,139.0L193.6,144.0L194.0,147.2L193.6,148.8L195.2,150.0L196.6,152.0L198.2,152.2L198.8,155.4L198.6,158.2L197.4,160.0L196.2,160.2L194.8,163.8L194.8,166.4L190.8,167.8L188.6,169.6L186.2,167.0L184.6,167.0L183.2,164.6L183.2,162.0L184.2,158.6L184.4,155.4L181.6,153.4L179.8,152.0L177.6,151.4L176.8,150.0L172.6,149.2L168.6,148.4L165.4,149.4L163.0,150.0L161.2,149.2L161.0,145.0L160.4,140.6L161.6,139.0L161.6,137.4L162.4,135.8L158.6,134.0L158.2,132.4L156.4,130.2L157.2,128.0L156.4,126.2L155.4,124.4L154.6,123.0L153.2,121.8L152.8,120.0L151.0,119.0L149.4,118.2L149.2,117.0L149.8,115.0L151.6,115.6L152.8,114.6L152.4,113.8L152.4,111.0L154.2,110.2L154.6,109.2L155.8,109.0L156.8,107.8L159.2,108.6L160.0,107.0L161.8,107.4L162.8,106.6L163.2,104.8L164.6,103.8L165.2,104.8L166.6,105.0L168.6,106.2L170.4,106.2L170.8,104.2L170.4,102.8L171.0,101.4L170.0,100.2L170.8,99.0L171.2,97.8L168.0,94.6ZM201.8,71.0L203.2,71.2L204.6,68.8L205.8,73.0L204.2,75.0L204.6,76.8L201.0,79.4L199.4,77.6L200.2,75.8L200.0,74.2L201.0,72.8Z" />
		<path id="L1611021729663" name="安庆市" class="qing-map-1616124461770" d="M118.6,401.4L118.8,398.4L120.8,396.2L122.4,395.0L123.6,393.8L125.4,395.0L128.0,394.0L129.6,394.2L130.4,396.6L132.0,397.4L134.4,396.6L136.0,395.2L137.6,394.6L138.4,392.8L140.6,390.8L141.6,388.8L143.4,388.6L144.8,387.4L145.2,386.2L146.4,385.8L148.2,387.0L150.6,387.2L152.6,389.8L154.4,390.6L157.2,389.0L157.8,387.8L159.0,388.8L162.0,385.0L163.0,388.6L163.2,392.6L161.6,395.6L160.8,398.0L161.0,400.6L163.2,399.8L164.2,398.4L166.2,398.4L168.6,396.0L171.2,398.2L173.0,397.8L176.0,399.4L178.4,397.6L180.2,397.8L181.6,396.8L183.2,397.0L187.4,393.2L187.8,391.2L190.0,390.8L191.4,391.2L194.2,388.8L194.6,387.4L196.8,387.4L196.4,385.4L198.4,383.0L198.2,380.6L199.4,378.0L202.8,376.4L204.2,377.0L206.4,379.4L208.6,378.6L208.2,381.6L212.0,388.0L211.4,390.6L212.2,392.4L211.6,394.4L214.4,396.2L213.8,399.4L213.6,401.8L212.4,403.0L209.8,402.4L209.8,405.2L208.6,406.0L208.2,408.0L210.2,416.6L210.4,421.2L210.6,427.2L212.4,428.4L212.4,430.0L215.6,432.0L216.4,434.2L218.2,433.0L219.6,434.4L222.0,434.2L219.2,436.4L219.4,439.2L221.0,441.0L223.2,446.6L222.2,452.6L221.8,454.4L218.6,456.8L214.0,455.0L208.8,454.0L203.8,454.6L197.8,459.4L195.6,460.2L194.0,462.0L192.6,461.0L192.0,464.2L193.2,468.2L195.2,474.4L195.8,476.6L194.4,479.0L194.0,482.0L191.8,483.8L192.6,485.4L189.4,486.6L186.6,492.0L180.0,498.2L177.8,499.0L173.8,497.0L170.8,496.6L168.2,497.8L165.4,501.6L164.0,507.2L163.0,513.2L160.6,514.8L157.4,514.2L154.8,514.8L152.2,517.2L145.4,520.0L138.0,525.8L135.8,524.2L134.2,522.0L132.4,521.0L127.0,521.6L126.4,520.6L126.8,519.8L125.6,518.4L126.8,517.6L126.0,514.8L121.6,508.0L122.4,505.8L122.0,504.8L122.2,501.6L123.0,500.0L121.6,498.0L122.8,496.6L122.0,495.6L123.0,494.2L122.4,492.4L122.8,491.2L121.2,489.8L119.8,486.2L120.8,484.8L120.8,483.4L119.0,481.4L118.0,482.0L116.0,478.6L114.8,479.0L113.8,477.6L113.6,476.2L114.0,475.2L112.6,474.0L111.8,474.0L110.8,473.2L108.4,473.6L107.0,473.2L106.8,472.4L108.0,471.8L107.6,469.2L106.2,469.6L106.0,468.4L105.8,467.6L105.0,466.8L104.8,465.8L107.2,464.0L107.8,462.4L109.0,462.2L109.6,461.4L108.0,460.8L107.8,459.6L106.0,459.0L106.0,458.0L106.4,457.0L105.8,455.8L106.4,453.6L107.6,452.8L106.4,451.4L105.8,449.6L104.8,449.2L104.8,447.6L104.0,446.8L104.0,445.8L102.4,444.6L101.4,443.8L99.6,443.8L98.4,442.4L98.8,441.6L98.4,439.8L97.4,439.0L97.2,437.4L95.8,436.6L94.2,435.0L94.2,432.0L95.6,431.0L96.2,428.6L97.4,427.8L99.2,428.8L100.6,428.0L101.8,429.0L101.8,427.2L103.0,426.6L102.6,425.4L103.2,424.4L103.0,422.0L101.6,420.4L101.6,419.2L103.0,418.0L105.0,415.8L107.2,414.8L108.4,414.6L109.0,413.6L110.4,413.2L110.6,412.0L111.8,412.2L112.2,410.6L113.6,410.4L114.8,409.2L116.8,408.2L118.6,408.2L120.2,408.0L121.0,407.8L121.0,406.2L120.2,404.8L119.6,403.0Z" />
		<path id="L1611022795686" name="池州市" class="qing-map-1616124461770" d="M180.0,498.2L186.6,492.0L189.4,486.6L192.6,485.4L191.8,483.8L194.0,482.0L194.4,479.0L195.8,476.6L195.2,474.4L193.2,468.2L192.0,464.2L192.6,461.0L194.0,462.0L195.6,460.2L197.8,459.4L203.8,454.6L208.8,454.0L214.0,455.0L218.6,456.8L221.8,454.4L222.2,452.6L223.2,446.6L221.0,441.0L227.84,436.67L234.8,433.8L238.0,435.4L242.2,435.6L244.2,433.6L245.6,430.8L252.67,427.67L260.4,424.8L262.2,423.0L263.2,424.4L266.8,423.0L266.6,425.2L268.0,427.2L269.0,427.0L271.0,427.8L275.4,426.2L276.2,423.6L277.6,423.4L278.4,422.4L280.0,422.4L282.8,419.6L284.8,421.2L286.8,419.4L287.4,421.4L285.8,423.8L287.6,424.2L289.0,425.6L291.4,426.0L294.0,427.0L294.0,428.6L297.0,429.8L298.0,430.8L299.2,432.6L299.2,435.0L296.6,438.0L297.8,439.0L294.0,443.8L292.2,443.4L290.2,446.4L287.6,446.6L286.8,447.4L287.2,449.6L285.8,452.4L283.2,457.8L283.8,459.4L283.0,461.4L284.2,465.0L281.8,467.6L283.2,470.2L280.2,474.0L278.4,474.2L279.0,476.8L276.8,477.8L273.0,481.0L276.0,482.2L275.4,484.6L273.8,486.4L272.4,486.2L271.2,487.4L270.0,487.8L269.0,489.0L267.8,488.2L265.8,488.8L263.0,489.6L261.4,490.4L260.8,491.8L259.4,493.0L257.8,493.0L256.6,494.2L254.8,493.2L254.4,491.4L251.4,493.0L250.8,495.4L247.8,493.6L248.6,498.6L244.6,500.8L243.6,500.6L242.4,501.0L241.8,500.2L240.0,502.2L237.2,501.0L236.0,501.6L235.4,503.8L232.6,503.2L227.0,505.0L225.4,504.4L223.2,506.6L220.8,506.4L219.0,507.2L220.6,509.8L220.0,511.2L217.0,512.2L215.4,512.6L212.8,514.4L212.6,515.8L213.2,517.0L210.6,519.2L209.4,520.4L208.0,521.0L209.8,522.6L210.6,524.2L212.8,524.4L213.4,525.8L211.0,529.0L212.0,532.0L211.2,533.4L210.2,533.6L209.2,534.6L208.2,534.4L207.4,535.6L206.4,535.4L205.0,536.6L204.0,535.8L201.8,535.6L199.6,538.0L198.0,539.4L195.8,539.2L191.4,542.6L190.6,543.8L189.4,544.6L188.2,547.0L184.8,548.2L183.0,547.0L182.4,545.4L181.0,544.0L179.0,544.8L178.8,546.4L178.0,547.8L177.0,545.0L174.6,543.8L174.4,542.0L172.6,541.0L171.2,539.0L173.2,537.6L174.8,537.0L173.8,535.8L171.4,535.4L171.4,534.0L173.0,534.2L173.4,532.4L173.2,531.2L175.2,530.2L176.2,529.8L176.8,528.4L178.6,527.0L179.0,525.2L180.6,523.8L183.0,525.0L184.6,522.8L186.0,522.8L186.6,522.0L186.0,520.8L187.4,520.0L191.4,515.2L192.2,511.0L193.0,510.0L192.8,508.0L191.6,507.0L190.8,505.8L187.8,507.0L186.6,506.4L187.0,503.6L184.4,504.4L183.4,503.8L182.6,500.8Z" />
		<path id="L1611021248130" name="铜陵市" class="qing-map-1616124461770" d="M214.4,396.2L216.8,395.0L220.8,399.0L221.2,401.0L224.2,403.4L227.2,404.8L228.4,403.6L229.8,404.4L231.6,404.4L233.4,406.0L233.0,407.4L234.6,408.4L235.2,406.8L237.8,405.6L240.0,406.0L240.8,404.8L243.0,404.0L245.2,402.8L247.2,403.6L247.8,405.2L248.0,406.6L250.0,406.2L251.8,407.0L253.0,405.8L255.2,406.4L257.0,407.0L259.0,408.2L260.4,406.6L261.4,403.6L262.8,402.2L265.4,401.8L267.4,396.2L268.0,393.8L269.8,391.8L272.6,390.6L275.4,390.6L276.8,392.4L279.6,395.8L282.8,396.4L286.4,395.0L288.0,396.0L289.6,396.6L289.4,399.8L291.2,401.2L295.0,402.6L297.6,406.2L301.8,406.6L301.4,410.0L302.2,412.0L300.8,413.2L299.4,413.2L295.0,416.2L293.6,416.2L292.0,416.8L290.6,418.2L288.6,417.8L286.8,419.4L284.8,421.2L282.8,419.6L280.0,422.4L278.4,422.4L277.6,423.4L276.2,423.6L275.4,426.2L271.0,427.8L269.0,427.0L268.0,427.2L266.6,425.2L266.8,423.0L263.2,424.4L262.2,423.0L260.4,424.8L252.67,427.67L245.6,430.8L244.2,433.6L242.2,435.6L238.0,435.4L234.8,433.8L227.84,436.67L221.0,441.0L219.4,439.2L219.2,436.4L222.0,434.2L219.6,434.4L218.2,433.0L216.4,434.2L215.6,432.0L212.4,430.0L212.4,428.4L210.6,427.2L210.4,421.2L210.2,416.6L208.2,408.0L208.6,406.0L209.8,405.2L209.8,402.4L212.4,403.0L213.6,401.8L213.8,399.4ZM194.6,438.4L196.4,437.4L199.2,438.8L197.8,440.8L195.8,440.8ZM224.0,458.2L227.2,456.0L228.0,454.6L229.6,454.6L230.2,456.8L227.2,459.8L226.2,462.2L223.8,461.6L224.4,460.0Z" />
		<path id="L1611023533056" name="黄山市" class="qing-map-1616124461770" d="M220.0,511.2L220.6,509.8L219.0,507.2L220.8,506.4L223.2,506.6L225.4,504.4L227.0,505.0L232.6,503.2L235.4,503.8L236.0,501.6L237.2,501.0L240.0,502.2L241.8,500.2L242.4,501.0L243.6,500.6L244.6,500.8L248.6,498.6L247.8,493.6L250.8,495.4L251.4,493.0L254.4,491.4L254.8,493.2L256.6,494.2L257.8,493.0L259.4,493.0L260.8,491.8L261.4,490.4L263.0,489.6L265.8,488.8L267.8,488.2L269.0,489.0L270.0,487.8L271.2,487.4L272.4,486.2L273.8,486.4L275.4,484.6L276.0,482.2L273.0,481.0L276.8,477.8L279.0,476.8L278.4,474.2L280.2,474.0L283.2,470.2L281.8,467.6L284.2,465.0L283.0,461.4L283.8,459.4L283.2,457.8L285.8,452.4L287.33,454.5L288.5,454.83L289.5,453.83L291.0,455.0L294.0,452.67L297.17,452.33L298.83,453.17L298.5,454.67L298.67,456.67L297.17,457.17L298.33,459.17L297.83,461.17L298.83,461.5L300.33,460.5L301.83,460.5L303.17,458.17L304.83,457.17L306.67,457.0L308.33,459.33L307.17,460.5L307.5,462.5L310.33,464.67L311.0,466.33L314.33,467.33L313.83,468.5L315.0,469.17L314.33,470.33L315.0,471.83L315.17,473.0L314.33,473.83L315.17,474.83L314.5,475.83L312.83,476.17L312.33,477.67L311.33,479.17L313.83,481.0L313.5,482.33L313.17,483.67L313.0,484.5L315.83,484.5L317.17,487.0L318.33,488.0L317.33,489.33L319.5,492.17L319.33,493.67L321.0,494.5L322.5,493.5L324.67,494.83L326.33,493.83L329.67,496.67L331.17,497.0L332.0,498.67L333.0,499.5L332.83,501.0L331.67,502.5L331.67,504.17L334.0,504.67L333.5,506.67L336.17,508.5L341.5,506.0L341.33,504.17L343.83,501.67L345.83,502.33L347.83,501.67L349.33,497.83L351.5,497.5L352.83,495.17L354.5,496.83L358.17,495.67L359.5,493.83L362.17,492.67L363.67,493.83L365.17,494.5L365.0,496.17L365.67,497.5L365.67,500.83L366.83,501.33L365.67,504.83L366.5,505.67L365.67,508.0L366.0,510.5L364.0,509.5L363.17,510.33L362.17,509.83L361.17,511.17L361.83,513.0L361.33,515.17L355.83,520.0L355.0,519.17L353.5,519.67L353.67,520.83L354.5,522.0L352.33,522.83L352.33,525.83L353.5,527.17L353.17,529.0L353.0,530.5L351.17,532.0L350.83,533.17L348.83,533.83L347.5,535.17L346.67,537.5L344.5,540.0L342.17,539.17L340.33,540.0L338.17,540.67L336.83,542.67L335.67,543.5L334.67,545.33L332.0,546.5L331.17,549.17L331.33,552.17L329.5,553.5L328.83,553.0L326.5,553.0L325.5,554.5L324.17,553.33L323.5,553.67L322.0,553.67L319.5,556.17L318.17,556.5L317.0,555.17L315.33,554.83L315.0,555.5L315.67,561.83L313.83,562.33L313.17,561.83L310.83,561.83L309.83,561.17L307.67,562.0L306.17,564.33L305.5,565.0L304.33,564.0L301.67,562.83L300.0,561.0L300.17,560.33L300.17,557.83L299.33,557.0L300.5,555.5L299.33,552.67L297.83,552.5L297.0,550.83L293.5,550.17L291.5,547.33L288.67,546.67L287.33,548.0L286.0,547.67L285.0,547.5L283.5,549.0L282.5,548.33L280.33,549.0L279.0,549.83L277.83,549.67L277.0,548.83L276.67,547.67L274.83,548.0L273.33,548.17L271.83,546.83L270.0,548.33L268.83,547.33L268.0,548.67L267.17,548.0L265.67,549.33L264.5,549.33L264.17,548.67L262.33,549.5L261.33,548.5L260.83,547.0L260.83,546.0L259.83,545.17L259.0,544.17L259.0,543.5L257.83,543.17L256.17,543.67L254.67,544.67L253.17,546.0L251.83,545.0L249.83,544.83L248.0,544.17L247.17,541.83L247.17,540.67L247.5,538.83L246.0,537.33L245.0,537.83L243.17,537.83L242.83,536.17L241.17,535.17L240.67,534.33L241.17,531.0L240.33,530.0L240.17,528.5L239.17,528.33L238.17,526.83L238.17,526.0L237.17,525.33L236.83,524.5L237.67,523.5L237.67,522.17L238.5,520.17L237.83,519.17L235.83,519.33L234.83,521.5L233.33,523.0L231.83,522.0L231.67,520.0L230.83,519.0L228.83,520.33L227.33,520.33L226.83,521.5L225.67,521.67L225.0,520.83L223.33,520.67L222.67,519.5L223.67,518.33L224.67,516.0L224.0,514.0L222.83,512.83L221.83,512.67Z" />
		<path id="L1611024373548" name="滁州市" class="qing-map-1616124461770" d="M294.2,184.6L296.0,183.0L302.0,180.8L302.0,179.4L301.4,178.4L303.2,176.2L306.2,177.4L307.2,179.0L307.2,189.0L308.2,190.8L306.2,191.0L306.4,192.2L308.6,192.2L309.4,195.2L309.4,199.2L311.4,201.2L314.0,201.8L315.2,202.8L313.4,204.2L311.4,204.6L309.2,204.8L308.2,206.4L309.6,212.2L309.4,213.8L310.2,215.0L311.4,213.0L312.8,213.4L314.8,218.0L314.2,219.6L314.8,221.0L316.4,221.6L316.4,223.0L317.2,223.2L317.8,222.4L319.8,222.2L320.2,223.8L320.0,226.0L320.4,227.8L325.0,228.0L327.6,225.2L328.2,227.2L330.4,227.8L336.0,226.6L338.4,227.8L341.4,226.8L341.6,225.6L343.8,225.0L347.6,226.6L349.4,227.4L351.0,227.4L352.0,226.2L353.8,225.8L353.8,224.2L352.4,222.4L352.2,219.8L353.0,217.6L352.4,214.4L353.2,213.4L356.6,214.6L358.8,212.8L358.2,211.6L359.2,211.0L359.2,208.6L358.6,207.6L359.4,207.0L360.2,207.8L361.0,207.4L361.0,206.4L362.0,205.4L361.4,204.4L361.8,203.2L365.4,203.0L365.2,204.8L366.8,204.2L368.6,204.8L370.2,204.0L371.8,204.4L374.2,203.2L377.0,203.6L377.2,205.6L376.4,206.6L376.4,208.0L379.2,208.0L379.2,209.8L381.0,212.6L382.8,214.0L383.8,215.8L385.6,216.8L390.8,216.2L393.2,226.0L393.4,230.0L393.4,235.6L394.4,237.0L393.0,238.2L395.0,239.0L393.6,243.2L392.4,242.0L391.4,241.4L391.0,240.2L390.0,240.6L390.4,241.8L388.2,244.0L389.6,245.8L388.0,247.0L388.6,249.0L387.2,251.2L385.8,250.8L385.0,252.2L383.0,253.4L382.8,254.4L382.0,254.8L380.4,254.4L379.8,252.6L379.8,251.6L378.8,251.0L378.4,249.2L375.8,248.4L374.8,250.0L372.6,250.0L372.4,248.4L369.8,244.8L368.4,244.4L367.2,245.0L366.2,245.4L365.2,244.4L366.2,243.4L366.0,242.6L367.0,241.4L365.2,240.8L365.0,242.0L362.8,242.2L361.4,243.2L360.2,242.4L359.2,239.4L358.0,240.4L358.2,241.8L356.8,241.4L355.6,240.8L354.8,239.6L354.0,239.2L352.6,240.8L351.6,240.2L351.2,239.2L349.2,239.2L349.2,240.6L344.8,240.8L343.6,241.8L341.6,240.4L340.2,240.4L338.6,241.0L337.4,243.6L341.0,246.4L340.8,247.8L342.0,249.0L341.0,250.2L339.8,250.2L339.8,252.4L341.0,253.0L343.4,253.2L345.0,252.2L346.6,253.4L348.0,253.2L348.2,257.0L348.2,259.2L347.4,261.4L349.0,264.0L348.6,266.4L349.6,267.6L347.8,267.8L347.2,269.4L346.0,270.4L346.2,272.0L345.8,274.2L346.8,275.4L346.6,276.8L345.6,278.6L343.4,280.4L341.6,280.6L339.2,281.0L338.2,280.2L337.4,281.4L336.2,281.2L334.4,282.2L332.8,281.4L332.4,282.8L331.2,283.4L332.4,287.2L331.2,287.2L330.8,289.0L329.6,289.6L328.4,291.2L327.2,291.8L325.6,292.6L324.4,292.8L322.2,294.2L321.4,295.6L316.2,299.2L314.2,303.0L308.6,308.2L305.8,308.8L303.2,311.2L298.8,311.2L296.0,313.6L295.8,315.2L295.0,316.4L293.8,315.4L291.0,316.8L288.8,314.4L287.2,313.8L286.6,312.4L284.4,311.6L283.0,310.2L280.2,308.8L277.0,308.4L276.4,306.2L274.8,305.0L272.6,301.4L274.4,299.8L274.4,298.0L276.2,297.6L278.0,294.8L276.2,291.6L275.8,289.2L277.6,286.6L276.2,280.0L273.4,277.6L270.6,278.6L269.6,277.2L267.0,277.2L265.0,276.4L263.4,276.8L262.2,275.2L260.2,275.4L258.2,274.8L250.8,278.4L249.8,279.8L244.4,280.6L241.8,277.8L239.4,277.4L238.6,275.2L237.6,274.2L236.4,271.8L238.4,267.0L239.8,266.0L240.0,264.4L237.6,262.6L235.6,262.0L233.6,262.8L232.8,261.6L234.0,260.8L235.2,258.6L235.2,255.8L236.6,253.8L236.0,252.2L234.6,254.4L232.0,254.6L230.0,256.2L228.8,255.0L226.4,255.6L223.8,254.2L220.4,253.2L219.8,248.4L218.4,246.0L220.0,244.6L219.0,242.6L218.6,238.8L217.0,233.6L215.8,231.0L217.6,229.8L218.0,227.6L219.0,226.8L218.8,225.6L222.0,222.6L222.0,220.4L223.6,219.2L225.2,219.2L226.2,217.4L228.0,217.8L229.0,216.4L231.6,216.2L233.8,215.0L237.0,215.6L239.0,215.0L242.0,214.6L243.4,214.4L244.8,212.8L246.0,211.4L245.8,209.8L246.6,205.4L247.6,204.4L248.2,201.0L253.4,206.0L256.2,206.6L257.8,207.6L260.2,206.6L262.0,201.6L263.0,198.2L266.2,197.2L269.0,193.6L271.4,195.4L278.0,194.4L279.4,197.2L278.2,198.4L281.4,199.8L284.6,197.2L285.6,198.0L287.2,197.4L288.6,198.0L290.8,197.2L290.6,195.4L289.0,194.0L289.4,193.2L290.6,191.8L291.8,191.4L294.2,191.0L294.2,188.4L294.6,186.4Z" />
		<path id="L1611025127311" name="阜阳市" class="qing-map-1616124461770" d="M83.2,138.0L86.6,145.8L90.8,145.2L96.2,148.4L96.8,150.2L98.4,150.2L99.8,152.0L101.4,152.0L105.2,156.4L105.6,161.4L108.4,166.8L107.2,167.8L107.2,169.6L106.6,171.8L107.8,173.6L108.0,174.8L107.2,176.2L105.2,173.6L101.0,171.2L100.4,173.2L100.6,175.0L100.6,177.0L101.6,178.2L101.4,179.6L100.0,180.6L99.6,181.8L101.8,182.2L101.6,184.6L103.6,185.6L103.0,188.4L106.8,188.8L108.8,189.0L111.2,189.4L111.8,191.4L113.2,191.2L114.4,192.2L116.2,192.4L115.8,194.2L118.6,193.8L119.6,196.2L119.8,197.6L119.0,199.0L126.6,200.6L128.8,202.0L128.4,204.6L130.2,207.0L131.0,207.6L131.6,209.6L135.8,210.2L136.0,212.0L137.4,212.4L139.4,213.0L142.8,211.8L145.0,211.4L146.4,209.2L148.2,209.6L148.2,211.8L148.8,213.6L150.0,214.0L152.0,214.4L153.2,215.4L152.4,217.6L153.4,220.4L153.4,223.0L153.4,224.8L154.2,227.2L152.8,229.2L154.6,231.6L158.0,231.4L158.2,233.2L160.2,233.8L162.4,239.6L163.0,241.0L166.2,240.8L168.2,241.4L169.6,244.0L168.2,245.6L164.6,245.8L161.8,247.2L160.6,249.6L160.6,250.8L159.6,252.4L159.0,253.8L157.6,253.6L157.4,254.8L156.4,256.6L153.6,255.6L151.8,255.6L150.0,256.0L145.0,251.8L143.2,248.6L141.8,248.0L138.6,248.2L137.8,251.0L136.4,251.8L136.8,254.0L135.8,253.8L134.4,254.2L133.2,253.8L132.6,256.0L131.2,255.2L129.8,257.8L129.0,256.0L127.4,256.2L127.4,254.0L125.4,253.0L122.4,246.0L118.6,245.0L117.0,241.6L113.8,239.4L111.4,240.0L108.4,242.8L107.4,242.2L105.6,242.0L102.6,246.0L100.6,247.4L100.8,250.0L99.0,250.0L97.8,251.4L96.4,252.0L95.4,250.4L92.8,252.4L89.0,250.8L88.0,251.2L88.6,252.6L88.0,253.6L86.8,253.6L87.2,256.0L86.4,258.6L85.0,260.0L84.2,257.6L82.6,259.8L80.6,257.8L78.2,259.0L76.0,258.0L75.0,256.2L72.8,255.6L71.0,251.0L69.2,249.0L65.2,247.0L67.0,245.4L65.0,245.0L63.8,244.0L63.6,242.4L56.8,243.6L54.8,244.8L54.0,243.6L53.6,242.2L53.2,241.0L52.2,240.4L52.0,241.2L50.8,241.8L49.0,240.0L48.2,241.6L47.4,240.6L46.2,240.6L44.8,239.6L45.6,238.8L46.0,232.4L43.8,232.4L43.0,231.4L43.6,229.4L44.0,228.0L44.0,226.2L43.6,224.4L44.0,222.8L43.4,221.2L45.0,220.6L46.2,221.0L46.2,219.6L45.2,219.0L44.4,218.4L44.8,217.0L45.2,216.0L43.6,215.2L45.4,214.6L45.0,213.6L43.0,213.2L41.8,213.0L41.2,212.2L41.2,211.4L40.0,210.8L40.0,209.2L38.0,208.6L36.8,209.6L35.6,208.8L33.4,209.0L32.2,208.4L30.4,208.6L31.2,205.6L27.8,204.8L26.6,204.2L23.8,205.8L22.6,204.0L20.0,201.4L17.8,201.4L18.0,199.6L20.2,198.4L19.0,197.0L21.8,196.6L23.0,195.6L21.4,194.6L21.4,191.6L20.4,189.6L18.8,189.8L18.6,188.6L19.8,187.8L19.8,186.4L18.8,185.2L20.2,184.8L21.0,184.8L21.8,184.2L22.2,182.8L24.8,183.4L25.0,184.6L26.6,186.0L27.6,188.4L28.8,188.8L30.4,189.6L33.8,190.0L35.2,189.2L36.8,190.2L41.2,190.4L42.6,189.8L42.6,187.2L45.2,186.4L46.0,186.6L49.2,185.2L50.8,184.4L52.2,185.0L53.8,184.4L54.0,181.2L53.4,179.8L53.8,177.8L56.4,177.2L55.4,176.0L56.6,174.4L56.6,172.8L58.0,171.0L57.2,167.8L58.4,168.2L59.6,163.8L58.4,163.8L57.4,159.8L56.0,160.4L55.2,160.0L55.2,159.0L57.2,157.4L55.8,155.4L55.2,153.2L55.8,151.6L57.6,152.6L58.4,151.6L58.2,150.4L58.0,146.6L60.0,145.0L62.8,146.6L63.6,141.6L67.8,139.6L68.6,141.0L69.6,141.2L71.0,139.8L72.2,141.0L74.6,139.6L76.8,140.2L76.6,138.6L80.0,138.6Z" />
		<path id="L1611026604967" name="宿州市" class="qing-map-1616124461770" d="M201.8,67.4L203.4,66.8L202.8,68.6L204.6,68.8L203.2,71.2L201.8,71.0L201.0,72.8L200.0,74.2L200.0,74.2L200.2,75.8L199.4,77.6L201.0,79.4L204.6,76.8L207.2,78.6L207.6,79.4L210.4,79.0L210.6,80.6L212.2,80.8L213.0,82.2L212.0,83.4L214.4,84.2L214.8,86.2L216.6,86.2L217.2,87.2L219.4,87.0L220.0,86.2L221.4,88.2L225.2,86.4L226.6,86.8L228.8,87.6L229.6,86.0L233.0,85.6L234.0,86.8L233.4,87.8L235.4,88.8L236.4,90.0L236.6,91.6L241.0,91.6L240.8,90.6L243.2,89.6L244.8,89.6L245.8,88.4L248.6,90.0L248.4,93.2L250.2,94.8L250.4,96.2L252.4,95.8L252.4,94.8L253.6,94.8L255.2,94.0L254.2,91.4L256.0,90.0L256.0,92.6L258.8,94.2L259.6,96.0L258.6,97.4L258.8,98.6L259.8,99.6L259.8,101.8L261.8,102.8L262.4,106.2L264.2,107.0L264.4,105.8L266.0,105.6L267.6,106.4L266.6,109.4L266.8,111.2L266.0,112.6L266.8,114.0L266.6,116.0L265.4,118.0L265.4,120.6L264.4,121.2L265.6,123.4L270.0,122.4L274.8,122.0L277.6,122.8L279.0,124.8L280.4,123.8L279.6,122.2L281.2,121.6L281.4,122.6L284.0,122.8L284.6,120.0L286.4,120.6L290.0,121.2L293.2,120.2L294.6,119.2L296.8,119.4L298.6,118.6L298.8,119.8L301.4,120.6L302.4,120.2L304.0,121.0L304.4,122.0L302.4,122.2L301.2,123.4L302.8,124.2L303.0,129.4L298.0,134.0L298.4,137.4L297.4,146.0L297.6,149.0L293.0,147.6L292.0,149.8L290.4,151.4L290.2,153.6L289.6,156.2L290.8,158.2L290.0,160.6L289.0,162.0L285.8,162.2L286.2,163.6L281.6,164.2L280.2,163.2L278.4,164.6L275.8,164.8L275.2,168.0L272.6,168.0L271.6,170.2L269.6,169.4L265.8,170.0L262.4,168.6L260.0,166.4L258.2,164.8L255.2,163.2L252.2,164.8L249.0,164.4L245.0,163.2L243.0,162.8L239.0,159.4L238.0,157.0L236.2,154.6L235.8,152.4L234.6,150.8L229.4,149.2L228.4,147.6L223.0,146.6L222.6,148.0L221.2,149.4L221.2,150.8L219.4,152.0L218.6,154.0L215.6,151.0L214.8,152.6L213.6,153.0L213.0,154.4L214.0,155.8L213.2,158.2L211.6,158.0L209.0,156.4L206.6,159.6L209.6,161.8L207.6,165.0L210.2,166.4L209.4,168.8L203.6,168.2L202.4,169.4L197.4,168.2L194.8,166.4L194.8,163.8L196.2,160.2L197.4,160.0L198.6,158.2L198.8,155.4L198.2,152.2L196.6,152.0L195.2,150.0L193.6,148.8L194.0,147.2L193.6,144.0L195.2,139.0L192.6,138.4L190.4,135.8L189.67,133.17L191.0,132.33L191.33,130.33L190.67,128.83L191.17,128.17L192.33,127.67L195.5,128.5L195.67,125.5L196.33,124.33L196.17,121.0L196.83,120.17L196.33,118.33L197.33,115.67L197.33,111.67L198.17,109.17L198.5,105.67L201.17,102.83L201.17,100.67L200.83,98.33L198.83,98.0L198.67,96.83L199.83,94.17L199.33,92.83L199.17,91.33L197.17,90.83L197.33,89.33L198.83,86.5L196.0,85.67L196.0,84.5L193.83,83.33L190.83,86.5L188.67,86.17L186.67,87.67L185.67,86.67L185.0,87.83L184.33,94.17L182.83,93.33L180.83,93.17L179.0,92.5L173.33,93.17L170.67,92.5L166.83,92.33L166.6,90.2L164.6,88.2L164.8,87.2L163.2,85.0L161.8,84.4L160.4,82.0L161.4,81.0L161.0,79.0L162.0,78.8L162.2,77.4L163.6,76.8L163.6,75.4L162.0,73.6L161.8,70.0L164.6,66.6L164.8,65.6L163.4,65.2L162.8,64.2L157.8,63.2L155.8,66.0L154.0,65.8L153.0,64.6L150.6,66.4L146.2,66.2L145.8,65.2L147.4,63.4L145.4,60.0L143.2,59.4L141.0,59.4L140.6,58.0L137.4,54.8L136.0,55.2L134.0,55.2L132.6,54.0L133.2,52.0L130.4,48.0L128.6,46.6L129.4,44.6L131.2,41.4L132.6,41.2L132.6,38.8L131.4,37.8L132.0,36.4L131.8,34.4L133.4,34.2L134.4,36.0L136.2,36.6L136.8,34.6L137.4,33.4L138.8,33.4L138.8,31.0L140.2,30.8L141.2,31.6L142.8,31.6L143.8,28.6L145.2,29.2L148.8,27.0L150.2,26.8L151.8,25.8L151.8,28.2L154.4,29.0L154.6,30.0L156.2,30.2L156.2,32.2L157.2,34.8L158.4,35.2L158.2,36.2L160.4,36.2L159.8,37.4L162.4,37.4L163.4,38.6L164.4,39.2L166.6,41.2L166.2,42.0L164.6,41.8L164.0,43.0L165.0,43.6L166.8,43.4L168.6,43.8L170.8,44.2L172.2,44.6L176.6,44.8L178.2,45.8L180.8,46.6L181.8,49.0L185.8,52.8L186.6,54.6L187.8,53.2L190.4,52.0L193.0,52.2L194.0,52.0L198.8,53.2L197.6,55.8L199.6,56.4L199.6,58.8L198.4,60.6L199.4,64.6Z" />
		<path id="L1611027354643" name="六安市" class="qing-map-1616124461770" d="M108.4,242.8L111.4,240.0L113.8,239.4L117.0,241.6L118.6,245.0L122.4,246.0L125.4,253.0L127.4,254.0L127.4,256.2L129.0,256.0L129.8,257.8L131.2,255.2L132.6,256.0L133.2,253.8L134.4,254.2L135.8,253.8L136.8,254.0L136.4,251.8L137.8,251.0L138.6,248.2L141.8,248.0L143.2,248.6L145.0,251.8L150.0,256.0L151.8,255.6L153.6,255.6L156.4,256.6L156.8,257.8L156.0,259.6L157.8,260.6L156.4,263.8L158.4,266.0L159.8,269.2L160.8,273.2L160.0,275.0L160.8,277.6L158.0,279.4L159.6,281.4L159.2,283.6L161.0,286.6L160.4,289.4L162.4,293.2L162.2,295.6L162.6,298.4L166.2,299.6L167.6,301.4L170.8,302.0L172.8,303.2L174.0,304.6L175.8,311.4L178.0,309.6L181.6,310.6L179.8,312.2L177.4,313.0L177.4,314.8L178.8,316.0L178.2,317.2L176.4,318.0L175.6,320.6L178.2,323.6L180.4,326.4L180.4,329.0L179.4,330.2L181.0,332.2L180.8,336.6L180.8,338.6L181.0,341.0L182.0,345.8L184.8,348.8L187.0,350.6L189.2,349.6L191.2,349.0L193.6,349.2L196.0,348.8L200.2,349.0L201.2,346.4L202.2,347.4L205.6,349.0L208.0,347.4L211.6,348.2L213.6,347.2L215.4,347.6L217.8,347.2L219.6,348.4L221.0,348.6L221.6,350.2L221.6,353.2L217.4,353.2L212.8,355.6L209.8,360.6L208.6,364.0L208.0,366.0L208.4,367.8L207.4,369.6L207.4,373.4L205.4,374.8L205.4,376.0L204.2,377.0L202.8,376.4L199.4,378.0L198.2,380.6L198.4,383.0L196.4,385.4L196.8,387.4L194.6,387.4L194.2,388.8L191.4,391.2L190.0,390.8L187.8,391.2L187.4,393.2L183.2,397.0L181.6,396.8L180.2,397.8L178.4,397.6L176.0,399.4L173.0,397.8L171.2,398.2L168.6,396.0L166.2,398.4L164.2,398.4L163.2,399.8L161.0,400.6L160.8,398.0L161.6,395.6L163.2,392.6L163.0,388.6L162.0,385.0L159.0,388.8L157.8,387.8L157.2,389.0L154.4,390.6L152.6,389.8L150.6,387.2L148.2,387.0L146.4,385.8L145.2,386.2L144.8,387.4L143.4,388.6L141.6,388.8L140.6,390.8L138.4,392.8L137.6,394.6L136.0,395.2L134.4,396.6L132.0,397.4L130.4,396.6L129.6,394.2L128.0,394.0L125.4,395.0L123.6,393.8L122.4,395.0L120.8,396.2L118.8,398.4L118.6,401.4L116.8,402.2L115.6,402.0L115.2,400.6L114.2,399.6L113.2,399.4L111.8,399.6L110.6,398.6L109.4,398.8L110.0,397.4L107.4,394.2L105.6,393.8L104.8,391.6L105.2,390.6L104.6,389.0L103.4,388.4L102.4,388.8L101.6,390.0L99.2,391.0L97.4,390.2L94.8,392.8L94.2,391.2L93.6,389.0L92.4,387.8L91.2,387.6L91.4,385.8L89.4,384.8L89.4,383.4L87.6,383.0L85.4,381.4L83.6,381.2L83.6,383.2L82.4,385.2L81.4,384.8L80.6,386.2L80.2,387.2L79.0,389.2L76.2,386.8L76.6,386.0L75.8,384.6L74.6,383.2L75.2,380.4L73.2,376.8L69.8,375.8L69.0,376.6L68.8,375.4L67.8,375.2L67.8,372.8L67.2,371.4L66.6,369.4L65.6,367.8L64.6,367.4L63.8,368.8L62.4,369.0L61.2,368.4L60.8,367.2L62.0,363.8L60.6,362.4L61.6,361.4L61.6,358.4L60.0,354.0L60.2,353.0L61.8,352.0L63.4,350.8L65.4,347.2L65.2,345.2L66.2,343.8L67.8,342.8L69.6,341.4L70.4,340.8L70.4,339.0L69.4,337.8L70.0,336.0L71.2,334.6L72.2,334.0L73.2,332.2L75.2,332.6L76.4,331.2L77.8,331.0L79.0,329.8L80.4,329.2L81.6,328.6L82.6,327.8L82.6,326.8L83.8,326.0L85.4,325.4L87.0,324.0L89.2,325.4L91.6,326.0L91.6,324.8L92.2,323.6L93.6,323.6L94.6,323.0L96.4,324.6L97.6,324.6L99.2,325.4L99.8,323.8L100.8,324.8L101.8,323.6L102.8,324.6L104.8,324.2L106.0,323.0L106.8,322.2L107.4,320.2L106.4,318.6L105.8,317.6L105.8,314.2L107.8,311.0L108.2,308.4L107.2,307.2L108.4,301.8L109.4,302.0L108.0,298.6L108.6,297.6L107.8,296.2L109.4,294.4L109.2,292.4L109.2,288.8L109.8,287.2L109.4,286.0L110.0,284.4L108.0,282.0L107.2,278.8L107.8,273.8L107.0,272.0L106.2,270.6L106.6,268.0L106.2,266.2L106.0,261.2L104.4,256.8L104.4,254.6L102.6,253.6L104.0,252.2L104.2,250.6L103.4,249.6L101.0,248.6L103.4,247.4L103.8,245.4L105.8,244.2Z" />
		<path id="L1611034356174" name="亳州市" class="qing-map-1616124461770" d="M149.2,117.0L149.4,118.2L151.0,119.0L152.8,120.0L153.2,121.8L154.6,123.0L155.4,124.4L156.4,126.2L157.2,128.0L156.4,130.2L158.2,132.4L158.6,134.0L162.4,135.8L161.6,137.4L161.6,139.0L160.4,140.6L161.0,145.0L161.2,149.2L163.0,150.0L165.4,149.4L168.6,148.4L172.6,149.2L176.8,150.0L177.6,151.4L179.8,152.0L181.6,153.4L184.4,155.4L184.2,158.6L183.2,162.0L183.2,164.6L184.6,167.0L184.6,170.2L185.4,172.2L186.6,175.0L186.0,178.2L185.2,181.8L183.4,181.2L181.2,183.0L181.2,185.8L181.2,188.4L179.8,190.2L180.2,192.8L185.4,196.4L185.2,198.2L183.8,198.8L182.2,198.2L180.2,198.8L179.6,200.2L178.4,202.4L179.6,204.2L178.4,205.4L174.6,204.8L170.4,204.8L147.2,198.6L147.2,201.2L146.6,203.2L146.6,204.8L148.8,208.0L148.2,209.6L146.4,209.2L145.0,211.4L142.8,211.8L139.4,213.0L137.4,212.4L136.0,212.0L135.8,210.2L131.6,209.6L131.0,207.6L130.2,207.0L128.4,204.6L128.8,202.0L126.6,200.6L119.0,199.0L119.8,197.6L119.6,196.2L118.6,193.8L115.8,194.2L116.2,192.4L114.4,192.2L113.2,191.2L111.8,191.4L111.2,189.4L108.8,189.0L106.8,188.8L103.0,188.4L103.6,185.6L101.6,184.6L101.8,182.2L99.6,181.8L100.0,180.6L101.4,179.6L101.6,178.2L100.6,177.0L100.6,175.0L100.4,173.2L101.0,171.2L105.2,173.6L107.2,176.2L108.0,174.8L107.8,173.6L106.6,171.8L107.2,169.6L107.2,167.8L108.4,166.8L105.6,161.4L105.2,156.4L101.4,152.0L99.8,152.0L98.4,150.2L96.8,150.2L96.2,148.4L90.8,145.2L86.6,145.8L83.2,138.0L82.0,133.6L80.2,130.0L79.8,127.6L80.6,126.8L79.4,125.8L80.2,124.2L80.0,123.0L76.4,118.0L78.6,116.4L81.2,118.0L82.2,115.2L82.2,111.8L83.2,111.4L83.2,108.4L82.0,107.0L80.6,108.0L79.4,108.2L78.4,107.2L76.8,107.6L75.8,107.0L75.2,105.6L76.6,102.0L77.6,101.6L77.2,100.6L78.0,99.6L78.2,97.6L79.2,97.0L78.8,95.4L78.8,93.6L80.8,91.0L84.0,91.2L84.4,89.6L87.2,87.8L88.4,88.0L89.2,88.4L91.6,86.6L93.4,87.8L94.4,88.4L96.0,87.4L98.8,87.8L98.4,89.2L101.6,91.4L102.0,93.8L104.0,94.2L104.0,92.6L104.4,91.4L105.6,91.6L105.6,93.0L107.0,93.8L108.2,93.4L110.2,94.4L111.0,93.6L113.0,95.4L114.8,98.8L114.0,101.2L112.8,101.6L112.8,103.2L113.6,103.8L113.2,104.6L115.0,104.8L116.6,106.4L118.4,107.0L119.0,109.6L120.2,110.4L120.4,112.6L119.4,112.2L118.4,113.2L119.4,114.2L119.2,115.0L121.0,116.0L120.8,117.2L123.0,117.4L123.4,119.0L126.6,121.0L126.8,122.4L129.0,124.6L131.2,124.8L131.4,123.6L133.4,123.8L134.4,122.8L134.2,121.8L135.2,121.2L136.0,122.8L137.8,123.6L139.0,120.6L140.8,120.6L142.0,118.8L143.0,119.0L143.6,117.8L146.6,117.8Z" />
		<path id="L1611035147903" name="宣城市" class="qing-map-1616124461770" d="M345.4,373.2L349.8,371.6L351.6,374.6L354.2,375.2L355.8,376.8L356.0,378.8L357.4,380.2L359.0,379.4L360.6,379.8L364.4,379.0L365.0,379.8L366.4,380.2L368.2,379.0L370.8,379.8L373.0,379.6L374.0,380.0L376.0,378.8L378.2,379.4L379.0,380.0L379.8,379.2L381.8,379.8L382.8,379.4L384.0,379.4L384.2,377.8L385.6,376.8L386.4,376.8L388.8,373.4L389.2,374.4L391.2,372.8L392.2,373.6L392.0,375.8L393.6,375.8L396.0,377.2L397.2,376.4L398.8,377.6L401.8,376.6L403.8,376.8L405.8,374.6L405.6,373.0L406.6,373.2L406.8,375.0L407.8,376.0L406.2,379.4L406.8,380.6L406.2,382.6L406.8,383.4L408.4,384.0L411.4,385.8L413.4,385.8L415.2,387.4L417.0,387.8L417.8,386.6L419.0,387.6L420.8,387.0L422.4,388.0L424.0,389.2L425.2,391.6L426.4,392.8L428.2,390.4L429.2,392.2L430.6,392.6L429.6,395.0L430.0,396.6L429.2,397.8L430.0,398.6L429.4,399.8L429.8,402.2L427.2,404.8L426.8,406.0L425.6,407.6L425.6,409.6L424.8,411.4L424.0,411.8L424.6,413.0L423.4,413.0L423.6,414.4L423.6,416.0L424.0,417.6L425.0,418.0L425.4,420.4L423.6,420.8L422.6,422.6L420.8,425.6L419.2,426.4L418.0,425.8L416.6,426.6L416.8,428.6L416.8,430.6L417.6,432.6L416.6,433.8L415.4,435.8L413.8,436.6L413.8,438.2L411.2,439.2L409.8,437.8L409.2,435.6L407.8,435.4L405.4,437.0L403.8,439.0L403.6,440.6L402.0,441.8L400.8,441.8L396.4,442.4L395.6,443.2L398.4,445.8L396.0,450.0L397.6,451.2L398.4,452.6L399.4,452.6L402.4,450.8L403.8,450.8L404.4,453.0L403.8,454.8L404.4,459.0L405.4,459.8L406.0,463.2L407.4,465.4L408.8,465.6L410.2,466.2L410.0,467.4L409.0,467.4L407.6,468.4L405.8,468.8L404.0,467.4L403.0,466.8L401.4,467.6L399.4,470.0L397.6,470.2L396.8,470.2L395.6,474.2L392.6,474.8L390.6,474.2L388.8,474.6L388.4,473.6L386.6,474.0L383.0,472.0L380.6,473.6L379.6,472.6L378.6,472.6L377.4,471.0L375.6,471.2L374.4,470.8L373.8,469.8L372.0,469.4L371.2,468.0L370.0,469.4L368.6,470.4L366.2,471.8L364.8,472.6L364.8,473.8L364.4,475.4L365.8,477.6L365.0,479.6L366.6,481.6L367.0,482.6L368.0,482.8L368.4,483.8L367.2,484.8L366.4,486.0L361.2,487.6L362.4,489.6L364.4,490.2L366.0,488.4L366.8,490.0L365.8,491.8L364.0,491.4L363.6,492.4L362.17,492.67L359.5,493.83L358.17,495.67L354.5,496.83L352.83,495.17L351.5,497.5L349.33,497.83L347.83,501.67L345.83,502.33L343.83,501.67L341.33,504.17L341.5,506.0L336.17,508.5L333.5,506.67L334.0,504.67L331.67,504.17L331.67,502.5L332.83,501.0L333.0,499.5L332.0,498.67L331.17,497.0L329.67,496.67L326.33,493.83L324.67,494.83L322.5,493.5L321.0,494.5L319.33,493.67L319.5,492.17L317.33,489.33L318.33,488.0L317.17,487.0L315.83,484.5L313.0,484.5L313.17,483.67L313.5,482.33L313.83,481.0L311.33,479.17L312.33,477.67L312.83,476.17L314.5,475.83L315.17,474.83L314.33,473.83L315.17,473.0L315.0,471.83L314.33,470.33L315.0,469.17L313.83,468.5L314.33,467.33L311.0,466.33L310.33,464.67L307.5,462.5L307.17,460.5L308.33,459.33L306.67,457.0L304.83,457.17L303.17,458.17L301.83,460.5L300.33,460.5L298.83,461.5L297.83,461.17L298.33,459.17L297.17,457.17L298.67,456.67L298.5,454.67L298.83,453.17L297.17,452.33L294.0,452.67L291.0,455.0L289.5,453.83L288.5,454.83L287.33,454.5L285.8,452.4L287.2,449.6L286.8,447.4L287.6,446.6L290.2,446.4L292.2,443.4L294.0,443.8L297.8,439.0L300.6,438.0L302.2,435.6L307.2,432.4L309.4,434.0L310.8,432.8L312.8,432.8L313.8,433.6L315.4,433.6L315.2,432.2L313.8,431.0L312.6,429.2L313.4,427.8L314.8,425.6L314.6,423.8L315.8,421.8L318.2,420.6L319.8,419.6L322.4,418.8L325.0,419.8L324.4,422.2L325.8,423.8L327.4,424.2L327.6,425.8L330.0,427.4L330.2,425.0L332.2,422.8L331.8,421.6L330.2,420.2L331.6,417.6L330.2,416.2L331.2,415.0L331.2,413.0L333.2,411.8L332.0,409.8L333.6,409.6L332.8,408.2L334.4,407.6L336.2,406.4L338.0,406.0L339.0,404.6L338.8,402.8L337.8,401.2L339.2,400.2L339.8,398.8L341.2,399.8L343.6,400.4L345.6,397.4L347.2,396.2L347.0,394.4L347.8,392.4L347.6,391.0L351.4,388.2L351.0,385.8L349.0,385.0L344.4,377.8Z" />
	</g>
</svg>
