<svg xmlns="http://www.w3.org/2000/svg" viewBox="0,0,800,733" width="100%" height="100%">
	<defs>
		<style type="text/css">
.qing-map-1616120656252
{
	fill: #DDDDDD;
	fill-opacity: 1.0;
	stroke: #FFFFFF;
	stroke-opacity: 1.0;
	stroke-width: 1;
}

.qing-map-1616120656252:hover
{
	fill: #56A4FF;
	fill-opacity: 1.0;
}
</style>
	</defs>
	<g>
		<path id="L1611194030855" name="乌鲁木齐市" class="qing-map-1616120656252" d="M502.6,346.6L504.4,346.8L507.6,346.4L509.4,346.17L511.2,346.4L512.45,345.52L513.8,345.82L515.6,345.4L517.0,345.2L518.51,345.91L517.8,347.4L518.6,348.8L519.94,350.52L522.17,349.58L523.8,350.8L526.6,348.95L527.97,347.71L527.4,344.0L528.91,344.69L530.0,343.58L531.54,344.71L533.74,343.2L535.54,341.91L538.05,342.66L539.11,340.66L540.66,340.66L541.03,339.12L541.2,337.0L542.2,335.4L541.2,333.0L540.2,331.0L539.2,329.2L537.51,327.6L535.34,328.63L533.6,328.2L533.0,326.0L530.8,325.6L529.8,324.2L528.2,324.6L527.2,321.6L526.15,324.43L524.71,323.94L523.91,325.03L522.57,324.49L521.49,325.15L520.34,323.17L518.92,323.83L519.14,325.86L517.34,325.94L515.57,326.34L515.45,323.53L513.66,323.71L512.23,321.91L511.69,319.34L510.85,317.29L510.8,315.6L508.6,314.4L507.26,313.14L506.54,311.2L505.17,310.08L504.15,310.46L504.85,307.18L505.4,304.03L504.8,301.8L504.2,299.4L511.63,270.4L489.8,271.0L497.8,288.8L496.75,290.77L498.35,292.09L498.11,294.25L499.8,295.0L500.14,296.94L501.26,297.63L501.87,299.71L501.8,302.6L500.2,306.4L498.2,304.6L497.77,306.97L497.0,309.29L497.57,310.71L496.0,311.43L495.57,315.29L494.86,313.14L494.0,311.86L492.14,313.43L490.71,314.0L487.6,317.6L487.2,319.4L488.0,323.8L485.6,328.0L482.8,332.6L479.2,335.6L478.49,338.63L476.89,339.6L475.71,341.57L476.95,343.91L475.6,346.0L475.8,347.6L474.2,350.4L473.4,352.0L474.0,353.2L472.6,355.0L474.4,355.6L475.8,356.4L477.4,357.6L478.8,357.4L480.0,358.4L481.4,358.6L483.4,357.0L487.0,358.15L491.8,361.2L494.8,362.6L496.4,362.4L497.4,361.6L497.8,360.2L495.4,358.0L491.8,358.2L489.0,356.6L487.6,355.2L488.03,353.54L490.65,354.97L491.4,352.8L491.2,349.0L491.06,347.31L493.0,347.57L496.29,347.71L498.0,348.57L500.29,347.29Z" />
		<path id="L1611194045876" name="克拉玛依市" class="qing-map-1616120656252" d="M406.6,309.8L408.0,309.0L409.6,308.0L411.6,307.8L413.2,307.0L413.0,304.6L414.0,303.6L415.0,301.8L416.8,301.6L419.0,301.4L416.8,299.2L414.4,298.6L412.4,298.2L410.2,298.0L408.0,298.2L408.0,300.8L408.8,302.8L408.8,304.8L408.2,306.2L407.4,307.8ZM425.0,251.6L427.2,251.0L429.0,249.8L430.8,248.2L432.0,246.2L432.6,243.8L434.2,242.2L434.2,239.8L434.4,237.2L435.2,235.4L436.8,233.6L438.4,231.8L440.8,230.2L442.4,229.0L443.2,227.6L444.4,226.8L446.0,225.0L445.8,223.0L447.4,222.2L447.4,220.4L446.0,218.8L444.8,217.6L443.4,216.6L441.4,216.8L439.8,216.2L437.8,216.2L435.6,215.4L433.4,216.0L431.0,217.0L429.8,218.0L428.8,219.2L427.4,218.6L425.6,219.2L424.4,221.0L423.8,223.2L424.2,225.2L423.8,227.2L423.0,229.4L422.0,232.4L420.8,234.6L419.2,236.4L417.6,237.8L415.4,238.4L414.0,238.4L412.8,239.6L412.6,241.4L410.4,242.2L409.0,240.6L407.4,241.0L408.6,242.6L407.8,244.0L407.0,245.8L407.0,248.0L405.8,249.4L404.8,251.6L403.6,253.6L402.4,256.0L401.6,258.4L402.2,260.8L403.8,262.8L404.8,263.8L404.2,266.0L404.0,268.6L404.0,271.4L403.6,273.4L403.8,276.0L403.8,278.4L403.6,279.8L404.6,281.4L405.4,282.8L406.4,283.8L408.2,285.8L409.0,284.8L410.6,285.0L409.8,283.6L409.4,282.2L408.4,279.8L410.2,278.0L411.8,279.2L413.2,279.2L413.8,280.4L415.2,281.4L416.4,281.4L416.4,280.2L416.0,278.8L415.8,277.2L415.8,275.2L417.0,273.4L418.6,272.8L420.2,272.4L420.6,270.2L421.2,269.2L422.8,269.4L423.6,269.0L422.8,267.2L422.8,265.4L422.8,263.2L422.0,261.4L422.0,259.2L422.8,255.4L436.6,255.4L436.6,255.4L422.8,255.4L423.0,252.6Z" />
		<path id="L1611195218549" name="吐鲁番市" class="qing-map-1616120656252" d="M519.4,409.8L521.4,412.2L521.8,414.0L522.0,417.2L521.4,418.6L522.2,419.8L521.71,420.71L522.57,422.43L521.2,424.2L522.4,425.0L523.6,425.8L525.2,425.8L528.2,425.4L529.6,425.2L531.8,425.6L534.4,425.4L535.8,426.4L537.4,426.8L538.4,427.6L543.2,427.4L544.6,428.0L549.0,430.2L551.4,429.2L553.4,428.8L554.8,428.2L557.6,430.2L560.2,429.8L562.4,430.2L564.8,430.2L566.6,431.0L569.6,429.4L572.8,430.2L577.2,434.0L578.8,435.34L580.77,435.14L582.4,435.2L586.74,435.88L588.34,435.26L589.52,435.8L592.14,434.71L594.37,435.63L597.0,435.34L598.8,435.8L603.2,436.0L605.54,435.28L607.8,435.0L609.6,434.8L611.8,435.4L613.4,436.2L615.69,436.6L618.23,437.17L621.11,437.48L623.2,437.0L626.6,436.2L630.0,434.6L632.4,433.8L634.2,433.8L635.2,434.6L635.8,432.8L635.91,431.03L636.03,429.34L634.75,427.35L633.6,425.6L633.2,424.4L631.8,424.4L631.6,422.6L633.0,420.8L633.2,416.6L634.2,414.8L634.0,413.0L632.8,410.4L632.2,408.6L631.6,405.6L630.6,402.4L629.2,400.0L626.8,400.0L627.6,397.8L626.4,396.2L623.2,394.2L622.0,393.0L621.8,391.4L621.2,384.4L620.6,380.8L620.8,377.2L619.0,374.8L620.8,372.0L620.0,369.0L619.8,366.0L619.2,362.4L618.8,359.2L618.0,355.6L616.8,354.0L615.6,348.8L614.6,346.8L615.0,344.8L613.2,343.8L614.2,342.8L612.8,341.8L612.0,340.0L612.0,338.6L609.86,337.86L608.57,338.14L606.71,336.86L605.0,337.2L602.4,336.0L600.17,336.28L598.77,336.89L596.43,337.09L593.0,337.4L592.11,336.88L590.86,337.37L588.8,336.08L587.15,338.2L586.17,336.75L584.4,337.4L582.54,335.37L581.09,336.08L579.97,335.12L579.0,336.12L577.32,336.71L575.66,336.57L575.2,338.2L574.0,338.03L572.77,340.2L570.97,338.6L569.51,339.09L567.35,339.29L566.9,341.34L565.66,341.11L564.6,341.83L563.06,341.0L561.72,341.12L560.4,340.2L558.86,339.48L557.46,339.69L554.94,339.68L555.0,338.0L553.57,337.77L553.0,336.4L551.74,334.8L549.83,336.71L549.2,334.6L547.6,333.0L545.25,333.63L543.0,332.6L541.2,333.0L542.2,335.4L541.2,337.0L541.03,339.12L540.66,340.66L539.11,340.66L538.05,342.66L535.54,341.91L533.74,343.2L531.54,344.71L530.0,343.58L528.91,344.69L527.4,344.0L527.97,347.71L526.6,348.95L523.8,350.8L522.17,349.58L519.94,350.52L518.6,348.8L517.8,347.4L518.51,345.91L517.0,345.2L515.6,345.4L513.8,345.82L512.45,345.52L511.2,346.4L509.4,346.17L507.6,346.4L504.4,346.8L502.6,346.6L500.29,347.29L498.0,348.57L496.29,347.71L493.0,347.57L491.06,347.31L491.2,349.0L491.4,352.8L490.65,354.97L488.03,353.54L487.6,355.2L489.0,356.6L491.8,358.2L495.4,358.0L497.8,360.2L497.4,361.6L496.4,362.4L496.2,364.8L494.6,365.8L496.68,366.54L495.4,368.8L496.8,370.0L498.6,369.2L500.77,370.32L502.12,369.57L503.54,370.32L505.23,369.88L508.4,372.86L507.94,374.46L508.97,374.49L509.54,375.74L510.74,375.46L514.05,378.09L516.57,379.72L517.57,381.97L515.4,384.4L515.4,386.0L514.2,387.2L511.43,388.43L507.91,392.74L508.6,395.2L511.8,400.6L515.6,403.2L516.8,406.6L518.0,408.57Z" />
		<path id="L1611199393366" name="哈密市" class="qing-map-1616120656252" d="M635.8,432.8L635.2,434.6L636.6,434.6L638.6,433.8L640.6,434.0L641.8,435.0L645.8,437.0L649.6,438.4L651.2,438.8L654.0,439.2L656.08,441.05L658.03,440.71L660.37,440.69L663.2,440.4L665.6,440.8L667.6,441.6L670.2,442.23L672.2,443.2L673.8,444.0L676.86,446.09L678.97,446.23L680.29,446.14L681.71,445.71L682.71,446.29L683.71,445.86L684.43,447.0L685.86,446.57L687.0,447.57L688.57,447.43L692.0,450.2L694.0,451.0L696.0,450.4L697.8,449.0L700.86,444.26L704.0,439.4L708.25,434.6L712.54,430.72L714.8,428.4L719.49,424.25L721.28,424.03L723.69,423.63L726.57,422.65L727.95,419.94L731.34,416.63L734.6,414.8L738.43,413.05L740.69,416.17L741.74,417.86L742.63,420.49L744.14,422.0L744.85,418.35L746.2,416.8L748.4,415.2L751.6,412.6L753.2,411.2L755.8,410.2L759.4,409.8L761.2,409.6L762.6,408.6L764.4,407.8L766.0,407.4L767.6,406.2L769.6,403.8L770.8,401.8L770.6,399.4L768.8,397.2L770.17,395.4L772.06,393.66L767.54,388.69L768.54,385.23L765.83,384.0L767.08,382.06L767.4,379.4L770.2,376.8L772.0,376.0L776.2,373.2L778.88,371.49L778.2,363.8L768.74,354.62L765.34,350.83L763.0,349.0L762.2,346.89L762.0,341.69L760.6,339.0L754.4,323.6L753.6,320.4L752.2,317.8L751.4,315.4L749.0,315.6L747.4,314.8L744.8,314.57L745.4,312.0L745.4,309.0L746.0,306.4L747.6,304.2L747.8,302.4L745.0,302.8L742.0,303.0L739.0,303.6L737.0,303.6L734.8,304.0L733.0,302.8L730.6,301.8L728.4,300.6L726.0,300.6L724.0,297.8L722.6,296.2L720.0,295.0L717.0,292.6L714.0,292.2L713.65,290.31L711.6,288.4L709.6,286.85L708.86,285.14L706.8,284.6L704.8,283.0L699.2,279.6L697.2,278.8L694.4,277.0L693.0,275.2L691.4,274.4L688.2,273.0L686.0,272.2L684.6,272.8L682.4,271.2L679.53,271.63L677.4,270.6L674.4,270.0L673.0,270.4L671.4,269.8L670.2,270.8L668.2,269.4L667.0,268.4L666.2,268.8L664.0,268.4L662.4,268.8L660.2,269.6L658.0,269.8L654.15,270.77L651.8,270.0L650.2,269.8L648.23,269.35L645.69,270.09L641.8,267.0L637.6,267.2L631.8,267.0L629.2,267.8L626.8,267.4L625.2,266.6L624.2,267.4L623.0,265.8L622.6,268.6L624.4,272.6L625.0,275.6L623.4,277.4L619.0,281.4L619.8,286.4L617.8,290.8L618.0,294.4L616.0,296.6L615.6,298.6L616.6,300.6L617.2,302.4L617.2,306.6L617.4,310.4L616.4,314.6L618.6,317.2L621.0,319.6L623.6,321.4L623.4,323.2L624.2,325.4L624.0,327.6L618.6,328.2L621.0,329.6L623.6,331.4L620.8,334.0L617.0,334.0L616.0,335.8L614.4,335.4L613.8,336.6L612.2,336.4L612.0,338.6L612.0,340.0L612.8,341.8L614.2,342.8L613.2,343.8L615.0,344.8L614.6,346.8L615.6,348.8L616.8,354.0L618.0,355.6L618.8,359.2L619.2,362.4L619.8,366.0L620.0,369.0L620.8,372.0L619.0,374.8L620.8,377.2L620.6,380.8L621.2,384.4L621.8,391.4L622.0,393.0L623.2,394.2L626.4,396.2L627.6,397.8L626.8,400.0L629.2,400.0L630.6,402.4L631.6,405.6L632.2,408.6L632.8,410.4L634.0,413.0L634.2,414.8L633.2,416.6L633.0,420.8L631.6,422.6L631.8,424.4L633.2,424.4L633.6,425.6L634.75,427.35L636.03,429.34L635.91,431.03Z" />
		<path id="L1611297153292" name="阿克苏地区" class="qing-map-1616120656252" d="M248.8,494.8L249.6,492.0L251.4,489.8L250.4,488.0L251.2,486.6L250.8,484.8L250.8,483.4L249.8,482.2L247.6,481.8L245.6,481.6L242.8,480.4L238.4,478.4L236.0,477.8L232.4,477.2L230.6,477.0L228.8,477.2L226.8,477.2L225.0,478.0L223.6,478.6L222.0,478.0L220.4,477.0L218.6,477.6L217.2,478.8L215.6,480.0L211.8,482.0L209.6,484.0L207.8,485.8L206.8,485.8L205.8,486.4L204.6,487.0L202.4,487.4L202.4,486.0L202.0,484.8L199.8,485.0L197.2,484.4L195.4,484.8L193.8,484.2L192.6,482.8L193.8,481.2L193.2,479.4L194.4,477.8L194.2,476.2L195.4,475.8L196.6,474.6L197.0,473.2L196.6,471.6L197.8,470.4L200.0,469.4L203.6,467.0L208.2,465.0L209.6,463.2L210.4,461.0L211.4,458.8L210.4,457.8L209.4,455.8L210.8,454.8L213.2,454.0L214.8,453.0L216.0,453.8L216.4,452.4L217.8,451.0L219.4,450.4L219.2,448.8L219.8,447.0L219.0,445.8L217.0,444.8L217.2,442.6L215.8,441.8L215.0,439.0L209.0,433.0L205.8,429.6L204.0,428.2L206.2,428.2L208.0,427.4L209.6,425.2L210.4,425.8L211.4,425.0L212.4,425.6L213.2,424.4L214.2,424.2L213.8,423.0L214.4,422.0L216.0,422.2L217.8,422.2L218.8,421.2L219.4,420.4L220.4,420.0L221.2,418.8L222.4,418.0L223.2,417.6L224.4,418.0L225.0,417.0L226.0,416.4L227.4,415.6L228.0,414.4L229.8,414.8L231.4,414.0L232.2,412.6L233.0,411.6L233.8,411.4L235.0,411.6L236.4,410.6L237.4,410.0L238.8,409.6L239.4,410.6L240.6,410.2L242.2,409.8L243.4,409.0L244.0,408.0L245.6,407.4L247.0,407.2L248.4,407.6L249.2,406.4L250.0,405.0L251.4,403.6L250.4,402.4L252.0,401.4L254.2,401.0L255.6,401.0L257.4,401.0L259.4,401.4L261.0,401.2L261.4,400.0L260.6,397.8L260.4,396.6L261.2,395.8L260.8,394.0L262.2,394.2L263.6,393.4L265.0,393.0L265.2,391.4L264.6,389.2L266.6,388.8L268.0,389.0L268.6,390.4L270.6,388.8L272.8,387.4L275.0,387.4L277.2,387.4L280.0,387.4L280.8,388.6L282.4,388.0L283.6,387.0L285.6,387.4L286.8,386.6L288.2,388.2L289.0,390.2L290.8,390.2L292.0,392.0L292.8,390.4L293.2,388.4L295.6,388.4L297.6,387.8L298.8,388.8L300.2,387.8L302.0,387.4L303.6,387.6L306.0,387.0L308.8,386.0L310.0,387.2L312.8,385.8L314.4,386.6L315.0,384.8L316.8,385.4L317.8,385.6L319.4,384.8L321.2,384.6L322.2,384.0L323.2,384.2L323.8,382.2L325.2,382.8L326.6,381.6L329.2,382.4L330.6,381.0L331.2,379.4L333.0,379.6L334.8,379.4L336.8,379.2L338.2,379.8L339.4,377.4L341.6,377.0L343.2,376.0L345.0,375.0L346.4,375.0L345.6,376.8L346.4,378.4L348.0,378.0L349.4,375.8L350.8,375.8L352.2,377.4L354.6,378.6L356.2,378.2L358.6,377.8L360.2,378.8L361.8,378.6L362.8,381.2L364.0,381.6L367.0,382.6L369.0,381.6L371.6,380.6L373.4,381.2L374.8,379.8L377.4,380.2L380.4,380.2L381.2,381.2L381.6,383.2L380.8,385.8L381.8,387.0L382.4,388.4L382.4,390.0L381.2,391.0L379.6,392.0L379.4,394.4L379.8,396.0L381.4,398.2L381.4,400.2L382.0,402.0L382.8,404.2L382.8,406.6L381.6,408.4L382.4,410.0L381.0,412.4L380.2,415.0L379.8,420.4L381.8,421.6L381.4,423.6L383.2,426.2L383.8,427.8L384.8,430.6L384.0,434.6L383.8,437.8L384.8,439.2L386.2,440.8L385.4,441.8L385.2,444.4L385.4,451.6L383.8,482.4L383.8,486.6L364.2,509.4L260.8,510.0L248.2,503.6Z" />
		<path id="L1611194091229" name="喀什地区" class="qing-map-1616120656252" d="M185.6,666.0L184.8,667.6L186.0,668.4L186.0,669.4L184.0,669.8L182.6,671.2L181.6,671.6L180.2,670.0L179.8,671.4L178.6,670.8L177.2,670.4L175.2,670.8L173.6,671.0L172.0,670.4L170.4,668.6L168.8,668.0L167.6,668.6L166.2,668.6L165.0,668.2L163.4,667.4L161.8,666.0L160.0,665.4L158.4,665.8L157.4,665.4L156.2,664.4L155.2,663.2L152.6,663.2L151.8,662.2L150.6,661.2L149.6,660.0L148.8,659.2L147.4,659.4L146.6,658.4L145.4,656.8L146.8,656.0L146.0,654.8L146.6,653.2L145.2,652.2L144.4,654.4L142.8,654.4L141.4,655.8L139.4,655.4L138.8,656.8L137.0,656.2L135.2,656.2L134.4,657.0L133.2,656.8L132.2,655.8L132.8,654.0L132.6,652.4L131.8,651.2L131.2,649.8L130.4,649.0L129.0,649.2L128.0,649.4L127.0,648.8L126.0,647.6L126.6,646.8L126.2,645.6L126.4,644.2L127.6,644.0L128.2,642.8L128.2,642.0L128.2,640.8L129.8,641.2L129.8,640.0L129.0,639.0L128.2,637.6L128.0,636.0L129.0,634.0L128.4,632.6L128.0,630.8L126.4,628.6L125.0,627.4L125.8,625.8L124.2,624.4L122.6,623.0L120.8,621.6L119.6,620.4L118.6,620.8L117.6,619.8L116.2,619.4L114.6,619.6L113.4,619.4L112.8,621.2L111.8,620.6L110.4,621.0L109.6,620.0L109.4,618.4L109.8,616.8L109.6,615.6L108.6,614.0L108.6,612.0L106.6,611.8L105.4,611.0L104.4,611.8L102.4,611.4L101.4,610.8L101.0,609.6L100.0,610.0L98.4,609.8L97.2,610.0L96.0,610.6L94.0,610.6L94.0,612.4L92.8,612.8L92.0,612.4L91.6,610.8L91.2,609.4L90.6,608.0L89.6,608.6L89.2,609.6L88.0,609.2L87.0,608.8L86.4,607.2L85.8,606.4L84.8,607.6L84.0,608.4L82.6,609.0L81.6,608.4L80.8,607.0L80.2,605.8L79.0,604.8L79.6,603.8L80.2,602.4L79.4,602.2L79.8,601.4L80.8,600.2L81.8,600.8L83.0,600.6L83.8,600.0L84.6,600.0L84.8,601.2L85.6,600.8L86.2,599.4L87.4,598.8L88.4,599.6L89.0,600.6L89.6,601.4L91.0,601.8L92.2,601.8L93.0,601.2L94.2,600.4L93.8,599.6L94.8,599.0L96.4,599.4L97.2,598.6L98.4,598.0L100.0,597.6L100.0,596.4L100.0,594.8L100.4,593.0L99.6,592.4L98.8,591.0L98.0,590.0L97.0,590.6L95.6,589.4L94.4,588.4L93.2,587.4L93.2,586.0L92.8,584.4L93.6,583.0L94.6,581.4L95.6,580.0L95.8,578.8L94.8,578.0L93.4,576.8L93.8,575.2L93.0,574.2L93.4,573.0L93.2,571.2L93.0,569.4L91.6,568.6L90.2,567.0L89.8,565.0L90.0,562.8L89.8,561.4L89.4,560.0L90.2,558.4L92.2,559.0L94.0,558.8L95.2,560.2L96.8,559.4L99.0,558.4L99.8,559.6L100.8,561.2L102.6,562.0L105.0,561.8L106.4,563.8L108.4,565.4L108.0,567.4L108.8,569.8L109.6,571.4L109.4,573.4L111.2,572.8L113.2,573.4L115.4,574.0L117.0,575.2L119.0,574.0L120.8,574.2L121.0,572.4L123.4,573.0L124.6,574.8L123.0,576.0L123.4,577.2L122.4,579.0L121.6,581.6L122.2,584.0L124.0,583.4L125.2,582.0L126.8,580.8L128.0,581.2L129.2,581.0L130.2,580.0L131.4,579.0L132.8,578.8L134.8,578.0L135.6,579.4L136.8,581.0L137.8,579.2L138.6,577.4L139.8,576.8L141.2,575.0L142.6,576.4L143.6,575.4L142.8,573.0L144.2,571.2L143.8,569.4L145.2,568.0L145.2,565.2L145.8,563.2L147.0,561.2L147.0,558.8L147.2,556.4L147.2,554.4L146.8,552.8L145.8,551.6L144.6,551.0L143.0,549.8L141.4,549.8L139.8,550.4L139.0,549.0L140.2,548.2L140.8,546.8L140.4,545.4L138.8,545.4L138.0,544.4L136.4,544.6L134.6,545.2L132.8,544.8L133.0,543.2L131.6,542.4L130.0,541.2L128.8,540.0L127.8,538.8L126.6,537.4L125.6,535.4L124.6,533.6L122.6,533.0L120.8,531.2L121.6,530.0L123.4,528.8L125.4,527.6L125.8,528.8L127.4,528.6L128.8,529.0L130.6,528.4L131.8,527.6L131.8,526.2L131.0,524.0L129.4,522.4L130.8,521.4L132.8,520.2L131.8,519.4L130.8,519.2L129.4,519.0L127.6,518.6L126.0,518.6L124.6,519.0L123.8,518.4L123.2,519.2L123.0,520.6L123.0,521.6L122.2,521.4L121.0,521.6L119.4,523.0L119.0,524.4L120.6,525.8L120.6,527.4L120.0,529.4L118.4,530.6L115.6,530.6L113.8,530.0L114.6,528.0L114.6,525.2L115.8,523.0L117.0,521.0L117.6,518.8L119.0,516.6L117.2,516.6L116.0,518.2L114.2,519.8L112.6,519.2L111.6,521.4L109.8,522.4L107.2,522.2L106.4,520.4L106.0,517.8L105.8,515.6L105.6,513.2L105.6,511.0L107.0,509.8L108.4,508.2L107.2,506.0L107.4,504.4L106.8,503.2L108.0,502.0L110.0,502.0L111.0,500.8L112.8,502.2L114.2,502.2L116.0,501.6L117.2,503.2L118.6,504.8L121.0,504.8L123.4,504.8L125.0,504.8L127.0,505.0L127.8,503.6L129.6,503.6L131.4,503.0L132.6,504.0L134.4,503.2L136.0,503.6L138.0,504.8L139.6,505.0L141.4,504.6L142.2,505.2L144.0,504.4L145.6,504.8L146.8,504.6L147.2,503.2L149.2,501.2L150.4,499.4L151.8,498.4L153.4,497.6L154.6,496.4L154.8,495.0L156.6,494.6L159.0,494.6L161.0,494.0L162.4,493.6L164.0,494.2L165.4,493.6L167.0,494.0L168.8,493.4L170.6,493.0L173.6,492.8L176.0,493.0L176.2,491.6L177.8,490.6L178.8,489.8L180.4,489.8L182.0,489.8L183.6,489.0L185.4,488.4L186.8,488.0L188.0,488.4L189.4,488.4L190.6,488.6L192.0,488.2L193.2,488.0L194.0,488.8L195.0,488.8L197.2,488.0L199.0,487.4L201.2,487.6L202.4,487.4L204.6,487.0L205.8,486.4L206.8,485.8L207.8,485.8L209.6,484.0L211.8,482.0L215.6,480.0L217.2,478.8L218.6,477.6L220.4,477.0L222.0,478.0L223.6,478.6L225.0,478.0L226.8,477.2L228.8,477.2L230.6,477.0L232.4,477.2L236.0,477.8L238.4,478.4L242.8,480.4L245.6,481.6L247.6,481.8L249.8,482.2L250.8,483.4L250.8,484.8L251.2,486.6L250.4,488.0L251.4,489.8L249.6,492.0L248.8,494.8L248.2,503.6L243.2,533.4L242.0,537.6L237.2,536.0L234.6,537.6L232.4,536.8L228.8,539.4L224.2,542.2L220.8,544.6L217.4,546.6L214.6,548.6L211.0,550.8L208.0,552.6L205.2,555.8L202.6,558.6L200.0,562.0L197.0,565.2L194.6,568.0L192.0,571.2L190.2,574.0L187.8,577.6L186.2,580.2L184.4,581.8L183.2,583.4L183.4,585.4L182.0,586.6L180.6,587.2L181.2,588.8L181.2,590.2L181.4,591.8L181.0,593.4L180.2,595.0L180.2,596.6L179.0,598.0L180.0,599.8L180.8,601.2L180.6,603.0L181.2,604.4L181.4,605.8L180.6,607.4L180.6,609.2L180.6,610.6L179.8,612.0L179.0,612.4L177.6,612.6L176.6,612.8L176.2,614.4L177.0,616.0L175.4,617.4L176.8,619.6L177.8,621.0L179.0,621.8L180.4,623.0L179.6,624.4L178.0,624.8L178.4,626.2L177.2,626.0L176.2,626.6L175.8,628.0L174.6,628.0L173.2,628.4L172.8,629.8L174.0,630.4L175.4,630.4L176.8,631.2L178.4,632.0L178.4,633.4L179.6,634.6L179.2,635.8L181.0,637.0L182.2,638.2L184.0,638.4L185.2,637.6L186.6,639.2L187.6,640.6L188.6,642.0L187.0,642.6L185.6,644.0L184.6,645.8L183.0,645.8L183.2,648.2L184.8,648.8L186.4,649.6L187.6,650.6L189.0,651.8L188.8,653.2L186.8,653.6L187.4,655.4L188.0,656.8L187.0,657.6L186.8,658.8L186.0,660.6L186.8,662.0L186.4,663.8L186.8,664.6Z" />
		<path id="L1611197927116" name="和田地区" class="qing-map-1616120656252" d="M414.4,660.4L413.2,659.4L412.0,657.4L412.4,655.4L411.4,653.4L410.6,651.4L411.0,649.8L410.4,648.0L410.0,646.0L408.2,646.0L405.8,644.8L404.6,643.4L403.2,641.6L401.4,641.0L400.4,639.0L398.0,639.0L396.8,639.0L396.2,637.6L395.0,637.6L394.2,635.2L393.4,633.2L394.0,630.8L393.8,627.6L392.6,626.2L390.6,624.4L388.8,622.8L386.0,622.4L384.2,620.8L383.4,619.2L382.0,619.6L379.6,618.8L377.6,617.2L379.2,615.0L378.0,612.6L377.8,610.2L378.6,607.0L378.0,604.0L376.6,602.0L376.8,599.8L378.8,597.8L380.0,596.2L382.6,594.4L382.6,591.4L383.0,589.2L383.0,586.8L382.2,584.0L381.8,582.4L381.2,578.0L380.8,575.2L379.4,571.8L378.0,568.6L375.6,565.0L373.0,563.0L370.4,561.2L368.2,559.0L365.4,556.8L363.8,554.6L364.2,509.4L260.8,510.0L248.2,503.6L243.2,533.4L242.0,537.6L237.2,536.0L234.6,537.6L232.4,536.8L228.8,539.4L224.2,542.2L220.8,544.6L217.4,546.6L214.6,548.6L211.0,550.8L208.0,552.6L205.2,555.8L202.6,558.6L200.0,562.0L197.0,565.2L194.6,568.0L192.0,571.2L190.2,574.0L187.8,577.6L186.2,580.2L184.4,581.8L183.2,583.4L183.4,585.4L182.0,586.6L180.6,587.2L181.2,588.8L181.2,590.2L181.4,591.8L181.0,593.4L180.2,595.0L180.2,596.6L179.0,598.0L180.0,599.8L180.8,601.2L180.6,603.0L181.2,604.4L181.4,605.8L180.6,607.4L180.6,609.2L180.6,610.6L179.8,612.0L179.0,612.4L177.6,612.6L176.6,612.8L176.2,614.4L177.0,616.0L175.4,617.4L176.8,619.6L177.8,621.0L179.0,621.8L180.4,623.0L179.6,624.4L178.0,624.8L178.4,626.2L177.2,626.0L176.2,626.6L175.8,628.0L174.6,628.0L173.2,628.4L172.8,629.8L174.0,630.4L175.4,630.4L176.8,631.2L178.4,632.0L178.4,633.4L179.6,634.6L179.2,635.8L181.0,637.0L182.2,638.2L184.0,638.4L185.2,637.6L186.6,639.2L187.6,640.6L188.6,642.0L187.0,642.6L185.6,644.0L184.6,645.8L183.0,645.8L183.2,648.2L184.8,648.8L186.4,649.6L187.6,650.6L189.0,651.8L188.8,653.2L186.8,653.6L187.4,655.4L188.0,656.8L187.0,657.6L186.8,658.8L186.0,660.6L186.8,662.0L186.4,663.8L186.8,664.6L185.6,666.0L184.8,667.6L186.0,668.4L186.0,669.4L187.6,669.6L188.6,671.4L189.4,670.0L190.6,670.2L192.0,670.8L193.8,670.2L195.4,670.0L195.0,671.4L194.0,672.8L192.6,674.8L192.4,677.0L192.2,679.2L193.0,680.8L193.6,681.8L193.6,684.4L195.0,684.8L196.2,685.8L196.0,687.0L196.4,688.8L197.2,689.6L198.4,690.4L197.4,691.6L198.2,693.0L199.4,694.0L199.6,695.4L199.2,696.8L198.8,698.2L198.8,700.2L200.0,700.2L201.0,700.8L201.0,701.6L200.6,703.2L201.6,704.0L203.4,704.6L205.0,705.0L205.6,706.6L206.8,705.8L208.4,705.8L209.4,706.2L209.6,708.2L210.8,707.6L212.0,707.6L213.2,707.6L214.2,708.2L215.6,709.4L215.6,710.6L217.4,711.0L219.0,712.0L220.0,713.4L220.8,714.4L222.0,713.0L223.6,714.2L225.0,714.6L224.4,713.4L224.6,712.0L225.8,712.4L227.2,711.6L228.8,710.6L229.6,711.6L230.6,712.0L232.0,711.6L233.2,711.0L234.6,711.2L236.4,711.0L238.4,710.8L240.2,710.2L240.6,709.4L241.6,710.0L243.0,710.4L244.4,711.0L245.6,709.8L246.8,709.6L248.2,709.6L249.6,708.8L250.6,708.0L250.6,707.0L250.6,706.0L251.0,704.4L252.2,703.8L251.4,702.6L252.6,701.6L252.2,700.2L253.0,698.4L253.6,697.0L253.0,695.2L254.4,694.6L255.6,694.4L256.2,693.0L256.6,691.8L256.6,690.8L256.6,689.2L256.6,688.0L257.6,686.8L259.4,686.2L261.4,685.2L262.6,683.6L262.8,682.4L263.8,681.4L265.4,681.0L266.8,681.4L265.4,679.2L264.4,678.2L264.4,677.2L264.6,675.6L265.2,674.2L267.4,674.0L269.0,671.6L270.2,672.8L271.2,673.8L272.8,673.6L273.6,673.8L275.0,673.6L276.4,673.8L277.6,675.0L277.8,676.4L279.6,676.0L281.4,676.0L283.2,676.0L284.8,676.4L286.6,677.0L288.0,676.6L288.6,675.2L288.8,673.6L290.0,673.6L291.8,674.2L292.2,675.0L293.2,675.0L294.2,676.4L295.4,676.2L296.2,675.8L297.2,675.8L298.4,675.4L299.6,676.0L301.2,676.4L302.6,677.4L303.4,679.0L304.2,679.8L306.4,679.8L308.6,680.0L310.6,679.0L312.8,678.8L314.0,678.8L316.0,678.8L317.4,678.6L318.0,677.4L319.6,677.4L320.8,676.2L320.8,674.4L320.4,672.6L320.4,671.6L321.6,671.4L323.4,670.4L324.8,670.2L325.6,669.0L327.0,668.6L327.8,667.6L329.4,667.6L330.0,666.4L330.6,664.8L330.4,663.6L332.2,663.2L332.6,661.6L334.2,661.4L335.6,661.4L337.4,661.4L338.8,661.6L340.2,662.4L341.6,663.4L343.2,663.6L344.8,662.4L346.2,662.8L347.0,662.0L347.6,663.0L349.0,662.8L350.0,662.8L349.8,664.6L351.0,665.4L350.8,667.0L350.8,668.8L351.4,670.4L353.2,670.4L354.4,672.4L355.6,673.8L357.6,673.6L359.2,672.6L360.6,673.8L362.6,674.0L363.8,674.4L365.0,674.4L366.4,674.6L367.4,674.8L368.6,675.4L370.6,675.8L372.6,675.4L374.8,675.2L376.2,675.0L378.0,674.8L380.0,674.4L381.2,673.0L383.0,672.8L384.4,672.8L385.4,674.0L386.2,675.4L387.0,674.6L388.6,674.8L390.0,674.0L391.6,673.2L394.0,673.4L395.8,671.6L397.6,670.8L398.2,669.0L397.6,667.6L398.8,667.0L400.4,666.6L402.2,666.2L404.6,665.4L406.0,665.0L408.0,664.6L410.0,663.4L412.4,662.4Z" />
		<path id="L1611562909119" name="昌吉回族自治州" class="qing-map-1616120656252" d="M469.57,354.57L468.29,355.29L466.0,353.8L463.2,353.6L462.0,352.8L460.6,351.0L458.2,349.4L456.0,348.6L455.2,347.2L452.2,345.8L452.2,344.0L450.8,343.0L449.8,340.8L446.6,341.8L444.6,340.4L441.8,340.2L440.2,339.4L438.2,338.4L436.4,337.4L436.0,336.4L433.8,336.0L434.6,334.2L435.8,332.6L437.2,332.4L438.0,331.2L438.6,329.4L438.6,327.6L439.8,326.4L439.8,324.4L440.4,322.6L441.6,321.2L443.0,319.6L444.0,318.8L445.4,318.4L445.6,316.4L446.8,314.4L448.4,312.8L450.2,310.4L450.4,308.6L451.0,305.8L450.6,304.0L451.4,301.4L451.0,298.8L450.6,296.8L451.2,295.0L449.8,293.8L449.2,292.0L449.4,289.0L447.8,288.8L447.2,287.31L445.92,287.08L445.2,285.6L444.34,283.51L445.6,281.4L443.6,279.0L443.6,277.6L442.6,276.0L441.0,274.8L439.4,274.2L436.6,274.43L436.6,255.4L489.69,255.6L489.8,271.0L497.8,288.8L496.75,290.77L498.35,292.09L498.11,294.25L499.8,295.0L500.14,296.94L501.26,297.63L501.87,299.71L501.8,302.6L500.2,306.4L498.2,304.6L497.77,306.97L497.0,309.29L497.57,310.71L496.0,311.43L495.57,315.29L494.86,313.14L494.0,311.86L492.14,313.43L490.71,314.0L487.6,317.6L487.2,319.4L488.0,323.8L485.6,328.0L482.8,332.6L479.2,335.6L478.49,338.63L476.89,339.6L475.71,341.57L476.95,343.91L475.6,346.0L475.8,347.6L474.2,350.4L473.4,352.0L474.0,353.2L472.6,355.0ZM511.63,270.4L504.2,299.4L504.8,301.8L505.4,304.03L504.85,307.18L504.15,310.46L505.17,310.08L506.54,311.2L507.26,313.14L508.6,314.4L510.8,315.6L510.85,317.29L511.69,319.34L512.23,321.91L513.66,323.71L515.45,323.53L515.57,326.34L517.34,325.94L519.14,325.86L518.92,323.83L520.34,323.17L521.49,325.15L522.57,324.49L523.91,325.03L524.71,323.94L526.15,324.43L527.2,321.6L528.2,324.6L529.8,324.2L530.8,325.6L533.0,326.0L533.6,328.2L535.34,328.63L537.51,327.6L539.2,329.2L540.2,331.0L541.2,333.0L543.0,332.6L545.25,333.63L547.6,333.0L549.2,334.6L549.83,336.71L551.74,334.8L553.0,336.4L553.57,337.77L555.0,338.0L554.94,339.68L557.46,339.69L558.86,339.48L560.4,340.2L561.72,341.12L563.06,341.0L564.6,341.83L565.66,341.11L566.9,341.34L567.35,339.29L569.51,339.09L570.97,338.6L572.77,340.2L574.0,338.03L575.2,338.2L575.66,336.57L577.32,336.71L579.0,336.12L579.97,335.12L581.09,336.08L582.54,335.37L584.4,337.4L586.17,336.75L587.15,338.2L588.8,336.08L590.86,337.37L592.11,336.88L593.0,337.4L596.43,337.09L598.77,336.89L600.17,336.28L602.4,336.0L605.0,337.2L606.71,336.86L608.57,338.14L609.86,337.86L612.0,338.6L612.2,336.4L613.8,336.6L614.4,335.4L616.0,335.8L617.0,334.0L620.8,334.0L623.6,331.4L621.0,329.6L618.6,328.2L624.0,327.6L624.2,325.4L623.4,323.2L623.6,321.4L621.0,319.6L618.6,317.2L616.4,314.6L617.4,310.4L617.2,306.6L617.2,302.4L616.6,300.6L615.6,298.6L616.0,296.6L618.0,294.4L617.8,290.8L619.8,286.4L619.0,281.4L623.4,277.4L625.0,275.6L624.4,272.6L622.6,268.6L623.0,265.8L621.8,265.4L621.0,264.0L619.0,264.6L618.2,266.0L617.2,264.6L615.4,264.8L614.0,263.8L612.6,263.8L611.4,261.2L609.8,260.8L608.6,261.2L607.0,260.6L605.2,261.8L603.2,261.8L602.8,260.2L603.4,258.8L602.6,257.8L600.8,257.2L600.4,255.2L599.6,253.4L599.0,250.8L597.2,249.4L595.4,248.8L592.6,250.4L590.6,251.4L589.8,253.2L588.6,255.0L587.2,257.4L586.4,259.6L585.0,261.0L583.0,265.0L582.0,268.0L582.4,270.4Z" />
		<path id="L1611298681846" name="博尔塔拉蒙古自治州" class="qing-map-1616120656252" d="M337.0,259.6L338.6,261.2L340.0,262.8L341.8,263.8L343.6,263.8L345.0,265.0L347.6,266.4L350.4,267.6L353.0,269.0L355.4,270.0L357.6,270.6L359.8,270.8L363.0,271.2L364.8,271.4L366.2,271.8L367.4,273.2L368.8,273.6L370.2,275.0L371.8,275.4L373.2,276.6L374.0,278.4L374.4,279.6L376.0,281.0L377.0,282.0L376.2,283.8L375.8,285.2L375.4,286.8L375.4,288.6L375.0,290.2L376.2,291.8L376.6,293.4L376.6,294.8L374.8,294.8L373.0,294.4L371.2,294.4L370.0,295.0L368.6,294.6L367.6,294.8L368.0,295.8L368.4,297.2L367.4,298.6L367.2,300.0L367.2,301.2L366.4,302.4L365.4,303.2L365.2,304.2L365.2,305.0L365.0,306.4L364.4,307.4L364.8,308.6L365.2,309.4L365.4,311.0L365.6,312.4L366.0,314.0L365.4,315.4L364.0,315.2L362.0,314.8L360.4,314.8L359.0,313.6L359.0,312.2L357.8,312.2L355.8,311.8L354.2,311.2L353.0,312.2L351.6,311.4L350.4,312.6L349.6,311.6L348.0,313.2L346.6,312.6L345.2,312.2L343.8,312.0L342.4,312.4L340.6,310.0L338.8,309.8L337.0,309.2L335.4,308.2L333.6,307.6L332.4,306.2L331.8,305.0L331.2,304.0L329.4,304.0L327.8,304.0L325.8,304.0L324.4,303.8L322.8,302.8L321.6,302.2L320.6,303.0L319.2,302.6L316.6,302.0L315.0,300.8L314.0,301.2L312.8,300.0L311.2,300.2L310.6,299.2L310.4,298.0L308.6,298.4L307.4,296.4L306.0,297.2L304.6,296.4L303.4,296.2L302.6,295.2L301.2,295.6L299.2,295.6L297.2,295.0L295.6,295.4L294.0,294.8L292.2,293.6L290.6,292.8L289.0,293.2L287.8,291.8L286.0,291.8L284.2,291.6L283.4,290.4L281.6,289.4L280.2,288.2L278.4,288.6L276.8,287.8L277.6,286.2L276.8,284.4L275.6,282.6L273.6,283.0L271.2,282.2L269.4,281.2L267.8,281.2L267.2,280.0L266.8,278.8L265.6,279.6L264.4,277.8L262.8,278.4L261.0,278.8L260.8,277.8L259.8,278.8L258.4,278.8L257.4,279.4L256.0,280.2L256.0,279.2L255.2,278.0L254.2,277.0L254.8,276.0L253.6,275.4L252.0,274.8L252.8,274.0L254.0,273.8L254.4,272.4L255.2,272.4L256.0,271.6L256.8,270.8L257.6,269.8L258.6,268.8L259.4,269.0L260.4,268.2L262.4,269.6L263.6,268.8L265.6,267.4L266.2,268.6L267.8,268.6L269.2,267.8L269.8,266.2L271.0,265.6L272.2,266.0L273.4,265.6L274.8,266.0L276.8,265.4L278.0,264.6L278.8,264.2L278.8,262.6L280.0,263.8L281.6,264.2L282.6,264.8L284.0,265.0L285.4,264.0L286.4,263.2L287.2,263.6L288.4,263.2L289.4,262.6L290.8,261.8L291.0,260.6L292.2,261.6L292.8,260.6L294.2,259.6L295.4,260.0L297.2,259.6L298.2,258.8L299.4,259.4L300.8,257.8L302.0,258.8L303.2,258.0L304.6,257.6L305.2,256.4L306.4,255.4L308.0,255.0L309.6,254.0L310.6,254.0L312.0,253.4L312.8,254.6L313.8,256.0L315.0,257.6L316.0,258.8L317.2,260.2L318.6,260.0L320.2,259.6L321.6,258.8L322.0,260.2L322.8,261.6L324.4,260.4L325.6,260.4L328.0,260.2L329.4,260.4L332.0,261.2L334.2,261.4L335.8,260.8Z" />
		<path id="L1611196424847" name="巴音郭楞蒙古自治州" class="qing-map-1616120656252" d="M696.0,450.4L694.0,451.0L692.0,450.2L688.57,447.43L687.0,447.57L685.86,446.57L684.43,447.0L683.71,445.86L682.71,446.29L681.71,445.71L680.29,446.14L678.97,446.23L676.86,446.09L673.8,444.0L672.2,443.2L670.2,442.23L667.6,441.6L665.6,440.8L663.2,440.4L660.37,440.69L658.03,440.71L656.08,441.05L654.0,439.2L651.2,438.8L649.6,438.4L645.8,437.0L641.8,435.0L640.6,434.0L638.6,433.8L636.6,434.6L635.2,434.6L634.2,433.8L632.4,433.8L630.0,434.6L626.6,436.2L623.2,437.0L621.11,437.48L618.23,437.17L615.69,436.6L613.4,436.2L611.8,435.4L609.6,434.8L607.8,435.0L605.54,435.28L603.2,436.0L598.8,435.8L597.0,435.34L594.37,435.63L592.14,434.71L589.52,435.8L588.34,435.26L586.74,435.88L582.4,435.2L580.77,435.14L578.8,435.34L577.2,434.0L572.8,430.2L569.6,429.4L566.6,431.0L564.8,430.2L562.4,430.2L560.2,429.8L557.6,430.2L554.8,428.2L553.4,428.8L551.4,429.2L549.0,430.2L544.6,428.0L543.2,427.4L538.4,427.6L537.4,426.8L535.8,426.4L534.4,425.4L531.8,425.6L529.6,425.2L528.2,425.4L525.2,425.8L523.6,425.8L522.4,425.0L521.2,424.2L522.57,422.43L521.71,420.71L522.2,419.8L521.4,418.6L522.0,417.2L521.8,414.0L521.4,412.2L519.4,409.8L518.0,408.57L516.8,406.6L515.6,403.2L511.8,400.6L508.6,395.2L507.91,392.74L511.43,388.43L514.2,387.2L515.4,386.0L515.4,384.4L517.57,381.97L516.57,379.72L514.05,378.09L510.74,375.46L509.54,375.74L508.97,374.49L507.94,374.46L508.4,372.86L505.23,369.88L503.54,370.32L502.12,369.57L500.77,370.32L498.6,369.2L496.8,370.0L495.4,368.8L496.68,366.54L494.6,365.8L496.2,364.8L496.4,362.4L494.8,362.6L491.8,361.2L487.0,358.15L483.4,357.0L481.4,358.6L480.0,358.4L478.8,357.4L477.4,357.6L475.8,356.4L474.4,355.6L472.6,355.0L469.57,354.57L468.29,355.29L466.0,353.8L463.2,353.6L462.0,352.8L460.6,351.0L458.2,349.4L456.0,348.6L455.2,347.2L452.2,345.8L452.2,344.0L450.8,343.0L449.8,340.8L446.6,341.8L444.6,340.4L441.8,340.2L440.2,339.4L438.2,338.4L436.4,337.4L436.0,336.4L433.8,336.0L431.57,336.14L431.14,337.57L430.0,337.57L429.29,338.57L425.86,338.43L425.71,336.43L424.29,337.57L423.29,336.71L420.43,337.14L420.14,336.0L417.14,335.0L416.0,336.71L414.8,337.8L413.4,338.8L412.0,341.43L409.43,340.57L408.2,339.2L406.2,339.2L404.6,338.2L403.8,340.4L405.46,342.57L403.17,345.17L400.8,345.38L400.4,348.0L402.03,347.86L401.31,349.66L402.86,349.71L403.8,351.8L402.17,352.2L400.2,352.8L398.6,352.4L396.8,352.0L396.8,353.6L396.32,355.12L394.6,352.8L392.6,352.09L390.4,352.4L388.8,353.0L386.6,352.8L384.4,352.6L384.2,354.4L381.6,352.0L379.4,354.0L378.2,353.6L376.4,353.2L374.6,353.4L373.2,355.0L371.0,355.8L369.2,355.6L368.2,356.6L366.6,356.6L364.6,357.4L362.6,358.2L361.2,357.6L359.4,358.0L358.11,359.69L356.54,359.43L355.14,359.99L352.0,359.34L350.4,360.23L348.4,360.0L346.69,361.2L345.4,360.6L344.4,362.6L342.14,361.97L341.43,363.14L340.15,362.54L340.2,365.2L338.4,365.0L337.2,363.6L336.0,364.6L335.6,365.8L334.4,366.6L334.4,368.2L336.0,369.0L337.6,370.6L338.4,372.0L339.0,373.4L339.6,375.2L339.4,377.4L341.6,377.0L343.2,376.0L345.0,375.0L346.4,375.0L345.6,376.8L346.4,378.4L348.0,378.0L349.4,375.8L350.8,375.8L352.2,377.4L354.6,378.6L356.2,378.2L358.6,377.8L360.2,378.8L361.8,378.6L362.8,381.2L364.0,381.6L367.0,382.6L369.0,381.6L371.6,380.6L373.4,381.2L374.8,379.8L377.4,380.2L380.4,380.2L381.2,381.2L381.6,383.2L380.8,385.8L381.8,387.0L382.4,388.4L382.4,390.0L381.2,391.0L379.6,392.0L379.4,394.4L379.8,396.0L381.4,398.2L381.4,400.2L382.0,402.0L382.8,404.2L382.8,406.6L381.6,408.4L382.4,410.0L381.0,412.4L380.2,415.0L379.8,420.4L381.8,421.6L381.4,423.6L383.2,426.2L383.8,427.8L384.8,430.6L384.0,434.6L383.8,437.8L384.8,439.2L386.2,440.8L385.4,441.8L385.2,444.4L385.4,451.6L383.8,482.4L383.8,486.6L364.2,509.4L363.8,554.6L365.4,556.8L368.2,559.0L370.4,561.2L373.0,563.0L375.6,565.0L378.0,568.6L379.4,571.8L380.8,575.2L381.2,578.0L381.8,582.4L382.2,584.0L383.0,586.8L383.0,589.2L382.6,591.4L382.6,594.4L380.0,596.2L378.8,597.8L376.8,599.8L376.6,602.0L378.0,604.0L378.6,607.0L377.8,610.2L378.0,612.6L379.2,615.0L377.6,617.2L379.6,618.8L382.0,619.6L383.4,619.2L384.2,620.8L386.0,622.4L388.8,622.8L390.6,624.4L392.6,626.2L393.8,627.6L394.0,630.8L393.4,633.2L394.2,635.2L395.0,637.6L396.2,637.6L396.8,639.0L398.0,639.0L400.4,639.0L401.4,641.0L403.2,641.6L404.6,643.4L405.8,644.8L408.2,646.0L410.0,646.0L410.4,648.0L411.0,649.8L410.6,651.4L411.4,653.4L412.4,655.4L412.0,657.4L413.2,659.4L414.4,660.4L417.4,660.2L420.2,660.2L421.8,659.2L423.8,658.4L424.6,659.4L426.4,660.0L427.4,661.6L428.4,662.2L430.2,662.4L431.8,662.8L433.4,663.8L434.6,663.4L435.2,662.2L436.0,660.6L437.8,659.6L440.0,659.2L441.4,658.8L443.0,658.8L445.8,658.4L448.6,656.0L449.8,654.2L451.0,652.6L451.2,651.0L452.4,649.2L453.2,648.2L452.8,646.6L452.8,645.0L454.4,644.2L456.4,643.2L458.8,642.8L460.8,641.2L461.8,641.0L463.4,642.0L464.2,641.2L466.2,641.4L467.8,640.6L469.8,639.6L471.4,638.2L474.4,638.4L475.6,639.2L477.2,638.8L478.8,638.2L481.0,638.0L482.6,638.2L484.0,638.2L484.0,637.4L485.8,635.6L487.2,635.8L488.6,635.8L489.4,634.8L491.0,633.4L492.4,633.0L493.4,634.2L494.2,635.8L495.8,636.0L497.8,636.0L500.2,635.0L502.0,634.2L503.2,635.4L505.6,634.6L508.2,634.0L509.8,634.0L509.8,633.0L511.0,633.0L512.8,633.0L515.4,633.0L517.6,631.8L519.6,631.6L521.2,632.0L523.0,631.0L524.4,631.2L526.0,630.4L526.6,631.6L527.8,632.0L529.2,631.6L530.6,633.8L531.4,634.8L532.6,635.6L534.0,636.2L534.4,637.6L535.6,638.4L536.4,637.2L537.2,636.2L539.2,635.8L540.6,636.2L542.2,637.4L544.2,637.8L545.8,639.0L547.0,640.0L547.8,640.0L549.4,639.4L550.4,638.2L551.2,639.4L551.8,640.6L553.8,640.4L555.2,641.4L557.2,643.0L559.0,644.2L561.4,645.0L563.0,645.8L565.8,646.4L568.4,646.8L572.0,647.0L573.2,646.6L573.2,644.8L574.6,643.2L575.0,641.8L575.4,640.8L575.0,639.2L576.2,639.4L577.6,639.8L579.0,640.4L579.0,641.2L579.8,642.4L580.8,642.4L582.2,643.2L583.6,643.8L585.4,643.8L586.8,644.4L589.2,644.8L590.6,644.4L592.4,644.0L593.0,645.0L594.6,644.8L596.4,644.6L598.4,646.2L600.2,647.6L601.4,649.2L604.0,648.4L604.8,647.6L605.6,646.4L606.8,646.2L608.6,646.2L610.2,646.0L610.6,645.2L610.6,644.4L609.8,643.2L610.0,641.4L608.8,640.8L608.2,639.6L608.6,638.2L607.8,637.4L608.0,636.2L607.6,634.8L607.6,633.8L608.8,633.2L607.2,632.4L608.0,630.6L607.2,629.2L606.2,628.4L604.2,627.8L601.8,627.6L600.4,627.0L598.2,626.0L598.2,625.0L597.6,623.6L597.4,622.2L598.8,621.0L598.0,620.0L598.0,618.4L598.4,617.2L599.8,616.6L600.6,615.6L601.2,614.6L602.2,613.6L603.6,613.6L605.2,613.8L607.0,613.2L608.0,612.4L608.8,611.6L609.8,611.6L611.0,610.2L612.2,609.0L613.2,609.6L614.6,609.6L617.0,609.8L616.0,608.2L615.8,606.8L615.8,605.0L615.4,603.4L614.2,602.8L613.0,601.2L612.8,600.0L612.6,598.8L611.8,597.8L611.2,596.8L611.0,596.0L610.0,595.0L609.8,593.4L609.4,592.0L607.8,590.6L606.4,591.0L604.8,590.4L603.2,589.4L602.4,588.8L602.2,587.6L602.0,586.4L600.8,585.4L599.8,584.4L598.4,583.6L596.4,582.4L595.0,582.4L593.4,581.2L592.0,580.8L591.26,579.43L591.16,561.83L591.77,557.24L589.0,557.6L587.6,557.6L586.4,558.4L585.6,560.4L583.4,559.8L582.0,558.6L580.8,557.8L579.6,556.8L579.2,555.6L580.0,555.0L580.0,553.6L579.2,553.6L578.2,552.4L578.6,550.8L579.0,550.0L580.0,549.8L580.8,549.8L582.6,549.8L583.6,549.6L584.8,550.0L586.4,550.2L587.8,549.8L589.2,549.2L589.6,548.0L590.4,547.0L591.4,546.8L592.2,546.0L593.2,546.0L594.4,545.8L594.2,544.8L595.6,544.2L594.8,542.6L596.4,542.4L598.2,543.2L599.8,542.4L600.6,543.6L602.2,542.6L604.2,542.0L606.0,541.6L608.6,541.2L610.0,541.0L611.4,540.4L613.0,539.8L614.2,539.2L616.0,539.4L618.2,538.4L620.0,537.4L622.0,536.8L623.0,536.6L624.2,536.2L625.8,535.2L627.2,535.0L628.6,534.6L630.0,534.8L631.4,534.8L633.0,534.4L634.6,534.0L635.6,533.2L636.6,532.2L638.8,531.2L641.0,530.8L642.8,530.8L644.6,530.8L645.0,530.0L647.0,529.0L649.0,529.0L650.4,529.2L652.0,528.4L651.2,526.8L649.8,525.8L650.0,523.6L649.4,521.8L650.0,520.2L649.8,518.6L651.4,517.6L653.0,515.8L654.8,514.2L656.6,512.2L657.8,510.2L659.0,507.6L659.4,505.8L660.0,503.6L660.6,501.4L661.0,499.4L661.6,497.2L661.8,495.2L662.4,493.0L663.2,489.6L663.4,487.0L663.6,484.8L664.2,481.2L665.0,479.6L666.0,478.2L666.8,476.4L668.0,474.4L668.2,473.0L668.2,471.4L668.2,469.4L668.2,467.6L668.4,465.8L668.6,463.8L670.2,463.4L673.2,463.0L676.0,462.4L678.8,462.0L681.0,461.6L682.0,461.4L683.6,461.2L684.6,461.2L686.4,460.8L688.4,460.4L690.6,460.2L692.4,460.2L694.4,459.6L695.2,458.0L696.4,455.4Z" />
		<path id="L1611294234183" name="克孜勒苏柯尔克孜自治州" class="qing-map-1616120656252" d="M202.4,487.4L201.2,487.6L199.0,487.4L197.2,488.0L195.0,488.8L194.0,488.8L193.2,488.0L192.0,488.2L190.6,488.6L189.4,488.4L188.0,488.4L186.8,488.0L185.4,488.4L183.6,489.0L182.0,489.8L180.4,489.8L178.8,489.8L177.8,490.6L176.2,491.6L176.0,493.0L173.6,492.8L170.6,493.0L168.8,493.4L167.0,494.0L165.4,493.6L164.0,494.2L162.4,493.6L161.0,494.0L159.0,494.6L156.6,494.6L154.8,495.0L154.6,496.4L153.4,497.6L151.8,498.4L150.4,499.4L149.2,501.2L147.2,503.2L146.8,504.6L145.6,504.8L144.0,504.4L142.2,505.2L141.4,504.6L139.6,505.0L138.0,504.8L136.0,503.6L134.4,503.2L132.6,504.0L131.4,503.0L129.6,503.6L127.8,503.6L127.0,505.0L125.0,504.8L123.4,504.8L121.0,504.8L118.6,504.8L117.2,503.2L116.0,501.6L114.2,502.2L112.8,502.2L111.0,500.8L110.0,502.0L108.0,502.0L106.8,503.2L107.4,504.4L107.2,506.0L108.4,508.2L107.0,509.8L105.6,511.0L105.6,513.2L105.8,515.6L106.0,517.8L106.4,520.4L107.2,522.2L109.8,522.4L111.6,521.4L112.6,519.2L114.2,519.8L116.0,518.2L117.2,516.6L119.0,516.6L117.6,518.8L117.0,521.0L115.8,523.0L114.6,525.2L114.6,528.0L113.8,530.0L115.6,530.6L118.4,530.6L120.0,529.4L120.6,527.4L120.6,525.8L119.0,524.4L119.4,523.0L121.0,521.6L122.2,521.4L123.0,521.6L123.0,520.6L123.2,519.2L123.8,518.4L124.6,519.0L126.0,518.6L127.6,518.6L129.4,519.0L130.8,519.2L131.8,519.4L132.8,520.2L130.8,521.4L129.4,522.4L131.0,524.0L131.8,526.2L131.8,527.6L130.6,528.4L128.8,529.0L127.4,528.6L125.8,528.8L125.4,527.6L123.4,528.8L121.6,530.0L120.8,531.2L122.6,533.0L124.6,533.6L125.6,535.4L126.6,537.4L127.8,538.8L128.8,540.0L130.0,541.2L131.6,542.4L133.0,543.2L132.8,544.8L134.6,545.2L136.4,544.6L138.0,544.4L138.8,545.4L140.4,545.4L140.8,546.8L140.2,548.2L139.0,549.0L139.8,550.4L141.4,549.8L143.0,549.8L144.6,551.0L145.8,551.6L146.8,552.8L147.2,554.4L147.2,556.4L147.0,558.8L147.0,561.2L145.8,563.2L145.2,565.2L145.2,568.0L143.8,569.4L144.2,571.2L142.8,573.0L143.6,575.4L142.6,576.4L141.2,575.0L139.8,576.8L138.6,577.4L137.8,579.2L136.8,581.0L135.6,579.4L134.8,578.0L132.8,578.8L131.4,579.0L130.2,580.0L129.2,581.0L128.0,581.2L126.8,580.8L125.2,582.0L124.0,583.4L122.2,584.0L121.6,581.6L122.4,579.0L123.4,577.2L123.0,576.0L124.6,574.8L123.4,573.0L121.0,572.4L120.8,574.2L119.0,574.0L117.0,575.2L115.4,574.0L113.2,573.4L111.2,572.8L109.4,573.4L109.6,571.4L108.8,569.8L108.0,567.4L108.4,565.4L106.4,563.8L105.0,561.8L102.6,562.0L100.8,561.2L99.8,559.6L99.0,558.4L96.8,559.4L95.2,560.2L94.0,558.8L92.2,559.0L90.2,558.4L89.4,556.8L90.0,556.0L91.2,555.2L91.8,553.4L91.8,552.4L91.8,550.6L91.4,549.4L90.2,550.0L89.4,548.4L87.4,548.2L85.6,547.0L84.2,545.4L83.6,546.2L83.0,545.0L81.8,545.8L80.4,544.2L78.8,544.2L77.0,543.2L75.8,543.2L74.8,543.4L73.4,543.2L71.8,543.2L70.2,542.8L68.6,542.0L68.0,543.2L68.2,544.2L66.8,545.2L66.4,546.8L66.8,547.8L65.0,547.8L64.2,548.4L63.2,548.2L62.2,548.2L61.4,547.2L60.6,546.2L59.0,545.4L58.0,544.0L58.0,542.8L57.0,541.6L56.6,540.4L56.6,539.0L56.4,537.6L56.0,536.2L54.6,535.2L55.0,533.6L55.6,532.4L56.4,531.4L57.2,532.2L58.6,532.4L58.8,531.0L58.8,529.6L58.8,528.6L58.0,527.4L56.6,527.8L55.8,526.8L55.2,526.0L55.8,525.2L54.8,523.8L54.2,522.4L53.0,522.6L53.6,521.6L53.2,520.2L52.4,519.2L51.0,519.2L50.4,518.2L49.2,518.0L49.4,517.0L49.2,515.6L48.0,513.8L49.6,513.4L50.4,513.2L51.4,510.8L52.4,509.8L54.2,510.4L55.8,510.4L57.0,510.2L58.2,509.6L59.4,508.6L60.2,507.2L60.0,506.2L61.0,505.8L60.6,504.6L61.4,504.6L62.0,503.2L61.8,500.8L61.6,499.0L61.0,498.2L60.0,497.8L59.2,497.4L59.2,496.2L59.2,494.6L60.6,493.8L61.4,492.8L61.4,491.2L62.2,489.2L63.0,488.2L63.8,487.4L62.4,486.6L64.0,486.2L65.0,484.4L66.6,484.8L68.2,483.4L69.4,483.0L71.0,482.4L72.4,482.4L73.2,483.4L74.2,483.0L74.4,483.8L76.0,483.4L77.4,482.4L78.8,481.2L79.8,479.8L80.6,479.2L81.4,478.6L82.0,477.2L83.2,475.8L84.4,476.0L85.4,476.2L86.0,475.2L86.6,473.4L88.4,473.2L90.2,473.2L91.2,474.0L92.4,474.0L93.2,472.8L92.2,471.6L91.0,470.2L89.6,469.0L90.6,468.4L90.6,466.8L90.6,465.6L92.2,466.6L93.4,467.6L94.6,468.6L96.6,468.4L98.4,469.6L100.0,468.6L101.4,468.8L102.8,469.2L104.0,468.6L104.8,467.4L105.6,467.2L106.2,466.2L107.4,465.2L108.8,464.8L109.6,463.8L110.6,463.2L111.4,461.8L113.0,461.0L114.6,459.8L115.2,461.2L115.6,462.8L115.8,464.2L116.2,465.8L117.2,466.8L118.2,467.2L119.2,468.0L118.4,469.2L117.4,470.8L117.4,472.6L118.0,473.8L118.2,474.6L118.4,476.0L119.8,475.4L120.6,475.4L121.4,474.6L122.2,473.6L123.0,474.8L124.2,475.0L125.2,475.0L125.4,474.0L126.0,473.2L126.6,472.0L128.8,472.8L129.0,471.8L130.0,471.2L131.8,471.4L133.6,472.2L135.0,470.8L136.2,470.2L137.0,470.8L138.2,471.0L137.6,472.2L138.6,473.6L139.8,471.8L141.0,472.2L142.2,471.4L142.8,470.2L143.8,470.0L145.0,468.6L145.4,467.2L145.4,465.6L146.4,464.4L147.4,463.0L148.4,462.0L149.0,460.6L149.0,459.4L150.0,458.6L149.2,457.4L148.6,456.2L149.6,455.2L150.6,454.6L151.2,453.0L151.6,452.0L151.4,449.8L152.2,448.6L152.4,447.6L153.8,446.8L155.2,446.8L155.4,445.6L155.6,444.4L156.8,445.0L157.8,444.8L158.6,443.6L160.2,442.6L161.0,443.0L162.4,443.4L163.2,444.4L164.4,444.8L165.8,445.4L167.0,444.6L168.4,445.4L169.6,444.8L171.2,443.8L172.0,444.4L173.2,443.8L174.6,444.8L175.4,446.0L176.4,445.2L177.4,446.0L179.2,445.6L181.0,445.6L182.4,445.4L183.4,444.4L184.8,445.0L185.8,444.0L186.8,443.8L186.8,442.6L185.6,441.0L186.6,439.4L188.0,438.0L189.4,437.6L191.2,437.6L192.8,437.4L194.4,436.4L195.8,436.2L196.6,433.8L197.2,432.0L197.2,429.8L198.2,428.8L200.6,429.2L202.0,429.4L202.8,428.8L204.0,428.2L205.8,429.6L209.0,433.0L215.0,439.0L215.8,441.8L217.2,442.6L217.0,444.8L219.0,445.8L219.8,447.0L219.2,448.8L219.4,450.4L217.8,451.0L216.4,452.4L216.0,453.8L214.8,453.0L213.2,454.0L210.8,454.8L209.4,455.8L210.4,457.8L211.4,458.8L210.4,461.0L209.6,463.2L208.2,465.0L203.6,467.0L200.0,469.4L197.8,470.4L196.6,471.6L197.0,473.2L196.6,474.6L195.4,475.8L194.2,476.2L194.4,477.8L193.2,479.4L193.8,481.2L192.6,482.8L193.8,484.2L195.4,484.8L197.2,484.4L199.8,485.0L202.0,484.8L202.4,486.0Z" />
		<path id="L1611300505428" name="伊犁哈萨克自治州" class="qing-map-1616120656252" d="M261.0,278.8L261.2,280.6L261.4,281.8L262.8,283.2L264.2,283.4L265.8,284.2L266.8,286.2L268.4,288.2L268.2,290.0L267.4,292.2L266.8,294.0L267.4,295.4L267.6,297.4L268.2,299.6L268.4,302.6L269.0,305.0L268.4,307.2L268.0,309.2L268.2,310.6L270.0,312.2L270.2,314.2L270.2,316.6L271.2,318.0L272.0,319.4L272.2,321.0L272.4,322.2L272.4,323.6L273.2,325.0L274.0,326.2L274.8,328.4L275.6,329.6L276.0,331.6L277.0,332.8L277.4,334.6L278.4,336.4L279.2,338.2L279.6,339.6L278.8,340.8L279.2,342.0L278.6,343.4L278.2,344.8L278.6,345.6L280.2,345.4L280.8,346.2L280.0,347.4L280.8,349.2L280.4,350.2L281.2,352.0L281.0,353.2L279.6,352.8L278.4,353.8L277.2,353.0L275.6,353.2L274.2,354.0L272.4,355.8L270.8,356.6L269.6,356.6L268.6,357.4L268.2,358.6L269.2,360.0L271.0,361.6L272.6,362.2L274.2,362.8L274.4,364.0L272.4,364.8L271.4,365.0L270.2,365.4L269.4,365.8L268.4,367.0L267.4,367.0L266.2,367.0L264.8,367.0L263.8,368.0L263.8,370.0L263.0,373.0L261.2,374.0L260.6,376.0L261.4,377.8L262.6,379.4L264.6,381.0L263.4,381.8L262.4,382.8L262.6,385.0L263.6,386.0L263.2,387.0L263.6,387.8L264.6,389.2L266.6,388.8L268.0,389.0L268.6,390.4L270.6,388.8L272.8,387.4L275.0,387.4L277.2,387.4L280.0,387.4L280.8,388.6L282.4,388.0L283.6,387.0L285.6,387.4L286.8,386.6L288.2,388.2L289.0,390.2L290.8,390.2L292.0,392.0L292.8,390.4L293.2,388.4L295.6,388.4L297.6,387.8L298.8,388.8L300.2,387.8L302.0,387.4L303.6,387.6L306.0,387.0L308.8,386.0L310.0,387.2L312.8,385.8L314.4,386.6L315.0,384.8L316.8,385.4L317.8,385.6L319.4,384.8L321.2,384.6L322.2,384.0L323.2,384.2L323.8,382.2L325.2,382.8L326.6,381.6L329.2,382.4L330.6,381.0L331.2,379.4L333.0,379.6L334.8,379.4L336.8,379.2L338.2,379.8L339.4,377.4L339.6,375.2L339.0,373.4L338.4,372.0L337.6,370.6L336.0,369.0L334.4,368.2L334.4,366.6L335.6,365.8L336.0,364.6L337.2,363.6L338.4,365.0L340.2,365.2L340.15,362.54L341.43,363.14L342.14,361.97L344.4,362.6L345.4,360.6L346.69,361.2L348.4,360.0L350.4,360.23L352.0,359.34L355.14,359.99L356.54,359.43L358.11,359.69L359.4,358.0L361.2,357.6L362.6,358.2L364.6,357.4L366.6,356.6L368.2,356.6L369.2,355.6L371.0,355.8L373.2,355.0L374.6,353.4L376.4,353.2L378.2,353.6L379.4,354.0L381.6,352.0L384.2,354.4L384.4,352.6L386.6,352.8L388.8,353.0L390.4,352.4L392.6,352.09L394.6,352.8L396.32,355.12L396.8,353.6L396.8,352.0L398.6,352.4L400.2,352.8L402.17,352.2L403.8,351.8L402.86,349.71L401.31,349.66L402.03,347.86L400.4,348.0L400.8,345.38L403.17,345.17L405.46,342.57L403.8,340.4L404.6,338.2L406.2,339.2L408.2,339.2L409.43,340.57L412.0,341.43L413.4,338.8L412.4,337.8L411.8,336.4L411.6,334.6L410.0,334.8L409.6,333.8L409.0,332.6L408.2,331.4L407.0,331.8L406.0,332.0L404.8,331.2L403.6,330.8L402.4,330.8L402.37,329.65L403.6,328.2L402.4,327.4L400.6,326.8L399.4,327.0L398.0,327.4L396.8,327.8L395.6,328.0L394.4,327.2L393.4,328.0L392.4,327.6L392.0,325.8L390.4,325.4L389.0,325.0L387.4,324.2L385.8,323.2L386.63,321.95L385.0,320.8L383.4,320.6L382.4,319.0L381.2,320.2L380.0,319.0L379.2,317.6L377.4,317.8L376.0,317.6L374.8,318.0L373.8,317.2L372.6,316.4L370.8,317.4L370.2,316.2L369.0,315.2L367.4,315.8L367.2,314.6L366.0,314.0L365.4,315.4L364.0,315.2L362.0,314.8L360.4,314.8L359.0,313.6L359.0,312.2L357.8,312.2L355.8,311.8L354.2,311.2L353.0,312.2L351.6,311.4L350.4,312.6L349.6,311.6L348.0,313.2L346.6,312.6L345.2,312.2L343.8,312.0L342.4,312.4L340.6,310.0L338.8,309.8L337.0,309.2L335.4,308.2L333.6,307.6L332.4,306.2L331.8,305.0L331.2,304.0L329.4,304.0L327.8,304.0L325.8,304.0L324.4,303.8L322.8,302.8L321.6,302.2L320.6,303.0L319.2,302.6L316.6,302.0L315.0,300.8L314.0,301.2L312.8,300.0L311.2,300.2L310.6,299.2L310.4,298.0L308.6,298.4L307.4,296.4L306.0,297.2L304.6,296.4L303.4,296.2L302.6,295.2L301.2,295.6L299.2,295.6L297.2,295.0L295.6,295.4L294.0,294.8L292.2,293.6L290.6,292.8L289.0,293.2L287.8,291.8L286.0,291.8L284.2,291.6L283.4,290.4L281.6,289.4L280.2,288.2L278.4,288.6L276.8,287.8L277.6,286.2L276.8,284.4L275.6,282.6L273.6,283.0L271.2,282.2L269.4,281.2L267.8,281.2L267.2,280.0L266.8,278.8L265.6,279.6L264.4,277.8L262.8,278.4ZM408.0,298.2L410.2,298.0L412.4,298.2L414.4,298.6L416.8,299.2L419.0,301.4L420.6,301.0L421.4,298.0L422.0,294.6L423.2,294.2L422.8,292.0L422.8,289.0L421.0,287.4L416.6,287.8L416.0,285.0L417.4,283.4L416.4,281.4L415.2,281.4L413.8,280.4L413.2,279.2L411.8,279.2L410.2,278.0L408.4,279.8L409.4,282.2L409.8,283.6L410.6,285.0L410.4,286.8L411.2,288.0L410.2,289.8L410.4,291.6L411.2,293.4L409.4,295.2Z" />
		<path id="L1611194221485" name="塔城地区" class="qing-map-1616120656252" d="M436.6,255.4L436.6,274.43L439.4,274.2L441.0,274.8L442.6,276.0L443.6,277.6L443.6,279.0L445.6,281.4L444.34,283.51L445.2,285.6L445.92,287.08L447.2,287.31L447.8,288.8L449.4,289.0L449.2,292.0L449.8,293.8L451.2,295.0L450.6,296.8L451.0,298.8L451.4,301.4L450.6,304.0L451.0,305.8L450.4,308.6L450.2,310.4L448.4,312.8L446.8,314.4L445.6,316.4L445.4,318.4L444.0,318.8L443.0,319.6L441.6,321.2L440.4,322.6L439.8,324.4L439.8,326.4L438.6,327.6L438.6,329.4L438.0,331.2L437.2,332.4L435.8,332.6L434.6,334.2L433.8,336.0L431.57,336.14L431.14,337.57L430.0,337.57L429.29,338.57L425.86,338.43L425.71,336.43L424.29,337.57L423.29,336.71L420.43,337.14L420.14,336.0L417.14,335.0L416.0,336.71L414.8,337.8L413.4,338.8L412.4,337.8L411.8,336.4L411.6,334.6L410.0,334.8L409.6,333.8L409.0,332.6L408.2,331.4L407.0,331.8L406.0,332.0L404.8,331.2L403.6,330.8L402.4,330.8L402.37,329.65L403.6,328.2L402.4,327.4L400.6,326.8L399.4,327.0L398.0,327.4L396.8,327.8L395.6,328.0L394.4,327.2L393.4,328.0L392.4,327.6L392.0,325.8L390.4,325.4L389.0,325.0L387.4,324.2L385.8,323.2L386.63,321.95L385.0,320.8L383.4,320.6L382.4,319.0L381.2,320.2L380.0,319.0L379.2,317.6L377.4,317.8L376.0,317.6L374.8,318.0L373.8,317.2L372.6,316.4L370.8,317.4L370.2,316.2L369.0,315.2L367.4,315.8L367.2,314.6L366.0,314.0L365.6,312.4L365.4,311.0L365.2,309.4L364.8,308.6L364.4,307.4L365.0,306.4L365.2,305.0L365.2,304.2L365.4,303.2L366.4,302.4L367.2,301.2L367.2,300.0L367.4,298.6L368.4,297.2L368.0,295.8L367.6,294.8L368.6,294.6L370.0,295.0L371.2,294.4L373.0,294.4L374.8,294.8L376.6,294.8L376.6,293.4L376.2,291.8L375.0,290.2L375.4,288.6L375.4,286.8L375.8,285.2L376.2,283.8L377.0,282.0L376.0,281.0L374.4,279.6L374.0,278.4L373.2,276.6L371.8,275.4L370.2,275.0L368.8,273.6L367.4,273.2L366.2,271.8L364.8,271.4L363.0,271.2L359.8,270.8L357.6,270.6L355.4,270.0L353.0,269.0L350.4,267.6L347.6,266.4L345.0,265.0L343.6,263.8L341.8,263.8L340.0,262.8L338.6,261.2L337.0,259.6L337.6,257.2L337.4,255.0L336.2,253.6L334.2,252.0L332.0,250.4L330.8,248.6L329.2,246.8L328.6,245.0L328.0,242.4L327.8,240.4L329.0,239.0L329.6,237.4L330.2,235.4L330.8,234.0L330.8,232.4L330.8,230.8L330.2,229.4L330.6,227.8L331.6,227.0L333.4,226.6L334.4,226.2L334.8,224.0L335.4,221.6L336.0,218.8L336.8,216.0L337.6,213.2L338.6,210.2L339.2,207.6L340.2,205.0L341.4,203.2L342.2,201.4L343.0,199.4L344.0,196.8L344.4,194.4L345.2,192.0L346.0,190.2L346.4,189.0L346.8,187.8L347.6,187.0L347.4,185.2L348.2,183.4L348.6,181.2L349.4,180.0L349.4,178.2L350.2,177.0L351.0,175.8L351.2,174.6L351.8,172.8L352.0,171.8L352.6,170.8L352.6,169.6L352.6,168.6L353.4,167.8L354.8,168.4L355.8,167.8L356.8,168.8L357.8,168.6L358.6,169.2L359.0,170.0L360.0,170.0L361.2,170.4L363.0,170.8L364.0,172.2L364.6,173.0L365.4,172.8L366.8,173.2L368.0,174.4L369.2,175.4L370.6,175.8L371.6,176.4L372.8,176.6L374.0,177.6L374.8,177.0L376.0,177.6L376.8,178.2L378.0,178.8L379.0,178.8L379.8,179.6L380.8,180.0L381.6,179.4L382.4,179.4L383.4,179.6L384.2,179.8L385.8,180.2L387.4,180.2L388.2,179.2L389.4,178.6L390.4,178.4L392.0,178.6L393.8,178.8L395.2,178.8L397.0,178.2L397.8,178.8L398.6,179.6L400.6,179.6L402.4,178.6L403.4,179.2L404.2,178.2L405.8,178.0L407.2,178.0L408.6,179.8L409.8,181.0L410.8,182.2L411.6,183.0L412.2,184.0L413.4,184.8L414.6,183.8L414.6,182.2L415.0,181.2L417.2,181.6L418.4,180.6L419.6,180.0L419.6,179.2L420.8,179.2L421.6,178.2L422.0,176.6L423.4,176.2L424.4,175.8L425.2,176.8L426.4,176.6L428.0,176.6L429.0,176.0L430.8,176.0L432.4,176.6L434.2,176.0L435.6,176.0L437.0,176.2L438.8,176.2L440.4,176.4L441.4,175.8L442.8,175.8L444.4,175.4L445.6,175.2L447.2,175.6L448.0,176.6L449.0,178.0L459.8,174.2L461.8,174.2L463.0,175.2L465.0,176.4L466.8,175.8L469.0,175.6L480.2,173.2L480.2,180.8L484.8,185.0L485.4,186.8L485.6,188.4L485.6,189.6L485.6,190.8L485.2,192.6L481.2,200.2L480.6,202.2L489.8,224.8L489.69,255.6L436.6,255.4L422.8,255.4L423.0,252.6L425.0,251.6L427.2,251.0L429.0,249.8L430.8,248.2L432.0,246.2L432.6,243.8L434.2,242.2L434.2,239.8L434.4,237.2L435.2,235.4L436.8,233.6L438.4,231.8L440.8,230.2L442.4,229.0L443.2,227.6L444.4,226.8L446.0,225.0L445.8,223.0L447.4,222.2L447.4,220.4L446.0,218.8L444.8,217.6L443.4,216.6L441.4,216.8L439.8,216.2L437.8,216.2L435.6,215.4L433.4,216.0L431.0,217.0L429.8,218.0L428.8,219.2L427.4,218.6L425.6,219.2L424.4,221.0L423.8,223.2L424.2,225.2L423.8,227.2L423.0,229.4L422.0,232.4L420.8,234.6L419.2,236.4L417.6,237.8L415.4,238.4L414.0,238.4L412.8,239.6L412.6,241.4L410.4,242.2L409.0,240.6L407.4,241.0L408.6,242.6L407.8,244.0L407.0,245.8L407.0,248.0L405.8,249.4L404.8,251.6L403.6,253.6L402.4,256.0L401.6,258.4L402.2,260.8L403.8,262.8L404.8,263.8L404.2,266.0L404.0,268.6L404.0,271.4L403.6,273.4L403.8,276.0L403.8,278.4L403.6,279.8L404.6,281.4L405.4,282.8L406.4,283.8L408.2,285.8L409.0,284.8L410.6,285.0L410.4,286.8L411.2,288.0L410.2,289.8L410.4,291.6L411.2,293.4L409.4,295.2L408.0,298.2L408.0,300.8L408.8,302.8L408.8,304.8L408.2,306.2L407.4,307.8L406.6,309.8L408.0,309.0L409.6,308.0L411.6,307.8L413.2,307.0L413.0,304.6L414.0,303.6L415.0,301.8L416.8,301.6L419.0,301.4L420.6,301.0L421.4,298.0L422.0,294.6L423.2,294.2L422.8,292.0L422.8,289.0L421.0,287.4L416.6,287.8L416.0,285.0L417.4,283.4L416.4,281.4L416.4,280.2L416.0,278.8L415.8,277.2L415.8,275.2L417.0,273.4L418.6,272.8L420.2,272.4L420.6,270.2L421.2,269.2L422.8,269.4L423.6,269.0L422.8,267.2L422.8,265.4L422.8,263.2L422.0,261.4L422.0,259.2L422.8,255.4Z" />
		<path id="L1611299246109" name="阿勒泰地区" class="qing-map-1616120656252" d="M432.38,174.03L433.4,172.6L435.46,170.72L436.23,169.0L437.49,167.85L437.4,165.6L437.6,164.2L436.6,162.8L437.0,161.6L437.4,160.2L437.6,158.8L436.6,157.6L435.4,156.4L434.6,154.2L434.6,152.2L434.8,149.6L434.0,145.8L433.8,142.8L433.4,140.0L433.2,136.4L432.4,132.6L432.6,130.4L432.6,128.4L432.6,126.6L432.6,125.2L433.4,123.8L434.0,122.0L435.0,121.6L436.17,119.92L436.8,118.2L437.2,117.0L437.4,115.4L438.0,114.0L439.4,111.6L441.4,110.8L443.2,110.4L446.0,110.4L448.2,110.2L449.8,110.4L451.8,110.4L454.2,110.6L455.8,109.2L457.0,107.6L459.2,107.8L461.0,108.2L462.6,107.0L464.6,106.2L466.6,105.0L466.15,103.0L467.6,102.35L467.46,101.09L469.49,100.71L470.0,98.6L471.25,97.44L472.15,95.54L471.12,92.94L473.26,91.65L473.4,89.6L472.0,88.2L471.0,86.4L470.8,84.4L471.2,82.4L472.8,81.2L474.34,79.89L474.4,78.0L475.34,76.54L477.6,76.8L479.28,76.03L481.37,76.83L482.6,75.46L484.4,76.2L485.6,76.0L486.8,77.4L489.03,77.6L491.0,78.2L492.4,79.62L494.17,78.61L495.4,77.94L494.57,76.0L496.8,76.8L498.4,76.0L500.4,75.2L502.0,74.0L503.6,74.8L505.0,74.6L504.8,76.2L506.6,77.4L505.6,78.4L506.0,79.6L505.6,81.0L507.0,81.6L506.8,82.8L507.6,84.0L506.6,85.4L505.4,85.4L504.0,86.0L503.2,87.0L502.6,88.8L504.2,89.4L504.2,90.2L505.4,91.0L504.4,91.8L505.4,93.0L506.6,92.4L507.4,93.6L508.6,94.6L510.0,94.2L511.4,95.2L512.4,96.6L513.8,96.8L513.2,98.2L512.0,99.4L511.6,101.0L510.2,102.4L510.6,103.8L511.6,104.0L512.2,104.8L514.0,105.0L514.4,106.0L515.8,106.0L516.6,107.2L518.0,107.4L519.4,107.8L521.0,108.4L522.4,109.0L522.6,110.6L523.6,111.6L525.4,112.6L527.6,112.2L527.8,113.6L529.2,114.2L529.4,115.0L530.4,115.2L529.8,116.2L529.2,118.0L529.6,120.0L531.0,121.2L531.2,122.6L532.4,123.0L533.4,122.6L533.4,124.0L534.6,123.8L537.6,126.43L539.4,125.8L541.6,127.0L542.4,128.4L544.2,130.0L545.2,131.6L546.6,131.8L548.0,131.2L548.92,132.43L550.31,132.34L552.12,131.92L552.6,130.4L553.6,130.2L554.8,129.8L555.8,129.8L557.0,129.8L559.0,129.8L560.4,129.6L561.6,130.0L561.6,131.0L561.8,132.8L563.0,133.8L563.6,135.8L566.4,136.4L566.8,138.0L568.0,139.6L569.0,139.2L570.4,139.4L572.2,139.2L573.4,139.0L574.0,137.4L575.6,137.4L577.2,137.2L576.8,138.4L576.8,139.8L577.0,141.8L578.4,143.2L579.4,144.4L580.6,144.2L581.4,145.0L582.4,145.2L583.2,146.2L584.6,146.0L586.4,147.4L585.8,149.4L587.0,151.0L587.8,153.0L588.4,153.8L589.8,155.2L589.6,158.0L589.8,159.8L590.8,159.4L591.6,161.2L591.2,162.2L590.2,163.4L591.6,165.4L591.8,166.6L592.8,168.4L593.2,169.8L594.2,171.4L595.6,172.2L596.2,174.4L597.2,175.8L598.6,177.4L599.4,178.6L601.4,178.8L602.6,180.0L604.0,181.2L604.0,183.4L604.8,184.2L605.4,185.6L604.4,186.8L606.6,188.6L606.6,189.4L607.4,189.2L607.8,190.8L608.4,191.8L608.0,193.4L607.2,195.6L607.2,198.0L609.2,198.8L608.0,200.2L608.2,201.4L607.2,203.0L607.0,204.8L606.48,207.2L605.26,209.18L603.31,211.49L605.4,214.37L604.86,215.71L605.8,216.8L607.0,218.8L607.66,224.09L602.95,229.29L599.6,234.6L597.37,238.29L596.32,243.57L596.57,248.43L595.4,248.8L592.6,250.4L590.6,251.4L589.8,253.2L588.6,255.0L587.2,257.4L586.4,259.6L585.0,261.0L583.0,265.0L582.0,268.0L582.4,270.4L511.63,270.4L489.8,271.0L489.69,255.6L489.8,224.8L480.6,202.2L481.2,200.2L485.2,192.6L485.6,190.8L485.6,189.6L485.6,188.4L485.4,186.8L484.8,185.0L480.2,180.8L480.2,173.2L469.0,175.6L466.8,175.8L465.0,176.4L463.0,175.2L461.8,174.2L459.8,174.2L449.0,178.0L448.0,176.6L447.2,175.6L445.6,175.2L444.4,175.4L442.8,175.8L441.4,175.8L440.4,176.4L438.8,176.2L437.0,176.2L435.6,176.0L434.2,176.0L432.4,176.6Z" />
	</g>
</svg>
