<svg xmlns="http://www.w3.org/2000/svg" viewBox="0,0,563,600" width="100%" height="100%">
	<defs>
		<style type="text/css">
.qing-map-1616146751190
{
	fill: #DDDDDD;
	fill-opacity: 1.0;
	stroke: #FFFFFF;
	stroke-opacity: 1.0;
	stroke-width: 1;
}

.qing-map-1616146751190:hover
{
	fill: #56A4FF;
	fill-opacity: 1.0;
}
</style>
	</defs>
	<g>
		<path id="L1611047777602" name="东方市" class="qing-map-1616146751190" d="M65.6,272.6L67.2,272.0L68.4,271.8L69.4,273.0L70.8,274.0L71.8,274.4L73.0,275.0L74.6,275.6L75.6,276.2L77.2,277.8L79.2,278.2L80.4,278.4L82.0,278.8L83.2,279.8L85.2,279.6L87.0,279.6L89.0,279.6L90.8,280.2L92.2,282.0L94.0,284.2L94.2,285.4L94.4,286.8L94.4,288.6L95.2,290.8L96.6,292.0L97.8,293.2L99.0,293.8L100.4,293.8L100.0,295.0L98.6,295.6L97.8,296.2L97.6,297.6L98.6,297.8L99.8,298.2L102.0,298.2L103.2,299.2L103.8,301.0L103.2,303.0L102.2,304.6L102.2,305.6L102.4,307.2L101.6,309.0L101.8,311.0L101.2,313.6L102.6,315.8L104.8,316.6L107.6,316.0L108.6,315.4L111.0,315.6L112.8,317.0L114.0,317.0L115.8,318.2L117.4,318.2L118.6,318.8L120.2,322.8L121.0,326.2L121.4,329.0L121.6,331.4L121.0,333.0L119.8,334.4L119.6,336.0L118.8,337.0L119.4,338.8L117.8,340.8L117.2,342.2L117.4,343.6L118.8,345.2L120.4,346.6L122.4,348.2L123.4,349.6L123.6,351.4L123.4,352.6L121.0,353.2L119.4,353.0L118.2,353.4L116.8,355.2L115.8,356.2L115.0,356.8L115.0,358.0L114.8,358.8L114.2,360.4L114.2,362.6L113.0,363.8L110.4,363.8L109.0,363.8L108.0,365.0L106.2,364.6L104.8,364.0L103.4,363.4L102.4,363.6L101.0,363.8L99.8,364.0L98.8,365.0L97.8,366.0L97.2,367.0L96.4,367.8L95.4,367.4L94.4,367.0L93.6,367.8L91.8,367.4L91.0,366.8L89.8,367.2L88.6,366.6L86.2,366.8L84.4,366.4L83.6,367.2L81.8,367.6L80.8,367.8L79.2,368.0L78.2,369.8L76.2,370.6L75.4,372.2L72.8,374.0L71.2,373.8L70.0,374.8L68.0,376.4L65.8,377.2L64.6,377.8L64.4,379.8L64.2,381.6L62.4,381.4L60.6,381.2L59.4,381.0L57.2,382.0L55.8,380.4L53.6,378.6L52.6,378.0L51.2,379.0L49.6,379.6L48.0,379.0L45.2,379.0L43.0,380.6L42.2,378.4L39.8,373.6L38.6,370.4L37.8,367.8L36.6,365.8L34.8,363.2L32.4,361.6L30.2,360.6L29.0,360.2L28.6,358.6L28.4,357.2L30.0,353.4L31.2,353.2L32.0,352.8L31.0,351.4L31.0,350.4L32.0,348.8L33.2,347.6L34.2,345.4L34.4,343.2L34.4,341.4L34.6,339.4L35.0,338.0L34.6,336.8L34.2,334.6L33.4,333.4L33.0,332.2L32.8,331.0L32.4,329.8L33.0,328.8L32.8,326.6L32.8,323.6L32.2,322.0L31.2,320.0L30.4,318.2L29.8,316.2L30.0,315.0L29.0,313.2L28.6,310.0L28.0,308.0L27.0,306.2L27.4,305.0L29.4,303.8L31.2,302.8L32.6,301.2L33.6,300.0L35.0,298.6L36.0,296.4L36.2,295.0L36.8,292.8L37.6,291.0L38.8,288.2L37.4,285.0L35.6,283.2L34.0,282.0L31.0,281.2L30.0,279.8L30.6,277.2L30.6,275.6L30.2,273.6L30.4,270.6L31.0,269.6L31.2,267.0L30.8,265.6L32.0,265.6L33.6,266.2L35.6,266.6L36.0,265.6L36.8,265.4L38.0,265.2L39.6,267.0L40.6,268.6L42.2,270.4L43.4,271.2L44.6,271.6L45.6,271.8L47.0,271.8L48.8,271.8L50.6,272.4L54.6,273.4L56.2,274.2L57.0,274.6L57.8,275.0L58.8,274.2L60.2,273.6L61.0,273.6L62.2,273.8L64.2,273.2Z" />
		<path id="L1611048240640" name="儋州市" class="qing-map-1616146751190" d="M87.13,221.76L89.73,223.76L91.93,224.56L93.53,226.16L96.13,227.16L97.13,229.36L98.13,232.16L99.13,236.16L98.93,237.56L99.93,238.36L103.13,236.96L106.13,236.56L108.33,238.56L110.13,236.16L110.73,233.16L108.33,230.96L109.73,228.16L109.93,226.16L113.13,225.56L116.73,226.96L118.13,228.56L121.13,228.76L123.13,229.16L124.13,227.16L125.93,227.16L125.93,228.56L126.93,230.96L129.53,231.76L130.13,234.36L131.73,237.36L137.73,236.76L135.73,241.36L133.93,242.56L135.73,244.76L138.53,243.36L141.13,245.76L143.93,245.16L145.93,244.76L148.13,245.56L150.53,247.76L152.33,246.36L155.53,245.56L156.13,242.96L157.73,245.16L160.13,243.36L160.93,244.56L162.93,244.76L164.93,247.56L166.93,248.96L169.73,247.76L172.33,248.96L173.93,252.36L178.53,252.16L180.13,251.56L181.73,252.56L184.73,248.76L187.13,247.16L186.13,244.16L187.53,242.96L189.53,243.56L190.53,242.76L192.33,242.76L193.13,244.56L194.33,248.36L194.93,249.56L196.73,250.36L195.53,252.56L194.93,256.36L193.13,257.56L192.53,259.56L191.13,260.36L190.53,262.76L191.73,264.16L192.93,264.16L194.33,262.96L196.13,262.76L198.13,263.76L200.53,262.36L202.73,262.16L203.73,261.16L206.53,265.76L208.13,268.16L209.93,270.56L211.93,272.16L212.33,274.76L214.33,274.16L214.33,272.96L216.53,272.36L216.73,277.36L216.93,278.96L218.53,280.56L221.93,283.36L223.93,282.96L226.53,282.96L227.93,281.56L229.13,284.96L231.13,287.36L232.73,285.36L233.93,282.76L235.13,279.56L234.73,275.36L235.13,272.56L233.93,269.16L233.73,266.76L234.53,264.76L235.93,263.76L236.13,261.36L236.13,259.16L235.93,255.36L234.33,255.16L233.73,253.36L229.93,253.36L227.13,252.96L224.93,252.76L223.73,251.36L224.13,249.56L223.73,247.36L224.13,245.56L222.73,243.36L224.73,241.76L227.13,241.76L228.73,241.76L231.93,240.76L233.53,239.76L236.73,242.56L240.93,240.96L241.13,239.36L242.93,239.36L244.73,238.36L244.33,236.96L242.33,234.96L241.93,232.56L242.53,230.36L242.33,227.76L239.73,227.16L239.13,225.36L239.53,223.76L239.93,221.16L241.93,221.36L242.73,219.56L243.53,217.16L244.73,216.76L244.33,214.96L244.33,213.36L244.73,212.16L244.53,209.76L245.13,208.16L246.53,207.36L245.53,206.76L243.53,207.36L240.73,206.16L238.13,204.96L235.93,206.76L232.73,205.16L229.53,204.36L227.13,201.76L225.93,198.96L226.73,195.76L223.13,196.56L221.93,195.76L219.73,195.36L217.93,196.56L214.53,194.56L212.13,195.16L210.93,194.36L212.33,192.56L209.53,189.56L209.53,185.36L207.93,184.36L206.53,180.56L208.33,180.76L209.53,180.71L211.13,179.71L212.93,178.11L214.33,176.51L214.13,172.91L214.13,170.91L215.53,169.91L213.93,168.11L211.13,167.91L209.93,165.11L208.93,164.51L208.93,160.71L208.53,159.91L208.93,158.71L209.93,158.11L209.13,156.91L210.13,156.71L211.53,155.71L210.53,154.51L208.93,152.91L208.53,151.11L206.53,150.51L205.53,151.31L204.93,152.31L204.53,153.11L203.13,154.51L201.93,154.11L201.93,153.11L202.53,152.11L202.73,150.31L200.73,151.31L199.73,152.31L197.73,153.11L195.13,153.71L193.13,153.71L192.73,154.91L192.13,156.11L190.73,156.11L191.13,154.71L191.13,152.91L190.13,151.31L189.93,150.11L188.93,149.31L188.93,148.11L186.53,147.91L185.73,146.91L184.53,147.91L183.53,148.51L182.93,149.71L181.73,150.31L178.53,149.11L177.53,147.11L175.53,145.71L174.13,143.91L173.13,143.91L172.13,143.11L169.53,144.31L168.13,144.11L163.73,145.11L161.93,143.31L160.73,142.11L162.13,140.31L162.33,139.31L160.93,138.31L158.13,138.51L157.73,139.91L156.33,139.91L156.33,140.91L155.93,142.31L154.33,142.11L152.73,142.11L151.73,141.31L150.73,141.71L150.53,142.91L150.73,144.71L150.93,145.71L149.53,146.31L149.73,148.31L149.13,149.71L147.93,150.11L145.93,150.11L144.53,149.91L143.53,149.91L141.73,151.71L141.53,153.11L140.13,153.71L140.53,155.11L140.33,156.31L139.13,157.91L136.53,159.11L134.33,160.71L132.73,162.31L131.73,163.91L131.13,165.11L132.13,167.31L132.13,169.91L133.53,170.91L134.13,173.31L134.73,174.91L134.33,176.71L133.93,178.11L134.73,178.11L135.73,177.11L136.93,175.91L138.33,176.11L139.93,176.91L140.93,177.31L141.93,176.91L141.93,175.11L142.33,173.31L143.73,173.71L144.33,172.31L144.73,171.11L145.73,169.91L146.93,169.71L148.33,170.31L148.73,169.11L150.33,167.31L152.33,169.31L152.53,168.51L152.33,167.31L152.33,166.11L156.13,163.71L156.13,165.11L158.53,166.31L161.13,165.71L161.13,166.91L159.93,166.91L159.13,168.31L158.73,169.31L159.53,170.71L159.13,171.91L158.13,171.31L155.93,170.91L154.33,171.91L152.73,174.31L154.53,174.91L156.33,176.71L157.93,177.31L158.93,178.71L159.53,180.31L159.53,181.71L158.73,183.11L157.73,182.11L157.13,180.91L155.93,178.71L154.73,178.11L153.53,177.31L151.73,177.31L149.73,177.91L148.73,177.71L146.93,176.91L145.13,177.11L144.73,178.31L143.73,179.31L142.33,178.31L141.13,178.31L141.13,180.31L141.13,182.31L140.93,184.31L140.73,186.71L139.73,187.71L137.73,189.11L135.93,190.91L133.93,192.71L132.33,193.91L130.93,194.31L129.13,194.11L126.53,195.31L123.93,196.91L120.93,198.31L118.33,199.91L115.93,201.11L113.53,202.31L111.73,203.31L109.73,202.91L108.33,203.71L106.53,204.31L105.53,204.91L103.73,204.91L102.33,206.11L100.93,207.11L99.53,208.71L98.93,210.31L97.73,211.91L96.73,213.11L96.33,214.11L94.73,214.71L92.13,217.11L89.53,218.51L89.13,220.91ZM115.91,189.59L116.91,189.59L117.71,189.69L118.91,189.39L119.81,189.29L119.71,188.49L120.61,187.89L120.61,187.29L121.01,186.79L121.71,185.99L121.91,185.39L122.31,184.59L121.41,184.59L120.81,184.69L120.21,184.89L119.21,185.79L118.41,186.49L117.81,187.19L116.81,187.99L116.41,188.59Z" />
		<path id="L1611125431743" name="昌江黎族自治县" class="qing-map-1616146751190" d="M38.0,265.2L39.6,267.0L40.6,268.6L42.2,270.4L43.4,271.2L44.6,271.6L45.6,271.8L47.0,271.8L48.8,271.8L50.6,272.4L54.6,273.4L56.2,274.2L57.0,274.6L57.8,275.0L58.8,274.2L60.2,273.6L61.0,273.6L62.2,273.8L64.2,273.2L65.6,272.6L67.2,272.0L68.4,271.8L69.4,273.0L70.8,274.0L71.8,274.4L73.0,275.0L74.6,275.6L75.6,276.2L77.2,277.8L79.2,278.2L80.4,278.4L82.0,278.8L83.2,279.8L85.2,279.6L87.0,279.6L89.0,279.6L90.8,280.2L92.2,282.0L94.0,284.2L94.2,285.4L94.4,286.8L94.4,288.6L95.2,290.8L96.6,292.0L97.8,293.2L99.0,293.8L100.4,293.8L100.0,295.0L98.6,295.6L97.8,296.2L97.6,297.6L98.6,297.8L99.8,298.2L102.0,298.2L103.2,299.2L103.8,301.0L103.2,303.0L102.2,304.6L102.2,305.6L102.4,307.2L101.6,309.0L101.8,311.0L101.2,313.6L102.6,315.8L104.8,316.6L107.6,316.0L108.6,315.4L111.0,315.6L112.8,317.0L114.0,317.0L115.8,318.2L117.4,318.2L118.6,318.8L120.2,322.8L121.0,326.2L121.4,329.0L121.6,331.4L121.0,333.0L119.8,334.4L119.6,336.0L118.8,337.0L119.4,338.8L117.8,340.8L117.2,342.2L117.4,343.6L118.8,345.2L120.4,346.6L122.4,348.2L123.4,349.6L124.6,348.8L125.4,347.4L125.8,346.2L126.4,344.6L128.2,344.4L129.4,343.0L131.2,343.6L132.4,342.6L134.2,342.8L135.8,343.4L138.0,345.2L139.6,345.4L142.2,346.4L142.8,345.4L143.8,344.6L145.2,344.6L146.8,345.2L147.6,344.6L148.8,343.8L150.2,343.6L150.4,341.8L150.4,340.6L151.0,338.4L153.0,337.6L154.4,336.6L154.8,334.8L156.4,334.8L157.0,332.8L155.4,332.2L154.2,332.0L154.0,329.8L152.8,327.6L154.0,326.0L155.0,324.4L153.4,322.6L153.8,320.8L153.6,318.0L152.6,315.8L153.2,313.8L152.8,312.4L151.6,311.4L149.6,312.0L148.4,311.2L147.0,309.6L145.4,310.0L143.6,309.2L142.6,309.6L141.0,308.0L139.2,306.8L138.0,306.2L136.6,307.2L134.0,306.8L132.2,305.0L132.4,302.0L130.2,298.6L132.2,294.8L129.8,292.8L126.8,291.4L125.2,289.8L122.2,284.8L122.2,282.6L123.0,281.0L124.6,279.4L124.6,277.6L126.0,275.2L126.6,272.4L127.0,268.6L123.8,266.4L122.4,264.0L120.2,264.2L118.2,263.2L116.6,259.6L117.8,258.4L116.4,258.0L111.4,257.6L107.6,254.6L107.4,252.0L109.8,250.4L109.8,249.4L110.0,244.6L108.6,242.6L108.33,238.56L106.13,236.56L103.13,236.96L99.93,238.36L98.93,237.56L99.13,236.16L98.13,232.16L97.13,229.36L96.13,227.16L93.53,226.16L91.93,224.56L89.73,223.76L87.13,221.76L83.0,225.6L81.4,227.2L79.4,229.2L77.4,230.6L74.6,232.6L70.6,233.8L67.6,234.6L65.8,235.8L64.8,237.6L62.8,239.4L61.0,241.2L59.2,243.0L57.4,244.4L55.4,245.6L54.2,245.6L53.0,246.6L51.4,247.8L48.2,249.2L44.4,249.6L42.2,249.6L40.8,248.2L40.2,249.0L39.8,250.4L39.2,252.0L37.8,253.4L36.8,253.8L36.4,255.0L37.6,256.6L37.8,257.8L38.8,258.2L40.4,260.4L40.4,261.6L40.0,262.4L38.0,263.2Z" />
		<path id="L1611125840311" name="白沙黎族自治县" class="qing-map-1616146751190" d="M216.53,272.36L216.73,277.36L216.93,278.96L218.53,280.56L221.93,283.36L223.93,282.96L226.53,282.96L227.93,281.56L229.13,284.96L231.13,287.36L231.0,288.0L231.8,290.6L233.0,292.2L235.0,293.6L233.6,295.6L233.8,297.8L231.4,300.0L228.4,298.6L226.8,298.6L225.6,300.4L224.8,304.2L222.2,305.4L219.8,305.2L217.0,307.6L217.2,309.4L217.4,310.8L217.4,312.4L216.6,313.4L215.4,313.4L213.2,312.8L211.4,311.4L209.4,310.0L208.0,310.0L205.2,310.4L203.8,312.0L203.4,315.0L203.0,316.6L199.6,318.4L197.8,318.2L196.8,319.2L194.4,318.0L192.8,318.8L190.8,318.8L189.2,318.6L189.0,320.0L188.4,323.0L187.6,324.8L186.2,325.4L184.6,326.0L183.2,326.6L181.4,326.2L180.0,328.6L178.0,330.6L178.2,332.0L176.4,333.4L175.4,333.6L172.4,335.0L172.6,336.2L170.8,337.2L169.6,337.4L168.4,336.2L166.0,335.6L164.4,334.4L163.2,335.0L157.0,332.8L155.4,332.2L154.2,332.0L154.0,329.8L152.8,327.6L154.0,326.0L155.0,324.4L153.4,322.6L153.8,320.8L153.6,318.0L152.6,315.8L153.2,313.8L152.8,312.4L151.6,311.4L149.6,312.0L148.4,311.2L147.0,309.6L145.4,310.0L143.6,309.2L142.6,309.6L141.0,308.0L139.2,306.8L138.0,306.2L136.6,307.2L134.0,306.8L132.2,305.0L132.4,302.0L130.2,298.6L132.2,294.8L129.8,292.8L126.8,291.4L125.2,289.8L122.2,284.8L122.2,282.6L123.0,281.0L124.6,279.4L124.6,277.6L126.0,275.2L126.6,272.4L127.0,268.6L123.8,266.4L122.4,264.0L120.2,264.2L118.2,263.2L116.6,259.6L117.8,258.4L116.4,258.0L111.4,257.6L107.6,254.6L107.4,252.0L109.8,250.4L109.8,249.4L110.0,244.6L108.6,242.6L108.33,238.56L110.13,236.16L110.73,233.16L108.33,230.96L109.73,228.16L109.93,226.16L113.13,225.56L116.73,226.96L118.13,228.56L121.13,228.76L123.13,229.16L124.13,227.16L125.93,227.16L125.93,228.56L126.93,230.96L129.53,231.76L130.13,234.36L131.73,237.36L137.73,236.76L135.73,241.36L133.93,242.56L135.73,244.76L138.53,243.36L141.13,245.76L143.93,245.16L145.93,244.76L148.13,245.56L150.53,247.76L152.33,246.36L155.53,245.56L156.13,242.96L157.73,245.16L160.13,243.36L160.93,244.56L162.93,244.76L164.93,247.56L166.93,248.96L169.73,247.76L172.33,248.96L173.93,252.36L178.53,252.16L180.13,251.56L181.73,252.56L184.73,248.76L187.8,247.2L186.13,244.16L187.53,242.96L189.53,243.56L190.53,242.76L192.33,242.76L193.13,244.56L194.33,248.36L194.93,249.56L196.73,250.36L195.53,252.56L194.93,256.36L193.13,257.56L192.53,259.56L191.13,260.36L190.53,262.76L191.73,264.16L192.93,264.16L194.33,262.96L196.13,262.76L198.13,263.76L200.53,262.36L202.73,262.16L203.73,261.16L206.53,265.76L208.13,268.16L209.93,270.56L211.93,272.16L212.33,274.76L214.33,274.16L214.33,272.96Z" />
		<path id="L1611126525653" name="乐东黎族自治县" class="qing-map-1616146751190" d="M156.4,334.8L157.0,332.8L163.2,335.0L164.4,334.4L166.0,335.6L165.0,336.6L164.0,338.0L162.6,339.0L162.2,341.0L163.4,342.2L165.0,344.4L166.2,347.0L165.8,349.0L168.4,350.6L171.6,354.0L169.2,357.0L169.2,360.6L167.4,362.8L168.2,366.6L168.0,369.4L167.6,370.6L166.8,371.6L167.8,373.6L167.4,375.0L168.8,378.2L168.0,379.4L168.2,383.2L168.8,384.8L173.0,388.0L173.6,389.8L175.2,390.4L176.2,393.0L175.6,396.8L178.2,400.2L176.0,401.4L174.4,403.0L171.6,406.0L168.8,408.0L167.2,408.8L163.4,411.0L161.6,413.8L160.0,416.8L161.0,420.4L159.2,422.6L157.6,422.2L156.4,423.0L155.6,421.8L155.2,419.4L153.4,419.4L151.2,416.0L147.4,414.0L144.4,415.4L140.6,414.6L138.4,415.4L138.0,418.0L136.4,419.0L136.4,421.4L135.2,423.0L135.2,424.8L135.8,427.0L137.2,428.6L137.0,431.0L137.2,432.4L135.0,434.0L135.4,435.6L132.8,436.0L131.0,434.4L128.8,433.2L126.6,434.0L124.4,433.4L122.4,433.6L120.8,433.6L119.8,434.8L116.6,437.2L114.2,435.8L111.4,438.8L109.2,438.8L107.6,440.0L105.8,440.0L104.8,441.4L103.0,441.2L100.8,444.6L101.2,446.2L98.8,446.6L96.8,448.4L96.2,450.2L94.8,449.6L93.2,446.4L90.4,445.2L88.4,444.2L85.0,443.2L83.0,442.6L78.4,442.2L74.4,440.4L74.6,439.0L73.2,439.2L70.0,435.4L65.6,432.4L58.8,429.4L54.2,428.6L48.2,427.6L45.4,427.6L41.6,425.8L40.0,422.6L39.8,420.4L38.6,416.4L39.2,412.6L40.4,410.0L41.8,407.2L43.4,402.4L43.4,398.6L43.6,395.6L43.6,391.0L42.2,388.4L43.0,385.8L42.6,383.2L43.0,380.6L45.2,379.0L48.0,379.0L49.6,379.6L51.2,379.0L52.6,378.0L53.6,378.6L55.8,380.4L57.2,382.0L59.4,381.0L60.6,381.2L62.4,381.4L64.2,381.6L64.4,379.8L64.6,377.8L65.8,377.2L68.0,376.4L70.0,374.8L71.2,373.8L72.8,374.0L75.4,372.2L76.2,370.6L78.2,369.8L79.2,368.0L80.8,367.8L81.8,367.6L83.6,367.2L84.4,366.4L86.2,366.8L88.6,366.6L89.8,367.2L91.0,366.8L91.8,367.4L93.6,367.8L94.4,367.0L95.4,367.4L96.4,367.8L97.2,367.0L97.8,366.0L98.8,365.0L99.8,364.0L101.0,363.8L102.4,363.6L103.4,363.4L104.8,364.0L106.2,364.6L108.0,365.0L109.0,363.8L110.4,363.8L113.0,363.8L114.2,362.6L114.2,360.4L114.8,358.8L115.0,358.0L115.0,356.8L115.8,356.2L116.8,355.2L118.2,353.4L119.4,353.0L121.8,353.0L123.4,352.6L123.6,351.4L123.4,349.6L124.6,348.8L125.4,347.4L125.8,346.2L126.4,344.6L128.2,344.4L129.4,343.0L131.2,343.6L132.4,342.6L134.2,342.8L135.8,343.4L138.0,345.2L139.6,345.4L142.2,346.4L142.8,345.4L143.8,344.6L145.2,344.6L146.8,345.2L147.6,344.6L148.8,343.8L150.2,343.6L150.4,341.8L150.4,340.6L151.0,338.4L153.0,337.6L154.4,336.6L154.8,334.8Z" />
		<path id="L1611127043031" name="三亚市" class="qing-map-1616146751190" d="M96.2,450.2L96.8,448.4L98.8,446.6L101.2,446.2L100.8,444.6L103.0,441.2L104.8,441.4L105.8,440.0L107.6,440.0L109.2,438.8L111.4,438.8L114.2,435.8L116.6,437.2L119.8,434.8L120.8,433.6L122.4,433.6L124.4,433.4L126.6,434.0L128.8,433.2L131.0,434.4L132.8,436.0L135.4,435.6L135.0,434.0L137.2,432.4L137.0,431.0L137.2,428.6L135.2,427.0L135.2,424.8L135.2,423.0L136.4,421.4L136.4,419.0L138.0,418.0L138.4,415.4L140.6,414.6L144.4,415.4L147.4,414.0L151.2,416.0L153.4,419.4L155.2,419.4L155.6,421.8L156.4,423.0L157.6,422.2L159.2,422.6L161.0,420.4L160.0,416.8L161.6,413.8L163.4,411.0L167.2,408.8L168.8,408.0L171.6,406.0L174.4,403.0L176.0,401.4L177.6,401.8L178.4,404.4L178.8,406.2L180.2,409.0L181.0,410.8L181.2,413.2L183.0,412.0L185.0,412.8L186.4,414.0L189.0,414.0L191.0,414.0L193.8,415.2L196.4,415.2L197.4,417.0L199.4,419.0L201.8,418.6L202.8,421.0L202.8,425.0L203.0,428.0L201.6,429.6L201.2,432.0L199.6,434.6L201.2,437.0L199.8,438.8L198.8,438.8L199.0,440.2L200.8,441.8L202.8,444.6L204.0,446.6L207.2,447.0L210.4,448.4L212.6,447.0L215.6,448.8L221.8,446.2L225.0,447.8L226.4,448.0L228.2,447.0L230.0,447.0L230.2,444.4L232.0,442.8L231.4,441.0L233.0,438.8L235.8,440.2L235.4,437.8L235.4,435.0L236.6,433.2L238.0,431.8L239.0,431.4L239.0,427.8L240.4,427.2L242.4,425.8L245.2,424.8L245.8,421.4L247.4,420.0L249.0,422.2L249.0,425.0L248.2,426.0L250.0,428.6L252.4,428.4L253.6,429.8L254.6,431.6L255.4,433.6L254.2,437.8L249.6,439.4L250.8,441.8L251.2,444.0L251.0,446.0L249.4,447.2L247.8,449.0L246.2,450.2L245.2,452.0L243.8,454.2L241.8,459.6L241.4,461.8L240.6,463.4L239.4,465.6L238.8,468.0L238.8,470.2L239.4,471.6L240.8,471.6L242.0,472.4L241.2,473.0L240.0,472.6L238.6,473.2L238.1,473.9L236.9,473.8L236.6,472.8L237.1,472.7L237.6,472.7L238.0,471.8L238.0,471.3L237.1,471.0L236.5,470.9L236.2,470.5L235.6,469.9L234.7,469.5L233.2,470.2L232.9,470.9L232.6,471.5L231.5,471.2L230.2,471.6L230.0,473.1L230.9,474.2L231.6,474.9L232.7,475.1L233.5,474.0L234.3,472.5L234.9,471.8L235.4,471.3L235.4,472.8L235.7,475.1L238.6,474.6L239.6,474.8L240.8,474.8L241.5,474.8L242.1,475.7L243.0,475.9L243.5,476.9L243.3,478.2L242.9,479.6L242.3,480.1L241.0,480.8L240.4,481.0L240.7,482.0L240.7,483.0L240.4,484.0L240.1,484.5L239.1,484.4L238.0,483.5L237.2,483.2L236.6,483.2L235.6,483.9L235.5,484.8L235.5,485.5L236.5,485.6L237.0,486.8L237.3,487.5L236.3,487.7L235.4,487.8L234.9,487.5L234.0,486.4L233.1,485.2L232.7,484.3L233.0,483.4L234.0,482.8L233.6,481.8L231.2,479.8L227.7,480.4L225.1,480.4L223.3,481.0L221.0,481.7L218.1,483.9L218.3,486.1L217.1,487.6L217.6,488.7L218.1,489.0L219.7,491.1L220.1,492.0L219.1,492.8L217.0,490.8L215.8,492.0L212.4,491.0L212.0,491.8L212.0,492.7L210.2,494.5L208.3,492.7L209.5,491.2L209.0,489.4L210.7,486.8L210.4,485.8L208.9,485.6L207.3,484.7L207.0,483.6L205.4,483.1L205.6,481.9L206.5,481.3L207.3,481.3L208.7,480.0L210.3,479.8L210.7,479.0L210.6,477.8L210.0,476.2L208.9,476.6L208.6,478.8L207.4,479.5L206.4,480.4L204.4,480.6L203.0,481.5L202.7,482.4L203.9,483.2L203.9,485.5L200.2,482.6L198.6,483.2L198.5,484.7L197.1,485.3L196.0,484.5L195.5,485.7L194.2,488.7L192.6,489.0L191.2,486.9L191.1,485.5L191.8,484.7L193.2,484.2L194.0,483.9L194.7,482.6L194.8,481.8L195.0,481.0L195.7,480.1L196.2,478.8L195.5,476.9L193.8,474.0L189.8,471.0L184.8,469.2L178.8,469.2L172.0,469.0L169.8,468.6L168.0,468.6L164.6,466.4L161.8,465.6L157.8,465.6L154.2,466.0L148.0,467.4L146.0,466.4L144.8,466.4L142.2,467.0L139.6,468.0L138.6,468.6L137.2,469.6L135.8,469.6L133.6,469.2L131.6,467.8L130.8,467.8L129.4,466.2L128.0,464.6L129.4,462.6L128.6,460.2L127.4,458.8L127.0,457.6L125.6,456.8L123.8,457.6L121.2,454.8L116.8,453.0L114.0,453.0L111.2,453.0L107.2,453.8L104.2,454.4L101.8,454.8L98.6,455.4L98.0,453.0ZM172.1,478.7L172.5,479.8L172.8,480.7L172.7,481.4L172.0,481.9L171.1,481.7L170.6,481.0L170.5,479.8L170.7,478.6L171.0,478.0ZM245.4,464.1L246.5,465.5L247.6,465.0L248.0,464.2L248.0,463.6L245.9,463.6Z" />
		<path id="L1611140538236" name="五指山市" class="qing-map-1616146751190" d="M178.2,400.2L175.6,396.8L176.2,393.0L175.2,390.4L173.6,389.8L173.0,388.0L168.8,384.8L168.2,383.2L168.0,379.4L168.8,378.2L167.4,375.0L167.8,373.6L166.8,371.6L167.6,370.6L168.0,369.4L168.2,366.6L167.4,362.8L169.2,360.6L169.2,357.0L171.6,354.0L168.4,350.6L165.8,349.0L166.2,347.0L165.0,344.4L163.4,342.2L162.2,341.0L162.6,339.0L164.0,338.0L165.0,336.6L166.0,335.6L168.4,336.2L169.6,337.4L170.8,337.2L172.6,336.2L172.4,335.0L175.4,333.6L176.4,333.4L178.2,332.0L178.0,330.6L180.0,328.6L181.4,326.2L183.2,326.6L184.6,326.0L186.2,325.4L187.6,324.8L188.4,323.0L189.0,320.0L189.2,318.6L190.8,318.8L192.8,318.8L194.4,318.0L196.8,319.2L197.8,318.2L199.6,318.4L201.4,321.4L201.2,322.6L201.4,325.2L202.6,326.6L203.6,328.6L205.0,331.2L205.2,333.2L205.0,334.0L205.6,335.0L206.6,336.4L209.6,337.0L209.6,338.6L210.6,340.4L213.2,340.2L215.2,342.8L217.0,342.4L218.0,342.4L219.6,341.0L222.0,341.6L224.6,341.0L226.2,342.2L228.0,340.6L229.4,340.0L230.6,339.6L231.8,339.8L233.2,340.8L234.0,340.0L235.6,340.6L237.0,341.6L239.0,342.2L239.6,343.2L237.8,345.2L235.6,345.4L234.2,346.8L233.8,348.2L234.4,349.8L236.0,351.4L237.2,353.0L237.0,354.6L236.6,358.6L234.2,359.6L232.4,358.6L231.4,360.4L232.8,363.0L231.6,364.4L231.0,366.0L231.6,366.8L231.0,367.8L231.0,369.8L232.2,371.8L233.6,373.8L234.8,375.2L234.0,376.6L235.0,378.4L234.6,380.8L231.8,381.4L229.0,380.2L227.2,380.8L224.8,380.8L221.8,383.8L221.4,385.4L220.0,385.8L219.8,387.2L218.4,389.6L217.2,388.6L215.4,386.6L214.6,386.8L212.8,385.4L212.2,384.4L210.6,382.8L209.0,382.8L208.4,381.0L205.8,383.4L204.8,384.8L203.6,384.4L201.2,384.6L201.0,386.0L201.6,387.6L201.2,391.0L202.2,392.0L202.6,393.8L201.6,393.6L200.4,394.8L198.8,395.8L196.4,394.8L193.4,396.0L192.0,395.8L190.2,396.6L188.0,395.0L185.8,395.0L184.4,396.2L183.8,397.6L182.2,399.8L180.4,400.2Z" />
		<path id="L1611140786195" name="琼中黎族苗族自治县" class="qing-map-1616146751190" d="M236.6,358.6L237.0,354.6L237.2,353.0L236.0,351.4L234.4,349.8L233.8,348.2L234.2,346.8L235.6,345.4L237.8,345.2L239.6,343.2L239.0,342.2L237.0,341.6L235.6,340.6L234.0,340.0L233.2,340.8L231.8,339.8L230.6,339.6L229.4,340.0L228.0,340.6L226.2,342.2L224.6,341.0L222.0,341.6L219.6,341.0L218.0,342.4L217.0,342.4L215.2,342.8L213.2,340.2L210.6,340.4L209.6,338.6L209.6,337.0L206.6,336.4L205.6,335.0L205.0,334.0L205.2,333.2L205.0,331.2L203.6,328.6L202.6,326.6L201.4,325.2L201.2,322.6L201.4,321.4L199.6,318.4L203.0,316.6L203.4,315.0L203.8,312.0L205.2,310.4L208.0,310.0L209.4,310.0L211.4,311.4L213.2,312.8L215.4,313.4L216.6,313.4L217.4,312.4L217.4,310.8L217.2,309.4L217.0,307.6L219.8,305.2L222.2,305.4L224.8,304.2L225.6,300.4L226.8,298.6L228.4,298.6L231.4,300.0L233.8,297.8L233.6,295.6L235.0,293.6L233.0,292.2L231.8,290.6L231.0,288.0L231.13,287.36L232.73,285.36L233.93,282.76L235.13,279.56L234.73,275.36L235.13,272.56L233.93,269.16L233.8,266.0L234.53,264.76L235.93,263.76L236.13,261.36L236.13,259.16L235.93,255.36L234.33,255.16L233.73,253.36L229.93,253.36L227.13,252.96L224.93,252.76L223.73,251.36L224.13,249.56L223.73,247.36L224.13,245.56L222.73,243.36L224.73,241.76L227.13,241.76L228.73,241.76L231.93,240.76L233.53,239.76L236.73,242.56L240.93,240.96L243.6,242.8L246.0,243.2L247.8,243.6L248.4,246.4L251.2,248.6L252.4,247.4L253.4,246.4L255.8,245.2L257.6,244.4L258.8,244.2L260.0,245.0L261.0,246.0L262.4,245.4L262.8,244.4L260.6,242.8L264.6,240.6L265.4,242.0L266.2,244.2L267.6,246.0L266.0,246.0L264.6,246.6L263.0,248.6L262.6,250.0L261.0,251.4L260.6,253.0L259.8,254.2L258.2,254.6L257.8,255.8L258.4,258.6L257.8,259.8L258.0,262.0L257.4,266.0L259.8,267.4L261.2,268.4L262.6,269.2L265.0,268.8L267.0,270.6L268.8,272.0L270.8,274.0L271.4,276.0L273.4,276.2L276.4,275.6L278.0,277.2L279.6,278.4L281.8,281.4L281.0,283.6L280.8,284.8L282.2,285.8L284.0,285.6L286.2,286.0L287.6,286.0L290.0,285.8L291.8,288.0L295.8,289.0L298.0,291.8L300.2,292.6L300.6,294.6L302.2,294.6L302.4,298.0L305.8,297.4L310.8,296.8L313.0,297.6L314.6,298.2L314.6,301.0L315.8,303.6L315.8,308.2L316.4,309.2L315.4,310.4L315.2,312.0L315.0,314.0L316.2,315.8L319.2,319.0L321.4,320.4L321.0,323.0L321.8,324.4L320.4,327.0L320.2,328.4L321.4,329.6L316.2,333.2L314.2,334.8L311.8,335.4L312.8,339.8L312.4,340.6L312.4,342.0L308.8,342.8L306.8,345.2L303.6,346.6L302.2,347.4L301.2,348.8L303.4,351.6L304.0,353.0L306.6,355.2L307.8,357.6L308.6,358.8L308.6,360.2L309.8,362.8L309.0,365.2L306.6,364.8L306.6,366.8L305.0,367.6L304.4,369.0L304.8,370.4L302.8,372.4L302.8,373.2L300.4,372.6L297.6,375.0L297.4,377.4L296.0,378.6L293.8,379.0L290.2,376.4L290.0,374.6L288.8,374.0L288.0,372.2L287.0,372.0L284.2,370.6L280.2,371.8L276.6,373.8L272.6,377.6L269.8,374.4L267.4,375.8L264.4,379.8L261.4,379.2L260.2,380.0L257.8,378.0L256.0,376.6L255.4,375.2L255.4,372.4L255.0,370.8L251.4,366.8L250.4,366.6L248.0,363.6L247.2,361.6L245.6,361.2L242.4,361.6L240.4,360.8L239.0,359.0Z" />
		<path id="L1611141236780" name="保亭黎族苗族自治县" class="qing-map-1616146751190" d="M178.2,400.2L177.6,401.8L178.4,404.4L178.8,406.2L180.2,409.0L181.0,410.8L181.2,413.2L183.0,412.0L185.0,412.8L186.4,414.0L189.0,414.0L191.0,414.0L193.8,415.2L196.4,415.2L197.4,417.0L199.4,419.0L201.8,418.6L202.8,421.0L202.8,425.0L203.0,428.0L201.6,429.6L201.2,432.0L199.6,434.6L201.2,437.0L199.8,438.8L198.8,438.8L199.0,440.2L200.8,441.8L202.8,444.6L204.0,446.6L207.2,447.0L210.4,448.4L212.6,447.0L215.6,448.8L221.8,446.2L225.0,447.8L226.4,448.0L228.2,447.0L230.0,447.0L230.2,444.4L232.0,442.8L231.4,441.0L233.0,438.8L235.8,440.2L235.4,437.8L235.4,435.0L236.6,433.2L238.0,431.8L239.0,431.4L239.0,427.8L240.4,427.2L242.4,425.8L245.2,424.8L245.8,421.4L247.4,420.0L249.0,422.2L249.0,425.0L250.4,424.0L252.4,422.8L254.2,422.0L255.0,424.2L256.6,424.0L257.6,424.2L258.8,423.4L259.6,422.0L260.0,419.6L259.6,418.2L262.6,416.0L262.8,414.2L261.8,412.2L258.8,412.0L256.6,409.2L255.0,408.6L254.2,407.4L254.4,400.8L256.4,398.6L258.0,399.2L259.4,399.0L259.4,397.8L257.6,393.4L259.2,392.2L259.0,391.2L260.8,390.0L257.6,386.6L257.4,384.8L255.2,384.4L254.4,384.4L253.6,381.0L250.0,382.0L248.0,381.4L248.0,379.8L248.8,378.2L247.2,377.0L247.8,373.8L245.2,372.8L244.8,368.0L248.0,363.6L247.2,361.6L245.6,361.2L242.4,361.6L240.4,360.8L239.0,359.0L236.6,358.6L234.2,359.6L232.4,358.6L231.4,360.4L232.8,363.0L231.6,364.4L231.0,366.0L231.6,366.8L231.0,367.8L231.0,369.8L232.2,371.8L233.6,373.8L234.8,375.2L234.0,376.6L235.0,378.4L234.6,380.8L231.8,381.4L229.0,380.2L227.2,380.8L224.8,380.8L221.8,383.8L221.4,385.4L220.0,385.8L219.8,387.2L218.4,389.6L217.2,388.6L215.4,386.6L214.6,386.8L212.8,385.4L212.2,384.4L210.6,382.8L209.0,382.8L208.4,381.0L205.8,383.4L204.8,384.8L203.6,384.4L201.2,384.6L201.0,386.0L201.6,387.6L201.2,391.0L202.2,392.0L202.6,393.8L201.6,393.6L200.4,394.8L198.8,395.8L196.4,394.8L193.4,396.0L192.0,395.8L190.2,396.6L188.0,395.0L185.8,395.0L184.4,396.2L183.8,397.6L182.2,399.8L180.4,400.2Z" />
		<path id="L1611141515274" name="陵水黎族自治县" class="qing-map-1616146751190" d="M251.0,446.0L251.2,444.0L250.8,441.8L249.6,439.4L254.2,437.8L255.4,433.6L254.6,431.6L253.6,429.8L252.4,428.4L250.0,428.6L248.2,426.0L249.0,425.0L250.4,424.0L252.4,422.8L254.2,422.0L255.0,424.2L256.6,424.0L257.6,424.2L258.8,423.4L259.6,422.0L260.0,419.6L259.6,418.2L262.6,416.0L262.8,414.2L261.8,412.2L258.8,412.0L256.6,409.2L255.0,408.6L254.2,407.4L254.4,400.8L256.4,398.6L258.0,399.2L259.4,399.0L259.4,397.8L257.6,393.4L259.2,392.2L259.0,391.2L260.8,390.0L257.6,386.6L257.4,384.8L255.2,384.4L254.4,384.4L253.6,381.0L250.0,382.0L248.0,381.4L248.0,379.8L248.8,378.2L247.2,377.0L247.8,373.8L245.2,372.8L244.8,368.0L248.0,363.6L250.4,366.6L251.4,366.8L255.0,370.8L255.4,372.4L255.4,375.2L256.0,376.6L257.8,378.0L260.2,380.0L261.4,379.2L264.4,379.8L267.4,375.8L269.8,374.4L272.6,377.6L276.6,373.8L280.2,371.8L284.2,370.6L287.0,372.0L288.0,372.2L288.8,374.0L290.0,374.6L290.2,376.4L293.8,379.0L294.4,384.0L294.4,385.4L293.8,386.4L294.2,388.2L294.4,391.6L295.6,395.0L296.0,396.0L298.2,398.6L299.8,399.6L301.0,398.8L302.8,398.8L304.4,399.8L305.8,401.4L306.6,402.6L309.8,403.0L311.8,405.6L313.8,407.2L316.6,405.6L317.4,405.0L318.6,404.2L319.4,404.8L320.8,406.2L322.2,406.6L323.0,406.4L325.0,406.4L326.2,407.6L326.4,408.4L325.6,409.4L324.0,409.4L322.6,410.0L321.4,411.2L319.0,415.4L318.8,416.2L317.6,416.0L316.4,415.8L314.6,416.8L313.4,418.4L312.4,420.0L311.6,422.0L310.2,426.2L308.0,427.2L307.6,428.2L308.4,429.2L307.0,436.2L305.2,444.8L303.8,443.6L304.6,441.6L304.6,439.4L303.6,437.8L302.4,437.4L299.8,440.2L299.6,441.4L300.8,442.8L299.4,443.0L300.4,444.8L302.0,445.6L303.2,445.4L303.4,446.4L303.0,447.8L302.2,449.0L301.0,449.6L298.6,449.6L297.0,449.4L295.2,451.0L292.2,451.2L291.6,450.2L290.6,449.2L288.8,449.8L286.2,448.6L286.2,446.8L286.0,445.0L287.2,444.8L290.4,447.0L292.4,447.0L293.6,447.0L295.4,445.4L296.2,443.4L296.6,441.6L297.8,441.0L298.0,439.2L297.0,437.2L295.6,436.2L295.6,438.6L294.4,439.8L292.8,439.6L291.8,439.6L290.0,439.4L286.4,443.6L285.2,444.0L282.8,443.8L279.0,443.2L277.4,443.2L275.4,443.6L271.6,444.8L265.8,447.8L264.4,448.6L263.0,449.2L262.6,450.0L261.2,450.0L260.4,450.2L259.2,451.0L258.0,451.2L257.0,450.2L256.6,448.0L255.2,446.8L252.8,446.4Z" />
		<path id="L1611141827497" name="万宁市" class="qing-map-1616146751190" d="M326.4,408.4L326.2,407.6L325.0,406.4L323.0,406.4L322.2,406.6L320.8,406.2L319.4,404.8L318.6,404.2L317.4,405.0L316.6,405.6L313.8,407.2L311.8,405.6L309.8,403.0L306.6,402.6L305.8,401.4L304.4,399.8L302.8,398.8L301.0,398.8L299.8,399.6L298.2,398.6L296.0,396.0L295.6,395.0L294.4,391.6L294.2,388.2L293.8,386.4L294.4,385.4L294.4,384.0L293.8,379.0L296.0,378.6L297.4,377.4L297.6,375.0L300.4,372.6L302.8,373.2L302.8,372.4L304.8,370.4L304.4,369.0L305.0,367.6L306.6,366.8L306.6,364.8L309.0,365.2L309.8,362.8L308.6,360.2L308.6,358.8L307.8,357.6L306.6,355.2L304.0,353.0L303.4,351.6L301.2,348.8L302.2,347.4L303.6,346.6L306.8,345.2L308.8,342.8L312.4,342.0L312.4,340.6L312.8,339.8L311.8,335.4L314.2,334.8L316.2,333.2L321.4,329.6L320.2,328.4L320.4,327.0L321.8,324.4L323.4,323.0L325.4,324.8L326.6,326.4L328.0,326.0L328.0,323.4L328.2,322.0L330.0,322.2L329.6,325.0L331.8,325.4L334.0,324.8L335.4,324.2L337.0,326.0L338.0,328.6L338.8,329.6L341.0,329.0L342.2,328.8L344.6,327.2L346.8,327.8L349.4,326.6L350.4,324.8L351.2,324.2L352.6,324.2L353.4,324.6L354.6,324.2L356.4,324.2L357.8,323.0L358.0,320.4L360.0,319.6L361.6,318.8L362.8,317.4L363.6,317.4L365.0,317.0L366.8,317.2L367.8,316.6L368.8,315.8L371.2,316.2L372.6,313.8L373.0,312.6L374.4,313.6L376.2,312.6L377.6,312.6L379.2,312.2L380.2,310.8L381.2,310.0L381.2,308.4L380.4,306.6L380.4,305.4L383.8,303.8L384.4,305.2L386.4,306.6L388.0,307.8L389.4,308.8L390.2,308.8L390.0,305.6L391.4,303.8L392.8,304.6L394.2,303.8L395.0,305.6L395.8,306.2L397.0,305.6L398.4,305.6L400.0,306.6L401.8,306.4L402.2,308.2L402.0,311.2L401.4,315.6L397.8,315.8L396.6,316.2L395.4,317.6L395.0,318.6L394.4,321.8L392.2,324.6L391.4,328.0L390.8,331.8L390.6,334.4L390.6,338.0L390.6,342.8L391.6,347.4L389.0,346.4L387.4,347.4L385.8,348.2L383.6,349.4L382.4,350.8L381.2,352.2L381.6,353.8L382.0,354.8L381.4,356.2L380.6,357.8L376.6,357.8L375.6,360.4L376.0,362.0L378.8,364.0L380.0,363.6L383.2,365.0L385.0,365.4L386.6,367.4L387.6,367.4L388.0,366.0L388.8,365.6L390.2,365.8L390.6,363.8L388.2,361.2L388.6,360.4L389.0,357.8L387.8,355.4L386.6,352.6L386.6,350.4L387.4,349.0L388.76,347.48L389.26,347.08L390.16,347.38L390.46,347.78L390.46,348.78L390.66,350.38L390.86,352.58L391.06,353.38L391.16,354.78L391.36,356.48L391.46,357.88L392.26,359.98L393.16,362.78L393.66,364.18L394.06,365.28L394.26,366.78L395.66,367.08L396.26,367.98L395.26,369.18L394.26,367.58L393.06,367.68L390.66,369.98L389.56,369.38L388.56,369.58L386.66,371.28L385.86,371.28L385.16,370.58L382.66,370.88L380.0,374.2L378.6,378.2L378.4,379.8L376.8,379.2L375.2,381.8L374.4,386.0L374.6,389.4L372.0,392.6L371.4,394.2L369.6,392.0L368.6,391.8L367.8,390.8L365.4,392.0L364.2,391.6L360.8,393.4L360.2,392.4L359.0,391.4L357.5,391.8L355.7,391.8L356.5,391.1L357.3,390.5L357.5,390.0L358.4,389.5L359.3,389.2L360.5,388.5L361.6,388.4L363.3,388.9L364.6,388.9L365.1,388.4L366.0,388.3L366.8,388.5L367.2,388.9L368.2,389.0L369.2,388.9L369.7,388.5L370.3,387.1L370.7,386.8L372.2,387.0L372.3,386.4L371.2,385.7L369.8,385.2L368.3,385.1L367.7,385.9L368.1,386.9L368.8,388.0L368.4,388.3L367.4,388.0L366.2,387.3L365.2,387.6L364.1,388.0L362.6,387.9L361.1,387.8L359.9,387.8L358.5,388.4L356.8,389.7L355.2,391.4L354.7,391.9L354.9,392.7L353.7,393.5L352.4,393.9L351.4,393.9L349.9,392.9L348.9,392.5L346.6,392.0L344.8,393.0L341.4,394.2L336.0,399.8L333.6,399.6L330.8,402.0L328.0,405.2ZM384.4,391.5L383.8,393.0L384.1,394.1L384.6,394.9L386.5,393.8L386.9,393.0L386.9,392.5L386.1,392.0L386.0,391.3L385.0,390.3L384.6,389.2L383.9,388.1L383.2,387.8L382.9,389.2L383.1,390.2Z" />
		<path id="L1611194391429" name="琼海市" class="qing-map-1616146751190" d="M400.3,297.1L400.9,297.1L401.9,296.7L402.6,296.2L402.6,295.2L402.2,294.4L401.0,295.0L400.2,295.8L400.2,296.3ZM314.6,298.2L314.6,301.0L315.8,303.6L315.8,308.2L316.4,309.2L315.4,310.4L315.2,312.0L315.0,314.0L316.2,315.8L319.2,319.0L321.4,320.4L321.0,323.0L321.8,324.4L323.4,323.0L325.4,324.8L326.6,326.4L328.0,326.0L328.0,323.4L328.2,322.0L330.0,322.2L329.6,325.0L331.8,325.4L334.0,324.8L335.4,324.2L337.0,326.0L338.0,328.6L338.8,329.6L341.0,329.0L342.2,328.8L344.6,327.2L346.8,327.8L349.4,326.6L350.4,324.8L351.2,324.2L352.6,324.2L353.4,324.6L354.6,324.2L356.4,324.2L357.8,323.0L358.0,320.4L360.0,319.6L361.6,318.8L362.8,317.4L363.6,317.4L365.0,317.0L366.8,317.2L367.8,316.6L368.8,315.8L371.2,316.2L372.6,313.8L373.0,312.6L374.4,313.6L376.2,312.6L377.6,312.6L379.2,312.2L380.2,310.8L381.2,310.0L381.2,308.4L380.4,306.6L380.4,305.4L383.8,303.8L384.4,305.2L386.4,306.6L388.0,307.8L389.4,308.8L390.2,308.8L390.0,305.6L391.4,303.8L392.8,304.6L394.2,303.8L395.0,305.6L395.8,306.2L397.0,305.6L398.4,305.6L400.0,306.6L401.8,306.4L402.6,303.8L403.0,299.4L403.0,297.4L402.0,297.8L401.2,298.0L401.4,300.4L401.4,302.4L400.4,305.0L399.0,304.4L398.8,302.6L399.6,301.0L399.8,300.3L400.0,299.1L399.8,297.8L399.2,296.6L399.6,295.8L400.3,295.1L401.1,294.3L401.9,293.4L403.0,292.9L404.0,292.7L405.2,293.0L405.1,291.1L406.7,286.1L407.8,284.6L410.2,283.2L410.2,280.0L411.8,277.8L411.6,276.4L414.4,272.8L415.0,268.4L413.87,265.33L414.4,262.8L415.8,261.4L417.2,261.4L418.8,262.0L421.8,260.2L423.0,258.6L423.0,255.4L421.0,251.6L421.0,248.6L421.2,247.4L422.2,245.4L420.8,244.4L419.0,244.2L417.6,243.0L416.8,244.6L415.2,245.6L413.6,244.4L412.4,246.6L412.0,249.8L410.8,252.0L408.2,252.6L404.2,251.6L404.0,249.4L404.4,245.2L402.6,243.2L403.2,242.0L403.0,237.0L402.0,235.8L400.6,236.0L398.2,232.4L398.0,228.6L395.8,228.2L395.4,229.6L392.8,229.6L392.0,230.0L391.2,229.6L389.6,229.6L388.4,228.8L386.8,231.0L386.0,233.6L382.8,233.8L381.8,233.0L376.8,233.6L376.0,236.0L374.8,236.4L374.4,237.6L375.4,238.6L374.8,239.6L372.8,240.2L370.2,239.0L369.0,239.8L368.8,241.2L367.2,242.6L366.8,244.2L364.8,244.2L362.0,246.4L361.6,249.2L361.2,250.6L360.0,252.2L357.6,252.4L356.4,255.4L355.4,256.8L355.6,258.4L353.8,259.2L355.2,260.2L358.2,262.4L361.2,263.8L361.6,264.8L361.0,266.0L360.4,267.8L359.0,268.2L357.8,268.8L357.2,271.2L356.4,273.0L356.2,273.8L358.0,275.4L357.0,278.2L355.4,277.6L353.4,277.6L351.6,279.0L349.4,279.0L347.6,280.8L344.8,278.8L342.4,281.8L341.2,281.6L338.8,278.8L338.0,278.0L335.8,279.2L336.4,281.0L335.0,281.4L333.8,281.8L332.4,283.4L328.8,283.6L326.6,285.2L324.8,284.8L322.6,285.2L322.2,283.2L319.6,283.0L319.0,284.0L319.2,287.2L317.8,288.2L318.8,290.2L318.0,292.6L316.4,295.4Z" />
		<path id="L1611195118770" name="文昌市" class="qing-map-1616146751190" d="M398.0,228.6L398.2,232.4L400.6,236.0L402.0,235.8L403.0,237.0L403.2,242.0L402.6,243.2L404.4,245.2L404.0,249.4L404.2,251.6L408.2,252.6L410.8,252.0L412.0,249.8L412.4,246.6L413.6,244.4L415.2,245.6L416.8,244.6L417.6,243.0L419.0,244.2L420.8,244.4L422.2,245.4L423.8,244.0L426.4,241.2L428.2,240.8L430.6,240.8L432.4,241.4L435.0,240.2L437.6,238.2L438.8,237.8L439.0,236.2L440.2,234.2L439.0,233.0L439.8,231.8L443.0,229.8L446.4,226.0L447.4,224.0L446.8,218.2L447.8,216.6L449.6,214.8L452.2,214.2L449.6,209.8L448.6,207.2L445.2,203.4L444.8,201.8L443.8,201.2L442.2,198.2L443.8,197.2L445.0,198.4L446.6,198.2L450.0,197.6L458.84,197.2L460.04,197.8L460.64,196.0L460.64,195.0L460.44,194.0L462.04,192.8L464.04,192.4L463.24,193.6L462.64,195.4L461.64,196.0L461.04,198.4L460.64,199.4L461.24,200.6L459.64,201.6L455.84,201.6L454.04,200.0L450.64,203.0L452.24,205.4L451.64,207.4L450.84,208.6L451.44,210.2L452.84,210.2L453.64,211.4L452.04,211.6L453.24,212.8L454.24,214.2L454.44,216.8L457.44,218.2L459.24,217.4L460.24,215.0L461.64,213.8L462.84,212.2L464.24,210.4L465.44,209.2L466.84,208.2L467.44,206.8L468.64,205.8L470.04,204.6L472.04,204.0L473.44,203.0L475.64,201.0L476.84,199.8L478.04,197.6L479.44,196.4L479.84,195.0L480.84,194.2L482.04,193.8L483.64,193.8L484.84,194.2L487.24,194.2L489.44,195.4L491.24,195.4L490.44,194.2L490.64,192.6L489.24,191.6L490.24,189.2L488.64,186.8L488.04,186.0L485.64,184.8L484.64,180.6L484.0,175.4L483.6,171.2L483.6,165.0L483.4,162.4L483.2,158.0L482.2,154.0L480.2,147.2L478.6,141.0L477.0,135.4L475.4,131.8L475.0,129.2L474.8,125.8L473.6,122.6L470.6,118.8L469.6,118.6L468.0,120.4L467.2,121.2L465.2,121.2L462.8,121.8L458.8,122.8L456.8,123.4L454.2,122.8L450.6,120.8L448.4,120.0L444.4,119.6L442.2,118.2L439.0,113.2L438.8,112.2L436.2,111.8L433.6,110.2L431.2,107.6L429.2,103.4L427.6,99.4L426.8,95.6L426.4,94.0L424.6,91.6L423.8,89.8L423.4,88.8L421.8,89.8L421.8,91.6L421.6,92.8L421.6,94.6L419.4,95.6L418.4,97.2L416.6,99.0L414.8,99.6L411.8,99.8L408.6,98.8L407.8,98.4L406.4,99.4L405.2,101.0L402.8,101.8L401.8,102.2L403.0,104.0L403.6,105.2L402.6,106.8L403.2,107.8L402.6,109.8L402.8,110.6L401.2,112.4L401.6,113.8L402.4,115.4L402.4,116.8L402.8,117.6L404.2,116.8L406.4,116.8L408.0,118.6L408.8,119.2L409.0,121.0L409.8,122.8L409.6,125.6L411.4,126.4L412.6,127.6L415.2,131.2L415.6,133.2L414.4,134.8L415.2,135.4L417.6,135.8L420.4,139.0L420.8,142.0L422.2,144.0L420.2,148.0L421.8,149.8L425.2,149.2L428.4,151.8L426.2,154.2L427.2,159.4L426.2,161.2L422.2,161.6L420.2,159.8L415.8,161.8L416.0,163.8L414.6,164.4L415.6,166.0L415.6,167.0L413.8,167.8L413.2,172.0L411.4,174.8L412.8,177.8L415.8,179.6L415.4,180.8L411.8,181.2L410.6,182.0L409.2,181.8L408.8,182.8L409.4,183.8L411.4,183.4L411.4,184.6L411.4,186.0L411.6,188.0L412.0,191.0L414.8,192.4L417.4,192.8L420.8,193.6L418.6,195.2L417.2,195.2L417.4,197.2L417.4,199.4L414.2,203.6L413.6,208.0L414.4,211.6L414.6,214.2L412.6,216.4L409.6,216.2L407.6,217.4L405.2,216.6L400.2,218.2L397.0,215.4L395.6,214.8L396.6,211.2L392.4,210.4L391.2,209.0L390.2,210.6L388.4,211.0L386.8,211.6L385.6,213.2L383.8,215.0L380.8,216.8L381.0,218.4L381.8,221.0L383.2,222.4L384.6,220.8L385.8,222.0L387.6,220.4L389.2,221.0L391.2,221.0L393.0,221.8L395.8,224.2L397.4,226.4Z" />
		<path id="L1611195624904" name="海口市" class="qing-map-1616146751190" d="M411.4,126.4L412.6,127.6L415.2,131.2L415.6,133.2L414.4,134.8L415.2,135.4L417.6,135.8L420.4,139.0L420.8,142.0L422.2,144.0L420.2,148.0L421.8,149.8L425.2,149.2L428.4,151.8L426.2,154.2L427.2,159.4L426.2,161.2L422.2,161.6L420.2,159.8L415.8,161.8L416.0,163.8L414.6,164.4L415.6,166.0L415.6,167.0L413.8,167.8L413.2,172.0L411.4,174.8L412.8,177.8L415.8,179.6L415.4,180.8L411.8,181.2L410.6,182.0L409.2,181.8L408.8,182.8L409.4,183.8L411.4,183.4L411.4,184.6L411.4,186.0L411.6,188.0L412.0,191.0L414.8,192.4L417.4,192.8L420.8,193.6L418.6,195.2L417.2,195.2L417.4,197.2L417.4,199.4L414.2,203.6L413.6,208.0L414.4,211.6L414.6,214.2L412.6,216.4L409.6,216.2L407.6,217.4L405.2,216.6L400.2,218.2L397.0,215.4L395.6,214.8L396.6,211.2L392.4,210.4L391.2,209.0L389.2,207.2L387.8,205.2L385.4,204.0L383.6,204.8L383.0,205.8L381.8,205.8L379.4,205.8L379.2,207.2L377.8,208.0L375.8,207.0L374.6,206.8L372.4,205.4L371.8,203.6L372.2,201.2L368.0,200.4L366.6,198.4L366.2,197.0L364.4,196.0L364.0,193.8L363.0,191.6L363.0,188.6L364.2,187.4L363.8,185.4L366.6,183.2L366.8,181.6L365.4,178.0L364.2,176.8L363.4,178.6L360.4,179.0L358.6,178.8L356.0,178.2L354.0,179.6L351.4,183.0L350.0,183.0L348.2,182.0L345.8,182.0L344.4,182.8L342.6,183.0L341.4,184.8L339.0,184.8L335.2,186.8L333.2,185.2L334.0,184.0L335.6,181.0L334.6,179.2L332.8,179.2L331.6,176.2L332.8,175.0L332.6,173.2L335.2,171.2L334.4,169.4L335.0,167.8L332.6,166.2L330.8,162.6L330.2,160.6L331.2,158.0L330.8,154.8L328.0,152.8L325.4,152.2L325.8,151.4L327.0,151.4L328.2,150.8L327.4,149.2L325.0,149.2L322.8,148.8L319.4,150.2L318.2,149.4L318.8,148.6L320.4,148.0L321.0,146.4L320.8,144.8L318.8,143.0L320.8,140.8L320.2,139.8L318.6,138.4L318.0,136.4L319.4,136.6L321.0,136.4L322.2,136.4L321.6,134.8L320.4,133.6L322.0,130.6L323.0,127.0L322.4,125.4L319.4,125.4L317.0,123.6L316.6,120.8L317.4,119.6L319.0,117.4L320.0,116.2L320.4,114.6L321.2,112.0L322.4,108.8L323.6,108.4L325.4,108.4L326.6,108.0L329.4,107.8L332.6,109.2L335.0,111.2L337.8,113.4L339.8,114.6L343.0,116.2L344.6,116.4L346.4,115.4L346.4,114.2L347.6,114.4L348.4,114.2L349.4,114.2L352.0,113.0L353.0,111.8L354.2,111.2L355.2,111.0L353.6,109.6L352.4,109.4L352.4,106.8L353.8,105.8L355.4,105.4L356.4,104.8L359.0,104.2L361.2,104.6L363.6,103.6L366.2,104.4L370.6,107.2L373.6,109.0L377.6,112.0L381.0,114.2L385.4,116.0L389.4,117.2L391.0,117.4L396.0,117.4L395.4,119.2L396.0,121.6L395.6,123.0L396.6,124.8L397.0,128.0L401.6,124.8L401.0,122.6L402.4,121.4L404.4,121.6L404.8,123.0L403.2,127.0L405.0,128.2L405.4,129.8L403.8,130.2L402.8,131.4L403.6,132.8L404.2,131.8L405.6,131.8L406.2,132.6L405.4,133.4L403.91,134.03L405.11,135.23L406.31,136.23L405.91,138.03L407.11,140.43L407.31,141.63L407.91,143.23L408.31,144.23L408.71,142.83L409.91,142.43L409.11,141.43L408.11,140.83L408.11,139.43L408.11,137.63L408.31,136.83L412.51,137.03L413.51,136.23L412.31,133.23L411.11,130.63ZM399.51,118.43L398.31,118.03L398.71,116.83L399.71,116.23L400.71,117.03L400.51,118.03Z" />
		<path id="L1611196092070" name="屯昌县" class="qing-map-1616146751190" d="M267.6,246.0L266.0,246.0L264.6,246.6L263.0,248.6L262.6,250.0L261.0,251.4L260.6,253.0L259.8,254.2L258.2,254.6L257.8,255.8L258.4,258.6L257.8,259.8L258.0,262.0L257.4,266.0L259.8,267.4L261.2,268.4L262.6,269.2L265.0,268.8L267.0,270.6L268.8,272.0L270.8,274.0L271.4,276.0L273.4,276.2L276.4,275.6L278.0,277.2L279.6,278.4L281.8,281.4L281.0,283.6L280.8,284.8L282.2,285.8L284.0,285.6L286.2,286.0L287.6,286.0L290.0,285.8L291.8,288.0L295.8,289.0L298.0,291.8L300.2,292.6L300.6,294.6L302.2,294.6L302.4,298.0L305.8,297.4L310.8,296.8L313.0,297.6L314.6,298.2L316.4,295.4L318.0,292.6L318.8,290.2L317.8,288.2L319.2,287.2L319.0,284.0L319.6,283.0L322.2,283.2L322.6,285.2L324.8,284.8L326.6,285.2L328.8,283.6L332.4,283.4L333.8,281.8L335.0,281.4L336.4,281.0L335.0,279.4L333.8,278.2L334.6,276.0L333.0,274.2L335.0,272.6L334.0,271.4L333.6,269.0L335.6,267.8L335.0,266.4L335.6,265.2L334.8,263.2L333.6,263.4L332.2,261.8L329.4,261.8L327.2,262.6L325.6,258.0L327.4,256.6L326.8,254.6L327.6,253.2L325.0,252.8L323.2,250.8L323.2,248.8L321.8,245.8L322.8,243.8L322.4,238.2L325.2,236.0L326.4,234.0L327.6,233.6L328.6,232.2L330.6,232.2L333.0,234.2L335.4,233.6L336.0,230.0L336.0,225.8L339.2,224.2L340.0,223.4L340.0,222.4L337.8,221.6L338.4,219.6L336.4,218.8L329.6,216.0L328.8,214.6L330.2,213.2L329.2,212.4L330.2,211.0L329.6,208.2L328.2,206.2L328.0,204.8L326.0,206.0L324.6,206.0L321.6,208.6L321.2,209.8L320.2,209.8L318.8,210.8L317.6,210.8L315.8,210.6L313.2,212.2L310.4,212.8L311.4,216.0L313.0,216.8L312.8,219.2L314.6,220.6L315.0,222.2L311.6,224.2L307.4,222.6L306.0,223.8L305.6,225.8L305.8,228.4L304.2,230.4L301.0,231.8L299.2,230.8L298.0,227.4L297.2,226.0L293.2,226.0L292.2,224.8L290.6,226.2L288.2,225.2L286.8,225.6L285.6,225.2L283.4,226.2L280.4,225.0L279.2,228.0L281.0,229.4L280.6,230.4L279.2,233.4L277.2,235.2L277.8,236.4L279.8,236.4L279.4,238.2L275.8,237.8L275.0,240.6L274.2,242.0L275.0,243.2L274.4,245.0L271.6,246.6L270.0,247.4Z" />
		<path id="L1611196361757" name="定安县" class="qing-map-1616146751190" d="M341.4,184.8L342.6,183.0L344.4,182.8L345.8,182.0L348.2,182.0L350.0,183.0L351.4,183.0L354.0,179.6L356.0,178.2L358.6,178.8L360.4,179.0L363.4,178.6L364.2,176.8L365.4,178.0L366.8,181.6L366.6,183.2L363.8,185.4L364.2,187.4L363.0,188.6L363.0,191.6L364.0,193.8L364.4,196.0L366.2,197.0L366.6,198.4L368.0,200.4L372.2,201.2L371.8,203.6L372.4,205.4L374.6,206.8L375.8,207.0L377.8,208.0L379.2,207.2L379.4,205.8L381.8,205.8L383.0,205.8L383.6,204.8L385.4,204.0L387.8,205.2L389.2,207.2L391.2,209.0L390.2,210.6L388.4,211.0L386.8,211.6L385.6,213.2L383.8,215.0L380.8,216.8L381.0,218.4L381.8,221.0L383.2,222.4L384.6,220.8L385.8,222.0L387.6,220.4L389.2,221.0L391.2,221.0L393.0,221.8L395.8,224.2L397.4,226.4L398.0,228.6L395.8,228.2L395.4,229.6L392.8,229.6L391.2,229.6L389.6,229.6L388.4,228.8L386.8,231.0L386.0,233.6L382.8,233.8L381.8,233.0L376.8,233.6L376.0,236.0L374.8,236.4L374.4,237.6L375.4,238.6L374.8,239.6L372.8,240.2L370.2,239.0L369.0,239.8L368.8,241.2L367.2,242.6L366.8,244.2L364.8,244.2L362.0,246.4L361.6,249.2L361.2,250.6L360.0,252.2L357.6,252.4L356.4,255.4L355.4,256.8L355.6,258.4L353.8,259.2L355.2,260.2L358.2,262.4L361.2,263.8L361.6,264.8L361.0,266.0L360.4,267.8L359.0,268.2L357.8,268.8L357.2,271.2L356.4,273.0L356.2,273.8L358.0,275.4L357.0,278.2L355.4,277.6L353.4,277.6L351.6,279.0L349.4,279.0L347.6,280.8L344.8,278.8L342.4,281.8L341.2,281.6L338.8,278.8L338.0,278.0L335.8,279.2L336.4,281.0L335.0,279.4L333.8,278.2L334.6,276.0L333.0,274.2L335.8,272.8L334.0,271.4L333.6,269.0L335.6,267.8L335.0,266.4L335.6,265.2L334.8,263.2L333.6,263.4L332.2,261.8L329.4,261.8L327.2,262.6L325.6,258.0L327.4,256.6L326.8,254.6L327.6,253.2L325.0,252.8L323.2,250.8L323.2,248.8L321.8,245.8L322.8,243.8L322.4,238.2L325.2,236.0L326.4,234.0L327.6,233.6L328.6,232.2L330.6,232.2L333.0,234.2L335.4,233.6L336.0,230.0L336.0,225.8L339.2,224.2L340.0,223.4L340.0,222.4L337.8,221.6L338.4,219.6L336.4,218.8L329.6,216.0L328.8,214.6L330.2,213.2L329.2,212.4L330.2,211.0L329.6,208.2L328.2,206.2L328.0,204.8L326.0,206.0L324.6,206.0L321.6,208.6L321.2,209.8L320.2,209.8L318.8,210.8L317.6,210.8L317.2,209.0L317.2,207.4L318.4,206.8L317.8,204.4L317.4,203.4L316.4,204.6L315.4,203.4L315.8,202.0L318.2,200.0L318.8,197.0L316.6,194.6L316.8,192.0L319.0,191.8L320.2,190.0L320.8,187.8L322.8,188.2L325.6,190.6L326.0,193.0L327.2,193.6L327.4,194.6L330.4,196.6L333.0,197.6L334.0,199.4L335.0,198.6L334.0,196.8L334.4,195.2L336.6,193.8L337.6,193.2L337.2,191.0L338.6,189.6L340.4,189.2Z" />
		<path id="L1611196640602" name="澄迈县" class="qing-map-1616146751190" d="M246.53,207.36L245.13,208.16L244.53,209.76L244.73,212.16L244.33,213.36L244.33,214.96L244.73,216.76L243.53,217.16L242.73,219.56L241.93,221.36L239.93,221.16L239.53,223.76L239.13,225.36L239.73,227.16L242.33,227.76L242.53,230.36L241.93,232.56L242.33,234.96L244.33,236.96L244.73,238.36L242.93,239.36L241.13,239.36L240.93,240.96L243.6,242.8L246.0,243.2L247.8,243.6L248.4,246.4L251.2,248.6L252.4,247.4L253.4,246.4L255.8,245.2L257.6,244.4L258.8,244.2L260.0,245.0L261.0,246.0L262.4,245.4L262.8,244.4L260.6,242.8L264.6,240.6L265.4,242.0L266.2,244.2L267.6,246.0L270.0,247.4L271.6,246.6L274.4,245.0L275.0,243.2L274.2,242.0L275.0,240.6L275.8,237.8L279.4,238.2L279.8,236.4L277.8,236.4L277.2,235.2L279.2,233.4L280.6,230.4L281.0,229.4L279.2,228.0L280.4,225.0L283.4,226.2L285.6,225.2L286.8,225.6L288.2,225.2L290.6,226.2L292.2,224.8L293.2,226.0L297.2,226.0L298.0,227.4L299.2,230.8L301.0,231.8L304.2,230.4L305.8,228.4L305.6,225.8L306.0,223.8L307.4,222.6L311.6,224.2L315.0,222.2L314.6,220.6L312.8,219.2L313.0,216.8L311.4,216.0L310.4,212.8L313.2,212.2L315.8,210.6L317.6,210.8L317.2,209.0L317.2,207.4L318.4,206.8L317.8,204.4L317.4,203.4L316.4,204.6L315.4,203.4L315.8,202.0L318.2,200.0L318.8,197.0L316.6,194.6L316.8,192.0L319.0,191.8L320.2,190.0L320.8,187.8L322.8,188.2L325.6,190.6L326.0,193.0L327.2,193.6L327.4,194.6L330.4,196.6L333.0,197.6L334.0,199.4L335.0,198.6L334.0,196.8L334.4,195.2L336.6,193.8L337.6,193.2L337.2,191.0L338.6,189.6L340.4,189.2L341.4,184.8L339.0,184.8L335.2,186.8L333.2,185.2L334.0,184.0L335.6,181.0L334.6,179.2L332.8,179.2L331.6,176.2L332.8,175.0L332.6,173.2L335.2,171.2L334.4,169.4L335.0,167.8L332.6,166.2L330.8,162.6L330.2,160.6L331.2,158.0L330.8,154.8L328.0,152.8L325.4,152.2L325.8,151.4L327.0,151.4L328.2,150.8L327.4,149.2L325.0,149.2L322.8,148.8L319.4,150.2L318.2,149.4L318.8,148.6L320.4,148.0L321.0,146.4L320.8,144.8L318.8,143.0L320.8,140.8L320.2,139.8L318.6,138.4L318.0,136.4L319.4,136.6L321.0,136.4L322.2,136.4L321.6,134.8L320.4,133.6L322.0,130.6L323.0,127.0L322.4,125.4L319.4,125.4L317.0,123.6L316.6,120.8L315.2,122.2L312.8,123.0L311.0,124.0L309.0,124.0L307.8,124.0L307.4,125.0L308.8,125.2L311.6,125.0L313.8,124.8L315.4,124.6L316.6,124.6L317.6,125.0L315.8,126.2L315.4,127.6L314.8,128.6L314.4,127.6L314.4,126.4L310.2,126.4L307.6,126.6L306.2,125.2L305.0,124.6L303.4,125.6L302.6,126.4L302.6,127.4L301.2,128.4L298.8,129.0L297.2,129.4L296.4,130.2L296.6,131.0L297.4,133.0L296.8,134.2L295.8,134.4L294.6,135.0L293.4,135.4L291.6,135.0L290.6,134.6L290.2,135.8L291.2,136.8L293.0,138.2L292.6,139.0L291.4,138.6L291.0,139.8L291.4,141.0L291.2,142.0L290.4,140.6L289.6,139.8L288.6,139.6L286.8,140.2L285.2,139.0L284.6,138.2L286.6,137.0L287.4,137.4L288.4,136.4L290.0,133.8L288.6,132.6L286.0,130.6L283.0,127.4L283.4,126.4L281.8,124.6L282.6,124.2L281.4,123.0L280.2,123.0L279.2,123.6L278.0,124.4L276.8,123.4L276.2,124.4L273.8,124.4L272.6,124.4L270.6,123.6L269.4,124.2L271.0,124.8L270.8,125.8L271.0,127.0L270.0,127.8L269.0,128.6L268.8,129.6L267.4,131.8L266.2,132.8L267.2,134.6L270.4,137.2L269.8,139.8L270.8,141.8L269.6,142.8L268.0,144.4L265.6,142.8L264.8,141.8L264.0,142.8L261.6,143.0L262.4,145.2L261.6,147.0L263.2,147.4L264.4,149.0L265.8,149.2L267.2,150.2L269.0,150.6L269.0,153.2L267.2,154.0L267.2,155.6L268.6,156.2L269.2,157.2L268.2,158.6L267.4,162.2L269.6,163.6L271.6,165.8L270.2,170.4L269.0,170.0L269.2,172.8L268.0,173.4L269.0,174.8L268.2,177.8L267.2,181.2L264.8,182.8L265.4,186.6L264.6,188.2L264.4,190.4L260.4,193.0L259.2,193.4L258.0,196.8L256.2,198.0L257.6,199.6L258.8,201.4L253.6,202.0L251.8,200.0L250.8,200.0L249.0,203.8Z" />
		<path id="L1611197181561" name="临高县" class="qing-map-1616146751190" d="M208.53,151.11L208.93,152.91L210.53,154.51L211.53,155.71L210.13,156.71L209.13,156.91L209.93,158.11L208.93,158.71L208.53,159.91L208.93,160.71L208.93,164.51L209.93,165.11L211.13,167.91L213.93,168.11L215.53,169.91L214.13,170.91L214.13,172.91L214.33,176.51L212.93,178.11L211.13,179.71L209.53,180.71L208.33,180.76L206.53,180.56L207.93,184.36L209.53,185.36L209.53,189.56L212.33,192.56L210.93,194.36L212.13,195.16L214.53,194.56L217.93,196.56L219.73,195.36L221.93,195.76L223.13,196.56L226.73,195.76L225.93,198.96L227.13,201.76L229.53,204.36L232.73,205.16L235.93,206.76L238.13,204.96L240.73,206.16L243.53,207.36L245.53,206.76L246.53,207.36L249.0,203.8L250.8,200.0L251.8,200.0L253.6,202.0L258.8,201.4L257.6,199.6L256.2,198.0L258.0,196.8L259.2,193.4L260.4,193.0L264.4,190.4L264.6,188.2L265.4,186.6L264.8,182.8L267.2,181.2L268.2,177.8L269.0,174.8L268.0,173.4L269.2,172.8L269.0,170.0L270.2,170.4L271.6,165.8L269.6,163.6L267.4,162.2L268.2,158.6L269.2,157.2L268.6,156.2L267.2,155.6L267.2,154.0L269.0,153.2L269.0,150.6L267.2,150.2L265.8,149.2L264.4,149.0L263.2,147.4L261.6,147.0L262.4,145.2L261.6,143.0L264.0,142.8L264.8,141.8L265.6,142.8L268.0,144.4L269.6,142.8L270.8,141.8L269.8,139.8L270.4,137.2L267.2,134.6L266.2,132.8L265.6,134.0L262.8,133.8L261.4,136.0L260.4,135.6L262.6,132.6L261.0,130.6L261.8,129.6L260.8,128.0L261.0,126.6L259.8,125.0L258.4,125.0L257.6,124.4L257.2,125.2L258.0,126.4L257.4,127.4L257.6,128.6L258.2,129.8L257.8,131.4L257.6,132.8L255.2,134.0L254.4,131.0L254.2,129.0L253.6,128.2L248.4,128.6L246.2,128.0L242.0,124.4L241.2,125.6L240.4,125.2L240.4,123.8L241.0,122.8L239.4,120.8L238.2,120.6L237.0,119.2L234.6,120.2L230.6,120.4L227.8,120.8L227.8,122.2L224.4,121.8L223.6,122.6L220.8,122.6L218.4,122.4L215.0,123.6L211.8,125.4L210.8,126.0L210.0,128.0L208.0,130.2L206.0,132.0L204.4,132.0L203.0,133.4L202.8,135.8L202.2,137.0L202.8,138.4L204.2,137.4L205.2,137.8L206.6,137.6L207.6,138.0L207.6,138.8L206.8,139.2L205.6,139.4L202.8,139.2L201.8,138.6L200.8,140.0L199.6,141.6L200.4,143.0L201.2,143.6L200.4,144.6L200.4,146.2L200.8,147.6L202.0,147.2L203.2,147.2L204.4,148.2L205.6,148.8L207.8,148.8L209.8,150.2ZM184.2,138.0L185.6,138.6L186.7,139.6L187.4,140.3L189.9,140.5L190.8,140.1L192.3,139.3L192.1,138.8L191.5,138.4L189.9,138.0L187.9,137.6L186.6,137.1L185.9,136.8L182.2,136.8L180.5,138.1L180.8,138.7L182.1,138.8Z" />
		<path id="L1614667267511" name="三沙市" class="qing-map-1616146751190" d="" />
	</g>
</svg>
