<svg xmlns="http://www.w3.org/2000/svg" viewBox="0,0,800,731" width="100%" height="100%">
	<defs>
		<style type="text/css">
.qing-map-1616124534079
{
	fill: #DDDDDD;
	fill-opacity: 1.0;
	stroke: #FFFFFF;
	stroke-opacity: 1.0;
	stroke-width: 1;
}

.qing-map-1616124534079:hover
{
	fill: #56A4FF;
	fill-opacity: 1.0;
}
</style>
	</defs>
	<g>
		<path id="L1610949480384" name="杭州市" class="qing-map-1616124534079" d="M226.4,168.4L231.6,165.2L233.6,162.4L239.4,163.0L242.0,163.6L244.8,161.8L247.0,157.6L249.6,156.6L254.4,160.4L260.2,157.4L260.2,163.2L261.8,164.6L263.2,163.2L265.4,163.2L270.0,158.4L268.4,154.4L270.2,152.4L270.8,143.4L268.8,137.8L271.6,136.0L273.8,137.6L279.4,137.2L279.6,143.2L284.2,146.4L287.2,145.0L289.2,147.2L291.8,147.2L295.0,152.0L296.6,154.4L301.4,154.0L303.8,156.0L306.4,156.6L307.6,158.4L311.2,156.4L317.0,157.4L319.8,159.2L323.6,157.6L321.8,153.8L323.6,147.4L327.0,147.2L328.8,150.0L334.2,150.0L336.8,152.6L339.6,150.4L339.0,147.2L342.4,146.2L354.2,145.6L357.2,142.8L360.4,143.8L361.4,151.0L363.0,152.2L362.6,158.0L360.2,163.6L360.0,167.4L364.0,169.0L370.6,167.0L370.8,168.8L369.2,170.0L369.2,173.8L373.4,177.2L377.4,168.4L380.4,166.4L409.2,166.2L411.2,166.8L410.2,170.4L416.2,185.8L411.8,191.6L407.2,194.2L402.8,203.4L401.8,205.8L400.0,207.0L397.4,205.8L395.4,206.4L393.8,205.2L388.6,204.8L385.8,203.0L381.8,202.8L380.6,205.8L376.8,209.4L373.8,206.6L372.6,209.2L369.0,204.8L362.6,208.4L361.6,210.6L359.0,208.8L356.2,213.4L359.8,213.6L361.6,214.8L362.4,220.2L361.2,223.4L363.6,226.4L365.0,229.6L366.4,234.2L366.6,236.2L363.4,236.4L362.8,239.4L359.8,242.8L356.2,242.2L353.8,244.8L351.0,241.8L345.0,241.4L340.2,247.2L337.8,246.0L335.2,247.8L334.8,250.8L332.2,255.8L329.2,257.6L327.8,262.0L325.2,260.8L320.0,261.4L318.2,263.8L319.2,267.6L317.0,270.4L312.8,271.6L309.6,270.8L306.4,273.2L303.4,274.2L298.4,272.4L298.6,276.0L301.6,280.0L306.2,280.6L309.0,283.4L309.4,286.0L305.6,285.4L300.2,288.0L295.0,286.8L292.0,286.8L289.6,285.8L287.0,286.4L284.0,288.8L281.6,289.6L279.8,294.4L281.2,297.0L279.0,298.4L279.0,301.6L277.6,303.4L273.6,308.0L273.0,315.6L270.8,316.4L271.8,324.2L267.6,327.0L261.4,326.2L257.0,333.2L257.6,336.8L252.6,336.0L250.8,337.2L246.0,337.2L243.8,338.0L242.6,341.8L239.6,343.4L235.8,339.2L235.0,336.8L235.8,333.4L232.2,329.4L230.6,329.2L228.4,331.2L225.8,330.2L223.2,327.2L221.6,329.2L216.0,331.4L218.4,334.8L217.2,340.0L217.4,345.6L215.4,348.4L215.4,351.8L211.4,352.6L209.4,353.0L206.4,356.8L204.8,358.2L203.4,356.6L201.6,352.6L200.6,350.0L197.6,350.2L195.6,352.8L196.0,355.6L198.8,358.6L196.8,360.8L195.0,363.4L191.0,361.8L188.2,362.0L186.0,360.0L182.8,360.8L171.8,362.6L169.2,363.8L165.8,360.6L165.0,355.6L161.8,353.0L162.2,349.6L154.4,344.6L151.6,344.8L149.0,345.0L146.4,348.6L142.2,351.6L140.2,351.8L136.4,356.0L133.4,357.0L134.0,361.8L129.4,363.2L127.8,366.0L125.4,367.2L122.0,365.0L114.6,366.0L113.6,362.8L111.4,360.2L111.0,355.6L111.6,353.6L114.4,354.2L109.4,345.0L105.4,342.6L100.8,342.6L98.6,339.8L98.2,337.8L94.2,339.0L92.2,337.6L89.6,338.6L87.6,336.0L85.6,336.2L82.0,333.6L82.8,331.4L81.0,330.0L82.0,328.2L79.0,327.6L73.0,322.2L72.0,319.4L73.6,319.0L77.6,314.6L81.6,314.2L84.2,315.2L85.4,313.6L89.4,313.6L90.8,314.0L94.2,312.2L94.6,307.2L94.0,306.0L95.2,302.4L99.6,300.4L101.2,297.0L104.0,296.4L105.6,292.2L110.4,291.6L112.2,290.0L114.2,291.2L116.4,291.2L121.2,285.4L121.4,283.6L123.2,283.4L123.0,281.6L124.4,280.8L126.8,280.4L127.4,278.6L130.4,275.2L131.4,269.0L129.8,267.4L129.8,262.6L132.6,261.6L131.8,259.0L131.6,257.8L133.8,257.2L135.6,258.0L136.8,256.6L139.8,253.4L144.4,249.8L145.4,244.4L145.0,243.0L146.0,241.8L147.4,241.8L149.2,240.6L152.2,242.0L152.0,237.6L152.8,233.6L151.6,231.6L151.8,229.4L152.8,228.8L153.6,226.2L152.2,225.2L151.6,218.2L150.4,216.2L150.6,214.8L149.4,214.2L147.8,213.2L147.8,210.0L149.8,210.2L151.8,209.8L152.6,207.2L151.8,206.0L150.2,208.4L148.6,207.8L147.2,206.6L145.8,204.8L153.4,201.2L153.6,199.4L156.6,197.6L156.2,195.4L154.4,194.8L152.2,191.4L151.0,189.8L152.4,187.4L150.4,184.2L151.0,180.6L150.6,178.8L152.8,177.6L155.8,174.4L158.8,173.6L159.2,172.0L160.6,170.8L161.6,172.8L163.4,172.2L164.0,173.2L165.6,173.6L166.4,175.4L169.8,176.2L171.6,176.0L172.6,178.0L174.8,178.8L176.6,180.0L180.2,177.0L183.2,178.8L186.8,180.2L189.8,180.0L191.2,181.6L194.0,181.6L197.6,182.4L200.2,181.6L202.2,181.4L203.8,177.0L202.6,176.0L204.0,174.0L205.8,174.8L206.8,173.8L208.0,173.8L211.8,170.6L214.6,169.0L216.6,169.6L218.0,172.0L221.8,172.0L225.4,169.0Z" />
		<path id="L1610951300048" name="宁波市" class="qing-map-1616124534079" d="M447.4,201.4L453.4,198.0L455.2,197.8L463.4,192.2L464.4,192.4L470.6,185.8L476.8,182.8L476.8,182.0L480.8,179.8L480.8,177.6L485.6,175.4L501.2,173.4L509.6,177.0L509.8,178.0L515.4,181.4L524.4,189.0L524.0,190.0L526.4,192.8L527.8,192.8L532.6,197.0L536.6,204.4L539.2,203.2L557.6,231.8L565.8,235.6L568.0,235.2L582.4,241.6L592.4,245.0L595.4,250.0L605.2,250.6L606.4,252.4L608.0,252.2L609.4,250.4L612.4,251.0L616.0,250.2L617.0,250.4L621.8,247.6L623.6,248.2L625.0,250.2L624.8,252.4L622.4,253.0L619.6,254.8L618.2,255.0L611.8,258.2L606.4,260.6L600.6,263.6L593.4,271.0L591.6,274.0L588.6,271.8L587.2,271.6L586.2,272.6L586.2,276.4L584.8,278.0L584.8,281.4L582.4,283.8L577.0,286.6L572.4,290.4L572.0,292.8L570.8,293.4L566.4,299.6L563.0,300.4L562.2,301.6L563.0,303.8L562.0,305.0L560.0,304.8L559.0,305.2L553.2,308.0L550.0,307.4L547.0,309.2L544.6,308.0L542.2,308.0L541.6,309.2L539.8,309.8L537.2,313.4L535.2,311.6L535.0,307.8L530.6,308.0L528.6,310.2L528.6,311.8L527.4,313.4L526.0,313.6L525.2,315.0L525.8,315.8L525.2,317.4L524.2,319.4L521.4,320.8L522.4,323.0L524.0,325.0L523.4,327.4L523.8,329.4L526.4,329.6L527.6,325.6L529.0,323.4L529.0,321.4L531.6,319.6L533.0,317.6L534.4,319.4L536.6,321.4L535.4,323.0L533.8,327.0L534.2,328.6L531.4,330.0L530.8,331.6L531.0,333.2L533.8,332.6L535.8,331.0L538.8,325.8L538.8,324.0L542.6,320.0L549.6,317.6L552.4,317.0L559.0,311.4L565.4,309.0L569.0,311.0L570.8,309.8L572.4,309.8L571.2,312.4L570.6,315.4L571.8,319.6L572.6,321.0L576.2,320.4L578.0,317.2L578.8,313.8L580.8,310.4L581.8,308.4L577.4,307.0L574.6,307.8L570.6,308.2L569.8,308.0L568.4,308.4L568.2,306.4L571.8,303.6L574.2,300.2L574.8,298.6L577.8,298.2L585.6,295.8L587.6,296.4L590.2,295.6L593.4,292.4L594.8,293.4L597.4,293.2L597.6,295.0L600.0,296.0L601.2,298.2L601.2,299.2L603.2,299.2L603.4,300.8L603.6,302.0L602.0,302.2L601.0,304.0L599.2,304.0L597.6,305.4L598.2,307.0L596.2,312.4L596.4,313.4L598.4,314.2L598.8,315.4L599.0,319.6L601.2,320.4L602.6,322.8L601.2,324.4L601.4,325.2L599.8,326.0L599.6,327.6L596.8,327.8L594.0,328.4L596.0,332.2L594.8,334.8L594.8,338.0L593.0,339.6L593.0,341.6L596.6,342.8L596.4,345.2L594.6,345.4L594.0,346.8L595.2,348.2L594.8,351.0L598.4,352.0L601.0,353.4L602.2,352.0L603.2,353.6L603.0,355.0L601.4,355.2L600.0,355.8L599.0,358.2L600.0,360.4L600.2,362.0L598.6,361.4L597.6,361.2L597.4,364.0L595.6,366.0L593.4,367.2L591.8,367.4L587.0,370.8L583.4,371.0L582.0,371.8L580.6,372.6L578.6,372.6L577.0,372.6L575.4,371.6L573.4,370.2L573.6,367.8L575.0,366.8L574.2,365.8L575.0,359.6L577.6,356.4L576.0,356.4L575.0,355.2L576.2,353.6L576.6,351.8L576.6,349.0L577.0,347.6L581.0,344.4L579.6,344.2L578.6,343.0L577.0,343.2L576.6,344.4L576.0,345.4L574.4,344.8L575.6,343.4L576.4,341.4L575.0,339.8L574.0,338.0L572.4,338.2L571.4,339.2L573.4,340.2L573.4,341.8L572.8,342.6L573.0,345.0L573.6,346.8L572.0,349.0L573.4,353.6L572.6,357.8L571.2,362.2L569.8,366.4L569.6,373.4L562.0,377.4L557.0,372.6L552.2,369.2L547.4,359.4L547.2,355.2L546.2,354.8L544.0,356.2L539.6,354.2L540.2,355.8L542.6,357.6L543.8,360.4L543.8,362.0L542.0,361.2L539.8,361.4L537.6,361.8L537.2,364.0L536.0,365.8L536.0,367.6L539.8,370.6L538.4,375.0L535.2,374.8L531.6,373.0L531.6,371.6L530.0,371.0L529.2,373.0L525.4,371.6L523.8,372.0L519.0,372.4L517.6,368.6L514.4,366.0L512.4,367.8L511.6,370.4L510.0,372.6L509.4,376.4L508.6,378.4L505.4,380.0L502.4,381.6L501.4,383.8L496.6,378.8L496.8,373.2L493.0,368.2L492.2,365.0L490.2,364.0L488.2,365.0L484.0,364.2L483.8,358.6L483.0,357.0L484.6,354.6L485.6,349.8L488.8,347.4L487.2,343.6L488.4,340.0L491.4,338.6L491.8,334.2L493.0,331.0L490.8,328.0L490.2,318.8L492.2,316.8L490.8,314.8L492.4,311.8L490.6,310.0L487.8,309.0L485.6,309.0L482.6,309.0L479.6,307.6L476.6,306.6L475.4,304.2L476.6,301.8L475.0,298.6L475.6,296.8L473.2,294.2L471.2,293.4L470.2,289.6L468.8,285.8L467.6,283.6L466.2,283.4L464.8,286.4L459.8,286.6L458.8,285.4L460.8,284.2L461.6,282.8L460.8,281.2L461.6,278.2L461.4,275.6L463.2,274.2L462.6,271.4L465.2,271.0L467.4,271.2L470.4,269.8L471.2,266.6L474.6,264.8L473.4,262.4L474.2,259.8L472.6,257.6L468.8,255.2L466.6,255.4L461.2,249.0L463.0,246.8L466.0,239.2L468.2,238.0L471.2,235.6L471.0,232.6L467.8,230.6L464.6,231.0L462.8,229.0L458.6,227.0L456.8,224.8L457.2,221.2L455.0,219.4L454.6,217.0L452.2,215.2L449.0,211.0L449.2,207.8L448.4,204.4ZM596.6,241.6L598.4,240.8L599.4,239.4L601.0,241.4L602.0,243.2L603.6,244.8L604.0,246.6L603.2,248.0L601.6,248.6L598.6,248.8L597.4,248.8L596.2,248.0L595.0,246.4L594.4,244.6L594.8,242.6ZM606.13,246.38L606.25,247.0L606.75,247.5L607.38,246.88L607.13,246.13L606.75,245.63ZM607.13,250.0L607.13,250.63L607.63,251.0L608.25,250.63L607.88,250.13ZM603.0,264.0L606.63,261.75L608.38,261.5L609.0,262.38L609.38,263.38L608.75,264.13L607.38,265.5L606.75,266.63L606.25,268.0L605.88,269.25L605.25,269.75L604.75,270.63L603.25,270.38L602.63,270.25L602.0,270.75L601.13,270.5L599.88,270.0L598.63,269.63L597.63,268.88L598.63,267.38L600.88,265.13ZM557.5,307.13L557.63,308.38L558.5,308.63L559.75,307.63L560.88,307.0L560.38,306.38L559.38,306.63L558.38,306.75ZM543.0,310.25L542.13,310.25L541.75,310.75L541.25,311.13L542.13,311.63L542.75,311.75L543.38,311.38ZM598.25,365.38L598.38,364.5L599.25,365.0L600.0,365.88L599.13,366.0ZM598.37,368.26L599.25,367.5L600.13,367.25L600.5,369.0L601.75,369.63L601.62,371.75L600.5,371.12L598.75,369.26ZM596.4,368.4L598.6,371.4L600.4,372.6L602.4,373.8L600.4,375.6L602.4,380.8L600.6,381.8L599.4,382.6L599.6,383.8L601.6,383.8L600.0,385.6L599.4,387.2L597.2,390.4L595.8,389.6L595.6,387.4L593.4,386.4L589.2,379.6L588.8,378.2L586.4,377.0L587.2,374.8L593.0,371.8ZM585.2,375.4L584.8,377.6L588.0,379.2L585.4,381.6L584.6,383.6L583.8,384.0L582.0,383.8L580.8,383.4L580.4,381.8L577.2,380.4L574.2,379.6L573.8,377.6L575.0,375.6L576.8,374.4L578.6,375.0L580.4,376.0L582.8,376.0ZM577.0,382.8L579.4,383.2L580.0,384.8L579.8,386.6L581.0,386.6L580.2,388.2L579.4,388.8L578.6,389.0L578.0,387.8L577.2,386.6L576.4,385.4L576.2,384.4ZM610.25,367.75L609.75,366.88L609.75,365.88L610.25,364.88L611.63,366.5L611.0,367.88L611.0,369.5L612.63,370.63L614.0,370.88L613.0,371.88L612.25,372.13L611.0,371.63L610.13,371.63L609.88,372.63L607.38,372.75L607.38,372.0L608.0,371.0L608.25,370.13L608.88,369.75L609.38,369.75L610.13,369.75L610.25,368.75ZM608.13,296.13L608.38,295.63L608.88,295.63L608.88,296.38L608.63,297.25L608.13,297.13ZM605.63,330.25L606.5,330.25L607.38,330.88L606.88,331.38L606.25,331.25L605.75,331.0ZM631.0,329.13L631.88,328.63L632.75,328.38L632.75,329.0L632.25,329.5L631.75,329.63Z" />
		<path id="L1610952840237" name="温州市" class="qing-map-1616124534079" d="M378.2,468.2L381.8,467.6L385.2,468.8L386.8,472.4L393.0,476.0L403.8,476.4L404.4,471.6L407.2,471.8L408.0,468.6L412.0,469.0L415.6,465.6L415.8,463.6L419.2,464.4L422.6,463.6L424.2,466.4L429.4,468.4L430.8,470.8L434.0,471.2L436.0,474.8L434.6,477.8L438.8,480.2L438.8,482.6L444.2,484.8L448.6,481.2L451.8,481.8L454.4,485.0L457.2,485.4L460.8,485.8L463.2,486.4L465.4,485.2L467.6,486.0L471.4,482.2L472.6,478.8L474.8,476.2L478.2,478.4L481.2,478.6L483.8,480.6L484.0,483.4L486.6,486.4L489.6,489.0L490.0,491.2L492.0,493.0L491.8,494.6L495.6,496.4L495.0,500.2L492.2,501.8L490.0,503.0L489.0,501.2L486.8,500.4L486.2,501.2L485.6,502.4L486.4,504.2L486.2,505.4L485.2,506.8L483.8,507.0L482.2,508.0L481.4,508.8L480.2,509.6L480.6,511.2L478.0,513.8L479.2,515.4L477.6,517.8L476.2,518.0L474.2,517.8L473.0,518.2L470.8,516.8L469.8,517.8L470.6,518.6L472.2,519.4L473.8,519.4L476.0,519.6L477.0,521.0L478.4,523.8L477.4,530.6L476.2,530.4L474.0,533.4L473.6,537.0L472.4,537.8L467.2,541.2L463.0,542.4L461.4,544.4L462.2,546.8L460.4,550.6L460.2,552.8L458.8,553.8L459.2,556.6L459.8,558.0L457.4,564.0L454.6,565.8L454.0,568.6L452.4,568.8L449.6,567.0L448.6,567.2L447.4,568.4L447.4,569.6L450.8,573.6L447.8,577.2L444.8,574.2L443.6,574.0L436.0,569.0L433.4,570.6L436.2,573.0L438.2,573.8L440.8,577.0L440.0,578.8L440.4,582.4L441.4,582.8L440.8,586.4L436.6,591.0L435.2,589.8L431.4,593.4L432.0,594.8L428.8,599.4L426.4,598.0L420.8,609.0L415.6,612.6L413.2,615.0L413.2,616.2L411.2,618.4L410.2,621.0L411.2,623.0L412.4,624.6L412.2,625.6L410.8,625.8L410.4,628.4L408.2,628.8L406.6,631.6L405.0,632.2L403.0,631.6L401.4,632.2L402.4,634.6L401.4,637.0L404.4,645.6L406.0,647.8L410.0,648.0L411.4,650.6L413.2,653.2L411.2,656.2L409.2,656.0L408.2,656.6L408.4,658.2L407.4,660.0L408.2,663.8L408.4,668.4L407.8,670.2L406.4,669.2L405.2,670.2L404.2,669.8L404.2,668.2L403.2,666.8L401.2,667.2L398.4,665.8L396.6,664.6L394.0,663.6L392.4,666.6L393.2,667.4L394.0,667.0L395.4,668.2L393.2,670.8L391.2,671.0L391.8,674.2L389.4,674.4L390.6,675.8L391.6,676.0L393.0,677.6L394.6,677.4L394.0,679.4L394.8,681.0L393.4,681.4L393.4,683.6L392.6,684.6L389.2,684.0L389.8,686.2L388.8,688.0L389.8,689.4L391.4,689.6L391.4,691.6L390.2,693.0L389.0,693.2L388.6,695.2L389.2,697.2L387.4,698.8L386.4,698.6L383.2,702.2L381.4,700.8L382.2,696.2L380.6,693.8L376.8,695.0L375.4,698.4L377.0,700.4L376.0,701.6L374.4,699.4L374.2,697.8L372.2,694.6L373.2,693.0L373.4,690.6L371.4,688.8L373.6,687.6L374.6,688.2L375.8,686.6L374.8,685.6L372.2,682.6L372.8,681.4L371.2,679.2L370.6,678.4L369.0,677.4L364.6,672.2L365.4,670.8L363.4,668.8L364.4,666.2L363.0,664.0L361.0,664.2L359.6,662.8L358.2,664.8L356.0,664.2L353.8,665.4L350.6,661.8L352.0,660.2L351.0,658.2L349.6,657.6L347.8,659.2L345.2,660.0L343.8,660.0L342.8,659.0L341.4,658.8L339.6,660.0L336.2,659.4L333.2,660.0L332.4,661.0L333.2,663.2L332.8,664.0L328.4,664.0L327.6,665.6L327.4,667.0L325.4,668.0L323.6,669.6L323.0,670.6L322.6,672.8L321.2,672.4L320.6,674.2L319.0,673.2L317.6,673.0L317.4,671.6L316.4,670.4L315.0,668.6L314.0,667.6L313.0,666.4L311.8,668.2L310.0,668.4L308.2,668.4L306.6,669.6L306.4,671.0L306.0,673.0L304.6,674.8L305.6,677.2L300.8,678.0L300.6,676.6L298.4,677.8L296.4,677.8L295.2,679.6L291.2,676.8L289.8,677.6L290.6,679.4L289.6,680.0L286.8,679.6L285.0,678.8L283.6,678.4L282.2,679.0L280.6,678.6L279.2,677.8L279.6,676.4L280.8,676.4L281.6,674.8L279.8,674.4L279.6,672.8L277.2,671.4L276.0,669.8L277.0,667.6L275.8,667.2L275.4,665.8L273.4,663.2L271.8,662.6L270.6,660.2L270.0,658.8L267.8,657.8L270.2,656.2L270.4,654.0L271.0,653.0L270.8,648.8L270.2,646.8L271.2,644.8L268.0,641.2L263.8,640.0L265.6,637.8L265.8,634.8L260.0,633.4L259.6,631.2L259.8,629.4L259.2,627.6L261.0,626.4L262.0,623.8L261.2,622.2L261.0,620.6L261.8,617.2L263.0,615.4L262.2,612.2L265.2,610.4L267.2,606.6L273.0,603.8L278.6,597.8L281.2,598.6L282.4,587.0L284.8,583.0L282.0,580.2L285.4,577.6L288.6,579.0L291.6,575.0L289.0,573.0L289.8,571.2L294.0,570.6L295.6,569.8L298.0,572.8L303.0,569.4L307.4,569.2L309.0,570.6L307.8,573.8L310.8,575.2L315.8,574.2L318.0,574.8L320.8,572.8L323.0,572.4L323.2,570.4L326.0,570.2L327.8,568.2L330.8,567.6L333.8,569.0L338.4,568.2L340.0,572.6L345.0,575.8L349.2,575.4L349.8,571.6L353.2,571.8L356.6,568.6L360.2,568.6L362.6,568.6L364.0,566.8L361.8,565.0L363.8,561.8L363.6,558.0L364.6,556.0L367.4,555.2L366.2,551.6L369.2,549.4L372.4,547.4L372.6,543.8L370.4,541.6L371.0,539.8L374.0,538.4L374.0,535.6L375.8,534.4L374.8,532.2L373.8,529.2L376.6,526.8L376.6,524.6L375.2,523.0L375.0,519.2L374.2,516.6L372.4,514.2L370.0,512.0L368.2,511.8L366.2,510.6L365.4,508.4L365.4,504.6L363.2,503.0L362.6,500.6L362.6,497.4L364.4,494.0L366.4,494.2L368.2,496.2L368.4,493.4L367.8,490.4L369.2,488.2L371.6,486.2L373.6,484.2L374.4,481.0L375.0,477.4L376.2,474.8L376.4,472.4L377.0,469.8ZM489.0,505.0L489.6,506.6L490.2,508.0L489.4,509.0L488.4,508.0L487.4,507.0L487.2,505.6L488.2,504.8ZM484.6,508.2L486.2,507.6L487.6,507.8L488.6,509.2L488.8,510.4L488.0,511.4L487.2,511.4L485.8,511.2L485.0,510.6L484.2,510.0ZM466.6,566.6L466.6,565.4L468.0,564.4L469.8,563.8L470.6,565.0L469.6,565.8L468.2,566.0ZM468.8,568.6L470.0,568.8L473.0,568.6L474.6,568.0L476.4,568.0L478.6,570.2L479.0,572.2L477.6,573.6L473.8,575.0L472.2,573.4L470.4,572.4L467.0,572.8L466.2,571.2L468.0,570.0ZM484.6,567.2L485.6,566.2L487.4,565.8L488.8,565.8L490.0,565.8L490.6,566.6L489.8,567.2L489.0,567.8L488.2,567.6L487.4,569.2L486.4,569.8L484.8,568.0ZM477.6,583.0L477.6,582.0L478.4,581.2L479.4,580.6L480.4,581.4L480.4,583.0L479.2,584.4ZM466.0,586.0L466.8,587.4L468.0,587.8L469.4,588.4L469.2,589.4L468.0,589.4L467.2,589.2L465.8,589.6L464.4,590.4L463.2,590.6L462.4,589.2L462.6,587.8L463.8,587.2L465.0,586.6ZM476.8,591.4L478.0,590.0L479.4,589.2L482.0,589.2L484.6,589.6L486.6,587.9L487.1,590.7L485.4,590.5L484.4,591.4L484.4,593.2L484.6,594.6L483.6,595.0L481.0,594.6L479.2,594.6L478.8,595.6L477.0,594.8L475.6,595.0L474.6,595.2L473.0,593.8L475.0,593.0ZM471.4,599.2L470.6,601.0L472.6,601.4ZM478.4,597.8L479.0,596.6L480.2,596.0L481.2,596.2L480.8,597.8L480.0,598.8L479.4,599.8L478.4,599.8L477.8,598.6ZM477.8,604.6L478.8,605.0L480.2,604.8L479.6,603.4L478.6,603.2ZM454.4,620.8L455.4,620.4L456.4,620.0L457.2,620.2L456.8,621.0L456.2,622.0L455.2,622.6L454.4,622.2ZM488.4,626.8L489.2,625.8L490.4,625.8L490.6,626.6L489.8,627.4L488.8,628.4L487.8,628.0ZM468.2,652.9L468.3,651.7L469.7,652.2L471.3,652.3L471.6,653.6L473.2,653.9L474.1,654.9L473.7,655.7L472.2,654.7L471.1,654.7L469.1,653.4L468.3,654.2L468.3,654.9L466.6,654.2ZM399.3,672.7L400.2,672.4L400.6,673.0L400.1,673.8L399.3,673.9L398.7,673.8L398.7,673.3ZM382.7,703.2L382.9,704.2L382.8,704.6L382.2,704.9L381.6,704.4L381.5,703.8L381.9,703.4ZM391.1,700.3L391.0,704.3L390.4,705.0L389.0,704.1L389.5,702.2L389.6,701.1Z" />
		<path id="L1610954112128" name="嘉兴市" class="qing-map-1616124534079" d="M384.8,102.4L386.8,102.6L395.6,90.0L398.4,88.0L400.0,86.6L406.6,85.8L407.0,87.4L409.0,88.0L409.4,85.4L410.4,85.8L411.2,83.6L412.6,82.2L414.0,84.0L415.6,84.4L415.4,82.4L417.6,81.4L417.0,77.6L417.2,74.8L416.4,72.2L413.8,69.8L413.2,69.0L414.8,67.8L416.6,67.0L419.2,67.4L421.2,68.0L425.4,65.6L425.2,64.2L426.2,61.8L433.0,61.0L436.2,63.8L437.6,63.6L439.2,64.4L443.2,61.8L444.2,59.2L445.4,59.2L446.4,60.6L450.4,60.4L450.2,59.2L451.6,59.0L452.0,57.0L453.8,59.2L457.0,59.2L457.8,62.0L459.2,65.2L458.0,66.8L457.8,69.6L459.0,72.2L458.4,76.8L457.6,79.4L458.0,80.6L460.0,81.2L461.8,82.6L457.2,90.2L457.0,92.0L458.6,92.4L460.8,90.2L465.0,92.8L468.6,87.8L471.6,87.6L472.6,86.8L473.8,87.6L475.6,87.4L475.6,89.6L478.0,90.2L478.6,91.8L477.6,93.8L477.8,99.2L484.2,100.6L489.0,99.0L491.2,99.4L492.4,101.8L493.0,103.0L496.4,105.2L498.4,109.6L497.6,111.6L498.4,113.4L496.6,114.4L493.8,117.2L487.6,120.4L485.4,121.0L482.0,124.2L481.6,126.2L480.4,127.6L480.2,129.0L478.8,129.2L476.4,131.0L469.6,132.0L466.6,133.6L465.4,133.8L464.0,133.6L455.4,140.8L453.6,144.2L451.2,148.8L449.6,150.8L451.2,155.8L453.2,157.8L453.4,159.2L451.8,159.4L451.2,161.0L447.6,161.2L446.0,162.0L445.4,163.8L447.4,167.0L446.0,168.8L444.0,169.0L442.6,169.4L439.6,169.4L435.8,172.6L435.6,177.6L423.6,176.8L422.6,175.4L422.0,170.0L420.2,168.2L413.0,165.0L411.2,166.8L409.2,166.2L380.4,166.4L377.4,168.4L373.4,177.2L369.2,173.8L369.2,170.0L370.8,168.8L370.6,167.0L364.0,169.0L360.0,167.4L360.2,163.6L362.6,158.0L363.0,152.2L361.4,151.0L360.4,143.8L357.2,142.8L356.8,136.0L358.8,134.0L358.6,132.0L357.8,129.8L359.2,127.0L361.8,127.2L363.6,120.2L367.8,120.0L372.4,117.0L378.0,116.2L378.6,113.2L381.8,112.4L384.0,107.8L382.2,103.8L382.2,102.2Z" />
		<path id="L1610954530283" name="湖州市" class="qing-map-1616124534079" d="M250.8,86.2L249.4,85.4L248.8,82.8L249.4,80.8L248.6,79.0L249.8,78.2L249.8,76.4L252.4,74.8L252.6,71.4L254.0,70.2L253.0,68.6L255.2,66.6L255.0,64.8L256.0,64.2L259.4,60.6L259.6,55.8L259.8,52.8L259.4,51.6L260.2,51.0L259.2,49.0L260.2,47.0L260.0,45.0L262.2,44.4L261.6,43.2L259.4,43.0L258.6,40.4L259.8,40.4L261.0,38.8L261.0,37.0L262.4,36.4L264.6,34.8L266.4,34.6L269.8,36.2L272.2,33.2L275.6,33.0L276.8,33.6L281.8,31.8L282.8,35.8L284.6,36.0L285.8,36.6L288.0,35.2L287.2,33.8L289.0,32.2L290.8,33.6L293.6,33.4L295.4,34.4L299.4,33.4L301.6,33.2L304.8,37.4L305.4,43.6L309.4,50.2L312.6,56.6L321.0,60.6L328.6,68.6L334.6,72.6L344.6,74.4L353.6,74.6L366.6,71.2L365.2,74.0L366.2,75.0L364.8,76.8L365.4,79.6L366.2,82.2L367.4,82.2L368.0,80.2L371.8,80.2L374.2,79.2L374.2,76.6L376.2,75.8L376.6,79.6L379.4,84.2L377.6,85.8L380.2,89.0L380.2,93.2L382.6,95.4L382.8,98.4L384.2,100.2L385.0,101.6L382.2,102.2L382.2,103.8L384.0,107.8L381.8,112.4L378.6,113.2L378.0,116.2L372.4,117.0L367.8,120.0L363.6,120.2L361.8,127.2L359.2,127.0L357.8,129.8L358.6,132.0L358.8,134.0L356.8,136.0L357.2,142.8L354.2,145.6L342.4,146.2L339.0,147.2L339.6,150.4L336.8,152.6L334.2,150.0L328.8,150.0L327.0,147.2L323.6,147.4L321.8,153.8L323.6,157.6L319.8,159.2L317.0,157.4L311.2,156.4L307.6,158.4L306.4,156.6L303.8,156.0L301.4,154.0L296.6,154.4L295.0,152.0L291.8,147.2L289.2,147.2L287.2,145.0L284.2,146.4L279.6,143.2L279.4,137.2L273.8,137.6L271.6,136.0L268.8,137.8L270.8,143.4L270.2,152.4L268.4,154.4L270.0,158.4L265.4,163.2L263.2,163.2L261.8,164.6L260.2,163.2L260.2,157.4L254.4,160.4L249.6,156.6L247.0,157.6L244.8,161.8L242.0,163.6L239.4,163.0L233.6,162.4L231.6,165.2L226.4,168.4L224.8,166.2L221.6,166.0L219.6,161.6L218.8,158.0L216.8,155.8L215.8,149.2L216.6,145.4L215.6,143.2L216.0,141.6L213.0,141.8L208.8,144.8L206.4,144.8L205.8,142.8L205.8,141.4L203.0,140.2L202.8,138.6L206.8,134.4L207.0,132.6L202.6,128.8L204.0,127.0L205.6,127.4L208.6,126.8L210.0,127.6L211.0,126.2L212.6,126.2L215.4,124.4L216.4,120.2L221.8,116.2L223.0,116.2L224.6,116.4L225.8,120.6L227.6,122.0L229.4,122.2L232.2,121.8L233.0,118.6L235.4,116.6L236.6,113.2L238.8,112.2L238.8,109.2L238.2,107.0L238.8,105.4L237.8,101.8L238.6,100.2L240.0,100.2L241.0,100.8L243.8,100.0L245.2,98.8L246.0,96.4L247.2,95.0L247.6,93.0L249.8,91.4L251.4,91.4L252.2,90.2L251.4,88.2Z" />
		<path id="L1610954864646" name="绍兴市" class="qing-map-1616124534079" d="M416.2,185.8L422.0,192.8L426.6,194.0L428.6,193.4L431.4,193.8L434.6,198.8L435.6,201.8L438.0,204.6L440.8,205.4L441.8,203.8L446.6,203.6L448.4,204.4L449.2,207.8L449.0,211.0L452.2,215.2L454.6,217.0L455.0,219.4L457.2,221.2L456.8,224.8L458.6,227.0L462.8,229.0L464.6,231.0L467.8,230.6L471.0,232.6L471.2,235.6L468.2,238.0L466.0,239.2L463.0,246.8L461.2,249.0L466.6,255.4L468.8,255.2L472.6,257.6L474.2,259.8L473.4,262.4L474.6,264.8L471.2,266.6L470.4,269.8L467.4,271.2L465.2,271.0L462.6,271.4L463.2,274.2L461.4,275.6L461.6,278.2L460.8,281.2L461.6,282.8L460.8,284.2L458.8,285.4L459.8,286.6L464.8,286.4L466.2,283.4L467.6,283.6L468.8,285.8L470.2,289.6L471.2,293.4L473.2,294.2L475.6,296.8L475.0,298.6L476.6,301.8L475.4,304.2L476.6,306.6L479.6,307.6L482.6,309.0L485.6,309.0L487.8,309.0L490.6,310.0L492.4,311.8L490.8,314.8L492.2,316.8L490.2,318.8L490.8,328.0L493.0,331.0L491.8,334.2L491.4,338.6L488.4,340.0L487.2,343.6L484.4,344.4L481.6,343.0L477.4,342.0L476.2,343.0L476.2,347.2L475.0,348.2L472.6,345.2L467.4,344.6L464.6,347.2L462.2,345.2L458.0,347.6L455.4,346.2L451.6,350.6L447.4,348.8L445.8,349.2L444.8,353.2L442.8,354.6L443.4,358.2L442.0,358.8L439.0,356.8L434.2,360.0L430.6,359.8L427.2,361.6L426.2,355.2L427.0,352.4L424.4,351.8L426.4,348.6L424.2,346.4L421.4,346.8L417.2,347.8L415.6,345.0L416.4,342.6L415.2,342.0L410.8,344.6L408.6,343.8L406.2,344.6L403.8,342.6L400.6,342.4L398.6,341.0L397.0,341.6L396.8,338.4L394.2,336.8L394.4,334.2L388.2,330.8L388.4,324.6L389.2,322.2L382.8,316.8L375.6,319.0L373.4,322.8L369.0,323.0L366.4,325.4L367.6,328.6L362.2,330.6L361.4,334.0L356.2,338.8L351.8,333.4L353.6,329.6L353.2,323.4L351.4,320.0L353.8,317.6L350.6,316.0L348.8,313.6L344.4,311.2L343.6,307.4L340.6,307.0L339.4,311.4L335.0,314.0L330.8,316.6L328.2,315.2L325.0,315.0L324.8,312.4L326.2,310.2L321.0,306.4L319.6,303.8L316.0,304.0L314.0,301.2L316.2,295.0L319.2,294.8L319.2,292.8L313.6,289.2L309.4,286.0L309.0,283.4L306.2,280.6L301.6,280.0L298.6,276.0L298.4,272.4L303.4,274.2L306.4,273.2L309.6,270.8L312.8,271.6L317.0,270.4L319.2,267.6L318.2,263.8L320.0,261.4L325.2,260.8L327.8,262.0L329.2,257.6L332.2,255.8L334.8,250.8L335.2,247.8L337.8,246.0L340.2,247.2L345.0,241.4L351.0,241.8L353.8,244.8L356.2,242.2L359.8,242.8L362.8,239.4L363.4,236.4L366.6,236.2L366.4,234.2L365.0,229.6L363.6,226.4L361.2,223.4L362.4,220.2L361.6,214.8L359.8,213.6L356.2,213.4L359.0,208.8L361.6,210.6L362.6,208.4L369.0,204.8L372.6,209.2L373.8,206.6L376.8,209.4L380.6,205.8L381.8,202.8L385.8,203.0L388.6,204.8L393.8,205.2L395.4,206.4L397.4,205.8L400.0,207.0L401.8,205.8L402.8,203.4L407.2,194.2L411.8,191.6ZM437.8,195.2L440.2,195.2L442.6,196.0L444.0,197.8L444.0,199.4L442.2,199.8L440.8,200.4L439.0,199.6L437.8,198.4L437.0,197.2Z" />
		<path id="L1610956168567" name="金华市" class="qing-map-1616124534079" d="M206.4,356.8L209.4,353.0L211.4,352.6L215.4,351.8L215.4,348.4L217.4,345.6L217.2,340.0L218.4,334.8L216.0,331.4L221.6,329.2L223.2,327.2L225.8,330.2L228.4,331.2L230.6,329.2L232.2,329.4L235.8,333.4L235.0,336.8L235.8,339.2L239.6,343.4L242.6,341.8L243.8,338.0L246.0,337.2L250.8,337.2L252.6,336.0L257.6,336.8L257.0,333.2L261.4,326.2L267.6,327.0L271.8,324.2L270.8,316.4L273.0,315.6L273.6,308.0L277.6,303.4L279.0,301.6L279.0,298.4L281.2,297.0L279.8,294.4L281.6,289.6L284.0,288.8L287.0,286.4L289.6,285.8L292.0,286.8L295.0,286.8L300.2,288.0L305.6,285.4L309.4,286.0L313.6,289.2L319.2,292.8L319.2,294.8L316.2,295.0L314.0,301.2L316.0,304.0L319.6,303.8L321.0,306.4L326.2,310.2L324.8,312.4L325.0,315.0L328.2,315.2L330.8,316.6L335.0,314.0L339.4,311.4L340.6,307.0L343.6,307.4L344.4,311.2L348.8,313.6L350.6,316.0L353.8,317.6L351.4,320.0L353.2,323.4L353.6,329.6L351.8,333.4L356.2,338.8L361.4,334.0L362.2,330.6L367.6,328.6L366.4,325.4L369.0,323.0L373.4,322.8L375.6,319.0L382.8,316.8L389.2,322.2L388.4,324.6L388.2,330.8L394.4,334.2L394.2,336.8L396.8,338.4L397.0,341.6L398.6,341.0L400.6,342.4L403.8,342.6L406.2,344.6L408.6,343.8L410.8,344.6L415.2,342.0L416.4,342.6L415.6,345.0L417.2,347.8L421.4,346.8L424.2,346.4L426.4,348.6L424.4,351.8L427.0,352.4L426.2,355.2L427.2,361.6L423.2,368.8L417.6,373.8L417.6,376.0L421.8,378.0L419.0,379.2L416.2,382.2L414.4,383.8L415.8,386.4L414.2,392.8L415.2,394.8L417.4,394.6L418.4,401.2L416.4,403.0L413.8,401.8L411.8,402.8L411.4,405.6L409.6,409.0L410.0,412.6L406.4,416.2L402.8,416.0L398.4,419.4L394.4,421.4L391.2,420.0L388.8,417.4L387.8,419.0L386.2,420.4L386.2,422.6L384.0,425.0L383.4,427.0L381.2,425.2L378.8,425.2L376.2,426.0L374.0,424.0L371.8,422.4L369.6,426.6L365.2,424.8L364.2,421.8L359.0,418.2L359.2,412.2L358.8,410.4L354.0,409.8L352.2,408.4L350.4,412.0L351.8,417.8L351.0,421.0L346.8,425.8L344.8,427.0L343.0,431.2L343.4,433.8L341.4,435.4L340.0,436.0L338.0,436.8L334.8,436.2L332.8,438.4L327.2,437.2L326.0,435.0L322.8,436.8L319.0,438.8L315.8,436.8L313.8,434.8L311.2,433.6L306.6,434.4L303.6,433.2L301.0,434.8L300.6,437.2L298.6,439.6L297.4,441.0L295.2,440.8L294.4,443.4L293.4,445.4L291.4,445.4L289.2,446.2L289.0,448.6L287.0,450.4L286.2,454.2L285.0,458.4L282.6,460.0L279.2,459.2L278.0,460.4L280.0,467.4L277.6,467.6L276.2,470.2L273.4,472.0L270.4,476.4L265.4,476.6L264.0,474.8L259.0,478.4L252.8,476.2L248.2,476.6L245.4,472.8L242.8,471.2L240.0,473.0L240.2,466.8L242.2,464.6L241.4,459.8L238.0,459.6L234.0,458.6L236.2,455.6L234.4,453.0L235.0,443.0L236.4,441.4L236.0,438.2L228.6,440.4L223.4,435.0L218.2,439.2L214.2,431.4L217.8,427.6L216.0,424.4L213.0,424.4L213.0,421.6L215.6,420.8L217.6,417.0L215.8,413.8L215.4,410.4L213.4,407.0L214.8,402.0L214.2,397.4L215.4,390.6L216.8,386.4L215.6,384.0L213.0,384.4L209.0,379.4L206.0,376.2L203.2,371.4L202.6,368.2L201.0,364.0L202.6,360.8Z" />
		<path id="L1610956714271" name="衢州市" class="qing-map-1616124534079" d="M72.0,319.4L73.0,322.2L79.0,327.6L82.0,328.2L81.0,330.0L82.8,331.4L82.0,333.6L85.6,336.2L87.6,336.0L89.6,338.6L92.2,337.6L94.2,339.0L98.2,337.8L98.6,339.8L100.8,342.6L105.4,342.6L109.4,345.0L114.4,354.2L111.6,353.6L111.0,355.6L111.4,360.2L113.6,362.8L114.6,366.0L122.0,365.0L125.4,367.2L127.8,366.0L129.4,363.2L134.0,361.8L133.4,357.0L136.4,356.0L140.2,351.8L142.2,351.6L146.4,348.6L149.0,345.0L151.6,344.8L154.4,344.6L162.2,349.6L161.8,353.0L165.0,355.6L165.8,360.6L169.2,363.8L171.8,362.6L182.8,360.8L186.0,360.0L188.2,362.0L191.0,361.8L195.0,363.4L196.8,360.8L198.8,358.6L196.0,355.6L195.6,352.8L197.6,350.2L200.6,350.0L201.6,352.6L203.4,356.6L204.8,358.2L202.6,360.8L201.0,364.0L202.6,368.2L203.2,371.4L206.0,376.2L209.0,379.4L213.0,384.4L215.6,384.0L216.8,386.4L215.4,390.6L214.2,397.4L214.8,402.0L213.4,407.0L215.4,410.4L215.8,413.8L217.6,417.0L215.6,420.8L213.0,421.6L213.0,424.4L216.0,424.4L217.8,427.6L214.2,431.4L211.2,431.8L208.2,431.6L204.8,437.0L201.8,438.8L196.6,435.6L192.8,440.0L188.0,443.0L182.8,441.6L180.0,443.0L177.0,443.0L173.6,446.2L171.4,447.4L162.6,457.4L160.0,457.2L157.6,458.2L156.8,461.6L155.4,463.6L154.8,470.0L149.0,479.2L145.6,476.0L142.0,474.6L138.6,476.6L134.6,479.2L132.2,477.8L127.8,483.0L127.6,488.2L128.2,495.6L131.8,496.2L132.2,499.2L129.6,506.6L127.2,509.2L125.0,510.0L124.2,513.2L123.2,515.0L123.0,517.0L119.6,520.2L117.2,518.8L113.2,521.6L111.8,520.4L110.0,522.0L109.0,521.6L109.2,519.6L106.0,517.2L100.2,520.2L98.6,519.0L97.4,519.4L95.4,518.6L94.0,520.2L95.2,523.6L93.4,525.0L92.2,524.2L87.0,523.2L86.4,520.6L85.2,518.8L85.0,517.8L89.8,514.4L90.8,512.4L92.8,511.0L91.2,510.2L91.0,507.0L89.4,504.8L88.6,501.8L86.8,499.8L86.6,498.8L85.4,497.4L87.6,496.6L88.0,494.8L90.2,490.8L89.6,489.0L90.6,487.4L90.6,485.2L88.4,485.4L86.2,483.2L84.0,482.8L83.6,482.0L86.6,480.2L86.0,479.0L84.6,478.6L84.0,475.0L82.0,470.6L83.2,469.8L82.8,468.4L84.2,467.0L82.8,464.6L85.0,461.4L83.8,458.6L84.8,455.8L84.4,452.2L83.0,451.4L82.8,449.6L80.2,448.2L80.6,445.8L79.8,443.2L79.2,441.2L79.2,439.2L78.0,438.4L77.6,436.0L77.4,434.0L76.4,432.4L76.2,431.0L74.8,430.4L70.4,429.8L69.2,428.8L65.4,427.0L66.8,425.6L65.4,424.0L64.6,421.4L62.4,416.2L59.6,411.8L52.0,414.2L50.4,414.2L50.8,412.4L55.0,408.2L54.6,407.4L50.8,406.4L49.6,403.0L47.0,401.2L43.2,400.8L42.2,402.4L40.0,399.8L40.8,398.0L40.6,396.0L39.2,396.2L38.4,397.8L37.8,399.6L34.8,396.6L34.6,393.6L32.6,392.2L31.6,390.8L31.6,390.0L33.0,388.0L32.6,385.8L31.6,385.0L27.8,382.8L27.4,381.6L29.8,380.0L28.0,377.2L28.6,373.4L27.4,371.2L26.4,370.8L28.4,363.2L33.0,362.8L33.6,360.2L34.2,358.8L33.2,357.4L33.6,356.0L33.2,350.6L36.8,351.4L38.2,350.4L41.0,351.6L43.8,351.4L46.6,352.4L46.6,350.6L47.8,349.2L47.0,346.4L49.2,342.6L52.0,341.2L52.8,338.2L51.6,337.4L52.6,336.0L50.2,333.8L52.0,332.2L53.8,328.2L56.2,328.2L58.2,327.0L59.4,328.0L62.4,327.8L64.8,329.2L68.0,328.0L67.8,321.8L66.6,316.6L69.0,316.0Z" />
		<path id="L1610958064723" name="舟山市" class="qing-map-1616124534079" d="M598.4,201.0L600.6,202.4L603.4,205.6L607.6,205.6L611.2,207.0L615.0,205.8L617.8,205.6L619.2,205.0L621.6,206.6L623.8,209.6L626.4,212.8L631.2,213.4L634.0,215.8L638.0,215.4L641.4,218.8L641.6,220.8L646.8,221.0L649.6,225.0L651.6,226.6L652.8,228.4L653.8,228.2L653.2,231.4L650.4,235.8L651.8,236.8L651.2,241.0L650.4,241.4L648.4,243.8L647.0,243.2L646.4,242.0L645.4,241.8L643.0,239.83L638.5,236.83L630.0,233.33L622.67,233.17L620.5,230.5L616.33,230.5L614.67,229.67L610.17,233.0L608.67,232.5L606.67,226.67L602.5,222.83L601.5,221.17L603.33,219.0L603.0,214.17L598.5,207.67L596.83,203.17ZM655.33,239.0L657.0,240.33L658.5,239.83L658.83,241.17L662.5,241.5L663.83,240.67L665.0,241.33L666.0,244.33L663.5,245.5L664.67,246.33L667.17,247.0L666.33,248.5L667.67,250.5L666.17,250.5L664.33,252.83L663.17,252.83L662.0,254.66L662.67,256.33L664.67,257.33L664.0,259.5L661.5,258.83L660.0,257.5L658.83,254.0L660.0,252.5L659.0,248.83L657.0,247.5L656.5,246.0L653.5,244.5L652.83,241.67ZM583.67,217.67L586.5,217.0L587.0,218.0L588.33,217.83L589.17,221.0L590.67,222.33L593.0,221.83L593.17,223.17L592.5,224.83L593.67,226.83L594.17,231.5L589.0,234.67L588.17,234.67L586.67,236.83L583.83,236.5L583.33,234.83L581.83,232.0L583.33,229.17L582.0,224.17L583.67,219.83ZM640.5,257.5L642.83,257.5L645.33,258.67L647.67,258.67L648.83,260.33L650.67,260.67L650.67,262.0L649.17,261.67L647.83,261.83L647.67,263.0L648.83,263.17L649.83,263.67L649.83,264.67L649.17,266.0L650.67,267.17L652.0,268.67L650.67,269.17L650.17,270.17L649.17,270.17L648.5,269.0L646.83,268.5L644.33,267.0L643.67,265.33L640.83,263.5L640.67,262.5L638.17,260.33L637.5,259.0L638.33,258.17ZM621.17,268.33L622.83,267.17L623.83,269.17L623.83,272.0L627.0,276.5L629.0,276.83L630.5,278.67L633.0,279.5L634.67,283.17L633.5,284.5L631.5,289.83L630.33,290.0L630.33,288.83L631.0,287.67L630.33,286.33L628.83,287.83L627.33,286.17L623.5,286.17L624.67,285.17L624.0,283.0L621.17,281.5L620.83,278.5L618.83,277.83L617.5,277.17L615.83,277.67L614.17,278.17L612.33,279.17L614.83,272.17L615.33,270.33L617.0,268.83ZM579.83,217.33L581.0,218.0L581.83,219.0L582.5,220.33L581.67,220.5L580.5,220.33L579.83,219.0L579.17,218.17ZM592.4,215.1L595.9,212.5L598.5,213.6L598.0,214.8L598.1,216.6L597.3,217.4L597.2,219.3L595.6,219.6L595.3,218.1ZM600.2,215.3L600.6,216.1L601.8,215.4ZM601.7,217.4L601.3,219.3L602.7,218.5ZM611.8,233.2L610.5,234.3L611.9,235.2ZM615.1,232.1L615.1,235.7L617.9,233.7L616.5,231.9ZM611.1,237.6L612.7,238.3L610.7,242.7L608.9,239.7ZM616.7,239.5L617.6,239.4L618.4,240.9L617.2,241.3ZM621.0,235.4L620.7,237.2L622.3,238.1L622.7,235.5ZM626.1,235.6L629.2,234.0L633.0,237.7L632.4,238.2L629.1,236.3L626.0,236.6ZM624.7,238.7L627.9,237.3L629.0,239.1L628.3,239.8L626.6,239.6L625.8,239.7L624.9,240.0ZM637.7,238.3L639.3,240.4L641.0,240.2L641.4,239.6L639.0,238.3ZM642.2,252.9L642.6,254.0L643.6,254.1L644.0,253.7L643.7,252.7ZM647.7,252.0L652.1,252.5L654.0,251.9L653.7,254.7L649.8,256.6L647.6,256.0L647.1,254.7ZM632.4,262.3L632.6,263.3L633.5,263.7L633.7,262.7ZM631.6,266.3L633.1,265.9L633.2,267.2ZM639.2,268.3L641.8,269.5L640.3,271.9L643.1,274.3L649.2,275.1L649.2,276.8L646.8,277.2L644.4,276.0L641.8,275.6L638.5,272.5L636.2,270.4ZM609.2,272.3L610.8,272.4L611.0,274.2L609.6,274.9L608.8,276.6L607.4,277.0L606.9,274.0ZM635.3,280.3L637.6,280.4L638.1,282.0L641.8,283.1L640.0,284.1L638.2,282.7L637.0,282.5L635.1,281.2ZM644.2,284.3L645.0,285.5L645.5,284.0ZM670.6,241.6L671.1,240.9L671.3,242.7ZM660.2,228.0L662.3,227.9L663.4,226.5L663.9,226.9L662.9,228.4L662.9,229.5L664.9,230.7L662.2,231.0L660.3,235.8L659.2,234.9L659.7,231.8L660.3,230.4ZM647.7,216.1L648.5,216.2L646.9,218.2L645.9,218.2ZM607.7,200.5L609.1,203.4L613.6,199.7L612.0,197.9ZM622.5,178.1L623.4,178.6L624.2,179.3L625.3,179.2L626.5,177.8L628.3,178.0L630.2,177.3L631.3,176.1L636.1,175.6L637.0,178.6L640.0,180.4L636.9,182.1L638.1,185.0L637.0,186.9L637.0,191.8L635.9,191.1L634.4,191.3L633.1,189.9L627.4,189.3L624.9,188.5L620.0,184.1L617.3,183.6L617.6,182.7L618.6,182.0L618.7,180.2ZM643.4,186.4L644.4,186.7L647.0,186.9L648.3,187.4L649.4,187.2L649.6,188.8L648.3,188.9L646.2,189.1L642.9,190.8L643.0,189.4L642.1,188.4ZM652.3,186.9L654.9,186.4L656.9,186.3L661.1,186.0L663.2,185.2L663.8,187.5L665.3,189.3L663.4,192.5L662.4,191.1L660.5,190.6L660.9,189.1L659.8,187.6L656.6,189.1L656.7,190.5L653.1,192.2L651.6,191.4L649.3,192.4L647.9,192.0L646.4,192.6L645.2,191.0L650.7,189.4ZM629.0,198.2L634.0,199.8L631.5,202.2L631.6,204.5L630.4,204.6L629.7,206.6L628.5,206.5L626.0,204.0L626.7,199.9L627.9,199.2ZM646.7,151.7L650.3,153.8L650.9,152.9L652.6,153.4L654.4,153.4L656.1,154.3L658.5,152.9L660.2,155.2L665.3,155.8L666.4,156.9L665.2,158.7L668.0,161.2L666.9,162.2L664.1,161.4L663.2,159.8L660.9,159.8L658.9,160.8L657.4,159.3L655.7,159.3L654.2,159.3L652.1,159.2L651.7,160.7L652.2,161.7L651.0,161.8L649.7,160.8L647.7,160.4L645.8,156.3L646.3,155.0L646.1,152.7ZM671.6,159.3L672.4,158.2L674.9,160.8ZM599.8,176.1L600.6,175.7L601.7,174.2L601.7,175.0L601.0,176.8L600.3,178.1L600.3,180.0L598.7,181.8L598.2,179.1L599.6,177.5L599.7,176.5ZM614.4,180.4L613.1,181.2L614.9,181.6ZM625.0,193.9L622.9,195.3L623.7,195.6L624.7,195.4ZM631.5,192.7L633.4,193.4L634.0,195.0L631.3,194.3ZM675.0,192.4L674.9,193.3L677.1,194.3L677.6,193.5ZM698.7,197.0L698.2,197.2L698.9,198.3ZM703.2,196.8L705.0,200.1L705.2,197.6ZM716.1,207.9L715.7,208.8L716.7,210.0L718.2,209.8L717.8,208.8L716.7,208.0ZM610.6,123.4L613.8,122.5L618.8,127.5L618.2,129.5ZM613.7,131.4L615.5,131.3L616.7,133.0L615.4,133.7ZM620.5,129.4L622.3,129.4L623.8,130.2L622.9,130.5ZM668.3,106.5L668.9,105.9L669.8,106.3L671.1,108.1L671.4,109.1L672.8,109.4L674.1,111.2L677.8,111.3L678.5,110.3L680.1,110.8L681.5,111.0L682.0,112.6L678.7,112.1L676.9,112.7L675.4,112.2L672.8,113.5L667.5,113.4L667.2,112.5L669.1,111.6L669.7,109.1L669.6,107.4ZM670.9,104.3L671.2,105.2L671.7,105.5L672.9,104.8L672.7,104.4ZM702.7,87.8L703.5,86.4L705.3,89.1ZM698.5,92.8L698.7,93.5L699.9,93.1L699.5,92.4ZM685.0,119.3L687.9,118.3L688.9,120.0L685.2,120.6ZM715.7,111.2L718.8,108.6L718.7,111.1L719.0,112.9L718.5,113.1L718.0,111.8L716.2,111.8ZM722.8,108.7L723.0,110.4L725.2,110.3L725.8,112.5L726.1,109.9L725.4,108.7ZM643.0,143.1L644.2,143.0L644.2,144.3L642.9,144.4ZM651.8,144.9L655.0,143.0L654.4,145.9Z" />
		<path id="L1610959636695" name="台州市" class="qing-map-1616124534079" d="M376.2,426.0L378.8,425.2L381.2,425.2L383.4,427.0L384.0,425.0L386.2,422.6L386.2,420.4L387.8,419.0L388.8,417.4L391.2,420.0L394.4,421.4L398.4,419.4L402.8,416.0L406.4,416.2L410.0,412.6L409.6,409.0L411.4,405.6L411.8,402.8L413.8,401.8L416.4,403.0L418.4,401.2L417.4,394.6L415.2,394.8L414.2,392.8L415.8,386.4L414.4,383.8L416.2,382.2L419.0,379.2L421.8,378.0L417.6,376.0L417.6,373.8L423.2,368.8L427.2,361.6L430.6,359.8L434.2,360.0L439.0,356.8L442.0,358.8L443.4,358.2L442.8,354.6L444.8,353.2L445.8,349.2L447.4,348.8L451.6,350.6L455.4,346.2L458.0,347.6L462.2,345.2L464.6,347.2L467.4,344.6L472.6,345.2L475.0,348.2L476.2,347.2L476.2,343.0L477.4,342.0L481.6,343.0L484.4,344.4L487.2,343.6L488.8,347.4L485.6,349.8L484.6,354.6L483.0,357.0L483.8,358.6L484.0,364.2L488.2,365.0L490.2,364.0L492.2,365.0L493.0,368.2L496.8,373.2L496.6,378.8L501.4,383.8L502.4,381.6L505.4,380.0L508.6,378.4L509.4,376.4L510.0,372.6L511.6,370.4L512.4,367.8L514.4,366.0L517.6,368.6L519.0,372.4L523.8,372.0L524.2,373.2L526.4,374.4L526.6,375.8L528.2,375.6L531.6,376.6L532.2,378.2L537.6,378.6L538.2,379.4L532.4,381.0L527.8,380.4L526.8,381.4L530.6,382.4L537.8,381.2L540.4,379.8L545.2,380.0L548.0,381.6L550.8,381.6L552.4,382.8L551.6,384.4L551.0,386.4L551.4,387.4L551.8,389.0L551.6,391.6L545.6,391.8L543.2,390.0L538.8,390.4L538.2,391.8L538.0,394.8L536.8,396.2L536.8,398.4L540.6,396.8L539.6,395.4L540.0,393.8L540.0,392.2L540.6,391.4L542.6,391.6L545.2,393.8L547.6,393.4L551.2,393.4L554.2,390.4L555.6,391.8L555.0,394.6L557.0,395.6L557.8,394.8L558.4,397.6L558.4,399.8L556.4,402.6L558.6,405.0L560.4,405.2L560.2,407.0L562.6,408.2L564.0,408.0L562.4,410.4L561.4,413.8L560.6,412.6L557.4,414.2L555.8,415.2L553.6,414.0L552.0,414.2L546.4,411.6L541.6,410.0L539.6,407.0L536.8,407.0L534.6,408.8L538.4,410.8L539.4,413.0L540.4,415.4L544.2,414.6L546.8,416.6L548.8,415.8L552.6,418.2L553.2,421.4L556.6,422.2L558.2,424.2L556.6,425.8L558.2,426.8L558.8,428.8L556.4,430.2L556.4,432.4L558.2,432.4L558.8,434.4L555.0,434.4L553.0,436.0L552.2,443.6L552.6,446.6L551.0,446.0L549.6,446.4L548.6,447.8L544.4,447.4L540.2,450.0L537.0,450.0L534.4,455.6L535.8,462.4L535.2,463.4L535.8,466.2L537.2,468.6L541.8,477.4L546.4,478.0L548.2,475.8L550.0,478.0L549.4,480.4L545.8,483.4L544.4,483.4L544.4,484.4L547.4,485.8L548.0,487.8L547.0,494.6L552.8,497.2L555.6,498.6L553.0,501.4L554.6,502.0L549.2,506.2L551.0,508.4L553.4,507.4L554.4,508.2L556.0,508.8L553.4,512.4L552.8,516.2L549.4,520.0L549.4,521.6L547.0,523.2L545.2,523.2L545.6,520.6L543.6,520.2L543.8,515.8L539.6,513.6L534.4,510.6L528.0,511.0L526.8,511.4L526.4,514.4L524.8,514.4L524.0,516.2L521.4,514.2L519.8,517.0L521.6,520.8L521.0,522.2L521.8,524.2L519.2,526.6L518.0,530.0L516.2,530.6L515.2,528.6L513.8,528.6L513.4,529.6L514.8,531.8L514.0,533.0L515.8,535.0L515.8,536.0L515.8,537.6L514.8,538.6L514.0,538.6L512.8,540.6L509.6,541.4L508.4,540.6L507.2,538.4L506.6,536.6L504.0,536.6L502.8,534.6L502.6,533.0L501.6,533.2L500.8,535.0L499.6,536.0L498.0,537.0L496.8,540.0L498.0,544.2L500.0,547.4L501.6,547.2L501.8,549.0L501.0,550.2L501.6,552.6L500.0,553.2L497.8,551.8L495.2,551.6L493.2,551.6L495.2,553.0L495.8,554.4L494.2,555.4L492.4,554.2L490.8,556.6L485.8,558.8L484.8,557.6L483.2,557.2L482.4,553.4L480.8,551.4L480.4,550.0L479.2,548.2L478.8,542.8L483.0,541.4L484.0,540.6L484.8,540.6L487.8,537.6L489.2,537.4L489.0,534.4L490.2,532.6L488.4,529.0L491.0,521.6L492.8,521.2L494.2,520.0L494.4,517.4L493.2,515.4L493.2,514.4L490.8,512.0L491.0,509.8L492.6,508.8L494.6,508.4L494.4,507.6L492.8,507.0L491.6,507.0L490.8,506.6L489.0,505.0L488.6,503.4L490.0,503.0L492.2,501.8L495.0,500.2L495.6,496.4L491.8,494.6L492.0,493.0L490.0,491.2L489.6,489.0L486.6,486.4L484.0,483.4L483.8,480.6L481.2,478.6L478.2,478.4L474.8,476.2L472.6,478.8L471.4,482.2L467.6,486.0L465.4,485.2L463.2,486.4L460.8,485.8L457.2,485.4L454.4,485.0L451.8,481.8L448.6,481.2L444.2,484.8L438.8,482.6L438.8,480.2L434.6,477.8L436.0,474.8L434.0,471.2L430.8,470.8L429.4,468.4L424.2,466.4L422.6,463.6L419.2,464.4L415.8,463.6L415.6,465.6L412.0,469.0L408.0,468.6L407.2,471.8L404.4,471.6L403.8,476.4L393.0,476.0L386.8,472.4L385.2,468.8L381.8,467.6L378.2,468.2L377.0,469.8L376.4,472.4L376.2,474.8L375.0,477.4L374.4,481.0L373.6,484.2L371.6,486.2L369.2,488.2L369.0,484.0L365.6,482.0L363.0,482.0L359.6,479.0L356.8,480.2L355.6,475.8L360.4,472.2L361.4,468.6L364.4,469.0L368.0,468.4L368.4,464.6L365.2,460.8L364.6,457.6L360.8,454.6L360.6,449.2L365.0,445.6L364.8,443.2L367.2,441.8L367.4,436.2L370.0,434.0L372.8,433.6L373.0,429.0ZM539.8,370.6L538.4,375.0L541.2,376.0L546.0,375.4L546.2,373.4L545.0,371.8L543.4,371.0ZM555.0,416.4L556.6,417.6L558.0,416.8L560.0,417.4L560.2,416.0L558.0,415.4L557.0,415.4ZM481.8,526.6L484.2,525.6L485.0,527.4L482.8,530.0L481.6,529.4ZM548.4,484.4L548.6,483.4L551.6,483.8L551.2,485.4ZM553.8,487.4L555.2,487.0L555.6,488.2L555.4,489.6L554.4,490.0L553.2,489.2ZM587.4,481.4L588.4,480.2L590.0,482.0L591.6,482.2L588.4,486.2L587.0,485.6L588.4,483.8ZM588.2,490.2L586.8,492.4L588.4,493.0L590.6,491.2L592.6,490.4ZM583.6,440.8L584.8,441.0L585.6,443.2L584.2,444.0L583.2,443.0ZM570.8,449.8L573.4,451.8L574.4,450.6L571.4,448.6ZM582.4,434.8L583.2,433.8L584.2,434.0L583.8,435.2L582.8,436.2ZM585.0,430.0L583.6,432.0L584.4,432.2ZM557.8,517.4L557.4,519.2L560.2,519.2ZM535.0,548.4L535.6,550.0L533.0,551.8ZM555.2,388.8L557.6,390.2L556.8,387.6Z" />
		<path id="L1610960585475" name="丽水市" class="qing-map-1616124534079" d="M124.2,513.2L125.0,510.0L127.2,509.2L129.6,506.6L132.2,499.2L131.8,496.2L128.2,495.6L127.6,488.2L127.8,483.0L132.2,477.8L134.6,479.2L138.6,476.6L142.0,474.6L145.6,476.0L149.0,479.2L154.8,470.0L155.4,463.6L156.8,461.6L157.6,458.2L160.0,457.2L162.6,457.4L171.4,447.4L173.6,446.2L177.0,443.0L180.0,443.0L182.8,441.6L188.0,443.0L192.8,440.0L196.6,435.6L201.8,438.8L204.8,437.0L208.2,431.6L211.2,431.8L214.2,431.4L218.2,439.2L223.4,435.0L228.6,440.4L236.0,438.2L236.4,441.4L235.0,443.0L234.4,453.0L236.2,455.6L234.0,458.6L238.0,459.6L241.4,459.8L242.2,464.6L240.2,466.8L240.0,473.0L242.8,471.2L245.4,472.8L248.2,476.6L252.8,476.2L259.0,478.4L264.0,474.8L265.4,476.6L270.4,476.4L273.4,472.0L276.2,470.2L277.6,467.6L280.0,467.4L278.0,460.4L279.2,459.2L282.6,460.0L285.0,458.4L286.2,454.2L287.0,450.4L289.0,448.6L289.2,446.2L291.4,445.4L293.4,445.4L294.4,443.4L295.2,440.8L297.4,441.0L298.6,439.6L300.6,437.2L301.0,434.8L303.6,433.2L306.6,434.4L311.2,433.6L313.8,434.8L315.8,436.8L319.0,438.8L322.8,436.8L326.0,435.0L327.2,437.2L332.8,438.4L334.8,436.2L338.0,436.8L340.0,436.0L341.4,435.4L343.4,433.8L343.0,431.2L344.8,427.0L346.8,425.8L351.0,421.0L351.8,417.8L350.4,412.0L352.2,408.4L354.0,409.8L358.8,410.4L359.2,412.2L359.0,418.2L364.2,421.8L365.2,424.8L369.6,426.6L371.8,422.4L374.0,424.0L376.2,426.0L373.0,429.0L372.8,433.6L370.0,434.0L367.4,436.2L367.2,441.8L364.8,443.2L365.0,445.6L360.6,449.2L360.8,454.6L364.6,457.6L365.2,460.8L368.4,464.6L368.0,468.4L364.4,469.0L361.4,468.6L360.4,472.2L355.6,475.8L356.8,480.2L359.6,479.0L363.0,482.0L365.6,482.0L369.0,484.0L369.2,488.2L367.8,490.4L368.4,493.4L368.2,496.2L366.4,494.2L364.4,494.0L362.6,497.4L362.6,500.6L363.2,503.0L365.4,504.6L365.4,508.4L366.2,510.6L368.2,511.8L370.0,512.0L372.4,514.2L374.2,516.6L375.0,519.2L375.2,523.0L376.6,524.6L376.6,526.8L373.8,529.2L374.8,532.2L375.8,534.4L374.0,535.6L374.0,538.4L371.0,539.8L370.4,541.6L372.6,543.8L372.4,547.4L369.2,549.4L366.2,551.6L367.4,555.2L364.6,556.0L363.6,558.0L363.8,561.8L361.8,565.0L364.0,566.8L362.6,568.6L360.2,568.6L356.6,568.6L353.2,571.8L349.8,571.6L349.2,575.4L345.0,575.8L340.0,572.6L338.4,568.2L333.8,569.0L330.8,567.6L327.8,568.2L326.0,570.2L323.2,570.4L323.0,572.4L320.8,572.8L318.0,574.8L315.8,574.2L310.8,575.2L307.8,573.8L309.0,570.6L307.4,569.2L303.0,569.4L298.0,572.8L295.6,569.8L294.0,570.6L289.8,571.2L289.0,573.0L291.6,575.0L288.6,579.0L285.4,577.6L282.0,580.2L284.8,583.0L282.4,587.0L281.2,598.6L278.6,597.8L273.0,603.8L267.2,606.6L265.2,610.4L262.2,612.2L263.0,615.4L261.8,617.2L261.0,620.6L257.4,618.4L253.2,620.0L251.6,619.2L249.4,620.8L247.0,618.6L245.6,620.6L244.0,621.2L242.6,622.8L241.4,621.8L240.6,622.6L239.8,626.6L240.8,628.2L238.8,630.8L238.4,633.8L239.0,636.0L236.2,641.0L235.8,643.0L231.4,645.8L230.6,642.8L229.0,641.2L223.2,641.8L219.6,643.4L218.2,643.6L218.2,647.8L216.0,650.0L214.0,650.4L213.2,652.6L210.2,653.4L208.2,655.2L206.2,659.6L204.6,660.0L203.4,659.0L202.0,660.6L198.8,660.2L196.8,660.2L194.6,659.0L189.4,658.6L188.0,657.4L186.4,657.6L185.6,656.6L185.8,653.6L186.2,651.2L185.2,649.8L183.2,650.2L180.6,651.8L179.8,653.0L178.8,651.6L176.4,652.2L174.6,650.2L173.4,650.8L171.0,647.6L169.4,648.0L167.2,647.6L166.0,646.6L165.0,646.8L165.4,649.2L165.6,651.0L163.0,651.6L161.4,655.4L157.8,653.0L154.2,653.0L151.4,647.6L150.2,646.8L149.8,643.2L147.6,643.4L148.8,640.6L150.4,640.4L152.8,636.8L155.2,635.8L153.6,633.8L153.8,629.4L155.8,628.6L153.6,625.8L153.0,621.8L149.6,617.0L150.6,616.0L149.8,614.0L152.8,613.4L149.2,608.2L147.2,603.8L146.6,601.4L144.6,600.6L144.6,599.6L146.0,598.8L145.8,597.6L145.0,596.2L144.0,593.0L142.6,589.2L144.0,587.2L142.4,584.6L141.2,578.6L139.6,577.8L138.6,576.2L132.4,574.0L128.8,569.4L129.0,565.8L129.0,564.8L127.8,562.4L129.4,558.8L127.0,557.6L126.8,554.2L131.0,549.6L133.4,548.8L134.8,546.2L138.0,546.0L139.2,544.0L138.8,542.4L139.6,541.4L139.4,539.2L138.4,536.8L137.0,535.8L134.2,536.2L134.2,534.6L134.4,533.8L135.6,532.8L138.4,530.4L140.2,527.0L138.0,524.6L135.4,524.6L133.6,525.6L131.8,523.6L131.4,522.6L129.2,520.8L129.2,518.6L127.6,516.6L127.8,514.0L126.6,512.6Z" />
	</g>
</svg>
