<svg xmlns="http://www.w3.org/2000/svg" viewBox="0,0,800,807" width="100%" height="100%">
	<defs>
		<style type="text/css">
.qing-map-1616122034125
{
	fill: #DDDDDD;
	fill-opacity: 1.0;
	stroke: #FFFFFF;
	stroke-opacity: 1.0;
	stroke-width: 1;
}

.qing-map-1616122034125:hover
{
	fill: #56A4FF;
	fill-opacity: 1.0;
}
</style>
	</defs>
	<g>
		<path id="L1611048635366" name="崇明区" class="qing-map-1616122034125" d="M465.8,134.2L475.4,139.0L482.8,141.6L482.6,143.2L482.4,144.6L483.6,146.8L479.4,146.2L472.8,143.4L469.0,140.4L467.0,138.0L465.4,136.4ZM225.67,112.33L221.67,109.0L220.0,109.0L216.33,106.67L210.33,97.67L206.33,91.67L204.0,87.33L194.0,76.67L189.67,72.0L186.33,59.33L190.67,52.33L196.33,48.33L205.0,41.0L213.0,37.33L219.0,35.0L227.0,32.0L236.33,26.0L244.0,20.67L246.0,17.33L252.0,15.33L258.0,14.67L263.67,14.67L271.0,17.67L281.0,23.67L290.33,29.33L297.0,34.0L304.67,39.33L310.67,42.67L314.0,47.67L317.67,52.33L319.0,55.33L323.0,57.67L325.33,61.0L325.67,63.33L323.67,65.33L329.0,75.67L334.33,81.67L342.0,84.33L344.0,85.0L346.33,87.67L351.67,89.33L355.0,89.33L367.67,92.0L373.0,93.33L378.0,96.67L382.33,100.0L389.0,101.0L390.67,103.0L396.67,104.0L396.0,105.67L401.0,109.67L403.0,108.67L416.67,119.67L431.33,126.67L432.33,123.0L450.0,130.67L451.67,131.0L463.0,139.67L464.0,142.0L467.67,145.33L470.0,148.33L473.33,149.67L474.33,152.67L471.0,153.33L468.67,152.67L463.67,151.0L460.67,150.0L459.33,148.33L457.0,148.67L456.0,151.0L462.33,155.67L470.0,159.33L478.33,163.0L486.0,167.0L493.0,170.33L500.33,172.67L509.33,175.67L514.67,177.67L522.33,179.0L535.0,183.67L542.0,185.0L549.67,186.0L558.33,186.67L565.33,187.33L571.67,189.67L578.67,190.67L587.33,194.0L593.33,196.0L598.67,199.0L604.33,204.67L607.33,207.0L608.67,208.33L611.0,210.33L618.33,215.67L623.33,220.67L629.67,226.33L635.0,231.0L640.33,236.33L643.33,241.67L645.67,248.33L646.67,257.0L645.33,266.0L643.33,272.67L638.67,279.33L634.33,282.0L631.0,281.33L629.33,283.67L625.67,283.67L620.67,289.0L615.67,292.33L608.67,295.0L603.0,296.0L597.67,296.33L593.33,299.67L583.33,301.67L581.67,299.67L580.0,301.33L562.0,302.67L559.67,300.67L551.0,296.33L548.0,294.33L534.33,284.67L530.0,284.0L525.67,280.33L521.0,277.67L516.67,274.67L510.0,272.67L505.67,270.0L502.67,267.33L497.33,263.67L495.33,262.33L491.0,260.33L484.67,257.0L481.67,257.67L473.67,253.67L469.0,252.67L466.67,251.0L464.0,251.33L459.67,248.67L453.67,247.67L446.67,248.0L444.67,247.0L442.33,247.67L440.67,246.33L432.0,245.0L432.0,243.0L423.0,240.33L420.33,237.67L417.33,238.0L415.67,235.33L412.0,233.67L409.0,231.33L407.0,232.33L397.0,226.0L392.67,221.67L389.67,220.67L388.0,218.33L366.33,205.33L363.0,203.33L358.67,203.33L353.0,200.0L346.33,196.67L342.33,194.0L339.0,194.0L328.67,186.33L325.67,186.0L321.33,183.33L317.67,182.67L313.33,182.33L312.33,180.67L309.0,178.33L306.67,176.0L302.67,172.33L298.0,168.33L293.33,165.67L290.33,165.0L287.0,161.33L284.33,159.0L278.0,155.0L273.67,151.0L270.33,146.0L265.67,142.0L263.67,137.33L260.0,133.67L258.67,130.33L252.67,124.67L248.33,119.67L243.0,115.33L236.33,113.0L231.33,111.67ZM250.4,126.8L246.2,122.2L245.4,119.8L243.2,117.6L239.6,115.4L235.8,114.4L233.6,114.2L231.2,114.4L230.4,116.0L234.4,123.6L245.2,129.0L250.4,130.8L250.8,129.0ZM252.2,128.4L253.4,131.0L255.4,130.6ZM262.4,157.2L260.4,157.8L261.4,160.4L264.4,160.0ZM419.8,273.8L419.8,276.0L424.0,281.2L426.4,283.8L430.6,286.4L433.6,288.0L439.4,292.2L443.2,293.6L447.6,293.8L449.0,291.6L446.8,288.8L444.2,286.0L436.6,278.0L431.4,275.2L426.2,273.2L422.6,272.8L421.2,272.8ZM451.6,279.4L450.8,281.2L455.2,284.8L459.2,285.8L459.2,284.2L456.0,281.8ZM392.6,263.6L383.4,263.6L381.4,266.0L383.4,270.8L392.0,275.2L397.6,279.2L405.6,286.6L411.6,294.8L415.2,297.6L418.4,300.2L420.2,302.0L422.2,302.0L426.4,305.4L429.0,306.6L432.4,307.2L434.8,307.4L438.0,310.0L441.6,311.8L444.0,313.8L447.6,316.0L449.4,317.4L451.8,319.6L454.6,321.8L463.2,327.4L466.6,328.8L470.6,332.2L476.6,335.8L481.2,339.4L492.2,345.4L496.8,348.4L501.0,351.4L506.6,357.2L511.6,362.4L516.6,366.8L516.8,368.8L518.4,372.4L521.6,377.0L525.4,380.2L529.4,381.6L533.4,381.8L536.4,379.4L538.0,376.0L537.8,362.6L537.0,352.6L535.2,347.0L533.0,342.4L528.0,336.2L523.4,332.4L516.4,328.0L514.2,329.8L511.6,327.8L510.0,326.4L507.4,322.6L505.2,322.8L491.6,315.4L488.8,313.0L485.2,310.6L481.4,309.8L477.2,309.6L473.6,308.8L469.6,307.2L465.4,306.0L461.0,304.8L456.4,303.4L451.4,301.4L449.0,300.0L444.6,298.4L439.2,296.4L433.0,294.0L426.4,291.2L423.8,290.4L420.6,290.2L418.8,287.4L416.4,284.4L413.8,280.4L412.6,275.6L411.2,272.2L407.4,269.2L403.4,268.8L399.6,268.0ZM539.0,338.2L539.4,341.8L542.4,346.4L544.4,350.2L544.6,359.8L545.2,371.6L546.6,374.0L553.6,384.0L559.4,388.2L565.6,392.2L570.0,395.4L572.4,395.8L577.0,393.2L579.2,390.4L581.4,385.6L582.6,384.2L585.0,382.8L591.0,372.6L591.8,370.6L590.8,367.8L592.0,365.6L590.8,364.4L588.2,355.4L584.8,349.8L583.8,350.8L578.2,348.0L575.6,347.2L571.8,345.2L566.8,342.2L558.8,342.0L553.6,339.4L545.6,338.2L541.2,338.2ZM496.2,157.0L507.8,160.2L511.4,160.8L514.6,163.0L516.0,164.2L516.2,166.6L512.0,166.4L506.6,164.6L501.0,162.0L498.6,161.2L496.2,158.0Z" />
		<path id="L1611048715198" name="嘉定区" class="qing-map-1616122034125" d="M260.67,264.33L259.33,266.0L254.67,267.33L252.0,266.33L248.33,267.67L246.0,270.33L243.0,269.0L239.33,272.67L239.33,274.67L235.67,274.67L235.33,271.33L231.67,275.0L229.0,270.0L227.33,264.0L224.0,264.67L223.67,267.33L222.0,269.67L220.67,271.67L221.0,275.33L218.0,276.67L214.67,276.33L212.67,275.33L212.67,273.67L210.33,273.67L207.33,274.67L205.33,278.33L203.0,280.0L200.33,280.67L198.0,282.0L197.0,284.33L196.0,286.67L196.0,290.67L193.0,292.67L188.67,294.33L184.33,293.67L174.33,298.67L174.33,302.33L178.67,304.67L182.33,305.0L184.33,306.67L182.67,308.0L175.33,311.0L174.0,313.67L179.33,318.33L179.33,321.33L174.67,328.33L169.67,332.33L172.0,337.33L162.33,341.0L160.33,341.33L155.33,343.33L159.0,347.67L154.67,348.67L152.33,348.33L152.0,359.0L157.33,358.33L159.0,360.67L157.33,362.33L158.33,363.67L165.0,363.67L166.0,374.0L162.67,380.0L164.33,388.67L166.0,391.0L168.33,391.33L169.67,390.0L170.33,388.33L172.67,388.0L176.0,392.33L174.0,394.67L176.33,395.33L176.33,397.33L181.33,402.33L180.0,406.33L177.33,407.33L178.0,413.67L179.67,411.0L182.33,412.67L184.67,415.33L186.0,418.67L187.33,420.67L189.67,420.33L191.67,422.33L193.33,422.33L195.33,423.33L198.0,421.33L200.67,423.33L206.33,419.33L210.34,417.67L212.0,421.0L218.67,418.33L220.67,416.67L224.0,417.0L227.0,418.0L229.67,419.0L234.6,419.8L239.67,419.33L242.0,421.67L244.33,423.0L251.67,424.07L250.67,426.33L252.33,428.67L254.0,430.67L255.0,435.0L257.67,437.33L262.33,438.33L268.67,440.0L273.67,439.0L278.33,438.33L279.0,435.67L281.33,434.0L283.0,432.67L284.67,431.67L284.67,429.0L287.33,429.33L288.0,431.67L291.0,433.0L292.0,431.33L295.33,432.0L297.33,427.67L300.67,428.67L302.33,428.67L305.67,421.0L301.33,418.33L298.0,420.33L295.27,419.53L294.0,416.67L293.33,414.0L296.33,413.0L282.33,409.67L279.67,408.33L280.67,407.0L278.67,405.0L278.0,401.67L275.0,402.0L276.0,399.33L278.33,398.0L280.0,396.67L281.33,395.33L279.33,394.0L278.33,392.33L280.67,389.0L282.33,386.33L284.0,383.0L286.33,380.67L285.0,378.0L285.67,376.67L283.67,371.33L284.67,369.33L286.33,368.33L284.33,365.33L281.67,363.67L278.67,362.0L279.0,359.33L280.67,359.33L281.67,358.0L281.67,356.33L283.0,353.0L275.67,339.0L274.33,337.0L272.67,333.67L273.0,329.67L269.67,327.67L269.67,325.67L268.0,322.33L276.0,319.67L279.33,319.33L279.0,317.67L281.0,313.67L280.67,309.0L281.0,304.67L280.33,301.67L277.0,300.33L275.33,296.33L275.67,294.0L274.67,291.33L272.0,290.0L271.67,288.33L269.67,287.0L269.67,282.67L268.67,279.33L269.67,277.67L269.67,275.0L268.0,273.67L265.0,266.33Z" />
		<path id="L1611049103328" name="宝山区" class="qing-map-1616122034125" d="M260.67,264.33L265.0,266.33L268.0,273.67L269.67,275.0L269.67,277.67L268.67,279.33L269.67,282.67L269.67,287.0L271.67,288.33L272.0,290.0L274.67,291.33L275.67,294.0L275.33,296.33L277.0,300.33L280.33,301.67L281.0,304.67L280.67,309.0L281.0,313.67L279.0,317.67L279.33,319.33L276.0,319.67L268.0,322.33L269.67,325.67L269.67,327.67L273.0,329.67L272.67,333.67L274.33,337.0L275.67,339.0L283.0,353.0L281.67,356.33L281.67,358.0L280.67,359.33L279.0,359.33L278.67,362.0L281.67,363.67L284.33,365.33L286.33,368.33L284.67,369.33L283.67,371.33L285.67,376.67L285.0,378.0L286.33,380.67L284.0,383.0L282.33,386.33L280.67,389.0L278.33,392.33L279.33,394.0L281.33,395.33L283.0,396.5L283.25,394.5L286.25,393.75L288.25,391.75L289.5,392.75L292.0,392.5L293.25,391.25L295.5,391.25L296.25,392.5L294.0,396.5L295.5,397.75L297.25,398.75L299.75,399.25L304.25,399.25L307.75,397.0L309.5,396.25L311.0,395.75L313.25,396.25L313.5,398.0L315.0,398.75L317.0,400.75L320.0,401.75L317.75,405.5L317.75,406.75L319.25,407.75L320.0,410.0L322.0,410.25L323.25,411.75L325.25,412.25L325.75,414.0L327.0,415.0L330.5,412.5L330.5,408.5L330.0,405.5L330.25,400.0L327.75,398.25L327.75,396.75L332.25,393.75L332.25,390.5L334.0,390.5L334.25,387.5L335.25,385.0L335.5,383.0L335.0,379.75L338.0,380.5L343.25,379.5L344.75,382.25L350.0,379.0L354.0,379.5L355.5,380.75L356.25,382.75L359.25,383.5L364.75,383.5L365.5,385.0L371.0,385.5L371.25,378.75L372.5,376.25L369.75,372.75L376.5,363.0L382.9,365.85L385.5,365.5L387.75,361.5L382.75,358.25L379.0,355.0L377.0,351.75L376.25,347.0L377.0,342.5L378.5,339.25L382.5,334.0L380.0,328.25L376.0,324.5L373.0,322.0L371.5,320.5L370.5,318.5L369.75,317.0L367.0,315.25L364.75,313.0L360.25,311.0L358.5,310.5L355.5,309.5L351.5,305.75L346.0,302.0L342.25,297.75L340.0,294.5L338.25,292.5L334.75,290.0L328.75,286.5L325.0,281.75L322.0,278.0L317.5,275.0L314.0,273.25L310.0,271.25L304.25,267.75L301.5,265.0L300.0,263.0L297.75,261.0L295.25,261.0L291.5,260.0L286.5,257.0L283.5,255.75L281.25,254.0L278.25,257.0L275.0,257.25L274.0,260.25L272.0,260.25L271.5,256.25L270.0,256.25L269.25,259.0L267.5,258.5L266.75,256.75L264.0,256.5L260.5,260.25Z" />
		<path id="L1611049635609" name="普陀区" class="qing-map-1616122034125" d="M291.0,433.0L292.0,431.33L295.33,432.0L297.33,427.67L300.67,428.67L302.33,428.67L305.67,421.0L301.33,418.33L298.0,420.33L295.27,419.53L294.0,416.67L293.33,414.0L296.33,413.0L282.33,409.67L279.67,408.33L280.67,407.0L278.67,405.0L278.0,401.67L275.0,402.0L276.0,399.33L278.33,398.0L280.0,396.67L281.33,395.33L283.0,396.5L283.25,394.5L286.25,393.75L288.25,391.75L289.5,392.75L292.0,392.5L293.25,391.25L295.5,391.25L296.25,392.5L294.0,396.5L295.5,397.75L297.25,398.75L299.75,399.25L304.25,399.25L307.75,397.0L309.5,396.25L311.0,395.75L313.25,396.25L313.5,398.0L315.0,398.75L317.0,400.75L320.0,401.75L317.75,405.5L317.75,406.75L319.25,407.75L320.0,410.0L322.0,410.25L323.25,411.75L325.25,412.25L325.75,414.0L327.0,415.0L330.5,412.5L333.8,409.8L337.4,413.0L338.8,413.6L340.8,414.6L344.8,419.8L345.6,422.2L345.0,425.0L344.2,427.8L345.4,431.0L340.8,433.4L337.0,435.6L335.0,435.8L332.8,439.2L330.2,439.6L327.8,441.8L324.8,442.6L322.4,443.2L321.0,444.2L319.2,445.2L317.0,444.8L316.0,446.4L310.2,446.6L306.0,445.6L302.2,445.0L297.6,441.8L296.2,441.6L293.4,438.4L291.6,435.4Z" />
		<path id="L1611049836438" name="静安区" class="qing-map-1616122034125" d="M352.8,409.4L352.0,406.6L351.6,403.4L351.4,399.4L352.2,397.0L353.4,394.4L352.8,389.2L355.4,388.6L355.4,385.8L356.25,382.75L355.5,380.75L354.0,379.5L350.0,379.0L344.75,382.25L343.25,379.5L338.0,380.5L335.0,379.75L335.5,383.0L335.25,385.0L334.25,387.5L334.0,390.5L332.25,390.5L332.25,393.75L327.75,396.75L327.75,398.25L330.25,400.0L330.0,405.5L330.4,409.2L330.5,412.5L333.8,409.8L337.4,413.0L338.8,413.6L340.8,414.6L344.8,419.8L345.6,422.2L345.0,425.0L344.2,427.8L345.4,431.0L340.8,433.4L337.0,435.6L335.0,435.8L332.8,439.2L332.4,440.4L332.6,443.6L336.2,442.4L337.8,446.2L339.4,449.8L342.8,449.0L345.0,448.2L349.2,446.2L349.8,443.6L354.6,443.6L355.4,442.4L355.0,438.8L355.0,436.2L353.0,432.0L356.2,432.0L358.8,431.2L362.8,431.2L363.8,430.0L363.0,427.6L362.8,425.8L363.2,424.4L362.2,423.2L362.4,420.0L359.4,417.0L356.2,413.8L355.6,412.6L354.0,410.8Z" />
		<path id="L1611049988510" name="虹口区" class="qing-map-1616122034125" d="M372.0,402.6L373.4,401.0L374.6,400.2L374.4,396.4L368.0,398.0L366.6,394.8L366.0,392.4L365.0,390.6L365.5,385.0L364.75,383.5L359.25,383.5L356.25,382.75L355.4,385.8L355.4,388.6L352.8,389.2L353.4,394.4L352.2,397.0L351.4,399.4L351.6,403.4L352.0,406.6L352.8,409.4L354.0,410.8L355.6,412.6L356.2,413.8L359.4,417.0L362.4,420.0L362.2,423.2L363.2,424.4L362.8,425.8L363.0,427.6L363.8,430.0L367.2,429.4L369.8,430.8L373.0,429.2L375.4,428.4L377.4,427.8L380.2,427.6L383.0,427.8L383.4,424.0L379.8,418.8L377.2,415.6L376.8,412.6L375.0,410.2L373.2,408.6L371.4,408.6L371.2,404.6Z" />
		<path id="L1611050104783" name="杨浦区" class="qing-map-1616122034125" d="M387.75,361.5L385.5,365.5L382.9,365.85L376.5,363.0L369.75,372.75L372.5,376.25L371.25,378.75L371.0,385.5L365.5,385.0L365.0,390.6L366.0,392.4L366.6,394.8L368.0,398.0L374.4,396.4L374.6,400.2L373.4,401.0L372.0,402.6L371.2,404.6L371.4,408.6L373.2,408.6L375.0,410.2L376.8,412.6L377.2,415.6L379.8,418.8L383.4,424.0L383.0,427.8L386.6,427.4L390.4,426.8L392.8,426.4L395.4,424.4L399.4,421.8L404.6,416.6L407.8,413.4L410.8,409.4L412.2,405.6L412.2,401.6L409.6,396.0L408.6,392.8L408.0,389.6L408.2,384.2L408.2,379.0L407.0,374.0L405.2,370.0L398.8,366.8Z" />
		<path id="L1611050240624" name="长宁区" class="qing-map-1616122034125" d="M281.33,434.0L283.0,432.67L284.67,431.67L284.67,429.0L287.33,429.33L288.0,431.67L291.0,433.0L291.6,435.4L293.4,438.4L296.2,441.6L297.6,441.8L302.2,445.0L306.0,445.6L310.2,446.6L316.0,446.4L317.0,444.8L319.2,445.2L321.0,444.2L322.4,443.2L324.8,442.6L327.8,441.8L330.2,439.6L332.8,439.2L332.4,440.4L332.6,443.6L336.2,442.4L337.8,446.2L339.4,449.8L338.6,451.0L336.8,452.0L338.2,456.4L336.2,458.8L334.0,460.0L332.0,460.6L330.0,462.2L329.2,463.0L329.2,464.6L326.8,464.8L324.0,465.2L317.2,464.6L311.8,464.6L306.4,465.6L302.6,466.8L299.4,468.0L297.4,469.0L295.4,468.8L293.2,469.2L291.0,471.0L289.0,470.0L285.6,471.8L282.2,472.0L278.6,466.4L280.8,464.2L281.8,461.8L282.0,458.4L282.0,455.8L282.0,452.6L282.0,450.4L282.4,448.4L284.0,447.6L284.6,445.4L284.0,442.8L283.8,441.2L285.4,440.2L285.4,438.4L284.4,436.4L283.2,435.0Z" />
		<path id="L1611050403790" name="黄浦区" class="qing-map-1616122034125" d="M349.8,443.6L354.6,443.6L355.4,442.4L355.0,438.8L355.0,436.2L353.0,432.0L356.2,432.0L358.8,431.2L362.8,431.2L363.8,430.0L367.2,429.4L369.8,430.8L369.6,433.0L369.2,434.0L371.8,437.8L374.4,441.2L376.6,443.2L378.4,445.6L378.4,451.0L375.8,456.6L373.4,460.6L369.8,464.2L366.8,464.8L364.2,465.6L361.8,465.8L361.0,466.6L359.2,465.4L357.2,465.0L356.6,461.6L355.8,459.0L355.2,456.6L352.4,457.4L352.2,454.2L352.2,452.2L351.2,449.8L349.2,446.2Z" />
		<path id="L1611055537702" name="徐汇区" class="qing-map-1616122034125" d="M349.2,446.2L345.0,448.2L342.8,449.0L339.4,449.8L338.6,451.0L336.8,452.0L338.2,456.4L336.2,458.8L334.0,460.0L332.0,460.6L330.0,462.2L329.2,463.0L329.2,464.6L326.8,464.8L324.0,465.2L325.6,470.4L314.6,473.8L314.6,475.6L313.4,476.2L313.6,478.8L312.4,479.8L313.2,482.8L313.8,485.6L318.0,484.0L320.6,490.0L323.0,496.6L324.4,499.6L327.2,504.0L329.2,506.2L333.0,506.0L337.2,505.6L338.8,510.0L338.6,511.6L337.2,514.6L338.6,516.0L344.0,514.4L345.6,517.6L346.0,519.4L344.2,519.6L344.4,521.2L348.4,524.0L350.8,523.6L352.8,523.2L353.2,520.2L353.8,516.8L354.6,513.6L355.8,511.6L355.8,508.6L355.4,505.8L353.2,502.8L350.4,499.6L349.4,497.0L349.2,493.8L350.2,491.4L352.6,489.2L355.8,484.0L355.2,481.0L354.2,477.8L354.0,474.2L355.4,469.8L358.6,467.8L361.0,466.6L359.2,465.4L357.2,465.0L356.6,461.6L355.8,459.0L355.2,456.6L352.4,457.4L352.2,454.2L352.2,452.2L351.2,449.8Z" />
		<path id="L1611056043485" name="闵行区" class="qing-map-1616122034125" d="M234.6,419.8L239.67,419.33L242.0,421.67L244.33,423.0L251.67,424.07L250.67,426.33L252.33,428.67L254.0,430.67L255.0,435.0L257.67,437.33L262.33,438.33L268.67,440.0L273.67,439.0L278.33,438.33L279.0,435.67L281.33,434.0L283.2,435.0L284.4,436.4L285.4,438.4L285.4,440.2L283.8,441.2L284.0,442.8L284.6,445.4L284.0,447.6L282.4,448.4L282.0,450.4L282.0,452.6L282.0,455.8L282.0,458.4L281.8,461.8L280.8,464.2L278.6,466.4L282.2,472.0L285.6,471.8L289.0,470.0L291.0,471.0L293.2,469.2L295.4,468.8L297.4,469.0L299.4,468.0L302.6,466.8L306.4,465.6L311.8,464.6L317.2,464.6L324.0,465.2L325.6,470.4L314.6,473.8L314.6,475.6L313.4,476.2L313.6,478.8L312.4,479.8L313.2,482.8L313.8,485.6L318.0,484.0L320.6,490.0L323.0,496.6L324.4,499.6L327.2,504.0L329.2,506.2L333.0,506.0L337.2,505.6L338.8,510.0L338.6,511.6L337.2,514.6L338.6,516.0L344.0,514.4L345.6,517.6L346.0,519.4L344.2,519.6L344.4,521.2L348.4,524.0L350.8,523.6L352.8,523.2L353.2,520.2L353.8,516.8L354.8,516.8L356.6,517.4L358.8,516.0L360.8,517.6L362.2,517.0L360.8,514.0L365.2,509.4L367.8,509.4L369.4,511.2L371.6,511.0L372.6,511.2L373.2,512.6L374.0,514.2L375.0,515.4L376.0,513.8L376.6,511.8L379.2,510.8L380.2,511.6L381.2,512.8L382.2,514.4L386.6,513.2L390.2,512.2L391.8,512.2L393.0,513.2L394.8,515.0L396.8,514.6L397.2,515.4L399.6,517.8L400.6,517.8L400.6,516.2L402.0,515.4L403.6,515.2L405.4,515.6L406.6,516.2L405.2,517.6L406.4,519.0L407.6,520.0L408.2,521.4L408.4,523.0L408.4,524.6L409.6,525.6L410.6,526.8L411.2,528.4L409.0,528.8L406.6,529.4L404.2,530.0L403.0,530.8L401.2,532.0L400.6,533.4L401.0,535.0L403.0,537.2L405.2,536.4L407.0,535.4L409.8,536.0L411.8,536.4L414.4,538.0L412.4,538.8L411.2,540.4L408.8,541.0L406.6,541.8L405.4,542.2L403.4,543.8L403.4,545.2L402.6,547.0L400.2,549.0L400.4,551.4L396.0,555.0L396.6,557.0L397.8,558.4L399.6,558.6L403.0,556.8L406.2,559.4L406.6,564.6L405.8,569.2L405.2,572.8L402.4,574.4L403.0,577.4L404.0,577.4L406.6,574.4L409.6,575.6L412.4,573.0L414.6,575.0L413.4,579.0L412.2,582.8L413.0,586.6L412.4,590.4L410.4,591.6L407.8,592.8L404.6,593.2L402.6,597.0L401.8,597.6L399.8,596.0L398.4,594.8L395.4,594.0L392.6,593.0L389.8,593.0L384.6,591.2L383.8,586.2L380.4,586.8L377.2,587.6L375.0,588.8L370.2,591.8L368.2,586.2L368.0,584.8L368.0,582.6L366.2,580.4L362.0,581.0L359.0,581.6L355.4,583.8L353.4,584.6L350.0,585.2L347.2,585.2L344.4,585.2L341.8,586.0L339.8,586.6L337.8,587.6L336.4,589.0L334.8,591.2L333.2,592.6L330.8,594.0L328.6,594.8L324.8,596.6L321.0,597.6L317.8,597.8L314.6,598.6L310.8,600.0L306.0,600.8L301.2,602.6L294.0,605.8L289.8,606.8L286.8,606.6L283.0,605.4L280.6,604.2L278.8,604.0L276.2,603.2L275.6,594.6L278.0,591.8L281.0,587.8L285.2,580.6L281.2,581.0L279.2,581.2L279.4,578.6L279.4,573.8L279.4,568.4L279.4,565.0L280.4,561.4L280.6,556.8L280.2,552.6L280.2,549.4L282.0,550.0L284.0,551.0L285.8,552.2L290.2,550.2L293.2,548.8L292.6,547.2L295.2,546.2L296.6,544.0L296.8,541.6L298.4,539.6L301.2,539.0L299.4,533.6L296.2,525.0L294.6,524.8L292.8,524.4L291.2,524.8L289.6,525.0L288.6,523.0L288.2,521.4L289.8,519.6L292.4,517.8L290.4,515.4L289.8,513.8L290.2,512.2L288.8,511.4L287.2,510.6L286.8,507.8L285.8,504.6L284.6,501.8L283.0,500.0L281.4,498.8L283.0,496.4L282.4,495.0L281.0,493.8L279.2,492.4L278.0,491.6L277.6,490.2L275.8,485.6L272.4,485.6L273.6,483.4L271.2,477.8L268.2,472.0L265.0,466.4L262.6,463.8L259.6,460.4L259.8,458.0L258.0,456.6L255.0,459.4L253.0,461.4L250.6,462.2L246.6,461.6L243.0,459.2L241.6,456.8L241.0,455.2L240.6,452.8L238.4,450.8L239.2,448.8L237.4,445.8L236.6,443.2L236.4,441.4L236.8,439.0L236.0,437.6L234.8,435.8L234.2,434.2L233.2,433.4L232.0,433.4L231.2,432.0L227.4,431.2L227.6,430.4L228.2,427.6L229.6,427.0L230.8,426.2L231.6,424.2L231.6,422.8L233.0,421.4Z" />
		<path id="L1611056725206" name="青浦区" class="qing-map-1616122034125" d="M173.0,526.6L174.4,529.0L179.8,529.4L180.0,523.8L180.8,523.6L182.0,524.4L183.6,524.0L185.2,523.6L185.2,519.2L186.2,518.6L187.8,518.8L188.8,518.6L189.8,517.2L190.0,515.6L190.0,514.8L195.4,512.0L195.6,508.6L193.6,506.4L193.6,504.8L193.6,502.8L193.8,499.6L193.8,495.8L199.4,498.0L202.4,499.2L206.0,500.0L210.4,500.2L214.0,499.4L217.0,498.6L219.8,498.8L219.0,501.4L218.4,503.2L218.4,504.8L217.6,507.6L216.2,512.2L216.8,514.8L224.4,513.0L225.0,509.4L225.4,506.6L229.4,506.6L230.2,504.2L231.0,501.6L236.6,503.0L237.4,506.2L239.0,506.2L239.4,501.8L242.2,500.0L250.4,501.6L253.4,497.8L251.0,496.0L249.8,494.6L249.2,492.8L250.0,491.0L251.6,490.2L253.6,489.2L255.8,489.2L257.2,489.2L259.0,488.6L261.2,489.8L262.6,488.0L265.4,486.8L268.4,485.4L270.2,486.2L271.4,486.2L272.4,485.6L273.6,483.4L271.2,477.8L268.2,472.0L265.0,466.4L262.6,463.8L259.6,460.4L259.8,458.0L258.0,456.6L255.0,459.4L253.0,461.4L250.6,462.2L246.6,461.6L243.0,459.2L241.6,456.8L241.0,455.2L240.6,452.8L238.4,450.8L239.2,448.8L237.4,445.8L236.6,443.2L236.4,441.4L236.8,439.0L236.0,437.6L234.8,435.8L234.2,434.2L233.2,433.4L232.0,433.4L231.2,432.0L227.4,431.2L227.6,430.4L228.2,427.6L229.6,427.0L230.8,426.2L231.6,424.2L231.6,422.8L233.0,421.4L234.6,419.8L229.67,419.0L227.0,418.0L224.0,417.0L220.67,416.67L218.67,418.33L212.0,421.0L210.34,417.67L206.33,419.33L200.67,423.33L198.0,421.33L195.33,423.33L193.33,422.33L191.67,422.33L189.67,420.33L187.33,420.67L186.0,418.67L184.67,415.33L182.33,412.67L179.67,411.0L178.0,413.67L177.33,407.33L173.2,408.2L171.8,408.6L169.8,408.0L167.2,406.8L163.4,405.2L159.8,401.4L158.2,402.2L156.4,402.2L155.4,403.2L153.0,405.8L151.6,408.4L150.6,409.0L148.6,408.2L146.2,407.0L145.8,403.4L145.0,401.6L143.0,398.8L140.8,397.8L139.8,399.4L137.6,403.4L137.4,406.2L137.0,409.8L134.4,412.4L130.8,413.0L126.4,413.0L126.2,416.6L126.2,420.8L126.2,425.4L123.4,426.2L123.0,428.2L127.4,428.4L127.2,431.2L125.4,433.8L126.0,435.6L129.0,437.2L129.0,438.6L126.4,440.0L127.2,444.6L129.6,456.2L132.4,467.4L132.2,470.6L134.2,478.4L133.6,481.4L132.2,482.2L132.0,484.8L133.2,487.0L129.8,492.2L127.2,491.8L124.4,490.4L119.8,491.0L118.8,488.0L116.4,488.2L114.8,490.8L116.0,493.4L116.4,495.6L116.0,497.4L114.2,499.0L112.0,499.6L111.2,497.2L107.8,495.8L106.6,495.8L104.8,496.2L103.8,498.2L103.4,500.0L101.6,501.2L99.8,501.4L96.6,502.0L93.4,501.8L86.6,502.2L84.8,502.6L81.8,503.0L80.0,502.4L74.6,501.0L69.6,499.4L65.2,498.4L60.4,497.6L57.2,497.4L52.6,496.4L50.4,497.6L46.6,498.8L43.2,499.8L40.8,500.4L37.0,500.8L34.2,500.2L31.2,500.2L28.6,500.4L24.2,500.8L21.4,502.8L20.4,505.6L18.6,510.2L17.2,513.2L16.0,514.6L14.4,515.2L12.8,517.0L11.6,519.0L11.2,520.6L11.2,522.8L12.6,524.0L16.0,524.0L19.2,525.0L21.0,524.8L23.2,525.2L24.0,527.2L26.4,527.6L30.6,528.2L33.8,530.8L33.4,532.6L35.6,533.0L38.4,538.6L35.2,539.0L35.2,544.4L33.6,547.6L32.6,551.0L32.4,555.8L35.0,560.0L35.4,562.0L36.6,566.4L36.0,577.8L42.0,578.2L42.2,582.8L48.2,583.0L52.6,582.8L55.6,583.6L58.0,582.8L55.8,578.4L59.4,577.6L63.4,577.6L64.2,574.6L62.4,572.6L63.0,569.0L65.0,568.8L66.6,570.6L69.0,571.0L69.0,572.2L70.2,575.2L72.2,576.4L71.6,578.4L72.6,579.4L76.4,579.4L82.4,578.6L84.0,580.4L87.2,581.4L87.0,590.4L85.6,592.4L85.6,594.2L89.8,593.6L91.4,597.8L93.2,604.2L93.4,605.6L92.6,608.0L91.2,608.4L88.2,609.2L87.4,611.8L88.8,616.0L86.2,617.0L86.6,621.0L88.6,621.4L90.2,622.4L90.6,623.2L92.4,623.2L93.2,624.4L94.4,625.8L97.6,625.4L98.2,626.4L98.8,628.2L100.2,628.4L101.2,629.2L101.8,630.2L103.4,630.0L105.0,629.6L107.4,628.4L108.2,626.2L110.4,625.8L112.6,620.0L116.4,619.8L116.2,616.4L117.8,614.4L116.2,610.2L120.0,610.8L121.2,613.4L123.4,613.8L124.6,619.0L127.6,620.6L129.8,620.6L131.8,620.6L133.6,620.2L135.6,618.2L136.2,615.4L140.8,615.4L142.8,613.6L144.2,613.4L146.0,612.6L145.6,611.0L145.0,609.2L145.8,608.0L147.8,608.2L147.8,597.6L148.0,593.4L149.4,593.0L150.0,592.0L150.0,584.0L149.2,582.4L144.2,577.4L141.4,574.2L140.4,573.0L140.6,572.0L142.0,571.8L144.2,572.2L145.4,571.6L145.6,569.2L147.4,568.6L147.6,567.0L147.2,565.8L146.0,564.0L144.8,562.2L145.2,560.6L144.6,559.4L143.2,558.6L142.2,558.0L141.6,556.2L140.2,555.8L138.8,555.6L138.0,554.6L137.6,553.0L138.4,552.0L140.0,550.8L140.0,548.6L141.2,548.0L143.6,548.6L144.2,549.4L144.2,551.6L145.2,553.2L147.4,553.2L150.0,553.4L151.6,552.4L153.8,552.4L156.4,553.0L158.8,553.0L160.8,552.6L162.6,551.8L162.6,547.8L161.4,547.2L160.8,546.0L160.0,544.0L159.2,542.8L158.4,541.6L157.4,540.4L156.0,539.6L154.8,539.0L153.8,537.8L151.6,536.8L149.8,537.6L148.0,536.2L147.8,533.0L147.8,531.4L146.6,528.8L147.6,526.8L150.0,524.2L151.6,522.4L153.4,519.0L154.0,517.4L155.6,517.2L159.2,518.4L161.0,520.8L163.0,522.8L165.2,524.4L168.6,526.2L171.0,526.2Z" />
		<path id="L1611057997693" name="松江区" class="qing-map-1616122034125" d="M294.0,605.8L289.8,606.8L286.8,606.6L283.0,605.4L280.6,604.2L278.8,604.0L276.2,603.2L275.6,594.6L278.0,591.8L281.0,587.8L285.2,580.6L281.2,581.0L279.2,581.2L279.4,578.6L279.4,573.8L279.4,568.4L279.4,565.0L280.4,561.4L280.6,556.8L280.2,552.6L280.2,549.4L282.0,550.0L284.0,551.0L285.8,552.2L290.2,550.2L293.2,548.8L292.6,547.2L295.2,546.2L296.6,544.0L296.8,541.6L298.4,539.6L301.2,539.0L299.4,533.6L296.2,525.0L294.6,524.8L292.8,524.4L291.2,524.8L289.6,525.0L288.6,523.0L288.2,521.4L289.8,519.6L292.4,517.8L290.4,515.4L289.8,513.8L290.2,512.2L288.8,511.4L287.2,510.6L286.8,507.8L285.8,504.6L284.6,501.8L283.0,500.0L281.4,498.8L283.0,496.4L282.4,495.0L281.0,493.8L279.2,492.4L278.0,491.6L277.6,490.2L275.8,485.6L272.4,485.6L271.4,486.2L270.2,486.2L268.4,485.4L265.4,486.8L262.6,488.0L261.2,489.8L259.0,488.6L257.2,489.2L255.8,489.2L253.6,489.2L251.6,490.2L250.0,491.0L249.2,492.8L249.8,494.6L251.0,496.0L253.4,497.8L250.4,501.6L242.2,500.0L239.4,501.8L239.0,506.2L237.4,506.2L236.6,503.0L231.0,501.6L230.2,504.2L229.4,506.6L225.4,506.6L225.0,509.4L224.4,513.0L216.8,514.8L216.2,512.2L217.6,507.6L218.4,504.8L218.4,503.2L219.0,501.4L219.8,498.8L217.0,498.6L214.0,499.4L210.4,500.2L206.0,500.0L202.4,499.2L199.4,498.0L193.8,495.8L193.8,499.6L193.6,502.8L193.6,504.8L193.6,506.4L195.6,508.6L195.4,512.0L190.0,514.8L190.0,515.6L189.8,517.2L188.8,518.6L187.8,518.8L186.2,518.6L185.2,519.2L185.2,523.6L183.6,524.0L182.0,524.4L180.8,523.6L180.0,523.8L179.8,529.4L174.4,529.0L173.0,526.6L171.0,526.2L168.6,526.2L165.2,524.4L163.0,522.8L161.0,520.8L159.2,518.4L155.6,517.2L154.0,517.4L153.4,519.0L151.6,522.4L150.0,524.2L147.6,526.8L146.6,528.8L147.8,531.4L147.8,533.0L148.0,536.2L149.8,537.6L151.6,536.8L153.8,537.8L154.8,539.0L156.0,539.6L157.4,540.4L158.4,541.6L159.2,542.8L160.0,544.0L160.8,546.0L161.4,547.2L162.6,547.8L162.6,551.8L160.8,552.6L158.8,553.0L156.4,553.0L153.8,552.4L151.6,552.4L150.0,553.4L147.4,553.2L145.2,553.2L144.2,551.6L144.2,549.4L143.6,548.6L141.2,548.0L140.0,548.6L140.0,550.8L138.4,552.0L137.6,553.0L138.0,554.6L138.8,555.6L140.2,555.8L141.6,556.2L142.2,558.0L143.2,558.6L144.6,559.4L145.2,560.6L144.8,562.2L146.0,564.0L147.2,565.8L147.6,567.0L147.4,568.6L145.6,569.2L145.4,571.6L144.2,572.2L142.0,571.8L140.6,572.0L140.4,573.0L141.4,574.2L144.2,577.4L149.2,582.4L150.0,584.0L150.0,592.0L149.4,593.0L148.0,593.4L147.8,597.6L147.8,608.2L145.8,608.0L145.0,609.2L145.6,611.0L146.0,612.6L144.2,613.4L142.8,613.6L140.8,615.4L136.2,615.4L135.6,618.2L133.6,620.2L131.8,620.6L129.8,620.6L127.6,620.6L124.6,619.0L123.4,613.8L121.2,613.4L120.0,610.8L116.2,610.2L117.8,614.4L116.2,616.4L116.4,619.8L112.6,620.0L110.4,625.8L108.2,626.2L107.4,628.4L109.8,631.0L109.6,633.4L108.4,635.6L108.2,637.6L107.6,639.0L108.0,641.4L106.8,644.0L105.8,646.2L105.8,649.6L108.8,651.0L112.2,651.8L114.6,652.8L115.6,656.2L118.8,654.2L121.4,653.8L123.8,653.8L125.6,653.4L128.2,653.6L131.2,653.0L133.8,652.2L136.2,652.0L138.4,652.2L140.6,653.6L142.6,653.2L143.8,652.8L145.8,652.6L146.2,651.6L144.4,649.6L142.4,648.4L141.2,647.4L142.2,645.4L144.6,643.0L146.4,640.6L147.6,639.0L150.6,641.2L153.8,641.2L156.0,641.6L157.8,642.2L159.8,642.8L159.4,644.8L159.0,646.6L159.0,648.8L157.6,650.0L156.6,651.8L155.6,653.4L153.8,655.2L154.6,656.8L155.8,656.2L157.0,654.4L160.0,654.6L160.8,653.6L162.8,653.4L166.2,654.4L169.0,655.0L170.0,654.6L170.0,652.0L169.8,650.0L169.2,648.6L168.8,647.4L169.4,645.0L169.8,642.8L171.6,644.2L171.8,646.0L173.6,646.4L174.6,646.6L176.0,647.6L178.0,648.6L179.4,647.8L179.4,645.6L179.8,643.6L181.0,643.0L183.2,643.2L185.8,644.4L187.6,645.8L192.8,646.0L196.0,645.8L200.8,644.2L203.8,644.0L207.0,643.0L209.8,641.8L213.0,639.8L214.2,638.2L215.6,637.0L217.2,636.2L218.6,637.4L219.0,638.6L221.0,638.4L222.8,637.4L224.2,637.8L225.4,639.2L226.6,639.6L228.2,641.0L229.0,643.4L229.2,645.6L229.4,648.0L230.8,649.4L233.4,649.2L234.8,649.0L236.0,650.4L238.4,650.6L240.2,651.2L241.6,651.4L241.6,654.0L243.2,655.2L245.2,655.6L246.2,658.2L248.4,657.8L250.0,657.6L252.0,658.0L254.0,658.2L254.0,656.2L255.4,654.4L255.6,652.6L254.4,649.6L254.2,646.2L254.8,644.4L258.0,644.2L259.4,647.8L260.0,649.4L262.0,650.4L262.2,647.6L264.6,649.0L267.0,649.2L270.6,649.0L272.2,648.6L274.0,650.0L276.6,649.6L278.6,651.0L280.6,650.8L282.2,650.2L283.8,650.0L286.0,649.8L287.6,648.4L289.4,648.0L290.8,647.6L291.6,646.0L292.0,643.4L290.2,641.2L290.2,636.6L294.6,633.6L295.6,633.6L295.6,631.2L295.4,628.2L297.4,625.6L296.2,623.2L296.0,619.4L295.8,616.6L295.2,613.2L295.2,610.0L294.4,608.4Z" />
		<path id="L1611058993245" name="金山区" class="qing-map-1616122034125" d="M90.2,622.4L90.6,623.2L92.4,623.2L93.2,624.4L94.4,625.8L97.6,625.4L98.2,626.4L98.8,628.2L100.2,628.4L101.2,629.2L101.8,630.2L103.4,630.0L105.0,629.6L107.4,628.4L109.8,631.0L109.6,633.4L108.4,635.6L108.2,637.6L107.6,639.0L108.0,641.4L106.8,644.0L105.8,646.2L105.8,649.6L108.8,651.0L112.2,651.8L114.6,652.8L115.6,656.2L118.8,654.2L121.4,653.8L123.8,653.8L125.6,653.4L128.2,653.6L131.2,653.0L133.8,652.2L136.2,652.0L138.4,652.2L140.6,653.6L142.6,653.2L143.8,652.8L145.8,652.6L146.2,651.6L144.4,649.6L142.4,648.4L141.2,647.4L142.2,645.4L144.6,643.0L146.4,640.6L147.6,639.0L150.6,641.2L153.8,641.2L156.0,641.6L157.8,642.2L159.8,642.8L159.4,644.8L159.0,646.6L159.0,648.8L157.6,650.0L156.6,651.8L155.6,653.4L153.8,655.2L154.6,656.8L155.8,656.2L157.0,654.4L160.0,654.6L160.8,653.6L162.8,653.4L166.2,654.4L169.0,655.0L170.0,654.6L170.0,652.0L169.8,650.0L169.2,648.6L168.8,647.4L169.4,645.0L169.8,642.8L171.6,644.2L171.8,646.0L173.6,646.4L174.6,646.6L176.0,647.6L178.0,648.6L179.4,647.8L179.4,645.6L179.8,643.6L181.0,643.0L183.2,643.2L185.8,644.4L187.6,645.8L192.8,646.0L196.0,645.8L200.8,644.2L203.8,644.0L207.0,643.0L209.8,641.8L213.0,639.8L214.2,638.2L215.6,637.0L217.2,636.2L218.6,637.4L219.0,638.6L221.0,638.4L222.8,637.4L224.2,637.8L225.4,639.2L226.6,639.6L228.2,641.0L229.0,643.4L229.2,645.6L229.4,648.0L230.8,649.4L233.4,649.2L234.8,649.0L236.0,650.4L238.4,650.6L240.2,651.2L241.6,651.4L241.6,654.0L243.2,655.2L245.2,655.6L246.2,658.2L248.4,657.8L250.0,657.6L252.0,658.0L254.0,658.2L254.0,656.2L255.4,654.4L255.6,652.6L254.4,649.6L254.2,646.2L254.8,644.4L258.0,644.2L259.4,647.8L260.0,649.4L262.0,650.4L262.2,647.6L264.6,649.0L267.0,649.2L270.6,649.0L272.2,648.6L274.0,650.0L276.6,649.6L278.6,651.0L280.6,650.8L282.2,650.2L283.8,650.0L286.0,649.8L287.6,648.4L289.4,648.0L290.8,647.6L292.6,650.8L293.0,652.8L293.6,655.6L295.6,661.6L296.8,664.4L300.8,666.8L304.2,669.0L307.2,671.0L307.2,674.6L307.0,679.6L308.2,681.0L308.2,685.4L308.4,688.8L308.8,691.2L309.2,694.2L307.2,694.4L306.2,695.4L306.6,698.4L308.0,699.4L309.8,701.8L312.0,702.0L312.6,703.4L313.8,703.8L314.8,702.8L315.6,700.6L317.0,700.2L319.4,700.2L319.0,702.0L317.8,704.4L319.8,706.6L323.0,707.8L325.8,708.6L328.8,709.4L331.4,709.8L334.0,710.2L336.4,710.2L337.8,711.4L339.2,714.6L340.2,717.6L342.2,717.4L344.0,718.6L345.0,721.2L347.4,725.6L349.2,729.8L351.0,733.8L349.8,734.8L346.0,736.4L339.6,739.0L333.8,741.8L329.4,744.2L324.2,748.0L319.8,752.0L316.0,756.0L312.0,760.2L310.2,760.4L309.0,759.6L304.4,765.6L302.2,768.4L300.4,769.0L297.2,772.4L294.2,774.6L292.8,775.6L291.8,776.0L291.8,778.2L290.4,779.6L287.8,782.2L286.4,784.0L283.6,782.4L282.4,783.4L283.4,785.4L281.2,788.2L278.2,789.2L274.4,789.2L272.0,789.8L268.6,789.4L266.2,788.8L261.6,789.4L257.2,790.2L253.0,790.2L250.2,791.2L247.8,791.6L245.8,793.2L244.2,791.6L244.0,788.6L243.6,786.8L242.8,785.0L242.4,783.8L242.6,780.0L243.0,777.4L244.0,774.4L243.0,770.6L241.6,766.4L239.4,762.2L237.8,759.2L235.2,756.4L231.8,754.8L228.4,753.2L225.4,751.0L224.0,750.2L222.8,748.6L222.8,746.4L222.8,744.2L221.6,742.2L221.0,740.2L219.4,739.0L217.8,737.0L216.2,734.4L214.8,731.8L211.4,730.8L208.8,730.8L205.8,731.2L204.8,732.2L205.0,733.8L206.2,735.6L207.0,737.0L204.4,738.0L202.4,735.6L200.0,734.4L198.4,734.4L197.0,734.4L196.0,736.8L190.6,739.0L187.4,737.4L183.8,736.8L180.0,736.0L174.6,735.4L163.6,735.2L162.4,731.4L162.0,727.4L162.0,722.6L162.6,718.6L163.6,715.0L165.2,710.6L167.2,707.2L169.2,704.2L169.2,701.8L167.2,700.2L166.0,698.4L161.8,699.0L160.4,699.2L159.2,698.8L158.0,698.6L158.4,697.0L158.6,695.6L158.6,693.4L160.8,690.6L158.6,688.6L155.0,686.4L152.6,688.6L149.0,688.4L146.2,685.0L141.4,687.6L138.6,688.6L134.4,689.4L132.0,689.6L125.6,692.8L124.8,694.6L124.4,697.2L122.6,699.4L120.6,700.4L119.6,700.8L119.6,704.8L117.2,704.8L116.6,705.8L118.0,708.8L117.0,710.0L115.2,709.2L112.6,706.8L110.2,704.0L107.0,701.6L103.4,700.0L98.8,698.8L92.6,705.6L88.4,709.4L85.0,707.4L84.6,703.6L84.2,700.4L87.8,695.0L90.8,690.4L93.6,686.6L96.0,686.6L97.8,684.6L96.4,683.8L97.6,681.6L100.4,679.2L103.6,673.6L103.2,669.6L97.2,666.6L95.0,662.4L90.8,661.8L87.8,661.6L88.0,659.6L87.0,657.8L89.2,653.0L94.4,652.2L94.4,649.0L90.6,648.2L92.0,643.2L91.6,638.8L91.2,635.0L91.4,632.8L91.8,630.0L89.6,627.2L89.0,624.4Z" />
		<path id="L1611108393774" name="浦东新区" class="qing-map-1616122034125" d="M382.5,334.0L378.5,339.25L377.0,342.5L376.25,347.0L377.0,351.75L379.0,355.0L382.75,358.25L387.75,361.5L398.8,366.8L405.2,370.0L407.0,374.0L408.2,379.0L408.2,384.2L408.0,389.6L408.6,392.8L409.6,396.0L412.2,401.6L412.2,405.6L410.8,409.4L407.8,413.4L404.6,416.6L399.4,421.8L395.4,424.4L392.8,426.4L390.4,426.8L386.6,427.4L383.0,427.8L380.2,427.6L377.4,427.8L375.4,428.4L373.0,429.2L369.8,430.8L369.6,433.0L369.2,434.0L371.8,437.8L374.4,441.2L376.6,443.2L378.4,445.6L378.4,451.0L375.8,456.6L373.4,460.6L369.8,464.2L366.8,464.8L364.2,465.6L361.8,465.8L361.0,466.6L358.6,467.8L355.4,469.8L354.0,474.2L354.2,477.8L355.2,481.0L355.8,484.0L352.6,489.2L350.2,491.4L349.2,493.8L349.4,497.0L350.4,499.6L353.2,502.8L355.4,505.8L355.8,508.6L355.8,511.6L354.6,513.6L353.8,516.8L354.8,516.8L356.6,517.4L358.8,516.0L360.8,517.6L362.2,517.0L360.8,514.0L365.2,509.4L367.8,509.4L369.4,511.2L371.6,511.0L372.6,511.2L373.2,512.6L374.0,514.2L375.0,515.4L376.0,513.8L376.6,511.8L379.2,510.8L380.2,511.6L381.2,512.8L382.2,514.4L386.6,513.2L390.2,512.2L391.8,512.2L393.0,513.2L394.8,515.0L396.8,514.6L397.2,515.4L399.6,517.8L400.6,517.8L400.6,516.2L402.0,515.4L403.6,515.2L405.4,515.6L406.6,516.2L405.2,517.6L406.4,519.0L407.6,520.0L408.2,521.4L408.4,523.0L408.4,524.6L409.6,525.6L410.6,526.8L411.2,528.4L409.0,528.8L406.6,529.4L404.2,530.0L403.0,530.8L401.2,532.0L400.6,533.4L401.0,535.0L403.0,537.2L405.2,536.4L407.0,535.4L409.8,536.0L411.8,536.4L414.4,538.0L412.4,538.8L411.2,540.4L408.8,541.0L406.6,541.8L405.4,542.2L403.4,543.8L403.4,545.2L402.6,547.0L400.2,549.0L400.4,551.4L396.0,555.0L396.6,557.0L397.8,558.4L399.6,558.6L403.0,556.8L406.2,559.4L406.6,564.6L405.8,569.2L405.2,572.8L402.4,574.4L403.0,577.4L404.0,577.4L406.6,574.4L409.6,575.6L412.4,573.0L414.6,575.0L413.4,579.0L412.2,582.8L413.0,586.6L412.4,590.4L416.0,589.6L417.0,590.8L420.8,589.8L426.4,589.4L428.2,588.4L430.4,589.0L433.8,589.0L437.0,589.2L439.0,592.4L442.4,595.2L448.2,594.8L455.8,594.4L462.8,595.0L469.2,595.4L474.4,596.6L477.8,597.0L482.0,597.8L486.8,599.8L491.0,602.2L494.8,604.4L498.2,607.4L501.6,610.4L504.8,613.8L507.2,616.2L508.2,618.2L509.0,619.4L511.0,619.8L513.0,622.2L515.8,622.2L518.8,624.4L520.4,626.6L521.6,629.2L521.0,631.0L525.0,633.2L530.6,637.0L529.6,639.0L532.0,644.6L530.8,651.0L530.6,653.0L530.2,655.2L531.2,657.4L529.4,662.4L529.0,665.0L529.4,667.8L527.6,668.6L526.2,672.2L525.2,675.6L524.6,678.2L525.2,683.2L524.8,687.0L524.4,691.2L533.0,690.8L539.6,691.2L546.8,691.8L552.0,692.8L558.2,693.4L563.4,693.8L565.6,691.8L569.0,691.4L571.0,690.0L577.0,690.6L582.4,691.4L585.0,691.4L587.4,690.6L588.6,691.6L592.6,692.2L598.4,688.8L607.6,684.2L617.4,680.2L623.8,677.6L625.2,676.2L631.0,673.8L635.2,671.6L637.6,670.2L639.0,668.4L639.8,667.0L640.4,664.8L640.4,653.6L641.0,649.8L641.0,643.4L636.6,631.8L622.6,592.0L620.6,590.6L616.6,589.8L609.2,588.6L612.4,587.4L615.0,586.8L617.2,587.0L617.6,584.4L612.8,575.2L605.6,561.8L594.8,543.0L584.4,527.0L577.2,515.4L567.6,502.6L556.6,487.4L547.8,476.4L545.6,474.0L543.4,470.0L539.0,463.2L534.6,456.8L532.6,453.8L530.2,450.8L528.4,448.4L527.0,446.4L525.4,445.8L524.4,445.0L524.2,442.0L518.4,432.2L519.8,431.0L517.2,426.4L514.0,420.2L510.0,415.0L505.8,410.0L501.0,404.2L498.6,401.2L496.0,398.8L491.2,395.0L487.8,391.0L483.0,386.2L476.6,381.0L472.6,378.2L470.2,377.0L468.0,374.4L464.0,371.4L461.4,370.2L458.6,368.0L453.2,363.0L451.0,361.6L444.6,358.4L443.0,359.6L440.8,358.6L441.2,357.4L438.0,355.0L433.2,352.4L428.2,348.2L422.6,344.2L418.8,343.2L414.0,342.4L408.8,340.0L405.8,339.2L403.6,339.8L399.4,338.6L396.8,337.6L391.6,335.0L388.4,334.4L386.4,334.2L384.8,335.2L384.2,336.2ZM549.2,426.6L547.4,430.4L551.6,434.4L555.4,437.6L557.0,437.0L555.8,430.0L551.2,426.4ZM606.8,437.2L609.4,435.4L612.2,437.6L613.0,440.8L613.0,444.2L612.6,449.2L611.6,453.8L611.6,456.4L609.6,460.2L606.2,460.4L602.2,458.0L597.6,453.6L593.8,447.6L590.6,442.0L588.0,435.4L588.0,432.6L590.2,430.2L597.6,430.0L600.6,432.0L603.8,433.2L604.2,435.2ZM625.0,443.2L628.4,441.0L631.0,440.4L632.8,439.4L636.0,438.8L638.4,440.6L644.6,442.0L649.4,443.6L652.4,443.6L655.0,445.0L658.8,446.6L662.0,447.4L662.6,448.8L661.0,450.8L661.2,454.4L661.2,456.8L660.8,460.0L660.0,464.2L658.6,467.8L657.2,471.2L655.8,473.6L654.4,476.8L653.6,479.0L651.2,481.2L647.4,482.2L645.0,482.0L643.0,481.6L639.4,480.8L637.4,480.2L634.8,477.4L629.2,475.8L626.8,471.8L625.0,468.4L624.0,461.6L623.0,459.0L622.8,452.4L624.0,447.4Z" />
		<path id="L1611109055198" name="奉贤区" class="qing-map-1616122034125" d="M351.0,733.8L349.2,729.8L347.4,725.6L345.0,721.2L344.0,718.6L342.2,717.4L340.2,717.6L339.2,714.6L337.8,711.4L336.4,710.2L334.0,710.2L331.4,709.8L328.8,709.4L325.8,708.6L323.0,707.8L319.8,706.6L317.8,704.4L319.0,702.0L319.4,700.2L317.0,700.2L315.6,700.6L314.8,702.8L313.8,703.8L312.6,703.4L312.0,702.0L309.8,701.8L308.0,699.4L306.6,698.4L306.2,695.4L307.2,694.4L309.2,694.2L308.8,691.2L308.4,688.8L308.2,685.4L308.2,681.0L307.0,679.6L307.25,673.75L307.2,671.0L304.2,669.0L300.8,666.8L296.8,664.4L295.6,661.6L293.6,655.6L293.0,652.8L292.6,650.8L290.8,647.6L291.6,646.0L292.0,643.4L290.2,641.2L290.2,636.6L294.6,633.6L295.6,633.6L295.6,631.2L295.4,628.2L297.4,625.6L296.2,623.2L296.0,619.4L295.8,616.6L295.2,613.2L295.2,610.0L294.4,608.4L294.0,605.8L301.2,602.6L306.0,600.8L310.8,600.0L314.6,598.6L317.8,597.8L321.0,597.6L324.8,596.6L328.6,594.8L330.8,594.0L333.2,592.6L334.8,591.2L336.4,589.0L337.8,587.6L339.8,586.6L341.8,586.0L344.4,585.2L347.2,585.2L350.0,585.2L353.4,584.6L355.4,583.8L359.0,581.6L362.0,581.0L366.2,580.4L368.0,582.6L368.0,584.8L368.2,586.2L370.2,591.8L375.0,588.8L377.2,587.6L380.4,586.8L383.8,586.2L384.6,591.2L389.8,593.0L392.6,593.0L395.4,594.0L398.4,594.8L399.8,596.0L401.8,597.6L402.6,597.0L404.6,593.2L407.8,592.8L410.4,591.6L412.4,590.4L416.0,589.6L417.0,590.8L420.8,589.8L426.4,589.4L428.2,588.4L430.4,589.0L433.8,589.0L437.0,589.2L439.0,592.4L442.4,595.2L448.2,594.8L455.8,594.4L462.8,595.0L469.2,595.4L474.4,596.6L477.8,597.0L482.0,597.8L486.8,599.8L491.0,602.2L494.8,604.4L498.2,607.4L501.6,610.4L504.8,613.8L507.2,616.2L508.2,618.2L509.0,619.4L511.0,619.8L513.0,622.2L515.8,622.2L518.8,624.4L520.4,626.6L521.6,629.2L521.0,631.0L525.0,633.2L530.6,637.0L529.6,639.0L532.0,644.6L530.8,651.0L530.6,653.0L530.2,655.2L531.2,657.4L529.4,662.4L529.0,665.0L529.4,667.8L527.6,668.6L526.2,672.2L525.2,675.6L524.6,678.2L525.2,683.2L524.8,687.0L524.4,691.2L522.0,689.75L516.75,689.5L505.25,689.25L504.5,685.25L503.5,689.25L494.0,689.75L490.5,690.5L488.75,689.75L487.75,691.5L482.0,691.5L476.75,691.5L473.5,692.0L471.25,692.5L466.5,692.5L464.5,692.75L462.5,690.5L462.25,694.25L457.5,695.5L454.0,695.75L448.75,696.5L443.25,696.75L439.5,697.75L440.0,699.75L438.5,700.75L434.75,702.5L424.5,705.25L414.0,708.25L395.25,713.25L393.0,713.25L392.0,710.5L392.0,708.25L390.25,705.5L389.5,709.0L386.25,710.75L379.5,713.0L381.0,718.0L371.5,723.0L369.75,722.75L367.0,714.5L366.0,719.0L367.0,722.5L368.0,725.75L361.25,729.25Z" />
	</g>
</svg>
