<svg xmlns="http://www.w3.org/2000/svg" viewBox="0,0,800,699" width="100%" height="100%">
	<defs>
		<style type="text/css">
.qing-map-1616134693943
{
	fill: #DDDDDD;
	fill-opacity: 1.0;
	stroke: #FFFFFF;
	stroke-opacity: 1.0;
	stroke-width: 1;
}

.qing-map-1616134693943:hover
{
	fill: #56A4FF;
	fill-opacity: 1.0;
}
</style>
	</defs>
	<g>
		<path id="L1611207604495" name="遵义市" class="qing-map-1616134693943" d="M318.8,235.6L321.0,236.0L326.0,234.0L326.2,232.2L330.2,231.8L333.2,231.6L337.2,233.2L339.6,233.8L341.4,234.8L343.6,233.8L345.4,234.2L346.0,233.0L348.2,233.2L354.0,228.4L355.4,227.4L357.2,227.8L359.4,226.0L357.8,225.0L356.8,224.0L359.0,221.4L359.2,218.6L357.6,218.4L357.4,216.0L355.0,215.0L355.6,213.4L355.8,210.2L357.4,208.8L353.6,201.4L350.0,201.0L347.4,198.8L350.2,193.8L350.4,192.0L348.4,189.2L346.6,188.6L345.6,186.2L343.8,185.6L343.6,183.6L341.6,183.4L338.6,181.2L334.6,179.6L331.8,179.6L329.2,179.8L325.6,182.6L323.8,182.8L322.0,184.2L323.0,186.8L321.6,187.2L320.2,185.6L318.8,186.2L317.4,185.6L316.4,187.2L315.0,184.4L314.4,183.0L311.6,182.4L310.8,183.8L309.6,182.8L306.4,185.4L303.8,184.6L304.4,182.6L302.4,180.4L302.2,179.0L304.2,173.4L305.0,169.8L303.0,167.0L301.2,167.8L299.4,165.4L297.4,160.2L295.2,160.0L293.4,156.2L291.8,156.2L291.4,158.6L292.8,159.8L287.0,160.4L286.8,165.2L281.2,163.2L278.6,159.4L276.0,158.6L277.0,154.6L277.2,153.4L278.0,152.0L275.6,147.8L276.8,145.8L275.6,142.6L274.4,143.4L272.0,142.0L273.4,139.0L272.2,137.0L274.0,135.4L273.8,131.2L275.4,131.8L278.4,131.0L279.4,129.4L281.0,129.4L280.4,127.0L281.8,125.0L282.4,121.4L284.8,122.2L288.0,118.8L289.6,121.0L290.6,121.4L292.8,119.4L296.0,120.2L298.4,120.4L300.6,119.4L302.0,120.0L303.4,121.0L306.0,120.6L307.6,119.8L306.6,118.2L306.4,114.2L305.8,112.4L305.8,111.0L307.6,110.8L310.6,109.6L311.2,107.0L313.4,104.8L313.6,103.2L314.4,100.4L314.6,98.4L315.8,100.8L318.8,100.8L321.6,104.0L320.6,105.8L322.8,105.6L323.0,108.0L325.4,108.4L327.0,108.2L328.8,109.6L329.8,113.6L331.0,116.0L333.2,115.6L332.8,114.0L335.0,114.8L337.8,115.2L338.4,118.0L340.6,120.0L340.6,122.0L343.0,125.0L344.6,124.4L347.6,126.8L351.0,130.2L352.2,129.0L353.8,130.4L355.4,134.0L356.8,134.6L357.6,137.0L359.8,137.2L361.4,136.8L363.2,137.2L363.6,134.2L363.2,130.8L363.4,128.8L365.0,128.6L365.0,126.4L366.0,124.8L367.4,125.4L369.8,127.0L370.8,126.4L373.8,128.2L375.0,130.4L377.2,128.8L379.2,129.2L377.2,126.0L374.4,122.6L375.4,120.6L377.2,122.2L378.8,125.0L381.6,123.8L380.0,123.4L377.4,119.8L378.2,118.0L379.4,114.6L379.2,112.6L382.0,110.4L380.6,107.8L379.2,104.4L378.0,103.6L378.2,102.4L373.8,98.2L372.8,94.0L374.4,94.2L373.0,91.6L374.4,89.4L376.4,91.2L379.8,94.2L380.8,95.8L382.4,96.8L384.0,97.6L385.6,99.4L385.0,104.0L387.0,105.8L388.8,108.2L390.8,108.8L392.6,108.2L391.4,110.0L393.8,112.4L395.4,111.8L395.8,114.0L392.6,114.4L394.2,116.8L393.8,119.8L392.0,119.2L390.8,121.8L392.4,126.6L389.0,130.0L386.2,130.8L385.4,132.6L385.4,135.8L389.0,135.6L388.4,133.0L389.8,131.8L391.0,133.6L393.8,133.6L394.4,136.2L395.6,137.2L397.4,135.4L399.2,136.6L400.8,136.2L401.2,139.0L403.6,140.4L406.0,139.8L407.6,138.6L407.6,135.0L405.0,131.2L407.0,127.0L411.6,126.2L411.8,124.0L409.0,121.8L409.4,119.2L411.0,118.4L412.2,117.2L413.6,120.8L415.4,122.2L418.2,119.6L417.4,117.4L421.6,117.6L422.6,113.8L423.4,110.8L424.0,108.4L422.8,107.4L421.4,108.0L420.4,106.8L421.4,105.6L420.2,103.0L418.0,102.2L417.0,99.8L418.8,96.4L421.2,95.6L421.6,96.6L424.0,95.2L426.2,94.0L428.8,92.4L430.4,93.8L430.6,95.8L432.0,95.8L432.6,97.4L434.6,96.8L437.2,97.0L436.4,95.6L436.2,92.4L436.6,89.2L436.4,86.6L440.0,85.0L440.2,82.2L442.0,82.2L442.0,84.4L444.0,84.0L443.4,82.4L445.4,80.2L446.6,81.8L445.4,84.2L448.6,83.4L449.0,81.2L454.4,81.4L455.4,83.2L456.6,81.6L458.4,82.6L460.4,80.8L460.8,82.0L460.0,82.8L461.8,84.2L460.8,88.0L463.6,88.2L463.0,90.6L463.2,93.4L464.0,94.6L463.6,96.8L467.6,98.2L468.2,94.2L470.0,94.0L473.6,92.4L477.8,92.0L477.8,90.6L479.0,90.0L477.4,88.2L479.6,87.2L482.0,87.4L484.2,86.0L485.2,83.6L486.6,81.4L487.8,81.8L487.4,79.2L487.8,76.4L490.6,73.0L487.4,71.4L485.8,69.8L486.2,68.0L484.6,66.8L482.6,66.8L481.2,64.4L483.0,62.6L484.8,61.0L484.2,58.0L483.2,57.8L482.4,52.8L485.4,53.4L487.6,53.2L489.4,48.6L486.8,47.0L487.6,43.8L486.2,41.6L486.8,40.2L488.6,40.2L490.8,38.4L492.8,39.6L492.8,41.6L494.0,42.8L496.2,41.8L499.8,39.8L502.0,39.0L504.0,36.4L505.8,36.0L506.2,39.4L507.6,42.8L507.8,45.8L509.6,45.2L510.0,43.2L511.2,43.2L512.6,42.8L514.0,44.2L515.8,44.0L517.4,45.8L521.4,46.8L522.6,44.0L523.8,45.2L525.0,41.6L527.2,39.0L530.0,43.2L532.8,46.2L535.0,46.6L532.6,52.2L531.6,59.4L534.4,60.2L536.4,61.8L535.8,65.4L534.4,67.8L537.6,70.0L539.8,70.8L541.4,71.6L542.0,68.8L544.0,68.0L544.0,64.8L546.4,65.2L549.6,61.0L551.2,61.8L559.8,61.0L562.0,58.4L565.6,54.6L566.8,57.4L565.6,58.4L566.8,60.8L566.4,64.6L568.8,66.8L570.4,71.6L573.0,73.0L574.0,76.0L572.4,84.0L574.4,85.2L576.2,86.2L577.2,89.0L580.0,91.8L582.0,91.2L582.8,94.6L581.8,98.4L579.0,100.0L579.8,103.6L578.4,106.4L577.8,109.2L575.2,111.0L572.0,112.8L572.6,115.0L569.0,117.4L567.0,116.6L562.0,120.0L560.6,123.4L562.8,124.4L561.2,126.0L564.4,128.6L565.6,131.4L563.6,133.6L563.4,136.2L564.2,139.0L563.0,142.2L566.0,143.0L564.6,146.0L561.6,151.2L558.6,149.8L560.4,147.2L559.0,144.4L555.2,144.2L558.8,142.8L558.2,141.6L556.6,142.0L554.4,141.6L553.6,144.4L553.4,147.2L557.0,149.0L557.0,151.6L554.2,149.8L551.2,149.8L547.8,149.8L547.8,151.8L545.8,151.4L543.2,151.0L541.6,153.0L542.4,155.0L541.4,158.0L542.0,160.8L541.2,173.4L538.8,175.8L535.8,178.0L534.2,177.2L533.4,183.8L531.6,190.8L533.0,193.4L534.8,192.2L535.4,195.2L537.2,195.2L538.2,198.4L540.8,196.6L541.8,194.6L544.8,192.6L544.8,195.0L549.2,200.2L548.0,202.4L548.6,203.8L546.4,205.0L546.2,208.8L547.8,212.4L548.6,215.0L545.8,215.0L545.2,217.2L543.2,218.6L544.0,221.0L543.2,222.8L545.4,224.4L546.4,228.2L548.6,228.6L550.0,231.8L551.4,232.4L549.2,234.2L548.8,238.2L548.8,242.8L550.2,244.2L547.0,249.4L545.4,253.6L546.8,258.8L543.6,262.6L540.2,262.2L537.8,262.8L535.2,269.4L531.8,272.2L530.0,271.6L528.0,274.2L530.0,277.2L533.0,276.4L531.8,279.0L534.0,280.6L532.2,281.6L532.8,283.8L530.2,283.8L528.8,285.0L531.0,286.8L530.6,289.4L534.0,290.6L534.4,292.6L537.2,291.2L538.0,292.8L540.8,291.8L543.2,290.4L545.8,290.6L546.6,293.6L549.4,293.6L547.4,291.2L549.6,289.4L552.8,289.2L551.6,292.4L552.4,294.0L554.8,292.8L557.6,295.4L558.0,298.4L560.8,300.2L562.8,302.2L562.4,304.8L558.0,306.8L554.8,307.0L553.8,310.2L549.2,310.0L546.2,312.4L544.0,311.6L543.0,314.4L543.4,317.2L541.8,318.6L539.4,315.8L539.0,314.0L536.0,314.6L537.6,312.2L533.0,311.0L528.4,311.0L528.0,309.4L531.2,308.2L529.6,307.0L527.0,307.8L524.8,306.8L522.4,306.2L521.2,305.0L519.2,304.4L517.4,304.6L515.0,303.2L515.2,301.2L511.4,301.4L508.0,300.4L504.6,300.8L503.8,303.2L505.6,305.6L502.4,306.8L499.4,304.0L501.2,308.0L498.0,309.2L496.6,306.4L493.4,304.8L492.8,299.2L497.0,295.8L497.6,292.8L497.0,289.2L497.4,287.2L491.6,287.2L490.2,286.4L486.8,290.4L482.8,285.8L485.4,282.8L483.2,279.4L482.4,276.6L479.8,277.0L478.4,275.2L475.8,274.8L474.2,273.2L472.4,273.6L470.8,271.6L469.8,275.0L470.4,277.2L467.8,280.2L468.4,282.0L466.6,283.0L462.0,289.0L459.2,288.8L455.8,289.8L451.4,293.2L447.8,293.2L444.0,289.4L440.4,289.0L438.2,289.6L432.0,295.4L430.0,295.4L428.8,297.8L426.2,301.8L423.6,298.8L422.4,297.4L421.8,295.2L418.8,293.2L415.2,293.2L413.4,294.6L414.0,297.8L413.4,299.6L409.6,302.8L409.8,305.2L408.6,307.0L406.2,306.6L408.2,303.2L406.2,301.4L405.6,296.4L403.6,295.0L404.0,293.0L401.4,289.8L402.2,287.8L403.6,285.2L405.2,281.8L402.8,278.2L402.8,276.2L401.0,273.8L399.0,275.0L395.2,268.2L390.4,264.8L387.4,265.8L384.6,267.0L384.4,268.6L382.6,267.8L381.4,269.0L382.2,271.4L381.4,273.0L376.6,271.2L373.4,268.2L370.6,268.4L365.6,270.6L363.0,271.6L362.4,273.6L358.4,272.0L355.8,268.2L355.4,265.2L359.0,263.6L359.0,259.2L356.6,258.4L355.2,255.8L353.2,253.2L352.8,256.4L350.2,256.4L347.2,258.6L346.2,261.2L343.6,259.8L341.6,260.8L336.8,260.2L337.0,257.8L333.6,254.2L331.6,254.0L332.0,248.6L326.4,247.6L325.0,246.2L323.0,247.6L320.6,247.0L319.0,246.0L320.0,243.4L319.0,240.4Z" />
		<path id="L1611226933594" name="铜仁市" class="qing-map-1616134693943" d="M565.6,54.6L566.8,57.4L565.6,58.4L566.8,60.8L566.4,64.6L568.8,66.8L570.4,71.6L573.0,73.0L574.0,76.0L572.4,84.0L574.4,85.2L576.2,86.2L577.2,89.0L580.0,91.8L582.0,91.2L582.8,94.6L581.8,98.4L579.0,100.0L579.8,103.6L578.4,106.4L577.8,109.2L575.2,111.0L572.0,112.8L572.6,115.0L569.0,117.4L567.0,116.6L562.0,120.0L560.6,123.4L562.8,124.4L561.2,126.0L564.4,128.6L565.6,131.4L563.6,133.6L563.4,136.2L564.2,139.0L563.0,142.2L566.0,143.0L564.6,146.0L561.6,151.2L558.6,149.8L560.4,147.2L559.0,144.4L555.2,144.2L558.8,142.8L558.2,141.6L556.6,142.0L554.4,141.6L553.6,144.4L553.4,147.2L557.0,149.0L557.0,151.6L554.2,149.8L551.2,149.8L547.8,149.8L547.8,151.8L545.8,151.4L543.2,151.0L541.6,153.0L542.4,155.0L541.4,158.0L542.0,160.8L541.2,173.4L538.8,175.8L535.8,178.0L534.2,177.2L533.4,183.8L531.6,190.8L533.0,193.4L534.8,192.2L535.4,195.2L537.2,195.2L538.2,198.4L540.8,196.6L541.8,194.6L544.8,192.6L544.8,195.0L549.2,200.2L548.0,202.4L548.6,203.8L546.4,205.0L546.2,208.8L547.8,212.4L548.6,215.0L545.8,215.0L545.2,217.2L543.2,218.6L544.0,221.0L543.2,222.8L545.4,224.4L546.4,228.2L548.6,228.6L550.0,231.8L551.4,232.4L549.2,234.2L548.8,238.2L548.8,242.8L550.2,244.2L547.0,249.4L545.4,253.6L546.8,258.8L543.6,262.6L540.2,262.2L537.8,262.8L535.2,269.4L531.8,272.2L530.0,271.6L528.0,274.2L530.0,277.2L533.0,276.4L531.8,279.0L534.0,280.6L532.2,281.6L532.8,283.8L530.2,283.8L528.8,285.0L531.0,286.8L530.6,289.4L534.0,290.6L534.4,292.6L537.2,291.2L538.0,292.8L540.8,291.8L543.2,290.4L545.8,290.6L546.6,293.6L549.4,293.6L547.4,291.2L549.6,289.4L552.8,289.2L551.6,292.4L552.4,294.0L554.8,292.8L557.6,295.4L560.4,293.6L562.8,293.8L566.4,292.8L567.6,291.4L570.6,293.2L574.0,293.2L574.4,295.4L577.8,298.6L580.6,292.0L582.0,291.4L582.2,288.8L586.2,287.0L588.2,288.0L589.6,290.0L592.4,290.8L594.2,289.4L596.2,289.4L599.2,288.0L599.4,286.6L607.0,280.8L609.2,279.0L611.6,279.8L615.2,281.6L616.6,279.4L619.8,279.8L619.8,276.4L621.0,275.2L623.0,270.0L624.6,271.8L626.8,272.8L628.6,271.4L628.2,268.2L630.2,266.0L633.6,266.8L635.2,267.4L636.4,269.0L638.2,268.0L640.4,266.2L643.8,267.2L646.0,270.2L647.0,273.2L648.6,271.2L652.4,271.0L656.2,272.0L655.0,269.6L656.4,268.2L658.0,269.8L660.0,270.2L661.4,269.2L663.4,269.8L665.0,271.0L667.6,268.2L670.4,268.4L671.0,270.0L673.6,269.8L671.0,273.8L672.4,275.6L675.8,275.0L675.8,277.0L678.2,275.8L680.6,278.6L681.4,281.8L680.0,285.2L678.4,286.6L675.6,286.4L672.8,286.4L670.0,287.4L667.4,287.2L666.0,288.8L663.6,290.2L663.4,287.0L659.8,286.8L660.6,289.2L658.4,289.4L659.8,292.0L661.4,294.6L660.2,297.4L661.0,298.4L659.0,299.8L658.2,304.2L654.6,307.8L656.6,311.0L658.4,311.8L659.6,313.8L660.6,316.8L663.4,320.0L665.4,317.8L666.6,315.4L667.8,315.2L668.0,312.2L667.0,310.4L665.4,308.6L667.8,307.0L670.0,306.2L671.8,304.4L674.8,302.0L675.0,299.8L676.4,301.0L680.2,299.2L681.8,299.0L683.6,296.8L682.2,291.6L684.4,292.8L686.2,292.0L688.8,291.8L689.0,289.4L690.4,288.6L690.0,286.2L691.8,284.4L690.4,282.4L693.4,280.0L693.0,278.0L690.6,280.8L689.2,280.0L694.0,275.8L696.0,278.0L695.0,280.6L700.2,278.0L701.8,275.4L703.4,277.6L706.2,278.2L707.0,279.6L708.8,279.2L712.0,279.8L713.6,276.0L712.2,272.0L714.0,272.4L715.4,270.0L717.2,269.2L721.4,265.0L723.0,265.0L723.2,262.2L726.6,261.8L728.0,262.8L729.8,261.0L731.8,261.0L730.6,257.6L732.6,255.4L733.6,250.0L731.6,247.6L732.2,245.2L733.8,245.6L731.0,243.0L728.0,242.0L725.2,239.0L723.6,239.6L721.2,238.8L721.6,237.0L719.2,236.0L720.0,234.8L718.8,232.2L716.2,232.0L717.8,227.0L717.8,223.2L715.0,221.4L717.2,220.2L714.6,217.6L713.6,214.4L714.6,211.6L712.4,207.4L714.8,205.8L715.2,203.6L717.4,200.8L720.0,200.2L721.8,196.6L716.8,193.0L715.2,195.8L713.4,197.2L712.2,197.4L712.4,192.4L714.2,190.0L713.6,187.4L715.8,186.2L715.8,184.2L717.0,182.0L716.8,180.0L718.6,179.2L717.2,176.0L718.2,173.4L720.0,171.0L720.8,167.6L723.6,165.6L721.4,164.4L719.2,165.8L719.4,163.4L717.0,162.4L713.6,164.8L712.0,164.0L712.2,162.0L710.4,160.0L708.6,157.0L709.6,154.4L711.0,152.0L709.8,150.8L707.8,147.6L707.6,142.2L707.6,139.2L709.0,134.8L704.6,137.8L702.8,137.2L699.8,137.6L698.6,140.4L698.0,142.8L696.6,143.8L696.6,145.4L694.4,145.6L695.4,147.2L694.8,150.0L693.6,152.8L695.0,154.6L693.6,155.8L693.4,158.0L691.6,162.6L687.4,166.8L686.4,168.2L687.6,171.2L688.6,174.4L687.4,175.4L686.8,176.6L684.4,175.4L681.8,174.4L680.6,173.0L679.4,173.0L678.0,175.4L678.4,179.0L676.4,180.4L674.6,179.6L673.8,178.4L670.2,177.0L667.8,176.0L668.4,173.8L667.4,172.2L666.2,172.8L664.2,172.0L661.0,173.8L659.4,174.6L656.8,173.4L655.4,171.4L654.6,168.8L653.2,169.0L653.0,170.6L650.4,172.2L648.2,175.8L648.0,172.2L647.0,170.8L645.4,170.8L645.2,168.0L644.0,166.2L644.0,163.8L648.4,160.8L649.2,158.8L648.0,158.2L650.0,155.8L650.2,152.4L650.8,150.4L648.2,149.0L650.6,144.0L649.6,142.2L646.6,141.2L645.8,138.6L644.2,138.4L642.8,134.8L640.4,136.2L637.4,137.4L635.2,137.4L634.0,140.4L637.0,142.4L639.4,145.2L640.0,148.0L638.0,149.4L635.6,153.6L638.0,154.6L638.0,155.8L633.4,157.0L630.6,157.8L629.4,155.6L626.6,155.6L626.0,152.6L626.0,150.2L627.4,147.2L629.8,146.4L630.0,142.6L628.6,140.8L627.4,139.2L627.6,136.0L625.6,134.2L627.0,133.2L625.8,130.2L627.0,128.4L630.4,128.8L629.6,121.8L632.6,117.6L632.2,115.0L630.0,115.6L628.8,115.0L627.0,115.8L626.6,113.6L624.8,112.2L624.2,114.2L622.4,113.8L618.2,115.2L617.4,116.6L615.4,116.8L612.2,115.8L610.0,115.8L604.4,114.0L600.0,110.6L597.0,109.6L599.0,105.8L598.6,102.2L602.6,97.2L604.0,95.0L603.0,92.4L599.6,91.0L599.8,88.2L599.0,87.2L598.6,85.2L599.8,82.4L600.2,80.0L599.2,78.6L598.8,74.0L597.6,72.2L595.8,72.4L595.2,69.2L594.2,65.8L594.4,63.2L592.8,60.0L593.6,55.6L592.0,54.2L589.8,53.8L588.8,55.6L588.2,59.4L586.2,61.8L584.0,61.0L584.4,60.0L582.0,58.2L580.6,56.2L577.6,57.2L574.8,58.8L572.8,58.6L571.6,56.6Z" />
		<path id="L1611229076608" name="毕节市" class="qing-map-1616134693943" d="M185.0,357.4L188.2,358.8L191.8,358.6L190.6,356.0L192.8,352.0L195.8,349.0L199.8,347.2L202.8,348.0L202.8,353.4L200.0,356.2L199.2,358.4L200.8,360.6L203.2,361.0L206.4,363.8L204.6,366.0L208.4,368.8L210.8,370.8L208.2,374.4L209.4,377.4L211.0,382.0L209.4,383.4L212.4,387.4L214.6,387.4L216.8,393.0L221.4,391.2L223.0,392.8L224.8,393.0L224.0,397.2L232.6,401.4L234.8,398.6L238.2,400.6L241.2,402.2L240.2,404.2L241.8,406.8L243.2,405.4L244.4,408.2L247.0,408.2L251.2,408.6L251.4,412.4L254.2,411.8L256.6,410.4L259.8,411.2L259.4,414.0L261.2,415.4L261.2,417.4L263.2,422.0L267.0,421.2L269.0,418.8L270.2,416.0L276.4,413.0L280.0,410.8L282.2,412.2L282.4,410.0L286.6,408.4L289.4,410.0L293.2,406.2L300.0,406.6L307.8,400.0L311.0,401.4L314.8,399.8L314.2,402.2L315.6,405.0L315.6,408.0L314.6,409.2L316.0,411.4L322.4,408.6L323.8,407.2L325.4,408.6L334.2,404.6L334.6,400.0L335.6,392.4L337.4,390.8L336.8,387.0L336.4,384.2L333.4,383.4L334.6,381.2L339.0,380.6L339.4,378.4L338.0,375.6L338.8,369.8L339.8,367.6L334.2,363.2L334.0,360.2L336.4,355.8L339.4,355.8L342.2,354.8L343.6,351.8L346.6,350.6L348.6,354.8L351.6,355.8L355.4,350.6L358.4,352.6L361.8,350.6L361.0,346.6L362.2,343.4L363.6,341.4L364.8,339.0L369.4,337.4L371.0,335.8L372.8,334.8L370.0,334.0L369.4,331.6L367.8,330.2L368.2,327.8L365.8,323.6L366.2,320.2L367.6,317.6L369.0,315.4L371.4,315.4L372.0,311.0L374.2,310.6L376.4,310.0L379.0,307.8L382.4,306.2L385.0,303.8L388.4,303.2L390.6,301.0L392.0,301.2L394.2,296.4L398.2,295.6L401.2,294.4L403.6,295.0L404.0,293.0L401.4,289.8L402.2,287.8L403.6,285.2L405.2,281.8L402.8,278.2L402.8,276.2L401.0,273.8L399.0,275.0L395.2,268.2L390.4,264.8L387.4,265.8L384.6,267.0L384.4,268.6L382.6,267.8L381.4,269.0L382.2,271.4L381.4,273.0L376.6,271.2L373.4,268.2L370.6,268.4L365.6,270.6L363.0,271.6L362.4,273.6L358.4,272.0L355.8,268.2L355.4,265.2L359.0,263.6L359.0,259.2L356.6,258.4L355.2,255.8L353.2,253.2L352.8,256.4L350.2,256.4L347.2,258.6L346.2,261.2L343.6,259.8L341.6,260.8L336.8,260.2L337.0,257.8L333.6,254.2L331.6,254.0L332.0,248.6L326.4,247.6L325.0,246.2L323.0,247.6L320.6,247.0L319.0,246.0L320.0,243.4L319.0,240.4L318.8,235.6L317.0,235.6L310.4,239.0L308.8,236.0L305.8,237.2L304.0,237.6L302.6,239.0L300.2,241.6L298.0,240.8L296.2,241.0L292.6,239.8L290.4,240.0L286.2,241.4L285.4,244.4L282.8,245.6L279.0,244.0L276.2,247.4L273.6,246.8L273.4,244.6L271.2,242.4L271.2,240.2L269.4,239.2L267.0,239.4L265.0,238.6L264.0,236.0L262.0,234.2L258.8,233.0L255.4,232.6L253.4,232.6L251.8,232.2L250.4,233.8L249.4,233.4L246.4,234.0L246.2,234.8L244.6,234.6L241.2,236.4L240.2,237.8L238.6,238.8L235.6,242.2L235.6,244.0L237.0,248.4L235.0,251.0L236.0,254.2L230.6,258.4L228.4,259.0L229.2,260.2L227.2,263.4L229.8,263.8L231.0,267.4L228.4,271.0L227.6,272.6L227.8,275.0L226.6,277.0L227.6,278.4L222.4,285.2L221.4,287.2L221.4,283.8L219.0,281.8L217.2,282.8L217.0,281.2L213.4,280.4L211.2,281.6L209.0,280.2L204.6,282.6L203.4,283.0L199.0,287.0L195.0,288.6L192.4,291.6L189.6,293.4L188.4,295.0L184.0,296.8L181.6,296.0L181.6,292.6L181.4,290.8L177.0,288.8L174.6,293.2L172.4,294.0L170.0,290.6L168.0,292.0L166.4,290.8L161.8,291.8L161.4,293.6L159.4,294.0L157.6,293.0L153.2,295.4L148.4,291.8L144.8,292.4L144.4,291.0L142.4,289.2L142.6,287.2L140.8,284.4L141.8,283.0L139.2,282.8L139.0,281.4L137.0,280.6L130.0,278.0L129.0,276.4L128.0,275.0L125.6,274.2L124.6,275.0L123.2,273.2L121.8,275.4L120.0,276.0L121.2,277.4L121.0,279.0L119.8,280.6L117.0,281.8L116.4,285.4L113.8,287.2L110.6,290.8L109.6,292.2L111.6,294.8L110.0,297.4L109.2,296.2L105.4,296.2L106.6,298.2L104.4,299.0L103.2,297.6L102.2,299.6L100.8,301.2L95.8,295.8L96.0,293.6L93.6,291.4L90.4,292.0L82.4,286.4L82.4,282.6L81.6,278.6L77.6,280.8L72.0,277.0L70.2,284.8L69.2,284.2L69.0,290.0L66.0,291.4L66.0,294.6L64.6,295.8L64.2,298.4L61.8,298.2L61.2,300.2L58.8,301.0L56.8,300.6L57.0,303.2L55.2,302.6L54.8,304.2L52.4,307.8L49.8,308.4L50.0,309.4L47.0,315.0L45.2,315.0L45.6,317.6L44.2,319.6L41.0,318.8L39.4,319.8L36.4,320.6L35.2,323.6L38.2,324.4L39.2,327.2L36.2,327.4L34.0,325.8L33.0,328.2L35.0,331.2L35.6,333.0L34.4,335.2L38.8,333.4L41.2,329.6L44.4,329.4L47.8,334.0L50.8,340.6L53.4,343.8L51.6,347.6L53.6,352.8L52.4,354.6L47.6,355.6L46.8,358.4L45.4,359.0L44.6,363.8L46.6,367.4L47.2,370.4L49.6,373.4L51.6,371.6L52.8,373.6L52.0,377.2L52.2,383.0L50.6,386.8L52.2,388.6L52.0,392.4L56.2,394.0L57.6,396.4L59.2,399.4L61.0,399.4L63.6,401.4L67.0,401.2L70.6,401.6L74.4,400.0L76.6,401.0L80.4,400.6L80.4,402.4L84.0,400.6L86.2,402.8L89.0,400.6L88.6,396.8L88.0,395.2L88.4,393.0L90.6,391.2L92.8,388.8L93.8,386.8L95.6,384.2L97.2,384.2L99.2,383.6L100.8,385.2L102.6,385.0L104.0,386.4L107.6,387.2L109.0,386.4L111.0,386.8L112.4,385.8L116.0,386.4L117.2,388.0L119.4,387.6L122.2,387.2L124.2,384.2L125.2,383.8L126.2,381.2L127.6,378.4L127.8,375.6L129.8,375.4L132.8,378.8L132.6,380.2L135.8,383.8L135.0,388.0L135.6,390.2L138.2,393.0L139.8,391.4L144.8,391.8L147.2,391.8L148.6,393.8L148.6,397.0L160.6,401.4L161.2,399.8L160.2,398.4L162.2,396.2L163.4,391.8L162.2,389.6L169.2,385.2L168.2,381.0L170.8,377.4L172.0,376.4L171.2,374.8L169.8,365.2L172.2,362.0L176.0,357.8L178.6,351.8L180.6,349.8L183.2,353.4Z" />
		<path id="L1611230411804" name="贵阳市" class="qing-map-1616134693943" d="M336.8,387.0L336.4,384.2L333.4,383.4L334.6,381.2L339.0,380.6L339.4,378.4L338.0,375.6L338.8,369.8L339.8,367.6L334.2,363.2L334.0,360.2L336.4,355.8L339.4,355.8L342.2,354.8L343.6,351.8L346.6,350.6L348.6,354.8L351.6,355.8L355.4,350.6L358.4,352.6L361.8,350.6L361.0,346.6L362.2,343.4L363.6,341.4L364.8,339.0L369.4,337.4L371.0,335.8L372.8,334.8L370.0,334.0L369.4,331.6L367.8,330.2L368.2,327.8L365.8,323.6L366.2,320.2L367.6,317.6L369.0,315.4L371.4,315.4L372.0,311.0L374.2,310.6L376.4,310.0L379.0,307.8L382.4,306.2L385.0,303.8L388.4,303.2L390.6,301.0L392.0,301.2L394.2,296.4L398.2,295.6L401.2,294.4L403.6,295.0L405.6,296.4L406.2,301.4L408.2,303.2L406.2,306.6L408.6,307.0L409.8,305.2L409.6,302.8L413.4,299.6L414.0,297.8L413.4,294.6L415.2,293.2L418.8,293.2L421.8,295.2L422.4,297.4L423.6,298.8L426.2,301.8L428.8,297.8L430.0,295.4L432.0,295.4L438.2,289.6L440.4,289.0L444.0,289.4L447.8,293.2L451.4,293.2L455.8,289.8L459.2,288.8L462.0,289.0L462.6,292.0L461.2,295.0L459.0,297.4L457.8,300.8L454.4,303.2L457.4,304.8L461.6,303.6L464.0,304.0L466.2,303.8L466.8,306.4L469.0,306.4L468.0,309.4L468.4,312.6L465.8,314.4L463.4,313.2L462.0,315.2L458.2,316.4L461.0,318.8L461.0,321.8L458.4,325.0L457.8,328.6L458.8,333.6L460.4,332.4L461.6,332.6L461.8,335.2L465.4,336.4L467.6,340.8L469.8,348.6L471.4,356.6L469.6,358.0L470.0,363.4L467.6,364.0L464.2,361.2L461.6,362.4L459.0,360.6L455.2,360.0L452.4,361.2L450.6,360.6L449.6,363.2L447.4,361.6L446.2,365.0L444.2,366.4L441.2,367.4L439.8,368.4L437.6,370.0L436.0,369.4L434.0,372.0L435.4,373.4L434.4,374.8L435.6,376.4L433.8,379.2L431.4,378.8L432.8,381.6L433.4,383.4L430.6,383.6L428.8,385.2L427.2,382.0L425.6,384.8L423.2,384.6L422.6,386.8L424.8,386.2L426.6,388.2L428.4,390.2L424.6,391.8L423.6,393.4L420.4,393.2L418.6,394.8L420.4,397.8L419.0,399.6L420.0,401.6L415.8,405.2L416.0,406.6L418.4,409.2L416.6,410.4L415.2,412.8L413.2,412.2L411.2,416.2L409.4,417.2L410.8,419.4L412.8,419.6L413.6,420.8L416.0,418.0L418.6,417.4L420.0,419.2L416.4,420.8L416.6,424.2L414.8,424.2L412.2,425.4L412.4,428.0L416.6,427.8L418.6,429.4L420.0,427.8L423.2,428.0L422.4,430.0L424.6,433.2L420.8,435.0L420.4,437.4L422.6,438.6L424.6,439.6L423.6,442.4L421.4,442.6L420.4,445.0L418.0,445.8L415.8,444.0L415.8,441.0L413.8,440.0L413.8,437.4L413.4,434.2L411.4,435.6L408.8,433.8L408.2,431.0L406.8,433.0L404.4,433.8L401.8,432.0L399.4,431.2L397.6,434.4L396.0,433.4L394.0,433.6L394.4,438.0L391.8,439.0L389.6,440.0L387.0,439.6L384.6,438.4L379.8,439.8L380.4,437.4L378.2,436.6L376.6,434.2L379.4,430.6L381.6,427.8L384.8,427.2L386.0,423.8L384.6,421.8L386.8,420.8L383.8,419.0L378.8,419.0L375.2,416.8L374.0,413.6L372.4,413.4L372.0,411.6L373.0,409.4L371.8,408.0L368.2,409.8L367.8,411.8L365.8,410.8L366.2,415.2L365.0,417.0L363.8,415.6L363.8,412.8L363.4,410.4L357.6,409.8L359.6,407.6L360.0,405.0L356.4,404.8L357.6,401.6L356.0,397.8L351.6,396.2L346.6,398.2L342.8,398.0L341.8,396.2L340.6,396.2L340.2,393.0L341.2,391.2L339.2,390.4L339.2,388.0Z" />
		<path id="L1611230762820" name="黔东南苗族侗族自治州" class="qing-map-1616134693943" d="M731.9,359.3L733.6,358.1L733.6,358.9ZM741.6,372.7L739.8,371.2L740.6,370.6L742.8,372.0L744.7,371.1L743.5,369.8L745.0,370.2L746.5,368.8L746.1,367.5L747.8,369.0L746.5,370.2L745.6,371.3L744.8,372.8L743.0,373.6L741.9,374.2ZM520.2,376.2L521.2,381.4L525.0,385.6L523.8,387.6L526.2,389.2L527.4,391.4L524.4,393.4L521.8,393.0L518.6,392.8L516.4,390.8L514.0,388.2L511.6,388.6L510.4,390.8L508.6,391.6L508.0,388.4L505.8,389.0L504.8,390.8L502.6,392.8L499.8,393.8L498.4,395.8L496.0,394.8L494.2,397.0L492.6,395.0L494.0,392.8L492.2,392.4L490.0,393.8L489.0,395.8L487.0,395.8L485.4,397.8L482.4,396.4L480.0,397.4L478.4,396.0L477.2,398.8L476.0,401.6L478.8,402.0L480.8,403.6L479.2,404.6L477.6,408.0L474.4,409.2L474.8,412.4L476.2,412.8L479.2,416.4L484.2,417.8L487.4,420.0L490.4,417.8L491.0,415.6L493.4,415.0L496.0,415.4L497.6,413.8L500.0,415.0L500.6,419.4L499.6,421.4L500.4,424.2L502.0,423.2L503.4,420.6L505.0,421.8L508.0,420.8L509.2,423.4L512.8,424.2L512.4,427.2L514.4,428.0L515.4,432.4L518.6,428.8L520.2,430.0L523.4,428.0L527.6,426.8L531.2,429.0L530.0,430.4L530.4,432.0L528.4,435.6L527.2,438.4L528.4,439.4L526.4,440.6L526.6,445.4L525.4,447.4L528.4,447.2L529.4,449.4L532.0,449.8L532.6,452.2L534.6,456.0L537.6,456.8L538.4,454.2L540.6,451.4L542.8,453.6L545.8,454.0L548.8,456.6L551.8,460.6L554.8,458.8L557.8,459.0L561.4,457.6L565.0,460.2L566.4,459.4L570.6,460.2L571.6,458.2L574.0,458.4L574.0,457.2L578.0,460.0L576.4,461.0L577.2,464.2L579.4,465.2L581.4,463.6L583.6,460.6L584.2,464.2L586.2,465.0L583.2,470.4L582.6,473.4L579.4,476.0L577.6,475.0L577.2,478.8L573.8,481.8L574.6,485.4L573.4,487.0L571.2,490.4L570.4,493.6L568.4,494.4L567.8,497.4L567.0,500.0L571.0,503.0L569.6,503.6L569.8,507.0L570.4,510.8L572.4,510.8L575.2,510.0L577.2,512.4L577.6,515.6L580.0,516.8L579.8,519.0L580.6,521.4L583.2,521.4L586.2,519.2L586.8,521.8L587.2,524.8L590.6,526.2L591.2,528.6L591.8,532.6L594.0,533.4L596.8,531.6L599.2,531.6L599.2,533.6L601.4,536.0L604.2,536.8L606.0,540.0L607.4,544.6L609.0,544.6L611.6,542.2L614.4,541.8L617.2,543.4L618.4,546.0L618.0,547.6L619.8,547.4L622.2,548.8L623.8,550.2L624.8,552.8L627.4,554.2L628.2,556.6L627.8,558.0L631.6,561.6L632.4,555.8L630.4,554.6L631.8,553.0L631.8,551.8L630.4,550.2L630.8,548.6L628.4,548.6L627.8,546.6L629.0,544.6L628.4,542.4L629.8,539.6L632.4,540.8L632.8,539.4L631.0,537.4L632.4,534.8L634.0,533.0L637.0,532.2L639.6,533.8L639.2,531.2L636.2,529.8L636.6,524.0L638.8,524.0L639.0,522.4L639.6,519.6L643.2,519.6L643.8,518.6L648.6,518.0L648.6,519.4L650.8,519.8L649.8,522.4L651.8,523.4L652.6,526.0L651.4,529.0L652.4,529.4L654.2,532.6L656.0,529.6L657.4,530.2L659.4,529.4L660.8,528.6L663.4,529.0L663.2,530.2L665.8,530.6L669.4,529.0L671.8,529.6L673.2,532.4L676.2,532.0L679.2,534.2L681.4,532.8L683.0,532.6L686.0,530.6L687.2,529.2L682.8,527.2L682.2,523.8L681.0,520.8L681.2,516.6L682.2,514.4L685.0,510.8L685.2,507.8L683.4,506.6L683.2,504.0L682.0,505.4L680.0,506.8L677.2,505.0L676.0,506.4L673.4,509.6L669.8,512.0L667.4,512.6L664.8,511.2L664.2,507.2L669.6,504.2L670.6,505.4L672.2,505.6L672.2,503.6L676.4,501.4L676.2,498.8L677.6,498.0L681.6,498.0L685.6,499.4L687.2,496.4L691.6,495.6L693.6,497.6L694.4,499.4L692.2,501.4L694.0,503.6L695.4,502.4L696.6,501.6L698.4,501.4L698.0,498.8L696.6,497.2L698.0,495.8L701.2,498.2L701.2,500.2L699.8,500.8L701.4,501.6L701.8,505.0L704.0,504.6L707.2,507.0L709.6,508.2L711.6,507.6L714.0,506.8L714.0,505.0L717.2,505.6L717.2,503.2L715.6,501.2L717.0,500.2L715.6,498.8L717.2,495.6L717.8,491.4L719.8,491.0L720.6,489.4L723.4,487.0L723.4,483.2L728.0,481.2L727.8,479.0L729.0,475.8L725.6,473.8L728.0,472.2L733.0,468.8L734.0,466.0L733.0,463.6L730.4,461.4L730.8,456.4L732.4,457.8L733.4,456.4L736.8,456.4L737.8,453.0L735.6,450.4L733.8,450.4L733.2,448.8L733.2,446.8L732.2,444.4L733.0,442.4L730.8,442.0L730.6,439.2L728.8,436.8L731.0,434.6L731.0,432.4L733.0,429.4L732.0,428.2L729.8,430.2L729.4,431.4L727.2,431.8L722.2,432.4L718.8,434.8L716.2,433.6L714.6,431.2L712.2,430.0L710.4,430.2L709.8,428.2L709.8,425.0L711.0,423.4L713.2,423.6L711.8,420.0L713.2,418.0L714.4,418.0L716.0,413.0L718.0,411.0L722.0,408.0L720.2,406.2L723.6,403.2L722.0,400.4L725.2,398.4L725.2,397.0L723.8,394.4L722.8,393.4L722.8,389.0L721.8,386.2L719.4,384.6L719.4,382.4L717.0,383.8L712.4,381.4L712.6,379.2L711.2,376.4L712.6,376.6L713.8,375.0L717.0,376.0L719.2,375.8L720.4,376.4L721.8,375.0L723.4,374.4L722.4,373.0L724.4,372.8L726.6,373.4L725.8,371.4L728.8,370.0L729.8,368.0L731.2,368.8L733.6,367.6L735.2,368.2L737.4,368.0L737.8,370.2L739.0,369.6L738.6,368.0L739.8,365.8L738.0,363.4L736.0,361.2L736.2,359.2L737.6,357.8L738.4,355.8L737.8,353.8L738.0,352.2L735.6,352.0L734.4,350.2L732.8,350.8L731.6,353.2L731.2,354.6L729.0,355.2L729.4,353.0L729.4,350.2L732.8,348.4L735.6,347.0L737.67,345.83L739.17,346.67L741.0,346.0L740.67,344.83L742.83,344.0L743.67,343.0L742.33,341.33L741.33,339.17L739.5,339.5L739.83,337.67L741.33,337.17L741.33,334.67L739.5,333.17L739.17,331.17L738.17,330.5L738.17,327.83L737.17,326.5L735.83,325.83L735.0,327.17L735.5,328.33L734.33,329.17L731.0,327.5L734.0,326.83L734.0,325.83L731.67,325.33L731.33,321.67L732.6,320.8L732.6,318.6L729.8,319.8L727.6,319.2L725.8,316.0L724.0,316.0L723.4,317.6L721.4,316.2L720.0,316.8L718.8,316.0L716.6,316.2L716.6,318.2L714.2,318.6L713.0,317.8L712.2,319.0L707.8,319.4L706.2,316.4L704.6,318.4L702.2,320.8L701.4,323.6L699.0,325.2L697.2,325.0L696.6,328.2L695.4,326.8L692.0,327.2L689.0,326.8L690.8,322.4L692.0,320.0L687.4,321.0L683.4,322.4L681.2,323.8L680.0,322.2L679.2,324.8L677.2,326.8L675.6,326.6L673.0,330.0L669.4,330.0L671.2,334.2L667.6,335.0L666.8,332.8L665.4,334.0L661.6,336.8L662.0,335.4L660.8,333.2L658.8,331.4L658.0,329.4L656.0,328.6L651.6,325.4L653.8,323.2L655.8,324.6L658.0,323.0L659.4,323.2L660.2,321.0L662.4,321.8L663.4,320.0L660.6,316.8L659.6,313.8L658.4,311.8L656.6,311.0L654.6,307.8L658.2,304.2L659.0,299.8L661.0,298.4L660.2,297.4L661.4,294.6L659.8,292.0L658.4,289.4L660.6,289.2L659.8,286.8L663.4,287.0L663.6,290.2L666.0,288.8L667.4,287.2L670.0,287.4L672.8,286.4L675.6,286.4L678.4,286.6L680.0,285.2L681.4,281.8L680.6,278.6L678.2,275.8L675.8,277.0L675.8,275.0L672.4,275.6L671.0,273.8L673.6,269.8L671.0,270.0L670.4,268.4L667.6,268.2L665.0,271.0L663.4,269.8L661.4,269.2L660.0,270.2L658.0,269.8L656.4,268.2L655.0,269.6L656.2,272.0L652.4,271.0L648.6,271.2L647.0,273.2L646.0,270.2L643.8,267.2L640.4,266.2L638.2,268.0L636.4,269.0L635.2,267.4L633.6,266.8L630.2,266.0L628.2,268.2L628.6,271.4L626.8,272.8L624.6,271.8L623.0,270.0L621.0,275.2L619.8,276.4L619.8,279.8L616.6,279.4L615.2,281.6L611.6,279.8L609.2,279.0L607.0,280.8L599.4,286.6L599.2,288.0L596.2,289.4L594.2,289.4L592.4,290.8L589.6,290.0L588.2,288.0L586.2,287.0L582.2,288.8L582.0,291.4L580.6,292.0L577.8,298.6L574.4,295.4L574.0,293.2L570.6,293.2L567.6,291.4L566.4,292.8L562.8,293.8L560.4,293.6L557.6,295.4L558.0,298.4L560.8,300.2L562.8,302.2L562.4,304.8L558.0,306.8L554.8,307.0L553.8,310.2L549.2,310.0L546.2,312.4L544.0,311.6L543.0,314.4L543.4,317.2L541.8,318.6L539.4,315.8L539.0,314.0L536.0,314.6L537.6,312.2L533.0,311.0L528.4,311.0L528.0,309.4L531.2,308.2L529.6,307.0L527.0,307.8L524.8,306.8L522.4,306.2L521.2,305.0L519.2,304.4L517.4,304.6L516.4,308.4L519.2,309.0L519.0,312.2L520.2,315.2L522.2,317.6L522.4,319.6L519.6,323.2L517.8,324.2L519.6,326.0L518.6,327.0L516.8,325.8L513.8,329.8L515.4,333.2L515.0,334.6L516.8,338.0L515.8,341.4L513.0,341.6L512.2,344.8L509.8,348.2L512.4,351.8L515.2,353.0L514.4,355.6L515.0,358.2L519.4,358.0L520.8,356.0L521.6,354.0L524.4,356.0L526.0,357.0L525.8,360.4L529.0,364.0L526.6,366.4L524.2,368.6L521.6,370.8Z" />
		<path id="L1611232483735" name="六盘水市" class="qing-map-1616134693943" d="M148.6,397.0L160.6,401.4L161.2,399.8L160.2,398.4L162.2,396.2L163.4,391.8L162.2,389.6L169.2,385.2L168.2,381.0L170.8,377.4L172.0,376.4L171.2,374.8L169.8,365.2L172.2,362.0L176.0,357.8L178.6,351.8L180.6,349.8L183.2,353.4L185.0,357.4L188.2,358.8L191.8,358.6L190.6,356.0L192.8,352.0L195.8,349.0L199.8,347.2L202.8,348.0L202.8,353.4L200.0,356.2L199.2,358.4L200.8,360.6L203.2,361.0L206.4,363.8L204.6,366.0L208.4,368.8L210.8,370.8L208.2,374.4L209.4,377.4L211.0,382.0L209.4,383.4L212.4,387.4L214.6,387.4L216.8,393.0L221.4,391.2L223.0,392.8L224.8,393.0L224.0,397.2L232.6,401.4L234.8,398.6L238.2,400.6L241.2,402.2L240.2,404.2L241.8,406.8L243.2,405.4L244.4,408.2L247.0,408.2L251.2,408.6L251.4,412.4L254.2,411.8L256.6,410.4L259.8,411.2L259.4,414.0L261.2,415.4L261.2,417.4L263.2,422.0L260.8,423.0L258.8,424.8L258.6,426.6L257.4,427.8L258.2,429.6L256.4,431.4L256.4,433.4L255.8,434.8L257.8,436.4L259.8,439.6L262.4,438.4L262.8,440.4L266.2,439.0L267.4,439.8L270.0,438.6L271.0,441.0L274.2,442.2L278.4,441.8L280.8,443.2L283.2,445.6L285.0,444.6L285.8,447.6L284.4,448.6L283.0,447.2L280.2,448.6L279.8,451.6L277.2,451.0L274.8,451.0L273.6,448.8L271.8,448.4L272.2,453.2L271.0,454.4L270.4,459.0L270.0,461.4L268.2,459.6L266.8,460.0L263.8,460.2L263.4,461.6L261.8,461.6L260.6,463.8L260.4,466.0L258.0,466.2L255.8,466.4L253.0,467.8L250.8,467.6L247.6,468.2L246.2,468.8L244.0,468.0L242.0,468.2L237.6,468.8L232.6,467.6L229.4,469.6L229.8,472.0L227.4,472.0L225.4,468.0L225.4,466.0L221.6,461.0L223.0,457.6L220.0,453.6L220.8,449.6L222.0,447.0L218.6,446.6L215.6,449.6L213.4,448.0L210.6,449.0L206.4,446.8L200.2,452.2L200.4,454.4L198.8,455.2L201.4,457.2L198.4,458.8L198.6,460.8L196.8,461.2L194.2,464.4L194.6,468.8L193.0,471.2L191.4,476.4L192.0,480.4L193.6,480.0L193.0,483.8L193.0,487.0L190.0,489.0L187.6,489.6L185.8,492.4L184.6,495.2L184.2,500.8L186.4,505.8L188.0,509.6L187.8,514.8L181.8,519.6L184.0,522.0L185.2,525.0L184.0,527.8L187.6,528.2L189.2,529.4L189.2,533.4L187.6,537.0L184.0,542.0L181.4,547.6L182.8,551.6L186.2,553.8L184.4,555.8L180.6,553.6L180.2,556.2L176.8,556.8L173.8,558.2L172.4,556.6L171.0,557.8L168.0,557.2L167.2,558.6L165.2,557.8L163.8,559.6L161.8,557.8L162.4,554.4L160.2,553.6L159.4,552.4L157.4,555.0L156.4,554.0L153.0,553.8L150.8,551.4L148.2,548.6L146.8,550.4L144.8,548.6L145.2,542.4L144.6,541.0L146.2,540.4L146.6,534.2L145.6,532.2L145.2,534.0L143.0,533.0L137.4,537.2L133.8,536.6L133.4,539.4L132.0,539.2L131.8,538.2L131.0,536.2L132.2,535.2L131.8,529.6L130.4,527.2L130.6,526.0L129.6,524.8L127.6,523.8L124.0,526.2L124.0,523.8L123.0,522.6L121.0,521.8L120.8,523.8L119.8,520.8L118.0,518.8L118.8,517.4L117.2,515.8L118.2,512.6L118.6,509.0L118.8,506.2L119.2,504.2L119.2,501.4L121.8,505.2L124.0,505.8L126.4,503.4L126.6,501.8L127.8,501.8L128.2,498.4L131.4,494.2L131.0,491.2L132.8,487.8L132.4,485.8L131.4,483.6L130.6,483.8L129.6,480.8L131.8,480.6L133.8,478.2L132.6,476.0L135.0,473.2L135.4,470.2L136.2,468.2L135.0,465.6L136.4,465.4L136.6,463.0L134.8,459.6L135.4,458.4L137.8,460.0L141.0,460.4L140.8,459.2L142.8,457.8L143.4,453.8L142.2,451.8L142.4,447.8L143.6,446.8L144.6,442.6L146.0,441.0L146.0,439.4L144.8,436.2L147.6,433.8L150.0,430.6L151.6,427.4L155.0,426.4L159.4,425.2L159.0,422.8L160.4,421.4L162.2,421.4L162.0,419.4L159.8,417.2L159.6,412.0L157.6,411.2L156.0,409.4L156.6,406.2L153.2,402.2L150.8,400.2L148.8,400.2Z" />
		<path id="L1611280161431" name="安顺市" class="qing-map-1616134693943" d="M229.8,472.0L229.4,469.6L232.6,467.6L237.6,468.8L242.0,468.2L244.0,468.0L246.2,468.8L247.6,468.2L250.8,467.6L253.0,467.8L255.8,466.4L258.0,466.2L260.4,466.0L260.6,463.8L261.8,461.6L263.4,461.6L263.8,460.2L266.8,460.0L268.2,459.6L270.0,461.4L270.4,459.0L271.0,454.4L272.2,453.2L271.8,448.4L273.6,448.8L274.8,451.0L277.2,451.0L279.8,451.6L280.2,448.6L283.0,447.2L284.4,448.6L285.8,447.6L285.0,444.6L283.2,445.6L280.8,443.2L278.4,441.8L274.2,442.2L271.0,441.0L270.0,438.6L267.4,439.8L266.2,439.0L262.8,440.4L262.4,438.4L259.8,439.6L257.8,436.4L255.8,434.8L256.4,433.4L256.4,431.4L258.2,429.6L257.4,427.8L258.6,426.6L258.8,424.8L260.8,423.0L263.2,422.0L267.0,421.2L269.0,418.8L270.2,416.0L276.4,413.0L280.0,410.8L282.2,412.2L282.4,410.0L286.6,408.4L289.4,410.0L293.2,406.2L300.0,406.6L307.8,400.0L311.0,401.4L314.8,399.8L314.2,402.2L315.6,405.0L315.6,408.0L314.6,409.2L316.0,411.4L322.4,408.6L323.8,407.2L325.4,408.6L334.2,404.6L334.6,400.0L335.6,392.4L337.4,390.8L336.8,387.0L339.2,388.0L339.2,390.4L341.2,391.2L340.2,393.0L340.6,396.2L341.8,396.2L342.8,398.0L346.6,398.2L351.6,396.2L356.0,397.8L357.6,401.6L356.4,404.8L360.0,405.0L359.6,407.6L357.6,409.8L363.4,410.4L363.8,412.8L363.8,415.6L365.0,417.0L366.2,415.2L365.8,410.8L367.8,411.8L368.2,409.8L371.8,408.0L373.0,409.4L372.0,411.6L372.4,413.4L374.0,413.6L375.2,416.8L378.8,419.0L383.8,419.0L386.8,420.8L384.6,421.8L386.0,423.8L384.8,427.2L381.6,427.8L379.4,430.6L376.6,434.2L373.8,434.0L372.0,433.0L366.4,433.2L364.8,431.8L361.4,432.8L361.8,436.0L360.6,436.6L359.8,440.0L354.8,439.0L354.6,436.2L351.8,437.4L349.2,437.2L348.2,439.4L350.2,439.6L352.4,441.0L354.0,442.8L352.4,444.6L352.4,448.0L350.4,451.8L352.2,453.6L353.2,456.6L350.0,458.0L349.0,456.2L347.4,456.4L347.6,460.2L346.8,462.8L346.6,464.4L344.2,465.4L344.8,467.4L348.0,466.6L350.2,465.8L351.4,467.4L354.0,468.0L354.0,470.8L355.8,472.6L354.4,474.8L353.0,476.0L352.8,478.0L351.4,479.6L353.8,479.8L354.8,481.4L352.4,484.4L350.8,489.2L348.2,492.0L348.6,496.2L347.8,497.6L349.4,498.6L349.4,502.8L349.4,505.2L347.0,506.0L346.6,509.6L350.0,509.0L353.2,506.6L355.6,506.0L353.6,510.4L356.4,513.6L358.6,513.0L362.6,515.6L365.8,516.2L367.4,516.8L369.6,514.6L370.2,512.2L376.8,516.8L375.4,518.8L375.4,522.2L373.4,523.6L371.6,524.8L372.0,526.2L369.6,527.4L371.2,530.6L369.2,532.6L370.0,535.4L367.0,537.8L366.4,541.8L369.2,543.6L367.4,546.8L365.8,546.8L366.2,549.0L369.4,550.2L370.0,553.4L369.0,555.6L366.8,554.8L365.4,553.8L362.0,553.8L359.4,555.0L355.8,553.6L354.0,550.8L348.4,548.6L345.8,551.0L344.4,546.6L345.2,545.6L343.0,543.8L342.0,540.4L339.4,541.2L338.2,538.6L336.6,540.6L334.8,542.6L333.6,539.8L335.6,537.8L332.4,534.6L330.2,535.2L327.4,532.2L330.6,530.4L330.2,529.0L331.2,527.2L327.8,524.6L325.4,524.8L325.4,528.2L323.4,528.0L321.2,527.0L318.4,527.0L317.0,522.4L314.8,526.6L316.4,527.2L318.0,529.6L314.4,532.4L308.0,537.0L309.6,539.0L310.8,541.8L311.2,544.8L308.6,544.8L307.6,546.4L305.0,546.4L302.8,544.0L299.0,541.8L297.2,541.6L295.8,540.0L292.8,540.6L292.8,536.4L291.0,534.8L291.2,533.0L289.6,530.4L289.4,528.2L287.0,527.4L285.6,524.2L285.2,522.0L283.0,520.2L282.4,515.8L277.6,513.4L274.6,513.4L268.0,507.6L266.2,510.0L263.0,510.8L260.8,507.6L258.4,505.2L257.4,503.2L253.6,502.0L251.2,499.2L248.2,495.8L245.0,494.6L243.8,490.6L244.6,484.8L242.8,484.2L238.4,483.4L234.4,479.8L233.4,478.2L231.0,478.0L230.0,476.0L230.2,473.6Z" />
		<path id="L1611281296361" name="黔南布依族苗族自治州" class="qing-map-1616134693943" d="M369.0,555.6L370.0,553.4L369.4,550.2L366.2,549.0L365.8,546.8L367.4,546.8L369.2,543.6L366.4,541.8L367.0,537.8L370.0,535.4L369.2,532.6L371.2,530.6L369.6,527.4L372.0,526.2L371.6,524.8L373.4,523.6L375.4,522.2L375.4,518.8L376.8,516.8L370.2,512.2L369.6,514.6L367.4,516.8L365.8,516.2L362.6,515.6L358.6,513.0L356.4,513.6L353.6,510.4L355.6,506.0L353.2,506.6L350.0,509.0L346.6,509.6L347.0,506.0L349.4,505.2L349.4,502.8L349.4,498.6L347.8,497.6L348.6,496.2L348.2,492.0L350.8,489.2L352.4,484.4L354.8,481.4L353.8,479.8L351.4,479.6L352.8,478.0L353.0,476.0L354.4,474.8L355.8,472.6L354.0,470.8L354.0,468.0L351.4,467.4L350.2,465.8L348.0,466.6L344.8,467.4L344.2,465.4L346.6,464.4L346.8,462.8L347.6,460.2L347.4,456.4L349.0,456.2L350.0,458.0L353.2,456.6L352.2,453.6L350.4,451.8L352.4,448.0L352.4,444.6L354.0,442.8L352.4,441.0L350.2,439.6L348.2,439.4L349.2,437.2L351.8,437.4L354.6,436.2L354.8,439.0L359.8,440.0L360.6,436.6L361.8,436.0L361.4,432.8L364.8,431.8L366.4,433.2L372.0,433.0L373.8,434.0L376.6,434.2L378.2,436.6L380.4,437.4L379.8,439.8L384.6,438.4L387.0,439.6L389.6,440.0L391.8,439.0L394.4,438.0L394.0,433.6L396.0,433.4L397.6,434.4L399.4,431.2L401.8,432.0L404.4,433.8L406.8,433.0L408.2,431.0L408.8,433.8L411.4,435.6L413.4,434.2L413.8,437.4L413.8,440.0L415.8,441.0L415.8,444.0L418.0,445.8L420.4,445.0L421.4,442.6L423.6,442.4L424.6,439.6L422.6,438.6L420.4,437.4L420.8,435.0L424.6,433.2L422.4,430.0L423.2,428.0L420.0,427.8L418.6,429.4L416.6,427.8L412.4,428.0L412.2,425.4L414.8,424.2L416.6,424.2L416.4,420.8L420.0,419.2L418.6,417.4L416.0,418.0L413.6,420.8L412.8,419.6L410.8,419.4L409.4,417.2L411.2,416.2L413.2,412.2L415.2,412.8L416.6,410.4L418.4,409.2L416.0,406.6L415.8,405.2L420.0,401.6L419.0,399.6L420.4,397.8L418.6,394.8L420.4,393.2L423.6,393.4L424.6,391.8L428.4,390.2L426.6,388.2L424.8,386.2L422.6,386.8L423.2,384.6L425.6,384.8L427.2,382.0L428.8,385.2L430.6,383.6L433.4,383.4L432.8,381.6L431.4,378.8L433.8,379.2L435.6,376.4L434.4,374.8L435.4,373.4L434.0,372.0L436.0,369.4L437.6,370.0L439.8,368.4L441.2,367.4L444.2,366.4L446.2,365.0L447.4,361.6L449.6,363.2L450.6,360.6L452.4,361.2L455.2,360.0L459.0,360.6L461.6,362.4L464.2,361.2L467.6,364.0L470.0,363.4L469.6,358.0L471.4,356.6L469.8,348.6L467.6,340.8L465.4,336.4L461.8,335.2L461.6,332.6L460.4,332.4L458.8,333.6L457.8,328.6L458.4,325.0L461.0,321.8L461.0,318.8L458.2,316.4L462.0,315.2L463.4,313.2L465.8,314.4L468.4,312.6L468.0,309.4L469.0,306.4L466.8,306.4L466.2,303.8L464.0,304.0L461.6,303.6L457.4,304.8L454.4,303.2L457.8,300.8L459.0,297.4L461.2,295.0L462.6,292.0L462.0,289.0L466.6,283.0L468.4,282.0L467.8,280.2L470.4,277.2L469.8,275.0L470.8,271.6L472.4,273.6L474.2,273.2L475.8,274.8L478.4,275.2L479.8,277.0L482.4,276.6L483.2,279.4L485.4,282.8L482.8,285.8L486.8,290.4L490.2,286.4L491.6,287.2L497.4,287.2L497.0,289.2L497.6,292.8L497.0,295.8L492.8,299.2L493.4,304.8L496.6,306.4L498.0,309.2L501.2,308.0L499.4,304.0L502.4,306.8L505.6,305.6L503.8,303.2L504.6,300.8L508.0,300.4L511.4,301.4L515.2,301.2L515.0,303.2L517.4,304.6L516.4,308.4L519.2,309.0L519.0,312.2L520.2,315.2L522.2,317.6L522.4,319.6L519.6,323.2L517.8,324.2L519.6,326.0L518.6,327.0L516.8,325.8L513.8,329.8L515.4,333.2L515.0,334.6L516.8,338.0L515.8,341.4L513.0,341.6L512.2,344.8L509.8,348.2L512.4,351.8L515.2,353.0L514.4,355.6L515.0,358.2L519.4,358.0L520.8,356.0L521.6,354.0L524.4,356.0L526.0,357.0L525.8,360.4L529.0,364.0L526.6,366.4L524.2,368.6L521.6,370.8L520.2,376.2L521.2,381.4L525.0,385.6L523.8,387.6L526.2,389.2L527.4,391.4L524.4,393.4L521.8,393.0L518.6,392.8L516.4,390.8L514.0,388.2L511.6,388.6L510.4,390.8L508.6,391.6L508.0,388.4L505.8,389.0L504.8,390.8L502.6,392.8L499.8,393.8L498.4,395.8L496.0,394.8L494.2,397.0L492.6,395.0L494.0,392.8L492.2,392.4L490.0,393.8L489.0,395.8L487.0,395.8L485.4,397.8L482.4,396.4L480.0,397.4L478.4,396.0L477.2,398.8L476.0,401.6L478.8,402.0L480.8,403.6L479.2,404.6L477.6,408.0L474.4,409.2L474.8,412.4L476.2,412.8L479.2,416.4L484.2,417.8L487.4,420.0L490.4,417.8L491.0,415.6L493.4,415.0L496.0,415.4L497.6,413.8L500.0,415.0L500.6,419.4L499.6,421.4L500.4,424.2L502.0,423.2L503.4,420.6L505.0,421.8L508.0,420.8L509.2,423.4L512.8,424.2L512.4,427.2L514.4,428.0L515.4,432.4L518.6,428.8L520.2,430.0L523.4,428.0L527.6,426.8L531.2,429.0L530.0,430.4L530.4,432.0L528.4,435.6L527.2,438.4L528.4,439.4L526.4,440.6L526.6,445.4L525.4,447.4L528.4,447.2L529.4,449.4L532.0,449.8L532.6,452.2L534.6,456.0L537.6,456.8L538.4,454.2L540.6,451.4L542.8,453.6L545.8,454.0L548.8,456.6L551.8,460.6L554.8,458.8L557.8,459.0L561.4,457.6L565.0,460.2L566.4,459.4L570.6,460.2L571.6,458.2L574.0,458.4L574.0,457.2L578.0,460.0L576.4,461.0L577.2,464.2L579.4,465.2L581.4,463.6L583.6,460.6L584.2,464.2L586.2,465.0L583.2,470.4L582.6,473.4L579.4,476.0L577.6,475.0L577.2,478.8L573.8,481.8L574.6,485.4L573.4,487.0L571.2,490.4L570.4,493.6L568.4,494.4L567.8,497.4L567.0,500.0L571.0,503.0L569.6,503.6L569.8,507.0L570.4,510.8L572.4,510.8L575.2,510.0L577.2,512.4L577.6,515.6L580.0,516.8L579.8,519.0L580.6,521.4L583.2,521.4L586.2,519.2L586.8,521.8L587.2,524.8L590.6,526.2L591.2,528.6L591.8,532.6L594.0,533.4L592.0,536.6L593.2,537.8L591.2,539.2L588.8,539.6L586.0,541.8L586.8,544.2L586.2,546.2L584.2,546.0L583.6,542.8L580.4,542.0L576.2,543.8L576.8,545.8L578.8,546.0L579.6,547.4L580.0,549.4L578.2,550.8L574.6,550.4L575.8,552.4L575.8,555.0L574.4,557.2L576.0,559.0L575.2,560.6L575.6,562.2L574.0,564.0L574.6,565.8L572.6,568.8L573.6,570.6L572.2,571.4L571.4,573.0L571.4,574.6L565.8,577.0L561.2,576.4L558.8,577.0L557.2,576.2L556.6,578.0L553.2,579.0L552.2,578.6L549.6,581.0L545.4,582.4L542.4,583.0L542.0,585.0L537.8,586.8L535.6,585.2L532.8,586.8L530.4,586.2L529.0,585.8L531.2,584.2L532.0,582.6L530.6,581.2L531.2,579.6L529.0,577.0L528.0,574.6L529.2,573.0L527.6,570.6L526.6,571.6L524.6,572.8L522.4,574.8L520.6,576.0L521.8,573.2L519.8,572.6L520.0,571.4L517.6,570.4L518.2,569.2L516.6,568.0L517.8,566.8L516.2,563.4L518.4,562.0L517.8,560.4L514.8,561.2L512.8,561.6L512.0,563.4L511.2,565.0L511.4,566.8L510.8,568.6L508.6,567.8L508.8,569.4L506.6,568.8L502.6,571.2L502.0,573.4L500.4,572.4L500.0,574.4L498.6,573.0L497.4,574.8L496.0,574.0L494.4,573.6L494.0,571.6L495.8,567.0L495.0,565.6L495.8,564.4L495.2,563.2L491.0,565.6L490.8,564.4L489.0,564.4L489.0,562.8L487.8,561.4L488.2,558.8L485.8,557.2L488.4,552.0L487.8,550.6L485.4,551.0L484.6,548.6L482.0,547.8L482.0,549.6L480.0,549.8L478.0,549.2L476.0,549.2L474.6,546.0L476.6,545.0L478.0,541.2L476.2,537.8L476.4,535.8L474.6,536.2L473.4,533.8L469.6,531.2L466.4,530.0L465.0,527.6L465.6,525.6L466.8,523.6L463.0,521.6L461.8,523.2L460.2,523.0L460.0,526.0L456.6,526.6L455.0,528.0L453.6,527.6L451.8,528.2L449.8,527.2L448.0,527.6L446.0,529.0L445.4,531.4L447.0,532.6L446.2,534.4L443.4,535.6L441.0,536.2L438.8,538.0L437.8,543.8L435.6,543.0L433.4,544.8L433.8,548.2L435.2,549.0L435.4,551.6L436.8,555.0L438.6,555.2L439.0,557.2L439.0,562.2L439.8,565.6L436.4,568.2L437.4,569.8L435.0,571.2L431.6,569.6L428.2,569.4L426.8,571.6L426.2,576.4L424.2,578.0L421.2,577.6L413.0,579.8L410.6,578.4L405.8,580.8L402.0,578.8L398.2,580.0L395.6,580.6L394.8,583.8L393.4,586.2L390.0,588.6L388.8,590.8L385.2,591.2L382.4,592.8L380.6,594.4L381.8,589.6L378.2,584.6L373.2,579.2L376.0,576.4L378.8,575.0L376.8,572.6L378.2,569.2L376.4,567.6L376.8,565.6L375.4,562.2L374.2,560.0L371.0,559.6L368.6,558.4Z" />
		<path id="L1611282268130" name="黔西南布依族苗族自治州" class="qing-map-1616134693943" d="M157.4,555.0L159.4,552.4L160.2,553.6L162.4,554.4L161.8,557.8L163.8,559.6L165.2,557.8L167.2,558.6L168.0,557.2L171.0,557.8L172.4,556.6L173.8,558.2L176.8,556.8L180.2,556.2L180.6,553.6L184.4,555.8L186.2,553.8L182.8,551.6L181.4,547.6L184.0,542.0L187.6,537.0L189.2,533.4L189.2,529.4L187.6,528.2L184.0,527.8L185.2,525.0L184.0,522.0L181.8,519.6L187.8,514.8L188.0,509.6L186.4,505.8L184.2,500.8L184.6,495.2L185.8,492.4L187.6,489.6L190.0,489.0L193.0,487.0L193.0,483.8L193.6,480.0L192.0,480.4L191.4,476.4L193.0,471.2L194.6,468.8L194.2,464.4L196.8,461.2L198.6,460.8L198.4,458.8L201.4,457.2L198.8,455.2L200.4,454.4L200.2,452.2L206.4,446.8L210.6,449.0L213.4,448.0L215.6,449.6L218.6,446.6L222.0,447.0L220.8,449.6L220.0,453.6L223.0,457.6L221.6,461.0L225.4,466.0L225.4,468.0L227.4,472.0L229.8,472.0L230.2,473.6L230.0,476.0L231.0,478.0L233.4,478.2L234.4,479.8L238.4,483.4L242.8,484.2L244.6,484.8L243.8,490.6L245.0,494.6L248.2,495.8L251.2,499.2L253.6,502.0L257.4,503.2L258.4,505.2L260.8,507.6L263.0,510.8L266.2,510.0L268.0,507.6L274.6,513.4L277.6,513.4L282.4,515.8L283.0,520.2L285.2,522.0L285.6,524.2L287.0,527.4L289.4,528.2L289.6,530.4L291.2,533.0L291.0,534.8L292.8,536.4L292.8,540.6L295.8,540.0L297.2,541.6L299.0,541.8L302.8,544.0L305.0,546.4L307.6,546.4L308.6,544.8L311.2,544.8L310.8,541.8L309.6,539.0L308.0,537.0L314.4,532.4L318.0,529.6L316.4,527.2L314.8,526.6L317.0,522.4L318.4,527.0L321.2,527.0L323.4,528.0L325.4,528.2L325.4,524.8L327.8,524.6L331.2,527.2L330.2,529.0L330.6,530.4L327.4,532.2L330.2,535.2L332.4,534.6L335.6,537.8L333.6,539.8L334.8,542.6L336.6,540.6L338.2,538.6L339.4,541.2L342.0,540.4L343.0,543.8L345.2,545.6L344.4,546.6L345.8,551.0L348.4,548.6L354.0,550.8L355.8,553.6L359.4,555.0L362.0,553.8L365.4,553.8L366.8,554.8L369.0,555.6L368.6,558.4L371.0,559.6L374.2,560.0L375.4,562.2L376.8,565.6L376.4,567.6L378.2,569.2L376.8,572.6L378.8,575.0L376.0,576.4L373.2,579.2L378.2,584.6L381.8,589.6L380.6,594.4L377.0,596.4L373.4,597.6L371.4,599.6L368.2,600.6L367.2,601.6L365.0,601.6L361.0,603.8L357.8,603.8L355.2,605.2L352.2,605.2L349.8,604.8L348.2,606.0L345.2,604.6L341.6,607.8L339.2,607.6L336.8,607.4L336.2,609.0L338.0,610.4L342.0,616.2L342.0,619.0L343.2,621.0L343.0,623.2L342.4,626.4L340.8,628.2L341.2,629.8L339.8,632.2L338.8,634.4L336.0,633.4L335.2,637.0L332.8,638.6L331.2,640.6L328.2,640.8L324.4,643.6L324.0,646.2L322.0,648.6L321.2,650.6L317.4,648.4L316.6,646.2L313.4,643.8L311.8,638.0L305.8,638.6L304.4,637.4L302.6,638.0L300.0,640.0L297.2,641.6L293.6,641.2L290.0,638.6L289.6,637.2L286.6,635.4L283.2,632.6L279.0,632.0L275.8,632.4L272.8,631.0L272.2,628.8L269.8,627.8L267.8,628.8L263.4,628.2L258.2,626.8L257.8,624.6L257.2,622.4L255.0,620.0L253.8,618.6L252.8,614.8L251.4,611.8L246.8,610.4L242.8,609.6L238.6,612.2L232.8,611.4L230.0,609.8L231.0,607.8L229.8,606.6L227.6,606.8L227.0,604.8L224.6,604.8L225.0,602.8L222.8,603.2L219.6,605.2L218.2,607.6L216.2,607.2L213.8,608.4L210.2,611.4L208.4,614.0L207.6,616.2L204.2,618.6L204.4,621.2L203.6,624.0L202.6,625.2L204.0,629.8L201.2,630.6L198.6,632.0L193.8,633.0L188.4,634.2L184.2,637.2L183.2,641.2L181.4,643.0L180.0,645.2L176.4,645.6L174.6,646.8L170.8,647.4L169.4,650.0L167.2,652.6L163.2,650.8L164.0,648.8L160.4,647.6L155.2,647.2L151.8,642.0L150.2,640.0L147.0,638.2L142.6,637.6L144.0,635.0L145.4,631.8L144.4,628.6L145.0,626.4L148.8,622.2L150.4,620.4L150.6,618.0L152.8,616.4L156.0,615.4L157.2,612.4L158.6,610.4L159.4,608.4L159.4,606.8L162.4,605.4L162.6,603.6L165.2,602.6L164.2,598.6L162.4,594.8L158.8,594.6L154.4,594.0L158.4,593.4L162.0,592.6L162.4,590.2L163.2,587.8L163.4,586.2L166.0,583.8L165.8,581.4L167.8,580.0L167.6,577.6L166.4,576.6L168.0,574.6L170.6,574.2L172.2,576.2L173.4,578.6L176.8,581.6L178.4,579.8L176.6,577.6L177.6,576.0L176.6,572.2L178.4,570.8L177.6,567.6L174.8,569.0L173.4,566.6L170.6,565.6L171.2,567.6L169.0,567.6L166.4,565.6L164.6,565.2L164.6,563.2L161.2,563.2L159.8,564.4L157.2,562.6L158.0,561.4L157.0,559.8L157.0,556.8Z" />
	</g>
</svg>
