<svg xmlns="http://www.w3.org/2000/svg" viewBox="0,0,800,641" width="100%" height="100%">
	<defs>
		<style type="text/css">
.qing-map-1616123840448
{
	fill: #DDDDDD;
	fill-opacity: 1.0;
	stroke: #FFFFFF;
	stroke-opacity: 1.0;
	stroke-width: 1;
}

.qing-map-1616123840448:hover
{
	fill: #56A4FF;
	fill-opacity: 1.0;
}
</style>
	</defs>
	<g>
		<path id="L1610955145879" name="白城市" class="qing-map-1616123840448" d="M56.5,224.17L56.67,226.17L56.33,227.33L57.33,229.33L60.33,229.17L61.5,230.17L60.0,231.67L57.67,230.67L56.67,233.5L60.17,232.83L61.17,234.67L58.5,236.5L57.5,239.67L57.83,245.67L59.17,246.83L59.5,247.83L59.17,249.67L63.67,251.5L64.5,253.5L66.0,255.5L65.33,258.33L66.33,259.83L67.83,260.17L70.0,260.17L70.67,269.0L71.0,276.5L69.0,281.5L72.0,284.5L79.17,284.67L84.5,284.5L88.17,282.83L92.0,281.33L96.5,279.83L98.5,279.83L99.83,278.0L101.67,274.67L105.33,270.67L112.0,268.17L118.17,264.0L123.17,259.0L127.17,257.17L130.67,257.0L132.5,255.33L132.83,253.0L135.67,250.17L138.0,249.67L140.33,247.67L143.0,245.0L144.0,243.67L146.17,242.67L149.83,241.17L153.0,240.0L156.0,237.83L159.67,236.33L160.83,235.5L159.17,232.17L155.83,226.17L153.17,221.17L158.5,214.0L158.17,211.5L159.33,209.67L160.5,210.17L161.5,211.0L163.67,210.17L166.67,207.67L168.67,205.0L176.0,200.33L181.83,193.83L186.83,187.83L189.83,184.33L198.83,182.5L201.33,179.5L200.17,176.5L202.83,171.67L205.33,170.67L210.0,168.0L212.17,166.33L216.5,162.33L218.83,161.67L222.6,158.0L220.8,155.0L221.6,153.0L221.4,150.8L220.4,149.6L216.4,150.4L214.2,148.0L214.8,145.6L213.6,145.0L212.2,144.2L211.6,142.4L211.6,140.8L209.0,142.4L207.0,142.4L204.4,140.2L205.6,138.4L205.8,137.4L204.4,137.0L205.0,135.4L202.6,133.8L202.4,131.8L201.6,130.4L198.8,128.2L196.4,128.6L195.2,125.8L196.0,124.8L197.4,124.6L199.6,123.0L197.6,120.4L198.0,119.2L199.8,119.0L200.2,117.2L199.2,113.8L197.8,113.4L196.2,112.6L194.8,112.0L193.8,110.0L192.8,108.6L192.6,106.0L194.2,104.6L196.0,104.0L196.6,102.6L194.8,101.4L195.4,100.0L197.6,100.0L197.8,98.2L197.0,96.4L195.6,95.6L196.4,93.8L194.8,91.6L195.8,90.2L196.0,88.8L194.6,86.8L195.6,85.6L194.6,84.8L192.4,84.0L193.4,82.4L191.8,80.8L192.4,79.4L193.8,78.6L192.4,77.8L192.0,76.4L191.6,74.8L192.6,73.0L192.0,71.6L190.8,72.0L190.0,73.6L189.2,75.0L187.8,74.4L188.0,73.0L188.0,71.2L186.4,70.6L184.2,70.6L182.25,72.25L181.0,72.25L180.75,73.25L179.88,73.63L177.88,74.75L176.63,74.13L175.13,75.25L173.75,75.13L173.13,75.5L171.88,75.5L171.25,75.0L166.5,76.0L165.75,78.0L163.5,78.0L162.88,77.5L161.63,77.5L160.63,76.38L158.75,75.0L156.88,77.0L155.38,77.75L153.63,76.63L152.13,77.25L151.0,76.75L150.5,77.5L150.25,78.63L149.5,78.63L148.13,77.75L147.88,76.88L146.88,76.75L145.75,75.5L143.88,76.13L142.63,75.63L142.25,74.5L141.0,74.38L139.88,73.63L138.5,73.75L136.63,75.63L134.63,76.63L133.25,78.0L132.0,79.75L131.75,83.88L130.13,84.25L130.5,88.63L127.75,89.25L125.75,91.88L107.5,94.63L109.25,105.75L110.0,111.5L109.88,112.63L109.0,115.25L108.13,117.13L107.13,117.38L105.38,120.13L107.13,126.75L104.5,129.63L105.0,131.13L104.0,131.63L103.38,133.38L98.25,133.63L98.13,130.63L93.5,128.25L90.25,126.5L88.38,125.13L86.25,124.13L85.63,117.75L81.75,111.0L76.63,110.75L75.88,111.13L76.13,114.13L76.5,116.25L77.13,117.5L74.5,117.75L73.63,118.25L73.13,118.63L72.88,119.88L72.0,120.38L72.0,121.13L70.5,122.25L68.38,123.63L67.38,122.88L67.25,121.25L66.63,120.13L65.63,119.88L65.25,118.75L64.5,117.75L62.75,117.0L61.38,117.0L60.25,116.5L59.38,115.63L57.63,115.75L55.5,113.88L55.38,111.88L55.13,110.38L54.25,109.63L53.25,109.0L52.25,107.88L52.25,106.63L50.5,106.25L49.75,105.63L49.75,104.38L48.75,104.75L48.38,105.5L47.13,104.88L46.5,104.0L45.38,103.38L44.13,103.25L43.5,101.88L42.13,101.5L41.5,101.88L39.88,102.25L38.88,101.38L38.0,100.0L36.13,99.63L35.5,100.63L34.0,100.88L33.75,101.88L32.75,102.13L32.38,102.88L33.5,103.63L34.75,104.38L35.38,105.38L35.63,106.88L35.63,108.38L35.38,109.38L36.25,110.13L36.5,111.0L35.38,112.38L35.75,113.5L36.13,115.13L34.5,116.38L33.88,117.0L33.88,117.75L32.88,119.0L32.5,119.88L32.75,120.88L31.75,121.88L31.75,123.38L31.25,124.25L30.38,124.88L28.88,125.0L26.88,127.5L25.5,126.63L24.5,126.75L24.0,127.75L24.75,129.0L25.38,129.75L25.63,131.0L27.63,133.0L28.88,133.5L30.75,134.25L31.63,134.5L33.13,134.5L34.38,134.5L35.25,134.88L35.63,133.5L39.13,131.5L41.13,132.25L42.38,131.88L43.63,132.13L44.38,132.75L45.38,132.38L46.75,134.13L48.25,137.0L49.0,138.8L49.2,140.2L49.8,142.4L49.2,144.2L47.8,144.4L47.8,146.0L48.4,148.0L49.4,150.0L49.6,151.6L50.0,154.8L58.8,159.4L61.2,160.0L62.6,163.6L60.6,167.2L60.0,169.4L60.6,175.4L67.0,177.8L67.0,180.4L67.0,183.0L66.2,185.4L63.8,187.8L60.2,187.4L57.6,191.4L58.4,197.4L56.8,203.6L55.0,206.0L55.8,210.4L55.4,214.8L53.4,215.6L53.4,217.2L54.2,217.8L55.2,219.2L55.6,221.2L55.8,222.8Z" />
		<path id="L1610955909973" name="松原市" class="qing-map-1616123840448" d="M319.67,160.33L319.0,161.5L319.5,162.67L320.17,163.33L320.17,164.67L319.33,166.33L319.0,167.67L318.5,168.5L318.83,169.83L319.5,170.83L320.67,171.17L321.0,171.83L320.5,173.0L322.83,174.67L323.0,176.33L325.17,176.67L325.67,177.83L327.17,178.83L327.5,181.17L329.33,181.83L331.17,183.0L332.67,183.67L334.67,186.17L337.17,186.0L338.67,187.83L340.0,188.5L340.83,189.33L342.67,189.5L344.17,188.83L345.83,189.67L347.0,190.17L347.0,191.67L348.67,191.83L351.0,191.17L352.33,192.33L353.67,193.33L354.67,194.83L354.0,197.0L353.67,198.83L353.67,201.67L354.5,203.5L354.67,206.0L352.0,208.0L351.5,209.67L353.33,211.33L354.5,212.83L354.83,214.83L353.0,215.5L351.67,215.83L351.33,214.0L349.17,213.83L348.0,217.0L345.5,216.17L345.17,219.33L344.17,220.5L344.67,222.0L344.17,223.67L344.67,225.17L344.0,226.83L343.5,228.0L340.83,229.0L339.33,229.67L337.33,230.33L335.17,229.5L334.5,226.83L332.5,224.83L331.67,223.0L328.5,222.67L327.0,223.33L326.67,221.67L325.0,220.33L325.17,219.0L323.5,217.67L323.0,215.83L321.83,214.0L319.67,214.0L317.83,212.33L315.0,212.33L314.17,213.67L312.5,216.0L309.5,217.0L307.33,217.83L305.33,218.33L303.67,219.67L302.5,218.5L301.17,218.0L299.5,217.17L298.33,218.83L296.33,218.5L293.17,218.33L290.83,220.5L289.17,221.17L287.17,220.5L285.17,221.0L285.17,222.33L287.33,223.33L289.0,223.33L290.67,225.0L287.5,227.33L285.5,226.17L282.0,227.83L279.33,227.5L278.17,228.83L276.17,230.67L273.83,229.33L271.83,229.5L270.0,228.17L267.5,231.0L266.0,231.67L261.67,233.83L258.67,234.0L254.17,236.33L255.5,238.5L255.5,240.17L254.0,241.0L252.17,239.5L249.83,242.17L247.8,242.2L240.83,244.0L241.33,245.33L238.33,247.5L236.17,249.5L235.67,250.83L237.33,252.67L236.0,255.17L234.83,256.67L237.0,257.33L238.33,258.5L237.83,259.83L241.83,262.5L241.83,263.5L240.0,264.17L238.17,264.83L236.83,264.33L235.67,265.5L236.17,267.17L237.33,268.5L239.17,269.33L240.83,272.0L239.67,274.0L241.0,276.83L240.83,278.67L240.17,280.17L238.83,281.83L240.17,286.83L242.17,287.33L243.33,287.17L245.0,288.33L246.33,288.0L247.17,288.67L248.33,288.17L250.0,286.83L249.67,289.0L248.33,290.5L248.83,292.5L245.67,294.0L243.17,295.83L237.67,296.5L235.0,296.83L232.33,297.17L228.67,301.83L227.17,302.33L226.17,305.0L221.5,307.0L220.17,307.5L219.0,307.83L217.67,309.0L214.83,308.5L213.17,309.33L211.5,309.0L209.83,309.0L208.0,309.0L206.83,307.33L204.5,307.5L201.33,306.67L199.67,307.83L193.33,308.67L185.67,308.33L182.17,310.33L178.33,308.17L178.5,306.17L177.33,304.5L175.67,304.33L174.5,302.67L173.17,300.83L173.17,299.17L171.5,297.33L170.5,298.67L168.83,300.33L166.17,300.17L164.17,299.67L162.67,300.5L159.0,300.5L157.17,300.0L154.5,300.83L152.67,300.5L151.5,301.67L149.5,301.17L146.5,301.33L146.5,300.0L147.67,299.83L148.33,295.67L150.33,294.67L150.17,292.5L146.0,290.33L145.17,289.33L144.0,287.33L143.33,286.33L143.0,283.33L136.83,273.83L134.83,273.67L133.17,271.83L131.5,271.17L131.0,267.83L132.17,267.5L133.0,265.67L131.17,262.33L132.17,261.67L131.83,260.33L131.83,257.83L130.67,257.0L132.5,255.33L132.83,253.0L135.67,250.17L138.0,249.67L140.33,247.67L143.0,245.0L144.0,243.67L146.17,242.67L149.83,241.17L153.0,240.0L156.0,237.83L159.67,236.33L160.83,235.5L159.17,232.17L155.83,226.17L153.17,221.17L158.5,214.0L158.17,211.5L159.33,209.67L160.5,210.17L161.5,211.0L163.67,210.17L166.67,207.67L168.67,205.0L176.0,200.33L181.83,193.83L186.83,187.83L189.83,184.33L198.83,182.5L201.33,179.5L200.17,176.5L202.83,171.67L205.33,170.67L210.0,168.0L212.17,166.33L216.5,162.33L218.83,161.67L222.6,158.0L223.6,160.6L225.4,160.6L227.4,159.0L229.2,158.8L230.4,160.2L231.8,162.2L234.8,164.0L237.4,162.6L237.2,160.4L238.6,159.8L241.2,161.4L243.6,160.8L245.0,160.0L247.2,160.2L248.6,160.0L250.4,158.4L251.6,158.2L251.8,160.4L253.4,161.0L255.6,159.4L258.4,161.0L259.8,160.0L260.0,158.4L259.6,156.6L260.0,155.4L261.2,153.4L261.6,151.8L262.2,150.4L263.4,151.4L263.8,153.4L264.4,154.8L266.8,155.4L269.4,155.2L270.2,157.2L270.8,158.8L271.0,160.4L271.2,161.8L272.6,162.0L274.0,162.4L273.8,163.8L273.0,165.0L273.8,166.2L275.8,166.4L277.4,164.4L279.4,164.2L280.8,165.0L282.8,164.2L284.6,163.8L286.8,163.4L289.2,164.4L290.2,164.4L291.4,163.8L293.4,165.8L294.4,165.6L297.0,163.2L298.4,161.4L299.6,159.6L299.8,157.4L299.6,156.4L302.2,156.0L303.6,157.6L305.0,157.4L308.0,156.4L309.8,155.8L311.2,155.4L313.2,152.8L315.2,153.6L318.2,153.8L318.4,155.4L319.6,156.4L318.6,157.6L319.6,158.2L319.0,159.8Z" />
		<path id="L1610957718149" name="长春市" class="qing-map-1616123840448" d="M420.25,212.88L420.63,211.75L420.0,210.75L419.5,210.13L419.0,209.38L418.13,208.13L417.38,207.13L417.5,206.0L416.5,205.75L416.38,204.88L415.25,204.25L414.63,202.13L412.75,199.63L411.88,198.88L411.38,197.88L411.63,196.25L411.38,195.13L410.75,194.38L410.25,193.25L410.0,192.25L408.75,192.75L408.13,192.38L405.5,191.88L403.75,192.13L403.0,191.38L402.25,192.5L401.5,191.88L400.88,191.13L400.63,192.13L399.38,192.0L398.63,192.38L398.25,190.5L397.38,189.63L396.75,188.88L396.13,188.38L394.13,188.25L394.25,187.38L392.75,186.88L391.75,187.13L390.25,186.25L389.0,186.38L388.88,185.13L388.0,184.75L388.0,183.63L383.0,181.0L381.88,180.63L380.75,181.88L379.25,181.38L378.38,181.63L377.38,181.63L375.63,182.38L374.5,182.0L373.88,183.0L372.88,183.38L372.0,182.5L368.13,185.88L367.38,186.88L366.75,187.38L366.0,187.0L365.38,186.63L364.5,187.63L363.75,187.75L363.0,187.38L362.25,186.5L362.5,187.38L362.13,187.88L361.88,188.5L362.0,189.63L360.75,189.38L360.0,189.38L360.0,190.5L359.5,191.38L358.25,192.0L357.5,191.38L356.63,190.88L355.88,191.25L355.13,191.0L354.5,191.13L353.63,191.38L352.33,192.33L353.67,193.33L354.67,194.83L354.0,197.0L353.67,198.83L353.67,201.67L354.5,203.5L354.67,206.0L352.0,208.0L351.5,209.67L353.33,211.33L354.5,212.83L354.83,214.83L353.0,215.5L351.67,215.83L351.33,214.0L349.17,213.83L348.0,217.0L345.5,216.17L345.17,219.33L344.17,220.5L344.67,222.0L344.17,223.67L344.67,225.17L344.0,226.83L343.5,228.0L340.83,229.0L339.33,229.67L337.33,230.33L335.17,229.5L334.5,226.83L332.5,224.83L331.67,223.0L328.5,222.67L327.0,223.33L326.67,221.67L325.0,220.33L325.17,219.0L323.5,217.67L323.0,215.83L321.83,214.0L319.67,214.0L317.83,212.33L315.0,212.33L314.17,213.67L312.5,216.0L309.5,217.0L307.33,217.83L305.33,218.33L303.67,219.67L302.5,218.5L301.17,218.0L299.5,217.17L298.33,218.83L296.33,218.5L293.17,218.33L290.83,220.5L289.17,221.17L287.17,220.5L285.17,221.0L285.17,222.33L287.33,223.33L289.0,223.33L290.67,225.0L287.5,227.33L285.5,226.17L282.0,227.83L279.33,227.5L278.17,228.83L276.17,230.67L273.83,229.33L271.83,229.5L270.0,228.17L267.5,231.0L266.0,231.67L261.67,233.83L258.67,234.0L254.17,236.33L255.5,238.5L255.5,240.17L254.0,241.0L252.17,239.5L249.83,242.17L247.8,242.2L240.83,244.0L241.33,245.33L238.33,247.5L236.17,249.5L235.67,250.83L237.33,252.67L236.0,255.17L234.83,256.67L237.0,257.33L238.33,258.5L237.83,259.83L241.83,262.5L241.83,263.5L240.0,264.17L238.17,264.83L236.83,264.33L235.67,265.5L236.17,267.17L237.33,268.5L239.17,269.33L240.83,272.0L239.67,274.0L241.0,276.83L240.83,278.67L240.17,280.17L238.83,281.83L240.17,286.83L242.17,287.33L243.33,287.17L245.0,288.33L246.33,288.0L247.17,288.67L248.33,288.17L250.0,286.83L249.67,289.0L248.33,290.5L248.83,292.5L250.0,293.6L250.2,295.2L251.17,296.33L250.0,298.33L250.67,300.0L250.83,301.83L253.83,304.0L256.33,303.5L258.0,305.5L260.17,306.67L262.67,307.83L262.5,309.5L262.5,311.0L262.17,313.0L264.33,314.33L265.17,315.33L265.0,317.17L265.33,318.67L267.33,317.67L269.33,317.17L270.67,315.67L272.67,317.67L275.33,319.0L276.0,322.17L275.83,324.33L275.33,326.33L274.83,329.17L273.83,330.83L274.33,332.17L275.0,334.17L277.83,335.0L281.67,333.83L283.17,335.67L285.0,336.83L286.83,337.33L289.67,339.33L289.5,341.17L291.0,342.83L289.67,344.0L290.5,347.17L290.17,349.0L289.5,350.5L288.83,351.5L288.5,353.17L288.5,354.67L287.33,355.83L287.67,357.83L287.83,359.17L286.83,360.5L285.5,361.17L286.33,364.17L289.33,364.67L292.0,363.33L293.67,361.67L295.83,361.5L295.5,359.33L294.33,357.17L296.17,356.17L296.0,354.33L296.5,353.0L296.67,351.0L298.83,350.33L300.67,349.17L301.5,352.33L301.67,354.5L301.33,356.0L301.5,357.5L301.67,359.17L304.0,361.33L304.0,363.5L305.33,364.67L305.17,366.17L304.5,367.17L306.33,368.17L309.5,368.33L310.33,369.67L309.83,371.17L307.83,372.5L310.83,376.67L314.0,379.17L316.67,381.0L318.67,382.83L320.33,382.17L322.0,381.33L325.17,380.17L327.33,377.83L329.67,379.67L334.33,378.83L335.17,377.67L337.17,377.0L337.83,375.5L339.67,375.67L342.17,374.0L341.0,371.33L340.17,368.83L337.83,368.33L336.83,366.5L335.33,365.17L333.33,363.83L332.0,361.67L330.5,359.33L331.17,357.5L330.67,355.5L331.33,354.0L332.33,352.33L333.0,350.67L333.17,348.67L332.83,346.83L332.83,345.0L331.83,343.17L331.5,341.17L330.0,339.17L329.0,336.0L328.33,333.67L327.67,331.17L326.33,329.17L326.83,327.5L327.17,325.83L328.17,323.17L331.67,323.0L333.0,322.83L334.5,323.0L336.17,322.67L337.83,323.67L339.67,322.83L340.33,321.0L343.83,320.67L344.17,318.67L344.17,317.17L343.67,315.33L343.0,311.5L341.5,309.33L341.33,306.0L344.0,302.83L345.67,301.67L347.17,298.17L348.67,296.17L350.83,296.67L352.33,294.67L352.67,292.83L355.67,292.67L357.17,291.83L359.17,290.5L361.0,290.67L362.33,290.33L362.83,289.17L365.0,289.5L366.83,291.17L369.33,290.33L372.0,291.17L374.0,290.83L375.17,290.0L375.17,288.0L377.67,285.67L377.0,284.5L375.0,283.0L375.5,280.67L376.83,278.5L375.5,277.17L375.33,274.33L374.33,272.17L375.83,271.0L376.5,269.33L376.33,267.67L375.67,266.17L373.83,265.5L372.17,264.83L373.0,263.33L372.17,261.17L372.17,259.33L373.5,257.67L372.33,256.5L371.33,254.83L372.67,254.0L373.83,252.67L378.33,253.17L381.5,252.17L382.83,250.5L385.67,251.0L386.83,250.33L388.0,252.5L392.17,254.0L394.0,254.17L394.67,255.67L396.5,255.5L400.33,254.5L403.5,254.17L405.0,256.33L407.67,255.33L410.33,255.0L413.5,253.67L416.5,251.17L416.67,248.33L416.0,247.0L417.0,245.83L416.83,242.67L416.0,239.0L416.83,235.67L413.83,231.33L412.5,224.17L413.83,221.33L413.5,218.83L415.5,216.5L417.17,216.0L418.83,215.83L419.83,214.5Z" />
		<path id="L1610958375341" name="四平市" class="qing-map-1616123840448" d="M224.0,421.1L222.3,421.0L222.0,419.7L223.0,418.2L224.2,418.1L225.8,416.3L226.7,416.3L227.5,415.1L227.4,413.7L225.7,411.9L224.3,412.4L223.1,412.4L222.1,412.0L221.1,411.3L219.7,409.5L226.1,401.8L223.9,400.2L222.9,398.7L221.7,397.3L221.1,397.0L220.2,396.5L219.5,395.4L218.6,394.3L217.9,394.0L217.0,394.2L217.1,393.6L216.3,392.9L215.6,392.3L215.2,391.5L215.7,390.3L215.4,389.5L216.1,388.9L215.9,388.0L215.6,386.6L213.9,386.2L213.5,385.7L211.8,385.7L211.1,384.4L209.9,384.4L208.9,385.0L208.2,384.7L207.5,384.9L207.0,384.3L206.1,384.5L205.7,384.0L204.4,384.6L203.6,384.6L203.7,383.2L203.2,382.4L203.5,381.8L203.1,381.2L202.4,381.2L202.5,380.1L199.1,380.3L197.6,381.1L193.6,376.9L190.1,373.5L187.9,373.4L188.1,371.5L187.5,370.6L186.6,370.1L185.6,369.5L184.9,368.6L184.5,366.3L185.8,364.5L185.2,363.4L184.7,362.5L184.0,362.5L183.4,362.0L182.4,362.2L180.3,360.4L179.7,361.1L178.7,360.9L176.9,362.0L177.3,363.2L176.9,364.1L176.8,365.3L174.6,367.2L174.2,368.0L173.8,368.6L173.8,369.1L173.5,370.1L174.0,370.7L173.8,372.0L166.7,372.6L164.8,371.4L162.1,368.0L160.7,369.2L159.1,367.3L158.1,365.0L155.0,365.4L154.7,366.9L153.2,368.2L152.7,366.9L151.1,364.8L150.8,363.3L149.1,360.9L146.6,361.2L145.7,360.1L146.4,357.5L145.1,355.6L144.9,354.6L148.4,353.0L155.2,354.8L156.1,352.5L155.3,351.1L153.9,350.9L153.5,349.7L153.9,349.1L154.4,349.7L155.4,350.0L155.8,350.8L157.0,350.8L158.6,350.5L159.9,350.1L160.1,348.6L159.5,347.7L159.8,346.9L161.3,346.1L161.6,344.4L161.4,343.5L161.0,342.5L160.8,341.5L160.8,340.3L160.8,339.5L160.4,338.9L160.3,337.7L159.7,337.0L159.1,335.8L158.4,335.4L157.9,334.5L158.4,333.7L158.2,332.9L158.8,332.1L158.9,330.7L157.8,329.5L157.1,327.6L156.3,326.9L156.2,325.9L156.4,323.7L156.0,322.3L154.6,320.9L154.2,318.5L153.7,316.3L152.4,315.7L151.5,313.6L150.5,313.2L149.7,311.7L151.1,310.9L150.3,309.2L149.2,308.1L148.6,306.9L147.5,306.4L146.8,305.2L146.1,303.7L146.6,302.9L146.5,301.33L149.5,301.17L151.5,301.67L152.67,300.5L154.5,300.83L157.17,300.0L159.0,300.5L162.67,300.5L164.17,299.67L166.17,300.17L168.83,300.33L170.5,298.67L171.5,297.33L173.17,299.17L173.17,300.83L174.5,302.67L175.67,304.33L177.33,304.5L178.5,306.17L178.33,308.17L182.17,310.33L185.67,308.33L193.33,308.67L199.67,307.83L201.33,306.67L204.5,307.5L206.83,307.33L208.0,309.0L209.83,309.0L211.5,309.0L213.17,309.33L214.83,308.5L217.67,309.0L219.0,307.83L220.17,307.5L221.5,307.0L226.17,305.0L227.17,302.33L228.67,301.83L232.33,297.17L235.0,296.83L237.67,296.5L243.17,295.83L245.67,294.0L248.83,292.5L250.0,293.6L250.2,295.2L251.17,296.33L250.0,298.33L250.67,300.0L250.83,301.83L253.83,304.0L256.33,303.5L258.0,305.5L260.17,306.67L262.67,307.83L262.5,309.5L262.5,311.0L262.17,313.0L264.33,314.33L265.17,315.33L265.0,317.17L265.33,318.67L267.33,317.67L269.33,317.17L270.67,315.67L272.67,317.67L275.33,319.0L276.0,322.17L275.83,324.33L275.33,326.33L274.83,329.17L273.83,330.83L274.33,332.17L275.0,334.17L277.83,335.0L281.67,333.83L283.17,335.67L285.0,336.83L286.83,337.33L289.67,339.33L289.5,341.17L291.0,342.83L289.67,344.0L290.5,347.17L290.17,349.0L289.5,350.5L288.83,351.5L288.5,353.17L288.5,354.67L287.33,355.83L287.67,357.83L287.83,359.17L286.83,360.5L285.5,361.17L286.33,364.17L289.33,364.67L292.0,363.33L293.67,361.67L295.83,361.5L295.5,359.33L294.33,357.17L296.17,356.17L296.0,354.33L296.5,353.0L296.67,351.0L298.83,350.33L300.67,349.17L301.5,352.33L301.67,354.5L301.33,356.0L301.5,357.5L301.67,359.17L304.0,361.33L304.0,363.5L305.33,364.67L305.17,366.17L304.5,367.17L306.33,368.17L309.5,368.33L310.33,369.67L309.83,371.17L307.83,372.5L310.83,376.67L314.0,379.17L316.67,381.0L318.67,382.83L315.67,387.0L315.67,388.5L317.5,390.17L318.17,392.17L318.67,394.17L319.67,395.83L320.67,397.17L323.5,396.17L325.33,399.5L323.33,401.0L321.33,400.5L321.83,402.5L319.5,403.5L317.5,403.67L315.33,403.17L313.67,402.17L311.5,402.17L308.67,400.0L305.0,399.5L303.83,396.67L302.83,393.5L303.5,390.83L299.67,386.33L297.83,387.33L295.0,386.5L295.0,389.17L294.0,392.83L295.0,394.17L297.17,394.67L296.5,398.17L293.67,397.33L288.33,394.33L285.0,390.17L283.17,387.17L273.5,387.83L270.83,387.33L269.5,388.33L266.5,389.67L265.67,391.33L259.67,396.0L258.0,397.0L255.67,396.5L254.33,397.5L252.5,397.33L252.33,398.67L250.5,400.67L249.33,402.33L247.33,402.5L245.17,404.33L244.67,405.83L244.5,409.0L243.33,411.0L243.33,412.0L242.0,411.83L241.5,413.0L241.83,413.67L240.33,415.17L239.17,415.67L238.0,418.5L236.33,420.17L235.17,420.33L234.83,422.17L233.17,422.0L229.17,424.67L229.5,426.33L228.38,427.0L228.25,424.63L227.88,423.25L227.0,422.5L227.13,421.5L226.38,421.75L225.5,421.38Z" />
		<path id="L1610958933221" name="吉林市" class="qing-map-1616123840448" d="M416.5,251.17L413.5,253.67L410.33,255.0L407.67,255.33L405.0,256.33L403.5,254.17L400.33,254.5L396.5,255.5L394.67,255.67L394.0,254.17L392.17,254.0L388.0,252.5L386.83,250.33L385.67,251.0L382.83,250.5L381.5,252.17L378.33,253.17L373.83,252.67L372.67,254.0L371.33,254.83L372.33,256.5L373.5,257.67L372.17,259.33L372.17,261.17L373.0,263.33L372.17,264.83L373.83,265.5L375.67,266.17L376.33,267.67L376.5,269.33L375.83,271.0L374.33,272.17L375.33,274.33L375.5,277.17L376.83,278.5L375.5,280.67L375.0,283.0L377.0,284.5L377.67,285.67L375.17,288.0L375.17,290.0L374.0,290.83L372.0,291.17L369.33,290.33L366.83,291.17L365.0,289.5L362.83,289.17L362.33,290.33L361.0,290.67L359.17,290.5L357.17,291.83L355.67,292.67L352.67,292.83L352.33,294.67L350.83,296.67L348.67,296.17L347.17,298.17L345.67,301.67L344.0,302.83L341.33,306.0L341.5,309.33L343.0,311.5L343.67,315.33L344.17,317.17L344.17,318.67L343.83,320.67L340.33,321.0L339.67,322.83L337.83,323.67L336.17,322.67L334.5,323.0L333.0,322.83L331.67,323.0L328.17,323.17L327.17,325.83L326.83,327.5L326.33,329.17L327.67,331.17L328.33,333.67L329.0,336.0L330.0,339.17L331.5,341.17L331.83,343.17L332.83,345.0L332.83,346.83L333.17,348.67L333.0,350.67L332.33,352.33L331.33,354.0L330.67,355.5L331.17,357.5L330.5,359.33L332.0,361.67L333.33,363.83L335.33,365.17L336.83,366.5L337.83,368.33L340.17,368.83L341.0,371.33L342.17,374.0L339.67,375.67L337.83,375.5L337.17,377.0L335.17,377.67L334.33,378.83L329.67,379.67L327.33,377.83L325.17,380.17L322.0,381.33L320.33,382.17L318.67,382.83L315.67,387.0L315.67,388.5L317.5,390.17L318.17,392.17L318.67,394.17L319.67,395.83L320.67,397.17L323.5,396.17L325.33,399.5L323.33,401.0L321.33,400.5L321.83,402.5L319.5,403.5L317.5,403.67L317.0,404.83L319.0,405.5L320.5,406.67L321.67,408.0L324.0,407.33L326.5,408.5L327.83,409.67L328.67,411.33L328.83,412.67L330.83,413.33L329.83,416.17L331.33,417.33L334.0,418.83L334.67,420.83L334.67,423.0L337.83,427.0L340.17,427.33L341.5,429.17L343.33,430.33L345.5,430.17L347.33,430.33L348.83,430.5L351.83,429.67L353.33,430.5L355.0,429.83L357.67,431.5L359.17,430.83L360.67,429.67L362.0,429.17L363.5,427.67L366.0,428.67L367.83,427.5L369.33,428.0L369.67,429.83L369.0,431.67L369.83,433.33L370.0,435.0L369.17,437.0L369.33,439.17L371.67,440.83L375.33,440.83L377.0,440.67L378.83,441.17L380.67,442.0L381.67,441.83L382.83,439.5L384.5,439.0L386.83,437.67L388.67,436.33L390.33,437.33L392.17,438.33L394.67,440.0L395.5,441.5L397.5,441.83L398.33,440.0L399.83,438.17L399.33,435.33L399.83,432.83L401.33,431.17L403.67,430.67L405.0,430.67L406.17,430.17L406.83,428.33L408.67,428.67L410.83,427.83L412.67,428.5L414.5,430.0L415.67,428.83L417.5,428.67L419.0,428.17L420.33,429.0L422.33,428.83L424.83,428.67L426.17,426.83L427.83,425.33L427.83,427.33L428.17,429.0L428.5,431.0L428.67,433.0L431.0,436.5L431.83,438.17L432.17,439.83L431.33,441.83L430.0,444.0L429.5,446.17L428.67,448.5L430.5,449.0L432.5,448.5L433.83,447.33L434.67,445.67L437.0,445.67L437.67,447.17L438.83,448.67L439.83,450.33L443.33,451.67L445.17,451.67L447.0,452.67L448.0,450.33L449.83,448.5L449.17,446.67L450.5,445.67L453.67,444.33L455.5,442.33L457.0,441.67L457.67,439.33L459.83,438.0L461.33,437.5L461.33,435.0L461.5,433.33L463.0,433.17L465.33,431.33L465.67,430.0L466.17,429.17L466.0,427.33L468.0,427.33L469.83,427.83L471.83,427.83L474.17,430.33L475.17,428.5L473.33,425.33L473.5,422.5L472.33,421.5L470.5,419.83L469.33,419.17L468.0,420.0L465.83,419.83L463.33,418.83L460.0,415.0L457.17,413.83L455.17,411.67L452.5,411.0L451.33,408.5L449.83,407.17L448.17,406.33L449.0,404.0L450.0,402.83L449.83,399.83L450.33,398.0L449.5,395.5L452.0,395.0L454.0,393.5L454.83,392.0L455.5,390.5L459.67,387.5L460.5,385.33L461.33,383.17L461.67,381.33L460.0,379.83L458.67,378.67L459.83,377.33L459.17,375.33L461.67,374.67L463.5,373.5L464.5,371.0L464.83,369.33L465.33,366.83L464.5,364.83L465.33,363.17L465.0,360.67L466.83,358.5L468.17,358.33L470.0,357.0L470.0,354.33L471.0,353.17L473.33,350.83L474.5,349.17L475.83,348.17L477.17,346.83L478.5,346.83L479.5,344.83L480.67,343.33L479.5,341.0L480.5,338.33L480.33,336.17L478.17,335.83L476.5,334.5L475.83,332.5L475.17,330.5L473.67,327.67L473.0,325.33L473.67,323.17L475.0,322.5L476.17,322.17L476.17,320.33L473.33,318.33L470.67,316.67L470.33,314.0L470.83,312.0L470.67,308.83L472.67,307.17L474.17,305.83L475.67,304.5L477.0,302.83L476.0,301.67L475.17,300.83L473.83,300.33L473.17,299.83L472.0,300.83L470.83,301.33L467.17,298.83L467.0,296.17L466.17,293.67L466.33,291.33L466.0,288.33L464.5,290.67L463.33,291.5L462.17,290.83L460.67,289.5L459.33,289.67L456.83,285.67L457.83,283.67L458.67,282.17L458.67,280.83L458.33,279.5L457.0,278.33L455.83,277.33L455.17,275.17L452.5,272.33L451.5,271.17L451.5,270.17L450.33,269.0L448.83,267.67L450.17,265.67L450.17,264.33L449.83,262.5L448.33,261.5L447.17,259.17L448.17,258.0L447.33,256.17L448.83,254.83L450.67,254.83L452.17,255.33L453.33,254.83L453.5,253.67L454.5,252.67L454.17,251.5L453.67,250.33L452.5,249.5L451.17,249.0L449.33,247.67L446.83,246.17L444.67,245.83L442.67,244.17L438.83,244.17L436.5,243.83L434.33,243.33L432.67,246.0L430.33,245.5L428.83,244.67L429.33,243.67L427.67,242.83L426.67,243.67L426.17,244.67L425.17,246.17L423.67,246.83L422.0,246.0L420.67,245.83L419.83,247.83Z" />
		<path id="L1610959562372" name="辽源市" class="qing-map-1616123840448" d="M265.9,441.3L267.2,440.5L267.5,439.5L266.8,438.5L266.2,438.1L266.2,437.0L267.4,436.7L267.7,435.0L266.9,433.9L266.9,433.0L267.4,432.7L267.7,431.7L266.1,430.5L265.9,428.9L264.6,428.7L263.3,427.5L261.7,427.7L261.7,428.9L260.9,430.2L259.0,429.9L257.9,427.3L258.0,425.0L257.4,422.0L257.6,420.6L257.9,418.8L258.4,417.3L258.6,415.8L258.6,411.2L258.7,410.3L258.2,409.9L257.8,408.3L256.4,406.1L257.7,405.9L257.7,404.5L258.7,403.4L259.7,402.1L259.5,400.7L259.2,398.9L259.67,396.0L265.67,391.33L266.5,389.67L269.5,388.33L270.83,387.33L273.5,387.83L283.17,387.17L285.0,390.17L288.33,394.33L293.67,397.33L296.5,398.17L297.17,394.67L295.0,394.17L294.0,392.83L295.0,389.17L295.0,386.5L297.83,387.33L299.67,386.33L303.5,390.83L302.83,393.5L303.83,396.67L305.0,399.5L308.67,400.0L311.5,402.17L313.67,402.17L315.33,403.17L317.5,403.67L317.0,404.83L319.0,405.5L320.5,406.67L321.67,408.0L323.5,412.83L323.17,415.17L322.33,416.17L322.33,417.83L321.83,419.5L321.83,422.5L322.5,424.17L323.0,425.33L323.17,426.67L329.17,432.0L328.33,433.83L320.17,435.33L317.83,436.0L315.67,434.83L316.0,436.83L317.0,437.83L316.33,439.83L316.0,441.67L316.0,443.5L317.0,445.33L317.5,446.33L318.0,448.17L319.67,448.0L320.83,448.17L319.83,449.67L319.17,451.17L317.83,452.17L317.0,454.5L315.33,454.0L313.67,455.33L312.5,456.83L310.67,457.67L311.0,460.33L309.5,463.67L308.5,465.83L303.17,469.0L300.67,470.67L297.5,470.67L295.67,471.83L294.0,472.33L292.33,474.83L287.17,477.67L285.5,477.5L284.33,478.33L281.0,477.67L281.33,475.83L280.83,473.17L282.33,472.83L283.0,471.5L282.0,470.67L281.67,469.67L282.33,468.33L281.5,467.17L281.0,465.67L278.17,464.33L278.67,463.0L277.5,461.5L276.5,461.5L276.0,460.17L273.67,458.0L274.5,457.17L273.5,456.0L273.5,454.5L273.5,452.67L274.5,452.0L274.5,450.0L275.0,447.5L274.5,446.67L273.0,446.83L272.0,446.83L271.0,447.33L269.5,446.17L269.5,443.67L268.83,442.33L267.5,441.33Z" />
		<path id="L1610959850525" name="通化市" class="qing-map-1616123840448" d="M334.5,616.38L334.88,614.88L333.63,615.5L331.88,614.75L331.25,615.63L330.75,616.5L329.0,617.63L327.63,618.63L326.38,618.13L326.63,617.13L324.75,615.88L323.13,617.63L319.63,618.5L318.75,616.38L317.5,614.88L315.88,613.88L314.75,614.38L313.5,614.63L310.38,615.75L311.25,613.63L311.5,612.38L313.0,611.5L315.0,611.5L315.88,608.25L317.63,608.25L318.0,604.75L318.75,603.38L321.0,600.75L322.13,597.0L321.38,596.13L320.38,596.13L321.75,593.75L323.0,593.63L324.63,590.75L325.63,590.0L324.88,589.13L323.63,588.75L322.63,588.38L321.88,587.63L322.13,585.5L323.25,583.13L322.63,581.88L320.63,582.13L319.25,581.75L318.38,581.75L318.5,580.5L318.13,579.5L317.5,579.0L315.63,579.88L314.88,578.63L314.75,576.63L313.5,575.5L313.63,574.38L314.63,573.5L312.88,570.5L312.0,570.25L310.88,571.0L310.13,569.75L310.75,568.75L310.13,567.25L308.63,566.88L308.5,565.75L308.0,565.13L307.5,564.75L307.63,563.5L307.38,562.75L307.5,560.25L307.0,559.0L306.0,558.88L305.25,557.25L304.63,556.75L304.25,555.38L305.0,554.88L305.0,553.63L304.0,553.38L302.38,551.0L301.88,550.13L301.88,549.0L301.13,548.25L301.25,545.5L302.38,543.88L301.63,543.38L301.0,542.25L301.38,541.38L300.75,540.25L299.38,539.88L297.88,538.63L296.5,538.63L294.88,539.75L292.0,540.25L291.25,539.63L292.5,536.75L292.0,532.13L292.13,531.13L291.25,528.63L290.5,527.38L290.25,526.5L289.63,525.38L289.38,522.25L290.25,521.13L289.75,519.25L290.25,517.75L290.5,515.75L294.0,515.25L293.63,514.13L291.88,513.63L290.38,512.25L289.63,511.75L291.25,510.75L292.88,509.63L293.0,508.75L294.5,508.5L295.25,507.88L294.75,506.38L296.5,504.38L298.13,502.0L298.75,501.0L299.13,499.75L298.38,498.5L300.63,498.63L301.38,497.63L302.38,497.0L303.75,495.25L301.63,492.5L300.63,493.13L299.5,493.13L298.5,492.88L296.88,491.88L296.13,491.0L294.75,490.38L293.75,490.88L293.88,492.0L294.25,493.88L292.75,494.0L291.63,494.25L290.75,493.25L291.13,492.0L291.13,490.38L291.25,489.25L290.6,489.1L289.7,490.4L290.13,488.5L290.63,487.5L290.63,486.5L288.63,485.25L288.88,484.0L288.75,482.75L288.13,481.75L289.25,480.75L290.0,480.0L289.0,479.38L287.17,477.67L292.33,474.83L294.0,472.33L295.67,471.83L297.5,470.67L300.67,470.67L303.17,469.0L308.5,465.83L309.5,463.67L311.0,460.33L310.67,457.67L312.5,456.83L313.67,455.33L315.33,454.0L317.0,454.5L317.83,452.17L319.17,451.17L319.83,449.67L320.83,448.17L319.67,448.0L318.0,448.17L317.5,446.33L317.0,445.33L316.0,443.5L316.0,441.67L316.33,439.83L317.0,437.83L316.0,436.83L315.67,434.83L317.83,436.0L320.17,435.33L328.33,433.83L329.17,432.0L323.17,426.67L323.0,425.33L322.5,424.17L321.83,422.5L321.83,419.5L322.33,417.83L322.33,416.17L323.17,415.17L323.5,412.83L321.67,408.0L324.0,407.33L326.5,408.5L327.83,409.67L328.67,411.33L328.83,412.67L330.83,413.33L329.83,416.17L331.33,417.33L334.0,418.83L334.67,420.83L334.67,423.0L337.83,427.0L340.17,427.33L341.5,429.17L343.33,430.33L345.5,430.17L347.33,430.33L348.83,430.5L351.83,429.67L353.33,430.5L355.0,429.83L357.67,431.5L359.17,430.83L360.67,429.67L362.0,429.17L363.5,427.67L366.0,428.67L367.83,427.5L369.33,428.0L369.67,429.83L369.0,431.67L369.83,433.33L370.0,435.0L369.17,437.0L369.33,439.17L371.67,440.83L375.33,440.83L377.0,440.67L378.83,441.17L380.67,442.0L381.67,441.83L382.83,439.5L384.5,439.0L386.83,437.67L388.67,436.33L390.33,437.33L392.17,438.33L394.67,440.0L395.5,441.5L394.67,443.67L393.5,445.83L392.83,448.17L391.17,448.5L389.83,449.33L388.17,449.83L386.33,451.17L387.17,459.5L386.5,462.17L383.33,462.67L378.33,467.17L378.5,468.67L378.5,470.33L378.67,471.83L380.33,472.83L380.0,475.17L379.17,477.5L379.0,480.17L379.17,482.83L383.0,485.33L383.33,486.83L381.83,488.33L380.83,489.33L377.5,488.83L376.17,490.17L375.0,490.83L374.67,492.83L373.83,494.33L373.5,496.0L369.5,498.67L370.0,500.0L369.83,501.67L367.67,501.83L364.17,504.67L362.83,504.5L361.17,505.83L359.83,506.5L359.5,508.5L358.0,508.33L356.5,509.83L354.83,510.67L352.83,510.17L349.67,512.17L354.0,517.33L355.33,518.0L357.33,518.17L358.33,519.33L357.67,520.67L357.0,522.83L358.33,523.33L359.83,523.67L361.33,524.5L363.0,525.17L364.0,527.67L364.0,530.17L363.0,533.33L361.5,537.5L364.17,541.67L366.0,541.17L368.0,541.17L370.33,540.67L371.5,540.83L370.83,544.33L370.5,546.67L370.5,548.17L368.67,550.0L370.5,553.67L370.17,555.5L372.0,556.33L373.33,555.0L374.67,555.0L375.0,556.83L377.83,556.83L378.67,554.17L381.67,553.67L381.17,555.67L380.83,557.17L380.83,558.67L379.5,560.67L378.0,563.0L378.17,567.83L379.83,569.67L379.33,571.5L375.67,571.67L378.17,570.33L376.67,569.5L374.67,570.5L372.67,570.83L372.33,572.17L372.33,573.33L370.83,573.5L370.0,575.5L367.5,578.17L367.17,581.83L364.33,583.17L363.5,586.67L361.83,587.33L362.17,588.67L361.33,590.5L359.5,591.0L358.0,591.5L357.0,593.17L355.67,593.67L353.17,596.33L350.5,596.83L349.33,597.83L350.67,599.83L349.67,602.17L348.33,602.17L349.0,604.83L346.5,605.0L345.83,606.5L347.0,608.0L345.0,609.0L344.83,610.83L343.83,611.33L343.17,612.83L341.5,611.83L340.33,612.67L339.5,614.17L341.33,613.67L342.67,614.67L341.33,615.83L339.5,615.33L338.33,616.67L336.83,617.17L335.67,617.33Z" />
		<path id="L1610960473236" name="白山市" class="qing-map-1616123840448" d="M483.8,494.4L484.2,492.0L482.0,490.6L480.6,488.4L480.2,485.0L478.0,484.2L477.8,482.2L476.0,480.8L473.6,480.4L472.4,478.4L473.2,476.4L476.0,476.0L477.8,475.8L479.2,473.8L479.2,472.0L482.6,471.4L484.0,469.4L487.2,467.2L487.6,464.8L489.6,462.0L489.4,459.6L489.2,457.2L487.8,454.4L488.2,452.6L486.8,451.0L483.6,446.0L483.8,443.6L480.6,441.4L478.8,441.4L478.2,439.8L476.2,436.6L477.0,435.0L474.8,432.8L474.17,430.33L471.83,427.83L469.83,427.83L468.0,427.33L466.0,427.33L466.17,429.17L465.67,430.0L465.33,431.33L463.0,433.17L461.5,433.33L461.33,435.0L461.33,437.5L459.83,438.0L457.67,439.33L457.0,441.67L455.5,442.33L453.67,444.33L450.5,445.67L449.17,446.67L449.83,448.5L448.0,450.33L447.0,452.67L445.17,451.67L443.33,451.67L439.83,450.33L438.83,448.67L437.67,447.17L437.0,445.67L434.67,445.67L433.83,447.33L432.5,448.5L430.5,449.0L428.67,448.5L429.5,446.17L430.0,444.0L431.33,441.83L432.17,439.83L431.83,438.17L431.0,436.5L428.67,433.0L428.5,431.0L428.17,429.0L427.83,427.33L427.83,425.33L426.17,426.83L424.83,428.67L422.33,428.83L420.33,429.0L419.0,428.17L417.5,428.67L415.67,428.83L414.5,430.0L412.67,428.5L410.83,427.83L408.67,428.67L406.83,428.33L406.17,430.17L405.0,430.67L403.67,430.67L401.33,431.17L399.83,432.83L399.33,435.33L399.83,438.17L398.33,440.0L397.5,441.83L395.5,441.5L394.67,443.67L393.5,445.83L392.83,448.17L391.17,448.5L389.83,449.33L388.17,449.83L386.33,451.17L387.17,459.5L386.5,462.17L383.33,462.67L378.33,467.17L378.5,468.67L378.5,470.33L378.67,471.83L380.33,472.83L380.0,475.17L379.17,477.5L379.0,480.17L379.17,482.83L383.0,485.33L383.33,486.83L381.83,488.33L380.83,489.33L377.5,488.83L376.17,490.17L375.0,490.83L374.67,492.83L373.83,494.33L373.5,496.0L369.5,498.67L370.0,500.0L369.83,501.67L367.67,501.83L364.17,504.67L362.83,504.5L361.17,505.83L359.83,506.5L359.5,508.5L358.0,508.33L356.5,509.83L354.83,510.67L352.83,510.17L349.67,512.17L354.0,517.33L355.33,518.0L357.33,518.17L358.33,519.33L357.67,520.67L357.0,522.83L358.33,523.33L359.83,523.67L361.33,524.5L363.0,525.17L364.0,527.67L364.0,530.17L363.0,533.33L361.5,537.5L364.17,541.67L366.0,541.17L368.0,541.17L370.33,540.67L371.5,540.83L370.83,544.33L370.5,546.67L370.5,548.17L368.67,550.0L370.5,553.67L370.17,555.5L372.0,556.33L373.33,555.0L374.67,555.0L375.0,556.83L377.83,556.83L378.67,554.17L381.67,553.67L383.67,551.33L382.67,547.67L382.33,545.83L384.0,545.5L384.83,544.17L386.0,543.0L385.33,541.17L386.5,540.67L388.0,541.83L390.5,540.67L391.0,539.5L393.33,537.67L394.0,535.67L391.83,534.0L392.83,532.83L396.83,535.83L397.83,537.67L399.17,537.67L399.17,535.17L399.33,533.5L400.67,533.67L401.33,534.83L402.67,534.5L403.0,532.33L404.5,529.5L406.33,528.17L408.17,527.0L410.0,527.17L410.13,528.5L409.0,529.25L409.5,530.5L412.13,530.25L412.88,531.13L414.38,531.75L414.13,533.0L417.25,533.38L417.5,535.13L417.75,537.13L419.5,537.25L418.75,538.63L417.5,538.13L417.13,539.25L416.88,540.63L418.63,541.5L419.13,542.63L420.25,543.13L421.13,542.88L421.5,543.88L420.88,544.88L421.63,545.25L422.88,545.13L423.13,546.25L423.0,547.25L423.88,547.38L426.38,547.5L427.25,548.13L424.63,548.63L424.5,549.5L424.38,550.25L423.5,550.63L423.13,551.88L422.5,552.5L421.63,552.25L423.38,553.0L424.13,552.88L424.5,553.75L425.75,553.13L426.5,553.75L427.38,554.63L428.63,554.13L429.25,555.13L430.75,555.0L430.75,556.25L431.63,557.25L432.63,556.5L433.88,555.75L434.63,556.75L434.13,557.75L433.13,558.0L432.25,558.5L432.88,559.25L434.0,559.25L435.25,558.75L437.5,559.75L439.75,560.63L440.0,559.63L442.5,558.88L443.13,560.13L444.13,561.13L445.13,560.63L446.63,561.0L447.63,560.38L447.63,559.38L448.5,558.88L448.75,559.88L450.0,559.38L451.0,560.25L452.0,560.38L452.88,559.63L453.5,560.38L453.5,561.88L454.5,563.38L456.0,564.25L457.25,564.25L458.63,563.88L460.0,565.5L461.38,566.13L462.0,565.75L461.63,564.88L463.0,565.13L463.75,564.63L465.88,565.38L467.13,564.75L468.5,564.5L469.75,565.0L470.63,564.5L471.0,565.63L472.25,564.75L473.13,564.63L474.25,566.25L474.88,564.88L475.88,565.25L477.25,566.75L477.63,565.88L477.25,564.13L477.38,562.88L478.38,562.5L478.38,563.63L479.13,563.63L479.88,564.0L481.38,562.63L481.63,561.75L482.63,562.25L482.88,563.25L484.63,563.38L485.13,564.75L485.75,565.13L486.25,563.75L486.63,562.5L487.63,562.63L487.0,564.13L487.75,564.25L487.75,565.5L488.25,565.63L489.13,564.88L489.63,565.63L489.5,567.5L490.63,567.5L491.5,567.38L492.13,568.5L492.75,567.75L493.88,567.63L494.13,568.25L492.88,569.5L494.13,569.75L495.0,570.25L495.5,569.63L496.0,568.88L497.63,568.38L498.25,567.75L499.38,566.5L500.5,565.75L501.75,565.75L502.0,564.25L502.5,563.0L504.0,562.0L503.63,560.88L504.25,559.5L504.13,558.25L503.75,557.38L505.38,556.38L507.0,554.63L507.25,553.75L508.38,553.25L508.13,552.38L508.0,551.38L509.13,550.13L509.38,548.88L509.38,547.5L508.25,546.88L508.63,545.25L507.88,544.5L507.25,543.75L506.88,542.88L506.38,542.0L506.0,540.75L505.0,540.25L503.75,539.75L502.75,539.25L501.5,538.75L501.13,537.88L500.63,537.13L499.0,536.63L498.0,535.0L497.5,533.88L497.5,532.63L497.5,531.63L497.25,530.0L496.38,529.88L495.63,529.0L494.38,528.25L494.75,526.5L494.0,524.63L494.38,522.88L494.75,521.25L494.75,519.63L495.0,518.5L494.25,517.25L494.5,513.75L489.38,508.38L491.25,507.38L489.5,505.25L485.63,496.63Z" />
		<path id="L1610961337292" name="延边朝鲜族自治州" class="qing-map-1616123840448" d="M717.38,400.75L717.0,399.13L717.88,398.13L719.38,397.0L720.63,395.25L720.63,393.75L720.38,392.5L720.88,390.88L720.38,389.5L719.63,388.63L719.63,387.38L719.88,386.25L721.25,384.63L723.5,382.63L724.25,379.63L724.5,375.88L724.88,372.75L725.38,371.25L726.25,371.0L728.0,369.75L727.75,368.0L727.13,366.88L726.5,365.38L727.0,363.88L727.63,362.13L727.88,360.63L727.38,359.25L727.13,360.13L727.0,361.75L726.25,362.5L724.63,362.5L723.75,362.25L722.38,361.5L722.13,362.88L721.25,363.75L720.13,364.13L720.0,365.25L719.13,365.63L717.75,365.13L716.38,366.5L714.38,366.5L713.88,364.75L712.0,363.88L710.38,362.25L709.25,361.0L708.38,360.38L706.5,358.5L705.5,358.5L703.88,359.88L702.38,360.5L700.25,363.0L697.88,365.88L694.88,365.25L694.38,364.25L693.25,363.63L692.5,360.63L692.13,359.13L690.88,358.63L690.0,357.5L689.5,356.63L688.38,356.88L687.0,355.13L685.75,354.75L684.88,353.38L683.0,353.13L683.0,352.5L681.75,352.38L681.0,353.0L680.75,350.75L680.0,351.13L679.5,350.5L678.13,351.0L677.5,350.25L677.88,348.5L677.88,347.0L676.63,347.0L675.5,347.0L674.88,348.0L673.13,346.38L672.0,346.63L670.88,346.0L669.5,345.5L668.75,345.25L667.88,344.13L666.63,343.13L665.13,344.25L663.38,344.13L661.63,343.63L661.75,342.5L661.25,341.88L660.75,339.38L662.13,337.13L662.38,335.5L663.0,334.88L661.63,332.88L660.63,332.63L659.5,330.63L659.88,328.25L659.5,326.38L658.5,325.13L660.13,322.75L658.63,320.13L659.75,318.25L659.0,317.38L658.75,316.0L657.63,314.5L656.75,314.13L656.63,312.63L658.63,309.38L658.25,307.38L657.88,306.38L658.38,305.13L657.75,304.0L655.63,304.75L654.88,305.88L654.63,308.25L653.88,308.88L652.38,310.38L652.38,312.25L651.38,313.13L651.25,314.13L649.25,314.75L648.88,314.13L648.0,314.5L647.38,314.13L645.88,314.75L645.75,315.88L644.88,316.0L643.38,317.0L643.38,319.63L642.75,320.5L642.5,321.0L640.63,321.13L640.0,322.13L640.25,324.13L638.75,324.5L637.75,325.13L636.13,324.88L635.25,323.5L634.0,323.5L632.88,320.0L633.5,318.5L633.0,318.0L633.75,317.0L633.63,315.63L633.75,314.0L633.13,313.38L633.13,312.38L632.25,312.38L631.13,310.63L632.13,309.88L631.88,308.5L630.88,308.38L630.38,307.38L627.75,306.0L626.5,307.38L625.75,306.25L624.75,307.75L623.0,308.88L622.13,308.25L621.5,309.0L620.88,309.0L618.38,311.88L616.38,312.63L617.25,314.75L616.13,315.75L616.75,318.0L616.13,319.5L613.5,319.13L613.38,321.38L610.63,320.88L607.13,321.63L606.25,321.13L603.25,320.75L601.63,321.75L599.38,321.63L597.38,321.88L595.5,321.0L594.88,321.5L593.38,321.5L593.5,322.25L591.38,324.5L589.63,324.75L589.13,325.88L589.13,327.25L587.88,327.25L587.75,328.38L586.63,328.38L586.25,329.13L583.88,329.25L582.0,327.88L582.0,329.0L580.5,329.38L579.13,327.88L577.88,327.38L575.13,330.38L575.13,332.25L575.13,333.38L575.13,334.25L575.0,336.25L576.13,337.88L575.38,339.38L575.38,340.88L575.0,342.25L575.0,343.75L575.88,344.5L576.25,347.25L576.0,350.25L574.88,351.13L574.13,351.88L573.38,351.88L571.5,353.13L571.0,352.38L569.88,352.25L569.13,353.5L567.63,353.88L566.75,353.5L566.13,354.5L564.63,354.75L563.0,355.25L561.63,355.63L560.38,357.0L558.5,355.88L556.88,355.38L555.63,354.0L554.38,353.88L553.63,354.5L550.63,355.13L549.88,353.63L549.0,353.63L548.25,351.88L547.25,350.13L546.5,347.25L546.25,345.75L545.63,344.88L545.38,342.88L544.38,341.13L543.5,339.5L543.5,337.88L542.63,337.13L542.63,336.25L541.75,336.25L540.5,335.63L539.5,334.88L540.38,333.5L542.0,333.5L540.25,328.5L539.0,327.25L539.25,325.5L541.5,323.0L539.63,320.13L538.88,319.38L537.38,318.88L536.38,319.5L535.5,319.38L534.75,319.63L533.38,319.38L532.63,318.88L532.5,316.63L533.0,315.63L533.25,314.13L532.13,313.75L530.5,311.75L529.38,309.88L528.88,307.38L528.38,304.75L527.38,303.13L527.13,301.5L525.63,298.88L525.0,297.5L523.13,296.0L521.13,293.13L520.88,291.75L520.25,290.0L520.38,288.63L519.5,288.0L519.63,287.0L519.63,286.25L520.75,284.88L520.75,283.63L519.5,282.5L520.38,279.38L521.13,276.88L519.75,275.25L519.75,273.5L520.88,273.5L521.25,270.63L520.0,268.13L519.63,266.0L520.13,265.0L518.13,262.63L517.5,261.0L515.0,259.13L513.38,256.88L512.0,257.0L510.25,258.63L508.38,259.63L508.0,261.0L506.0,261.88L505.25,263.25L502.75,263.75L502.0,266.75L501.13,268.5L500.75,270.25L499.75,272.75L498.75,273.5L497.25,272.63L495.88,273.0L495.0,273.0L493.38,272.63L491.75,271.38L491.25,272.13L490.38,272.88L490.75,273.63L491.0,274.63L491.25,276.0L491.5,277.38L492.75,277.88L493.38,278.75L493.63,279.63L493.0,280.88L491.75,281.75L491.5,283.25L493.5,283.5L493.5,284.25L494.13,285.13L494.0,286.75L493.5,287.0L493.25,290.75L492.0,290.75L491.13,291.25L492.0,292.38L493.0,292.75L493.25,293.88L493.88,294.75L492.88,295.75L492.13,297.0L489.88,298.5L488.25,298.13L487.13,299.38L483.75,300.38L483.0,299.75L480.5,302.38L478.38,302.13L477.0,302.83L475.67,304.5L474.17,305.83L472.67,307.17L470.67,308.83L470.83,312.0L470.33,314.0L470.67,316.67L473.33,318.33L476.17,320.33L476.17,322.17L475.0,322.5L473.67,323.17L473.0,325.33L473.67,327.67L475.17,330.5L475.83,332.5L476.5,334.5L478.17,335.83L480.33,336.17L480.5,338.33L479.5,341.0L480.67,343.33L479.5,344.83L478.5,346.83L477.17,346.83L475.83,348.17L474.5,349.17L473.33,350.83L471.0,353.17L470.0,354.33L470.0,357.0L468.17,358.33L466.83,358.5L465.0,360.67L465.33,363.17L464.5,364.83L465.33,366.83L464.83,369.33L464.5,371.0L463.5,373.5L461.67,374.67L459.17,375.33L459.83,377.33L458.67,378.67L460.0,379.83L461.67,381.33L461.33,383.17L460.5,385.33L459.67,387.5L455.5,390.5L454.83,392.0L454.0,393.5L452.0,395.0L449.5,395.5L450.33,398.0L449.83,399.83L450.0,402.83L449.0,404.0L448.17,406.33L449.83,407.17L451.33,408.5L452.5,411.0L455.17,411.67L457.17,413.83L460.0,415.0L463.33,418.83L465.83,419.83L468.0,420.0L469.33,419.17L470.5,419.83L472.33,421.5L473.5,422.5L473.33,425.33L475.17,428.5L474.17,430.33L474.8,432.8L477.0,435.0L476.2,436.6L478.2,439.8L478.8,441.4L480.6,441.4L483.8,443.6L483.6,446.0L486.8,451.0L488.2,452.6L487.8,454.4L489.2,457.2L489.4,459.6L489.6,462.0L487.6,464.8L487.2,467.2L484.0,469.4L482.6,471.4L479.2,472.0L479.2,473.8L477.8,475.8L476.0,476.0L473.2,476.4L472.4,478.4L473.6,480.4L476.0,480.8L477.8,482.2L478.0,484.2L480.2,485.0L480.6,488.4L482.0,490.6L484.2,492.0L483.8,494.4L485.63,496.63L489.5,505.25L491.25,507.38L492.67,506.33L497.33,505.67L507.5,505.5L516.0,506.17L518.0,506.33L519.83,506.17L522.0,508.16L524.83,508.17L526.33,507.67L527.5,508.17L529.83,507.33L529.83,505.83L531.17,505.0L533.17,504.5L536.33,507.0L538.67,505.0L539.83,503.83L541.33,503.33L542.83,504.33L545.67,503.83L547.83,505.33L549.0,505.33L549.83,505.83L551.0,505.67L552.83,507.0L555.0,506.33L556.0,504.5L556.67,502.83L555.83,501.17L556.17,499.5L560.0,499.17L561.83,498.0L561.88,496.88L562.13,496.0L562.75,495.25L564.63,494.25L564.63,493.0L565.38,493.0L566.0,494.25L566.88,494.25L567.88,494.13L569.0,493.5L569.25,492.38L570.63,492.0L571.88,491.75L571.25,490.13L572.88,489.5L573.63,488.25L575.0,488.0L575.75,487.13L574.5,486.75L574.5,485.75L574.5,484.38L573.5,484.5L572.88,484.63L572.75,483.0L573.25,482.25L574.5,482.25L575.63,481.75L576.13,480.5L574.75,480.25L575.0,479.13L576.25,478.5L576.13,477.63L574.0,477.13L575.5,476.5L576.63,476.88L577.5,476.63L578.38,475.88L578.0,475.0L576.5,474.13L576.13,472.75L576.75,472.5L577.0,471.13L578.0,471.38L579.0,471.13L579.5,470.13L580.88,470.63L581.5,469.88L582.88,470.13L581.88,468.63L582.25,467.88L582.13,466.75L583.5,466.0L584.0,466.88L585.38,466.88L586.0,465.88L587.88,466.0L588.25,464.25L589.0,463.75L590.38,465.25L591.63,465.0L592.25,464.63L593.0,466.0L594.38,466.63L595.38,467.13L596.0,468.13L596.38,469.25L597.75,469.63L598.5,470.63L598.63,472.25L599.63,472.0L599.88,471.13L600.88,470.75L600.75,469.63L601.88,467.38L602.75,467.63L603.13,466.38L603.88,464.88L602.38,464.25L603.38,463.63L604.5,462.63L606.88,466.13L608.25,465.38L610.63,466.0L612.63,463.63L614.25,461.63L613.88,460.75L613.63,459.75L613.38,459.13L613.63,458.13L613.38,457.0L613.88,456.0L614.13,454.25L613.38,453.5L613.38,451.38L614.0,450.88L614.63,449.25L615.5,448.75L616.63,448.38L615.75,447.5L614.75,447.0L615.38,445.75L614.5,444.63L615.13,443.63L616.38,444.5L617.13,443.88L616.5,443.25L616.5,441.5L617.38,441.5L618.25,440.88L616.75,439.88L615.5,438.5L615.13,437.0L616.13,435.88L616.38,434.5L616.88,433.13L617.13,431.5L618.63,430.25L618.38,427.63L618.75,426.13L619.13,425.38L618.88,424.5L620.63,422.5L621.13,421.5L621.25,420.5L621.13,418.13L621.75,416.75L622.63,417.25L623.0,416.63L622.25,415.38L621.75,414.13L622.13,412.75L623.25,412.13L625.0,412.13L625.88,412.38L626.5,411.63L624.0,411.0L624.0,409.88L625.13,408.63L626.75,408.25L628.25,407.75L629.38,408.38L629.25,411.13L631.25,411.88L633.13,412.38L634.75,412.25L635.88,412.0L637.5,412.5L640.38,410.38L641.63,410.63L642.5,411.25L643.25,411.5L641.38,413.5L641.63,415.0L642.38,415.75L640.88,416.13L640.0,416.75L642.63,418.75L644.63,417.88L646.88,418.0L648.63,418.75L651.0,418.5L652.0,419.75L651.75,422.38L651.0,423.5L651.0,425.38L650.25,427.25L651.0,429.75L650.5,431.13L651.0,432.75L650.38,434.75L651.25,436.88L651.5,438.25L653.38,438.75L654.25,440.25L655.13,442.63L657.5,444.75L659.63,446.63L660.13,447.88L660.38,449.0L662.0,448.63L662.88,447.63L664.0,448.0L664.25,449.13L663.5,450.25L663.13,451.88L664.0,453.5L665.25,454.0L666.75,453.88L667.38,453.0L667.25,451.25L666.5,449.38L666.88,447.63L668.63,447.0L670.0,447.25L670.25,449.13L669.88,450.25L670.75,452.25L671.0,454.25L672.75,456.5L673.13,459.5L674.63,460.25L674.63,461.75L674.0,462.88L674.5,464.75L675.5,465.63L676.63,465.88L678.5,465.88L676.88,464.25L676.0,463.38L676.0,461.25L675.0,459.5L674.0,458.5L673.88,453.5L675.0,453.13L676.5,453.25L678.0,450.63L678.25,449.13L677.5,446.25L676.0,444.88L675.5,442.25L670.88,439.25L669.38,439.5L668.38,440.13L667.13,440.13L666.13,440.63L665.5,439.25L664.13,438.63L663.13,438.63L661.88,436.38L663.25,435.88L663.38,434.63L664.75,433.38L665.88,432.25L669.25,430.88L671.75,429.38L672.63,428.25L673.63,427.63L675.0,427.88L678.25,425.75L680.63,424.88L682.63,424.13L683.75,424.38L684.75,425.88L686.0,425.25L687.0,424.75L688.5,425.25L689.25,424.63L689.13,422.75L690.0,421.38L691.5,421.0L692.88,421.13L694.0,421.88L695.0,423.25L695.5,422.75L697.13,423.88L698.25,423.0L699.25,422.0L701.0,421.75L702.5,422.75L704.0,423.5L705.25,423.13L707.63,423.13L708.13,422.38L707.25,420.38L706.38,418.88L706.38,417.5L707.38,416.38L708.5,417.13L710.25,416.75L711.25,417.5L713.25,417.38L715.38,415.38L715.5,413.13L713.63,412.13L713.5,411.25L713.25,410.5L713.5,409.0L712.75,407.5L712.63,406.25L714.0,404.0L713.75,402.25L714.88,402.25L716.0,402.0L717.25,402.25Z" />
	</g>
</svg>
