<svg xmlns="http://www.w3.org/2000/svg" viewBox="0,0,800,753" width="100%" height="100%">
	<defs>
		<style type="text/css">
.qing-map-1616134749145
{
	fill: #DDDDDD;
	fill-opacity: 1.0;
	stroke: #FFFFFF;
	stroke-opacity: 1.0;
	stroke-width: 1;
}

.qing-map-1616134749145:hover
{
	fill: #56A4FF;
	fill-opacity: 1.0;
}
</style>
	</defs>
	<g>
		<path id="L1611199109768" name="潼南区" class="qing-map-1616134749145" d="M89.2,373.4L86.4,373.2L84.2,370.6L84.2,369.4L83.0,367.8L82.4,367.0L83.6,366.0L83.8,364.6L87.0,364.0L88.6,365.2L90.4,365.4L90.8,367.0L92.8,367.8L94.8,366.8L98.8,367.4L98.8,366.0L100.8,363.8L98.6,363.2L97.0,359.2L98.2,357.6L97.4,356.4L98.0,355.4L100.0,356.8L101.6,356.4L101.0,354.0L103.6,352.0L103.4,349.2L106.2,346.6L105.0,344.6L106.8,341.0L108.0,340.8L109.0,340.2L111.2,337.0L113.2,335.8L115.0,337.8L115.2,338.8L117.0,340.4L116.0,342.4L117.4,343.4L119.6,340.6L120.4,342.2L120.4,343.4L121.6,344.4L122.0,343.2L122.0,341.8L125.6,341.8L124.8,343.2L125.0,344.0L127.8,343.6L130.6,346.2L132.0,347.2L132.8,346.4L134.6,346.4L136.8,347.2L137.8,349.6L137.2,354.8L138.0,356.4L134.8,358.4L136.0,361.2L137.8,361.8L137.2,363.2L139.0,363.4L139.8,362.8L141.8,364.4L141.4,365.6L138.4,367.2L137.6,370.4L138.6,371.2L140.6,372.8L140.4,374.2L143.0,376.4L139.0,380.2L137.4,380.2L136.0,381.0L137.6,382.8L136.6,384.6L137.0,386.0L139.6,388.6L139.2,390.6L140.0,391.8L138.0,393.4L138.0,395.0L137.2,397.2L137.8,398.8L136.8,400.2L135.2,398.0L134.2,398.0L132.6,399.8L131.0,400.0L131.0,398.2L130.0,396.8L129.8,395.6L127.6,394.6L126.4,395.0L125.2,396.8L125.4,398.4L125.2,403.0L123.0,402.4L121.0,403.0L121.0,405.4L121.4,406.8L120.6,408.2L121.0,410.2L123.2,409.6L127.4,412.4L126.4,414.0L127.0,417.2L128.4,417.0L129.2,418.4L130.2,418.6L131.4,421.6L130.4,423.0L132.4,426.4L132.0,429.0L130.6,429.8L129.0,431.8L129.8,432.6L128.2,433.8L126.8,433.2L126.4,431.4L123.4,429.8L120.2,429.8L119.0,428.6L117.4,428.8L115.8,431.8L114.2,430.8L113.4,435.6L111.6,437.6L111.4,439.4L108.6,440.4L107.0,442.8L105.4,445.2L102.0,444.6L99.8,446.6L98.0,446.6L99.0,443.4L100.8,441.8L99.8,439.4L99.8,438.0L101.0,437.0L101.0,434.4L100.6,432.0L101.0,429.4L98.4,428.8L97.6,427.6L98.2,426.4L96.6,423.8L98.4,421.4L97.6,420.6L99.8,417.6L98.8,415.4L100.2,410.8L101.8,410.0L102.8,408.8L103.8,408.4L101.8,406.6L99.2,406.0L99.2,404.6L98.2,403.6L97.2,404.4L95.2,403.6L93.4,403.6L93.2,402.0L92.0,400.6L92.0,399.4L89.4,399.0L88.2,397.6L87.0,397.8L85.8,394.8L86.4,393.4L83.2,392.8L80.2,392.0L78.8,389.8L77.2,389.2L77.0,387.8L78.2,386.2L79.6,386.2L79.8,385.2L79.8,383.8L78.0,383.0L75.4,383.8L74.6,385.8L72.6,384.8L71.8,383.8L71.8,382.6L72.4,380.2L75.0,379.8L76.4,380.4L77.6,380.8L79.0,380.8L79.6,379.0L81.4,379.8L82.8,380.4L83.4,379.2L84.2,378.4L85.2,379.2L87.2,378.4L87.2,375.2L89.0,375.2Z" />
		<path id="L1611199524183" name="大足区" class="qing-map-1616134749145" d="M101.0,434.4L101.0,437.0L99.8,438.0L99.8,439.4L100.8,441.8L99.0,443.4L98.0,446.6L99.8,446.6L102.0,444.6L105.4,445.2L107.0,442.8L108.0,444.6L109.8,446.4L111.4,447.2L111.6,449.0L112.4,450.2L113.6,449.6L114.2,451.4L115.0,452.2L120.4,452.4L122.0,450.2L124.2,447.6L123.4,446.4L124.8,444.8L126.0,445.8L125.6,447.0L127.8,446.8L131.6,448.6L133.6,448.2L135.2,448.2L136.8,447.8L138.4,448.8L139.8,450.2L140.0,453.6L141.2,454.2L143.2,453.6L143.8,456.2L145.4,457.6L143.0,461.4L140.8,465.0L139.6,467.6L137.4,466.6L136.8,468.4L135.4,471.6L132.4,474.0L130.8,476.6L128.6,479.8L126.2,481.4L124.0,483.6L121.8,486.6L121.8,489.2L118.8,489.2L115.6,491.4L113.4,495.8L112.0,502.0L110.6,507.0L107.8,509.6L106.2,511.8L106.2,514.0L105.8,515.8L102.8,517.6L99.8,515.4L100.2,513.6L98.8,513.4L100.6,510.4L100.0,509.2L100.0,507.4L101.2,506.4L98.0,502.2L93.6,504.8L90.0,502.4L88.8,498.6L89.8,496.6L87.6,497.0L86.6,498.2L87.2,499.2L86.6,500.2L85.2,499.6L85.4,497.6L83.8,497.0L84.0,495.2L80.8,493.8L79.2,492.0L80.4,489.6L80.0,487.2L81.0,486.4L81.2,484.0L79.6,481.4L78.0,480.2L75.4,480.6L74.6,482.4L73.0,483.4L72.4,482.0L72.4,480.8L70.2,481.0L68.6,481.0L67.4,478.2L67.4,473.4L67.0,472.2L65.8,471.0L64.2,468.2L64.6,466.2L63.6,465.4L63.2,463.2L62.0,462.0L63.0,459.4L64.4,458.2L65.4,459.8L68.2,461.4L69.2,462.6L70.8,462.0L70.6,460.8L73.0,457.8L72.2,455.6L75.8,457.4L76.0,455.4L77.2,454.2L76.8,450.8L76.4,449.8L78.8,447.0L78.0,446.4L78.8,442.6L78.2,441.4L78.8,440.4L80.0,441.2L81.4,441.6L82.4,439.0L82.6,437.0L85.0,438.0L85.8,438.6L88.0,437.8L91.0,437.2L92.2,435.2L93.6,435.0L95.0,436.4L96.2,437.4L97.4,437.2L98.6,435.8L99.6,434.8Z" />
		<path id="L1611199760236" name="荣昌区" class="qing-map-1616134749145" d="M63.6,465.4L64.6,466.2L64.2,468.2L65.8,471.0L67.0,472.2L67.4,473.4L67.4,478.2L68.6,481.0L70.2,481.0L72.4,480.8L72.4,482.0L73.0,483.4L74.6,482.4L75.4,480.6L78.0,480.2L80.4,481.2L81.2,484.0L81.0,486.4L80.0,487.2L80.4,489.6L79.2,492.0L80.8,493.8L84.0,495.2L83.8,497.0L85.4,497.6L85.2,499.6L86.6,500.2L87.2,499.2L86.6,498.2L87.6,497.0L89.8,496.6L88.8,498.6L90.0,502.4L93.6,504.8L98.0,502.2L101.2,506.4L100.0,507.4L100.0,509.2L100.6,510.4L98.8,513.4L100.2,513.6L99.8,515.4L98.33,517.13L96.73,517.53L94.33,519.93L91.93,520.53L89.93,521.93L88.93,521.33L88.33,522.73L88.33,524.13L87.53,526.33L86.33,526.33L85.33,527.73L87.53,532.13L90.73,533.73L89.93,535.13L91.13,536.33L90.33,537.53L87.93,537.53L86.73,535.93L87.53,534.53L86.33,533.33L84.93,534.33L82.13,535.13L79.93,534.73L77.53,534.73L75.13,533.53L73.93,534.93L71.53,534.33L68.73,536.13L67.13,534.53L67.53,533.13L66.93,531.93L63.53,533.93L60.93,531.33L61.13,529.93L60.93,528.33L61.53,526.33L59.73,524.73L58.73,526.73L57.53,526.33L55.53,526.73L54.93,525.13L53.93,521.93L53.53,520.93L54.33,519.93L56.73,518.33L55.53,516.73L55.93,515.73L57.53,514.73L57.33,512.73L55.93,511.53L55.13,509.73L53.93,509.13L52.73,510.13L50.73,509.13L47.53,509.53L47.0,508.13L48.13,507.53L50.13,506.73L50.53,504.73L49.13,503.13L45.93,502.93L45.0,505.13L43.53,504.13L42.2,505.93L40.73,504.93L41.8,503.27L42.0,501.27L40.0,500.07L39.8,497.27L38.73,492.87L36.2,490.27L35.93,488.07L35.8,486.47L36.33,483.87L36.33,482.47L38.13,482.87L38.73,481.47L38.13,479.67L39.73,478.07L41.13,478.47L40.73,479.27L42.13,479.67L42.73,478.07L43.33,476.47L43.13,475.67L44.73,474.27L46.13,474.87L47.53,475.27L48.93,474.07L47.93,472.47L47.53,471.27L48.73,471.27L49.53,470.47L50.33,469.67L49.53,467.67L49.53,466.07L50.73,465.87L51.93,466.27L53.13,465.07L54.33,464.07L55.33,464.87L56.13,465.27L57.73,465.67L60.53,466.47Z" />
		<path id="L1611199957179" name="合川区" class="qing-map-1616134749145" d="M136.8,347.2L137.8,349.6L137.2,354.8L138.0,356.4L134.8,358.4L136.0,361.2L137.8,361.8L137.2,363.2L139.0,363.4L139.8,362.8L141.8,364.4L141.4,365.6L138.4,367.2L137.6,370.4L138.6,371.2L140.6,372.8L140.4,374.2L143.0,376.4L139.0,380.2L137.4,380.2L136.0,381.0L137.6,382.8L136.6,384.6L137.0,386.0L139.6,388.6L139.2,390.6L140.0,391.8L138.0,393.4L138.0,395.0L137.2,397.2L137.8,398.8L136.8,400.2L137.45,403.02L140.05,406.22L141.65,405.62L146.85,408.62L147.45,410.42L148.45,410.82L153.25,410.22L156.05,410.42L158.05,410.82L157.45,412.42L157.85,414.42L157.25,415.42L157.05,416.42L156.65,417.42L156.25,418.62L157.05,420.42L158.65,421.22L159.25,423.42L161.25,422.82L163.45,424.42L166.85,423.42L168.85,422.22L170.05,422.64L171.65,422.44L172.65,424.24L174.85,426.04L177.25,427.84L178.45,428.04L179.65,430.04L181.05,428.84L180.65,432.64L179.25,434.04L178.45,436.24L179.25,437.24L181.65,435.04L183.45,432.84L184.65,431.44L185.85,430.44L188.05,428.84L189.65,427.64L191.85,426.04L195.85,423.24L197.45,423.84L197.65,427.44L201.65,430.44L202.85,429.24L203.25,427.64L204.45,427.24L205.65,425.84L207.05,423.24L207.85,424.04L207.05,426.04L205.25,430.24L206.25,431.44L206.65,433.24L208.25,432.64L208.45,431.24L209.85,430.04L210.65,426.24L211.65,426.64L213.05,425.04L213.85,423.24L214.25,422.24L216.05,423.04L217.25,420.84L217.45,419.84L220.05,421.64L221.25,419.44L223.05,415.44L223.85,412.44L223.85,408.64L225.45,406.84L228.05,405.24L227.65,402.24L230.85,399.04L232.85,397.04L235.45,396.04L237.65,394.64L238.45,392.04L239.25,389.64L239.05,385.44L237.65,383.24L236.05,380.64L233.65,380.04L235.05,378.24L233.05,378.04L231.65,375.84L231.85,374.44L231.85,372.64L231.25,371.64L232.25,369.64L233.45,368.24L234.45,367.84L233.45,366.24L233.45,365.04L232.05,364.24L231.05,362.04L230.05,360.44L227.45,360.44L226.45,358.64L224.25,358.24L222.45,356.24L221.05,356.84L220.05,357.64L220.05,359.44L217.65,358.84L215.05,359.64L215.05,360.64L213.65,361.24L213.05,360.04L211.65,360.04L210.05,358.24L208.25,359.44L206.85,357.84L204.85,357.24L203.85,358.24L203.85,359.04L205.45,360.24L204.85,361.04L202.85,361.04L203.65,363.04L201.45,363.04L200.65,364.24L203.25,366.24L202.25,367.64L200.65,368.64L198.65,369.04L196.85,367.04L197.05,369.24L195.45,368.04L193.65,368.64L191.45,369.84L189.65,370.24L188.85,372.04L185.05,370.24L184.65,372.24L183.05,373.24L183.45,375.44L181.65,375.84L180.45,374.24L179.25,375.24L179.05,377.84L177.25,376.64L175.45,378.04L174.05,378.04L174.85,376.24L174.05,374.24L171.65,376.04L169.65,375.44L169.65,374.24L168.65,373.44L169.65,372.04L169.65,370.24L167.25,370.84L166.45,369.44L167.05,368.24L164.85,367.84L166.65,365.24L165.25,358.24L164.25,358.24L162.05,356.64L158.45,356.24L157.85,357.24L155.65,357.24L154.85,355.64L153.05,355.04L153.25,351.84L151.65,352.04L150.65,353.24L148.65,352.04L144.85,348.84L144.85,346.84L143.45,347.04L139.85,346.04L138.45,347.44Z" />
		<path id="L1611207468212" name="铜梁区" class="qing-map-1616134749145" d="M124.0,483.6L126.2,481.4L128.6,479.8L130.8,476.6L132.4,474.0L135.4,471.6L136.8,468.4L137.4,466.6L139.6,467.6L140.8,465.0L143.0,461.4L145.4,457.6L143.8,456.2L143.2,453.6L141.2,454.2L140.0,453.6L139.8,450.2L138.4,448.8L136.8,447.8L135.2,448.2L133.6,448.2L131.6,448.6L127.8,446.8L125.6,447.0L126.0,445.8L124.8,444.8L123.4,446.4L124.2,447.6L122.0,450.2L120.4,452.4L115.0,452.2L114.2,451.4L113.6,449.6L112.4,450.2L111.6,449.0L111.4,447.2L110.45,446.8L108.0,444.6L107.0,442.8L108.6,440.4L111.4,439.4L111.6,437.6L113.4,435.6L114.2,430.8L115.8,431.8L117.4,428.8L119.0,428.6L120.2,429.8L123.4,429.8L126.4,431.4L126.8,433.2L128.2,433.8L129.8,432.6L129.0,431.8L130.6,429.8L132.0,429.0L132.4,426.4L130.4,423.0L131.4,421.6L130.2,418.6L129.2,418.4L128.4,417.0L127.0,417.2L126.4,414.0L127.4,412.4L123.2,409.6L121.0,410.2L120.6,408.2L121.4,406.8L121.0,405.4L121.0,403.0L123.0,402.4L125.2,403.0L125.4,398.4L125.2,396.8L126.4,395.0L127.6,394.6L129.8,395.6L130.0,396.8L131.0,398.2L131.0,400.0L132.6,399.8L134.2,398.0L135.2,398.0L136.8,400.2L137.45,403.02L140.05,406.22L141.65,405.62L146.85,408.62L147.45,410.42L148.45,410.82L153.25,410.22L156.05,410.42L158.05,410.82L157.45,412.42L157.85,414.42L157.25,415.42L157.05,416.42L156.65,417.42L156.25,418.62L157.05,420.42L158.65,421.22L159.25,423.42L161.25,422.82L163.45,424.42L166.85,423.42L168.85,422.22L170.05,422.64L171.65,422.44L172.65,424.24L174.85,426.04L177.25,427.84L178.45,428.04L179.65,430.04L181.05,428.84L180.65,432.64L179.25,434.04L178.45,436.24L179.25,437.24L178.26,438.64L176.76,440.84L175.46,442.54L174.76,443.44L173.06,444.94L171.06,446.54L169.56,446.94L168.26,447.74L167.16,448.84L166.46,450.04L164.56,451.34L163.76,451.84L164.66,453.34L164.26,455.04L163.86,456.54L163.86,458.44L162.96,460.54L163.96,462.14L164.76,463.74L162.86,467.84L161.36,468.04L158.26,472.14L157.26,474.34L156.66,476.34L157.16,477.24L156.26,478.64L155.86,481.04L154.76,484.34L153.96,485.94L152.76,487.14L152.96,488.24L151.56,488.34L150.46,490.04L149.46,490.44L147.76,490.34L145.96,490.94L142.86,491.34L141.56,492.44L139.66,491.84L139.16,490.54L138.96,488.94L138.26,488.84L137.26,490.14L136.26,488.94L135.06,489.84L133.76,489.64L132.46,487.74L130.46,487.54L130.56,488.64L129.26,489.34L126.76,489.54L125.76,488.34L126.06,486.14Z" />
		<path id="L1611207932634" name="永川区" class="qing-map-1616134749145" d="M90.73,533.73L87.53,532.13L85.33,527.73L86.33,526.33L87.53,526.33L88.33,524.13L88.33,522.73L88.93,521.33L89.93,521.93L91.93,520.53L94.33,519.93L96.73,517.53L98.33,517.13L99.8,515.4L102.8,517.6L105.8,515.8L106.2,514.0L106.2,511.8L107.8,509.6L110.6,507.0L112.0,502.0L113.4,495.8L115.6,491.4L118.8,489.2L121.8,489.2L121.8,486.6L124.0,483.6L126.06,486.14L125.76,488.34L126.76,489.54L129.26,489.34L130.56,488.64L130.46,487.54L132.46,487.74L133.76,489.64L135.06,489.84L136.26,488.94L137.26,490.14L138.26,488.84L138.96,488.94L139.16,490.54L139.66,491.84L141.56,492.44L142.86,491.34L145.96,490.94L147.76,490.34L149.46,490.44L150.46,490.04L151.56,488.34L152.96,488.24L152.75,490.5L151.38,494.0L151.38,496.5L151.0,500.75L150.38,502.88L150.63,505.0L149.25,509.88L149.13,513.38L149.75,514.13L149.63,516.75L148.75,518.63L147.0,520.75L147.13,523.0L146.25,525.63L145.25,528.0L145.5,531.0L145.25,533.13L144.63,536.13L144.88,537.63L143.75,539.13L142.0,540.25L140.75,543.63L139.25,544.25L138.13,546.38L137.38,547.75L135.5,549.13L135.63,550.5L135.0,551.0L134.88,554.0L133.38,555.0L133.63,556.0L130.75,559.0L130.13,560.63L127.38,562.5L127.63,563.75L126.63,564.5L127.25,567.0L128.25,567.25L128.25,570.63L125.88,571.88L124.38,572.38L123.13,574.13L122.88,575.63L119.88,576.63L119.0,578.13L119.0,580.63L119.0,583.0L118.13,584.63L116.13,585.5L114.75,586.5L114.25,588.25L114.63,590.13L111.75,590.5L110.13,591.25L108.88,589.75L109.63,588.88L110.75,589.38L111.63,588.0L110.25,587.75L108.5,584.0L105.63,583.0L105.25,580.88L104.75,579.63L105.63,578.25L104.0,576.75L104.0,575.75L102.38,573.88L102.63,572.63L103.0,571.75L104.0,569.0L101.88,567.38L101.75,565.13L99.63,563.75L100.25,561.38L99.5,560.13L100.75,559.63L102.5,558.88L102.88,558.38L102.13,557.38L100.63,558.63L100.13,558.13L100.25,555.13L97.88,550.88L96.38,551.0L96.63,548.38L96.25,546.75L97.25,543.75L96.13,542.63L96.75,540.0L95.0,537.88L95.13,535.25L94.5,532.88L95.88,532.0L98.13,531.38L97.38,530.5L95.63,530.0L93.63,531.75L92.5,534.0Z" />
		<path id="L1611208234670" name="北碚区" class="qing-map-1616134749145" d="M185.85,430.44L188.05,428.84L189.65,427.64L191.85,426.04L195.85,423.24L197.45,423.84L197.65,427.44L201.65,430.44L202.85,429.24L203.25,427.64L204.45,427.24L205.65,425.84L207.05,423.24L207.85,424.04L207.05,426.04L205.25,430.24L206.25,431.44L206.65,433.24L208.25,432.64L208.45,431.24L209.85,430.04L210.65,426.24L211.65,426.64L213.05,425.04L213.85,423.24L214.25,422.24L216.05,423.04L217.38,421.25L217.45,419.84L220.05,421.64L221.25,419.44L223.05,415.44L223.85,412.44L223.85,408.64L225.45,406.84L228.05,405.24L227.65,402.24L230.85,399.04L232.85,397.04L235.45,396.04L237.0,397.75L238.13,398.63L239.88,400.5L238.88,404.75L239.75,406.5L239.63,407.88L240.25,409.75L239.88,411.13L240.25,414.13L239.5,417.13L239.5,420.75L239.0,421.75L240.75,422.63L239.75,424.0L238.88,425.25L240.13,426.5L239.13,428.75L237.38,430.25L237.63,431.88L236.88,433.13L236.0,434.38L235.38,436.63L234.0,436.75L233.25,438.25L231.38,438.25L230.25,439.5L228.5,440.25L228.25,441.25L226.5,443.0L226.38,445.5L227.63,445.0L229.13,445.5L228.25,447.25L228.88,450.38L227.38,450.88L227.25,452.88L224.13,451.38L221.38,453.13L218.5,452.25L219.25,451.5L218.13,449.5L216.13,450.5L217.13,454.38L218.75,456.13L219.25,458.13L215.88,460.75L216.13,463.0L214.88,464.38L213.5,464.0L211.5,462.25L208.63,463.0L207.0,465.5L207.25,467.5L206.0,468.5L206.13,470.38L202.63,469.5L203.0,468.38L202.63,465.75L203.75,461.13L204.63,457.88L204.88,454.25L202.5,453.88L201.75,453.63L200.38,455.38L196.88,454.5L196.38,454.13L194.38,454.75L194.13,455.63L189.63,456.25L188.13,457.38L185.13,456.0L186.25,452.75L186.38,451.13L188.25,449.38L189.75,449.88L194.13,443.25L192.75,442.38L191.25,442.63L190.0,441.88L190.25,440.0L189.63,439.25L190.25,437.5L188.63,436.5L189.63,435.5L188.0,434.13L187.88,432.5Z" />
		<path id="L1611208456637" name="璧山区" class="qing-map-1616134749145" d="M146.25,525.63L147.13,523.0L147.0,520.75L148.75,518.63L149.63,516.75L149.75,514.13L149.13,513.38L149.25,509.88L150.63,505.0L150.38,502.88L151.0,500.75L151.38,496.5L151.38,494.0L152.75,490.5L152.96,488.24L152.76,487.14L153.96,485.94L154.76,484.34L155.86,481.04L156.26,478.64L157.16,477.24L156.66,476.34L157.26,474.34L158.26,472.14L161.36,468.04L162.86,467.84L164.76,463.74L163.96,462.14L162.96,460.54L163.86,458.44L163.86,456.54L164.26,455.04L164.66,453.34L163.76,451.84L164.56,451.34L166.46,450.04L167.16,448.84L168.26,447.74L169.56,446.94L171.06,446.54L173.06,444.94L174.76,443.44L175.46,442.54L176.76,440.84L178.26,438.64L179.25,437.24L181.65,435.04L183.45,432.84L184.65,431.44L185.85,430.44L187.88,432.5L188.0,434.13L189.63,435.5L188.63,436.5L190.25,437.5L189.63,439.25L190.25,440.0L190.0,441.88L191.25,442.63L192.75,442.38L194.13,443.25L189.75,449.88L188.25,449.38L186.38,451.13L186.25,452.75L185.13,456.0L183.75,460.88L182.38,461.25L180.88,463.5L181.0,465.88L181.75,466.25L182.38,467.75L181.0,470.0L181.13,471.13L182.13,472.25L180.38,473.63L181.25,474.88L180.25,477.0L179.0,478.0L177.75,482.25L176.88,486.0L176.75,488.5L177.13,490.38L177.13,492.63L179.0,493.88L178.38,497.0L179.0,498.5L178.38,499.63L178.63,504.0L176.5,508.13L176.25,511.5L174.88,514.75L173.5,518.0L172.88,521.25L170.63,523.38L168.0,525.75L165.88,528.13L164.0,529.5L163.25,529.5L162.38,530.88L160.13,531.0L156.38,533.0L156.13,531.0L154.25,531.25L152.63,530.5L152.25,528.63L150.25,526.25Z" />
		<path id="L1611208671077" name="沙坪坝区" class="qing-map-1616134749145" d="M177.13,490.38L176.75,488.5L176.88,486.0L177.75,482.25L179.0,478.0L180.25,477.0L181.25,474.88L180.38,473.63L182.13,472.25L181.13,471.13L181.0,470.0L182.38,467.75L181.75,466.25L181.0,465.88L180.88,463.5L182.38,461.25L183.75,460.88L185.13,456.0L188.13,457.38L189.63,456.25L194.13,455.63L194.38,454.75L196.38,454.13L196.88,454.5L200.38,455.38L201.75,453.63L202.5,453.88L204.88,454.25L204.63,457.88L203.75,461.13L202.63,465.75L203.0,468.38L202.63,469.5L206.13,470.38L206.0,468.5L207.25,467.5L209.0,469.13L209.38,470.13L208.63,471.63L206.5,474.0L206.75,475.5L208.0,476.38L208.13,477.13L206.5,480.75L208.25,482.38L210.38,485.0L212.63,486.75L211.25,488.0L211.13,489.75L207.63,490.63L205.0,497.0L200.0,497.13L200.63,489.38L199.75,489.25L198.5,488.25L196.13,490.13L195.88,488.13L194.63,488.13L192.38,485.75L190.25,486.88L189.13,488.5L187.5,488.38L184.63,489.63L183.13,489.13L182.88,490.88L180.88,490.63L178.88,491.5Z" />
		<path id="L1611208792253" name="九龙坡区" class="qing-map-1616134749145" d="M178.63,504.0L178.38,499.63L179.0,498.5L178.38,497.0L179.0,493.88L177.13,492.63L177.13,490.38L178.88,491.5L180.88,490.63L182.88,490.88L183.13,489.13L184.63,489.63L187.5,488.38L189.13,488.5L190.25,486.88L192.38,485.75L194.63,488.13L195.88,488.13L196.13,490.13L198.5,488.25L199.75,489.25L200.63,489.38L200.0,497.13L205.0,497.0L207.63,490.63L211.13,489.75L211.25,488.0L212.88,487.88L213.75,490.0L216.0,490.63L218.13,491.25L219.0,494.88L221.25,497.0L221.25,498.13L220.63,499.88L219.25,500.38L217.13,499.25L217.0,498.38L214.0,496.88L212.0,497.5L209.63,496.38L207.63,497.25L207.25,497.88L208.5,499.25L209.13,500.5L207.5,500.75L206.63,503.38L207.13,504.38L207.38,506.5L206.75,507.63L207.38,509.88L204.5,510.25L200.75,507.63L200.38,506.5L198.5,506.25L197.75,507.88L198.13,509.75L198.38,510.75L197.75,512.13L198.63,515.38L199.75,516.75L199.75,518.5L199.25,519.75L198.0,520.13L199.13,523.0L197.88,523.25L197.5,526.25L196.63,527.88L198.0,530.75L196.25,532.88L192.5,533.75L189.88,536.13L185.38,537.88L184.13,537.5L181.5,532.88L181.63,531.25L181.38,530.0L182.38,526.38L180.75,526.0L178.5,524.0L179.5,521.38L180.75,520.75L180.25,519.38L181.5,518.13L182.0,515.63L182.88,515.25L183.88,516.38L186.13,515.25L187.38,515.13L188.38,513.75L188.25,510.63L186.75,508.38L185.13,508.25L185.0,507.13L180.88,504.63Z" />
		<path id="L1611280523248" name="江津区" class="qing-map-1616134749145" d="M114.63,590.13L114.25,588.25L114.75,586.5L116.13,585.5L118.13,584.63L119.0,583.0L119.0,580.63L119.0,578.13L119.88,576.63L122.88,575.63L123.13,574.13L124.38,572.38L125.88,571.88L128.25,570.63L128.25,567.25L127.25,567.0L126.63,564.5L127.63,563.75L127.38,562.5L130.13,560.63L130.75,559.0L133.63,556.0L133.38,555.0L134.88,554.0L135.0,551.0L135.63,550.5L135.5,549.13L137.38,547.75L138.13,546.38L139.25,544.25L140.75,543.63L142.0,540.25L143.75,539.13L144.88,537.63L144.63,536.13L145.25,533.13L145.5,531.0L145.25,528.0L146.25,525.63L150.25,526.25L152.25,528.63L152.63,530.5L154.25,531.25L156.13,531.0L156.38,533.0L160.13,531.0L162.38,530.88L163.25,529.5L164.0,529.5L165.88,528.13L168.0,525.75L170.63,523.38L172.88,521.25L173.5,518.0L174.88,514.75L176.25,511.5L176.5,508.13L178.63,504.0L180.88,504.63L185.0,507.13L185.13,508.25L186.75,508.38L188.25,510.63L188.38,513.75L187.38,515.13L186.13,515.25L183.88,516.38L182.88,515.25L182.0,515.63L181.5,518.13L180.25,519.38L180.75,520.75L179.5,521.38L178.5,524.0L180.75,526.0L182.38,526.38L181.38,530.0L181.63,531.25L181.5,532.88L184.13,537.5L185.38,537.88L189.88,536.13L192.5,533.75L196.25,532.88L198.0,530.75L196.63,527.88L197.5,526.25L197.88,523.25L199.13,523.0L204.0,521.0L206.0,521.0L207.75,519.63L210.25,520.63L209.5,523.88L211.5,530.88L214.88,533.5L215.13,535.13L216.5,537.88L216.13,539.75L217.0,542.38L219.13,543.13L219.5,544.13L220.63,544.5L220.0,548.88L222.75,553.38L221.25,554.5L221.0,556.25L222.13,557.88L224.75,558.88L224.63,561.0L225.75,561.88L225.38,564.88L226.25,566.75L225.63,567.88L227.13,570.88L226.38,571.75L226.88,575.25L227.75,577.5L229.25,578.75L227.5,579.5L226.38,579.0L225.0,576.75L222.0,579.25L220.63,577.0L221.38,576.38L220.25,574.5L217.63,574.13L216.38,570.88L214.88,570.13L213.25,568.63L213.38,567.38L212.38,566.75L211.88,568.38L211.13,570.0L212.13,573.38L210.38,576.63L210.88,577.25L210.0,578.5L206.75,577.63L205.75,576.13L206.0,574.13L207.63,574.0L205.25,572.38L204.5,573.38L202.38,572.5L197.75,576.88L197.38,579.0L199.63,583.75L198.88,586.25L200.13,587.75L199.38,590.63L200.5,593.38L200.5,597.25L201.25,601.5L204.25,602.38L205.88,604.25L206.88,608.0L208.63,609.0L208.75,610.38L206.13,611.63L206.75,613.13L208.25,614.0L208.5,615.5L206.75,615.63L206.63,616.75L207.88,620.5L212.13,624.0L213.75,626.5L214.0,628.38L215.63,629.88L216.0,633.0L217.88,635.63L216.63,637.25L215.0,638.25L214.5,638.5L214.88,641.25L214.0,643.13L213.88,644.75L212.75,645.63L212.75,647.5L215.88,652.5L215.75,654.13L213.88,653.25L213.88,651.5L212.38,649.63L211.25,649.88L209.88,648.13L208.75,650.38L210.25,652.25L211.63,654.88L213.0,655.38L214.38,657.25L213.88,658.88L212.5,658.38L210.25,659.88L208.88,659.25L208.38,658.0L206.88,657.38L206.25,656.13L205.0,655.0L203.38,655.75L201.75,654.25L200.38,654.38L199.0,653.0L196.5,654.38L197.13,655.88L196.13,659.0L194.13,660.5L192.63,658.88L191.5,658.25L190.75,658.88L189.25,658.0L189.88,657.13L189.5,656.13L189.13,655.63L191.0,654.38L189.5,653.63L190.88,652.0L190.25,648.25L188.25,646.63L186.75,645.0L187.88,643.75L188.38,642.5L185.25,640.88L185.0,639.38L185.38,637.88L186.75,637.25L184.88,635.5L185.25,632.88L184.0,631.5L184.75,629.38L182.63,626.88L182.0,625.75L179.88,624.25L179.63,621.13L181.0,619.38L179.25,618.63L179.13,616.88L177.25,616.75L176.0,614.5L176.75,613.88L175.63,612.0L176.88,611.63L176.25,609.38L177.5,608.88L178.5,606.0L177.13,604.63L177.13,603.25L174.75,602.75L173.25,600.25L173.25,599.13L171.63,599.0L169.0,596.25L166.25,595.0L163.88,596.0L162.75,596.0L162.0,596.88L157.75,596.88L155.38,597.75L153.0,597.38L152.75,596.13L151.63,595.38L150.75,594.25L148.75,594.63L148.0,595.63L147.0,596.38L145.38,595.63L145.75,593.75L146.13,592.25L145.63,590.88L146.88,589.63L146.38,588.38L143.63,588.13L143.5,589.25L141.88,588.25L140.88,586.0L138.88,584.5L136.75,583.88L136.13,584.88L138.0,585.63L138.0,586.38L136.38,587.38L135.13,586.25L133.38,589.0L130.5,591.25L129.75,591.25L126.38,594.75L127.63,596.5L126.75,597.5L124.88,596.25L123.13,595.5L122.5,592.13L121.0,591.75L118.25,592.63L116.13,591.5Z" />
		<path id="L1611281604106" name="渝北区" class="qing-map-1616134749145" d="M239.25,389.64L238.25,392.5L237.65,394.64L235.45,396.04L237.0,397.75L238.13,398.63L239.88,400.5L238.88,404.75L239.75,406.5L239.63,407.88L240.25,409.75L239.88,411.13L240.25,414.13L239.5,417.13L239.5,420.75L239.0,421.75L240.75,422.63L239.75,424.0L238.88,425.25L240.13,426.5L239.13,428.75L237.38,430.25L237.63,431.88L236.88,433.13L236.0,434.38L235.38,436.63L234.0,436.75L233.25,438.25L231.38,438.25L230.25,439.5L228.5,440.25L228.25,441.25L226.5,443.0L226.38,445.5L227.63,445.0L229.13,445.5L228.25,447.25L228.88,450.38L227.38,450.88L227.25,452.88L224.13,451.38L221.38,453.13L218.5,452.25L219.25,451.5L218.13,449.5L216.13,450.5L217.13,454.38L218.75,456.13L219.25,458.13L215.88,460.75L216.13,463.0L214.88,464.38L213.5,464.0L211.5,462.25L208.63,463.0L207.0,465.5L207.25,467.5L209.0,469.13L209.38,470.13L208.63,471.63L206.5,474.0L206.75,475.5L208.0,476.38L208.13,477.13L211.5,477.5L212.38,478.75L211.75,479.38L211.5,481.63L213.38,483.63L216.63,482.75L217.75,481.25L220.5,482.0L222.75,480.5L223.0,478.0L223.75,477.0L225.5,475.5L225.88,473.38L228.0,472.5L231.38,472.25L235.0,473.13L235.88,472.63L237.38,473.13L238.13,474.0L240.13,474.25L241.5,475.13L244.5,473.75L245.13,471.25L246.63,472.13L247.88,470.88L248.38,467.63L250.75,468.5L251.38,470.38L254.38,469.13L255.88,467.63L256.0,466.13L257.75,465.63L258.63,466.75L260.63,466.5L260.88,468.13L265.0,468.88L267.38,470.63L269.13,468.88L271.88,469.38L273.38,465.75L274.88,464.63L277.0,463.88L279.13,460.38L279.13,458.13L283.38,451.25L281.75,449.13L280.5,447.63L279.38,447.5L279.75,445.5L278.38,443.88L279.5,440.0L278.88,438.25L278.25,437.63L278.25,436.38L279.5,435.25L279.5,432.88L280.5,430.88L282.75,426.13L285.0,422.13L283.38,421.38L282.38,419.0L279.75,418.5L279.0,417.13L277.63,417.13L277.25,415.13L275.5,415.0L274.13,415.63L271.75,414.0L271.25,413.0L269.88,413.13L269.0,414.25L267.88,413.38L267.5,408.88L266.38,408.38L266.75,406.38L266.75,404.63L263.75,402.63L261.88,405.25L259.75,405.25L257.75,405.88L255.88,407.88L253.38,406.5L251.0,407.38L249.25,406.38L247.38,406.13L246.5,404.5L246.25,403.0L247.25,401.38L245.13,399.13L243.63,398.75L242.88,397.25L243.38,394.75L242.75,394.13L243.38,391.38L241.75,390.75L241.88,389.38Z" />
		<path id="L1611281846216" name="江北区" class="qing-map-1616134749145" d="M212.63,486.75L210.38,485.0L208.25,482.38L206.5,480.75L208.13,477.13L211.5,477.5L212.38,478.75L211.75,479.38L211.5,481.63L213.38,483.63L216.63,482.75L217.75,481.25L220.5,482.0L223.0,480.0L223.0,478.0L223.75,477.0L225.5,475.5L225.88,473.38L228.0,472.5L231.38,472.25L235.0,473.13L235.88,472.63L237.38,473.13L238.13,474.0L240.13,474.25L241.5,475.13L244.5,473.75L245.13,471.25L246.63,472.13L247.88,470.88L248.38,467.63L250.75,468.5L251.38,470.38L254.38,469.13L255.88,467.63L256.0,466.13L257.75,465.63L258.63,466.75L260.63,466.5L260.88,468.13L265.0,468.88L267.38,470.63L269.13,468.88L271.88,469.38L269.0,475.88L266.75,478.75L265.38,482.88L261.0,480.38L259.13,481.0L257.75,480.75L256.75,478.13L253.0,477.13L250.5,477.38L249.13,480.5L247.38,481.88L244.63,482.63L242.38,484.63L240.0,485.38L237.0,480.25L234.88,480.88L233.13,479.75L231.63,476.25L229.63,475.88L226.63,477.5L225.63,479.75L225.75,482.5L226.5,483.75L225.13,485.0L223.0,484.5L221.13,484.38L218.75,486.75L216.75,487.0L214.75,486.13Z" />
		<path id="L1611282320365" name="渝中区" class="qing-map-1616134749145" d="M218.13,491.25L216.0,490.63L213.75,490.0L212.88,487.88L211.25,488.0L212.63,486.75L214.75,486.13L216.75,487.0L218.75,486.75L221.13,484.38L223.0,484.5L225.13,485.0L226.5,483.75L227.13,485.88L226.0,487.25L224.5,488.38L222.63,488.75L220.13,488.88Z" />
		<path id="L1611282362774" name="南岸区" class="qing-map-1616134749145" d="M221.25,498.13L221.25,497.0L219.0,494.88L218.13,491.25L220.13,488.88L222.63,488.75L224.5,488.38L226.0,487.25L227.13,485.88L226.5,483.75L225.75,482.5L225.63,479.75L226.63,477.5L229.63,475.88L231.63,476.25L233.13,479.75L234.88,480.88L237.0,480.25L240.0,485.38L242.38,484.63L244.63,482.63L247.38,481.88L249.13,480.5L250.5,477.38L253.0,477.13L256.75,478.13L257.75,480.75L256.0,483.0L253.38,488.13L251.75,492.63L249.25,496.63L249.13,497.88L244.63,498.88L243.63,497.88L242.5,497.75L242.0,499.0L241.0,499.63L241.25,501.13L239.13,502.88L236.38,502.0L234.63,500.88L233.38,501.25L231.63,501.5L229.75,500.13L227.63,501.38L225.38,499.63L223.63,498.13Z" />
		<path id="L1611282468517" name="大渡口区" class="qing-map-1616134749145" d="M204.0,521.0L199.13,523.0L198.0,520.13L199.25,519.75L199.75,518.5L199.75,516.75L198.63,515.38L197.75,512.13L198.38,510.75L198.13,509.75L197.75,507.88L198.5,506.25L200.38,506.5L200.75,507.63L204.5,510.25L207.38,509.88L206.75,507.63L207.38,506.5L207.13,504.38L206.63,503.38L207.5,500.75L209.13,500.5L208.5,499.25L207.25,497.88L207.63,497.25L209.63,496.38L212.0,497.5L214.0,496.88L217.0,498.38L217.13,499.25L215.38,499.13L213.63,500.0L213.13,504.75L216.25,508.88L219.0,513.75L217.75,514.88L215.13,513.38L212.63,513.25L209.38,514.5L206.0,517.5Z" />
		<path id="L1611282437861" name="巴南区" class="qing-map-1616134749145" d="M224.75,558.88L222.13,557.88L221.0,556.25L221.25,554.5L222.75,553.38L220.0,548.88L220.63,544.5L219.5,544.13L219.13,543.13L217.0,542.38L216.13,539.75L216.5,537.88L215.13,535.13L214.88,533.5L211.5,530.88L209.5,523.88L210.25,520.63L207.75,519.63L206.0,521.0L204.0,521.0L206.0,517.5L209.38,514.5L212.63,513.25L215.13,513.38L217.75,514.88L219.0,513.75L216.25,508.88L213.13,504.75L213.63,500.0L215.38,499.13L217.13,499.25L219.25,500.38L220.63,499.88L221.25,498.13L223.63,498.13L225.38,499.63L227.63,501.38L229.75,500.13L231.63,501.5L233.38,501.25L234.63,500.88L236.38,502.0L239.13,502.88L241.25,501.13L241.0,499.63L242.0,499.0L242.5,497.75L243.63,497.88L244.63,498.88L249.13,497.88L249.25,496.63L251.75,492.63L253.38,488.13L256.0,483.0L257.75,480.75L259.13,481.0L261.0,480.38L265.38,482.88L266.75,478.75L269.0,475.88L271.88,469.38L273.38,465.75L274.88,464.63L277.0,463.88L279.13,460.38L279.13,458.13L283.38,451.25L285.63,450.25L286.5,452.13L286.0,453.5L287.0,456.13L287.13,458.75L287.75,459.38L286.88,463.13L285.63,467.75L285.25,469.38L284.13,472.5L283.13,476.5L282.38,479.88L281.25,481.5L280.75,485.88L280.63,490.75L279.75,493.75L279.5,496.5L279.25,498.5L277.75,501.63L277.75,504.75L278.13,505.63L277.88,509.5L277.63,512.75L276.13,512.5L275.88,527.13L276.13,528.13L276.0,532.88L277.5,533.5L278.0,534.5L278.13,537.13L280.63,537.5L281.25,538.63L281.25,541.88L283.0,543.63L281.88,546.25L280.38,546.75L280.5,548.25L279.25,549.75L275.75,550.25L274.88,548.25L273.63,547.88L272.0,548.25L272.5,550.25L273.75,550.88L274.0,553.25L272.88,554.13L271.25,557.5L269.75,556.0L265.13,553.88L261.75,555.5L260.63,554.63L259.75,552.5L259.75,550.88L258.13,550.0L255.75,550.75L254.5,553.13L253.5,553.38L253.0,551.88L251.75,552.0L250.63,550.75L247.63,553.0L245.13,550.38L243.63,550.5L241.5,549.0L240.63,550.88L239.75,550.75L238.75,553.13L236.5,553.25L236.5,551.38L235.13,551.13L231.88,554.0L230.88,555.5L231.13,557.0L230.38,558.25L227.38,559.0L225.75,558.25Z" />
		<path id="L1611282987820" name="綦江区" class="qing-map-1616134749145" d="M208.63,609.0L206.88,608.0L205.88,604.25L204.25,602.38L201.25,601.5L200.5,597.25L200.5,593.38L199.38,590.63L200.13,587.75L198.88,586.25L199.63,583.75L197.38,579.0L197.75,576.88L202.38,572.5L204.5,573.38L205.25,572.38L207.63,574.0L206.0,574.13L205.75,576.13L206.75,577.63L210.0,578.5L210.88,577.25L210.38,576.63L212.13,573.38L211.13,570.0L211.88,568.38L212.38,566.75L213.38,567.38L213.25,568.63L214.88,570.13L216.38,570.88L217.63,574.13L220.25,574.5L221.38,576.38L220.63,577.0L222.0,579.25L225.0,576.75L226.38,579.0L227.5,579.5L229.25,578.75L227.75,577.5L226.88,575.25L226.38,571.75L227.13,570.88L225.63,567.88L226.25,566.75L225.38,564.88L225.75,561.88L224.63,561.0L224.75,558.88L225.75,558.25L227.38,559.0L230.38,558.25L231.13,557.0L230.88,555.5L231.88,554.0L235.13,551.13L236.5,551.38L236.5,553.25L238.75,553.13L239.75,550.75L240.63,550.88L241.5,549.0L243.63,550.5L245.13,550.38L247.63,553.0L250.63,550.75L251.75,552.0L253.0,551.88L253.5,553.38L254.5,553.13L255.75,550.75L258.13,550.0L259.75,550.88L259.75,552.5L260.63,554.63L261.75,555.5L265.13,553.88L269.75,556.0L271.25,557.5L273.5,560.88L274.88,561.38L275.75,563.5L273.63,570.88L274.88,571.5L275.75,572.63L277.63,573.13L279.13,571.75L279.63,569.0L280.5,570.38L282.38,570.75L283.88,571.88L285.0,571.5L285.75,573.0L284.75,573.75L284.75,575.25L286.25,577.25L287.5,577.5L289.88,580.63L290.88,580.88L291.63,582.5L291.0,584.88L289.5,585.75L289.75,588.5L291.88,590.5L293.75,589.75L295.88,591.5L295.63,594.25L294.63,594.88L295.88,598.5L294.5,600.25L294.25,601.63L295.38,603.0L293.0,603.5L293.0,600.75L290.25,600.38L289.88,603.75L287.75,605.13L285.0,605.88L285.75,609.5L284.88,612.13L284.75,613.5L286.63,619.0L284.38,619.38L283.25,618.5L280.88,620.13L280.13,618.38L278.75,617.5L277.75,614.88L276.25,612.75L272.88,614.88L271.63,614.63L269.25,616.5L269.0,617.13L267.5,619.0L266.75,617.88L265.13,618.13L263.75,617.63L260.75,621.88L262.0,624.0L262.25,625.38L263.13,625.38L265.38,626.75L267.13,629.88L265.75,631.13L266.63,632.75L268.63,632.25L270.13,633.38L267.75,639.0L267.63,643.63L262.25,644.38L262.38,646.38L261.63,648.0L260.38,648.63L259.63,649.75L257.5,648.63L256.0,645.13L254.63,644.38L254.25,646.0L251.75,646.13L252.25,650.75L255.0,652.75L255.0,654.5L252.13,655.5L248.5,656.0L246.88,659.0L246.63,661.88L249.5,666.25L249.63,670.25L247.5,671.13L246.88,672.63L245.38,672.25L244.75,673.0L242.0,672.0L242.5,669.63L241.38,667.63L239.5,668.38L238.13,667.63L235.38,668.63L233.25,666.75L233.13,664.63L231.13,664.5L230.0,664.88L227.38,663.0L226.13,663.88L226.88,665.38L226.88,666.63L225.13,667.13L224.13,667.5L223.0,665.38L223.38,663.88L222.75,663.13L222.88,661.63L223.5,660.75L226.88,660.88L228.38,658.13L230.5,656.38L230.75,653.38L229.13,649.5L229.88,647.0L231.75,647.38L233.13,646.88L233.38,644.38L233.0,643.25L231.63,642.13L230.63,641.63L230.75,640.5L231.5,640.13L232.88,640.88L234.75,640.63L235.5,639.5L235.13,637.25L234.63,637.13L233.13,638.38L231.0,637.25L230.0,634.88L231.0,633.75L230.75,632.75L229.25,634.13L227.88,632.88L227.13,633.25L225.25,630.75L223.25,628.88L222.38,627.25L222.38,624.75L222.88,623.0L222.88,621.88L220.75,619.5L219.63,619.75L218.5,619.0L218.25,617.75L217.0,617.5L216.38,615.5L214.38,615.0L212.5,613.5L210.13,610.0L209.75,608.63Z" />
		<path id="L1611283654017" name="长寿区" class="qing-map-1616134749145" d="M266.75,406.38L266.38,408.38L267.5,408.88L267.88,413.38L269.0,414.25L269.88,413.13L271.25,413.0L271.75,414.0L274.13,415.63L275.5,415.0L277.25,415.13L277.63,417.13L279.0,417.13L279.75,418.5L282.38,419.0L283.38,421.38L285.0,422.13L282.75,426.13L280.5,430.88L279.5,432.88L279.5,435.25L278.25,436.38L278.25,437.63L278.88,438.25L279.5,440.0L278.38,443.88L279.75,445.5L279.38,447.5L280.5,447.63L281.75,449.13L283.38,451.25L285.63,450.25L286.5,452.13L286.0,453.5L287.0,456.13L287.13,458.75L287.75,459.38L289.75,459.63L291.63,459.13L293.0,456.75L293.88,455.88L295.38,455.63L296.13,454.13L297.63,453.5L297.75,452.0L300.0,451.5L302.5,452.63L304.25,451.13L309.75,447.5L310.75,447.75L314.63,446.0L316.75,443.0L318.5,442.13L318.0,440.88L318.5,437.88L321.0,437.25L322.63,438.0L323.75,436.88L325.0,437.13L327.5,436.75L328.0,438.75L331.13,438.25L331.63,436.88L333.38,437.13L335.13,435.88L336.0,433.75L337.5,432.13L336.88,430.63L338.13,428.88L340.25,428.88L342.13,426.38L343.0,425.88L344.38,424.63L344.0,423.13L348.63,416.0L349.5,416.13L354.13,410.75L353.88,409.5L355.13,408.5L351.5,405.0L343.25,414.63L339.13,414.13L337.63,415.25L335.25,415.5L332.0,411.5L331.0,411.13L331.38,410.0L333.0,410.0L332.25,408.38L333.13,407.25L332.63,405.13L331.0,403.38L328.38,403.5L328.38,402.38L326.25,401.5L326.25,400.0L324.5,399.13L324.5,397.75L327.13,396.75L327.0,395.75L327.63,395.0L329.25,395.0L330.5,394.38L329.25,392.63L330.75,390.38L330.38,387.88L327.25,387.38L326.88,386.25L329.75,381.75L329.63,380.5L327.88,379.75L325.5,376.38L325.0,375.88L320.88,373.13L317.88,376.88L316.38,377.5L316.38,378.75L313.13,381.13L312.63,382.13L310.88,384.75L308.63,386.75L307.5,388.88L305.0,391.25L303.63,391.0L302.88,391.63L303.63,393.5L301.0,394.88L299.63,394.88L298.0,396.88L298.25,398.13L299.63,399.5L299.0,401.25L295.38,403.88L295.0,402.13L293.25,401.25L292.63,402.75L293.38,404.5L291.5,405.13L290.13,404.13L289.75,402.25L288.5,402.25L286.75,400.88L285.5,397.13L284.13,396.5L281.5,398.0L281.0,401.13L280.0,402.63L277.38,403.88L276.25,404.63L274.63,404.63L274.63,406.63L272.38,405.13L270.5,404.88Z" />
		<path id="L1611283937631" name="涪陵区" class="qing-map-1616134749145" d="M279.5,496.5L279.75,493.75L280.63,490.75L280.75,485.88L281.25,481.5L282.38,479.88L283.13,476.5L284.13,472.5L285.25,469.38L285.63,467.75L286.88,463.13L287.75,459.38L289.75,459.63L291.63,459.13L293.0,456.75L293.88,455.88L295.38,455.63L296.13,454.13L297.63,453.5L297.75,452.0L300.0,451.5L302.5,452.63L304.25,451.13L309.75,447.5L310.75,447.75L314.63,446.0L316.75,443.0L318.5,442.13L318.0,440.88L318.5,437.88L321.0,437.25L322.63,438.0L323.75,436.88L325.0,437.13L327.5,436.75L328.0,438.75L331.13,438.25L331.63,436.88L333.38,437.13L335.13,435.88L336.0,433.75L337.5,432.13L336.88,430.63L338.13,428.88L340.25,428.88L342.13,426.38L343.0,425.88L344.38,424.63L344.0,423.13L348.63,416.0L349.5,416.13L354.13,410.75L356.5,411.5L357.13,412.75L359.5,416.13L360.5,415.5L361.0,416.75L362.0,418.13L363.38,417.63L364.25,415.13L366.0,416.0L367.88,416.5L368.13,417.63L370.13,419.63L372.25,419.13L372.75,421.0L372.13,421.75L372.88,423.63L374.88,424.5L376.0,426.13L376.5,428.25L375.75,429.75L377.63,431.5L379.88,432.13L378.5,433.88L377.63,435.63L376.5,435.88L376.5,437.38L375.25,438.25L376.63,439.63L376.75,443.25L378.75,444.25L380.75,442.5L381.63,443.38L381.5,449.63L380.63,453.0L381.63,455.63L380.63,461.5L382.38,463.75L384.13,464.0L386.5,466.25L386.75,467.63L388.5,467.38L390.13,468.63L393.25,469.5L391.0,474.63L391.0,476.63L390.5,477.5L388.0,480.0L384.13,485.13L383.63,487.0L380.38,489.25L377.13,490.38L377.25,492.5L378.75,494.5L379.0,498.75L377.5,499.38L375.38,499.25L372.5,502.13L372.25,503.88L370.0,503.88L369.0,504.88L368.38,507.38L366.63,508.63L364.63,506.38L363.38,503.25L360.38,499.38L358.5,497.38L357.38,495.13L356.25,495.13L353.88,497.63L350.88,498.38L350.13,496.38L350.0,494.63L348.13,493.38L346.5,491.63L344.75,490.63L343.38,491.88L341.38,492.0L340.63,493.13L338.88,493.38L335.88,494.38L335.13,496.38L333.5,498.0L333.75,499.5L332.25,502.0L330.25,504.13L328.25,506.0L326.38,506.5L325.63,508.13L323.75,508.38L321.25,509.5L321.0,511.75L322.5,513.63L323.25,516.13L323.0,518.25L322.25,518.88L320.63,518.13L318.25,518.63L318.0,515.63L319.0,513.5L316.63,513.38L317.25,511.13L314.88,510.5L312.88,511.5L312.13,509.63L311.13,508.75L310.25,510.0L309.38,509.75L307.75,510.88L308.88,512.0L308.25,514.0L307.0,513.63L305.75,515.0L303.88,514.38L303.63,516.13L304.13,518.38L302.25,519.38L300.0,519.75L298.13,519.25L297.75,518.13L294.13,516.63L294.75,515.0L294.75,514.0L292.75,514.13L291.13,513.13L291.75,512.38L291.5,508.88L291.0,506.13L292.13,504.25L291.88,501.25L289.88,500.63L290.0,497.63L288.88,498.25L288.38,500.63L287.0,499.25L283.88,497.75L282.75,497.75Z" />
		<path id="L1611284327862" name="南川区" class="qing-map-1616134749145" d="M295.88,598.5L294.63,594.88L295.63,594.25L295.88,591.5L293.75,589.75L291.88,590.5L289.75,588.5L289.5,585.75L291.0,584.88L291.63,582.5L290.88,580.88L289.88,580.63L287.5,577.5L286.25,577.25L284.75,575.25L284.75,573.75L285.75,573.0L285.0,571.5L283.88,571.88L282.38,570.75L280.5,570.38L279.63,569.0L279.13,571.75L277.63,573.13L275.75,572.63L274.88,571.5L273.63,570.88L275.75,563.5L274.88,561.38L273.5,560.88L271.25,557.5L272.88,554.13L274.0,553.25L273.75,550.88L272.5,550.25L272.0,548.25L273.63,547.88L274.88,548.25L275.75,550.25L279.25,549.75L280.5,548.25L280.38,546.75L281.88,546.25L283.0,543.63L281.25,541.88L281.25,538.63L280.63,537.5L278.13,537.13L278.0,534.5L277.5,533.5L276.0,532.88L276.13,528.13L275.88,527.13L276.13,512.5L277.63,512.75L277.88,509.5L278.13,505.63L277.75,504.75L277.75,501.63L279.25,498.5L279.5,496.5L282.75,497.75L283.88,497.75L287.0,499.25L288.38,500.63L288.88,498.25L290.0,497.63L289.88,500.63L291.88,501.25L292.13,504.25L291.0,506.13L291.5,508.88L291.75,512.38L291.13,513.13L292.75,514.13L294.75,514.0L294.75,515.0L294.13,516.63L297.75,518.13L298.13,519.25L300.0,519.75L302.25,519.38L304.13,518.38L303.63,516.13L303.88,514.38L305.75,515.0L307.0,513.63L308.25,514.0L308.88,512.0L307.75,510.88L309.38,509.75L310.25,510.0L311.13,508.75L312.13,509.63L312.88,511.5L314.88,510.5L317.25,511.13L316.63,513.38L319.0,513.5L318.0,515.63L318.25,518.63L320.63,518.13L322.25,518.88L323.0,518.25L323.25,516.13L325.63,515.75L327.75,517.88L327.75,520.0L330.38,521.13L331.38,521.13L332.88,521.88L334.0,521.63L335.38,523.0L338.0,523.0L339.13,521.75L341.75,523.0L345.0,525.0L343.63,529.63L345.0,531.88L344.88,533.0L347.0,533.0L349.5,534.25L348.63,536.25L346.38,538.63L346.63,542.38L346.75,543.75L345.63,545.25L346.13,548.38L346.63,549.38L347.0,551.75L348.13,553.38L347.5,556.5L348.0,557.63L349.13,557.63L350.5,558.88L348.38,564.5L346.0,564.88L343.38,564.25L342.0,565.88L342.88,567.13L342.63,570.63L344.5,570.63L345.63,574.13L343.75,575.75L341.13,579.0L342.25,581.5L345.63,581.5L347.0,584.38L346.25,585.38L347.5,587.13L349.88,588.38L351.75,588.38L352.25,589.88L349.5,593.0L348.25,595.5L348.25,597.38L348.88,599.38L347.25,599.75L345.75,601.25L345.5,603.88L344.13,605.5L341.88,606.88L340.13,606.5L338.88,606.75L336.25,606.63L336.75,608.25L338.25,609.25L336.25,611.75L336.5,612.88L333.13,613.25L331.63,613.13L329.88,614.5L328.25,614.75L326.38,615.88L325.0,615.75L324.75,619.75L324.0,620.75L319.88,619.13L319.5,616.13L318.88,614.88L318.5,611.88L319.25,609.25L318.38,608.25L315.5,608.13L316.0,605.5L317.13,603.25L315.38,601.25L315.5,600.25L314.88,599.13L312.88,600.38L310.25,600.13L309.88,601.75L308.38,601.0L308.38,599.88L304.63,599.13L301.38,599.13L300.0,602.13L297.38,603.0L296.38,603.0L296.75,601.25L298.0,601.0L297.38,598.38Z" />
		<path id="L1611298326930" name="武隆区" class="qing-map-1616134749145" d="M346.63,549.38L346.13,548.38L345.63,545.25L346.75,543.75L346.63,542.38L346.38,538.63L348.63,536.25L349.5,534.25L347.0,533.0L344.88,533.0L345.0,531.88L343.63,529.63L345.0,525.0L341.75,523.0L339.13,521.75L338.0,523.0L335.38,523.0L334.0,521.63L332.88,521.88L331.38,521.13L330.38,521.13L327.75,520.0L327.75,517.88L325.63,515.75L323.25,516.13L322.5,513.63L321.0,511.75L321.25,509.5L323.75,508.38L325.63,508.13L326.38,506.5L328.25,506.0L330.25,504.13L332.25,502.0L333.75,499.5L333.5,498.0L335.13,496.38L335.88,494.38L338.88,493.38L340.63,493.13L341.38,492.0L343.38,491.88L344.75,490.63L346.5,491.63L348.13,493.38L350.0,494.63L350.13,496.38L350.88,498.38L353.88,497.63L356.25,495.13L357.38,495.13L358.5,497.38L360.38,499.38L363.38,503.25L364.63,506.38L366.63,508.63L368.38,507.38L369.0,504.88L370.0,503.88L372.25,503.88L372.5,502.13L375.38,499.25L377.5,499.38L379.0,498.75L378.75,494.5L377.25,492.5L377.13,490.38L380.38,489.25L383.63,487.0L384.13,485.13L388.0,480.0L390.5,477.5L391.0,476.63L393.0,479.38L395.25,481.25L399.13,478.5L401.0,480.13L401.13,481.63L402.38,481.63L402.5,482.88L404.5,484.13L405.88,485.25L407.13,487.13L410.63,485.88L410.88,484.75L411.25,483.88L410.25,482.25L410.0,479.75L411.5,477.25L412.13,474.5L411.63,470.13L413.25,467.63L416.0,467.38L418.13,468.0L419.75,468.5L421.0,468.38L423.38,469.5L424.75,469.5L427.25,474.63L427.25,477.75L427.88,478.5L430.13,475.63L432.0,474.13L434.63,474.38L437.75,475.63L441.63,475.38L443.13,475.38L445.25,476.75L447.38,479.63L446.63,482.0L444.75,482.75L444.75,484.13L446.13,486.13L445.75,487.25L443.5,490.5L440.38,493.0L437.5,495.13L437.5,498.5L437.0,499.88L437.25,502.0L436.88,504.38L435.63,505.25L435.38,506.75L435.63,507.88L433.5,509.63L433.75,512.25L433.75,513.63L433.5,515.75L431.63,518.0L431.75,519.25L432.38,520.75L432.63,523.5L433.88,525.38L435.38,527.13L434.88,530.38L434.63,532.13L434.88,533.88L434.5,536.38L436.25,538.38L436.25,540.63L434.25,540.75L433.25,543.0L432.5,544.25L431.13,545.25L430.75,547.13L429.0,548.88L426.88,550.13L425.0,549.0L422.0,548.38L420.75,549.38L420.38,551.5L419.75,554.13L418.88,557.88L419.38,559.13L419.38,560.38L418.25,562.0L417.75,562.63L418.5,565.88L417.63,567.25L416.13,567.88L416.0,569.0L416.63,570.88L415.0,571.88L413.63,573.63L410.75,573.88L408.88,575.25L406.13,573.5L403.5,573.0L402.75,572.63L403.0,571.88L403.75,568.5L403.88,566.0L404.5,563.88L406.0,559.75L406.88,557.13L404.38,555.75L402.75,553.75L401.25,553.25L399.25,548.25L398.13,546.88L396.5,548.75L394.25,549.75L394.63,551.13L392.88,553.13L391.88,553.13L390.25,556.75L385.75,556.0L384.25,553.75L381.13,553.63L379.63,551.88L376.13,553.75L376.5,554.88L375.38,556.25L374.0,555.13L373.63,552.88L371.88,548.38L372.0,545.38L371.0,543.5L370.0,543.13L368.5,544.13L368.13,545.38L365.63,547.38L363.25,547.75L359.63,551.13L357.75,551.0L356.75,551.75L355.25,550.38L355.75,548.13L352.63,546.13L350.38,548.5L347.88,548.5Z" />
		<path id="L1611299262533" name="垫江县" class="qing-map-1616134749145" d="M320.88,373.13L325.0,375.88L325.5,376.38L327.88,379.75L329.63,380.5L329.75,381.75L326.88,386.25L327.25,387.38L330.38,387.88L330.75,390.38L329.25,392.63L330.5,394.38L329.25,395.0L327.63,395.0L327.0,395.75L327.13,396.75L324.5,397.75L324.5,399.13L326.25,400.0L326.25,401.5L328.38,402.38L328.38,403.5L331.0,403.38L332.63,405.13L333.13,407.25L332.25,408.38L333.0,410.0L331.38,410.0L331.0,411.13L332.0,411.5L335.25,415.5L337.63,415.25L339.13,414.13L343.25,414.63L351.5,405.0L355.13,408.5L353.88,409.5L354.13,410.75L356.5,411.5L357.13,412.75L358.75,412.13L358.75,411.13L359.75,410.25L359.75,408.5L365.38,400.88L366.75,399.5L366.88,398.75L365.0,396.88L366.75,395.38L369.5,394.13L369.63,391.63L371.38,390.25L372.63,390.63L372.75,388.0L371.63,387.13L371.25,382.38L373.13,381.0L375.25,380.25L376.5,378.88L375.25,377.13L373.5,376.5L373.63,375.25L372.25,373.0L370.88,373.38L371.63,375.0L370.0,376.88L368.13,377.13L367.63,372.25L369.13,371.5L369.13,370.38L369.75,369.25L372.13,369.25L371.88,367.0L371.0,365.38L371.88,364.0L374.0,364.0L373.13,361.75L375.13,360.38L375.75,357.5L371.63,355.5L371.75,354.25L375.0,351.25L375.38,349.38L378.88,345.38L380.5,342.75L382.88,341.5L385.0,338.88L384.25,337.13L386.38,333.88L386.25,331.63L384.75,330.63L381.13,330.0L381.25,328.38L377.88,328.75L375.0,329.63L371.63,329.38L370.13,327.38L369.13,327.0L368.75,325.0L367.5,325.63L366.13,325.25L364.63,327.0L363.38,327.13L362.63,326.13L360.13,326.63L357.88,329.25L356.25,328.63L353.38,326.38L347.63,322.5L345.25,325.0L342.88,328.88L341.88,330.63L340.38,331.63L339.88,333.88L338.88,337.0L337.88,338.5L338.38,339.13L337.75,340.25L338.0,341.63L337.88,343.0L337.25,344.63L336.25,346.75L334.5,348.13L333.38,349.38L332.0,350.5L330.63,352.0L328.25,356.75L325.88,361.88L325.88,363.25L324.75,365.75L323.13,368.88L322.0,371.0Z" />
		<path id="L1611299507618" name="忠县" class="qing-map-1616134749145" d="M375.25,377.13L373.5,376.5L373.63,375.25L372.25,373.0L370.88,373.38L371.63,375.0L370.0,376.88L368.13,377.13L367.63,372.25L369.13,371.5L369.13,370.38L369.75,369.25L372.13,369.25L371.88,367.0L371.0,365.38L371.88,364.0L374.0,364.0L373.13,361.75L375.13,360.38L375.75,357.5L371.63,355.5L371.75,354.25L375.0,351.25L375.38,349.38L378.88,345.38L380.5,342.75L382.88,341.5L385.0,338.88L389.63,332.0L393.13,328.0L393.5,326.63L394.5,325.88L397.13,321.75L399.13,323.25L400.5,322.88L402.13,324.38L402.25,326.13L404.63,327.63L404.75,328.88L406.25,330.13L407.88,330.0L407.25,328.38L408.0,325.63L408.25,323.5L407.75,321.75L407.88,320.13L409.75,317.75L409.13,315.63L410.13,315.25L411.5,315.38L414.0,315.38L415.88,317.0L417.75,316.88L418.25,320.63L418.13,323.25L419.75,324.88L421.13,324.63L422.5,326.13L423.5,326.25L425.0,327.5L428.38,322.0L428.88,319.88L430.5,321.5L432.38,320.25L433.25,318.63L435.25,318.25L439.25,314.75L440.0,312.5L443.0,313.0L446.13,311.5L447.75,312.88L449.75,311.88L450.63,309.25L453.38,310.5L453.38,312.0L452.5,312.0L453.38,314.25L455.75,314.0L457.13,316.75L457.25,319.13L458.5,318.38L460.0,318.75L459.13,321.13L460.63,323.63L462.25,322.25L463.5,322.88L469.0,329.5L469.0,333.0L470.5,335.0L467.75,338.63L465.63,340.75L461.88,339.75L457.38,343.63L455.25,347.13L454.0,349.25L450.0,349.63L448.13,350.13L447.38,352.0L449.25,352.25L451.88,354.5L453.63,354.13L456.75,353.88L458.88,355.38L457.63,358.25L456.25,359.75L454.0,359.5L454.5,361.25L453.75,362.63L455.75,364.0L456.0,365.38L453.75,367.5L454.13,369.38L451.63,368.13L450.13,369.13L448.63,368.38L449.38,370.63L450.25,371.5L450.25,373.0L451.0,373.25L452.63,372.13L453.75,372.5L452.75,374.63L453.88,375.38L452.38,376.75L450.5,375.75L448.5,378.75L448.38,380.0L445.63,380.88L445.13,383.5L448.38,389.0L448.25,390.25L443.13,398.38L440.25,399.38L439.25,398.75L439.75,397.0L439.13,396.0L438.0,397.75L436.5,398.63L436.13,400.5L432.75,402.88L430.13,401.63L428.0,399.75L425.63,399.13L421.38,393.0L421.13,392.0L419.38,390.5L416.63,393.88L414.88,392.75L414.38,391.5L413.25,391.38L412.25,390.38L410.25,392.25L408.25,392.0L407.25,390.38L407.88,388.5L411.25,384.75L412.25,383.13L410.88,381.88L407.38,380.75L406.13,378.88L403.75,378.88L402.25,377.25L400.38,377.0L399.38,375.5L399.25,374.0L400.63,372.13L400.88,370.88L398.88,369.88L397.0,370.63L396.75,372.38L395.75,373.0L394.75,371.5L392.13,372.25L389.75,370.88L388.0,372.13L386.13,372.25L385.63,370.88L386.63,369.88L386.88,367.88L384.25,366.38L383.88,369.25L382.25,370.13L382.25,371.75L381.13,373.0L380.75,374.63L379.63,375.63L378.63,376.0L377.25,375.13L376.38,376.75Z" />
		<path id="L1611305882640" name="梁平区" class="qing-map-1616134749145" d="M347.63,322.5L353.38,326.38L356.25,328.63L357.88,329.25L360.13,326.63L362.63,326.13L363.38,327.13L364.63,327.0L366.13,325.25L367.5,325.63L368.75,325.0L369.13,327.0L370.13,327.38L371.63,329.38L375.0,329.63L377.88,328.75L381.25,328.38L381.13,330.0L384.75,330.63L386.25,331.63L386.38,333.88L384.25,337.13L385.0,338.88L389.63,332.0L393.13,328.0L393.5,326.63L394.5,325.88L397.13,321.75L399.13,323.25L400.5,322.88L402.13,324.38L402.25,326.13L404.63,327.63L404.75,328.88L406.25,330.13L407.88,330.0L407.25,328.38L408.0,325.63L408.25,323.5L407.75,321.75L407.88,320.13L409.75,317.75L409.13,315.63L410.13,315.25L411.5,315.38L414.0,315.38L415.88,317.0L417.75,316.88L418.25,320.63L418.13,323.25L419.75,324.88L421.13,324.63L422.5,326.13L423.5,326.25L425.0,327.5L428.38,322.0L428.88,319.88L430.5,321.5L432.38,320.25L433.25,318.63L435.25,318.25L439.25,314.75L440.0,312.5L438.88,310.5L439.88,309.75L438.5,307.13L437.0,302.5L438.0,302.0L438.63,300.13L441.25,297.5L443.38,297.75L444.88,297.75L446.63,296.0L446.0,291.38L447.25,288.38L445.0,287.25L442.0,287.13L438.75,289.0L435.63,289.63L432.5,288.25L428.88,288.0L425.75,284.25L422.38,280.5L420.75,279.63L420.75,277.38L418.75,273.88L416.88,271.38L413.38,274.63L411.5,274.75L408.75,273.5L407.75,273.13L403.88,270.5L400.88,271.0L398.75,267.63L398.13,266.38L399.25,264.25L399.0,262.88L397.88,262.38L397.88,261.25L397.13,259.88L395.63,259.13L393.0,258.88L391.5,261.5L389.25,261.38L384.5,267.75L384.5,269.0L383.13,269.25L381.0,271.63L379.0,269.75L378.13,267.5L375.75,267.75L373.38,267.0L372.63,265.5L369.5,265.5L366.5,265.75L365.38,267.0L363.75,264.88L363.38,264.38L361.88,265.88L360.63,265.63L358.63,267.13L360.0,268.75L359.63,269.75L360.63,272.13L359.38,273.5L358.0,273.75L357.13,276.0L355.63,276.38L356.13,278.0L354.38,278.38L353.63,277.38L352.63,277.75L353.38,279.25L352.0,280.75L352.88,282.75L350.25,283.25L349.63,284.25L350.88,285.63L351.63,287.5L353.25,289.25L353.38,290.63L355.0,290.63L355.38,292.88L355.0,293.88L356.13,294.5L358.0,296.88L360.13,297.0L363.25,300.5L359.88,305.25L359.75,307.13L357.25,310.38L356.0,310.63L355.63,311.63L355.25,313.0L354.25,313.5L351.25,316.38L350.5,316.5L352.5,319.5L351.38,321.5Z" />
		<path id="L1611306171416" name="万州区" class="qing-map-1616134749145" d="M416.88,271.38L418.75,273.88L420.75,277.38L420.75,279.63L422.38,280.5L425.75,284.25L428.88,288.0L432.5,288.25L435.63,289.63L438.75,289.0L442.0,287.13L445.0,287.25L447.25,288.38L446.0,291.38L446.63,296.0L444.88,297.75L443.38,297.75L441.25,297.5L438.63,300.13L438.0,302.0L437.0,302.5L438.5,307.13L439.88,309.75L438.88,310.5L440.0,312.5L443.0,313.0L446.13,311.5L447.75,312.88L449.75,311.88L450.63,309.25L453.38,310.5L453.38,312.0L452.5,312.0L453.38,314.25L455.75,314.0L457.13,316.75L457.25,319.13L458.5,318.38L460.0,318.75L459.13,321.13L460.63,323.63L462.25,322.25L463.5,322.88L469.0,329.5L469.0,333.0L470.5,335.0L467.75,338.63L469.75,340.5L472.0,341.63L473.13,344.0L475.38,341.5L476.63,341.63L478.0,342.38L481.5,338.13L481.63,336.63L483.88,334.38L484.88,330.75L491.25,318.88L492.63,319.38L494.5,317.0L495.63,317.88L495.13,319.88L494.38,320.38L493.5,321.38L494.38,322.0L495.5,322.5L495.75,324.0L497.5,323.5L496.75,326.0L497.5,327.25L498.75,326.38L499.88,326.88L501.25,326.38L503.38,327.38L504.75,327.5L506.38,327.13L506.88,325.0L510.13,325.38L512.63,327.88L514.75,326.38L516.63,327.5L516.13,328.38L518.63,330.63L520.0,328.63L521.38,327.38L522.25,327.38L525.75,324.88L524.13,323.63L526.75,322.5L527.13,321.5L528.38,319.88L529.13,321.63L529.75,320.0L530.38,319.0L530.38,316.0L528.5,312.75L532.38,310.63L535.75,310.13L536.75,311.38L537.0,313.38L538.0,314.25L537.75,317.25L540.25,319.88L539.38,321.0L541.5,322.38L541.5,323.88L544.63,326.13L546.13,325.5L546.88,324.63L549.0,325.0L550.88,323.25L553.5,325.25L553.88,326.63L555.5,327.0L556.88,327.0L559.0,324.5L566.75,315.38L567.13,314.0L569.13,311.88L563.5,306.88L563.13,305.75L563.88,304.38L565.63,302.5L566.88,302.0L567.75,300.25L567.75,295.75L567.13,294.25L564.0,292.38L560.5,293.63L558.0,294.38L557.25,294.63L555.88,292.38L550.25,293.88L549.75,291.63L551.5,290.25L551.13,288.75L547.0,288.75L548.0,287.75L547.38,286.63L548.0,285.13L547.88,284.25L546.0,284.0L544.0,278.5L545.25,276.38L543.75,275.75L543.75,273.0L542.38,271.13L540.5,271.38L538.75,271.63L538.0,270.25L535.75,267.75L535.88,266.38L534.0,264.88L531.13,258.13L529.13,258.75L528.38,260.5L526.88,260.25L526.88,254.5L527.38,253.25L526.13,251.88L526.0,250.75L524.63,250.13L522.0,253.25L519.75,254.38L517.13,254.38L515.75,253.0L515.13,250.75L515.5,249.25L514.13,248.13L514.25,246.63L512.13,244.13L513.5,242.5L513.88,239.88L511.25,240.88L509.25,240.38L508.38,241.5L509.13,242.75L508.13,244.0L506.63,243.63L502.5,245.13L501.63,243.88L501.75,242.0L501.88,240.25L499.75,238.88L497.88,239.75L495.88,239.63L493.5,240.75L491.25,243.0L490.0,244.63L487.63,246.0L485.0,245.88L485.38,247.38L486.38,250.13L488.13,251.38L486.38,252.13L485.5,253.13L479.25,256.38L478.25,257.63L474.38,259.63L473.13,261.38L471.38,260.5L470.5,258.25L468.63,259.75L468.13,263.13L468.38,264.63L466.75,265.0L464.0,267.75L463.75,268.38L461.75,269.63L458.25,268.63L452.63,268.25L451.0,268.63L450.0,266.38L448.88,265.25L448.75,263.13L448.13,261.63L448.88,261.25L449.13,260.0L445.63,258.13L441.13,260.38L440.13,262.25L439.5,259.88L437.0,256.5L435.38,254.63L434.13,255.25L428.63,259.38L428.25,261.5L424.5,263.38L420.5,267.0L417.63,270.13Z" />
		<path id="L1611306587590" name="石柱土家族自治县" class="qing-map-1616134749145" d="M497.5,327.25L496.75,326.0L497.5,323.5L495.75,324.0L495.5,322.5L494.38,322.0L493.5,321.38L494.38,320.38L495.13,319.88L495.63,317.88L494.5,317.0L492.63,319.38L491.25,318.88L484.88,330.75L483.88,334.38L481.63,336.63L481.5,338.13L478.0,342.38L476.63,341.63L475.38,341.5L473.13,344.0L472.0,341.63L469.75,340.5L467.75,338.63L465.63,340.75L461.88,339.75L457.38,343.63L455.25,347.13L454.0,349.25L450.0,349.63L448.13,350.13L447.38,352.0L449.25,352.25L451.88,354.5L453.63,354.13L456.75,353.88L458.88,355.38L457.63,358.25L456.25,359.75L454.0,359.5L454.5,361.25L453.75,362.63L455.75,364.0L456.0,365.38L453.75,367.5L454.13,369.38L451.63,368.13L450.13,369.13L448.63,368.38L449.38,370.63L450.25,371.5L450.25,373.0L451.0,373.25L452.63,372.13L453.75,372.5L452.75,374.63L453.88,375.38L452.38,376.75L450.5,375.75L448.5,378.75L448.38,380.0L445.63,380.88L445.13,383.5L448.38,389.0L448.25,390.25L443.13,398.38L440.25,399.38L439.25,398.75L439.75,397.0L439.13,396.0L438.0,397.75L436.5,398.63L436.13,400.5L434.63,401.88L436.13,403.63L437.25,403.63L438.88,405.75L437.38,408.5L438.88,410.5L439.63,412.13L438.0,415.38L436.38,414.5L434.88,415.13L434.0,416.38L437.13,419.88L439.25,423.0L439.88,425.63L441.88,425.75L442.25,427.13L440.63,428.0L441.5,429.38L443.25,429.63L445.63,432.38L443.75,435.25L445.0,436.25L447.25,438.25L449.25,438.25L451.5,436.5L453.0,436.25L456.38,436.88L456.5,438.88L457.63,439.5L458.63,438.5L460.38,438.75L461.13,440.63L463.13,441.25L463.38,442.5L462.38,444.88L463.88,446.88L467.0,448.63L465.75,451.13L464.25,451.75L462.88,454.63L461.25,453.5L460.25,454.38L461.5,456.13L460.0,460.5L461.25,462.0L460.88,464.13L458.63,465.0L458.0,466.75L456.25,468.13L456.25,469.5L457.5,471.13L459.88,470.63L459.75,468.75L461.5,468.75L462.38,467.75L464.0,467.63L466.0,464.13L464.88,462.75L465.88,461.38L467.75,458.25L467.38,456.0L468.5,453.88L469.88,454.25L471.0,453.5L473.13,455.0L474.38,455.5L475.5,456.5L478.25,456.88L479.13,456.13L480.25,457.38L481.75,458.25L483.25,459.5L487.0,458.5L489.63,459.5L489.13,453.63L488.13,452.13L489.13,450.25L490.5,448.25L491.63,444.38L492.75,442.88L492.88,442.38L490.88,442.75L489.38,441.5L489.38,438.13L491.38,436.75L492.38,434.88L494.88,435.38L497.0,433.5L497.38,431.75L498.38,431.63L501.25,432.63L503.13,434.0L507.25,433.5L509.0,430.88L511.5,432.25L511.63,428.25L512.0,425.88L510.88,422.5L514.0,413.88L514.88,413.13L515.0,412.0L513.13,409.5L513.0,403.63L513.5,402.88L513.13,400.88L511.0,401.75L510.5,400.13L513.38,397.13L515.0,393.75L516.0,390.63L517.25,388.13L517.88,385.88L518.5,384.63L516.25,382.63L518.75,372.25L518.75,370.63L519.88,369.13L520.88,367.13L518.5,367.13L516.25,365.5L515.13,363.5L514.5,363.0L513.38,360.75L512.63,360.5L512.5,358.5L510.88,356.88L509.0,357.13L506.88,354.63L506.0,353.5L504.38,352.38L503.63,350.88L502.75,349.75L499.25,350.25L496.88,348.5L494.75,347.38L494.0,343.88L497.13,343.13L497.0,340.75L498.25,339.25L496.75,337.38L496.25,337.38L495.5,335.38L497.13,333.75L496.75,331.13L496.0,329.75Z" />
		<path id="L1611625106519" name="丰都县" class="qing-map-1616134749145" d="M404.5,484.13L402.5,482.88L402.38,481.63L401.13,481.63L401.0,480.13L399.13,478.5L395.25,481.25L393.0,479.38L391.0,476.63L391.0,474.63L393.25,469.5L390.13,468.63L388.5,467.38L386.75,467.63L386.5,466.25L384.13,464.0L382.38,463.75L380.63,461.5L381.63,455.63L380.63,453.0L381.5,449.63L381.63,443.38L380.75,442.5L378.75,444.25L376.75,443.25L376.63,439.63L375.25,438.25L376.5,437.38L376.5,435.88L377.63,435.63L378.5,433.88L379.88,432.13L377.63,431.5L375.75,429.75L376.5,428.25L376.0,426.13L374.88,424.5L372.88,423.63L372.13,421.75L372.75,421.0L372.25,419.13L370.13,419.63L368.13,417.63L367.88,416.5L366.0,416.0L364.25,415.13L363.38,417.63L362.0,418.13L361.0,416.75L360.5,415.5L359.5,416.13L357.13,412.75L358.75,412.13L358.75,411.13L359.75,410.25L359.75,408.5L365.38,400.88L366.75,399.5L366.88,398.75L365.0,396.88L366.75,395.38L369.5,394.13L369.63,391.63L371.38,390.25L372.63,390.63L372.75,388.0L371.63,387.13L371.25,382.38L373.13,381.0L375.25,380.25L376.5,378.88L375.25,377.13L376.38,376.75L377.25,375.13L378.63,376.0L379.63,375.63L380.75,374.63L381.13,373.0L382.25,371.75L382.25,370.13L383.88,369.25L384.25,366.38L386.88,367.88L386.63,369.88L385.63,370.88L386.13,372.25L388.0,372.13L389.75,370.88L392.13,372.25L394.75,371.5L395.75,373.0L396.75,372.38L397.0,370.63L398.88,369.88L400.88,370.88L400.63,372.13L399.25,374.0L399.38,375.5L400.38,377.0L402.25,377.25L403.75,378.88L406.13,378.88L407.38,380.75L410.88,381.88L412.25,383.13L411.25,384.75L407.88,388.5L407.25,390.38L408.25,392.0L410.25,392.25L412.25,390.38L413.25,391.38L414.38,391.5L414.88,392.75L416.63,393.88L419.38,390.5L421.13,392.0L421.38,393.0L425.63,399.13L428.0,399.75L430.13,401.63L432.75,402.88L434.63,401.88L436.13,403.63L437.25,403.63L438.88,405.75L437.38,408.5L438.88,410.5L439.63,412.13L438.0,415.38L436.38,414.5L434.88,415.13L434.0,416.38L437.13,419.88L439.25,423.0L439.88,425.63L441.88,425.75L442.25,427.13L440.63,428.0L441.5,429.38L443.25,429.63L445.63,432.38L443.75,435.25L445.0,436.25L447.25,438.25L449.25,438.25L451.5,436.5L453.0,436.25L456.38,436.88L456.5,438.88L457.63,439.5L458.63,438.5L460.38,438.75L461.13,440.63L463.13,441.25L463.38,442.5L462.38,444.88L463.88,446.88L467.0,448.63L465.75,451.13L464.25,451.75L462.88,454.63L461.25,453.5L460.25,454.38L461.5,456.13L460.0,460.5L461.25,462.0L460.88,464.13L458.63,465.0L458.0,466.75L456.25,468.13L456.25,469.5L457.5,471.13L459.88,470.63L461.25,471.38L461.75,473.88L461.88,474.75L460.5,476.5L459.13,478.0L458.25,478.63L456.88,478.88L454.75,478.25L452.63,478.0L451.5,479.13L448.5,478.63L447.38,477.38L446.25,475.88L445.25,476.75L443.13,475.38L441.63,475.38L437.75,475.63L434.63,474.38L432.0,474.13L430.13,475.63L427.88,478.5L427.25,477.75L427.25,474.63L424.75,469.5L423.38,469.5L421.0,468.38L419.75,468.5L418.13,468.0L416.0,467.38L413.25,467.63L411.63,470.13L412.13,474.5L411.5,477.25L410.0,479.75L410.25,482.25L411.25,483.88L410.88,484.75L410.63,485.88L407.13,487.13L405.88,485.25Z" />
		<path id="L1611625031569" name="彭水苗族土家族自治区" class="qing-map-1616134749145" d="M408.88,575.25L410.75,573.88L413.63,573.63L415.0,571.88L416.63,570.88L416.0,569.0L416.13,567.88L417.63,567.25L418.5,565.88L417.75,562.63L418.25,562.0L419.38,560.38L419.38,559.13L418.88,557.88L419.75,554.13L420.38,551.5L420.75,549.38L422.0,548.38L425.0,549.0L426.88,550.13L429.0,548.88L430.75,547.13L431.13,545.25L432.5,544.25L433.25,543.0L434.25,540.75L436.25,540.63L436.25,538.38L434.5,536.38L434.88,533.88L434.63,532.13L434.88,530.38L435.38,527.13L433.88,525.38L432.63,523.5L432.38,520.75L431.75,519.25L431.63,518.0L433.5,515.75L433.75,513.63L433.75,512.25L433.5,509.63L435.63,507.88L435.38,506.75L435.63,505.25L436.88,504.38L437.25,502.0L437.0,499.88L437.5,498.5L437.5,495.13L440.38,493.0L443.5,490.5L445.75,487.25L446.13,486.13L444.75,484.13L444.75,482.75L446.63,482.0L447.38,479.63L445.25,476.75L446.25,475.88L447.38,477.38L448.5,478.63L451.5,479.13L452.63,478.0L454.75,478.25L456.88,478.88L458.25,478.63L459.13,478.0L460.5,476.5L461.88,474.75L461.75,473.88L461.25,471.38L459.88,470.63L459.75,468.75L461.5,468.75L462.38,467.75L464.0,467.63L466.0,464.13L464.88,462.75L465.88,461.38L467.75,458.25L467.38,456.0L468.5,453.88L469.88,454.25L471.0,453.5L473.13,455.0L474.38,455.5L475.5,456.5L478.25,456.88L479.13,456.13L480.25,457.38L481.75,458.25L483.25,459.5L487.0,458.5L489.63,459.5L489.13,453.63L488.13,452.13L489.13,450.25L490.5,448.25L491.63,444.38L492.75,442.88L492.88,442.38L493.25,441.5L492.63,438.75L494.25,438.13L495.38,440.88L496.88,441.88L497.88,443.5L496.63,447.13L497.38,449.63L499.13,448.88L500.25,449.25L500.5,451.38L499.63,452.88L499.75,455.25L503.13,455.5L504.13,457.0L506.25,458.38L508.25,460.0L509.75,460.5L512.63,462.38L512.0,465.13L509.25,465.75L509.0,468.38L507.88,468.88L508.13,470.63L506.88,471.88L506.63,474.63L509.0,475.5L509.63,477.0L510.5,476.75L511.25,478.63L513.75,480.5L513.75,483.5L515.75,485.88L515.75,487.88L513.75,489.25L512.13,488.5L509.88,489.13L509.5,490.75L508.0,492.38L508.25,495.25L510.25,495.5L513.38,497.13L514.75,497.13L517.75,497.25L521.0,499.25L520.5,501.5L522.5,505.13L519.88,509.75L517.0,510.63L516.5,514.5L515.63,515.88L516.75,518.75L517.88,520.25L517.5,521.88L516.0,524.88L515.75,527.0L517.88,528.88L519.0,529.25L521.25,532.75L519.25,535.63L519.88,537.75L518.75,540.13L518.75,542.38L516.88,543.5L516.13,545.5L516.75,548.0L518.38,550.88L519.75,552.38L519.75,554.0L517.5,556.63L515.0,557.75L513.63,557.88L512.5,559.0L512.5,561.25L511.25,563.25L509.63,564.25L507.25,564.25L505.75,565.75L503.38,565.75L502.25,568.38L500.88,569.0L500.0,568.5L498.0,569.88L496.5,572.0L494.63,572.13L493.13,571.5L492.38,572.38L490.63,572.75L487.0,575.5L484.38,578.13L483.0,580.38L481.0,580.63L480.38,577.5L479.38,574.13L478.63,572.63L480.0,568.0L478.25,565.63L476.63,565.75L475.25,565.0L474.5,565.63L474.25,567.75L473.25,568.75L473.5,572.13L472.13,574.5L470.63,576.0L467.88,576.0L467.38,574.63L468.75,573.5L468.38,572.13L466.25,571.0L465.0,571.0L463.13,568.5L460.63,569.38L457.75,571.5L454.63,571.88L453.5,569.88L450.5,567.75L444.75,566.0L442.38,568.88L441.13,570.5L438.38,574.38L432.5,574.88L430.75,575.13L425.75,575.0L424.5,574.88L423.25,577.5L421.25,579.75L418.25,579.13L417.5,580.0L418.38,581.5L417.63,583.0L415.88,583.25L415.5,587.38L413.38,586.5L411.88,587.0L409.0,584.38L406.63,583.5L408.38,579.38Z" />
		<path id="L1611628864712" name="黔江区" class="qing-map-1616134749145" d="M509.75,460.5L512.63,462.38L512.0,465.13L509.25,465.75L509.0,468.38L507.88,468.88L508.13,470.63L506.88,471.88L506.63,474.63L509.0,475.5L509.63,477.0L510.5,476.75L511.25,478.63L513.75,480.5L513.75,483.5L515.75,485.88L515.75,487.88L513.75,489.25L512.13,488.5L509.88,489.13L509.5,490.75L508.0,492.38L508.25,495.25L510.25,495.5L513.38,497.13L514.75,497.13L517.75,497.25L521.0,499.25L520.5,501.5L522.5,505.13L519.88,509.75L517.0,510.63L516.5,514.5L515.63,515.88L516.75,518.75L517.88,520.25L517.5,521.88L516.0,524.88L515.75,527.0L517.88,528.88L519.0,529.25L521.25,532.75L519.25,535.63L519.88,537.75L518.75,540.13L518.75,542.38L516.88,543.5L516.13,545.5L516.75,548.0L518.38,550.88L519.75,552.38L519.75,554.0L517.5,556.63L519.38,559.25L520.63,560.88L523.0,562.5L521.63,564.13L523.5,565.75L524.38,564.63L524.5,562.38L525.5,561.63L525.5,564.38L527.0,565.63L526.75,568.13L529.88,566.88L533.13,568.13L532.88,565.63L533.88,564.63L533.13,563.0L533.88,562.25L535.38,562.88L536.38,562.0L537.88,563.38L538.5,564.75L541.63,567.13L543.75,565.88L544.75,565.88L546.0,563.63L545.5,561.88L548.5,562.25L549.38,560.13L553.5,559.0L554.75,560.13L556.75,560.75L558.63,562.38L560.38,562.38L561.25,560.38L561.13,558.0L562.75,555.0L565.75,548.88L567.13,545.38L571.0,543.13L571.13,541.5L573.63,538.63L575.63,534.88L573.88,534.38L571.13,532.75L570.63,532.0L570.13,530.88L568.38,530.13L569.25,527.38L570.75,525.13L569.88,524.25L571.0,521.38L572.13,520.88L571.88,518.25L573.0,512.5L574.38,511.38L573.38,509.75L572.88,507.88L571.13,506.25L568.63,506.75L567.5,505.63L566.25,506.38L563.75,504.5L563.38,501.25L562.5,500.38L563.38,498.0L565.0,497.63L566.0,496.38L565.88,493.0L566.75,491.0L564.38,489.75L566.0,486.63L569.13,484.38L569.63,482.63L568.25,482.5L567.5,481.5L568.75,480.13L567.25,479.38L564.38,480.63L562.75,479.0L564.0,478.0L566.13,474.0L563.5,472.0L562.5,472.63L561.13,472.63L560.0,469.5L557.25,470.13L558.13,467.5L556.63,467.13L555.25,470.75L555.13,473.63L553.5,472.25L550.88,473.13L550.0,471.63L551.75,470.75L552.75,468.88L552.38,466.63L550.88,466.0L551.25,463.75L550.0,462.88L547.63,462.88L546.0,463.63L546.63,465.38L548.38,465.0L549.38,466.38L549.13,466.88L549.13,468.38L546.63,468.75L548.0,471.63L547.38,472.25L546.63,470.38L545.0,470.5L544.88,469.25L543.13,466.25L540.75,466.0L539.63,464.88L541.0,463.25L540.0,461.75L537.38,462.88L536.13,462.5L537.88,461.25L535.38,458.88L535.88,454.38L534.75,452.75L534.88,451.0L535.13,444.38L534.0,443.13L532.25,442.38L533.88,440.63L533.5,438.63L532.38,437.38L532.25,435.75L528.63,435.75L527.88,433.75L522.0,435.25L522.13,436.63L520.5,437.5L520.63,439.13L519.25,440.5L518.5,442.63L517.75,442.88L516.88,441.88L514.75,444.38L514.38,446.38L513.88,447.88L512.25,449.38L511.75,451.0L512.63,452.5L514.75,452.25L515.13,452.88L515.88,453.75L515.0,455.13L513.75,455.25L513.5,456.38L510.25,456.5L509.38,456.88L510.25,458.25Z" />
		<path id="L1611629268223" name="酉阳土家族苗族自治县" class="qing-map-1616134749145" d="M481.0,580.63L483.0,580.38L484.38,578.13L487.0,575.5L490.63,572.75L492.38,572.38L493.13,571.5L494.63,572.13L496.5,572.0L498.0,569.88L500.0,568.5L500.88,569.0L502.25,568.38L503.38,565.75L505.75,565.75L507.25,564.25L509.63,564.25L511.25,563.25L512.5,561.25L512.5,559.0L513.63,557.88L515.0,557.75L517.5,556.63L519.38,559.25L520.63,560.88L523.0,562.5L521.63,564.13L523.5,565.75L524.38,564.63L524.5,562.38L525.5,561.63L525.5,564.38L527.0,565.63L526.75,568.13L529.88,566.88L533.13,568.13L532.88,565.63L533.88,564.63L533.13,563.0L533.88,562.25L535.38,562.88L536.38,562.0L537.88,563.38L538.5,564.75L541.63,567.13L543.75,565.88L544.75,565.88L546.0,563.63L545.5,561.88L548.5,562.25L549.38,560.13L553.5,559.0L554.75,560.13L556.75,560.75L558.63,562.38L560.38,562.38L561.25,560.38L561.13,558.0L562.75,555.0L565.75,548.88L567.13,545.38L571.0,543.13L571.13,541.5L573.63,538.63L575.63,534.88L573.88,534.38L571.13,532.75L570.63,532.0L570.13,530.88L568.38,530.13L569.25,527.38L570.75,525.13L573.0,525.5L575.38,524.38L578.38,524.88L580.25,523.5L580.0,520.63L582.13,520.5L583.0,519.63L587.25,519.88L587.25,519.13L588.25,518.75L586.63,516.25L587.88,515.88L589.13,513.88L590.38,512.13L593.25,513.63L594.38,514.75L596.13,517.0L597.5,517.75L599.13,519.88L598.75,522.38L599.5,524.13L598.0,526.38L598.38,527.13L599.63,527.63L597.88,531.38L599.13,532.25L600.88,532.13L603.13,535.63L601.63,537.88L600.0,539.5L600.0,540.88L598.88,543.25L599.0,545.5L599.75,545.63L600.25,548.0L602.25,550.88L603.0,551.13L603.5,552.5L605.13,552.25L605.63,550.75L606.88,549.63L612.5,555.25L613.0,556.0L615.0,556.0L616.25,561.0L615.75,561.63L617.25,566.0L619.13,566.13L620.0,566.13L625.25,569.0L627.63,568.63L629.63,573.25L628.13,574.75L627.13,577.5L625.5,578.0L625.25,581.5L625.13,583.13L624.75,584.5L622.25,585.63L621.0,588.63L620.13,593.25L620.25,596.63L617.25,599.63L617.25,600.88L614.0,600.75L611.38,601.75L611.38,602.63L608.5,605.63L606.88,605.63L605.13,606.75L603.88,606.38L601.88,608.75L598.38,609.63L596.0,611.38L595.75,612.38L598.0,611.5L598.13,613.13L597.0,614.13L595.5,616.38L591.5,619.38L591.38,621.13L590.63,625.0L587.88,629.25L585.25,632.75L582.13,631.38L581.5,633.88L580.0,634.13L578.25,639.13L576.38,643.75L576.0,646.13L573.25,645.13L572.13,645.13L570.0,644.25L567.0,645.5L564.63,644.25L561.0,645.63L558.63,647.38L556.63,647.25L555.0,648.5L553.5,650.63L552.75,650.88L552.63,652.13L550.88,654.5L550.75,656.5L549.38,657.13L547.25,657.25L546.13,659.63L543.25,660.88L541.5,666.13L539.5,664.88L537.75,668.0L536.0,667.75L533.88,669.25L531.13,668.88L529.63,670.88L529.5,672.75L532.88,674.38L533.5,676.13L535.75,677.13L536.88,678.13L536.75,679.75L537.88,681.38L537.13,682.75L535.38,683.0L533.0,684.63L533.0,685.63L531.75,686.88L531.88,689.75L534.0,689.5L534.88,689.88L534.63,691.13L534.13,692.25L531.88,692.63L530.25,693.38L529.0,692.88L527.88,694.13L524.5,694.38L523.75,692.13L523.13,691.5L520.0,691.5L520.13,689.5L519.88,688.75L519.88,683.63L521.38,681.0L524.0,680.75L524.75,678.38L524.25,677.25L525.0,675.5L523.13,674.13L523.13,672.5L521.5,671.63L521.38,668.38L519.38,665.0L520.13,664.0L519.25,660.25L520.13,659.38L520.25,658.13L524.25,658.38L525.0,656.75L524.38,654.5L524.25,651.25L523.63,649.38L526.0,647.0L528.5,644.75L528.25,642.88L527.13,641.0L524.0,642.0L523.38,641.0L521.38,641.0L521.13,640.0L519.75,638.0L518.25,638.0L517.75,640.13L515.25,640.0L514.0,639.0L511.63,641.38L509.38,641.75L509.25,643.13L506.75,642.88L505.38,643.25L502.13,642.13L499.88,642.5L496.38,640.38L492.75,639.38L486.75,635.5L484.13,635.25L485.25,632.38L486.13,630.38L485.88,626.0L485.88,625.0L490.0,620.75L490.63,619.63L491.88,618.75L492.13,616.0L491.0,613.25L487.13,611.88L487.25,608.0L485.88,605.0L486.13,604.0L487.5,602.5L487.38,598.0L486.38,595.75L486.38,591.25L485.5,589.63L482.38,588.13Z" />
		<path id="L1611630232036" name="秀山土家族苗族自治县" class="qing-map-1616134749145" d="M541.5,666.13L543.25,660.88L546.13,659.63L547.25,657.25L549.38,657.13L550.75,656.5L550.88,654.5L552.63,652.13L552.75,650.88L553.5,650.63L555.0,648.5L556.63,647.25L558.63,647.38L561.0,645.63L564.63,644.25L567.0,645.5L570.0,644.25L572.13,645.13L573.25,645.13L576.0,646.13L576.38,643.75L578.25,639.13L580.0,634.13L581.5,633.88L582.13,631.38L585.25,632.75L587.88,629.25L590.63,625.0L591.38,621.13L591.5,619.38L595.5,616.38L597.0,614.13L598.13,613.13L598.0,611.5L595.75,612.38L596.0,611.38L598.38,609.63L601.88,608.75L603.88,606.38L605.13,606.75L606.88,605.63L608.5,605.63L611.38,602.63L611.38,601.75L614.0,600.75L617.25,600.88L616.75,602.5L618.25,604.63L617.88,610.75L618.63,611.75L618.5,614.75L617.88,615.5L618.0,617.75L620.0,618.13L620.0,620.13L622.63,621.0L624.0,622.88L625.88,622.88L626.75,624.88L625.38,626.13L626.13,627.63L622.63,631.13L620.88,631.25L619.75,632.5L620.13,634.0L622.25,635.25L622.13,636.63L618.5,638.25L617.0,639.5L615.63,639.25L613.5,640.38L612.25,641.88L610.88,641.75L610.13,643.5L609.0,644.5L612.13,648.0L613.63,647.0L615.38,645.75L616.75,644.38L619.5,646.63L622.25,646.13L625.5,643.0L627.38,644.0L628.0,645.75L627.38,647.63L628.5,648.5L629.5,651.38L627.5,651.63L626.0,653.38L625.88,655.25L624.63,657.63L622.75,658.5L622.63,660.38L623.63,661.13L622.63,662.5L622.63,665.75L621.38,665.88L617.38,668.88L614.5,668.25L612.25,668.88L610.63,669.63L610.63,671.25L609.38,673.0L608.0,673.75L608.88,674.88L608.5,676.63L606.75,676.75L606.88,679.13L605.13,679.13L604.13,680.38L605.13,681.5L604.63,685.63L603.25,687.88L604.63,690.38L602.63,692.88L603.13,695.13L601.13,697.88L601.38,699.25L599.38,700.63L599.75,702.0L597.25,704.5L594.75,705.0L594.13,706.88L595.0,709.0L595.25,710.63L596.63,712.25L597.25,714.25L597.25,716.0L595.5,715.88L594.88,717.88L593.38,717.5L591.75,715.75L588.5,714.88L588.13,713.25L585.75,712.75L584.13,716.13L584.63,717.75L584.13,720.0L582.88,721.88L580.13,721.88L579.63,720.25L576.63,718.63L572.25,717.13L571.63,715.25L572.13,714.25L570.63,712.25L568.75,712.63L566.88,712.0L562.38,714.38L559.75,715.5L558.0,714.25L557.63,712.63L557.13,711.63L556.25,711.0L555.88,707.63L553.5,707.63L552.63,710.88L551.75,711.63L549.25,712.38L547.63,716.5L546.75,716.25L546.75,712.63L546.38,711.5L543.75,710.5L543.38,706.75L542.0,705.38L541.75,703.63L541.63,702.25L542.13,700.88L543.38,699.63L545.25,698.25L546.5,697.88L548.0,697.88L548.63,696.0L547.13,694.88L547.25,693.75L549.5,691.38L549.25,687.0L549.88,685.63L549.5,685.0L546.75,683.75L550.13,677.38L548.75,675.5L544.88,673.25L544.88,672.13L543.5,670.0L542.25,669.5Z" />
		<path id="L1611630821056" name="开州区" class="qing-map-1616134749145" d="M434.13,255.25L435.38,254.63L437.0,256.5L439.5,259.88L440.13,262.25L441.13,260.38L445.63,258.13L449.13,260.0L448.88,261.25L448.13,261.63L448.75,263.13L448.88,265.25L450.0,266.38L451.0,268.63L452.63,268.25L458.25,268.63L461.75,269.63L463.75,268.38L464.0,267.75L466.75,265.0L468.38,264.63L468.13,263.13L468.63,259.75L470.5,258.25L471.38,260.5L473.13,261.38L474.38,259.63L478.25,257.63L479.25,256.38L485.5,253.13L486.38,252.13L488.13,251.38L486.38,250.13L485.38,247.38L485.0,245.88L487.63,246.0L490.0,244.63L491.25,243.0L493.5,240.75L495.88,239.63L496.5,238.38L499.13,236.88L501.5,237.13L504.63,235.25L505.25,233.63L505.63,231.25L504.88,230.25L506.38,229.5L506.38,228.5L510.13,227.0L510.38,225.63L512.75,225.13L514.63,223.25L517.25,224.0L515.75,221.5L515.75,220.25L517.25,219.75L518.0,215.63L520.25,214.38L523.38,211.63L522.75,209.88L521.13,209.63L520.0,208.25L521.63,207.5L522.0,204.25L523.0,199.25L525.88,195.88L526.38,194.38L528.0,195.0L529.63,193.25L529.75,191.5L528.63,190.0L531.5,189.25L532.0,187.75L529.25,184.25L528.63,182.75L530.13,180.75L535.88,180.75L536.75,180.25L537.25,180.25L538.13,179.25L537.38,177.13L539.25,174.5L536.88,174.13L537.0,172.75L538.88,171.5L540.0,171.38L542.63,172.0L543.38,171.0L542.63,169.75L544.25,168.5L544.25,167.13L545.75,165.63L546.88,163.63L545.88,163.0L544.25,163.13L543.0,161.63L539.0,159.5L537.38,156.5L538.13,154.13L537.38,152.25L538.63,152.38L540.13,152.75L541.13,152.13L542.5,153.0L545.13,152.25L546.88,152.0L548.13,150.38L548.25,147.38L550.13,145.38L552.13,143.75L553.13,140.0L555.88,140.0L556.38,139.38L558.13,140.25L560.0,139.75L564.0,135.25L566.0,134.63L566.75,132.88L565.75,131.88L566.63,130.25L566.13,128.25L566.88,126.13L565.63,126.0L564.13,124.38L562.75,123.38L562.0,122.0L559.0,121.13L552.38,121.0L550.5,120.25L549.75,121.5L548.25,121.38L546.38,125.0L546.63,127.13L544.0,128.63L543.25,129.75L541.5,130.25L540.0,130.63L538.25,129.63L536.75,131.0L535.63,130.63L534.88,131.5L532.63,131.0L530.38,132.0L529.0,130.5L529.0,128.13L527.0,126.75L525.63,127.25L521.5,125.75L519.0,123.25L517.25,123.5L515.5,123.13L513.25,124.25L511.63,124.25L510.88,125.38L509.0,125.88L507.0,128.38L504.25,128.75L504.25,131.0L503.25,132.13L501.88,130.38L500.38,129.75L498.5,130.5L496.88,132.13L496.63,133.63L495.63,134.38L494.38,134.88L492.13,136.88L493.13,139.38L491.25,141.13L492.38,142.0L492.88,142.88L492.25,144.88L490.38,145.5L487.0,145.25L485.5,145.5L485.25,147.75L486.13,148.75L486.0,150.13L483.88,151.75L482.13,152.5L480.88,151.75L478.75,152.38L476.63,150.88L475.63,152.63L473.63,152.0L471.5,152.75L470.13,151.88L467.75,151.63L466.88,153.13L462.88,154.25L462.63,155.75L463.5,157.13L463.0,158.38L464.0,159.0L465.88,158.25L467.63,158.5L467.88,162.13L466.13,163.38L467.0,165.25L466.75,168.13L464.88,171.13L461.63,171.5L460.63,173.38L458.63,173.88L457.63,175.75L458.38,176.88L460.0,177.5L462.13,180.37L461.75,183.51L458.88,184.63L458.63,185.75L450.38,190.63L448.63,192.0L448.63,192.75L446.88,194.13L444.75,194.0L443.0,195.75L440.75,195.5L438.0,197.63L439.0,197.88L439.0,200.63L439.75,201.75L442.25,200.5L444.88,200.13L445.0,201.75L446.75,202.0L448.38,205.88L447.25,207.13L446.5,207.38L444.75,209.38L445.5,209.88L442.88,212.13L443.25,213.38L441.13,214.5L440.13,215.25L438.75,219.25L436.13,220.38L437.25,222.63L438.25,223.5L438.88,226.13L438.75,228.5L441.38,228.88L443.63,230.5L442.5,232.38L441.38,232.25L439.0,233.63L436.88,235.25L435.12,235.25L434.38,238.13L432.13,242.38L427.75,242.0L426.5,241.13L426.0,244.38L425.38,245.5L425.75,247.88L426.13,249.13L425.25,251.63L426.63,251.88L427.13,253.13L428.88,253.38L430.5,254.63L431.88,254.13Z" />
		<path id="L1611631333263" name="城口县" class="qing-map-1616134749145" d="M566.88,126.13L565.63,126.0L564.13,124.38L562.75,123.38L562.0,122.0L559.0,121.13L552.38,121.0L550.5,120.25L549.75,121.5L548.25,121.38L546.38,125.0L546.63,127.13L544.0,128.63L543.25,129.75L541.5,130.25L540.0,130.63L538.25,129.63L536.75,131.0L535.63,130.63L534.88,131.5L532.63,131.0L530.38,132.0L529.0,130.5L529.0,128.13L527.0,126.75L525.63,127.25L521.5,125.75L519.0,123.25L517.25,123.5L515.5,123.13L513.63,122.0L511.25,118.75L512.75,117.75L512.0,115.5L511.38,113.5L509.5,112.13L513.88,108.0L511.25,107.38L507.88,105.75L506.75,104.25L505.13,104.75L502.88,104.13L501.38,102.75L503.13,100.75L503.25,99.25L501.5,98.88L499.63,99.38L497.13,98.88L492.25,95.88L491.75,91.88L490.63,91.0L489.38,91.88L487.25,91.0L484.25,88.88L484.25,87.63L479.75,81.88L477.38,81.88L476.38,80.0L477.25,78.5L477.13,76.88L475.88,73.25L473.38,72.13L474.63,68.63L476.13,69.25L477.63,67.88L479.25,67.88L480.88,66.5L481.75,67.88L484.13,69.13L485.5,69.63L486.88,70.75L488.75,68.88L488.75,67.13L486.25,65.63L484.88,64.63L483.63,62.25L485.25,60.63L486.75,61.0L488.88,59.75L487.75,57.88L487.25,56.63L486.13,55.88L486.25,53.63L487.63,54.13L490.0,52.75L492.25,53.63L493.88,54.13L495.63,54.13L496.38,54.5L498.38,55.5L501.13,53.25L501.38,50.38L500.38,49.75L497.5,46.5L497.13,45.13L495.88,43.75L496.0,42.88L494.25,40.75L492.63,40.25L492.5,39.13L490.25,36.75L489.88,36.13L491.63,34.13L494.25,32.0L495.88,32.25L497.5,33.38L498.38,32.38L500.25,33.0L502.25,34.5L503.38,34.25L506.0,34.38L507.25,32.38L510.38,31.0L513.0,32.75L514.75,34.88L516.13,35.25L518.38,35.0L521.75,36.13L522.75,38.38L525.75,40.38L529.25,43.38L530.88,43.88L532.0,45.5L533.38,46.38L534.63,48.13L539.13,47.75L542.88,47.38L545.5,49.0L546.0,53.5L548.13,54.63L549.88,57.0L552.63,58.25L556.5,58.63L558.38,59.38L560.38,61.38L562.75,65.13L567.63,68.13L569.75,67.38L571.63,67.25L573.38,67.88L575.13,69.13L575.63,69.5L577.0,68.88L579.63,69.0L581.5,69.63L584.13,72.0L587.0,73.13L588.5,72.63L590.38,74.88L591.38,76.63L593.75,76.88L596.38,79.5L600.0,83.0L600.5,84.88L602.13,85.0L606.13,87.0L609.5,89.63L612.0,93.38L610.63,95.63L610.75,97.38L614.0,97.5L616.5,98.75L618.5,98.88L622.63,100.5L623.13,105.13L620.38,106.75L620.0,108.25L622.13,108.25L623.75,110.38L624.25,111.75L623.75,113.0L623.75,115.25L621.75,115.75L620.0,114.88L618.25,115.0L615.63,114.25L615.88,115.25L615.0,118.0L615.75,118.88L615.75,120.5L613.38,119.63L609.75,119.25L606.63,118.5L605.88,119.38L604.13,117.88L602.63,117.38L600.75,118.5L597.38,118.5L596.63,119.13L592.63,118.0L590.0,118.25L588.13,120.0L583.5,120.13L582.5,121.0L583.25,123.0L582.5,124.0L582.5,125.75L581.63,126.75L576.88,126.63L575.88,125.75L574.38,126.25L570.63,126.5L569.38,125.0L567.75,125.13Z" />
		<path id="L1611631905733" name="巫溪县" class="qing-map-1616134749145" d="M546.88,163.63L545.88,163.0L544.25,163.13L543.0,161.63L539.0,159.5L537.38,156.5L538.13,154.13L537.38,152.25L538.63,152.38L540.13,152.75L541.13,152.13L542.5,153.0L545.13,152.25L546.88,152.0L548.13,150.38L548.25,147.38L550.13,145.38L552.13,143.75L553.13,140.0L555.88,140.0L556.38,139.38L558.13,140.25L560.0,139.75L564.0,135.25L566.0,134.63L566.75,132.88L565.75,131.88L566.63,130.25L566.13,128.25L566.88,126.13L567.75,125.13L569.38,125.0L570.63,126.5L574.38,126.25L575.88,125.75L576.88,126.63L581.63,126.75L582.5,125.75L582.5,124.0L583.25,123.0L582.5,121.0L583.5,120.13L588.13,120.0L590.0,118.25L592.63,118.0L596.63,119.13L597.38,118.5L600.75,118.5L602.63,117.38L604.13,117.88L605.88,119.38L606.63,118.5L609.75,119.25L613.38,119.63L615.75,120.5L615.75,118.88L615.0,118.0L615.88,115.25L615.63,114.25L618.25,115.0L620.0,114.88L621.75,115.75L623.75,115.25L627.63,116.5L636.25,116.88L638.75,117.63L643.13,117.25L644.0,114.63L649.0,114.13L650.63,115.63L652.0,115.75L653.0,114.5L655.25,114.38L656.88,115.13L657.88,115.0L659.63,114.13L663.25,112.75L664.38,113.63L667.25,113.75L667.75,113.13L668.88,113.13L671.63,114.75L672.75,115.38L675.38,114.63L677.63,113.75L680.13,114.38L682.0,114.38L685.0,113.5L685.88,114.13L687.38,116.5L689.5,116.88L690.38,118.38L689.63,119.63L690.38,122.63L691.88,124.25L691.38,130.25L694.75,133.38L694.5,134.5L692.0,135.38L691.63,138.13L689.25,140.25L688.13,142.13L689.25,144.0L690.63,144.75L696.38,144.75L698.5,143.88L699.75,145.75L700.63,145.75L702.75,143.5L705.88,143.38L709.63,146.13L709.88,147.13L712.5,147.75L713.88,149.63L716.75,149.0L719.63,149.25L720.38,150.5L721.63,151.88L724.38,151.5L726.5,150.88L727.0,151.5L724.0,153.13L724.0,154.5L721.75,155.38L721.25,157.5L720.75,160.13L721.13,161.88L720.63,163.63L721.13,165.38L719.88,168.63L718.63,171.0L717.75,171.5L713.38,171.63L710.5,172.63L708.5,173.38L705.75,172.63L703.5,172.38L702.38,173.5L699.38,174.25L697.88,177.0L696.5,177.0L696.63,178.5L695.13,179.75L693.0,178.38L690.0,178.13L688.0,179.88L687.75,182.75L687.13,184.5L687.75,187.5L685.25,187.25L684.0,188.25L680.13,188.38L677.75,186.25L675.0,187.63L674.5,188.5L672.5,188.63L670.5,192.88L670.5,194.13L668.88,194.25L666.25,197.13L665.25,197.38L664.13,196.0L660.63,195.5L658.63,196.13L657.88,197.88L655.63,197.25L654.63,196.13L650.13,196.13L649.13,196.75L648.25,198.75L646.63,199.38L646.0,198.13L643.13,197.13L642.38,197.63L640.38,197.75L639.5,196.63L639.75,193.5L638.13,192.25L637.63,190.13L634.25,190.13L634.13,187.75L632.25,187.13L630.63,183.75L629.63,179.63L621.88,177.75L621.0,177.13L618.13,176.75L617.0,177.75L615.38,176.88L613.63,178.0L611.0,177.0L608.5,177.0L605.88,176.63L602.25,176.13L600.38,175.38L597.0,176.63L593.5,175.5L591.75,176.25L589.75,175.88L586.38,175.5L584.75,174.13L581.75,173.88L579.75,172.75L577.88,173.63L576.75,172.75L575.88,173.13L573.38,173.0L572.88,171.88L569.13,173.13L567.5,172.5L565.88,173.38L565.25,175.13L566.38,176.5L566.38,180.63L565.88,181.5L563.25,180.88L562.13,179.88L558.25,179.63L557.75,178.38L556.13,178.13L556.13,176.13L557.5,174.75L555.5,172.38L552.38,170.63L552.25,169.75L554.25,167.5L553.88,166.13L550.13,164.38Z" />
		<path id="L1611639924553" name="奉节县" class="qing-map-1616134749145" d="M675.63,289.75L679.25,286.63L680.25,283.25L678.63,281.75L679.25,279.88L678.38,277.5L678.5,276.25L677.5,274.75L677.88,273.0L676.88,272.13L676.13,270.25L675.38,270.25L672.0,267.38L671.88,266.0L673.38,265.38L673.13,263.38L671.63,262.5L670.0,262.63L668.63,261.5L666.5,261.0L665.5,257.88L667.0,256.38L672.5,255.75L672.63,253.63L670.75,251.38L670.88,249.13L670.25,247.63L671.0,246.5L670.88,243.25L673.0,241.0L671.38,238.0L671.75,236.25L680.75,231.88L682.38,230.38L684.25,230.13L688.5,227.25L689.0,223.75L692.13,222.13L693.38,219.75L695.13,219.5L694.13,217.13L695.75,214.88L696.0,211.38L694.5,209.13L692.13,208.75L689.88,210.0L684.88,209.88L680.75,207.5L678.38,208.63L677.0,208.5L675.38,207.0L674.63,206.63L674.25,204.0L675.38,202.25L675.13,200.5L672.38,199.88L669.0,200.88L666.25,197.13L665.25,197.38L664.13,196.0L660.63,195.5L658.63,196.13L657.88,197.88L655.63,197.25L654.63,196.13L650.13,196.13L649.13,196.75L648.25,198.75L646.63,199.38L646.0,198.13L643.13,197.13L642.38,197.63L640.38,197.75L639.5,196.63L639.75,193.5L638.13,192.25L637.63,190.13L634.25,190.13L634.13,187.75L632.25,187.13L630.63,183.75L629.63,179.63L621.88,177.75L621.0,177.13L618.13,176.75L617.0,177.75L615.38,176.88L613.63,178.0L611.0,177.0L608.5,177.0L605.88,176.63L602.25,176.13L600.38,175.38L597.0,176.63L593.5,175.5L591.75,176.25L589.75,175.88L590.63,178.25L589.75,179.75L590.0,184.38L588.38,187.13L588.88,190.63L591.88,192.0L592.88,195.0L592.88,196.63L595.63,201.25L595.75,202.63L595.88,206.25L594.13,206.13L592.88,208.0L591.13,208.38L589.63,207.25L589.38,211.0L590.38,212.5L590.88,217.13L593.0,217.0L596.63,218.25L597.0,221.63L596.13,223.13L596.63,224.5L596.25,228.75L601.38,230.0L603.63,229.88L605.38,228.25L606.25,227.75L610.25,228.0L612.25,231.0L614.38,231.13L615.63,230.13L615.75,231.38L617.13,231.63L619.25,234.25L619.13,235.13L617.13,238.5L615.88,239.88L615.25,241.5L614.25,242.75L613.5,244.63L614.63,246.5L614.5,252.13L613.63,253.0L612.0,251.88L611.25,250.75L605.38,249.75L604.63,250.63L604.88,253.0L606.0,253.88L606.13,255.63L604.75,255.25L603.5,256.88L604.38,260.25L601.63,260.13L602.0,262.5L598.38,263.63L594.75,263.88L594.38,262.38L593.25,261.88L590.13,263.38L589.88,266.38L588.75,268.63L590.13,270.25L588.88,273.0L589.63,275.75L589.63,278.13L591.0,280.13L590.25,282.13L589.25,283.88L589.38,286.0L585.0,287.63L586.25,290.25L585.25,292.38L585.75,294.0L585.13,295.75L585.75,296.5L584.5,299.5L585.25,300.88L587.5,299.88L589.38,299.88L591.13,300.88L593.13,301.13L595.25,300.0L596.63,301.5L598.75,300.25L600.38,302.63L599.5,303.88L599.75,305.25L597.5,307.25L597.13,306.25L594.5,308.0L595.88,312.25L599.25,316.5L599.63,318.63L601.5,320.13L603.0,319.63L603.13,321.63L604.75,321.0L606.75,317.63L610.25,317.0L611.25,317.5L614.13,314.88L617.88,312.13L615.75,311.25L616.63,309.88L620.38,309.13L623.88,306.0L625.38,304.13L627.5,304.5L628.38,306.25L629.63,305.13L630.63,305.88L629.75,307.63L627.63,308.5L630.5,309.63L633.0,312.0L635.75,316.25L633.38,318.38L633.38,320.0L632.25,321.88L632.75,323.25L632.0,323.88L634.0,327.38L635.5,326.75L639.25,321.0L641.63,318.38L644.25,314.5L646.63,309.13L648.63,307.25L650.63,305.25L653.63,304.13L657.75,299.13L658.88,298.5L660.38,296.88L661.5,296.75L662.25,298.5L661.88,299.75L660.88,300.75L662.0,301.63L663.25,300.63L666.5,300.5L667.5,298.88L667.75,295.88L669.63,294.0L669.25,292.25L673.75,291.0Z" />
		<path id="L1611640578363" name="云阳县" class="qing-map-1616134749145" d="M552.25,169.75L552.38,170.63L555.5,172.38L557.5,174.75L556.13,176.13L556.13,178.13L557.75,178.38L558.25,179.63L562.13,179.88L563.25,180.88L565.88,181.5L566.38,180.63L566.38,176.5L565.25,175.13L565.88,173.38L567.5,172.5L569.13,173.13L572.88,171.88L573.38,173.0L575.88,173.13L576.75,172.75L577.88,173.63L579.75,172.75L581.75,173.88L584.75,174.13L586.38,175.5L589.75,175.88L590.63,178.25L589.75,179.75L590.0,184.38L588.38,187.13L588.88,190.63L591.88,192.0L592.88,195.0L592.88,196.63L595.63,201.25L595.75,202.63L595.88,206.25L594.13,206.13L592.88,208.0L591.13,208.38L589.63,207.25L589.38,211.0L590.38,212.5L590.88,217.13L593.0,217.0L596.63,218.25L597.0,221.63L596.13,223.13L596.63,224.5L596.25,228.75L601.38,230.0L603.63,229.88L605.38,228.25L606.25,227.75L610.25,228.0L612.25,231.0L614.38,231.13L615.63,230.13L615.75,231.38L617.13,231.63L619.25,234.25L619.13,235.13L617.13,238.5L615.88,239.88L615.25,241.5L614.25,242.75L613.5,244.63L614.63,246.5L614.5,252.13L613.63,253.0L612.0,251.88L611.25,250.75L605.38,249.75L604.63,250.63L604.88,253.0L606.0,253.88L606.13,255.63L604.75,255.25L603.5,256.88L604.38,260.25L601.63,260.13L602.0,262.5L598.38,263.63L594.75,263.88L594.38,262.38L593.25,261.88L590.13,263.38L589.88,266.38L588.75,268.63L590.13,270.25L588.88,273.0L589.63,275.75L589.63,278.13L591.0,280.13L590.25,282.13L589.25,283.88L589.38,286.0L585.0,287.63L586.25,290.25L585.25,292.38L585.75,294.0L585.13,295.75L585.75,296.5L584.5,299.5L585.25,300.88L584.25,303.25L583.13,303.38L582.13,302.63L580.38,304.38L578.88,302.63L574.88,306.38L573.88,306.63L570.25,309.88L569.13,311.88L563.5,306.88L563.13,305.75L563.88,304.38L565.63,302.5L566.88,302.0L567.75,300.25L567.75,295.75L567.13,294.25L564.0,292.38L560.5,293.63L558.0,294.38L557.25,294.63L555.88,292.38L550.25,293.88L549.75,291.63L551.5,290.25L551.13,288.75L547.0,288.75L548.0,287.75L547.38,286.63L548.0,285.13L547.88,284.25L546.0,284.0L544.0,278.5L545.25,276.38L543.75,275.75L543.75,273.0L542.38,271.13L540.5,271.38L538.75,271.63L538.0,270.25L535.75,267.75L535.88,266.38L534.0,264.88L531.13,258.13L529.13,258.75L528.38,260.5L526.88,260.25L526.88,254.5L527.38,253.25L526.13,251.88L526.0,250.75L524.63,250.13L522.0,253.25L519.75,254.38L517.13,254.38L515.75,253.0L515.13,250.75L515.5,249.25L514.13,248.13L514.25,246.63L512.13,244.13L513.5,242.5L513.88,239.88L511.25,240.88L509.25,240.38L508.38,241.5L509.13,242.75L508.13,244.0L506.63,243.63L502.5,245.13L501.63,243.88L501.75,242.0L501.88,240.25L499.75,238.88L497.88,239.75L495.88,239.63L496.5,238.38L499.13,236.88L501.5,237.13L504.63,235.25L505.25,233.63L505.63,231.25L504.88,230.25L506.38,229.5L506.38,228.5L510.13,227.0L510.38,225.63L512.75,225.13L514.63,223.25L517.25,224.0L515.75,221.5L515.75,220.25L517.25,219.75L518.0,215.63L520.25,214.38L523.38,211.63L522.75,209.88L521.13,209.63L520.0,208.25L521.63,207.5L522.0,204.25L523.0,199.25L525.88,195.88L526.38,194.38L528.0,195.0L529.63,193.25L529.75,191.5L528.63,190.0L531.5,189.25L532.0,187.75L529.25,184.25L528.63,182.75L530.13,180.75L535.88,180.75L536.75,180.25L537.25,180.25L538.13,179.25L537.38,177.13L539.25,174.5L536.88,174.13L537.0,172.75L538.88,171.5L540.0,171.38L542.63,172.0L543.38,171.0L542.63,169.75L544.25,168.5L544.25,167.13L545.75,165.63L546.88,163.63L550.13,164.38L553.88,166.13L554.25,167.5Z" />
		<path id="L1611641013408" name="巫山县" class="qing-map-1616134749145" d="M679.25,279.88L678.38,277.5L678.5,276.25L677.5,274.75L677.88,273.0L676.88,272.13L676.13,270.25L675.38,270.25L672.0,267.38L671.88,266.0L673.38,265.38L673.13,263.38L671.63,262.5L670.0,262.63L668.63,261.5L666.5,261.0L665.5,257.88L667.0,256.38L672.5,255.75L672.63,253.63L670.75,251.38L670.88,249.13L670.25,247.63L671.0,246.5L670.88,243.25L673.0,241.0L671.38,238.0L671.75,236.25L680.75,231.88L682.38,230.38L684.25,230.13L688.5,227.25L689.0,223.75L692.13,222.13L693.38,219.75L695.13,219.5L694.13,217.13L695.75,214.88L696.0,211.38L694.5,209.13L692.13,208.75L689.88,210.0L684.88,209.88L680.75,207.5L678.38,208.63L677.0,208.5L675.38,207.0L674.63,206.63L674.25,204.0L675.38,202.25L675.13,200.5L672.38,199.88L669.0,200.88L666.25,197.13L668.88,194.25L670.5,194.13L670.5,192.88L672.5,188.63L674.5,188.5L675.0,187.63L677.75,186.25L680.13,188.38L684.0,188.25L685.25,187.25L687.75,187.5L687.13,184.5L687.75,182.75L688.0,179.88L690.0,178.13L693.0,178.38L695.13,179.75L696.63,178.5L696.5,177.0L697.88,177.0L699.38,174.25L702.38,173.5L703.5,172.38L705.75,172.63L708.5,173.38L710.5,172.63L713.38,171.63L717.75,171.5L718.63,171.0L719.88,168.63L721.13,165.38L720.63,163.63L721.13,161.88L720.75,160.13L721.25,157.5L722.25,158.63L725.5,157.25L727.88,157.0L730.25,159.88L730.5,160.5L730.0,161.13L732.5,162.88L734.63,163.63L735.25,164.13L734.88,165.13L737.88,168.38L740.75,169.25L744.0,168.38L745.13,168.88L746.63,168.5L747.75,170.88L751.13,172.63L751.25,174.13L750.5,176.38L751.88,178.0L751.63,180.0L753.13,181.88L752.38,184.63L754.13,185.63L753.75,189.5L752.63,191.5L753.75,195.63L755.13,195.88L755.0,201.63L756.0,203.25L756.63,209.13L759.13,211.5L759.63,212.5L757.38,214.88L757.5,217.0L755.88,218.63L753.88,219.38L751.5,219.38L751.5,220.75L749.5,221.25L748.38,224.0L747.63,224.88L747.88,227.0L749.13,228.0L747.88,233.63L750.38,234.13L749.88,235.5L751.0,237.5L750.25,241.88L754.5,240.88L755.38,242.25L754.25,244.38L754.0,246.25L752.38,248.13L751.38,252.38L752.38,255.13L749.63,259.75L746.88,266.75L744.13,269.13L742.0,273.0L739.5,273.88L736.88,273.63L735.63,271.5L732.5,268.63L732.38,265.0L730.5,261.38L730.5,259.0L726.88,258.88L725.13,258.13L723.13,260.13L721.0,260.13L720.88,258.38L719.5,258.63L716.25,256.88L713.13,257.0L711.75,259.0L707.5,260.5L703.25,263.75L698.25,265.0L692.88,269.5L689.63,272.38L688.25,272.25L687.63,274.63L687.63,275.88L688.38,276.75L687.88,277.88L686.5,277.88L685.5,276.63L682.5,278.63Z" />
	</g>
</svg>
