<svg xmlns="http://www.w3.org/2000/svg" viewBox="0,0,800,600" width="100%" height="100%">
	<defs>
		<style type="text/css">
.qing-map-1616123796085
{
	fill: #DDDDDD;
	fill-opacity: 1.0;
	stroke: #FFFFFF;
	stroke-opacity: 1.0;
	stroke-width: 1;
}

.qing-map-1616123796085:hover
{
	fill: #56A4FF;
	fill-opacity: 1.0;
}
</style>
	</defs>
	<g>
		<path id="L1611110482509" name="大兴安岭地区" class="qing-map-1616123796085" d="M258.6,206.4L260.0,205.8L260.6,204.6L262.6,204.2L263.2,202.4L263.4,201.2L264.4,200.4L264.4,199.2L267.2,197.6L267.6,196.0L267.6,194.6L267.8,192.6L269.0,192.8L270.6,192.8L269.6,191.0L271.2,190.4L272.8,190.6L274.4,189.4L276.2,188.2L277.4,187.4L278.4,186.6L280.0,187.0L280.8,185.6L282.2,185.4L283.2,184.4L282.6,182.6L282.4,181.2L281.4,179.8L281.4,178.0L282.8,176.8L281.4,175.0L280.2,173.2L281.6,172.4L283.2,173.0L284.2,172.0L285.6,170.6L286.2,169.4L287.4,169.2L288.4,167.8L289.2,165.8L291.2,165.8L292.2,164.0L296.4,164.2L297.8,163.4L298.2,161.8L299.0,160.6L300.8,161.2L303.4,160.0L305.4,160.0L308.2,160.2L312.8,163.2L314.4,163.4L316.0,164.8L322.6,164.8L324.6,165.2L326.2,164.4L328.0,165.0L332.0,164.6L337.0,164.8L339.2,163.8L342.8,163.8L343.2,162.0L344.6,160.6L343.0,159.0L339.2,156.2L339.0,153.0L337.8,148.6L339.73,145.57L341.97,142.73L341.8,141.2L340.0,140.8L336.8,141.6L338.2,143.6L337.6,145.4L335.8,145.0L333.8,144.2L333.4,141.8L334.6,140.2L336.2,139.8L338.4,139.8L338.8,138.0L337.8,136.6L333.8,136.0L332.0,134.6L332.8,132.8L333.8,131.0L334.9,129.3L330.3,127.9L327.6,126.8L326.6,125.4L328.8,123.8L329.4,122.4L328.4,120.6L329.2,118.8L327.8,118.4L326.0,117.6L325.8,115.8L323.8,115.2L322.8,113.8L321.2,112.4L320.37,110.1L318.4,108.6L317.8,106.6L315.6,106.2L315.2,104.6L315.6,103.4L314.6,101.8L315.6,100.2L318.0,100.2L318.2,98.8L319.4,98.2L319.4,97.2L320.0,95.8L319.4,94.0L317.4,93.4L315.8,93.34L313.2,92.2L310.8,92.0L307.0,90.4L308.4,88.2L310.4,87.0L312.4,86.4L314.0,85.6L313.0,84.8L309.4,84.8L308.0,83.43L309.4,81.8L309.6,80.0L308.2,77.6L305.6,75.2L303.8,75.2L302.2,75.6L301.4,74.8L301.6,73.4L302.9,72.07L299.26,69.57L295.6,67.4L294.4,68.4L293.0,68.6L290.2,66.4L290.0,64.8L291.4,63.0L295.0,63.2L295.2,62.2L294.2,60.0L294.2,59.0L296.51,58.17L296.31,56.99L293.4,56.2L292.0,56.8L291.4,58.2L289.6,57.8L288.4,56.6L288.0,55.4L284.2,51.8L284.0,50.8L282.8,50.2L281.4,50.2L280.2,50.2L279.2,51.4L277.6,51.2L275.8,52.2L274.8,51.6L275.0,49.2L276.4,48.2L278.0,47.6L278.0,46.0L279.2,45.0L275.9,43.83L273.2,41.4L272.6,40.2L271.4,39.2L270.0,40.0L267.4,41.2L266.6,40.6L266.4,38.6L263.8,38.3L261.2,36.6L259.6,36.4L256.6,35.6L252.4,33.2L249.2,32.0L246.0,32.0L241.4,32.4L239.4,32.6L235.2,34.53L236.0,36.4L235.74,38.1L233.67,38.14L232.2,35.8L229.8,35.6L227.8,35.6L225.6,34.6L226.2,33.2L224.0,32.2L221.8,31.6L220.2,31.6L218.2,31.8L215.6,31.8L214.0,31.4L212.6,31.0L211.0,29.8L209.0,29.0L207.8,27.4L206.8,26.0L205.8,24.8L204.4,23.8L203.17,22.83L202.0,21.67L200.83,21.83L199.33,21.83L198.0,22.67L197.17,23.0L196.17,23.33L195.0,22.5L194.0,21.67L193.67,20.83L192.67,20.33L191.67,20.5L190.5,20.17L189.67,19.17L188.83,18.17L186.5,17.17L183.83,15.67L182.0,14.83L180.67,15.17L178.0,14.83L176.17,14.67L174.5,14.67L173.0,13.33L170.83,11.83L169.33,11.5L168.33,12.0L167.67,13.67L166.83,14.33L165.67,13.83L166.67,12.67L166.33,11.5L165.17,11.0L164.33,11.33L163.5,12.33L164.17,13.67L163.33,14.17L161.67,12.5L159.67,12.33L157.33,11.83L155.33,11.17L153.67,11.0L152.17,11.0L150.33,11.33L149.0,12.5L147.83,13.67L146.33,14.17L144.67,14.5L143.33,14.17L141.5,14.0L136.5,15.5L134.83,15.83L132.67,17.0L130.5,17.0L128.5,17.0L126.33,16.67L119.0,16.83L117.67,16.83L115.5,17.17L114.33,17.33L112.5,16.83L111.17,17.83L109.0,17.5L107.17,16.67L105.5,14.67L103.83,14.67L101.33,16.17L99.5,16.5L95.83,16.33L93.17,18.83L89.67,19.0L85.0,18.83L84.0,19.17L81.5,18.83L79.83,19.17L77.17,20.0L74.67,21.17L72.0,21.0L70.17,21.67L66.67,23.0L64.83,23.67L62.17,24.0L62.0,25.0L63.0,25.0L63.67,26.33L65.67,26.67L67.0,28.67L69.0,28.67L70.17,29.5L70.67,31.83L69.33,32.67L70.33,34.0L72.33,35.33L74.17,35.33L75.83,37.33L75.67,38.83L77.83,40.33L76.5,42.33L75.67,43.5L74.5,44.0L73.0,44.0L72.0,45.0L71.0,47.67L69.83,49.5L67.83,50.17L67.17,50.83L67.0,52.0L67.5,52.83L66.33,54.33L64.33,55.5L62.5,57.0L60.67,57.67L59.67,59.5L57.67,61.0L55.83,62.5L51.83,63.33L50.83,64.67L49.0,65.67L48.33,66.5L47.17,67.0L46.17,68.0L47.5,68.83L49.0,68.67L50.5,68.5L51.33,69.17L52.17,69.33L53.33,70.67L54.33,71.5L56.0,71.83L57.0,73.33L59.0,74.33L61.17,74.67L62.5,75.67L63.83,76.0L65.0,76.17L66.67,77.17L68.83,76.5L69.83,77.17L70.17,78.33L70.17,80.0L71.17,80.83L72.33,82.0L73.17,84.17L75.0,84.67L77.17,85.5L79.0,86.33L80.5,86.0L83.33,86.17L84.67,85.33L84.67,84.17L85.83,83.67L86.83,82.5L88.67,81.0L89.67,79.67L89.67,78.5L91.67,78.17L92.17,76.83L94.33,74.67L94.33,73.0L95.0,72.67L96.0,74.17L97.67,75.17L98.83,75.0L100.0,75.17L101.33,75.17L102.83,74.67L103.33,75.5L104.0,77.33L104.83,78.5L106.17,78.83L107.17,79.67L108.0,80.5L109.67,80.0L110.67,81.5L111.83,82.33L111.17,83.33L111.67,84.83L113.33,86.0L114.83,86.33L116.33,86.5L118.33,87.17L120.17,86.83L121.0,86.17L122.17,86.83L123.66,87.83L126.5,87.17L127.5,88.17L126.0,89.17L126.67,90.33L126.67,91.83L126.0,92.5L125.0,94.0L119.83,94.83L120.33,96.17L120.33,97.33L119.17,98.17L119.83,99.0L120.67,99.0L121.5,101.0L121.33,102.67L122.17,103.67L123.67,104.17L124.17,105.83L124.33,107.17L123.5,108.67L124.5,110.0L125.33,111.0L125.0,112.17L126.5,114.67L126.67,115.83L126.0,117.0L126.83,118.33L126.83,119.33L129.17,122.33L129.17,123.33L131.17,124.5L130.0,126.17L132.67,128.17L132.67,129.0L131.17,129.5L132.83,131.5L131.67,132.67L132.5,134.0L134.0,134.67L133.17,135.5L134.33,136.33L135.5,136.33L136.5,137.67L136.5,138.83L138.83,142.0L140.17,141.5L141.67,141.5L143.33,141.83L145.0,142.67L146.33,142.5L147.67,143.33L149.33,143.5L151.17,145.0L152.67,145.5L154.17,144.83L156.0,144.17L157.5,144.67L159.0,144.0L161.17,144.17L162.0,143.33L165.0,143.33L166.5,144.67L167.0,146.83L167.17,149.5L166.67,151.0L166.5,152.83L169.0,154.67L172.33,154.67L174.67,155.67L174.0,158.0L177.0,162.0L177.67,164.33L178.33,166.33L178.67,168.33L182.33,168.0L181.33,170.33L182.0,172.67L185.67,174.0L187.33,176.67L189.67,179.0L190.33,181.0L191.67,184.33L187.33,184.67L186.33,186.67L188.67,188.0L188.13,190.27L186.13,191.73L182.6,193.33L180.33,191.33L178.33,188.0L176.33,189.67L175.33,193.0L176.33,194.67L176.33,196.67L178.67,198.67L180.0,200.0L179.67,202.0L181.67,202.67L183.33,204.67L186.67,203.67L190.33,203.67L194.33,202.67L197.0,203.67L201.33,203.33L202.33,205.67L205.0,205.67L208.33,203.67L206.67,200.33L205.67,197.33L206.33,195.33L208.67,195.0L210.0,192.67L211.33,191.0L214.67,194.67L218.67,195.33L224.0,197.0L227.67,197.33L229.67,197.33L232.33,196.33L234.33,197.33L238.33,199.33L240.33,201.0L241.67,203.33L244.33,204.33L246.33,204.67L249.0,207.0L251.0,206.0L255.0,207.0L257.0,208.0L259.67,208.0Z" />
		<path id="L1611112412877" name="黑河市" class="qing-map-1616123796085" d="M422.38,237.5L421.38,237.63L420.13,238.25L419.0,238.38L414.38,238.38L413.5,238.5L413.13,239.38L411.88,240.88L410.88,240.88L409.63,240.25L408.88,240.0L407.63,239.88L406.88,239.88L405.75,240.38L404.75,241.0L403.75,241.0L402.75,240.88L401.5,240.63L400.25,240.5L398.13,240.25L395.63,239.25L394.0,238.38L392.88,238.38L392.13,238.0L391.25,238.0L389.88,239.0L388.75,238.63L387.0,238.25L384.38,237.88L382.13,236.0L381.13,235.25L379.88,234.75L379.38,234.38L377.75,232.5L377.5,228.75L376.63,228.13L375.13,227.63L374.13,227.63L372.13,227.38L370.13,225.38L369.88,223.0L370.88,220.25L370.75,219.0L370.0,218.13L368.25,216.38L368.5,212.63L369.75,210.75L371.25,209.63L372.25,208.5L373.0,207.0L373.75,205.38L373.63,202.63L372.5,202.0L370.5,201.5L368.88,201.38L367.5,201.0L365.13,200.25L362.75,199.88L361.63,198.75L359.88,196.75L359.75,195.5L360.88,194.63L361.5,193.5L361.5,190.88L359.75,190.5L358.25,190.0L358.0,188.5L358.75,188.13L359.0,186.75L361.38,184.88L361.63,182.5L360.13,180.88L358.25,179.0L357.75,178.0L357.5,176.0L358.25,174.5L358.25,173.38L357.13,173.25L355.88,172.75L354.5,171.63L353.63,170.25L352.88,168.75L351.75,166.88L350.5,165.5L349.5,164.0L348.13,163.0L346.13,161.88L344.6,160.6L343.2,162.0L342.8,163.8L339.2,163.8L337.0,164.8L332.0,164.6L328.0,165.0L326.2,164.4L324.6,165.2L322.6,164.8L316.0,164.8L314.4,163.4L312.8,163.2L308.2,160.2L305.4,160.0L303.4,160.0L300.8,161.2L299.0,160.6L298.2,161.8L297.8,163.4L296.4,164.2L292.2,164.0L291.2,165.8L289.2,165.8L288.4,167.8L287.4,169.2L286.2,169.4L285.6,170.6L284.2,172.0L283.2,173.0L281.6,172.4L280.2,173.2L281.4,175.0L282.8,176.8L281.4,178.0L281.4,179.8L282.4,181.2L282.6,182.6L283.2,184.4L282.2,185.4L280.8,185.6L280.0,187.0L278.4,186.6L277.4,187.4L276.2,188.2L274.4,189.4L272.8,190.6L271.2,190.4L269.6,191.0L270.6,192.8L269.0,192.8L267.8,192.6L267.6,194.6L267.6,196.0L267.2,197.6L264.4,199.2L264.4,200.4L263.4,201.2L263.2,202.4L262.6,204.2L260.6,204.6L260.0,205.8L258.6,206.4L259.67,208.0L257.0,208.0L254.33,210.0L255.5,210.17L255.33,211.17L257.75,212.43L257.25,213.33L254.33,212.84L256.42,214.67L254.5,216.0L253.5,216.0L252.67,218.29L250.5,217.83L251.83,219.5L252.0,220.5L253.38,222.63L252.2,223.05L253.04,223.58L252.8,224.92L250.17,225.0L252.33,226.67L252.5,228.63L251.5,229.75L252.5,230.75L252.0,231.38L252.13,233.25L251.13,234.75L247.75,233.75L247.13,234.13L248.13,236.0L249.0,236.13L249.5,236.0L250.75,237.25L252.25,237.75L252.88,238.38L253.0,240.88L251.88,241.13L252.63,242.63L252.5,243.63L254.38,245.0L254.75,245.63L254.13,246.25L254.0,248.63L255.0,249.5L254.38,250.38L254.13,251.25L254.38,252.5L252.0,255.13L252.63,255.5L251.75,256.88L252.75,257.5L252.25,258.5L251.88,259.25L251.88,260.13L250.88,260.5L250.0,260.38L249.5,261.13L248.88,262.25L247.88,262.5L246.75,263.38L244.13,263.0L242.5,262.13L242.13,261.25L241.0,260.88L239.75,261.5L238.13,261.5L236.13,260.5L234.75,261.0L233.75,261.25L233.38,262.25L233.0,263.0L231.13,264.0L232.13,266.0L231.5,266.75L231.63,268.0L230.5,269.75L229.38,270.63L228.75,271.5L228.25,272.38L228.0,273.38L227.88,274.38L230.38,274.0L231.63,274.0L232.88,274.88L234.0,275.38L235.38,275.63L238.13,275.88L239.63,276.25L241.75,276.38L241.75,277.63L241.63,278.5L241.5,279.13L240.5,280.38L241.88,281.13L242.5,281.63L242.88,282.5L243.13,283.63L244.0,284.38L245.5,284.0L246.75,284.63L248.0,285.0L250.0,284.75L251.25,284.75L252.5,285.5L253.75,285.13L255.75,285.25L261.38,281.63L263.5,281.75L264.38,281.25L264.75,279.75L265.88,279.13L267.38,278.0L271.75,276.75L272.75,276.88L273.0,277.88L276.25,280.5L277.38,280.88L279.0,280.38L280.13,280.13L281.25,279.63L281.75,278.5L282.5,278.0L283.5,277.75L284.25,278.63L285.13,279.5L287.63,281.25L288.88,281.88L290.38,282.63L291.38,283.38L292.0,284.38L292.0,285.0L291.25,285.88L290.13,285.88L286.0,287.17L285.88,287.75L285.63,288.5L286.13,289.63L285.13,290.25L284.25,291.0L283.13,291.63L282.13,291.75L279.0,291.88L277.5,291.38L277.13,292.63L277.0,294.13L281.38,294.25L281.63,295.5L281.75,297.38L281.75,299.63L282.38,301.63L283.0,303.38L283.88,304.63L285.13,305.25L286.63,305.75L288.13,305.88L289.0,305.88L289.13,307.0L290.5,307.63L291.63,307.63L292.75,308.13L294.5,308.88L296.75,308.75L298.88,308.63L300.13,308.5L302.0,309.25L303.75,308.88L305.13,309.0L308.25,311.25L308.63,312.25L308.38,313.13L308.13,313.88L309.0,314.63L311.13,313.5L313.0,313.75L314.63,313.5L316.13,313.13L318.0,312.38L319.63,312.13L321.13,312.5L322.25,313.5L322.25,314.5L323.0,315.38L325.63,316.63L325.63,317.13L323.88,317.63L323.63,318.38L322.88,319.25L322.88,320.38L323.75,322.25L323.88,323.88L324.13,325.75L323.75,326.63L322.5,327.63L321.63,328.63L321.13,329.63L321.0,330.75L322.25,332.25L322.38,333.0L321.38,334.13L320.75,335.0L320.75,336.13L321.0,337.38L321.13,338.25L318.25,338.38L318.63,339.88L318.63,341.38L318.63,342.88L318.63,344.38L319.38,345.5L319.83,346.83L320.5,345.88L321.63,345.25L321.75,343.63L323.5,342.5L326.5,341.38L328.5,340.0L328.63,339.13L329.88,338.38L331.38,338.25L332.75,338.13L334.5,337.5L336.25,338.13L337.63,338.5L339.0,338.88L340.25,338.88L341.75,338.75L343.25,338.0L344.63,337.5L346.13,336.88L347.5,336.5L348.88,335.88L350.75,335.5L353.25,335.63L355.0,335.63L356.5,335.88L357.88,335.13L360.25,335.13L361.75,335.38L363.5,335.5L364.88,334.75L366.88,334.13L369.13,333.13L370.75,333.0L372.5,333.0L374.75,332.63L376.13,332.63L377.25,333.13L377.5,334.38L378.63,335.38L380.25,334.75L381.75,333.63L382.0,332.63L384.0,331.75L384.25,329.38L384.88,328.63L386.75,328.38L386.75,327.25L388.88,326.25L389.0,325.25L388.13,324.0L388.5,323.13L387.5,321.88L388.0,321.0L390.25,320.13L392.13,319.5L393.5,319.38L395.13,320.0L396.75,320.0L398.13,320.38L400.0,319.38L401.38,319.5L403.0,318.75L403.13,317.38L405.0,316.75L406.25,316.88L408.63,315.63L409.63,316.0L411.13,315.88L412.63,315.13L412.0,313.75L412.13,312.38L412.75,310.88L413.88,309.88L414.75,309.38L414.13,307.75L416.13,306.63L417.0,305.13L417.88,304.25L419.25,304.0L421.0,304.0L422.5,303.5L424.13,303.13L425.75,302.88L427.25,302.38L428.88,301.63L430.63,302.25L432.5,302.38L433.13,303.5L433.25,305.88L434.13,307.75L435.5,309.5L437.13,310.63L438.0,309.63L439.5,309.13L441.0,308.88L440.25,306.88L441.5,306.13L441.25,304.38L442.0,303.13L443.25,302.5L444.13,301.75L443.25,301.0L444.5,299.88L445.13,298.13L445.13,296.38L445.5,295.25L447.13,293.5L449.0,292.88L449.38,291.63L451.63,291.5L453.0,291.13L455.0,290.88L455.25,289.25L456.63,287.75L453.63,284.38L454.5,283.63L456.25,283.25L457.5,283.88L458.75,283.38L458.5,282.38L459.75,281.5L461.13,281.0L463.5,281.0L464.75,280.5L465.88,280.63L467.13,280.75L468.25,279.88L469.13,278.75L470.38,278.13L471.25,276.88L471.75,275.5L471.5,274.13L469.38,273.0L468.13,271.63L468.0,270.38L468.13,268.88L467.0,267.88L465.25,267.63L463.0,267.63L460.5,267.5L458.75,267.0L457.25,265.25L457.5,260.75L456.63,259.25L455.5,257.75L454.38,255.75L454.38,253.38L455.63,251.5L457.75,250.0L459.88,250.25L458.13,248.5L455.63,248.5L454.75,249.0L451.88,251.13L450.25,251.13L448.63,250.5L447.88,249.38L447.38,247.88L446.5,246.25L445.13,245.25L442.13,245.38L440.13,244.13L438.75,243.75L437.5,243.75L436.38,244.0L435.38,244.5L434.5,244.63L433.5,244.63L432.5,244.0L432.38,243.25L432.88,242.25L435.0,240.5L434.88,239.0L433.88,238.63L433.38,238.13L431.88,238.13L431.38,239.25L430.0,239.25L428.38,239.13L426.0,238.37Z" />
		<path id="L1611120450676" name="齐齐哈尔市" class="qing-map-1616123796085" d="M227.88,274.38L230.38,274.0L231.63,274.0L232.88,274.88L234.0,275.38L235.38,275.63L238.13,275.88L239.63,276.25L241.75,276.38L241.75,277.63L241.5,279.13L240.5,280.38L241.88,281.13L242.5,281.63L242.88,282.5L243.13,283.63L244.0,284.38L245.5,284.0L246.75,284.63L248.0,285.0L250.0,284.75L251.25,284.75L252.5,285.5L253.75,285.13L255.75,285.25L261.38,281.63L263.5,281.75L264.38,281.25L264.75,279.75L265.88,279.13L267.38,278.0L271.75,276.75L272.75,276.88L273.0,277.88L276.25,280.5L277.38,280.88L279.0,280.38L280.13,280.13L281.25,279.63L281.75,278.5L282.5,278.0L283.5,277.75L284.25,278.63L285.13,279.5L287.63,281.25L288.88,281.88L290.38,282.63L291.38,283.38L292.0,284.38L292.0,285.0L291.25,285.88L290.13,285.88L286.0,287.17L285.88,287.75L285.63,288.5L286.13,289.63L285.13,290.25L284.25,291.0L283.13,291.63L282.13,291.75L279.0,291.88L277.5,291.38L277.13,292.63L277.0,294.13L281.38,294.25L281.63,295.5L281.75,297.38L281.75,299.63L282.38,301.63L283.0,303.38L283.88,304.63L285.13,305.25L286.63,305.75L288.13,305.88L289.0,305.88L289.13,307.0L290.5,307.63L291.63,307.63L292.75,308.13L294.5,308.88L296.75,308.75L298.88,308.63L300.13,308.5L302.0,309.25L303.75,308.88L305.13,309.0L308.25,311.25L308.63,312.25L308.38,313.13L308.13,313.88L309.0,314.63L311.13,313.5L313.0,313.75L314.63,313.5L316.13,313.13L318.0,312.38L319.63,312.13L321.13,312.5L322.25,313.5L322.25,314.5L323.0,315.38L325.63,316.63L325.63,317.13L323.88,317.63L323.63,318.38L322.88,319.25L322.88,320.38L323.75,322.25L323.88,323.88L324.13,325.75L323.75,326.63L322.5,327.63L321.63,328.63L321.13,329.63L321.0,330.75L322.25,332.25L322.38,333.0L321.38,334.13L320.75,335.0L320.75,336.13L321.0,337.38L321.13,338.25L318.25,338.38L318.63,339.88L318.63,341.38L318.63,342.88L318.63,344.38L319.38,345.5L319.83,346.83L319.5,349.17L318.5,350.67L317.83,352.33L316.67,354.0L315.0,355.33L314.67,356.5L260.67,361.67L258.17,361.17L257.17,359.17L256.83,356.67L249.83,356.67L249.0,356.0L246.17,356.0L244.83,355.33L243.33,352.17L241.83,351.83L238.0,352.83L236.17,353.67L234.67,354.67L232.5,354.67L231.67,355.67L231.0,356.5L229.0,357.67L226.33,358.33L224.5,359.33L223.0,360.17L221.17,360.0L219.5,359.0L217.5,358.67L215.17,358.67L214.0,357.83L211.83,358.17L211.83,359.83L210.5,361.0L210.5,362.17L209.83,363.33L211.33,364.5L211.0,366.67L207.5,369.33L205.33,369.33L201.0,369.33L199.67,370.0L197.17,371.67L195.67,372.67L193.67,373.67L194.5,375.5L192.67,376.0L190.83,376.0L190.0,377.0L190.0,378.5L189.0,379.83L187.83,380.67L187.0,381.83L186.17,383.67L187.0,385.33L188.17,386.0L189.33,386.67L189.0,388.0L189.83,389.33L188.83,390.83L187.33,391.0L185.83,391.5L184.0,392.67L182.5,392.17L182.5,390.17L180.67,389.83L177.67,389.67L178.67,390.83L177.33,392.17L178.0,393.83L177.33,395.17L180.17,397.5L180.67,399.17L179.67,400.67L180.67,402.33L180.17,403.17L181.0,403.83L180.5,404.5L182.0,406.0L182.0,408.83L182.67,410.33L182.17,411.83L181.67,412.83L179.67,413.67L178.33,414.5L176.67,414.5L175.0,415.17L173.0,414.83L169.67,415.17L168.83,415.83L167.17,416.33L165.83,416.0L164.0,414.67L162.0,416.17L160.67,415.83L159.5,415.83L158.67,416.0L158.0,416.33L154.83,415.33L153.17,415.5L152.67,414.5L150.67,414.17L149.67,414.33L147.17,415.67L146.33,414.17L144.83,411.67L141.83,408.5L139.17,405.67L139.17,402.5L138.83,398.83L140.83,398.17L141.17,396.5L142.0,396.33L142.5,397.83L143.33,397.33L147.33,396.67L149.33,397.83L150.83,397.67L151.33,396.67L152.5,397.0L153.33,396.33L152.17,394.33L154.83,394.0L157.5,393.5L160.83,393.17L163.83,392.83L169.16,392.83L170.83,390.33L171.0,386.67L168.66,385.66L170.33,384.67L169.5,383.67L169.17,382.33L168.0,382.0L167.83,382.83L167.5,384.17L167.17,385.67L164.0,385.5L163.0,384.33L165.33,380.33L165.33,378.83L163.17,379.0L161.83,379.5L160.83,379.67L159.33,379.83L157.17,377.83L153.67,376.67L154.0,378.33L156.0,378.0L159.17,380.67L158.5,383.0L157.67,384.67L156.67,385.33L155.33,384.67L153.67,383.5L150.17,384.0L149.5,385.0L149.83,385.83L148.5,386.67L148.0,388.0L147.83,389.5L145.83,390.17L140.67,390.5L139.67,391.0L138.5,390.33L137.83,389.17L136.67,388.17L135.17,387.83L134.5,386.83L133.5,385.67L133.33,384.0L132.67,382.67L133.17,381.33L133.33,380.17L133.17,378.83L132.0,378.83L130.83,379.33L128.33,379.67L128.0,378.33L127.33,377.17L127.5,376.0L131.0,373.83L130.83,372.83L129.83,372.83L129.0,372.83L127.5,372.33L123.83,372.17L121.67,371.33L120.0,370.33L119.0,370.0L118.33,368.83L116.67,368.33L115.0,365.5L112.83,363.0L111.17,362.0L110.33,360.5L109.33,359.0L109.17,358.17L111.17,356.83L113.33,355.5L113.83,354.33L114.33,353.0L115.17,351.17L116.5,349.33L117.5,348.17L119.17,347.5L122.67,346.33L124.83,345.17L128.5,343.17L131.17,341.5L133.67,340.33L137.5,339.0L141.5,337.17L145.33,336.17L147.33,335.33L149.83,333.33L152.0,330.33L153.67,327.17L154.67,326.33L157.17,326.0L162.0,324.33L166.33,322.83L169.17,320.83L172.33,318.0L175.17,315.5L178.0,312.5L179.83,311.83L183.33,309.17L185.83,307.0L190.0,303.67L194.17,300.67L196.5,299.67L198.67,298.67L202.67,295.67L204.0,295.83L205.17,296.67L205.0,298.17L204.83,299.5L206.17,300.33L206.0,301.33L205.33,302.5L206.0,302.83L205.67,304.0L206.5,305.17L206.33,306.0L207.0,306.33L207.0,307.33L208.17,308.67L209.33,309.33L210.5,310.0L210.67,310.83L211.17,311.83L210.67,312.83L211.0,313.67L212.17,314.33L213.17,314.5L213.33,315.5L213.17,316.5L211.83,317.0L211.67,317.83L211.0,319.33L212.83,318.67L213.83,317.83L215.0,317.33L216.33,316.0L216.17,314.17L217.0,313.33L218.33,312.33L218.17,311.0L219.0,310.17L218.5,309.17L219.17,307.5L217.33,305.83L217.83,305.17L216.5,303.67L216.5,302.33L216.5,301.33L216.0,300.33L217.83,299.33L217.67,298.17L217.33,296.67L217.83,295.33L216.67,294.67L217.67,293.5L219.0,292.83L219.67,291.83L219.67,291.17L220.67,290.67L220.5,289.0L221.83,286.83L221.5,284.0L222.83,282.33L223.0,281.17L223.0,280.33L223.17,279.5L224.83,278.83L225.83,277.67L226.5,277.0L226.0,275.67L226.5,275.0Z" />
		<path id="L1611121632692" name="大庆市" class="qing-map-1616123796085" d="M196.38,446.88L196.88,446.0L197.38,445.13L196.13,445.13L196.88,444.25L194.88,443.25L194.75,441.88L192.88,441.0L190.63,440.75L190.13,439.63L191.88,439.0L193.25,438.38L191.5,437.0L191.88,436.5L193.24,436.13L192.88,434.5L192.13,433.88L190.5,433.38L189.0,432.13L188.5,431.25L188.38,429.75L189.88,429.0L190.13,428.13L189.63,427.38L190.38,427.13L191.38,427.13L191.75,426.38L191.0,425.5L190.38,425.13L190.13,424.63L190.38,424.0L189.88,423.13L189.88,422.38L190.13,421.75L189.0,421.0L190.0,420.13L189.38,419.5L188.63,419.63L188.0,419.25L188.25,418.5L187.5,417.88L188.38,416.88L187.5,415.88L187.13,415.13L187.75,414.13L187.25,413.25L186.5,413.5L185.75,414.63L184.75,414.5L184.88,413.25L184.13,412.75L183.38,412.75L182.17,411.83L182.67,410.33L182.0,408.83L182.0,406.0L180.5,404.5L181.0,403.83L180.17,403.17L180.67,402.33L179.67,400.67L180.67,399.17L180.17,397.5L177.33,395.17L178.0,393.83L177.33,392.17L178.67,390.83L177.67,389.67L180.67,389.83L182.5,390.17L182.5,392.17L184.0,392.67L185.83,391.5L187.33,391.0L188.83,390.83L189.83,389.33L189.0,388.0L189.33,386.67L188.17,386.0L187.0,385.33L186.17,383.67L187.0,381.83L187.83,380.67L189.0,379.83L190.0,378.5L190.0,377.0L190.83,376.0L192.67,376.0L194.5,375.5L193.67,373.67L195.67,372.67L197.17,371.67L199.67,370.0L201.0,369.33L205.33,369.33L207.5,369.33L211.0,366.67L211.33,364.5L209.83,363.33L210.5,362.17L210.5,361.0L211.83,359.83L211.83,358.17L214.0,357.83L215.17,358.67L217.5,358.67L219.5,359.0L221.17,360.0L223.0,360.17L224.5,359.33L226.33,358.33L229.0,357.67L231.0,356.5L231.67,355.67L232.5,354.67L234.67,354.67L236.17,353.67L238.0,352.83L241.83,351.83L243.33,352.17L244.83,355.33L246.17,356.0L249.0,356.0L249.83,356.67L256.83,356.67L257.17,359.17L258.17,361.17L257.5,368.17L255.33,371.5L256.67,374.67L253.33,378.33L252.17,379.17L249.17,384.33L250.5,386.0L248.33,389.0L249.67,389.67L252.0,391.17L254.5,393.5L254.33,394.33L250.5,394.33L252.83,397.17L253.33,398.83L254.0,400.33L253.67,401.67L252.0,401.17L249.5,401.0L251.17,402.67L253.0,402.83L254.33,403.17L253.33,404.67L254.33,405.5L253.17,406.5L252.0,406.33L250.67,406.67L249.17,406.0L248.17,404.83L249.83,403.5L248.0,403.33L246.0,403.5L244.33,402.83L243.17,403.67L242.83,404.83L240.83,405.83L242.17,406.83L242.67,408.17L242.17,409.5L241.67,410.17L243.0,410.67L243.67,411.83L243.67,413.33L243.0,415.0L241.17,415.33L239.5,415.5L239.0,416.83L237.5,417.33L236.5,418.33L236.0,420.17L236.67,421.17L237.17,422.5L236.67,423.17L235.25,424.45L236.54,425.62L239.0,424.5L241.67,424.33L243.33,424.5L244.33,424.33L244.33,425.17L245.67,425.5L245.67,426.67L247.0,426.17L248.5,425.83L248.67,424.33L250.5,423.67L252.0,422.67L251.67,421.0L248.83,421.5L247.67,420.0L245.33,419.33L245.0,417.17L246.17,417.0L247.0,418.0L248.67,418.17L250.67,418.83L251.67,419.33L252.83,420.5L254.0,420.17L255.33,421.17L258.83,420.83L262.0,433.33L262.83,434.17L276.17,433.0L276.83,436.17L277.33,437.67L278.33,438.17L281.0,438.33L280.83,439.33L279.0,439.67L277.33,440.17L278.0,441.0L279.17,441.17L281.67,443.5L281.0,444.5L279.5,444.0L278.0,444.5L277.67,445.5L278.33,446.67L279.33,447.5L279.0,448.67L279.0,449.83L279.17,451.17L279.0,452.17L277.5,452.83L276.17,452.83L274.0,453.0L272.5,452.5L270.5,453.83L268.67,454.33L266.83,455.0L265.5,455.0L264.5,454.33L262.5,454.5L262.5,455.67L260.83,457.83L259.0,459.0L257.0,457.83L255.67,458.5L253.67,457.67L251.0,458.5L247.83,458.17L246.17,459.17L244.83,459.5L243.83,458.67L244.67,457.67L243.0,457.0L241.83,454.0L239.83,453.83L237.67,453.67L237.5,452.5L236.67,451.67L235.83,452.83L234.67,454.33L235.0,455.83L234.0,456.67L232.17,455.83L231.0,456.5L229.5,456.5L229.33,455.5L228.0,455.33L227.0,456.33L224.5,456.17L223.5,456.5L221.83,456.83L219.5,456.0L219.33,457.0L218.33,458.17L217.17,457.67L215.17,457.33L213.67,455.83L210.67,456.67L209.17,456.0L207.83,453.83L208.33,452.33L207.83,451.5L204.67,451.67L203.0,450.5L203.33,449.5L202.17,449.0L201.17,448.33L201.5,447.5L200.83,446.83L199.33,447.5L198.17,447.67Z" />
		<path id="L1611122382829" name="绥化市" class="qing-map-1616123796085" d="M279.0,452.17L279.17,451.17L279.0,449.83L279.0,448.67L279.33,447.5L278.33,446.67L277.67,445.5L278.0,444.5L279.5,444.0L281.0,444.5L281.67,443.5L279.17,441.17L278.0,441.0L277.33,440.17L279.0,439.67L280.83,439.33L281.0,438.33L278.33,438.17L277.33,437.67L276.83,436.17L276.17,433.0L262.83,434.17L262.0,433.33L258.83,420.83L255.33,421.17L254.0,420.17L252.83,420.5L251.67,419.33L250.67,418.83L248.67,418.17L247.0,418.0L246.17,417.0L245.0,417.17L245.33,419.33L247.67,420.0L248.83,421.5L251.67,421.0L252.0,422.67L250.5,423.67L248.67,424.33L248.5,425.83L247.0,426.17L245.67,426.67L245.67,425.5L244.33,425.17L244.33,424.33L243.33,424.5L241.67,424.33L239.0,424.5L236.54,425.62L235.25,424.45L236.67,423.17L237.17,422.5L236.67,421.17L236.0,420.17L236.5,418.33L237.5,417.33L239.0,416.83L239.5,415.5L241.17,415.33L243.0,415.0L243.67,413.33L243.67,411.83L243.0,410.67L241.67,410.17L242.17,409.5L242.67,408.17L242.17,406.83L240.83,405.83L242.83,404.83L243.17,403.67L244.33,402.83L246.0,403.5L248.0,403.33L249.83,403.5L248.17,404.83L249.17,406.0L250.67,406.67L252.0,406.33L253.17,406.5L254.33,405.5L253.33,404.67L254.33,403.17L253.0,402.83L251.17,402.67L249.5,401.0L252.0,401.17L253.67,401.67L254.0,400.33L253.33,398.83L252.83,397.17L250.5,394.33L254.33,394.33L254.5,393.5L252.0,391.17L249.67,389.67L248.33,389.0L250.5,386.0L249.17,384.33L252.17,379.17L253.33,378.33L256.67,374.67L255.33,371.5L257.5,368.17L258.17,361.17L260.67,361.67L314.67,356.5L315.0,355.33L316.67,354.0L317.83,352.33L318.5,350.67L319.5,349.17L319.83,346.83L320.5,345.88L321.63,345.25L321.75,343.63L323.5,342.5L326.5,341.38L328.5,340.0L328.63,339.13L329.88,338.38L331.38,338.25L332.75,338.13L334.5,337.5L336.25,338.13L337.63,338.5L339.0,338.88L340.25,338.88L341.75,338.75L343.25,338.0L344.63,337.5L346.13,336.88L347.5,336.5L348.88,335.88L350.75,335.5L353.25,335.63L355.0,335.63L356.5,335.88L357.88,335.13L360.25,335.13L361.75,335.38L363.5,335.5L364.88,334.75L366.88,334.13L369.13,333.13L370.75,333.0L372.5,333.0L374.75,332.63L376.13,332.63L377.25,333.13L377.5,334.38L378.63,335.38L380.25,334.75L381.75,333.63L382.0,332.63L384.0,331.75L384.25,329.38L384.88,328.63L386.75,328.38L386.75,327.25L388.88,326.25L389.0,325.25L388.13,324.0L388.5,323.13L387.5,321.88L388.0,321.0L390.25,320.13L392.13,319.5L393.5,319.38L395.13,320.0L396.75,320.0L398.13,320.38L400.0,319.38L401.38,319.5L402.5,320.63L402.0,322.38L402.38,323.88L402.0,326.25L402.38,327.0L404.13,326.75L405.38,326.88L407.13,328.0L408.5,327.88L410.0,328.38L411.13,329.5L412.0,331.13L411.88,332.38L410.5,332.75L409.38,332.75L408.25,333.5L408.38,334.38L407.63,335.75L407.75,336.63L409.63,337.5L410.75,338.0L410.5,338.88L409.13,340.0L409.25,340.88L408.0,342.25L408.88,343.63L408.88,344.75L407.38,345.5L406.88,346.38L406.75,347.38L406.0,348.38L407.0,349.13L409.13,350.13L409.63,351.38L411.63,352.38L411.75,354.0L413.75,355.5L415.88,355.75L417.25,356.25L417.13,357.88L418.0,358.5L421.63,354.88L422.0,356.13L421.88,357.5L419.75,359.25L419.75,361.0L419.63,362.5L418.25,364.13L417.13,364.88L414.5,365.88L412.0,366.88L412.38,367.88L411.5,368.25L410.25,368.13L409.13,368.25L407.38,369.38L406.75,370.25L406.13,371.0L404.25,371.13L402.38,371.5L400.5,372.5L398.88,372.5L397.0,371.88L395.25,372.38L392.5,371.38L391.25,372.25L390.88,372.88L389.13,372.63L387.75,372.13L386.88,372.63L385.75,373.13L384.13,373.25L383.13,374.38L382.25,375.13L381.0,375.63L379.5,376.0L378.13,376.13L376.63,376.13L375.25,376.75L376.13,377.38L377.38,377.75L378.13,378.5L378.0,379.38L379.25,380.25L380.5,380.25L381.75,380.88L382.38,381.88L385.38,383.25L386.0,384.13L386.5,385.13L388.0,386.25L389.0,387.25L390.75,388.25L391.25,389.5L392.25,390.38L393.75,391.38L394.38,392.38L397.0,393.88L397.0,395.38L398.63,396.75L402.0,397.63L404.25,398.38L405.0,399.0L403.88,399.75L403.75,400.75L402.38,400.75L400.63,401.13L400.25,402.0L399.0,402.13L397.13,401.25L394.75,400.88L393.13,400.25L390.63,398.75L389.0,398.63L387.5,398.38L385.88,398.25L384.5,396.88L383.38,397.38L382.63,398.13L381.38,398.63L379.63,399.25L377.25,399.5L376.13,400.13L375.0,400.63L374.0,401.25L373.13,401.63L371.5,401.38L370.25,400.88L368.88,400.25L369.13,397.63L367.5,395.75L366.13,394.75L364.75,394.75L363.75,393.88L360.5,393.63L357.75,394.5L353.5,394.75L350.75,396.75L349.63,396.88L348.38,397.63L346.0,398.13L345.0,399.88L343.5,400.0L343.0,400.88L340.88,401.25L338.75,401.75L337.25,402.75L335.88,403.38L335.25,404.0L334.88,405.75L333.63,405.75L332.75,406.25L331.5,407.13L330.13,406.88L329.0,407.13L328.5,407.88L327.25,408.25L327.0,409.25L324.88,410.88L324.63,411.75L324.5,413.5L323.38,414.38L323.38,415.75L322.5,417.5L320.75,418.38L318.75,418.63L316.13,420.38L315.38,421.0L315.13,422.5L314.13,423.38L312.25,423.75L309.75,423.13L308.75,424.25L307.5,424.88L305.25,424.25L303.75,425.25L302.13,424.63L300.63,424.88L301.63,426.25L303.63,427.63L303.88,429.5L305.38,429.75L306.88,429.75L308.13,429.88L308.0,431.63L308.63,432.75L310.63,434.25L309.63,435.63L309.75,436.88L310.75,437.88L310.25,438.75L310.63,440.75L309.63,442.25L308.13,441.38L307.38,441.75L307.38,443.5L302.75,443.63L301.38,444.0L300.0,443.75L298.5,444.63L294.63,443.0L293.5,443.0L292.5,443.13L291.5,445.13L291.63,446.75L288.63,446.88L289.0,449.0L286.75,450.63L284.88,452.63L283.5,452.75L281.38,453.13L280.0,452.88Z" />
		<path id="L1611123154803" name="哈尔滨市" class="qing-map-1616123796085" d="M276.17,452.83L277.5,452.83L279.0,452.17L280.0,452.88L281.38,453.13L283.5,452.75L284.88,452.63L286.75,450.63L289.0,449.0L288.63,446.88L291.63,446.75L291.5,445.13L292.5,443.13L293.5,443.0L294.63,443.0L298.5,444.63L300.0,443.75L301.38,444.0L302.75,443.63L307.38,443.5L307.38,441.75L308.13,441.38L309.63,442.25L310.63,440.75L310.25,438.75L310.75,437.88L309.75,436.88L309.63,435.63L310.63,434.25L308.63,432.75L308.0,431.63L308.13,429.88L306.88,429.75L305.38,429.75L303.88,429.5L303.63,427.63L301.63,426.25L300.63,424.88L302.13,424.63L303.75,425.25L305.25,424.25L307.5,424.88L308.75,424.25L309.75,423.13L312.25,423.75L314.13,423.38L315.13,422.5L315.38,421.0L316.13,420.38L318.75,418.63L320.75,418.38L322.5,417.5L323.38,415.75L323.38,414.38L324.5,413.5L324.63,411.75L324.88,410.88L327.0,409.25L327.25,408.25L328.5,407.88L329.0,407.13L330.13,406.88L331.5,407.13L332.75,406.25L333.63,405.75L334.88,405.75L335.25,404.0L335.88,403.38L337.25,402.75L338.75,401.75L340.88,401.25L343.0,400.88L343.5,400.0L345.0,399.88L346.0,398.13L348.38,397.63L349.63,396.88L350.75,396.75L353.5,394.75L357.75,394.5L360.5,393.63L363.75,393.88L364.75,394.75L366.13,394.75L367.5,395.75L369.13,397.63L368.88,400.25L370.25,400.88L371.5,401.38L373.13,401.63L374.0,401.25L375.0,400.63L376.13,400.13L377.25,399.5L379.63,399.25L381.38,398.63L382.63,398.13L383.38,397.38L384.5,396.88L385.88,398.25L387.5,398.38L389.0,398.63L390.63,398.75L393.13,400.25L394.75,400.88L397.13,401.25L399.0,402.13L400.25,402.0L400.63,401.13L402.38,400.75L403.75,400.75L403.88,399.75L405.0,399.0L405.67,399.0L406.83,398.17L408.83,399.0L410.33,398.5L412.33,398.83L413.33,398.83L414.33,398.5L414.33,397.33L416.0,396.33L417.5,396.17L419.17,396.5L420.67,397.17L422.5,397.83L423.33,398.17L424.5,398.17L425.5,398.67L427.5,398.5L428.83,398.83L430.33,400.17L429.83,401.83L430.5,403.0L432.0,403.5L434.17,402.67L436.5,402.83L437.5,401.83L439.33,401.17L441.33,401.17L443.17,402.0L444.5,403.0L445.5,403.33L447.17,402.17L449.67,399.67L451.0,400.5L453.0,400.67L454.67,400.33L455.67,400.17L455.67,398.83L460.33,394.83L462.17,394.67L464.33,394.67L465.67,395.33L467.0,396.67L468.67,396.5L471.33,396.17L472.67,396.5L474.67,396.5L476.5,397.5L478.17,399.17L479.33,400.17L481.33,400.17L483.83,400.67L485.83,400.17L488.33,398.83L490.0,397.67L492.0,396.0L493.33,396.67L495.5,399.0L497.17,398.33L498.67,397.5L499.83,396.83L500.17,397.67L499.17,399.0L497.83,400.33L499.33,401.0L501.0,401.33L502.67,401.83L502.5,399.33L502.17,398.0L504.5,396.83L506.33,396.17L505.5,397.83L504.83,399.33L504.17,401.17L504.17,402.33L504.17,403.5L504.83,404.67L504.0,406.17L502.5,407.5L500.83,408.0L499.0,409.0L497.5,408.33L495.33,408.33L493.5,408.0L492.67,409.0L494.0,410.17L496.0,410.83L497.83,411.67L499.33,413.17L500.5,414.33L502.0,415.67L503.5,416.33L504.83,418.67L506.83,420.17L508.5,421.83L507.0,423.0L505.17,423.83L503.5,424.33L501.83,424.33L502.67,426.17L501.83,428.0L501.5,429.5L502.5,431.33L501.17,432.33L498.83,432.83L496.5,432.0L494.33,432.67L493.17,432.0L491.67,431.83L489.17,429.33L486.83,429.0L485.17,429.67L485.83,431.0L485.17,432.33L485.67,433.33L484.67,433.83L482.67,433.33L481.17,433.5L479.5,434.67L477.33,433.83L476.17,434.17L475.33,433.83L474.33,434.17L474.17,435.0L473.33,435.67L473.67,437.0L471.17,438.5L469.83,438.5L468.67,439.5L466.67,439.17L465.5,439.5L466.5,441.0L462.67,441.5L462.17,442.5L463.33,444.0L460.83,445.17L461.0,446.67L460.0,447.33L458.5,447.83L456.17,448.67L454.33,448.0L452.17,447.17L450.5,447.17L450.0,448.0L450.5,449.83L451.83,450.67L452.5,452.67L451.33,454.5L453.67,456.83L455.33,457.33L455.0,459.0L453.33,459.83L451.17,460.33L449.5,460.83L448.5,461.67L449.67,462.33L449.83,463.67L451.33,464.67L453.5,464.33L455.0,465.17L455.67,466.33L455.33,468.17L454.17,468.67L452.33,469.0L451.33,469.67L450.17,471.5L452.67,473.17L451.0,474.17L449.0,474.83L447.17,474.83L445.5,474.67L445.0,475.5L446.67,476.67L447.33,478.17L448.0,479.33L446.83,480.0L446.33,480.83L447.33,482.0L447.5,483.5L445.83,483.5L443.5,484.5L440.5,484.83L439.0,485.5L438.0,488.33L436.67,489.5L434.5,490.0L433.33,491.0L432.33,492.17L432.17,493.67L429.67,495.67L428.0,495.67L426.5,496.0L424.83,495.33L422.83,495.5L421.17,494.67L419.0,495.5L417.0,495.0L415.17,494.83L414.67,496.5L413.0,497.0L413.0,498.67L410.83,500.33L409.0,501.67L407.5,502.67L406.0,504.5L407.33,505.67L405.5,506.83L404.5,507.67L404.0,509.33L403.17,510.83L401.33,510.83L400.33,511.17L397.67,510.33L396.83,511.0L397.0,513.0L398.17,513.33L398.67,514.33L397.5,515.83L399.0,517.17L398.67,519.0L397.0,520.33L398.33,521.5L397.67,522.83L396.5,523.5L395.17,523.17L394.33,523.83L391.17,524.5L389.5,525.33L388.17,525.17L387.0,525.67L385.17,524.67L383.5,524.83L382.83,525.33L381.0,524.5L380.5,522.67L379.67,521.0L379.5,519.33L378.0,520.33L376.33,519.5L374.83,518.83L373.5,517.83L373.67,516.5L374.5,515.83L374.5,514.67L372.5,513.17L371.67,512.17L369.17,509.5L367.83,508.67L368.67,507.67L369.0,506.83L367.0,505.0L367.0,503.17L368.17,502.33L370.0,502.5L371.5,501.5L371.17,500.67L369.5,499.83L367.0,498.17L365.17,498.0L363.17,497.5L357.83,496.83L356.0,498.33L353.83,497.67L353.83,496.67L352.17,496.83L351.33,497.5L350.33,498.33L347.67,497.83L347.17,499.0L345.83,500.17L345.33,499.0L345.17,496.33L345.0,495.0L345.33,493.67L343.33,490.67L342.33,487.67L342.67,486.83L343.0,485.17L345.33,483.67L347.33,482.83L347.67,481.33L345.67,479.5L343.67,477.5L342.67,476.17L341.17,474.83L341.17,473.67L340.67,472.5L339.5,472.0L338.33,471.67L336.67,472.17L334.83,471.5L332.17,471.67L331.5,470.5L330.67,470.0L327.83,469.67L325.83,469.17L325.0,468.17L324.0,467.33L321.0,466.0L319.5,466.67L317.67,466.67L315.0,467.17L314.0,467.33L312.67,467.33L309.83,469.67L307.33,470.0L305.33,470.0L305.17,471.0L303.5,472.0L303.0,471.17L301.83,471.33L300.83,471.67L299.5,472.0L298.5,471.67L296.0,471.83L296.0,470.67L294.33,470.5L293.0,470.5L291.33,470.5L290.83,469.83L289.67,469.17L288.5,469.17L287.0,468.83L285.0,467.5L282.83,466.83L282.33,465.83L281.17,464.5L279.33,464.5L279.33,463.5L276.83,461.17L276.83,459.83L277.0,458.83L277.0,458.0L277.0,457.0L277.0,455.83L276.0,454.67L276.0,453.67Z" />
		<path id="L1611124125795" name="伊春市" class="qing-map-1616123796085" d="M525.33,287.17L526.5,284.17L527.83,281.83L530.0,279.67L531.0,278.33L530.5,277.0L528.67,276.67L526.5,277.67L524.33,278.33L521.67,277.83L520.0,276.0L518.83,275.5L516.5,275.83L513.33,276.33L511.33,277.17L509.67,277.67L508.0,277.33L506.17,275.67L503.33,273.83L500.83,272.33L499.0,271.67L497.0,269.5L494.0,268.5L492.5,267.83L492.0,266.33L492.83,265.5L491.67,264.83L489.83,264.33L488.5,263.67L489.0,261.83L488.33,260.5L485.0,260.5L483.5,259.0L483.67,256.33L481.0,254.5L478.83,254.33L477.0,255.0L474.83,254.83L473.5,252.83L472.67,248.5L471.33,247.5L467.33,246.33L465.67,246.67L464.5,247.83L464.67,249.5L463.67,250.67L462.17,251.0L459.88,250.25L457.75,250.0L455.63,251.5L454.38,253.38L454.38,255.75L455.5,257.75L456.63,259.25L457.5,260.75L457.25,265.25L458.75,267.0L460.5,267.5L463.0,267.63L465.25,267.63L467.0,267.88L468.13,268.88L468.0,270.38L468.13,271.63L469.38,273.0L471.5,274.13L471.75,275.5L471.25,276.88L470.38,278.13L469.13,278.75L468.25,279.88L467.13,280.75L465.88,280.63L464.75,280.5L463.5,281.0L461.13,281.0L459.75,281.5L458.5,282.38L458.75,283.38L457.5,283.88L456.25,283.25L454.5,283.63L453.63,284.38L456.63,287.75L455.25,289.25L455.0,290.88L453.0,291.13L451.63,291.5L449.38,291.63L449.0,292.88L447.13,293.5L445.5,295.25L445.13,296.38L445.13,298.13L444.5,299.88L443.25,301.0L444.13,301.75L443.25,302.5L442.0,303.13L441.25,304.38L441.5,306.13L440.25,306.88L441.0,308.88L439.5,309.13L438.0,309.63L437.13,310.63L435.5,309.5L434.13,307.75L433.25,305.88L433.13,303.5L432.5,302.38L430.63,302.25L428.88,301.63L427.25,302.38L425.75,302.88L424.13,303.13L422.5,303.5L421.0,304.0L419.25,304.0L417.88,304.25L417.0,305.13L416.13,306.63L414.13,307.75L414.75,309.38L413.88,309.88L412.75,310.88L412.13,312.38L412.0,313.75L412.63,315.13L411.13,315.88L409.63,316.0L408.63,315.63L406.25,316.88L405.0,316.75L403.13,317.38L403.0,318.75L401.38,319.5L402.5,320.63L402.0,322.38L402.38,323.88L402.0,326.25L402.38,327.0L404.13,326.75L405.38,326.88L407.13,328.0L408.5,327.88L410.0,328.38L411.13,329.5L412.0,331.13L411.88,332.38L410.5,332.75L409.38,332.75L408.25,333.5L408.38,334.38L407.63,335.75L407.75,336.63L409.63,337.5L410.75,338.0L410.5,338.88L409.13,340.0L409.25,340.88L408.0,342.25L408.88,343.63L408.88,344.75L407.38,345.5L406.88,346.38L406.75,347.38L406.0,348.38L407.0,349.13L409.13,350.13L409.63,351.38L411.63,352.38L411.75,354.0L413.75,355.5L415.88,355.75L417.25,356.25L417.13,357.88L418.0,358.5L421.63,354.88L422.0,356.13L421.88,357.5L419.75,359.25L419.75,361.0L419.63,362.5L418.25,364.13L417.13,364.88L414.5,365.88L412.0,366.88L412.38,367.88L411.5,368.25L410.25,368.13L409.13,368.25L407.38,369.38L406.75,370.25L406.13,371.0L404.25,371.13L402.38,371.5L400.5,372.5L398.88,372.5L397.0,371.88L395.25,372.38L392.5,371.38L391.25,372.25L390.88,372.88L389.13,372.63L387.75,372.13L386.88,372.63L385.75,373.13L384.13,373.25L383.13,374.38L382.25,375.13L381.0,375.63L379.5,376.0L378.13,376.13L376.63,376.13L375.25,376.75L376.13,377.38L377.38,377.75L378.13,378.5L378.0,379.38L379.25,380.25L380.5,380.25L381.75,380.88L382.38,381.88L385.38,383.25L386.0,384.13L386.5,385.13L388.0,386.25L389.0,387.25L390.75,388.25L391.25,389.5L392.25,390.38L393.75,391.38L394.38,392.38L397.0,393.88L397.0,395.38L398.63,396.75L402.0,397.63L404.25,398.38L405.0,399.0L405.67,399.0L406.83,398.17L408.83,399.0L410.33,398.5L412.33,398.83L413.33,398.83L414.33,398.5L414.33,397.33L416.0,396.33L417.5,396.17L419.17,396.5L420.67,397.17L422.5,397.83L423.33,398.17L424.5,398.17L425.5,398.67L426.5,398.67L427.5,398.5L428.83,398.83L430.33,400.17L429.83,401.83L430.5,403.0L432.0,403.5L434.17,402.67L436.5,402.83L437.5,401.83L439.33,401.17L441.33,401.17L443.17,402.0L444.5,403.0L445.5,403.33L447.17,402.17L449.67,399.67L451.0,400.5L453.0,400.67L454.67,400.33L455.67,400.17L455.67,398.83L460.33,394.83L462.17,394.67L464.33,394.67L465.67,395.33L467.0,396.67L468.67,396.5L471.33,396.17L471.67,394.33L473.33,393.17L474.5,392.33L475.5,391.33L478.0,391.0L479.67,390.83L481.17,390.33L481.17,387.5L479.0,386.67L477.33,385.67L475.83,384.33L475.67,382.83L473.83,381.17L474.33,379.83L472.83,379.0L472.83,377.83L474.5,378.0L475.5,376.83L474.83,375.0L477.0,374.17L479.0,374.0L480.67,373.83L481.83,372.5L480.83,370.5L482.5,370.17L483.83,369.0L483.17,367.67L484.83,367.0L485.33,364.33L485.83,363.0L486.83,362.5L488.33,363.17L489.83,362.17L490.67,361.33L488.33,359.83L489.17,359.17L491.33,358.83L491.0,357.33L489.83,356.5L488.5,355.83L487.83,354.67L489.0,353.83L490.83,353.0L490.33,351.83L491.0,350.83L489.83,350.33L490.33,348.83L490.17,347.5L491.33,347.0L490.83,345.17L492.5,342.67L491.17,340.83L491.67,339.17L488.0,337.17L486.67,336.17L484.83,335.5L485.0,334.17L483.5,332.83L483.5,331.0L481.5,330.33L481.5,328.5L479.83,326.0L480.83,325.0L482.83,325.17L484.33,324.33L485.0,323.5L483.17,322.0L483.17,320.17L482.67,317.83L485.17,316.5L486.33,315.33L486.17,312.17L485.0,310.83L486.5,310.33L488.33,310.0L489.83,307.17L492.5,308.33L494.33,309.67L495.17,310.67L495.67,311.67L498.5,313.33L501.0,315.83L503.17,316.17L505.33,314.67L507.67,314.83L509.5,314.5L508.5,312.67L509.33,311.33L510.33,309.17L511.83,308.17L514.33,308.0L516.5,307.83L519.0,307.0L520.83,306.83L522.5,308.17L524.83,308.17L526.5,307.67L528.17,307.67L530.0,307.17L531.67,306.83L533.0,306.17L534.5,306.17L535.83,305.33L535.67,304.0L534.0,301.33L533.5,300.33L534.83,298.66L535.0,297.33L533.83,296.49L529.5,298.0L527.66,297.34L527.33,295.84L527.16,292.34L523.33,291.5L523.0,290.17Z" />
		<path id="L1611125046963" name="鹤岗市" class="qing-map-1616123796085" d="M535.83,305.33L534.5,306.17L533.0,306.17L531.67,306.83L530.0,307.17L528.17,307.67L526.5,307.67L524.83,308.17L522.5,308.17L520.83,306.83L519.0,307.0L516.5,307.83L514.33,308.0L511.83,308.17L510.33,309.17L509.33,311.33L508.5,312.67L509.5,314.5L507.67,314.83L505.33,314.67L503.17,316.17L501.0,315.83L498.5,313.33L495.67,311.67L495.17,310.67L494.33,309.67L492.5,308.33L489.83,307.17L488.33,310.0L486.5,310.33L485.0,310.83L486.17,312.17L486.33,315.33L485.17,316.5L482.67,317.83L483.17,320.17L483.17,322.0L485.0,323.5L484.33,324.33L482.83,325.17L480.83,325.0L479.83,326.0L481.5,328.5L481.5,330.33L483.5,331.0L483.5,332.83L485.0,334.17L484.83,335.5L486.67,336.17L488.0,337.17L491.67,339.17L491.17,340.83L492.5,342.67L490.83,345.17L491.33,347.0L490.17,347.5L490.33,348.83L489.83,350.33L491.0,350.83L490.33,351.83L490.83,353.0L489.0,353.83L487.83,354.67L488.5,355.83L489.83,356.5L491.0,357.33L491.33,358.83L489.17,359.17L488.33,359.83L490.67,361.33L492.33,361.17L493.0,362.5L494.83,363.17L496.0,364.33L497.17,364.67L498.67,364.83L500.67,365.33L502.67,365.67L503.5,366.83L503.67,369.0L505.0,370.33L506.5,371.17L508.5,372.33L510.67,372.83L512.67,373.17L514.17,373.33L515.83,373.0L515.0,371.0L517.17,370.67L517.67,369.83L519.33,369.83L521.67,369.67L523.17,369.67L524.5,369.67L526.67,369.0L528.83,368.0L529.67,366.5L530.83,365.67L529.83,363.83L527.5,361.83L524.83,359.67L526.5,359.17L530.17,358.83L532.17,359.67L536.0,361.0L537.67,361.33L540.83,361.0L543.5,360.33L545.17,360.17L546.33,360.83L546.0,361.67L546.5,362.67L545.33,364.17L546.17,365.17L549.0,365.0L551.67,366.17L553.5,365.67L554.5,364.83L556.83,364.67L559.17,365.67L561.33,366.33L564.0,367.0L565.83,366.67L568.67,364.33L570.83,364.17L571.83,363.33L575.0,363.67L577.0,363.83L580.0,363.83L581.83,363.33L584.33,363.83L586.0,363.17L587.83,362.33L589.83,362.17L592.83,362.5L594.33,363.17L596.67,363.17L598.5,363.0L600.33,362.17L600.67,360.67L600.67,358.67L601.83,357.33L603.5,356.0L605.33,355.5L608.5,355.5L611.17,354.33L612.5,353.0L614.67,351.67L615.5,350.33L620.0,347.67L620.17,345.83L622.0,343.83L622.0,341.33L623.67,340.0L625.0,339.0L622.83,338.83L621.0,338.17L619.5,337.83L617.5,336.83L614.0,337.17L612.33,339.0L610.67,339.5L608.5,339.17L606.83,339.67L604.16,339.84L598.83,339.5L597.5,341.5L596.0,341.5L594.17,341.17L592.83,340.5L590.5,341.5L588.83,341.5L585.5,340.33L583.83,339.5L582.83,339.5L581.33,341.0L580.0,341.67L578.83,341.83L577.17,341.83L576.17,340.5L575.5,338.83L574.17,338.0L572.0,337.83L570.17,337.67L568.83,337.5L566.33,338.17L565.0,338.33L563.0,337.83L560.0,337.67L557.0,339.67L555.67,340.0L553.0,340.33L549.67,340.17L547.0,340.0L545.17,338.33L544.83,332.67L543.33,331.5L542.67,329.67L539.67,326.83L535.83,324.5L534.33,323.5L533.17,322.33L531.33,321.33L531.0,319.5L530.17,318.5L530.33,317.33L534.5,314.0L535.17,311.83L535.67,310.83L537.17,309.83L538.83,307.83L538.33,306.5L536.5,305.17Z" />
		<path id="L1611125709781" name="佳木斯市" class="qing-map-1616123796085" d="M625.0,339.0L623.67,340.0L622.0,341.33L622.0,343.83L620.17,345.83L620.0,347.67L615.5,350.33L614.67,351.67L612.5,353.0L611.17,354.33L608.5,355.5L605.33,355.5L603.5,356.0L601.83,357.33L600.67,358.67L600.67,360.67L600.33,362.17L598.5,363.0L596.67,363.17L594.33,363.17L592.83,362.5L589.83,362.17L587.83,362.33L586.0,363.17L584.33,363.83L581.83,363.33L580.0,363.83L577.0,363.83L575.0,363.67L571.83,363.33L570.83,364.17L568.67,364.33L565.83,366.67L564.0,367.0L561.33,366.33L559.17,365.67L556.83,364.67L554.5,364.83L553.5,365.67L551.67,366.17L549.0,365.0L546.17,365.17L545.33,364.17L546.5,362.67L546.0,361.67L546.33,360.83L545.17,360.17L543.5,360.33L540.83,361.0L537.67,361.33L536.0,361.0L532.17,359.67L530.17,358.83L526.5,359.17L524.83,359.67L527.5,361.83L529.83,363.83L530.83,365.67L529.67,366.5L528.83,368.0L526.67,369.0L524.5,369.67L523.17,369.67L521.67,369.67L519.33,369.83L517.67,369.83L517.17,370.67L515.0,371.0L515.83,373.0L514.17,373.33L512.67,373.17L510.67,372.83L508.5,372.33L506.5,371.17L505.0,370.33L503.67,369.0L503.5,366.83L502.67,365.67L500.67,365.33L498.67,364.83L497.17,364.67L496.0,364.33L494.83,363.17L493.0,362.5L492.33,361.17L490.67,361.33L489.83,362.17L488.33,363.17L486.83,362.5L485.83,363.0L485.33,364.33L484.83,367.0L483.17,367.67L483.83,369.0L482.5,370.17L480.83,370.5L481.83,372.5L480.67,373.83L479.0,374.0L477.0,374.17L474.83,375.0L475.5,376.83L474.5,378.0L472.83,377.83L472.83,379.0L474.33,379.83L473.83,381.17L475.67,382.83L475.83,384.33L477.33,385.67L479.0,386.67L481.17,387.5L481.17,390.33L479.67,390.83L478.0,391.0L475.5,391.33L474.5,392.33L473.33,393.17L471.67,394.33L471.33,396.17L472.67,396.5L474.67,396.5L476.5,397.5L478.17,399.17L479.33,400.17L481.33,400.17L483.83,400.67L485.83,400.17L488.33,398.83L490.0,397.67L492.0,396.0L493.33,396.67L495.5,399.0L497.17,398.33L498.67,397.5L499.83,396.83L500.17,397.67L499.17,399.0L497.83,400.33L499.33,401.0L501.0,401.33L502.67,401.83L502.5,399.33L502.17,398.0L504.5,396.83L506.33,396.17L505.5,397.83L504.83,399.33L504.17,401.17L504.17,402.33L504.17,403.5L504.83,404.67L504.0,406.17L502.5,407.5L500.83,408.0L499.0,409.0L497.5,408.33L495.33,408.33L493.5,408.0L492.67,409.0L494.0,410.17L496.0,410.83L497.83,411.67L499.33,413.17L500.5,414.33L502.0,415.67L503.5,416.33L504.83,418.67L506.83,420.17L508.5,421.83L511.17,423.0L512.5,423.0L513.67,423.5L515.33,423.33L518.0,424.5L519.83,425.83L521.5,426.0L522.5,427.17L524.0,427.17L525.83,428.5L528.83,430.17L530.33,430.5L531.83,430.5L531.83,429.0L532.5,428.0L534.5,427.83L536.67,427.33L538.67,427.33L541.33,426.67L543.5,427.33L545.67,427.0L548.67,427.0L549.83,425.5L550.67,424.5L552.17,423.0L552.83,421.83L551.17,419.5L551.5,418.5L553.17,418.17L552.17,416.33L553.17,415.0L555.17,414.83L556.83,414.17L558.0,413.33L558.0,412.17L559.33,411.5L560.33,411.5L561.0,410.67L560.67,409.83L559.17,409.33L557.5,409.5L556.33,409.0L555.17,408.18L552.83,408.0L550.67,407.5L550.5,406.5L548.5,405.33L548.5,403.83L547.33,402.5L546.0,401.67L545.5,399.83L544.67,398.5L543.17,397.83L541.17,397.5L538.83,398.17L536.5,397.17L534.67,397.5L533.33,396.5L533.33,395.17L534.0,394.17L533.5,392.83L533.33,391.5L532.17,390.0L530.33,389.83L530.33,387.83L530.5,385.83L531.5,385.17L533.0,385.5L534.5,385.33L535.33,384.33L536.67,383.67L538.67,384.0L538.67,383.0L540.33,381.33L539.0,379.83L542.17,379.5L546.67,378.0L548.0,377.17L549.17,378.0L550.67,377.0L551.83,378.5L554.67,378.5L556.67,378.5L558.5,378.5L563.5,377.0L567.5,375.5L568.33,373.17L575.67,372.5L574.83,374.67L574.5,381.67L583.5,382.33L584.67,383.17L586.5,382.17L587.5,381.5L588.0,382.5L591.33,382.67L590.67,381.17L590.67,379.0L592.83,378.5L594.83,377.67L600.33,377.17L602.83,377.67L605.33,378.0L608.33,379.0L611.17,379.17L611.17,380.5L611.17,381.5L608.5,382.67L609.0,384.33L609.67,386.33L612.0,386.67L613.83,387.0L616.33,388.5L618.0,388.83L619.33,388.5L618.5,386.67L619.83,385.5L621.67,385.5L623.33,386.17L624.5,387.17L626.33,387.5L630.33,386.67L631.83,387.0L633.33,386.33L635.0,385.83L636.17,387.17L637.5,387.5L639.17,388.0L640.0,389.17L641.33,388.5L642.5,388.67L644.0,387.5L645.33,387.17L646.67,386.5L647.67,385.83L648.33,385.0L650.0,385.0L650.5,383.83L651.67,383.0L653.83,382.5L655.67,382.0L657.33,381.33L656.5,380.17L657.5,379.33L658.33,378.33L659.67,377.83L659.83,376.0L660.67,375.5L660.67,374.67L662.0,374.0L660.5,372.5L661.33,371.17L662.0,369.83L662.5,368.83L662.5,367.33L664.5,366.17L664.5,360.83L668.5,359.0L669.83,355.0L673.0,352.83L675.5,352.83L677.17,353.5L679.0,353.67L680.83,352.0L682.0,349.33L683.5,348.67L686.0,347.83L688.0,348.67L691.0,348.5L693.0,348.0L695.33,348.33L699.33,349.17L702.67,348.67L705.67,349.83L710.67,347.33L713.67,353.33L714.83,354.0L716.17,353.0L717.67,353.5L720.0,353.67L722.33,353.17L725.5,353.33L727.33,352.17L729.5,351.5L729.83,349.67L733.67,347.33L735.33,345.5L735.33,343.67L737.17,342.17L739.0,340.17L740.33,338.17L740.0,336.83L735.33,333.5L734.67,332.0L734.83,330.17L734.0,329.17L731.67,328.83L731.67,327.33L729.0,325.17L728.5,322.33L729.83,321.33L732.67,318.33L735.34,315.84L735.17,313.33L735.17,310.5L737.0,309.83L740.33,308.5L742.33,307.17L745.67,306.17L748.5,305.33L751.33,304.67L755.67,302.5L756.33,300.33L755.17,299.5L754.33,300.17L753.33,300.67L751.67,301.0L750.67,300.17L748.5,300.33L746.83,300.33L745.67,301.0L744.17,302.33L742.67,303.67L740.67,304.5L737.83,303.17L736.0,302.17L734.83,302.33L733.33,302.17L730.33,302.5L728.0,301.67L726.33,301.83L724.17,302.0L723.17,302.17L720.33,303.67L718.83,304.33L717.0,304.33L714.5,304.0L712.83,303.67L710.83,303.83L708.17,305.67L706.5,306.17L704.83,305.83L703.33,306.0L701.0,307.17L700.0,307.83L698.0,307.83L697.0,308.0L696.17,308.5L694.0,309.0L692.33,309.17L691.5,309.67L690.17,310.33L688.5,310.33L687.33,311.01L685.33,313.83L683.17,314.17L681.67,314.0L679.83,313.67L678.67,316.17L677.67,317.5L676.0,317.83L674.5,318.17L672.0,317.83L669.83,317.5L668.33,318.0L665.5,318.5L661.33,317.33L655.67,316.83L653.83,317.83L652.0,318.5L651.0,319.17L650.83,320.67L649.83,321.67L649.17,322.17L647.33,322.67L645.33,323.0L643.67,323.83L642.67,325.17L640.83,326.83L639.17,327.5L636.83,327.17L635.0,326.17L633.33,326.17L632.33,327.0L633.0,329.17L633.33,330.83L631.33,332.33L630.0,333.0L629.17,334.83L629.0,337.0L628.5,338.5L627.17,338.83Z" />
		<path id="L1611127945181" name="双鸭山市" class="qing-map-1616123796085" d="M717.67,353.5L716.17,353.0L714.83,354.0L713.67,353.33L710.67,347.33L705.67,349.83L702.67,348.67L699.33,349.17L695.33,348.33L693.0,348.0L691.0,348.5L688.0,348.67L686.0,347.83L683.5,348.67L682.0,349.33L680.83,352.0L679.0,353.67L677.17,353.5L675.5,352.83L673.0,352.83L669.83,355.0L668.5,359.0L664.5,360.83L664.5,366.17L662.5,367.33L662.5,368.83L662.0,369.83L661.33,371.17L660.5,372.5L662.0,374.0L660.67,374.67L660.67,375.5L659.83,376.0L659.67,377.83L658.33,378.33L657.5,379.33L656.5,380.17L657.33,381.33L655.67,382.0L653.83,382.5L651.67,383.0L650.5,383.83L650.0,385.0L648.33,385.0L647.67,385.83L646.67,386.5L645.33,387.17L644.0,387.5L642.5,388.67L641.33,388.5L640.0,389.17L639.17,388.0L637.5,387.5L636.17,387.17L635.0,385.83L633.33,386.33L631.83,387.0L630.33,386.67L626.33,387.5L624.5,387.17L623.33,386.17L621.67,385.5L619.83,385.5L618.5,386.67L619.33,388.5L618.0,388.83L616.33,388.5L613.83,387.0L612.0,386.67L609.67,386.33L609.0,384.33L608.5,382.67L611.17,381.5L611.17,380.5L611.17,379.17L608.33,379.0L605.33,378.0L602.83,377.67L600.33,377.17L594.83,377.67L592.83,378.5L590.67,379.0L590.67,381.17L591.33,382.67L588.0,382.5L587.5,381.5L586.5,382.17L584.67,383.17L583.5,382.33L574.5,381.67L574.83,374.67L575.67,372.5L568.33,373.17L567.5,375.5L563.5,377.0L558.5,378.5L556.67,378.5L554.67,378.5L551.83,378.5L550.67,377.0L549.17,378.0L548.0,377.17L546.67,378.0L542.17,379.5L539.0,379.83L540.33,381.33L538.67,383.0L538.67,384.0L536.67,383.67L535.33,384.33L534.5,385.33L533.0,385.5L531.5,385.17L530.5,385.83L530.33,387.83L530.33,389.83L532.17,390.0L533.33,391.5L533.5,392.83L534.0,394.17L533.33,395.17L533.33,396.5L534.67,397.5L536.5,397.17L538.83,398.17L541.17,397.5L543.17,397.83L544.67,398.5L545.5,399.83L546.0,401.67L547.33,402.5L548.5,403.83L548.5,405.33L550.5,406.5L550.67,407.5L552.83,408.0L555.17,408.18L556.33,409.0L557.5,409.5L559.17,409.33L560.67,409.83L561.0,410.67L561.83,411.67L563.0,412.33L564.33,412.67L566.17,414.0L567.5,415.17L568.83,415.83L570.33,415.67L572.67,415.33L574.0,416.0L575.33,416.5L577.33,416.33L579.0,416.67L580.0,417.67L581.17,417.0L584.17,417.83L584.33,418.67L583.33,419.67L583.17,422.83L584.83,423.83L586.5,424.33L587.67,425.0L590.0,425.17L591.5,424.5L593.17,423.67L594.67,424.17L593.67,426.5L594.33,427.67L592.33,429.0L591.33,430.17L590.0,431.0L589.0,431.33L587.83,432.67L587.83,434.33L587.83,436.33L588.5,438.17L589.83,438.33L591.67,438.33L592.17,436.67L593.0,435.17L594.0,434.17L595.5,434.83L596.0,436.33L598.33,437.5L601.5,437.0L603.33,436.5L605.33,436.17L606.83,435.5L608.83,436.17L609.67,434.83L611.67,434.33L612.5,432.83L612.17,431.17L612.83,429.83L613.0,428.5L614.83,427.5L616.0,426.67L619.17,427.0L621.17,428.33L622.5,428.5L624.17,427.67L628.0,424.33L629.67,424.17L630.17,422.83L632.5,421.33L633.17,420.17L636.17,418.67L638.17,419.67L639.17,421.0L641.17,421.0L642.83,421.5L644.5,421.0L645.0,419.67L647.33,418.83L648.33,417.0L648.33,414.83L650.33,413.0L650.67,411.17L649.5,410.0L651.33,408.83L652.83,408.5L653.67,407.33L653.0,406.17L654.5,405.5L654.5,403.83L656.0,403.5L657.67,404.0L659.17,404.0L660.67,403.33L660.17,402.0L661.17,400.67L661.33,398.83L663.0,398.0L664.83,397.17L666.5,396.83L667.83,397.33L667.17,398.67L668.33,399.17L670.83,399.67L672.5,399.33L674.0,399.17L675.0,399.5L675.0,401.0L677.0,400.5L678.83,400.0L681.33,400.5L683.67,400.0L686.17,400.67L688.83,400.67L692.0,400.67L694.33,401.67L696.67,397.5L701.17,395.17L702.0,392.5L701.83,390.5L702.33,388.83L703.33,388.17L701.67,385.83L702.33,384.67L702.33,382.83L703.5,382.0L704.0,380.5L704.5,378.83L703.83,377.33L705.5,376.17L706.67,374.67L706.83,373.0L708.33,371.5L710.17,371.17L711.83,370.83L712.17,369.17L712.33,367.17L711.5,366.0L710.5,364.67L708.5,363.5L709.0,361.5L709.67,359.5L712.0,358.17L713.17,357.83L714.0,356.67L715.0,354.83L716.17,354.0Z" />
		<path id="L1611128535972" name="七台河市" class="qing-map-1616123796085" d="M502.5,431.33L501.5,429.5L501.83,428.0L502.67,426.17L501.83,424.33L503.5,424.33L505.17,423.83L507.0,423.0L508.5,421.83L511.17,423.0L512.5,423.0L513.67,423.5L515.33,423.33L518.0,424.5L519.83,425.83L521.5,426.0L522.5,427.17L524.0,427.17L525.83,428.5L528.83,430.17L530.33,430.5L531.83,430.5L531.83,429.0L532.5,428.0L534.5,427.83L536.67,427.33L538.67,427.33L541.33,426.67L543.5,427.33L545.67,427.0L548.67,427.0L549.83,425.5L550.67,424.5L552.17,423.0L552.83,421.83L551.17,419.5L551.5,418.5L553.17,418.17L552.17,416.33L553.17,415.0L555.17,414.83L556.83,414.17L558.0,413.33L558.0,412.17L559.33,411.5L560.33,411.5L561.83,411.67L563.0,412.33L564.33,412.67L566.17,414.0L567.5,415.17L568.83,415.83L570.33,415.67L572.67,415.33L574.0,416.0L575.33,416.5L577.33,416.33L579.0,416.67L580.0,417.67L581.17,417.0L584.17,417.83L584.33,418.67L583.33,419.67L583.17,422.83L584.83,423.83L586.5,424.33L587.67,425.0L590.0,425.17L591.5,424.5L593.17,423.67L594.67,424.17L593.67,426.5L594.33,427.67L592.33,429.0L591.33,430.17L590.0,431.0L589.0,431.33L587.83,432.67L586.17,433.17L584.5,433.0L582.33,432.33L580.17,432.5L578.5,432.0L576.67,432.33L576.0,433.67L573.33,434.67L573.0,435.83L570.5,437.67L571.33,439.83L571.5,441.5L569.17,442.33L567.17,442.17L565.67,443.0L564.83,443.83L565.67,444.67L562.5,448.33L561.17,447.33L558.83,447.17L557.0,446.5L556.0,446.67L554.5,446.0L553.17,446.5L551.83,445.83L549.5,445.67L548.83,444.83L545.17,444.67L544.83,446.17L542.67,447.67L540.67,447.0L536.83,447.5L534.0,446.0L532.5,446.0L531.83,447.0L530.83,448.0L529.83,448.67L528.17,449.17L526.33,448.67L524.67,447.17L521.5,448.17L518.67,445.67L517.17,445.0L515.67,444.83L514.33,446.17L513.0,447.0L510.83,446.67L510.17,445.5L508.33,445.83L507.17,445.5L507.17,444.5L505.33,444.17L505.0,442.67L506.5,440.67L506.0,439.33L506.0,438.0L506.33,436.67L505.5,435.5L506.17,434.33L505.33,433.0L503.67,432.67Z" />
		<path id="L1611128767485" name="鸡西市" class="qing-map-1616123796085" d="M562.5,448.33L565.67,444.67L564.83,443.83L565.67,443.0L567.17,442.17L569.17,442.33L571.5,441.5L571.33,439.83L570.5,437.67L573.0,435.83L573.33,434.67L576.0,433.67L576.67,432.33L578.5,432.0L580.17,432.5L582.33,432.33L584.5,433.0L586.17,433.17L587.83,432.67L587.83,434.33L587.83,436.33L588.5,438.17L589.83,438.33L591.67,438.33L592.17,436.67L593.0,435.17L594.0,434.17L595.5,434.83L596.0,436.33L598.33,437.5L601.5,437.0L603.33,436.5L605.33,436.17L606.83,435.5L608.83,436.17L609.67,434.83L611.67,434.33L612.5,432.83L612.17,431.17L612.83,429.83L613.0,428.5L614.83,427.5L616.0,426.67L619.17,427.0L621.17,428.33L622.5,428.5L624.17,427.67L628.0,424.33L629.67,424.17L630.17,422.83L632.5,421.33L633.17,420.17L636.17,418.67L638.17,419.67L639.17,421.0L641.17,421.0L642.83,421.5L644.5,421.0L645.0,419.67L647.33,418.83L648.33,417.0L648.33,414.83L650.33,413.0L650.67,411.17L649.5,410.0L651.33,408.83L652.83,408.5L653.67,407.33L653.0,406.17L654.5,405.5L654.5,403.83L656.0,403.5L657.67,404.0L659.17,404.0L660.67,403.33L660.17,402.0L661.17,400.67L661.33,398.83L663.0,398.0L664.83,397.17L666.5,396.83L667.83,397.33L667.17,398.67L668.33,399.17L670.83,399.67L672.5,399.33L674.0,399.17L675.0,399.5L675.0,401.0L677.0,400.5L678.83,400.0L681.33,400.5L683.67,400.0L686.17,400.67L688.83,400.67L692.0,400.67L694.33,401.67L693.17,403.17L692.83,404.17L693.33,405.17L694.67,405.17L695.83,405.33L696.83,406.17L697.83,408.17L696.5,408.67L694.67,409.33L694.0,410.5L694.67,411.0L696.5,410.83L695.67,412.0L696.5,414.33L695.67,415.0L694.17,415.0L694.33,416.0L693.0,417.5L692.0,417.5L691.67,416.5L690.5,416.67L689.5,418.5L688.33,418.83L686.17,419.5L685.0,420.17L684.83,421.5L685.83,422.83L687.5,424.5L686.5,426.33L684.67,428.17L684.0,430.83L682.5,430.83L681.0,431.0L681.0,432.67L680.17,433.67L679.67,434.5L678.67,434.33L677.67,433.67L676.5,433.5L675.5,433.83L675.67,434.83L674.67,434.83L674.67,436.0L673.67,436.33L673.33,437.33L674.0,438.33L673.67,439.17L673.17,440.17L673.67,440.83L674.17,441.5L673.0,441.5L672.0,442.5L672.33,443.5L673.83,443.83L674.17,445.17L672.67,445.5L672.33,446.33L671.83,447.17L670.67,447.67L670.67,448.67L670.67,450.0L669.5,449.5L668.0,449.67L667.17,450.67L665.67,450.67L664.33,451.33L662.33,452.33L660.5,452.5L659.5,453.5L658.67,454.5L658.17,456.33L657.0,457.0L657.0,457.83L656.83,459.5L655.83,460.67L655.83,461.83L655.0,462.33L655.0,463.5L654.17,464.0L654.67,464.83L654.17,466.17L655.83,467.83L656.33,469.17L656.17,470.17L656.5,472.33L655.0,472.5L653.83,473.83L652.83,474.33L651.5,475.5L650.0,476.33L648.83,476.83L646.5,477.67L642.67,476.0L638.67,475.0L632.67,473.67L610.33,468.67L600.0,466.5L598.67,465.83L597.67,465.0L596.0,464.5L595.0,464.5L594.5,462.83L593.83,461.83L592.33,461.67L591.17,462.33L590.0,462.5L589.5,464.34L588.0,465.83L587.5,468.17L585.67,468.0L584.33,467.33L583.33,467.67L582.0,467.83L580.83,470.0L580.83,470.83L581.83,471.17L582.67,472.17L581.33,473.67L580.17,474.0L579.17,474.67L578.0,475.67L576.67,476.33L575.33,477.67L572.17,478.67L572.5,479.83L571.67,480.67L570.5,480.5L569.5,480.17L568.67,479.83L567.83,479.67L566.33,479.67L565.17,479.33L563.33,480.33L562.83,481.67L561.67,482.67L560.67,482.5L559.0,483.0L557.67,483.17L557.5,482.17L556.17,482.17L555.33,481.5L554.17,482.0L552.67,482.0L551.67,482.67L552.33,484.0L550.33,485.17L548.5,485.17L547.17,485.5L545.83,485.83L543.83,484.33L543.5,482.5L542.17,481.33L541.17,480.0L539.17,479.17L536.83,478.67L535.33,479.83L533.5,480.5L532.5,479.5L530.17,479.0L528.83,477.0L527.33,475.5L525.0,474.0L522.67,474.67L521.0,475.67L518.67,474.83L517.5,473.67L517.5,472.33L520.0,470.0L518.17,468.5L521.5,465.33L520.5,463.17L524.17,460.67L525.5,458.67L530.17,456.33L530.33,455.0L531.33,453.83L532.5,453.0L534.5,452.67L534.5,450.67L535.5,448.83L536.83,447.5L540.67,447.0L542.67,447.67L544.83,446.17L545.17,444.67L548.83,444.83L549.5,445.67L551.83,445.83L553.17,446.5L554.5,446.0L556.0,446.67L557.0,446.5L558.83,447.17L561.17,447.33Z" />
		<path id="L1611129504635" name="牡丹江市" class="qing-map-1616123796085" d="M407.33,505.67L406.0,504.5L407.5,502.67L409.0,501.67L410.83,500.33L413.0,498.67L413.0,497.0L414.67,496.5L415.17,494.83L417.0,495.0L419.0,495.5L421.17,494.67L422.83,495.5L424.83,495.33L426.5,496.0L428.0,495.67L429.67,495.67L432.17,493.67L432.33,492.17L433.33,491.0L434.5,490.0L436.67,489.5L438.0,488.33L439.0,485.5L440.5,484.83L443.5,484.5L445.83,483.5L447.5,483.5L447.33,482.0L446.33,480.83L446.83,480.0L448.0,479.33L447.33,478.17L446.67,476.67L445.0,475.5L445.5,474.67L447.17,474.83L449.0,474.83L451.0,474.17L452.67,473.17L450.17,471.5L451.33,469.67L452.33,469.0L454.17,468.67L455.33,468.17L455.67,466.33L455.0,465.17L453.5,464.33L451.33,464.67L449.83,463.67L449.67,462.33L448.5,461.67L449.5,460.83L451.17,460.33L453.33,459.83L455.0,459.0L455.33,457.33L453.67,456.83L451.33,454.5L452.5,452.67L451.83,450.67L450.5,449.83L450.0,448.0L450.5,447.17L452.17,447.17L454.33,448.0L456.17,448.67L458.5,447.83L460.0,447.33L461.0,446.67L460.83,445.17L463.33,444.0L462.17,442.5L462.67,441.5L466.5,441.0L465.5,439.5L466.67,439.17L468.67,439.5L469.83,438.5L471.17,438.5L473.67,437.0L473.33,435.67L474.17,435.0L474.33,434.17L475.33,433.83L476.17,434.17L477.33,433.83L479.5,434.67L481.17,433.5L482.67,433.33L484.67,433.83L485.67,433.33L485.17,432.33L485.83,431.0L485.17,429.67L486.83,429.0L489.17,429.33L491.67,431.83L493.17,432.0L494.33,432.67L496.5,432.0L498.83,432.83L501.17,432.33L502.5,431.33L503.67,432.67L505.33,433.0L506.17,434.33L505.5,435.5L506.33,436.67L506.0,438.0L506.0,439.33L506.5,440.67L505.0,442.67L505.33,444.17L507.17,444.5L507.17,445.5L508.33,445.83L510.17,445.5L510.83,446.67L513.0,447.0L514.33,446.17L515.67,444.83L517.17,445.0L518.67,445.67L521.5,448.17L524.67,447.17L526.33,448.67L528.17,449.17L529.83,448.67L530.83,448.0L531.83,447.0L532.5,446.0L534.0,446.0L536.83,447.5L535.5,448.83L534.5,450.67L534.5,452.67L532.5,453.0L531.33,453.83L530.33,455.0L530.17,456.33L525.5,458.67L524.17,460.67L520.5,463.17L521.5,465.33L518.17,468.5L520.0,470.0L517.5,472.33L517.5,473.67L518.67,474.83L521.0,475.67L522.67,474.67L525.0,474.0L527.33,475.5L528.83,477.0L530.17,479.0L532.5,479.5L533.5,480.5L535.33,479.83L536.83,478.67L539.17,479.17L541.17,480.0L542.17,481.33L543.5,482.5L543.83,484.33L545.83,485.83L545.83,487.5L547.17,487.83L548.33,489.33L550.5,489.67L551.83,491.17L551.83,492.67L553.17,493.83L557.5,508.5L562.83,525.83L561.67,527.0L560.5,527.17L560.17,528.17L559.5,530.33L560.83,531.83L560.83,533.0L559.33,534.67L559.33,535.67L558.33,536.33L558.67,537.67L558.0,538.5L559.17,541.0L558.17,542.0L558.67,543.67L559.17,544.83L559.17,546.0L558.33,547.0L559.33,548.0L558.5,549.17L557.67,550.17L557.83,551.5L562.33,553.83L562.17,554.67L561.33,554.5L559.33,554.33L558.83,555.33L558.17,555.33L557.5,556.0L556.67,556.0L555.33,556.5L554.33,556.5L553.5,556.0L551.17,554.83L549.33,553.5L547.67,552.83L546.33,553.5L545.0,553.67L542.17,556.67L540.67,556.67L539.5,555.83L538.67,554.33L537.67,553.0L536.83,552.0L536.0,552.33L535.0,551.33L533.67,551.0L532.67,550.33L531.83,550.33L530.17,549.33L528.17,549.17L528.17,548.0L527.33,547.0L526.5,547.5L525.17,547.33L522.83,547.0L521.0,546.0L519.33,545.83L518.0,545.83L516.67,545.0L516.5,543.83L517.5,541.33L516.0,540.0L515.67,538.5L515.17,537.33L514.83,536.67L515.17,535.83L514.83,534.67L515.83,533.33L513.33,531.0L514.33,529.33L515.0,528.33L514.5,527.5L514.33,526.83L512.83,526.5L512.0,527.33L512.0,528.33L510.5,529.17L510.0,530.67L508.83,531.33L507.67,531.5L506.83,531.0L504.33,532.33L504.0,534.17L502.83,534.17L502.17,535.33L501.17,536.17L500.0,536.67L498.33,536.17L496.67,535.0L497.0,533.0L497.0,531.5L495.33,529.83L496.17,529.0L494.17,527.5L492.83,527.5L491.5,527.67L489.83,528.67L488.83,528.67L486.83,530.0L485.0,530.0L485.5,531.5L485.17,533.67L483.0,533.67L482.83,534.5L481.5,534.5L480.17,534.5L479.17,534.83L477.83,534.83L476.17,534.67L474.33,535.17L472.17,534.83L470.0,534.83L467.83,536.0L466.17,536.33L465.83,537.67L464.83,537.83L463.83,538.33L463.0,538.5L461.5,538.17L460.5,538.5L459.33,538.17L458.17,537.5L456.0,539.0L456.33,541.5L456.67,543.0L456.0,543.67L456.5,546.17L457.0,548.5L455.17,550.0L451.83,550.5L447.0,551.33L445.67,552.17L442.67,551.17L441.5,550.33L440.0,551.33L438.17,550.67L436.83,548.83L436.33,547.33L433.5,542.17L431.5,541.33L432.67,540.17L431.5,538.17L430.5,537.67L432.5,535.5L430.33,533.67L428.33,534.0L426.5,533.5L426.17,532.17L426.33,531.17L424.83,530.5L423.67,528.83L423.33,527.0L422.33,525.5L421.17,523.67L419.5,522.5L418.67,520.83L418.17,519.33L418.17,518.17L418.17,516.5L417.17,515.17L418.17,514.33L418.17,513.0L417.17,511.83L418.33,511.17L418.33,510.0L417.17,509.0L417.17,507.33L416.0,506.33L415.33,505.33L413.83,504.33L412.83,503.33L410.67,504.17L409.17,504.83Z" />
	</g>
</svg>
