<svg xmlns="http://www.w3.org/2000/svg" viewBox="0,0,800,527" width="100%" height="100%">
	<defs>
		<style type="text/css">
.qing-map-1616134833691
{
	fill: #DDDDDD;
	fill-opacity: 1.0;
	stroke: #FFFFFF;
	stroke-opacity: 1.0;
	stroke-width: 1;
}

.qing-map-1616134833691:hover
{
	fill: #56A4FF;
	fill-opacity: 1.0;
}
</style>
	</defs>
	<g>
		<path id="L1610962476944" name="十堰市" class="qing-map-1616134833691" d="M183.8,224.8L181.4,225.2L179.2,223.6L176.2,224.2L172.2,220.6L169.6,220.2L168.0,221.6L166.6,220.4L162.2,220.4L160.6,219.0L162.4,217.0L162.8,214.8L164.4,214.0L162.4,211.4L162.8,207.8L161.2,206.8L161.0,203.2L159.8,203.4L158.2,201.2L155.8,201.8L153.0,201.4L150.4,202.2L148.2,200.6L149.4,199.4L148.6,198.0L148.8,195.8L150.8,193.2L152.0,193.4L153.2,191.4L151.0,186.8L150.2,184.0L148.4,182.4L149.4,180.2L151.0,180.2L152.4,178.0L151.6,174.6L149.0,171.2L148.0,169.6L149.2,164.2L150.6,163.2L150.6,161.0L152.0,160.2L148.8,156.6L148.6,152.2L149.6,149.8L148.4,147.8L145.6,147.4L143.4,144.8L143.8,143.6L141.8,142.4L141.8,140.6L140.0,139.8L140.0,137.4L142.0,134.2L140.2,129.4L140.6,128.4L143.0,127.6L142.6,124.2L144.2,122.0L144.8,119.8L146.4,118.8L147.6,115.4L151.0,114.2L151.8,112.6L153.0,111.8L151.2,110.0L151.6,107.6L151.6,105.8L158.2,106.0L160.6,105.0L162.4,107.0L170.4,108.6L171.2,107.4L172.8,108.2L176.2,106.4L179.6,106.8L181.0,108.6L183.4,108.0L184.6,110.8L189.4,111.8L191.8,109.4L192.6,108.2L194.8,107.4L194.8,103.8L198.2,104.0L199.6,106.4L202.6,105.4L205.0,102.2L201.0,96.8L201.6,93.0L201.6,91.0L201.2,87.0L199.6,87.2L198.4,85.4L199.6,82.4L197.6,82.2L195.6,79.4L190.2,77.2L188.8,75.4L187.0,75.6L185.8,74.2L180.0,73.6L177.8,72.2L175.4,72.2L173.8,70.8L172.0,73.0L169.4,73.4L167.2,74.6L164.8,71.0L166.0,68.8L165.8,65.6L167.4,63.0L166.6,57.8L167.8,53.8L163.8,52.8L162.6,51.4L158.8,50.6L158.0,49.2L152.0,48.8L150.4,49.8L148.6,48.2L147.2,49.0L144.6,46.8L134.8,45.6L135.6,42.6L137.6,42.0L138.4,39.0L140.6,38.4L140.2,36.6L143.0,35.2L150.0,35.6L149.8,34.0L151.0,31.8L153.4,31.6L153.6,34.4L155.2,33.6L158.0,33.0L158.8,35.4L165.2,35.0L170.0,35.4L173.8,34.2L184.6,39.4L187.2,38.2L190.4,40.4L191.8,40.6L192.8,38.8L197.2,39.4L201.2,38.4L203.0,40.4L205.0,41.2L206.0,43.4L210.6,43.2L212.8,42.2L217.4,43.0L219.4,42.0L223.8,41.8L225.4,43.0L227.4,41.6L230.2,42.8L230.2,41.2L234.0,35.4L236.0,35.4L235.8,33.4L238.4,33.4L241.4,38.6L241.8,42.0L241.2,43.6L245.6,45.2L246.0,43.4L249.0,46.6L249.0,49.0L252.2,50.6L253.6,47.6L257.6,44.6L259.0,46.0L261.8,44.6L262.6,39.6L266.8,37.6L269.4,38.4L273.6,36.6L276.0,32.8L278.4,33.6L279.0,35.6L284.4,39.8L284.2,43.6L286.0,41.2L288.6,42.6L291.0,45.6L295.4,48.6L294.6,50.6L296.8,51.0L297.4,53.0L293.2,55.8L293.6,57.2L295.4,56.2L299.2,56.6L301.8,58.6L304.0,65.4L302.2,67.2L301.4,69.6L302.4,71.4L301.6,73.6L305.8,72.6L306.0,76.2L308.0,78.0L309.0,80.0L313.0,80.0L315.0,82.4L317.4,88.4L320.0,88.8L323.0,87.8L321.6,91.6L323.0,94.4L327.4,98.2L328.8,102.0L328.0,103.6L330.2,104.2L330.6,106.0L332.8,106.4L332.6,110.0L330.4,111.6L328.6,117.6L326.0,117.8L323.4,119.4L323.4,123.6L317.4,125.6L316.4,127.2L314.2,124.6L309.4,129.4L307.2,133.2L304.0,133.6L300.4,136.6L300.0,140.2L301.2,144.6L302.8,147.4L300.6,151.6L299.4,154.4L296.6,156.2L295.0,158.6L291.8,157.8L288.2,161.0L284.4,162.2L286.8,164.2L285.4,167.0L285.8,169.0L286.8,172.4L288.17,173.77L289.52,176.73L287.0,177.2L283.65,174.45L281.75,172.07L280.8,170.4L278.6,172.0L280.4,177.0L279.6,180.2L279.6,182.0L280.2,184.6L281.0,187.8L279.0,190.8L278.18,187.03L276.0,187.8L273.8,184.8L270.2,186.6L269.0,185.0L267.2,187.6L260.6,186.0L256.6,189.0L252.2,188.8L248.6,186.6L247.6,188.8L243.6,187.8L242.0,188.6L236.2,187.8L233.6,186.8L231.0,187.8L230.8,190.2L229.0,192.4L226.0,191.2L224.0,191.4L220.4,193.2L220.0,197.2L213.0,197.0L211.4,198.8L208.0,200.8L207.2,203.6L208.4,208.4L206.0,211.6L205.6,213.0L207.8,215.0L206.8,217.2L206.2,218.8L203.8,216.4L201.0,215.0L197.4,215.2L193.6,217.4L192.2,221.0L188.6,223.8Z" />
		<path id="L1610963227803" name="襄阳市" class="qing-map-1616134833691" d="M256.6,189.0L260.6,186.0L267.2,187.6L269.0,185.0L270.2,186.6L273.8,184.8L276.0,187.8L278.18,187.03L279.0,190.8L281.0,187.8L280.2,184.6L279.6,182.0L279.6,180.2L280.4,177.0L278.6,172.0L280.8,170.4L281.75,172.07L283.65,174.45L287.0,177.2L289.52,176.73L288.17,173.77L286.8,172.4L285.8,169.0L285.4,167.0L286.8,164.2L284.4,162.2L288.2,161.0L291.8,157.8L295.0,158.6L296.6,156.2L299.4,154.4L300.6,151.6L302.8,147.4L301.2,144.6L300.0,140.2L300.4,136.6L304.0,133.6L307.2,133.2L309.4,129.4L314.2,124.6L316.4,127.2L317.4,125.6L323.4,123.6L323.4,119.4L326.0,117.8L328.6,117.6L330.4,111.6L332.6,110.0L332.8,106.4L334.38,105.15L336.18,102.55L338.18,103.55L344.78,104.55L348.98,109.15L351.18,109.95L351.58,111.35L355.58,113.15L358.58,112.95L359.78,116.15L363.98,116.15L365.38,114.15L367.65,115.16L369.65,118.56L371.25,119.16L372.45,121.36L375.05,119.76L377.05,119.16L377.65,123.36L379.05,125.16L381.25,126.36L383.45,126.96L384.05,128.96L386.05,127.56L388.05,128.76L389.65,128.16L392.05,128.76L393.05,130.36L400.45,135.56L403.05,133.36L405.05,130.96L408.85,130.96L412.25,133.56L413.05,131.96L415.85,129.56L417.45,130.36L419.05,128.96L422.05,126.76L424.85,128.96L426.65,128.76L429.25,130.36L433.05,130.56L436.25,132.56L439.25,132.56L442.25,133.36L443.65,131.76L444.65,132.56L446.65,130.96L448.85,130.96L449.85,129.16L452.25,128.16L452.25,129.56L455.25,127.96L461.25,130.76L463.45,130.56L464.25,125.96L467.05,124.96L469.45,126.96L471.85,127.96L474.05,127.76L475.25,129.76L474.45,131.16L471.85,130.36L470.05,134.96L472.65,135.36L472.05,138.96L469.25,141.56L467.85,140.36L466.45,142.96L467.25,146.96L468.25,148.16L466.05,150.96L466.05,155.76L468.85,157.16L467.85,160.16L463.45,164.36L463.65,171.36L463.05,173.56L466.85,174.56L466.05,176.96L463.85,176.96L463.25,181.96L461.25,181.76L460.25,183.96L462.25,187.36L461.05,190.16L457.65,188.16L455.05,192.96L452.25,192.36L450.05,192.96L450.25,195.53L448.85,197.73L445.65,198.33L445.25,200.53L442.05,198.73L440.45,200.13L441.25,201.93L439.45,205.33L439.25,211.13L441.65,214.13L440.85,217.73L440.05,219.73L438.05,219.09L435.85,221.49L437.85,222.89L438.45,225.29L437.45,228.69L435.45,226.29L431.45,224.69L429.65,225.29L427.65,221.69L424.85,219.89L422.25,218.89L420.25,219.69L416.85,221.89L413.45,221.69L412.65,224.89L408.85,225.29L403.05,224.49L401.45,223.09L399.25,221.69L394.85,222.09L392.45,223.89L390.65,222.89L389.05,224.49L388.85,229.09L386.25,228.09L384.25,230.29L381.25,229.69L378.25,230.69L377.45,233.29L375.65,231.89L373.45,232.89L370.85,231.29L367.05,232.49L366.45,237.69L365.65,243.49L363.45,244.89L366.05,250.69L365.05,253.29L362.65,252.29L361.25,254.69L358.65,255.29L353.65,253.49L352.05,251.29L350.05,251.89L350.25,249.69L347.25,247.29L348.45,245.69L347.85,240.69L343.65,241.69L339.65,241.69L337.25,239.89L333.65,243.29L331.65,245.89L328.85,246.09L327.45,248.09L324.05,245.89L320.05,246.49L318.45,239.89L316.05,239.69L312.05,242.09L308.25,241.09L307.25,238.49L304.25,238.29L302.85,234.69L304.85,232.69L302.85,230.49L298.25,230.09L297.25,232.29L293.65,231.49L292.05,233.09L289.85,232.49L288.85,234.89L286.25,235.09L286.85,233.49L283.05,231.29L281.91,228.49L284.2,225.69L282.0,221.49L283.0,218.69L277.8,218.29L274.29,218.69L273.09,215.89L276.31,209.29L273.31,207.69L270.91,208.29L267.91,206.09L267.0,202.49L267.11,199.69L264.25,197.89L263.25,195.89L258.89,192.89Z" />
		<path id="L1610963700028" name="随州市" class="qing-map-1616134833691" d="M441.65,214.13L439.25,211.13L439.45,205.33L441.25,201.93L440.45,200.13L442.05,198.73L445.25,200.53L445.65,198.33L448.85,197.73L450.25,195.53L450.05,192.96L452.25,192.36L455.05,192.96L457.65,188.16L461.05,190.16L462.25,187.36L460.25,183.96L461.25,181.76L463.25,181.96L463.85,176.96L466.05,176.96L466.85,174.56L463.05,173.56L463.65,171.36L463.45,164.36L467.85,160.16L468.85,157.16L466.05,155.76L466.05,150.96L468.25,148.16L467.25,146.96L466.45,142.96L467.85,140.36L469.25,141.56L472.05,138.96L472.65,135.36L470.05,134.96L471.85,130.36L474.45,131.16L475.25,129.76L478.4,129.6L478.8,126.4L483.6,124.0L485.8,126.8L491.0,131.0L492.0,132.8L493.4,132.8L494.6,134.4L494.4,136.2L496.4,139.2L499.6,138.8L501.2,141.2L503.6,141.6L507.8,138.8L514.0,135.4L514.4,137.6L516.6,138.4L515.8,134.2L517.6,133.6L519.4,131.4L521.6,132.0L521.8,130.0L524.0,128.6L524.8,126.0L526.6,125.4L529.8,126.2L532.8,128.2L533.2,130.6L533.8,135.0L535.6,137.8L533.0,139.4L534.2,142.8L532.6,143.4L533.8,148.0L536.4,149.8L537.0,151.0L534.8,153.8L535.2,156.4L533.2,158.6L531.6,157.4L531.2,162.2L535.0,165.6L537.6,167.6L534.8,170.4L534.8,172.6L539.8,175.0L538.8,178.2L541.8,181.4L541.6,185.2L544.4,188.6L547.6,187.8L548.6,185.4L550.0,184.6L552.6,186.8L551.8,191.0L554.2,196.0L555.2,198.2L557.4,197.0L561.6,196.4L563.2,195.2L564.8,195.6L566.4,193.2L567.8,192.6L567.0,195.0L568.6,197.0L565.8,198.0L567.0,200.8L565.2,203.2L567.2,206.4L569.6,206.4L567.4,211.0L567.4,215.2L565.2,221.0L567.4,221.2L566.0,223.6L563.0,225.8L562.4,229.0L564.2,230.4L561.8,233.4L559.2,233.0L557.4,235.4L555.4,233.4L554.8,236.8L551.0,238.0L552.4,235.6L550.6,235.4L549.0,233.4L545.8,235.0L545.2,233.0L542.2,231.8L541.2,233.6L532.2,229.6L528.0,234.6L522.6,238.6L520.8,236.8L519.2,234.8L516.6,235.8L512.8,237.8L508.6,233.4L504.8,234.6L501.8,234.4L500.2,236.8L497.4,234.0L494.8,234.8L495.4,240.4L494.0,241.4L493.4,243.6L491.6,245.0L490.6,242.4L487.6,241.0L486.4,241.6L483.4,237.2L481.8,237.2L477.8,233.2L474.8,234.0L473.2,231.8L471.2,232.8L467.2,232.2L463.0,233.6L460.6,231.0L460.4,228.6L455.4,229.2L455.0,224.6L453.6,220.2L450.4,219.2L447.8,215.4L445.4,216.0Z" />
		<path id="L1610964902415" name="神龙架林区" class="qing-map-1616134833691" d="M183.8,224.8L188.6,223.8L192.2,221.0L193.6,217.4L197.4,215.2L201.0,215.0L203.8,216.4L206.2,218.8L206.8,217.2L207.8,215.0L205.6,213.0L206.0,211.6L208.4,208.4L207.2,203.6L208.0,200.8L211.4,198.8L213.0,197.0L220.0,197.2L220.4,193.2L224.0,191.4L226.0,191.2L229.0,192.4L230.8,190.2L231.0,187.8L233.6,186.8L236.2,187.8L242.0,188.6L243.6,187.8L247.6,188.8L248.6,186.6L252.2,188.8L256.6,189.0L258.89,192.89L263.25,195.89L264.25,197.89L267.11,199.69L267.0,202.49L267.91,206.09L270.91,208.29L273.31,207.69L276.31,209.29L273.09,215.89L274.29,218.69L270.6,220.4L270.8,222.4L265.0,226.0L262.0,221.8L259.8,220.2L257.4,221.4L254.6,222.2L254.2,224.6L251.4,228.2L248.8,227.8L242.8,227.4L241.0,235.4L239.4,236.8L240.6,239.4L238.8,240.2L239.8,244.2L236.0,246.0L233.8,243.0L232.4,239.4L231.0,244.2L227.8,244.2L227.0,241.0L224.0,239.6L222.0,239.8L220.0,237.6L216.6,237.6L215.0,240.0L211.2,241.6L206.6,248.0L201.4,247.8L200.8,244.6L199.2,240.2L199.2,238.6L197.0,237.0L196.4,235.8L194.2,236.6L190.6,235.8L185.2,229.6L182.0,229.6L180.6,227.4Z" />
		<path id="L1610965216155" name="恩施土家族苗族自治州" class="qing-map-1616134833691" d="M233.2,396.8L235.6,398.8L237.4,404.6L239.8,404.8L243.0,405.4L246.0,412.0L244.2,414.2L239.6,418.2L236.8,418.6L235.0,421.0L232.6,420.4L230.2,419.2L228.8,419.6L227.8,423.2L225.0,424.2L220.2,427.0L217.4,423.4L214.6,424.0L212.4,419.6L209.8,418.2L209.8,416.8L207.2,416.2L205.6,414.2L203.4,413.6L202.2,414.8L198.0,411.0L192.6,410.4L188.8,412.6L186.6,412.2L185.0,412.8L183.6,411.8L180.6,412.2L177.6,413.8L175.0,412.0L172.4,412.6L169.4,412.4L163.8,415.4L164.6,417.4L163.4,418.8L164.4,420.8L162.2,422.6L159.6,423.0L160.0,425.8L158.6,427.4L159.8,428.8L154.8,430.6L153.6,428.6L150.8,427.4L147.0,427.6L146.2,429.4L143.0,429.4L139.2,433.6L139.2,435.6L136.2,436.0L136.2,438.0L133.4,438.8L133.4,443.0L132.4,441.6L130.8,444.6L131.8,446.8L127.6,450.0L129.2,453.2L125.0,456.0L124.8,461.4L126.8,463.6L122.6,467.8L120.6,468.4L118.0,470.6L119.6,474.0L118.0,478.6L119.0,480.8L115.0,482.2L114.2,478.8L112.6,479.4L108.8,475.6L107.2,477.2L103.8,471.8L107.0,466.6L105.2,464.4L103.0,463.8L105.0,461.8L103.6,460.8L103.8,456.4L98.4,452.2L96.4,456.0L92.4,456.6L92.6,459.2L86.4,459.4L87.8,449.4L86.2,447.6L82.6,447.6L81.0,443.6L83.4,441.8L83.8,438.2L82.0,437.2L85.6,434.4L84.2,431.6L81.2,431.0L83.4,428.0L81.6,426.6L80.2,427.4L79.4,425.2L74.4,425.8L74.2,421.4L71.4,420.6L72.6,424.0L66.8,422.0L68.0,420.6L64.6,418.4L64.2,415.2L63.8,409.4L61.8,407.8L62.8,406.0L62.0,403.6L59.4,403.6L58.8,402.0L55.4,403.4L54.4,406.0L52.2,407.4L49.2,412.4L51.8,414.6L50.4,416.4L48.4,416.4L47.4,419.2L43.2,416.0L41.6,415.6L42.0,412.4L40.0,411.6L40.6,408.8L37.4,405.4L36.4,407.8L35.2,405.6L37.2,403.4L40.6,402.0L44.0,402.8L47.6,401.4L49.6,402.0L49.4,397.2L49.0,395.4L51.6,389.0L49.8,386.4L50.4,381.6L49.2,381.2L54.0,371.6L52.2,369.8L55.2,361.0L52.2,360.0L49.8,355.4L46.4,353.6L43.4,349.4L41.4,350.0L38.4,348.2L38.4,346.0L39.6,345.4L41.2,343.4L39.6,341.6L40.4,339.2L39.4,337.0L41.8,335.2L45.0,336.2L47.0,334.6L49.4,336.2L51.2,335.6L53.4,337.6L58.0,333.8L61.2,330.0L60.2,326.0L64.0,324.8L65.8,327.6L66.6,330.8L68.6,334.4L71.2,334.0L74.0,332.8L77.0,335.4L82.4,329.4L87.8,323.4L91.2,320.4L92.8,321.4L96.6,318.2L99.8,319.4L102.4,319.0L105.0,321.0L101.0,323.4L106.6,332.0L109.4,329.2L111.2,329.8L116.0,325.4L120.4,321.4L127.2,328.4L125.0,333.2L126.6,335.2L131.8,329.4L135.4,322.6L138.2,320.8L142.8,316.6L143.0,319.0L146.2,319.0L148.2,314.2L152.8,311.4L155.4,309.0L154.0,306.0L158.4,304.2L160.4,304.6L160.4,301.8L166.0,296.2L170.0,296.2L173.8,292.8L177.6,291.6L181.4,293.4L183.0,292.0L186.4,292.8L187.2,298.6L190.0,300.4L190.8,302.0L194.2,301.4L196.6,296.8L200.6,290.6L199.8,288.0L202.4,282.0L199.2,281.2L199.2,276.6L197.4,276.6L198.8,272.8L197.2,270.8L200.2,267.4L203.8,265.8L205.0,263.0L202.8,260.8L203.0,257.8L202.2,253.8L200.4,249.6L201.4,247.8L206.6,248.0L211.2,241.6L215.0,240.0L216.6,237.6L220.0,237.6L222.0,239.8L224.0,239.6L227.0,241.0L227.8,244.2L226.8,246.6L226.8,250.2L232.2,253.4L231.0,255.2L231.0,258.2L230.0,259.8L232.6,260.2L232.6,263.0L236.2,265.8L234.8,268.0L232.8,270.8L230.0,271.2L229.2,274.0L231.4,276.2L229.4,277.6L227.8,276.8L228.0,281.0L226.2,282.0L228.4,284.2L225.8,288.4L227.0,292.8L223.6,294.2L218.8,298.2L217.2,298.8L217.6,301.6L216.2,303.6L217.0,306.6L222.0,304.0L225.8,304.2L227.2,307.2L229.8,311.0L227.6,315.2L229.8,317.6L228.0,318.2L227.8,320.4L226.4,321.6L229.2,323.6L229.8,327.4L232.0,328.6L229.8,331.8L228.2,332.0L227.2,335.4L221.0,337.8L221.4,340.0L220.4,343.8L221.6,345.8L218.8,349.0L220.2,351.4L218.8,353.8L220.6,354.8L218.4,359.6L218.2,361.6L216.0,361.4L212.4,361.8L211.2,360.8L210.2,363.6L214.2,366.0L211.2,368.0L213.8,370.2L214.6,372.0L218.8,374.0L216.2,376.6L218.0,378.4L216.4,382.6L214.8,384.0L215.4,386.6L213.4,387.8L215.2,390.0L214.2,392.4L217.4,394.4L220.2,392.8L222.4,393.2L224.2,392.6L226.0,392.8L227.2,388.8L232.0,385.8L234.2,387.6L238.0,389.2L234.2,392.0Z" />
		<path id="L1611020798100" name="宜昌市" class="qing-map-1616134833691" d="M286.85,233.49L286.25,235.09L288.85,234.89L289.85,232.49L292.05,233.09L293.65,231.49L297.25,232.29L298.25,230.09L302.85,230.49L304.85,232.69L302.85,234.69L304.25,238.29L307.25,238.49L308.25,241.09L312.05,242.09L316.05,239.69L318.45,239.89L320.05,246.49L324.05,245.89L327.45,248.09L328.85,246.09L331.65,245.89L333.65,243.29L337.25,239.89L339.65,241.69L343.65,241.69L347.85,240.69L348.45,245.69L347.25,247.29L350.25,249.69L350.05,251.89L352.05,251.29L353.65,253.49L358.65,255.29L361.0,260.8L362.8,260.2L365.4,261.4L365.2,264.4L366.2,266.6L368.4,267.4L365.0,271.6L362.8,271.8L363.8,274.8L368.2,273.8L367.8,276.2L370.0,279.0L372.2,280.6L372.4,283.0L372.2,285.8L374.4,287.8L374.4,293.2L373.0,294.8L375.4,298.0L374.8,300.0L376.8,301.4L376.0,304.8L377.8,306.0L378.2,308.8L376.8,310.0L379.6,314.8L378.8,317.2L375.2,317.4L373.6,319.0L372.8,321.6L370.6,322.8L371.2,324.8L368.6,325.8L371.4,326.6L371.8,328.8L370.0,331.6L369.4,333.4L364.6,333.4L363.4,336.2L364.6,337.2L363.2,339.0L366.6,340.8L368.0,339.8L369.4,341.6L369.4,348.6L374.0,354.8L376.6,355.8L376.2,358.6L371.2,357.8L365.6,350.4L363.8,350.4L362.0,357.8L358.4,356.8L355.6,357.4L355.4,355.8L354.2,355.6L351.2,351.8L350.6,348.4L346.6,348.4L343.8,350.6L339.8,352.8L337.6,352.8L335.2,359.0L332.4,360.6L332.8,362.0L335.0,362.8L333.8,365.0L334.0,367.4L332.6,369.2L333.2,371.0L332.0,375.0L326.4,377.6L325.6,376.2L323.2,378.0L320.8,376.4L318.6,376.4L315.6,374.8L313.2,377.2L309.6,379.0L308.2,382.0L304.0,382.8L301.8,384.2L288.2,383.0L282.8,383.0L273.6,381.4L271.2,380.0L271.4,376.2L267.2,376.2L265.4,374.6L262.4,374.6L260.4,375.8L257.6,374.8L254.4,376.0L255.8,377.4L256.2,382.2L252.0,384.6L249.4,383.0L247.0,379.6L242.6,382.0L235.4,381.0L232.2,382.8L232.0,385.8L227.2,388.8L226.0,392.8L224.2,392.6L222.4,393.2L220.2,392.8L217.4,394.4L214.2,392.4L215.2,390.0L213.4,387.8L215.4,386.6L214.8,384.0L216.4,382.6L218.0,378.4L216.2,376.6L218.8,374.0L214.6,372.0L213.8,370.2L211.2,368.0L214.2,366.0L210.2,363.6L211.2,360.8L212.4,361.8L216.0,361.4L218.2,361.6L218.4,359.6L220.6,354.8L218.8,353.8L220.2,351.4L218.8,349.0L221.6,345.8L220.4,343.8L221.4,340.0L221.0,337.8L227.2,335.4L228.2,332.0L229.8,331.8L232.0,328.6L229.8,327.4L229.2,323.6L226.4,321.6L227.8,320.4L228.0,318.2L229.8,317.6L227.6,315.2L229.8,311.0L227.2,307.2L225.8,304.2L222.0,304.0L217.0,306.6L216.2,303.6L217.6,301.6L217.2,298.8L218.8,298.2L223.6,294.2L227.0,292.8L225.8,288.4L228.4,284.2L226.2,282.0L228.0,281.0L227.8,276.8L229.4,277.6L231.4,276.2L229.2,274.0L230.0,271.2L232.8,270.8L234.8,268.0L236.2,265.8L232.6,263.0L232.6,260.2L230.0,259.8L231.0,258.2L231.0,255.2L232.2,253.4L226.8,250.2L226.8,246.6L227.8,244.2L231.0,244.2L232.4,239.4L233.8,243.0L236.0,246.0L239.8,244.2L238.8,240.2L240.6,239.4L239.4,236.8L241.0,235.4L242.8,227.4L248.8,227.8L251.4,228.2L254.2,224.6L254.6,222.2L257.4,221.4L259.8,220.2L262.0,221.8L265.0,226.0L270.8,222.4L270.6,220.4L274.29,218.69L277.8,218.29L283.0,218.69L282.0,221.49L284.2,225.69L281.91,228.49L283.05,231.29Z" />
		<path id="L1611021592161" name="荆门市" class="qing-map-1616134833691" d="M390.0,337.6L388.0,336.4L388.0,333.2L389.0,332.0L387.6,330.4L384.6,332.0L383.6,329.2L384.6,328.0L381.6,323.8L382.4,320.8L380.8,319.6L378.8,317.2L379.6,314.8L376.8,310.0L378.2,308.8L377.8,306.0L376.0,304.8L376.8,301.4L374.8,300.0L375.4,298.0L373.0,294.8L374.4,293.2L374.4,287.8L372.2,285.8L372.4,283.0L372.2,280.6L370.0,279.0L367.8,276.2L368.2,273.8L363.8,274.8L362.8,271.8L365.0,271.6L368.4,267.4L366.2,266.6L365.2,264.4L365.4,261.4L362.8,260.2L361.0,260.8L358.65,255.29L361.25,254.69L362.65,252.29L365.05,253.29L366.05,250.69L363.45,244.89L365.65,243.49L366.45,237.69L367.05,232.49L370.85,231.29L373.45,232.89L375.65,231.89L377.45,233.29L378.25,230.69L381.25,229.69L384.25,230.29L386.25,228.09L388.85,229.09L389.05,224.49L390.65,222.89L392.45,223.89L394.85,222.09L399.25,221.69L401.45,223.09L403.05,224.49L408.85,225.29L412.65,224.89L413.45,221.69L416.85,221.89L420.25,219.69L422.25,218.89L424.85,219.89L427.65,221.69L429.65,225.29L431.45,224.69L435.45,226.29L437.45,228.69L438.45,225.29L437.85,222.89L435.85,221.49L438.05,219.09L440.05,219.73L440.85,217.73L441.65,214.13L445.4,216.0L447.8,215.4L450.4,219.2L453.6,220.2L455.0,224.6L455.4,229.2L460.4,228.6L460.6,231.0L463.0,233.6L467.2,232.2L471.2,232.8L473.2,231.8L474.8,234.0L477.8,233.2L481.8,237.2L483.4,237.2L486.4,241.6L487.6,241.0L490.6,242.4L491.6,245.0L493.4,243.6L495.8,246.6L497.4,246.4L499.0,249.4L500.8,248.2L503.8,250.6L504.6,254.2L506.8,255.6L508.4,255.0L509.6,257.4L509.0,262.8L508.2,266.4L509.8,267.4L507.6,269.0L507.4,274.4L506.2,276.4L504.0,276.8L504.0,278.4L498.2,284.4L497.6,285.8L497.8,287.4L494.8,288.2L494.6,291.6L492.8,292.4L490.8,290.6L488.4,292.4L485.8,295.8L483.4,296.4L483.8,299.0L480.0,299.8L477.2,302.0L474.8,300.6L472.2,299.4L470.8,300.6L471.0,303.6L466.4,304.4L464.2,302.8L462.4,305.6L459.8,306.8L457.2,310.8L454.6,311.6L453.4,313.2L449.0,309.2L448.2,306.6L449.0,303.2L446.2,299.0L442.8,302.8L440.2,302.8L430.2,312.4L427.8,312.4L426.4,316.2L430.6,319.0L435.2,317.0L438.0,317.2L438.0,319.6L435.8,318.6L432.2,320.6L430.4,320.6L430.6,323.4L428.8,327.6L427.4,328.2L429.6,332.0L428.4,334.0L426.4,332.6L424.4,333.2L424.6,336.0L425.4,339.0L421.4,341.0L420.4,345.6L416.4,343.4L414.0,341.6L411.6,343.0L408.4,341.8L403.8,344.8L399.8,341.8L400.8,338.8L400.0,336.2L397.2,336.2L395.2,334.6L392.4,333.8L390.0,334.6Z" />
		<path id="L1611022073053" name="天门市" class="qing-map-1616134833691" d="M438.0,319.6L438.0,317.2L435.2,317.0L430.6,319.0L426.4,316.2L427.8,312.4L430.2,312.4L440.2,302.8L442.8,302.8L446.2,299.0L449.0,303.2L448.2,306.6L449.0,309.2L453.4,313.2L454.6,311.6L457.2,310.8L459.8,306.8L462.4,305.6L464.2,302.8L466.4,304.4L471.0,303.6L470.8,300.6L472.2,299.4L474.8,300.6L477.2,302.0L480.0,299.8L483.8,299.0L483.4,296.4L485.8,295.8L488.4,292.4L490.8,290.6L492.8,292.4L494.6,291.6L495.6,294.0L497.8,294.2L498.6,296.6L500.6,297.2L504.6,303.6L503.4,308.2L505.0,309.6L503.8,312.2L505.4,313.6L504.0,315.4L505.0,318.0L507.2,319.6L504.6,327.2L504.6,330.2L506.0,331.8L504.8,335.0L505.6,337.2L507.4,338.6L506.8,342.6L507.6,345.6L505.6,347.0L501.6,344.6L497.2,342.4L493.4,343.2L491.0,342.0L485.6,342.0L483.4,343.0L481.2,339.6L479.4,341.6L476.0,338.8L476.0,336.0L474.0,336.2L472.0,337.2L470.6,335.4L471.2,333.2L467.2,331.4L462.8,331.2L460.0,331.4L458.8,328.0L456.2,326.0L453.0,327.8L453.6,331.6L453.6,334.4L450.4,335.2L446.6,331.8L445.2,327.0L442.6,326.0L439.8,326.6L437.0,328.6L434.8,324.4L434.8,321.2Z" />
		<path id="L1611022345757" name="孝感市" class="qing-map-1616134833691" d="M507.6,345.6L506.8,342.6L507.4,338.6L505.6,337.2L504.8,335.0L506.0,331.8L504.6,330.2L504.6,327.2L507.2,319.6L505.0,318.0L504.0,315.4L505.4,313.6L503.8,312.2L505.0,309.6L503.4,308.2L504.6,303.6L500.6,297.2L498.6,296.6L497.8,294.2L495.6,294.0L494.6,291.6L494.8,288.2L497.8,287.4L497.6,285.8L498.2,284.4L504.0,278.4L504.0,276.8L506.2,276.4L507.4,274.4L507.6,269.0L509.8,267.4L508.2,266.4L509.0,262.8L509.6,257.4L508.4,255.0L506.8,255.6L504.6,254.2L503.8,250.6L500.8,248.2L499.0,249.4L497.4,246.4L495.8,246.6L493.4,243.6L494.0,241.4L495.4,240.4L494.8,234.8L497.4,234.0L500.2,236.8L501.8,234.4L504.8,234.6L508.6,233.4L512.8,237.8L516.6,235.8L519.2,234.8L520.8,236.8L522.6,238.6L528.0,234.6L532.2,229.6L541.2,233.6L542.2,231.8L545.2,233.0L545.8,235.0L549.0,233.4L550.6,235.4L552.4,235.6L551.0,238.0L554.8,236.8L555.4,233.4L557.4,235.4L559.2,233.0L561.8,233.4L564.2,230.4L562.4,229.0L563.0,225.8L566.0,223.6L567.4,221.2L565.2,221.0L567.4,215.2L567.4,211.0L569.6,206.4L567.2,206.4L565.2,203.2L567.0,200.8L565.8,198.0L568.6,197.0L567.0,195.0L567.8,192.6L569.2,188.6L570.4,189.4L573.4,187.6L576.0,189.0L577.8,189.0L579.2,191.8L580.8,192.8L584.2,198.6L588.6,198.0L592.6,199.8L594.8,199.6L595.8,200.6L598.4,201.2L601.2,199.8L603.2,200.2L604.4,197.2L606.8,200.0L608.6,197.2L610.8,197.6L609.8,208.6L607.6,209.8L608.6,219.0L608.0,220.8L605.6,220.4L603.0,226.4L604.6,230.0L602.6,229.8L601.0,231.8L601.6,235.8L599.2,236.8L598.6,239.0L596.8,238.8L596.8,242.0L597.4,246.8L594.6,246.2L591.0,246.8L590.0,245.0L587.8,246.2L585.8,244.0L583.8,241.2L579.6,243.0L579.2,245.6L577.2,247.6L575.8,247.6L573.6,252.2L574.6,256.2L577.0,258.4L578.6,258.0L580.0,260.8L577.0,265.4L573.4,268.2L574.0,271.4L574.6,274.6L571.6,276.4L573.0,281.0L573.4,282.8L571.2,285.8L572.4,297.6L573.8,299.6L573.0,301.4L574.0,306.2L565.4,304.6L561.2,303.8L558.8,304.4L556.8,303.2L554.4,304.0L550.2,304.2L548.0,306.0L548.8,307.8L547.4,310.2L547.6,312.0L549.8,312.8L553.4,314.4L550.0,318.8L550.0,321.4L551.6,323.8L550.2,326.4L547.0,326.8L546.0,329.2L546.4,331.0L543.2,330.8L541.6,332.8L541.8,335.2L539.2,335.8L536.6,339.4L535.6,341.8L531.2,342.6L529.8,346.2L526.2,345.0L525.4,342.8L521.8,343.0L521.6,341.0L523.2,338.2L521.8,335.8L520.8,337.2L518.2,336.2L516.0,337.6L514.2,342.0L512.2,343.4L510.6,345.6L509.6,347.4Z" />
		<path id="L1611023259217" name="武汉市" class="qing-map-1616134833691" d="M646.8,300.6L644.8,301.4L646.4,303.2L645.2,305.0L643.4,303.2L641.8,303.6L640.2,302.4L638.2,302.2L638.6,305.2L635.2,308.2L630.4,311.2L631.8,314.2L632.4,316.8L633.8,315.6L636.4,319.6L630.0,321.8L625.6,324.4L614.6,328.0L615.6,331.2L616.6,337.0L614.4,339.6L611.8,338.8L611.0,341.0L612.0,343.8L611.2,349.0L612.4,350.8L612.0,357.2L610.0,358.0L609.6,361.0L607.2,362.4L607.4,366.4L605.2,367.4L604.6,370.8L603.6,375.0L606.0,377.0L607.6,381.6L608.2,384.0L606.0,391.0L603.4,389.0L601.0,389.0L591.4,384.4L588.0,385.2L586.4,386.8L580.2,388.6L576.4,387.6L576.8,385.6L574.6,383.6L574.8,379.0L572.4,378.2L572.2,376.4L570.6,375.6L571.4,373.0L566.8,366.6L562.0,366.0L560.6,364.0L558.4,359.8L554.2,356.4L550.0,356.8L548.8,359.4L545.8,363.2L544.4,367.2L540.6,368.6L539.8,366.4L535.0,365.0L534.8,361.6L536.6,361.2L537.8,357.2L534.8,356.8L535.2,353.6L533.2,350.6L533.8,348.0L529.8,346.2L531.2,342.6L535.6,341.8L536.6,339.4L539.2,335.8L541.8,335.2L541.6,332.8L543.2,330.8L546.4,331.0L546.0,329.2L547.0,326.8L550.2,326.4L551.6,323.8L550.0,321.4L550.0,318.8L553.4,314.4L549.8,312.8L547.6,312.0L547.4,310.2L548.8,307.8L548.0,306.0L550.2,304.2L554.4,304.0L556.8,303.2L558.8,304.4L561.2,303.8L565.4,304.6L574.0,306.2L573.0,301.4L573.8,299.6L572.4,297.6L571.2,285.8L573.4,282.8L573.0,281.0L571.6,276.4L574.6,274.6L574.0,271.4L573.4,268.2L577.0,265.4L580.0,260.8L578.6,258.0L577.0,258.4L574.6,256.2L573.6,252.2L575.8,247.6L577.2,247.6L579.2,245.6L579.6,243.0L583.8,241.2L585.8,244.0L587.8,246.2L590.0,245.0L591.0,246.8L594.6,246.2L597.4,246.8L594.2,252.8L594.2,255.6L598.2,257.6L598.6,259.2L600.8,259.4L599.2,261.2L602.0,263.6L605.0,264.2L606.6,269.8L604.6,272.8L604.8,275.2L603.0,276.6L604.4,279.0L607.0,279.8L610.4,283.4L612.8,284.0L614.4,288.2L617.8,287.4L621.4,285.2L622.8,282.0L624.6,282.4L627.0,280.8L628.8,281.6L631.4,280.4L631.6,284.0L632.8,286.0L637.4,286.0L638.6,284.2L637.8,281.4L639.2,279.6L641.2,279.4L642.4,278.2L643.0,280.8L645.2,280.6L646.2,281.8L648.0,279.8L649.0,282.6L649.6,287.4L655.0,290.2L657.2,293.0L655.0,294.6L654.4,296.2L649.4,295.4L649.4,298.0L649.2,300.6Z" />
		<path id="L1611023712859" name="黄冈市" class="qing-map-1616134833691" d="M733.0,336.0L733.0,337.8L732.6,339.2L734.8,340.6L734.8,343.4L733.2,345.6L731.6,346.6L732.6,350.2L734.8,351.2L733.2,355.2L735.0,355.8L737.8,355.0L741.4,357.2L741.0,360.0L745.4,364.2L746.4,363.6L748.4,366.2L747.4,368.4L748.6,372.8L750.8,374.6L750.6,377.2L749.6,378.4L750.6,379.8L749.4,380.8L750.6,383.4L749.4,388.8L749.2,391.4L753.2,398.2L755.4,401.8L754.0,403.0L755.2,406.6L752.4,408.4L749.0,410.6L747.0,413.6L739.4,417.2L735.8,417.8L732.0,416.6L726.4,414.6L718.0,407.8L714.0,404.4L709.8,404.8L707.0,405.8L697.6,406.0L692.4,403.4L689.6,399.0L686.8,396.8L687.6,393.8L679.8,384.8L680.2,379.8L673.4,369.2L670.2,365.8L665.8,364.8L662.4,365.8L657.4,363.0L656.8,360.2L658.0,356.8L657.2,350.0L654.6,346.2L650.2,344.2L643.6,344.4L637.6,342.0L634.0,337.4L635.0,331.6L633.0,324.8L630.0,321.8L636.4,319.6L633.8,315.6L632.4,316.8L631.8,314.2L630.4,311.2L635.2,308.2L638.6,305.2L638.2,302.2L640.2,302.4L641.8,303.6L643.4,303.2L645.2,305.0L646.4,303.2L644.8,301.4L646.8,300.6L649.2,300.6L649.4,298.0L649.4,295.4L654.4,296.2L655.0,294.6L657.2,293.0L655.0,290.2L649.6,287.4L649.0,282.6L648.0,279.8L646.2,281.8L645.2,280.6L643.0,280.8L642.4,278.2L641.2,279.4L639.2,279.6L637.8,281.4L638.6,284.2L637.4,286.0L632.8,286.0L631.6,284.0L631.4,280.4L628.8,281.6L627.0,280.8L624.6,282.4L622.8,282.0L621.4,285.2L617.8,287.4L614.4,288.2L612.8,284.0L610.4,283.4L607.0,279.8L604.4,279.0L603.0,276.6L604.8,275.2L604.6,272.8L606.6,269.8L605.0,264.2L602.0,263.6L599.2,261.2L600.8,259.4L598.6,259.2L598.2,257.6L594.2,255.6L594.2,252.8L597.4,246.8L596.8,242.0L596.8,238.8L598.6,239.0L599.2,236.8L601.6,235.8L601.0,231.8L602.6,229.8L604.6,230.0L603.0,226.4L605.6,220.4L608.0,220.8L608.6,219.0L611.2,219.2L612.4,217.4L614.2,216.8L616.6,217.6L618.8,220.8L621.2,221.0L621.4,223.4L627.0,223.0L628.6,224.8L630.4,228.2L633.2,229.2L633.6,230.4L635.8,228.6L638.6,229.4L644.2,228.4L645.8,226.6L647.8,226.6L648.0,228.8L650.6,227.6L650.2,226.0L651.6,223.4L653.6,225.2L658.0,225.4L658.6,224.0L660.0,223.4L659.2,221.0L659.6,219.2L661.6,217.0L661.6,215.2L665.0,214.6L665.6,216.4L669.4,220.0L671.6,219.4L670.8,222.0L669.6,224.2L669.4,227.8L669.2,230.6L669.8,234.0L672.6,234.4L673.6,235.4L673.0,236.8L676.2,236.8L678.2,238.8L680.8,237.2L683.2,237.2L684.2,236.6L685.2,238.2L684.4,242.4L687.2,243.2L688.4,242.2L690.6,243.6L691.4,247.0L692.4,249.8L693.4,252.2L694.4,251.2L697.6,251.6L699.8,255.4L698.8,258.0L699.8,259.2L703.8,264.8L705.2,263.4L705.6,261.8L709.0,260.2L709.4,256.6L713.6,258.4L715.4,258.6L715.4,260.6L717.4,261.0L717.6,263.2L719.0,263.4L721.6,268.4L723.0,266.6L727.6,267.2L728.8,265.0L730.4,264.2L732.4,269.6L737.4,273.2L737.0,276.2L740.6,276.0L743.0,277.4L743.8,278.8L747.2,278.8L748.4,282.2L748.8,285.0L745.6,285.0L741.0,287.6L739.4,288.2L736.8,290.8L735.6,292.6L734.4,292.0L729.8,295.0L728.4,296.8L728.2,299.0L729.6,300.2L729.0,303.0L730.2,304.6L725.8,307.0L723.2,306.4L721.4,309.4L720.8,313.6L721.4,316.4L723.2,317.0L724.0,319.0L726.0,323.2L730.8,325.4L730.6,327.0L732.2,330.0L733.8,333.0Z" />
		<path id="L1611024340151" name="荆州市" class="qing-map-1616134833691" d="M454.23,411.38L452.38,411.13L445.13,416.38L445.2,421.8L443.0,422.6L442.0,424.6L439.8,425.8L438.6,424.8L436.0,430.4L434.4,431.8L433.2,430.6L431.6,431.4L430.0,428.8L428.8,429.8L425.0,428.4L422.4,430.8L418.4,430.0L417.8,427.6L412.4,427.8L410.8,430.4L408.8,434.2L405.6,437.2L401.6,437.0L400.8,438.4L399.0,439.4L398.0,437.4L399.8,433.2L398.2,431.2L393.6,429.8L392.6,427.4L394.0,424.8L388.6,428.8L388.2,425.6L386.8,424.4L383.2,425.2L380.4,422.0L378.0,422.0L377.6,420.2L378.2,418.6L378.8,415.4L376.4,415.2L372.6,411.8L367.6,409.8L366.8,407.8L368.6,406.8L367.6,405.2L366.2,405.8L363.6,403.8L356.8,401.8L354.6,399.0L349.8,398.2L349.2,396.6L346.8,396.6L344.8,399.0L341.2,400.2L339.4,399.6L336.4,399.0L334.6,400.4L328.6,398.4L327.8,395.8L324.0,396.8L319.6,395.2L316.2,397.6L313.6,395.2L314.2,393.6L311.8,393.4L307.0,390.2L305.8,387.6L303.4,387.0L301.8,384.2L304.0,382.8L308.2,382.0L309.6,379.0L313.2,377.2L315.6,374.8L318.6,376.4L320.8,376.4L323.2,378.0L325.6,376.2L326.4,377.6L332.0,375.0L333.2,371.0L332.6,369.2L334.0,367.4L333.8,365.0L335.0,362.8L332.8,362.0L332.4,360.6L335.2,359.0L337.6,352.8L339.8,352.8L343.8,350.6L346.6,348.4L350.6,348.4L351.2,351.8L354.2,355.6L355.4,355.8L355.6,357.4L358.4,356.8L362.0,357.8L363.8,350.4L365.6,350.4L371.2,357.8L376.2,358.6L376.6,355.8L374.0,354.8L369.4,348.6L369.4,341.6L368.0,339.8L366.6,340.8L363.2,339.0L364.6,337.2L363.4,336.2L364.6,333.4L369.4,333.4L370.0,331.6L371.8,328.8L371.4,326.6L368.6,325.8L371.2,324.8L370.6,322.8L372.8,321.6L373.6,319.0L375.2,317.4L378.8,317.2L380.8,319.6L382.4,320.8L381.6,323.8L384.6,328.0L383.6,329.2L384.6,332.0L387.6,330.4L389.0,332.0L388.0,333.2L388.0,336.4L390.0,337.6L390.0,334.6L392.4,333.8L395.2,334.6L397.2,336.2L400.0,336.2L400.8,338.8L399.8,341.8L403.8,344.8L408.4,341.8L411.6,343.0L414.0,341.6L416.4,343.4L420.4,345.6L418.2,347.6L420.2,351.0L419.8,353.6L420.0,357.0L423.4,360.8L425.4,365.2L425.0,369.4L427.6,370.0L425.2,375.4L428.4,375.0L432.4,377.2L434.6,376.8L436.2,378.4L440.0,378.4L440.6,380.0L447.4,379.4L447.0,377.0L447.0,371.2L449.2,370.6L450.8,368.2L453.4,368.6L455.0,370.8L459.2,371.2L460.0,373.2L462.0,372.6L463.6,374.4L465.8,372.8L465.8,369.6L467.4,367.2L469.4,367.6L472.4,372.0L475.4,371.6L478.6,372.4L483.6,371.2L489.0,372.2L493.4,370.8L495.8,367.4L499.6,366.8L502.6,370.0L506.2,371.6L508.8,375.8L511.6,377.6L512.4,380.2L516.6,380.0L521.8,378.4L524.2,378.0L525.8,379.6L529.8,377.6L530.0,375.6L532.2,375.4L532.8,373.4L535.2,375.0L537.6,373.6L540.4,370.4L540.6,368.6L544.4,367.2L546.6,368.6L552.2,366.0L556.0,367.2L560.0,371.6L564.2,374.2L565.2,376.0L564.4,378.2L557.8,381.2L551.8,384.4L548.0,387.2L544.0,390.2L541.2,394.8L537.4,396.6L530.2,396.4L524.6,397.2L522.0,400.8L516.8,404.8L512.8,407.2L511.0,410.4L508.2,412.2L505.0,415.0L502.2,416.8L498.8,420.2L496.4,422.6L493.6,426.2L491.6,430.4L489.8,431.6L489.2,433.4L485.0,437.2L482.6,440.6L478.2,446.8L473.0,446.0L472.2,448.6L471.0,446.4L470.0,439.8L467.6,438.8L462.8,442.4L462.0,444.6L460.4,445.0L459.0,442.8L458.6,437.6L456.4,428.8L464.0,421.8L466.2,418.6L467.4,413.0L466.2,412.2L462.2,416.2L460.6,420.6L458.6,422.2L457.0,419.2L458.03,415.35L457.05,413.2L456.9,411.8L457.5,410.4L455.6,409.4L454.0,409.8Z" />
		<path id="L1611024844353" name="潜江市" class="qing-map-1616134833691" d="M467.4,367.2L465.8,369.6L465.8,372.8L463.6,374.4L462.0,372.6L460.0,373.2L459.2,371.2L455.0,370.8L453.4,368.6L450.8,368.2L449.2,370.6L447.0,371.2L447.0,377.0L447.4,379.4L440.6,380.0L440.0,378.4L436.2,378.4L434.6,376.8L432.4,377.2L428.4,375.0L425.2,375.4L427.6,370.0L425.0,369.4L425.4,365.2L423.4,360.8L420.0,357.0L419.8,353.6L420.2,351.0L418.2,347.6L420.4,345.6L421.4,341.0L425.4,339.0L424.6,336.0L424.4,333.2L426.4,332.6L428.4,334.0L429.6,332.0L427.4,328.2L428.8,327.6L430.6,323.4L430.4,320.6L432.2,320.6L435.8,318.6L438.0,319.6L434.8,321.2L434.8,324.4L437.0,328.6L439.8,326.6L442.6,326.0L445.2,327.0L446.6,331.8L450.4,335.2L453.6,334.4L453.6,331.6L453.0,327.8L456.2,326.0L458.8,328.0L460.0,331.4L458.8,334.4L462.0,336.8L463.8,337.0L462.4,340.6L463.6,342.0L462.0,344.2L460.2,347.4L462.2,351.2L462.4,354.8L465.2,355.8L464.6,362.4L466.0,365.2Z" />
		<path id="L1611025026331" name="仙桃市" class="qing-map-1616134833691" d="M467.4,367.2L466.0,365.2L464.6,362.4L465.2,355.8L462.4,354.8L462.2,351.2L460.2,347.4L462.0,344.2L463.6,342.0L462.4,340.6L463.8,337.0L462.0,336.8L458.8,334.4L460.0,331.4L462.8,331.2L467.2,331.4L471.2,333.2L470.6,335.4L472.0,337.2L474.0,336.2L476.0,336.0L476.0,338.8L479.4,341.6L481.2,339.6L483.4,343.0L485.6,342.0L491.0,342.0L493.4,343.2L497.2,342.4L501.6,344.6L505.6,347.0L507.6,345.6L509.6,347.4L510.6,345.6L512.2,343.4L514.2,342.0L516.0,337.6L518.2,336.2L520.8,337.2L521.8,335.8L523.2,338.2L521.6,341.0L521.8,343.0L525.4,342.8L526.2,345.0L529.8,346.2L533.8,348.0L533.2,350.6L535.2,353.6L534.8,356.8L537.8,357.2L536.6,361.2L534.8,361.6L535.0,365.0L539.8,366.4L540.6,368.6L540.4,370.4L537.6,373.6L535.2,375.0L532.8,373.4L532.2,375.4L530.0,375.6L529.8,377.6L525.8,379.6L524.2,378.0L521.8,378.4L516.6,380.0L512.4,380.2L511.6,377.6L508.8,375.8L506.2,371.6L502.6,370.0L499.6,366.8L495.8,367.4L493.4,370.8L489.0,372.2L483.6,371.2L478.6,372.4L475.4,371.6L472.4,372.0L469.4,367.6Z" />
		<path id="L1611025174380" name="咸宁市" class="qing-map-1616134833691" d="M516.8,404.8L522.0,400.8L524.6,397.2L530.2,396.4L537.4,396.6L541.2,394.8L544.0,390.2L548.0,387.2L551.8,384.4L557.8,381.2L564.4,378.2L565.2,376.0L564.2,374.2L560.0,371.6L556.0,367.2L552.2,366.0L546.6,368.6L544.4,367.2L545.8,363.2L548.8,359.4L550.0,356.8L554.2,356.4L558.4,359.8L560.6,364.0L562.0,366.0L566.8,366.6L571.4,373.0L570.6,375.6L572.2,376.4L572.4,378.2L574.8,379.0L574.6,383.6L576.8,385.6L576.4,387.6L580.2,388.6L586.4,386.8L588.0,385.2L591.4,384.4L601.0,389.0L603.4,389.0L606.0,391.0L607.8,392.2L609.0,395.0L612.2,394.2L612.8,396.2L621.8,399.8L624.2,399.6L622.8,404.6L625.0,405.4L625.4,411.2L623.4,413.8L627.8,415.6L633.4,415.8L635.2,419.8L637.2,420.0L638.6,422.2L638.8,425.2L639.4,427.0L639.4,428.8L640.8,430.6L641.4,432.2L643.0,432.0L643.8,434.6L645.4,436.0L644.6,438.4L647.0,439.0L644.8,441.6L641.8,440.0L639.2,441.2L637.6,443.6L639.0,447.8L641.4,446.6L640.8,444.4L642.0,443.0L643.4,442.8L643.4,444.8L644.4,446.4L643.0,447.6L642.6,449.4L640.8,450.8L639.6,452.4L636.8,451.6L632.2,454.0L630.0,453.6L627.6,454.8L627.8,456.0L625.8,455.4L625.4,453.2L623.6,452.6L620.2,453.6L619.2,452.6L617.4,454.0L614.8,454.0L613.2,456.0L609.8,457.8L608.2,458.0L606.4,459.4L604.0,460.6L601.0,459.6L600.2,460.2L597.8,458.4L595.6,459.0L592.6,459.0L591.4,460.6L588.6,459.6L587.0,457.2L585.4,455.4L581.0,457.8L581.0,460.4L580.0,462.2L581.2,464.0L579.8,466.2L580.6,469.6L578.4,469.8L574.8,470.8L573.2,472.4L571.0,471.8L568.8,471.4L563.4,472.6L562.0,475.6L560.2,476.8L559.4,479.0L555.6,480.8L554.0,483.4L552.4,483.8L552.0,487.4L550.4,490.0L547.8,491.4L545.0,490.8L545.4,489.0L541.2,487.6L541.8,485.6L540.0,483.4L536.0,485.0L533.6,488.8L532.0,487.8L531.4,483.2L529.8,485.2L527.4,486.0L528.4,482.2L526.0,479.6L525.8,476.6L528.4,474.0L527.8,470.0L524.8,470.2L523.0,468.4L521.4,468.2L520.4,466.2L523.2,460.4L525.6,459.2L526.0,454.2L527.2,453.0L531.6,452.8L532.8,451.0L532.2,449.2L534.0,446.8L533.0,444.4L531.2,444.2L527.6,440.2L523.2,440.6L523.2,439.2L527.8,436.8L530.2,436.0L530.4,433.8L532.6,432.8L531.2,430.2L529.4,429.2L529.2,427.6L526.8,426.0L525.4,422.0L523.0,423.2L516.2,422.8L514.0,420.6L515.2,415.8L515.2,413.0L518.0,406.0Z" />
		<path id="L1611025473962" name="鄂州市" class="qing-map-1616134833691" d="M607.6,381.6L606.0,377.0L603.6,375.0L604.6,370.8L605.2,367.4L607.4,366.4L607.2,362.4L609.6,361.0L610.0,358.0L612.0,357.2L612.4,350.8L611.2,349.0L612.0,343.8L611.0,341.0L611.8,338.8L614.4,339.6L616.6,337.0L615.6,331.2L614.6,328.0L625.6,324.4L630.0,321.8L633.0,324.8L635.0,331.6L634.0,337.4L637.6,342.0L643.6,344.4L650.2,344.2L654.6,346.2L657.2,350.0L658.0,356.8L656.8,360.2L655.2,359.8L654.6,361.4L652.0,360.6L650.8,362.8L651.0,364.8L647.2,364.4L646.0,366.0L637.4,362.0L637.0,359.6L638.0,358.6L634.6,356.4L633.8,354.2L630.6,354.8L629.8,356.2L624.4,355.2L624.2,353.0L621.8,354.0L620.6,356.2L621.0,358.2L618.2,360.4L618.2,364.0L620.0,366.6L621.8,367.6L624.0,368.4L621.8,372.2L624.0,374.8L624.6,378.2L623.6,379.6L624.4,382.6L622.2,384.2L620.4,386.0L616.4,386.4L616.4,384.2L615.0,382.0L611.6,383.8Z" />
		<path id="L1611025589584" name="黄石市" class="qing-map-1616134833691" d="M645.4,436.0L643.8,434.6L643.0,432.0L641.4,432.2L640.8,430.6L639.4,428.8L639.4,427.0L638.8,425.2L638.6,422.2L637.2,420.0L635.2,419.8L633.4,415.8L627.8,415.6L623.4,413.8L625.4,411.2L625.0,405.4L622.8,404.6L624.2,399.6L621.8,399.8L612.8,396.2L612.2,394.2L609.0,395.0L607.8,392.2L606.0,391.0L608.2,384.0L607.6,381.6L611.6,383.8L615.0,382.0L616.4,384.2L616.4,386.4L620.4,386.0L622.2,384.2L624.4,382.6L623.6,379.6L624.6,378.2L624.0,374.8L621.8,372.2L624.0,368.4L621.8,367.6L620.0,366.6L618.2,364.0L618.2,360.4L621.0,358.2L620.6,356.2L621.8,354.0L624.2,353.0L624.4,355.2L629.8,356.2L630.6,354.8L633.8,354.2L634.6,356.4L638.0,358.6L637.0,359.6L637.4,362.0L646.0,366.0L647.2,364.4L651.0,364.8L650.8,362.8L652.0,360.6L654.6,361.4L655.2,359.8L656.8,360.2L657.4,363.0L662.4,365.8L665.8,364.8L670.2,365.8L673.4,369.2L680.2,379.8L679.8,384.8L687.6,393.8L686.8,396.8L689.6,399.0L692.4,403.4L697.6,406.0L693.53,408.47L693.6,412.8L693.8,414.2L692.4,416.8L689.0,418.8L688.0,422.0L686.4,422.4L683.8,424.6L678.2,426.4L676.4,428.6L673.6,426.8L672.8,424.6L671.8,425.2L663.6,424.4L662.0,421.8L660.2,422.0L659.6,424.6L661.6,426.8L661.4,430.0L662.4,430.8L664.0,430.2L663.2,437.2L664.6,439.4L663.4,440.6L660.4,440.2L657.8,439.0L658.4,436.4L657.8,434.8L652.8,436.6L650.8,434.4L647.8,435.2Z" />
	</g>
</svg>
