<svg xmlns="http://www.w3.org/2000/svg" viewBox="0,0,800,498" width="100%" height="100%">
	<defs>
		<style type="text/css">
.qing-map-1616136103792
{
	fill: #DDDDDD;
	fill-opacity: 1.0;
	stroke: #FFFFFF;
	stroke-opacity: 1.0;
	stroke-width: 1;
}

.qing-map-1616136103792:hover
{
	fill: #56A4FF;
	fill-opacity: 1.0;
}
</style>
	</defs>
	<g>
		<path id="L1610957678614" name="拉萨市" class="qing-map-1616136103792" d="M441.1,343.0L446.9,344.8L448.5,342.9L448.3,341.6L449.6,341.3L450.1,339.0L451.3,337.7L451.8,335.7L453.3,334.1L453.7,331.3L457.2,329.5L459.2,330.0L460.0,327.5L462.4,326.6L463.6,325.1L465.4,324.8L468.7,322.3L467.3,319.2L467.3,317.4L471.1,307.1L471.2,302.5L472.7,300.9L473.2,299.7L474.4,300.0L475.7,300.2L477.1,300.6L478.7,299.2L480.5,301.3L480.7,302.8L484.1,304.8L485.3,304.1L485.8,302.5L486.7,301.6L485.8,300.9L485.3,298.9L487.6,299.0L488.2,299.3L490.8,298.3L493.6,298.2L493.7,299.7L494.5,300.7L494.4,303.3L495.2,304.2L494.8,305.9L495.7,307.8L496.7,308.9L497.0,310.7L496.5,312.2L498.7,313.1L499.5,314.7L502.6,314.4L505.4,312.6L507.9,312.8L508.3,314.5L510.8,315.9L512.1,317.4L513.8,318.4L513.9,320.6L512.4,321.3L511.7,321.0L510.2,322.5L509.9,323.3L511.8,324.0L512.4,326.1L511.8,326.8L512.6,330.4L514.4,330.0L514.7,331.5L515.9,332.4L516.0,333.9L517.3,333.9L519.0,333.9L520.2,332.8L521.4,333.4L523.9,333.1L524.2,330.9L525.2,330.1L525.9,329.1L527.7,329.8L528.4,331.3L529.6,331.8L531.5,331.2L533.3,331.9L535.4,332.6L537.6,332.1L539.5,332.9L538.8,335.2L536.5,338.3L534.8,338.2L532.9,339.7L533.3,341.0L532.4,341.7L530.9,343.0L529.3,342.6L526.5,344.7L525.0,344.7L523.9,346.0L523.8,347.0L524.7,347.7L526.2,347.9L526.9,348.6L527.6,350.2L528.3,350.8L529.9,350.1L531.0,349.7L530.5,352.7L531.1,353.6L531.2,355.2L530.8,355.9L531.2,357.8L529.9,358.3L528.5,358.9L527.1,360.2L524.5,360.3L522.1,361.9L520.9,361.7L519.5,361.7L516.9,359.9L512.6,359.8L511.3,359.4L508.9,361.1L507.9,360.9L506.7,361.8L505.8,361.0L504.5,361.3L504.2,359.8L501.2,359.6L498.4,361.7L497.0,362.2L495.5,363.5L491.4,361.3L487.9,362.5L487.2,364.0L484.5,364.6L483.7,365.4L483.5,366.5L480.5,367.7L479.8,367.5L479.0,368.6L473.7,369.8L471.3,369.3L469.0,370.5L468.2,371.9L466.6,372.3L464.8,373.3L461.1,373.4L459.5,371.6L457.6,370.5L455.8,370.0L455.1,369.6L453.8,370.0L452.6,369.1L450.8,369.2L448.5,368.7L446.7,369.3L443.0,369.3L438.0,366.0L437.8,364.9L437.3,363.7L438.5,362.9L438.5,362.0L436.3,359.7L438.7,357.1L438.4,355.5L439.9,355.1L441.4,352.6L439.6,350.0L440.2,349.0L439.1,346.8L439.3,344.8L439.7,343.6Z" />
		<path id="L1610957558961" name="阿里地区" class="qing-map-1616136103792" d="M198.7,312.8L197.7,311.4L197.7,308.5L196.2,308.2L195.0,307.8L193.5,308.2L190.6,304.4L189.8,302.8L188.0,303.1L187.2,301.3L184.9,299.3L184.6,297.8L185.2,294.9L186.0,293.2L189.5,292.6L191.2,290.1L191.4,286.6L190.7,284.2L190.7,279.6L187.9,277.9L185.7,276.5L190.4,275.3L191.0,272.7L193.5,273.1L194.7,272.9L196.2,272.2L197.4,271.0L199.1,271.1L200.0,272.2L201.8,272.4L201.9,270.9L203.5,269.5L205.4,271.4L205.6,273.3L206.4,274.3L208.4,275.1L214.9,274.9L215.7,275.8L217.2,274.7L219.8,276.1L221.1,275.2L222.1,275.8L223.3,275.0L227.0,275.2L228.8,273.9L229.8,272.6L232.7,274.0L234.1,273.6L234.1,271.6L236.2,271.5L237.0,272.3L238.7,271.8L239.5,274.1L240.5,272.8L241.4,272.6L242.4,271.6L241.2,268.0L242.2,265.6L244.3,267.5L244.8,268.8L244.8,270.1L245.8,270.7L247.4,270.5L248.5,271.1L250.8,271.2L252.0,272.0L250.4,272.9L250.0,274.9L247.8,276.8L248.1,277.7L247.5,278.4L245.7,279.2L244.9,278.8L242.7,279.2L242.1,279.8L240.9,281.2L239.1,281.3L237.4,282.4L235.7,282.8L235.7,284.0L239.6,285.9L240.8,286.8L243.7,287.0L245.7,286.4L246.6,287.8L248.2,288.7L250.0,289.0L250.2,292.2L250.6,293.3L250.2,294.9L250.9,295.9L250.6,297.1L252.1,297.8L253.3,299.3L252.8,300.5L254.0,301.1L255.6,302.7L251.8,306.7L251.3,307.9L250.2,308.3L250.1,309.6L248.4,311.1L248.3,312.1L247.5,312.8L247.7,315.8L245.6,316.2L246.9,318.7L245.7,319.8L245.8,321.1L244.4,322.4L245.4,325.0L247.1,324.6L248.3,325.3L249.6,325.3L249.7,326.9L250.6,328.1L250.6,329.3L252.6,331.5L253.6,331.7L253.7,333.2L255.3,335.0L255.2,342.3L257.7,342.9L259.3,342.8L259.3,344.0L260.4,345.1L261.3,345.6L262.3,348.1L267.2,352.2L268.2,351.8L269.0,353.1L270.0,353.5L271.2,354.9L273.9,354.2L275.9,355.7L277.5,354.1L278.6,353.9L278.6,349.9L280.2,348.2L281.4,349.3L283.3,349.7L284.2,351.1L286.3,350.2L284.3,348.3L285.2,346.4L289.9,345.8L288.6,343.2L290.0,341.6L292.8,341.3L293.3,340.9L292.6,339.1L292.6,336.1L294.9,337.1L295.3,336.8L294.2,332.8L293.1,332.1L295.8,328.8L296.0,327.3L298.2,327.9L296.0,325.2L296.5,321.2L295.8,317.7L294.8,317.3L292.0,317.4L290.1,315.3L291.3,313.5L292.4,313.3L294.1,313.9L293.2,311.0L294.4,309.6L294.3,308.2L293.7,306.6L293.1,304.5L292.2,302.3L292.4,299.5L294.7,298.2L295.9,296.9L298.0,296.4L302.9,297.2L304.2,297.3L305.4,300.7L307.0,299.6L307.3,298.5L307.5,297.8L307.1,296.5L306.3,294.6L306.6,293.1L305.0,291.1L303.8,291.6L301.9,291.1L299.4,291.0L298.8,290.1L296.0,289.7L295.3,288.5L292.9,288.0L292.1,286.8L290.6,286.7L287.5,285.0L286.0,284.9L285.5,282.6L284.1,281.1L284.4,279.3L280.2,277.3L280.3,275.3L278.5,275.0L277.5,276.0L276.6,276.1L274.5,274.4L274.5,273.1L271.9,271.7L269.9,272.1L269.0,271.9L268.6,271.1L269.2,268.4L269.0,265.1L270.1,262.9L269.3,260.9L270.0,259.8L268.5,256.1L267.0,254.9L266.4,254.4L266.2,253.6L269.7,248.1L270.5,247.8L270.8,246.1L272.6,241.2L272.3,239.4L273.1,238.8L273.5,236.8L276.3,235.3L277.9,233.7L278.9,232.3L282.0,232.4L284.6,230.9L285.9,229.8L287.6,229.5L290.7,227.9L295.9,227.5L299.1,225.1L299.6,224.0L300.9,223.3L302.8,223.1L304.2,220.7L302.3,218.4L302.8,216.5L302.6,214.8L304.9,213.3L304.4,211.2L306.2,208.3L304.2,207.6L302.8,208.0L301.6,207.9L301.1,206.9L301.6,203.6L303.9,203.6L309.3,200.6L310.1,196.9L311.9,196.1L310.3,193.3L309.8,187.8L307.8,187.1L307.1,184.7L308.2,182.4L308.2,180.5L310.0,178.8L309.9,175.2L308.8,173.1L308.8,171.6L307.4,170.2L307.5,165.4L305.3,162.2L305.1,158.9L305.3,157.2L306.2,155.8L305.9,154.2L305.1,153.5L302.7,150.8L299.8,149.6L298.6,148.6L298.6,148.0L298.6,146.7L302.1,142.7L301.7,138.5L304.3,135.0L305.3,131.3L304.3,130.1L305.5,128.8L305.7,126.9L307.6,123.7L307.7,121.5L308.7,120.8L307.9,118.9L307.4,117.1L307.7,115.3L306.8,113.3L307.2,112.8L308.8,112.3L308.9,111.0L309.9,110.6L309.1,109.0L309.4,104.9L310.6,103.9L310.4,101.0L311.4,100.2L308.8,95.7L307.6,95.7L306.8,93.9L305.3,93.7L304.5,93.0L302.6,90.1L300.9,90.7L298.6,92.8L297.1,92.8L295.2,93.2L293.4,93.2L290.7,93.5L287.7,95.1L287.3,96.4L286.6,98.4L284.8,99.1L282.6,97.1L280.6,97.0L277.3,96.2L276.6,94.1L273.9,92.6L269.7,94.5L267.7,94.6L266.0,94.2L264.2,94.6L263.4,96.0L259.4,97.3L258.1,98.7L256.9,99.0L254.1,100.3L252.8,100.3L250.6,101.3L248.5,101.4L246.9,102.4L246.1,102.1L244.8,103.1L245.3,103.8L244.5,106.4L243.5,106.7L240.1,109.4L237.5,109.7L235.6,110.6L234.2,111.7L233.1,110.8L231.7,111.4L230.5,109.5L228.0,108.8L224.6,109.9L223.7,111.5L216.7,111.4L215.2,112.4L212.8,111.9L211.5,112.3L210.7,111.2L209.8,111.7L207.8,110.8L204.8,110.8L203.7,109.9L200.5,109.5L198.7,110.2L196.6,109.6L194.8,108.1L194.2,106.2L192.4,106.0L191.4,103.6L191.7,101.4L190.5,99.4L190.9,97.6L188.1,97.7L187.2,96.9L186.4,97.4L185.6,97.4L184.7,97.1L184.2,98.2L182.4,99.1L180.9,98.0L178.2,96.6L175.8,96.1L174.6,96.8L172.8,95.9L171.1,96.3L170.7,98.5L168.2,98.5L169.1,100.2L168.0,101.1L168.0,102.7L167.0,103.7L166.1,103.6L164.9,104.7L163.6,104.3L160.9,106.3L159.1,106.9L157.4,107.5L157.2,108.5L157.8,110.9L157.8,112.9L155.4,113.8L154.5,113.7L153.0,115.6L150.7,116.1L148.4,115.5L146.0,116.0L144.6,117.0L144.0,117.0L143.3,117.3L139.5,116.8L138.5,116.8L138.1,115.0L135.9,113.6L135.7,112.7L133.7,112.6L132.8,111.9L131.6,112.4L129.6,112.3L127.7,113.3L126.5,111.2L125.5,111.3L123.4,109.7L121.7,109.7L120.3,113.5L118.4,113.7L117.2,113.1L115.4,113.2L114.7,112.4L112.7,112.4L112.0,112.7L108.0,112.4L108.1,111.3L105.3,109.6L103.9,110.4L101.8,110.2L99.7,109.3L99.17,108.0L96.67,110.5L95.17,110.5L94.17,112.0L93.5,114.33L95.67,116.67L95.33,118.67L94.17,118.33L93.17,118.5L91.83,119.33L92.33,120.83L87.67,124.67L86.67,124.17L84.83,125.5L84.67,129.17L85.5,129.83L85.17,131.67L84.0,132.17L83.17,133.67L81.17,134.33L81.67,136.33L80.17,139.0L80.5,141.33L78.67,142.33L80.0,143.33L78.83,144.17L78.83,145.83L77.83,147.17L78.83,148.17L76.67,150.33L73.5,150.83L70.0,151.83L69.33,151.17L62.6,152.0L60.5,152.8L59.5,152.2L57.7,152.3L56.7,153.2L54.8,153.3L53.0,152.3L50.5,153.3L49.3,152.6L48.0,153.6L49.5,155.9L49.4,157.1L48.3,157.4L46.9,157.5L47.1,159.0L45.7,161.8L44.5,165.0L42.6,164.1L41.5,165.8L40.2,165.4L38.4,167.4L35.5,167.5L35.4,169.6L38.3,170.8L38.2,174.4L39.3,175.0L38.9,176.2L39.0,177.3L39.2,177.8L38.8,180.8L39.7,182.6L39.0,183.9L36.4,185.7L37.7,187.4L39.0,187.5L38.3,189.9L40.7,193.5L41.9,196.2L43.7,196.7L45.9,198.5L46.2,199.6L46.6,200.2L47.3,200.7L48.4,200.7L48.6,201.6L48.8,202.3L49.0,202.8L50.5,204.0L50.4,205.0L52.4,206.0L53.2,206.9L53.0,208.0L52.7,209.8L53.5,214.6L55.6,216.0L56.7,216.9L56.6,217.5L56.1,218.1L56.0,223.7L56.8,223.9L57.2,223.8L58.3,226.6L57.3,228.3L58.9,232.1L57.4,233.3L57.5,234.4L56.6,235.7L55.6,235.4L52.4,237.2L52.4,239.3L51.0,241.5L49.7,241.3L47.3,241.9L46.4,243.2L44.4,242.0L43.7,240.6L43.0,240.0L42.0,240.0L40.7,238.7L38.7,233.5L39.5,231.5L38.1,229.5L38.0,227.7L34.3,230.5L33.1,230.5L32.3,231.3L30.4,231.4L29.7,232.7L27.1,233.4L25.8,234.8L28.8,238.5L28.6,240.8L28.9,241.8L29.1,243.5L30.0,244.5L29.1,246.8L27.1,248.7L28.1,251.4L29.9,251.0L31.2,253.3L33.3,254.7L33.0,255.8L37.1,258.2L39.1,260.3L38.2,262.3L36.5,262.8L34.9,264.9L37.1,267.2L38.1,268.6L38.7,270.4L40.3,271.3L40.5,272.6L42.0,274.4L40.5,275.8L39.8,276.5L37.9,277.6L37.6,278.5L40.2,281.3L39.1,283.1L38.9,284.7L39.8,286.8L41.3,287.4L43.3,287.4L43.6,288.7L44.6,289.2L46.3,292.3L47.3,292.8L46.6,295.3L47.5,296.2L48.1,297.9L49.7,298.7L50.9,300.3L52.9,299.9L54.2,299.4L55.1,300.4L55.5,301.9L57.3,301.9L59.3,301.2L59.5,299.4L60.4,298.8L61.8,297.3L62.5,297.4L62.9,298.6L65.6,299.0L66.2,300.3L69.2,302.6L70.5,302.0L72.6,301.4L73.2,302.2L74.7,302.3L77.0,305.9L79.2,306.1L80.4,307.2L80.6,308.3L81.8,309.2L81.9,310.6L82.9,311.9L82.6,312.7L84.6,314.2L85.6,316.9L88.2,318.5L90.9,317.6L92.7,318.4L95.1,318.4L96.1,319.9L98.9,320.2L99.8,321.3L101.7,321.9L103.2,323.1L105.1,322.4L110.7,325.7L112.6,328.7L114.6,328.9L117.0,329.9L117.5,331.0L119.2,330.6L121.0,331.5L121.0,333.9L122.5,335.6L122.7,337.6L123.8,338.3L123.4,340.0L125.3,341.5L126.9,341.1L128.3,341.5L130.4,338.9L130.2,337.1L129.3,335.8L131.7,335.5L134.1,333.4L134.2,331.5L135.0,329.1L134.6,328.1L134.5,324.7L135.9,324.5L137.4,326.0L138.9,326.2L140.2,324.3L141.1,324.6L142.3,323.6L145.6,324.7L146.6,325.5L149.8,326.3L151.4,326.3L152.7,327.1L155.8,328.4L156.5,328.1L157.8,328.1L158.9,327.5L160.0,327.6L160.6,329.7L159.7,331.5L161.3,333.0L164.0,331.0L165.6,329.0L165.6,327.0L166.2,325.7L166.2,324.3L167.0,323.9L167.9,324.0L169.0,325.0L170.6,325.0L170.8,325.9L172.4,325.5L172.7,324.6L174.0,324.5L175.1,325.1L176.6,326.0L178.1,326.7L179.5,324.6L177.9,320.3L178.2,318.0L179.1,317.2L178.7,315.8L178.9,315.0L179.3,314.5L179.3,310.1L179.9,309.6L181.8,309.3L183.7,308.4L185.3,309.9L185.8,312.6L186.9,312.7L187.9,313.9L190.3,314.8L189.5,316.7L190.5,319.0L192.0,319.0L194.2,320.4L196.8,316.5Z" />
		<path id="L1610957575297" name="那曲市" class="qing-map-1616136103792" d="M307.0,299.6L307.3,298.5L307.5,297.8L307.1,296.5L306.3,294.6L306.6,293.1L305.0,291.1L303.8,291.6L301.9,291.1L299.4,291.0L298.8,290.1L296.0,289.7L295.3,288.5L292.9,288.0L292.1,286.8L290.6,286.7L287.5,285.0L286.0,284.9L285.5,282.6L284.1,281.1L284.4,279.3L280.2,277.3L280.3,275.3L278.5,275.0L277.5,276.0L276.6,276.1L274.5,274.4L274.5,273.1L271.9,271.7L269.9,272.1L269.0,271.9L268.6,271.1L269.2,268.4L269.0,265.1L270.1,262.9L269.3,260.9L270.0,259.8L268.5,256.1L267.0,254.9L266.4,254.4L266.2,253.6L269.7,248.1L270.5,247.8L270.8,246.1L272.6,241.2L272.3,239.4L273.1,238.8L273.5,236.8L276.3,235.3L277.9,233.7L278.9,232.3L282.0,232.4L284.6,230.9L285.9,229.8L287.6,229.5L290.7,227.9L295.9,227.5L299.1,225.1L299.6,224.0L300.9,223.3L302.8,223.1L304.2,220.7L302.3,218.4L302.8,216.5L302.6,214.8L304.9,213.3L304.4,211.2L306.2,208.3L304.2,207.6L302.8,208.0L301.6,207.9L301.1,206.9L301.6,203.6L303.9,203.6L309.3,200.6L310.1,196.9L311.9,196.1L310.3,193.3L309.8,187.8L307.8,187.1L307.1,184.7L308.2,182.4L308.2,180.5L310.0,178.8L309.9,175.2L308.8,173.1L308.8,171.6L307.4,170.2L307.5,165.4L305.3,162.2L305.1,158.9L305.3,157.2L306.2,155.8L305.9,154.2L305.1,153.5L302.7,150.8L299.8,149.6L298.6,148.6L298.6,148.0L298.6,146.7L302.1,142.7L301.7,138.5L304.3,135.0L305.3,131.3L304.3,130.1L305.5,128.8L305.7,126.9L307.6,123.7L307.7,121.5L308.7,120.8L307.9,118.9L307.4,117.1L307.7,115.3L306.8,113.3L307.2,112.8L308.8,112.3L308.9,111.0L309.9,110.6L309.1,109.0L309.4,104.9L310.6,103.9L310.4,101.0L311.4,100.2L308.8,95.7L307.6,95.7L306.8,93.9L305.3,93.7L304.5,93.0L302.6,90.1L303.9,88.2L303.5,87.3L305.1,85.7L305.3,83.9L307.8,81.6L306.9,79.3L307.3,76.9L309.0,76.8L311.1,75.4L313.6,75.5L315.0,73.6L316.1,73.0L318.2,74.2L319.2,73.0L320.8,73.3L323.6,73.1L326.2,71.7L328.0,69.7L330.4,70.1L331.3,69.7L332.4,71.2L334.0,71.3L334.6,70.2L336.1,69.7L337.3,69.5L338.4,70.1L339.3,68.9L341.8,70.0L342.4,68.9L344.0,67.2L345.0,66.9L347.4,66.8L349.9,64.2L351.0,64.4L351.8,63.8L352.9,64.5L352.9,65.9L353.3,67.0L354.8,67.1L356.8,67.8L359.4,66.5L361.6,66.4L363.1,65.7L364.4,66.3L370.4,65.1L371.6,63.6L377.8,64.0L379.2,62.7L380.6,62.8L381.1,62.1L384.7,62.2L386.0,62.4L386.0,61.7L389.8,61.7L390.3,62.8L393.8,62.6L394.5,63.5L394.9,65.1L395.5,65.6L396.5,65.7L397.5,67.0L398.7,67.0L400.2,69.8L400.8,69.8L401.6,67.8L405.9,66.8L407.5,69.0L409.8,69.1L411.0,70.2L412.5,70.2L413.7,71.8L415.4,71.6L417.3,69.9L419.6,72.5L422.0,72.5L422.9,73.4L423.7,73.3L424.4,74.6L427.4,76.3L428.9,76.6L431.4,78.3L432.4,78.4L433.2,78.7L431.7,80.8L429.0,81.5L425.9,82.0L423.9,80.9L423.6,81.9L424.1,83.0L424.3,85.6L424.1,86.3L428.3,88.3L428.6,89.3L432.0,89.3L433.6,89.9L435.5,89.5L437.1,89.2L437.5,89.6L436.5,91.8L437.4,92.8L435.7,94.0L435.8,94.5L435.9,100.0L436.1,101.4L434.6,101.6L434.4,104.7L435.9,104.8L435.7,105.6L433.8,108.8L431.8,108.8L430.1,110.4L427.1,111.7L427.4,112.7L426.9,114.5L427.7,115.4L425.5,116.6L427.4,121.3L428.7,122.0L430.2,122.2L430.3,124.3L429.1,129.7L430.1,132.0L432.2,132.2L434.6,130.8L436.0,131.6L437.1,130.5L438.1,131.4L439.4,135.1L437.9,137.9L435.3,139.1L435.6,142.5L437.6,143.7L436.9,146.0L438.7,148.1L438.6,151.9L437.8,153.9L438.8,155.5L439.9,155.4L440.2,156.5L438.8,158.2L439.1,159.5L437.9,162.7L438.1,163.8L436.3,164.6L436.0,165.7L434.2,165.7L432.5,167.4L432.4,168.8L432.1,169.3L435.1,174.3L437.4,176.9L438.7,176.8L439.3,176.8L440.1,177.7L440.5,178.8L442.8,179.6L441.2,181.7L441.8,182.5L443.0,182.5L444.5,183.3L445.2,184.9L444.3,188.3L444.9,190.2L447.7,191.4L448.5,194.1L453.6,196.2L456.2,200.0L457.9,202.1L459.6,203.4L462.7,203.3L465.8,205.3L470.3,208.8L472.2,208.6L474.0,209.6L475.5,209.8L476.3,209.6L477.2,210.3L478.8,209.5L481.6,209.6L482.5,210.4L483.9,209.8L486.4,211.7L487.0,209.9L487.9,209.9L489.3,208.8L490.3,208.6L492.4,209.9L494.3,210.3L495.6,211.1L497.5,211.4L498.9,210.1L500.7,211.0L500.9,212.1L502.1,213.0L503.4,213.1L509.1,216.9L510.5,216.8L511.4,217.0L511.9,217.6L512.2,218.8L514.4,220.3L515.7,222.3L518.5,220.9L520.6,221.0L521.4,219.9L524.6,220.5L525.5,222.3L524.3,222.9L524.8,224.0L524.7,224.7L524.6,225.7L526.8,226.5L528.1,225.1L529.8,225.5L530.5,225.0L532.1,225.5L533.8,224.7L535.0,225.9L541.2,226.4L542.2,224.6L544.2,225.7L545.3,226.7L547.0,226.3L548.3,227.7L549.9,227.1L551.8,227.0L553.7,225.6L554.2,227.6L555.7,230.3L558.9,230.0L560.0,228.9L560.9,229.4L562.4,229.4L562.6,230.5L564.2,231.2L564.6,232.8L565.7,233.1L567.5,234.8L568.3,233.6L570.1,233.6L570.8,235.7L571.7,236.8L573.2,236.9L574.6,235.8L576.0,234.8L577.2,233.1L579.4,232.8L580.8,233.4L583.2,234.3L585.3,237.6L587.4,237.7L588.4,237.0L588.9,238.1L591.0,238.5L591.7,237.8L593.2,237.9L594.6,239.4L595.0,239.3L597.0,235.9L599.1,235.7L600.5,236.4L601.5,235.2L603.2,235.5L603.7,233.5L604.3,232.5L605.4,233.9L606.8,233.4L606.8,232.5L609.4,232.2L611.8,230.2L612.8,230.4L615.7,231.8L617.3,234.9L615.7,236.4L614.8,238.2L615.0,240.6L617.1,243.0L616.7,246.4L614.9,247.3L613.8,249.3L613.1,253.3L613.8,254.3L613.6,255.5L614.8,256.3L613.6,257.8L613.8,259.1L613.7,262.4L613.1,262.8L613.0,265.2L617.0,266.8L617.6,269.6L616.1,271.1L614.4,271.4L614.6,273.1L616.2,272.9L617.2,276.2L621.3,277.2L622.0,278.6L622.4,280.4L621.1,282.2L622.3,284.3L623.7,284.3L624.8,285.2L625.1,287.4L626.1,290.6L627.3,292.1L627.4,293.0L625.4,294.0L623.7,293.5L622.6,294.9L621.2,294.9L618.1,296.9L616.3,294.3L615.8,290.3L616.9,287.7L617.6,286.2L617.2,284.8L614.5,286.9L612.8,286.9L611.0,284.3L611.5,283.1L610.6,282.2L607.7,283.8L606.7,285.7L604.3,285.7L604.1,286.7L603.1,287.5L600.6,286.9L600.0,290.0L600.2,291.2L599.1,291.8L599.0,292.8L597.5,294.7L597.5,296.0L598.7,296.6L599.1,297.5L599.5,299.6L600.5,301.1L600.7,302.6L601.9,304.2L601.0,306.8L599.0,305.5L597.9,305.4L597.0,305.5L595.8,306.2L589.6,305.1L588.9,306.4L587.7,306.7L584.9,304.1L583.4,304.4L578.8,302.9L576.9,303.8L575.8,305.6L577.2,306.0L579.0,308.2L578.1,309.9L578.7,310.5L579.9,310.5L580.5,312.2L581.9,312.6L582.4,314.1L583.7,314.3L584.9,316.5L586.8,315.7L587.3,317.0L589.1,317.0L589.4,318.1L590.5,318.5L592.2,320.3L595.1,321.7L593.7,323.1L593.8,325.7L590.7,326.5L590.2,327.9L590.3,328.9L588.2,329.4L585.5,328.0L584.3,329.7L582.8,329.4L581.4,330.6L580.2,329.7L578.2,330.2L576.8,329.5L575.9,330.1L574.1,330.1L573.2,329.3L572.1,329.2L570.8,329.1L568.2,327.0L568.8,325.9L569.3,325.2L567.0,322.8L565.3,322.7L563.3,321.5L562.7,322.5L560.8,323.7L559.3,324.9L556.5,321.4L554.7,320.7L554.6,318.8L553.5,317.5L552.5,318.0L551.3,317.2L549.8,317.5L549.0,319.2L548.1,319.3L546.1,320.6L545.0,321.9L546.1,323.9L544.2,326.6L544.2,328.5L541.7,329.7L540.1,329.4L539.5,332.9L537.6,332.1L535.4,332.6L533.3,331.9L531.5,331.2L529.6,331.8L528.4,331.3L527.7,329.8L525.9,329.1L525.2,330.1L524.2,330.9L523.9,333.1L521.4,333.4L520.2,332.8L519.0,333.9L517.3,333.9L516.0,333.9L515.9,332.4L514.7,331.5L514.4,330.0L512.6,330.4L511.8,326.8L512.4,326.1L511.8,324.0L509.9,323.3L510.2,322.5L511.7,321.0L512.4,321.3L513.9,320.6L513.8,318.4L512.1,317.4L510.8,315.9L508.3,314.5L507.9,312.8L505.4,312.6L502.6,314.4L499.5,314.7L498.7,313.1L496.5,312.2L497.0,310.7L496.7,308.9L495.7,307.8L494.8,305.9L495.2,304.2L494.4,303.3L494.5,300.7L493.7,299.7L493.6,298.2L490.8,298.3L488.2,299.3L487.6,299.0L485.3,298.9L485.8,300.9L486.7,301.6L485.8,302.5L485.3,304.1L484.1,304.8L480.7,302.8L480.5,301.3L478.7,299.2L477.1,300.6L475.7,300.2L474.4,300.0L473.2,299.7L472.7,300.9L471.2,302.5L471.1,307.1L467.3,317.4L467.3,319.2L468.7,322.3L465.4,324.8L463.6,325.1L462.4,326.6L460.0,327.5L459.2,330.0L457.2,329.5L453.7,331.3L453.3,334.1L451.8,335.7L451.3,337.7L450.1,339.0L449.6,341.3L448.3,341.6L448.5,342.9L446.9,344.8L441.1,343.0L439.8,340.1L438.6,338.8L438.6,337.9L438.8,336.6L437.6,335.0L435.0,335.5L433.4,332.5L432.2,333.4L430.1,332.0L428.9,332.5L427.5,331.3L424.0,331.3L423.2,332.3L420.5,330.4L419.5,330.6L417.8,330.5L416.4,328.9L414.6,329.3L413.1,329.8L411.7,331.3L409.6,331.1L409.2,331.8L408.4,332.2L407.8,332.4L407.3,333.3L405.2,332.5L402.2,333.1L401.3,332.5L400.2,332.8L398.9,332.2L397.0,332.5L394.8,335.1L392.8,336.9L391.9,339.5L390.0,338.9L389.4,336.5L390.2,335.4L389.1,333.6L387.9,332.6L386.7,331.5L383.9,331.4L382.7,332.9L381.9,332.2L380.4,332.9L379.4,331.0L376.9,329.8L376.1,326.4L374.4,327.2L372.5,326.0L368.5,326.5L367.8,325.9L367.0,326.7L366.0,326.1L364.0,327.8L362.5,327.3L361.2,327.4L359.4,326.2L357.8,326.7L356.2,325.9L356.0,324.2L355.4,323.6L355.8,321.5L353.5,319.0L352.2,319.1L350.9,318.6L349.9,319.3L346.7,319.3L344.8,318.5L343.5,318.3L342.6,316.2L343.0,315.3L342.5,311.9L341.1,310.3L340.6,308.5L341.0,306.8L341.8,306.1L339.8,302.5L338.9,304.2L337.4,304.2L337.5,307.4L334.6,310.3L332.7,310.1L333.9,308.8L334.9,307.0L334.8,305.4L334.6,304.7L335.2,303.0L333.7,303.1L332.0,304.4L329.9,304.2L327.3,306.8L329.0,310.3L329.6,313.1L328.9,314.2L330.2,314.6L331.3,314.0L331.6,312.4L331.6,311.6L333.0,311.4L333.0,313.9L332.2,315.2L332.5,317.2L334.1,316.6L334.4,318.7L333.5,319.5L331.5,318.6L330.0,319.6L327.5,319.9L326.3,319.3L325.2,320.3L325.6,322.4L324.2,322.5L323.5,323.6L320.0,322.6L319.6,321.9L316.8,322.3L316.0,321.1L315.9,319.8L316.5,318.3L315.5,317.6L315.8,316.1L315.1,315.3L315.4,312.5L313.0,309.3L313.0,307.6L312.6,306.8L312.5,304.2L312.0,303.3L312.0,301.9L310.2,301.2ZM305.4,300.7L304.2,297.3L302.9,297.2L298.0,296.4L295.9,296.9L294.7,298.2L292.4,299.5L292.2,302.3L296.4,303.0L298.2,302.9L298.4,304.2L298.4,304.7L297.2,304.7L296.2,305.2L296.2,305.9L297.5,307.7L297.0,308.5L296.3,310.2L298.2,309.8L298.8,309.7L299.2,310.7L301.4,309.6L301.3,307.7L302.5,307.3L303.7,305.6L303.1,304.5L304.2,303.5Z" />
		<path id="L1610957666023" name="日喀则市" class="qing-map-1616136103792" d="M161.3,333.0L164.0,331.0L165.6,329.0L165.6,327.0L166.2,325.7L166.2,324.3L167.0,323.9L167.9,324.0L169.0,325.0L170.6,325.0L170.8,325.9L172.4,325.5L172.7,324.6L174.0,324.5L175.1,325.1L176.6,326.0L178.1,326.7L179.5,324.6L177.9,320.3L178.2,318.0L179.1,317.2L178.7,315.8L178.9,315.0L179.3,314.5L179.3,310.1L179.9,309.6L181.8,309.3L183.7,308.4L185.3,309.9L185.8,312.6L186.9,312.7L187.9,313.9L190.3,314.8L189.5,316.7L190.5,319.0L192.0,319.0L194.2,320.4L196.8,316.5L198.7,312.8L197.7,311.4L197.7,308.5L196.2,308.2L195.0,307.8L193.5,308.2L190.6,304.4L189.8,302.8L188.0,303.1L187.2,301.3L184.9,299.3L184.6,297.8L185.2,294.9L186.0,293.2L189.5,292.6L191.2,290.1L191.4,286.6L190.7,284.2L190.7,279.6L187.9,277.9L185.7,276.5L190.4,275.3L191.0,272.7L193.5,273.1L194.7,272.9L196.2,272.2L197.4,271.0L199.1,271.1L200.0,272.2L201.8,272.4L201.9,270.9L203.5,269.5L205.4,271.4L205.6,273.3L206.4,274.3L208.4,275.1L214.9,274.9L215.7,275.8L217.2,274.7L219.8,276.1L221.1,275.2L222.1,275.8L223.3,275.0L227.0,275.2L228.8,273.9L229.8,272.6L232.7,274.0L234.1,273.6L234.1,271.6L236.2,271.5L237.0,272.3L238.7,271.8L239.5,274.1L240.5,272.8L241.4,272.6L242.4,271.6L241.2,268.0L242.2,265.6L244.3,267.5L244.8,268.8L244.8,270.1L245.8,270.7L247.4,270.5L248.5,271.1L250.8,271.2L252.0,272.0L250.4,272.9L250.0,274.9L247.8,276.8L248.1,277.7L247.5,278.4L245.7,279.2L244.9,278.8L242.7,279.2L242.1,279.8L240.9,281.2L239.1,281.3L237.4,282.4L235.7,282.8L235.7,284.0L239.6,285.9L240.8,286.8L243.7,287.0L245.7,286.4L246.6,287.8L248.2,288.7L250.0,289.0L250.2,292.2L250.6,293.3L250.2,294.9L250.9,295.9L250.6,297.1L252.1,297.8L253.3,299.3L252.8,300.5L254.0,301.1L255.6,302.7L251.8,306.7L251.3,307.9L250.2,308.3L250.1,309.6L248.4,311.1L248.3,312.1L247.5,312.8L247.7,315.8L245.6,316.2L246.9,318.7L245.7,319.8L245.8,321.1L244.4,322.4L245.4,325.0L247.1,324.6L248.3,325.3L249.6,325.3L249.7,326.9L250.6,328.1L250.6,329.3L252.6,331.5L253.6,331.7L253.7,333.2L255.3,335.0L255.2,342.3L257.7,342.9L259.3,342.8L259.3,344.0L260.4,345.1L261.3,345.6L262.3,348.1L267.2,352.2L268.2,351.8L269.0,353.1L270.0,353.5L271.2,354.9L273.9,354.2L275.9,355.7L277.5,354.1L278.6,353.9L278.6,349.9L280.2,348.2L281.4,349.3L283.3,349.7L284.2,351.1L286.3,350.2L284.3,348.3L285.2,346.4L289.9,345.8L288.6,343.2L290.0,341.6L292.8,341.3L293.3,340.9L292.6,339.1L292.6,336.1L294.9,337.1L295.3,336.8L294.2,332.8L293.1,332.1L295.8,328.8L296.0,327.3L298.2,327.9L296.0,325.2L296.5,321.2L295.8,317.7L294.8,317.3L292.0,317.4L290.1,315.3L291.3,313.5L292.4,313.3L294.1,313.9L293.2,311.0L294.4,309.6L296.3,310.2L298.2,309.8L298.8,309.7L299.2,310.7L301.4,309.6L301.3,307.7L302.5,307.3L303.7,305.6L303.1,304.5L304.2,303.5L305.4,300.7L307.0,299.6L310.2,301.2L312.0,301.9L312.0,303.3L312.5,304.2L312.6,306.8L313.0,307.6L313.0,309.3L315.4,312.5L315.1,315.3L315.8,316.1L315.5,317.6L316.5,318.3L315.9,319.8L316.0,321.1L316.8,322.3L319.6,321.9L320.0,322.6L323.5,323.6L324.2,322.5L325.6,322.4L325.2,320.3L326.3,319.3L327.5,319.9L330.0,319.6L331.5,318.6L333.5,319.5L334.4,318.7L334.1,316.6L332.5,317.2L332.2,315.2L333.0,313.9L333.0,311.4L331.6,311.6L331.6,312.4L331.3,314.0L330.2,314.6L328.9,314.2L329.6,313.1L329.0,310.3L327.3,306.8L329.9,304.2L332.0,304.4L333.7,303.1L335.2,303.0L334.6,304.7L334.8,305.4L334.9,307.0L333.9,308.8L332.7,310.1L334.6,310.3L337.5,307.4L337.4,304.2L338.9,304.2L339.8,302.5L341.8,306.1L341.0,306.8L340.6,308.5L341.1,310.3L342.5,311.9L343.0,315.3L342.6,316.2L343.5,318.3L344.8,318.5L346.7,319.3L349.9,319.3L350.9,318.6L352.2,319.1L353.5,319.0L355.8,321.5L355.4,323.6L356.0,324.2L356.2,325.9L357.8,326.7L359.4,326.2L361.2,327.4L362.5,327.3L364.0,327.8L366.0,326.1L367.0,326.7L367.8,325.9L368.5,326.5L372.5,326.0L374.4,327.2L376.1,326.4L376.9,329.8L379.4,331.0L380.4,332.9L381.9,332.2L382.7,332.9L383.9,331.4L386.7,331.5L387.9,332.6L389.1,333.6L390.2,335.4L389.4,336.5L390.0,338.9L391.9,339.5L392.8,336.9L394.8,335.1L397.0,332.5L398.9,332.2L400.2,332.8L401.3,332.5L402.2,333.1L405.2,332.5L407.3,333.3L407.8,332.4L408.4,332.2L409.2,331.8L409.6,331.1L411.7,331.3L413.1,329.8L414.6,329.3L416.4,328.9L417.8,330.5L419.5,330.6L420.5,330.4L423.2,332.3L424.0,331.3L427.5,331.3L428.9,332.5L430.1,332.0L432.2,333.4L433.4,332.5L435.0,335.5L437.6,335.0L438.8,336.6L438.6,337.9L438.6,338.8L439.8,340.1L441.1,343.0L439.7,343.6L439.3,344.8L439.1,346.8L440.2,349.0L439.6,350.0L441.4,352.6L439.9,355.1L438.4,355.5L438.7,357.1L436.3,359.7L438.5,362.0L438.5,362.9L437.3,363.7L437.8,364.9L438.0,366.0L443.0,369.3L446.7,369.3L448.5,368.7L450.8,369.2L452.6,369.1L453.8,370.0L455.1,369.6L455.8,370.0L457.6,370.5L456.6,373.0L456.0,374.8L453.7,376.6L453.1,378.8L453.9,380.5L451.6,386.0L453.0,391.4L452.5,392.2L451.3,392.9L451.3,395.0L449.6,395.9L447.8,398.1L449.4,400.3L449.5,401.6L449.7,403.6L448.3,405.5L448.7,407.6L448.3,408.5L449.7,409.4L449.6,410.6L451.5,410.6L453.1,411.0L453.7,411.6L451.9,417.5L451.0,417.1L449.9,417.3L448.8,418.8L447.8,418.6L446.2,419.0L445.6,418.0L444.4,417.1L441.5,417.3L440.5,415.9L439.1,415.0L437.1,415.7L437.2,416.5L434.9,417.6L433.8,417.4L433.2,417.8L430.9,418.1L428.8,420.7L425.7,423.6L425.5,425.8L421.7,430.6L420.0,430.8L417.8,433.1L417.3,434.4L417.5,435.3L416.3,436.6L415.5,438.3L414.6,438.9L413.9,440.4L415.0,442.1L413.3,443.5L412.7,446.3L414.8,448.5L415.6,450.1L414.9,451.0L414.7,452.5L413.4,452.9L411.8,454.1L411.5,456.0L408.2,456.6L407.1,454.6L405.9,454.4L406.2,451.9L405.4,451.8L404.0,449.6L403.1,449.9L401.3,447.0L401.8,443.8L400.7,442.5L402.2,441.2L402.1,440.0L403.7,438.3L403.3,436.6L404.0,436.0L404.2,432.1L405.2,430.4L404.2,427.9L403.3,427.6L403.1,425.4L400.4,421.8L397.6,421.5L396.4,420.7L393.2,421.5L393.0,423.1L391.5,422.9L389.7,424.1L388.1,424.8L387.3,425.8L386.3,425.3L385.3,425.3L382.0,426.9L381.3,426.3L380.1,427.1L378.7,426.7L377.8,427.0L377.3,428.3L377.9,429.1L376.8,430.4L375.8,429.3L373.9,428.9L371.8,429.4L370.7,428.3L367.7,428.4L366.7,427.9L364.9,429.0L365.1,429.9L363.3,432.7L360.8,432.7L360.5,431.6L359.9,431.7L358.8,432.5L358.1,432.0L357.9,431.4L357.9,430.6L357.1,430.4L356.3,431.2L354.3,431.3L353.1,432.0L350.4,431.3L348.5,432.0L346.5,430.9L345.1,432.0L342.8,432.1L340.6,431.2L339.6,428.6L337.3,426.8L335.7,426.9L334.2,426.5L333.9,425.5L333.0,424.9L331.5,423.7L330.8,424.2L329.1,424.2L327.5,422.8L327.9,421.4L326.7,420.6L324.7,420.8L324.0,421.8L322.6,422.0L322.1,420.7L321.2,420.3L321.2,421.8L320.0,422.7L319.0,426.8L317.9,427.0L317.2,428.2L315.7,428.5L314.2,427.1L312.3,427.1L310.8,425.9L308.9,425.6L308.6,423.4L308.0,421.5L308.2,420.7L307.0,419.0L305.7,419.6L304.9,421.0L303.6,421.0L303.9,422.3L303.5,423.9L304.5,425.5L304.9,427.7L302.3,428.6L300.9,428.7L299.2,427.3L299.7,425.2L297.0,422.2L296.8,420.3L294.8,417.2L293.4,416.8L291.5,414.9L290.1,409.0L289.2,409.2L288.4,410.3L288.3,412.2L287.5,413.4L286.4,413.6L285.7,412.1L284.6,412.1L282.7,411.2L280.1,411.0L278.2,413.1L276.6,412.2L275.6,412.9L273.9,412.9L273.6,412.0L271.8,410.4L270.8,411.3L268.5,410.4L269.1,409.1L269.0,408.0L268.5,406.3L268.4,405.4L269.6,404.8L270.4,403.3L271.3,402.3L270.6,400.3L271.6,399.5L271.1,398.3L270.2,398.2L268.5,396.7L267.5,397.2L266.7,397.1L264.2,399.3L263.6,400.5L261.2,400.4L259.2,401.5L256.2,399.6L254.7,399.3L253.6,398.7L253.5,397.5L252.5,396.4L251.5,394.9L249.4,394.5L248.2,393.9L246.1,394.5L244.7,393.3L243.9,391.0L242.9,389.5L240.9,388.8L240.3,389.1L238.0,387.7L237.5,387.8L236.6,387.0L237.4,383.0L236.8,381.5L235.5,381.5L235.2,379.6L235.7,378.2L234.9,378.1L234.3,376.0L235.4,374.9L234.8,373.7L233.6,373.8L232.6,373.5L232.6,372.0L231.0,371.2L230.1,371.2L227.4,370.0L226.1,370.6L224.8,370.1L221.8,370.9L220.8,373.2L218.4,373.7L216.2,375.0L216.2,375.8L214.8,377.0L213.1,375.4L211.8,375.2L210.9,374.4L210.7,373.1L208.3,370.7L208.3,369.4L207.2,368.3L207.2,366.0L205.8,365.8L204.7,364.4L204.7,363.1L203.9,362.6L202.4,362.7L199.7,358.6L197.9,358.9L197.7,358.0L196.3,357.8L195.5,358.3L192.7,356.0L190.7,356.1L190.0,354.4L187.1,355.1L185.9,354.8L185.6,353.5L184.0,353.4L183.2,351.8L181.2,351.8L180.9,351.0L182.6,349.8L181.1,348.2L179.0,348.6L179.3,347.5L177.7,346.4L176.2,343.7L175.3,343.4L174.1,344.2L173.2,343.0L171.5,342.3L170.4,341.2L169.3,341.5L167.8,340.0L167.1,340.2L166.2,339.4L162.3,339.0L162.9,334.0ZM293.7,306.6L293.1,304.5L292.2,302.3L296.4,303.0L298.2,302.9L298.4,304.2L298.4,304.7L297.2,304.7L296.2,305.2L296.2,305.9L297.5,307.7L297.0,308.5L294.4,308.2Z" />
		<path id="L1610957693966" name="昌都市" class="qing-map-1616136103792" d="M759.4,406.7L757.9,406.1L756.2,405.9L754.1,404.2L753.6,400.9L752.0,398.8L751.3,395.9L751.9,395.0L749.9,392.4L748.1,393.2L746.3,391.9L745.7,390.4L745.5,389.2L743.3,387.6L742.4,388.0L741.5,389.1L740.3,388.9L737.9,385.4L738.6,383.6L737.5,382.6L736.0,382.3L735.8,380.5L733.2,378.3L732.1,379.5L728.5,379.7L725.9,375.0L724.5,373.9L721.5,372.5L717.9,372.2L720.2,374.9L719.4,375.9L717.8,376.3L717.1,378.0L717.1,379.8L715.2,380.2L713.2,380.3L712.9,378.1L713.6,375.9L712.8,373.9L712.5,371.8L711.3,371.9L710.4,369.2L711.0,368.6L708.8,366.0L708.7,365.1L706.3,364.8L705.5,365.5L704.0,365.2L701.0,362.0L700.4,363.7L699.1,363.3L697.6,363.8L697.3,365.3L698.1,367.5L696.8,368.9L697.1,369.8L697.9,370.9L697.5,372.4L697.7,375.4L696.1,375.0L695.2,376.1L694.8,378.5L693.9,377.3L691.2,376.2L688.3,376.8L686.5,373.4L686.4,372.1L681.8,368.7L684.9,366.8L687.1,367.3L687.6,366.4L684.5,363.2L685.8,361.3L684.7,357.6L683.0,356.2L682.0,354.6L680.0,353.2L679.4,350.2L680.8,349.6L682.0,346.4L683.2,345.0L682.7,343.1L685.4,340.9L685.0,339.0L686.1,336.9L685.0,336.1L684.8,333.0L683.3,332.0L682.1,329.9L680.9,330.6L678.4,330.3L677.5,328.6L675.7,329.1L674.4,328.8L672.1,329.8L670.5,330.1L669.7,333.1L668.4,333.3L667.2,333.8L666.0,333.6L665.6,332.3L663.9,331.2L662.6,332.3L661.1,331.9L659.9,331.7L658.9,330.7L657.2,329.2L657.9,328.0L656.8,327.2L655.6,327.0L653.4,324.4L653.6,322.9L651.4,321.3L651.4,319.2L647.1,318.0L645.6,317.0L644.5,317.9L643.7,316.9L641.8,316.6L641.2,318.3L640.2,318.0L638.8,318.5L637.6,317.3L637.7,316.0L635.0,314.8L633.1,316.4L630.8,314.0L629.5,314.5L628.8,316.3L629.6,317.8L627.6,318.1L626.6,318.8L624.6,317.3L623.1,318.1L622.1,317.0L620.2,316.6L618.3,317.5L616.0,316.9L615.0,315.9L613.5,316.9L612.1,316.9L611.3,317.5L611.5,319.4L608.2,319.7L607.0,318.6L605.7,319.8L603.4,319.6L603.1,317.6L601.6,317.4L600.6,318.4L597.6,320.2L596.8,321.0L595.1,321.7L592.2,320.3L590.5,318.5L589.4,318.1L589.1,317.0L587.3,317.0L586.8,315.7L584.9,316.5L583.7,314.3L582.4,314.1L581.9,312.6L580.5,312.2L579.9,310.5L578.7,310.5L578.1,309.9L579.0,308.2L577.2,306.0L575.8,305.6L576.9,303.8L578.8,302.9L583.4,304.4L584.9,304.1L587.7,306.7L588.9,306.4L589.6,305.1L595.8,306.2L597.0,305.5L597.9,305.4L599.0,305.5L601.0,306.8L601.9,304.2L600.7,302.6L600.5,301.1L599.5,299.6L599.1,297.5L598.7,296.6L597.5,296.0L597.5,294.7L599.0,292.8L599.1,291.8L600.2,291.2L600.0,290.0L600.6,286.9L603.1,287.5L604.1,286.7L604.3,285.7L606.7,285.7L607.7,283.8L610.6,282.2L611.5,283.1L611.0,284.3L612.8,286.9L614.5,286.9L617.2,284.8L617.6,286.2L616.9,287.7L615.8,290.3L616.3,294.3L618.1,296.9L621.2,294.9L622.6,294.9L623.7,293.5L625.4,294.0L627.4,293.0L627.3,292.1L626.1,290.6L625.1,287.4L624.8,285.2L623.7,284.3L622.3,284.3L621.1,282.2L622.4,280.4L622.0,278.6L621.3,277.2L617.2,276.2L616.2,272.9L614.6,273.1L614.4,271.4L616.1,271.1L617.6,269.6L617.0,266.8L613.0,265.2L613.1,262.8L613.7,262.4L613.8,259.1L613.6,257.8L614.8,256.3L613.6,255.5L613.8,254.3L613.1,253.3L613.8,249.3L614.9,247.3L616.7,246.4L617.1,243.0L615.0,240.6L614.8,238.2L615.7,236.4L617.3,234.9L618.2,235.4L618.9,237.0L620.6,237.9L621.5,237.7L622.2,237.6L623.2,240.0L625.1,240.1L625.9,239.8L628.8,241.3L633.3,241.2L634.9,242.6L632.8,243.4L630.2,243.7L629.5,243.7L629.0,245.8L629.9,246.6L633.5,244.9L634.8,245.8L635.5,249.1L637.0,251.2L638.2,251.3L639.5,250.0L640.4,250.0L641.6,251.5L642.2,254.9L641.3,256.0L641.6,257.6L640.2,257.8L638.9,259.5L639.5,260.9L640.7,262.2L642.1,265.1L644.1,267.5L645.0,268.7L646.6,268.6L648.3,267.0L654.1,268.6L655.0,270.4L656.1,271.0L656.8,270.3L657.4,267.5L658.7,265.5L661.3,265.7L662.2,267.7L664.1,269.4L667.6,271.2L667.9,274.5L669.3,275.0L670.2,273.8L670.2,272.7L671.3,271.7L671.2,270.4L670.3,268.9L670.6,268.2L668.8,267.3L668.8,265.3L669.6,264.4L670.0,262.0L670.9,261.2L676.0,261.3L676.3,262.7L677.8,266.5L682.6,270.0L684.1,269.1L685.5,270.1L686.7,269.5L688.7,271.4L690.1,271.5L690.4,270.9L690.9,270.5L692.2,270.6L692.6,270.0L691.2,267.6L691.1,266.4L690.1,265.7L689.8,263.9L691.1,263.5L691.5,262.6L690.9,261.3L689.2,259.8L689.0,258.0L689.2,257.3L690.5,257.2L692.8,258.2L694.2,257.5L696.1,258.6L697.2,257.3L696.1,255.7L698.3,255.0L699.5,255.7L701.8,256.3L704.2,256.5L705.3,255.6L706.2,256.1L706.9,254.2L707.8,254.7L709.0,254.6L709.5,254.3L709.5,252.6L708.1,251.5L708.0,249.7L709.1,245.6L709.7,245.1L710.8,245.6L711.9,245.7L713.5,245.0L713.3,244.2L713.1,242.1L713.3,241.5L712.1,239.3L710.9,239.1L710.9,237.8L712.5,236.2L710.4,235.2L711.2,234.0L712.4,234.3L713.5,232.9L714.2,232.6L715.3,234.4L717.5,235.4L721.8,235.4L722.3,235.9L725.7,235.4L727.4,236.4L728.8,236.2L730.0,236.9L731.7,237.0L734.9,238.4L737.3,240.8L738.6,240.6L739.6,241.7L741.4,242.4L742.8,246.6L742.2,247.9L743.6,248.9L745.1,251.4L745.1,252.3L747.3,254.2L749.0,255.7L749.1,256.9L750.1,257.3L749.9,261.0L748.8,262.3L750.8,266.1L752.6,268.2L753.1,269.7L754.0,269.8L754.4,272.6L756.5,275.2L759.1,276.9L760.0,278.3L764.6,281.6L765.1,282.7L766.3,284.3L764.3,286.8L762.7,289.5L761.2,288.8L759.3,286.2L757.7,286.0L756.8,287.4L756.2,290.2L757.1,290.7L756.9,292.4L758.8,293.8L760.1,295.3L760.2,296.8L762.3,298.8L763.2,299.9L763.6,300.9L762.5,303.8L763.5,305.6L765.0,306.5L767.0,309.4L769.1,309.9L769.1,311.0L767.0,313.2L767.7,315.3L767.7,316.9L768.6,317.5L767.9,318.5L767.9,320.2L769.2,323.1L769.4,327.9L769.9,329.4L769.4,331.4L770.5,333.2L769.8,334.9L772.3,338.6L771.8,339.7L772.7,345.3L771.0,349.6L771.3,350.6L770.9,352.1L770.4,356.2L772.3,359.9L772.1,362.2L772.8,363.8L772.6,365.3L772.9,371.1L774.0,372.1L774.9,373.6L772.8,374.5L771.2,375.9L769.9,375.3L769.2,376.2L769.5,378.4L770.6,380.2L771.1,381.6L770.5,382.6L769.7,383.1L768.9,384.1L768.0,384.5L767.6,387.3L768.2,388.4L769.5,388.8L769.5,390.5L768.3,390.7L767.8,391.7L765.9,391.8L764.4,390.9L763.8,386.1L762.5,384.0L761.9,383.5L760.0,385.0L758.1,384.7L757.0,385.2L757.9,386.7L758.1,389.1L758.7,389.9L758.2,391.1L758.9,392.9L759.0,394.9L757.9,395.8L757.1,396.7L756.2,397.0L756.9,399.2L756.6,400.9L757.5,402.2L756.9,403.9L757.6,404.9L758.7,405.1Z" />
		<path id="L1610957701766" name="林芝市" class="qing-map-1616136103792" d="M598.9,443.2L597.9,441.2L598.1,440.2L602.7,436.7L601.5,435.2L601.8,433.3L602.6,432.1L601.8,430.9L601.7,428.9L600.1,425.3L598.0,425.3L597.1,424.5L597.0,423.4L595.6,420.7L596.4,420.0L595.4,413.8L593.8,413.6L590.3,410.3L588.1,410.4L585.4,408.4L585.4,406.7L585.0,405.9L585.7,402.3L584.3,400.9L584.2,399.4L582.0,397.8L580.8,396.5L579.3,397.6L576.0,397.0L572.1,397.8L569.2,395.4L566.8,395.9L565.4,393.4L560.7,395.2L559.6,394.9L557.0,395.5L552.4,394.4L550.7,393.4L549.5,393.9L549.5,394.9L548.6,395.8L546.3,395.8L545.5,394.1L541.6,393.1L540.4,393.7L537.7,392.2L537.3,393.1L535.2,395.2L533.2,391.7L535.4,389.1L536.3,389.7L538.7,390.8L540.2,390.6L541.7,391.3L541.9,388.9L543.5,387.0L545.2,386.5L545.4,384.2L546.6,380.6L549.1,378.6L550.7,378.5L552.5,375.8L554.7,373.8L554.6,371.0L555.4,370.2L557.2,370.0L557.4,367.2L556.3,365.4L557.0,364.1L556.3,361.0L553.9,359.4L553.4,358.7L553.3,356.4L549.8,354.2L549.0,355.0L548.1,354.9L546.9,355.8L545.8,356.0L544.0,357.0L542.2,355.2L540.4,356.2L538.7,356.3L536.6,358.6L536.8,360.1L535.6,360.8L534.5,359.6L535.7,355.2L536.6,354.0L535.5,352.6L535.5,350.9L533.9,351.4L531.0,349.7L529.9,350.1L528.3,350.8L527.6,350.2L526.9,348.6L526.2,347.9L524.7,347.7L523.8,347.0L523.9,346.0L525.0,344.7L526.5,344.7L529.3,342.6L530.9,343.0L532.4,341.7L533.3,341.0L532.9,339.7L534.8,338.2L536.5,338.3L538.8,335.2L539.5,332.9L540.1,329.4L541.7,329.7L544.2,328.5L544.2,326.6L546.1,323.9L545.0,321.9L546.1,320.6L548.1,319.3L549.0,319.2L549.8,317.5L551.3,317.2L552.5,318.0L553.5,317.5L554.6,318.8L554.7,320.7L556.5,321.4L559.3,324.9L560.8,323.7L562.7,322.5L563.3,321.5L565.3,322.7L567.0,322.8L569.3,325.2L568.8,325.9L568.2,327.0L570.8,329.1L572.1,329.2L573.2,329.3L574.1,330.1L575.9,330.1L576.8,329.5L578.2,330.2L580.2,329.7L581.4,330.6L582.8,329.4L584.3,329.7L585.5,328.0L588.2,329.4L590.3,328.9L590.2,327.9L590.7,326.5L593.8,325.7L593.7,323.1L595.1,321.7L596.8,321.0L597.6,320.2L600.6,318.4L601.6,317.4L603.1,317.6L603.4,319.6L605.7,319.8L607.0,318.6L608.2,319.7L611.5,319.4L611.3,317.5L612.1,316.9L613.5,316.9L615.0,315.9L616.0,316.9L618.3,317.5L620.2,316.6L622.1,317.0L623.1,318.1L624.6,317.3L626.6,318.8L627.6,318.1L629.6,317.8L628.8,316.3L629.5,314.5L630.8,314.0L633.1,316.4L635.0,314.8L637.7,316.0L637.6,317.3L638.8,318.5L640.2,318.0L641.2,318.3L641.8,316.6L643.7,316.9L644.5,317.9L645.6,317.0L647.1,318.0L651.4,319.2L651.4,321.3L653.6,322.9L653.4,324.4L655.6,327.0L656.8,327.2L657.9,328.0L657.2,329.2L658.9,330.7L659.9,331.7L661.1,331.9L662.6,332.3L663.9,331.2L665.6,332.3L666.0,333.6L667.2,333.8L668.4,333.3L669.7,333.1L670.5,330.1L672.1,329.8L674.4,328.8L675.7,329.1L677.5,328.6L678.4,330.3L680.9,330.6L682.1,329.9L683.3,332.0L684.8,333.0L685.0,336.1L686.1,336.9L685.0,339.0L685.4,340.9L682.7,343.1L683.2,345.0L682.0,346.4L680.8,349.6L679.4,350.2L680.0,353.2L682.0,354.6L683.0,356.2L684.7,357.6L685.8,361.3L684.5,363.2L687.6,366.4L687.1,367.3L684.9,366.8L681.8,368.7L686.4,372.1L686.5,373.4L688.3,376.8L691.2,376.2L693.9,377.3L694.8,378.5L695.2,376.1L696.1,375.0L697.7,375.4L697.5,372.4L697.9,370.9L697.1,369.8L696.8,368.9L698.1,367.5L697.3,365.3L697.6,363.8L699.1,363.3L700.4,363.7L701.0,362.0L704.0,365.2L705.5,365.5L706.3,364.8L708.7,365.1L708.8,366.0L711.0,368.6L710.4,369.2L711.3,371.9L712.5,371.8L712.8,373.9L713.6,375.9L712.9,378.1L713.2,380.3L715.2,380.2L717.1,379.8L717.1,378.0L717.8,376.3L719.4,375.9L720.2,374.9L717.9,372.2L721.5,372.5L724.5,373.9L725.9,375.0L728.5,379.7L732.1,379.5L733.2,378.3L735.8,380.5L736.0,382.3L737.5,382.6L738.6,383.6L737.9,385.4L740.3,388.9L741.5,389.1L742.4,388.0L743.3,387.6L745.5,389.2L745.7,390.4L746.3,391.9L748.1,393.2L749.9,392.4L751.9,395.0L751.3,395.9L752.0,398.8L753.6,400.9L754.1,404.2L756.2,405.9L757.9,406.1L759.4,406.7L761.5,411.4L760.3,412.3L760.4,415.4L759.5,416.6L758.1,417.0L757.0,418.0L755.6,417.5L753.7,418.0L752.5,419.3L751.2,418.6L750.0,420.6L749.1,420.6L748.5,418.1L747.8,417.3L747.9,414.6L747.1,412.7L745.9,412.0L746.1,410.5L744.9,409.0L743.0,409.7L742.1,410.9L743.1,412.3L743.9,413.9L743.4,415.3L742.3,416.1L740.7,416.3L740.4,418.2L739.5,418.9L737.7,417.7L737.3,416.5L735.6,417.3L734.9,416.4L734.9,414.2L733.8,412.7L732.4,412.5L731.0,410.1L729.7,410.0L728.7,411.2L727.0,411.3L726.6,410.2L724.8,408.6L725.0,406.7L724.2,404.5L723.2,404.2L722.4,403.2L720.3,403.5L719.6,403.5L719.3,403.0L716.9,404.6L717.3,406.4L715.9,408.7L716.9,412.0L715.5,412.6L714.9,414.0L713.4,412.7L712.8,413.2L713.3,414.5L712.5,415.1L711.2,415.2L711.4,417.2L711.3,418.3L710.4,419.1L710.8,420.4L709.3,421.8L710.0,422.5L712.0,422.3L712.1,423.5L713.4,424.5L712.0,426.1L711.5,430.0L710.1,429.9L709.1,428.6L707.6,429.2L704.5,432.4L702.3,433.8L701.7,435.6L700.6,435.5L700.1,434.6L699.9,432.6L698.3,432.6L697.0,430.7L695.0,430.0L692.8,430.1L691.7,429.2L690.8,427.9L689.8,427.7L687.7,426.6L687.0,427.0L685.2,425.1L684.5,423.9L683.1,422.7L681.5,422.0L680.1,422.1L679.7,420.5L678.4,418.9L677.7,418.3L676.7,418.7L676.8,419.8L675.5,420.0L672.7,418.8L672.0,415.5L670.1,415.6L667.8,416.2L665.9,415.9L665.1,416.8L661.5,416.9L659.9,415.1L658.9,415.1L658.4,414.1L657.6,412.9L655.8,412.7L654.1,413.9L652.6,414.0L651.3,414.3L645.6,417.4L643.6,417.7L642.0,418.1L639.3,420.2L638.9,422.8L637.6,424.3L636.7,427.0L635.3,428.1L631.9,429.5L628.4,431.5L626.6,432.2L623.4,433.7L621.2,435.7L619.0,436.2L609.3,441.2L607.1,441.2L603.7,441.7L601.2,441.8Z" />
		<path id="L1610957712590" name="山南市" class="qing-map-1616136103792" d="M451.9,417.5L453.7,411.6L453.1,411.0L451.5,410.6L449.6,410.6L449.7,409.4L448.3,408.5L448.7,407.6L448.3,405.5L449.7,403.6L449.5,401.6L449.4,400.3L447.8,398.1L449.6,395.9L451.3,395.0L451.3,392.9L452.5,392.2L453.0,391.4L451.6,386.0L453.9,380.5L453.1,378.8L453.7,376.6L456.0,374.8L456.6,373.0L457.6,370.5L459.5,371.6L461.1,373.4L464.8,373.3L466.6,372.3L468.2,371.9L469.0,370.5L471.3,369.3L473.7,369.8L479.0,368.6L479.8,367.5L480.5,367.7L483.5,366.5L483.7,365.4L484.5,364.6L487.2,364.0L487.9,362.5L491.4,361.3L495.5,363.5L497.0,362.2L498.4,361.7L501.2,359.6L504.2,359.8L504.5,361.3L505.8,361.0L506.7,361.8L507.9,360.9L508.9,361.1L511.3,359.4L512.6,359.8L516.9,359.9L519.5,361.7L520.9,361.7L522.1,361.9L524.5,360.3L527.1,360.2L528.5,358.9L529.9,358.3L531.2,357.8L530.8,355.9L531.2,355.2L531.1,353.6L530.5,352.7L531.0,349.7L533.9,351.4L535.5,350.9L535.5,352.6L536.6,354.0L535.7,355.2L534.5,359.6L535.6,360.8L536.8,360.1L536.6,358.6L538.7,356.3L540.4,356.2L542.2,355.2L544.0,357.0L545.8,356.0L546.9,355.8L548.1,354.9L549.0,355.0L549.8,354.2L553.3,356.4L553.4,358.7L553.9,359.4L556.3,361.0L557.0,364.1L556.3,365.4L557.4,367.2L557.2,370.0L555.4,370.2L554.6,371.0L554.7,373.8L552.5,375.8L550.7,378.5L549.1,378.6L546.6,380.6L545.4,384.2L545.2,386.5L543.5,387.0L541.9,388.9L541.7,391.3L540.2,390.6L538.7,390.8L536.3,389.7L535.4,389.1L533.2,391.7L535.2,395.2L537.3,393.1L537.7,392.2L540.4,393.7L541.6,393.1L545.5,394.1L546.3,395.8L548.6,395.8L549.5,394.9L549.5,393.9L550.7,393.4L552.4,394.4L557.0,395.5L559.6,394.9L560.7,395.2L565.4,393.4L566.8,395.9L569.2,395.4L572.1,397.8L576.0,397.0L579.3,397.6L580.8,396.5L582.0,397.8L584.2,399.4L584.3,400.9L585.7,402.3L585.0,405.9L585.4,406.7L585.4,408.4L588.1,410.4L590.3,410.3L593.8,413.6L595.4,413.8L596.4,420.0L595.6,420.7L597.0,423.4L597.1,424.5L598.0,425.3L600.1,425.3L601.7,428.9L601.8,430.9L602.6,432.1L601.8,433.3L601.5,435.2L602.7,436.7L598.1,440.2L597.9,441.2L598.9,443.2L595.6,446.6L592.5,449.2L587.8,454.7L586.7,456.0L584.9,458.2L584.1,463.8L583.3,465.0L579.8,465.6L577.0,467.3L573.9,468.3L569.2,468.9L565.2,468.9L560.4,469.7L556.2,470.5L552.9,469.3L549.1,469.0L546.3,469.9L541.6,467.5L538.1,467.8L534.2,469.3L528.3,470.5L523.9,471.7L521.7,471.6L521.6,470.1L522.0,467.1L520.4,463.7L519.1,463.4L518.5,462.2L519.0,460.4L519.0,459.0L520.0,457.9L520.2,455.6L522.2,454.1L519.2,448.4L517.6,446.9L514.2,446.8L511.2,445.6L509.0,446.9L507.6,446.8L505.6,445.2L503.4,444.1L501.9,442.1L502.5,440.9L501.8,439.4L504.1,436.7L504.6,434.8L504.2,433.1L503.5,432.0L501.9,432.5L500.9,431.7L501.5,430.7L502.9,430.8L503.8,430.1L502.7,428.7L501.4,428.9L500.7,428.0L498.7,427.2L499.0,426.1L497.4,424.2L495.4,423.3L493.6,422.2L492.4,422.3L491.7,424.4L490.6,426.0L489.3,425.3L487.1,426.0L486.7,427.2L486.8,428.7L485.8,429.9L485.2,431.3L481.9,430.5L480.3,428.5L480.5,427.2L477.8,427.1L476.5,426.6L474.0,424.5L474.0,423.0L472.3,422.6L470.5,421.6L466.4,423.8L465.4,422.8L463.4,422.2L461.5,422.9L460.8,422.3L459.2,422.2L458.1,420.6L455.8,418.5L453.5,418.7Z" />
	</g>
</svg>
