<svg xmlns="http://www.w3.org/2000/svg" viewBox="0,0,800,631" width="100%" height="100%">
	<defs>
		<style type="text/css">
.qing-map-1616134819319
{
	fill: #DDDDDD;
	fill-opacity: 1.0;
	stroke: #FFFFFF;
	stroke-opacity: 1.0;
	stroke-width: 1;
}

.qing-map-1616134819319:hover
{
	fill: #56A4FF;
	fill-opacity: 1.0;
}
</style>
	</defs>
	<g>
		<path id="L1611108129991" name="百色市" class="qing-map-1616134819319" d="M219.4,192.4L215.8,193.8L214.2,196.0L209.0,197.4L207.2,199.2L203.8,200.4L202.0,201.0L197.2,202.6L195.8,202.6L194.0,203.8L191.2,203.8L187.8,204.4L185.4,203.4L183.0,206.6L179.0,205.8L181.2,210.0L183.6,213.4L184.2,216.0L183.6,221.0L182.0,222.4L181.2,226.6L178.6,226.8L177.4,230.0L176.0,230.8L174.8,232.0L172.6,232.6L169.4,235.2L166.6,240.4L163.4,238.6L160.0,234.6L158.8,230.8L154.4,231.2L152.4,230.2L150.2,232.0L147.4,233.2L144.6,232.8L141.2,229.6L135.6,226.0L133.2,225.2L129.8,225.6L126.6,222.8L124.8,222.2L122.6,222.8L116.6,221.8L115.4,218.2L112.2,214.8L111.0,209.8L103.8,207.4L99.6,209.6L93.4,208.6L93.6,206.2L91.8,204.8L90.6,205.2L90.2,203.6L89.0,203.8L89.0,202.2L87.0,202.2L84.0,205.8L82.4,205.8L76.2,209.8L75.2,213.2L72.2,215.0L72.6,216.6L71.4,221.2L71.8,224.0L67.8,225.6L59.2,228.0L55.4,230.8L55.0,233.4L52.6,236.2L50.2,236.2L49.0,237.4L45.0,238.2L43.6,241.8L40.6,241.2L39.4,240.0L39.2,238.4L33.0,237.6L29.6,233.6L29.0,232.4L27.2,232.0L25.6,230.4L23.4,230.2L20.0,237.8L18.4,238.0L20.6,240.8L20.8,245.0L22.0,247.8L22.2,250.8L23.6,251.0L25.0,252.4L24.8,254.8L27.2,257.2L28.2,262.8L31.4,263.2L32.8,265.0L31.0,268.2L34.8,269.2L39.8,274.0L42.0,271.4L41.0,269.4L41.4,267.8L40.4,265.4L39.8,263.0L41.6,260.2L44.0,261.0L44.6,259.4L46.2,259.2L47.0,260.4L49.6,260.6L52.0,259.8L54.2,261.6L60.2,262.2L61.0,264.2L63.4,264.4L65.0,264.6L69.2,261.4L71.0,261.6L73.0,260.8L73.6,262.0L78.8,264.2L77.8,266.4L79.8,268.4L81.6,267.8L85.6,270.6L87.4,272.4L85.2,274.6L85.6,276.2L84.6,277.6L88.0,281.0L88.0,283.2L89.6,284.6L91.8,285.8L90.6,289.8L88.4,291.0L87.6,289.6L85.4,290.6L86.0,292.8L87.2,295.4L90.4,298.8L95.0,300.6L96.2,298.6L94.6,297.4L96.4,295.4L99.4,294.8L100.0,297.6L101.2,297.6L104.6,299.0L106.6,300.4L108.2,304.0L110.8,304.0L115.2,305.6L117.0,304.6L118.2,299.4L118.4,296.8L119.4,295.6L119.0,293.8L121.4,294.0L124.6,293.6L126.0,292.8L128.4,293.6L128.8,296.8L130.4,298.2L130.0,302.0L130.2,303.6L135.8,301.0L139.4,301.4L142.0,300.0L144.8,301.2L144.2,304.0L148.6,303.8L149.8,301.8L154.0,302.8L156.0,299.4L154.4,298.2L156.6,294.8L159.2,295.8L164.4,294.2L165.2,296.6L167.0,296.8L168.8,297.8L169.8,302.4L173.4,304.6L172.6,307.2L176.6,311.0L178.0,315.0L180.2,319.0L182.8,319.4L183.4,322.0L181.0,321.6L183.4,324.6L182.2,326.8L180.6,325.8L178.4,327.6L179.2,335.8L180.4,337.4L179.2,339.8L179.2,343.2L178.2,344.4L177.8,347.4L175.8,349.4L178.0,352.6L176.2,355.6L173.2,357.6L172.4,360.8L168.2,361.4L164.8,364.8L163.0,364.2L164.0,362.8L163.2,360.6L159.8,361.0L157.8,359.0L155.8,360.4L155.0,358.2L153.0,356.6L149.6,357.0L147.4,359.4L146.8,363.4L145.0,363.0L140.8,364.4L140.8,366.6L139.0,367.2L135.0,371.0L133.4,370.0L131.8,370.4L134.6,373.4L134.4,375.8L135.8,377.8L133.4,378.6L132.2,376.2L127.6,379.0L125.4,379.4L125.4,381.0L123.2,382.4L123.0,385.8L120.0,387.0L119.2,389.2L120.6,390.8L121.0,393.2L122.4,394.2L123.0,398.8L123.4,401.8L123.2,404.8L126.0,404.8L128.2,405.6L130.4,404.2L133.6,405.6L137.2,405.8L139.6,409.0L143.0,410.0L145.6,412.6L148.6,413.4L149.4,415.6L151.2,418.4L153.6,420.4L156.0,418.6L159.0,419.0L161.2,417.8L163.6,418.4L165.4,417.2L164.8,413.4L166.8,413.4L170.8,413.0L173.2,412.8L174.8,413.8L178.8,412.8L180.8,414.4L183.8,414.2L190.0,421.4L189.2,423.2L190.8,426.2L193.0,425.8L195.2,426.4L196.4,425.6L198.6,427.0L200.6,424.6L204.2,425.2L205.4,423.8L208.2,422.8L210.4,422.4L212.6,422.4L213.0,419.6L215.0,417.6L218.4,421.2L221.8,420.0L225.4,424.4L227.6,426.6L229.0,425.0L229.6,421.2L233.4,418.2L233.8,416.4L235.4,415.4L238.2,413.4L239.2,410.6L241.4,409.8L241.2,407.6L242.8,404.0L241.0,402.6L240.4,404.0L238.0,403.4L239.4,401.4L237.8,399.4L240.6,395.8L239.2,393.2L241.4,392.8L245.6,391.4L250.0,388.4L251.6,389.2L252.8,386.6L253.2,384.0L255.0,383.0L255.6,380.4L260.0,381.0L260.8,379.6L264.8,383.0L268.0,383.2L272.8,382.2L274.0,380.2L278.8,377.2L281.2,378.8L285.2,378.0L287.0,375.4L290.2,376.0L292.8,376.8L295.2,378.6L294.2,381.2L296.6,384.0L297.4,386.6L301.8,385.0L305.8,386.2L305.6,388.8L310.4,388.8L312.0,391.8L315.2,390.2L316.8,387.6L316.0,384.8L317.0,381.8L322.8,382.2L323.0,383.6L325.8,382.2L328.4,382.8L329.0,380.8L333.0,379.4L333.0,376.8L340.6,376.8L340.4,372.8L343.8,370.4L345.2,366.0L342.8,366.2L340.4,366.8L338.2,366.0L337.2,367.2L334.8,364.8L332.0,365.2L331.0,360.0L332.0,357.0L329.4,353.6L328.4,350.8L328.6,346.0L333.4,343.8L334.8,341.0L337.4,343.4L340.2,342.0L340.2,338.8L339.2,335.4L336.8,332.2L332.8,332.6L331.6,330.2L333.0,328.6L328.4,328.4L326.8,327.4L322.6,331.0L315.2,327.8L315.4,324.2L313.2,323.8L311.8,321.8L313.8,319.6L310.0,318.2L308.0,320.4L306.6,319.6L306.2,322.0L303.8,324.6L297.8,320.4L297.8,318.0L295.8,315.2L294.6,316.8L289.8,314.8L287.8,309.2L286.6,307.4L284.8,310.8L280.8,309.6L276.2,308.2L274.2,306.0L273.0,302.0L266.4,300.8L264.4,303.8L262.0,303.8L255.8,298.8L257.4,296.2L255.8,295.4L252.6,296.6L250.0,294.8L247.0,288.6L247.8,286.4L252.2,284.4L253.4,280.2L250.6,279.0L251.4,277.2L249.2,273.8L251.2,272.2L249.4,269.4L251.0,266.2L247.4,265.6L246.0,262.6L243.0,260.4L241.4,258.4L243.4,256.4L241.4,253.0L239.0,253.6L237.0,249.8L239.2,248.4L238.8,245.2L235.8,241.8L233.0,243.2L230.0,243.6L233.6,239.2L235.6,239.0L240.2,238.2L243.0,234.6L240.4,234.2L237.4,231.0L228.4,225.4L227.6,222.6L232.2,221.0L235.0,222.0L237.4,223.6L239.6,223.0L241.2,219.0L245.4,216.2L241.6,209.8L237.8,207.2L235.8,204.8L235.8,202.8L233.8,201.0L235.2,198.8L237.4,198.6L237.6,196.6L235.6,194.0L236.8,191.8L233.4,190.8L232.0,192.2L228.6,195.6L224.4,194.2L223.6,195.8L221.0,195.2Z" />
		<path id="L1611109233375" name="河池市" class="qing-map-1616134819319" d="M401.0,306.2L398.8,304.0L393.0,305.6L391.8,308.4L390.8,311.2L392.2,312.8L392.0,315.8L387.0,317.6L387.2,320.2L385.4,323.2L386.2,324.4L383.6,328.2L382.0,326.4L378.8,327.8L378.2,324.0L376.2,320.6L373.8,322.8L374.0,325.4L372.2,325.4L370.6,323.0L367.6,324.8L367.4,327.2L364.4,328.8L362.0,328.2L358.0,331.4L358.6,334.8L360.8,336.8L359.0,340.2L356.8,342.0L356.4,345.4L354.0,347.0L350.6,343.4L349.4,345.2L347.4,345.2L346.2,347.8L342.6,349.6L341.2,348.2L338.0,348.8L336.6,351.8L332.8,352.6L329.4,353.6L328.4,350.8L328.6,346.0L333.4,343.8L334.8,341.0L337.4,343.4L340.2,342.0L340.2,338.8L339.2,335.4L336.8,332.2L332.8,332.6L331.6,330.2L333.0,328.6L328.4,328.4L326.8,327.4L322.6,331.0L315.2,327.8L315.4,324.2L313.2,323.8L311.8,321.8L313.8,319.6L310.0,318.2L308.0,320.4L306.6,319.6L306.2,322.0L303.8,324.6L297.8,320.4L297.8,318.0L295.8,315.2L294.6,316.8L289.8,314.8L287.8,309.2L286.6,307.4L284.8,310.8L280.8,309.6L276.2,308.2L274.2,306.0L273.0,302.0L266.4,300.8L264.4,303.8L262.0,303.8L255.8,298.8L257.4,296.2L255.8,295.4L252.6,296.6L250.0,294.8L247.0,288.6L247.8,286.4L252.2,284.4L253.4,280.2L250.6,279.0L251.4,277.2L249.2,273.8L251.2,272.2L249.4,269.4L251.0,266.2L247.4,265.6L246.0,262.6L243.0,260.4L241.4,258.4L243.4,256.4L241.4,253.0L239.0,253.6L237.0,249.8L239.2,248.4L238.8,245.2L235.8,241.8L233.0,243.2L230.0,243.6L233.6,239.2L235.6,239.0L240.2,238.2L243.0,234.6L240.4,234.2L237.4,231.0L228.4,225.4L227.6,222.6L232.2,221.0L235.0,222.0L237.4,223.6L239.6,223.0L241.2,219.0L245.4,216.2L241.6,209.8L237.8,207.2L235.8,204.8L235.8,202.8L233.8,201.0L235.2,198.8L237.4,198.6L237.6,196.6L235.6,194.0L236.8,191.8L233.4,190.8L232.0,192.2L228.6,195.6L224.4,194.2L223.6,195.8L221.0,195.2L219.4,192.4L221.4,192.4L222.0,190.2L226.2,188.0L226.4,184.2L230.2,182.6L234.0,185.0L236.6,182.8L238.6,182.6L240.4,183.4L246.6,182.2L249.8,182.2L251.4,180.2L251.4,177.0L253.2,174.8L256.8,175.6L258.4,177.0L260.6,175.8L260.0,173.6L262.0,172.4L261.8,169.4L261.8,164.4L259.6,163.2L259.0,160.2L257.0,156.6L258.2,154.0L260.0,154.8L261.4,148.8L265.0,148.0L267.8,146.6L266.8,143.0L269.0,141.0L272.2,141.8L274.2,141.8L278.4,139.8L280.6,136.8L283.0,138.6L282.4,141.2L283.6,143.8L286.8,144.6L289.4,146.4L290.0,148.2L291.8,148.2L291.6,150.6L291.8,152.8L292.0,155.0L289.8,156.2L290.2,158.2L295.0,159.2L296.0,158.0L298.2,158.6L299.0,160.4L301.0,160.6L298.8,164.4L301.4,166.2L300.6,169.4L304.0,171.2L306.4,170.2L306.8,173.2L305.6,176.0L305.8,178.8L310.2,179.2L311.8,177.6L315.6,174.2L317.4,175.0L318.6,174.0L320.0,171.2L320.0,169.0L321.6,169.0L324.6,167.6L323.6,169.8L324.2,173.2L325.4,176.0L327.6,178.4L327.6,180.6L332.0,176.8L334.4,177.0L333.0,179.0L334.2,182.0L335.8,183.0L335.2,184.6L336.6,185.6L334.6,187.4L336.2,189.2L339.0,187.8L340.8,189.2L343.8,188.2L344.6,186.2L347.0,186.2L349.6,185.2L352.4,182.6L354.8,182.6L356.8,181.2L359.0,181.2L364.0,181.2L368.0,179.4L370.2,176.6L370.0,175.0L371.0,172.2L370.0,170.6L371.4,168.8L372.2,166.4L370.6,164.6L371.6,163.0L370.8,159.8L373.8,159.6L375.2,158.8L375.4,156.8L372.4,154.6L374.4,153.0L377.8,154.0L378.6,156.4L380.6,155.8L380.0,153.6L381.8,151.2L384.8,150.6L386.6,146.0L389.4,144.8L391.0,147.2L394.2,148.6L396.6,151.8L397.4,154.6L401.6,152.6L404.8,153.8L406.0,156.0L405.8,157.4L407.6,157.4L410.8,160.0L410.6,162.0L413.6,163.4L413.2,165.8L416.0,168.4L419.0,170.6L419.6,174.0L419.6,179.0L422.0,180.0L426.0,182.0L425.0,184.6L423.6,184.0L422.6,187.2L420.8,189.2L427.2,191.2L428.6,188.2L433.2,187.6L433.8,189.4L436.4,189.0L437.4,185.2L441.0,186.2L443.4,185.0L443.8,187.6L446.2,187.6L448.6,188.2L452.2,182.4L453.6,183.4L456.4,180.8L459.4,182.6L462.4,183.4L461.4,186.2L462.8,190.2L462.2,193.4L461.0,197.8L457.0,202.0L452.2,206.4L452.0,208.4L455.0,209.8L461.2,210.0L462.0,206.2L464.8,207.0L468.0,211.6L466.0,212.8L466.4,218.2L468.2,219.4L466.4,223.0L462.6,222.4L462.0,219.4L456.6,219.8L452.2,226.6L446.6,229.6L448.6,234.0L451.0,235.8L449.0,238.8L443.6,241.4L444.8,244.6L438.0,246.8L438.6,249.2L437.4,251.4L440.0,251.2L442.6,253.4L445.2,254.0L447.4,257.6L448.8,256.2L452.6,255.2L455.2,256.0L457.6,259.0L453.4,262.0L454.4,264.8L453.0,267.0L450.2,266.4L447.6,267.0L446.0,269.2L445.8,274.0L445.0,279.4L442.8,279.4L439.4,277.8L439.0,273.0L437.8,271.0L434.4,268.0L433.4,269.8L430.4,268.4L428.8,267.4L427.0,270.8L428.0,273.6L425.0,276.6L421.4,276.8L422.8,279.8L422.4,282.0L424.0,282.6L422.8,287.2L422.8,290.8L419.8,292.4L414.0,292.2L412.6,298.8L414.2,302.6L412.0,302.8L410.6,305.2L409.8,307.0L405.4,306.4L404.8,304.2L402.8,305.0Z" />
		<path id="L1611110296354" name="柳州市" class="qing-map-1616134819319" d="M416.0,168.4L417.2,167.2L417.2,164.2L415.6,162.8L417.0,161.8L415.6,158.4L414.2,158.0L413.4,156.6L414.6,154.8L414.4,152.8L415.0,151.2L417.0,152.4L417.4,150.8L416.4,150.2L417.8,146.6L421.0,145.2L422.8,146.4L422.8,144.4L420.8,143.4L420.6,139.0L423.0,139.0L423.2,137.4L422.6,135.6L425.6,134.8L429.8,133.6L430.6,134.8L432.0,134.8L431.6,137.0L433.2,138.6L432.0,141.0L432.4,142.8L433.6,144.2L434.4,145.0L435.4,143.2L438.0,143.0L441.4,142.8L443.0,144.4L445.8,142.6L448.8,142.4L450.4,144.8L452.2,144.6L454.2,146.4L456.6,146.0L458.2,144.4L460.0,144.6L461.2,143.0L458.2,141.4L457.4,137.8L455.8,134.6L457.2,133.4L457.0,132.0L458.2,129.8L460.0,127.6L460.0,125.0L456.8,123.0L457.0,124.0L455.8,124.0L453.0,123.0L448.0,129.0L445.8,128.2L444.8,129.2L443.6,129.0L443.2,126.2L447.0,123.0L448.4,123.6L452.6,120.4L452.6,118.4L455.4,117.2L457.6,117.6L460.0,118.6L461.4,116.2L464.6,115.8L467.4,117.6L465.8,119.4L466.6,121.8L468.0,121.4L468.2,120.4L470.2,120.2L471.2,118.4L469.2,116.4L470.8,116.2L472.6,118.0L473.0,122.6L477.6,124.0L478.4,125.0L481.2,125.6L483.0,124.0L485.4,123.2L485.0,120.2L485.6,118.4L485.6,116.0L484.8,113.2L486.8,112.2L490.4,109.0L490.8,105.4L494.2,104.2L495.2,100.0L493.6,97.8L498.2,95.0L500.0,91.2L502.0,94.2L504.4,95.2L505.8,92.2L508.2,93.6L510.2,92.6L512.8,89.6L515.4,90.2L515.4,92.8L518.8,93.0L519.6,94.4L520.8,93.0L522.8,95.8L521.8,99.2L518.4,101.0L518.4,103.0L519.4,104.4L518.2,105.8L519.6,107.8L526.6,106.6L526.6,108.2L524.2,109.4L522.4,113.8L522.4,116.4L527.4,119.4L527.8,121.4L530.0,123.0L528.0,128.2L531.2,130.6L529.0,133.4L528.4,136.4L526.2,135.6L524.0,139.4L524.4,143.0L527.4,144.0L528.2,147.6L526.2,151.4L526.0,154.4L526.8,156.4L524.2,160.6L524.8,169.4L521.8,175.8L521.8,177.8L518.2,182.2L515.4,183.2L514.2,187.6L516.6,191.0L515.8,194.0L514.4,198.4L514.8,201.6L512.4,203.6L512.8,206.2L512.0,209.4L513.8,211.0L512.2,216.0L512.8,219.0L515.0,218.4L516.4,219.0L517.4,217.2L520.0,217.2L524.6,220.2L529.0,220.4L529.8,221.4L531.4,220.0L535.0,221.2L538.2,221.4L538.6,225.8L543.4,225.6L543.2,230.6L545.0,233.0L547.8,232.2L548.4,236.0L551.0,236.2L551.6,237.8L555.0,235.0L558.4,238.6L562.0,237.8L563.6,239.0L565.8,238.6L565.8,240.2L563.8,241.2L564.8,244.4L564.4,247.6L565.4,249.4L561.8,250.8L561.8,256.8L560.4,258.4L557.4,258.4L555.6,258.2L555.6,260.8L553.8,263.8L553.6,268.6L550.8,271.0L551.0,274.4L552.8,276.2L550.6,279.8L545.6,280.0L544.0,282.2L540.8,282.2L540.4,278.6L542.4,278.0L540.8,275.0L538.2,276.4L537.6,278.2L535.4,277.6L534.6,279.8L530.6,280.6L528.4,282.8L528.2,284.8L524.4,283.8L521.4,287.4L521.4,290.4L517.8,290.8L517.2,292.2L512.2,291.6L512.0,294.4L509.6,299.0L507.0,300.4L502.2,301.8L499.8,305.8L501.2,308.8L496.2,313.4L494.2,316.6L489.6,316.4L487.4,317.2L484.4,311.0L484.0,308.2L481.4,307.0L481.6,303.0L474.6,301.2L473.2,304.2L471.0,306.0L469.6,304.6L467.0,304.6L465.4,300.8L462.6,301.4L462.8,298.4L459.4,297.4L455.8,294.2L452.0,293.0L450.2,295.0L449.8,289.6L447.0,289.2L446.8,284.8L447.6,281.8L445.0,279.4L445.8,274.0L446.0,269.2L447.6,267.0L450.2,266.4L453.0,267.0L454.4,264.8L453.4,262.0L457.6,259.0L455.2,256.0L452.6,255.2L448.8,256.2L447.4,257.6L445.2,254.0L442.6,253.4L440.0,251.2L437.4,251.4L438.6,249.2L438.0,246.8L444.8,244.6L443.6,241.4L449.0,238.8L451.0,235.8L448.6,234.0L446.6,229.6L452.2,226.6L456.6,219.8L462.0,219.4L462.6,222.4L466.4,223.0L468.2,219.4L466.4,218.2L466.0,212.8L468.0,211.6L464.8,207.0L462.0,206.2L461.2,210.0L455.0,209.8L452.0,208.4L452.2,206.4L457.0,202.0L461.0,197.8L462.2,193.4L462.8,190.2L461.4,186.2L462.4,183.4L459.4,182.6L456.4,180.8L453.6,183.4L452.2,182.4L448.6,188.2L446.2,187.6L443.8,187.6L443.4,185.0L441.0,186.2L437.4,185.2L436.4,189.0L433.8,189.4L433.2,187.6L428.6,188.2L427.2,191.2L420.8,189.2L422.6,187.2L423.6,184.0L425.0,184.6L426.0,182.0L422.0,180.0L419.6,179.0L419.6,174.0L419.0,170.6Z" />
		<path id="L1611111132930" name="桂林市" class="qing-map-1616134819319" d="M526.6,106.6L528.0,109.0L531.4,107.6L532.0,105.4L532.8,103.2L531.0,100.6L531.4,97.4L528.8,96.0L529.2,93.4L530.8,90.4L536.0,92.0L538.2,89.6L538.8,85.2L540.6,82.2L540.4,79.2L543.4,76.4L546.0,73.6L547.4,75.6L550.4,75.0L551.4,77.2L556.4,77.0L558.0,76.6L557.6,78.6L558.0,80.4L556.2,85.2L556.2,88.4L555.2,90.0L557.6,90.8L559.6,92.6L560.2,90.4L563.6,92.6L565.2,92.4L566.4,88.0L569.2,90.4L571.4,91.2L572.6,94.2L574.0,95.4L572.6,97.8L574.4,98.6L578.2,97.8L580.0,97.8L583.0,93.0L584.0,89.4L584.2,87.0L585.6,84.4L588.0,82.2L590.4,79.0L595.2,75.4L596.6,77.2L599.6,74.0L601.6,70.4L603.0,68.0L601.4,65.6L602.6,64.2L606.0,62.6L608.4,59.0L610.6,62.2L613.2,60.8L617.0,62.8L619.2,62.6L620.6,60.6L621.0,63.2L619.8,65.6L623.4,67.8L625.8,66.4L627.6,67.0L630.2,67.6L631.6,65.8L637.0,65.2L637.6,66.6L639.4,63.4L638.6,60.4L639.8,59.4L640.4,55.0L642.6,53.4L643.8,55.8L645.4,56.4L645.4,58.4L649.0,59.0L649.4,60.2L651.0,60.2L653.6,61.8L656.4,61.8L660.6,62.0L665.0,62.4L664.0,65.0L666.0,66.0L668.8,66.2L670.8,65.4L673.2,66.8L672.6,70.6L671.0,72.2L671.2,77.0L669.6,79.4L671.0,81.8L669.0,86.0L669.2,88.6L667.6,89.4L665.6,92.4L665.0,96.6L663.6,99.0L666.2,101.4L667.2,105.0L668.4,107.0L669.6,109.6L672.6,109.6L675.0,107.0L676.8,106.4L677.6,105.0L678.8,106.2L681.2,105.0L681.2,106.2L683.2,107.6L688.0,107.0L689.4,108.0L692.2,109.2L686.0,111.4L686.0,113.8L688.0,119.2L685.0,119.2L683.8,122.4L678.6,123.8L676.4,123.2L674.6,124.6L675.2,128.4L675.0,132.2L677.8,136.8L676.2,142.2L676.6,145.4L673.8,151.4L674.0,153.4L672.0,156.4L670.4,156.4L669.0,159.6L665.2,162.8L662.6,162.2L660.2,166.8L657.4,169.6L654.8,171.0L656.2,175.8L656.0,178.4L646.8,183.6L645.2,183.8L644.2,186.4L643.4,189.4L643.2,191.2L642.0,192.8L640.4,196.0L641.0,197.4L641.0,200.6L642.8,202.8L641.8,204.8L644.2,205.2L643.8,207.6L644.4,209.8L645.8,210.0L648.0,208.4L649.6,209.4L654.6,207.8L657.0,212.6L660.4,211.2L662.0,213.4L661.4,216.8L660.8,219.4L662.0,222.0L662.0,225.4L660.2,225.6L658.4,229.6L655.2,230.0L655.4,232.0L651.2,235.6L648.6,235.4L646.8,239.4L644.4,241.4L646.0,243.6L643.6,245.4L644.8,248.0L647.0,249.0L647.0,251.4L649.8,255.2L648.0,256.0L649.4,258.8L646.8,260.4L647.6,262.6L645.2,263.8L645.0,266.6L642.8,268.6L647.0,270.2L647.2,272.4L645.8,274.2L643.4,275.8L641.2,275.2L640.0,272.0L637.6,274.8L636.4,275.8L634.0,279.4L633.8,274.2L631.6,273.2L631.4,266.8L629.6,265.4L624.6,269.6L625.6,272.6L623.8,274.0L622.0,272.2L619.6,273.0L616.4,271.0L613.6,270.0L610.8,268.6L610.2,266.2L606.0,265.0L604.2,269.2L602.0,268.4L602.0,264.0L598.6,267.8L597.6,270.4L594.6,269.2L595.2,272.0L592.6,274.6L590.4,271.4L588.6,273.2L583.4,273.0L580.2,276.8L578.6,275.8L575.0,275.0L573.6,271.4L574.8,269.6L569.6,270.8L567.8,270.2L568.8,268.0L567.2,267.0L569.0,264.6L567.8,261.6L568.4,260.0L563.4,261.0L560.2,259.8L560.4,258.4L561.8,256.8L561.8,250.8L565.4,249.4L564.4,247.6L564.8,244.4L563.8,241.2L565.8,240.2L565.8,238.6L563.6,239.0L562.0,237.8L558.4,238.6L555.0,235.0L551.6,237.8L551.0,236.2L548.4,236.0L547.8,232.2L545.0,233.0L543.2,230.6L543.4,225.6L538.6,225.8L538.2,221.4L535.0,221.2L531.4,220.0L529.8,221.4L529.0,220.4L524.6,220.2L520.0,217.2L517.4,217.2L516.4,219.0L515.0,218.4L512.8,219.0L512.2,216.0L513.8,211.0L512.0,209.4L512.8,206.2L512.4,203.6L514.8,201.6L514.4,198.4L515.8,194.0L516.6,191.0L514.2,187.6L515.4,183.2L518.2,182.2L521.8,177.8L521.8,175.8L524.8,169.4L524.2,160.6L526.8,156.4L526.0,154.4L526.2,151.4L528.2,147.6L527.4,144.0L524.4,143.0L524.0,139.4L526.2,135.6L528.4,136.4L529.0,133.4L531.2,130.6L528.0,128.2L530.0,123.0L527.8,121.4L527.4,119.4L522.4,116.4L522.4,113.8L524.2,109.4L526.6,108.2Z" />
		<path id="L1611120806294" name="崇左市" class="qing-map-1616134819319" d="M229.0,425.0L229.6,421.2L233.4,418.2L233.8,416.4L235.4,415.4L238.2,413.4L239.2,410.6L241.4,409.8L241.2,407.6L242.8,404.0L241.0,402.6L240.4,404.0L238.0,403.4L239.4,401.4L237.8,399.4L240.6,395.8L239.2,393.2L241.4,392.8L245.6,391.4L250.0,388.4L251.6,389.2L252.8,386.6L253.2,384.0L255.0,383.0L255.6,380.4L260.0,381.0L260.8,379.6L264.8,383.0L268.0,383.2L272.8,382.2L274.0,380.2L278.8,377.2L281.2,378.8L285.2,378.0L287.0,375.4L290.2,376.0L292.8,376.8L295.2,378.6L294.2,381.2L296.6,384.0L297.4,386.6L296.2,389.6L296.2,391.0L293.8,391.6L295.4,395.8L292.6,396.8L293.0,399.0L295.0,400.6L297.6,401.6L294.4,403.8L292.8,406.8L295.4,408.4L298.6,407.2L301.6,407.4L305.6,408.2L307.6,412.6L308.0,417.6L309.0,419.4L306.8,420.2L307.2,423.4L308.0,427.8L311.6,427.4L315.8,426.6L315.0,424.2L318.8,423.2L322.6,422.6L324.8,427.6L328.4,425.0L325.4,421.0L322.2,418.0L328.0,418.0L330.4,418.6L332.2,417.6L334.4,421.2L337.4,425.0L343.4,425.6L346.6,428.2L352.0,427.8L355.0,431.2L354.6,433.4L359.0,434.6L358.4,437.6L356.6,441.6L356.4,445.4L358.8,446.2L360.6,448.6L363.4,446.6L364.8,443.2L366.2,446.8L367.4,448.6L365.2,451.4L360.2,452.6L357.2,452.8L356.4,455.8L358.4,458.8L355.6,464.0L359.6,466.8L363.0,468.4L365.4,468.6L365.2,473.8L368.0,474.8L366.0,477.4L363.2,478.8L359.8,481.0L357.6,481.2L355.0,482.8L355.4,485.2L352.0,487.4L352.0,490.6L350.2,489.4L348.8,493.8L347.4,495.2L345.8,493.2L344.2,494.4L340.4,494.6L339.6,493.2L336.8,495.0L331.2,495.2L331.2,496.8L325.0,497.2L321.2,496.4L322.4,502.6L325.4,504.0L323.6,506.0L325.2,508.2L322.2,511.2L319.6,515.2L316.2,518.8L316.0,522.2L313.8,524.8L312.6,527.2L315.4,531.2L314.2,533.0L313.6,537.0L315.8,538.0L313.0,540.6L314.2,544.8L308.8,549.4L309.2,551.2L306.8,552.2L305.4,551.6L301.6,553.8L298.0,558.4L295.8,558.0L295.2,556.4L295.4,551.4L292.0,546.8L289.6,543.4L288.6,544.6L286.4,544.6L285.0,546.6L280.2,546.0L279.0,543.6L275.4,541.8L271.6,538.2L269.2,536.4L264.8,536.2L262.2,534.0L261.4,532.0L264.8,529.6L266.8,527.0L265.0,523.6L261.6,522.0L259.4,523.0L257.4,525.0L254.6,523.6L252.8,519.0L251.2,519.6L247.0,517.8L243.8,519.4L240.4,517.8L240.0,516.0L236.2,515.2L235.0,517.6L231.8,520.6L230.8,516.0L233.0,513.8L232.0,510.4L233.2,506.8L231.4,504.0L231.2,501.8L232.2,500.0L229.8,498.4L230.2,495.4L232.0,494.8L230.8,489.0L230.6,487.2L229.2,487.0L228.2,482.2L226.6,481.0L220.6,481.6L218.4,480.0L218.6,478.4L221.4,476.8L219.6,474.4L219.2,471.4L218.4,469.8L219.2,467.4L221.0,466.8L220.8,464.2L222.4,455.6L224.0,454.0L226.6,456.4L231.0,456.8L234.6,455.4L233.4,452.6L235.2,449.6L237.6,445.8L238.6,443.8L238.4,440.2L241.0,437.6L241.0,436.4L243.2,436.8L244.8,433.2L243.8,431.2L240.0,431.6L237.2,430.2L234.4,427.6L233.0,424.6Z" />
		<path id="L1611121425429" name="南宁市" class="qing-map-1616134819319" d="M366.0,477.4L368.0,474.8L365.2,473.8L365.4,468.6L363.0,468.4L359.6,466.8L355.6,464.0L358.4,458.8L356.4,455.8L357.2,452.8L360.2,452.6L365.2,451.4L367.4,448.6L366.2,446.8L364.8,443.2L363.4,446.6L360.6,448.6L358.8,446.2L356.4,445.4L356.6,441.6L358.4,437.6L359.0,434.6L354.6,433.4L355.0,431.2L352.0,427.8L346.6,428.2L343.4,425.6L337.4,425.0L334.4,421.2L332.2,417.6L330.4,418.6L328.0,418.0L322.2,418.0L325.4,421.0L328.4,425.0L324.8,427.6L322.6,422.6L318.8,423.2L315.0,424.2L315.8,426.6L311.6,427.4L308.0,427.8L307.2,423.4L306.8,420.2L309.0,419.4L308.0,417.6L307.6,412.6L305.6,408.2L301.6,407.4L298.6,407.2L295.4,408.4L292.8,406.8L294.4,403.8L297.6,401.6L295.0,400.6L293.0,399.0L292.6,396.8L295.4,395.8L293.8,391.6L296.2,391.0L296.2,389.6L297.4,386.6L301.8,385.0L305.8,386.2L305.6,388.8L310.4,388.8L312.0,391.8L315.2,390.2L316.8,387.6L316.0,384.8L317.0,381.8L322.8,382.2L323.0,383.6L325.8,382.2L328.4,382.8L329.0,380.8L333.0,379.4L333.0,376.8L340.6,376.8L340.4,372.8L343.8,370.4L345.2,366.0L342.8,366.2L340.4,366.8L338.2,366.0L337.2,367.2L334.8,364.8L332.0,365.2L331.0,360.0L332.0,357.0L329.4,353.6L332.8,352.6L336.6,351.8L338.0,348.8L341.2,348.2L342.6,349.6L346.2,347.8L347.4,345.2L349.4,345.2L350.6,343.4L354.0,347.0L356.4,345.4L356.8,342.0L359.0,340.2L360.8,336.8L358.6,334.8L358.0,331.4L362.0,328.2L364.4,328.8L367.4,327.2L367.6,324.8L370.6,323.0L372.2,325.4L374.0,325.4L373.8,322.8L376.2,320.6L378.2,324.0L378.8,327.8L382.0,326.4L383.6,328.2L386.2,324.4L385.4,323.2L387.2,320.2L387.0,317.6L392.0,315.8L392.2,312.8L390.8,311.2L391.8,308.4L393.0,305.6L398.8,304.0L401.0,306.2L402.8,305.0L404.6,307.78L402.6,308.98L400.6,308.38L398.4,310.78L399.2,312.98L397.4,315.38L400.2,316.18L402.2,318.18L400.0,321.78L400.4,323.38L396.6,325.58L399.4,327.55L399.0,330.15L401.6,329.95L403.6,333.55L402.0,335.75L404.4,337.95L404.8,342.55L407.6,341.15L409.2,338.55L411.2,337.55L411.8,335.15L414.6,334.15L417.8,331.15L420.6,331.15L421.6,329.35L424.8,329.55L427.2,328.15L429.0,330.15L432.0,330.95L432.8,335.75L434.2,337.15L431.2,339.75L431.6,343.55L433.0,345.15L431.2,347.35L434.2,351.75L435.0,355.95L436.2,357.15L436.0,360.35L438.0,362.55L440.18,363.33L442.18,366.73L443.98,366.53L445.38,368.33L444.38,370.13L446.38,374.93L448.38,374.13L450.38,373.13L450.58,375.13L453.18,375.33L454.98,374.13L457.38,374.53L457.78,377.93L460.78,376.93L461.18,379.33L463.98,381.53L467.38,380.53L469.18,383.13L472.58,383.93L471.78,381.93L473.18,380.13L475.18,382.73L475.38,386.73L476.78,387.93L477.38,390.93L475.98,396.33L477.38,401.33L480.18,400.93L484.58,402.73L486.38,405.33L485.38,407.73L482.98,410.73L486.18,413.13L488.78,417.13L489.18,419.33L492.18,419.33L492.18,420.93L494.18,421.53L499.18,423.33L496.58,425.53L497.78,428.67L498.78,429.87L502.58,429.87L503.78,431.67L502.38,432.87L501.98,435.67L506.38,435.27L509.18,437.87L508.38,439.47L512.18,444.07L511.58,446.27L509.18,445.07L507.58,447.67L502.98,449.87L500.38,448.07L498.38,450.27L495.18,451.87L492.18,449.87L488.98,449.27L487.98,450.67L480.58,457.47L482.18,460.47L483.98,462.07L481.38,463.27L479.18,465.07L476.58,462.67L471.18,461.87L472.18,459.47L468.18,459.47L468.58,462.07L462.58,462.67L460.38,461.87L457.58,461.87L456.38,463.27L454.18,462.27L451.58,459.27L449.58,462.07L447.58,460.87L444.38,462.87L440.98,463.27L437.58,459.47L435.38,461.27L431.98,461.67L430.58,463.67L428.58,463.67L427.38,465.67L424.98,465.47L425.58,469.07L422.38,468.27L421.18,471.47L417.78,468.07L415.98,470.44L414.78,473.44L413.38,471.24L411.18,472.24L409.58,474.44L411.58,478.04L409.58,478.24L408.38,481.44L410.18,482.44L408.18,487.24L405.78,487.24L404.38,490.64L401.78,491.84L398.78,490.04L397.18,488.24L392.78,490.64L390.18,490.24L386.98,491.24L385.78,494.24L383.38,494.44L383.58,492.44L380.18,490.84L378.98,488.24L379.38,486.44L376.78,485.64L374.58,487.64L371.98,486.04L369.38,483.84L369.38,481.24Z" />
		<path id="L1611121935846" name="来宾市" class="qing-map-1616134819319" d="M584.28,303.32L581.48,303.72L578.88,304.92L578.28,308.92L577.48,310.12L577.53,314.39L578.63,317.42L576.93,319.07L577.05,321.22L576.68,322.52L574.28,318.12L572.68,319.12L569.08,316.72L568.68,319.32L567.08,321.92L565.28,320.52L563.28,319.32L562.48,321.12L559.08,322.92L555.68,328.12L552.68,329.12L551.48,330.52L548.68,330.52L547.08,334.92L544.28,336.12L545.48,337.72L544.28,340.72L542.08,340.32L541.48,343.92L542.28,346.12L541.28,348.12L541.48,350.32L538.68,353.92L539.68,356.12L538.88,359.32L538.88,362.12L535.48,366.32L534.28,362.12L529.08,360.92L527.68,363.52L523.08,364.12L522.88,367.92L519.08,370.52L516.28,367.32L513.28,370.72L511.68,373.12L509.28,373.92L507.28,377.52L507.48,379.32L505.28,380.32L502.08,377.52L500.08,374.12L499.48,371.92L496.28,371.92L494.28,374.52L490.88,372.12L488.28,371.72L488.28,369.92L485.28,368.52L481.68,371.32L479.68,372.12L478.48,375.52L475.08,375.72L473.18,380.13L471.78,381.93L472.58,383.93L469.18,383.13L467.38,380.53L463.98,381.53L461.18,379.33L460.78,376.93L457.78,377.93L457.38,374.53L454.98,374.13L453.18,375.33L450.58,375.13L450.38,373.13L448.38,374.13L446.38,374.93L444.38,370.13L445.38,368.33L443.98,366.53L442.18,366.73L440.18,363.33L438.0,362.55L436.0,360.35L436.2,357.15L435.0,355.95L434.2,351.75L431.2,347.35L433.0,345.15L431.6,343.55L431.2,339.75L434.2,337.15L432.8,335.75L432.0,330.95L429.0,330.15L427.2,328.15L424.8,329.55L421.6,329.35L420.6,331.15L417.8,331.15L414.6,334.15L411.8,335.15L411.2,337.55L409.2,338.55L407.6,341.15L404.8,342.55L404.4,337.95L402.0,335.75L403.6,333.55L401.6,329.95L399.0,330.15L399.4,327.55L396.6,325.58L400.4,323.38L400.0,321.78L402.2,318.18L400.2,316.18L397.4,315.38L399.2,312.98L398.4,310.78L400.6,308.38L402.6,308.98L404.6,307.78L402.8,305.0L404.8,304.2L405.4,306.4L409.8,307.0L410.6,305.2L412.0,302.8L414.2,302.6L412.6,298.8L414.0,292.2L419.8,292.4L422.8,290.8L422.8,287.2L424.0,282.6L422.4,282.0L422.8,279.8L421.4,276.8L425.0,276.6L428.0,273.6L427.0,270.8L428.8,267.4L430.4,268.4L433.4,269.8L434.4,268.0L437.8,271.0L439.0,273.0L439.4,277.8L442.8,279.4L445.0,279.4L447.6,281.8L446.8,284.8L447.0,289.2L449.8,289.6L450.2,295.0L452.0,293.0L455.8,294.2L459.4,297.4L462.8,298.4L462.6,301.4L465.4,300.8L467.0,304.6L469.6,304.6L471.0,306.0L473.2,304.2L474.6,301.2L481.6,303.0L481.4,307.0L484.0,308.2L484.4,311.0L487.4,317.2L489.6,316.4L494.2,316.6L496.2,313.4L501.2,308.8L499.8,305.8L502.2,301.8L507.0,300.4L509.6,299.0L512.0,294.4L512.2,291.6L517.2,292.2L517.8,290.8L521.4,290.4L521.4,287.4L524.4,283.8L528.2,284.8L528.4,282.8L530.6,280.6L534.6,279.8L535.4,277.6L537.6,278.2L538.2,276.4L540.8,275.0L542.4,278.0L540.4,278.6L540.8,282.2L544.0,282.2L545.6,280.0L550.6,279.8L552.8,276.2L551.0,274.4L550.8,271.0L553.6,268.6L553.8,263.8L555.6,260.8L555.6,258.2L557.4,258.4L560.4,258.4L560.2,259.8L563.4,261.0L568.4,260.0L567.8,261.6L569.0,264.6L567.2,267.0L568.8,268.0L567.8,270.2L569.6,270.8L574.8,269.6L573.6,271.4L575.0,275.0L578.6,275.8L580.2,276.8L580.88,278.12L583.68,277.32L584.68,278.52L583.88,283.32L588.68,284.52L589.48,286.12L592.88,287.32L588.28,291.32L593.08,292.32L592.28,294.72L589.08,294.52L587.68,295.72L586.28,293.92L583.88,296.32L585.08,298.12L582.08,300.12L584.68,301.92L587.28,300.92L586.67,302.53Z" />
		<path id="L1611122301554" name="贵港市" class="qing-map-1616134819319" d="M511.58,446.27L512.18,444.07L508.38,439.47L509.18,437.87L506.38,435.27L501.98,435.67L502.38,432.87L503.78,431.67L502.58,429.87L498.78,429.87L497.78,428.67L496.58,425.53L499.18,423.33L494.18,421.53L492.18,420.93L492.18,419.33L489.18,419.33L488.78,417.13L486.18,413.13L482.98,410.73L485.38,407.73L486.38,405.33L484.58,402.73L480.18,400.93L477.38,401.33L475.98,396.33L477.38,390.93L476.78,387.93L475.38,386.73L475.18,382.73L473.18,380.13L475.08,375.72L478.48,375.52L479.68,372.12L481.68,371.32L485.28,368.52L488.28,369.92L488.28,371.72L490.88,372.12L494.28,374.52L496.28,371.92L499.48,371.92L500.08,374.12L502.08,377.52L505.28,380.32L507.48,379.32L507.28,377.52L509.28,373.92L511.68,373.12L513.28,370.72L516.28,367.32L519.08,370.52L522.88,367.92L523.08,364.12L527.68,363.52L529.08,360.92L534.28,362.12L535.48,366.32L538.88,362.12L538.88,359.32L539.68,356.12L538.68,353.92L541.48,350.32L541.28,348.12L542.28,346.12L541.48,343.92L542.08,340.32L544.28,340.72L545.48,337.72L544.28,336.12L547.08,334.92L548.68,330.52L551.48,330.52L552.68,329.12L555.68,328.12L559.08,322.92L562.48,321.12L563.28,319.32L565.28,320.52L567.08,321.92L568.68,319.32L569.08,316.72L572.68,319.12L574.28,318.12L576.68,322.52L577.05,321.22L576.93,319.07L578.63,317.42L577.53,314.39L577.48,310.12L578.28,308.92L578.88,304.92L581.48,303.72L584.28,303.32L586.67,302.53L587.67,305.33L587.47,310.73L584.22,314.98L584.07,318.63L585.97,319.9L588.07,319.93L588.47,321.73L591.47,321.13L592.67,323.33L595.47,322.53L595.07,325.13L597.27,327.93L598.87,328.13L602.27,325.53L604.27,327.49L605.27,330.09L603.47,331.29L602.67,333.09L601.67,338.09L603.87,337.89L603.47,340.69L601.27,341.89L601.27,343.89L604.47,344.89L605.47,347.49L604.47,349.69L607.07,350.29L607.47,353.09L608.27,357.69L608.47,360.29L609.27,361.89L608.07,364.69L605.67,364.49L605.27,367.89L603.87,370.49L605.07,374.29L605.47,377.89L608.47,377.49L612.67,379.69L612.67,383.69L611.47,385.49L605.47,390.29L604.07,387.89L601.47,391.69L602.87,395.69L601.87,398.69L597.27,401.87L597.87,403.27L595.47,405.27L593.47,404.67L591.07,406.04L589.27,407.84L587.87,405.64L585.67,406.84L581.67,406.84L580.07,408.64L579.47,410.64L577.67,409.44L577.07,410.84L578.07,413.44L576.67,415.84L574.47,418.04L574.47,420.84L573.67,423.64L574.27,425.44L570.87,425.24L569.67,422.44L566.07,422.04L563.47,422.24L560.27,423.44L559.47,421.04L557.27,418.24L557.07,415.24L555.27,417.44L550.67,416.24L549.67,413.84L545.67,410.44L540.87,409.64L538.27,409.24L537.27,411.44L534.27,412.24L533.07,414.04L530.07,414.84L532.27,416.44L533.87,419.64L533.27,422.84L531.47,424.24L530.87,426.44L529.47,428.24L527.27,426.84L525.27,428.84L526.47,432.64L525.67,435.44L528.07,436.84L528.27,438.44L526.07,439.64L523.67,439.64L520.72,443.64L518.67,444.44L516.87,446.84L513.47,448.04Z" />
		<path id="L1611123480366" name="梧州市" class="qing-map-1616134819319" d="M601.87,398.69L602.87,395.69L601.47,391.69L604.07,387.89L605.47,390.29L611.47,385.49L612.67,383.69L612.67,379.69L608.47,377.49L605.47,377.89L605.07,374.29L603.87,370.49L605.27,367.89L605.67,364.49L608.07,364.69L609.27,361.89L608.47,360.29L608.27,357.69L607.47,353.09L607.07,350.29L604.47,349.69L605.47,347.49L604.47,344.89L601.27,343.89L601.27,341.89L603.47,340.69L603.87,337.89L601.67,338.09L602.67,333.09L603.47,331.29L605.27,330.09L604.27,327.49L602.27,325.53L598.87,328.13L597.27,327.93L595.07,325.13L595.47,322.53L592.67,323.33L591.47,321.13L588.47,321.73L588.07,319.93L585.97,319.9L584.07,318.63L584.22,314.98L587.47,310.73L587.67,305.33L586.67,302.53L587.28,300.92L584.68,301.92L582.08,300.12L585.08,298.12L583.88,296.32L586.28,293.92L587.68,295.72L589.08,294.52L592.28,294.72L593.08,292.32L588.28,291.32L592.88,287.32L589.48,286.12L588.68,284.52L583.88,283.32L584.68,278.52L583.68,277.32L580.88,278.12L580.2,276.8L583.4,273.0L588.6,273.2L590.4,271.4L592.6,274.6L595.2,272.0L594.6,269.2L597.6,270.4L598.6,267.8L602.0,264.0L602.0,268.4L604.2,269.2L603.93,272.16L605.53,273.56L608.13,272.96L606.53,279.16L611.13,284.16L614.13,284.76L615.53,287.16L617.93,289.16L616.73,292.76L614.73,294.76L615.73,296.96L614.13,299.96L616.13,303.76L620.93,305.16L619.33,306.76L618.13,311.56L624.53,313.15L628.73,317.55L631.13,318.15L632.73,320.55L629.73,324.35L631.53,327.31L634.13,326.31L634.73,329.71L632.93,331.51L635.53,333.51L634.53,338.51L636.93,340.31L638.53,342.31L639.93,341.91L640.53,343.51L642.13,341.71L640.73,337.51L642.73,335.11L643.33,331.51L646.33,332.51L647.53,330.11L646.13,326.51L648.93,327.11L650.73,324.91L653.53,324.11L654.93,320.91L654.93,319.11L656.73,318.91L660.33,314.11L660.73,312.11L662.33,312.71L664.93,313.11L667.13,314.51L666.93,317.11L668.33,318.91L670.33,318.51L672.73,319.31L674.33,321.31L676.53,321.31L678.53,320.91L680.53,320.51L679.93,318.71L683.13,316.51L683.53,313.91L685.33,312.51L683.33,308.51L683.33,305.51L684.33,302.91L683.73,298.51L685.93,299.31L688.53,297.51L690.33,297.91L691.33,296.11L693.93,289.11L696.13,291.49L698.93,292.09L700.33,294.09L701.53,296.69L698.33,300.49L696.53,301.89L698.53,307.69L700.13,307.09L707.13,311.69L707.73,314.89L706.93,317.09L708.33,321.29L708.13,324.89L706.33,328.29L704.93,329.29L705.13,333.89L704.13,335.49L708.73,336.69L708.73,338.49L706.53,338.89L705.53,341.49L704.53,344.69L701.13,343.89L698.93,345.69L697.53,344.69L695.33,346.49L693.13,345.29L691.73,346.49L691.73,351.09L691.33,353.69L690.93,356.27L686.53,361.87L686.13,363.27L683.53,362.47L682.73,364.87L681.93,369.47L682.93,370.87L682.53,372.47L680.93,373.87L679.73,377.67L680.93,379.07L678.93,382.27L678.33,383.87L680.33,383.87L679.73,386.87L682.13,389.87L681.53,393.87L682.93,395.67L680.53,396.47L681.53,398.27L680.93,402.47L685.53,405.67L687.13,408.07L684.73,409.87L682.73,411.27L683.73,413.07L680.53,415.27L680.93,418.22L680.93,420.22L679.53,422.22L678.93,424.22L676.53,426.02L672.93,429.82L672.93,432.02L669.53,434.42L666.73,438.42L664.73,438.02L663.53,439.02L659.73,438.82L654.73,438.62L653.73,440.02L650.73,440.02L653.13,443.02L652.73,446.02L650.93,446.62L650.33,448.62L647.33,448.82L644.73,450.62L642.93,449.22L640.93,449.62L640.73,452.42L637.73,452.82L635.13,452.42L633.33,450.62L634.13,448.42L630.53,443.02L628.33,442.62L624.93,441.42L625.13,438.82L622.93,437.22L625.73,430.22L625.73,427.02L623.93,426.62L622.93,428.42L618.93,424.02L618.93,421.42L620.73,417.22L622.53,417.02L620.93,413.62L621.53,410.82L620.93,408.02L619.53,405.82L617.93,408.02L616.93,405.42L614.33,404.42L613.53,402.42L612.53,400.02L607.33,399.22L607.33,402.02L604.73,400.62L602.33,400.02Z" />
		<path id="L1611123846111" name="贺州市" class="qing-map-1616134819319" d="M708.13,324.89L708.33,321.29L706.93,317.09L707.73,314.89L707.13,311.69L700.13,307.09L698.53,307.69L696.53,301.89L698.33,300.49L701.53,296.69L700.33,294.09L698.93,292.09L696.13,291.49L693.93,289.11L691.33,296.11L690.33,297.91L688.53,297.51L685.93,299.31L683.73,298.51L684.33,302.91L683.33,305.51L683.33,308.51L685.33,312.51L683.53,313.91L683.13,316.51L679.93,318.71L680.53,320.51L678.53,320.91L676.53,321.31L674.33,321.31L672.73,319.31L670.33,318.51L668.33,318.91L666.93,317.11L667.13,314.51L664.93,313.11L662.33,312.71L660.73,312.11L660.33,314.11L656.73,318.91L654.93,319.11L654.93,320.91L653.53,324.11L650.73,324.91L648.93,327.11L646.13,326.51L647.53,330.11L646.33,332.51L643.33,331.51L642.73,335.11L640.73,337.51L642.13,341.71L640.53,343.51L639.93,341.91L638.53,342.31L636.93,340.31L634.53,338.51L635.53,333.51L632.93,331.51L634.73,329.71L634.13,326.31L631.53,327.31L629.73,324.35L632.73,320.55L631.13,318.15L628.73,317.55L624.53,313.15L618.13,311.56L619.33,306.76L620.93,305.16L616.13,303.76L614.13,299.96L615.73,296.96L614.73,294.76L616.73,292.76L617.93,289.16L615.53,287.16L614.13,284.76L611.13,284.16L606.53,279.16L608.13,272.96L605.53,273.56L603.93,272.16L604.2,269.2L606.0,265.0L610.2,266.2L610.8,268.6L613.6,270.0L616.4,271.0L619.6,273.0L622.0,272.2L623.8,274.0L625.6,272.6L624.6,269.6L629.6,265.4L631.4,266.8L631.6,273.2L633.8,274.2L634.0,279.4L636.4,275.8L637.6,274.8L640.0,272.0L641.2,275.2L643.4,275.8L645.8,274.2L647.2,272.4L647.0,270.2L642.8,268.6L645.0,266.6L645.2,263.8L647.6,262.6L646.8,260.4L649.4,258.8L648.0,256.0L649.8,255.2L647.0,251.4L647.0,249.0L644.8,248.0L643.6,245.4L646.0,243.6L644.4,241.4L646.8,239.4L648.6,235.4L651.2,235.6L655.4,232.0L655.2,230.0L658.4,229.6L660.2,225.6L662.0,225.4L662.0,222.0L660.8,219.4L661.4,216.8L662.0,213.4L660.4,211.2L657.0,212.6L654.6,207.8L654.73,205.84L654.73,204.24L655.73,203.64L654.93,202.64L655.73,200.44L654.93,198.04L657.93,197.24L661.33,195.24L664.53,194.24L664.93,192.04L666.53,190.84L666.93,189.04L669.73,187.44L671.33,185.24L672.53,186.64L673.33,188.44L676.13,190.24L678.93,190.64L682.93,188.04L683.93,190.04L685.53,191.24L685.13,196.64L687.53,197.64L689.53,197.64L690.73,199.24L689.53,201.64L687.93,201.84L686.33,204.64L689.73,207.24L690.53,209.84L688.93,210.64L688.33,212.24L690.13,213.04L688.93,214.04L688.73,218.04L690.93,219.64L691.33,222.04L690.53,225.64L690.73,227.04L689.33,227.84L689.53,229.84L686.93,234.24L688.93,236.24L691.73,236.04L694.73,238.04L695.73,239.64L697.93,239.04L699.93,239.44L701.73,233.64L706.53,234.64L707.33,233.24L706.73,231.44L708.33,229.24L710.53,225.04L712.93,223.84L715.53,225.04L718.33,224.84L720.13,223.64L722.33,225.24L724.73,224.84L726.93,225.44L728.53,224.84L729.53,227.04L730.93,225.84L733.53,226.24L735.33,226.84L736.53,225.44L738.93,226.24L740.93,226.64L743.13,229.24L741.93,230.44L740.13,230.24L737.53,230.64L736.73,233.84L734.93,235.04L736.73,238.44L734.93,239.64L734.93,242.04L735.33,244.04L738.53,246.64L739.33,248.24L741.53,249.24L741.93,254.64L739.93,255.98L739.93,258.38L742.53,259.98L744.93,263.78L746.53,266.18L746.53,271.38L744.13,274.78L740.33,277.98L740.33,279.58L738.53,279.78L737.53,279.38L735.73,281.38L733.93,282.38L732.73,283.38L729.53,282.98L728.73,288.78L730.33,290.38L729.73,293.18L729.33,295.58L730.53,297.58L730.93,299.58L731.93,302.18L733.53,302.78L733.93,306.78L735.53,308.78L733.73,311.58L728.93,313.35L727.13,312.35L726.73,316.35L724.13,315.95L723.33,319.15L723.93,320.95L723.93,322.95L724.33,325.15L720.93,327.15L717.73,326.55L714.73,325.55L713.33,323.75L711.73,324.75L711.73,325.95Z" />
		<path id="L1611124335946" name="防城港市" class="qing-map-1616134819319" d="M388.36,552.95L387.26,551.45L388.46,549.85L389.46,549.15L388.86,547.95L390.46,549.05L392.36,549.35L391.06,550.95L391.16,551.85L390.36,553.35L389.76,555.55L388.56,556.35L388.96,558.65L390.96,556.75L392.66,553.65L393.56,553.35L394.16,551.65L393.26,550.55L394.46,550.75L395.36,551.65L396.66,550.75L397.66,548.75L398.56,549.05L398.26,550.35L397.76,550.95L398.26,551.95L400.56,550.85L401.06,552.25L399.36,552.95L398.36,553.95L397.36,555.85L398.56,558.05L394.96,558.85L395.36,560.45L394.66,562.35L400.46,562.95L401.36,560.85L402.46,561.25L402.96,560.75L402.46,559.15L404.46,556.45L402.96,559.05L404.16,559.75L407.06,558.35L408.46,556.15L408.46,554.55L410.36,553.16L410.56,550.76L411.86,549.36L410.96,547.16L408.66,548.96L410.06,545.36L408.66,544.96L406.96,546.76L405.75,544.85L404.95,541.65L406.75,538.65L404.75,535.05L402.15,533.45L400.75,529.65L401.75,528.05L398.75,524.25L395.95,525.05L394.35,523.45L392.55,524.45L388.75,524.45L386.55,524.85L384.95,526.45L382.15,524.45L380.35,522.65L380.15,519.25L377.95,519.65L375.15,516.65L376.55,514.45L376.15,512.05L378.35,510.45L376.35,509.65L375.55,506.85L377.35,505.25L375.75,504.45L374.75,502.05L375.15,499.45L376.95,497.45L380.55,496.05L383.38,494.44L383.58,492.44L380.18,490.84L378.98,488.24L379.38,486.44L376.78,485.64L374.58,487.64L371.98,486.04L369.38,483.84L369.38,481.24L366.0,477.4L363.2,478.8L359.8,481.0L357.6,481.2L355.0,482.8L355.4,485.2L352.0,487.4L352.0,490.6L350.2,489.4L348.8,493.8L347.4,495.2L345.8,493.2L344.2,494.4L340.4,494.6L339.6,493.2L336.8,495.0L331.2,495.2L331.2,496.8L325.0,497.2L321.2,496.4L322.4,502.6L325.4,504.0L323.6,506.0L325.2,508.2L322.2,511.2L319.6,515.2L316.2,518.8L316.0,522.2L313.8,524.8L312.6,527.2L315.4,531.2L314.2,533.0L313.6,537.0L315.8,538.0L313.0,540.6L314.2,544.8L308.8,549.4L309.2,551.2L306.8,552.2L307.95,555.65L308.95,558.05L311.35,559.05L312.75,558.65L314.55,556.85L316.15,556.05L317.55,557.65L319.95,556.85L324.95,558.05L329.15,556.05L332.55,553.65L334.75,554.05L335.55,552.25L339.15,552.05L341.15,553.45L343.15,552.45L345.35,554.65L346.75,559.05L350.75,560.45L352.75,564.25L355.35,564.05L359.15,563.05L361.75,563.25L362.95,565.05L364.75,564.25L365.55,562.65L367.15,564.85L369.55,564.85L370.15,565.65L374.55,564.85L372.35,562.85L370.55,562.05L370.55,559.65L373.75,560.05L373.35,557.65L377.35,557.45L377.55,555.65L378.95,556.25L380.75,556.25L380.95,558.65L382.75,559.25L381.15,561.45L378.35,566.85L379.35,567.25L382.15,564.85L385.15,564.05L384.95,562.25L387.95,559.45L386.75,558.05L388.25,554.75Z" />
		<path id="L1611125182805" name="钦州市" class="qing-map-1616134819319" d="M405.79,532.37L404.79,530.87L406.09,530.87L406.29,529.97L407.79,529.67L409.59,527.67L411.19,529.17L413.09,529.27L412.59,530.07L414.19,531.87L412.99,533.17L414.19,533.77L415.59,532.47L416.29,533.57L411.39,538.57L410.79,540.17L411.99,541.57L412.29,543.77L414.39,543.47L412.79,544.57L416.29,548.27L416.39,546.97L418.99,544.67L421.09,547.47L424.29,548.66L425.89,546.26L425.19,549.56L426.89,551.66L425.29,552.16L425.19,553.86L428.19,554.96L427.49,556.86L428.99,558.26L431.39,556.76L433.19,555.56L434.99,555.86L435.89,555.66L438.39,557.16L440.79,556.46L440.89,554.26L439.09,553.06L438.89,550.66L437.99,548.76L439.29,547.16L439.09,545.66L440.29,544.86L440.45,542.82L442.45,543.62L445.45,542.42L448.05,539.82L450.05,536.82L448.85,535.82L449.25,533.82L451.45,534.02L452.65,533.22L455.65,533.02L456.25,532.22L459.25,532.82L463.05,529.02L465.65,531.22L468.25,531.02L471.45,532.02L473.05,530.42L473.85,531.62L478.25,530.02L477.65,527.42L479.65,527.22L479.45,524.82L484.05,526.42L485.25,525.02L487.25,526.42L490.45,526.42L490.65,525.42L492.85,526.02L495.25,524.42L496.05,526.62L497.65,527.82L499.45,526.42L500.05,527.82L503.05,529.02L504.65,526.22L506.85,526.82L509.45,526.42L510.45,525.04L510.45,521.84L508.25,519.24L510.25,518.64L509.45,513.84L507.85,510.67L508.45,509.27L507.45,508.27L505.25,505.67L506.25,503.67L505.85,500.47L506.65,497.07L508.65,495.67L508.45,491.87L509.65,490.27L508.85,489.07L509.65,484.67L514.45,483.27L516.45,483.87L517.65,480.67L518.85,480.87L520.85,479.07L522.65,478.67L523.85,477.07L525.05,479.67L527.85,481.87L530.25,483.87L533.85,483.07L535.05,481.07L534.45,478.67L535.85,476.47L534.65,473.67L530.45,471.47L532.25,468.07L535.65,464.07L535.25,459.87L534.25,457.27L527.45,455.07L526.05,457.47L523.65,458.27L521.85,455.87L517.05,453.87L516.45,451.07L516.87,446.84L513.47,448.04L511.58,446.27L509.18,445.07L507.58,447.67L502.98,449.87L500.38,448.07L498.38,450.27L495.18,451.87L492.18,449.87L488.98,449.27L487.98,450.67L480.58,457.47L482.18,460.47L483.98,462.07L481.38,463.27L479.18,465.07L476.58,462.67L471.18,461.87L472.18,459.47L468.18,459.47L468.58,462.07L462.58,462.67L460.38,461.87L457.58,461.87L456.38,463.27L454.18,462.27L451.58,459.27L449.58,462.07L447.58,460.87L444.38,462.87L440.98,463.27L437.58,459.47L435.38,461.27L431.98,461.67L430.58,463.67L428.58,463.67L427.38,465.67L424.98,465.47L425.58,469.07L422.38,468.27L421.18,471.47L417.78,468.07L415.98,470.44L414.78,473.44L413.38,471.24L411.18,472.24L409.58,474.44L411.58,478.04L409.58,478.24L408.38,481.44L410.18,482.44L408.18,487.24L405.78,487.24L404.38,490.64L401.78,491.84L398.78,490.04L397.18,488.24L392.78,490.64L390.18,490.24L386.98,491.24L385.78,494.24L383.38,494.44L380.55,496.05L376.95,497.45L375.15,499.45L374.75,502.05L375.75,504.45L377.35,505.25L375.55,506.85L376.35,509.65L378.35,510.45L376.15,512.05L376.55,514.45L375.15,516.65L377.95,519.65L380.15,519.25L380.35,522.65L382.15,524.45L384.95,526.45L386.55,524.85L388.75,524.45L392.55,524.45L394.35,523.45L395.95,525.05L398.75,524.25L401.75,528.05L400.75,529.65L402.15,533.45L403.59,534.47L404.75,535.05ZM404.95,541.65L407.19,541.17L407.99,542.47L409.79,542.57L408.99,543.77L407.19,544.97L405.75,544.85Z" />
		<path id="L1611125800103" name="北海市" class="qing-map-1616134819319" d="M440.45,542.82L442.45,543.62L445.45,542.42L448.05,539.82L450.05,536.82L448.85,535.82L449.25,533.82L451.45,534.02L452.65,533.22L455.65,533.02L456.25,532.22L459.25,532.82L463.05,529.02L465.65,531.22L468.25,531.02L471.45,532.02L473.05,530.42L473.85,531.62L478.25,530.02L477.65,527.42L479.65,527.22L479.45,524.82L484.05,526.42L485.25,525.02L487.25,526.42L490.45,526.42L490.65,525.42L492.85,526.02L495.25,524.42L496.05,526.62L497.65,527.82L499.45,526.42L500.05,527.82L503.05,529.02L504.65,526.22L506.85,526.82L509.45,526.42L510.45,525.04L511.93,526.18L514.73,525.58L516.73,526.98L519.53,525.78L520.73,528.18L519.73,530.18L520.73,531.98L520.13,536.58L519.33,538.98L519.33,541.78L519.53,544.98L519.93,546.58L518.93,548.58L520.73,551.38L522.73,550.38L524.73,551.38L526.73,550.78L525.53,553.78L524.53,555.58L524.13,558.58L524.73,560.38L525.93,564.78L526.53,567.78L525.73,569.18L525.93,571.98L522.33,570.78L518.53,568.38L516.13,565.98L517.33,564.78L518.33,560.78L517.13,558.38L518.64,556.57L514.84,558.87L514.34,561.97L512.04,560.27L513.14,558.47L511.64,557.67L511.54,554.07L509.64,555.47L509.14,552.97L508.34,551.97L509.14,551.07L506.44,547.97L508.14,545.27L509.64,545.37L511.14,543.07L510.24,542.57L507.94,543.97L506.34,543.87L502.14,547.57L504.84,551.97L502.44,552.47L504.34,553.27L506.74,556.17L507.94,557.07L508.14,558.57L509.74,559.97L508.74,560.67L508.94,561.97L507.74,562.57L507.34,565.07L504.54,568.57L498.74,571.57L493.94,573.17L490.64,572.57L485.84,573.57L484.94,571.17L483.64,573.37L481.74,574.67L477.74,575.67L476.04,572.97L475.24,573.67L475.24,576.27L472.24,576.47L469.74,577.37L468.54,577.67L468.34,578.57L457.84,573.37L458.34,572.27L460.54,570.57L464.24,569.87L467.84,567.57L469.54,564.57L468.14,562.17L467.64,559.87L466.74,560.57L465.04,559.07L464.51,560.07L460.71,558.57L459.81,558.47L457.71,557.67L459.51,555.47L455.91,556.07L453.81,557.67L451.11,557.97L449.71,558.77L444.61,556.57L444.11,554.07L442.81,553.07L443.61,551.57L441.01,551.47L439.61,549.57L439.81,547.87L441.01,546.97ZM461.51,614.95L462.61,617.75L463.81,616.85L463.91,617.65L465.61,617.65L466.51,614.85L465.51,612.95L463.71,613.25Z" />
		<path id="L1611126110705" name="玉林市" class="qing-map-1616134819319" d="M635.13,452.42L633.33,450.62L634.13,448.42L630.53,443.02L628.33,442.62L624.93,441.42L625.13,438.82L622.93,437.22L625.73,430.22L625.73,427.02L623.93,426.62L622.93,428.42L618.93,424.02L618.93,421.42L620.73,417.22L622.53,417.02L620.93,413.62L621.53,410.82L620.93,408.02L619.53,405.82L617.93,408.02L616.93,405.42L614.33,404.42L613.53,402.42L612.53,400.02L607.33,399.22L607.33,402.02L604.73,400.62L602.33,400.02L601.87,398.69L597.27,401.87L597.87,403.27L595.47,405.27L593.47,404.67L591.07,406.04L589.27,407.84L587.87,405.64L585.67,406.84L581.67,406.84L580.07,408.64L579.47,410.64L577.67,409.44L577.07,410.84L578.07,413.44L576.67,415.84L574.47,418.04L574.47,420.84L573.67,423.64L574.27,425.44L570.87,425.24L569.67,422.44L566.07,422.04L563.47,422.24L560.27,423.44L559.47,421.04L557.27,418.24L557.07,415.24L555.27,417.44L550.67,416.24L549.67,413.84L545.67,410.44L540.87,409.64L538.27,409.24L537.27,411.44L534.27,412.24L533.07,414.04L530.07,414.84L532.27,416.44L533.87,419.64L533.27,422.84L531.47,424.24L530.87,426.44L529.47,428.24L527.27,426.84L525.27,428.84L526.47,432.64L525.67,435.44L528.07,436.84L528.27,438.44L526.07,439.64L523.67,439.64L520.72,443.64L518.67,444.44L516.87,446.84L516.45,451.07L517.05,453.87L521.85,455.87L523.65,458.27L526.05,457.47L527.45,455.07L534.25,457.27L535.25,459.87L535.65,464.07L532.25,468.07L530.45,471.47L534.65,473.67L535.85,476.47L534.45,478.67L535.05,481.07L533.85,483.07L530.25,483.87L527.85,481.87L525.05,479.67L523.85,477.07L522.65,478.67L520.85,479.07L518.85,480.87L517.65,480.67L516.45,483.87L514.45,483.27L509.65,484.67L508.85,489.07L509.65,490.27L508.45,491.87L508.65,495.67L506.65,497.07L505.85,500.47L506.25,503.67L505.25,505.67L507.45,508.27L508.45,509.27L507.85,510.67L509.45,513.84L510.25,518.64L508.25,519.24L510.45,521.84L510.45,525.04L511.93,526.18L514.73,525.58L516.73,526.98L519.53,525.78L520.73,528.18L519.73,530.18L520.73,531.98L520.13,536.58L519.33,538.98L519.33,541.78L519.53,544.98L519.93,546.58L518.93,548.58L520.73,551.38L522.73,550.38L524.73,551.38L526.73,550.78L528.12,553.84L529.52,554.44L533.32,554.04L535.12,552.44L538.92,552.84L540.72,550.04L539.72,548.44L541.32,546.84L541.52,544.64L543.32,544.04L542.52,542.04L542.92,535.64L544.12,534.44L543.92,532.04L547.72,529.04L553.92,531.04L557.12,530.04L559.52,528.24L560.52,526.64L561.92,528.04L564.12,526.84L568.52,527.24L570.72,529.04L574.32,528.24L576.32,527.44L577.12,525.24L579.92,527.44L586.12,527.64L586.72,525.24L585.12,523.24L586.32,521.24L583.52,518.44L582.92,515.64L582.92,513.84L582.12,511.64L583.72,507.64L582.52,506.84L583.92,505.64L583.72,502.64L582.12,502.24L580.32,500.04L582.92,496.24L585.32,499.04L586.52,498.24L587.52,496.84L589.32,494.44L592.52,496.04L592.92,497.64L595.72,500.44L596.52,502.04L599.72,500.44L600.12,498.84L601.32,497.64L601.92,496.24L606.92,497.64L606.32,499.44L608.52,500.04L610.72,500.24L612.12,498.64L613.92,498.04L613.12,494.84L611.72,494.64L611.72,491.84L613.72,491.04L615.12,490.04L615.12,488.64L617.52,487.24L618.32,485.44L619.92,487.04L621.92,487.84L624.52,487.04L624.52,485.84L622.92,485.04L622.32,482.64L620.92,481.24L620.92,479.44L619.32,478.24L617.92,478.44L617.52,476.44L617.12,473.84L616.92,470.04L614.72,466.84L618.12,468.04L620.32,467.84L621.12,466.44L619.72,465.44L621.12,462.24L622.32,462.24L621.32,460.24L621.32,458.64L622.72,457.04L622.12,455.44L623.72,455.04L625.72,458.44L627.52,456.04L630.12,455.64L631.72,454.84L633.92,455.64L635.72,454.44Z" />
	</g>
</svg>
