<svg xmlns="http://www.w3.org/2000/svg" viewBox="0,0,800,620" width="100%" height="100%">
	<defs>
		<style type="text/css">
.qing-map-1616122494095
{
	fill: #DDDDDD;
	fill-opacity: 1.0;
	stroke: #FFFFFF;
	stroke-opacity: 1.0;
	stroke-width: 1;
}

.qing-map-1616122494095:hover
{
	fill: #56A4FF;
	fill-opacity: 1.0;
}
</style>
	</defs>
	<g>
		<path id="L1611110064322" name="呼伦贝尔市" class="qing-map-1616122494095" d="M675.8,252.2L677.6,250.4L679.0,245.8L684.0,242.4L687.0,239.8L691.4,237.4L694.2,236.0L697.0,232.6L697.6,229.8L703.6,227.4L721.6,208.2L723.0,209.4L723.2,211.2L723.4,212.6L723.4,214.2L725.4,217.4L726.4,219.0L726.6,221.0L727.4,221.4L727.6,222.2L727.0,223.8L728.8,222.0L728.8,221.0L730.2,218.6L729.6,217.6L730.0,216.0L729.0,215.0L728.6,213.6L728.6,211.8L729.2,210.4L729.6,207.6L728.8,206.4L730.6,204.8L731.4,201.4L731.2,199.2L732.0,198.4L731.8,196.4L733.4,195.4L733.2,192.8L734.6,192.4L735.0,189.8L736.4,187.2L735.8,185.2L737.0,184.6L737.6,183.0L739.6,183.4L741.4,182.8L743.4,184.6L745.4,182.6L746.2,181.0L746.4,178.2L747.8,176.6L748.0,175.0L747.4,173.0L747.2,170.4L747.0,168.6L746.8,166.0L745.6,165.8L744.6,164.8L744.4,163.4L746.0,164.0L746.0,161.0L746.2,158.2L745.4,156.8L747.0,156.6L746.8,155.2L745.4,152.2L746.8,151.2L748.0,150.4L747.6,148.4L748.8,148.8L747.8,147.6L747.8,146.0L750.0,144.8L750.8,143.2L752.0,142.0L752.2,140.4L752.8,138.6L753.6,138.0L754.4,136.6L754.2,133.6L755.0,134.2L755.6,132.2L756.4,132.6L759.0,129.4L759.8,129.4L761.6,128.0L760.8,123.2L761.6,122.4L760.4,120.6L761.6,120.2L762.8,119.0L764.2,117.0L764.6,115.0L765.6,115.6L766.8,114.0L767.4,112.0L766.8,111.0L767.2,109.4L766.6,107.6L766.2,105.2L765.2,105.8L763.2,104.6L762.6,102.6L762.4,101.0L759.6,101.0L759.8,99.0L750.2,85.8L748.8,85.8L748.0,84.8L746.2,85.0L744.6,84.8L744.0,83.4L742.6,87.0L742.4,88.4L741.6,89.0L740.8,89.4L739.6,90.0L738.6,91.0L739.2,91.8L738.6,93.2L737.8,94.2L737.2,95.4L736.0,95.0L735.0,94.4L734.6,95.8L731.6,97.0L729.6,95.4L727.8,95.0L727.2,96.2L726.6,98.4L725.0,99.0L723.2,98.6L721.8,97.6L721.0,96.6L720.0,96.4L719.0,96.4L717.4,97.6L713.4,98.0L711.2,96.2L710.2,96.0L708.2,95.0L707.4,97.6L705.6,97.6L704.4,98.8L703.2,99.0L701.4,98.8L699.8,99.4L698.0,99.2L697.4,100.2L694.6,98.6L691.8,97.4L690.4,97.6L689.4,96.4L689.6,94.6L688.6,94.0L687.6,93.0L686.4,91.4L687.4,90.6L686.6,88.8L687.6,88.2L685.8,86.6L687.0,85.6L683.8,80.2L683.0,74.2L683.2,70.6L682.2,70.4L681.0,66.0L681.2,64.4L683.8,62.8L684.0,60.4L685.0,59.2L683.0,59.2L681.8,58.0L680.0,58.2L677.0,57.0L677.2,55.2L676.2,53.2L674.2,53.2L672.8,51.0L672.6,49.8L671.0,50.4L669.2,48.8L667.4,51.8L665.8,52.4L665.6,53.4L664.6,55.2L662.2,57.8L658.2,56.4L656.8,53.8L656.4,51.4L654.8,51.2L654.2,50.2L653.0,50.2L649.6,48.4L648.0,46.6L646.8,45.4L645.6,45.4L644.4,45.0L647.6,42.0L651.6,37.8L655.2,34.2L654.8,32.4L656.8,31.6L657.4,28.6L660.0,25.2L659.0,24.2L658.8,21.4L657.8,21.0L656.2,19.6L656.6,17.4L655.2,17.0L652.2,14.6L648.6,14.4L646.4,15.6L642.6,16.0L642.2,15.0L640.8,15.6L635.2,16.0L635.6,17.2L631.8,20.2L632.2,22.0L631.0,22.4L627.6,25.4L623.0,31.6L618.4,35.8L615.0,37.6L615.6,40.6L615.2,44.6L618.2,45.6L620.8,44.2L624.0,44.2L625.6,43.0L632.0,47.2L631.8,48.8L632.0,52.0L630.6,54.6L630.4,57.0L633.2,59.6L633.2,61.0L634.2,63.8L631.8,68.0L632.2,70.6L629.8,73.2L618.0,83.2L615.4,84.8L614.0,90.6L614.0,92.6L613.0,94.2L611.4,94.8L612.0,96.0L612.0,97.8L609.8,99.0L609.4,100.0L609.4,101.6L609.6,102.4L608.6,102.2L608.4,103.6L608.6,104.6L608.8,106.0L606.6,108.8L604.4,111.2L602.8,113.4L602.0,114.8L601.2,115.2L602.4,118.0L601.0,121.6L596.2,126.4L595.6,130.4L595.8,131.6L593.6,134.0L592.0,134.4L592.6,136.4L595.0,136.8L595.8,136.4L597.8,136.4L597.4,139.0L597.4,142.8L596.4,146.2L593.4,149.0L589.0,151.6L583.6,152.6L580.0,152.8L576.2,156.0L574.2,158.0L569.2,161.8L564.6,165.4L563.0,165.6L560.4,166.2L559.6,168.2L558.0,169.6L552.0,167.0L550.2,164.8L545.2,164.8L540.0,163.0L531.2,156.8L513.8,194.6L514.6,197.2L507.8,208.2L508.4,217.8L501.6,222.0L502.0,231.0L511.6,240.4L515.4,235.6L518.8,233.0L524.2,234.0L531.0,232.4L535.0,232.2L540.2,234.6L547.8,241.0L551.4,236.6L559.4,227.0L563.2,227.8L568.4,226.6L571.0,227.8L574.6,227.8L577.4,228.2L583.0,236.8L591.6,240.4L592.8,245.4L597.4,247.4L597.4,249.8L600.8,253.0L603.8,252.2L605.0,250.4L609.4,248.6L612.0,243.6L615.0,244.4L621.0,241.2L624.4,244.4L628.8,245.2L629.0,246.8L632.4,250.8L629.8,254.4L630.4,256.0L632.8,257.0L634.4,259.4L636.0,259.6L638.0,261.8L641.0,260.0L644.8,261.0L648.2,260.4L650.4,258.6L653.4,258.2L656.0,259.0L658.8,254.8L666.4,258.8L669.6,257.4Z" />
		<path id="L1611111236163" name="兴安盟" class="qing-map-1616122494095" d="M675.8,252.2L669.6,257.4L666.4,258.8L658.8,254.8L656.0,259.0L653.4,258.2L650.4,258.6L648.2,260.4L644.8,261.0L641.0,260.0L638.0,261.8L636.0,259.6L634.4,259.4L632.8,257.0L630.4,256.0L629.8,254.4L632.4,250.8L629.0,246.8L628.8,245.2L624.4,244.4L621.0,241.2L615.0,244.4L612.0,243.6L609.4,248.6L605.0,250.4L603.8,252.2L600.8,253.0L602.8,254.6L603.0,256.0L604.8,256.4L607.6,259.2L609.0,262.6L609.4,264.8L610.6,267.0L610.2,268.2L612.6,268.8L612.8,273.8L611.8,275.2L612.2,277.8L612.6,280.2L611.8,283.4L612.8,284.2L611.4,286.6L613.2,287.2L609.8,288.4L610.6,290.0L610.0,294.0L611.6,295.2L610.6,296.2L611.4,297.8L610.0,302.4L609.8,309.0L607.2,311.8L606.4,314.2L603.6,314.6L608.4,318.4L611.8,318.6L612.2,320.8L614.2,321.2L615.0,320.0L614.0,317.6L618.4,317.0L622.0,318.0L624.0,320.8L625.0,321.6L627.2,322.2L628.2,324.0L628.2,326.0L632.6,328.8L634.8,329.6L635.4,330.8L639.2,332.0L638.2,334.4L639.2,334.4L639.2,336.4L641.8,339.2L647.6,343.0L650.2,344.6L649.6,346.0L652.6,348.4L653.2,350.4L655.0,350.4L654.6,353.0L659.0,358.4L660.8,359.4L662.6,361.6L667.0,365.2L668.8,365.8L671.2,365.0L672.0,363.0L672.4,359.6L672.4,357.2L670.2,357.0L671.0,355.6L668.6,353.2L667.6,351.4L667.8,349.8L668.8,348.6L668.4,347.4L669.0,346.6L667.4,346.2L666.6,344.0L665.6,341.8L666.8,341.4L666.8,339.2L667.4,337.6L667.8,335.0L667.6,333.6L668.8,332.2L670.6,330.8L671.4,328.4L668.6,327.8L668.4,325.4L669.0,323.8L665.4,320.8L664.8,318.6L664.0,317.4L664.6,316.2L663.6,313.6L661.0,312.8L659.2,313.8L655.8,311.4L658.4,309.4L659.8,306.8L659.6,304.2L658.6,302.4L660.6,301.6L662.2,302.4L664.6,303.6L666.2,305.0L667.0,306.8L669.2,307.6L670.8,309.2L672.6,307.8L673.8,307.4L674.0,305.4L676.0,305.6L677.4,307.8L677.6,310.0L681.0,311.8L682.0,313.2L683.8,312.6L684.6,311.6L684.0,309.4L685.4,307.0L685.4,300.6L691.0,298.6L693.0,297.8L692.8,296.2L693.4,294.6L694.2,293.2L690.8,285.8L690.2,282.0L691.2,281.2L691.4,279.8L692.4,280.6L694.2,280.0L695.0,280.6L696.6,280.4L697.2,278.6L704.8,277.2L706.0,275.4L706.2,272.4L704.8,272.0L705.8,270.6L705.2,269.4L704.6,270.6L703.6,271.6L702.2,271.0L703.6,267.2L701.4,268.0L700.0,271.4L698.4,272.0L697.8,270.6L696.4,270.8L695.8,272.2L695.0,273.0L694.8,274.4L690.6,275.6L690.0,274.0L688.0,272.6L687.4,269.6L687.6,267.0L685.2,267.8L684.4,265.6L686.6,263.4L682.4,262.2L679.0,258.6Z" />
		<path id="L1611111660082" name="锡林郭勒盟" class="qing-map-1616122494095" d="M612.2,277.8L612.6,280.2L611.8,283.4L612.8,284.2L611.4,286.6L613.2,287.2L609.8,288.4L610.6,290.0L610.0,294.0L611.6,295.2L610.6,296.2L611.4,297.8L610.0,302.4L609.8,309.0L607.2,311.8L606.4,314.2L603.6,314.6L602.4,316.2L601.8,318.8L596.4,321.2L597.0,324.6L594.6,328.0L596.4,330.0L596.4,331.6L598.0,333.0L598.0,335.4L596.6,335.4L594.6,333.4L593.4,335.2L594.2,338.0L593.2,338.4L594.8,341.4L591.0,341.0L591.4,343.2L593.8,347.0L592.2,348.2L589.8,348.8L586.8,348.4L588.6,351.6L588.8,354.6L583.0,357.8L580.2,358.4L579.4,357.6L578.4,359.8L575.6,359.8L575.6,361.4L573.4,363.2L570.4,363.0L570.2,365.2L568.6,365.4L567.2,367.0L566.6,368.8L564.8,370.6L561.0,369.2L557.6,373.4L555.0,373.0L555.6,371.0L554.2,370.2L554.4,368.6L552.8,368.0L551.8,366.4L544.4,366.2L542.2,367.2L537.6,372.2L537.6,374.2L539.2,375.6L538.4,377.6L537.4,380.4L539.4,382.6L537.6,385.8L535.2,386.2L533.8,388.0L533.4,391.8L530.8,391.2L528.6,391.4L528.2,394.6L523.6,397.6L523.6,400.0L522.2,401.8L522.8,405.8L525.2,407.0L525.4,409.0L529.6,411.4L529.8,414.4L530.0,417.4L527.8,422.6L528.8,423.0L529.6,424.6L531.6,423.8L533.0,424.0L535.2,425.0L535.4,427.6L536.0,429.0L535.4,432.2L536.6,436.2L532.4,437.2L535.0,440.2L535.2,443.2L533.0,444.8L532.2,443.6L531.0,445.0L528.6,446.0L526.0,445.6L525.8,444.2L523.2,445.4L523.4,444.2L521.4,443.6L519.4,444.8L518.4,446.6L517.6,448.8L515.8,448.6L515.8,449.8L515.6,451.4L514.2,451.4L512.8,450.8L512.8,449.8L510.8,446.0L507.4,447.4L506.2,447.0L506.4,448.0L501.2,451.6L496.0,453.4L496.6,455.4L497.0,457.2L495.6,457.6L494.4,456.8L494.2,457.8L492.8,458.4L492.8,457.4L491.0,457.2L489.2,457.4L488.2,456.8L485.8,456.4L484.6,451.4L486.0,449.8L485.2,447.8L485.4,446.2L484.4,441.6L483.6,439.8L483.0,438.6L481.8,436.6L479.6,436.8L479.8,433.8L478.4,434.6L476.6,433.4L475.2,435.8L472.8,436.8L474.2,438.0L474.6,439.8L472.2,440.6L471.8,438.4L469.6,437.2L467.8,439.2L465.0,439.2L464.8,441.0L463.6,442.2L464.0,443.8L463.8,445.2L462.4,443.8L461.2,445.2L459.8,444.0L459.8,442.4L457.2,441.0L455.6,440.8L454.6,439.2L452.2,440.2L447.0,439.0L441.0,443.6L440.8,445.8L438.4,445.6L435.8,444.0L433.6,440.0L429.8,439.2L429.0,435.0L427.8,434.4L427.8,432.0L421.4,430.8L417.6,426.6L415.8,426.2L415.0,424.6L412.6,424.0L408.0,416.0L405.0,410.2L402.0,407.6L398.6,402.8L395.8,403.0L391.2,399.6L389.6,396.2L394.2,394.6L397.4,392.2L400.4,392.2L406.0,386.0L409.8,385.2L410.4,381.2L408.2,376.6L405.8,373.8L401.4,370.0L399.4,364.6L397.2,361.4L400.4,354.4L400.4,351.0L404.2,341.4L409.2,336.6L412.2,335.4L414.4,336.2L422.0,336.2L425.6,339.6L430.6,343.6L436.2,345.2L445.8,346.4L452.0,348.0L457.8,344.0L459.4,343.2L460.4,342.0L463.4,341.4L465.6,339.8L466.4,337.8L471.8,334.0L475.2,329.0L476.4,324.8L481.0,323.6L487.6,325.2L492.6,325.2L497.2,325.0L505.0,322.2L513.6,314.2L516.0,314.4L517.8,313.2L519.8,310.4L520.0,308.2L519.0,306.8L523.6,297.4L528.0,293.2L529.0,291.2L531.8,290.6L534.0,288.8L539.2,289.6L547.8,289.4L548.2,287.8L548.0,286.2L549.6,283.4L548.8,281.0L554.0,281.2L555.4,283.4L557.4,282.8L560.0,282.8L561.8,280.4L564.6,279.6L566.6,277.6L568.4,277.4L571.8,275.2L575.2,276.4L578.2,276.8L580.2,276.0L582.2,277.2L584.2,277.2L583.8,275.8L585.0,274.6L586.8,274.4L587.0,275.6L588.6,275.4L590.4,277.0L591.2,278.2L593.6,278.2L595.4,278.6L596.6,280.0L598.4,280.4L599.6,278.8L601.8,279.2L603.6,279.8L605.4,279.6L606.2,280.6L607.8,279.8L609.2,278.8Z" />
		<path id="L1611112985266" name="赤峰市" class="qing-map-1616122494095" d="M596.4,330.0L596.4,331.6L598.0,333.0L598.0,335.4L596.6,335.4L594.6,333.4L593.4,335.2L594.2,338.0L593.2,338.4L594.8,341.4L591.0,341.0L591.4,343.2L593.8,347.0L592.2,348.2L589.8,348.8L586.8,348.4L588.6,351.6L588.8,354.6L583.0,357.8L580.2,358.4L579.4,357.6L578.4,359.8L575.6,359.8L575.6,361.4L573.4,363.2L570.4,363.0L570.2,365.2L568.6,365.4L567.2,367.0L566.6,368.8L564.8,370.6L561.0,369.2L557.6,373.4L555.0,373.0L555.6,371.0L554.2,370.2L554.4,368.6L552.8,368.0L551.8,366.4L544.4,366.2L542.2,367.2L537.6,372.2L537.6,374.2L539.2,375.6L538.4,377.6L537.4,380.4L539.4,382.6L537.6,385.8L535.2,386.2L533.8,388.0L533.4,391.8L530.8,391.2L528.6,391.4L528.2,394.6L523.6,397.6L523.6,400.0L522.2,401.8L522.8,405.8L525.2,407.0L525.4,409.0L529.6,411.4L529.8,414.4L530.0,417.4L527.8,422.6L528.8,423.0L529.6,424.6L531.6,423.8L533.0,424.0L535.2,425.0L535.4,427.6L536.0,429.0L537.8,429.2L539.0,428.2L540.2,427.6L542.6,427.6L545.2,427.4L547.6,427.8L548.8,426.6L548.0,425.8L549.0,424.6L549.8,423.2L551.6,423.2L554.4,423.6L557.6,422.8L559.6,425.8L561.2,427.6L564.0,430.6L564.0,432.4L565.0,433.8L562.6,435.4L566.2,438.0L566.4,440.2L567.2,441.0L567.2,442.4L569.0,442.0L569.6,440.8L570.6,442.4L569.4,443.8L570.8,443.6L571.0,445.4L570.2,446.2L571.8,448.4L572.0,450.8L570.4,452.0L569.2,450.8L567.8,450.6L567.2,452.8L568.8,455.2L569.0,457.6L571.4,458.8L571.8,460.4L570.8,462.0L572.8,463.4L572.8,464.4L573.2,466.8L577.4,466.2L580.0,465.8L582.4,466.6L584.6,465.2L585.4,467.2L587.2,467.2L591.0,467.6L593.8,467.8L595.2,466.4L596.4,466.8L597.2,465.2L596.2,464.0L598.2,463.4L599.0,461.0L598.2,458.8L599.6,458.0L596.2,455.8L596.2,453.6L596.2,451.2L597.0,444.8L598.6,442.6L598.4,440.6L596.8,439.6L595.6,436.8L598.0,433.8L600.4,432.4L601.6,430.4L602.6,431.8L601.8,433.4L604.6,435.8L609.8,437.0L610.2,439.4L611.4,442.2L615.2,450.0L615.2,453.0L616.2,454.0L617.4,453.2L617.6,451.4L619.0,449.0L620.4,448.2L621.6,447.6L620.6,446.6L622.0,446.2L622.6,445.0L623.4,444.6L624.6,444.6L625.6,443.8L625.4,442.2L626.4,441.8L626.0,440.2L627.6,439.0L629.6,438.0L632.6,437.0L636.8,435.0L634.6,431.6L631.4,428.8L629.2,425.0L626.6,419.6L625.2,416.4L624.4,413.4L625.0,409.6L622.6,407.6L624.6,405.2L628.0,401.8L630.8,398.2L634.2,394.6L629.4,395.6L624.4,395.8L631.0,393.0L632.8,390.2L639.0,387.2L634.4,381.0L634.2,377.0L631.4,372.6L633.0,370.0L631.2,367.6L630.8,366.0L629.2,366.4L628.4,365.2L626.6,365.4L623.4,361.0L622.4,359.6L622.2,355.8L620.4,354.6L618.2,352.8L618.8,351.2L616.4,350.4L614.8,347.0L611.6,343.6L608.2,341.0L606.0,335.0L602.6,333.0L601.2,330.4Z" />
		<path id="L1611121421726" name="通辽市" class="qing-map-1616122494095" d="M671.2,365.0L668.8,365.8L667.0,365.2L662.6,361.6L660.8,359.4L659.0,358.4L654.6,353.0L655.0,350.4L653.2,350.4L652.6,348.4L649.6,346.0L650.2,344.6L647.6,343.0L641.8,339.2L639.2,336.4L639.2,334.4L638.2,334.4L639.2,332.0L635.4,330.8L634.8,329.6L632.6,328.8L628.2,326.0L628.2,324.0L627.2,322.2L625.0,321.6L624.0,320.8L622.0,318.0L618.4,317.0L614.0,317.6L615.0,320.0L614.2,321.2L612.2,320.8L611.8,318.6L608.4,318.4L603.6,314.6L602.4,316.2L601.8,318.8L596.4,321.2L597.0,324.6L594.6,328.0L596.4,330.0L601.2,330.4L602.6,333.0L606.0,335.0L608.2,341.0L611.6,343.6L614.8,347.0L616.4,350.4L618.8,351.2L618.2,352.8L620.4,354.6L622.2,355.8L622.4,359.6L623.4,361.0L626.6,365.4L628.4,365.2L629.2,366.4L630.8,366.0L631.2,367.6L633.0,370.0L631.4,372.6L634.2,377.0L634.4,381.0L639.0,387.2L632.8,390.2L631.0,393.0L624.4,395.8L629.4,395.6L634.2,394.6L630.8,398.2L628.0,401.8L624.6,405.2L622.6,407.6L625.0,409.6L624.4,413.4L625.2,416.4L626.6,419.6L629.2,425.0L631.4,428.8L634.6,431.6L636.8,435.0L638.0,434.2L639.8,435.2L642.2,434.4L644.6,431.6L646.4,430.6L647.4,428.8L650.0,427.4L654.6,426.6L656.4,428.6L658.4,427.2L660.0,426.2L662.2,424.2L662.4,421.2L664.2,419.6L666.8,419.0L668.6,419.8L669.4,420.2L670.2,419.0L671.6,419.8L673.6,420.4L675.2,418.6L675.8,417.2L673.8,416.8L673.8,415.0L676.8,414.8L679.0,415.2L680.2,417.0L683.4,416.4L686.4,419.2L687.2,417.4L689.0,417.8L689.4,416.8L691.4,417.2L693.6,416.0L695.8,415.2L694.6,414.4L695.0,412.4L696.0,410.0L701.8,408.2L704.2,408.6L705.8,407.4L705.8,405.4L707.2,402.6L708.2,397.0L706.0,396.4L704.2,394.6L703.2,395.2L702.4,393.8L700.8,394.6L699.4,392.4L698.4,392.4L697.8,390.0L701.0,390.0L700.8,388.6L703.0,388.8L703.0,387.6L703.8,386.8L703.2,383.8L702.8,381.8L701.8,380.2L701.0,378.0L699.8,375.4L698.4,372.6L699.8,368.4L697.8,367.4L697.2,364.8L695.6,362.6L693.6,361.6L693.8,360.0L692.8,358.6L693.2,357.0L691.2,357.0L689.4,358.6L686.6,360.0L684.2,361.2L682.0,364.2L677.2,365.8L673.2,366.2Z" />
		<path id="L1611122079595" name="乌兰察布" class="qing-map-1616122494095" d="M389.6,396.2L391.2,399.6L395.8,403.0L398.6,402.8L402.0,407.6L405.0,410.2L408.0,416.0L412.6,424.0L415.0,424.6L415.8,426.2L417.6,426.6L421.4,430.8L427.8,432.0L427.8,434.4L429.0,435.0L429.8,439.2L433.6,440.0L435.8,444.0L438.4,445.6L440.8,445.8L441.0,443.6L447.0,439.0L452.2,440.2L454.6,439.2L455.6,440.8L457.2,441.0L459.8,442.4L459.8,444.0L461.2,445.2L462.4,443.8L463.8,445.2L464.0,443.8L463.6,442.2L464.8,441.0L465.0,439.2L467.8,439.2L469.6,437.2L471.8,438.4L472.2,440.6L474.6,439.8L474.2,438.0L472.8,436.8L475.2,435.8L476.6,433.4L478.4,434.6L479.8,433.8L479.6,436.8L481.8,436.6L483.0,438.6L480.8,439.8L478.8,440.4L477.4,439.2L476.0,439.2L475.4,440.6L474.0,442.0L475.2,444.0L474.2,444.8L472.2,445.6L469.8,447.6L467.4,450.6L468.2,453.2L467.2,454.4L468.6,456.0L468.2,457.4L468.0,460.4L465.4,459.6L463.0,460.0L461.0,461.0L458.8,463.6L460.8,464.4L459.4,467.2L460.8,467.8L461.2,469.8L462.0,468.6L462.6,471.2L460.8,471.8L458.8,473.8L457.6,474.8L458.8,475.6L461.6,477.8L461.4,479.4L463.6,479.8L464.0,482.6L463.4,483.6L464.6,485.2L465.4,486.2L464.0,486.8L463.6,488.8L463.2,490.6L464.4,492.8L461.8,493.2L459.4,496.2L457.4,494.4L455.0,495.6L451.0,499.4L445.0,500.8L443.8,497.8L437.4,498.8L434.6,500.4L433.4,503.6L430.8,505.4L427.2,503.4L425.0,502.2L423.0,501.4L420.0,502.2L418.2,499.0L415.2,494.2L412.2,492.4L414.0,491.8L412.2,489.2L413.8,488.6L414.6,487.4L413.6,486.0L415.2,485.0L416.2,483.0L415.0,479.2L413.0,479.2L412.0,477.6L412.4,476.2L408.6,473.8L408.2,470.8L407.2,468.8L405.0,467.8L401.0,467.6L399.4,466.2L397.2,466.4L396.0,464.6L397.6,462.0L397.4,459.4L395.6,456.4L393.0,455.4L389.2,452.0L386.8,448.2L381.2,438.0L380.6,434.4L379.2,428.0L377.4,426.4L374.6,422.4L369.4,418.2L372.6,416.8L373.6,414.4L375.2,412.6L377.2,411.2L378.4,408.4L380.2,406.2L383.4,402.6Z" />
		<path id="L1611122369322" name="包头市" class="qing-map-1616122494095" d="M369.4,418.2L374.6,422.4L377.4,426.4L379.2,428.0L380.6,434.4L381.2,438.0L386.8,448.2L389.2,452.0L393.0,455.4L395.6,456.4L397.4,459.4L397.6,462.0L396.0,464.6L397.2,466.4L394.8,467.6L393.4,467.4L392.6,469.2L388.8,467.4L388.0,468.0L386.8,467.6L387.0,466.0L385.4,465.8L384.8,466.8L381.8,464.8L380.4,465.0L379.6,463.8L377.0,466.6L375.0,466.6L374.4,467.8L375.4,469.8L376.6,471.8L377.0,473.8L377.8,475.6L376.6,478.0L377.4,479.8L378.8,479.2L379.4,480.2L379.4,482.0L378.6,484.0L380.2,484.4L380.8,487.2L381.0,489.8L383.0,491.0L382.2,493.4L383.6,494.6L384.8,494.2L386.6,496.0L388.4,496.8L388.8,498.8L387.2,501.0L386.0,502.4L384.2,502.8L382.8,501.4L381.8,502.2L380.0,501.2L377.8,500.4L376.8,501.4L374.6,499.6L374.2,498.2L372.8,498.6L373.0,497.6L371.4,497.8L370.4,496.0L369.2,496.6L368.4,494.4L367.6,494.8L365.0,492.4L364.8,494.4L362.0,493.4L361.4,494.4L359.0,493.2L357.0,494.4L353.8,494.8L350.4,492.4L348.8,493.6L346.6,494.2L346.2,492.4L346.8,490.4L345.4,489.8L346.0,487.6L347.6,486.4L354.8,485.6L355.6,483.8L357.8,482.8L358.2,480.4L356.0,479.4L356.2,477.6L354.6,477.6L353.0,475.8L352.4,473.6L353.6,473.4L351.4,469.2L351.4,467.4L352.6,466.6L353.2,465.4L351.4,463.6L352.4,460.8L347.0,460.8L346.6,459.2L346.2,456.4L345.4,454.2L344.2,452.6L344.6,451.6L342.4,447.6L344.4,447.0L348.8,440.0L348.6,435.2L346.2,428.4L349.4,427.6L351.4,425.6L354.4,424.4L359.4,422.0L363.6,421.8Z" />
		<path id="L1611122873768" name="巴彦淖尔市" class="qing-map-1616122494095" d="M346.2,428.4L348.6,435.2L348.8,440.0L344.4,447.0L342.4,447.6L344.6,451.6L344.2,452.6L345.4,454.2L346.2,456.4L346.6,459.2L347.0,460.8L352.4,460.8L351.4,463.6L353.2,465.4L352.6,466.6L351.4,467.4L351.4,469.2L353.6,473.4L352.4,473.6L353.0,475.8L354.6,477.6L356.2,477.6L356.0,479.4L358.2,480.4L357.8,482.8L355.6,483.8L354.8,485.6L347.6,486.4L346.0,487.6L345.4,489.8L346.8,490.4L346.2,492.4L346.6,494.2L346.2,495.6L344.4,495.2L343.0,493.8L341.4,494.6L339.6,493.0L337.2,492.2L334.6,493.2L332.4,492.2L329.8,492.4L330.0,490.8L328.0,489.6L326.0,489.0L325.2,487.6L324.6,486.6L322.6,486.6L321.6,484.6L316.6,483.4L315.4,481.8L311.8,482.6L310.0,482.2L307.8,482.4L306.8,481.6L306.0,482.6L303.8,482.0L302.2,485.6L300.8,484.8L298.2,487.6L297.0,486.8L294.6,489.4L292.8,488.8L291.2,492.4L289.4,491.6L288.8,493.6L290.0,494.2L288.6,495.2L289.2,498.0L287.0,499.6L285.8,501.4L281.6,505.4L279.0,504.8L277.2,502.6L280.0,499.4L273.6,497.8L271.4,499.8L267.8,499.0L264.8,494.8L265.8,494.0L266.6,493.4L268.6,494.8L271.8,494.4L271.4,492.6L268.2,491.2L266.6,491.4L265.8,489.0L263.8,487.4L259.4,486.6L255.4,484.8L248.6,481.2L244.2,478.6L244.2,475.8L242.6,474.2L242.2,471.2L239.8,466.0L239.6,461.0L240.6,453.2L252.0,446.2L276.4,435.0L285.0,433.0L291.4,431.4L292.8,429.8L297.0,428.0L299.8,429.6L308.2,430.2L316.0,427.8L317.6,429.0L326.0,429.2L332.2,429.8L336.6,428.2Z" />
		<path id="L1611123753469" name="阿拉善盟" class="qing-map-1616122494095" d="M240.6,453.2L239.6,461.0L239.8,466.0L242.2,471.2L242.6,474.2L244.2,475.8L244.2,478.6L248.6,481.2L255.4,484.8L259.4,486.6L263.8,487.4L265.8,489.0L266.6,491.4L268.2,491.2L271.4,492.6L271.8,494.4L268.6,494.8L266.6,493.4L265.8,494.0L264.8,494.8L267.8,499.0L271.4,499.8L273.6,497.8L280.0,499.4L277.2,502.6L279.0,504.8L281.6,505.4L278.6,508.8L278.4,513.0L277.2,514.4L278.8,515.8L278.6,518.0L278.6,520.4L279.6,521.0L279.0,522.8L274.8,525.4L275.8,528.4L278.4,529.2L278.2,531.6L276.4,532.8L275.0,532.0L272.4,535.2L268.8,534.4L266.6,535.0L267.0,538.2L265.2,539.6L263.4,539.0L261.2,542.6L260.8,545.0L259.0,546.8L259.6,548.0L257.2,550.8L257.0,553.2L255.8,556.2L256.4,557.8L255.6,560.4L255.6,564.4L256.4,567.6L254.4,569.4L253.8,572.4L255.6,575.6L254.8,578.6L254.8,580.6L253.4,583.0L251.2,583.0L249.8,583.2L249.6,585.4L243.6,585.6L239.0,587.0L235.2,590.0L230.4,590.6L219.8,592.2L219.2,593.4L213.4,595.8L205.2,588.2L200.4,583.6L194.4,581.0L192.6,574.4L197.6,571.6L194.6,563.2L205.2,555.6L210.0,547.6L213.4,546.2L213.6,542.0L214.2,541.0L213.6,539.4L210.4,534.6L211.0,530.4L205.4,529.0L192.4,533.2L184.0,540.2L173.2,538.0L170.2,536.0L165.6,537.8L154.4,541.2L160.4,547.4L157.0,550.0L152.6,554.6L150.0,554.2L148.4,555.2L147.4,553.4L140.8,550.8L141.4,549.2L139.0,548.8L138.6,547.0L137.8,546.0L138.6,543.6L132.2,546.2L132.0,543.6L130.6,542.8L129.4,542.8L129.0,541.4L129.2,540.0L128.4,531.2L123.0,531.2L120.4,530.6L120.0,528.4L115.8,527.4L115.4,524.2L113.8,521.6L110.6,520.6L108.4,519.2L105.2,518.6L102.8,515.4L100.2,514.8L96.0,514.8L100.4,512.2L101.4,511.0L103.8,510.8L105.2,509.4L106.6,505.8L112.0,502.4L112.2,493.6L113.6,491.6L113.6,487.4L110.4,481.8L104.8,480.4L99.6,480.2L96.4,482.6L86.6,482.0L86.4,485.8L85.4,487.0L85.0,488.4L83.2,487.8L81.6,485.2L77.0,487.4L77.4,491.0L74.4,488.4L73.6,485.6L71.6,486.0L72.4,488.4L65.8,492.0L65.0,480.4L63.4,479.6L61.4,478.2L56.2,474.4L47.4,461.8L53.4,455.6L36.6,416.8L63.0,421.4L95.4,424.4L106.6,422.0L114.0,422.2L115.2,420.4L129.4,420.8L153.4,426.8L160.4,435.6L169.6,438.8L176.2,438.8L195.0,447.6L204.4,450.4L210.6,451.2L222.0,448.6L222.8,454.8L231.0,456.2L234.4,457.8Z" />
		<path id="L1611122661640" name="呼和浩特市" class="qing-map-1616122494095" d="M418.2,499.0L415.2,494.2L412.2,492.4L414.0,491.8L412.2,489.2L413.8,488.6L414.6,487.4L413.6,486.0L415.2,485.0L416.2,483.0L415.0,479.2L413.0,479.2L412.0,477.6L412.4,476.2L408.6,473.8L408.2,470.8L407.2,468.8L405.0,467.8L401.0,467.6L399.4,466.2L397.2,466.4L394.8,467.6L393.4,467.4L392.6,469.2L388.8,467.4L388.0,468.0L386.8,467.6L387.0,466.0L385.4,465.8L384.8,466.8L381.8,464.8L380.4,465.0L379.6,463.8L377.0,466.6L375.0,466.6L374.4,467.8L375.4,469.8L376.6,471.8L377.0,473.8L377.8,475.6L376.6,478.0L377.4,479.8L378.8,479.2L379.4,480.2L379.4,482.0L378.6,484.0L380.2,484.4L380.8,487.2L381.0,489.8L383.0,491.0L382.2,493.4L383.6,494.6L384.8,494.2L386.6,496.0L388.4,496.8L388.8,498.8L387.2,501.0L388.8,503.0L391.8,505.4L394.2,506.4L396.6,509.4L396.8,512.2L397.6,513.8L396.8,515.0L396.4,516.4L395.4,518.8L397.0,521.6L397.2,523.2L399.0,522.2L401.8,523.0L403.0,522.4L405.2,524.4L406.8,523.6L408.2,523.8L410.0,523.6L409.2,521.8L410.6,520.4L410.6,518.0L417.2,506.2L417.2,505.2L418.8,504.4L420.0,502.2Z" />
		<path id="L1611124348579" name="鄂尔多斯市" class="qing-map-1616122494095" d="M284.0,542.0L287.2,542.2L288.6,535.2L286.6,535.8L283.4,533.8L284.2,528.4L282.0,522.0L282.8,520.8L281.6,517.8L284.2,515.6L284.0,513.8L281.0,516.4L279.6,517.0L278.8,515.8L277.2,514.4L278.4,513.0L278.6,508.8L281.6,505.4L285.8,501.4L287.0,499.6L289.2,498.0L288.6,495.2L290.0,494.2L288.8,493.6L289.4,491.6L291.2,492.4L292.8,488.8L294.6,489.4L297.0,486.8L298.2,487.6L300.8,484.8L302.2,485.6L303.8,482.0L306.0,482.6L306.8,481.6L307.8,482.4L310.0,482.2L311.8,482.6L315.4,481.8L316.6,483.4L321.6,484.6L322.6,486.6L324.6,486.6L325.2,487.6L326.0,489.0L328.0,489.6L330.0,490.8L329.8,492.4L332.4,492.2L334.6,493.2L337.2,492.2L339.6,493.0L341.4,494.6L343.0,493.8L344.4,495.2L346.2,495.6L346.6,494.2L348.8,493.6L350.4,492.4L353.8,494.8L357.0,494.4L359.0,493.2L361.4,494.4L362.0,493.4L364.8,494.4L365.0,492.4L367.6,494.8L368.4,494.4L369.2,496.6L370.4,496.0L371.4,497.8L373.0,497.6L372.8,498.6L374.2,498.2L374.6,499.6L376.8,501.4L377.8,500.4L380.0,501.2L381.8,502.2L382.8,501.4L384.2,502.8L386.0,502.4L387.2,501.0L388.8,503.0L391.8,505.4L394.2,506.4L396.6,509.4L396.8,512.2L397.6,513.8L396.8,515.0L396.4,516.4L395.4,518.8L397.0,521.6L397.2,523.2L397.4,525.8L395.8,528.2L394.6,529.8L391.0,529.8L389.0,532.2L388.2,531.6L387.4,529.6L389.6,526.0L389.6,524.6L388.6,525.6L386.8,525.4L384.6,526.8L379.4,532.2L378.6,535.0L376.4,535.2L374.6,532.0L373.4,531.6L372.0,531.4L371.8,532.6L370.4,533.6L367.6,530.4L364.8,529.2L364.0,529.6L366.2,534.4L360.6,537.2L358.2,534.8L357.6,535.6L359.6,537.6L358.6,538.6L358.8,540.6L357.4,539.8L352.6,544.2L352.6,545.6L351.6,548.8L350.8,549.0L349.4,550.4L348.4,549.8L345.8,553.0L344.0,553.8L345.2,555.6L343.8,556.8L343.0,556.2L340.2,559.8L337.0,562.6L337.0,563.4L336.0,564.4L335.4,567.2L335.0,568.4L334.4,569.6L334.6,571.0L337.4,573.2L336.8,574.8L337.4,575.8L335.6,577.4L334.0,579.0L332.6,576.0L331.2,574.6L331.2,575.8L330.8,577.4L330.2,583.0L330.0,584.0L330.2,585.8L328.8,586.6L325.8,587.8L323.8,586.2L320.0,588.0L318.0,588.2L317.2,587.2L313.6,588.4L310.4,587.4L310.6,586.0L309.6,583.2L306.4,581.8L302.2,580.8L298.2,578.6L295.2,578.6L295.8,576.8L293.4,573.6L289.8,571.6L285.6,572.2L278.8,570.2L272.0,566.0L275.2,564.0L276.4,560.4L276.4,557.4L277.2,554.4L280.4,550.2L282.4,547.4L283.6,545.8Z" />
		<path id="L1611110250979" name="乌海市" class="qing-map-1616122494095" d="M278.8,515.8L278.6,518.0L278.6,520.4L279.6,521.0L279.0,522.8L274.8,525.4L275.8,528.4L278.4,529.2L278.2,531.6L279.8,532.8L279.8,535.8L280.0,537.2L281.2,538.6L281.0,541.0L284.0,542.0L287.2,542.2L288.6,535.2L286.6,535.8L283.4,533.8L284.2,528.4L282.0,522.0L282.8,520.8L281.6,517.8L284.2,515.6L284.0,513.8L281.0,516.4L279.6,517.0Z" />
	</g>
</svg>
