<svg xmlns="http://www.w3.org/2000/svg" viewBox="0,0,433,600" width="100%" height="100%">
	<defs>
		<style type="text/css">
.qing-map-1616136134775
{
	fill: #DDDDDD;
	fill-opacity: 1.0;
	stroke: #FFFFFF;
	stroke-opacity: 1.0;
	stroke-width: 1;
}

.qing-map-1616136134775:hover
{
	fill: #56A4FF;
	fill-opacity: 1.0;
}
</style>
	</defs>
	<g>
		<path id="L1611198352321" name="西安市" class="qing-map-1616136134775" d="M213.8,427.0L216.4,424.0L218.6,424.8L221.6,423.6L223.6,424.6L225.0,424.2L224.2,421.2L226.4,419.4L226.2,418.4L227.6,416.8L227.4,413.2L229.2,410.8L229.2,408.2L233.0,407.0L235.6,408.2L238.4,407.4L242.0,409.2L245.4,408.8L248.0,409.4L250.4,408.8L255.2,409.0L257.6,407.4L260.2,407.6L265.0,404.8L268.4,406.0L269.0,404.2L271.8,404.2L272.4,403.0L274.6,402.8L275.2,398.8L277.4,396.8L280.2,395.6L281.2,394.8L282.6,394.6L284.6,393.6L283.8,391.8L285.2,390.2L285.2,385.6L284.2,383.2L286.6,382.4L288.4,381.6L290.6,381.8L292.2,381.8L294.2,381.8L294.2,379.2L294.8,377.8L296.2,376.0L296.4,374.4L298.4,373.9L300.8,374.6L302.6,373.8L304.4,374.2L307.2,372.8L308.2,371.2L310.8,370.8L312.4,373.8L311.8,375.2L311.8,379.0L313.0,384.0L309.6,386.0L310.2,387.8L309.6,389.2L311.0,390.8L311.6,393.4L314.0,396.0L313.6,398.0L313.6,402.2L316.0,404.4L317.6,405.4L320.2,404.8L323.8,406.2L328.4,406.6L330.4,408.0L330.4,410.2L333.1,410.6L334.2,411.8L332.2,412.6L331.2,414.4L330.6,415.2L330.0,416.8L327.8,415.8L325.2,416.4L324.0,417.8L321.4,418.6L319.0,420.2L318.2,424.4L321.8,427.6L321.6,430.8L319.8,432.0L317.4,434.0L314.6,434.0L312.2,435.0L307.6,433.2L305.6,434.4L302.4,432.2L299.2,433.4L297.2,432.4L294.0,432.2L293.6,430.6L290.4,429.2L287.4,431.6L284.4,432.6L282.8,433.2L278.0,436.2L276.4,436.2L273.4,437.4L272.0,435.2L269.8,435.6L267.6,435.2L265.8,435.2L264.4,436.4L261.8,439.9L259.8,438.6L255.6,437.4L251.4,440.0L249.2,438.4L245.8,439.8L244.6,439.8L242.2,442.6L238.8,444.2L236.0,443.4L234.6,444.2L233.2,443.2L231.0,444.6L228.0,442.8L226.6,442.6L225.4,442.0L224.0,442.6L222.6,441.8L219.8,444.6L214.4,443.4L210.2,443.0L209.6,441.4L208.4,440.4L208.6,437.8L210.2,434.8L210.8,429.2Z" />
		<path id="L1611199382422" name="铜川市" class="qing-map-1616136134775" d="M278.4,329.0L278.8,327.4L281.8,326.0L283.2,324.0L285.4,321.6L286.2,317.8L290.0,312.4L292.2,313.0L294.0,311.2L297.4,310.2L299.6,311.8L300.8,314.0L303.6,314.8L307.2,314.2L310.2,314.6L311.8,316.0L313.0,315.2L313.6,316.6L314.4,318.0L314.8,320.4L314.2,321.8L315.6,324.2L315.8,326.2L314.6,327.2L313.0,327.2L310.0,328.6L308.4,331.4L303.8,333.4L304.6,334.8L304.6,335.8L307.8,339.6L308.8,341.0L312.2,340.2L312.8,342.8L312.6,344.8L311.6,346.6L309.2,344.4L303.8,346.0L302.2,346.4L300.6,348.6L298.6,350.0L299.2,351.8L297.0,352.8L294.8,353.4L292.4,354.4L291.8,355.4L292.6,357.8L290.4,359.0L288.8,359.2L287.4,360.0L285.0,360.8L284.8,364.4L282.6,363.6L281.0,364.4L280.2,365.4L277.8,364.6L276.2,365.8L275.8,364.0L272.8,361.2L270.8,361.6L267.8,360.0L268.2,358.8L266.2,354.6L265.0,353.8L264.8,352.0L262.4,349.0L264.2,346.4L264.4,345.2L267.0,342.8L265.2,340.4L266.0,339.2L266.8,337.8L267.8,337.4L268.0,336.2L269.2,335.6L269.8,334.4L270.8,333.4L271.6,331.2Z" />
		<path id="L1611199676026" name="咸阳市" class="qing-map-1616136134775" d="M229.2,408.2L233.0,407.0L235.6,408.2L238.4,407.4L242.0,409.2L245.4,408.8L248.0,409.4L250.4,408.8L255.2,409.0L257.6,407.4L260.2,407.6L265.0,404.8L268.4,406.0L269.0,404.2L271.8,404.2L272.4,403.0L274.6,402.8L275.2,398.8L277.4,396.8L280.2,395.6L281.2,394.8L282.6,394.6L284.6,393.6L283.8,391.8L285.2,390.2L285.2,385.6L284.2,383.2L286.6,382.4L288.4,381.6L290.6,381.8L292.2,381.8L294.2,381.8L294.2,379.2L294.8,377.8L296.2,376.0L296.4,374.4L295.7,373.4L292.5,373.9L290.7,372.9L289.7,374.4L288.5,373.2L289.0,371.6L289.0,369.4L284.8,364.4L282.6,363.6L281.0,364.4L280.2,365.4L277.8,364.6L276.2,365.8L275.8,364.0L272.8,361.2L270.8,361.6L267.8,360.0L268.2,358.8L266.2,354.6L265.0,353.8L264.8,352.0L262.4,349.0L264.2,346.4L264.4,345.2L267.0,342.8L265.2,340.4L266.0,339.2L266.8,337.8L267.8,337.4L268.0,336.2L269.2,335.6L269.8,334.4L270.8,333.4L271.6,331.2L278.4,329.0L278.8,327.4L277.0,324.9L275.3,323.7L274.5,320.6L273.8,319.4L274.0,318.0L271.4,315.7L268.8,315.2L267.4,313.5L264.5,312.0L264.0,314.6L263.9,316.4L265.1,319.4L265.0,321.0L265.8,322.6L264.6,324.5L263.7,326.8L263.9,329.3L262.4,331.0L261.2,331.1L259.9,330.3L258.9,331.4L254.4,332.7L250.3,331.2L249.2,332.3L248.4,330.7L247.9,330.7L246.0,332.5L244.8,333.3L241.9,333.6L241.6,332.3L241.5,331.9L240.0,330.4L239.2,330.4L238.0,330.4L235.7,331.8L233.4,331.8L231.7,333.6L226.8,334.7L225.2,334.4L224.1,332.9L220.4,333.4L217.3,332.1L215.1,330.6L213.3,330.3L212.8,332.0L210.8,334.0L208.7,333.8L207.9,334.4L208.6,336.2L209.7,336.4L210.0,337.9L211.7,339.4L211.3,340.4L211.4,341.0L212.3,342.8L211.8,343.8L214.0,345.7L213.8,346.6L216.8,350.1L218.4,350.6L219.7,351.8L219.2,353.2L217.3,354.0L218.2,356.2L218.2,358.6L219.1,359.5L219.5,362.4L221.1,363.3L223.9,362.5L224.6,362.5L225.6,366.3L228.1,368.1L228.5,371.0L229.4,372.3L229.3,374.0L230.1,379.1L228.3,380.1L227.1,382.5L228.5,385.5L227.8,388.3L229.2,389.1L228.8,391.3L229.2,393.1L230.4,395.5L230.0,397.3L230.1,398.1L231.4,400.6L225.8,400.7L225.0,401.7L227.4,405.4L227.5,407.8Z" />
		<path id="L1611200437210" name="宝鸡市" class="qing-map-1616136134775" d="M217.3,354.0L218.2,356.2L218.2,358.6L219.1,359.5L219.5,362.4L221.1,363.3L223.9,362.5L224.6,362.5L225.6,366.3L228.1,368.1L228.5,371.0L229.4,372.3L229.3,374.0L230.1,379.1L228.3,380.1L227.1,382.5L228.5,385.5L227.8,388.3L229.2,389.1L228.8,391.3L229.2,393.1L230.4,395.5L230.0,397.3L230.1,398.1L231.4,400.6L225.8,400.7L225.0,401.7L227.4,405.4L227.5,407.8L229.2,408.2L229.2,410.8L227.4,413.2L227.6,416.8L226.2,418.4L226.4,419.4L224.2,421.2L225.0,424.2L223.6,424.6L221.6,423.6L218.6,424.8L216.4,424.0L213.8,427.0L210.8,429.2L210.2,434.8L208.6,437.8L208.4,440.4L209.6,441.4L210.2,443.0L208.2,444.2L207.1,443.4L205.2,444.0L204.2,444.9L202.4,444.3L199.9,446.3L198.1,446.1L197.6,447.1L196.1,447.9L193.6,448.8L192.0,446.5L190.5,445.9L189.5,446.0L187.6,444.5L187.8,442.9L187.3,441.1L188.4,439.7L188.8,437.2L187.2,438.2L185.4,438.1L181.9,441.3L180.5,441.4L179.6,439.5L178.5,438.7L176.8,438.7L175.7,436.7L174.2,435.9L172.0,432.9L171.5,438.1L170.4,438.4L169.4,438.3L161.3,432.8L160.6,434.8L160.0,435.3L158.3,435.9L157.9,437.1L158.0,439.3L158.4,440.8L157.1,446.7L152.1,445.5L151.7,446.9L150.0,447.9L148.8,447.8L148.9,449.4L148.0,450.0L147.2,452.5L144.7,453.1L144.7,451.1L144.2,449.5L142.8,447.9L141.1,444.8L138.8,443.9L138.9,439.0L138.5,438.6L137.6,438.3L137.9,435.6L138.7,435.7L139.3,434.0L137.7,432.1L135.6,432.6L135.0,431.9L135.2,430.1L138.0,426.6L138.9,424.2L138.3,421.3L138.7,421.3L140.5,418.2L140.0,415.7L143.4,415.8L144.9,412.9L143.5,410.0L143.5,408.0L142.4,405.7L141.2,406.2L139.1,405.9L141.5,402.5L142.5,403.5L143.8,403.5L145.1,405.9L146.8,404.9L148.3,406.2L150.0,405.7L150.7,404.3L151.8,403.5L151.8,400.4L150.9,399.2L152.6,398.2L150.3,396.1L147.7,395.3L146.3,391.2L145.3,391.0L143.0,388.8L141.9,388.8L138.6,386.2L131.2,386.4L130.5,385.0L130.6,383.0L129.1,382.1L130.2,381.3L132.1,380.2L134.7,377.9L136.8,378.3L138.3,377.2L137.1,376.0L136.8,374.3L137.3,372.9L138.5,372.7L139.8,370.7L142.7,370.3L142.7,368.9L143.4,369.0L143.9,368.8L144.4,367.5L143.0,365.2L143.4,364.0L143.3,362.1L140.5,359.5L140.9,358.2L139.5,356.3L139.5,354.2L139.0,353.2L139.9,352.3L139.6,350.5L141.4,349.6L143.1,345.8L144.7,345.5L146.4,347.0L151.6,346.4L153.5,344.9L154.9,345.5L156.7,345.7L158.2,346.4L159.8,346.3L161.0,345.6L163.0,345.3L164.7,346.9L165.4,346.3L166.5,347.1L167.9,347.2L169.8,350.1L172.2,349.6L172.9,350.9L174.1,350.9L175.4,355.4L179.4,357.0L180.3,359.7L182.0,360.9L184.1,360.7L184.6,359.1L185.7,358.8L186.2,356.9L189.4,356.8L190.7,358.4L191.7,357.2L193.4,357.1L195.5,358.4L199.9,358.0L203.2,354.6L205.1,354.5L206.4,355.3L206.3,356.9L206.8,357.2L207.7,357.1L208.9,355.8L212.7,355.7L214.1,354.9L215.4,355.4Z" />
		<path id="L1611207151621" name="安康市" class="qing-map-1616136134775" d="M231.0,444.6L233.2,443.2L234.6,444.2L236.0,443.4L238.8,444.2L242.2,442.6L244.6,439.8L245.8,439.8L249.2,438.4L251.4,440.0L255.6,437.4L259.8,438.6L261.8,439.9L264.4,436.4L265.8,435.2L267.6,435.2L269.8,435.6L272.0,435.2L273.4,437.4L276.4,436.2L278.0,436.2L277.0,438.6L278.7,439.3L281.9,439.2L283.7,441.7L282.4,446.1L279.9,445.0L276.6,448.7L274.9,448.2L274.7,449.2L275.7,451.1L274.4,453.0L274.2,454.5L271.6,456.8L269.5,456.9L266.1,456.1L265.2,457.5L265.5,458.6L264.2,460.9L262.6,462.2L263.6,463.3L263.4,466.2L262.3,467.5L262.4,473.5L263.8,473.4L265.4,472.1L267.3,472.1L269.0,473.8L269.0,475.2L270.0,475.3L271.8,474.2L274.5,476.6L275.4,476.9L276.7,479.5L278.2,480.0L280.5,483.7L282.2,483.9L283.7,485.4L285.4,483.8L286.0,482.9L288.8,481.4L289.6,480.2L292.3,481.7L294.2,483.2L296.4,483.3L300.0,481.1L302.1,482.9L303.4,482.6L305.0,482.9L306.0,483.2L306.4,485.0L309.3,483.9L312.6,483.7L314.4,484.8L319.1,485.2L320.3,486.5L321.5,486.2L322.6,486.7L323.8,486.6L327.2,486.5L328.4,487.7L330.8,488.3L331.1,489.0L333.4,489.6L333.1,492.1L333.2,495.3L332.3,496.9L332.6,498.8L331.8,500.6L333.6,502.7L336.3,502.0L337.5,500.5L338.8,501.2L340.0,501.3L341.2,502.3L345.0,502.6L345.8,503.3L347.1,503.4L348.0,504.4L351.3,505.8L352.7,507.8L353.9,507.8L353.8,510.8L355.4,511.2L355.6,514.0L354.7,515.2L354.6,516.5L357.5,519.7L356.1,521.7L354.2,523.2L353.1,521.2L351.0,521.0L351.1,523.5L349.7,524.0L349.3,525.0L347.7,526.2L344.2,525.4L343.8,524.0L342.3,524.4L341.3,523.2L338.8,523.1L336.5,524.3L331.2,523.6L329.8,522.4L328.3,522.8L323.7,522.7L323.2,525.1L323.9,525.5L323.1,528.0L321.1,528.6L320.1,530.7L319.2,530.9L319.0,533.0L317.7,534.5L317.9,536.3L316.6,537.5L317.4,540.5L316.1,542.3L316.0,543.9L317.2,544.4L317.2,545.6L319.8,548.9L321.5,549.2L322.3,550.4L321.6,552.6L321.5,554.7L323.8,557.2L322.8,559.0L322.3,559.3L321.4,563.2L323.7,566.2L324.0,568.4L323.3,569.7L322.6,569.8L321.4,571.5L322.4,571.9L322.9,574.3L324.3,576.9L323.3,577.7L321.8,579.6L321.5,581.7L321.1,582.7L318.8,582.9L316.9,584.0L313.9,583.5L311.6,583.8L310.8,584.6L305.3,584.4L303.7,583.8L303.5,582.7L302.5,581.0L303.0,580.0L302.7,578.0L298.3,576.7L298.2,575.1L296.2,572.8L293.6,571.5L291.4,568.9L290.0,568.4L289.4,567.4L287.6,566.6L286.4,565.9L283.9,565.7L282.1,564.9L280.9,565.4L278.8,564.0L277.0,561.4L274.6,561.1L272.1,559.2L272.1,557.7L271.0,557.0L267.6,557.2L262.5,552.4L260.4,552.0L258.2,550.4L258.1,548.7L255.9,545.6L254.9,546.0L253.9,545.9L252.4,546.6L251.0,546.0L249.9,546.7L248.8,546.5L247.5,547.9L246.1,547.9L241.9,545.3L239.5,548.4L237.4,547.9L238.3,546.3L237.8,543.8L235.4,541.4L235.8,540.3L234.3,538.1L235.3,536.4L234.5,534.5L236.2,533.9L238.6,534.5L240.7,532.2L244.4,529.4L243.9,527.6L243.1,527.4L242.3,524.4L240.6,522.6L240.8,521.6L242.6,521.9L243.4,520.6L242.8,518.3L243.0,516.5L241.8,513.8L239.0,510.8L237.6,510.5L236.1,509.6L235.4,507.9L233.6,503.6L232.2,502.6L232.6,500.6L234.4,499.6L235.3,498.3L235.0,495.1L236.4,493.9L233.5,489.3L233.4,487.6L234.2,486.4L234.2,485.5L233.7,484.6L234.1,483.6L233.6,481.9L234.7,479.9L232.5,479.8L229.4,476.3L231.1,473.9L230.8,470.6L232.4,469.8L233.5,467.3L234.4,466.7L233.6,465.7L235.5,465.1L236.4,465.1L237.6,463.1L237.2,461.9L234.5,460.3L233.0,459.1L231.8,458.2L231.7,455.8L231.4,454.1L231.9,452.1L231.1,450.8L231.1,449.9L231.7,448.8L231.2,446.9L230.8,445.7Z" />
		<path id="L1611208383768" name="汉中市" class="qing-map-1616136134775" d="M108.1,452.4L108.6,451.3L109.6,451.6L111.2,451.5L112.3,452.6L115.2,450.8L117.5,451.9L116.7,452.6L116.8,454.3L118.8,453.6L118.9,454.7L121.1,455.8L122.6,454.8L124.4,454.7L125.7,452.9L127.5,451.7L130.6,453.1L132.5,451.8L132.6,450.8L136.6,451.0L137.1,456.0L138.2,457.1L139.3,456.3L140.6,457.9L142.3,457.7L143.3,456.3L143.0,454.2L143.9,453.6L144.7,453.1L147.2,452.5L148.0,450.0L148.9,449.4L148.8,447.8L150.0,447.9L151.7,446.9L152.1,445.5L157.1,446.7L158.4,440.8L158.0,439.3L157.9,437.1L158.3,435.9L160.0,435.3L160.6,434.8L161.3,432.8L169.4,438.3L170.4,438.4L171.5,438.1L172.0,432.9L174.2,435.9L175.7,436.7L176.8,438.7L178.5,438.7L179.6,439.5L180.5,441.4L181.9,441.3L185.4,438.1L187.2,438.2L188.8,437.2L188.4,439.7L187.3,441.1L187.8,442.9L187.6,444.5L189.5,446.0L190.5,445.9L192.0,446.5L193.6,448.8L196.1,447.9L197.6,447.1L198.1,446.1L199.9,446.3L202.4,444.3L204.2,444.9L205.2,444.0L207.1,443.4L208.2,444.2L210.2,443.0L214.4,443.4L219.8,444.6L222.6,441.8L224.0,442.6L225.4,442.0L226.6,442.6L228.0,442.8L231.0,444.6L230.8,445.7L231.2,446.9L231.7,448.8L231.1,449.9L231.1,450.8L231.9,452.1L231.4,454.1L231.7,455.8L231.8,458.2L233.0,459.1L234.5,460.3L237.2,461.9L237.6,463.1L236.4,465.1L235.5,465.1L233.6,465.7L234.4,466.7L233.5,467.3L232.4,469.8L230.8,470.6L231.1,473.9L229.4,476.3L232.5,479.8L234.7,479.9L233.6,481.9L234.1,483.6L233.7,484.6L234.2,485.5L234.2,486.4L233.4,487.6L233.5,489.3L236.4,493.9L235.0,495.1L235.3,498.3L234.4,499.6L232.6,500.6L232.2,502.6L233.6,503.6L235.4,507.9L236.1,509.6L237.6,510.5L239.0,510.8L241.8,513.8L243.0,516.5L242.8,518.3L243.4,520.6L242.6,521.9L240.8,521.6L240.6,522.6L242.3,524.4L243.1,527.4L243.9,527.6L244.4,529.4L240.7,532.2L238.6,534.5L236.2,533.9L234.5,534.5L235.3,536.4L234.3,538.1L235.8,540.3L235.4,541.4L237.8,543.8L238.3,546.3L237.4,547.9L236.7,549.0L235.4,549.1L233.5,548.3L232.0,548.5L229.3,550.8L229.2,552.2L227.7,554.0L226.4,554.2L221.5,549.5L220.1,550.2L217.9,548.2L214.9,543.2L212.8,541.2L211.0,541.4L209.7,539.4L209.5,537.9L207.2,535.5L206.5,535.9L204.0,535.7L201.0,537.5L198.8,536.8L197.7,534.8L196.5,534.9L196.0,532.4L194.8,531.6L194.3,529.1L194.4,526.7L191.4,526.3L189.7,528.8L187.0,530.0L185.9,534.2L183.7,535.5L181.3,533.5L180.6,531.5L176.6,530.9L176.5,529.7L175.4,528.3L173.7,527.1L174.9,525.3L175.2,523.1L174.5,520.1L174.5,517.6L172.9,517.5L172.8,514.7L170.8,514.0L168.6,514.6L166.1,514.3L164.1,515.0L162.7,513.9L160.2,513.8L158.5,515.0L157.6,514.6L156.1,515.1L156.0,512.8L153.4,512.7L150.6,514.7L150.0,515.7L147.4,516.7L144.6,516.3L143.1,517.5L141.7,517.5L140.0,518.1L139.8,519.0L137.3,518.9L135.5,521.0L133.9,521.5L133.0,519.3L130.4,517.6L126.3,517.6L125.2,516.1L121.5,516.0L119.7,515.4L118.7,514.1L117.1,513.9L116.6,512.8L114.7,511.6L114.2,509.8L116.0,508.7L115.4,506.7L114.8,506.6L113.2,504.8L111.9,504.7L111.0,506.1L109.8,506.4L108.5,505.1L106.3,506.6L104.4,506.0L101.1,507.0L98.4,511.7L95.5,510.9L93.7,511.5L88.4,515.3L86.5,515.6L85.9,513.4L84.2,512.5L84.9,510.7L83.1,508.8L82.9,506.5L82.2,504.5L80.9,503.2L80.5,502.1L80.7,500.9L81.6,500.4L82.9,500.7L84.6,500.9L86.5,502.7L87.5,502.9L89.8,502.3L90.3,501.1L93.9,501.2L96.2,499.5L98.8,498.7L100.5,497.4L102.4,498.2L104.6,495.3L105.8,494.6L106.2,491.3L105.4,490.1L106.6,488.7L105.7,486.9L106.4,486.5L106.4,485.9L104.3,483.8L105.7,482.5L107.1,483.5L108.4,483.6L108.1,479.5L106.0,477.2L104.9,477.2L102.5,478.1L100.2,476.1L98.3,475.6L97.8,474.3L95.8,473.9L96.2,471.6L95.7,470.2L94.5,469.5L93.3,466.7L94.7,466.5L95.1,467.3L97.0,467.1L100.0,467.5L101.2,463.4L100.3,462.1L101.3,459.2L102.7,458.3L102.9,456.8L105.7,455.2Z" />
		<path id="L1611222086334" name="商洛市" class="qing-map-1616136134775" d="M312.6,483.7L309.3,483.9L306.4,485.0L306.0,483.2L305.0,482.9L303.4,482.6L302.1,482.9L300.0,481.1L296.4,483.3L294.2,483.2L292.3,481.7L289.6,480.2L288.8,481.4L286.0,482.9L285.4,483.8L283.7,485.4L282.2,483.9L280.5,483.7L278.2,480.0L276.7,479.5L275.4,476.9L274.5,476.6L271.8,474.2L270.0,475.3L269.0,475.2L269.0,473.8L267.3,472.1L265.4,472.1L263.8,473.4L262.4,473.5L262.3,467.5L263.4,466.2L263.6,463.3L262.6,462.2L264.2,460.9L265.5,458.6L265.2,457.5L266.1,456.1L269.5,456.9L271.6,456.8L274.2,454.5L274.4,453.0L275.7,451.1L274.7,449.2L274.9,448.2L276.6,448.7L279.9,445.0L282.4,446.1L283.7,441.7L281.9,439.2L278.7,439.3L277.0,438.6L278.0,436.2L282.8,433.2L284.4,432.6L287.4,431.6L290.4,429.2L293.6,430.6L294.0,432.2L297.2,432.4L299.2,433.4L302.4,432.2L305.6,434.4L307.6,433.2L312.2,435.0L314.6,434.0L317.4,434.0L319.8,432.0L321.6,430.8L321.8,427.6L318.2,424.4L319.0,420.2L321.4,418.6L324.0,417.8L325.2,416.4L327.8,415.8L330.0,416.8L330.6,415.2L331.2,414.4L332.2,412.6L334.2,411.8L333.1,410.6L330.4,410.2L330.4,408.0L330.9,406.8L331.7,405.8L332.5,405.7L335.4,403.6L336.8,404.7L338.3,404.4L339.2,406.6L343.6,408.6L346.4,406.7L346.2,402.1L347.4,402.0L347.7,401.1L346.1,397.8L347.7,396.7L349.3,394.7L352.3,393.2L355.2,393.2L356.9,394.4L359.5,394.5L362.2,396.1L364.6,395.5L367.3,395.7L368.6,394.8L370.7,394.3L373.4,395.8L373.8,397.7L374.9,398.7L374.9,400.8L373.3,400.8L373.0,402.1L371.0,403.0L370.7,403.8L371.4,405.3L371.4,406.6L373.1,406.8L375.3,408.1L377.1,408.2L378.2,409.9L380.6,410.3L383.1,412.1L381.6,415.6L380.5,416.1L380.3,419.4L380.2,421.5L381.4,421.7L382.2,421.2L383.8,423.6L384.0,425.7L385.0,426.2L385.0,427.9L383.4,428.1L380.4,430.8L381.6,434.3L383.3,434.7L384.6,433.9L386.0,435.3L387.3,435.4L388.9,437.9L390.1,438.1L392.6,439.5L393.5,442.1L394.5,443.8L394.0,446.0L394.5,447.3L396.0,447.8L397.2,449.6L398.0,449.7L400.9,450.7L401.4,451.4L402.7,451.7L404.6,453.6L404.7,454.9L404.1,456.4L405.5,457.6L406.4,460.4L404.9,463.4L404.4,463.7L405.1,465.3L405.1,466.8L406.4,468.1L405.7,469.4L406.6,470.8L405.1,471.3L404.1,474.0L402.4,476.4L401.0,478.8L398.1,479.6L396.8,479.4L394.2,480.5L393.4,483.5L391.4,483.6L388.4,485.2L388.3,487.1L387.6,487.7L385.5,486.2L385.5,485.4L383.4,483.1L382.7,484.1L380.5,483.1L380.5,479.7L379.8,477.9L378.5,476.7L376.8,476.7L373.1,482.1L371.9,481.8L370.4,482.5L369.2,482.0L366.8,482.6L362.5,482.5L361.2,483.0L358.2,483.0L357.2,481.4L356.5,481.3L354.9,479.6L352.5,480.5L349.7,479.9L348.9,480.9L347.9,480.8L346.4,480.0L344.7,480.4L341.0,478.2L337.8,477.1L335.1,477.8L328.7,478.1L327.7,476.7L325.6,476.5L323.5,475.5L321.7,478.1L318.5,477.9L316.6,478.6L316.6,479.3L315.1,480.5L314.9,481.8L313.6,482.5Z" />
		<path id="L1611222673835" name="渭南市" class="qing-map-1616136134775" d="M370.7,394.3L368.6,394.8L367.3,395.7L364.6,395.5L362.2,396.1L359.5,394.5L356.9,394.4L355.2,393.2L352.3,393.2L349.3,394.7L347.7,396.7L346.1,397.8L347.7,401.1L347.4,402.0L346.2,402.1L346.4,406.7L343.6,408.6L339.2,406.6L338.3,404.4L336.8,404.7L335.4,403.6L332.5,405.7L331.7,405.8L330.9,406.8L330.4,408.0L328.4,406.6L323.8,406.2L320.2,404.8L317.6,405.4L316.0,404.4L313.6,402.2L313.6,398.0L314.0,396.0L311.6,393.4L311.0,390.8L309.6,389.2L310.2,387.8L309.6,386.0L313.0,384.0L311.8,379.0L311.8,375.2L312.4,373.8L310.8,370.8L308.2,371.2L307.2,372.8L304.4,374.2L302.6,373.8L300.8,374.6L298.4,373.9L296.4,374.4L295.7,373.4L292.5,373.9L290.7,372.9L289.7,374.4L288.5,373.2L289.0,371.6L289.0,369.4L284.8,364.4L285.0,360.8L287.4,360.0L288.8,359.2L290.4,359.0L292.6,357.8L291.8,355.4L292.4,354.4L294.8,353.4L297.0,352.8L299.2,351.8L298.6,350.0L300.6,348.6L302.2,346.4L303.8,346.0L309.2,344.4L311.6,346.6L312.6,344.8L312.8,342.8L312.2,340.2L308.8,341.0L307.8,339.6L304.6,335.8L304.6,334.8L303.8,333.4L308.4,331.4L310.0,328.6L313.0,327.2L314.6,327.2L315.8,326.2L315.6,324.2L316.8,324.8L317.4,321.6L320.5,319.7L327.7,322.6L330.2,321.2L331.2,321.6L333.0,320.1L334.5,320.2L335.4,321.1L338.4,320.9L338.6,322.7L339.9,322.9L342.5,322.0L344.2,322.4L345.2,321.2L346.3,322.3L349.1,321.7L350.4,322.6L352.7,321.1L353.3,319.7L356.1,318.3L358.0,316.5L358.7,315.6L359.2,314.2L361.6,313.2L362.6,311.5L360.6,310.0L360.5,308.7L357.5,305.1L355.8,304.8L354.0,303.2L355.1,300.9L362.0,300.9L364.8,298.4L366.6,297.8L369.4,294.1L373.5,292.0L375.8,290.9L377.7,289.1L378.6,292.1L379.5,294.4L379.5,296.7L379.7,301.1L380.4,302.9L380.4,304.1L381.7,305.1L381.7,307.8L379.5,312.0L377.5,317.7L374.5,321.9L373.6,326.1L371.1,329.0L369.4,331.5L368.3,334.6L367.9,337.5L366.6,342.9L365.8,347.4L364.6,350.8L362.7,353.2L360.4,355.9L359.7,359.5L360.0,363.0L360.5,367.5L360.7,370.6L359.9,374.0L359.7,376.5L360.7,378.5L363.2,380.2L365.5,380.3L366.6,380.5L367.0,381.6L366.9,383.1L368.4,384.2L366.6,385.7L367.4,388.1L368.5,390.3L369.4,392.4L369.7,393.3Z" />
		<path id="L1611225846582" name="延安市" class="qing-map-1616136134775" d="M208.6,218.8L209.9,217.6L211.6,216.7L212.1,212.7L210.2,208.1L212.5,207.4L213.3,206.5L212.0,204.8L210.0,204.6L208.2,202.0L210.3,201.9L211.2,200.0L209.8,198.3L210.7,196.0L212.5,195.4L211.9,193.9L213.3,193.4L214.4,189.9L216.5,188.2L217.0,188.6L217.6,190.2L219.6,190.7L219.9,194.2L221.0,196.3L220.8,199.8L222.6,198.8L224.2,200.0L228.4,197.4L233.6,196.8L234.8,195.6L235.1,192.8L237.1,192.6L237.9,194.2L240.8,193.9L241.4,192.1L243.1,190.6L244.6,188.0L240.8,182.7L242.1,181.5L243.8,181.4L247.3,179.7L249.1,177.5L251.4,178.4L252.1,176.5L253.4,178.0L253.4,180.4L254.8,184.5L256.1,185.7L255.2,187.2L257.9,190.4L258.7,192.6L260.4,194.0L259.2,195.6L259.2,197.9L260.1,199.8L258.3,204.0L257.2,204.4L257.4,205.9L259.1,207.1L263.4,206.5L264.2,204.0L266.7,203.5L267.7,204.7L267.8,206.1L272.9,208.1L274.6,207.3L275.5,203.2L274.3,203.1L273.5,201.3L272.1,200.8L272.1,198.4L273.5,197.8L275.0,198.1L276.0,196.8L277.7,195.4L279.4,195.1L279.9,193.5L279.0,192.8L278.4,191.5L279.3,188.5L280.4,189.6L281.9,189.1L284.1,189.3L284.7,187.5L286.0,187.2L286.4,185.8L287.5,185.8L288.0,184.4L289.8,185.5L291.5,183.6L292.6,184.0L293.6,183.1L296.7,183.9L297.3,182.6L301.0,182.7L301.6,181.4L304.8,180.9L305.3,179.7L306.6,179.4L308.6,176.2L310.7,173.7L311.9,173.6L314.1,172.2L314.2,170.6L315.6,169.6L316.3,171.0L317.8,171.3L319.4,172.6L319.9,174.4L324.0,175.4L327.2,174.5L329.2,174.9L329.4,176.8L331.4,177.3L332.6,180.9L333.6,181.0L334.0,183.4L332.7,183.3L331.7,185.5L334.1,186.9L336.1,185.5L338.4,185.6L340.2,183.5L341.1,184.6L342.7,185.5L344.5,185.3L347.5,187.9L346.9,189.0L346.2,191.2L343.6,191.9L344.5,193.1L344.0,194.4L344.3,195.4L345.8,195.5L346.6,196.0L346.0,199.2L347.2,202.5L347.0,203.4L352.1,208.5L357.4,205.6L361.3,207.6L363.0,209.3L364.8,208.2L366.4,208.6L366.8,209.6L370.0,208.7L369.5,214.1L368.2,215.8L369.8,216.3L370.4,220.0L369.4,223.0L372.1,226.4L371.1,227.8L371.2,229.2L369.2,228.9L369.1,230.3L370.8,232.0L371.8,234.5L374.6,237.0L374.2,238.7L375.1,240.6L375.2,243.8L373.8,246.0L373.9,247.8L374.6,248.9L374.3,251.2L373.2,252.3L372.7,255.6L373.4,256.8L373.2,258.3L373.7,261.3L372.6,262.8L372.7,265.3L371.9,267.4L372.6,271.9L373.2,272.7L373.2,274.0L374.5,277.0L374.8,279.3L374.5,280.0L375.9,281.6L375.0,283.3L375.9,284.8L375.7,288.0L377.7,289.1L375.8,290.9L373.5,292.0L369.4,294.1L366.6,297.8L364.8,298.4L362.0,300.9L355.1,300.9L354.0,303.2L355.8,304.8L357.5,305.1L360.5,308.7L360.6,310.0L362.6,311.5L361.6,313.2L359.2,314.2L358.7,315.6L358.0,316.5L356.1,318.3L353.3,319.7L352.7,321.1L350.4,322.6L349.1,321.7L346.3,322.3L345.2,321.2L344.2,322.4L342.5,322.0L339.9,322.9L338.6,322.7L338.4,320.9L335.4,321.1L334.5,320.2L333.0,320.1L331.2,321.6L330.2,321.2L327.7,322.6L320.5,319.7L317.4,321.6L316.8,324.8L315.6,324.2L314.2,321.8L314.8,320.4L314.4,318.0L313.6,316.6L313.0,315.2L311.8,316.0L310.2,314.6L307.2,314.2L303.6,314.8L300.8,314.0L299.6,311.8L297.4,310.2L294.0,311.2L292.2,313.0L290.0,312.4L286.2,317.8L285.4,321.6L283.2,324.0L281.8,326.0L278.8,327.4L277.0,324.9L275.3,323.7L274.5,320.6L273.8,319.4L274.0,318.0L271.4,315.7L268.8,315.2L267.4,313.5L264.5,312.0L259.9,308.6L258.5,305.6L259.6,303.1L258.5,301.8L259.7,300.9L258.8,299.7L259.3,297.9L259.2,292.6L257.9,290.8L257.4,289.0L258.8,287.0L260.9,286.1L261.4,284.7L262.8,283.6L265.3,284.4L267.0,282.7L267.0,280.8L268.7,278.2L268.3,276.4L268.2,273.7L269.6,271.9L269.2,271.2L269.9,268.8L268.9,267.5L268.2,265.5L267.1,264.3L266.2,262.1L266.8,259.7L265.8,257.3L266.1,251.8L264.4,248.0L263.3,248.4L260.5,247.7L259.8,247.0L258.3,247.2L257.3,248.5L255.8,248.8L254.3,248.1L253.1,247.5L252.0,246.3L251.5,244.7L251.0,243.0L249.2,241.7L248.4,239.0L244.7,239.4L243.6,238.0L240.4,237.7L240.0,235.8L240.5,234.2L238.4,235.6L238.8,236.2L237.2,238.7L236.0,238.5L235.7,237.1L233.6,235.5L230.9,236.2L229.7,234.6L228.3,234.6L228.0,232.6L228.8,232.4L229.2,231.1L228.5,230.0L226.6,231.1L224.6,231.1L224.6,229.3L224.1,227.8L222.8,227.1L222.4,225.7L220.9,225.0L219.9,223.3L213.8,221.5L213.4,220.8L210.6,220.6Z" />
		<path id="L1611227026872" name="榆林市" class="qing-map-1616136134775" d="M370.0,208.7L366.8,209.6L366.4,208.6L364.8,208.2L363.0,209.3L361.3,207.6L357.4,205.6L352.1,208.5L347.0,203.4L347.2,202.5L346.0,199.2L346.6,196.0L345.8,195.5L344.3,195.4L344.0,194.4L344.5,193.1L343.6,191.9L346.2,191.2L346.9,189.0L347.5,187.9L344.5,185.3L342.7,185.5L341.1,184.6L340.2,183.5L338.4,185.6L336.1,185.5L334.1,186.9L331.7,185.5L332.7,183.3L334.0,183.4L333.6,181.0L332.6,180.9L331.4,177.3L329.4,176.8L329.2,174.9L327.2,174.5L324.0,175.4L319.9,174.4L319.4,172.6L317.8,171.3L316.3,171.0L315.6,169.6L314.2,170.6L314.1,172.2L311.9,173.6L310.7,173.7L308.6,176.2L306.6,179.4L305.3,179.7L304.8,180.9L301.6,181.4L301.0,182.7L297.3,182.6L296.7,183.9L293.6,183.1L292.6,184.0L291.5,183.6L289.8,185.5L288.0,184.4L287.5,185.8L286.4,185.8L286.0,187.2L284.7,187.5L284.1,189.3L281.9,189.1L280.4,189.6L279.3,188.5L278.4,191.5L279.0,192.8L279.9,193.5L279.4,195.1L277.7,195.4L276.0,196.8L275.0,198.1L273.5,197.8L272.1,198.4L272.1,200.8L273.5,201.3L274.3,203.1L275.5,203.2L274.6,207.3L272.9,208.1L267.8,206.1L267.7,204.7L266.7,203.5L264.2,204.0L263.4,206.5L259.1,207.1L257.4,205.9L257.2,204.4L258.3,204.0L260.1,199.8L259.2,197.9L259.2,195.6L260.4,194.0L258.7,192.6L257.9,190.4L255.2,187.2L256.1,185.7L254.8,184.5L253.4,180.4L253.4,178.0L252.1,176.5L251.4,178.4L249.1,177.5L247.3,179.7L243.8,181.4L242.1,181.5L240.8,182.7L244.6,188.0L243.1,190.6L241.4,192.1L240.8,193.9L237.9,194.2L237.1,192.6L235.1,192.8L234.8,195.6L233.6,196.8L228.4,197.4L224.2,200.0L222.6,198.8L220.8,199.8L221.0,196.3L219.9,194.2L219.6,190.7L217.6,190.2L217.0,188.6L216.5,188.2L214.4,189.9L213.3,193.4L211.9,193.9L212.5,195.4L210.7,196.0L209.8,198.3L211.2,200.0L210.3,201.9L208.2,202.0L210.0,204.6L212.0,204.8L213.3,206.5L212.5,207.4L210.2,208.1L212.1,212.7L211.6,216.7L209.9,217.6L208.6,218.8L206.4,220.0L203.4,218.5L201.4,218.6L199.7,217.4L200.3,216.0L196.8,213.2L196.3,213.4L190.3,213.1L188.6,212.1L187.6,212.5L186.6,211.5L187.1,209.6L186.3,207.8L186.4,205.8L185.8,204.5L186.2,202.3L185.2,199.2L185.9,197.6L187.2,198.8L188.7,196.7L189.0,194.2L188.5,192.2L185.3,189.2L187.3,188.9L187.4,188.1L187.1,186.7L185.3,184.5L184.1,182.3L184.9,180.2L184.7,177.2L185.9,175.6L185.7,174.9L186.0,173.2L186.0,170.9L189.4,167.9L191.2,163.6L190.7,162.7L189.8,162.9L188.8,162.9L188.9,161.9L192.6,158.0L192.1,155.4L193.5,156.3L196.4,155.3L198.9,151.8L198.6,149.9L200.9,148.5L202.5,149.3L204.3,147.9L205.1,149.2L205.5,149.2L208.4,144.3L207.6,142.4L208.9,141.3L210.7,142.0L212.6,143.9L216.7,145.0L218.6,144.9L220.7,146.4L221.4,146.2L224.1,147.7L226.3,147.8L227.1,150.4L227.3,151.9L228.6,152.5L229.4,154.6L228.6,156.7L229.3,158.3L231.6,158.1L234.4,159.2L235.6,160.3L238.7,159.6L239.5,158.0L242.9,157.0L245.2,158.0L245.8,159.3L247.5,159.7L253.1,158.3L256.2,156.3L259.7,155.3L264.5,158.6L267.1,157.5L269.0,157.0L270.1,155.9L271.8,155.8L273.0,156.4L274.3,155.4L274.9,153.7L274.1,152.3L274.3,149.3L275.3,147.2L274.6,145.6L274.9,136.6L276.7,133.8L276.7,130.9L274.6,128.2L276.9,128.3L279.1,130.0L280.4,133.7L281.7,135.0L282.0,136.4L283.6,137.8L285.2,137.0L285.6,135.0L287.7,134.1L287.8,133.1L290.7,130.0L289.5,127.7L290.7,125.2L284.3,119.8L283.5,118.6L283.6,116.2L285.3,113.4L285.2,110.2L286.5,108.9L287.4,105.1L288.9,104.2L290.4,102.3L290.0,99.5L294.6,96.3L295.3,94.2L297.1,93.4L301.8,86.6L303.4,85.9L305.9,87.2L308.3,85.0L306.1,81.5L306.8,79.7L309.9,78.5L313.4,73.3L316.9,69.8L319.4,71.6L324.1,66.7L326.2,62.8L327.3,59.3L326.1,58.2L327.9,57.4L327.9,55.7L329.1,55.4L331.5,52.6L333.6,51.0L337.0,47.8L340.4,48.6L341.5,48.5L339.6,45.8L343.2,42.2L338.0,38.1L338.6,37.0L339.8,36.3L343.4,40.5L345.8,40.9L351.0,39.0L351.6,37.9L352.7,37.6L357.6,35.2L357.5,32.9L355.3,27.7L354.8,27.2L353.6,26.7L353.0,24.3L354.3,22.4L356.2,23.4L359.0,24.3L360.9,26.1L363.5,28.9L365.5,30.9L366.7,31.4L368.0,32.9L370.5,31.2L370.2,30.1L370.9,28.0L374.8,29.4L376.1,27.8L378.5,30.0L379.5,34.2L382.4,36.5L384.4,35.8L386.3,36.5L387.0,35.9L388.7,33.2L388.9,30.6L389.5,29.2L392.1,26.6L393.3,25.1L397.5,18.1L398.4,18.2L403.1,16.8L404.1,14.9L409.3,14.8L411.4,13.6L411.9,12.3L413.2,13.4L412.7,16.7L411.3,17.9L410.5,19.0L410.7,20.7L409.6,22.1L408.4,22.4L407.9,22.7L408.1,24.4L409.8,26.1L409.1,27.7L410.7,29.4L413.3,28.7L414.0,29.8L415.5,30.5L414.9,32.1L416.3,33.4L418.6,33.9L417.0,36.3L417.1,38.4L415.9,40.5L415.3,42.3L414.2,44.4L414.6,45.9L413.8,48.7L412.8,49.4L412.8,51.0L411.3,53.0L409.3,54.8L406.7,55.2L404.7,56.6L403.2,58.6L404.7,61.7L405.2,65.4L404.2,66.9L404.8,69.0L403.4,72.2L401.6,73.8L402.0,76.1L399.4,79.6L399.6,81.4L398.0,82.8L397.3,85.6L398.2,87.7L399.4,88.4L398.9,89.6L398.9,92.9L396.9,93.9L397.1,97.5L395.4,99.0L392.7,98.1L391.4,99.3L389.1,104.9L386.8,105.5L384.8,108.4L383.3,109.1L380.0,109.2L379.1,110.3L379.0,115.3L378.2,116.5L376.5,116.7L375.5,118.0L375.4,120.7L376.2,122.2L375.3,124.5L375.5,127.5L375.1,129.9L376.6,132.5L376.0,134.6L380.4,138.0L384.3,145.1L384.6,147.2L389.8,150.1L389.9,151.5L387.0,152.8L387.0,153.3L389.0,155.3L390.3,155.5L392.3,157.2L391.8,158.4L390.5,158.9L391.1,162.6L392.3,164.5L390.7,166.7L390.1,169.3L390.1,171.4L389.2,173.0L384.5,173.8L383.4,174.5L382.7,177.5L383.5,179.4L386.4,180.4L386.6,181.5L385.5,183.3L386.2,184.9L384.0,186.4L384.0,187.2L380.0,193.5L377.5,195.5L377.1,198.2L375.0,199.9L373.0,203.0L371.1,203.3L371.9,204.7L371.2,206.0L369.7,205.1L367.9,205.0L368.2,206.5L369.0,206.9Z" />
	</g>
</svg>
