<svg xmlns="http://www.w3.org/2000/svg" viewBox="0,0,423,600" width="100%" height="100%">
	<defs>
		<style type="text/css">
.qing-map-1616122450750
{
	fill: #DDDDDD;
	fill-opacity: 1.0;
	stroke: #FFFFFF;
	stroke-opacity: 1.0;
	stroke-width: 1;
}

.qing-map-1616122450750:hover
{
	fill: #56A4FF;
	fill-opacity: 1.0;
}
</style>
	</defs>
	<g>
		<path id="L1610962145009" name="张家口市" class="qing-map-1616122450750" d="M131.4,252.2L129.6,255.6L129.8,257.8L127.8,257.4L128.0,259.6L127.0,261.2L126.6,263.2L126.4,265.0L124.4,266.2L123.8,268.4L121.0,269.6L119.6,271.4L116.8,272.2L115.8,275.4L114.6,274.0L111.6,272.6L108.2,272.0L106.4,273.8L104.2,274.8L102.4,275.8L101.0,274.8L101.0,276.8L98.8,277.4L96.0,282.0L94.6,280.2L92.4,280.4L90.2,279.2L88.8,280.0L87.6,279.2L87.2,281.0L85.4,281.8L84.4,281.2L83.0,282.2L82.6,283.6L80.4,283.8L79.6,282.2L78.0,282.6L76.2,283.6L74.2,281.0L72.0,280.0L69.4,279.0L68.0,277.4L67.8,273.8L68.2,269.0L69.0,267.2L68.2,265.0L67.6,262.8L67.4,259.4L61.2,259.6L57.6,259.8L55.2,258.0L57.2,256.6L56.2,255.2L55.0,256.0L52.6,256.2L50.4,256.0L48.0,255.2L46.4,255.0L44.8,250.0L43.0,249.0L39.6,247.6L37.8,246.8L39.4,246.0L40.8,245.0L41.4,243.6L41.6,239.6L44.0,240.6L44.8,243.0L46.4,243.8L48.4,242.8L49.0,239.8L48.4,237.2L47.6,233.4L48.6,233.8L49.8,233.4L51.6,234.0L53.2,233.4L55.4,233.0L57.2,233.0L57.4,231.4L59.2,229.2L60.2,230.2L61.0,230.2L62.4,229.8L63.6,229.0L65.8,228.6L68.4,228.8L71.4,227.6L73.4,226.8L74.4,224.8L75.4,223.6L76.2,221.4L74.8,219.4L72.4,220.4L71.0,218.0L69.2,218.4L67.8,219.6L66.6,218.4L62.8,218.4L61.2,213.6L61.4,211.6L60.2,210.6L60.0,208.8L61.0,206.4L61.6,204.6L61.2,203.0L60.8,201.2L60.4,199.2L59.0,198.6L57.6,198.6L56.4,197.0L56.4,195.6L54.2,192.0L52.6,188.8L49.8,186.0L49.8,183.8L48.2,182.8L46.0,180.2L47.6,178.6L46.6,177.0L46.4,175.2L45.4,173.2L46.4,172.4L44.2,172.0L42.0,171.0L42.0,167.6L40.0,166.0L38.2,163.8L35.6,162.0L34.8,160.6L33.2,159.8L32.4,158.0L34.2,157.8L35.6,157.2L35.8,155.8L36.8,155.2L37.8,153.2L39.6,152.0L42.4,151.4L43.2,148.0L42.2,144.0L41.2,145.6L40.2,144.2L39.6,142.2L37.6,142.2L37.6,140.2L38.6,138.0L39.0,135.2L39.8,134.0L38.0,133.2L35.2,132.0L36.6,129.8L38.8,126.8L40.6,126.8L42.6,124.6L45.2,122.6L46.2,123.0L48.2,123.0L50.8,122.8L55.8,124.6L57.4,123.8L57.6,122.0L57.0,119.8L58.2,117.6L57.2,115.4L59.2,115.4L56.8,108.6L58.6,109.2L56.2,104.8L55.8,102.0L57.2,99.0L58.4,96.8L60.6,95.8L61.4,94.4L62.0,92.6L63.8,90.2L65.2,87.8L66.4,87.4L69.0,88.8L72.2,87.6L75.0,85.6L73.4,83.6L73.0,81.6L72.6,79.6L74.4,77.6L74.6,75.8L76.0,73.4L78.8,72.6L83.2,74.2L86.0,73.4L89.0,74.2L91.0,73.0L92.8,71.0L94.4,71.2L94.6,72.8L96.6,74.6L96.6,78.2L98.6,80.4L99.6,82.4L100.2,85.4L101.0,88.0L100.0,89.0L100.4,91.4L100.0,93.0L100.4,94.2L101.0,95.8L99.6,98.2L98.4,98.6L97.2,99.6L98.6,101.6L99.4,112.8L97.6,115.2L97.2,116.4L102.8,115.4L106.2,116.0L109.0,116.6L111.2,115.2L114.2,115.6L117.6,116.6L118.2,119.0L120.8,118.8L122.0,115.6L124.4,117.4L128.8,117.0L127.2,114.2L128.0,111.2L126.2,110.6L125.2,108.2L131.0,106.2L135.2,104.0L138.8,102.4L145.8,98.2L150.6,94.4L151.2,92.0L152.8,93.2L155.2,91.0L157.6,88.2L162.0,88.2L167.6,97.4L169.4,102.2L172.6,101.8L169.6,106.8L161.8,112.6L163.6,118.6L165.6,121.2L166.2,125.2L167.4,128.0L168.6,131.2L170.8,134.6L173.8,135.0L177.8,136.2L180.6,139.6L179.8,145.6L182.2,150.2L181.4,153.0L183.0,154.0L182.4,156.2L186.0,160.8L184.2,163.4L186.2,166.0L189.0,168.8L190.4,171.0L188.2,173.6L192.2,179.2L195.0,181.4L196.6,184.0L195.2,185.8L192.6,185.0L187.4,185.2L186.6,186.4L184.2,186.0L183.2,184.0L182.0,186.2L179.0,190.0L178.2,194.0L176.2,194.0L174.6,195.4L174.4,197.0L173.2,197.2L169.8,199.6L167.6,200.4L165.6,200.6L164.4,198.8L161.6,198.0L160.4,199.2L157.4,200.2L155.8,202.8L151.8,206.8L153.8,208.2L153.6,212.4L158.4,218.6L162.2,220.0L165.8,226.4L163.6,227.6L161.4,229.6L159.8,233.2L158.4,233.4L158.8,236.4L155.4,236.2L154.4,234.4L152.2,235.6L151.0,237.8L149.6,237.6L145.8,237.6L144.4,239.0L141.8,239.0L142.0,240.8L140.2,240.6L139.0,242.2L136.8,243.4L134.6,245.8L133.2,248.2Z" />
		<path id="L1611021094017" name="保定市" class="qing-map-1616122450750" d="M131.4,252.2L129.6,255.6L129.8,257.8L127.8,257.4L128.0,259.6L127.0,261.2L126.6,263.2L126.4,265.0L124.4,266.2L123.8,268.4L121.0,269.6L119.6,271.4L116.8,272.2L115.8,275.4L114.6,274.0L111.6,272.6L108.2,272.0L106.4,273.8L104.2,274.8L102.4,275.8L101.0,274.8L101.0,276.8L98.8,277.4L96.0,282.0L94.6,280.2L92.4,280.4L90.2,279.2L88.8,280.0L87.6,279.2L87.2,281.0L85.4,281.8L84.4,281.2L83.0,282.2L82.6,283.6L80.4,283.8L79.6,282.2L78.0,282.6L77.8,285.0L76.8,287.2L76.8,289.8L74.8,290.6L74.4,292.4L73.0,295.6L73.0,300.8L72.0,302.8L69.8,304.0L70.0,306.2L70.4,308.2L69.2,310.0L72.2,311.2L72.6,313.6L71.2,314.0L70.6,315.4L68.4,315.2L66.8,315.8L67.0,317.2L66.0,318.0L66.0,319.4L65.4,321.0L65.0,322.2L64.0,322.6L62.8,323.2L61.2,323.0L59.2,323.2L57.4,323.6L56.0,325.2L53.8,324.2L53.0,325.0L51.0,325.2L50.2,323.2L48.8,322.2L47.6,322.2L46.8,320.4L46.0,319.0L43.2,320.0L42.2,321.8L40.4,321.0L38.4,324.0L36.2,323.8L32.6,328.0L31.0,330.2L29.4,329.4L28.8,332.4L29.4,333.8L29.0,336.0L29.8,336.8L28.6,338.2L30.4,340.0L33.8,342.0L33.8,343.8L32.8,345.4L32.4,347.4L32.2,349.2L35.4,349.4L38.2,351.8L38.4,353.0L41.2,353.0L42.4,355.4L43.6,354.2L46.0,354.0L48.4,356.4L50.4,356.0L51.6,354.8L53.6,355.8L55.6,353.6L59.0,353.4L63.2,352.8L65.4,354.6L68.2,352.8L69.8,354.0L71.4,353.0L77.4,359.0L76.4,361.4L78.4,361.4L84.8,370.6L87.2,368.8L88.2,370.4L89.2,368.8L93.8,369.6L94.8,371.6L94.6,373.4L95.8,372.6L96.4,374.0L98.4,375.2L100.8,378.8L100.6,381.4L101.6,382.2L97.8,385.8L98.6,388.0L101.0,387.0L104.0,387.2L104.4,388.4L106.4,387.8L108.0,388.4L108.8,387.8L109.2,386.2L112.0,387.8L113.2,387.4L114.4,388.4L116.0,387.8L118.0,389.8L119.6,388.2L119.6,386.2L121.4,385.8L122.2,387.8L123.4,389.6L125.4,388.8L127.6,388.6L128.0,386.6L129.4,386.2L129.0,383.2L130.8,382.6L133.8,383.2L135.6,381.8L136.8,380.6L138.0,383.6L139.6,382.8L141.6,381.6L145.0,382.8L146.8,381.4L148.2,381.4L149.0,379.2L150.8,378.0L150.4,374.8L150.0,373.0L151.6,370.2L153.6,370.2L153.6,368.4L156.0,366.8L159.6,368.4L158.6,366.4L160.0,366.4L161.6,366.8L163.4,366.2L164.2,363.0L164.8,359.8L166.2,358.0L165.4,355.2L165.0,351.8L164.2,349.6L166.2,348.0L168.4,344.2L169.6,344.6L169.6,342.2L170.8,339.6L170.4,338.2L174.6,336.6L176.8,333.4L180.0,335.8L185.0,333.0L188.6,329.8L186.2,329.4L186.0,327.2L187.2,326.4L187.0,324.0L186.6,321.8L185.2,320.2L183.8,318.8L181.6,316.8L180.6,313.8L180.4,312.2L179.2,311.4L180.4,307.8L180.4,302.8L179.2,300.4L175.6,300.8L174.8,298.2L175.8,296.4L176.0,293.8L177.4,290.8L178.8,289.0L180.6,287.8L183.2,287.6L182.6,284.4L180.0,282.0L177.6,282.6L174.4,283.8L173.4,282.6L169.2,283.2L167.8,282.6L166.4,281.0L166.4,282.6L165.0,283.4L162.8,281.2L161.8,282.8L161.0,284.6L159.6,285.0L158.2,284.6L157.8,285.4L156.8,286.2L156.6,287.4L153.2,287.8L151.8,286.0L150.0,285.4L149.4,283.8L148.4,282.8L147.2,279.8L146.0,280.8L142.8,280.8L140.8,281.2L139.2,279.6L138.0,280.6L137.8,278.6L137.0,276.6L135.4,276.0L135.8,274.6L135.8,273.4L136.0,270.2L133.2,268.6L132.2,266.8L133.2,265.6L135.4,265.0L136.6,265.8L138.6,265.2L141.2,263.8L137.6,261.2L138.2,259.0L136.6,258.0L137.8,256.8L136.0,254.8Z" />
		<path id="L1611022105269" name="石家庄市" class="qing-map-1616122450750" d="M125.4,388.8L123.4,389.6L122.2,387.8L121.4,385.8L119.6,386.2L119.6,388.2L118.0,389.8L116.0,387.8L114.4,388.4L113.2,387.4L112.0,387.8L109.2,386.2L108.8,387.8L108.0,388.4L106.4,387.8L104.4,388.4L104.0,387.2L101.0,387.0L98.6,388.0L97.8,385.8L101.6,382.2L100.6,381.4L100.8,378.8L98.4,375.2L96.4,374.0L95.8,372.6L94.6,373.4L94.8,371.6L93.8,369.6L89.2,368.8L88.2,370.4L87.2,368.8L84.8,370.6L78.4,361.4L76.4,361.4L77.4,359.0L71.4,353.0L69.8,354.0L68.2,352.8L65.4,354.6L63.2,352.8L59.0,353.4L55.6,353.6L53.6,355.8L51.6,354.8L50.4,356.0L48.4,356.4L46.0,354.0L43.6,354.2L42.4,355.4L41.2,353.0L38.4,353.0L38.2,351.8L35.4,349.4L32.2,349.2L30.4,348.8L28.8,351.2L29.2,352.6L27.6,352.8L25.2,351.6L25.6,356.2L23.2,357.2L19.8,356.8L18.6,358.2L18.2,360.4L19.0,361.4L15.8,363.8L15.6,366.8L14.6,367.8L15.4,369.0L15.4,370.2L17.4,372.0L16.2,372.6L16.0,375.2L14.2,374.8L14.0,377.4L13.4,378.6L14.2,379.6L16.0,381.8L14.8,383.8L14.8,388.0L16.2,389.8L18.2,390.0L20.0,390.6L21.4,390.4L23.4,392.6L24.8,391.8L25.6,393.6L26.4,393.6L25.6,395.0L26.8,395.6L28.6,395.8L32.6,395.4L31.8,397.4L30.8,400.2L34.0,402.8L36.0,404.2L35.0,405.6L35.8,406.4L34.8,407.2L35.4,408.2L35.4,409.2L37.4,410.2L38.6,412.4L38.2,414.2L40.2,415.2L41.0,418.4L40.8,420.2L41.4,423.2L43.6,423.4L45.4,425.4L45.8,428.4L43.4,428.8L42.4,431.2L44.6,430.6L46.8,430.2L48.6,431.8L51.4,433.6L51.6,436.4L50.2,438.6L51.4,439.8L49.2,443.4L47.8,446.4L44.2,452.6L45.4,453.2L49.2,448.0L50.8,449.6L53.2,445.8L57.6,447.6L60.2,448.4L62.6,447.4L65.0,446.8L68.6,444.2L71.2,442.4L74.8,442.2L79.8,444.6L85.4,443.6L86.4,439.4L89.2,438.8L91.2,438.8L92.8,438.0L93.6,435.2L95.6,434.4L97.2,431.6L100.6,430.6L102.6,431.0L104.6,430.4L106.6,429.0L108.8,429.2L109.6,426.2L111.2,424.0L115.2,425.4L114.8,427.0L118.8,429.4L120.8,431.4L121.4,433.6L120.6,436.6L123.0,438.0L123.8,436.0L125.4,435.4L125.2,432.2L126.4,430.8L128.6,431.0L127.2,429.0L128.4,426.6L126.8,424.0L127.6,423.0L127.4,421.2L130.0,420.4L129.8,419.2L127.6,418.6L128.2,416.8L129.8,415.2L131.0,413.8L133.2,414.2L133.8,412.2L133.2,409.0L134.0,405.6L135.4,403.0L135.0,401.4L132.8,401.8L130.6,401.4L127.2,396.8L127.2,392.6L125.4,391.0Z" />
		<path id="L1611022431533" name="衡水市" class="qing-map-1616122450750" d="M148.2,381.4L146.8,381.4L145.0,382.8L141.6,381.6L139.6,382.8L138.0,383.6L136.8,380.6L135.6,381.8L133.8,383.2L130.8,382.6L129.0,383.2L129.4,386.2L128.0,386.6L127.6,388.6L125.4,388.8L125.4,388.8L125.4,391.0L127.2,392.6L127.2,396.8L130.6,401.4L132.8,401.8L135.0,401.4L135.4,403.0L134.0,405.6L133.2,409.0L133.8,412.2L133.2,414.2L131.0,413.8L129.8,415.2L128.2,416.8L127.6,418.6L129.8,419.2L130.0,420.4L127.4,421.2L127.6,423.0L126.8,424.0L128.4,426.6L127.2,429.0L128.6,431.0L126.4,430.8L125.2,432.2L125.4,435.4L123.8,436.0L123.0,438.0L120.6,436.6L117.6,437.2L117.8,439.2L116.0,440.0L118.0,442.0L117.6,443.8L120.2,442.0L123.2,442.2L125.2,443.6L127.2,446.0L127.8,443.6L130.2,445.4L132.8,447.2L129.8,447.8L131.8,450.0L130.4,451.4L128.8,450.2L128.4,451.2L126.6,451.2L128.8,454.2L131.2,456.2L134.8,457.2L137.8,459.0L138.2,461.2L140.0,462.2L142.0,461.2L142.6,462.6L144.4,464.2L143.6,465.8L146.4,464.8L147.2,466.6L149.8,467.2L150.4,469.4L153.4,472.2L152.8,475.6L154.6,477.8L156.2,478.0L157.4,481.6L158.4,483.0L159.2,481.0L160.6,478.6L160.4,475.2L162.0,473.4L161.4,471.4L162.6,470.2L164.8,470.0L166.0,468.6L165.0,466.8L166.0,464.0L166.4,461.8L167.6,460.2L170.0,459.4L172.4,458.6L175.6,458.0L178.0,457.6L180.8,458.4L183.0,458.2L185.0,456.4L184.0,454.2L181.4,454.2L182.8,452.6L181.6,451.4L182.8,449.4L185.0,450.6L185.8,448.4L185.8,447.0L185.8,444.8L187.2,443.0L188.2,441.8L188.6,439.4L190.8,438.6L190.8,436.6L192.2,432.8L193.4,430.0L195.0,429.2L195.2,427.4L197.4,425.4L196.8,423.0L196.4,419.4L199.4,419.4L199.4,417.6L201.4,414.4L203.0,407.2L193.2,407.4L187.8,407.2L187.0,409.4L183.6,411.0L181.4,412.8L179.6,410.8L178.0,412.6L178.4,414.6L175.0,415.6L173.2,415.4L174.4,413.0L172.8,410.4L169.6,406.4L171.8,405.4L170.2,402.8L169.0,400.8L170.6,399.2L170.4,397.2L166.2,398.0L164.0,397.4L163.4,395.4L160.4,395.8L161.2,393.6L159.2,390.8L159.6,387.6L157.2,385.6L157.6,383.4L157.6,381.8L155.0,382.0L152.6,380.6Z" />
		<path id="L1611024179349" name="邢台市" class="qing-map-1616122450750" d="M158.4,483.0L157.4,481.6L156.2,478.0L154.6,477.8L152.8,475.6L153.4,472.2L150.4,469.4L149.8,467.2L147.2,466.6L146.4,464.8L143.6,465.8L144.4,464.2L142.6,462.6L142.0,461.2L140.0,462.2L138.2,461.2L137.8,459.0L134.8,457.2L131.2,456.2L128.8,454.2L126.6,451.2L128.4,451.2L128.8,450.2L130.4,451.4L131.8,450.0L129.8,447.8L132.8,447.2L130.2,445.4L127.8,443.6L127.2,446.0L125.2,443.6L123.2,442.2L120.2,442.0L117.6,443.8L118.0,442.0L116.0,440.0L117.8,439.2L117.6,437.2L120.6,436.6L121.4,433.6L120.8,431.4L118.8,429.4L114.8,427.0L115.2,425.4L111.2,424.0L109.6,426.2L108.8,429.2L106.6,429.0L104.6,430.4L102.6,431.0L100.6,430.6L97.2,431.6L95.6,434.4L93.6,435.2L92.8,438.0L91.2,438.8L89.2,438.8L86.4,439.4L85.4,443.6L79.8,444.6L74.8,442.2L71.2,442.4L68.6,444.2L65.0,446.8L62.6,447.4L60.2,448.4L57.6,447.6L53.2,445.8L50.8,449.6L49.2,448.0L45.4,453.2L42.6,454.8L40.4,457.0L40.4,460.2L39.0,460.4L37.4,462.2L36.4,463.6L37.2,465.4L36.2,465.8L35.8,468.0L34.2,470.6L32.6,473.4L31.2,474.2L29.2,475.2L28.8,477.2L28.6,479.0L28.0,481.6L30.8,483.2L28.6,486.4L30.0,487.0L31.4,485.8L34.8,486.0L36.4,488.4L38.6,487.6L39.6,490.0L41.4,491.0L42.6,494.4L44.6,495.6L46.0,497.2L47.4,496.8L48.2,499.6L51.0,499.6L53.8,499.4L56.2,499.6L58.2,498.2L61.4,500.0L63.8,498.4L65.6,499.8L67.0,498.4L69.0,500.6L72.0,499.6L77.2,500.6L77.0,495.8L81.6,495.6L84.4,495.2L85.2,493.8L86.8,494.4L88.2,492.0L91.8,493.8L95.0,491.2L99.4,490.4L102.4,491.6L107.6,489.8L112.2,490.0L113.4,492.4L112.0,492.6L114.4,494.8L116.4,496.6L115.6,498.8L118.0,497.4L122.0,497.8L125.4,496.6L125.0,499.6L125.6,502.2L125.6,504.6L127.8,504.8L130.6,506.0L135.0,506.8L136.2,505.0L138.2,505.6L139.0,504.4L140.0,504.4L141.6,504.6L145.4,502.8L148.2,502.2L148.4,499.0L149.8,495.8L152.4,494.4L152.4,492.6L154.8,490.0L154.0,487.8L155.8,486.2Z" />
		<path id="L1611024536068" name="邯郸市" class="qing-map-1616122450750" d="M135.0,506.8L130.6,506.0L127.8,504.8L125.6,504.6L125.6,502.2L125.0,499.6L125.4,496.6L122.0,497.8L118.0,497.4L115.6,498.8L116.4,496.6L114.4,494.8L112.0,492.6L113.4,492.4L112.2,490.0L107.6,489.8L102.4,491.6L99.4,490.4L95.0,491.2L91.8,493.8L88.2,492.0L86.8,494.4L85.2,493.8L84.4,495.2L81.6,495.6L77.0,495.8L77.2,500.6L72.0,499.6L69.0,500.6L67.0,498.4L65.6,499.8L63.8,498.4L61.4,500.0L58.2,498.2L56.2,499.6L53.8,499.4L51.0,499.6L48.2,499.6L47.4,496.8L46.0,497.2L44.6,495.6L42.6,494.4L41.4,491.0L39.6,490.0L38.6,487.6L36.4,488.4L34.8,486.0L31.4,485.8L30.0,487.0L29.2,489.0L28.4,490.4L30.4,496.2L27.4,499.4L26.0,497.4L24.6,496.0L22.8,498.2L22.8,500.2L23.8,500.4L22.4,501.2L22.8,503.0L20.6,503.8L18.0,506.6L16.4,505.6L14.6,506.8L13.6,508.6L11.6,507.6L10.0,508.4L10.4,509.8L11.8,509.6L13.2,511.0L10.8,513.2L11.0,515.4L15.0,516.8L14.4,518.4L17.6,521.8L15.6,523.0L15.2,526.4L17.2,527.4L17.2,529.0L20.2,529.6L21.8,531.2L23.8,532.0L25.8,534.4L26.8,537.0L28.6,536.8L30.8,538.8L33.8,539.4L33.8,538.0L35.8,537.8L37.0,540.4L38.8,540.4L39.4,539.0L39.8,537.2L40.8,538.0L41.4,539.6L42.8,539.4L41.6,537.8L42.8,537.8L43.6,538.0L45.0,538.4L46.0,540.0L45.8,542.2L47.0,543.8L48.4,543.6L50.6,544.0L51.6,543.2L53.4,544.0L53.2,546.4L55.0,545.6L56.0,543.4L58.0,544.8L59.6,545.0L61.6,545.8L63.6,545.2L65.0,547.0L66.8,547.6L68.0,547.0L67.8,549.0L68.8,549.0L70.2,549.0L71.6,549.4L72.4,550.8L74.4,551.4L78.0,553.0L79.6,554.0L78.4,555.8L80.6,555.4L82.4,555.0L83.4,553.6L85.8,554.2L88.8,553.0L90.0,554.6L91.4,554.8L93.6,554.8L94.8,555.0L96.2,555.0L96.4,553.8L99.2,554.2L100.0,556.0L100.6,557.6L100.6,561.2L102.4,559.6L105.0,559.8L105.8,558.2L108.4,556.4L107.8,553.2L109.0,551.2L111.4,551.8L112.0,549.8L114.2,549.0L115.4,550.2L117.6,549.4L120.8,549.8L121.8,551.6L123.0,554.4L124.6,555.6L123.2,556.8L124.8,558.0L126.4,558.4L128.6,557.4L128.8,555.0L130.0,553.4L131.4,554.6L132.4,553.6L133.4,551.6L134.6,553.2L135.6,552.0L135.0,549.8L135.4,546.6L134.6,544.4L133.0,543.6L131.6,541.8L131.6,539.8L129.8,539.8L128.0,540.6L128.6,538.4L127.4,537.4L126.4,535.2L126.2,533.6L124.4,533.0L125.0,530.6L125.2,529.2L123.4,528.8L122.6,527.0L123.2,524.2L124.6,523.8L126.0,522.2L126.4,520.2L126.4,517.2L127.0,516.0L129.2,516.0L130.0,514.0L131.6,511.6Z" />
		<path id="L1610962370022" name="廊坊市" class="qing-map-1616122450750" d="M183.2,287.6L180.6,287.8L178.8,289.0L177.4,290.8L176.0,293.8L175.8,296.4L174.8,298.2L175.6,300.8L179.2,300.4L180.4,302.8L180.4,307.8L179.2,311.4L180.4,312.2L180.6,313.8L181.6,316.8L183.8,318.8L185.2,320.2L186.6,321.8L187.0,324.0L187.2,326.4L186.0,327.2L186.2,329.4L188.6,329.8L185.0,333.0L180.0,335.8L180.4,339.0L182.4,340.8L185.0,342.4L185.0,344.8L188.2,344.4L190.8,345.2L191.6,346.6L193.2,346.0L194.8,348.8L193.6,352.4L191.2,353.6L189.6,355.4L191.6,359.6L191.6,361.0L193.8,361.4L195.6,362.8L195.4,363.8L196.0,364.6L194.2,365.6L195.6,366.6L195.8,368.2L198.2,369.6L201.2,369.4L202.4,368.6L203.0,371.0L204.0,370.2L205.2,370.4L205.6,368.6L207.2,368.6L208.8,366.2L207.6,364.2L208.8,363.6L208.4,361.8L210.2,361.8L210.4,359.6L212.4,360.4L213.2,358.4L214.8,358.6L215.8,357.0L215.0,354.4L214.0,353.0L215.4,349.8L214.4,348.6L214.2,346.8L213.6,344.8L214.2,343.0L214.0,341.2L213.0,340.4L212.8,337.8L211.6,334.2L212.2,332.4L214.0,330.2L214.4,328.0L214.4,326.4L215.6,325.2L217.8,325.2L220.0,325.4L222.0,324.2L223.0,322.4L224.0,321.6L225.2,319.6L225.6,317.8L223.6,316.6L221.8,316.0L221.6,312.0L222.8,311.2L223.4,309.8L222.6,309.0L222.6,307.4L222.0,305.8L222.2,304.6L222.6,302.8L222.6,301.4L222.0,300.2L221.0,300.6L220.2,301.4L219.2,299.4L219.8,297.8L220.2,295.6L221.0,294.2L219.0,294.2L219.2,292.8L217.6,292.8L216.8,291.4L218.0,290.4L218.8,289.6L218.8,288.2L219.4,286.8L217.8,286.4L216.8,284.8L217.6,283.0L217.4,281.2L218.0,279.6L217.0,279.8L216.4,280.6L215.0,279.4L213.4,279.8L211.2,279.4L212.2,280.0L212.4,281.4L210.0,281.2L207.0,280.8L206.0,279.4L204.4,279.2L202.6,279.2L202.4,280.2L201.2,281.2L199.6,281.4L200.4,282.2L199.8,283.0L198.4,284.0L197.0,283.8L197.0,284.6L197.0,286.2L195.4,287.0L195.0,288.0L193.2,287.2L193.4,289.2L194.2,290.2L195.4,291.6L195.8,292.8L188.8,292.4L187.0,290.0ZM231.0,276.6L237.8,279.8L239.0,279.6L240.8,277.8L240.0,276.6L240.6,274.2L240.4,271.4L239.4,270.4L240.2,269.6L242.0,267.8L240.8,264.6L239.8,264.8L240.2,263.6L241.8,262.6L242.8,262.6L244.4,262.4L245.6,261.8L245.6,260.2L244.4,260.0L241.8,259.2L240.2,258.2L239.6,256.4L239.2,254.6L239.8,252.6L241.0,250.8L242.0,249.4L241.8,246.4L241.6,243.6L242.4,242.6L242.2,241.6L241.2,242.0L239.8,242.6L238.2,243.4L235.8,242.4L234.2,243.4L232.0,245.6L229.8,246.0L228.0,245.0L227.4,244.2L226.4,244.8L225.6,244.0L225.6,244.8L223.8,244.8L221.6,245.6L221.0,244.0L219.0,245.0L218.4,246.2L217.0,245.8L216.0,245.0L216.2,246.2L216.0,247.8L215.8,249.0L214.4,251.0L216.4,252.4L216.2,254.2L216.6,257.8L217.4,258.6L218.0,257.8L219.6,259.0L221.2,260.4L222.2,260.8L223.0,262.2L223.8,261.2L224.8,260.8L225.2,262.4L225.6,263.8L226.0,264.8L226.6,265.8L225.6,266.0L224.8,266.4L224.8,267.4L223.6,267.4L224.0,268.2L225.0,269.2L224.6,270.0L222.8,270.6L222.8,272.2L223.4,273.4L224.6,273.0L225.4,272.4L226.4,272.6L226.8,274.0L227.0,275.6L227.8,277.4Z" />
		<path id="L1611022987986" name="沧州市" class="qing-map-1616122450750" d="M215.4,349.8L214.0,353.0L215.0,354.4L215.8,357.0L214.8,358.6L213.2,358.4L212.4,360.4L210.4,359.6L210.2,361.8L208.4,361.8L208.8,363.6L207.6,364.2L208.8,366.2L207.2,368.6L205.6,368.6L205.2,370.4L204.0,370.2L203.0,371.0L202.4,368.6L201.2,369.4L198.2,369.6L195.8,368.2L195.6,366.6L194.2,365.6L196.0,364.6L195.4,363.8L195.6,362.8L193.8,361.4L191.6,361.0L191.6,359.6L189.6,355.4L191.2,353.6L193.6,352.4L194.8,348.8L193.2,346.0L191.6,346.6L190.8,345.2L188.2,344.4L185.0,344.8L185.0,342.4L182.4,340.8L180.4,339.0L180.0,335.8L176.8,333.4L174.6,336.6L170.4,338.2L170.8,339.6L169.6,342.2L169.6,344.6L168.4,344.2L166.2,348.0L164.2,349.6L165.0,351.8L165.4,355.2L166.2,358.0L164.8,359.8L164.2,363.0L163.4,366.2L161.6,366.8L160.0,366.4L158.6,366.4L159.6,368.4L156.0,366.8L153.6,368.4L153.6,370.2L151.6,370.2L150.0,373.0L150.4,374.8L150.8,378.0L149.0,379.2L148.2,381.4L152.6,380.6L155.0,382.0L157.6,381.8L157.6,383.4L157.2,385.6L159.6,387.6L159.2,390.8L161.2,393.6L160.4,395.8L163.4,395.4L164.0,397.4L166.2,398.0L170.4,397.2L170.6,399.2L169.0,400.8L170.2,402.8L171.8,405.4L169.6,406.4L172.8,410.4L174.4,413.0L173.2,415.4L175.0,415.6L178.4,414.6L178.0,412.6L179.6,410.8L181.4,412.8L183.6,411.0L187.0,409.4L187.8,407.2L193.2,407.4L203.0,407.2L201.4,414.4L199.4,417.6L199.4,419.4L196.4,419.4L196.8,423.0L197.4,425.4L195.2,427.4L195.0,429.2L193.4,430.0L192.2,432.8L190.8,436.6L190.8,438.6L188.6,439.4L188.2,441.8L189.0,442.8L190.4,442.8L191.2,444.4L190.0,445.0L191.6,447.0L194.4,450.2L195.6,448.0L197.6,446.6L199.8,444.4L202.6,440.8L205.2,438.6L207.6,435.0L207.8,433.8L208.6,433.8L210.0,430.2L211.6,429.6L212.4,427.4L214.0,428.0L214.4,426.4L214.2,424.6L215.6,423.4L216.4,421.2L218.2,420.8L220.0,421.8L222.4,421.4L226.4,421.4L230.0,421.8L232.0,421.8L235.2,420.8L239.4,421.8L241.0,421.0L246.0,421.6L249.6,420.0L255.6,421.2L261.6,414.0L262.8,408.6L265.0,405.2L266.6,403.2L271.4,403.2L273.6,402.8L275.4,401.2L277.2,398.6L277.6,396.2L280.2,395.6L279.2,392.8L281.8,389.4L283.4,386.4L285.4,384.4L284.2,383.0L281.8,384.0L277.0,381.8L274.0,378.0L269.6,369.8L266.6,362.6L264.0,359.8L263.0,360.8L260.4,359.8L255.4,361.6L255.0,362.8L253.2,363.6L252.6,362.4L251.8,363.6L249.2,364.0L248.6,362.6L247.6,364.0L246.0,364.6L245.2,363.4L245.8,362.4L244.6,361.8L245.6,360.6L244.8,359.6L243.8,359.0L243.6,357.6L242.2,359.2L239.8,360.4L238.0,361.4L236.6,361.6L235.4,361.4L234.2,360.0L233.2,357.6L234.4,355.0L231.8,354.0L232.2,352.6L230.8,352.8L230.4,354.0L229.0,353.4L226.8,354.6L225.4,354.4L222.6,354.4L222.0,352.4L221.8,349.8L220.0,349.6Z" />
		<path id="L1610962384086" name="承德市" class="qing-map-1616122450750" d="M172.6,101.8L169.6,106.8L161.8,112.6L163.6,118.6L165.6,121.2L166.2,125.2L167.4,128.0L168.6,131.2L170.8,134.6L173.8,135.0L177.8,136.2L180.6,139.6L179.8,145.6L182.2,150.2L181.4,153.0L183.0,154.0L182.4,156.2L186.0,160.8L184.2,163.4L186.2,166.0L189.0,168.8L190.4,171.0L192.2,174.2L197.4,175.2L195.6,170.0L196.2,168.4L199.8,168.8L202.4,167.6L205.0,168.6L206.8,165.2L206.0,162.6L207.4,162.0L210.2,163.2L211.0,165.2L210.2,168.4L212.2,171.8L212.6,174.6L215.6,176.2L217.6,179.0L219.6,179.6L222.4,182.6L224.0,184.6L225.4,187.0L227.6,190.6L229.8,191.8L236.6,191.2L240.4,191.4L247.0,194.0L250.2,194.6L254.8,193.2L261.0,194.0L261.2,196.4L258.2,195.8L256.8,197.4L256.0,200.2L255.8,201.8L253.8,202.2L251.6,201.4L249.4,201.6L245.8,203.8L246.8,206.2L243.4,206.8L245.0,211.0L246.0,212.2L244.6,214.2L244.8,216.4L244.2,218.0L245.2,218.6L245.8,220.6L247.2,221.8L247.2,223.8L248.8,225.4L250.0,225.0L250.8,228.6L252.0,229.4L254.2,229.8L255.6,228.2L257.4,228.0L261.2,229.8L264.2,230.0L264.6,231.8L266.0,233.2L270.0,231.8L271.2,231.0L270.4,228.6L273.8,229.4L276.2,229.4L280.2,227.4L283.6,227.2L285.8,226.2L286.2,225.2L292.4,225.0L296.2,222.0L296.8,219.8L299.4,219.4L302.2,216.6L302.0,215.0L305.0,212.8L307.0,210.6L309.8,213.8L312.4,213.6L317.0,213.8L320.0,215.0L324.0,216.0L327.4,214.6L325.8,217.4L325.4,222.2L327.2,225.2L329.8,221.6L333.0,218.0L331.4,215.2L330.2,213.0L334.0,211.0L335.2,208.8L337.2,209.4L340.8,208.8L343.0,205.2L346.0,205.6L347.2,204.4L351.0,204.8L351.6,203.2L354.0,201.0L357.6,199.0L359.2,200.4L361.6,199.0L364.4,198.0L364.0,196.4L365.8,193.8L364.4,192.2L361.8,193.8L359.4,193.6L358.4,194.2L356.0,192.0L354.0,191.6L352.6,189.8L351.4,187.6L348.8,186.6L348.8,185.2L347.2,184.4L345.6,183.2L345.2,181.4L346.4,179.6L347.4,176.8L347.8,173.6L348.8,169.6L351.2,170.0L355.6,166.6L351.0,164.8L350.4,162.6L352.4,160.0L355.8,161.0L357.0,160.6L358.6,161.0L359.2,155.6L362.0,155.2L363.8,153.4L367.0,150.0L365.4,148.4L367.2,147.4L367.6,145.8L370.0,143.6L369.0,141.2L366.8,143.2L363.0,142.6L359.8,142.4L357.0,142.0L353.8,141.4L349.6,141.0L346.8,141.2L345.2,138.6L344.2,136.4L344.2,135.0L343.0,135.8L342.0,136.6L340.6,137.4L339.4,139.2L336.4,139.4L334.0,137.8L332.8,137.8L328.6,138.0L326.6,137.8L325.0,137.6L322.8,138.0L318.6,138.8L317.6,140.0L317.0,141.0L315.0,139.2L314.4,137.8L314.2,135.6L314.6,134.4L313.8,133.4L313.8,132.0L313.8,130.8L311.8,128.8L309.0,128.2L310.0,126.4L311.0,125.2L312.2,124.2L311.0,121.8L310.8,120.0L310.0,119.4L308.2,119.0L307.4,118.6L306.0,117.2L305.2,115.6L305.4,114.2L304.6,112.6L302.6,110.8L303.0,109.2L301.8,107.2L300.6,105.8L301.2,104.2L301.6,102.0L302.6,99.0L305.0,98.6L306.6,100.0L307.8,102.4L309.4,103.2L310.6,102.2L313.2,96.2L313.2,94.6L312.0,92.4L309.0,90.0L310.4,88.6L310.6,86.2L311.6,84.4L310.0,82.0L307.4,82.0L309.0,81.0L310.0,79.4L308.6,76.6L306.4,75.6L306.0,77.6L304.6,79.8L302.2,81.4L298.8,80.0L300.6,79.2L300.6,77.4L302.0,77.8L302.2,75.8L300.6,75.4L298.2,74.6L298.6,71.2L298.8,69.4L297.4,67.8L294.2,66.6L290.6,62.6L293.4,61.0L295.4,59.8L295.8,57.6L294.2,56.4L293.0,53.6L293.6,51.0L292.4,48.0L289.4,47.2L288.2,44.8L283.8,41.0L283.2,38.4L281.6,36.0L279.4,33.4L280.0,31.8L277.6,32.2L273.4,34.0L268.8,34.4L265.4,32.4L263.6,33.6L260.0,32.8L257.2,34.6L256.6,37.4L254.4,39.0L255.8,40.4L255.8,43.0L252.8,44.6L248.6,44.2L246.8,43.2L242.8,43.8L238.2,44.2L235.4,42.6L234.6,44.4L232.0,45.4L230.6,45.2L230.2,46.2L230.2,47.8L229.2,48.0L227.8,47.8L226.0,49.2L223.4,51.4L223.2,52.8L223.4,54.6L223.8,56.4L224.2,58.2L224.4,62.4L225.2,66.4L222.8,67.4L220.6,66.8L219.6,66.8L217.6,66.6L216.8,66.2L217.4,67.6L218.2,69.6L220.0,69.4L221.2,70.2L220.8,71.6L221.4,72.4L222.2,74.4L223.2,75.8L222.8,77.6L222.8,79.8L222.0,81.8L217.2,85.2L214.8,84.2L214.2,85.8L212.4,87.4L209.4,88.2L206.2,89.2L203.4,89.8L201.4,88.6L200.4,87.0L198.6,85.0L194.2,88.2L193.4,87.8L192.0,87.4L193.2,86.0L194.4,84.0L193.0,83.6L191.2,83.2L187.0,83.2L186.6,85.8L184.0,87.4L181.6,89.6L180.0,92.4L180.8,93.0L179.8,94.4L178.2,94.4L176.0,95.0L174.6,94.8L175.2,96.8L175.6,99.2L174.4,100.2Z" />
		<path id="L1611024867826" name="唐山市" class="qing-map-1616122450750" d="M371.4,296.6L370.4,294.4L367.4,292.2L365.0,291.2L361.4,291.8L359.4,290.4L357.4,291.6L355.2,290.4L354.8,288.0L351.6,286.8L353.2,285.2L350.4,283.8L347.6,284.6L347.6,282.8L346.2,281.6L345.4,278.0L342.4,272.6L340.2,267.4L341.8,267.0L341.8,265.6L343.4,264.8L343.2,262.2L345.0,260.0L345.8,254.2L347.6,252.8L346.6,249.8L346.4,246.8L345.8,242.8L349.6,240.2L350.2,236.6L348.6,235.0L346.2,234.4L343.8,234.0L341.0,232.4L338.0,233.0L337.0,231.6L333.4,228.2L329.6,226.8L327.2,225.2L325.4,222.2L325.8,217.4L327.4,214.6L324.0,216.0L320.0,215.0L317.0,213.8L312.4,213.6L309.8,213.8L307.0,210.6L305.0,212.8L302.0,215.0L302.2,216.6L299.4,219.4L296.8,219.8L296.2,222.0L292.4,225.0L286.2,225.2L285.8,226.2L283.6,227.2L280.2,227.4L276.2,229.4L273.8,229.4L270.4,228.6L271.2,231.0L270.0,231.8L266.0,233.2L267.8,235.2L269.6,237.0L270.8,239.6L270.6,240.6L272.0,240.8L272.0,242.0L273.4,241.0L275.2,242.0L276.4,242.4L277.6,243.8L276.4,244.6L275.6,247.2L276.6,246.8L278.8,246.6L279.4,248.2L279.2,249.4L278.0,251.6L276.8,250.6L274.2,249.6L271.4,250.8L268.4,250.8L267.8,249.2L262.8,248.4L263.8,250.6L263.0,252.4L261.4,253.2L262.2,254.8L261.6,256.4L262.4,258.4L263.8,261.8L264.6,264.6L264.2,267.0L266.4,268.2L266.0,270.6L266.8,272.0L268.6,273.0L270.0,274.0L271.2,277.2L270.2,278.6L269.4,280.2L270.4,281.6L272.0,282.0L274.0,283.4L272.4,284.0L274.0,284.8L274.2,286.2L275.6,285.4L276.0,284.2L276.4,283.0L276.4,281.4L277.8,281.4L279.4,281.4L281.2,282.2L283.4,281.2L287.0,281.8L287.8,283.0L287.2,284.8L286.8,287.4L285.4,289.0L285.8,291.2L284.4,292.0L284.8,295.4L283.6,296.0L282.6,296.4L283.8,297.0L284.2,298.0L284.2,298.8L282.0,299.0L280.0,299.0L280.0,300.0L281.2,300.2L283.2,300.0L283.2,301.8L282.4,301.8L284.2,302.6L285.6,303.2L290.6,304.0L292.0,306.2L293.8,306.2L295.6,308.2L296.0,310.0L293.8,310.8L294.6,311.8L297.6,312.2L300.4,313.4L301.8,315.4L304.4,321.0L308.6,325.8L311.2,325.8L313.4,327.4L314.8,326.4L317.0,325.2L318.2,326.8L321.6,325.2L322.0,322.4L323.6,322.8L323.4,321.4L325.8,320.4L327.0,318.8L325.6,316.8L327.2,316.8L330.2,316.4L334.8,316.2L336.8,318.2L339.6,318.4L343.0,317.0L346.2,314.0L347.2,316.0L350.6,315.0L355.4,313.0L359.4,308.6L364.0,304.2L367.2,298.8L369.0,298.4ZM339.0,324.2L339.8,326.0L336.2,328.4L336.4,327.0L336.2,325.4ZM348.8,319.0L351.4,318.2L353.0,315.8L351.4,316.2L351.2,317.2ZM324.4,335.2L327.0,333.8L324.4,327.8L325.8,326.4L322.6,324.8L320.6,327.2L322.0,329.6L322.0,331.4L322.8,333.8ZM320.6,333.2L319.2,331.8L319.4,327.8L320.0,331.2ZM317.4,331.6L317.2,330.2L314.8,330.2ZM273.2,302.0L273.2,304.0L270.6,303.8L270.6,302.0L269.4,302.4L268.2,302.0L264.2,301.8L262.8,300.4L267.2,297.0L268.4,295.6L270.4,297.2L271.8,296.4L272.8,297.6L273.4,298.4L274.0,297.4L275.8,296.8L277.6,297.4L279.6,298.2L278.2,300.8Z" />
		<path id="L1610962408750" name="秦皇岛市" class="qing-map-1616122450750" d="M364.4,198.0L361.6,199.0L359.2,200.4L357.6,199.0L354.0,201.0L351.6,203.2L351.0,204.8L347.2,204.4L346.0,205.6L343.0,205.2L340.8,208.8L337.2,209.4L335.2,208.8L334.0,211.0L330.2,213.0L331.4,215.2L333.0,218.0L329.8,221.6L327.2,225.2L329.6,226.8L333.4,228.2L337.0,231.6L338.0,233.0L341.0,232.4L343.8,234.0L346.2,234.4L348.6,235.0L350.2,236.6L349.6,240.2L345.8,242.8L346.4,246.8L346.6,249.8L347.6,252.8L345.8,254.2L345.0,260.0L343.2,262.2L343.4,264.8L341.8,265.6L341.8,267.0L340.2,267.4L342.4,272.6L345.4,278.0L346.2,281.6L347.6,282.8L347.6,284.6L350.4,283.8L353.2,285.2L351.6,286.8L354.8,288.0L355.2,290.4L357.4,291.6L359.4,290.4L361.4,291.8L365.0,291.2L367.4,292.2L370.4,294.4L371.4,296.6L373.0,295.4L372.4,294.2L372.8,292.8L371.6,292.6L370.6,292.2L370.0,291.4L370.6,289.6L370.8,285.8L376.6,270.6L383.4,263.8L385.2,263.4L387.4,263.4L387.6,262.2L386.6,261.2L387.2,259.6L387.6,257.8L391.8,255.8L396.0,253.8L399.8,252.8L403.0,252.4L404.6,250.2L407.4,249.2L407.0,246.8L405.4,244.4L403.2,244.6L401.8,242.8L402.0,241.6L400.2,239.8L401.6,237.2L401.2,234.4L401.2,231.6L399.8,231.8L397.4,230.6L396.4,229.2L393.6,230.0L394.0,227.6L395.2,226.0L392.8,223.8L393.0,222.2L391.0,221.2L391.8,219.4L389.8,217.6L391.6,216.8L391.6,214.0L390.6,212.8L391.6,211.4L389.8,209.0L389.6,207.4L388.4,206.8L389.6,205.0L388.0,204.0L386.8,203.4L385.6,203.8L385.0,205.4L384.0,204.6L382.8,204.6L381.2,204.4L380.2,204.6L379.0,205.4L378.2,204.6L377.4,204.0L375.4,205.2L374.0,204.8L372.2,205.0L371.4,204.8L370.6,203.6L368.4,202.2L369.4,199.8L367.4,199.0L365.4,199.0Z" />
	</g>
</svg>
