<svg xmlns="http://www.w3.org/2000/svg" viewBox="0,0,432,600" width="100%" height="100%">
	<defs>
		<style type="text/css">
.qing-map-1616146629996
{
	fill: #DDDDDD;
	fill-opacity: 1.0;
	stroke: #FFFFFF;
	stroke-opacity: 1.0;
	stroke-width: 1;
}

.qing-map-1616146629996:hover
{
	fill: #56A4FF;
	fill-opacity: 1.0;
}
</style>
	</defs>
	<g>
		<path id="L1611727666155" name="台北市" class="qing-map-1616146629996" d="M308.17,89.83L308.83,88.33L311.83,87.0L314.33,85.5L316.83,82.67L317.83,83.0L319.0,83.83L320.17,84.17L320.17,87.67L322.33,90.17L323.33,91.5L323.67,95.17L325.5,97.5L326.33,104.83L328.67,106.67L330.5,107.17L329.33,108.33L324.0,108.67L323.0,109.83L322.83,113.17L325.33,115.17L324.33,116.67L321.83,116.83L319.33,116.33L316.83,114.67L314.5,113.0L313.17,111.0L311.17,108.83L309.17,109.83L307.5,108.17L307.33,106.33L309.0,104.5L310.0,102.67L310.0,101.17L308.17,99.0L306.0,97.67L304.17,95.83L305.0,92.5Z" />
		<path id="L1611727825999" name="新北市" class="qing-map-1616146629996" d="M282.83,93.83L286.0,94.0L289.17,93.5L292.17,91.83L295.33,90.0L297.83,88.33L299.17,88.17L301.33,89.17L303.33,91.67L303.67,94.17L304.17,95.83L306.0,97.67L308.17,99.0L310.0,101.17L310.0,102.67L309.0,104.5L307.33,106.33L307.5,108.17L309.17,109.83L311.17,108.83L313.17,111.0L314.5,113.0L316.83,114.67L319.33,116.33L321.83,116.83L324.33,116.67L325.33,115.17L322.83,113.17L323.0,109.83L324.0,108.67L329.33,108.33L330.5,107.17L328.67,106.67L326.33,104.83L325.5,97.5L323.67,95.17L323.33,91.5L322.33,90.17L320.17,87.67L320.17,84.17L319.0,83.83L317.83,83.0L316.83,82.67L314.33,85.5L311.83,87.0L308.83,88.33L308.17,89.83L305.0,92.5L304.5,90.67L303.33,88.5L302.17,87.17L300.0,86.17L298.17,85.17L299.17,83.83L299.5,82.5L300.83,81.5L302.0,80.33L302.83,79.0L303.33,76.5L305.33,76.17L307.83,72.67L310.33,72.17L311.5,70.17L312.17,70.83L314.33,71.0L315.17,69.5L316.83,69.83L319.67,69.17L320.83,69.17L323.17,70.5L325.5,72.0L327.5,73.33L328.0,74.5L328.17,77.33L330.33,80.17L333.67,82.5L335.5,84.67L337.17,86.67L334.67,89.33L332.33,89.67L330.0,90.83L328.67,91.0L328.67,92.67L330.17,94.17L330.5,97.0L330.83,99.17L332.33,100.67L336.0,100.67L338.5,102.0L340.83,103.17L342.5,103.83L344.83,103.0L347.17,102.5L348.0,102.0L346.17,99.83L345.33,97.5L348.0,97.67L350.33,95.5L350.83,93.17L351.67,91.67L353.33,93.17L358.0,93.33L360.33,94.0L364.5,93.67L367.17,93.33L366.67,100.67L368.5,102.17L367.67,104.17L367.83,106.67L370.67,108.83L373.17,108.67L375.17,108.83L376.33,109.5L378.67,109.67L378.17,111.67L376.17,113.0L374.0,114.33L372.17,114.83L371.0,113.67L367.0,114.67L362.5,117.33L357.17,117.67L356.33,119.0L356.67,120.33L357.67,122.5L357.16,124.83L353.33,125.5L350.0,126.17L348.67,128.5L346.5,131.0L343.83,132.67L340.33,132.67L336.67,135.33L335.5,138.0L333.83,138.5L329.0,138.5L327.67,139.17L326.0,141.83L323.0,142.33L322.83,145.17L322.17,147.5L323.17,149.67L322.83,151.33L316.67,153.67L314.33,156.0L313.0,156.83L311.5,157.17L309.33,158.33L306.5,158.33L306.33,155.67L305.67,154.67L303.5,153.5L302.5,152.33L302.17,149.83L301.0,147.67L300.67,145.83L300.67,143.83L303.0,141.67L301.83,139.67L300.17,137.17L297.83,134.33L296.5,133.83L294.5,134.67L291.83,134.67L290.0,133.17L290.5,131.5L289.17,130.33L290.0,128.67L287.5,126.5L285.83,125.33L285.67,123.33L287.5,122.5L285.83,120.83L286.67,119.17L286.83,115.67L287.5,114.67L292.33,115.0L293.33,114.33L294.67,112.33L296.67,111.83L295.67,110.17L296.83,108.5L295.67,106.33L294.83,103.67L293.83,102.17L289.33,102.0L287.33,99.17L284.33,98.33L280.0,93.83Z" />
		<path id="L1611729433465" name="桃园市" class="qing-map-1616146629996" d="M280.0,93.83L284.33,98.33L287.33,99.17L289.33,102.0L293.83,102.17L294.83,103.67L295.67,106.33L296.83,108.5L295.67,110.17L296.67,111.83L294.67,112.33L293.33,114.33L292.33,115.0L287.5,114.67L286.83,115.67L286.67,119.17L285.83,120.83L287.5,122.5L285.67,123.33L285.83,125.33L287.5,126.5L290.0,128.67L289.17,130.33L290.5,131.5L290.0,133.17L291.83,134.67L294.5,134.67L296.5,133.83L297.83,134.33L300.17,137.17L301.83,139.67L303.0,141.67L300.67,143.83L300.67,145.83L301.0,147.67L302.17,149.83L302.5,152.33L303.5,153.5L305.67,154.67L306.33,155.67L306.5,158.33L304.5,159.0L303.0,160.5L302.5,163.33L300.83,166.33L298.83,167.67L297.33,169.33L295.17,170.33L293.67,170.0L291.5,167.5L291.5,163.5L290.0,161.83L289.83,160.0L288.17,157.67L286.83,155.33L286.0,154.67L283.83,154.17L283.17,150.33L283.17,147.67L283.67,145.33L280.83,144.17L279.5,143.83L277.5,141.5L276.0,140.67L275.33,139.17L272.67,139.83L271.0,138.17L269.0,137.67L266.5,135.67L263.5,133.0L263.5,130.17L262.67,128.83L258.33,128.5L256.67,126.83L253.33,126.33L251.0,125.0L250.83,121.5L248.33,120.67L246.83,119.5L243.33,119.83L241.0,119.5L243.17,116.5L244.33,115.0L245.0,112.17L245.67,109.33L248.17,107.83L250.0,105.67L253.0,104.83L255.67,102.5L259.0,101.5L262.17,100.83L264.67,100.17L267.5,98.5L270.0,97.0L272.17,95.67L274.67,94.67L277.67,94.17Z" />
		<path id="L1611729638201" name="基隆市" class="qing-map-1616146629996" d="M337.17,86.67L334.67,89.33L332.33,89.67L330.0,90.83L328.67,91.0L328.67,92.67L330.17,94.17L330.5,97.0L330.83,99.17L332.33,100.67L336.0,100.67L338.5,102.0L340.83,103.17L342.5,103.83L344.83,103.0L347.17,102.5L348.0,102.0L346.17,99.83L345.33,97.5L348.0,97.67L350.33,95.5L350.83,93.17L351.67,91.67L349.33,90.67L347.5,89.83L346.83,88.17L345.67,90.5L344.5,90.5L342.0,89.0L339.67,87.5ZM348.67,85.0L349.83,83.67L349.33,82.67L347.83,84.0Z" />
		<path id="L1611729729554" name="宜兰县" class="qing-map-1616146629996" d="M372.17,114.83L371.0,113.67L367.0,114.67L362.5,117.33L357.17,117.67L356.33,119.0L356.67,120.33L357.67,122.5L357.16,124.83L353.33,125.5L350.0,126.17L348.67,128.5L346.5,131.0L343.83,132.67L340.33,132.67L336.67,135.33L335.5,138.0L333.83,138.5L329.0,138.5L327.67,139.17L326.0,141.83L323.0,142.33L322.83,145.17L322.17,147.5L323.17,149.67L322.83,151.33L316.67,153.67L314.33,156.0L313.0,156.83L311.5,157.17L309.33,158.33L306.5,158.33L304.5,159.0L303.0,160.5L302.5,163.33L300.83,166.33L298.83,167.67L297.33,169.33L298.5,171.5L296.5,174.33L296.33,178.17L294.17,180.33L293.33,182.33L292.0,184.0L289.0,185.17L287.67,187.17L285.5,190.5L286.83,191.83L286.83,195.0L288.0,196.33L289.67,197.17L291.17,197.5L292.67,198.5L293.83,200.17L296.0,200.17L298.5,198.83L302.33,198.83L303.83,201.0L306.17,201.83L309.67,204.5L316.33,204.83L319.33,206.83L321.67,208.17L323.83,208.33L324.83,206.5L325.83,205.67L328.0,205.67L328.0,203.83L327.33,202.33L328.17,201.0L330.33,202.83L332.5,202.83L334.67,204.83L337.5,205.17L339.5,206.5L342.0,206.5L346.5,208.5L347.17,206.0L348.33,203.33L349.17,201.17L349.67,197.5L350.0,193.5L352.83,191.17L353.17,189.0L355.33,187.17L357.33,186.33L359.0,185.5L356.5,183.83L355.67,182.33L355.83,180.67L358.0,180.33L360.83,178.5L359.67,171.5L358.33,170.5L359.0,168.67L360.17,167.33L358.0,166.33L357.0,163.83L356.17,161.33L355.67,158.67L355.33,155.17L356.0,153.83L354.5,152.67L355.33,151.83L353.67,150.0L353.5,144.67L353.67,138.67L354.67,133.5L355.83,130.83L358.67,127.33L361.67,124.67L362.83,121.33L365.33,119.83L367.33,117.67L369.17,115.83ZM371.83,133.17L372.83,134.67L370.67,135.17L370.67,133.67ZM419.5,48.7L420.3,47.0L421.0,46.2L422.2,45.8L423.3,45.8L424.2,46.4L425.4,47.1L425.2,48.2L424.9,49.3L423.3,48.4L422.3,48.5L421.6,48.9L420.6,49.8Z" />
		<path id="L1611729963839" name="新竹县" class="qing-map-1616146629996" d="M241.0,119.5L243.33,119.83L246.83,119.5L248.33,120.67L250.83,121.5L251.0,125.0L253.33,126.33L256.67,126.83L258.33,128.5L262.67,128.83L263.5,130.17L263.5,133.0L266.5,135.67L269.0,137.67L271.0,138.17L272.67,139.83L275.33,139.17L276.0,140.67L277.5,141.5L279.5,143.83L280.83,144.17L283.67,145.33L283.17,147.67L283.17,150.33L283.83,154.17L286.0,154.67L286.83,155.33L288.17,157.67L289.83,160.0L290.0,161.83L291.5,163.5L291.5,167.5L293.67,170.0L295.17,170.33L297.33,169.33L298.5,171.5L296.5,174.33L296.33,178.17L294.17,180.33L293.33,182.33L292.0,184.0L289.0,185.17L287.67,187.17L285.5,190.5L283.33,191.5L280.83,191.67L278.0,192.0L278.33,188.5L275.0,185.33L273.0,182.5L272.33,180.0L270.0,180.83L266.33,181.5L262.5,181.33L259.33,180.67L256.17,182.67L252.83,181.83L251.67,180.0L253.17,177.17L252.83,175.83L251.33,174.5L253.67,170.0L253.17,167.17L250.5,165.0L248.17,164.67L245.17,162.5L242.67,160.67L239.67,157.5L237.5,155.17L237.33,153.5L234.17,151.67L235.0,149.5L235.0,148.0L237.0,146.83L238.83,145.5L240.67,143.83L241.67,142.83L243.67,144.67L245.5,145.67L246.83,144.5L246.17,141.33L244.83,138.17L243.17,136.5L239.33,135.17L236.67,134.67L233.33,131.67L235.5,128.17L237.67,124.17L238.5,122.17Z" />
		<path id="L1611730149344" name="苗栗县" class="qing-map-1616146629996" d="M234.17,151.67L237.33,153.5L237.5,155.17L239.67,157.5L242.67,160.67L245.17,162.5L248.17,164.67L250.5,165.0L253.17,167.17L253.67,170.0L251.33,174.5L252.83,175.83L253.17,177.17L251.67,180.0L252.83,181.83L256.17,182.67L259.33,180.67L262.5,181.33L266.33,181.5L270.0,180.83L272.33,180.0L273.0,182.5L275.0,185.33L278.33,188.5L278.0,192.0L276.33,192.33L275.0,194.5L274.83,196.83L273.17,198.67L270.67,196.83L269.17,197.0L267.33,199.17L265.67,201.17L262.0,202.33L260.33,204.17L258.83,206.17L255.5,207.5L252.83,207.67L251.33,209.0L249.83,211.0L247.67,210.83L245.33,208.5L242.33,206.83L239.17,206.0L236.5,205.33L233.67,205.0L232.0,205.83L232.0,210.0L230.5,211.5L226.33,211.67L223.67,212.67L221.33,212.67L218.67,210.67L217.33,208.67L211.5,208.0L209.33,206.83L207.33,204.33L201.83,202.0L196.67,196.67L192.0,190.83L194.33,188.83L196.67,185.83L197.83,183.5L199.33,179.33L200.67,175.83L202.17,172.17L203.17,169.17L205.17,168.33L207.33,167.83L208.83,166.83L209.17,164.0L210.67,162.17L213.83,159.83L216.67,159.33L218.83,158.83L223.67,154.33L223.67,151.33L225.67,149.5L227.5,149.17L229.0,148.33L231.0,151.5Z" />
		<path id="L1611730309721" name="新竹市" class="qing-map-1616146629996" d="M227.5,149.17L229.0,148.33L231.0,151.5L234.17,151.67L235.0,149.5L235.0,148.0L237.0,146.83L238.83,145.5L240.67,143.83L241.67,142.83L243.67,144.67L245.5,145.67L246.83,144.5L246.17,141.33L244.83,138.17L243.17,136.5L239.33,135.17L236.67,134.67L233.33,131.67L231.17,134.33L229.67,136.17L228.17,138.67L227.67,141.67L227.67,144.17L229.17,146.17L226.5,148.0Z" />
		<path id="L1611730932057" name="台中市" class="qing-map-1616146629996" d="M192.0,190.83L196.67,196.67L201.83,202.0L207.33,204.33L209.33,206.83L211.5,208.0L217.33,208.67L218.67,210.67L221.33,212.67L223.67,212.67L226.33,211.67L230.5,211.5L232.0,210.0L232.0,205.83L233.67,205.0L236.5,205.33L239.17,206.0L242.33,206.83L245.33,208.5L247.67,210.83L249.83,211.0L251.33,209.0L252.83,207.67L255.5,207.5L258.83,206.17L260.33,204.17L262.0,202.33L265.67,201.17L267.33,199.17L269.17,197.0L270.67,196.83L273.17,198.67L274.83,196.83L275.0,194.5L276.33,192.33L278.0,192.0L280.83,191.67L283.33,191.5L285.5,190.5L286.83,191.83L286.83,195.0L288.0,196.33L289.67,197.17L291.17,197.5L292.67,198.5L293.83,200.17L296.0,200.17L298.5,198.83L302.33,198.83L303.83,201.0L302.67,203.17L302.0,206.0L301.5,207.83L299.0,209.17L297.5,210.33L297.17,211.67L295.33,212.83L294.83,215.67L294.5,216.67L292.33,217.17L291.17,219.33L289.33,221.33L287.33,220.0L285.17,219.67L282.33,220.67L280.67,220.33L278.67,218.83L275.83,221.33L274.17,221.17L272.17,220.83L270.0,221.33L267.33,222.83L265.5,222.0L263.67,223.17L261.83,224.83L259.67,225.83L255.83,225.83L254.33,228.0L252.33,229.5L249.5,230.83L245.33,231.33L244.5,233.17L242.33,235.33L239.67,236.5L237.67,235.83L235.83,235.67L233.5,237.67L231.5,238.17L228.83,237.0L228.0,238.5L226.33,240.17L226.5,238.17L225.5,236.83L223.67,237.0L222.0,235.83L220.17,237.0L220.0,242.0L218.83,243.83L216.83,244.33L215.67,247.0L214.17,249.0L212.17,251.67L209.83,253.33L206.0,253.0L201.5,252.33L198.83,251.33L196.83,249.67L194.17,249.0L192.0,248.83L191.67,244.17L190.33,240.83L188.5,238.83L186.33,238.33L183.83,238.0L181.5,237.17L179.5,235.5L178.33,233.0L177.17,229.83L176.0,227.33L169.83,224.33L170.67,221.33L171.5,222.83L172.5,223.0L172.67,221.83L174.5,221.17L174.67,219.33L175.33,217.83L176.83,216.67L177.0,214.5L176.33,212.83L178.0,210.5L180.0,210.83L180.83,207.83L182.0,204.83L183.83,202.17L186.0,199.33L186.5,198.17Z" />
		<path id="L1611731321169" name="彰化县" class="qing-map-1616146629996" d="M198.83,251.33L196.83,249.67L194.17,249.0L192.0,248.83L191.67,244.17L190.33,240.83L188.5,238.83L186.33,238.33L183.83,238.0L181.5,237.17L179.5,235.5L178.33,233.0L177.17,229.83L176.0,227.33L169.83,227.5L169.67,230.0L167.67,232.33L163.67,233.0L163.17,235.33L157.83,240.67L159.67,241.17L161.83,239.17L162.5,237.17L164.33,236.67L165.0,238.0L164.17,240.33L162.33,242.83L158.5,243.0L156.67,244.0L156.0,246.17L159.17,246.33L161.17,246.0L160.83,247.17L158.33,248.67L156.33,249.83L154.83,251.83L154.0,254.17L153.33,256.67L151.33,257.0L150.67,260.33L149.17,260.17L147.5,263.17L149.5,264.67L147.83,266.83L147.0,270.33L144.83,273.0L142.83,274.83L141.33,275.17L142.0,276.83L144.0,277.83L146.67,278.67L150.0,280.5L153.5,280.0L157.5,279.33L161.33,278.5L167.17,278.5L173.33,282.33L182.83,282.0L193.83,285.0L195.5,283.33L197.33,282.67L199.0,281.67L197.67,279.5L194.83,280.0L193.83,279.83L193.5,277.83L190.83,275.5L191.83,273.5L191.33,270.33L192.67,268.67L192.83,264.5L192.67,260.33L195.0,258.17L196.0,256.67L195.83,254.0Z" />
		<path id="L1611731509670" name="云林县" class="qing-map-1616146629996" d="M150.0,280.5L153.5,280.0L157.5,279.33L161.33,278.5L167.17,278.5L173.33,282.33L182.83,282.0L193.83,285.0L196.17,290.0L194.33,291.0L193.5,292.17L193.67,295.17L194.5,296.33L194.67,299.33L193.67,302.17L192.67,304.17L192.83,307.17L194.5,306.83L196.67,309.0L198.67,309.0L200.33,307.0L204.33,306.67L206.5,308.67L206.17,311.5L207.0,313.83L205.5,315.33L203.33,314.33L195.33,314.5L194.83,312.67L193.83,311.5L191.5,313.0L185.17,313.0L182.5,312.17L179.33,310.83L177.33,309.17L175.67,306.67L174.0,305.33L170.83,306.67L167.17,306.5L164.83,307.67L162.0,306.5L160.67,306.83L159.17,308.33L156.67,309.5L155.0,311.0L153.17,311.17L151.67,313.67L150.0,314.17L146.0,316.67L144.67,318.5L143.5,319.67L141.33,318.0L139.67,318.33L139.17,321.17L139.67,322.33L137.67,324.17L135.5,323.33L131.0,323.5L128.67,322.33L126.67,322.0L125.33,320.33L125.17,317.17L125.5,316.33L125.0,315.17L125.0,305.0L129.67,298.5L130.5,298.0L130.5,296.83L129.5,296.5L129.17,292.0L129.83,290.83L131.17,290.5L132.67,290.0L132.83,288.67L130.5,288.67L128.83,288.83L128.83,287.17L130.17,286.17L131.0,284.17L130.5,282.5L132.33,281.17L135.83,280.83L136.17,279.5L137.5,279.67L137.67,278.33L142.33,279.33L145.67,280.17L148.0,280.83Z" />
		<path id="L1611731761632" name="南投县" class="qing-map-1616146629996" d="M275.33,276.17L279.67,270.33L279.0,267.5L280.5,265.17L280.0,261.33L280.17,257.67L278.33,255.0L278.5,253.67L280.0,252.17L280.17,250.83L281.0,249.17L281.17,245.83L284.17,243.67L286.0,241.67L286.5,238.67L286.17,236.67L283.83,235.33L282.17,234.17L282.33,228.33L284.67,228.0L285.5,226.83L287.33,225.67L289.5,225.0L289.33,223.67L289.33,221.33L287.33,220.0L285.17,219.67L282.33,220.67L280.67,220.33L278.67,218.83L275.83,221.33L274.17,221.17L272.17,220.83L270.0,221.33L267.33,222.83L265.5,222.0L263.67,223.17L261.83,224.83L259.67,225.83L255.83,225.83L254.33,228.0L252.33,229.5L249.5,230.83L245.33,231.33L244.5,233.17L242.33,235.33L239.67,236.5L237.67,235.83L235.83,235.67L233.5,237.67L231.5,238.17L228.83,237.0L228.0,238.5L226.33,240.17L226.5,238.17L225.5,236.83L223.67,237.0L222.0,235.83L220.17,237.0L220.0,242.0L218.83,243.83L216.83,244.33L215.67,247.0L214.17,249.0L212.17,251.67L209.83,253.33L206.0,253.0L201.5,252.33L198.83,251.33L195.83,254.0L196.0,256.67L195.0,258.17L192.67,260.33L192.83,264.5L192.67,268.67L191.33,270.33L191.83,273.5L190.83,275.5L193.5,277.83L193.83,279.83L194.83,280.0L197.67,279.5L199.0,281.67L197.33,282.67L195.5,283.33L193.83,285.0L196.17,290.0L194.33,291.0L193.5,292.17L193.67,295.17L194.5,296.33L194.67,299.33L193.67,302.17L192.67,304.17L192.83,307.17L194.5,306.83L196.67,309.0L198.67,309.0L200.33,307.0L204.33,306.67L206.5,308.67L210.83,309.0L213.0,310.33L216.33,310.17L218.5,311.67L217.83,315.67L216.33,318.17L217.83,320.83L218.17,323.67L219.0,326.67L221.17,328.67L225.17,328.83L226.67,329.5L228.33,328.5L232.83,328.5L234.5,329.17L237.33,328.83L239.5,329.5L242.5,329.83L244.33,331.17L244.17,333.67L245.33,334.5L250.5,331.67L250.33,330.33L248.67,328.67L248.5,327.33L250.5,326.17L251.83,323.0L252.5,322.17L256.33,322.17L257.33,321.67L261.83,322.17L263.67,320.5L263.17,317.5L264.33,316.0L263.83,314.33L264.0,312.5L266.33,312.33L269.0,310.33L271.17,310.5L272.83,308.83L274.67,303.83L274.83,299.33L275.5,295.67L274.67,291.83L274.5,287.33L273.17,284.67L274.0,281.17L275.34,279.5Z" />
		<path id="L1611732311279" name="花莲县" class="qing-map-1616146629996" d="M346.5,208.5L342.0,206.5L339.5,206.5L337.5,205.17L334.67,204.83L332.5,202.83L330.33,202.83L328.17,201.0L327.33,202.33L328.0,203.83L328.0,205.67L325.83,205.67L324.83,206.5L323.83,208.33L321.67,208.17L319.33,206.83L316.33,204.83L309.67,204.5L306.17,201.83L303.83,201.0L302.67,203.17L302.0,206.0L301.5,207.83L299.0,209.17L297.5,210.33L297.17,211.67L295.33,212.83L294.83,215.67L294.5,216.67L292.33,217.17L291.17,219.33L289.33,221.33L289.33,223.67L289.5,225.0L287.33,225.67L285.5,226.83L284.67,228.0L282.33,228.33L282.17,234.17L283.83,235.33L286.17,236.67L286.5,238.67L286.0,241.67L284.17,243.67L281.17,245.83L281.0,249.17L280.17,250.83L280.0,252.17L278.5,253.67L278.33,255.0L280.17,257.67L280.0,261.33L280.5,265.17L279.0,267.5L279.67,270.33L275.33,276.17L275.34,279.5L274.0,281.17L273.17,284.67L274.5,287.33L274.67,291.83L275.5,295.67L274.83,299.33L274.67,303.83L272.83,308.83L271.17,310.5L269.0,310.33L266.33,312.33L264.0,312.5L263.83,314.33L264.33,316.0L263.17,317.5L263.67,320.5L261.83,322.17L257.33,321.67L256.33,322.17L252.5,322.17L251.83,323.0L250.5,326.17L248.5,327.33L248.67,328.67L250.33,330.33L250.5,331.67L245.33,334.5L247.0,336.83L245.83,339.17L243.83,339.83L243.33,341.5L241.33,342.67L242.0,344.5L243.83,346.0L245.5,346.67L247.67,348.33L249.83,350.83L248.17,353.0L250.0,354.5L251.5,357.0L252.33,360.5L253.67,362.33L255.5,362.5L256.5,363.67L260.0,364.0L262.17,366.83L263.5,367.67L265.67,366.83L267.17,366.5L269.33,367.83L269.83,371.33L272.33,375.17L276.5,377.33L278.33,377.67L279.33,379.0L280.17,381.0L282.17,381.17L283.5,380.17L286.33,379.83L288.17,374.67L287.5,372.83L287.0,371.33L288.83,369.83L289.5,368.0L291.83,362.0L292.17,359.5L294.5,357.0L294.83,353.83L296.67,350.5L298.67,348.0L300.33,346.33L300.0,344.17L298.17,342.5L298.33,339.0L299.17,337.0L302.67,333.67L303.83,332.67L306.0,332.67L307.67,334.0L309.67,334.33L310.0,333.5L309.0,331.83L308.67,330.67L311.0,329.67L310.67,320.83L312.5,316.5L313.33,314.0L314.0,309.67L314.83,306.33L317.0,299.67L317.0,297.33L316.67,295.5L318.17,293.33L318.33,291.5L319.83,289.5L319.5,286.33L319.5,283.5L321.17,280.0L322.67,278.0L323.5,272.67L324.5,267.67L325.33,266.17L325.17,264.83L324.0,265.0L324.17,261.83L325.17,259.5L327.17,256.83L329.5,254.67L329.83,253.0L327.5,250.5L326.33,248.67L325.83,247.0L325.83,242.0L328.67,238.67L332.5,235.33L331.83,231.17L332.0,228.33L333.67,225.67L336.17,223.83L339.0,221.67L341.83,219.5L343.67,217.33L344.0,213.83L345.5,212.17L347.0,211.33Z" />
		<path id="L1611732699312" name="嘉义县" class="qing-map-1616146629996" d="M169.33,338.67L170.67,338.67L171.33,340.0L172.33,340.0L173.83,340.67L172.67,342.33L174.0,343.33L175.5,344.83L175.33,346.83L178.5,348.17L179.0,349.83L177.67,351.67L177.33,352.67L177.5,355.33L177.17,357.33L178.5,359.33L177.33,361.17L178.17,362.5L183.17,364.83L185.17,364.83L186.67,363.17L187.83,363.17L189.0,364.5L190.17,364.5L191.5,363.67L193.0,363.67L194.83,364.0L194.83,360.5L193.83,359.67L193.67,358.17L194.17,354.17L195.33,353.5L196.83,354.67L199.33,355.17L201.33,354.67L202.5,352.67L205.83,352.33L209.5,348.17L210.83,347.67L213.33,347.33L215.83,343.83L218.83,343.67L221.0,338.33L222.67,336.33L224.67,335.67L227.17,333.17L230.17,331.17L233.67,331.0L234.5,329.17L232.83,328.5L228.33,328.5L226.67,329.5L225.17,328.83L221.17,328.67L219.0,326.67L218.17,323.67L217.83,320.83L216.33,318.17L217.83,315.67L218.5,311.67L216.33,310.17L213.0,310.33L210.83,309.0L206.5,308.67L206.17,311.5L207.0,313.83L205.5,315.33L203.33,314.33L195.33,314.5L194.83,312.67L193.83,311.5L191.5,313.0L185.17,313.0L182.5,312.17L179.33,310.83L177.33,309.17L175.67,306.67L174.0,305.33L170.83,306.67L167.17,306.5L164.83,307.67L162.0,306.5L160.67,306.83L159.17,308.33L156.67,309.5L155.0,311.0L153.17,311.17L151.67,313.67L150.0,314.17L146.0,316.67L144.67,318.5L143.5,319.67L141.33,318.0L139.67,318.33L139.17,321.17L139.67,322.33L137.67,324.17L135.5,323.33L131.0,323.5L128.67,322.33L126.67,322.0L125.67,324.0L122.5,323.83L122.5,327.0L125.0,326.83L126.5,326.5L127.33,328.33L126.0,329.5L125.83,331.17L125.5,331.83L126.33,333.0L126.5,339.17L128.0,340.33L128.0,341.17L126.33,342.83L125.0,343.0L124.5,344.5L122.67,346.67L122.67,348.33L124.17,348.83L126.67,350.83L128.33,352.67L130.83,354.0L132.83,353.0L134.83,354.17L136.33,353.83L137.5,352.0L138.0,350.5L139.17,349.0L141.5,347.83L142.5,346.33L144.5,346.33L145.83,345.17L146.17,342.67L148.0,342.33L149.83,340.67L152.0,340.67L153.67,339.0L158.83,338.83L161.33,337.5L163.0,337.67L164.33,338.17L166.5,337.17L168.1,338.1L168.4,333.2L166.83,333.0L163.83,329.83L160.5,330.0L160.33,325.33L163.33,324.5L165.33,322.83L166.5,322.83L168.5,324.0L172.0,324.17L173.33,325.83L175.17,328.83L172.67,330.67L171.17,332.33L168.4,333.2L168.1,338.1Z" />
		<path id="L1611732958584" name="嘉义市" class="qing-map-1616146629996" d="M168.1,338.1L168.4,333.2L166.83,333.0L163.83,329.83L160.5,330.0L160.33,325.33L163.33,324.5L165.33,322.83L166.5,322.83L168.5,324.0L172.0,324.17L173.33,325.83L175.17,328.83L172.67,330.67L171.17,332.33L168.4,333.2L168.1,338.1Z" />
		<path id="L1611733059999" name="台南市" class="qing-map-1616146629996" d="M122.67,348.33L124.17,348.83L126.67,350.83L128.33,352.67L130.83,354.0L132.83,353.0L134.83,354.17L136.33,353.83L137.5,352.0L138.0,350.5L139.17,349.0L141.5,347.83L142.5,346.33L144.5,346.33L145.83,345.17L146.17,342.67L148.0,342.33L149.83,340.67L152.0,340.67L153.67,339.0L158.83,338.83L161.33,337.5L163.0,337.67L164.33,338.17L166.5,337.17L169.33,338.67L170.67,338.67L171.33,340.0L172.33,340.0L173.83,340.67L172.67,342.33L174.0,343.33L175.5,344.83L175.33,346.83L178.5,348.17L179.0,349.83L177.67,351.67L177.33,352.67L177.5,355.33L177.17,357.33L178.5,359.33L177.33,361.17L178.17,362.5L183.17,364.83L185.17,364.83L186.67,363.17L187.83,363.17L189.0,364.5L190.17,364.5L191.5,363.67L193.0,363.67L194.83,364.0L195.0,366.33L194.0,367.67L193.0,370.0L191.67,371.83L189.5,373.5L188.33,375.0L186.67,378.33L184.0,382.83L182.5,385.83L180.83,386.17L178.33,388.0L173.83,392.17L168.83,397.17L165.0,402.17L164.5,405.0L163.33,406.67L161.67,408.0L159.5,406.5L158.17,407.33L154.33,411.33L151.67,411.83L150.0,410.5L145.83,410.17L141.17,410.5L138.83,410.0L137.17,408.5L134.5,408.33L133.0,407.0L131.67,407.5L129.5,407.5L129.67,404.5L125.5,398.17L123.17,396.67L120.17,394.33L114.67,391.17L112.83,389.5L110.67,386.67L109.83,385.83L111.5,381.17L113.5,381.17L117.0,379.5L117.0,377.5L116.0,376.0L114.17,377.5L114.0,376.5L114.17,375.0L114.83,372.5L116.0,369.5L116.67,367.67L117.0,365.0L118.67,363.67L120.0,362.0L120.17,359.0L119.17,358.83L119.17,356.17L121.0,355.17L121.33,349.83Z" />
		<path id="L1611733742667" name="高雄市" class="qing-map-1616146629996" d="M224.33,417.5L221.67,417.33L220.17,416.0L218.83,415.33L217.5,416.0L215.5,417.17L213.83,419.0L212.17,418.67L208.67,415.0L207.83,414.67L204.5,412.67L203.33,413.0L201.0,415.33L198.67,416.5L197.0,415.83L196.33,413.83L195.17,413.33L191.83,413.17L189.5,413.5L185.5,417.67L182.33,420.0L179.17,420.67L176.5,420.5L174.0,419.5L171.17,419.17L169.67,420.17L169.83,423.33L168.5,426.33L167.5,428.5L167.17,431.67L167.67,433.67L168.33,435.83L168.5,438.0L167.5,440.5L166.33,443.33L165.33,446.17L164.67,449.5L165.17,451.83L167.17,456.33L166.83,459.33L164.5,462.5L162.67,466.5L163.0,470.17L161.17,471.17L159.33,469.67L157.5,468.17L155.33,466.33L153.67,466.0L151.67,465.0L141.67,451.83L141.67,449.5L140.0,447.33L140.17,444.67L141.33,444.0L142.5,442.33L142.17,440.83L142.17,439.17L135.67,425.83L135.0,424.67L134.0,423.5L133.83,420.67L132.0,418.33L132.67,417.33L134.0,418.17L135.0,417.17L132.83,414.5L131.5,415.5L129.83,410.83L129.5,407.5L131.67,407.5L133.0,407.0L134.5,408.33L137.17,408.5L138.83,410.0L141.17,410.5L145.83,410.17L150.0,410.5L151.67,411.83L154.33,411.33L158.17,407.33L159.5,406.5L161.67,408.0L163.33,406.67L164.5,405.0L165.0,402.17L168.83,397.17L173.83,392.17L178.33,388.0L180.83,386.17L182.5,385.83L184.0,382.83L186.67,378.33L188.33,375.0L189.5,373.5L191.67,371.83L193.0,370.0L194.0,367.67L195.0,366.33L194.83,364.0L194.83,360.5L193.83,359.67L193.67,358.17L194.17,354.17L195.33,353.5L196.83,354.67L199.33,355.17L201.33,354.67L202.5,352.67L205.83,352.33L209.5,348.17L210.83,347.67L213.33,347.33L215.83,343.83L218.83,343.67L221.0,338.33L222.67,336.33L224.67,335.67L227.17,333.17L230.17,331.17L233.67,331.0L234.5,329.17L237.33,328.83L239.5,329.5L242.5,329.83L244.33,331.17L244.17,333.67L245.33,334.5L247.0,336.83L245.83,339.17L243.83,339.83L243.33,341.5L241.33,342.67L242.0,344.5L243.83,346.0L245.5,346.67L247.67,348.33L249.83,350.83L248.17,353.0L242.67,356.0L240.17,356.0L238.17,356.67L236.83,358.5L235.83,360.17L233.67,361.33L232.0,361.83L231.0,363.33L230.5,366.83L230.17,369.83L229.17,371.83L227.83,373.83L226.33,375.33L227.17,377.17L227.33,380.33L227.33,383.83L226.17,385.67L225.33,387.5L226.17,389.83L226.0,391.17L223.83,392.5L223.67,396.5L222.0,397.83L219.33,399.33L219.0,401.83L218.67,405.0L219.83,407.5L219.83,411.33L221.67,413.0L223.67,413.83L224.17,415.83Z" />
		<path id="L1611734421214" name="台东县" class="qing-map-1616146629996" d="M224.33,417.5L224.5,421.33L227.33,422.83L229.5,424.67L230.17,426.67L230.0,428.33L228.83,429.33L228.67,434.17L227.67,436.5L222.5,436.83L219.83,439.67L215.83,440.0L214.17,440.33L213.5,441.67L213.5,444.5L208.83,451.67L208.83,460.0L209.5,462.5L210.0,465.5L210.67,468.17L209.17,470.33L209.33,472.83L211.5,474.67L213.33,477.17L213.67,479.67L209.83,480.83L209.83,483.17L208.5,485.0L208.67,486.33L210.5,488.0L212.83,489.33L214.5,490.0L215.33,492.83L213.67,494.17L213.67,495.67L216.0,497.83L216.0,498.67L215.33,500.0L215.83,501.33L217.5,501.33L220.0,503.33L221.83,504.0L223.83,505.33L227.5,504.33L226.67,500.0L226.5,495.67L226.83,492.17L228.5,488.17L230.5,485.33L231.17,483.33L233.83,475.83L234.17,473.33L235.67,470.83L236.67,467.17L237.83,462.5L238.67,459.33L240.0,457.67L243.0,454.83L243.5,453.17L243.5,449.83L244.0,447.67L245.5,445.67L248.33,443.5L251.17,441.5L253.17,439.33L256.17,438.0L258.33,436.83L261.5,434.17L263.67,432.0L265.67,429.5L266.5,427.17L268.67,425.83L268.83,423.67L267.33,422.5L267.0,420.17L268.5,417.5L271.67,416.33L273.67,415.33L275.67,412.83L278.17,409.17L279.67,406.83L279.67,404.17L280.67,403.33L282.0,403.17L285.5,399.33L285.33,396.17L286.33,394.67L287.5,393.67L288.67,389.33L290.83,384.33L291.33,383.0L293.83,382.67L295.83,379.67L296.5,376.67L296.33,375.0L297.33,373.5L296.83,371.83L296.0,369.83L295.83,367.5L298.5,365.33L299.83,358.67L300.83,355.67L302.0,353.83L304.0,353.0L305.17,350.67L305.83,346.83L306.17,343.33L306.67,341.0L308.0,338.33L309.17,336.33L308.83,335.0L307.67,334.0L306.0,332.67L303.83,332.67L302.67,333.67L299.17,337.0L298.33,339.0L298.17,342.5L300.0,344.17L300.33,346.33L298.67,348.0L296.67,350.5L294.83,353.83L294.5,357.0L292.17,359.5L291.83,362.0L289.5,368.0L288.83,369.83L287.0,371.33L287.5,372.83L288.17,374.67L286.33,379.83L283.5,380.17L282.17,381.17L280.17,381.0L279.33,379.0L278.33,377.67L276.5,377.33L272.33,375.17L269.83,371.33L269.33,367.83L267.17,366.5L265.67,366.83L263.5,367.67L262.17,366.83L260.0,364.0L256.5,363.67L255.5,362.5L253.67,362.33L252.33,360.5L251.5,357.0L250.0,354.5L248.17,353.0L242.67,356.0L240.17,356.0L238.17,356.67L236.83,358.5L235.83,360.17L233.67,361.33L232.0,361.83L231.0,363.33L230.5,366.83L230.17,369.83L229.17,371.83L227.83,373.83L226.33,375.33L227.17,377.17L227.33,380.33L227.33,383.83L226.17,385.67L225.33,387.5L226.17,389.83L226.0,391.17L223.83,392.5L223.67,396.5L222.0,397.83L219.33,399.33L219.0,401.83L218.67,405.0L219.83,407.5L219.83,411.33L221.67,413.0L223.67,413.83L224.17,415.83ZM310.17,446.17L310.67,444.67L309.67,443.67L306.0,443.5L306.17,444.67L307.17,446.5L308.5,447.0L309.67,448.17L310.5,448.0L309.67,447.0ZM318.5,527.0L312.83,526.83L310.33,527.5L311.0,529.33L311.0,531.33L314.0,533.17L315.67,534.67L317.33,534.67L320.5,538.0L322.33,538.0L323.0,535.67L318.67,532.33L318.33,529.5Z" />
		<path id="L1611734881241" name="屏东县" class="qing-map-1616146629996" d="M155.0,489.33L157.0,488.33L158.33,489.83L157.0,490.5L155.67,491.83L154.33,492.83L153.17,492.5L154.0,491.33L155.17,490.5ZM163.0,470.17L162.67,466.5L164.5,462.5L166.83,459.33L167.17,456.33L165.17,451.83L164.67,449.5L165.33,446.17L166.33,443.33L167.5,440.5L168.5,438.0L168.33,435.83L167.67,433.67L167.17,431.67L167.5,428.5L168.5,426.33L169.83,423.33L169.67,420.17L171.17,419.17L174.0,419.5L176.5,420.5L179.17,420.67L182.33,420.0L185.5,417.67L189.5,413.5L191.83,413.17L195.17,413.33L196.33,413.83L197.0,415.83L198.67,416.5L201.0,415.33L203.33,413.0L204.5,412.67L207.83,414.67L208.67,415.0L212.17,418.67L213.83,419.0L215.5,417.17L217.5,416.0L218.83,415.33L220.17,416.0L221.67,417.33L224.33,417.5L224.5,421.33L227.33,422.83L229.5,424.67L230.17,426.67L230.0,428.33L228.83,429.33L228.67,434.17L227.67,436.5L222.5,436.83L219.83,439.67L215.83,440.0L214.17,440.33L213.5,441.67L213.5,444.5L208.83,451.67L208.83,460.0L209.5,462.5L210.0,465.5L210.67,468.17L209.17,470.33L209.33,472.83L211.5,474.67L213.33,477.17L213.67,479.67L209.83,480.83L209.83,483.17L208.5,485.0L208.67,486.33L210.5,488.0L212.83,489.33L214.5,490.0L215.33,492.83L213.67,494.17L213.67,495.67L216.0,497.83L216.0,498.67L215.33,500.0L215.83,501.33L217.5,501.33L220.0,503.33L221.83,504.0L223.83,505.33L227.5,504.33L227.33,506.0L226.83,507.17L227.0,512.5L226.67,515.67L227.67,517.83L227.67,518.83L226.17,519.83L225.83,521.33L226.83,523.0L227.5,524.17L226.83,525.0L227.0,533.67L225.67,536.17L224.83,537.67L222.67,539.0L221.0,540.17L220.17,542.33L220.17,545.0L221.33,547.5L222.5,549.5L222.67,551.5L221.0,550.67L219.33,549.17L217.83,547.5L215.83,546.33L212.83,546.5L211.83,546.17L210.67,544.83L209.5,543.5L207.83,544.17L206.83,545.83L206.17,547.83L205.67,549.5L204.17,548.83L202.83,547.17L202.83,541.5L200.67,537.33L199.67,535.33L199.5,533.83L201.0,532.33L200.83,530.83L202.83,529.33L203.0,525.83L203.17,521.83L201.33,519.0L200.33,516.83L199.83,514.0L199.33,510.33L198.5,507.5L197.5,505.67L195.83,503.83L194.33,502.5L193.67,500.0L193.17,497.0L193.17,494.67L191.33,493.17L189.17,491.17L188.33,490.17L187.5,488.0L186.67,486.5L184.33,484.5L181.33,482.67L178.83,481.5L176.83,480.5L176.33,478.67L174.17,479.17L171.0,477.67L172.0,476.33L170.5,474.0L169.0,473.83L167.33,474.67Z" />
		<path id="L1611735305866" name="澎湖县" class="qing-map-1616146629996" d="M53.9,291.5L53.0,290.4L52.0,290.9L51.7,291.5L50.5,292.0L51.3,293.2L52.0,292.9L52.1,292.2L52.6,291.4ZM52.6,304.0L51.4,303.3L50.0,301.7L49.0,300.9L48.0,301.0L47.4,301.5L46.1,301.4L45.3,302.0L45.1,303.4L45.7,304.3L46.3,303.9L46.2,303.2L47.2,303.0L48.0,302.8L48.9,304.0L49.7,305.0L50.4,305.7L51.1,304.8L52.2,304.8ZM60.5,362.2L59.8,361.7L59.8,360.8L60.4,359.9L61.2,359.5L61.7,360.8L61.4,361.6ZM52.7,361.1L53.9,360.9L54.1,361.6L53.9,362.3L52.9,362.3ZM31.9,364.5L30.8,364.6L29.8,365.4L28.6,366.4L27.4,366.6L26.1,365.5L25.6,364.5L25.0,364.6L24.9,365.4L25.5,366.3L26.3,367.0L26.6,368.1L26.9,369.5L27.4,370.3L28.1,370.0L28.1,368.8L29.9,368.9L29.8,366.8L30.8,366.0L31.9,365.6ZM40.1,344.5L39.3,343.2L38.6,342.0L36.7,341.8L36.9,342.7L37.3,343.4L37.2,344.6L36.2,345.5L36.2,346.5L37.0,347.1L37.9,347.1L40.3,345.5ZM42.2,327.2L40.6,327.3L40.5,328.1ZM34.9,316.4L35.0,317.0L34.0,317.0ZM44.8,322.0L44.2,321.3L44.2,320.5L44.8,320.3L45.0,321.1L45.5,321.6ZM53.2,310.6L52.6,309.5L52.1,308.3L51.5,307.8L51.0,308.0L51.1,308.9L51.8,309.9L52.1,310.9L52.9,311.2ZM41.2,306.6L40.5,306.2L40.6,305.6L39.6,305.2L39.5,306.3L38.6,306.4L38.3,307.7L37.5,308.3L37.6,309.2L38.4,309.5L38.9,310.5L38.9,311.6L38.4,312.5L37.9,313.1L38.1,314.6L37.4,315.5L36.7,316.2L38.1,316.4L39.3,316.5L38.9,315.5L39.0,314.6L39.1,313.3L39.9,312.2L40.4,311.2L40.2,309.6L39.8,308.5L39.8,307.8L40.4,307.2L41.5,307.3ZM63.2,317.9L62.5,317.2L61.7,316.3L61.6,313.1L59.2,313.2L57.4,313.6L55.8,314.0L55.0,314.2L54.7,313.0L54.0,312.1L53.1,311.9L52.6,311.9L52.9,313.2L52.2,314.1L51.4,314.3L51.5,315.6L50.2,315.9L49.0,315.0L48.6,316.2L48.1,317.5L47.7,318.4L48.6,318.8L49.5,318.7L50.3,318.4L51.4,318.9L51.8,320.2L51.3,321.2L50.5,322.1L49.1,321.8L48.7,322.7L47.8,322.6L47.8,324.8L48.7,324.8L49.5,324.3L50.8,324.0L51.3,324.5L52.0,324.0L51.4,323.3L51.7,322.6L52.5,321.6L53.2,320.7L54.0,319.8L54.7,318.8L56.2,318.1L57.8,317.7L59.0,317.6L60.0,317.3L61.2,317.3L62.5,318.6Z" />
		<path id="L1611736412562" name="金门县" class="qing-map-1616146629996" d="M25.1,140.5L23.2,139.9L21.4,138.9L20.3,137.9L19.8,137.0L18.5,137.9L17.3,138.7L18.5,140.1L19.1,142.0L19.3,143.6L18.6,144.6L18.2,145.6L17.2,145.6L16.6,145.5L17.5,146.9L18.7,147.3L19.9,148.3L21.5,148.3L21.8,146.6L22.8,145.0L24.5,143.8L26.9,143.2L29.2,143.3L30.7,144.0L31.8,144.8L32.3,146.6L33.4,145.9L34.1,145.5L34.4,144.5L35.1,144.0L35.0,142.7L35.9,142.4L35.7,141.7L34.9,141.2L34.9,139.2L35.4,138.6L34.5,138.2L33.8,137.1L33.8,135.4L32.0,135.3L31.4,133.3L30.1,133.4L29.8,134.3L28.2,135.0L28.5,137.2L27.3,138.0L27.7,139.4L26.8,140.0L26.1,140.6ZM12.8,144.2L13.5,143.8L14.6,143.7L14.4,142.2L13.3,141.3L12.6,141.4L12.5,141.8L11.0,142.0L10.7,143.7L10.1,144.3L9.9,145.2L10.0,146.0L10.8,145.9L11.8,145.0L12.4,145.6ZM4.7,148.4L3.9,147.6L3.6,148.2L4.1,148.8Z" />
	</g>
</svg>
