<svg xmlns="http://www.w3.org/2000/svg" viewBox="0,0,800,627" width="100%" height="100%">
	<defs>
		<style type="text/css">
.qing-map-1616136146516
{
	fill: #DDDDDD;
	fill-opacity: 1.0;
	stroke: #FFFFFF;
	stroke-opacity: 1.0;
	stroke-width: 1;
}

.qing-map-1616136146516:hover
{
	fill: #56A4FF;
	fill-opacity: 1.0;
}
</style>
	</defs>
	<g>
		<path id="L1611134756244" name="酒泉市" class="qing-map-1616136146516" d="M286.25,188.13L290.13,190.13L292.75,190.38L296.63,190.5L297.5,190.88L300.63,190.88L301.25,190.25L303.0,191.13L305.0,190.0L305.88,191.25L306.13,193.5L306.5,194.88L305.0,196.5L305.5,197.63L300.5,200.88L299.0,201.88L299.38,202.88L301.75,204.5L302.0,206.0L300.75,206.63L300.75,207.63L299.63,208.88L298.25,213.88L300.0,215.88L301.13,216.0L300.63,216.88L300.38,217.88L301.63,217.5L302.25,214.88L303.0,213.38L304.25,214.63L305.88,215.88L307.25,216.75L308.0,217.38L307.5,218.63L306.75,219.63L307.25,220.63L308.75,219.5L309.13,220.75L311.13,221.63L313.5,221.63L316.75,224.38L317.88,224.38L319.5,226.38L320.38,227.25L322.38,228.63L323.38,228.38L324.13,228.63L324.88,227.88L328.0,228.13L327.88,229.63L330.13,229.88L331.13,231.5L331.5,232.75L332.5,232.13L334.63,232.0L335.38,233.0L335.13,235.25L336.38,237.0L336.25,238.75L337.0,237.88L338.5,235.5L338.25,233.25L337.63,231.5L341.0,230.63L342.63,229.5L343.13,227.25L340.13,221.75L339.5,220.63L335.13,218.0L334.13,218.0L332.13,215.0L331.25,212.88L331.75,211.0L330.5,210.13L328.13,210.75L325.75,213.25L323.25,212.5L320.75,212.75L319.25,211.75L320.25,210.63L320.13,208.25L325.75,208.5L326.88,208.25L326.01,206.88L326.76,205.25L327.13,200.5L329.0,197.63L330.38,197.25L332.25,197.88L333.75,198.0L334.63,200.38L337.5,199.63L339.0,197.5L340.63,198.38L342.88,197.88L345.25,196.75L347.13,195.25L348.88,195.25L349.38,194.5L351.1,195.35L352.5,195.25L353.5,194.5L355.25,193.5L357.38,192.63L360.13,190.88L362.25,189.63L362.88,188.13L367.25,187.88L371.0,184.75L372.25,180.88L372.38,179.25L373.88,177.13L376.0,175.63L379.63,173.5L382.13,172.25L382.13,166.75L381.88,160.88L382.13,157.13L385.75,152.5L385.25,145.0L382.38,140.5L379.25,135.5L375.0,134.0L369.75,134.0L362.88,133.25L360.0,132.63L358.13,134.75L354.75,137.5L348.5,137.5L342.38,137.25L337.0,136.63L337.0,143.5L334.5,145.25L333.38,147.75L330.5,147.0L327.88,141.75L325.13,143.0L321.63,144.63L319.25,146.25L319.25,147.63L319.75,148.88L319.63,151.63L317.63,149.88L314.88,147.88L314.38,145.88L313.38,142.63L309.5,143.25L310.5,145.75L312.0,147.38L308.88,149.5L304.75,151.0L298.88,154.25L298.63,150.5L298.5,145.5L298.5,140.38L298.0,133.25L294.13,132.13L291.88,129.25L289.75,128.38L281.88,122.5L276.38,115.75L272.75,110.13L265.88,101.5L266.25,100.88L265.38,99.75L265.5,99.0L268.13,96.13L271.13,93.25L273.63,90.63L275.88,88.25L273.5,82.75L268.75,71.38L265.38,64.38L263.0,58.5L260.25,52.5L256.5,44.0L253.0,36.0L249.5,28.13L245.0,18.0L240.25,19.5L236.0,20.25L230.63,20.5L226.5,20.5L218.25,21.0L214.25,21.5L209.25,22.13L205.13,24.88L200.38,28.0L199.25,27.75L198.88,28.5L196.63,29.63L195.13,31.75L192.75,33.38L192.75,37.5L190.63,40.0L194.5,41.63L193.63,44.25L193.25,47.38L196.75,50.88L199.63,53.75L195.25,57.63L196.25,60.25L197.5,63.13L197.5,65.88L196.63,68.5L194.13,71.63L191.13,73.38L187.38,75.25L186.25,75.13L185.0,76.38L183.0,76.25L181.13,77.38L177.75,77.75L176.38,77.75L173.13,79.75L172.25,79.38L170.63,80.75L168.13,82.63L165.25,84.75L163.13,86.63L161.25,88.13L160.25,91.13L159.38,93.5L156.75,91.63L156.0,88.5L154.5,86.13L151.88,82.13L151.38,81.25L146.38,84.0L144.13,84.5L139.88,87.13L137.25,90.13L135.25,93.63L134.0,95.63L129.38,96.63L124.38,97.63L120.63,101.13L116.25,104.88L112.38,108.75L108.38,112.38L104.38,117.5L99.25,123.5L96.0,128.88L91.13,135.75L91.88,138.63L92.13,140.38L90.88,144.38L89.38,148.75L83.63,149.25L76.88,149.75L70.25,151.25L61.25,152.75L51.25,154.13L50.88,158.38L50.75,163.0L50.88,169.63L48.13,174.5L45.13,179.0L43.88,186.25L43.0,192.75L42.0,198.38L41.0,205.5L39.88,209.25L38.75,213.63L37.38,218.13L35.63,221.38L33.0,225.38L30.38,228.38L27.0,231.63L24.0,233.63L24.38,234.75L24.13,238.5L25.0,240.5L25.63,241.75L24.63,243.0L25.5,244.63L25.75,244.0L27.13,245.75L27.63,245.0L29.38,245.25L29.75,243.25L30.75,241.75L32.38,242.0L33.5,241.0L34.38,241.25L35.0,241.38L35.75,241.63L37.5,240.63L38.38,241.38L39.13,241.13L39.88,241.0L40.5,240.25L41.38,240.38L43.63,239.63L45.75,240.13L46.13,239.63L48.0,239.63L49.25,238.38L52.38,237.88L53.38,239.25L54.13,238.63L56.38,239.0L57.75,238.0L59.5,237.38L60.5,238.13L59.88,241.63L61.88,243.0L63.25,245.13L63.13,247.88L62.25,252.63L66.88,254.5L69.25,253.63L73.01,253.62L74.5,252.75L78.88,252.63L87.25,252.38L91.88,255.5L94.25,255.63L94.5,258.0L89.88,258.25L88.5,259.0L89.88,261.63L92.25,263.38L95.25,264.63L97.63,264.63L98.38,264.13L100.63,263.88L103.88,263.38L108.13,263.0L111.38,262.5L114.0,262.25L116.25,261.88L118.13,265.63L119.0,268.88L120.13,271.88L121.25,274.75L122.63,278.13L124.13,280.75L124.38,285.25L124.88,285.88L126.75,284.63L127.5,284.63L129.0,284.25L132.25,283.88L132.88,283.38L137.63,283.63L139.75,283.5L140.13,282.5L142.25,282.0L144.25,281.13L145.13,282.0L146.25,281.38L147.25,282.5L147.5,281.75L149.0,282.5L150.25,282.0L151.0,282.0L152.0,283.13L153.13,283.75L154.63,284.75L154.75,286.88L155.38,287.5L156.5,287.13L157.75,289.25L159.88,287.88L161.13,288.5L162.25,288.13L163.38,288.88L164.38,288.88L164.63,288.38L166.0,288.63L166.5,289.25L167.5,288.38L168.0,288.0L169.0,289.25L170.0,288.25L170.75,288.13L172.38,286.5L173.38,286.75L175.13,285.13L176.63,284.38L176.38,283.38L177.88,283.25L179.13,284.25L180.75,284.88L181.38,285.63L183.13,285.63L184.13,287.75L184.5,289.5L186.63,289.25L188.25,291.0L188.25,292.0L189.75,293.13L191.75,294.75L193.75,296.0L194.38,296.25L194.75,295.25L196.25,295.38L196.63,296.0L198.38,296.13L200.63,297.63L201.63,297.5L201.5,296.75L202.88,296.75L203.63,298.13L204.63,297.38L205.88,297.25L205.63,295.5L206.38,292.13L208.88,290.13L211.13,290.0L213.88,290.75L217.0,291.88L220.13,292.63L222.0,293.25L221.88,290.13L221.0,289.75L221.25,289.13L219.88,286.5L220.5,285.13L223.25,282.0L223.0,279.88L221.5,278.13L221.88,277.5L222.5,277.5L223.38,276.88L226.5,276.88L227.88,275.5L226.25,274.38L227.38,273.25L228.5,273.5L227.5,270.88L229.0,271.13L230.25,272.38L232.38,272.5L233.63,273.75L235.13,274.25L237.25,273.13L239.88,271.75L239.88,268.63L238.88,268.25L239.63,267.0L239.5,266.25L238.75,266.75L237.88,265.88L237.75,264.88L238.13,263.88L238.13,262.13L236.5,261.5L236.88,260.25L237.0,256.38L236.25,255.63L237.25,254.75L235.75,254.5L234.75,253.38L234.25,252.63L234.5,251.88L234.75,251.13L234.13,250.0L234.5,248.88L235.5,247.13L235.88,246.63L235.0,244.88L235.63,244.25L235.88,242.75L236.13,241.75L237.5,239.75L237.13,239.0L236.88,237.75L235.75,236.5L237.38,235.5L238.88,235.38L239.88,236.25L241.25,235.75L242.5,236.13L243.88,235.88L244.88,236.25L246.63,236.25L248.88,237.5L251.0,238.38L252.5,237.25L253.75,239.25L255.0,238.63L256.13,239.75L257.13,240.88L257.0,237.5L255.13,234.38L255.88,230.25L255.0,229.13L257.13,227.0L258.13,227.0L259.63,225.63L259.13,219.75L260.75,217.38L260.63,216.25L262.88,215.0L263.63,214.0L263.63,212.5L266.0,210.25L267.0,210.25L269.13,206.63L271.25,206.88L272.5,207.0L275.5,207.38L276.5,205.75L280.0,202.88L281.88,201.0L282.75,199.38L284.25,198.5L283.75,197.0L282.13,195.0L284.63,193.0L283.5,192.63L284.75,191.13L285.88,191.25Z" />
		<path id="L1611134763715" name="嘉峪关市" class="qing-map-1616136146516" d="M276.5,205.75L278.38,206.25L280.13,206.13L281.13,208.63L284.38,206.13L290.25,206.75L290.88,205.25L292.88,204.88L294.38,205.38L295.25,206.88L297.38,208.38L299.63,208.88L300.75,207.63L300.75,206.63L302.0,206.0L301.75,204.5L299.38,202.88L299.0,201.88L300.5,200.88L305.5,197.63L305.0,196.5L306.5,194.88L306.13,193.5L305.88,191.25L305.0,190.0L303.0,191.13L301.25,190.25L300.63,190.88L297.5,190.88L296.63,190.5L292.75,190.38L290.13,190.13L286.25,188.13L285.88,191.25L284.75,191.13L283.5,192.63L284.63,193.0L282.13,195.0L283.75,197.0L284.25,198.5L282.75,199.38L281.88,201.0L280.0,202.88Z" />
		<path id="L1611134782979" name="张掖市" class="qing-map-1616136146516" d="M468.0,326.13L468.5,324.38L469.75,324.25L470.13,323.13L469.75,322.13L471.75,320.25L471.63,319.13L472.88,319.13L473.38,316.88L474.75,316.0L475.75,315.0L475.25,314.38L474.0,313.88L472.63,313.38L474.25,312.25L473.38,310.75L474.25,308.38L472.25,307.0L471.75,305.88L470.88,305.75L470.88,304.5L469.75,304.25L468.5,305.0L467.25,303.88L466.88,301.25L465.75,300.5L464.13,301.5L461.25,300.0L459.13,300.25L458.5,301.5L457.5,303.13L454.88,301.38L453.88,300.75L452.38,300.75L451.75,302.5L450.38,300.75L449.38,302.5L448.25,302.38L447.38,303.25L446.13,302.88L444.63,302.13L443.63,302.75L442.13,301.5L440.38,300.63L440.88,299.63L438.88,299.5L438.63,298.38L439.0,297.0L440.75,295.5L442.0,294.0L442.38,292.88L439.25,290.5L438.38,289.75L438.38,287.88L436.0,287.5L435.5,285.5L435.75,284.63L437.13,284.63L437.25,283.38L438.63,283.88L439.0,282.88L441.5,283.38L442.5,281.88L444.25,280.0L444.13,278.88L443.13,278.75L443.25,277.25L445.63,277.13L445.25,275.75L444.13,274.13L446.0,272.5L446.0,270.38L448.0,268.38L446.75,266.75L445.5,264.63L441.88,263.25L439.63,261.75L438.75,261.75L438.25,261.13L437.5,261.38L436.38,261.25L435.13,260.88L433.88,259.75L435.13,259.0L436.0,257.88L435.5,256.63L432.63,256.63L431.88,256.13L431.13,256.0L431.0,253.25L429.0,251.13L430.25,247.0L426.75,248.88L422.75,249.88L418.63,251.25L418.63,249.88L418.63,247.75L415.38,245.88L414.63,248.0L413.38,247.0L412.63,246.25L412.38,243.63L414.13,241.38L414.13,240.25L413.0,237.63L413.5,236.38L412.88,235.13L412.63,229.13L412.5,224.13L408.88,224.0L407.88,224.0L406.38,224.0L403.0,225.13L400.38,224.38L397.38,224.13L397.0,219.63L393.75,219.0L389.5,217.75L388.0,214.13L388.63,212.0L386.5,207.63L379.75,206.13L376.25,203.13L373.25,202.63L369.63,200.88L366.38,196.63L363.88,196.25L361.0,195.63L360.13,195.0L356.38,195.13L352.5,195.25L351.1,195.3L349.75,195.88L348.88,195.25L347.13,195.25L345.25,196.75L342.88,197.88L340.63,198.38L339.0,197.5L337.5,199.63L334.63,200.38L333.75,198.0L332.25,197.88L330.38,197.25L329.0,197.63L327.13,200.5L326.76,205.25L326.01,206.88L326.88,208.25L325.75,208.5L320.13,208.25L320.25,210.63L319.25,211.75L320.75,212.75L323.25,212.5L325.75,213.25L328.13,210.75L330.5,210.13L331.75,211.0L331.25,212.88L332.13,215.0L334.13,218.0L335.13,218.0L339.5,220.63L340.13,221.75L343.13,227.25L342.63,229.5L341.0,230.63L337.63,231.5L338.25,233.25L338.5,235.5L337.0,237.88L336.25,238.75L336.38,237.0L335.13,235.25L335.38,233.0L334.63,232.0L332.5,232.13L331.5,232.75L331.13,231.5L330.13,229.88L327.88,229.63L328.0,228.13L324.88,227.88L324.13,228.63L323.38,228.38L322.38,228.63L320.38,227.25L319.5,226.38L317.88,224.38L316.75,224.38L313.5,221.63L311.13,221.63L309.13,220.75L308.75,219.5L307.25,220.63L306.75,219.63L307.5,218.63L308.0,217.38L307.25,216.75L305.88,215.88L304.25,214.63L303.0,213.38L302.25,214.88L301.63,217.5L300.38,217.88L300.63,216.88L301.13,216.0L300.0,215.88L298.25,213.88L299.63,208.88L297.38,208.38L295.25,206.88L294.38,205.38L292.88,204.88L290.88,205.25L290.25,206.75L284.38,206.13L281.13,208.63L280.13,206.13L278.38,206.25L276.5,205.75L275.5,207.38L272.5,207.0L271.25,206.88L269.13,206.63L267.0,210.25L266.0,210.25L263.63,212.5L263.63,214.0L262.88,215.0L260.63,216.25L260.75,217.38L259.13,219.75L259.63,225.63L258.13,227.0L257.13,227.0L255.0,229.13L255.88,230.25L255.13,234.38L257.0,237.5L257.13,240.88L258.38,240.63L258.75,241.88L259.5,242.75L260.5,243.38L261.5,243.38L262.75,244.38L263.75,244.75L264.63,245.63L266.38,246.13L268.25,247.25L268.25,248.88L268.63,249.63L270.63,249.88L272.0,251.13L274.25,251.25L275.25,252.25L276.0,252.25L276.88,253.38L277.75,253.75L278.75,254.75L279.75,254.63L281.88,256.0L283.13,255.75L284.0,256.88L284.38,257.88L285.38,258.75L285.88,258.25L287.13,260.38L288.38,259.63L288.88,258.63L289.75,258.63L290.38,257.38L291.5,256.63L293.38,255.0L294.13,254.88L294.5,252.75L293.88,252.25L294.88,250.75L295.63,249.13L295.88,248.38L296.25,245.88L298.63,245.63L300.63,245.88L301.5,247.75L302.25,247.63L302.88,248.25L302.38,249.25L304.5,250.75L306.38,250.38L307.75,250.88L309.0,252.13L310.13,251.13L311.38,250.75L311.63,250.0L311.13,249.13L313.25,248.5L314.25,246.75L315.38,245.38L316.63,244.13L317.0,242.63L318.38,242.63L320.0,242.63L320.75,243.13L320.63,244.38L322.13,245.0L323.0,244.88L323.88,246.63L325.13,248.0L326.25,248.75L327.88,248.75L328.5,249.38L329.25,248.5L330.5,249.5L331.5,250.38L333.13,250.38L333.63,250.88L332.38,252.0L331.63,253.13L332.88,254.5L334.25,256.13L336.13,257.63L336.75,257.75L336.63,258.63L337.5,258.63L338.13,259.63L340.0,260.63L340.75,261.0L341.88,262.13L342.75,262.0L343.75,263.13L344.88,263.13L345.13,264.13L345.25,265.0L345.88,264.75L346.0,266.0L346.75,267.0L347.63,267.13L348.38,268.63L348.75,269.5L348.38,270.13L349.38,270.88L350.63,270.63L351.75,270.5L352.13,271.88L352.25,273.5L353.25,274.88L354.75,276.5L357.63,278.38L358.5,279.13L358.63,280.5L360.38,281.38L361.38,281.5L362.0,282.38L363.38,282.63L365.88,285.0L369.13,286.0L370.75,286.75L371.63,286.5L372.25,287.75L374.63,287.88L376.63,290.0L378.0,289.75L378.75,291.0L379.38,291.88L380.13,292.5L381.0,293.25L382.25,293.88L382.5,292.75L382.75,292.25L382.0,290.63L382.0,289.5L381.75,288.13L382.25,287.25L381.38,287.0L380.0,286.13L379.38,284.25L378.63,282.63L377.63,282.0L376.75,282.0L376.5,281.0L375.63,281.0L375.75,280.13L374.75,279.63L374.75,278.88L375.13,277.75L375.5,276.63L376.38,276.5L377.25,276.0L377.88,277.13L378.38,277.75L379.38,277.5L380.63,278.25L381.75,279.38L383.63,279.5L385.38,280.5L385.5,282.0L385.63,282.88L386.0,283.63L385.75,284.5L386.13,285.0L388.25,283.75L389.13,285.25L389.5,286.38L389.13,287.38L390.25,288.25L391.88,288.5L392.25,289.5L393.38,288.5L394.5,288.88L394.5,290.75L395.63,290.88L396.0,289.75L396.88,290.13L397.88,290.38L399.0,291.5L401.38,292.13L402.75,290.88L403.5,290.75L405.0,291.5L406.38,292.13L407.5,291.63L409.0,292.63L410.0,294.13L410.75,295.25L411.5,295.75L411.5,296.63L412.25,297.0L413.38,297.75L414.13,297.25L415.13,296.75L415.63,296.0L416.38,296.0L417.38,296.75L416.88,297.63L416.38,298.88L416.5,300.38L416.38,301.0L416.13,301.63L415.38,302.75L415.25,304.25L415.75,304.75L415.5,305.38L416.38,306.0L417.75,305.5L418.63,305.63L420.0,306.63L421.25,307.75L422.38,307.88L423.88,309.63L425.13,309.5L425.75,311.63L427.13,312.38L427.13,313.38L428.38,314.38L429.25,315.25L430.63,315.38L432.13,316.13L432.88,315.88L434.25,317.25L436.0,318.0L437.0,318.38L437.25,317.88L437.5,317.25L437.88,316.5L438.63,316.0L439.38,315.13L440.25,314.13L441.0,314.0L442.0,314.75L443.25,314.63L444.88,315.63L445.75,315.5L447.63,316.25L448.25,317.13L449.0,318.5L450.5,320.25L450.38,321.75L451.75,322.63L454.0,323.13L455.88,324.0L457.25,324.75L457.75,326.5L459.75,325.75L460.13,324.63L461.25,323.88L461.88,323.63L462.25,322.5L463.88,322.25L465.63,322.13L466.63,323.13L466.88,324.88Z" />
		<path id="L1611134795499" name="金昌市" class="qing-map-1616136146516" d="M463.5,248.13L465.88,248.13L468.13,248.63L469.75,248.75L470.5,250.13L472.75,251.13L475.38,251.88L477.25,252.63L478.75,253.0L478.88,250.88L480.63,252.0L482.0,252.63L484.0,253.38L485.0,254.0L486.0,255.5L485.63,256.75L486.25,258.13L486.25,259.25L485.0,260.88L484.88,263.63L484.25,265.63L484.13,267.25L485.13,268.5L486.75,270.0L487.25,272.0L488.5,272.63L488.88,274.38L490.75,277.38L494.25,278.5L492.75,280.38L492.38,282.25L494.88,282.25L497.5,282.25L498.5,282.75L498.0,284.5L497.5,286.0L497.88,287.88L497.13,289.38L498.38,290.5L498.38,291.38L499.5,292.0L498.88,293.63L499.13,294.75L498.75,295.5L497.13,294.75L496.75,295.5L497.13,296.75L496.25,297.13L494.25,296.13L492.38,296.38L491.5,295.38L490.63,295.25L490.0,296.25L488.88,296.38L488.5,297.38L487.25,298.13L486.88,298.88L486.0,299.88L485.13,299.88L484.88,298.5L483.38,297.5L481.13,298.13L480.75,298.75L478.88,298.5L477.75,299.38L476.75,299.13L476.25,300.13L475.75,301.13L475.75,302.63L475.0,302.75L474.13,303.13L473.63,302.5L472.75,303.25L471.38,303.25L469.75,304.25L468.5,305.0L467.25,303.88L466.88,301.25L465.75,300.5L464.13,301.5L461.25,300.0L459.13,300.25L458.5,301.5L457.5,303.13L454.88,301.38L453.88,300.75L452.38,300.75L451.75,302.5L450.38,300.75L449.38,302.5L448.25,302.38L447.38,303.25L446.13,302.88L444.63,302.13L443.63,302.75L442.13,301.5L440.38,300.63L440.88,299.63L438.88,299.5L438.63,298.38L439.0,297.0L440.75,295.5L442.0,294.0L442.38,292.88L439.25,290.5L438.38,289.75L438.38,287.88L436.0,287.5L435.5,285.5L435.75,284.63L437.13,284.63L437.25,283.38L438.63,283.88L439.0,282.88L441.5,283.38L442.5,281.88L444.25,280.0L444.13,278.88L443.13,278.75L443.25,277.25L445.63,277.13L445.25,275.75L444.13,274.13L446.0,272.5L446.0,270.38L448.0,268.38L449.13,267.38L450.25,266.38L451.25,266.38L452.38,266.75L453.88,266.75L455.5,268.0L457.25,266.63L458.75,265.5L459.25,264.5L459.75,264.25L461.63,261.63L463.13,258.88L466.0,256.88L467.63,255.63L469.0,254.38L467.75,252.75L465.75,250.63Z" />
		<path id="L1611134803243" name="武威市" class="qing-map-1616136146516" d="M463.5,248.13L462.5,246.75L460.88,245.38L458.88,242.88L458.75,242.13L460.88,241.63L465.0,240.63L469.0,239.63L471.88,238.75L474.75,237.88L478.0,237.13L478.88,236.63L482.0,234.5L486.63,232.88L489.38,234.75L492.38,236.75L493.63,237.5L496.88,238.38L500.88,239.13L503.13,239.63L506.5,240.63L509.0,241.25L512.0,242.0L514.5,239.88L516.63,237.63L518.13,236.13L519.63,235.88L521.63,233.88L524.25,231.63L527.5,228.38L529.5,227.63L532.63,226.75L537.25,225.25L541.0,224.13L544.63,222.75L547.38,221.75L549.88,220.75L554.88,220.75L558.38,222.13L561.38,223.13L560.75,226.75L559.5,230.0L561.75,233.13L563.5,236.0L565.38,238.5L566.5,242.63L566.13,245.0L566.38,248.38L565.25,251.13L562.63,252.75L559.5,253.75L558.0,255.88L556.5,258.88L554.63,261.88L553.0,265.0L551.25,268.38L548.5,270.63L545.38,272.75L542.0,274.88L539.5,276.5L536.38,278.75L533.5,280.5L530.63,282.5L531.88,284.25L533.38,285.88L533.5,287.5L534.5,289.88L535.38,292.38L536.25,294.75L536.75,296.5L536.75,297.0L535.75,297.63L533.13,298.88L531.13,299.88L528.5,301.0L527.75,302.0L528.0,303.25L528.63,305.0L528.75,306.88L529.0,308.38L529.38,309.63L529.75,311.5L529.75,314.25L530.5,314.25L532.25,315.13L534.5,316.0L537.0,316.88L540.13,318.0L542.13,318.63L544.75,321.0L546.38,323.13L548.38,325.0L549.75,326.38L550.13,327.0L550.75,327.5L549.88,327.88L549.25,328.63L547.38,330.25L547.5,331.25L546.38,333.0L546.5,334.25L547.5,335.38L547.63,336.25L546.75,337.63L547.13,339.38L546.0,339.38L545.63,340.63L545.25,341.63L545.5,342.75L547.0,343.25L546.5,344.75L547.5,344.88L547.0,345.75L546.25,346.25L546.5,347.88L545.5,347.75L544.75,348.88L546.0,349.63L545.5,350.63L544.0,350.13L543.25,350.38L543.0,352.38L542.13,353.5L541.5,355.5L541.5,356.38L540.38,356.38L540.63,357.38L540.63,358.5L541.0,359.63L540.0,360.25L539.13,359.88L538.5,361.0L537.5,362.25L538.38,363.5L538.38,364.75L537.75,365.5L537.13,365.63L536.0,365.63L534.88,366.13L532.75,365.38L531.88,364.13L530.38,364.0L527.88,363.88L526.38,364.5L526.13,365.5L525.75,366.25L526.25,367.13L527.25,366.25L527.88,366.63L527.88,368.13L528.63,368.75L529.88,368.63L530.5,367.75L531.5,367.0L532.38,367.63L533.75,367.63L533.88,369.0L534.63,369.5L535.63,369.63L536.38,370.75L536.25,371.75L535.25,372.75L534.25,371.63L533.5,371.25L533.25,372.25L532.5,373.5L530.25,374.13L529.0,372.88L529.5,371.38L528.63,370.63L527.63,370.0L525.75,369.25L524.0,369.25L523.0,368.75L523.88,367.75L524.5,366.88L523.63,366.13L522.75,366.88L522.13,367.63L521.13,367.25L520.38,368.25L519.75,366.75L518.38,367.0L517.25,366.5L516.75,367.25L515.25,367.25L514.88,366.25L514.0,366.5L513.38,366.5L512.38,366.88L511.0,366.63L510.13,367.5L510.13,368.0L508.38,367.75L507.25,368.38L506.38,369.25L507.13,370.38L507.25,371.63L506.25,372.0L505.5,373.25L504.63,372.75L503.5,372.75L502.88,373.5L504.38,374.75L503.75,375.38L504.38,376.5L504.38,377.25L503.63,377.75L503.0,376.75L502.13,377.5L500.63,377.25L499.5,377.75L498.75,376.63L497.88,375.5L496.75,375.13L495.75,373.88L495.75,373.13L494.88,372.5L493.5,371.5L492.75,371.63L492.0,371.0L491.88,369.88L491.63,368.75L490.0,368.25L489.88,367.25L489.25,367.25L488.63,366.38L487.75,366.38L487.0,366.13L487.63,365.5L487.38,364.63L488.13,364.25L488.75,363.38L489.0,362.88L488.88,361.75L488.75,360.75L488.5,359.75L488.88,359.0L489.88,359.25L490.63,358.5L492.25,358.63L492.63,358.13L493.88,358.13L495.0,358.13L495.13,357.63L494.63,356.5L493.63,354.13L492.5,354.13L490.25,351.63L488.63,351.38L487.75,350.38L486.38,348.63L485.25,347.25L485.38,346.25L483.88,345.63L481.75,344.63L480.38,343.25L479.75,343.0L479.63,341.63L478.5,341.63L477.25,340.38L475.25,339.88L474.5,339.5L474.13,338.13L473.63,337.25L472.0,336.5L470.63,336.25L471.38,334.88L471.38,333.5L472.0,332.63L471.25,331.63L470.75,331.38L470.88,330.75L469.5,330.63L468.88,329.88L468.88,329.25L468.5,328.75L467.63,328.13L468.0,327.25L468.0,326.13L468.5,324.38L469.75,324.25L470.13,323.13L469.75,322.13L471.75,320.25L471.63,319.13L472.88,319.13L473.38,316.88L474.75,316.0L475.75,315.0L475.25,314.38L474.0,313.88L472.63,313.38L474.25,312.25L473.38,310.75L474.25,308.38L472.25,307.0L471.75,305.88L470.88,305.75L470.88,304.5L469.75,304.25L471.38,303.25L472.75,303.25L473.63,302.5L474.13,303.13L475.0,302.75L475.75,302.63L475.75,301.13L476.25,300.13L476.75,299.13L477.75,299.38L478.88,298.5L480.75,298.75L481.13,298.13L483.38,297.5L484.88,298.5L485.13,299.88L486.0,299.88L486.88,298.88L487.25,298.13L488.5,297.38L488.88,296.38L490.0,296.25L490.63,295.25L491.5,295.38L492.38,296.38L494.25,296.13L496.25,297.13L497.13,296.75L496.75,295.5L497.13,294.75L498.75,295.5L499.13,294.75L498.88,293.63L499.5,292.0L498.38,291.38L498.38,290.5L497.13,289.38L497.88,287.88L497.5,286.0L498.0,284.5L498.5,282.75L497.5,282.25L494.88,282.25L492.38,282.25L492.75,280.38L494.25,278.5L490.75,277.38L488.88,274.38L488.5,272.63L487.25,272.0L486.75,270.0L485.13,268.5L484.13,267.25L484.25,265.63L484.88,263.63L485.0,260.88L486.25,259.25L486.25,258.13L485.63,256.75L486.0,255.5L485.0,254.0L484.0,253.38L482.0,252.63L480.63,252.0L478.88,250.88L478.75,253.0L477.25,252.63L475.38,251.88L472.75,251.13L470.5,250.13L469.75,248.75L468.13,248.63L465.88,248.13Z" />
		<path id="L1611134817254" name="白银市" class="qing-map-1616136146516" d="M550.75,327.5L550.88,328.75L552.63,330.0L554.38,331.13L556.38,332.63L558.13,334.13L560.38,336.25L562.13,337.88L563.75,339.13L565.38,340.63L568.0,340.5L570.25,339.5L571.13,340.25L572.88,339.88L573.88,340.25L575.38,339.25L577.13,338.63L578.13,339.75L580.25,340.0L581.25,339.13L582.38,339.88L584.25,339.75L585.38,339.88L586.13,340.38L586.75,339.75L587.75,340.63L588.25,340.5L587.88,341.38L588.0,342.13L587.38,342.5L587.75,343.13L588.25,343.75L589.0,344.13L589.88,344.0L590.13,344.88L589.38,345.5L588.75,345.75L588.25,345.75L587.88,346.75L587.38,347.25L586.5,346.88L585.75,346.88L585.88,348.0L585.0,348.38L584.75,349.63L585.13,350.63L585.5,351.63L586.25,352.38L587.5,352.25L588.5,352.25L589.5,352.13L590.38,352.13L591.13,351.38L591.5,350.75L592.63,350.0L593.5,350.75L594.88,350.88L595.63,351.38L596.5,352.0L596.5,353.38L597.0,354.13L597.88,355.0L598.38,355.88L598.5,356.75L599.25,357.25L599.13,358.38L599.88,359.13L600.38,359.13L601.0,359.63L601.13,360.63L601.0,361.5L601.5,362.38L602.25,361.63L603.25,361.75L603.88,362.25L603.5,362.75L604.25,363.38L605.63,362.38L606.38,363.13L607.88,364.0L608.75,364.13L610.25,364.5L610.38,365.38L611.0,366.13L611.25,367.13L612.0,367.88L611.25,368.13L611.5,369.13L611.13,370.13L611.75,370.5L612.38,369.5L613.25,370.25L614.0,370.0L614.75,370.63L615.88,371.63L615.75,372.63L616.63,373.13L616.5,373.63L617.25,374.5L617.75,375.13L618.38,375.13L618.25,376.13L618.88,377.38L618.13,377.75L618.0,378.75L617.38,378.88L616.0,378.25L615.38,378.88L614.0,378.88L613.88,379.5L613.25,379.25L613.0,380.25L612.38,381.13L612.5,382.38L613.5,383.25L613.25,384.38L613.25,385.13L614.0,385.5L614.13,386.38L615.0,386.75L615.38,387.25L615.63,388.38L615.5,389.13L614.5,389.5L615.25,390.13L615.63,390.88L616.75,391.13L617.5,390.38L618.63,391.25L619.25,392.13L619.88,393.13L619.88,394.38L620.25,395.13L619.63,395.5L619.75,396.25L620.63,396.25L621.63,396.38L621.38,397.0L621.5,398.0L621.38,398.88L622.0,399.38L621.38,400.13L622.0,401.13L622.38,402.13L623.63,402.25L624.13,403.38L624.75,404.38L624.88,405.13L624.0,405.7L624.3,406.5L624.3,407.1L624.2,408.2L625.0,408.8L625.4,409.7L625.4,410.7L625.7,411.7L626.5,412.3L626.4,413.4L625.7,413.7L625.7,414.7L625.6,415.2L624.6,415.2L624.3,414.6L623.9,415.3L623.0,415.1L621.8,416.6L621.4,416.1L620.4,417.4L619.5,418.1L619.8,418.9L618.7,419.0L618.7,420.5L618.2,421.1L618.6,423.6L618.0,424.2L618.7,425.8L618.1,426.3L618.9,428.1L619.5,427.9L620.3,428.3L621.2,428.6L621.2,429.7L620.7,429.1L620.1,429.7L620.4,430.5L620.3,431.3L620.2,431.8L620.8,432.6L621.3,431.4L622.0,431.0L622.2,431.6L622.7,431.2L622.8,431.9L622.7,432.7L623.3,433.2L623.8,433.6L624.1,434.2L623.8,434.9L624.5,435.1L625.1,435.4L624.9,436.0L625.7,436.3L624.63,436.75L623.63,437.13L623.75,438.13L624.5,439.5L625.0,440.88L626.13,442.13L627.25,442.75L626.5,443.38L625.38,443.38L624.75,445.0L625.0,446.5L623.63,446.63L622.88,447.13L622.13,446.88L621.75,448.0L622.38,449.5L620.5,449.88L619.63,449.25L619.0,449.88L617.88,449.88L616.88,449.0L615.75,450.38L614.63,449.88L613.88,450.13L611.88,452.25L610.0,452.0L609.13,452.38L608.88,453.38L607.38,453.88L606.5,452.88L606.38,451.75L605.5,451.63L603.63,451.88L602.88,450.88L601.88,450.5L601.88,449.63L600.63,449.5L600.25,447.88L600.25,446.88L601.0,446.0L601.0,445.13L601.88,444.5L601.75,443.13L602.63,441.88L602.75,439.5L603.0,438.25L602.0,437.75L602.25,436.63L601.38,436.13L600.25,436.13L598.25,434.63L598.25,433.38L596.88,432.63L597.25,431.63L596.88,430.13L596.88,429.25L595.63,429.5L594.88,428.0L592.63,427.63L593.13,426.0L591.25,424.88L590.88,423.88L589.63,423.75L588.5,422.0L587.25,421.88L586.5,420.88L588.0,420.0L588.5,419.63L588.13,418.75L587.13,418.75L586.13,418.88L585.38,418.88L584.25,419.5L583.0,419.5L582.13,420.0L580.0,420.0L580.63,419.13L581.0,418.38L581.0,417.38L581.88,416.88L582.13,416.13L583.25,415.5L582.88,414.13L583.25,413.0L583.75,411.63L583.38,410.63L581.75,410.88L580.88,409.13L581.75,408.5L582.13,407.5L580.88,405.63L581.25,404.5L580.0,403.63L580.25,402.0L580.38,400.38L581.13,398.88L580.75,397.13L580.0,395.63L578.88,396.5L577.63,397.38L577.63,398.5L576.63,399.0L575.5,399.25L574.5,399.13L573.63,399.75L572.63,399.25L571.5,400.75L569.88,400.5L568.5,400.38L567.75,400.75L567.75,401.63L566.25,402.0L564.88,402.5L565.25,403.38L564.63,404.0L564.13,404.63L564.13,405.75L563.88,406.88L562.88,406.75L562.63,405.75L562.75,404.63L563.0,403.75L562.5,402.75L563.13,401.88L562.25,400.38L561.63,399.0L560.5,398.25L559.75,396.75L559.13,395.88L559.75,394.13L558.25,393.13L558.5,391.38L558.75,390.63L558.88,389.5L559.38,388.5L558.13,388.0L556.88,388.0L555.75,387.25L555.13,386.5L555.75,385.38L554.75,384.5L552.88,383.25L553.25,381.5L552.63,380.5L554.0,379.88L554.75,378.88L553.88,378.38L553.5,377.0L552.5,377.0L553.5,375.38L552.25,375.0L551.13,375.0L550.25,374.63L549.5,375.13L549.13,374.13L547.88,373.38L546.5,372.25L546.13,373.63L547.13,374.38L547.88,375.13L547.63,375.88L546.13,375.5L545.25,375.0L544.25,376.13L543.5,376.13L542.75,375.5L542.5,374.63L541.63,374.38L540.75,374.25L539.75,373.75L539.25,373.13L539.5,372.38L540.0,371.63L539.38,370.88L538.63,370.5L538.5,369.25L537.75,368.0L536.88,367.25L537.13,366.38L537.75,365.5L538.38,364.75L538.38,363.5L537.5,362.25L538.5,361.0L539.13,359.88L540.0,360.25L541.0,359.63L540.63,358.5L540.63,357.38L540.38,356.38L541.5,356.38L541.5,355.5L542.13,353.5L543.0,352.38L543.25,350.38L544.0,350.13L545.5,350.63L546.0,349.63L544.75,348.88L545.5,347.75L546.5,347.88L546.25,346.25L547.0,345.75L547.5,344.88L546.5,344.75L547.0,343.25L545.5,342.75L545.25,341.63L545.63,340.63L546.0,339.38L547.13,339.38L546.75,337.63L547.63,336.25L547.5,335.38L546.5,334.25L546.38,333.0L547.5,331.25L547.38,330.25L549.25,328.63L549.88,327.88Z" />
		<path id="L1611134822708" name="兰州市" class="qing-map-1616136146516" d="M498.75,376.63L497.38,377.0L496.88,377.63L496.13,378.0L495.88,378.75L495.13,379.25L494.0,379.13L493.5,380.0L493.88,380.75L494.0,381.88L494.5,382.63L494.5,383.13L495.13,383.63L495.5,384.38L496.13,384.75L496.63,385.25L497.63,385.88L498.75,385.88L498.5,386.75L499.25,387.5L500.38,387.75L501.0,388.0L500.63,388.5L499.5,388.5L499.63,389.88L500.13,390.63L500.63,391.13L501.38,391.38L501.75,392.0L502.38,392.63L502.25,393.38L501.38,394.5L502.0,395.5L502.38,396.13L502.5,397.0L503.5,397.63L503.38,399.25L503.75,399.88L504.0,401.13L504.88,402.25L506.0,402.0L506.88,402.5L507.5,402.88L508.13,403.88L509.0,404.75L509.88,405.0L510.75,405.25L511.5,405.88L512.38,406.38L512.75,407.0L513.38,408.0L514.13,408.5L514.63,409.0L515.38,408.88L516.13,408.88L517.0,408.5L517.38,409.38L517.63,409.88L518.38,410.38L519.38,410.88L520.63,410.75L521.25,411.38L522.13,411.25L522.75,412.13L523.5,412.25L524.63,412.5L525.75,412.38L526.88,413.0L527.13,414.0L528.63,414.0L530.25,413.75L530.5,414.38L530.38,415.5L530.38,416.38L531.5,417.13L532.63,416.38L532.63,415.0L532.88,414.5L533.88,414.88L534.63,414.75L536.25,415.0L537.25,415.75L537.88,416.25L538.0,417.25L539.25,417.0L539.38,418.0L540.0,419.0L540.5,419.88L540.25,421.0L540.38,422.25L539.88,423.25L540.0,424.25L541.13,424.63L541.63,425.5L542.75,425.13L544.13,425.0L544.88,426.0L545.88,426.88L547.38,427.13L547.13,428.5L547.25,429.75L548.25,429.5L549.5,429.88L550.13,430.13L549.88,431.25L550.5,432.0L550.25,433.25L550.88,433.75L551.38,432.75L552.25,432.75L552.5,433.63L553.38,434.25L554.25,435.13L555.38,435.38L555.75,436.25L556.63,435.75L557.0,436.75L558.38,436.88L559.13,438.38L560.13,438.63L560.25,440.13L561.63,440.25L561.63,441.25L563.0,441.75L563.63,442.38L564.5,441.75L565.25,440.75L565.88,441.0L566.25,442.13L567.13,442.88L566.63,444.0L567.63,444.0L568.25,444.63L569.63,445.13L570.75,445.0L570.63,444.0L571.75,443.5L571.13,441.88L571.13,441.0L572.0,440.75L572.75,440.25L571.88,439.63L571.88,438.5L571.88,437.25L572.25,436.63L572.5,436.0L573.5,436.0L574.0,435.25L574.13,434.25L575.0,433.5L575.88,432.63L575.75,431.38L576.0,430.25L576.13,429.0L576.75,428.25L577.63,428.38L577.63,427.25L577.5,426.13L576.63,425.5L577.0,424.5L577.75,423.13L577.63,422.13L578.63,421.63L579.25,421.5L579.38,420.5L580.0,420.0L580.63,419.13L581.0,418.38L581.0,417.38L581.88,416.88L582.13,416.13L583.25,415.5L582.88,414.13L583.25,413.0L583.75,411.63L583.38,410.63L581.75,410.88L580.88,409.13L581.75,408.5L582.13,407.5L580.88,405.63L581.25,404.5L580.0,403.63L580.25,402.0L580.38,400.38L581.13,398.88L580.75,397.13L580.0,395.63L578.88,396.5L577.63,397.38L577.63,398.5L576.63,399.0L575.5,399.25L574.5,399.13L573.63,399.75L572.63,399.25L571.5,400.75L569.88,400.5L568.5,400.38L567.75,400.75L567.75,401.63L566.25,402.0L564.88,402.5L565.25,403.38L564.63,404.0L564.13,404.63L564.13,405.75L563.88,406.88L562.88,406.75L562.63,405.75L562.75,404.63L563.0,403.75L562.5,402.75L563.13,401.88L562.25,400.38L561.63,399.0L560.5,398.25L559.75,396.75L559.13,395.88L559.75,394.13L558.25,393.13L558.5,391.38L558.75,390.63L558.88,389.5L559.38,388.5L558.13,388.0L556.88,388.0L555.75,387.25L555.13,386.5L555.75,385.38L554.75,384.5L552.88,383.25L553.25,381.5L552.63,380.5L554.0,379.88L554.75,378.88L553.88,378.38L553.5,377.0L552.5,377.0L553.5,375.38L552.25,375.0L551.13,375.0L550.25,374.63L549.5,375.13L549.13,374.13L547.88,373.38L546.5,372.25L546.13,373.63L547.13,374.38L547.88,375.13L547.63,375.88L546.13,375.5L545.25,375.0L544.25,376.13L543.5,376.13L542.75,375.5L542.5,374.63L541.63,374.38L540.75,374.25L539.75,373.75L539.25,373.13L539.5,372.38L540.0,371.63L539.38,370.88L538.63,370.5L538.5,369.25L537.75,368.0L536.88,367.25L537.13,366.38L537.13,365.63L536.0,365.63L534.88,366.13L532.75,365.38L531.88,364.13L530.38,364.0L527.88,363.88L526.38,364.5L526.13,365.5L525.75,366.25L526.25,367.13L527.25,366.25L527.88,366.63L527.88,368.13L528.63,368.75L529.88,368.63L530.5,367.75L531.5,367.0L532.38,367.63L533.75,367.63L533.88,369.0L534.63,369.5L535.63,369.63L536.38,370.75L536.25,371.75L535.25,372.75L534.25,371.63L533.5,371.25L533.25,372.25L532.5,373.5L530.25,374.13L529.0,372.88L529.5,371.38L528.63,370.63L527.63,370.0L525.75,369.25L524.0,369.25L523.0,368.75L523.88,367.75L524.5,366.88L523.63,366.13L522.75,366.88L522.13,367.63L521.13,367.25L520.38,368.25L519.75,366.75L518.38,367.0L517.25,366.5L516.75,367.25L515.25,367.25L514.88,366.25L514.0,366.5L513.38,366.5L512.38,366.88L511.0,366.63L510.13,367.5L510.13,368.0L508.38,367.75L507.25,368.38L506.38,369.25L507.13,370.38L507.25,371.63L506.25,372.0L505.5,373.25L504.63,372.75L503.5,372.75L502.88,373.5L504.38,374.75L503.75,375.38L504.38,376.5L504.38,377.25L503.63,377.75L503.0,376.75L502.13,377.5L500.63,377.25L499.5,377.75Z" />
		<path id="L1611134838629" name="甘南藏族自治州" class="qing-map-1616136146516" d="M545.5,478.38L545.25,477.13L544.5,477.13L544.0,477.75L543.13,478.13L542.5,477.38L543.25,476.63L544.13,475.88L544.0,475.0L542.8,475.3L541.38,473.25L540.13,472.5L539.75,471.38L538.25,471.25L537.25,470.0L535.13,468.5L534.5,469.25L534.13,470.25L533.13,470.25L532.38,469.38L530.5,469.0L528.75,469.25L526.88,468.13L525.13,466.75L523.25,466.75L520.88,466.63L519.88,466.0L518.25,464.25L516.88,464.38L515.5,463.38L515.63,461.75L514.5,461.88L513.13,461.63L511.5,460.88L510.63,463.0L509.25,462.38L509.25,460.38L509.5,458.0L509.63,455.25L508.0,452.88L505.88,454.25L504.75,453.13L503.75,452.13L503.38,451.13L502.13,451.0L500.13,449.38L498.13,448.13L497.25,447.5L495.75,447.5L494.75,447.0L493.88,447.13L492.88,447.13L491.88,446.25L491.13,445.5L490.5,445.0L490.0,444.5L489.38,444.5L489.5,445.13L488.88,445.38L489.0,446.13L488.5,447.25L488.13,448.13L487.63,448.63L487.38,449.88L486.25,450.75L486.0,451.88L486.5,452.5L486.38,453.0L485.63,453.25L485.0,453.63L484.88,454.38L483.63,454.0L482.5,453.75L481.13,453.25L480.5,453.13L479.75,453.75L479.63,454.5L479.13,455.63L479.13,456.5L480.13,457.0L480.63,457.88L480.75,458.88L480.38,459.75L479.63,459.13L479.25,459.75L479.88,461.13L480.75,461.5L481.25,461.25L482.25,461.88L483.0,462.5L482.63,463.88L483.75,465.38L484.5,466.88L484.0,467.88L483.38,468.13L482.13,467.88L481.88,468.88L481.63,469.63L480.5,469.63L480.25,470.38L479.88,471.5L479.88,472.75L479.38,473.63L478.38,474.0L477.88,474.38L477.25,474.25L476.38,473.88L475.88,474.13L475.75,475.13L474.0,475.38L473.63,476.0L473.13,476.88L472.25,476.38L471.38,477.25L470.63,478.13L469.38,479.13L469.88,479.75L469.5,480.38L468.5,481.13L468.5,481.88L468.75,482.75L469.38,483.25L468.13,483.88L467.13,483.13L466.13,483.0L465.25,483.0L464.63,483.25L463.38,483.25L462.38,484.38L462.63,485.25L463.13,485.75L462.5,486.5L462.88,487.75L462.5,488.5L462.25,489.63L462.13,490.75L462.38,492.5L462.25,493.63L462.88,494.63L462.38,495.63L462.5,496.5L462.63,498.0L462.75,499.0L463.13,500.25L463.88,500.75L464.13,501.63L465.38,502.38L466.5,502.75L467.38,503.0L468.75,503.13L469.63,502.88L470.25,503.63L471.0,503.88L471.63,504.63L473.13,504.5L473.38,506.0L473.63,507.25L474.88,508.5L475.25,509.75L475.13,510.5L475.88,511.0L477.0,512.0L477.63,513.0L476.38,513.75L474.88,513.5L474.0,514.63L473.63,515.75L473.0,516.25L473.0,517.38L471.75,517.63L470.63,517.0L469.5,516.63L469.0,517.38L468.88,518.38L469.0,519.38L468.75,520.0L468.13,520.0L466.88,520.0L466.88,520.5L467.38,521.5L466.88,522.38L466.75,523.38L466.0,523.75L465.5,523.63L464.25,523.5L464.25,524.0L464.5,524.88L464.38,526.0L464.0,526.75L463.0,526.38L461.38,525.5L460.25,525.5L459.75,524.5L459.25,524.38L459.25,525.25L458.5,526.0L457.75,525.75L456.75,525.63L455.88,525.63L455.25,526.13L455.0,527.0L454.63,527.63L454.13,528.38L453.88,527.88L453.63,527.0L453.0,528.0L452.88,527.38L452.88,526.5L452.38,526.5L451.63,526.88L450.75,526.5L449.75,525.63L450.13,524.75L449.63,524.0L449.0,523.63L448.63,522.75L447.63,522.75L446.75,522.25L446.0,522.25L445.5,521.88L444.88,521.13L443.75,521.38L442.63,522.0L442.38,521.38L442.38,520.88L441.38,520.5L440.38,520.25L439.5,520.0L439.0,520.0L438.13,519.5L437.0,519.0L435.25,519.0L435.13,518.13L433.88,517.88L432.13,517.13L432.0,516.38L431.25,516.38L430.63,516.38L430.63,514.5L429.5,514.25L428.75,514.63L428.0,515.13L427.13,514.5L426.5,514.88L426.0,514.63L425.13,514.63L424.38,515.0L423.75,514.88L423.0,514.88L422.5,514.38L421.63,514.13L420.88,513.38L420.13,512.63L419.25,512.13L419.0,512.75L418.13,511.88L417.63,511.63L415.5,511.88L415.38,512.63L415.13,513.13L414.5,514.13L413.63,514.63L412.5,514.88L411.88,515.75L411.88,516.38L411.75,517.25L411.13,518.38L411.75,519.13L410.88,519.75L411.13,520.75L409.88,521.63L409.38,522.88L410.75,523.5L411.5,524.0L412.13,525.38L412.75,526.38L413.38,527.5L414.25,528.5L414.38,529.63L414.63,530.88L415.13,530.63L415.75,531.75L416.38,532.63L417.38,532.88L416.88,534.0L417.75,534.75L418.38,535.75L419.0,536.88L419.75,538.25L420.13,538.75L420.88,538.5L422.0,539.25L422.5,540.13L423.63,540.75L424.25,540.5L424.75,540.25L425.75,541.0L427.13,541.0L427.13,542.0L427.88,543.25L429.0,543.88L428.75,545.0L428.63,546.0L428.88,546.88L428.0,547.5L427.63,549.38L428.0,550.13L428.0,551.5L428.88,550.63L430.13,550.88L430.75,550.0L432.25,551.13L433.63,551.38L434.38,551.0L435.5,551.63L436.63,551.75L438.0,552.38L439.13,551.75L439.5,551.25L439.88,550.25L440.88,550.25L442.88,549.13L444.13,549.75L445.0,549.5L445.88,550.88L446.88,550.5L446.88,552.5L447.88,553.5L448.25,554.75L448.25,556.0L448.38,557.0L448.5,559.13L449.0,560.63L450.25,560.0L451.13,560.63L451.38,560.13L452.75,560.38L453.63,560.5L454.63,559.25L454.63,558.25L455.5,557.25L456.25,557.13L457.38,557.88L458.25,557.0L458.13,555.25L458.88,554.88L460.0,555.88L460.63,556.5L461.5,557.0L461.63,558.5L460.88,559.25L461.5,559.88L461.25,560.75L462.38,561.5L462.13,563.0L463.38,563.38L462.25,563.88L462.38,565.13L461.38,566.25L460.75,567.13L460.63,568.25L460.25,569.75L460.5,570.63L459.75,570.38L459.0,571.38L458.38,571.63L458.25,572.63L457.75,573.38L457.13,572.25L455.75,573.13L455.75,574.25L456.75,574.88L458.0,575.75L458.25,576.5L458.75,577.25L458.75,578.63L458.75,579.88L457.63,581.0L458.5,581.13L459.75,581.75L460.5,581.25L460.13,580.63L461.25,579.63L462.25,579.38L462.63,578.25L463.0,577.25L463.88,577.13L465.13,576.75L466.75,576.88L467.5,577.0L469.0,577.0L469.63,576.5L470.5,575.75L470.25,575.13L470.25,574.38L470.5,573.5L470.5,572.63L470.75,571.88L470.88,571.38L471.5,572.13L472.63,572.5L472.38,573.5L472.75,574.0L474.13,574.75L474.88,575.25L475.75,574.63L475.75,573.63L475.75,572.63L475.63,571.25L474.88,571.0L475.5,569.88L474.5,568.88L475.63,568.25L476.75,567.75L476.75,566.88L477.75,565.88L478.0,564.63L478.63,565.13L479.5,565.13L480.63,565.88L481.38,565.25L482.5,565.88L482.88,564.88L483.75,565.88L484.0,564.88L484.63,564.38L485.63,563.63L486.25,562.88L487.25,562.88L486.88,561.75L487.88,562.25L486.88,561.13L486.88,559.88L486.0,558.5L487.25,558.5L487.75,558.13L486.88,557.5L486.5,556.38L485.25,556.13L484.13,555.38L483.13,554.63L482.25,554.75L481.5,554.13L481.13,552.5L480.38,551.0L480.5,550.2L480.9,549.4L481.3,548.4L481.6,548.0L481.2,547.4L480.4,547.7L480.0,548.4L479.6,549.0L478.9,548.4L478.8,547.6L479.3,547.1L480.2,546.9L480.8,546.4L480.5,545.7L479.9,544.7L479.0,544.5L478.0,544.5L477.4,544.4L476.8,544.0L477.4,543.1L478.3,542.3L477.9,540.7L476.8,540.1L476.0,538.8L474.9,537.3L474.2,536.7L473.1,535.4L472.0,534.6L473.2,533.6L474.1,534.0L474.5,534.0L475.6,535.0L476.4,534.8L477.3,534.1L478.4,533.7L478.7,532.9L478.8,533.7L480.0,533.0L480.3,534.0L481.0,534.0L481.4,534.3L482.2,534.0L482.4,534.5L483.0,534.1L483.5,534.2L484.1,531.9L484.6,530.9L485.5,530.0L485.6,528.6L486.0,528.0L487.0,528.7L487.9,528.6L489.0,528.6L489.2,527.8L490.6,528.1L491.6,528.1L491.7,527.2L493.7,527.2L494.4,527.8L495.7,528.5L496.0,527.7L496.4,527.1L496.5,526.4L495.7,526.1L494.8,526.3L494.9,525.7L493.1,524.5L493.8,523.7L494.6,523.8L495.3,523.4L495.4,522.6L496.2,522.0L497.3,522.0L498.0,521.9L497.9,521.1L498.5,520.8L499.2,520.3L499.1,519.3L500.9,519.7L501.5,519.5L501.6,518.6L502.4,518.0L502.5,517.5L503.3,517.3L503.9,517.3L504.8,517.8L505.3,517.2L505.4,516.4L505.4,516.0L506.3,515.4L507.9,515.7L508.5,516.1L509.5,516.2L509.5,516.9L509.6,517.5L509.7,518.2L510.2,518.7L510.8,519.9L510.4,521.1L510.5,522.0L511.9,522.6L512.9,522.6L514.1,521.9L514.9,522.6L515.8,522.6L517.1,523.2L517.4,524.4L517.8,525.6L517.1,526.1L517.5,526.8L518.3,527.2L519.4,527.7L519.8,528.3L519.4,528.9L518.9,529.2L518.4,529.3L517.8,529.1L517.7,529.8L517.7,530.5L518.5,530.9L518.8,531.8L519.2,532.4L518.9,533.1L518.2,533.4L518.3,534.2L517.5,534.7L517.3,535.3L517.8,536.1L518.6,536.6L519.2,536.6L520.0,537.1L520.1,537.8L520.0,539.0L519.5,539.4L519.4,540.2L519.1,541.3L518.7,542.5L519.2,543.2L520.5,543.6L521.5,544.3L522.0,543.9L522.8,543.4L523.0,542.8L524.4,543.5L524.7,544.1L524.4,545.0L525.4,546.0L526.2,546.7L527.1,546.9L527.9,547.0L528.5,546.6L529.5,546.4L531.0,546.6L532.0,546.5L531.9,545.0L532.7,544.6L532.8,544.1L533.2,543.4L533.5,542.9L533.8,543.4L534.4,543.4L534.6,543.0L535.1,543.0L535.9,543.6L535.9,544.4L535.8,544.9L536.4,545.2L535.9,546.2L536.0,546.6L536.8,547.0L536.7,547.8L536.3,548.5L535.6,549.5L535.7,550.4L536.4,550.8L536.9,550.5L536.9,549.8L537.3,549.3L538.0,549.3L538.3,548.6L538.7,548.3L538.7,547.6L539.3,548.2L539.7,548.6L540.2,548.0L540.4,548.4L540.8,548.7L541.7,548.3L541.7,548.9L541.2,549.1L542.0,549.7L543.2,549.9L544.1,549.7L544.1,550.3L544.9,550.6L545.8,550.7L546.4,551.6L547.3,551.2L548.3,551.3L548.9,550.3L550.1,550.5L551.2,550.0L551.7,550.3L553.9,550.0L555.3,550.7L556.6,550.5L557.8,550.3L558.8,549.9L559.6,549.9L561.2,550.8L562.3,551.2L563.1,552.3L563.7,553.2L565.0,554.1L565.4,555.1L565.4,555.9L565.0,556.7L564.6,557.9L565.0,559.0L565.6,559.7L565.5,560.5L565.8,561.2L565.8,562.2L566.3,562.6L567.1,563.1L567.6,563.7L567.7,565.1L568.0,565.7L568.8,565.3L569.8,565.9L569.9,567.0L570.5,567.4L570.5,569.1L571.3,569.3L571.8,569.1L572.6,569.6L573.6,568.9L573.9,568.4L574.8,568.9L575.6,569.2L576.4,569.9L577.3,570.2L578.7,569.8L580.2,569.3L581.1,570.6L582.1,572.3L581.8,574.1L582.0,575.2L583.4,575.3L584.8,575.6L586.1,575.1L587.0,573.4L587.7,571.3L588.9,570.8L590.1,571.1L592.4,570.5L591.6,569.8L590.2,568.9L590.4,567.6L590.0,565.8L590.9,565.5L589.9,564.4L589.3,562.5L588.4,561.8L586.5,560.8L584.7,559.3L583.7,558.3L584.4,557.6L584.3,556.0L583.2,556.0L582.9,554.9L582.0,554.7L581.3,553.8L582.5,552.5L582.5,551.6L581.2,552.2L580.0,552.2L580.9,551.1L580.3,550.2L580.1,549.0L581.3,547.7L582.2,546.5L582.2,545.6L580.8,545.6L579.9,545.1L578.6,545.1L577.9,544.0L577.8,542.9L576.3,541.3L574.4,541.1L573.6,541.0L572.4,539.7L571.2,538.8L569.5,537.9L568.1,536.1L566.7,536.1L566.1,534.9L564.4,533.6L562.8,533.4L562.3,532.1L561.3,532.0L560.9,531.0L560.6,530.2L558.9,530.0L558.9,528.8L559.0,527.2L559.0,525.9L558.3,525.1L557.2,523.4L555.4,522.9L554.6,521.9L554.5,521.2L552.5,519.7L552.8,518.5L551.2,517.2L550.1,518.0L549.7,516.7L547.5,518.1L546.7,517.7L546.6,516.9L545.2,516.4L544.4,517.3L543.5,517.2L543.6,515.5L543.9,514.8L545.0,514.7L545.4,513.7L545.7,512.6L546.9,512.2L546.9,511.2L547.8,511.1L549.0,510.0L549.0,508.5L549.0,507.7L548.0,507.0L548.7,506.1L548.0,505.0L546.7,503.6L547.0,502.8L548.3,502.7L550.1,502.7L550.0,501.8L550.4,500.3L549.5,499.5L550.0,498.1L550.5,497.3L551.4,495.9L551.3,495.0L550.9,494.2L550.1,493.2L550.0,492.6L551.0,491.9L551.9,491.3L553.4,491.4L554.3,492.1L555.9,492.1L557.3,491.9L557.9,491.2L558.5,489.4L557.0,489.0L557.2,487.3L555.8,486.1L557.1,485.1L558.6,484.0L558.2,482.2L558.9,481.1L557.6,480.7L556.2,479.5L555.1,480.7L554.0,479.4L552.8,478.7L551.5,477.5L549.6,478.7L549.0,477.4L547.6,477.3L547.8,475.7L546.6,475.3L546.2,476.9Z" />
		<path id="L1611134852683" name="定西市" class="qing-map-1616136146516" d="M540.0,424.25L539.5,425.3L539.1,426.2L538.0,426.3L537.1,426.1L537.0,424.6L536.4,424.5L535.7,423.8L535.1,423.8L535.0,424.6L534.4,425.7L533.1,425.6L533.4,426.7L533.4,427.9L534.6,428.8L535.3,429.0L536.1,430.6L536.8,432.1L537.5,431.9L538.5,432.9L539.0,433.7L539.1,435.1L540.3,435.2L541.0,436.5L541.7,437.8L542.8,438.8L543.7,439.7L544.8,440.1L545.5,441.6L546.5,442.5L547.5,443.0L547.8,444.4L548.0,445.8L548.9,447.0L549.4,448.5L550.1,449.4L550.8,449.1L550.6,450.3L550.0,450.9L549.7,452.2L548.7,452.4L548.6,453.1L549.0,454.3L549.0,454.9L547.8,455.1L547.3,456.2L547.2,457.2L546.9,458.2L546.2,458.2L546.0,459.4L545.1,459.8L545.4,461.8L544.2,462.3L544.1,463.5L544.0,464.3L543.4,464.4L543.2,465.2L543.2,466.1L544.3,466.3L544.5,467.6L544.5,469.1L544.5,470.0L545.4,470.1L545.8,470.5L545.6,471.4L545.9,472.4L545.5,473.3L545.7,474.2L545.8,475.2L546.6,475.3L547.8,475.7L547.6,477.3L549.0,477.4L549.6,478.7L551.5,477.5L552.8,478.7L554.0,479.4L555.1,480.7L556.2,479.5L557.6,480.7L558.9,481.1L558.2,482.2L558.6,484.0L557.1,485.1L555.8,486.1L557.2,487.3L557.0,489.0L558.5,489.4L557.9,491.2L557.3,491.9L555.9,492.1L554.3,492.1L553.4,491.4L551.9,491.3L551.0,491.9L550.0,492.6L550.1,493.2L550.9,494.2L551.3,495.0L551.4,495.9L550.5,497.3L550.0,498.1L549.5,499.5L550.4,500.3L550.0,501.8L550.1,502.7L548.3,502.7L547.0,502.8L546.7,503.6L548.0,505.0L548.7,506.1L548.0,507.0L549.0,507.7L549.0,508.5L549.0,510.0L547.8,511.1L546.9,511.2L546.9,512.2L545.7,512.6L545.4,513.7L545.0,514.7L543.9,514.8L543.6,515.5L543.5,517.2L544.4,517.3L545.2,516.4L546.6,516.9L546.7,517.7L547.5,518.1L549.7,516.7L550.1,518.0L551.2,517.2L552.8,518.5L552.5,519.7L554.5,521.2L554.6,521.9L555.4,522.9L557.2,523.4L558.3,525.1L559.0,525.9L559.6,524.9L560.2,523.4L560.9,522.3L562.6,522.0L564.1,522.1L565.1,521.0L565.4,518.9L563.7,518.5L563.2,517.0L562.3,515.1L563.4,514.2L564.4,513.1L565.8,513.1L566.4,511.9L567.8,512.5L569.6,513.4L570.4,513.3L570.3,512.0L571.1,511.4L571.5,512.2L572.8,512.1L574.1,512.7L574.0,514.4L575.1,514.3L576.7,514.1L577.1,515.4L577.5,516.5L577.5,517.6L577.2,518.9L577.9,519.8L579.1,520.5L580.6,520.9L581.8,522.5L581.9,520.6L583.6,521.7L585.4,519.9L586.7,519.9L588.4,520.0L589.4,518.5L591.4,519.7L592.6,520.1L593.6,519.8L593.5,518.9L594.6,518.6L594.8,517.1L595.8,517.1L597.0,516.3L596.3,514.8L596.8,513.8L595.9,511.9L596.6,511.4L597.8,511.5L599.1,511.5L600.3,511.2L601.9,511.5L602.9,510.7L602.5,508.9L601.4,507.9L600.5,508.7L599.3,508.3L597.7,509.4L596.6,508.4L595.0,507.9L594.1,509.1L593.3,508.5L593.4,507.1L593.7,505.5L593.0,505.7L592.5,506.6L591.7,506.1L591.3,504.6L592.0,503.9L591.6,502.2L590.8,502.4L589.9,502.9L588.8,502.3L588.2,501.1L588.6,499.7L589.3,498.3L589.0,496.8L589.7,495.5L588.7,495.1L587.4,496.0L586.1,496.1L585.2,496.7L584.7,496.5L584.9,495.3L584.6,494.0L584.9,493.3L584.2,492.6L585.1,491.6L583.9,489.9L583.9,488.8L585.1,488.0L585.1,486.4L585.8,485.4L586.1,483.9L587.4,484.3L588.7,484.8L589.5,485.2L590.3,484.5L591.6,484.9L592.5,484.3L594.5,484.6L596.8,484.8L598.0,485.3L598.3,484.1L599.3,483.1L598.9,481.5L599.3,480.0L600.3,480.5L601.6,479.7L602.3,480.9L603.9,480.5L604.4,481.5L605.5,480.8L606.5,479.9L606.0,478.4L606.9,478.5L608.7,478.7L609.7,479.3L610.7,478.5L611.8,479.5L611.9,480.7L613.4,481.1L613.9,479.9L615.4,479.2L615.0,477.6L614.2,476.8L614.9,475.7L615.6,475.2L616.3,476.7L616.9,476.1L616.6,474.9L617.4,474.5L618.9,474.8L619.3,473.8L619.9,473.3L621.1,473.8L621.3,472.9L621.9,472.0L622.0,471.2L623.3,470.2L623.8,469.9L625.0,470.8L625.3,472.1L626.0,472.4L626.6,473.4L627.3,474.1L627.7,473.1L627.8,472.2L628.5,471.1L628.8,470.4L627.5,469.7L627.5,469.0L628.0,468.7L629.0,467.7L629.4,467.3L630.6,468.3L631.6,469.0L631.9,469.4L632.7,469.5L632.6,468.2L631.6,467.2L631.7,464.7L630.6,464.3L629.7,465.3L628.9,464.9L627.9,463.3L628.0,461.7L628.7,460.6L627.5,460.0L627.2,459.2L627.9,458.3L627.0,457.6L626.0,457.5L626.0,455.6L625.0,455.8L625.0,457.1L624.4,458.0L623.8,457.3L623.3,456.0L622.4,454.4L620.9,453.8L620.9,451.9L620.2,450.7L619.1,450.6L619.0,449.88L617.88,449.88L616.88,449.0L615.75,450.38L614.63,449.88L613.88,450.13L611.88,452.25L610.0,452.0L609.13,452.38L608.88,453.38L607.38,453.88L606.5,452.88L606.38,451.75L605.5,451.63L603.63,451.88L602.88,450.88L601.88,450.5L601.88,449.63L600.63,449.5L600.25,447.88L600.25,446.88L601.0,446.0L601.0,445.13L601.88,444.5L601.75,443.13L602.63,441.88L602.75,439.5L603.0,438.25L602.0,437.75L602.25,436.63L601.38,436.13L600.25,436.13L598.25,434.63L598.25,433.38L596.88,432.63L597.25,431.63L596.88,430.13L596.88,429.25L595.63,429.5L594.88,428.0L592.63,427.63L593.13,426.0L591.25,424.88L590.88,423.88L589.63,423.75L588.5,422.0L587.25,421.88L586.5,420.88L588.0,420.0L588.5,419.63L588.13,418.75L587.13,418.75L586.13,418.88L585.38,418.88L584.25,419.5L583.0,419.5L582.13,420.0L580.0,420.0L579.38,420.5L579.25,421.5L578.63,421.63L577.63,422.13L577.75,423.13L577.0,424.5L576.63,425.5L577.5,426.13L577.63,427.25L577.63,428.38L576.75,428.25L576.13,429.0L576.0,430.25L575.75,431.38L575.88,432.63L575.0,433.5L574.13,434.25L574.0,435.25L573.5,436.0L572.5,436.0L572.25,436.63L571.88,437.25L571.88,438.5L571.88,439.63L572.75,440.25L572.0,440.75L571.13,441.0L571.13,441.88L571.75,443.5L570.63,444.0L570.75,445.0L569.63,445.13L568.25,444.63L567.63,444.0L566.63,444.0L567.13,442.88L566.25,442.13L565.88,441.0L565.25,440.75L564.5,441.75L563.63,442.38L563.0,441.75L561.63,441.25L561.63,440.25L560.25,440.13L560.13,438.63L559.13,438.38L558.38,436.88L557.0,436.75L556.63,435.75L555.75,436.25L555.38,435.38L554.25,435.13L553.38,434.25L552.5,433.63L552.25,432.75L551.38,432.75L550.88,433.75L550.25,433.25L550.5,432.0L549.88,431.25L550.13,430.13L549.5,429.88L548.25,429.5L547.25,429.75L547.13,428.5L547.38,427.13L545.88,426.88L544.88,426.0L544.13,425.0L542.75,425.13L541.63,425.5L541.13,424.63Z" />
		<path id="L1611134861467" name="临夏回族自治州" class="qing-map-1616136146516" d="M514.63,409.0L514.2,410.1L513.3,409.6L512.6,409.4L511.5,410.0L511.0,411.2L510.4,412.2L509.6,412.3L509.4,413.2L509.3,414.4L509.2,415.0L508.4,415.3L507.9,416.0L507.1,415.9L506.5,416.0L506.8,416.6L507.3,416.9L508.0,417.1L508.6,418.0L509.3,418.1L510.2,418.4L510.8,418.6L510.7,419.1L509.6,419.3L509.9,420.2L510.5,421.1L510.5,421.7L509.8,423.0L509.4,423.7L509.4,424.6L509.4,425.8L509.4,427.6L509.8,428.3L509.7,429.3L509.4,430.2L508.7,430.5L507.9,430.1L507.3,429.8L506.5,429.6L505.9,429.9L505.1,429.8L504.7,429.3L504.1,429.3L503.5,429.3L502.7,429.3L501.8,429.0L501.4,429.5L500.4,430.1L500.4,430.7L499.5,431.1L498.8,431.5L498.4,432.3L498.1,433.0L497.8,433.6L497.4,434.3L497.7,435.0L497.9,436.1L498.3,437.2L498.7,438.1L499.1,438.9L499.6,439.6L500.1,440.3L500.9,440.4L501.0,440.9L501.0,442.0L501.0,443.0L501.5,443.9L501.9,444.5L502.8,445.2L502.8,445.9L502.2,446.0L501.9,446.5L500.7,446.6L500.2,446.6L499.4,447.5L499.8,447.9L500.5,447.5L501.3,447.2L501.7,447.6L501.6,448.2L501.0,448.6L500.13,449.38L502.13,451.0L503.38,451.13L503.75,452.13L504.75,453.13L505.88,454.25L508.0,452.88L509.63,455.25L509.5,458.0L509.25,460.38L509.25,462.38L510.63,463.0L511.5,460.88L513.13,461.63L514.5,461.88L515.63,461.75L515.5,463.38L516.88,464.38L518.25,464.25L519.88,466.0L520.88,466.63L523.25,466.75L525.13,466.75L526.88,468.13L528.75,469.25L530.5,469.0L532.38,469.38L533.13,470.25L534.13,470.25L534.5,469.25L535.13,468.5L537.25,470.0L538.25,471.25L539.75,471.38L540.13,472.5L541.38,473.25L542.8,475.3L544.0,475.0L544.13,475.88L543.25,476.63L542.5,477.38L543.13,478.13L544.0,477.75L544.5,477.13L545.25,477.13L545.5,478.38L546.2,476.9L546.6,475.3L545.8,475.2L545.7,474.2L545.5,473.3L545.9,472.4L545.6,471.4L545.8,470.5L545.4,470.1L544.5,470.0L544.5,469.1L544.5,467.6L544.3,466.3L543.2,466.1L543.2,465.2L543.4,464.4L544.0,464.3L544.1,463.5L544.2,462.3L545.4,461.8L545.1,459.8L546.0,459.4L546.2,458.2L546.9,458.2L547.2,457.2L547.3,456.2L547.8,455.1L549.0,454.9L549.0,454.3L548.6,453.1L548.7,452.4L549.7,452.2L550.0,450.9L550.6,450.3L550.8,449.1L550.1,449.4L549.4,448.5L548.9,447.0L548.0,445.8L547.8,444.4L547.5,443.0L546.5,442.5L545.5,441.6L544.8,440.1L543.7,439.7L542.8,438.8L541.7,437.8L541.0,436.5L540.3,435.2L539.1,435.1L539.0,433.7L538.5,432.9L537.5,431.9L536.8,432.1L536.1,430.6L535.3,429.0L534.6,428.8L533.4,427.9L533.4,426.7L533.1,425.6L534.4,425.7L535.0,424.6L535.1,423.8L535.7,423.8L536.4,424.5L537.0,424.6L537.1,426.1L538.0,426.3L539.1,426.2L539.5,425.3L540.0,424.25L539.88,423.25L540.38,422.25L540.25,421.0L540.5,419.88L540.0,419.0L539.38,418.0L539.25,417.0L538.0,417.25L537.88,416.25L537.25,415.75L536.25,415.0L534.63,414.75L533.88,414.88L532.88,414.5L532.63,415.0L532.63,416.38L531.5,417.13L530.38,416.38L530.38,415.5L530.5,414.38L530.25,413.75L528.63,414.0L527.13,414.0L526.88,413.0L525.75,412.38L524.63,412.5L523.5,412.25L522.75,412.13L522.13,411.25L521.25,411.38L520.63,410.75L519.38,410.88L518.38,410.38L517.63,409.88L517.38,409.38L517.0,408.5L516.13,408.88L515.38,408.88Z" />
		<path id="L1611134876156" name="庆阳市" class="qing-map-1616136146516" d="M728.63,459.75L729.25,460.13L729.75,460.25L730.75,460.5L730.75,461.0L731.5,461.0L732.13,461.38L732.63,461.75L733.5,462.13L734.38,462.88L735.0,462.75L735.88,462.5L736.25,463.0L737.0,463.0L737.5,462.25L738.63,462.25L738.25,463.25L739.25,463.5L740.25,463.38L741.25,463.13L742.63,462.88L743.5,462.38L744.13,461.75L745.25,461.63L746.5,460.63L747.25,461.0L747.75,460.25L749.0,460.13L750.13,460.25L750.88,461.0L750.88,462.13L751.5,462.75L752.13,463.13L752.0,462.25L752.7,462.5L753.6,462.5L754.2,462.0L754.4,461.0L755.2,461.1L755.6,460.5L756.4,460.3L756.7,461.0L757.1,461.7L757.7,460.8L758.5,461.5L759.5,461.9L760.4,461.6L761.0,461.9L762.3,461.7L763.1,461.5L764.2,461.2L765.2,460.1L766.3,461.0L766.9,461.0L767.3,460.2L768.0,459.8L768.5,459.0L768.7,458.6L768.3,458.2L768.3,457.3L768.8,456.6L768.6,455.8L769.2,455.2L769.6,454.7L769.7,454.0L769.2,453.5L769.2,452.0L768.8,451.3L768.8,450.1L768.3,449.5L768.1,448.7L768.5,448.2L768.9,447.6L768.8,447.0L768.8,446.1L768.0,445.5L767.2,444.7L766.2,444.2L766.2,443.5L765.3,443.6L765.0,442.7L764.8,441.8L764.8,441.2L764.0,440.9L764.2,440.0L764.9,439.1L764.1,438.3L764.4,437.7L764.9,437.4L764.3,436.6L764.8,436.2L764.9,435.3L764.4,434.5L764.3,433.9L764.7,433.8L764.8,432.8L764.6,431.8L764.6,431.1L764.2,430.3L763.8,429.4L763.5,428.9L763.2,428.1L764.1,426.4L764.9,426.2L765.7,425.8L766.2,425.4L766.2,424.9L766.8,424.1L767.3,424.0L768.0,424.0L768.9,424.3L769.7,424.2L770.4,423.8L770.5,421.8L771.9,420.2L771.8,418.7L771.8,417.1L771.6,416.5L772.5,415.3L772.5,414.6L773.3,412.8L772.8,412.4L772.5,411.7L771.9,411.2L771.8,410.7L771.2,409.5L770.3,408.5L770.3,407.6L769.9,407.0L770.1,405.8L770.2,404.7L770.0,403.1L769.9,402.0L769.9,400.8L770.0,400.0L770.2,399.0L769.3,398.3L769.2,397.1L768.6,396.3L768.1,396.5L767.5,396.7L766.7,396.3L766.1,396.8L765.9,396.2L765.5,395.7L765.0,395.6L764.8,395.2L764.4,394.7L763.7,394.4L763.9,395.3L763.4,396.9L762.8,396.9L761.5,397.1L761.4,396.4L760.5,396.4L759.7,395.5L758.8,395.5L759.2,394.8L759.0,394.0L758.7,393.4L758.3,392.4L757.0,391.7L756.7,390.9L756.4,389.7L755.9,389.7L755.2,389.2L754.9,389.7L754.5,389.2L754.4,389.6L753.8,389.7L752.9,388.9L752.5,389.3L752.7,389.7L752.3,390.1L751.4,388.9L750.3,388.7L749.5,388.2L749.7,387.3L749.5,386.7L750.0,386.2L750.2,385.5L749.8,385.2L749.4,385.7L748.9,386.6L748.6,387.5L748.4,388.4L747.8,389.1L747.2,389.2L746.7,388.8L746.9,387.9L746.2,388.1L745.9,387.3L744.9,387.9L744.5,387.3L744.7,386.6L744.0,386.9L743.4,387.4L743.0,387.2L742.3,387.2L742.2,386.7L741.9,386.0L740.7,386.0L741.0,385.0L740.3,384.7L740.8,384.1L741.5,383.9L741.6,383.1L741.2,383.0L741.0,382.1L740.4,382.5L739.9,382.9L739.8,383.7L739.4,383.4L738.7,383.2L737.9,383.6L737.7,383.1L737.8,382.2L737.7,381.5L737.4,380.8L736.4,380.0L736.2,379.1L736.1,378.4L735.3,378.6L734.0,378.0L734.0,377.4L733.2,376.9L732.7,376.5L732.1,376.6L731.3,376.7L730.3,376.3L729.2,375.7L728.2,374.8L727.6,375.7L727.3,375.1L727.0,375.5L726.6,375.1L726.1,374.8L726.2,374.3L725.4,374.1L724.8,373.8L724.2,374.4L723.4,374.4L722.6,374.2L722.0,373.7L721.2,373.5L720.3,373.7L719.7,373.4L719.4,374.1L719.0,373.7L719.0,373.0L718.7,372.4L719.3,371.9L718.2,371.0L717.5,370.5L716.6,369.7L715.9,369.4L715.3,370.1L715.3,370.5L714.4,370.4L714.6,369.2L714.0,369.2L714.0,370.0L713.5,369.4L712.9,370.0L712.6,369.4L711.8,369.2L710.9,369.6L710.6,368.8L710.2,369.3L709.9,368.0L708.7,369.0L708.6,368.3L708.1,367.6L708.6,367.2L708.5,366.4L707.8,365.5L707.6,364.3L707.8,363.2L707.5,362.3L707.5,361.4L707.6,360.6L707.1,360.0L707.3,358.7L706.5,357.9L705.5,358.6L704.8,357.7L703.9,357.0L703.0,355.9L702.5,356.2L701.8,356.2L700.5,356.8L699.3,357.2L698.3,356.7L697.4,357.1L696.1,356.2L695.8,356.6L696.2,357.5L695.9,358.0L695.0,357.3L694.5,357.3L694.5,357.7L694.4,358.1L693.5,358.1L692.6,357.6L692.7,356.9L691.6,356.2L691.0,355.7L690.2,355.3L689.7,355.8L690.4,356.3L691.0,356.8L690.4,357.0L690.8,357.9L690.3,358.0L689.5,358.6L688.8,357.6L687.7,357.7L687.2,357.0L686.5,356.5L686.2,355.8L685.7,356.0L685.0,355.3L684.6,355.0L684.0,356.1L684.3,357.0L684.4,357.5L683.7,358.2L684.0,358.8L683.8,359.4L683.3,359.7L683.0,359.0L683.0,358.5L682.2,358.2L682.1,357.2L680.7,357.3L680.4,356.7L680.3,357.6L679.6,357.9L679.0,356.9L678.2,357.2L677.5,356.5L676.8,356.5L677.1,357.6L677.5,358.7L678.3,359.5L678.5,360.3L678.9,361.2L678.6,362.2L679.6,362.3L679.2,363.6L678.3,363.6L678.4,364.5L678.2,365.5L678.5,366.2L677.5,366.4L676.5,366.1L676.1,366.2L676.3,367.2L675.9,367.8L675.1,367.6L674.9,367.0L673.9,365.3L673.7,366.0L674.3,366.6L674.1,367.4L675.1,368.2L676.0,368.4L676.9,369.1L676.2,370.2L676.7,370.6L677.5,370.0L678.1,370.7L678.4,371.2L677.7,371.8L678.0,372.4L678.4,372.5L678.4,372.9L677.9,373.7L678.8,374.0L679.1,374.9L678.3,375.2L678.7,375.7L678.0,376.1L678.2,376.8L678.3,377.6L677.7,378.1L678.2,379.1L678.6,379.7L678.1,380.0L677.3,379.4L676.9,379.4L676.3,378.8L675.8,378.4L675.4,378.4L675.6,379.1L675.1,379.0L674.4,379.3L673.5,379.8L672.6,380.4L673.0,381.2L673.1,381.9L672.2,381.9L671.4,381.9L671.5,382.7L671.7,383.4L671.8,384.3L671.7,385.3L671.1,385.4L670.8,385.8L669.5,385.7L669.3,386.6L669.7,387.3L670.7,387.8L670.2,388.1L669.6,388.3L670.3,389.1L669.7,389.1L668.5,389.4L667.2,388.3L667.2,389.2L666.6,389.3L666.0,388.7L665.8,388.3L665.7,389.3L666.0,389.9L666.8,389.8L667.5,390.2L668.2,391.0L667.9,391.7L668.8,391.6L669.3,392.4L670.3,392.4L671.0,393.7L671.6,392.9L672.0,393.7L673.0,393.8L672.9,395.4L672.0,395.8L672.4,396.9L671.1,397.1L671.3,398.2L672.5,398.6L673.1,398.7L672.8,399.3L673.5,399.8L672.3,400.0L672.2,401.4L671.8,402.7L672.4,404.2L671.7,404.4L671.1,403.2L670.6,403.1L670.8,403.9L671.5,405.0L672.1,405.5L673.1,406.0L674.5,405.9L674.3,404.7L674.7,404.2L675.4,404.7L675.8,405.2L676.2,404.3L676.7,404.4L676.9,405.3L677.7,405.9L678.3,404.8L678.5,406.2L680.0,405.5L680.9,407.7L682.2,407.5L683.6,409.0L684.2,408.6L685.1,408.1L685.6,409.1L686.4,408.5L687.3,408.3L687.6,409.6L688.3,409.3L689.0,410.8L689.4,411.5L690.2,412.0L690.4,412.9L690.4,413.6L691.2,413.3L691.0,414.2L691.9,414.2L691.8,415.3L692.6,415.4L692.7,416.6L692.0,417.3L692.2,418.0L692.2,418.9L691.6,419.3L691.3,420.4L692.3,420.6L692.2,421.8L691.4,422.4L691.1,422.9L689.9,423.2L690.9,423.6L691.4,423.6L692.3,424.1L691.8,425.3L690.9,424.8L690.5,425.2L690.7,425.9L689.8,426.2L689.7,425.8L689.1,426.0L688.7,426.4L688.3,427.0L687.9,427.4L688.7,427.4L689.5,428.2L689.0,428.4L688.9,428.9L689.9,429.7L690.1,430.5L690.7,430.4L691.3,431.4L691.5,432.0L690.7,432.1L690.1,431.9L690.7,432.9L690.5,433.9L689.9,434.4L689.3,434.3L689.3,433.5L688.8,434.3L688.6,435.3L688.4,436.0L687.8,435.6L686.7,435.4L687.0,436.4L686.4,436.7L686.5,437.3L685.5,437.4L684.9,436.7L684.3,436.8L683.8,436.2L683.1,437.5L683.4,438.1L682.9,438.7L684.2,438.9L685.1,439.4L685.6,440.2L686.6,440.3L687.8,440.7L689.3,441.8L689.9,442.4L690.2,443.5L691.3,444.7L692.3,445.1L693.1,445.9L694.1,447.1L694.8,448.3L696.5,448.9L696.9,449.5L697.1,450.9L698.0,450.6L699.0,451.3L699.8,450.2L700.1,449.6L701.7,450.3L702.9,451.1L703.2,449.9L702.9,448.1L703.9,448.7L704.8,448.4L706.3,449.4L706.7,448.0L708.4,448.2L709.9,450.1L711.4,448.9L712.4,450.0L713.1,448.7L714.6,449.1L716.0,450.1L716.2,451.4L717.6,451.3L717.9,450.1L719.0,449.1L719.8,450.1L720.7,451.5L722.0,449.6L722.3,451.6L723.0,451.4L723.6,452.1L723.6,453.3L724.9,453.2L726.8,453.3L726.6,455.2L726.4,456.1L727.4,457.0L728.4,457.6L729.1,458.0L728.7,458.7Z" />
		<path id="L1611134882379" name="平凉市" class="qing-map-1616136146516" d="M649.5,449.5L649.4,448.3L648.5,447.6L647.4,447.4L645.8,447.6L644.2,446.6L642.6,447.2L641.6,449.2L641.4,447.0L640.4,446.8L640.6,445.4L638.8,444.6L639.6,443.8L637.4,442.8L637.6,441.4L636.0,441.4L636.0,439.8L634.2,438.6L635.0,436.6L636.2,437.0L637.4,436.4L636.4,436.2L634.8,435.8L633.4,435.6L632.2,436.0L630.9,436.5L630.4,437.0L629.6,437.0L629.5,437.8L629.2,438.4L628.4,438.0L628.8,437.2L628.8,436.7L628.3,436.4L627.2,436.3L626.4,436.7L625.7,436.3L624.9,436.0L624.63,436.75L623.63,437.13L623.75,438.13L624.5,439.5L625.0,440.88L626.13,442.13L627.25,442.75L626.5,443.38L625.38,443.38L624.75,445.0L625.0,446.5L623.63,446.63L622.88,447.13L622.13,446.88L621.75,448.0L622.38,449.5L620.5,449.88L619.63,449.25L617.88,449.88L619.0,449.88L619.1,450.6L620.2,450.7L620.9,451.9L620.9,453.8L622.4,454.4L623.3,456.0L623.8,457.3L624.4,458.0L625.0,457.1L625.0,455.8L626.0,455.6L626.0,457.5L627.0,457.6L627.9,458.3L627.2,459.2L627.5,460.0L628.7,460.6L628.0,461.7L627.9,463.3L628.9,464.9L629.7,465.3L630.6,464.3L631.7,464.7L631.6,467.2L632.6,468.2L632.7,469.5L632.4,471.1L635.3,472.6L635.8,473.5L635.7,475.2L637.4,474.3L637.5,476.2L639.1,475.7L639.0,474.8L639.1,473.1L640.4,473.5L641.6,473.2L643.0,474.4L644.3,473.7L645.5,474.2L646.3,471.9L648.1,470.6L649.7,472.3L651.5,470.1L652.9,470.9L654.7,469.7L655.5,468.9L656.5,470.5L657.0,468.2L657.7,467.8L659.3,468.8L661.3,467.6L663.5,470.4L666.3,469.7L665.8,472.0L667.4,472.5L666.4,474.0L667.8,475.5L670.3,475.1L671.7,476.9L671.7,475.3L673.0,475.7L673.6,474.4L673.8,473.6L673.8,472.3L674.5,472.2L675.1,472.5L676.5,472.3L677.2,473.5L679.0,473.3L680.7,473.1L681.8,472.0L682.6,471.7L684.2,472.4L686.6,472.8L689.2,472.1L690.0,472.0L691.0,472.8L691.8,472.5L692.5,473.5L694.1,473.4L695.3,475.4L696.6,474.8L697.0,476.0L698.5,476.1L699.0,477.3L698.4,478.6L699.3,479.5L700.5,480.1L702.1,480.5L703.1,481.7L702.9,483.4L704.1,483.7L705.2,483.2L705.7,484.0L706.4,482.6L707.4,482.5L708.0,480.7L710.4,480.7L711.4,482.0L712.1,481.2L713.7,480.8L715.3,481.9L716.5,481.6L717.5,482.6L718.9,482.4L718.9,481.4L720.0,480.3L721.0,479.0L722.0,479.6L722.7,479.2L723.6,479.4L723.6,481.5L724.6,480.6L725.9,479.7L727.0,479.3L728.5,480.1L729.7,479.4L731.8,479.4L732.1,478.4L734.2,477.9L733.4,477.0L733.3,475.5L731.4,475.4L729.1,473.4L730.2,472.2L727.6,470.9L728.0,469.0L727.1,468.9L727.3,467.3L726.5,466.1L726.5,465.2L725.2,465.0L724.9,463.9L724.7,462.7L726.6,463.0L727.2,463.5L727.8,462.6L728.6,462.0L728.8,461.0L728.63,459.75L728.7,458.7L729.1,458.0L728.4,457.6L727.4,457.0L726.4,456.1L726.6,455.2L726.8,453.3L724.9,453.2L723.6,453.3L723.6,452.1L723.0,451.4L722.3,451.6L722.0,449.6L720.7,451.5L719.8,450.1L719.0,449.1L717.9,450.1L717.6,451.3L716.2,451.4L716.0,450.1L714.6,449.1L713.1,448.7L712.4,450.0L711.4,448.9L709.9,450.1L708.4,448.2L706.7,448.0L706.3,449.4L704.8,448.4L703.9,448.7L702.9,448.1L703.2,449.9L702.9,451.1L701.7,450.3L700.1,449.6L699.8,450.2L699.0,451.3L698.0,450.6L697.1,450.9L696.9,449.5L696.5,448.9L694.8,448.3L694.1,447.1L693.1,445.9L692.3,445.1L691.3,444.7L690.2,443.5L689.9,442.4L689.3,441.8L687.8,440.7L686.6,440.3L685.6,440.2L685.1,439.4L684.2,438.9L682.9,438.7L682.0,438.7L681.9,437.8L681.4,437.7L680.6,437.2L680.4,436.2L679.8,436.8L680.0,437.4L679.1,437.8L678.9,437.3L677.9,437.4L677.4,436.8L677.4,436.3L676.8,436.2L676.7,435.3L676.4,435.8L676.4,436.4L675.8,436.6L675.3,436.4L674.6,436.0L673.2,435.6L673.1,436.2L672.7,436.7L672.2,435.9L671.7,435.9L671.4,436.5L670.6,436.8L670.1,437.2L669.8,438.0L669.4,438.5L669.0,438.9L669.1,439.9L669.6,440.7L670.2,441.3L669.9,441.9L670.3,442.9L670.7,443.9L670.9,444.7L670.8,445.1L670.0,445.1L669.8,445.6L669.8,446.4L669.8,447.2L669.8,449.0L670.6,450.0L671.6,450.2L671.2,452.0L672.2,453.4L671.6,454.4L671.8,455.6L671.8,457.6L671.2,458.6L670.0,459.6L668.2,461.2L666.8,462.0L665.4,462.0L665.8,463.6L663.4,462.4L663.2,461.2L661.6,460.8L662.0,458.8L660.2,457.6L659.8,454.8L657.8,454.0L656.8,452.8L655.4,454.2L653.6,457.4L653.2,454.4L651.8,453.2L652.8,452.3L651.9,451.5L651.1,452.1L650.3,451.1L649.6,451.5L649.5,452.5L648.3,452.6L647.5,453.3L646.2,453.4L644.4,454.0L643.8,452.9L644.2,451.8L645.1,451.8L646.6,451.2L648.7,450.4L649.4,450.2Z" />
		<path id="L1611134894211" name="天水市" class="qing-map-1616136146516" d="M671.7,476.9L671.9,477.6L671.1,477.9L671.5,479.1L671.6,480.2L672.7,481.6L672.2,483.2L673.6,483.7L674.5,485.1L674.6,486.4L674.2,487.0L675.0,488.7L674.8,490.4L674.1,490.5L673.7,491.1L671.6,491.6L671.3,492.5L670.4,493.7L669.5,493.3L669.4,495.0L670.6,496.7L670.7,497.5L669.0,497.7L668.3,496.5L667.9,497.0L666.4,498.1L665.0,498.9L664.2,499.8L663.4,499.8L663.1,500.4L664.4,501.2L664.5,502.8L664.2,503.9L665.6,504.1L666.6,503.9L667.1,504.4L667.7,503.5L669.3,503.6L671.0,503.6L671.9,504.4L672.8,505.3L673.6,506.1L674.0,505.5L675.5,506.7L676.0,507.8L677.2,507.7L677.5,509.5L678.0,510.6L679.5,511.5L680.7,511.8L681.5,512.1L681.8,513.4L680.3,514.3L681.1,514.8L681.0,516.8L680.7,517.8L679.7,518.7L678.7,519.1L677.4,518.1L675.8,518.6L675.1,517.1L674.3,517.3L673.1,516.3L672.2,517.1L671.1,518.8L671.9,521.9L670.5,522.9L670.7,524.5L669.1,525.8L667.3,526.7L665.8,527.5L664.4,526.6L663.5,524.8L664.8,522.0L663.9,519.9L662.1,519.9L661.3,521.2L661.4,523.1L660.4,524.3L659.9,525.9L657.9,526.7L656.2,525.6L654.9,526.9L653.5,525.9L652.2,525.8L652.4,524.3L650.6,523.8L648.1,524.3L645.6,525.2L644.2,525.9L642.7,525.9L642.3,524.2L639.2,525.8L638.9,523.9L636.5,522.8L636.3,523.6L634.4,524.0L632.9,526.2L632.4,528.2L631.5,527.2L630.7,526.5L630.2,528.2L628.7,527.6L628.6,525.3L628.2,524.3L628.7,521.9L628.7,520.1L628.0,519.4L628.9,518.1L627.3,517.2L629.2,516.1L628.4,515.0L626.6,515.7L626.0,513.1L622.7,509.4L620.7,509.9L618.8,508.8L617.7,508.4L616.9,509.4L615.0,508.0L615.4,505.8L614.4,503.3L613.3,504.0L610.7,503.5L608.6,506.9L605.6,508.2L604.8,509.3L602.5,508.9L601.4,507.9L600.5,508.7L599.3,508.3L597.7,509.4L596.6,508.4L595.0,507.9L594.1,509.1L593.3,508.5L593.4,507.1L593.7,505.5L593.0,505.7L592.5,506.6L591.7,506.1L591.3,504.6L592.0,503.9L591.6,502.2L590.8,502.4L589.9,502.9L588.8,502.3L588.2,501.1L588.6,499.7L589.3,498.3L589.0,496.8L589.7,495.5L588.7,495.1L587.4,496.0L586.1,496.1L585.2,496.7L584.7,496.5L584.9,495.3L584.6,494.0L584.9,493.3L584.2,492.6L585.1,491.6L583.9,489.9L583.9,488.8L585.1,488.0L585.1,486.4L585.8,485.4L586.1,483.9L587.4,484.3L588.7,484.8L589.5,485.2L590.3,484.5L591.6,484.9L592.5,484.3L594.5,484.6L596.8,484.8L598.0,485.3L598.3,484.1L599.3,483.1L598.9,481.5L599.3,480.0L600.3,480.5L601.6,479.7L602.3,480.9L603.9,480.5L604.4,481.5L605.5,480.8L606.5,479.9L606.0,478.4L606.9,478.5L608.7,478.7L609.7,479.3L610.7,478.5L611.8,479.5L611.9,480.7L613.4,481.1L613.9,479.9L615.4,479.2L615.0,477.6L614.2,476.8L614.9,475.7L615.6,475.2L616.3,476.7L616.9,476.1L616.6,474.9L617.4,474.5L618.9,474.8L619.3,473.8L619.9,473.3L621.1,473.8L621.3,472.9L621.9,472.0L622.0,471.2L623.3,470.2L623.8,469.9L625.0,470.8L625.3,472.1L626.0,472.4L626.6,473.4L627.3,474.1L627.7,473.1L627.8,472.2L628.5,471.1L628.8,470.4L627.5,469.7L627.5,469.0L628.0,468.7L629.0,467.7L629.4,467.3L630.6,468.3L631.6,469.0L631.9,469.4L632.7,469.5L632.4,471.1L635.3,472.6L635.8,473.5L635.7,475.2L637.4,474.3L637.5,476.2L639.1,475.7L639.0,474.8L639.1,473.1L640.4,473.5L641.6,473.2L643.0,474.4L644.3,473.7L645.5,474.2L646.3,471.9L648.1,470.6L649.7,472.3L651.5,470.1L652.9,470.9L654.7,469.7L655.5,468.9L656.5,470.5L657.0,468.2L657.7,467.8L659.3,468.8L661.3,467.6L663.5,470.4L666.3,469.7L665.8,472.0L667.4,472.5L666.4,474.0L667.8,475.5L670.3,475.1Z" />
		<path id="L1611134900538" name="陇南市" class="qing-map-1616136146516" d="M576.4,569.9L575.3,570.5L576.4,572.1L574.4,571.3L573.0,571.2L572.5,570.7L571.4,570.8L572.1,572.6L572.5,573.7L572.4,575.0L572.8,576.0L574.1,579.7L575.1,581.9L574.2,582.6L574.8,583.2L572.9,585.1L574.4,585.8L575.2,585.3L576.8,585.9L577.1,586.9L575.2,587.7L574.6,590.3L573.8,590.8L571.1,590.6L569.9,593.5L570.9,594.7L571.6,596.6L574.2,597.1L574.5,598.3L575.9,599.7L578.3,601.4L580.1,600.9L581.6,602.6L583.1,602.1L584.3,603.1L584.4,604.2L586.7,606.2L588.0,606.1L589.5,605.2L591.2,607.6L593.2,607.2L594.8,605.9L597.5,608.0L597.6,609.0L599.9,608.9L602.2,607.6L604.4,606.6L606.2,607.2L607.9,609.9L610.8,609.0L613.1,607.5L613.1,605.8L614.2,605.8L615.1,606.5L616.3,606.4L617.4,605.5L619.4,603.9L621.7,602.9L623.6,602.2L624.2,600.8L622.7,599.7L621.6,596.6L621.6,595.1L620.7,594.6L620.7,593.9L621.7,593.7L622.1,591.9L624.3,591.3L626.0,592.2L627.1,592.0L627.6,592.6L628.8,592.5L629.8,593.8L631.3,593.7L633.1,593.1L635.1,592.7L635.5,592.4L636.3,592.7L638.1,591.9L639.9,590.7L640.7,589.8L642.2,590.9L642.9,590.1L644.3,589.0L645.1,587.7L645.5,586.5L645.3,585.2L644.7,584.7L645.7,583.5L644.9,582.8L645.1,581.8L646.1,581.1L645.3,580.9L645.6,579.8L644.5,580.1L644.1,579.6L644.6,578.9L644.9,578.3L645.2,577.6L645.6,576.7L646.3,577.1L645.9,577.8L646.5,578.1L646.5,579.0L647.7,579.3L647.4,578.0L646.9,576.0L646.1,576.0L645.3,574.6L644.2,574.2L642.6,574.9L641.1,573.7L639.3,573.3L639.3,572.2L637.5,571.9L636.8,570.5L638.1,569.8L637.1,568.8L635.2,566.7L636.4,565.9L638.1,567.0L638.4,566.4L640.7,566.8L641.6,564.1L640.8,562.7L641.7,562.0L641.6,560.9L643.0,559.4L643.0,558.2L644.0,557.8L644.0,556.9L645.4,557.0L647.1,554.5L648.2,554.1L648.6,554.6L649.2,554.2L649.7,555.2L650.8,554.2L651.8,554.6L652.6,553.7L655.0,554.6L653.7,555.7L653.9,556.5L654.9,555.8L655.7,555.6L655.4,556.7L657.3,557.7L658.1,556.8L659.5,556.5L661.5,554.4L663.2,554.4L662.9,555.1L664.5,555.9L665.0,555.0L665.9,554.9L665.7,554.0L667.6,553.9L669.1,553.6L669.3,555.1L669.8,555.7L669.6,557.7L670.3,558.8L671.4,558.3L671.6,559.1L673.7,559.3L674.6,557.9L674.0,556.4L675.6,556.1L675.3,553.4L674.0,551.7L674.2,550.7L672.6,549.2L671.7,549.2L670.5,548.4L671.2,546.7L671.0,544.6L670.0,544.5L669.9,542.0L671.0,542.0L671.8,540.6L670.7,540.0L670.0,539.1L669.5,540.2L668.2,540.0L667.9,539.0L668.0,538.3L667.4,537.8L669.2,536.4L669.4,535.2L670.3,534.7L670.5,533.7L671.0,532.5L670.3,531.2L671.2,530.8L672.2,528.8L671.4,526.6L672.7,526.5L673.7,526.5L674.5,526.5L675.6,524.5L674.8,523.0L674.4,520.8L673.2,518.5L672.6,519.4L671.1,518.8L671.9,521.9L670.5,522.9L670.7,524.5L669.1,525.8L667.3,526.7L665.8,527.5L664.4,526.6L663.5,524.8L664.8,522.0L663.9,519.9L662.1,519.9L661.3,521.2L661.4,523.1L660.4,524.3L659.9,525.9L657.9,526.7L656.2,525.6L654.9,526.9L653.5,525.9L652.2,525.8L652.4,524.3L650.6,523.8L648.1,524.3L645.6,525.2L644.2,525.9L642.7,525.9L642.3,524.2L639.2,525.8L638.9,523.9L636.5,522.8L636.3,523.6L634.4,524.0L632.9,526.2L632.4,528.2L631.5,527.2L630.7,526.5L630.2,528.2L628.7,527.6L628.6,525.3L628.2,524.3L628.7,521.9L628.7,520.1L628.0,519.4L628.9,518.1L627.3,517.2L629.2,516.1L628.4,515.0L626.6,515.7L626.0,513.1L622.7,509.4L620.7,509.9L618.8,508.8L617.7,508.4L616.9,509.4L615.0,508.0L615.4,505.8L614.4,503.3L613.3,504.0L610.7,503.5L608.6,506.9L605.6,508.2L604.8,509.3L602.5,508.9L602.9,510.7L601.9,511.5L600.3,511.2L599.1,511.5L597.8,511.5L596.6,511.4L595.9,511.9L596.8,513.8L596.3,514.8L597.0,516.3L595.8,517.1L594.8,517.1L594.6,518.6L593.5,518.9L593.6,519.8L592.6,520.1L591.4,519.7L589.4,518.5L588.4,520.0L586.7,519.9L585.4,519.9L583.6,521.7L581.9,520.6L581.8,522.5L580.6,520.9L579.1,520.5L577.9,519.8L577.2,518.9L577.5,517.6L577.5,516.5L577.1,515.4L576.7,514.1L575.1,514.3L574.0,514.4L574.1,512.7L572.8,512.1L571.5,512.2L571.1,511.4L570.3,512.0L570.4,513.3L569.6,513.4L567.8,512.5L566.4,511.9L565.8,513.1L564.4,513.1L563.4,514.2L562.3,515.1L563.2,517.0L563.7,518.5L565.4,518.9L565.1,521.0L564.1,522.1L562.6,522.0L560.9,522.3L560.2,523.4L559.6,524.9L559.0,525.9L559.0,527.2L558.9,528.8L558.9,530.0L560.6,530.2L560.9,531.0L561.3,532.0L562.3,532.1L562.8,533.4L564.4,533.6L566.1,534.9L566.7,536.1L568.1,536.1L569.5,537.9L571.2,538.8L572.4,539.7L573.6,541.0L574.4,541.1L576.3,541.3L577.8,542.9L577.9,544.0L578.6,545.1L579.9,545.1L580.8,545.6L582.2,545.6L582.2,546.5L581.3,547.7L580.1,549.0L580.3,550.2L580.9,551.1L580.0,552.2L581.2,552.2L582.5,551.6L582.5,552.5L581.3,553.8L582.0,554.7L582.9,554.9L583.2,556.0L584.3,556.0L584.4,557.6L583.7,558.3L584.7,559.3L586.5,560.8L588.4,561.8L589.3,562.5L589.9,564.4L590.9,565.5L590.0,565.8L590.4,567.6L590.2,568.9L591.6,569.8L592.4,570.5L590.1,571.1L588.9,570.8L587.7,571.3L587.0,573.4L586.1,575.1L584.8,575.6L583.4,575.3L582.0,575.2L581.8,574.1L582.1,572.3L581.1,570.6L580.2,569.3L578.7,569.8L577.3,570.2Z" />
	</g>
</svg>
