<svg xmlns="http://www.w3.org/2000/svg" viewBox="0,0,431,600" width="100%" height="100%">
	<defs>
		<style type="text/css">
.qing-map-1616414528549
{
	fill: #DDDDDD;
	fill-opacity: 1.0;
	stroke: #FFFFFF;
	stroke-opacity: 1.0;
	stroke-width: 1;
}

.qing-map-1616414528549:hover
{
	fill: #56A4FF;
	fill-opacity: 1.0;
	stroke: #FFFFFF;
	stroke-opacity: 1.0;
	stroke-width: 1;
}
</style>
	</defs>
	<g>
		<path id="L1611026574197" name="蓟州区" class="qing-map-1616414528549" d="M282.2,181.2L284.4,180.0L284.8,178.0L282.6,176.0L284.8,173.4L284.4,170.4L286.8,169.6L286.6,165.2L285.2,161.6L283.6,160.2L282.4,160.8L281.2,158.6L283.4,156.8L283.8,153.4L281.4,151.0L278.8,149.0L276.2,144.6L276.4,136.2L272.6,135.4L272.8,133.6L274.6,132.2L274.8,129.6L271.8,129.0L272.0,127.4L276.6,128.2L277.0,125.0L274.0,122.2L274.6,119.2L279.6,117.2L280.2,112.6L283.0,109.4L283.0,106.6L280.2,102.0L286.4,102.0L286.8,104.4L288.6,104.0L289.2,102.4L296.0,102.6L300.4,106.8L300.2,110.4L303.2,111.8L307.0,110.6L315.0,110.4L321.4,106.2L324.8,106.4L328.4,108.4L330.0,110.6L332.2,110.6L335.8,112.8L338.6,110.6L343.6,112.6L347.2,101.0L348.0,97.0L343.6,93.2L337.8,93.6L336.8,97.0L334.0,94.0L333.4,87.8L336.2,85.8L341.4,83.4L341.4,79.6L338.4,79.0L336.8,77.8L337.6,76.8L336.8,74.2L331.8,75.2L330.2,73.4L328.6,74.2L323.8,70.2L319.8,69.2L319.4,72.2L317.6,71.8L315.8,73.0L314.8,67.4L311.0,70.2L309.4,69.8L309.6,66.0L311.4,64.4L310.6,58.4L306.0,56.0L306.8,53.8L305.0,50.6L302.6,51.4L301.6,50.0L301.6,47.6L298.6,46.6L297.4,43.2L293.4,43.2L289.6,32.6L287.0,31.4L288.0,29.6L289.2,28.4L289.6,25.0L288.2,23.4L284.4,24.0L283.6,22.4L275.2,23.4L272.0,23.8L267.0,21.8L262.2,17.6L256.0,15.2L253.0,17.0L250.2,16.6L248.2,17.6L249.0,20.8L246.4,22.4L244.4,20.6L242.2,23.8L243.2,26.6L239.6,27.0L239.4,29.8L242.2,31.6L239.2,32.2L241.2,37.8L244.6,36.6L247.0,37.8L243.0,40.6L243.0,41.8L240.8,41.4L233.2,42.4L232.4,44.2L234.4,47.8L232.0,51.0L233.4,53.0L230.6,55.2L227.0,55.6L225.6,53.2L222.2,53.2L219.0,59.6L219.0,60.6L216.6,60.2L213.0,62.8L212.8,65.0L209.4,62.2L206.0,62.2L199.8,68.6L197.2,68.4L195.6,72.6L198.6,78.0L194.6,79.4L192.4,78.4L191.8,80.4L189.4,79.8L189.0,83.4L190.2,84.6L190.0,89.8L192.0,97.8L192.4,103.4L188.4,108.6L188.4,114.0L184.8,113.0L184.6,116.4L180.4,119.4L182.0,122.0L180.2,122.2L179.6,126.4L177.6,127.0L179.0,131.0L182.2,131.4L179.8,134.0L180.0,136.4L182.2,138.2L182.0,140.6L186.0,145.4L187.4,144.8L188.8,146.8L190.4,146.4L191.4,148.0L195.4,148.4L200.2,150.2L201.8,149.6L205.0,148.0L208.0,152.4L207.2,154.0L207.0,156.8L215.0,160.6L215.6,163.6L218.4,164.4L219.0,166.2L222.0,165.8L223.4,166.6L225.4,170.0L227.8,169.4L230.6,169.2L232.8,170.4L236.0,169.6L237.6,171.6L240.4,172.4L242.0,172.8L242.6,174.8L245.6,177.6L248.4,179.0L249.2,182.2L250.6,182.0L252.8,183.0L253.8,182.6L255.2,180.2L257.0,179.0L258.4,178.6L259.8,177.2L261.4,178.4L264.4,175.6L266.6,176.8L267.8,175.2L268.8,177.2L271.2,177.0L272.8,178.8L275.6,178.8L276.0,179.6L277.0,179.0L278.6,179.6L279.2,180.8Z" />
		<path id="L1611035230216" name="宝坻区" class="qing-map-1616414528549" d="M249.4,319.8L249.0,318.2L247.4,318.8L243.0,317.2L243.0,315.6L236.0,315.2L232.0,315.2L228.6,315.6L228.0,316.8L226.6,318.2L225.2,318.4L223.8,316.8L223.8,314.2L219.8,312.2L219.4,310.0L221.6,308.0L222.4,305.2L221.2,302.4L223.4,302.2L223.8,304.4L225.2,304.0L226.2,303.4L227.4,303.8L229.4,302.0L228.4,300.0L228.6,297.4L226.4,292.6L225.0,288.2L217.8,277.8L218.2,277.0L219.4,276.8L218.4,274.6L218.2,272.2L216.0,270.4L214.2,270.8L214.0,269.4L211.4,269.6L210.6,266.8L211.6,265.6L211.6,262.8L209.8,261.0L207.8,260.8L207.4,259.4L211.0,260.0L212.6,259.6L213.0,258.0L208.0,253.6L205.4,253.6L203.2,251.8L203.6,250.2L179.0,230.0L182.2,227.2L181.2,225.4L182.6,223.6L186.0,222.6L187.0,220.2L184.6,217.8L183.4,214.6L184.8,213.2L184.2,210.8L186.0,210.2L185.4,206.0L186.2,202.0L185.4,196.8L181.4,194.2L182.8,189.6L184.8,189.2L183.8,186.2L193.4,182.4L194.0,179.4L190.2,175.2L186.6,168.4L182.4,169.0L182.0,162.6L184.0,162.2L185.0,160.0L191.4,159.6L191.2,157.4L194.8,157.0L199.0,158.6L201.4,157.2L207.0,156.8L215.0,160.6L215.6,163.6L218.4,164.4L219.0,166.2L222.0,165.8L223.4,166.6L225.4,170.0L227.8,169.4L230.6,169.2L232.8,170.4L236.0,169.6L237.6,171.6L240.4,172.4L242.0,172.8L242.6,174.8L245.6,177.6L248.4,179.0L249.2,182.2L250.6,182.0L252.8,183.0L253.8,182.6L255.2,180.2L257.0,179.0L258.4,178.6L259.8,177.2L261.4,178.4L264.4,175.6L266.6,176.8L267.8,175.2L268.8,177.2L271.2,177.0L272.8,178.8L275.6,178.8L276.0,179.6L277.0,179.0L278.6,179.6L279.2,180.8L282.2,181.2L283.6,182.5L285.0,181.0L286.4,183.0L289.0,182.8L291.4,185.0L295.2,186.4L294.8,187.6L296.0,189.0L296.0,190.2L294.6,189.8L294.0,191.8L292.4,191.6L291.6,192.4L292.2,195.6L293.8,195.0L295.6,198.4L297.2,199.4L300.4,199.8L305.0,201.2L306.2,202.8L308.0,201.4L309.6,202.6L308.6,204.6L309.4,206.8L311.2,207.6L311.2,209.6L312.0,211.6L313.8,212.8L313.6,215.4L314.0,218.0L313.4,222.6L310.6,222.6L310.0,225.6L307.6,225.6L308.2,227.2L307.0,228.8L307.4,230.8L306.0,231.2L304.6,233.6L302.4,234.6L302.0,237.4L305.4,234.4L306.6,236.4L309.8,237.2L311.4,239.0L310.4,242.2L313.2,242.2L316.4,239.0L321.2,241.4L324.8,244.6L323.6,246.6L319.2,246.4L320.0,248.6L323.2,249.8L319.4,252.8L319.0,256.6L312.8,258.6L305.8,256.2L305.8,260.8L304.6,262.8L299.0,264.2L297.4,271.0L297.6,272.4L291.4,273.0L288.6,269.6L285.2,270.4L285.4,273.0L287.2,275.0L285.8,277.6L283.4,280.0L278.0,280.2L275.2,281.0L275.6,282.2L272.6,282.6L271.8,281.4L269.2,282.4L269.8,284.0L266.4,285.6L269.2,300.4L269.8,305.2L271.4,308.0L267.2,308.2L266.0,310.2L266.8,311.8L263.8,313.8L262.0,315.6L259.4,315.0L257.0,316.0L255.6,314.6L253.4,316.6L253.6,318.8L253.3,320.4Z" />
		<path id="L1611035616660" name="武清区" class="qing-map-1616414528549" d="M179.0,230.0L203.6,250.2L203.2,251.8L205.4,253.6L208.0,253.6L213.0,258.0L212.6,259.6L211.0,260.0L207.4,259.4L207.8,260.8L209.8,261.0L211.6,262.8L211.6,265.6L210.6,266.8L211.4,269.6L214.0,269.4L214.2,270.8L216.0,270.4L218.2,272.2L218.4,274.6L219.4,276.8L218.2,277.0L217.8,277.8L225.0,288.2L226.4,292.6L228.6,297.4L228.4,300.0L229.4,302.0L227.4,303.8L226.2,303.4L225.2,304.0L223.8,304.4L223.4,302.2L221.2,302.4L222.4,305.2L221.6,308.0L219.4,310.0L219.8,312.2L223.8,314.2L223.8,316.8L225.2,318.4L225.4,321.6L225.2,326.6L223.8,327.2L223.2,326.4L220.6,326.8L219.8,325.8L220.6,324.0L218.6,323.4L217.6,320.0L214.8,319.6L212.0,318.8L211.2,320.6L208.0,319.8L206.6,318.0L204.0,316.8L200.8,317.6L199.4,317.2L195.2,319.0L194.8,319.8L192.0,321.0L192.0,324.2L189.8,324.6L187.0,327.2L185.4,325.8L181.8,328.0L182.4,330.4L178.0,333.6L174.8,332.2L168.4,331.6L162.6,333.2L164.2,335.0L160.8,337.0L161.8,338.8L160.2,339.6L160.2,341.0L157.0,342.8L154.2,339.2L151.2,338.6L146.0,340.0L146.8,344.2L148.6,347.6L147.8,349.8L144.6,350.4L144.8,353.2L142.8,355.0L140.2,354.0L139.2,356.2L137.6,358.2L134.0,359.8L135.0,362.8L134.0,364.4L134.8,365.4L133.6,366.8L133.0,371.4L130.2,371.0L127.0,371.4L126.0,377.4L129.2,379.8L127.8,380.8L124.4,381.8L124.2,383.0L126.2,384.0L126.4,385.2L123.2,385.8L119.6,387.4L119.0,385.6L111.6,384.6L107.2,385.2L105.8,383.6L106.4,381.4L106.0,368.0L104.6,367.6L104.0,363.8L108.6,363.4L109.0,358.8L111.0,358.8L112.2,361.2L113.6,360.4L111.8,356.2L109.8,355.6L110.0,350.0L108.4,346.0L109.4,345.2L109.2,339.2L106.4,339.0L106.4,335.4L111.4,334.2L112.4,323.2L109.4,322.4L108.4,319.2L109.4,318.0L107.0,316.8L103.6,322.4L102.4,322.2L98.4,322.6L96.0,315.8L98.4,315.4L97.0,314.6L95.8,310.2L99.6,308.8L98.8,302.2L99.8,300.6L99.6,298.4L101.2,297.2L102.8,298.2L108.6,291.2L105.2,288.2L98.6,290.6L97.2,289.4L97.4,286.6L95.0,285.6L92.0,287.0L89.2,287.4L88.8,285.2L87.2,282.8L86.6,279.8L87.4,277.8L96.0,275.0L94.8,272.6L94.4,270.6L93.0,269.2L93.2,267.8L94.0,267.4L94.2,265.4L96.6,264.6L95.8,258.0L95.0,257.8L95.4,259.4L92.0,259.6L88.6,253.8L87.0,252.4L86.8,250.2L89.4,247.6L89.0,246.0L92.4,243.6L89.2,237.4L90.4,236.2L90.4,233.8L92.6,233.4L94.0,235.0L95.2,234.8L93.2,230.6L95.8,229.2L97.4,230.2L100.0,227.4L97.4,224.6L98.6,220.4L103.2,217.4L103.0,212.6L109.4,211.4L110.0,209.6L112.4,209.6L113.8,210.6L117.2,208.8L117.0,205.4L118.4,204.8L119.2,202.2L120.4,199.6L129.0,199.6L130.2,202.2L128.4,202.8L128.2,204.4L130.8,208.6L128.6,209.8L129.2,211.0L130.6,212.6L130.6,214.2L132.2,218.6L134.2,218.2L136.4,219.8L135.6,221.2L136.2,222.6L140.0,221.2L143.8,219.2L145.6,217.0L168.0,224.4L173.6,229.4Z" />
		<path id="L1611036794161" name="北辰区" class="qing-map-1616414528549" d="M225.2,326.6L223.8,327.2L223.2,326.4L220.6,326.8L219.8,325.8L220.6,324.0L218.6,323.4L217.6,320.0L214.8,319.6L212.0,318.8L211.2,320.6L208.0,319.8L206.6,318.0L204.0,316.8L200.8,317.6L199.4,317.2L195.2,319.0L194.8,319.8L192.0,321.0L192.0,324.2L189.8,324.6L187.0,327.2L185.4,325.8L181.8,328.0L182.4,330.4L178.0,333.6L174.8,332.2L168.4,331.6L162.6,333.2L164.2,335.0L160.8,337.0L161.8,338.8L160.2,339.6L160.2,341.0L157.0,342.8L154.2,339.2L151.2,338.6L146.0,340.0L146.8,344.2L148.6,347.6L147.8,349.8L144.6,350.4L144.8,353.2L142.8,355.0L140.2,354.0L139.2,356.2L137.6,358.2L134.0,359.8L135.0,362.8L134.0,364.4L134.8,365.4L133.6,366.8L133.0,371.4L130.2,371.0L127.0,371.4L126.0,377.4L129.2,379.8L130.6,379.8L131.8,376.8L133.0,378.0L134.0,380.2L138.8,378.6L142.4,379.0L143.8,381.8L145.6,384.8L148.4,384.4L147.4,382.0L148.2,380.8L148.4,377.8L149.8,382.6L152.6,382.2L154.4,382.4L158.4,380.4L158.6,382.2L160.4,382.6L160.8,379.2L165.0,377.0L168.4,376.6L175.0,378.2L178.2,372.0L182.4,371.8L185.6,373.8L191.2,372.0L192.8,373.8L196.0,371.4L199.2,374.2L205.6,367.0L210.2,365.0L216.2,362.6L218.6,361.4L217.6,356.6L216.8,353.2L228.4,357.2L235.6,358.0L241.2,359.2L240.6,357.8L242.8,357.4L245.2,355.8L243.2,353.2L242.8,350.2L244.6,349.2L245.2,347.2L246.2,343.8L245.2,340.8L241.0,342.4L236.6,338.8L235.6,339.2L234.0,337.6L234.4,336.6Z" />
		<path id="L1611037084550" name="西青区" class="qing-map-1616414528549" d="M175.0,378.2L168.4,376.6L165.0,377.0L160.8,379.2L160.4,382.6L158.6,382.2L158.4,380.4L154.4,382.4L152.6,382.2L149.8,382.6L148.4,377.8L148.2,380.8L147.4,382.0L148.4,384.4L145.6,384.8L143.8,381.8L142.4,379.0L138.8,378.6L134.0,380.2L133.0,378.0L131.8,376.8L130.6,379.8L129.2,379.8L127.8,380.8L124.4,381.8L124.2,383.0L126.2,384.0L126.4,385.2L123.2,385.8L121.8,387.2L122.4,390.6L123.6,392.0L122.2,393.8L122.6,395.0L121.0,399.0L119.4,397.8L117.2,404.8L115.2,404.8L111.6,411.0L115.8,413.6L113.0,415.4L113.4,416.8L116.2,415.0L117.4,415.6L118.4,414.8L121.2,415.2L126.4,418.4L127.8,416.6L132.2,418.4L132.6,419.4L133.6,420.0L134.4,422.2L137.8,422.8L142.2,424.0L151.4,428.4L150.8,430.4L153.0,431.8L151.0,436.0L156.0,436.6L157.8,434.2L165.2,439.4L172.8,443.6L177.6,448.4L193.0,472.0L208.6,486.2L222.2,491.4L226.2,494.2L228.0,492.4L226.4,489.4L228.2,487.8L228.2,485.6L230.2,485.2L230.0,482.2L228.4,481.6L228.8,478.6L227.8,476.2L226.4,476.0L226.0,473.4L221.0,473.2L210.6,462.0L211.6,460.6L209.2,458.8L209.8,455.0L209.0,453.8L204.4,450.8L208.2,450.8L211.6,445.6L210.2,443.8L211.4,442.4L214.2,444.0L216.8,439.8L215.8,438.0L217.8,437.0L216.8,435.0L214.0,435.0L212.8,430.2L210.4,428.6L208.6,428.4L209.2,427.4L209.4,424.0L210.6,422.6L210.2,421.6L208.6,422.4L206.0,421.8L204.8,422.8L204.2,421.4L201.6,421.8L194.2,412.2L185.2,415.4L179.8,409.8L176.6,405.8L175.6,398.4L169.4,391.2L173.8,386.6L174.2,383.2Z" />
		<path id="L1611036276341" name="宁河区" class="qing-map-1616414528549" d="M349.2,315.2L352.4,317.0L355.2,315.8L357.8,317.2L361.2,315.8L360.6,313.4L361.8,312.6L365.2,313.8L364.8,316.2L360.2,324.0L361.2,326.4L360.0,326.8L361.2,328.2L359.6,330.2L359.0,329.0L358.2,329.8L358.6,331.4L351.5,343.6L344.8,339.2L345.4,334.8L343.4,333.4L342.2,334.6L340.2,334.8L338.0,338.0L336.8,337.4L327.8,339.4L327.2,341.6L324.6,341.8L324.8,343.4L317.8,342.8L317.6,344.0L317.4,345.0L318.1,345.8L318.1,348.9L317.0,349.0L307.0,348.4L300.8,348.4L298.8,350.2L307.2,362.2L307.2,364.4L305.6,364.8L304.6,362.2L302.0,361.6L290.8,362.4L289.4,360.2L273.8,360.6L273.2,362.0L285.6,372.8L293.8,376.0L301.4,373.8L302.4,375.2L299.4,380.4L295.6,379.2L290.6,377.6L287.6,376.4L282.0,375.2L274.0,371.2L273.4,367.8L271.0,368.8L270.8,366.8L266.0,367.0L267.2,364.6L267.6,362.0L265.0,360.2L260.8,359.2L257.8,357.4L255.6,359.4L251.6,359.0L249.2,361.6L247.0,360.6L247.2,357.2L245.2,355.8L243.2,353.2L242.8,350.2L244.6,349.2L245.2,347.2L246.2,343.8L245.2,340.8L241.0,342.4L236.6,338.8L235.6,339.2L234.0,337.6L234.4,336.6L225.2,326.6L225.4,321.6L225.2,318.4L226.6,318.2L228.0,316.8L228.6,315.6L232.0,315.2L236.0,315.2L243.0,315.6L243.0,317.2L247.4,318.8L249.0,318.2L249.4,319.8L253.3,320.4L253.6,318.8L253.4,316.6L255.6,314.6L257.0,316.0L259.4,315.0L262.0,315.6L263.8,313.8L266.8,311.8L266.0,310.2L267.2,308.2L271.4,308.0L269.8,305.2L269.2,300.4L266.4,285.6L269.8,284.0L269.2,282.4L271.8,281.4L272.6,282.6L275.6,282.2L275.2,281.0L278.0,280.2L283.4,280.0L285.8,277.6L287.2,275.0L285.4,273.0L285.2,270.4L288.6,269.6L291.4,273.0L297.6,272.4L297.4,271.0L299.0,264.2L304.6,262.8L305.8,260.8L305.8,256.2L312.8,258.6L319.0,256.6L319.4,252.8L323.2,249.8L324.6,249.0L325.4,251.4L325.2,254.0L326.8,257.8L330.4,255.4L333.0,251.8L331.0,248.6L332.2,244.2L335.8,242.2L334.0,238.8L334.6,237.4L342.6,235.6L344.6,236.4L347.0,234.4L349.6,234.8L355.8,238.4L362.0,237.6L365.6,234.8L368.6,235.4L368.4,237.6L374.2,238.0L382.8,242.0L382.2,246.2L376.8,257.4L378.4,262.4L376.4,265.4L375.2,265.8L374.4,267.4L374.6,278.8L369.0,281.2L368.4,283.8L368.4,290.2L367.8,298.2L361.4,299.8L361.4,301.0L365.0,301.0L365.4,307.0L365.6,310.2L363.2,311.6L360.6,309.6L354.6,310.4L350.1,311.6Z" />
		<path id="L1611026639412" name="红桥区" class="qing-map-1616414528549" d="M173.8,386.6L174.2,383.2L175.0,378.2L178.2,372.0L182.4,371.8L185.6,373.8L188.0,375.8L188.2,379.2L187.8,381.4L192.0,387.2L187.2,387.2L187.0,388.0L180.0,387.8L179.4,386.6Z" />
		<path id="L1611026647596" name="南开区" class="qing-map-1616414528549" d="M192.2,389.6L192.0,387.2L187.2,387.2L187.0,388.0L180.0,387.8L179.4,386.6L173.8,386.6L169.4,391.2L175.6,398.4L176.6,405.8L179.8,409.8L185.2,415.4L190.5,413.6L188.4,407.0L188.6,401.6L188.6,390.4L190.2,389.8Z" />
		<path id="L1611026655020" name="和平区" class="qing-map-1616414528549" d="M188.6,401.6L188.6,390.4L190.2,389.8L192.2,389.6L193.2,391.6L196.0,391.4L198.8,396.6L192.8,401.4Z" />
		<path id="L1611026668836" name="河北区" class="qing-map-1616414528549" d="M196.0,391.4L193.2,391.6L192.2,389.6L192.0,387.2L187.8,381.4L188.2,379.2L188.0,375.8L185.6,373.8L191.2,372.0L192.8,373.8L196.0,371.4L199.2,374.2L202.0,371.4L205.8,376.0L205.2,378.4L206.0,379.2L208.2,378.8L209.0,382.2L206.0,382.2L205.6,386.0L201.2,385.6L198.8,386.8L197.4,386.4L194.2,389.2Z" />
		<path id="L1611026676883" name="河东区" class="qing-map-1616414528549" d="M198.8,396.6L196.0,391.4L194.2,389.2L197.4,386.4L198.8,386.8L201.2,385.6L205.6,386.0L206.0,382.2L209.0,382.2L211.8,381.6L212.4,384.4L211.0,385.2L211.8,386.6L213.8,386.8L215.8,391.8L211.8,393.2L213.2,399.2L221.4,402.0L221.2,405.0L220.2,407.6L218.6,407.8L215.8,406.2L213.6,406.4L212.0,405.8L211.0,408.8L208.2,408.6L205.0,406.0L203.8,402.0Z" />
		<path id="L1611026687220" name="河西区" class="qing-map-1616414528549" d="M211.0,408.8L208.2,408.6L205.0,406.0L203.8,402.0L198.8,396.6L192.8,401.4L188.6,401.6L188.4,407.0L190.5,413.6L194.2,412.2L197.9,417.2L206.2,417.2L207.0,418.4L210.0,418.0L209.6,416.4L211.2,415.4L213.2,415.2L215.6,415.4L215.6,412.2L217.4,409.6Z" />
		<path id="L1611037959302" name="津南区" class="qing-map-1616414528549" d="M201.6,421.8L204.2,421.4L204.8,422.8L206.0,421.8L208.6,422.4L210.2,421.6L210.6,422.6L209.4,424.0L209.2,427.4L208.6,428.4L210.4,428.6L212.8,430.2L214.0,435.0L216.8,435.0L217.8,437.0L215.8,438.0L216.8,439.8L214.2,444.0L211.4,442.4L210.2,443.8L211.6,445.6L208.2,450.8L204.4,450.8L209.0,453.8L209.8,455.0L209.2,458.8L211.6,460.6L210.6,462.0L221.0,473.2L226.0,473.4L226.4,476.0L227.8,476.2L228.8,478.6L228.4,481.6L230.0,482.2L230.2,485.2L228.2,485.6L228.2,487.8L246.4,473.4L254.2,482.4L256.0,477.2L260.4,472.8L267.2,466.6L271.6,465.6L270.4,454.6L273.2,453.0L274.0,454.0L277.6,451.0L282.0,454.2L284.2,454.6L283.6,446.6L286.2,439.8L286.0,438.4L283.4,438.2L281.0,434.2L278.0,433.0L273.4,436.4L272.2,435.6L272.8,434.6L269.6,429.4L264.0,430.4L263.8,424.8L262.0,424.4L258.6,426.8L253.8,428.4L249.2,427.8L244.6,425.2L240.8,417.8L233.0,417.8L230.4,416.4L225.2,411.2L221.2,409.8L217.4,409.6L215.6,412.2L215.6,415.4L213.2,415.2L211.2,415.4L209.6,416.4L210.0,418.0L207.0,418.4L206.2,417.2L197.9,417.2Z" />
		<path id="L1611038556249" name="东丽区" class="qing-map-1616414528549" d="M278.0,433.0L273.4,436.4L272.2,435.6L272.8,434.6L269.6,429.4L264.0,430.4L263.8,424.8L262.0,424.4L258.6,426.8L253.8,428.4L249.2,427.8L244.6,425.2L240.8,417.8L233.0,417.8L230.4,416.4L225.2,411.2L221.2,409.8L217.4,409.6L211.0,408.8L212.0,405.8L213.6,406.4L215.8,406.2L218.6,407.8L220.2,407.6L221.2,405.0L221.4,402.0L213.2,399.2L211.8,393.2L215.8,391.8L213.8,386.8L211.8,386.6L211.0,385.2L212.4,384.4L211.8,381.6L209.0,382.2L208.2,378.8L206.0,379.2L205.2,378.4L205.8,376.0L202.0,371.4L205.6,367.0L210.2,365.0L216.2,362.6L218.6,361.4L217.6,356.6L216.8,353.2L228.4,357.2L235.6,358.0L241.2,359.2L240.6,357.8L242.8,357.4L245.2,355.8L247.2,357.2L247.0,360.6L249.2,361.6L251.6,359.0L255.6,359.4L257.8,357.4L260.8,359.2L265.0,360.2L267.6,362.0L267.2,364.6L266.0,367.0L270.8,366.8L271.0,368.8L273.4,367.8L274.0,371.2L282.0,375.2L287.6,376.4L287.4,381.6L285.8,382.2L284.6,383.8L284.4,386.0L281.6,388.0L275.0,384.8L272.6,392.6L271.6,399.4L279.4,400.0L279.6,401.8L284.4,402.6L284.4,408.6L286.6,409.8L285.8,413.2L286.0,416.6L280.6,416.8L278.6,416.2L277.6,419.6L276.6,419.6L275.4,426.4L277.4,428.6L276.6,430.8Z" />
		<path id="L1611042470214" name="静海区" class="qing-map-1616414528549" d="M208.6,486.2L193.0,472.0L177.6,448.4L172.8,443.6L165.2,439.4L157.8,434.2L156.0,436.6L151.0,436.0L153.0,431.8L150.8,430.4L151.4,428.4L142.2,424.0L137.8,422.8L134.4,422.2L133.6,420.0L132.6,419.4L132.2,418.4L127.8,416.6L126.4,418.4L121.2,415.2L118.4,414.8L117.4,415.6L116.2,415.0L113.4,416.8L113.0,415.4L115.8,413.6L111.6,411.0L109.0,411.0L107.6,415.8L104.0,418.6L99.2,418.8L96.6,419.4L92.8,417.6L89.8,417.6L87.2,419.2L89.6,415.6L86.8,414.0L84.8,416.8L82.8,419.4L79.2,418.6L77.2,424.2L79.4,426.6L78.2,428.2L77.8,434.4L76.8,437.4L71.2,445.0L69.2,454.4L66.8,454.4L66.6,470.0L69.6,470.0L70.2,484.8L75.4,485.2L75.4,491.6L77.2,491.8L74.2,499.2L75.4,500.4L74.4,507.2L77.6,509.2L76.0,518.2L79.8,517.2L80.4,520.6L84.8,522.8L87.6,522.6L88.2,520.4L94.2,520.8L100.2,521.6L105.8,521.2L108.0,519.8L107.8,529.6L109.2,530.0L109.8,540.2L111.4,542.2L114.4,541.6L121.0,539.6L121.0,541.8L123.4,542.2L125.0,538.8L127.0,538.8L128.4,539.8L131.0,539.8L131.6,538.4L138.8,536.8L140.2,538.0L145.2,538.4L146.6,534.8L153.0,533.2L151.6,536.8L151.8,539.4L159.4,541.6L156.2,549.2L155.0,555.0L157.8,558.0L160.0,565.6L163.2,566.4L164.0,568.8L166.4,568.4L166.4,571.6L169.6,572.8L175.2,568.8L182.2,567.0L182.8,562.6L181.8,561.6L182.4,557.6L183.8,553.0L183.8,550.4L183.2,549.2L183.2,546.2L181.8,544.4L181.8,542.4L180.2,542.6L180.4,537.8L182.8,535.8L182.4,531.4L183.2,526.0L187.2,524.6L187.4,523.6L181.8,525.6L180.4,525.2L179.0,523.4L177.6,523.6L177.4,521.6L181.6,518.0L181.6,516.0L185.2,515.8L197.4,508.0L192.4,503.2L195.0,499.8L193.0,498.6L195.6,495.6L199.4,497.8Z" />
		<path id="L1611043507038" name="滨海新区" class="qing-map-1616414528549" d="M317.0,349.0L307.0,348.4L300.8,348.4L298.8,350.2L307.2,362.2L307.2,364.4L305.6,364.8L304.6,362.2L302.0,361.6L290.8,362.4L289.4,360.2L273.8,360.6L273.2,362.0L285.6,372.8L293.8,376.0L301.4,373.8L302.4,375.2L299.4,380.4L295.6,379.2L290.6,377.6L287.6,376.4L287.4,381.6L285.8,382.2L284.6,383.8L284.4,386.0L281.6,388.0L275.0,384.8L272.6,392.6L271.6,399.4L279.4,400.0L279.6,401.8L284.4,402.6L284.4,408.6L286.6,409.8L285.8,413.2L286.0,416.6L280.6,416.8L278.6,416.2L277.6,419.6L276.6,419.6L275.4,426.4L277.4,428.6L276.6,430.8L278.0,433.0L281.0,434.2L283.4,438.2L286.0,438.4L286.2,439.8L283.6,446.6L284.2,454.6L282.0,454.2L277.6,451.0L274.0,454.0L273.2,453.0L270.4,454.6L271.6,465.6L267.2,466.6L260.4,472.8L256.0,477.2L254.2,482.4L246.4,473.4L228.2,487.8L228.2,487.8L226.4,489.4L228.0,492.4L226.2,494.2L222.2,491.4L208.6,486.2L199.4,497.8L195.6,495.6L193.0,498.6L195.0,499.8L192.4,503.2L197.4,508.0L185.2,515.8L181.6,516.0L181.6,518.0L177.4,521.6L177.6,523.6L179.0,523.4L180.4,525.2L181.8,525.6L187.4,523.6L187.2,524.6L183.2,526.0L182.4,531.4L182.8,535.8L180.4,537.8L180.2,542.6L181.8,542.4L181.8,544.4L183.2,546.2L183.2,549.2L183.8,550.4L183.8,553.0L182.4,557.6L181.8,561.6L182.8,562.6L184.0,563.0L190.0,563.0L191.0,561.8L193.2,561.6L197.8,554.6L201.0,554.2L198.8,558.6L201.0,558.8L201.4,561.6L205.4,562.6L208.0,564.6L207.6,567.0L203.2,572.0L203.2,574.2L209.6,572.4L209.6,573.6L204.0,575.6L208.2,583.6L210.0,582.4L211.0,582.8L217.0,580.2L217.6,577.6L218.8,577.6L220.8,582.2L222.2,582.4L226.2,580.2L232.0,581.0L233.8,578.0L233.4,575.0L236.2,574.4L236.6,578.8L244.0,576.2L246.0,573.6L245.6,571.8L247.2,570.6L249.4,571.0L254.2,567.6L264.0,565.2L265.4,562.6L268.6,562.4L271.2,564.0L276.2,563.6L277.0,567.6L281.8,567.0L281.2,564.0L282.6,562.4L285.0,562.8L285.0,559.0L282.6,550.0L284.8,548.2L284.0,546.6L286.6,547.6L288.8,546.2L288.0,540.0L289.0,535.0L293.2,535.6L293.6,530.6L288.8,530.0L290.4,521.8L289.0,521.2L290.0,519.0L292.8,516.8L292.8,514.6L289.6,513.2L291.4,511.2L294.2,510.8L293.4,508.4L295.2,503.0L297.6,496.0L299.2,495.2L303.2,487.8L305.4,486.6L308.4,483.2L311.0,485.2L313.6,481.8L307.8,479.2L311.6,474.2L316.6,476.2L320.0,470.2L322.0,469.4L325.0,464.2L322.8,462.0L323.8,460.8L327.8,463.4L328.6,462.2L337.0,464.4L339.0,463.8L339.2,462.4L347.6,464.6L350.0,456.6L345.6,455.6L344.2,459.0L340.8,458.0L342.2,453.2L333.6,450.8L330.2,447.4L331.2,445.8L332.8,447.6L363.8,456.6L364.8,457.8L369.8,459.6L371.4,453.4L361.6,451.6L361.2,450.0L352.4,448.4L351.4,446.6L338.4,444.6L337.8,443.4L332.4,441.0L331.6,441.8L328.2,439.2L329.0,438.0L337.8,442.2L339.4,441.8L345.6,444.0L347.2,442.4L344.4,439.6L342.0,428.4L340.0,427.2L339.8,425.2L340.8,424.2L338.8,420.2L341.6,419.4L343.8,425.6L346.8,439.4L350.6,443.2L357.6,444.0L351.2,417.8L348.2,418.6L337.0,412.8L336.0,409.8L332.4,407.2L329.6,404.4L329.4,399.6L330.2,398.6L330.6,403.2L332.0,404.4L334.8,403.6L344.2,392.0L348.6,386.4L352.2,387.0L354.2,384.6L355.0,382.2L353.4,380.4L368.8,371.2L381.8,365.8L395.4,363.0L409.0,362.0L409.6,358.6L417.0,358.2L417.4,351.0L410.2,347.0L408.0,339.6L406.4,338.4L402.4,341.2L398.6,339.0L398.0,336.8L394.4,337.2L394.0,330.8L376.6,328.6L372.6,325.2L366.2,324.8L363.8,323.4L361.2,326.4L360.0,326.8L361.2,328.2L359.6,330.2L359.0,329.0L358.2,329.8L358.6,331.4L351.5,343.6L344.8,339.2L345.4,334.8L343.4,333.4L342.2,334.6L340.2,334.8L338.0,338.0L336.8,337.4L327.8,339.4L327.2,341.6L324.6,341.8L324.8,343.4L317.8,342.8L317.6,344.0L317.4,345.0L318.1,345.8L318.1,348.9Z" />
	</g>
</svg>
