<svg xmlns="http://www.w3.org/2000/svg" viewBox="0,0,461,600" width="100%" height="100%">
	<defs>
		<style type="text/css">
.qing-map-1616127870823
{
	fill: #DDDDDD;
	fill-opacity: 1.0;
	stroke: #FFFFFF;
	stroke-opacity: 1.0;
	stroke-width: 1;
}

.qing-map-1616127870823:hover
{
	fill: #56A4FF;
	fill-opacity: 1.0;
}
</style>
	</defs>
	<g>
		<path id="L1611036276133" name="南昌市" class="qing-map-1616127870823" d="M211.8,144.4L214.6,142.8L215.2,141.8L217.4,142.0L219.4,141.4L223.4,141.4L221.6,144.4L223.6,147.8L226.0,149.2L228.6,149.6L229.4,150.6L229.2,152.0L229.6,153.0L231.8,152.6L233.0,150.6L232.0,144.8L232.4,142.6L234.6,142.2L240.4,147.4L242.8,147.6L243.2,156.8L240.6,159.6L238.6,163.4L236.2,165.0L230.8,164.4L229.6,166.0L230.8,168.6L230.0,170.4L233.0,171.4L234.2,172.4L236.2,174.2L236.6,175.8L236.4,176.8L239.0,175.8L241.2,176.0L242.0,178.0L244.8,179.4L246.6,180.8L246.0,183.6L247.0,184.6L246.2,186.8L247.8,188.8L249.2,191.6L251.8,195.0L255.0,197.8L256.4,200.2L256.0,201.8L256.2,204.2L256.8,205.2L256.2,207.8L253.6,210.0L252.0,212.6L252.4,217.2L249.6,219.4L248.2,223.4L245.4,223.2L242.4,224.0L240.8,227.4L239.6,227.6L239.2,225.8L236.4,223.4L236.0,225.6L233.6,226.0L230.0,228.6L230.0,230.2L229.2,231.6L227.2,230.2L225.4,229.8L223.8,228.6L223.0,226.6L219.8,224.4L218.6,223.0L217.8,221.6L216.2,219.4L213.8,219.2L210.8,220.8L209.2,219.6L207.8,221.0L206.0,220.4L206.4,219.0L204.0,217.0L203.0,218.2L202.2,217.6L200.8,219.0L198.6,217.2L199.0,215.4L197.0,210.2L194.8,208.8L193.6,209.2L193.6,211.4L191.8,212.4L190.2,211.8L188.4,213.0L186.6,212.0L184.4,212.0L185.2,213.8L183.2,214.8L181.88,215.38L179.2,214.4L181.4,210.8L180.6,209.6L179.4,209.4L177.6,207.8L176.0,209.4L174.4,209.4L174.0,210.6L171.6,209.0L173.2,207.8L173.2,206.2L172.4,204.8L173.2,203.6L173.6,200.8L175.0,199.6L173.2,198.8L175.0,197.8L174.2,194.2L175.8,193.0L175.4,191.4L172.2,192.4L171.0,191.4L170.8,190.6L172.4,189.2L172.0,186.8L172.4,183.4L173.4,182.2L172.4,180.4L173.4,178.2L168.2,177.6L166.4,178.8L164.0,175.2L165.4,173.6L166.2,172.0L167.6,171.6L167.6,169.6L168.2,167.6L169.8,168.6L171.0,165.8L171.0,164.2L170.8,162.6L169.6,161.4L169.2,159.4L166.0,154.6L166.8,153.0L167.2,151.8L168.6,152.0L170.4,151.4L172.4,152.4L174.0,155.2L178.6,156.2L179.8,157.2L183.2,157.6L183.4,159.4L186.8,160.6L188.4,158.8L190.4,162.4L194.0,162.2L195.0,161.0L194.6,159.6L195.8,158.6L195.2,155.4L198.4,155.8L200.6,153.0L201.2,150.4L202.8,149.2L203.4,147.4L203.0,145.6L204.2,144.0L206.0,143.2L208.2,143.4L209.2,144.4L210.4,142.6Z" />
		<path id="L1611036971316" name="景德镇市" class="qing-map-1616127870823" d="M300.0,86.4L301.6,85.6L302.4,84.0L301.2,81.4L303.6,79.4L303.6,77.6L303.0,76.8L301.8,76.8L300.4,75.4L299.0,74.8L298.6,74.0L300.0,73.2L300.4,72.2L303.0,71.2L303.6,69.6L303.0,68.0L303.8,66.8L305.6,65.6L306.6,65.6L309.0,64.4L311.0,65.6L313.0,66.2L314.2,68.6L313.6,71.2L312.6,71.8L313.4,73.6L314.4,73.4L315.2,74.8L316.4,74.2L316.4,73.2L318.4,73.2L320.4,71.8L321.0,75.0L322.8,75.8L324.8,72.6L327.6,72.8L326.8,75.0L326.8,75.8L326.0,77.0L327.2,78.8L328.2,81.0L329.2,80.4L329.4,82.4L330.0,83.6L329.4,86.8L331.4,88.4L331.6,89.6L333.4,90.0L334.6,89.0L336.2,91.0L335.6,93.0L336.4,95.6L338.6,97.2L340.2,96.4L341.2,97.4L343.2,96.8L343.8,95.8L346.0,94.6L347.2,95.2L347.2,96.0L348.4,97.0L349.2,99.4L349.8,100.4L347.8,102.8L346.0,102.2L344.8,104.4L343.2,104.6L342.0,107.4L339.6,108.0L339.6,109.4L338.0,110.0L336.8,111.8L335.4,111.2L334.2,112.2L335.0,114.0L332.8,115.0L333.4,117.6L332.4,118.6L333.0,120.2L329.8,121.4L328.0,123.0L330.2,126.2L327.4,128.8L325.0,129.8L324.2,133.0L323.6,134.4L324.4,136.4L324.8,138.2L327.6,139.6L329.0,138.2L330.4,138.4L331.8,137.0L333.0,137.6L333.4,138.8L332.8,140.0L332.8,141.8L334.0,143.2L334.2,145.2L335.4,147.4L334.2,148.8L333.8,150.0L333.0,150.8L333.4,154.2L330.4,155.6L330.8,156.6L333.0,156.6L333.4,158.8L335.2,160.0L336.0,161.6L338.0,163.2L337.8,164.8L337.0,167.0L338.0,169.6L335.4,170.4L334.4,169.2L332.8,169.0L331.6,168.0L330.8,167.4L327.4,169.6L325.4,169.6L326.0,171.0L325.6,172.4L322.8,174.4L320.4,173.8L318.0,174.4L316.83,176.17L313.8,179.0L312.8,178.6L312.4,177.2L311.0,176.2L310.17,177.0L308.6,177.2L307.2,176.2L307.4,174.6L306.0,173.6L304.8,173.4L304.4,172.4L302.6,174.0L302.4,171.8L300.6,171.6L299.2,170.8L298.2,170.4L296.4,172.0L295.8,169.6L292.4,165.4L291.0,166.0L291.0,164.4L289.6,164.0L289.6,161.8L291.0,157.8L292.2,158.0L293.6,157.4L293.2,155.0L293.6,152.6L295.4,152.2L294.8,150.8L296.6,148.6L296.4,146.4L297.0,144.0L299.2,142.8L299.0,141.0L297.6,138.6L295.6,137.8L294.8,136.6L294.8,135.4L293.8,134.0L293.2,132.0L294.0,129.6L293.2,126.4L294.8,125.6L296.4,124.0L298.8,123.6L298.2,121.0L295.2,118.4L296.6,117.6L296.8,116.4L298.2,115.6L297.4,114.0L298.4,113.2L298.0,111.6L296.0,110.8L296.0,108.2L297.0,106.4L296.0,103.8L296.8,102.2L296.0,98.8L294.8,96.6L297.6,91.6L298.6,91.6L299.4,89.6L298.6,88.8Z" />
		<path id="L1611038655913" name="萍乡市" class="qing-map-1616127870823" d="M37.4,247.6L38.2,247.0L39.2,248.4L40.6,247.6L42.0,249.4L43.0,249.4L44.4,249.0L45.4,250.8L45.0,252.4L43.8,253.2L42.6,253.8L42.0,254.6L40.4,254.2L37.8,257.0L38.6,260.2L37.2,261.6L40.0,262.4L40.8,264.6L42.4,264.4L42.2,266.6L45.0,269.4L46.4,269.0L48.0,269.4L49.4,270.2L53.6,269.6L54.6,267.6L55.6,267.8L57.6,270.6L58.4,271.6L60.2,271.4L61.0,274.2L61.6,275.6L62.8,278.0L61.8,279.8L68.0,286.0L65.0,287.8L63.8,290.6L62.0,290.8L62.2,294.0L60.6,296.6L58.8,298.8L55.2,298.8L52.8,299.8L51.0,298.8L48.6,299.4L47.8,301.2L48.2,303.6L49.8,304.8L51.2,306.4L51.4,308.4L54.6,309.2L54.8,310.0L56.6,311.4L57.8,314.6L58.2,316.8L56.0,318.8L54.8,318.8L53.8,319.8L52.6,323.2L51.4,325.0L50.0,324.4L46.8,328.2L45.2,331.8L45.2,334.0L44.2,335.6L42.2,336.6L42.2,339.6L40.8,340.0L39.2,343.2L37.2,343.0L34.0,340.0L34.6,338.6L33.8,337.4L32.2,338.6L32.6,337.2L31.2,335.6L30.0,335.0L30.0,331.2L29.0,330.4L27.6,332.0L27.0,330.0L26.6,328.0L28.6,324.8L29.6,324.4L31.6,319.8L34.4,315.4L33.6,314.6L34.6,313.0L33.2,312.2L33.0,311.2L34.8,307.6L35.0,306.0L34.6,304.2L33.6,305.8L32.4,305.2L31.4,305.0L31.0,306.4L29.8,305.8L29.0,305.8L28.0,307.0L26.8,306.4L25.4,306.4L24.0,308.6L22.8,307.4L21.0,308.8L19.0,309.0L17.6,308.0L16.6,306.8L14.6,307.6L12.8,306.4L13.0,305.2L12.0,304.0L14.8,302.4L14.8,301.0L12.8,301.0L12.2,300.0L12.6,299.2L12.2,296.2L13.4,295.0L14.4,293.6L14.8,292.0L14.4,290.8L13.4,291.6L12.2,291.6L11.2,289.8L11.0,288.4L12.6,286.4L13.2,282.0L13.0,281.0L16.8,278.4L19.4,273.8L21.4,272.4L20.6,270.8L25.8,265.4L26.2,263.0L25.0,262.4L25.8,260.8L24.8,259.0L23.4,258.8L23.0,257.2L25.4,252.0L26.8,250.8L28.2,250.8L28.8,249.4L30.0,248.8L32.8,249.6L34.2,245.8L35.4,247.4Z" />
		<path id="L1611039371303" name="九江市" class="qing-map-1616127870823" d="M170.0,73.4L178.2,73.8L181.6,73.0L185.6,73.0L196.4,81.8L203.6,84.4L215.0,80.2L216.4,78.0L221.4,74.8L222.6,74.2L227.0,74.2L229.0,75.2L230.4,77.6L231.6,78.6L235.6,76.2L239.0,73.4L242.2,71.6L245.6,70.4L248.8,68.0L251.0,67.4L253.6,68.0L255.6,66.6L257.0,60.8L257.8,56.6L259.2,53.2L261.4,51.4L263.4,50.8L265.8,51.2L268.6,52.4L270.8,53.0L272.4,53.2L274.4,55.0L275.2,56.2L275.2,57.6L276.6,58.2L278.6,56.8L278.0,59.8L279.0,60.6L281.8,59.6L284.0,61.2L284.6,63.0L284.0,63.8L283.4,67.8L279.6,72.6L277.8,73.4L278.6,75.0L276.4,75.6L275.0,78.2L273.4,76.6L271.2,78.2L271.2,79.6L269.8,79.8L268.8,82.8L267.2,82.8L266.2,83.8L266.2,85.0L265.4,86.4L264.2,86.2L264.0,87.6L266.0,87.8L266.6,89.0L264.2,91.0L264.2,92.6L266.2,94.0L265.8,96.0L263.6,95.0L262.8,97.2L260.6,98.2L258.4,97.8L257.2,96.4L255.6,96.2L252.4,95.4L250.8,98.2L252.0,99.8L253.8,100.6L253.8,103.8L252.6,106.0L254.4,107.2L254.0,108.8L252.8,109.8L252.6,111.8L254.4,112.8L254.4,114.4L255.6,116.4L255.6,118.4L253.8,119.4L256.2,122.6L256.8,124.8L258.2,126.4L259.2,129.0L262.8,131.2L256.4,137.4L253.2,138.2L249.4,138.0L247.4,139.2L247.2,142.2L242.8,147.6L240.4,147.4L234.6,142.2L232.4,142.6L232.0,144.8L233.0,150.6L231.8,152.6L229.6,153.0L229.2,152.0L229.4,150.6L228.6,149.6L226.0,149.2L223.6,147.8L221.6,144.4L223.4,141.4L219.4,141.4L217.4,142.0L215.2,141.8L214.6,142.8L211.8,144.4L210.4,142.6L209.2,144.4L208.2,143.4L206.0,143.2L204.2,144.0L203.0,145.6L203.4,147.4L202.8,149.2L201.2,150.4L200.6,153.0L198.4,155.8L195.2,155.4L195.8,158.6L194.6,159.6L195.0,161.0L194.0,162.2L190.4,162.4L188.4,158.8L186.8,160.6L183.4,159.4L183.2,157.6L179.8,157.2L178.6,156.2L174.0,155.2L172.4,152.4L170.4,151.4L168.6,152.0L167.2,151.8L166.4,150.6L165.4,150.2L164.4,149.2L163.8,148.0L163.8,147.0L162.4,146.6L161.0,146.0L158.4,145.0L157.0,144.6L154.6,143.2L151.8,143.6L149.0,143.8L146.6,143.6L143.8,144.4L141.2,144.8L139.2,146.4L137.0,147.6L133.6,148.8L132.2,150.0L130.4,151.8L128.2,152.0L126.4,153.2L124.8,155.2L125.2,157.4L124.0,159.2L123.8,161.6L124.6,162.8L124.0,163.8L121.8,165.2L120.2,165.8L120.2,167.6L121.0,170.6L119.8,173.2L118.2,175.6L116.6,175.8L114.8,177.0L112.8,174.6L111.2,175.8L112.0,177.8L110.0,179.8L107.8,179.6L106.4,182.4L105.0,182.2L103.6,182.6L101.6,181.6L99.2,182.2L97.6,181.0L96.8,181.0L96.4,179.6L95.6,179.4L94.0,178.4L93.0,176.4L93.4,175.2L92.6,174.2L90.2,175.0L88.6,175.6L86.4,175.6L83.2,178.2L84.6,180.8L80.8,179.6L78.2,180.8L76.6,179.4L75.0,181.0L71.8,178.8L71.4,177.4L69.6,175.6L67.6,174.8L67.4,172.6L66.2,170.6L65.0,171.6L63.2,169.0L61.4,171.0L59.6,172.2L58.2,174.2L57.0,173.2L57.6,171.0L57.8,168.6L56.6,168.8L55.6,167.6L52.0,168.4L50.4,165.2L50.8,162.8L49.8,161.6L47.4,163.2L47.2,161.6L46.0,159.8L46.0,157.2L43.6,158.4L42.2,156.0L42.0,154.2L41.6,151.4L41.0,148.2L41.0,147.2L41.8,146.2L41.4,143.8L42.6,143.4L44.6,140.8L47.6,139.0L48.4,137.0L49.8,135.8L51.6,133.2L55.8,132.4L57.0,133.0L58.4,132.0L60.2,132.4L61.2,131.4L62.4,131.6L64.0,130.4L65.6,131.0L66.4,130.4L66.2,128.2L67.2,125.2L66.4,124.0L67.2,122.2L66.8,121.0L67.8,119.2L69.6,119.4L71.2,118.0L73.2,121.6L75.8,122.2L77.4,121.2L79.8,121.4L81.4,120.8L84.0,122.2L85.0,121.6L87.8,122.0L90.2,121.4L91.2,120.4L92.6,120.0L95.8,118.4L96.6,116.4L98.8,116.6L100.6,115.4L101.8,116.2L105.8,115.6L106.6,115.8L106.4,118.0L108.0,118.2L110.4,116.4L112.0,116.8L117.0,114.8L118.2,116.0L119.2,115.4L119.6,114.2L120.2,113.2L121.6,113.2L122.0,112.4L122.0,111.2L122.8,110.0L123.0,108.8L123.0,107.8L122.8,107.0L121.4,107.0L120.2,108.4L121.0,109.2L118.8,111.2L118.4,109.6L117.2,106.8L117.8,105.2L120.6,104.6L122.6,105.6L123.6,105.6L125.6,103.8L125.0,102.8L124.0,102.6L123.6,101.2L124.8,100.2L126.6,99.6L128.8,99.4L130.4,101.0L132.8,100.4L134.4,100.0L135.8,100.6L135.2,102.2L135.0,103.0L138.0,104.8L140.8,105.2L140.8,103.4L140.4,102.2L140.0,98.0L141.8,97.0L142.0,96.0L140.0,96.0L139.0,95.4L138.8,93.8L139.6,92.4L139.8,91.4L138.6,91.4L137.6,91.2L136.8,90.4L136.6,89.4L136.4,88.4L138.2,88.2L139.4,89.2L140.4,90.0L141.4,90.4L146.8,91.2L148.6,90.2L150.4,91.2L149.4,92.2L151.0,94.6L152.4,92.6L154.2,92.6L154.8,91.2L157.6,91.0L160.6,88.4L162.2,88.8L163.0,86.0L166.6,83.6L167.2,81.4L166.4,80.4L167.4,78.4L166.8,76.8Z" />
		<path id="L1611040227807" name="新余市" class="qing-map-1616127870823" d="M92.6,241.0L94.0,239.2L96.4,239.2L98.6,237.0L99.6,237.2L100.8,236.4L103.0,237.4L105.8,236.8L109.6,236.8L109.8,238.0L110.4,240.2L109.2,240.8L109.8,242.6L111.0,243.0L113.2,242.4L117.6,242.2L117.8,243.8L121.0,242.8L121.2,241.0L123.4,240.0L125.0,237.8L126.2,237.4L127.4,239.4L129.6,239.0L130.8,240.2L132.0,239.4L133.0,240.6L135.8,239.0L140.0,239.6L141.6,242.0L140.2,242.4L140.2,243.6L140.2,245.2L139.0,246.2L138.4,247.8L137.8,249.4L137.8,251.2L139.8,256.4L140.6,256.6L143.4,258.0L144.4,257.4L145.6,258.2L146.8,257.0L148.2,258.2L149.8,258.4L151.4,257.4L153.6,258.6L155.0,257.8L156.0,258.8L157.2,258.2L158.4,258.0L160.2,258.0L161.0,258.4L159.8,259.4L158.6,259.8L157.6,260.2L157.0,262.2L155.8,263.0L154.0,265.2L151.4,267.6L149.0,268.8L144.8,269.6L142.2,271.4L141.2,273.4L139.0,273.8L139.0,271.6L138.2,270.2L135.6,273.8L133.2,272.0L129.8,273.4L130.6,274.8L129.4,275.8L129.2,278.4L127.4,278.4L126.2,276.8L124.8,277.4L125.6,279.0L124.0,279.8L122.2,281.0L118.8,283.4L117.8,284.8L115.8,285.4L113.8,284.8L113.0,283.2L111.0,282.8L109.6,281.2L108.6,283.4L107.2,284.0L106.2,285.0L105.0,283.6L103.2,284.4L101.6,285.0L100.6,286.6L99.2,288.2L97.6,290.2L95.8,288.2L95.0,288.2L94.0,287.2L90.4,287.0L89.0,284.2L89.8,283.0L89.0,281.0L90.0,278.8L90.2,277.2L91.8,274.8L93.2,272.6L92.6,269.0L92.0,268.0L92.2,266.4L93.6,264.0L93.2,262.2L91.8,261.0L90.8,263.2L89.0,263.2L87.4,261.6L86.0,258.8L85.4,254.2L88.8,253.0L88.2,250.8L91.2,249.8L92.8,250.6L95.6,247.6L94.4,245.4L94.2,243.0Z" />
		<path id="L1611040563755" name="鹰潭市" class="qing-map-1616127870823" d="M275.0,213.4L279.0,211.2L281.8,211.2L282.4,209.4L281.4,206.6L284.2,203.2L282.6,199.0L284.4,199.0L285.2,197.6L289.2,197.2L291.0,198.2L292.2,197.0L293.6,199.2L297.4,194.0L296.2,191.2L296.6,189.8L298.4,189.4L299.6,190.8L301.4,191.0L303.4,193.4L305.2,194.0L310.6,190.6L312.2,187.8L314.6,189.8L315.0,191.4L316.4,193.0L317.4,195.0L318.6,196.8L318.4,198.6L319.0,200.2L318.8,203.4L319.8,204.8L319.4,206.6L318.2,209.2L319.6,210.2L319.2,214.4L316.2,215.8L315.8,217.4L314.2,217.8L314.4,220.6L316.2,221.2L317.6,223.4L316.6,225.0L315.4,226.8L315.6,232.4L319.4,234.4L321.8,233.8L323.6,234.8L327.8,236.2L328.6,237.0L330.2,240.4L330.8,242.6L331.0,244.8L329.6,246.8L329.4,250.0L328.6,251.2L330.0,252.8L328.8,253.8L326.6,257.0L323.2,257.6L321.6,260.0L320.4,260.2L319.8,259.4L319.8,258.6L319.6,257.2L318.6,256.4L317.4,258.4L316.2,258.8L315.8,260.0L313.2,257.8L310.6,256.6L309.0,257.4L307.8,256.8L306.8,256.6L306.0,256.0L305.0,257.2L303.0,255.0L301.8,255.6L301.2,257.8L299.6,256.6L297.0,260.4L294.6,260.6L294.6,258.8L293.2,257.0L294.8,253.6L296.4,253.2L296.0,250.6L296.6,249.6L293.0,247.4L292.8,246.6L290.6,244.8L289.4,242.4L288.0,242.6L287.0,241.2L287.0,239.4L287.2,238.2L286.6,237.2L285.4,238.2L285.2,239.6L284.4,240.2L283.6,239.6L282.6,239.0L281.8,239.0L280.4,238.4L279.8,237.6L278.2,236.8L276.8,238.0L275.8,233.8L277.2,232.0L276.8,231.0L275.2,230.0L272.4,231.0L272.2,229.8L271.0,230.0L269.8,228.8L270.4,227.4L268.8,227.6L267.4,226.6L267.4,224.2L271.2,221.6L273.2,222.4L274.4,222.0L275.6,222.6L276.8,221.2L277.4,220.2L276.8,218.0L276.0,217.6L275.8,215.4Z" />
		<path id="L1611042123713" name="赣州市" class="qing-map-1616127870823" d="M48.2,433.2L50.6,432.4L53.8,432.6L55.4,431.0L56.8,431.6L58.4,429.8L61.2,429.0L63.4,430.2L65.0,429.4L66.8,429.2L69.6,428.4L69.8,427.2L73.4,424.8L74.0,423.6L74.8,423.4L76.4,421.6L79.6,421.6L80.4,423.4L82.6,421.4L83.0,418.6L84.8,418.4L88.0,414.4L89.0,411.8L90.2,411.8L93.25,410.0L95.4,411.6L95.4,413.0L97.6,413.2L100.4,413.8L101.2,414.4L103.6,416.4L105.6,414.6L108.0,415.6L109.2,413.8L111.2,414.6L113.6,414.2L115.6,413.4L117.6,414.0L120.8,412.4L124.6,413.4L126.0,413.2L126.8,413.8L127.6,413.4L128.4,415.8L129.8,415.8L130.4,417.2L131.4,417.0L133.0,418.4L135.4,417.6L136.2,416.0L133.8,414.2L132.0,413.6L131.4,411.6L134.2,409.4L133.8,408.2L135.2,407.2L133.8,404.8L133.8,402.6L130.4,398.8L131.4,397.0L130.8,396.0L132.0,394.8L132.8,391.0L134.6,388.4L137.2,385.4L141.8,383.6L145.4,384.4L146.6,383.0L146.2,381.4L148.6,378.8L149.6,376.2L151.6,375.6L151.2,374.6L152.8,374.0L153.2,371.4L155.6,369.6L157.2,370.8L159.4,372.0L160.8,370.6L162.4,370.6L164.2,368.6L165.8,369.6L168.0,368.8L169.0,369.2L170.8,367.4L171.8,370.6L173.2,371.6L175.0,371.6L177.0,370.6L180.8,370.6L183.0,371.6L186.4,368.0L185.6,366.6L187.8,366.2L187.8,361.8L186.2,362.4L183.6,361.0L184.8,358.2L184.2,356.4L185.8,353.8L189.8,355.0L191.6,357.4L193.0,357.0L193.2,355.4L194.2,352.6L195.8,352.0L196.8,349.0L199.4,347.4L202.4,344.2L205.0,342.4L206.0,341.0L208.2,338.8L209.0,336.8L211.2,333.2L210.4,331.4L211.8,327.8L215.8,326.4L220.4,327.8L220.4,329.4L222.2,331.8L222.8,334.6L225.4,334.8L225.6,338.4L223.4,342.4L222.8,347.4L224.4,349.2L221.6,356.0L222.8,357.2L222.2,359.2L221.2,362.4L220.2,365.0L222.0,365.6L223.2,367.2L225.2,367.2L226.6,369.6L228.2,370.0L228.8,371.4L232.6,370.8L232.8,372.2L230.0,374.8L231.8,377.0L232.2,378.4L230.0,380.6L235.4,385.0L238.4,384.8L240.8,384.8L241.8,383.4L241.8,382.0L243.0,381.4L247.0,379.8L248.0,376.6L250.4,378.6L251.4,380.6L254.4,380.4L257.6,381.8L260.6,387.4L262.8,387.6L262.2,389.0L262.4,390.4L260.8,391.2L260.4,393.8L260.6,395.6L259.8,397.6L258.2,398.2L257.6,397.2L256.6,398.0L256.0,395.8L255.8,395.0L255.0,395.0L253.2,393.8L252.0,396.0L251.2,396.4L251.2,397.8L248.8,399.6L247.0,402.0L247.2,403.2L244.8,404.2L245.4,405.6L243.6,406.6L242.4,408.0L243.0,408.8L242.2,409.8L242.2,412.4L243.4,412.6L243.0,416.2L245.0,416.2L246.0,416.6L249.0,415.6L250.0,418.8L251.0,418.8L250.6,421.4L245.0,425.6L245.2,427.2L243.8,427.0L243.4,428.4L241.8,429.6L240.4,431.6L240.8,434.6L239.8,435.8L238.4,435.4L237.4,436.0L235.4,438.2L232.2,439.8L230.8,440.8L229.2,441.0L228.6,440.2L226.2,440.8L224.6,442.4L222.2,443.6L221.0,445.0L221.6,446.6L223.2,448.8L225.2,451.6L224.8,453.6L223.2,453.4L221.4,453.6L220.4,455.8L219.2,457.6L219.6,458.8L217.8,459.2L216.2,458.6L214.8,460.6L215.4,461.6L215.2,463.0L216.4,464.0L214.8,465.2L213.8,467.4L215.4,471.6L215.0,472.8L213.4,473.4L213.2,475.8L211.8,476.6L211.4,481.8L212.0,482.8L212.0,485.2L210.2,485.6L211.2,487.0L209.6,488.2L210.6,490.8L211.4,494.0L209.6,495.8L206.2,496.8L205.6,498.8L203.8,501.6L202.4,501.8L201.4,503.4L199.0,503.2L198.6,507.2L198.2,508.8L200.4,509.2L201.2,511.2L200.0,511.6L200.6,513.2L200.4,515.0L202.4,515.0L203.4,516.0L203.4,517.4L204.6,518.6L204.0,519.8L202.8,519.2L201.8,519.4L201.8,520.8L200.2,521.2L200.0,522.8L201.6,523.2L204.0,526.2L202.6,527.0L200.8,525.4L199.4,526.6L201.4,528.4L200.4,529.2L200.8,532.2L202.6,533.0L201.6,535.0L199.6,534.6L198.0,532.0L195.8,531.6L194.2,533.8L194.8,536.0L193.0,535.8L191.4,541.4L192.2,543.0L190.4,545.8L191.0,548.0L192.0,550.0L194.2,550.4L193.4,552.2L192.2,552.4L190.6,553.2L192.4,554.0L192.8,555.6L193.4,556.6L196.2,559.8L197.8,562.0L194.2,563.0L193.0,562.0L189.8,564.4L187.2,564.8L186.2,564.2L184.4,564.0L183.6,562.4L184.2,560.6L181.8,557.8L180.6,558.4L178.4,557.2L177.0,558.0L175.6,558.0L173.8,555.4L174.0,554.2L173.6,553.4L173.8,552.0L168.6,547.0L166.8,544.6L165.6,544.6L162.6,542.0L161.0,542.0L159.6,543.6L158.8,543.4L158.0,544.0L157.8,547.0L156.4,546.2L154.4,546.2L153.2,545.0L150.6,545.6L149.4,547.4L148.4,547.2L148.0,548.2L147.0,547.6L143.6,549.2L143.0,551.2L141.4,551.0L139.8,551.8L138.6,552.0L138.6,553.4L135.6,552.4L135.2,551.0L133.6,550.0L132.4,550.2L131.8,551.6L129.0,552.6L128.0,552.2L125.2,553.0L124.4,554.4L123.2,554.6L122.0,553.4L120.6,553.8L120.8,555.4L120.0,556.6L120.0,557.8L120.0,559.0L119.0,561.2L117.2,562.0L115.6,561.2L116.6,560.2L115.4,559.2L113.4,560.4L111.6,559.2L110.2,558.2L109.2,559.0L107.6,558.2L105.6,558.8L106.2,562.6L105.6,563.6L104.6,563.6L104.8,565.8L102.8,565.2L100.4,561.8L98.4,561.8L96.8,562.0L95.0,563.6L94.4,565.0L91.8,564.6L89.2,563.4L86.4,565.6L85.4,566.0L83.8,568.0L82.0,569.4L80.8,569.8L78.8,566.4L77.4,564.8L77.2,563.6L76.0,561.2L73.4,561.0L71.6,561.8L70.2,560.8L69.4,558.2L68.4,556.4L67.2,556.8L66.6,555.6L65.6,555.4L63.8,556.0L63.0,555.2L61.8,554.4L59.6,552.0L61.0,550.8L62.4,551.2L64.4,550.4L67.6,550.6L68.4,548.6L69.0,547.4L70.0,547.8L73.0,546.2L74.2,543.8L73.0,543.6L72.6,542.6L73.8,541.8L73.4,540.4L74.8,539.6L74.8,538.4L76.4,536.4L78.0,535.2L78.6,532.8L77.6,531.2L78.2,530.0L77.8,527.6L80.2,527.2L80.6,525.8L82.4,525.6L83.0,523.8L85.0,523.0L87.2,522.6L88.0,521.4L90.2,520.2L90.4,518.2L92.6,515.6L98.2,516.6L101.2,513.4L104.0,513.4L106.2,511.8L106.0,509.6L105.6,508.2L102.4,507.6L102.8,506.6L101.4,505.6L102.8,505.0L103.0,503.8L106.2,501.2L107.0,498.6L105.2,495.6L103.4,494.0L102.2,494.6L100.6,493.4L98.0,493.4L95.8,490.8L95.0,490.2L95.0,488.0L94.2,487.0L93.0,488.0L92.0,486.4L90.0,485.2L87.4,486.4L88.0,488.0L85.4,489.4L82.8,487.6L80.8,492.2L79.0,492.4L78.6,493.6L72.0,492.4L70.4,495.4L68.4,495.8L67.0,496.6L65.4,495.6L64.6,495.8L62.4,496.0L62.4,494.8L61.2,494.2L60.2,495.0L59.0,494.4L57.8,495.6L56.6,495.2L55.0,495.8L52.4,497.8L50.8,497.4L48.4,500.0L47.8,498.8L46.8,497.8L47.8,496.2L47.6,495.4L49.6,494.8L48.2,492.4L49.8,491.2L48.0,488.6L49.0,487.4L46.2,487.4L46.2,486.4L44.2,485.6L45.8,483.2L42.8,481.4L41.4,482.8L40.4,481.4L42.2,479.2L41.4,477.4L42.4,474.8L44.4,475.0L44.6,471.6L43.8,470.8L44.4,467.6L42.0,466.8L41.6,464.8L38.6,458.4L38.6,456.8L42.0,452.4L43.0,449.2L43.0,447.0L46.4,443.4L47.8,441.4L47.6,439.4L47.8,437.4L47.2,436.0Z" />
		<path id="L1611043257421" name="吉安市" class="qing-map-1616127870823" d="M39.2,343.2L40.8,340.0L42.2,339.6L42.2,336.6L44.2,335.6L45.2,334.0L45.2,331.8L46.8,328.2L50.0,324.4L51.4,325.0L52.6,323.2L53.8,319.8L54.8,318.8L56.0,318.8L58.2,316.8L57.8,314.6L56.6,311.4L54.8,310.0L54.6,309.2L51.4,308.4L51.2,306.4L49.8,304.8L48.2,303.6L47.8,301.2L48.6,299.4L51.0,298.8L52.8,299.8L55.2,298.8L58.8,298.8L60.6,296.6L62.2,294.0L62.0,290.8L63.8,290.6L65.0,287.8L68.0,286.0L70.13,286.13L72.5,287.75L73.88,287.5L75.38,288.63L79.5,289.0L81.25,287.25L83.75,287.88L85.38,286.13L87.0,285.5L87.38,283.75L89.0,284.2L90.4,287.0L94.0,287.2L95.0,288.2L95.8,288.2L97.6,290.2L99.2,288.2L100.6,286.6L101.6,285.0L103.2,284.4L105.0,283.6L106.2,285.0L107.2,284.0L108.6,283.4L109.6,281.2L111.0,282.8L113.0,283.2L113.8,284.8L115.8,285.4L117.8,284.8L118.8,283.4L122.2,281.0L124.0,279.8L125.6,279.0L124.8,277.4L126.2,276.8L127.4,278.4L129.2,278.4L129.4,275.8L130.6,274.8L129.8,273.4L133.2,272.0L135.6,273.8L138.2,270.2L139.0,271.6L139.0,273.8L141.2,273.4L142.2,271.4L144.8,269.6L149.0,268.8L151.4,267.6L154.0,265.2L155.8,263.0L157.0,262.2L157.6,260.2L158.6,259.8L159.8,259.4L161.0,258.4L160.2,258.0L159.38,256.5L160.88,255.38L161.88,253.63L160.63,252.38L161.38,251.13L162.75,251.5L163.75,250.25L164.38,253.0L165.63,253.88L166.88,252.63L166.63,251.75L167.63,250.88L171.75,251.63L170.13,255.75L173.5,259.63L175.38,259.63L176.63,261.5L180.0,263.13L182.13,263.0L183.5,264.63L183.75,266.0L185.0,268.0L187.88,269.5L188.38,272.25L187.0,274.75L183.88,278.5L182.25,279.5L180.13,282.5L178.0,286.0L178.13,289.38L176.38,291.0L178.0,292.0L179.63,295.5L181.88,297.5L184.13,297.88L186.5,297.5L187.63,299.13L186.88,300.75L185.25,302.13L185.88,304.88L184.13,306.25L183.88,311.63L184.75,313.13L185.25,314.13L183.5,314.5L179.5,317.0L179.83,321.5L181.75,321.88L183.25,326.63L185.38,327.88L185.88,329.75L187.38,330.25L190.5,329.38L194.63,329.13L195.38,329.63L195.63,331.88L197.63,333.25L197.5,335.5L199.25,339.0L201.63,341.38L203.13,341.13L205.0,342.4L202.4,344.2L199.4,347.4L196.8,349.0L195.8,352.0L194.2,352.6L193.2,355.4L193.0,357.0L191.6,357.4L189.8,355.0L185.8,353.8L184.2,356.4L184.8,358.2L183.6,361.0L186.2,362.4L187.8,361.8L187.8,366.2L185.6,366.6L186.4,368.0L183.0,371.6L180.8,370.6L177.0,370.6L175.0,371.6L173.2,371.6L171.8,370.6L170.8,367.4L169.0,369.2L168.0,368.8L165.8,369.6L164.2,368.6L162.4,370.6L160.8,370.6L159.4,372.0L157.2,370.8L155.6,369.6L153.2,371.4L152.8,374.0L151.2,374.6L151.6,375.6L149.6,376.2L148.6,378.8L146.2,381.4L146.6,383.0L145.4,384.4L141.8,383.6L137.2,385.4L134.6,388.4L132.8,391.0L132.0,394.8L130.8,396.0L131.4,397.0L130.4,398.8L133.8,402.6L133.8,404.8L135.2,407.2L133.8,408.2L134.2,409.4L131.4,411.6L132.0,413.6L133.8,414.2L136.2,416.0L135.4,417.6L133.0,418.4L131.4,417.0L130.4,417.2L129.8,415.8L128.4,415.8L127.6,413.4L126.8,413.8L126.0,413.2L124.6,413.4L120.8,412.4L117.6,414.0L115.6,413.4L113.6,414.2L111.2,414.6L109.2,413.8L108.0,415.6L105.6,414.6L103.6,416.4L101.2,414.4L100.4,413.8L97.6,413.2L95.4,413.0L95.4,411.6L93.25,410.0L90.2,411.8L89.0,411.8L88.0,414.4L84.8,418.4L83.0,418.6L82.6,421.4L80.4,423.4L79.6,421.6L76.4,421.6L74.8,423.4L74.0,423.6L73.4,424.8L69.8,427.2L69.6,428.4L66.8,429.2L65.0,429.4L63.4,430.2L61.2,429.0L58.4,429.8L56.8,431.6L55.4,431.0L53.8,432.6L50.6,432.4L48.2,433.2L46.25,430.63L48.63,427.5L49.25,424.63L51.13,424.5L52.5,425.63L54.5,425.0L55.63,423.38L54.5,422.5L59.5,420.38L61.25,420.38L65.0,417.75L63.25,416.5L64.25,415.0L63.38,414.13L63.0,413.25L60.75,413.25L60.25,412.0L54.13,414.13L52.75,416.13L51.63,416.0L50.5,416.38L50.25,415.38L46.38,414.88L42.63,417.88L41.25,416.75L41.63,415.88L41.38,414.5L43.25,412.75L43.88,410.13L47.88,407.5L47.38,405.25L49.0,403.38L48.5,401.5L49.63,400.38L48.25,397.5L49.13,395.88L49.75,395.63L50.88,394.5L52.0,394.63L53.0,393.5L52.88,389.63L54.38,387.5L53.63,386.88L52.63,387.13L51.88,387.0L52.38,385.5L52.13,384.13L53.25,382.25L53.13,381.0L54.25,379.5L53.88,378.38L51.13,378.5L50.38,378.25L48.75,378.25L47.13,377.5L46.75,376.38L45.25,375.13L44.5,374.88L43.13,375.5L41.88,374.88L38.5,375.25L36.0,373.13L35.88,371.13L34.88,371.75L34.25,370.75L34.38,368.13L33.88,365.63L33.88,361.5L32.38,358.88L31.88,357.75L34.0,355.25L35.38,352.88L36.63,352.5L37.0,351.0L36.38,350.5L37.63,347.63L37.75,346.13L39.5,344.5Z" />
		<path id="L1611044128813" name="宜春市" class="qing-map-1616127870823" d="M58.2,174.2L59.6,172.2L61.4,171.0L63.2,169.0L65.0,171.6L66.2,170.6L67.4,172.6L67.6,174.8L69.6,175.6L71.4,177.4L71.8,178.8L75.0,181.0L76.6,179.4L78.2,180.8L80.8,179.6L84.6,180.8L83.2,178.2L86.4,175.6L88.6,175.6L90.2,175.0L92.6,174.2L93.4,175.2L93.0,176.4L94.0,178.4L95.6,179.4L96.4,179.6L96.8,181.0L97.6,181.0L99.2,182.2L101.6,181.6L103.6,182.6L105.0,182.2L106.4,182.4L107.8,179.6L110.0,179.8L112.0,177.8L111.2,175.8L112.8,174.6L114.8,177.0L116.6,175.8L118.2,175.6L119.8,173.2L121.0,170.6L120.2,167.6L120.2,165.8L121.8,165.2L124.0,163.8L124.6,162.8L123.8,161.6L124.0,159.2L125.2,157.4L124.8,155.2L126.4,153.2L128.2,152.0L130.4,151.8L132.2,150.0L133.6,148.8L137.0,147.6L139.2,146.4L141.2,144.8L143.8,144.4L146.6,143.6L149.0,143.8L151.8,143.6L154.6,143.2L157.0,144.6L158.4,145.0L161.0,146.0L162.4,146.6L163.8,147.0L163.8,148.0L164.4,149.2L165.4,150.2L166.4,150.6L167.2,151.8L166.8,153.0L166.0,154.6L169.2,159.4L169.6,161.4L170.8,162.6L171.0,164.2L171.0,165.8L169.8,168.6L168.2,167.6L167.6,169.6L167.6,171.6L166.2,172.0L165.4,173.6L164.0,175.2L166.4,178.8L168.2,177.6L173.4,178.2L172.4,180.4L173.4,182.2L172.4,183.4L172.0,186.8L172.4,189.2L170.8,190.6L171.0,191.4L172.2,192.4L175.4,191.4L175.8,193.0L174.2,194.2L175.0,197.8L173.2,198.8L175.0,199.6L173.6,200.8L173.2,203.6L172.4,204.8L173.2,206.2L173.2,207.8L171.6,209.0L174.0,210.6L174.4,209.4L176.0,209.4L177.6,207.8L179.4,209.4L180.6,209.6L181.4,210.8L179.2,214.4L181.88,215.38L183.2,214.8L185.2,213.8L184.4,212.0L186.6,212.0L188.4,213.0L190.2,211.8L191.8,212.4L193.6,211.4L193.6,209.2L194.8,208.8L197.0,210.2L199.0,215.4L198.6,217.2L200.8,219.0L202.2,217.6L203.0,218.2L204.0,217.0L206.4,219.0L206.0,220.4L207.8,221.0L209.2,219.6L210.8,220.8L213.8,219.2L216.2,219.4L217.8,221.6L218.6,223.0L219.8,224.4L216.5,231.38L217.5,232.63L219.5,233.0L220.63,234.13L223.38,234.13L223.25,235.13L221.63,237.25L222.13,239.88L221.25,240.38L221.75,241.88L220.25,242.88L220.0,245.88L219.25,246.88L218.88,248.25L217.88,248.25L217.0,251.13L213.5,252.83L211.88,255.88L209.75,256.0L206.88,256.75L205.88,256.25L204.88,257.25L202.67,257.33L201.63,260.13L199.25,260.5L198.88,262.5L199.5,264.13L198.63,267.25L197.88,268.38L198.25,270.25L197.13,272.13L194.5,272.25L192.75,271.5L190.88,271.25L188.38,272.25L187.88,269.5L185.0,268.0L183.75,266.0L183.5,264.63L182.13,263.0L180.0,263.13L176.63,261.5L175.38,259.63L173.5,259.63L170.13,255.75L171.75,251.63L167.63,250.88L166.63,251.75L166.88,252.63L165.63,253.88L164.38,253.0L163.75,250.25L162.75,251.5L161.38,251.13L160.63,252.38L161.88,253.63L160.88,255.38L159.38,256.5L160.2,258.0L158.4,258.0L157.2,258.2L156.0,258.8L155.0,257.8L153.6,258.6L151.4,257.4L149.8,258.4L148.2,258.2L146.8,257.0L145.6,258.2L144.4,257.4L143.4,258.0L140.6,256.6L139.8,256.4L137.8,251.2L137.8,249.4L138.4,247.8L139.0,246.2L140.2,245.2L140.2,243.6L140.2,242.4L141.6,242.0L140.0,239.6L135.8,239.0L133.0,240.6L132.0,239.4L130.8,240.2L129.6,239.0L127.4,239.4L126.2,237.4L125.0,237.8L123.4,240.0L121.2,241.0L121.0,242.8L117.8,243.8L117.6,242.2L113.2,242.4L111.0,243.0L109.8,242.6L109.2,240.8L110.4,240.2L109.8,238.0L109.6,236.8L105.8,236.8L103.0,237.4L100.8,236.4L99.6,237.2L98.6,237.0L96.4,239.2L94.0,239.2L92.6,241.0L94.2,243.0L94.4,245.4L95.6,247.6L92.8,250.6L91.2,249.8L88.2,250.8L88.8,253.0L85.4,254.2L86.0,258.8L87.4,261.6L89.0,263.2L90.8,263.2L91.8,261.0L93.2,262.2L93.6,264.0L92.2,266.4L92.0,268.0L92.6,269.0L93.2,272.6L91.8,274.8L90.2,277.2L90.0,278.8L89.0,281.0L89.8,283.0L89.0,284.2L87.38,283.75L87.0,285.5L85.38,286.13L83.75,287.88L81.25,287.25L79.5,289.0L75.38,288.63L73.88,287.5L72.5,287.75L70.13,286.13L68.0,286.0L61.8,279.8L62.8,278.0L61.6,275.6L61.0,274.2L60.2,271.4L58.4,271.6L57.6,270.6L55.6,267.8L54.6,267.6L53.6,269.6L49.4,270.2L48.0,269.4L46.4,269.0L45.0,269.4L42.2,266.6L42.4,264.4L40.8,264.6L40.0,262.4L37.2,261.6L38.6,260.2L37.8,257.0L40.4,254.2L42.0,254.6L42.6,253.8L43.8,253.2L45.0,252.4L45.4,250.8L44.4,249.0L43.0,249.4L42.0,249.4L40.6,247.6L39.2,248.4L38.2,247.0L39.38,246.0L42.38,245.0L42.25,243.5L43.88,242.88L46.0,243.0L47.5,243.88L48.38,242.25L49.25,241.0L48.5,238.75L47.13,237.0L46.75,235.0L46.13,234.38L46.0,233.13L45.13,231.75L46.88,230.38L51.13,230.75L52.5,230.13L53.75,229.75L54.5,229.38L54.38,227.38L56.75,224.38L56.75,223.5L60.38,223.13L60.63,221.88L62.0,221.38L61.63,220.13L62.88,219.63L64.38,218.38L64.75,217.63L65.75,217.38L66.63,216.25L66.25,214.63L67.0,213.63L66.13,212.25L66.63,211.38L66.75,210.0L66.25,209.5L63.5,209.13L62.63,207.38L60.75,205.75L63.5,202.38L62.88,200.75L61.88,199.88L60.0,199.75L58.63,198.75L57.13,197.5L57.0,196.88L54.25,196.13L53.0,194.88L53.5,192.75L55.38,191.5L56.5,189.5L55.75,188.13L56.25,186.88L56.0,185.75L56.75,184.13L55.63,182.25L55.63,181.63L57.0,180.63L57.75,179.13L58.0,177.13L58.5,175.75Z" />
		<path id="L1611046323681" name="抚州市" class="qing-map-1616127870823" d="M216.5,231.38L219.8,224.4L223.0,226.6L223.8,228.6L225.4,229.8L227.2,230.2L229.2,231.6L230.0,230.2L230.0,228.6L233.6,226.0L236.0,225.6L236.4,223.4L239.2,225.8L239.6,227.6L240.8,227.4L242.4,224.0L245.4,223.2L248.2,223.4L249.6,219.4L252.4,217.2L252.0,212.6L253.6,210.0L256.2,207.8L256.8,205.2L256.2,204.2L256.0,201.8L256.4,200.2L258.8,203.2L258.2,207.0L257.4,208.6L259.2,210.4L260.2,209.8L261.6,210.0L263.6,211.4L265.8,210.8L267.2,210.8L269.0,210.4L271.0,208.4L272.4,211.6L274.0,211.8L275.0,213.4L275.8,215.4L276.0,217.6L276.8,218.0L277.4,220.2L276.8,221.2L275.6,222.6L274.4,222.0L273.2,222.4L271.2,221.6L267.4,224.2L267.4,226.6L268.8,227.6L270.4,227.4L269.8,228.8L271.0,230.0L272.2,229.8L272.4,231.0L275.2,230.0L276.8,231.0L277.2,232.0L275.8,233.8L276.8,238.0L278.2,236.8L279.8,237.6L280.4,238.4L281.8,239.0L282.6,239.0L283.6,239.6L284.4,240.2L285.2,239.6L285.4,238.2L286.6,237.2L287.2,238.2L287.0,239.4L287.0,241.2L288.0,242.6L289.4,242.4L290.6,244.8L292.8,246.6L293.0,247.4L296.6,249.6L296.0,250.6L296.4,253.2L294.8,253.6L293.2,257.0L294.6,258.8L294.6,260.6L297.0,260.4L299.6,256.6L301.2,257.8L301.8,255.6L303.0,255.0L305.0,257.2L306.0,256.0L306.8,256.6L307.8,256.8L309.0,257.4L310.6,256.6L313.2,257.8L315.8,260.0L317.33,262.33L317.17,264.5L317.83,266.83L316.67,268.5L315.5,268.17L315.67,269.83L312.83,272.67L311.0,272.83L309.83,273.0L309.5,275.67L306.5,276.5L302.5,275.17L300.83,276.5L301.67,279.33L301.5,280.83L300.5,281.33L299.17,280.0L299.17,279.0L297.5,277.5L295.83,277.5L294.17,278.67L294.5,280.0L292.83,281.17L294.0,283.0L294.0,286.67L296.83,288.83L298.83,287.0L300.0,288.5L301.0,289.5L301.0,292.0L301.83,293.33L301.0,294.5L301.83,295.17L301.67,296.67L303.0,298.83L303.17,300.5L301.17,303.5L301.0,308.67L304.0,309.5L304.0,311.17L305.67,311.5L306.67,312.67L305.83,314.67L305.0,315.67L304.67,317.17L301.67,320.5L300.5,320.67L299.33,322.83L298.5,322.83L296.17,325.83L296.33,327.5L296.67,329.5L296.17,330.83L293.33,331.5L290.17,334.33L289.33,334.83L287.83,337.67L285.83,336.5L284.17,336.0L281.83,337.33L281.33,338.67L279.67,338.83L278.67,338.0L277.17,338.83L276.17,338.5L273.5,339.67L272.83,341.33L271.83,341.17L270.83,340.17L267.67,340.83L265.67,342.67L264.5,343.0L264.17,344.0L261.5,346.17L261.5,347.83L260.5,349.5L259.67,349.5L258.67,351.67L257.17,351.83L255.5,356.17L255.33,358.67L256.83,361.17L254.33,363.67L252.67,365.67L253.33,366.33L252.67,367.67L254.33,370.5L256.83,371.5L256.67,375.17L256.17,377.67L254.4,380.4L251.4,380.6L250.4,378.6L248.0,376.6L247.0,379.8L243.0,381.4L241.8,382.0L241.8,383.4L240.8,384.8L238.4,384.8L235.4,385.0L230.0,380.6L232.2,378.4L231.8,377.0L230.0,374.8L232.8,372.2L232.6,370.8L228.8,371.4L228.2,370.0L226.6,369.6L225.2,367.2L223.2,367.2L222.0,365.6L220.2,365.0L221.2,362.4L222.2,359.2L222.8,357.2L221.6,356.0L224.4,349.2L222.8,347.4L223.4,342.4L225.6,338.4L225.4,334.8L222.8,334.6L222.2,331.8L220.4,329.4L220.4,327.8L215.8,326.4L211.8,327.8L210.4,331.4L211.2,333.2L209.0,336.8L208.2,338.8L206.0,341.0L205.0,342.4L203.13,341.13L201.63,341.38L199.25,339.0L197.5,335.5L197.63,333.25L195.63,331.88L195.38,329.63L194.63,329.13L190.5,329.38L187.38,330.25L185.88,329.75L185.38,327.88L183.25,326.63L181.75,321.88L179.83,321.5L179.5,317.0L183.5,314.5L185.25,314.13L184.75,313.13L183.88,311.63L184.13,306.25L185.88,304.88L185.25,302.13L186.88,300.75L187.63,299.13L186.5,297.5L184.13,297.88L181.88,297.5L179.63,295.5L178.0,292.0L176.38,291.0L178.13,289.38L178.0,286.0L180.13,282.5L182.25,279.5L183.88,278.5L187.0,274.75L188.38,272.25L190.88,271.25L192.75,271.5L194.5,272.25L197.13,272.13L198.25,270.25L197.88,268.38L198.63,267.25L199.5,264.13L198.88,262.5L199.25,260.5L201.63,260.13L202.67,257.33L204.88,257.25L205.88,256.25L206.88,256.75L209.75,256.0L211.88,255.88L213.5,252.83L217.0,251.13L217.88,248.25L218.88,248.25L219.25,246.88L220.0,245.88L220.25,242.88L221.75,241.88L221.25,240.38L222.13,239.88L221.63,237.25L223.25,235.13L223.38,234.13L220.63,234.13L219.5,233.0L217.5,232.63Z" />
		<path id="L1611037261065" name="上饶市" class="qing-map-1616127870823" d="M351.4,99.4L352.4,100.8L354.2,99.4L355.6,100.2L356.2,98.6L357.4,99.6L359.2,98.4L361.4,99.6L363.2,99.2L364.8,101.2L366.2,101.6L367.2,100.6L368.8,100.0L370.0,101.0L371.4,99.0L372.8,99.0L373.8,99.6L375.2,98.2L377.4,98.6L379.6,101.8L383.2,101.8L383.4,103.2L386.8,106.2L385.4,108.2L386.2,110.8L385.8,112.2L387.8,114.0L390.2,115.0L392.0,117.2L392.0,120.0L390.6,121.0L388.8,123.0L389.8,124.8L388.0,125.6L386.0,126.2L384.4,125.2L383.8,126.2L381.8,125.4L381.6,128.2L382.2,130.0L381.4,132.0L378.6,132.6L377.4,137.0L378.6,138.4L378.0,140.4L379.0,141.6L377.8,142.4L378.0,143.8L380.6,145.8L381.2,146.8L380.6,147.8L381.0,149.4L382.0,149.6L382.4,152.0L383.8,153.0L384.0,151.4L385.2,151.0L385.8,151.8L385.2,153.0L386.4,154.2L387.8,153.8L389.8,154.4L391.2,156.6L393.2,157.4L391.0,160.8L391.4,161.8L395.4,159.8L396.4,160.2L398.8,166.6L399.4,168.2L402.2,170.2L405.2,170.8L406.4,174.8L407.2,175.4L407.2,178.2L407.8,179.4L407.4,180.2L408.6,181.2L409.6,183.0L410.6,184.6L409.8,186.2L410.8,188.0L409.0,189.8L410.2,191.2L408.8,193.6L409.6,195.0L409.8,197.6L411.4,198.4L409.2,199.4L409.0,200.2L410.8,200.4L412.0,201.2L414.0,201.0L413.6,204.2L411.4,207.6L411.6,209.6L412.4,211.2L413.2,212.6L414.0,216.2L412.8,218.4L410.8,219.4L409.4,219.6L407.0,221.6L405.2,221.8L405.0,223.2L404.0,223.0L403.6,223.8L401.2,225.4L402.0,227.2L403.0,228.4L405.8,229.0L406.0,231.4L405.0,231.8L404.8,233.4L404.6,234.4L404.2,238.0L402.4,238.6L400.8,238.2L400.0,238.6L399.0,238.8L397.6,238.8L396.2,240.2L394.8,239.4L394.2,240.6L392.8,240.8L391.6,241.6L390.0,241.4L387.6,240.6L384.8,242.4L385.8,244.6L384.8,245.4L383.6,245.2L383.0,246.2L382.4,249.8L381.0,250.0L380.2,248.6L378.6,248.8L377.0,248.2L375.8,248.2L375.0,247.6L373.4,250.2L372.2,250.2L370.0,249.0L368.0,250.8L365.6,251.6L363.4,252.8L363.0,252.0L360.2,254.4L358.0,255.8L357.4,257.8L357.6,259.8L356.6,262.4L355.8,262.6L354.6,264.8L353.0,265.0L350.6,262.4L349.0,263.2L346.8,260.2L342.6,258.8L342.4,257.6L341.0,255.4L341.2,251.6L338.2,251.4L339.0,250.6L338.0,249.8L336.6,249.4L336.0,247.6L334.8,249.0L334.4,250.8L332.4,253.0L331.0,252.4L330.0,252.8L328.6,251.2L329.4,250.0L329.6,246.8L331.0,244.8L330.8,242.6L330.2,240.4L328.6,237.0L327.8,236.2L323.6,234.8L321.8,233.8L319.4,234.4L315.6,232.4L315.4,226.8L316.6,225.0L317.6,223.4L316.2,221.2L314.4,220.6L314.2,217.8L315.8,217.4L316.2,215.8L319.2,214.4L319.6,210.2L318.2,209.2L319.4,206.6L319.8,204.8L318.8,203.4L319.0,200.2L318.4,198.6L318.6,196.8L317.4,195.0L316.4,193.0L315.0,191.4L314.6,189.8L312.2,187.8L310.6,190.6L305.2,194.0L303.4,193.4L301.4,191.0L299.6,190.8L298.4,189.4L296.6,189.8L296.2,191.2L297.4,194.0L293.6,199.2L292.2,197.0L291.0,198.2L289.2,197.2L285.2,197.6L284.4,199.0L282.6,199.0L284.2,203.2L281.4,206.6L282.4,209.4L281.8,211.2L279.0,211.2L275.0,213.4L274.0,211.8L272.4,211.6L271.0,208.4L269.0,210.4L267.2,210.8L265.8,210.8L263.6,211.4L261.6,210.0L260.2,209.8L259.2,210.4L257.4,208.6L258.2,207.0L258.8,203.2L256.4,200.2L255.0,197.8L251.8,195.0L249.2,191.6L247.8,188.8L246.2,186.8L247.0,184.6L246.0,183.6L246.6,180.8L244.8,179.4L242.0,178.0L241.2,176.0L239.0,175.8L236.4,176.8L236.6,175.8L236.2,174.2L234.2,172.4L233.0,171.4L230.0,170.4L230.8,168.6L229.6,166.0L230.8,164.4L236.2,165.0L238.6,163.4L240.6,159.6L243.2,156.8L242.8,147.6L247.2,142.2L247.4,139.2L249.4,138.0L253.2,138.2L256.4,137.4L262.8,131.2L259.2,129.0L258.2,126.4L256.8,124.8L256.2,122.6L253.8,119.4L255.6,118.4L255.6,116.4L254.4,114.4L254.4,112.8L252.6,111.8L252.8,109.8L254.0,108.8L254.4,107.2L252.6,106.0L253.8,103.8L253.8,100.6L252.0,99.8L250.8,98.2L252.4,95.4L255.6,96.2L257.2,96.4L258.4,97.8L260.6,98.2L262.8,97.2L263.6,95.0L265.8,96.0L267.0,95.8L269.2,97.2L270.0,99.2L271.0,97.2L272.6,95.8L274.4,96.6L274.6,99.2L276.0,99.4L279.4,98.6L280.6,96.4L282.2,95.8L282.2,94.6L287.0,91.4L288.6,91.4L290.2,90.6L292.4,88.0L295.4,88.2L296.6,87.6L297.8,87.2L299.0,86.6L300.0,86.4L298.6,88.8L299.4,89.6L298.6,91.6L297.6,91.6L294.8,96.6L296.0,98.8L296.8,102.2L296.0,103.8L297.0,106.4L296.0,108.2L296.0,110.8L298.0,111.6L298.4,113.2L297.4,114.0L298.2,115.6L296.8,116.4L296.6,117.6L295.2,118.4L298.2,121.0L298.8,123.6L296.4,124.0L294.8,125.6L293.2,126.4L294.0,129.6L293.2,132.0L293.8,134.0L294.8,135.4L294.8,136.6L295.6,137.8L297.6,138.6L299.0,141.0L299.2,142.8L297.0,144.0L296.4,146.4L296.6,148.6L294.8,150.8L295.4,152.2L293.6,152.6L293.2,155.0L293.6,157.4L292.2,158.0L291.0,157.8L289.6,161.8L289.6,164.0L291.0,164.4L291.0,166.0L292.4,165.4L295.8,169.6L296.4,172.0L298.2,170.4L299.2,170.8L300.6,171.6L302.4,171.8L302.6,174.0L304.4,172.4L304.8,173.4L306.0,173.6L307.4,174.6L307.2,176.2L308.6,177.2L310.17,177.0L311.0,176.2L312.4,177.2L312.8,178.6L313.8,179.0L316.83,176.17L318.0,174.4L320.4,173.8L322.8,174.4L325.6,172.4L326.0,171.0L325.4,169.6L327.4,169.6L330.8,167.4L331.6,168.0L332.8,169.0L334.4,169.2L335.4,170.4L338.0,169.6L337.0,167.0L337.8,164.8L338.0,163.2L336.0,161.6L335.2,160.0L333.4,158.8L333.0,156.6L330.8,156.6L330.4,155.6L333.4,154.2L333.0,150.8L333.8,150.0L334.2,148.8L335.4,147.4L334.2,145.2L334.0,143.2L332.8,141.8L332.8,140.0L333.4,138.8L333.0,137.6L331.8,137.0L330.4,138.4L329.0,138.2L327.6,139.6L324.8,138.2L324.4,136.4L323.6,134.4L324.2,133.0L325.0,129.8L327.4,128.8L330.2,126.2L328.0,123.0L329.8,121.4L333.0,120.2L332.4,118.6L333.4,117.6L332.8,115.0L335.0,114.0L334.2,112.2L335.4,111.2L336.8,111.8L338.0,110.0L339.6,109.4L339.6,108.0L342.0,107.4L343.2,104.6L344.8,104.4L346.0,102.2L347.8,102.8L349.8,100.4Z" />
	</g>
</svg>
