<svg xmlns="http://www.w3.org/2000/svg" viewBox="0,0,800,510" width="100%" height="100%">
	<defs>
		<style type="text/css">
.qing-map-1616125066505
{
	fill: #DDDDDD;
	fill-opacity: 1.0;
	stroke: #FFFFFF;
	stroke-opacity: 1.0;
	stroke-width: 1;
}

.qing-map-1616125066505:hover
{
	fill: #56A4FF;
	fill-opacity: 1.0;
}
</style>
	</defs>
	<g>
		<path id="L1611107711814" name="济南市" class="qing-map-1616125066505" d="M157.4,279.2L162.6,273.8L162.0,272.4L164.6,270.0L167.0,265.8L169.6,265.6L174.4,262.6L176.4,263.4L177.8,261.0L181.4,260.6L183.2,256.2L187.2,252.4L192.4,251.2L194.4,249.4L193.6,247.0L193.2,245.0L191.6,243.0L195.0,241.8L193.6,239.4L195.0,236.6L197.8,235.2L198.0,232.4L200.6,231.2L201.0,228.8L207.0,226.8L207.4,224.0L208.8,222.2L209.2,219.2L210.6,218.6L213.8,215.4L216.2,214.8L219.4,213.2L219.6,211.6L218.2,211.2L217.8,205.8L219.8,205.0L219.6,203.2L223.4,203.6L224.2,201.2L226.4,201.2L225.8,197.6L226.6,194.6L226.0,192.6L224.4,191.8L222.8,190.4L224.2,188.2L220.8,187.0L220.6,185.4L219.4,183.4L221.2,180.4L224.8,178.8L223.0,175.0L223.0,170.6L224.6,170.6L226.2,169.6L228.4,169.6L230.0,167.8L232.4,168.2L234.0,168.4L234.2,166.8L235.6,166.4L235.0,163.8L235.6,162.6L235.2,160.2L234.2,159.8L232.6,157.4L234.2,154.0L233.0,152.6L232.4,150.0L230.4,149.6L229.2,147.4L229.4,145.2L228.6,143.4L228.8,142.2L230.8,141.0L230.8,139.2L230.0,136.2L232.8,135.2L231.2,133.4L232.6,131.0L235.2,132.6L237.2,132.0L239.0,131.6L239.4,129.4L239.6,127.6L241.6,125.6L243.8,126.6L245.8,125.6L247.2,125.6L249.0,124.6L250.8,122.2L252.0,119.4L254.4,120.2L256.6,120.8L257.2,122.0L259.8,122.8L260.4,124.4L259.4,125.4L257.2,124.8L257.2,126.8L258.8,127.6L258.6,129.4L261.0,129.2L262.4,129.0L264.0,130.0L264.8,131.2L264.8,133.6L264.4,135.4L266.8,137.0L267.4,138.6L268.6,139.0L268.4,141.0L269.0,143.2L268.2,145.6L269.6,146.4L271.8,153.2L270.6,153.4L270.4,154.4L268.6,154.4L268.2,156.2L270.6,159.6L271.0,162.2L272.2,164.8L273.2,169.8L272.0,171.6L267.8,172.2L264.6,174.6L262.6,174.0L262.0,178.4L260.2,178.8L261.6,181.4L264.4,182.0L265.6,183.4L264.8,184.8L266.6,187.2L268.6,187.8L269.6,187.2L271.0,188.2L273.8,187.4L276.0,186.8L278.0,186.6L279.2,187.4L280.4,185.6L282.4,185.2L282.4,186.4L283.6,188.0L282.4,189.8L281.2,189.8L280.8,190.6L283.8,192.0L284.4,193.6L286.2,195.0L284.6,197.0L284.8,200.0L285.6,201.0L286.2,202.4L290.6,206.0L293.0,207.2L294.8,208.0L294.8,210.4L296.6,211.4L300.6,212.0L299.6,214.0L300.0,215.0L297.8,217.4L297.8,218.6L296.6,219.8L295.6,221.6L295.6,222.8L297.0,224.0L297.2,228.2L296.4,229.6L297.6,230.0L297.0,231.2L297.6,232.4L295.8,233.2L298.2,235.2L299.8,237.0L300.2,238.2L302.4,240.2L300.2,241.4L301.6,242.4L301.4,244.0L302.0,245.6L302.0,246.6L302.0,247.8L304.0,248.6L305.6,248.8L307.4,248.0L308.4,248.4L308.4,249.8L308.6,250.8L311.0,252.2L311.0,254.0L313.2,256.6L313.8,258.0L314.6,260.0L316.2,259.0L317.8,260.2L317.0,262.4L318.0,266.2L317.6,268.0L321.6,268.8L321.6,270.6L321.2,272.2L321.2,275.8L319.4,275.6L318.6,277.2L317.4,276.8L316.2,278.0L315.8,279.4L316.8,280.8L316.2,282.6L317.8,289.0L320.2,289.2L319.6,291.6L320.0,293.0L318.2,293.4L319.4,295.2L319.8,297.4L319.4,298.6L320.0,300.4L318.0,299.2L316.8,298.2L315.2,297.6L313.2,298.8L311.4,299.4L309.0,299.0L304.8,298.6L304.4,300.0L302.4,300.8L301.6,298.8L300.4,296.6L299.0,296.4L295.6,294.0L294.0,294.8L291.2,293.8L289.8,292.2L288.8,291.8L287.4,291.8L287.0,291.0L284.8,291.0L281.8,289.8L281.2,287.8L278.4,288.6L276.2,288.4L275.4,289.4L272.4,289.4L273.8,286.6L272.8,285.8L273.6,282.6L275.2,282.4L276.0,282.0L275.2,280.2L273.8,280.2L272.0,277.6L272.2,275.4L270.8,274.6L269.2,275.4L267.6,273.6L269.4,271.6L268.8,269.6L266.0,263.2L266.6,261.6L265.6,259.8L265.0,258.4L263.8,258.2L262.4,255.4L263.8,254.0L262.0,253.2L261.6,249.6L263.4,246.6L262.6,245.6L260.2,245.6L258.2,244.6L256.8,246.4L254.2,248.2L253.0,251.6L250.0,253.0L247.2,256.8L247.6,259.0L244.0,259.6L243.0,261.2L239.4,260.0L237.6,262.4L237.6,264.6L234.4,267.0L233.0,267.8L232.8,268.8L231.6,268.8L230.8,270.4L228.6,271.4L226.4,270.2L224.2,269.6L223.2,268.6L220.2,269.8L218.0,268.4L216.8,266.2L216.8,265.2L214.4,265.8L212.8,265.6L211.6,264.0L209.2,263.8L206.6,264.6L205.0,265.4L204.6,267.0L202.6,267.0L201.0,267.2L199.4,267.4L197.6,265.6L195.6,265.8L193.8,266.0L192.4,267.6L191.0,269.6L189.2,269.4L187.4,271.0L185.0,270.6L184.0,272.4L182.2,272.6L181.2,274.8L182.0,276.8L184.0,279.2L185.2,279.6L185.0,281.4L183.8,283.6L185.6,283.6L186.2,284.6L188.0,283.8L188.8,285.2L189.2,287.2L187.4,288.0L187.4,290.0L185.6,291.8L182.4,292.2L180.0,293.2L177.0,295.0L176.2,292.6L175.0,292.2L173.4,290.4L170.0,290.4L169.4,292.4L165.6,293.8L164.4,296.4L160.4,294.6L161.4,293.8L160.6,291.8L160.4,288.2L161.6,286.0L159.4,284.2L159.0,281.4Z" />
		<path id="L1611108866761" name="青岛市" class="qing-map-1616125066505" d="M476.4,180.8L478.2,181.0L479.2,181.6L481.6,182.0L483.6,182.6L485.8,181.8L487.0,183.4L491.2,183.4L492.0,181.6L494.6,181.2L495.8,182.4L502.6,182.4L505.0,183.0L507.0,182.8L509.8,181.0L510.8,181.2L512.0,180.6L516.4,182.4L518.2,180.2L521.6,180.6L522.8,180.6L526.0,180.0L527.4,180.8L529.0,179.2L531.8,178.2L533.2,177.4L533.6,175.4L533.6,174.0L533.8,172.4L535.0,171.4L535.6,168.4L538.4,168.6L540.4,167.4L541.4,167.2L542.0,169.2L543.4,169.4L544.8,169.2L545.4,171.4L546.2,173.4L547.4,171.0L549.0,170.2L551.8,171.2L552.4,169.2L553.8,169.4L555.2,167.8L556.6,168.6L559.4,167.8L561.8,165.0L563.6,166.8L565.0,169.4L564.0,172.8L564.2,176.0L564.6,177.2L568.0,176.6L570.8,177.2L571.2,179.6L570.4,181.0L570.2,183.2L568.4,182.8L566.4,186.6L567.2,189.0L567.8,191.6L569.0,192.6L571.6,193.0L571.8,195.2L568.0,196.6L568.4,198.8L569.2,199.8L568.8,201.2L570.8,202.6L570.4,206.0L568.8,206.4L567.2,206.2L566.2,208.6L564.6,210.2L565.0,212.8L566.8,214.0L568.2,213.8L569.6,216.8L569.0,218.4L571.2,219.4L572.2,220.8L572.2,222.2L574.4,222.0L575.0,223.6L575.6,226.2L574.2,227.0L573.1,231.0L573.8,232.8L576.9,231.2L577.9,231.2L579.5,230.2L581.0,227.5L582.9,228.3L583.9,228.0L584.8,229.2L586.4,229.9L586.9,231.1L588.2,232.0L590.5,231.1L590.7,230.4L593.4,228.9L594.6,229.2L596.5,229.9L596.8,231.1L596.9,232.1L598.2,233.5L598.4,234.8L600.1,233.6L601.2,234.1L604.9,235.2L605.6,237.0L603.6,239.8L603.5,240.5L603.3,241.0L603.5,241.6L602.8,242.5L604.2,244.3L603.4,245.8L602.7,246.0L602.7,247.1L602.0,247.4L601.3,246.8L599.9,246.9L598.6,248.1L599.3,249.7L599.9,251.4L598.2,252.5L597.1,254.4L597.5,255.4L597.3,256.0L596.3,256.2L595.6,255.7L595.0,255.8L594.3,254.0L594.0,253.1L595.1,251.1L592.9,249.2L593.1,248.0L593.2,247.3L592.8,246.0L591.1,245.2L590.3,245.5L584.3,246.0L584.2,247.2L583.2,248.5L580.8,251.2L580.1,252.6L579.1,254.0L578.9,256.8L580.2,257.9L581.5,258.2L581.7,259.3L582.9,260.2L582.9,260.9L582.3,261.7L580.7,261.0L579.7,261.7L579.2,261.4L578.6,261.4L576.9,260.7L575.9,261.2L575.6,261.6L575.6,262.4L575.6,263.1L576.1,263.7L576.2,264.7L575.3,265.1L574.8,266.0L575.0,267.4L575.4,268.0L577.1,267.5L578.0,267.9L577.8,270.6L576.8,272.3L577.8,273.3L578.5,275.5L578.6,276.6L578.0,277.7L578.5,278.9L578.4,279.9L579.4,280.7L578.9,281.5L578.8,282.3L579.6,282.5L579.6,283.8L580.5,284.0L580.8,284.7L579.3,285.0L577.8,285.0L576.7,284.2L574.0,286.3L572.0,285.6L570.7,286.3L570.6,287.6L570.0,288.3L569.1,288.3L568.5,286.8L567.6,286.5L567.3,287.5L565.6,286.7L564.5,287.5L565.3,288.8L564.3,288.9L563.4,289.3L562.9,288.7L562.3,289.4L561.0,289.4L560.1,290.0L558.9,289.2L555.1,292.6L554.5,292.5L553.9,293.4L552.6,293.4L551.8,294.0L550.6,294.0L550.1,293.2L546.5,294.4L545.5,293.4L544.6,294.0L544.0,292.9L543.1,292.9L542.5,294.1L541.2,293.7L541.0,293.1L542.4,291.8L542.8,291.5L543.8,289.9L544.2,289.0L543.7,288.5L543.6,287.7L544.4,287.3L546.4,282.0L547.5,282.3L547.6,281.4L547.2,280.4L548.3,279.9L547.8,276.5L546.5,276.1L545.5,274.9L545.3,274.1L544.7,273.8L544.3,272.4L543.5,272.1L543.5,271.5L542.8,271.4L542.0,270.4L541.6,270.8L541.9,272.2L541.7,273.2L540.4,274.4L541.3,276.2L542.3,276.8L542.7,277.9L540.8,278.4L540.3,278.7L539.6,278.2L538.7,278.9L538.0,278.2L538.6,277.6L538.3,277.0L537.2,276.8L536.2,276.6L535.9,277.2L535.1,277.8L534.7,277.1L534.5,275.2L533.2,274.9L529.3,277.3L528.6,278.0L527.3,279.0L526.3,278.8L525.8,279.1L526.1,280.0L525.3,280.7L525.5,281.3L524.3,282.6L522.9,284.9L521.8,285.1L522.1,285.6L523.4,285.8L524.1,287.4L524.2,288.6L527.6,289.7L529.9,292.5L533.1,293.1L535.5,293.0L535.7,294.4L534.9,294.8L534.7,295.9L535.3,296.0L535.3,296.5L533.8,297.7L534.0,298.3L532.6,299.9L531.9,300.0L532.2,300.7L532.9,300.8L535.5,299.0L535.9,299.4L536.8,299.0L537.4,299.7L536.2,303.0L537.1,303.2L538.2,300.6L538.8,301.1L539.6,301.7L540.3,301.2L539.7,299.5L540.7,298.6L542.3,298.7L542.7,299.7L542.1,300.9L541.8,302.6L540.9,303.6L537.8,303.7L536.5,305.2L536.7,306.2L535.6,306.3L533.7,308.9L532.4,310.0L532.2,311.8L531.5,312.1L530.2,312.9L529.8,311.4L530.8,310.1L530.9,309.1L531.4,309.0L531.8,308.1L532.7,308.0L533.4,307.6L533.6,306.7L533.0,306.2L532.0,306.6L530.3,307.5L529.9,307.6L529.4,308.2L529.6,309.0L528.0,310.6L526.9,310.5L526.8,309.4L526.2,309.6L526.1,310.4L524.8,310.3L522.0,313.0L520.7,313.4L519.5,315.1L518.4,314.6L518.3,316.8L516.2,321.1L516.4,322.9L517.1,324.0L517.4,325.6L516.9,326.4L517.0,327.2L515.5,329.3L514.5,332.7L512.3,331.7L511.6,330.6L510.7,330.6L510.6,329.5L509.7,328.1L507.3,327.2L505.3,329.2L505.5,330.9L506.8,332.0L508.6,332.3L508.4,333.4L505.5,335.8L504.6,338.9L504.6,339.8L506.1,341.2L505.6,342.4L504.2,342.5L501.1,345.7L500.5,344.6L499.7,344.4L500.2,343.7L499.8,343.3L498.6,343.5L497.5,344.3L497.5,341.9L496.1,341.3L496.0,342.0L495.2,342.7L494.6,343.5L494.1,343.5L494.0,344.3L493.3,345.0L493.3,346.2L492.1,347.5L491.1,348.8L490.1,348.0L491.0,346.8L491.3,345.9L489.7,343.5L489.6,342.5L488.6,341.4L488.5,344.1L487.6,344.2L486.8,344.8L486.3,344.8L483.3,347.6L480.5,346.2L481.1,347.6L480.7,347.8L478.7,346.9L477.3,346.5L476.5,348.0L475.0,346.6L472.8,348.7L471.9,347.6L470.2,347.9L469.6,346.6L467.9,344.7L468.6,343.1L468.6,341.7L468.9,338.3L467.9,336.1L468.1,332.2L469.6,332.7L471.0,332.5L472.1,333.8L473.9,333.9L476.1,334.2L476.8,333.2L477.9,333.3L478.1,332.3L476.5,329.7L474.8,329.4L475.3,326.7L476.8,326.5L477.4,325.2L476.5,323.8L476.7,322.8L478.1,321.8L478.6,319.9L480.4,318.7L482.1,318.8L484.6,316.3L486.4,317.2L488.1,315.8L488.2,313.5L486.9,310.9L486.6,308.9L485.2,308.9L485.2,306.1L484.1,304.6L483.6,303.2L484.0,300.4L483.3,298.7L485.1,297.9L485.9,297.1L486.5,295.5L486.0,294.3L484.1,293.8L482.9,292.7L482.1,293.4L478.9,292.4L478.5,289.8L481.0,288.5L479.8,285.5L482.6,279.6L487.1,279.8L487.9,280.5L488.3,281.6L490.2,281.6L492.1,280.8L493.2,281.0L494.5,280.3L495.7,280.5L497.4,278.8L496.9,277.3L496.9,276.1L495.2,273.0L496.3,271.5L496.6,270.3L497.5,269.7L498.1,269.1L498.2,267.7L499.3,265.7L500.7,265.4L501.2,263.7L502.7,263.3L503.9,262.8L504.0,260.2L503.5,258.9L504.7,255.6L507.8,255.1L506.2,252.6L507.8,249.7L509.3,248.1L512.6,247.7L513.8,247.6L514.6,245.6L513.7,244.4L514.3,243.5L513.8,242.2L514.2,241.0L513.0,240.9L510.8,239.3L509.2,239.1L506.7,241.9L506.1,239.1L499.2,237.4L494.5,235.6L493.2,236.3L492.8,235.1L489.9,233.4L487.6,234.0L487.8,231.5L485.6,230.4L484.5,229.3L483.4,229.3L478.1,225.7L474.1,217.9L473.7,217.0L471.5,215.5L470.7,215.0L469.6,212.8L469.3,210.0L470.0,207.4L470.1,205.7L472.3,206.1L475.2,200.0L475.4,191.6L474.2,188.3L475.3,185.8L475.5,184.3L476.5,183.1ZM529.6,326.5L530.0,325.4L530.3,326.4L530.5,327.3L530.3,327.9L531.3,328.5L530.8,329.5L529.4,330.2L528.5,329.4L528.2,328.2L528.5,327.4ZM603.7,250.1L602.8,251.7L606.5,251.5L605.6,250.0L604.7,250.7Z" />
		<path id="L1611110152654" name="淄博市" class="qing-map-1616125066505" d="M320.0,300.4L319.4,298.6L319.8,297.4L319.4,295.2L318.2,293.4L320.0,293.0L319.6,291.6L320.2,289.2L317.8,289.0L316.2,282.6L316.8,280.8L315.8,279.4L316.2,278.0L317.4,276.8L318.6,277.2L319.4,275.6L321.2,275.8L321.2,272.2L321.6,270.6L321.6,268.8L317.6,268.0L318.0,266.2L317.0,262.4L317.8,260.2L316.2,259.0L314.6,260.0L313.8,258.0L313.2,256.6L311.0,254.0L311.0,252.2L308.6,250.8L308.4,249.8L308.4,248.4L307.4,248.0L305.6,248.8L304.0,248.6L302.0,247.8L302.0,246.6L302.0,245.6L301.4,244.0L301.6,242.4L300.2,241.4L302.4,240.2L300.2,238.2L299.8,237.0L298.2,235.2L295.8,233.2L297.6,232.4L297.0,231.2L297.6,230.0L296.4,229.6L297.2,228.2L297.0,224.0L295.6,222.8L295.6,221.6L296.6,219.8L297.8,218.6L299.0,219.4L300.4,219.0L301.4,218.8L303.0,218.6L303.8,217.6L304.8,217.4L305.0,215.4L306.2,214.2L306.8,213.0L307.4,211.0L309.4,213.0L310.8,211.2L309.4,209.2L308.2,209.0L306.8,207.4L307.2,204.2L308.4,202.4L308.0,200.0L311.8,198.4L313.0,198.8L314.8,197.8L316.4,197.8L317.0,196.2L320.6,192.4L319.0,191.8L318.2,190.4L316.4,187.6L315.8,185.2L312.4,184.4L311.6,182.2L311.6,180.2L309.2,179.6L309.6,175.2L303.8,174.2L302.0,175.0L295.2,174.4L288.2,172.0L285.8,172.4L284.6,171.6L283.8,170.4L284.2,168.8L282.4,167.4L282.4,165.0L283.8,164.4L285.6,163.4L286.4,160.2L286.2,159.2L288.8,156.8L289.4,154.8L290.2,152.0L292.6,150.2L294.8,151.6L302.8,153.8L308.2,149.6L310.6,149.4L312.6,150.0L314.0,151.2L318.6,149.6L319.8,151.0L322.6,151.2L324.0,153.4L323.0,154.8L322.0,156.6L325.4,158.0L326.6,156.6L328.0,156.6L328.6,157.8L330.4,158.6L332.0,160.6L331.2,162.0L330.0,164.0L331.6,168.0L330.0,169.4L329.0,170.0L330.6,172.8L335.0,171.4L336.4,172.2L337.2,174.6L338.6,175.0L339.0,176.8L337.2,177.8L338.0,182.4L339.0,183.6L340.8,185.0L342.4,186.0L343.6,186.6L346.6,185.4L347.0,184.4L348.2,184.4L348.4,183.0L350.4,182.6L351.6,182.2L352.2,183.8L352.2,185.8L354.6,185.8L356.4,187.0L357.8,186.0L360.4,186.0L361.4,188.4L363.0,189.4L365.2,189.4L370.8,189.8L371.0,191.8L369.2,193.6L370.2,196.8L368.6,198.2L369.6,198.8L370.0,200.0L368.6,201.0L367.8,200.2L367.2,201.8L366.2,202.2L366.2,204.8L364.2,206.6L361.0,207.2L358.6,209.6L355.8,209.8L354.8,209.0L352.6,209.0L352.8,211.6L351.0,212.0L350.4,213.0L351.4,214.6L350.6,216.0L348.2,214.4L346.4,215.6L346.4,216.6L346.4,217.8L347.4,219.0L346.2,219.4L345.0,221.0L346.0,222.8L343.8,224.4L344.6,227.6L341.2,231.0L341.8,232.0L341.4,233.8L342.4,236.2L345.6,237.0L344.6,239.0L344.6,241.2L344.6,242.8L345.2,244.4L346.8,246.2L346.4,247.4L346.6,249.8L345.8,252.2L348.0,252.4L347.0,254.6L349.4,259.8L352.8,260.8L352.0,262.2L354.2,264.6L354.6,266.6L354.2,270.6L357.8,269.4L359.0,270.8L360.4,271.8L360.0,276.6L362.2,281.6L362.4,283.8L363.8,285.0L366.2,283.8L368.0,284.2L370.6,285.0L369.8,286.6L370.2,288.4L370.2,292.0L372.2,291.4L373.0,293.4L373.4,296.4L371.4,297.0L369.0,297.0L370.8,300.6L370.8,302.2L372.4,304.0L369.8,304.2L368.2,305.2L365.4,303.4L364.0,301.4L361.4,301.4L360.8,302.6L358.4,303.6L358.4,304.8L356.2,305.0L355.8,306.0L353.6,306.0L349.6,308.8L347.2,308.0L347.2,306.2L345.0,306.0L343.6,303.4L343.6,302.4L341.4,298.6L337.6,297.4L336.8,296.6L334.0,297.4L333.0,298.8L332.0,298.8L330.8,299.8L330.6,300.6L328.6,302.0L327.8,304.2L326.4,304.8L326.6,306.0L323.6,306.0L323.2,303.8L322.0,303.6L320.4,305.0L319.2,303.2Z" />
		<path id="L1611110744339" name="德州市" class="qing-map-1616125066505" d="M187.2,252.4L192.4,251.2L194.4,249.4L193.6,247.0L193.2,245.0L191.6,243.0L195.0,241.8L193.6,239.4L195.0,236.6L197.8,235.2L198.0,232.4L200.6,231.2L201.0,228.8L207.0,226.8L207.4,224.0L208.8,222.2L209.2,219.2L210.6,218.6L213.8,215.4L216.2,214.8L219.4,213.2L219.6,211.6L218.2,211.2L217.8,205.8L219.8,205.0L219.6,203.2L223.4,203.6L224.2,201.2L226.4,201.2L225.8,197.6L226.6,194.6L226.0,192.6L224.4,191.8L222.8,190.4L224.2,188.2L220.8,187.0L220.6,185.4L219.4,183.4L221.2,180.4L224.8,178.8L223.0,175.0L223.0,170.6L224.6,170.6L226.2,169.6L228.4,169.6L230.0,167.8L232.4,168.2L234.0,168.4L234.2,166.8L235.6,166.4L235.0,163.8L235.6,162.6L235.2,160.2L234.2,159.8L232.6,157.4L234.2,154.0L233.0,152.6L232.4,150.0L230.4,149.6L229.2,147.4L229.4,145.2L228.6,143.4L228.8,142.2L230.8,141.0L230.8,139.2L230.0,136.2L232.8,135.2L231.2,133.4L232.6,131.0L235.2,132.6L237.2,132.0L239.0,131.6L239.4,129.4L239.6,127.6L241.6,125.6L243.8,126.6L245.8,125.6L247.2,125.6L249.0,124.6L250.8,122.2L252.0,119.4L254.4,120.2L255.0,118.6L256.2,118.6L257.0,116.0L256.4,114.4L259.0,113.2L259.2,111.0L260.0,108.2L259.0,107.2L259.6,105.6L259.6,104.2L261.4,102.8L262.8,101.8L262.8,99.2L264.4,100.0L264.4,102.0L263.8,103.0L264.2,105.0L266.4,104.6L267.8,103.0L268.2,102.2L271.4,103.4L272.2,102.8L274.6,105.0L275.6,102.8L277.2,102.0L278.6,101.2L280.8,100.2L281.2,98.6L282.0,98.0L281.2,96.2L281.4,94.6L278.8,92.4L281.4,91.2L283.4,86.8L283.8,85.8L285.2,85.2L287.0,82.2L285.0,81.2L284.4,78.6L281.2,77.2L281.6,75.6L280.4,72.8L281.2,71.2L283.8,69.4L283.2,64.0L281.4,62.6L279.6,65.6L279.0,70.4L276.6,72.8L272.2,81.2L268.2,82.4L266.2,81.4L264.6,81.2L262.6,80.0L259.4,80.8L256.4,82.4L255.4,82.8L254.4,82.2L253.8,83.2L247.6,82.0L245.2,83.2L239.8,82.0L236.8,81.8L232.6,84.2L228.8,83.0L225.4,83.0L220.6,82.2L215.8,83.6L213.6,82.8L211.8,81.6L210.2,82.6L210.0,85.0L207.6,87.4L206.0,87.7L207.2,88.8L207.1,91.7L206.1,92.7L203.8,92.0L204.3,94.4L202.7,95.6L202.1,94.4L201.4,96.1L199.8,96.2L198.9,101.3L197.9,102.2L195.9,102.0L196.3,103.7L192.7,109.3L188.6,111.4L188.9,112.5L187.3,114.1L187.0,115.1L185.5,116.2L184.4,117.4L181.7,120.6L179.0,121.6L177.8,123.8L177.1,125.9L175.6,126.0L175.1,124.7L174.6,124.2L174.3,123.1L173.8,122.7L173.7,122.0L173.3,121.6L172.6,122.2L172.0,121.9L172.4,121.3L171.8,120.4L171.0,120.7L170.5,120.2L170.5,119.4L171.2,118.4L171.0,116.5L170.3,115.7L169.1,116.2L167.9,115.5L168.0,114.7L167.5,113.9L167.1,114.1L167.2,114.9L165.0,115.8L163.7,116.9L163.4,117.6L163.3,118.9L163.1,120.3L162.4,120.9L162.5,121.8L163.4,122.0L163.7,122.4L163.0,122.8L163.5,123.8L163.0,124.3L163.0,125.0L162.0,125.8L162.4,127.0L161.5,127.7L160.6,126.8L160.2,126.7L160.3,126.0L158.5,124.3L157.7,125.9L156.7,125.8L157.5,126.7L157.3,128.3L158.4,128.5L158.7,129.7L157.3,131.1L157.7,132.3L158.7,132.6L160.2,132.2L160.6,132.1L161.2,132.5L161.2,133.0L161.8,133.7L162.5,135.0L161.8,135.7L161.5,136.6L160.7,136.7L160.6,137.7L160.1,137.7L158.5,139.3L157.5,139.6L155.1,139.3L154.2,139.2L151.7,137.3L149.1,138.4L147.0,138.5L146.3,139.1L145.1,139.1L144.0,138.4L142.2,139.2L141.2,139.0L140.8,139.0L141.1,139.7L140.4,140.2L139.8,140.4L138.8,140.5L137.9,139.9L137.6,141.0L137.2,141.5L135.8,141.0L136.6,142.1L133.5,143.0L134.3,143.9L133.1,144.8L133.9,145.1L134.2,145.8L133.2,148.6L133.8,149.7L133.4,150.9L132.6,150.9L132.6,152.0L132.3,152.9L132.8,152.9L133.2,154.0L131.3,156.4L130.1,156.0L129.0,156.8L127.9,156.3L128.1,157.7L127.5,158.4L126.7,157.8L126.5,158.5L127.0,159.2L126.9,160.3L127.5,161.9L126.4,162.9L126.6,163.6L125.1,164.2L124.6,165.3L124.8,169.0L125.4,169.4L125.1,169.9L125.0,171.1L124.2,171.0L123.8,171.9L122.9,172.1L123.0,172.8L123.0,174.0L122.2,174.3L122.2,175.6L119.5,178.8L118.5,179.1L118.3,180.3L116.9,180.5L117.6,181.5L115.8,182.1L115.0,184.1L115.8,185.0L114.9,185.8L116.4,186.1L116.6,187.6L114.8,189.7L114.1,190.1L113.1,190.0L113.4,191.6L114.2,192.0L114.4,192.8L114.9,193.4L115.9,192.8L118.8,193.4L120.0,192.4L121.6,193.0L121.9,194.2L123.5,194.4L124.5,193.1L125.3,194.7L129.5,196.1L130.2,195.3L131.6,196.6L133.6,195.4L134.7,196.6L136.9,197.0L138.1,196.0L139.9,195.5L142.8,195.7L143.9,196.4L145.2,196.3L145.4,195.3L146.9,195.1L147.6,195.6L150.1,193.1L151.8,192.4L152.0,191.1L151.8,189.2L152.6,188.8L152.7,187.7L155.4,187.1L156.0,185.5L155.8,184.5L157.8,183.1L158.0,181.9L156.8,181.1L157.0,179.9L158.0,179.1L158.8,179.5L159.2,180.4L159.8,181.4L162.2,181.9L162.6,183.2L164.0,182.8L166.7,186.1L168.2,185.0L170.6,186.8L172.5,186.4L174.6,186.1L176.4,185.4L176.5,187.2L178.1,188.4L180.2,189.4L177.8,190.5L177.5,191.8L177.1,192.3L178.1,193.1L178.3,194.3L177.5,194.1L176.5,193.9L175.5,193.9L175.0,197.0L176.4,197.7L176.3,198.4L174.4,199.7L174.6,200.5L174.0,201.5L173.9,202.7L172.9,203.6L174.1,205.1L171.7,206.6L173.8,208.4L173.3,211.9L174.0,212.4L172.6,213.6L172.4,215.6L173.3,216.7L173.9,222.1L174.5,223.3L173.9,224.6L174.6,225.5L173.8,227.2L174.9,228.0L174.2,229.9L174.4,232.6L173.0,233.0L173.5,234.2L173.3,238.4L174.7,239.2L176.7,241.6L177.3,242.0L178.8,244.6L179.5,244.9L179.1,245.8L180.2,248.1L181.9,247.6L183.0,247.5L183.8,248.3L184.1,249.9L185.2,250.4L186.3,250.2Z" />
		<path id="L1611111602562" name="滨州市" class="qing-map-1616125066505" d="M351.6,182.2L350.4,182.6L348.4,183.0L348.2,184.4L347.0,184.4L346.6,185.4L343.6,186.6L342.4,186.0L340.8,185.0L339.0,183.6L338.0,182.4L337.2,177.8L339.0,176.8L338.6,175.0L337.2,174.6L336.4,172.2L335.0,171.4L330.6,172.8L329.0,170.0L330.0,169.4L331.6,168.0L330.0,164.0L331.2,162.0L332.0,160.6L330.4,158.6L328.6,157.8L328.0,156.6L326.6,156.6L325.4,158.0L322.0,156.6L323.0,154.8L324.0,153.4L322.6,151.2L319.8,151.0L318.6,149.6L314.0,151.2L312.6,150.0L310.6,149.4L308.2,149.6L302.8,153.8L294.8,151.6L292.6,150.2L290.2,152.0L289.4,154.8L288.8,156.8L286.2,159.2L286.4,160.2L285.6,163.4L283.8,164.4L282.4,165.0L282.4,167.4L284.2,168.8L283.8,170.4L284.6,171.6L285.8,172.4L288.2,172.0L295.2,174.4L302.0,175.0L303.8,174.2L309.6,175.2L309.2,179.6L311.6,180.2L311.6,182.2L312.4,184.4L315.8,185.2L316.4,187.6L318.2,190.4L319.0,191.8L320.6,192.4L317.0,196.2L316.4,197.8L314.8,197.8L313.0,198.8L311.8,198.4L308.0,200.0L308.4,202.4L307.2,204.2L306.8,207.4L308.2,209.0L309.4,209.2L310.8,211.2L309.4,213.0L307.4,211.0L306.8,213.0L306.2,214.2L305.0,215.4L304.8,217.4L303.8,217.6L303.0,218.6L301.4,218.8L300.4,219.0L299.0,219.4L297.8,218.6L297.8,217.4L300.0,215.0L299.6,214.0L300.6,212.0L296.6,211.4L294.8,210.4L294.8,208.0L293.0,207.2L290.6,206.0L286.2,202.4L285.6,201.0L284.8,200.0L284.6,197.0L286.2,195.0L284.4,193.6L283.8,192.0L280.8,190.6L281.2,189.8L282.4,189.8L283.6,188.0L282.4,186.4L282.4,185.2L280.4,185.6L279.2,187.4L278.0,186.6L276.0,186.8L273.8,187.4L271.0,188.2L269.6,187.2L268.6,187.8L266.6,187.2L264.8,184.8L265.6,183.4L264.4,182.0L261.6,181.4L260.2,178.8L262.0,178.4L262.6,174.0L264.6,174.6L267.8,172.2L272.0,171.6L273.2,169.8L272.2,164.8L271.0,162.2L270.6,159.6L268.2,156.2L268.6,154.4L270.4,154.4L270.6,153.4L271.8,153.2L269.6,146.4L268.2,145.6L269.0,143.2L268.4,141.0L268.6,139.0L267.4,138.6L266.8,137.0L264.4,135.4L264.8,133.6L264.8,131.2L264.0,130.0L262.4,129.0L261.0,129.2L258.6,129.4L258.8,127.6L257.2,126.8L257.2,124.8L259.4,125.4L260.4,124.4L259.8,122.8L257.2,122.0L256.6,120.8L254.4,120.2L255.0,118.6L256.2,118.6L257.0,116.0L256.4,114.4L259.0,113.2L259.2,111.0L260.0,108.2L259.0,107.2L259.6,105.6L259.6,104.2L261.4,102.8L262.8,101.8L262.8,99.2L264.4,100.0L264.4,102.0L263.8,103.0L264.2,105.0L266.4,104.6L267.8,103.0L268.2,102.2L271.4,103.4L272.2,102.8L274.6,105.0L275.6,102.8L277.2,102.0L278.6,101.2L280.8,100.2L281.2,98.6L282.0,98.0L281.2,96.2L281.4,94.6L278.8,92.4L281.4,91.2L283.4,86.8L283.8,85.8L285.2,85.2L287.0,82.2L285.0,81.2L284.4,78.6L281.2,77.2L281.6,75.6L280.4,72.8L281.2,71.2L283.8,69.4L283.2,64.0L281.4,62.6L282.0,60.6L283.0,59.4L282.6,57.6L284.0,56.4L285.2,55.4L287.0,55.4L288.8,55.4L291.6,55.0L292.6,55.0L294.2,54.2L296.4,54.8L299.0,52.8L298.8,50.6L300.8,49.0L302.6,47.8L302.6,45.0L303.8,43.8L304.6,43.8L306.0,42.8L305.0,41.8L305.4,39.8L304.6,39.2L305.8,38.2L306.4,37.0L305.8,36.0L307.6,35.4L308.0,33.8L309.8,33.2L311.2,31.0L312.0,30.8L320.2,35.8L323.6,38.0L329.8,40.0L330.6,43.0L331.6,43.8L336.4,44.4L340.4,45.6L343.0,47.2L345.4,47.4L347.0,48.0L346.0,49.4L347.6,50.6L346.2,54.0L345.4,63.0L345.8,64.8L345.0,66.2L345.8,68.4L344.8,68.8L345.8,70.8L346.8,74.8L347.2,77.6L347.2,79.2L348.8,79.8L349.0,81.8L351.6,80.2L352.6,79.4L354.0,79.8L355.6,79.8L356.8,83.6L358.0,85.4L357.8,87.0L359.0,88.0L357.2,89.0L357.0,91.2L358.2,93.2L356.6,94.2L356.4,95.8L355.0,95.8L353.0,101.2L351.8,104.0L349.4,104.6L345.4,104.0L342.6,104.2L340.8,105.6L339.8,107.4L339.4,109.8L338.4,111.8L336.8,112.8L337.2,114.8L337.2,116.2L340.6,115.8L341.2,117.2L340.0,119.4L338.2,120.4L337.2,124.2L335.4,126.4L336.4,128.2L335.2,130.0L336.4,130.6L338.6,130.6L340.0,133.2L339.8,136.0L336.8,137.0L339.2,137.6L339.6,139.2L344.6,136.8L345.2,138.6L347.4,138.6L348.6,137.6L349.4,139.4L351.4,139.6L352.0,140.6L354.6,141.0L354.4,145.4L355.0,146.2L355.8,148.0L359.0,149.4L359.6,151.4L358.2,154.0L357.2,154.8L358.6,156.6L360.4,159.0L361.0,161.4L360.4,162.8L360.2,164.4L357.4,166.2L356.8,168.8L357.2,170.4L356.2,172.2L356.4,176.4L355.2,177.4L354.6,179.0Z" />
		<path id="L1611112443827" name="东营市" class="qing-map-1616125066505" d="M351.6,182.2L354.6,179.0L355.2,177.4L356.4,176.4L356.2,172.2L357.2,170.4L356.8,168.8L357.4,166.2L360.2,164.4L360.4,162.8L361.0,161.4L360.4,159.0L358.6,156.6L357.2,154.8L358.2,154.0L359.6,151.4L359.0,149.4L355.8,148.0L355.0,146.2L354.4,145.4L354.6,141.0L352.0,140.6L351.4,139.6L349.4,139.4L348.6,137.6L347.4,138.6L345.2,138.6L344.6,136.8L339.6,139.2L339.2,137.6L336.8,137.0L339.8,136.0L340.0,133.2L338.6,130.6L336.4,130.6L335.2,130.0L336.4,128.2L335.4,126.4L337.2,124.2L338.2,120.4L340.0,119.4L341.2,117.2L340.6,115.8L337.2,116.2L337.2,114.8L336.8,112.8L338.4,111.8L339.4,109.8L339.8,107.4L340.8,105.6L342.6,104.2L345.4,104.0L349.4,104.6L351.8,104.0L353.0,101.2L355.0,95.8L356.4,95.8L356.6,94.2L358.2,93.2L357.0,91.2L357.2,89.0L359.0,88.0L357.8,87.0L358.0,85.4L356.8,83.6L355.6,79.8L354.0,79.8L352.6,79.4L351.6,80.2L349.0,81.8L348.8,79.8L347.2,79.2L347.2,77.6L346.8,74.8L345.8,70.8L344.8,68.8L345.8,68.4L345.0,66.2L345.8,64.8L345.4,63.0L346.2,54.0L347.6,50.6L346.0,49.4L347.0,48.0L348.7,48.1L349.2,47.7L350.1,48.0L350.1,48.7L351.1,48.2L352.3,48.8L352.8,49.5L352.2,50.2L352.8,50.3L353.5,49.9L353.5,49.2L354.4,48.9L355.6,49.8L355.8,50.7L357.9,49.0L360.2,49.9L360.4,50.9L361.7,51.1L363.5,49.9L364.6,50.8L365.4,50.4L367.7,51.1L369.6,51.3L371.0,51.8L372.3,52.9L373.1,53.2L374.6,55.4L375.1,57.9L375.7,57.9L376.2,57.3L377.1,57.3L377.7,56.9L377.5,55.9L378.1,55.5L378.5,55.7L379.0,55.2L378.9,54.2L380.8,52.5L381.9,52.6L382.5,52.2L382.7,51.4L383.7,50.3L383.6,49.6L385.0,48.6L386.2,48.5L387.4,48.2L388.0,48.3L388.4,49.3L388.8,49.2L389.5,48.8L389.5,48.0L389.9,47.7L392.3,48.1L392.9,49.4L392.5,50.8L392.9,51.4L393.6,51.6L394.2,52.9L394.8,52.9L395.3,52.0L396.9,51.3L397.0,49.3L397.6,47.7L399.3,47.7L400.6,46.3L404.8,46.3L405.0,47.1L406.0,48.8L408.1,48.8L408.8,47.9L414.4,51.8L414.8,52.7L412.7,53.8L412.9,54.4L413.7,53.9L414.7,53.9L415.7,54.0L413.5,55.4L413.4,56.3L415.7,60.1L416.7,60.6L417.0,63.6L418.5,65.8L419.6,69.0L422.3,69.6L425.2,71.6L425.4,72.2L427.9,73.8L428.6,81.7L427.5,82.7L428.5,83.0L428.8,84.0L429.5,83.6L433.7,87.3L435.9,87.4L437.2,85.7L439.7,84.7L440.2,84.9L440.8,84.8L441.5,84.9L442.3,85.1L443.2,86.0L442.5,87.1L445.9,86.9L448.8,88.0L449.4,90.0L448.3,91.0L446.1,91.6L444.5,93.4L442.9,93.8L443.4,95.8L446.4,101.0L446.2,105.2L444.7,106.2L441.9,105.4L439.0,105.6L437.6,105.5L436.9,106.1L436.0,105.3L435.6,106.4L434.2,106.2L433.0,106.6L431.7,106.8L429.0,107.3L427.6,105.8L427.4,104.4L426.6,104.4L427.0,106.8L424.7,107.2L423.7,105.3L419.2,109.5L417.5,113.6L416.5,114.2L415.2,118.8L414.3,119.3L414.5,124.0L415.0,127.6L414.5,128.2L415.0,129.4L414.3,130.3L414.4,130.8L415.1,131.3L416.8,139.7L414.5,141.2L415.2,142.2L416.2,142.3L417.7,144.8L408.9,147.6L407.8,148.5L406.3,148.0L404.4,148.8L402.5,148.8L401.6,149.6L397.9,149.6L391.1,154.6L388.6,155.2L388.7,156.9L387.9,157.8L388.2,158.4L387.2,159.9L387.4,160.6L385.9,160.6L385.6,162.0L384.6,163.2L386.0,163.4L386.2,165.0L388.0,165.8L387.2,170.9L387.5,172.7L386.2,173.3L383.7,174.9L381.7,175.1L380.6,174.7L379.0,175.0L377.7,175.2L377.5,177.4L376.1,178.5L376.1,179.6L379.6,180.5L379.8,182.2L378.7,182.1L378.2,182.8L377.0,182.7L376.8,184.6L377.3,185.4L377.2,189.0L376.3,189.7L374.9,189.8L374.1,189.2L372.8,189.3L372.1,188.3L370.7,187.9L369.8,187.9L368.5,189.5L365.2,189.4L363.0,189.4L361.4,188.4L360.4,186.0L357.8,186.0L356.4,187.0L354.6,185.8L352.2,185.8L352.2,183.8Z" />
		<path id="L1611113695862" name="聊城市" class="qing-map-1616125066505" d="M114.9,193.4L115.9,192.8L118.8,193.4L120.0,192.4L121.6,193.0L121.9,194.2L123.5,194.4L124.5,193.1L125.3,194.7L129.5,196.1L130.2,195.3L131.6,196.6L133.6,195.4L134.7,196.6L136.9,197.0L138.1,196.0L139.9,195.5L142.8,195.7L143.9,196.4L145.2,196.3L145.4,195.3L146.9,195.1L147.6,195.6L150.1,193.1L151.8,192.4L152.0,191.1L151.8,189.2L152.6,188.8L152.7,187.7L155.4,187.1L156.0,185.5L155.8,184.5L157.8,183.1L158.0,181.9L156.8,181.1L157.0,179.9L158.0,179.1L158.8,179.5L159.2,180.4L159.8,181.4L162.2,181.9L162.6,183.2L164.0,182.8L166.7,186.1L168.2,185.0L170.6,186.8L172.5,186.4L174.6,186.1L176.4,185.4L176.5,187.2L178.1,188.4L180.2,189.4L177.8,190.5L177.5,191.8L177.1,192.3L178.1,193.1L178.3,194.3L177.5,194.1L176.5,193.9L175.5,193.9L175.0,197.0L176.4,197.7L176.3,198.4L174.4,199.7L174.6,200.5L174.0,201.5L173.9,202.7L172.9,203.6L174.1,205.1L171.7,206.6L173.8,208.4L173.3,211.9L174.0,212.4L172.6,213.6L172.4,215.6L173.3,216.7L173.9,222.1L174.5,223.3L173.9,224.6L174.6,225.5L173.8,227.2L174.9,228.0L174.2,229.9L174.4,232.6L173.0,233.0L173.5,234.2L173.3,238.4L174.7,239.2L176.7,241.6L177.3,242.0L178.8,244.6L179.5,244.9L179.1,245.8L180.2,248.1L181.9,247.6L183.0,247.5L183.8,248.3L184.1,249.9L185.2,250.4L186.3,250.2L187.2,252.4L183.2,256.2L181.4,260.6L177.8,261.0L176.4,263.4L174.4,262.6L169.6,265.6L167.0,265.8L164.6,270.0L162.0,272.4L162.6,273.8L157.4,279.2L156.6,280.0L152.6,280.2L151.2,280.8L150.6,281.6L150.8,283.0L147.8,284.2L145.8,286.4L142.4,287.2L140.4,288.0L137.4,292.2L134.8,294.2L130.8,295.0L128.2,297.2L126.6,297.0L123.4,298.2L122.8,299.6L121.2,299.4L120.2,298.4L119.2,299.0L118.4,298.6L115.4,300.2L114.6,302.4L112.4,303.4L110.6,303.6L109.2,303.6L106.6,304.6L105.6,306.4L101.8,309.0L100.2,308.8L97.4,308.8L92.8,312.6L89.6,313.2L85.0,315.2L81.0,319.4L80.0,322.2L75.6,325.2L73.2,324.0L72.8,322.2L73.8,320.8L73.0,320.0L74.6,317.0L73.0,315.4L75.0,315.4L76.0,313.2L76.0,310.2L75.8,308.4L74.6,306.6L75.6,306.0L75.2,303.4L78.2,303.8L78.6,301.4L79.4,301.2L80.4,300.8L80.0,299.8L81.4,299.7L82.6,300.1L83.7,299.2L83.7,295.2L83.2,294.1L84.9,293.1L84.6,291.9L84.9,291.0L85.5,291.0L86.5,288.3L85.9,287.6L86.5,287.2L87.4,285.6L87.1,283.3L87.6,283.0L87.4,282.0L87.1,281.3L86.8,280.8L87.2,280.5L86.7,279.7L86.7,278.4L86.3,277.6L86.5,277.1L86.9,276.8L86.9,276.4L86.6,276.0L86.4,275.4L86.3,274.9L86.5,274.2L86.5,273.5L86.6,273.0L86.6,272.1L86.5,271.3L85.4,270.9L85.3,270.4L85.6,269.7L84.8,267.9L84.0,267.9L83.6,268.1L82.7,267.8L82.0,266.7L81.2,266.5L80.9,265.7L81.4,264.9L81.2,264.2L81.2,263.2L81.3,262.6L80.6,262.0L78.9,263.0L78.5,263.0L77.9,262.5L77.3,262.7L76.6,263.8L75.3,264.1L74.9,263.0L75.3,263.0L76.4,261.6L76.3,260.0L75.8,259.4L75.4,259.1L74.1,259.0L74.5,257.7L73.6,257.2L73.9,253.9L72.4,253.7L71.7,253.0L69.8,251.8L70.6,250.6L70.9,249.8L70.9,246.6L70.2,245.8L69.3,246.3L68.9,244.9L68.2,244.2L68.1,243.1L67.3,242.9L67.4,242.5L68.2,242.4L69.6,240.9L69.2,239.9L69.2,239.1L68.8,238.5L69.1,237.8L70.0,238.6L71.3,237.9L72.2,236.4L73.0,233.9L73.2,232.6L74.5,231.9L74.6,230.8L73.8,230.3L74.5,229.7L73.8,229.0L74.5,228.0L74.5,226.6L75.9,227.7L77.4,226.3L77.9,225.0L78.1,223.4L79.2,222.9L79.4,222.1L80.3,221.4L81.7,220.0L82.4,219.3L83.1,219.3L83.3,218.4L83.9,218.1L83.9,217.2L84.7,216.8L84.8,215.3L85.8,214.5L86.9,211.8L88.6,209.8L90.6,210.7L91.6,210.3L91.3,209.6L92.1,209.5L92.2,208.6L92.7,208.5L93.4,209.3L94.2,209.3L94.4,208.3L95.9,209.4L97.0,208.4L104.8,205.2L105.9,205.8L107.0,205.5L106.2,204.8L106.7,204.0L106.8,201.4L108.7,197.0L110.0,195.3L111.2,194.4L112.5,194.3L113.7,193.3L114.4,192.8Z" />
		<path id="L1611120974024" name="泰安市" class="qing-map-1616125066505" d="M159.0,281.4L159.4,284.2L161.6,286.0L160.4,288.2L160.6,291.8L161.4,293.8L160.4,294.6L164.4,296.4L165.6,293.8L169.4,292.4L170.0,290.4L173.4,290.4L175.0,292.2L176.2,292.6L177.0,295.0L180.0,293.2L182.4,292.2L185.6,291.8L187.4,290.0L187.4,288.0L189.2,287.2L188.8,285.2L188.0,283.8L186.2,284.6L185.6,283.6L183.8,283.6L185.0,281.4L185.2,279.6L184.0,279.2L182.0,276.8L181.2,274.8L182.2,272.6L184.0,272.4L185.0,270.6L187.4,271.0L189.2,269.4L191.0,269.6L192.4,267.6L193.8,266.0L195.6,265.8L197.6,265.6L199.4,267.4L201.0,267.2L202.6,267.0L204.6,267.0L205.0,265.4L206.6,264.6L209.2,263.8L211.6,264.0L212.8,265.6L214.4,265.8L216.8,265.2L216.8,266.2L218.0,268.4L220.2,269.8L223.2,268.6L224.2,269.6L226.4,270.2L228.6,271.4L230.8,270.4L231.6,268.8L232.8,268.8L233.0,267.8L234.4,267.0L237.6,264.6L237.6,262.4L239.4,260.0L243.0,261.2L244.0,259.6L247.6,259.0L247.2,256.8L250.0,253.0L253.0,251.6L254.2,248.2L256.8,246.4L258.2,244.6L260.2,245.6L262.6,245.6L263.4,246.6L261.6,249.6L262.0,253.2L263.8,254.0L262.4,255.4L263.8,258.2L265.0,258.4L265.6,259.8L266.6,261.6L266.0,263.2L268.8,269.6L269.4,271.6L267.6,273.6L269.2,275.4L270.8,274.6L272.2,275.4L272.0,277.6L273.8,280.2L275.2,280.2L276.0,282.0L275.2,282.4L273.6,282.6L272.8,285.8L273.8,286.6L272.4,289.4L275.4,289.4L276.2,288.4L278.4,288.6L281.2,287.8L281.8,289.8L284.8,291.0L287.0,291.0L287.4,291.8L288.8,291.8L289.8,292.2L291.2,293.8L294.0,294.8L295.6,294.0L299.0,296.4L300.4,296.6L301.6,298.8L302.4,300.8L304.4,300.0L304.8,298.6L309.0,299.0L311.4,299.4L313.2,298.8L315.2,297.6L316.8,298.2L318.0,299.2L320.0,300.4L319.2,303.2L320.4,305.0L322.0,303.6L323.2,303.8L323.6,306.0L324.0,307.4L324.1,308.4L324.8,309.0L324.5,310.4L323.2,311.7L323.1,313.3L321.9,314.1L321.2,315.4L317.7,314.0L314.0,314.3L311.6,316.5L311.8,317.8L310.8,319.3L309.8,318.8L308.7,319.6L309.0,320.7L308.6,321.3L309.6,322.2L309.4,324.1L308.3,325.6L310.2,330.2L307.5,331.6L306.9,332.1L305.8,331.8L304.8,332.5L302.7,332.5L301.1,334.0L299.1,334.0L297.3,332.8L295.6,332.8L295.4,333.8L293.1,334.8L291.5,334.8L289.7,335.5L288.1,337.7L287.0,340.4L286.8,342.9L285.0,341.5L283.7,341.4L281.4,338.8L281.5,337.7L279.7,337.6L279.2,336.5L280.3,334.2L276.8,334.2L276.1,332.4L274.6,331.9L274.3,330.8L271.4,330.4L269.5,326.5L267.1,327.5L266.2,326.7L264.4,327.0L263.6,325.9L263.0,326.0L261.7,324.4L260.5,324.3L259.3,324.0L255.5,327.5L250.7,326.2L249.4,326.6L247.2,326.3L243.4,327.3L243.3,325.5L240.1,325.3L239.6,323.2L238.8,323.0L237.0,324.5L235.3,323.8L233.1,323.7L231.8,322.7L229.8,323.3L230.1,325.2L228.8,326.5L228.5,328.1L226.2,329.0L224.8,330.3L226.3,333.0L221.7,335.3L219.5,335.1L218.4,337.3L214.8,335.5L213.9,335.3L212.8,334.7L212.7,336.6L209.6,338.0L208.9,335.2L207.8,334.7L206.8,335.9L201.9,334.6L201.7,332.7L198.9,334.1L196.9,334.1L196.4,334.9L194.8,334.5L194.0,334.8L193.3,332.2L194.3,329.6L196.9,327.9L198.7,328.7L201.0,324.8L200.0,322.8L200.2,321.2L199.0,321.0L197.9,320.3L196.6,320.1L193.4,317.5L194.0,315.6L196.3,314.7L197.3,313.1L198.7,312.7L198.1,311.1L199.4,308.6L198.4,307.1L196.2,307.9L194.4,308.0L192.4,310.2L192.2,311.4L188.9,312.6L188.2,316.7L186.9,318.3L184.8,318.9L182.8,319.3L181.4,319.5L181.0,319.9L180.4,319.8L179.2,321.7L176.9,322.7L176.5,323.7L175.6,323.7L174.5,324.8L173.1,324.6L172.4,323.5L170.3,324.2L169.4,322.3L168.2,324.1L167.1,324.2L167.2,325.9L164.7,326.2L164.2,324.4L164.6,322.6L162.6,323.2L161.4,322.9L157.8,318.0L157.7,316.3L157.9,313.0L156.1,314.6L155.5,313.7L153.9,312.9L153.4,312.1L151.4,311.9L150.3,313.8L149.3,313.1L147.6,313.8L145.8,311.8L144.7,311.6L143.9,310.6L143.8,309.6L143.0,308.7L142.8,307.6L140.3,306.2L141.4,305.2L142.3,304.4L141.7,302.9L140.5,302.3L141.5,297.4L142.5,297.1L143.1,295.8L142.8,293.8L143.9,293.9L143.4,293.1L143.9,292.7L143.9,290.9L145.1,289.5L145.8,286.4L147.8,284.2L150.8,283.0L150.6,281.6L151.2,280.8L152.6,280.2L156.6,280.0Z" />
		<path id="L1611121438971" name="济宁市" class="qing-map-1616125066505" d="M140.5,302.3L141.7,302.9L142.3,304.4L141.4,305.2L140.3,306.2L142.8,307.6L143.0,308.7L143.8,309.6L143.9,310.6L144.7,311.6L145.8,311.8L147.6,313.8L149.3,313.1L150.3,313.8L151.4,311.9L153.4,312.1L153.9,312.9L155.5,313.7L156.1,314.6L157.9,313.0L157.7,316.3L157.8,318.0L161.4,322.9L162.6,323.2L164.6,322.6L164.2,324.4L164.7,326.2L167.2,325.9L167.1,324.2L168.2,324.1L169.4,322.3L170.3,324.2L172.4,323.5L173.1,324.6L174.5,324.8L175.6,323.7L176.5,323.7L176.9,322.7L179.2,321.7L180.4,319.8L181.0,319.9L181.4,319.5L182.8,319.3L184.8,318.9L186.9,318.3L188.2,316.7L188.9,312.6L192.2,311.4L192.4,310.2L194.4,308.0L196.2,307.9L198.4,307.1L199.4,308.6L198.1,311.1L198.7,312.7L197.3,313.1L196.3,314.7L194.0,315.6L193.4,317.5L196.6,320.1L197.9,320.3L199.0,321.0L200.2,321.2L200.0,322.8L201.0,324.8L198.7,328.7L196.9,327.9L194.3,329.6L193.3,332.2L194.0,334.8L194.8,334.5L196.4,334.9L196.9,334.1L198.9,334.1L201.7,332.7L201.9,334.6L206.8,335.9L207.8,334.7L208.9,335.2L209.6,338.0L212.7,336.6L212.8,334.7L213.9,335.3L214.8,335.5L218.4,337.3L219.5,335.1L221.7,335.3L226.3,333.0L224.8,330.3L226.2,329.0L228.5,328.1L228.8,326.5L230.1,325.2L229.8,323.3L231.8,322.7L233.1,323.7L235.3,323.8L237.0,324.5L238.8,323.0L239.6,323.2L240.1,325.3L243.3,325.5L243.4,327.3L247.2,326.3L249.4,326.6L250.7,326.2L255.5,327.5L259.3,324.0L260.5,324.3L261.7,324.4L263.0,326.0L263.6,325.9L264.4,327.0L266.2,326.7L267.1,327.5L269.5,326.5L271.4,330.4L274.3,330.8L274.6,331.9L276.1,332.4L276.8,334.2L280.3,334.2L279.2,336.5L279.7,337.6L281.5,337.7L281.4,338.8L283.7,341.4L285.0,341.5L286.8,342.9L286.0,343.5L285.4,348.5L286.4,350.8L286.2,351.8L282.2,352.5L280.8,353.8L279.3,352.4L277.3,352.6L277.4,353.9L278.3,355.4L279.2,356.0L279.3,356.8L278.2,357.7L276.9,358.4L274.9,357.5L274.1,358.9L272.8,359.4L272.2,360.6L272.2,361.6L270.8,362.2L271.2,363.8L273.0,365.4L275.0,368.6L274.4,371.2L273.6,373.4L272.0,374.0L272.2,376.2L272.4,378.6L274.2,379.2L275.4,379.6L274.0,382.8L272.0,383.4L269.6,384.8L267.8,383.2L268.4,381.6L264.2,379.6L260.2,379.6L259.2,381.8L256.8,381.2L254.6,383.2L255.6,385.8L253.0,386.2L251.6,386.8L250.0,386.4L249.0,387.8L245.0,389.0L242.4,389.0L240.0,390.6L238.0,390.4L237.2,389.2L234.8,390.8L233.0,390.6L231.4,391.4L231.0,392.6L224.4,396.6L223.0,395.6L222.2,395.8L220.6,393.8L218.4,394.8L218.0,396.4L216.8,397.0L214.4,395.2L213.0,395.4L212.6,398.0L213.6,399.6L213.6,401.2L214.8,402.6L219.6,405.4L220.6,407.6L221.0,409.6L222.0,411.0L223.0,411.2L222.6,412.6L225.0,413.8L226.4,416.6L225.2,418.2L225.4,420.2L226.6,420.0L226.4,421.6L227.4,422.2L227.4,423.2L231.0,422.4L231.8,423.6L233.6,423.0L234.4,424.6L236.6,425.2L238.8,423.8L240.4,424.6L240.0,426.2L241.4,428.8L242.0,431.8L245.6,435.6L247.0,435.8L248.2,437.0L245.8,440.6L248.6,441.6L250.6,444.4L251.8,445.2L253.4,448.0L255.4,447.6L256.4,448.8L259.0,448.8L261.4,451.4L261.2,452.8L263.6,453.8L264.0,455.2L264.8,456.6L265.8,458.8L267.8,458.6L269.0,460.2L267.6,464.8L265.6,464.2L264.6,464.7L263.7,464.1L262.9,464.1L262.1,465.2L260.3,465.2L259.7,465.8L260.6,466.2L261.1,465.9L261.2,466.8L260.3,466.8L259.9,466.9L259.8,467.7L258.8,467.0L258.2,467.3L258.6,468.1L257.4,470.0L255.6,470.1L256.0,471.2L255.5,471.6L256.0,473.2L254.6,473.8L255.1,475.4L255.1,476.7L254.5,477.3L253.2,479.2L252.5,478.9L251.8,479.0L251.0,479.4L249.7,478.9L249.9,477.9L247.6,474.4L245.9,474.3L245.4,471.7L245.1,471.1L245.0,468.7L245.2,468.1L245.3,466.5L243.3,461.1L242.4,459.4L242.8,458.6L242.4,457.5L242.0,456.5L237.5,457.8L236.1,455.8L236.2,454.1L236.8,451.5L238.6,450.3L237.9,449.2L237.6,448.5L236.8,448.0L236.4,447.0L236.4,445.8L235.9,444.7L235.4,444.7L234.9,444.2L235.0,443.1L234.4,441.8L232.6,440.6L231.8,440.0L231.1,439.3L230.5,440.0L232.2,442.6L231.8,443.4L229.7,440.5L229.0,438.9L228.4,437.8L227.9,436.3L227.0,434.3L226.8,430.6L223.6,430.3L222.9,430.0L222.7,429.1L222.1,428.2L217.3,425.5L213.4,424.8L213.1,420.0L211.8,420.1L212.3,424.9L211.3,424.9L211.2,419.7L209.9,419.3L210.1,420.7L209.2,420.7L209.6,421.9L210.4,422.0L210.6,422.9L210.1,423.3L209.7,423.9L209.5,425.9L208.3,426.0L206.9,427.0L206.5,425.5L205.2,425.0L204.1,425.0L202.7,424.1L201.6,424.4L200.9,423.6L199.9,423.4L199.5,423.7L198.8,423.9L198.3,423.9L197.4,424.3L196.7,424.1L195.8,423.1L194.1,423.3L193.6,424.8L192.4,425.7L190.6,425.7L190.4,426.4L188.4,426.8L187.4,426.5L186.8,427.2L185.7,427.4L184.9,426.9L183.6,426.9L183.2,427.4L182.2,427.7L180.7,427.9L179.8,427.5L179.1,427.8L178.2,428.0L177.8,428.7L175.8,431.6L175.0,432.2L174.6,433.0L174.2,433.9L173.3,433.7L172.6,432.8L171.1,432.6L167.6,432.8L166.8,431.4L162.4,430.6L161.6,429.4L160.8,428.9L160.2,427.5L158.3,428.7L155.8,426.8L154.7,426.1L154.7,424.7L153.7,423.5L150.2,422.8L151.9,420.1L150.4,418.7L150.2,417.6L148.6,417.2L147.5,414.9L147.2,414.2L146.3,413.7L146.2,412.4L146.5,411.5L146.6,410.5L148.5,410.7L150.1,406.9L149.0,405.6L150.7,403.7L153.5,403.6L154.6,401.7L154.7,400.2L156.0,398.7L156.2,397.3L157.0,396.5L155.9,394.1L157.6,394.0L158.2,393.1L159.4,394.7L161.2,393.8L162.5,391.2L162.9,388.8L161.3,385.1L159.6,385.4L158.6,385.1L157.2,385.7L156.2,383.5L154.5,381.3L153.9,380.6L154.8,379.0L154.4,377.9L156.3,376.5L156.5,375.3L157.5,374.8L157.9,373.2L156.0,370.2L156.4,368.7L156.2,366.3L155.4,365.6L154.9,362.6L152.6,362.1L152.5,364.0L151.3,364.5L150.9,361.6L149.5,361.8L148.6,361.2L148.4,360.0L147.2,359.1L147.9,357.3L147.6,356.4L147.7,355.2L147.1,351.9L146.4,350.9L147.2,349.2L148.5,348.1L146.2,347.2L146.4,345.1L148.5,342.9L147.2,341.8L146.8,340.8L146.4,339.5L146.8,338.4L146.3,337.1L144.6,337.6L144.5,336.5L144.2,335.4L142.7,334.9L142.7,333.7L142.6,332.5L141.5,332.3L140.0,330.8L139.9,329.6L137.7,329.5L136.9,328.5L134.9,326.8L133.9,327.1L131.2,324.7L129.7,324.0L128.6,323.9L128.2,322.9L127.5,322.2L125.9,323.0L124.4,321.9L124.5,320.8L124.2,320.0L125.1,319.2L124.1,318.2L124.4,316.2L125.0,314.1L124.8,312.6L125.1,312.1L125.0,311.2L124.0,310.6L123.6,310.2L124.7,309.4L125.9,309.3L126.8,308.7L127.4,308.5L127.0,306.8L127.4,305.3L128.1,304.6L131.6,303.8L135.6,303.2L138.8,304.1L140.2,303.9Z" />
		<path id="L1611122548983" name="枣庄市" class="qing-map-1616125066505" d="M267.6,464.8L269.0,460.2L267.8,458.6L265.8,458.8L264.8,456.6L264.0,455.2L263.6,453.8L261.2,452.8L261.4,451.4L259.0,448.8L256.4,448.8L255.4,447.6L253.4,448.0L251.8,445.2L250.6,444.4L248.6,441.6L245.8,440.6L248.2,437.0L247.0,435.8L245.6,435.6L242.0,431.8L241.4,428.8L240.0,426.2L240.4,424.6L238.8,423.8L236.6,425.2L234.4,424.6L233.6,423.0L231.8,423.6L231.0,422.4L227.4,423.2L227.4,422.2L226.4,421.6L226.6,420.0L225.4,420.2L225.2,418.2L226.4,416.6L225.0,413.8L222.6,412.6L223.0,411.2L222.0,411.0L221.0,409.6L220.6,407.6L219.6,405.4L214.8,402.6L213.6,401.2L213.6,399.6L212.6,398.0L213.0,395.4L214.4,395.2L216.8,397.0L218.0,396.4L218.4,394.8L220.6,393.8L222.2,395.8L223.0,395.6L224.4,396.6L231.0,392.6L231.4,391.4L233.0,390.6L234.8,390.8L237.2,389.2L238.0,390.4L240.0,390.6L242.4,389.0L245.0,389.0L249.0,387.8L250.0,386.4L251.6,386.8L253.0,386.2L255.6,385.8L254.6,383.2L256.8,381.2L259.2,381.8L260.2,379.6L264.2,379.6L268.4,381.6L267.8,383.2L269.6,384.8L271.1,386.6L273.1,386.7L272.7,389.3L274.1,390.0L274.9,390.8L276.2,391.2L275.9,392.6L278.9,393.2L280.2,393.5L280.2,395.0L281.8,397.5L284.0,397.5L285.2,397.7L285.1,398.9L286.2,399.0L286.5,400.0L288.3,401.3L288.0,402.1L290.3,404.3L290.8,405.5L291.8,405.9L291.9,407.7L293.4,408.3L294.1,409.4L295.6,409.6L297.0,410.9L296.3,412.0L296.8,412.8L297.7,413.1L299.6,413.0L300.5,413.3L300.4,414.1L300.2,414.9L299.2,415.5L298.8,416.2L299.1,417.4L298.2,419.6L298.9,420.9L298.0,421.8L297.7,423.2L296.5,423.7L296.2,425.2L296.9,427.3L298.1,428.6L298.1,430.1L299.9,430.8L301.1,433.3L305.9,435.5L305.8,438.0L303.5,439.6L304.2,440.5L304.3,441.4L306.0,443.4L308.6,443.7L309.6,445.9L307.9,445.9L308.4,447.9L308.1,449.1L308.3,453.9L307.7,454.4L306.8,454.6L305.4,456.0L305.1,458.8L305.6,459.1L305.0,464.1L305.3,467.9L305.1,468.9L305.4,469.8L305.6,471.4L304.6,471.6L303.9,470.8L297.0,468.9L295.6,468.7L294.8,468.6L294.4,470.4L291.9,474.0L291.0,474.1L289.5,475.1L288.7,474.9L288.1,474.8L285.9,478.2L284.2,478.1L282.1,476.7L281.0,477.4L277.8,476.9L276.5,477.3L276.1,476.9L276.0,476.0L275.1,475.0L274.1,475.3L273.3,474.0L273.3,473.1L272.9,472.5L272.5,472.9L271.9,472.2L272.2,471.4L271.9,470.9L271.4,470.5L270.2,471.9L270.1,469.3L268.7,469.3L267.9,467.6L267.5,466.2Z" />
		<path id="L1611122993289" name="菏泽市" class="qing-map-1616125066505" d="M124.4,316.2L124.1,318.2L125.1,319.2L124.2,320.0L124.5,320.8L124.4,321.9L125.9,323.0L127.5,322.2L128.2,322.9L128.6,323.9L129.7,324.0L131.2,324.7L133.9,327.1L134.9,326.8L136.9,328.5L137.7,329.5L139.9,329.6L140.0,330.8L141.5,332.3L142.6,332.5L142.7,333.7L142.7,334.9L144.2,335.4L144.5,336.5L144.6,337.6L146.3,337.1L146.8,338.4L146.4,339.5L146.8,340.8L147.2,341.8L148.5,342.9L146.4,345.1L146.2,347.2L148.5,348.1L147.2,349.2L146.4,350.9L147.1,351.9L147.7,355.2L147.6,356.4L147.9,357.3L147.2,359.1L148.4,360.0L148.6,361.2L149.5,361.8L150.9,361.6L151.3,364.5L152.5,364.0L152.6,362.1L154.9,362.6L155.4,365.6L156.2,366.3L156.4,368.7L156.0,370.2L157.9,373.2L157.5,374.8L156.5,375.3L156.3,376.5L154.4,377.9L154.8,379.0L153.9,380.6L154.5,381.3L156.2,383.5L157.2,385.7L158.6,385.1L159.6,385.4L161.3,385.1L162.9,388.8L162.5,391.2L161.2,393.8L159.4,394.7L158.2,393.1L157.6,394.0L155.9,394.1L157.0,396.5L156.2,397.3L156.0,398.7L154.7,400.2L154.6,401.7L153.5,403.6L150.7,403.7L149.0,405.6L150.1,406.9L148.5,410.7L146.6,410.5L146.5,411.5L146.2,412.4L146.3,413.7L147.2,414.2L147.5,414.9L148.6,417.2L150.2,417.6L150.4,418.7L151.9,420.1L150.2,422.8L153.7,423.5L154.7,424.7L154.7,426.1L155.8,426.8L158.3,428.7L160.2,427.5L160.8,428.9L161.6,429.4L162.4,430.6L166.8,431.4L167.6,432.8L171.1,432.6L172.6,432.8L173.3,433.7L174.2,433.9L174.2,435.6L174.8,437.2L173.6,437.7L173.5,440.2L173.9,441.1L174.1,443.0L173.5,443.5L174.0,444.6L170.1,444.9L170.0,445.9L170.4,447.1L169.9,448.1L170.5,448.9L171.9,448.7L171.9,449.8L172.9,450.3L172.7,450.9L172.1,452.4L171.3,452.8L171.7,453.4L171.9,455.5L170.4,456.4L171.1,458.2L170.4,459.3L168.5,459.7L167.4,459.5L166.6,459.8L166.8,461.3L166.2,462.3L165.3,462.4L163.9,461.5L162.2,461.6L162.4,464.5L161.0,464.4L160.4,464.7L160.5,465.7L159.9,465.5L159.1,467.6L157.5,467.1L156.2,465.3L154.8,464.9L154.7,465.7L153.3,466.1L150.6,467.5L148.9,467.2L147.8,465.2L147.4,464.1L146.7,464.0L145.7,462.6L140.0,462.5L138.5,461.9L137.7,462.3L136.8,460.9L135.8,461.5L135.7,460.5L134.6,461.4L134.4,463.3L133.6,464.2L119.4,467.2L117.0,465.6L116.5,464.7L115.4,464.8L113.1,463.6L109.7,463.4L108.7,462.5L107.3,462.5L107.1,465.6L106.2,467.0L104.6,467.1L102.7,466.1L100.1,465.2L98.5,465.6L97.5,465.4L96.1,465.6L95.1,465.5L93.9,465.9L93.2,465.9L92.6,465.4L91.4,465.1L90.5,464.5L87.1,459.8L87.0,458.9L86.3,458.1L84.9,457.8L85.0,456.9L84.7,456.2L85.0,455.1L83.8,455.4L83.1,455.0L84.2,454.3L83.6,452.4L84.2,451.2L83.2,450.4L83.8,449.6L83.2,448.5L82.8,448.0L82.1,447.9L81.8,446.8L83.1,446.7L83.9,445.6L82.8,444.0L83.3,443.4L81.9,440.6L81.9,439.1L80.6,438.1L79.9,437.6L79.5,436.0L78.7,435.5L76.9,436.2L76.3,435.4L75.3,435.3L71.4,432.2L69.4,432.2L68.6,434.7L68.0,432.9L67.4,432.5L66.4,432.9L66.4,434.4L65.8,434.6L64.7,434.3L64.0,433.5L63.3,429.0L65.0,427.7L65.1,426.4L64.3,426.0L63.3,426.2L62.6,426.5L62.1,426.5L61.5,427.0L61.1,427.0L60.8,426.6L59.1,425.8L59.3,424.8L60.3,424.4L61.0,422.8L61.7,422.8L62.4,421.5L61.9,421.0L60.9,420.9L60.2,421.7L59.1,420.7L56.5,420.7L55.8,419.7L53.8,418.3L53.8,415.9L53.2,415.5L52.6,415.5L51.8,416.6L51.0,416.8L50.5,416.2L49.7,416.7L47.7,416.8L47.2,417.2L45.7,418.3L44.9,418.4L44.3,419.6L43.8,420.0L42.0,417.9L40.9,417.4L40.0,417.7L38.5,416.9L37.3,417.6L36.4,417.7L34.9,418.5L34.6,419.6L32.6,418.7L32.4,417.4L31.0,417.0L30.2,416.3L30.5,415.0L30.4,414.0L29.7,413.4L28.8,413.6L28.0,415.0L28.5,416.1L24.5,414.9L27.4,413.1L27.6,411.9L27.2,411.3L25.7,411.2L24.4,410.2L24.2,407.6L25.8,406.9L29.5,406.3L30.3,404.6L30.3,403.3L30.1,402.3L27.0,398.5L27.0,396.9L28.4,395.2L30.4,394.2L32.2,393.8L34.6,393.8L35.0,393.4L35.0,387.6L35.6,386.9L36.4,387.0L38.5,384.9L38.0,384.0L38.1,383.6L39.4,383.4L39.9,382.5L40.0,381.3L41.9,379.7L42.4,378.5L43.0,379.1L43.9,379.2L43.5,377.4L43.3,376.4L43.1,374.1L43.8,373.2L47.5,373.2L49.1,372.1L49.7,371.0L49.7,369.9L49.2,368.9L50.0,368.2L51.2,369.8L52.0,368.1L52.5,369.8L53.3,369.4L53.2,368.0L54.3,367.4L56.7,367.2L58.2,367.9L59.0,368.2L59.8,368.0L63.3,367.6L64.3,367.3L66.4,365.0L67.0,364.3L66.5,363.5L67.3,362.7L68.9,362.7L70.6,361.2L71.8,361.4L72.5,360.3L74.8,359.0L75.2,358.1L74.3,355.1L75.9,353.9L75.6,353.3L74.1,352.9L75.2,352.2L75.4,351.2L75.9,350.7L77.2,350.5L77.6,349.8L79.1,347.8L79.9,347.4L80.5,344.4L81.9,344.6L82.7,344.3L82.7,343.6L81.7,343.2L82.2,341.6L83.5,341.4L82.5,340.5L84.2,340.4L85.9,339.2L84.6,338.5L86.2,338.2L85.9,337.1L86.7,336.3L87.0,334.9L88.2,334.2L89.4,333.6L89.5,332.7L91.8,331.8L94.1,332.0L94.7,331.5L95.6,331.8L96.8,332.1L97.7,331.0L99.6,330.8L103.5,329.6L106.8,329.3L107.8,323.2L109.2,323.2L109.0,322.0L110.0,321.6L110.5,320.2L112.3,319.3L113.5,319.2L114.6,317.5L116.3,317.9L117.7,318.7L118.4,318.4L119.0,317.5L120.5,318.2L121.0,316.8L122.6,317.1L123.2,315.8Z" />
		<path id="L1611123973633" name="潍坊市" class="qing-map-1616125066505" d="M469.6,332.7L471.0,332.5L472.1,333.8L473.9,333.9L476.1,334.2L476.8,333.2L477.9,333.3L478.1,332.3L476.5,329.7L474.8,329.4L475.3,326.7L476.8,326.5L477.4,325.2L476.5,323.8L476.7,322.8L478.1,321.8L478.6,319.9L480.4,318.7L482.1,318.8L484.6,316.3L486.4,317.2L488.1,315.8L488.2,313.5L486.9,310.9L486.6,308.9L485.2,308.9L485.2,306.1L484.1,304.6L483.6,303.2L484.0,300.4L483.3,298.7L485.1,297.9L485.9,297.1L486.5,295.5L486.0,294.3L484.1,293.8L482.9,292.7L482.1,293.4L478.9,292.4L478.5,289.8L481.0,288.5L479.8,285.5L482.6,279.6L487.1,279.8L487.9,280.5L488.3,281.6L490.2,281.6L492.1,280.8L493.2,281.0L494.5,280.3L495.7,280.5L497.4,278.8L496.9,277.3L496.9,276.1L495.2,273.0L496.3,271.5L496.6,270.3L497.5,269.7L498.1,269.1L498.2,267.7L499.3,265.7L500.7,265.4L501.2,263.7L502.7,263.3L503.9,262.8L504.0,260.2L503.5,258.9L504.7,255.6L507.8,255.1L506.2,252.6L507.8,249.7L509.3,248.1L512.6,247.7L513.8,247.6L514.6,245.6L513.7,244.4L514.3,243.5L513.8,242.2L514.2,241.0L513.0,240.9L510.8,239.3L509.2,239.1L506.7,241.9L506.1,239.1L499.2,237.4L494.5,235.6L493.2,236.3L492.8,235.1L489.9,233.4L487.6,234.0L487.8,231.5L485.6,230.4L484.5,229.3L483.4,229.3L478.1,225.7L474.1,217.9L473.7,217.0L471.5,215.5L470.7,215.0L469.6,212.8L469.3,210.0L470.0,207.4L470.1,205.7L472.3,206.1L475.2,200.0L475.4,191.6L474.2,188.3L475.3,185.8L475.5,184.3L476.5,183.1L476.4,180.8L477.0,179.1L476.2,178.0L475.0,177.8L473.4,176.5L471.5,176.2L471.1,175.3L471.5,167.8L466.3,167.7L465.6,165.2L448.9,164.4L446.7,163.8L442.6,163.3L441.9,163.2L440.4,162.6L439.2,162.6L437.4,165.0L436.6,164.8L437.5,162.8L436.9,160.7L434.0,158.9L432.6,157.1L432.4,158.0L431.9,158.1L430.6,156.4L428.7,155.0L427.1,154.4L429.0,154.0L427.9,152.5L426.6,152.4L423.4,155.3L423.2,154.3L424.6,153.1L424.6,151.7L425.6,150.5L424.0,150.4L422.0,149.6L419.9,149.4L419.0,149.5L417.4,148.2L418.2,147.3L417.7,144.8L408.9,147.6L407.8,148.5L406.3,148.0L404.4,148.8L402.5,148.8L401.6,149.6L397.9,149.6L391.1,154.6L388.6,155.2L388.7,156.9L387.9,157.8L388.2,158.4L387.2,159.9L387.4,160.6L385.9,160.6L385.6,162.0L384.6,163.2L386.0,163.4L386.2,165.0L388.0,165.8L387.2,170.9L387.5,172.7L386.2,173.3L383.7,174.9L381.7,175.1L380.6,174.7L379.0,175.0L377.7,175.2L377.5,177.4L376.1,178.5L376.1,179.6L379.6,180.5L379.8,182.2L378.7,182.1L378.2,182.8L377.0,182.7L376.8,184.6L377.3,185.4L377.2,189.0L376.3,189.7L374.9,189.8L374.1,189.2L372.8,189.3L372.1,188.3L370.7,187.9L369.8,187.9L368.5,189.5L370.8,189.8L371.0,191.8L369.2,193.6L370.2,196.8L368.6,198.2L369.6,198.8L370.0,200.0L368.6,201.0L367.8,200.2L367.2,201.8L366.2,202.2L366.2,204.8L364.2,206.6L361.0,207.2L358.6,209.6L355.8,209.8L354.8,209.0L352.6,209.0L352.8,211.6L351.0,212.0L350.4,213.0L351.4,214.6L350.6,216.0L348.2,214.4L346.4,215.6L346.4,216.6L346.4,217.8L347.4,219.0L346.2,219.4L345.0,221.0L346.0,222.8L343.8,224.4L344.6,227.6L341.2,231.0L341.8,232.0L341.4,233.8L342.4,236.2L345.6,237.0L344.6,239.0L344.6,241.2L344.6,242.8L345.2,244.4L346.8,246.2L346.4,247.4L346.6,249.8L345.8,252.2L348.0,252.4L347.0,254.6L349.4,259.8L352.8,260.8L352.0,262.2L354.2,264.6L354.6,266.6L354.2,270.6L357.8,269.4L359.0,270.8L360.4,271.8L360.0,276.6L362.2,281.6L362.4,283.8L363.8,285.0L366.2,283.8L368.0,284.2L370.6,285.0L369.8,286.6L370.2,288.4L370.2,292.0L372.2,291.4L374.6,289.4L373.4,287.6L377.5,285.0L378.4,284.3L377.8,283.2L378.9,282.0L380.3,282.3L383.3,279.8L384.8,280.4L386.1,279.6L387.4,280.2L388.9,280.4L388.8,282.1L390.5,283.3L391.8,282.2L393.5,283.2L394.0,280.9L395.4,278.9L395.1,277.7L397.2,276.3L398.8,277.1L400.1,276.4L401.4,277.2L404.4,276.8L404.3,279.5L405.9,281.8L405.4,283.2L405.7,284.7L405.8,288.5L407.6,290.6L408.9,289.9L410.5,289.2L411.3,287.0L414.1,286.7L414.7,288.4L415.9,288.4L417.5,289.5L418.2,288.9L419.5,289.1L420.9,288.3L425.4,290.8L423.3,292.8L422.3,294.9L423.3,296.1L423.4,297.3L420.5,297.9L420.3,298.4L421.6,299.8L420.3,301.3L421.5,303.4L423.4,302.7L424.3,304.3L425.4,304.2L426.5,305.2L427.1,304.3L430.5,304.7L431.8,304.0L433.7,304.2L434.5,303.1L435.7,303.6L435.7,306.9L435.4,308.4L435.9,309.6L432.7,311.6L432.1,312.3L433.8,314.2L434.2,312.9L435.3,312.9L437.3,314.8L440.0,314.1L441.6,313.1L442.5,313.2L443.3,312.4L444.0,312.1L445.1,310.7L447.2,310.5L447.0,312.5L448.3,312.9L449.1,313.6L451.7,312.2L454.4,316.4L453.9,317.7L454.1,319.6L453.8,321.6L453.4,322.6L453.9,326.5L457.0,326.8L457.0,325.5L458.0,324.1L461.2,323.5L462.8,322.5L463.6,324.1L465.9,324.7L466.2,325.6L465.0,327.0L465.4,329.7L467.1,329.7Z" />
		<path id="L1611124822156" name="临沂市" class="qing-map-1616125066505" d="M305.4,456.0L306.8,454.6L307.7,454.4L308.3,453.9L308.1,449.1L308.4,447.9L307.9,445.9L309.6,445.9L308.6,443.7L306.0,443.4L304.3,441.4L304.2,440.5L303.5,439.6L305.8,438.0L305.9,435.5L301.1,433.3L299.9,430.8L298.1,430.1L298.1,428.6L296.9,427.3L296.2,425.2L296.5,423.7L297.7,423.2L298.0,421.8L298.9,420.9L298.2,419.6L299.1,417.4L298.8,416.2L299.2,415.5L300.2,414.9L300.4,414.1L300.5,413.3L299.6,413.0L297.7,413.1L296.8,412.8L296.3,412.0L297.0,410.9L295.6,409.6L294.1,409.4L293.4,408.3L291.9,407.7L291.8,405.9L290.8,405.5L290.3,404.3L288.0,402.1L288.3,401.3L286.5,400.0L286.2,399.0L285.1,398.9L285.2,397.7L284.0,397.5L281.8,397.5L280.2,395.0L280.2,393.5L278.9,393.2L275.9,392.6L276.2,391.2L274.9,390.8L274.1,390.0L272.7,389.3L273.1,386.7L271.1,386.6L269.6,384.8L272.0,383.4L274.0,382.8L275.4,379.6L274.2,379.2L272.4,378.6L272.2,376.2L272.0,374.0L273.6,373.4L274.4,371.2L275.0,368.6L273.0,365.4L271.2,363.8L270.8,362.2L272.2,361.6L272.2,360.6L272.8,359.4L274.1,358.9L274.9,357.5L276.9,358.4L278.2,357.7L279.3,356.8L279.2,356.0L278.3,355.4L277.4,353.9L277.3,352.6L279.3,352.4L280.8,353.8L282.2,352.5L286.2,351.8L286.4,350.8L285.4,348.5L286.0,343.5L286.8,342.9L287.0,340.4L288.1,337.7L289.7,335.5L291.5,334.8L293.1,334.8L295.4,333.8L295.6,332.8L297.3,332.8L299.1,334.0L301.1,334.0L302.7,332.5L304.8,332.5L305.8,331.8L306.9,332.1L307.5,331.6L310.2,330.2L308.3,325.6L309.4,324.1L309.6,322.2L308.6,321.3L309.0,320.7L308.7,319.6L309.8,318.8L310.8,319.3L311.8,317.8L311.6,316.5L314.0,314.3L317.7,314.0L321.2,315.4L321.9,314.1L323.1,313.3L323.2,311.7L324.5,310.4L324.8,309.0L324.1,308.4L324.0,307.4L323.6,306.0L326.6,306.0L326.4,304.8L327.8,304.2L328.6,302.0L330.6,300.6L330.8,299.8L332.0,298.8L333.0,298.8L334.0,297.4L336.8,296.6L337.6,297.4L341.4,298.6L343.6,302.4L343.6,303.4L345.0,306.0L347.2,306.2L347.2,308.0L349.6,308.8L353.6,306.0L355.8,306.0L356.2,305.0L358.4,304.8L358.4,303.6L360.8,302.6L361.4,301.4L364.0,301.4L365.4,303.4L368.2,305.2L369.8,304.2L372.4,304.0L370.8,302.2L370.8,300.6L369.0,297.0L371.4,297.0L373.4,296.4L373.0,293.4L372.2,291.4L374.6,289.4L373.4,287.6L377.5,285.0L378.4,284.3L377.8,283.2L378.9,282.0L380.3,282.3L383.3,279.8L384.8,280.4L386.1,279.6L387.4,280.2L388.9,280.4L388.8,282.1L390.5,283.3L391.8,282.2L393.5,283.2L394.0,280.9L395.4,278.9L395.1,277.7L397.2,276.3L398.8,277.1L400.1,276.4L401.4,277.2L404.4,276.8L404.3,279.5L405.9,281.8L405.4,283.2L405.7,284.7L405.8,288.5L407.6,290.6L408.9,289.9L410.5,289.2L411.3,287.0L414.1,286.7L414.7,288.4L415.9,288.4L417.5,289.5L418.2,288.9L419.5,289.1L420.9,288.3L425.4,290.8L423.3,292.8L422.3,294.9L423.3,296.1L423.4,297.3L421.4,297.3L418.7,296.0L418.4,298.2L416.1,298.8L414.8,298.7L413.2,299.8L410.8,300.0L409.6,299.1L407.7,300.6L409.2,303.7L409.1,304.5L407.2,304.9L405.3,305.6L404.1,305.6L403.1,306.5L401.6,306.1L400.8,307.0L400.9,309.2L398.1,309.6L398.0,311.4L396.7,312.6L396.4,316.2L395.7,317.1L394.6,316.8L392.4,319.9L392.5,321.8L390.6,323.9L391.1,324.9L390.8,325.5L391.4,326.4L390.9,327.5L391.3,328.7L391.1,330.5L392.1,331.5L393.1,331.8L394.1,331.5L394.8,331.5L395.7,332.4L397.2,331.5L398.0,332.2L399.6,331.8L400.4,332.6L400.5,333.9L399.5,335.9L399.6,338.4L394.4,343.7L394.3,345.5L393.9,347.2L394.3,349.5L393.0,351.7L392.7,352.9L390.7,354.3L390.4,357.2L393.7,358.8L393.0,361.6L391.2,363.6L389.5,362.7L388.3,363.9L387.0,362.8L386.0,364.0L384.2,364.1L384.3,366.1L385.2,366.6L385.0,367.6L383.3,367.7L381.5,368.5L381.5,371.0L383.6,371.2L383.8,373.6L385.0,373.4L386.1,372.1L387.2,373.2L389.0,373.4L390.0,372.2L392.7,374.1L394.4,374.8L395.7,373.9L396.8,374.4L398.3,373.3L399.1,373.9L401.8,372.6L402.7,373.2L404.4,373.5L406.8,371.5L407.1,374.1L408.3,375.3L409.5,375.1L412.0,376.3L412.0,377.6L413.3,378.2L414.2,377.3L415.6,377.7L418.2,374.1L417.4,372.6L419.5,371.4L420.2,371.7L421.5,371.6L424.6,374.1L426.0,374.1L427.8,378.3L430.3,377.5L432.8,377.9L432.4,379.8L433.5,381.6L433.5,382.8L436.1,383.2L436.5,386.4L436.0,388.8L435.1,389.8L434.9,391.6L434.1,392.6L431.7,393.4L431.6,394.4L433.4,394.6L434.2,395.6L434.9,396.9L434.5,400.2L436.7,400.1L437.7,401.0L437.8,403.4L436.4,403.9L435.5,403.7L434.2,404.7L432.2,404.6L431.6,405.0L432.0,406.4L431.2,406.6L431.6,407.4L430.3,408.2L431.0,409.8L429.1,410.9L428.3,409.7L426.0,409.6L425.1,410.6L424.2,410.4L423.3,410.7L421.7,410.0L419.7,410.1L418.4,411.1L417.5,410.7L416.6,411.2L415.8,410.8L415.0,411.4L413.3,411.4L412.3,410.7L410.8,410.7L411.0,411.7L409.8,411.3L408.6,412.4L406.4,412.7L406.1,413.9L407.1,416.9L406.1,418.4L405.7,419.9L406.3,421.7L405.9,422.9L406.1,424.5L405.4,424.9L404.9,424.4L402.1,427.4L401.8,429.1L401.1,429.3L400.4,430.4L401.2,431.1L400.5,432.2L400.8,433.2L400.2,434.1L399.8,434.4L398.8,432.6L398.3,433.0L398.7,434.0L398.0,434.1L397.0,433.4L396.4,434.4L397.1,434.6L396.6,435.6L397.3,435.7L398.2,435.3L398.6,436.1L398.0,436.6L397.7,439.7L396.8,440.4L396.0,440.5L394.8,440.1L393.4,440.6L394.4,441.5L394.3,443.1L393.3,443.0L392.2,443.3L391.8,445.1L392.8,445.4L393.5,445.0L393.6,446.4L394.4,446.7L395.5,446.3L396.4,445.6L397.9,447.5L397.7,448.5L396.9,449.3L396.5,450.0L395.8,450.3L394.0,451.4L392.3,451.5L389.8,453.2L388.7,452.7L388.4,451.1L386.3,451.1L385.3,451.5L384.6,452.8L383.1,451.8L381.8,452.1L381.4,450.7L381.8,449.8L381.8,449.2L381.2,449.0L380.8,448.7L379.7,449.4L377.9,449.4L377.2,450.1L376.2,449.2L375.4,449.2L374.7,449.2L374.3,450.4L375.3,451.6L374.4,452.6L372.6,452.0L372.2,454.3L371.8,454.9L371.2,455.1L369.6,453.9L368.7,454.1L368.1,455.2L368.4,456.8L369.3,457.2L369.6,458.7L369.5,459.8L368.5,459.5L367.6,460.1L365.8,459.1L365.6,460.2L364.7,461.2L364.5,462.5L364.7,464.2L364.5,466.3L365.0,467.2L365.5,470.1L365.8,470.5L365.7,472.4L363.6,477.0L363.6,479.4L363.0,481.7L361.5,482.3L360.5,482.7L360.3,483.6L357.9,483.7L357.5,482.7L354.9,482.7L354.8,482.0L354.4,482.0L352.0,482.2L351.7,483.8L350.9,484.0L350.6,484.5L347.5,484.6L346.3,485.3L345.4,484.5L345.2,487.4L344.4,487.8L343.3,487.3L342.7,487.0L342.1,486.3L341.3,487.2L340.8,487.2L340.6,486.6L341.1,485.6L341.2,484.3L340.3,483.7L341.6,483.0L341.8,479.5L340.9,478.6L338.0,477.0L337.7,476.2L336.9,475.2L337.7,473.7L338.8,474.0L340.1,473.7L340.7,471.9L340.6,469.5L341.6,469.6L342.3,468.5L339.8,467.8L339.2,468.4L337.5,466.8L336.2,467.2L335.4,467.2L334.0,466.1L332.1,465.6L332.3,465.1L334.1,463.1L335.3,460.5L335.2,459.9L333.4,458.2L333.9,457.2L333.9,456.1L333.2,455.8L332.2,456.2L331.7,455.4L330.0,455.7L329.2,455.9L327.9,456.0L326.7,455.4L326.5,456.6L325.6,456.8L324.7,455.9L323.3,455.1L323.2,453.8L322.0,454.0L321.3,453.4L319.9,453.3L318.0,455.7L317.2,455.5L317.1,454.8L315.9,454.4L315.4,457.1L314.1,457.1L313.1,456.4L312.1,456.5L311.1,456.8L310.3,456.8L309.7,456.3L309.0,456.7L308.4,456.1L306.5,457.3Z" />
		<path id="L1611125965359" name="日照市" class="qing-map-1616125066505" d="M437.8,403.4L437.7,401.0L436.7,400.1L434.5,400.2L434.9,396.9L434.2,395.6L433.4,394.6L431.6,394.4L431.7,393.4L434.1,392.6L434.9,391.6L435.1,389.8L436.0,388.8L436.5,386.4L436.1,383.2L433.5,382.8L433.5,381.6L432.4,379.8L432.8,377.9L430.3,377.5L427.8,378.3L426.0,374.1L424.6,374.1L421.5,371.6L420.2,371.7L419.5,371.4L417.4,372.6L418.2,374.1L415.6,377.7L414.2,377.3L413.3,378.2L412.0,377.6L412.0,376.3L409.5,375.1L408.3,375.3L407.1,374.1L406.8,371.5L404.4,373.5L402.7,373.2L401.8,372.6L399.1,373.9L398.3,373.3L396.8,374.4L395.7,373.9L394.4,374.8L392.7,374.1L390.0,372.2L389.0,373.4L387.2,373.2L386.1,372.1L385.0,373.4L383.8,373.6L383.6,371.2L381.5,371.0L381.5,368.5L383.3,367.7L385.0,367.6L385.2,366.6L384.3,366.1L384.2,364.1L386.0,364.0L387.0,362.8L388.3,363.9L389.5,362.7L391.2,363.6L393.0,361.6L393.7,358.8L390.4,357.2L390.7,354.3L392.7,352.9L393.0,351.7L394.3,349.5L393.9,347.2L394.3,345.5L394.4,343.7L399.6,338.4L399.5,335.9L400.5,333.9L400.4,332.6L399.6,331.8L398.0,332.2L397.2,331.5L395.7,332.4L394.8,331.5L394.1,331.5L393.1,331.8L392.1,331.5L391.1,330.5L391.3,328.7L390.9,327.5L391.4,326.4L390.8,325.5L391.1,324.9L390.6,323.9L392.5,321.8L392.4,319.9L394.6,316.8L395.7,317.1L396.4,316.2L396.7,312.6L398.0,311.4L398.1,309.6L400.9,309.2L400.8,307.0L401.6,306.1L403.1,306.5L404.1,305.6L405.3,305.6L407.2,304.9L409.1,304.5L409.2,303.7L407.7,300.6L409.6,299.1L410.8,300.0L413.2,299.8L414.8,298.7L416.1,298.8L418.4,298.2L418.7,296.0L421.4,297.3L423.4,297.3L420.5,297.9L420.3,298.4L421.6,299.8L420.3,301.3L421.5,303.4L423.4,302.7L424.3,304.3L425.4,304.2L426.5,305.2L427.1,304.3L430.5,304.7L431.8,304.0L433.7,304.2L434.5,303.1L435.7,303.6L435.7,306.9L435.4,308.4L435.9,309.6L432.7,311.6L432.1,312.3L433.8,314.2L434.2,312.9L435.3,312.9L437.3,314.8L440.0,314.1L441.6,313.1L442.5,313.2L443.3,312.4L444.0,312.1L445.1,310.7L447.2,310.5L447.0,312.5L448.3,312.9L449.1,313.6L451.7,312.2L454.4,316.4L453.9,317.7L454.1,319.6L453.8,321.6L453.4,322.6L453.9,326.5L457.0,326.8L457.0,325.5L458.0,324.1L461.2,323.5L462.8,322.5L463.6,324.1L465.9,324.7L466.2,325.6L465.0,327.0L465.4,329.7L467.1,329.7L468.1,332.2L467.9,336.1L468.9,338.3L468.6,341.7L468.6,343.1L467.9,344.7L469.6,346.6L470.2,347.9L471.9,347.6L472.8,348.7L475.0,346.6L476.5,348.0L477.3,346.5L478.7,346.9L480.7,347.8L481.6,349.2L481.6,349.7L481.3,350.3L479.9,350.2L479.0,350.6L478.3,351.6L480.0,351.6L478.1,356.1L478.4,357.5L477.7,357.9L475.9,362.9L474.2,363.6L472.3,370.3L472.4,371.7L472.6,372.8L471.7,374.4L471.0,374.1L471.7,373.0L471.5,372.3L470.4,372.1L469.6,373.4L468.8,374.2L468.1,376.9L466.2,377.4L464.5,378.3L464.7,379.2L463.8,379.9L463.0,379.5L461.8,381.7L460.9,380.9L460.4,381.3L461.2,382.8L460.6,383.4L460.1,383.4L457.6,385.6L458.0,386.5L456.3,392.4L454.5,403.1L454.6,403.7L454.5,405.0L453.7,405.2L452.9,405.5L451.9,406.2L451.2,405.9L450.2,406.4L449.5,406.5L447.9,407.0L445.9,403.0L444.2,402.7L443.0,402.3L442.3,401.8L441.5,401.9L441.3,402.6L440.7,402.8L440.3,403.5L439.2,403.9Z" />
		<path id="L1611126348326" name="烟台市" class="qing-map-1616125066505" d="M588.2,232.0L586.9,231.1L586.4,229.9L584.8,229.2L583.9,228.0L582.9,228.3L581.0,227.5L579.5,230.2L577.9,231.2L576.9,231.2L573.8,232.8L573.1,231.0L574.2,227.0L575.6,226.2L575.0,223.6L574.4,222.0L572.2,222.2L572.2,220.8L571.2,219.4L569.0,218.4L569.6,216.8L568.2,213.8L566.8,214.0L565.0,212.8L564.6,210.2L566.2,208.6L567.2,206.2L568.8,206.4L570.4,206.0L570.8,202.6L568.8,201.2L569.2,199.8L568.4,198.8L568.0,196.6L571.8,195.2L571.6,193.0L569.0,192.6L567.8,191.6L567.2,189.0L566.4,186.6L568.4,182.8L570.2,183.2L570.4,181.0L571.2,179.6L570.8,177.2L568.0,176.6L564.6,177.2L564.2,176.0L564.0,172.8L565.0,169.4L563.6,166.8L561.8,165.0L559.4,167.8L556.6,168.6L555.2,167.8L553.8,169.4L552.4,169.2L551.8,171.2L549.0,170.2L547.4,171.0L546.2,173.4L545.4,171.4L544.8,169.2L543.4,169.4L542.0,169.2L541.4,167.2L540.4,167.4L538.4,168.6L535.6,168.4L535.0,171.4L533.8,172.4L533.6,174.0L533.6,175.4L533.2,177.4L531.8,178.2L529.0,179.2L527.4,180.8L526.0,180.0L522.8,180.6L521.6,180.6L518.2,180.2L516.4,182.4L512.0,180.6L510.8,181.2L509.8,181.0L507.0,182.8L505.0,183.0L502.6,182.4L495.8,182.4L494.6,181.2L492.0,181.6L491.2,183.4L487.0,183.4L485.8,181.8L483.6,182.6L481.6,182.0L479.2,181.6L478.2,181.0L476.4,180.8L477.0,179.1L476.2,178.0L475.0,177.8L473.4,176.5L471.5,176.2L471.1,175.3L472.3,174.4L472.5,173.7L473.5,172.2L473.4,171.1L474.9,169.8L476.1,170.5L476.7,169.9L476.2,169.1L476.5,168.7L477.5,169.5L490.3,168.2L490.3,166.1L492.9,163.9L492.9,163.0L494.3,161.7L496.4,160.7L498.8,159.0L499.2,157.8L500.8,156.2L501.9,155.6L503.5,154.6L504.5,150.8L504.1,148.8L505.2,147.7L503.9,145.4L502.8,143.7L501.5,142.4L500.2,142.5L499.5,141.1L499.2,139.8L499.3,139.3L498.7,138.7L501.7,137.7L504.7,137.7L507.2,137.1L508.4,136.1L508.4,134.8L508.6,134.0L509.3,133.6L512.3,133.6L514.9,132.3L515.4,131.3L518.5,131.2L521.6,130.6L522.2,129.8L522.3,128.7L527.7,126.3L531.3,123.3L534.5,120.6L536.2,118.0L536.9,117.3L539.9,115.1L541.9,113.3L543.6,110.0L543.3,109.6L543.4,107.7L542.9,106.5L544.1,106.0L544.3,104.9L543.1,103.9L542.6,104.1L542.6,105.2L542.0,106.0L541.5,106.0L541.4,104.3L541.9,103.6L541.5,102.9L541.6,102.2L540.1,102.1L539.8,102.5L537.4,102.4L537.3,103.2L535.9,102.4L535.2,102.3L534.7,101.6L535.6,101.2L541.7,101.4L545.8,101.2L548.6,100.2L549.9,99.2L553.2,97.1L554.1,95.7L556.0,94.2L559.9,94.2L560.2,93.8L564.0,93.7L566.8,93.1L568.5,92.6L570.3,91.9L572.2,90.0L573.6,90.3L575.1,89.9L576.9,89.1L581.9,84.9L584.1,84.1L585.1,85.1L587.0,84.9L589.0,85.9L592.5,86.2L593.8,85.4L594.8,84.2L596.1,83.9L597.4,84.1L598.1,85.2L599.5,85.0L600.5,85.7L601.4,85.5L602.8,86.5L602.7,87.6L602.0,87.7L601.5,88.7L601.7,90.1L605.9,93.1L607.8,93.0L608.2,94.3L608.9,95.0L608.6,95.9L610.3,97.9L612.9,98.7L613.9,98.1L616.6,97.9L618.7,98.2L619.2,98.5L620.2,97.9L621.2,98.4L621.7,99.6L621.4,100.4L621.1,102.0L620.1,103.1L620.4,104.4L621.8,104.9L622.5,105.3L622.5,106.5L621.6,106.6L620.8,106.8L620.5,107.4L621.3,107.8L621.2,108.9L620.7,109.2L621.1,110.4L623.6,112.8L628.9,114.5L632.8,114.6L636.6,114.3L639.7,113.6L640.8,113.1L642.5,111.5L642.8,110.3L642.4,109.6L642.0,108.9L641.2,108.7L641.0,107.9L642.5,108.3L643.5,108.7L644.4,109.0L645.4,110.3L648.5,111.7L645.7,112.0L644.7,111.4L643.7,111.5L643.3,112.0L643.6,112.7L645.1,113.3L643.6,113.5L643.5,116.4L644.0,116.9L644.9,115.9L645.3,116.5L644.2,117.8L644.8,118.1L645.2,117.7L646.7,118.8L648.8,119.0L649.6,120.5L650.3,120.9L650.0,121.9L650.2,123.9L652.3,126.6L656.3,129.0L657.4,128.5L657.9,129.3L660.0,130.6L664.2,130.3L664.7,131.3L665.9,130.9L665.8,129.8L667.8,128.8L667.8,131.7L668.4,131.7L668.6,130.4L669.1,130.0L669.5,131.0L670.4,130.8L669.8,129.5L669.8,128.8L669.3,127.9L672.8,128.7L678.2,128.9L678.9,130.4L679.8,131.4L680.2,132.3L680.7,132.3L680.6,131.2L679.5,129.9L679.8,128.8L684.4,128.6L689.0,128.2L695.2,127.1L696.0,129.7L695.2,131.3L694.7,133.8L692.3,135.4L691.8,136.8L691.4,137.5L691.3,138.6L689.9,139.4L690.0,140.9L689.6,142.0L689.6,143.7L686.5,145.1L685.7,146.6L684.0,147.3L682.9,147.0L681.9,151.4L681.2,152.1L681.2,153.2L679.4,153.5L678.7,154.2L678.5,155.5L679.5,157.1L680.1,157.3L680.1,158.5L680.3,159.5L679.1,161.7L680.2,162.1L678.9,164.9L678.7,166.2L677.7,167.3L674.6,168.0L673.0,165.8L671.4,169.1L669.1,167.8L667.8,166.3L666.2,167.1L664.8,165.8L664.0,165.9L663.5,168.8L662.7,169.5L660.9,169.2L659.7,169.4L658.8,170.1L654.9,170.2L653.0,168.9L651.3,168.7L649.9,167.9L648.0,171.3L645.3,171.2L641.3,168.5L641.7,166.5L639.4,167.5L637.9,167.1L636.8,165.7L635.2,167.0L631.7,169.3L630.9,172.0L628.9,172.5L628.1,173.4L626.5,174.3L627.1,177.1L625.9,178.2L626.3,180.0L624.6,181.4L624.9,182.9L626.8,183.7L627.4,184.3L629.3,184.2L629.4,186.6L630.3,187.9L632.0,188.2L631.4,190.0L632.6,191.1L634.1,191.5L634.2,192.3L636.1,192.6L637.5,193.7L641.7,191.8L642.7,195.8L643.4,196.8L641.9,198.3L641.9,201.0L644.7,203.2L644.6,204.7L646.1,207.2L648.9,206.8L652.1,208.8L651.3,209.9L651.0,211.1L648.4,211.8L648.0,211.2L646.4,211.2L644.4,212.8L643.6,215.0L644.5,215.6L645.9,216.6L645.4,217.3L643.9,217.7L642.9,216.4L641.4,215.7L639.7,215.9L637.8,217.1L636.4,216.7L634.7,217.5L631.3,219.2L631.1,221.7L630.1,221.6L630.1,219.3L629.4,218.9L627.7,219.2L624.9,220.6L622.0,222.2L618.9,224.8L616.2,227.4L615.1,227.7L614.0,228.0L612.8,227.4L612.1,228.2L613.1,229.4L611.8,231.0L610.8,231.4L609.5,232.3L608.3,231.9L608.0,230.6L607.2,229.8L605.8,230.2L604.3,231.4L603.0,231.2L601.7,231.2L601.3,230.4L601.6,228.8L602.0,227.5L601.1,226.2L600.7,227.8L600.0,226.8L598.9,226.6L598.2,223.2L597.8,226.9L597.1,225.8L596.4,225.2L596.0,223.9L594.9,224.2L596.2,226.3L593.9,226.3L594.2,227.1L593.2,227.6L592.6,228.2L591.9,228.5L590.9,229.2L589.8,228.7L588.5,227.2L588.3,227.7L588.9,228.8L589.8,229.8L589.7,230.5L588.5,231.1ZM555.1,89.8L555.5,90.9L556.5,89.4ZM571.0,65.5L569.9,66.7L570.7,68.5L572.2,69.5L572.7,68.2L572.4,67.6L572.5,65.8ZM574.7,65.9L574.2,67.8L574.8,67.8L575.2,66.0ZM577.5,70.4L578.2,70.0L578.3,71.6L577.6,71.8ZM578.7,64.7L579.2,64.3L580.5,65.0L581.3,65.1L582.5,67.3L581.9,67.9L581.0,67.4L580.3,67.4L579.4,66.5L579.3,65.8ZM582.8,69.2L583.2,69.2L585.4,72.6L584.9,74.0L585.2,75.9L584.4,75.8L583.1,74.3L582.0,74.2L582.6,73.4L582.4,72.5L582.1,71.9L581.8,70.8ZM601.2,60.2L602.5,61.0L602.6,59.9ZM583.7,40.3L583.4,44.5L586.3,44.6L586.6,43.6L584.4,43.0L584.4,41.6ZM588.9,28.8L590.1,25.9L592.9,25.9L592.5,27.4L590.8,27.5L589.5,29.2ZM593.1,21.1L592.9,22.5L593.9,22.3ZM598.1,17.6L599.8,15.6L600.6,17.0ZM662.8,129.2L663.6,128.0L664.6,127.8L665.7,126.6L666.5,126.5L668.1,124.8L669.2,125.4L668.4,126.5L668.0,128.2L667.1,127.7L666.2,128.2L665.6,128.9L664.5,129.0ZM597.9,19.7L598.6,19.3L598.8,20.1L599.5,20.8L599.1,21.4Z" />
		<path id="L1611127647172" name="威海市" class="qing-map-1616125066505" d="M652.1,208.8L648.9,206.8L646.1,207.2L644.6,204.7L644.7,203.2L641.9,201.0L641.9,198.3L643.4,196.8L642.7,195.8L641.7,191.8L637.5,193.7L636.1,192.6L634.2,192.3L634.1,191.5L632.6,191.1L631.4,190.0L632.0,188.2L630.3,187.9L629.4,186.6L629.3,184.2L627.4,184.3L626.8,183.7L624.9,182.9L624.6,181.4L626.3,180.0L625.9,178.2L627.1,177.1L626.5,174.3L628.1,173.4L628.9,172.5L630.9,172.0L631.7,169.3L635.2,167.0L636.8,165.7L637.9,167.1L639.4,167.5L641.7,166.5L641.3,168.5L645.3,171.2L648.0,171.3L649.9,167.9L651.3,168.7L653.0,168.9L654.9,170.2L658.8,170.1L659.7,169.4L660.9,169.2L662.7,169.5L663.5,168.8L664.0,165.9L664.8,165.8L666.2,167.1L667.8,166.3L669.1,167.8L671.4,169.1L673.0,165.8L674.6,168.0L677.7,167.3L678.7,166.2L678.9,164.9L680.2,162.1L679.1,161.7L680.3,159.5L680.1,158.5L680.1,157.3L679.5,157.1L678.5,155.5L678.7,154.2L679.4,153.5L681.2,153.2L681.2,152.1L681.9,151.4L682.9,147.0L684.0,147.3L685.7,146.6L686.5,145.1L689.6,143.7L689.6,142.0L690.0,140.9L689.9,139.4L691.3,138.6L691.4,137.5L691.8,136.8L692.3,135.4L694.7,133.8L695.2,131.3L696.0,129.7L695.2,127.1L698.2,126.2L698.9,129.5L698.3,129.8L698.8,131.9L699.5,132.0L699.0,130.4L699.9,130.5L700.4,131.3L701.4,131.8L701.5,131.1L699.5,129.0L699.2,128.0L699.6,126.3L699.4,125.6L700.8,125.1L702.3,124.2L702.1,123.5L704.1,122.5L704.7,120.5L706.1,120.4L707.1,119.0L707.8,118.8L708.3,119.5L708.8,119.4L709.5,118.8L709.4,116.6L711.0,118.4L712.0,118.5L713.4,117.6L714.2,117.1L713.6,116.2L714.8,116.9L715.3,117.0L715.4,118.0L716.2,118.5L716.7,118.5L716.9,119.3L716.6,119.8L717.4,120.6L716.4,121.2L715.7,121.7L714.9,121.8L714.3,122.6L714.5,124.0L715.0,124.0L715.5,124.3L715.6,125.1L715.4,126.0L716.5,128.8L717.0,129.2L717.3,130.0L717.7,130.9L718.8,132.0L720.0,131.8L721.0,130.1L721.6,129.0L724.3,128.9L725.0,127.9L725.5,127.8L728.0,128.9L728.4,130.0L727.6,130.1L727.9,131.0L728.6,131.9L730.3,132.9L732.6,133.8L734.8,134.0L736.4,133.8L738.2,133.6L740.1,134.5L743.6,134.2L747.3,132.2L748.2,134.1L747.5,134.4L746.9,135.4L747.8,135.4L748.4,137.0L749.3,137.0L749.4,135.9L748.9,135.3L749.2,134.6L751.8,135.2L754.6,135.4L757.1,135.2L758.6,133.9L760.2,133.0L761.2,133.5L762.2,132.5L762.6,133.4L763.3,133.4L764.5,133.9L765.4,134.2L766.2,133.3L767.3,133.4L768.2,134.2L768.1,134.8L768.9,135.8L768.5,136.1L767.9,136.3L766.9,138.2L765.9,136.7L764.9,136.6L763.8,136.1L761.0,138.3L759.8,138.1L757.7,141.0L757.5,142.7L758.2,143.6L757.8,145.2L756.8,146.0L756.0,145.1L755.2,145.0L755.0,145.4L755.9,146.6L756.5,148.1L754.6,148.9L754.5,149.6L755.5,150.1L755.2,151.8L756.9,152.1L757.8,152.5L758.0,153.4L758.8,154.4L758.5,156.0L760.2,157.7L761.3,159.1L759.7,159.2L758.7,160.8L758.1,160.9L757.8,160.5L757.3,160.4L756.7,160.8L755.8,161.2L755.4,162.4L756.8,162.9L757.3,163.9L757.1,164.8L756.6,165.3L752.3,164.0L749.3,164.4L748.0,165.9L747.0,168.2L746.8,170.1L746.4,170.6L745.6,170.1L746.1,169.3L745.5,168.6L744.9,169.1L744.8,170.1L744.8,170.6L745.3,171.1L745.8,171.0L746.1,173.2L746.4,175.6L744.4,175.8L743.6,177.1L743.1,177.8L743.6,179.4L745.3,178.9L746.1,179.0L746.8,178.3L748.6,179.8L753.5,178.4L754.6,178.0L755.0,177.5L756.1,178.1L755.3,178.5L754.7,178.5L753.5,179.0L753.1,180.9L753.0,182.6L753.8,185.4L752.0,188.3L751.7,189.7L752.8,191.5L752.3,193.1L751.2,194.3L750.3,194.6L749.0,195.3L748.2,194.8L750.2,192.6L750.1,190.6L749.6,190.5L748.9,190.8L748.3,190.7L747.8,191.2L747.0,191.9L746.5,191.2L745.4,191.2L744.6,191.4L743.0,191.5L741.7,192.5L741.7,193.8L742.8,193.7L742.9,195.2L743.8,195.2L744.3,196.1L743.6,197.4L742.8,198.0L741.5,198.6L740.6,198.9L739.6,198.3L738.3,198.5L737.6,199.7L737.9,200.4L736.3,201.9L735.6,201.5L734.4,202.3L733.4,201.7L732.4,202.1L730.6,202.1L730.0,202.0L729.2,202.2L729.0,201.4L727.7,201.0L726.6,201.3L724.5,200.9L723.6,200.2L722.5,200.3L720.8,200.6L720.3,200.2L719.9,199.6L720.9,198.8L720.6,198.0L720.0,197.3L719.7,196.0L720.6,194.7L720.8,193.8L722.0,193.8L723.3,194.0L725.4,194.0L727.5,193.7L727.5,193.3L725.1,193.4L724.2,193.2L723.7,192.8L723.3,193.0L721.4,193.1L720.2,192.5L718.8,194.6L714.4,193.1L716.5,188.4L717.3,188.1L719.3,183.6L718.7,183.1L719.4,181.9L720.5,182.0L721.4,181.8L721.5,180.6L721.7,180.0L721.5,179.1L720.3,179.8L720.5,180.8L719.3,181.1L718.4,181.6L717.3,182.2L717.2,185.2L716.7,185.7L716.7,186.9L716.2,187.3L715.6,188.6L714.3,187.7L711.7,188.5L711.7,189.1L710.9,190.2L711.3,191.9L709.7,192.0L707.7,192.8L706.1,194.1L705.1,193.3L705.0,192.1L705.2,189.0L704.1,187.4L704.0,186.8L703.3,186.5L702.1,185.0L702.1,186.6L700.3,186.9L699.4,185.6L697.9,185.0L697.2,185.1L697.7,185.7L699.3,186.5L699.1,186.9L697.4,186.8L697.7,187.2L698.7,187.5L699.6,188.5L698.2,189.6L695.8,190.3L689.8,192.5L688.7,192.2L688.7,192.8L688.3,192.9L688.1,193.5L686.0,194.1L683.8,195.2L680.5,196.3L678.9,199.2L679.0,200.0L679.2,200.7L677.4,201.7L676.7,202.5L675.4,202.5L674.2,203.4L671.4,203.3L667.6,205.4L667.4,204.3L668.6,203.6L668.9,202.9L668.4,202.7L666.9,203.6L666.5,204.7L667.0,205.9L666.6,206.4L666.5,207.4L667.2,209.1L667.1,210.1L667.9,211.2L668.4,213.0L668.0,213.8L667.0,213.5L664.7,212.9L664.5,210.1L663.7,210.1L662.5,210.5L661.5,209.8L660.0,210.8L661.5,212.2L661.8,213.8L659.3,213.8L659.7,212.7L659.3,211.9L658.2,211.4L657.3,211.9L657.1,211.0L656.6,210.4L655.7,210.9L655.3,210.5L655.6,209.7L655.3,209.3L654.1,209.6L653.5,208.9L654.9,207.4L657.6,206.2L659.8,206.0L659.8,205.2L661.7,203.7L662.3,202.8L662.0,201.9L661.3,201.9L660.6,202.3L657.4,203.7L657.1,204.7L656.0,205.3L655.2,206.3L654.0,206.8L653.9,206.1L654.0,203.7L652.2,203.7L652.8,205.5L652.7,206.6L652.1,207.8ZM719.5,121.5L717.9,122.9L719.0,123.6L721.8,123.5ZM653.8,213.2L654.8,213.9L653.8,215.2L652.8,214.7ZM666.4,214.6L667.5,215.2L666.2,216.9ZM674.2,204.8L673.7,205.6L674.5,206.0L675.5,205.4Z" />
	</g>
</svg>
