<svg xmlns="http://www.w3.org/2000/svg" viewBox="0,0,382,600" width="100%" height="100%">
	<defs>
		<style type="text/css">
.qing-map-1616122465723
{
	fill: #DDDDDD;
	fill-opacity: 1.0;
	stroke: #FFFFFF;
	stroke-opacity: 1.0;
	stroke-width: 1;
}

.qing-map-1616122465723:hover
{
	fill: #56A4FF;
	fill-opacity: 1.0;
}
</style>
	</defs>
	<g>
		<path id="L1611045088348" name="大同市" class="qing-map-1616122465723" d="M315.4,169.2L314.6,164.4L313.6,160.0L315.8,158.4L315.4,156.4L316.2,154.6L314.2,151.6L314.2,149.0L312.6,149.0L311.0,147.0L311.4,144.8L309.4,144.2L307.4,144.8L303.2,144.4L300.8,141.0L295.8,140.2L294.2,138.4L289.8,140.0L286.8,138.2L283.6,133.8L283.0,132.0L283.8,130.6L279.2,126.8L279.6,124.6L277.4,125.0L277.6,123.0L274.0,118.4L275.0,117.0L274.0,115.4L276.2,112.0L270.4,104.6L272.8,101.6L278.8,99.4L273.4,94.4L271.8,94.2L270.2,91.8L268.4,92.0L263.8,89.2L257.6,94.0L255.6,94.4L252.0,93.6L248.2,93.8L243.8,92.8L242.0,94.8L244.0,98.0L243.2,99.4L242.2,98.8L242.4,100.6L237.0,104.2L234.0,103.6L232.8,105.2L232.2,106.4L228.2,106.4L228.6,108.0L225.0,106.6L223.4,108.0L219.8,109.0L218.4,107.0L219.0,103.6L217.2,100.8L218.0,97.2L217.6,92.8L218.8,90.8L221.0,83.8L218.2,78.4L219.4,77.2L216.8,75.6L217.4,74.4L216.2,70.2L219.4,69.8L217.4,66.0L219.6,63.6L227.8,69.8L236.2,66.6L239.6,54.8L264.6,47.0L269.2,55.4L271.8,55.4L273.0,56.0L284.0,54.0L285.4,54.4L287.8,52.0L292.2,47.2L294.4,46.2L295.6,44.0L299.2,41.6L301.2,41.4L303.4,38.8L303.4,36.4L309.2,42.4L312.0,41.0L315.2,36.6L319.4,36.2L321.0,35.4L321.8,36.0L324.6,33.8L323.8,32.2L324.0,30.8L323.4,29.8L322.2,28.6L323.6,23.2L324.0,20.2L323.2,17.6L325.0,16.0L326.4,16.4L327.8,16.0L331.0,19.8L334.2,24.8L333.8,26.2L335.4,28.2L338.0,28.0L339.2,29.6L338.4,31.0L338.2,33.4L339.4,33.8L339.0,35.8L338.0,40.8L338.8,42.4L340.6,43.6L339.2,45.2L340.4,50.8L345.4,51.8L347.4,52.6L349.0,51.2L350.4,50.6L352.6,52.8L355.0,52.2L356.8,53.4L356.2,55.0L354.6,57.6L354.0,59.8L353.2,59.6L349.4,62.0L345.8,62.6L344.4,62.2L342.0,63.4L340.6,65.0L337.6,64.0L334.8,66.2L333.4,67.8L332.0,67.6L329.4,69.4L328.2,68.6L326.4,67.6L323.2,68.6L324.6,73.4L325.8,75.4L324.8,78.8L321.8,80.0L320.4,77.0L319.0,75.2L317.2,75.2L317.2,78.6L315.6,82.4L312.4,83.6L312.4,85.4L315.0,85.4L317.8,86.2L320.4,86.2L321.6,92.6L323.0,92.4L325.2,93.8L329.0,95.2L332.4,94.8L334.0,93.4L334.8,94.8L332.6,97.4L334.8,99.4L338.6,97.6L339.2,99.0L342.6,98.4L346.8,98.2L348.2,101.2L346.6,103.0L348.2,106.8L347.6,117.8L349.4,121.0L349.6,122.4L352.4,122.4L354.8,123.0L355.6,125.0L356.0,126.6L359.0,125.2L359.8,126.6L358.8,128.4L357.4,131.0L357.4,133.6L355.0,134.8L354.6,137.8L352.6,140.4L352.8,146.4L352.4,148.0L349.8,149.6L350.0,152.0L349.6,153.6L350.4,154.6L349.0,156.4L352.4,158.4L352.4,161.2L350.4,161.6L349.6,163.6L347.0,162.4L346.0,163.4L346.6,165.4L345.0,165.6L345.2,168.0L343.8,171.2L341.0,172.6L339.4,172.4L336.8,172.0L334.2,172.6L333.6,174.6L331.0,173.0L329.4,174.4L327.0,174.0L326.0,171.2L323.4,170.8L322.2,166.8L320.2,167.0L317.8,170.0Z" />
		<path id="L1611045860697" name="朔州市" class="qing-map-1616122465723" d="M219.6,63.6L217.4,66.0L219.4,69.8L216.2,70.2L217.4,74.4L216.8,75.6L219.4,77.2L218.2,78.4L221.0,83.8L218.8,90.8L217.6,92.8L218.0,97.2L217.2,100.8L219.0,103.6L218.4,107.0L219.8,109.0L223.4,108.0L225.0,106.6L228.6,108.0L228.2,106.4L232.2,106.4L232.8,105.2L234.0,103.6L237.0,104.2L242.4,100.6L242.2,98.8L243.2,99.4L244.0,98.0L242.0,94.8L243.8,92.8L248.2,93.8L252.0,93.6L255.6,94.4L257.6,94.0L263.8,89.2L268.4,92.0L270.2,91.8L271.8,94.2L273.4,94.4L278.8,99.4L272.8,101.6L270.4,104.6L276.2,112.0L274.0,115.4L275.0,117.0L274.0,118.4L277.6,123.0L277.4,125.0L279.6,124.6L279.2,126.8L283.8,130.6L283.0,132.0L283.6,133.8L286.8,138.2L286.8,141.8L285.4,141.8L283.4,146.4L279.4,147.2L278.8,149.4L277.0,148.0L273.8,151.0L271.8,149.6L270.8,150.4L269.6,149.2L266.0,150.0L260.6,151.4L257.6,150.6L256.2,148.4L255.8,146.4L254.4,145.0L251.2,146.6L248.8,149.4L242.2,151.0L239.2,155.2L237.8,156.8L238.0,159.2L235.6,158.6L233.0,162.0L230.6,160.8L228.4,162.2L228.0,164.2L225.0,167.2L223.0,166.2L221.6,167.8L221.6,169.8L217.0,170.4L216.4,168.6L214.8,168.0L214.4,165.8L212.2,165.6L205.6,169.6L204.0,168.0L201.2,169.0L198.4,167.4L197.0,169.6L195.0,168.8L196.2,167.4L193.6,166.4L193.2,162.6L189.8,162.6L191.0,160.0L188.8,159.6L189.2,158.0L187.6,157.0L188.0,156.0L184.8,153.8L182.6,152.8L181.2,155.6L180.0,153.6L177.8,151.8L179.0,150.4L177.6,149.6L178.0,147.4L175.4,146.4L176.0,144.0L174.6,143.2L175.6,141.6L173.6,137.6L170.6,136.0L168.6,136.0L167.0,131.8L170.4,130.0L174.4,129.6L170.4,124.2L169.6,122.2L170.2,120.4L170.0,118.4L169.2,116.8L173.0,113.0L172.4,111.2L172.2,104.8L176.4,100.4L178.0,96.4L180.0,92.8L183.0,87.6L185.0,82.6L187.4,80.4L187.8,78.0L191.0,73.4L191.6,69.6L196.0,66.2L195.8,64.0L197.4,61.2L199.8,61.4L201.0,60.2L202.6,60.2L204.6,58.2L207.8,57.8Z" />
		<path id="L1611046142050" name="忻州市" class="qing-map-1616122465723" d="M315.4,169.2L314.6,164.4L313.6,160.0L315.8,158.4L315.4,156.4L316.2,154.6L314.2,151.6L314.2,149.0L312.6,149.0L311.0,147.0L311.4,144.8L309.4,144.2L307.4,144.8L303.2,144.4L300.8,141.0L295.8,140.2L294.2,138.4L289.8,140.0L286.8,138.2L286.8,141.8L285.4,141.8L283.4,146.4L279.4,147.2L278.8,149.4L277.0,148.0L273.8,151.0L271.8,149.6L270.8,150.4L269.6,149.2L266.0,150.0L260.6,151.4L257.6,150.6L256.2,148.4L255.8,146.4L254.4,145.0L251.2,146.6L248.8,149.4L242.2,151.0L239.2,155.2L237.8,156.8L238.0,159.2L235.6,158.6L233.0,162.0L230.6,160.8L228.4,162.2L228.0,164.2L225.0,167.2L223.0,166.2L221.6,167.8L221.6,169.8L217.0,170.4L216.4,168.6L214.8,168.0L214.4,165.8L212.2,165.6L205.6,169.6L204.0,168.0L201.2,169.0L198.4,167.4L197.0,169.6L195.0,168.8L196.2,167.4L193.6,166.4L193.2,162.6L189.8,162.6L191.0,160.0L188.8,159.6L189.2,158.0L187.6,157.0L188.0,156.0L184.8,153.8L182.6,152.8L181.2,155.6L180.0,153.6L177.8,151.8L179.0,150.4L177.6,149.6L178.0,147.4L175.4,146.4L176.0,144.0L174.6,143.2L175.6,141.6L173.6,137.6L170.6,136.0L168.6,136.0L167.0,131.8L170.4,130.0L174.4,129.6L170.4,124.2L169.6,122.2L167.2,121.4L165.4,122.6L162.4,121.2L158.8,124.2L154.6,123.0L152.6,120.8L148.6,119.0L147.6,120.2L144.6,119.0L142.8,119.4L140.0,117.6L134.4,119.0L135.4,120.8L135.2,122.2L134.0,121.4L133.2,121.8L134.0,123.6L133.4,126.6L132.6,128.4L133.4,131.0L130.8,133.2L128.6,134.6L128.0,138.4L126.6,140.0L123.4,140.0L115.2,140.2L111.2,142.8L111.2,144.6L113.0,144.2L114.0,145.6L113.6,147.6L115.0,146.6L116.2,147.2L115.4,149.4L117.2,150.6L119.6,150.8L118.6,152.4L117.8,155.2L118.6,156.6L116.2,161.2L114.2,164.6L115.0,165.8L113.0,170.2L112.8,172.2L108.2,176.6L104.8,176.8L101.0,181.2L103.6,186.0L104.0,189.8L102.0,191.6L103.2,193.8L101.6,198.2L99.2,200.0L99.6,202.4L98.4,204.8L99.2,208.8L101.2,208.0L103.0,211.4L107.4,207.6L109.2,207.4L111.2,205.0L113.4,204.8L115.6,203.8L117.8,204.6L119.0,209.4L120.8,211.6L120.2,213.8L121.2,216.0L123.0,216.2L123.8,215.0L126.8,215.6L127.2,217.4L129.4,218.4L134.4,218.8L135.0,223.4L138.0,225.8L138.2,223.2L139.6,222.8L142.4,225.0L146.0,221.2L152.8,219.0L154.6,215.2L158.2,222.0L153.8,224.6L158.8,228.8L159.6,231.4L158.4,232.6L159.8,234.4L159.0,236.0L161.4,236.8L162.2,239.2L161.6,240.6L163.0,242.2L162.0,244.0L159.4,243.8L157.8,245.2L159.0,248.8L161.0,251.0L162.8,251.4L163.2,250.0L165.2,251.4L165.4,253.0L167.4,253.0L168.4,254.8L170.4,255.2L173.4,254.6L175.0,253.6L178.0,255.0L179.6,255.6L181.6,255.4L183.4,257.6L184.6,257.0L187.2,257.8L189.6,258.6L192.2,257.8L193.8,255.4L193.4,253.8L193.4,251.4L191.6,249.8L190.2,247.8L194.0,246.0L191.8,244.6L194.0,242.4L195.8,243.2L198.0,242.8L200.2,246.0L203.4,247.0L205.8,245.8L207.8,248.6L210.0,248.8L212.2,248.0L212.0,246.4L214.8,249.6L214.4,251.4L215.2,252.2L217.6,252.0L219.2,252.0L220.8,250.6L220.6,248.6L223.8,249.0L227.6,248.8L231.6,248.4L235.0,243.4L239.8,242.2L241.6,240.6L244.8,238.8L245.2,240.0L249.4,235.8L252.0,235.8L252.8,232.8L256.4,233.0L261.2,232.8L263.4,231.2L265.0,231.0L267.4,228.2L270.4,226.4L273.4,225.2L277.2,223.2L279.6,224.6L283.2,223.2L286.2,223.8L286.0,220.4L290.6,216.2L289.8,213.0L291.8,211.4L294.6,211.6L297.0,211.8L298.0,210.4L298.0,205.4L300.6,206.6L302.0,206.2L302.4,204.4L304.2,201.4L307.0,201.6L306.4,198.0L308.0,196.0L307.8,194.6L305.0,193.2L302.8,189.8L302.4,186.6L302.0,183.4L302.8,180.0L305.0,179.8L305.4,178.4L309.8,174.2L310.4,172.4L312.8,173.2Z" />
		<path id="L1611053252296" name="太原市" class="qing-map-1616122465723" d="M198.0,320.4L195.2,317.2L196.8,316.0L194.2,314.0L196.0,312.8L195.2,310.6L191.2,310.2L190.0,308.4L186.8,304.2L186.8,301.4L182.0,297.4L177.0,297.8L175.6,296.4L171.8,297.4L171.0,295.4L169.2,295.8L167.2,289.2L165.0,290.2L161.4,290.0L160.6,288.4L158.0,286.2L156.0,283.0L152.6,281.8L150.8,283.2L143.2,285.0L143.6,282.6L141.8,281.4L144.2,280.6L143.8,279.4L144.0,277.8L142.2,276.4L141.0,272.0L139.6,269.2L140.8,267.4L139.6,266.4L140.0,265.0L142.0,263.6L143.0,262.2L147.4,262.6L148.6,260.2L154.0,257.2L153.8,255.0L157.2,254.6L161.0,251.0L162.8,251.4L163.2,250.0L165.2,251.4L165.4,253.0L167.4,253.0L168.4,254.8L170.4,255.2L173.4,254.6L175.0,253.6L178.0,255.0L179.6,255.6L181.6,255.4L183.4,257.6L184.6,257.0L187.2,257.8L189.6,258.6L192.2,257.8L193.8,255.4L193.4,253.8L193.4,251.4L191.6,249.8L190.2,247.8L194.0,246.0L191.8,244.6L194.0,242.4L195.8,243.2L198.0,242.8L200.2,246.0L203.4,247.0L205.8,245.8L207.8,248.6L210.0,248.8L212.2,248.0L212.0,246.4L214.8,249.6L214.4,251.4L215.2,252.2L217.6,252.0L219.2,252.0L220.8,250.6L220.6,248.6L223.8,249.0L227.6,248.8L231.6,248.4L235.0,243.4L239.8,242.2L241.6,240.6L244.8,238.8L245.2,240.0L249.4,235.8L252.0,235.8L252.8,232.8L256.4,233.0L257.0,235.2L256.8,237.8L258.0,240.0L255.8,242.0L254.6,242.6L251.8,242.8L250.6,245.6L248.0,247.6L244.4,250.0L242.2,254.6L242.2,256.4L240.8,256.6L242.4,258.4L243.4,257.6L244.0,260.0L247.2,263.2L249.4,263.0L251.4,266.0L248.0,266.6L247.2,267.8L248.2,268.8L246.0,270.6L244.4,269.4L242.6,271.8L240.4,271.4L238.4,271.0L236.0,271.4L234.0,270.8L233.4,272.8L230.2,275.4L230.4,277.6L229.8,279.2L231.0,282.8L228.4,282.0L227.4,283.8L223.6,287.4L224.0,289.8L221.4,291.6L223.2,295.2L221.8,296.0L221.6,297.6L219.4,298.2L220.0,299.6L217.8,301.2L219.0,303.8L216.2,304.4L216.4,307.6L218.0,311.2L219.6,313.6L217.4,314.2L217.2,316.0L214.4,315.0L211.2,315.8L210.8,318.2L208.4,319.2L206.2,318.4L206.0,320.4L202.8,319.8L202.2,317.8L200.2,317.6L200.0,320.0Z" />
		<path id="L1611048016535" name="吕梁市" class="qing-map-1616122465723" d="M98.4,204.8L99.2,208.8L101.2,208.0L103.0,211.4L107.4,207.6L109.2,207.4L111.2,205.0L113.4,204.8L115.6,203.8L117.8,204.6L119.0,209.4L120.8,211.6L120.2,213.8L121.2,216.0L123.0,216.2L123.8,215.0L126.8,215.6L127.2,217.4L129.4,218.4L134.4,218.8L135.0,223.4L138.0,225.8L138.2,223.2L139.6,222.8L142.4,225.0L146.0,221.2L152.8,219.0L154.6,215.2L158.2,222.0L153.8,224.6L158.8,228.8L159.6,231.4L158.4,232.6L159.8,234.4L159.0,236.0L161.4,236.8L162.2,239.2L161.6,240.6L163.0,242.2L162.0,244.0L159.4,243.8L157.8,245.2L159.0,248.8L161.0,251.0L157.2,254.6L153.8,255.0L154.0,257.2L148.6,260.2L147.4,262.6L143.0,262.2L142.0,263.6L140.0,265.0L139.6,266.4L140.8,267.4L139.6,269.2L141.0,272.0L142.2,276.4L144.0,277.8L143.8,279.4L144.2,280.6L141.8,281.4L143.6,282.6L143.2,285.0L150.8,283.2L152.6,281.8L156.0,283.0L158.0,286.2L160.6,288.4L161.4,290.0L165.0,290.2L167.2,289.2L169.2,295.8L171.0,295.4L171.8,297.4L175.6,296.4L177.0,297.8L182.0,297.4L186.8,301.4L186.8,304.2L190.0,308.4L191.2,310.2L195.2,310.6L196.0,312.8L194.2,314.0L196.8,316.0L195.2,317.2L198.0,320.4L193.6,323.6L185.6,336.2L184.4,338.0L183.6,337.4L182.8,335.2L181.6,334.4L180.2,333.2L178.6,334.0L177.6,336.6L175.4,337.2L173.0,337.2L172.6,339.2L170.4,339.0L171.2,341.0L170.2,342.8L170.8,345.8L169.8,348.6L168.2,354.0L166.6,354.0L166.8,356.4L164.6,357.2L163.6,358.4L162.6,357.8L160.6,359.4L158.6,359.6L156.4,360.4L155.4,363.0L154.0,362.4L152.0,362.2L151.6,364.6L149.0,365.4L148.0,367.2L146.2,365.6L144.8,365.8L142.8,364.4L140.4,364.2L141.0,362.2L138.8,362.8L139.0,364.8L141.4,366.8L141.6,368.4L144.2,368.8L141.8,372.0L136.0,374.6L134.8,376.0L132.6,375.8L131.6,379.6L129.0,382.2L127.2,383.6L125.2,383.8L125.4,385.8L122.4,385.8L122.4,383.6L120.2,383.2L118.8,385.4L117.2,380.8L115.6,378.0L115.8,376.2L112.8,375.6L111.0,377.0L108.6,376.8L107.4,374.6L108.4,369.6L105.2,368.0L103.2,370.4L101.4,367.8L101.6,370.4L100.4,371.8L98.4,370.4L96.0,371.8L94.2,372.6L92.8,374.0L90.0,375.2L88.4,374.0L87.0,374.6L86.2,372.2L85.0,370.2L83.0,370.4L82.0,368.2L79.2,367.8L76.8,368.2L76.6,370.6L77.2,372.8L75.6,373.4L73.0,373.6L70.6,374.4L67.6,373.4L65.4,373.0L62.6,371.8L60.6,371.4L61.2,366.6L60.4,364.0L58.0,361.4L58.6,360.0L61.6,362.0L62.8,361.0L62.4,359.8L60.8,359.4L62.0,358.8L63.2,358.2L66.6,354.4L69.0,352.2L69.4,349.4L74.4,343.4L77.8,338.8L77.8,337.2L80.4,336.6L79.4,333.4L80.8,331.4L76.8,329.0L75.6,327.4L76.6,324.6L77.6,323.0L83.2,321.8L85.0,320.2L85.0,316.6L85.8,313.4L87.4,311.2L86.6,308.8L85.8,303.8L88.0,302.6L86.0,299.4L84.0,299.4L81.6,297.4L85.2,294.4L80.0,290.2L78.6,288.8L72.8,277.8L68.2,274.4L68.6,272.0L67.2,269.4L67.6,265.4L66.6,262.4L68.4,259.6L66.8,255.0L68.4,252.4L70.8,252.6L71.6,248.2L72.6,243.6L76.8,243.4L80.8,239.8L84.4,238.2L87.4,230.4L90.4,230.8L93.0,229.8L93.2,224.2L95.2,223.6L96.0,219.8L97.4,218.2L95.6,216.8L94.4,214.8L95.4,211.0L96.6,209.6L96.6,207.0Z" />
		<path id="L1611107352379" name="临汾市" class="qing-map-1616122465723" d="M60.6,371.4L62.6,371.8L65.4,373.0L67.6,373.4L70.6,374.4L73.0,373.6L75.6,373.4L77.2,372.8L76.6,370.6L76.8,368.2L79.2,367.8L82.0,368.2L83.0,370.4L85.0,370.2L86.2,372.2L87.0,374.6L88.4,374.0L90.0,375.2L92.8,374.0L94.2,372.6L96.0,371.8L98.4,370.4L100.4,371.8L101.6,370.4L101.4,367.8L103.2,370.4L105.2,368.0L108.4,369.6L107.4,374.6L108.6,376.8L111.0,377.0L112.8,375.6L115.8,376.2L115.6,378.0L117.2,380.8L118.8,385.4L120.2,383.2L122.4,383.6L122.4,385.8L125.4,385.8L125.2,383.8L127.2,383.6L129.0,382.2L131.6,379.6L134.0,382.6L136.6,382.0L137.8,380.0L141.4,381.8L141.0,384.0L143.0,387.2L146.8,389.6L147.0,391.0L148.8,390.8L151.6,394.2L151.8,391.8L150.8,389.8L156.8,387.2L158.2,388.6L160.8,388.2L162.8,388.0L163.0,389.0L165.2,388.0L170.0,388.4L173.6,391.2L175.6,390.0L176.0,392.8L177.6,394.6L176.8,396.6L177.8,399.2L180.6,399.8L184.4,404.8L186.4,405.0L186.8,407.0L188.2,408.2L187.4,409.2L188.4,412.4L189.4,413.6L189.8,415.2L192.4,414.8L195.0,417.2L198.8,419.6L199.2,421.2L204.4,420.6L205.4,421.2L206.8,421.6L207.2,424.2L208.4,425.6L208.6,427.6L210.0,427.8L212.2,428.4L214.4,428.6L215.2,427.4L215.8,429.2L214.8,431.4L216.0,434.4L214.0,437.2L215.6,439.0L215.0,441.2L212.0,442.8L209.8,445.8L210.4,448.6L212.2,448.8L212.8,454.0L210.4,455.2L206.8,457.4L205.2,459.8L203.0,460.6L201.4,461.4L199.8,460.4L195.8,461.0L194.6,459.8L192.2,460.6L190.2,460.2L188.4,458.4L186.2,460.6L184.6,459.8L184.8,461.4L185.6,463.0L186.8,462.6L189.0,463.6L190.0,466.0L188.4,467.8L185.0,467.6L179.6,465.8L177.2,463.4L177.4,466.6L176.0,467.8L178.4,471.6L175.8,474.2L176.8,476.6L176.0,479.2L174.0,480.6L171.8,481.0L171.4,484.2L170.0,485.2L170.4,487.2L170.6,489.2L172.2,490.2L171.2,492.6L171.8,494.6L170.6,495.2L171.4,496.8L171.8,498.8L172.4,502.0L169.2,506.2L165.6,506.0L164.0,505.8L163.0,501.8L161.2,502.2L163.0,500.2L162.6,498.2L164.0,495.2L165.8,494.6L168.0,492.8L163.8,491.2L162.4,489.4L163.8,487.6L159.8,487.4L154.0,483.4L151.2,483.6L148.8,483.6L146.2,484.4L145.6,487.6L143.8,488.8L144.8,491.2L143.2,491.2L141.4,489.8L138.0,490.4L133.6,490.8L131.4,490.2L128.8,491.0L126.8,491.0L124.2,493.4L122.2,491.2L122.8,489.6L121.4,486.2L121.6,484.2L123.0,484.4L124.2,482.6L123.2,480.8L126.0,480.2L127.0,480.8L126.6,478.6L126.8,476.8L124.0,477.8L122.6,478.0L122.2,479.8L120.4,479.6L119.4,477.8L116.8,477.4L115.8,472.4L114.2,471.6L113.4,469.4L110.6,468.0L109.2,468.2L109.0,469.8L107.6,471.0L108.0,472.4L106.6,473.6L106.6,474.4L103.0,475.0L102.0,474.6L102.2,473.4L100.8,469.2L98.4,471.8L99.0,473.8L98.4,476.8L96.4,478.4L91.4,476.4L84.6,475.2L80.4,475.6L79.2,475.2L80.8,473.2L79.2,472.2L77.6,470.8L75.6,471.0L72.0,475.0L71.8,470.4L70.4,466.4L70.0,462.8L67.4,462.0L67.6,458.2L66.8,457.0L67.6,454.6L66.0,452.6L66.2,449.6L64.4,445.2L64.4,442.6L62.6,436.4L63.8,433.6L63.4,431.6L64.6,428.6L64.2,425.4L63.8,422.4L64.0,419.4L65.2,417.2L66.2,414.2L65.0,411.4L66.6,408.8L65.6,402.6L65.8,399.6L62.6,395.6L61.0,391.8L59.2,391.0L59.0,389.8L61.0,390.8L61.6,388.4L62.8,386.8L62.4,385.6L61.4,386.4L60.4,386.4L61.0,385.4L61.6,384.2L61.0,383.4L60.0,383.0L58.6,383.2L59.0,382.0L60.2,381.2L60.8,379.6L60.2,377.4L61.0,376.6L60.6,375.2L60.0,374.0L58.0,372.8Z" />
		<path id="L1611108887233" name="运城市" class="qing-map-1616122465723" d="M72.0,475.0L75.6,471.0L77.6,470.8L79.2,472.2L80.8,473.2L79.2,475.2L80.4,475.6L84.6,475.2L91.4,476.4L96.4,478.4L98.4,476.8L99.0,473.8L98.4,471.8L100.8,469.2L102.2,473.4L102.0,474.6L103.0,475.0L106.6,474.4L106.6,473.6L108.0,472.4L107.6,471.0L109.0,469.8L109.2,468.2L110.6,468.0L113.4,469.4L114.2,471.6L115.8,472.4L116.8,477.4L119.4,477.8L120.4,479.6L122.2,479.8L122.6,478.0L124.0,477.8L126.8,476.8L126.6,478.6L127.0,480.8L126.0,480.2L123.2,480.8L124.2,482.6L123.0,484.4L121.6,484.2L121.4,486.2L122.8,489.6L122.2,491.2L124.2,493.4L126.8,491.0L128.8,491.0L131.4,490.2L133.6,490.8L138.0,490.4L141.4,489.8L143.2,491.2L144.8,491.2L143.8,488.8L145.6,487.6L146.2,484.4L148.8,483.6L151.2,483.6L154.0,483.4L159.8,487.4L163.8,487.6L162.4,489.4L163.8,491.2L168.0,492.8L165.8,494.6L164.0,495.2L162.6,498.2L163.0,500.2L161.2,502.2L163.0,501.8L164.0,505.8L165.6,506.0L169.2,506.2L172.4,502.0L174.6,505.2L176.2,506.0L176.2,509.4L178.2,510.0L178.6,511.4L179.4,512.2L178.6,515.0L180.0,518.6L180.2,520.8L177.2,522.6L179.0,527.0L178.0,531.8L179.0,533.8L178.0,536.4L176.8,534.8L172.6,533.8L171.6,533.0L168.4,533.2L165.4,534.0L162.6,533.6L161.4,534.2L159.8,537.0L158.4,537.6L157.2,538.6L155.2,539.8L150.8,540.8L151.4,544.2L148.8,546.0L146.8,548.6L145.2,550.4L143.4,553.6L141.4,553.0L137.6,555.0L136.0,555.8L134.2,554.4L130.8,556.4L126.8,555.0L123.4,556.8L120.8,556.0L118.4,559.0L113.8,556.4L110.8,560.6L106.2,562.2L100.6,566.0L97.0,563.6L95.8,567.8L93.0,571.6L91.2,571.8L89.4,573.0L86.0,570.6L84.2,571.0L82.6,572.6L80.8,574.8L79.6,574.6L78.2,576.2L74.8,574.6L71.2,576.2L69.0,576.6L64.2,573.6L60.6,576.0L55.8,575.0L52.2,574.8L49.0,572.0L47.8,570.0L49.2,563.6L48.6,556.8L47.8,546.6L53.8,538.2L59.0,516.4L63.6,510.2L65.8,503.6L69.6,498.4L72.6,489.0L74.6,485.6L74.6,483.0L73.2,480.6Z" />
		<path id="L1611045307643" name="阳泉市" class="qing-map-1616122465723" d="M286.2,223.8L283.2,223.2L279.6,224.6L277.2,223.2L273.4,225.2L270.4,226.4L267.4,228.2L265.0,231.0L263.4,231.2L261.2,232.8L256.4,233.0L257.0,235.2L256.8,237.8L258.0,240.0L255.8,242.0L254.6,242.6L251.8,242.8L250.6,245.6L248.0,247.6L244.4,250.0L242.2,254.6L242.2,256.4L240.8,256.6L242.4,258.4L243.4,257.6L244.0,260.0L247.2,263.2L249.4,263.0L251.4,266.0L253.4,266.4L255.2,263.8L258.0,266.6L260.0,266.0L261.8,262.8L265.2,263.4L264.6,266.0L265.8,268.6L267.4,269.2L266.8,271.0L267.8,272.4L270.0,272.2L271.0,273.8L270.0,277.0L270.4,281.4L272.2,283.0L273.4,286.4L275.4,287.4L276.6,291.0L278.2,292.6L278.4,295.0L280.2,296.8L281.6,298.8L284.0,298.8L285.6,301.2L288.8,301.2L290.6,300.0L292.6,302.2L296.2,301.0L297.4,299.6L301.4,300.0L302.0,301.4L307.2,300.6L310.0,297.8L314.4,299.0L317.0,300.6L318.6,297.8L319.0,294.6L321.4,294.2L321.4,290.6L319.0,289.2L318.0,288.0L316.2,287.2L316.0,284.6L316.6,283.0L315.4,280.0L313.8,278.0L312.8,276.2L311.2,272.4L308.6,271.2L309.8,267.8L309.0,265.8L307.2,263.0L305.2,261.0L305.0,257.6L305.8,256.2L303.6,256.6L299.0,255.4L299.2,253.8L298.0,253.4L297.8,251.6L296.0,252.6L293.6,249.8L292.0,249.8L287.2,249.2L285.6,247.8L285.2,244.2L286.8,240.4L284.8,238.2L284.2,236.4L285.2,232.4L286.6,232.0L287.0,229.8L289.2,229.2L286.8,226.2Z" />
		<path id="L1611059012417" name="晋中市" class="qing-map-1616122465723" d="M318.6,297.8L317.0,300.6L314.4,299.0L310.0,297.8L307.2,300.6L302.0,301.4L301.4,300.0L297.4,299.6L296.2,301.0L292.6,302.2L290.6,300.0L288.8,301.2L285.6,301.2L284.0,298.8L281.6,298.8L280.2,296.8L278.4,295.0L278.2,292.6L276.6,291.0L275.4,287.4L273.4,286.4L272.2,283.0L270.4,281.4L270.0,277.0L271.0,273.8L270.0,272.2L267.8,272.4L266.8,271.0L267.4,269.2L265.8,268.6L264.6,266.0L265.2,263.4L261.8,262.8L260.0,266.0L258.0,266.6L255.2,263.8L253.4,266.4L251.4,266.0L248.0,266.6L247.2,267.8L248.2,268.8L246.0,270.6L244.4,269.4L242.6,271.8L240.4,271.4L238.4,271.0L236.0,271.4L234.0,270.8L233.4,272.8L230.2,275.4L230.4,277.6L229.8,279.2L231.0,282.8L228.4,282.0L227.4,283.8L223.6,287.4L224.0,289.8L221.4,291.6L223.2,295.2L221.8,296.0L221.6,297.6L219.4,298.2L220.0,299.6L217.8,301.2L219.0,303.8L216.2,304.4L216.4,307.6L218.0,311.2L219.6,313.6L217.4,314.2L217.2,316.0L214.4,315.0L211.2,315.8L210.8,318.2L208.4,319.2L206.2,318.4L206.0,320.4L202.8,319.8L202.2,317.8L200.2,317.6L200.0,320.0L198.0,320.4L193.6,323.6L185.6,336.2L184.4,338.0L183.6,337.4L182.8,335.2L181.6,334.4L180.2,333.2L178.6,334.0L177.6,336.6L175.4,337.2L173.0,337.2L172.6,339.2L170.4,339.0L171.2,341.0L170.2,342.8L170.8,345.8L169.8,348.6L168.2,354.0L166.6,354.0L166.8,356.4L164.6,357.2L163.6,358.4L162.6,357.8L160.6,359.4L158.6,359.6L156.4,360.4L155.4,363.0L154.0,362.4L152.0,362.2L151.6,364.6L149.0,365.4L148.0,367.2L146.2,365.6L144.8,365.8L142.8,364.4L140.4,364.2L141.0,362.2L138.8,362.8L139.0,364.8L141.4,366.8L141.6,368.4L144.2,368.8L141.8,372.0L136.0,374.6L134.8,376.0L132.6,375.8L131.6,379.6L134.0,382.6L136.6,382.0L137.8,380.0L141.4,381.8L141.0,384.0L143.0,387.2L146.8,389.6L147.0,391.0L148.8,390.8L151.6,394.2L151.8,391.8L150.8,389.8L156.8,387.2L158.2,388.6L160.8,388.2L162.8,388.0L163.0,389.0L165.2,388.0L170.0,388.4L173.6,391.2L174.4,387.4L175.6,384.8L173.6,383.0L173.6,379.2L175.2,378.0L174.8,376.4L175.8,375.0L176.0,373.2L177.0,372.8L179.4,373.0L181.2,371.8L179.6,370.0L181.2,367.6L179.0,365.2L182.8,363.6L184.2,363.6L185.4,362.2L187.6,361.0L188.6,361.6L190.2,361.2L190.8,363.0L193.6,364.4L195.4,365.8L196.6,365.4L198.6,367.8L200.0,366.6L203.0,366.6L205.6,368.2L207.6,367.0L208.6,366.2L210.6,366.6L212.0,366.0L213.8,365.2L213.6,363.2L212.4,362.8L210.8,359.0L208.8,357.8L209.8,356.0L209.4,354.0L206.4,351.6L211.8,350.6L212.2,352.0L213.8,353.4L216.8,354.4L218.6,353.2L220.0,352.6L220.8,351.0L222.4,352.6L227.4,355.2L227.6,357.6L230.8,360.0L230.8,362.0L235.8,361.4L236.0,362.6L238.0,364.0L236.8,367.4L238.6,368.2L237.4,370.6L239.8,374.0L243.8,371.4L243.6,370.2L247.0,368.4L252.2,369.0L253.6,369.6L254.6,368.8L257.0,368.4L257.2,367.2L259.0,366.6L259.8,368.6L261.8,367.2L262.8,368.2L266.6,366.2L267.4,363.8L270.0,366.8L272.8,367.8L273.4,371.0L272.4,373.0L276.0,374.6L280.2,378.2L283.0,379.6L283.0,382.4L285.6,384.0L287.6,383.6L289.4,384.2L294.8,380.4L294.8,379.4L295.6,378.4L295.0,375.8L296.2,372.8L297.8,372.6L300.0,375.4L301.2,374.6L302.8,374.0L302.8,373.0L304.4,372.6L302.8,369.8L302.8,368.2L301.6,367.6L301.0,366.0L303.0,364.8L302.2,363.8L304.0,362.8L301.6,360.8L303.4,357.0L302.0,355.6L302.0,348.0L304.2,348.2L306.2,346.4L309.6,339.8L310.0,337.4L311.8,336.8L311.2,333.8L313.2,330.6L314.6,331.4L315.4,328.0L317.4,324.2L320.4,322.8L320.8,319.4L322.6,315.8L323.6,315.4L324.2,313.8L325.6,312.6L325.4,311.4L326.2,310.6L327.8,308.0L327.8,306.2L326.2,305.6L327.4,304.4L328.2,303.6L328.6,302.0L328.0,299.0L327.0,297.8L325.0,297.2L322.2,296.0L321.0,296.8Z" />
		<path id="L1611108273717" name="长治市" class="qing-map-1616122465723" d="M285.6,384.0L283.0,382.4L283.0,379.6L280.2,378.2L276.0,374.6L272.4,373.0L273.4,371.0L272.8,367.8L270.0,366.8L267.4,363.8L266.6,366.2L262.8,368.2L261.8,367.2L259.8,368.6L259.0,366.6L257.2,367.2L257.0,368.4L254.6,368.8L253.6,369.6L252.2,369.0L247.0,368.4L243.6,370.2L243.8,371.4L239.8,374.0L237.4,370.6L238.6,368.2L236.8,367.4L238.0,364.0L236.0,362.6L235.8,361.4L230.8,362.0L230.8,360.0L227.6,357.6L227.4,355.2L222.4,352.6L220.8,351.0L220.0,352.6L218.6,353.2L216.8,354.4L213.8,353.4L212.2,352.0L211.8,350.6L206.4,351.6L209.4,354.0L209.8,356.0L208.8,357.8L210.8,359.0L212.4,362.8L213.6,363.2L213.8,365.2L212.0,366.0L210.6,366.6L208.6,366.2L207.6,367.0L205.6,368.2L203.0,366.6L200.0,366.6L198.6,367.8L196.6,365.4L195.4,365.8L193.6,364.4L190.8,363.0L190.2,361.2L188.6,361.6L187.6,361.0L185.4,362.2L184.2,363.6L182.8,363.6L179.0,365.2L181.2,367.6L179.6,370.0L181.2,371.8L179.4,373.0L177.0,372.8L176.0,373.2L175.8,375.0L174.8,376.4L175.2,378.0L173.6,379.2L173.6,383.0L175.6,384.8L174.4,387.4L173.6,391.2L175.6,390.0L176.0,392.8L177.6,394.6L176.8,396.6L177.8,399.2L180.6,399.8L184.4,404.8L186.4,405.0L186.8,407.0L188.2,408.2L187.4,409.2L188.4,412.4L189.4,413.6L189.8,415.2L192.4,414.8L195.0,417.2L198.8,419.6L199.2,421.2L204.4,420.6L205.4,421.2L206.8,421.6L207.2,424.2L208.4,425.6L208.6,427.6L210.0,427.8L212.2,428.4L214.4,428.6L215.2,427.4L215.8,429.2L214.8,431.4L216.0,434.4L214.0,437.2L215.6,439.0L215.0,441.2L212.0,442.8L209.8,445.8L210.4,448.6L212.2,448.8L215.0,448.2L218.0,446.2L221.4,447.4L223.6,451.4L225.4,450.4L227.8,452.6L231.0,452.0L231.6,453.4L234.6,452.8L237.6,454.4L237.2,456.6L240.0,458.2L243.4,458.4L246.4,458.2L248.0,459.2L249.4,459.4L250.2,461.2L252.6,461.4L257.2,463.2L261.0,461.0L262.8,461.8L264.0,461.2L266.2,463.6L270.4,461.8L273.8,464.0L273.4,465.2L276.0,466.2L278.0,464.0L281.2,463.8L282.8,465.2L285.0,465.0L288.4,467.6L291.0,466.8L292.0,467.2L293.8,467.2L293.8,465.2L292.8,464.0L293.2,461.8L293.2,460.0L293.2,458.2L293.8,457.0L293.0,455.2L292.4,453.4L293.0,452.4L295.0,453.4L296.6,452.4L295.8,450.2L297.6,449.8L293.8,448.8L294.8,447.4L295.8,446.2L294.2,440.2L297.0,440.0L296.8,438.2L293.4,436.0L296.4,435.2L295.8,434.0L296.8,434.0L295.4,432.2L297.2,431.0L296.4,428.8L298.0,428.8L297.4,424.8L299.4,423.0L298.6,421.8L299.8,419.8L298.8,419.2L299.2,418.0L297.4,415.8L297.6,414.0L295.8,414.0L293.2,413.2L291.4,410.8L289.6,411.0L288.6,409.0L286.6,407.0L286.8,404.8L286.6,403.8L288.8,402.0L284.8,398.8L285.4,396.2L281.0,394.6L280.6,393.4L282.6,390.4L283.2,388.8L280.4,388.2L280.4,386.8L281.0,386.0L282.6,385.6L283.4,386.2Z" />
		<path id="L1611109135823" name="晋城市" class="qing-map-1616122465723" d="M288.4,467.6L285.0,465.0L282.8,465.2L281.2,463.8L278.0,464.0L276.0,466.2L273.4,465.2L273.8,464.0L270.4,461.8L266.2,463.6L264.0,461.2L262.8,461.8L261.0,461.0L257.2,463.2L252.6,461.4L250.2,461.2L249.4,459.4L248.0,459.2L246.4,458.2L243.4,458.4L240.0,458.2L237.2,456.6L237.6,454.4L234.6,452.8L231.6,453.4L231.0,452.0L227.8,452.6L225.4,450.4L223.6,451.4L221.4,447.4L218.0,446.2L215.0,448.2L212.2,448.8L212.8,454.0L210.4,455.2L206.8,457.4L205.2,459.8L203.0,460.6L201.4,461.4L199.8,460.4L195.8,461.0L194.6,459.8L192.2,460.6L190.2,460.2L188.4,458.4L186.2,460.6L184.6,459.8L184.8,461.4L185.6,463.0L186.8,462.6L189.0,463.6L190.0,466.0L188.4,467.8L185.0,467.6L179.6,465.8L177.2,463.4L177.4,466.6L176.0,467.8L178.4,471.6L175.8,474.2L176.8,476.6L176.0,479.2L174.0,480.6L171.8,481.0L171.4,484.2L170.0,485.2L170.4,487.2L170.6,489.2L172.2,490.2L171.2,492.6L171.8,494.6L170.6,495.2L171.4,496.8L171.8,498.8L172.4,502.0L174.6,505.2L176.2,506.0L176.2,509.4L178.2,510.0L178.6,511.4L179.4,512.2L178.6,515.0L180.8,515.4L182.8,516.4L184.2,516.2L188.0,517.4L191.0,519.4L195.6,518.2L194.8,521.0L200.6,521.0L202.4,519.2L206.4,519.6L206.6,520.8L208.2,519.8L209.6,519.8L212.4,520.8L214.8,521.6L216.0,520.6L218.8,520.8L220.4,519.6L218.6,518.6L219.6,517.2L221.2,518.2L223.6,519.8L225.0,523.4L226.6,522.0L228.4,522.4L230.2,521.2L230.8,519.0L232.6,519.2L233.8,517.8L237.4,518.8L240.4,518.2L241.8,515.6L243.8,514.6L245.4,514.4L245.2,512.4L245.4,510.2L246.0,508.4L248.2,508.8L255.8,511.4L258.6,506.2L258.6,504.8L260.2,502.2L260.0,501.0L263.6,500.0L267.8,502.8L268.0,501.4L268.2,500.0L270.0,499.8L268.0,498.8L268.8,498.0L271.4,498.8L272.4,498.4L274.0,496.6L275.4,495.4L280.4,495.2L283.0,494.8L282.4,492.8L282.8,491.4L282.8,490.2L284.4,488.4L285.2,487.2L286.0,485.8L286.4,482.6L288.0,484.2L291.0,484.0L291.4,481.4L290.2,479.4L289.8,477.0L288.8,474.4L290.2,472.2L288.2,470.6L290.2,469.6Z" />
	</g>
</svg>
