<svg xmlns="http://www.w3.org/2000/svg" viewBox="0,0,387,600" width="100%" height="100%">
	<defs>
		<style type="text/css">
.qing-map-1616120673615
{
	fill: #DDDDDD;
	fill-opacity: 1.0;
	stroke: #FFFFFF;
	stroke-opacity: 1.0;
	stroke-width: 1;
}

.qing-map-1616120673615:hover
{
	fill: #56A4FF;
	fill-opacity: 1.0;
}
</style>
	</defs>
	<g>
		<path id="L1611570192768" name="花地玛堂区" class="qing-map-1616120673615" d="M173.57,130.14L174.0,131.57L173.57,132.86L172.29,134.0L157.14,138.43L154.86,139.14L153.6,139.77L152.0,141.06L150.39,143.17L149.01,143.33L148.17,142.77L146.36,141.54L144.54,140.01L144.43,138.0L141.0,123.57L143.86,120.0L148.14,119.14L153.14,116.71L154.71,117.86L157.0,117.71L159.29,115.43L159.86,113.71L161.1,113.1L166.2,111.6L167.9,112.1L168.6,112.8L169.1,114.1L172.5,113.2L171.9,110.8L172.8,110.7L171.0,103.86L171.0,97.57L171.57,90.86L171.43,87.57L170.14,82.71L168.14,78.57L165.86,75.14L163.0,72.43L160.29,70.14L141.86,64.29L141.0,63.14L124.14,56.43L124.43,49.0L120.86,49.43L117.71,51.0L113.57,51.14L112.0,50.57L109.71,51.29L108.0,50.14L100.0,50.57L98.86,49.57L94.43,49.71L90.71,52.0L85.71,62.43L82.43,68.14L80.43,69.57L67.71,66.14L58.14,66.14L54.14,66.71L51.71,67.71L49.0,69.29L46.43,70.57L44.0,73.14L44.86,77.57L46.29,80.86L51.29,96.29L60.0,94.14L60.57,92.86L74.57,88.71L72.86,83.14L71.43,83.71L71.14,82.71L79.14,80.57L83.14,94.57L60.57,101.71L60.86,103.86L64.0,106.29L72.86,103.43L74.0,104.0L72.43,104.86L73.0,105.57L75.29,104.71L76.43,108.86L79.14,108.71L78.0,102.86L92.57,98.29L92.29,94.86L99.43,93.14L100.0,95.43L122.43,115.14L131.57,123.57L133.86,124.14L136.43,124.14L138.0,125.57L139.57,128.14L140.0,130.43L140.14,132.43L139.86,134.43L139.29,136.29L140.86,138.14L140.29,139.86L141.7,140.85L143.0,141.43L145.43,143.29L146.86,144.29L149.43,145.57L150.71,145.57L152.14,144.43L153.0,142.86L154.29,141.29L156.0,140.43L157.71,139.86L160.57,139.0L179.0,133.71L172.6,113.2L169.2,114.2Z" />
		<path id="L1611571184264" name="花王堂区" class="qing-map-1616120673615" d="M122.43,115.14L100.0,95.43L99.43,93.14L92.29,94.86L92.57,98.29L78.0,102.86L79.14,108.71L76.43,108.86L68.5,110.83L66.5,109.5L64.33,110.17L62.83,111.0L62.67,113.33L62.17,115.83L64.17,116.0L63.33,117.17L61.83,117.17L61.0,122.67L62.33,123.33L61.67,128.83L60.0,129.0L59.33,132.17L60.83,133.17L60.0,137.67L58.33,137.67L57.67,140.33L58.67,141.17L58.17,144.17L56.67,144.67L56.0,149.17L59.6,149.83L59.5,147.33L62.67,147.5L65.5,147.83L68.5,149.83L72.0,151.5L73.67,152.67L78.33,157.17L82.0,154.17L89.67,149.83L91.67,151.17L91.5,146.83L91.17,142.0Z" />
		<path id="L1611571305266" name="望德堂区" class="qing-map-1616120673615" d="M91.67,151.17L91.5,146.83L91.17,142.0L122.43,115.14L131.57,123.57L133.86,124.14L136.43,124.14L138.0,125.57L139.57,128.14L140.0,130.43L140.14,132.43L139.86,134.43L139.29,136.29L140.86,138.14L140.29,139.86L134.33,144.5L133.17,146.5L131.67,148.17L129.67,148.67L127.67,149.17L127.0,151.17L126.5,153.17L125.83,155.17L125.0,156.5L123.67,157.0L113.5,153.33L111.33,153.33L101.33,153.0L97.5,154.5L95.33,154.33Z" />
		<path id="L1611571416366" name="填海区" class="qing-map-1616120673615" d="M217.67,144.17L218.17,145.83L219.33,147.0L222.17,148.17L250.5,148.0L253.33,146.67L256.0,144.83L259.17,142.67L261.17,140.5L261.5,138.5L260.5,113.33L218.33,113.33L218.35,115.2L210.0,114.0L205.83,98.17L202.33,90.83L194.67,85.67L187.83,83.0L182.83,80.5L180.33,80.0L178.17,80.5L175.5,83.0L176.17,87.83L176.33,90.83L176.33,96.33L176.67,100.83L177.33,106.33L177.67,110.0L180.5,116.33L182.33,120.33L185.67,127.17L186.67,132.5L188.0,136.67L188.0,142.67L188.17,150.0L187.67,154.0L187.33,159.5L187.67,164.5L187.83,169.33L188.33,173.83L188.67,178.33L190.67,178.67L194.0,181.0L196.83,182.0L199.83,183.5L202.83,184.5L204.67,185.0L208.33,185.0L210.17,185.0L212.5,184.67L214.5,182.47L214.17,175.5L212.0,123.67L210.0,115.75L218.3,116.9Z" />
		<path id="L1611571699271" name="澳门大学横琴校区" class="qing-map-1616120673615" d="M75.67,449.67L108.83,447.0L105.33,517.0L105.17,521.0L104.33,522.83L101.0,523.5L81.5,510.83L80.17,509.5L79.33,508.0L78.67,505.17Z" />
		<path id="L1611627396610" name="大堂区" class="qing-map-1616120673615" d="M75.0,192.71L74.86,191.43L73.86,191.29L72.71,192.57L72.43,193.57L71.43,195.14L71.86,196.0L72.57,195.71L74.29,194.29L75.0,193.43ZM74.15,188.29L75.86,187.71L75.71,187.14L74.57,186.71L73.86,187.14ZM79.29,197.86L80.14,196.86L79.71,196.14L78.57,196.29L78.0,196.86L78.29,197.71ZM88.0,201.29L87.14,202.86L86.29,203.71L85.86,205.14L85.0,206.57L85.43,207.43L86.43,207.43L87.43,206.43L87.57,205.43L88.57,205.29L89.14,204.86L88.57,203.43L89.29,202.29L88.86,201.29ZM94.3,198.8L94.7,197.4L94.4,194.2L96.0,191.0L96.8,191.1L105.4,212.6L103.6,213.5L101.8,214.1L99.9,214.3L97.7,214.5L94.5,199.0L92.2,200.0L95.3,215.3L92.5,216.0L93.2,217.6L97.8,216.7L101.14,216.0L101.71,216.86L100.14,218.0L102.0,226.29L102.71,227.0L110.86,225.14L114.0,224.0L116.86,222.57L119.57,220.29L121.57,218.57L121.71,217.43L121.43,216.29L122.57,216.14L123.57,215.14L126.57,204.43L127.29,200.43L128.4,200.2L129.27,201.74L128.74,203.1L129.99,204.46L131.64,203.66L131.8,202.04L130.73,201.4L129.97,199.47L130.86,198.57L131.57,199.57L145.43,194.14L148.29,200.43L147.86,202.43L148.57,203.71L149.71,204.71L151.57,204.71L155.71,202.57L156.29,201.43L156.43,200.71L156.43,199.57L157.57,196.0L159.0,196.29L160.0,196.0L156.29,191.86L155.86,189.43L157.0,187.86L155.0,187.29L154.71,185.29L156.0,185.0L158.0,184.71L159.43,181.43L155.71,179.14L150.71,169.57L152.0,169.0L151.14,167.43L152.43,166.71L150.57,160.71L150.71,157.86L152.86,154.71L149.0,151.57L151.43,148.0L150.86,147.14L152.71,146.14L152.71,147.0L163.43,152.57L168.71,142.0L168.14,141.0L169.56,138.57L170.61,137.74L172.59,137.84L174.84,137.36L176.36,136.21L179.0,133.71L160.57,139.0L157.71,139.86L156.0,140.43L154.29,141.29L153.0,142.86L152.14,144.43L150.71,145.57L149.43,145.57L146.86,144.29L145.43,143.29L143.0,141.43L141.7,140.85L140.29,139.86L134.33,144.5L133.17,146.5L131.67,148.17L129.67,148.67L127.67,149.17L127.0,151.17L126.5,153.17L125.83,155.17L125.0,156.5L123.67,157.0L113.5,153.33L111.33,153.33L101.33,153.0L97.5,154.5L95.33,154.33L91.67,151.17L89.67,149.83L82.0,154.17L78.33,157.17L73.67,152.67L72.0,151.5L68.5,149.83L65.5,147.83L62.67,147.5L59.5,147.33L59.6,149.83L59.0,149.83L59.1,150.4L79.1,170.9L77.1,172.4L73.0,176.86L69.86,179.86L67.57,183.29L65.14,186.43L63.71,189.57L63.86,192.71L63.43,196.14L62.86,199.29L61.43,202.43L59.71,210.14L60.14,211.14L60.86,211.43L60.71,214.71L61.14,215.43L62.14,215.71L62.86,216.0L63.14,221.14L58.29,224.0L57.29,225.29L56.29,227.43L54.71,231.14L53.29,231.43L50.43,231.43L47.86,231.0L45.14,229.57L42.86,228.71L40.29,228.14L39.0,227.57L37.43,227.43L35.71,227.0L34.43,226.14L33.29,225.57L32.43,224.57L31.29,222.71L28.86,220.86L26.71,221.0L28.57,223.71L30.57,226.86L32.43,228.71L37.29,231.14L39.29,233.43L41.14,234.71L45.71,235.14L46.29,234.86L57.43,235.0L64.57,234.14L72.71,234.14L95.29,228.43L95.71,227.43L93.8,220.1L93.5,219.3L93.5,218.7L92.7,218.5L92.6,217.7L93.7,217.4L93.2,215.9L91.1,216.4L88.0,216.9L86.0,217.2L83.2,217.0L82.1,216.5L79.1,215.7L76.4,214.3L75.3,212.6L74.5,212.5L71.9,210.1L72.0,208.9L69.2,204.2L69.9,202.7L68.8,201.6L68.6,200.0L68.1,198.9L66.7,198.1L66.3,197.5L66.4,193.3L66.7,191.8L66.9,190.5L67.3,189.2L68.0,188.1L68.8,187.5L68.8,187.1L68.9,186.6L69.3,185.9L70.2,185.5L70.9,184.9L70.9,183.3L71.1,182.7L71.6,182.8L85.9,191.0L84.4,193.2L85.1,194.3L85.3,194.9L85.4,196.1L86.3,197.3L86.8,198.1L87.6,198.6L88.5,199.0L89.6,199.2L90.4,198.2L90.8,196.9L91.4,198.3L92.1,199.7Z" />
		<path id="L1611631389008" name="风顺堂区" class="qing-map-1616120673615" d="M56.0,149.17L55.2,150.8L55.4,152.0L55.0,152.7L55.0,153.8L55.2,154.5L54.8,155.6L53.7,156.6L52.9,158.7L54.3,159.3L53.8,160.0L52.9,159.9L52.4,161.5L52.1,162.2L50.4,166.0L49.1,166.3L40.8,178.1L41.5,179.2L40.0,181.4L39.2,181.2L36.6,184.2L35.0,186.4L30.5,193.6L32.2,197.2L30.3,198.4L28.6,199.6L27.2,201.1L25.8,203.2L25.1,204.7L24.2,206.4L23.9,208.3L23.7,210.3L23.9,212.0L24.2,213.9L24.5,215.1L25.0,216.5L25.7,217.9L26.0,219.3L26.71,221.0L28.86,220.86L31.29,222.71L32.6,222.0L33.3,221.6L33.9,221.8L35.1,222.6L36.7,223.4L37.8,223.9L39.3,224.3L40.6,224.3L42.2,224.4L43.6,223.7L44.5,222.4L45.1,221.3L45.8,219.7L45.9,218.8L45.9,214.2L45.9,213.6L46.4,213.0L47.1,212.5L48.2,212.0L50.3,211.4L51.5,210.8L52.4,210.0L52.8,209.0L53.0,207.7L53.3,206.2L53.6,205.1L54.1,204.1L55.1,203.7L56.1,203.3L57.2,203.0L58.8,202.7L61.43,202.43L62.86,199.29L63.43,196.14L63.86,192.71L63.71,189.57L65.14,186.43L67.57,183.29L69.86,179.86L73.0,176.86L77.1,172.4L79.1,170.9L59.1,150.4L59.0,149.83Z" />
		<path id="L1611631964472" name="嘉模堂区" class="qing-map-1616120673615" d="M243.8,350.8L244.88,349.63L246.0,350.38L247.13,351.75L248.25,352.38L249.38,351.5L249.25,350.0L248.13,349.5L246.88,349.38L245.63,348.13L247.5,344.88L252.75,324.38L271.38,318.5L282.88,320.88L304.75,385.25L302.0,389.38L244.8,351.4L243.7,353.2L300.75,391.38L299.5,393.25L301.88,398.38L304.0,399.25L304.25,400.5L324.0,456.75L325.5,457.5L327.0,457.75L337.5,454.75L339.13,453.13L340.13,451.63L340.38,450.0L290.88,304.5L289.63,303.5L288.13,302.5L286.13,302.25L281.0,303.75L279.5,304.5L278.88,306.13L278.25,307.63L279.5,312.5L252.5,321.75L251.63,320.13L273.5,312.0L269.38,300.75L266.0,302.13L264.88,302.13L263.0,300.63L263.0,299.38L261.63,296.25L260.75,294.5L257.88,305.63L254.5,308.75L256.38,314.38L250.25,316.25L251.5,307.88L251.5,306.5L252.38,302.75L251.38,302.38L249.5,308.38L245.75,307.25L249.25,292.63L243.75,291.13L239.75,306.38L232.13,304.25L233.38,300.13L231.38,299.25L230.25,303.88L227.38,303.0L229.5,296.63L229.13,296.0L228.0,296.0L237.38,280.88L238.25,279.38L238.38,278.13L237.63,276.88L236.75,275.88L232.0,283.5L223.88,281.5L223.5,282.25L220.5,293.88L206.88,283.88L187.0,276.88L186.75,278.38L186.38,280.88L186.13,283.38L185.88,286.25L185.5,288.5L185.25,289.5L185.75,290.88L186.0,291.88L186.75,292.75L187.88,293.5L189.63,294.0L195.13,295.75L192.25,305.75L186.0,304.38L183.38,304.38L180.25,304.13L176.5,303.88L169.75,303.88L168.13,303.75L163.88,302.13L160.13,300.75L156.88,300.25L154.38,299.88L152.63,298.88L152.25,297.5L151.38,297.38L150.38,299.38L149.5,299.38L146.5,302.0L141.13,302.0L138.5,301.0L136.75,300.75L129.25,300.63L127.5,301.13L125.63,302.13L120.5,304.25L118.0,305.13L117.13,304.75L115.88,304.25L114.63,303.75L113.88,304.75L112.63,306.5L111.0,306.5L107.75,307.0L104.0,308.0L99.7,308.8L95.1,309.1L90.9,309.1L89.9,309.4L88.0,310.3L85.9,311.4L84.4,313.0L82.9,314.1L82.3,313.7L81.5,313.1L80.3,312.7L79.0,312.3L78.7,311.1L78.6,310.1L78.0,308.7L77.2,306.4L76.8,305.0L76.2,303.6L75.7,302.4L74.6,300.5L73.7,299.6L72.7,299.6L71.4,299.9L70.7,300.2L70.1,301.6L71.63,307.38L71.88,309.13L72.0,311.13L74.0,323.38L74.25,326.0L75.0,329.13L82.88,352.63L84.5,355.13L102.88,370.38L115.5,385.88L116.88,385.13L109.13,374.5L111.88,373.0L121.0,373.13L121.0,388.5L117.63,388.38L128.25,404.0L131.5,403.88L132.38,403.38L131.75,392.38L131.25,390.75L130.75,389.13L125.25,379.13L125.25,377.63L124.75,373.63L124.38,369.0L124.75,368.13L126.0,367.88L146.38,376.88L150.13,378.5L153.75,379.5L156.13,380.0L159.13,380.13L161.88,380.0L163.9,379.4L164.1,377.0L163.13,374.63L163.38,372.63L164.88,369.75L166.0,367.88L166.13,366.75L166.0,363.38L167.63,362.0L170.88,362.0L171.88,362.88L172.25,364.13L173.38,364.75L174.63,365.25L175.25,365.38L176.0,366.75L176.63,368.0L177.5,368.38L179.63,368.38L180.38,369.38L180.25,370.88L179.88,372.63L178.13,373.5L168.25,377.13L164.5,376.9L164.6,379.4L169.63,378.75L178.88,375.75L182.0,374.63L183.63,374.5L184.75,374.75L187.75,376.63L191.25,377.5L195.25,377.75L199.0,377.25L201.88,376.25L204.63,375.63L207.13,377.5L209.5,377.38L216.38,374.38L217.88,373.0L217.88,371.88L217.0,370.13L216.38,369.13L216.38,368.13L217.25,367.75L228.5,363.0L232.38,361.0L236.25,359.38L238.75,357.75L239.13,357.0L240.88,355.13L241.75,354.13L242.1,353.3L242.1,352.1L243.3,352.9L244.5,351.2Z" />
		<path id="L1611650382409" name="路氹城" class="qing-map-1616120673615" d="M169.63,378.75L178.88,375.75L182.0,374.63L183.63,374.5L184.75,374.75L187.75,376.63L191.25,377.5L195.25,377.75L199.0,377.25L201.88,376.25L204.63,375.63L207.13,377.5L209.5,377.38L216.38,374.38L217.88,373.0L217.88,371.88L217.0,370.13L216.38,369.13L216.38,368.13L217.25,367.75L228.5,363.0L232.38,361.0L236.25,359.38L238.75,357.75L239.2,358.4L242.6,358.3L243.7,358.7L244.4,359.0L275.7,379.6L292.1,391.3L292.6,394.9L293.3,399.0L293.9,399.5L294.5,400.4L294.7,403.0L294.3,404.2L295.1,405.0L295.3,406.4L294.7,407.6L294.2,408.5L292.7,409.4L291.7,410.7L291.5,411.5L292.3,412.4L292.1,413.7L290.6,413.1L289.1,412.8L287.4,413.6L286.5,413.9L282.2,413.8L278.0,412.1L276.8,411.8L275.4,412.4L270.4,411.8L268.7,409.9L267.4,411.2L265.7,412.5L265.1,412.8L264.1,412.7L263.2,412.6L262.3,412.9L261.3,413.6L260.0,412.9L259.3,412.9L257.8,413.9L257.2,413.9L256.7,413.4L256.0,413.4L255.0,413.9L252.8,415.3L251.2,415.6L250.3,415.5L248.9,415.0L247.6,414.9L246.4,415.9L246.3,417.6L247.1,419.3L247.1,421.3L245.9,426.7L245.6,427.4L242.4,431.6L241.9,432.7L241.5,434.3L241.8,435.7L242.2,436.8L242.9,437.5L240.7,437.9L237.5,438.0L219.9,437.9L218.7,438.3L211.1,446.0L206.4,449.3L201.5,451.5L198.7,452.8L194.8,454.8L194.0,454.0L191.1,453.6L182.7,453.3L181.8,454.0L181.4,468.9L181.7,469.6L182.0,470.0L179.6,470.7L164.8,470.3L163.7,470.8L160.4,477.6L127.2,486.2L127.0,482.7L129.3,479.7L129.4,406.1L128.25,404.0L131.5,403.88L132.38,403.38L131.75,392.38L131.25,390.75L130.75,389.13L125.25,379.13L125.25,377.63L124.75,373.63L124.38,369.0L124.75,368.13L126.0,367.88L146.38,376.88L150.13,378.5L153.75,379.5L156.13,380.0L159.13,380.13L161.88,380.0L163.9,379.4L164.6,379.4Z" />
		<path id="L1611650859234" name="圣方济各堂区" class="qing-map-1616120673615" d="M127.2,486.2L160.4,477.6L163.7,470.8L164.8,470.3L179.6,470.7L182.0,470.0L183.4,469.6L184.2,469.6L184.9,469.9L189.6,468.3L190.6,466.4L191.0,466.0L193.6,466.0L194.3,465.3L194.7,463.6L193.1,461.8L192.9,461.0L193.4,459.8L193.6,456.9L194.8,454.8L198.7,452.8L201.5,451.5L206.4,449.3L211.1,446.0L218.7,438.3L219.9,437.9L237.5,438.0L240.7,437.9L242.9,437.5L245.0,436.7L246.6,435.3L247.9,434.1L249.7,433.4L250.9,433.5L251.2,432.5L249.0,429.0L249.2,427.7L249.8,426.4L269.0,413.8L270.2,413.4L272.9,413.3L274.0,413.8L272.1,418.1L275.5,419.5L275.2,420.6L271.4,419.1L270.3,422.6L258.2,435.6L256.8,435.9L259.3,439.7L258.9,449.4L262.6,452.9L263.6,452.9L265.5,452.1L266.9,450.6L268.1,448.5L268.2,445.6L268.5,444.6L269.3,444.2L270.1,445.4L270.8,449.5L270.2,451.6L270.9,452.7L271.9,453.0L274.7,452.5L276.3,450.6L277.1,450.7L282.6,455.1L286.3,450.7L293.4,454.8L291.4,457.8L293.8,459.7L299.8,450.3L302.2,452.3L301.3,454.3L303.2,455.6L304.4,454.4L306.3,455.1L306.4,457.7L305.4,459.0L311.5,470.9L312.7,470.8L313.7,472.0L314.0,473.3L313.6,474.6L313.5,475.9L313.9,477.9L314.2,478.9L313.9,480.4L313.3,482.4L312.0,483.1L310.5,482.5L307.2,484.6L304.4,485.6L305.1,486.9L304.8,489.1L301.8,491.6L299.8,492.3L298.0,492.0L296.8,491.4L295.2,491.5L291.1,489.5L290.0,489.3L288.4,489.8L287.4,489.6L285.5,488.1L284.4,487.9L283.4,488.4L276.1,493.5L275.5,494.6L274.6,496.1L272.9,500.8L272.6,502.1L271.9,502.6L268.6,503.8L266.8,504.8L264.6,506.1L262.3,507.8L259.1,510.3L257.4,510.4L255.6,509.3L253.8,508.6L252.5,508.4L248.2,508.9L246.9,508.7L245.1,507.2L242.9,506.0L240.6,504.9L238.6,503.7L237.3,502.4L236.5,501.2L230.3,504.0L227.5,506.3L221.8,511.8L219.4,515.2L217.7,517.7L215.7,522.1L214.2,526.4L212.6,531.5L212.1,536.3L212.3,541.8L213.0,543.9L214.7,545.2L219.0,545.6L222.4,545.6L225.1,546.1L225.4,545.1L226.5,545.1L228.7,548.2L229.7,548.7L230.3,549.4L229.7,550.7L229.4,551.7L229.4,555.6L230.5,555.9L230.7,557.3L228.7,557.5L228.0,558.1L225.9,561.4L224.6,562.2L222.1,562.6L220.5,563.3L218.2,565.6L216.2,565.7L214.7,566.8L207.8,567.3L201.1,564.7L197.1,564.8L196.1,565.5L194.5,565.5L193.7,564.5L189.6,564.4L188.9,565.8L187.2,566.2L185.4,565.7L184.0,564.9L181.8,566.3L178.6,567.6L176.4,567.8L174.6,566.7L173.5,565.4L172.8,564.1L172.6,559.9L171.0,559.7L167.4,560.2L164.7,561.1L161.8,562.6L160.2,565.2L160.3,568.1L155.6,571.4L153.7,571.4L152.5,572.8L152.9,574.1L152.8,575.1L151.0,576.8L148.2,576.4L145.3,576.1L143.8,576.7L141.4,576.5L139.6,576.1L137.7,574.3L137.3,573.5L134.4,572.5L131.2,571.2L128.9,568.9L126.9,568.6L125.7,567.4L123.8,567.2L121.6,566.0L120.5,564.5L119.4,560.1L117.2,558.2L116.7,556.8L117.8,555.6L121.0,553.9L123.7,546.7L124.9,539.0L124.8,536.6L121.9,533.9L120.0,533.3L119.2,531.8L120.5,523.3L123.9,521.8L126.8,519.7L127.3,518.1Z" />
	</g>
</svg>
