<?xml version="1.0" encoding="UTF-8"?>
<svg width="20px" height="20px" viewBox="0 0 20 20" version="1.1" xmlns="http://www.w3.org/2000/svg" xmlns:xlink="http://www.w3.org/1999/xlink">
    <!-- Generator: Sketch 57.1 (83088) - https://sketch.com -->
    <title>icon/催办@svg</title>
    <desc>Created with Sketch.</desc>
    <g id="工作流（激活）" stroke="none" stroke-width="1" fill="none" fill-rule="evenodd">
        <g id="状态标签（多语言）" transform="translate(-414.000000, -606.000000)">
            <g id="转交备份" transform="translate(414.000000, 606.000000)">
                <rect id="矩形备份" fill="#F59C25" fill-rule="evenodd" x="0" y="0" width="20" height="20" rx="10"></rect>
                <path d="M7.34760759,14.1836732 C7.93667073,14.4752185 8.64354649,14.3002913 8.93807805,13.7172007 L6.87635709,12.5510196 C6.58182553,13.1341102 6.81745077,13.8338188 7.34760759,14.1836732 L7.34760759,14.1836732 Z M12.1779253,12.8425649 L13.5916768,10.2769663 C14.4752715,8.70262175 14.3574589,6.95335002 13.1204263,5.78716887 L13.2971452,5.43731452 C13.5327705,5.02915111 13.3560516,4.50436959 12.9437074,4.27113335 C12.5313632,4.03789712 12.0012063,4.21282429 11.7655811,4.6209877 L11.5888622,4.97084205 C9.93948538,4.50436959 8.34901491,5.3206964 7.46542021,6.89504096 L6.05166869,9.46063951 L4.46119823,9.92711197 L4.16666667,10.4518935 L12.4135505,15 L12.7080821,14.4752185 L12.1779253,12.8425649 Z" id="形状" fill="#FFFFFF" fill-rule="nonzero"></path>
            </g>
        </g>
    </g>
</svg>