<?xml version="1.0" encoding="UTF-8"?>
<svg width="18px" height="18px" viewBox="0 0 18 18" version="1.1" xmlns="http://www.w3.org/2000/svg" xmlns:xlink="http://www.w3.org/1999/xlink">
    <title>形状结合 2备份 2</title>
    <g id="3.0优化" stroke="none" stroke-width="1"  fill-rule="evenodd">
        <g id="公告详情页下拉" transform="translate(-353.000000, -436.000000)"  fill-rule="nonzero" stroke-width="0.6">
            <g id="形状结合-2备份-2" transform="translate(354.000000, 437.000000)">
                <path d="M7.99998071,1.79412041e-13 C12.4182614,1.79412041e-13 16,3.57898358 16,7.99389557 C16,10.0101646 15.2528198,11.8520104 14.0202169,13.2582896 L14.0202169,13.2582896 L15.8417619,15.0784457 C16.052746,15.289269 16.052746,15.6310592 15.8417619,15.8418825 C15.6307777,16.0527058 15.2887267,16.0527058 15.0777425,15.8418825 L15.0777425,15.8418825 L13.2554065,14.0209359 C11.8497136,15.2458126 10.0115947,15.9877911 8,15.9877911 C5.97495709,15.9877911 4.12574396,15.2358643 2.71648157,13.9962965 L2.71648157,13.9962965 L0.922257468,15.7891526 C0.711273291,16 0.369222309,16 0.158238133,15.7891526 C-0.0527460442,15.5783293 -0.0527460442,15.2365391 0.158238133,15.0257158 L0.158238133,15.0257158 L1.95512486,13.2301991 C0.737166365,11.8275252 -1.15463195e-13,9.99674595 -1.15463195e-13,7.99389557 C-1.15463195e-13,3.57898358 3.58169999,1.79412041e-13 7.99998071,1.79412041e-13 Z M8,1.07966214 C7.06539894,1.07966214 6.159315,1.26233711 5.30694664,1.62257795 C4.48311469,1.97076899 3.74300111,2.46945722 3.10717372,3.10479983 C2.47134632,3.74014243 1.97227758,4.47967244 1.62382086,5.30289554 C1.26328585,6.154614 1.08049078,7.0600071 1.08049078,7.99389557 C1.08049078,8.92778404 1.26330514,9.83317714 1.62382086,10.6848956 C1.97227758,11.5080994 2.47134632,12.2476487 3.10717372,12.8829913 C3.74300111,13.5183339 4.4830954,14.0170222 5.30694664,14.3652132 C6.159315,14.7254733 7.06539894,14.908129 8,14.908129 C8.93460106,14.908129 9.840685,14.725454 10.6930534,14.3652132 C11.5168853,14.0170222 12.2569989,13.5183339 12.8928263,12.8829913 C13.5286537,12.2476487 14.0277224,11.5080994 14.3761791,10.6848956 C14.7367142,9.83317714 14.9195092,8.92778404 14.9195092,7.99389557 C14.9195092,7.0600071 14.7366949,6.154614 14.3761791,5.30289554 C14.0277224,4.47969172 13.5286537,3.74014243 12.8928263,3.10479983 C12.2569989,2.46945722 11.5169046,1.97076899 10.6930534,1.62257795 C9.840685,1.26231783 8.93460106,1.07966214 8,1.07966214 Z M7.96447902,3.0278739 C10.7015043,3.0278739 12.9203401,5.24497938 12.9203401,7.97995636 C12.9203401,10.7149141 10.7015236,12.9320388 7.96447902,12.9320388 C5.22743445,12.9320388 3.00861796,10.7149141 3.00861796,7.97995636 C3.00861796,5.24499865 5.22743445,3.0278739 7.96447902,3.0278739 Z M7.96445973,4.10751676 C6.9292963,4.10751676 5.95610646,4.51030785 5.22415441,5.24172111 C4.49220235,5.97313437 4.08908462,6.94556292 4.08908462,7.97993708 C4.08908462,9.01431125 4.49218306,9.98675908 5.22415441,10.7181531 C5.95612576,11.449547 6.9292963,11.8523574 7.96445973,11.8523574 C8.99962316,11.8523574 9.972813,11.449547 10.7047651,10.7181531 C11.4367364,9.9867398 11.8398348,9.01431125 11.8398348,7.97993708 C11.8398348,6.94556292 11.4367364,5.97311509 10.7047651,5.24172111 C9.9727937,4.51032713 8.99962316,4.10751676 7.96445973,4.10751676 Z M7.96447902,6.08815694 C9.01006142,6.08815694 9.85770265,6.93513261 9.85770265,7.97993708 C9.85770265,9.02474155 9.01008072,9.87171722 7.96447902,9.87171722 C6.91887733,9.87171722 6.0712554,9.02474155 6.0712554,7.97993708 C6.0712554,6.93513261 6.91887733,6.08815694 7.96447902,6.08815694 Z M7.96447902,7.16781908 C7.51632818,7.16781908 7.15174135,7.53212793 7.15174135,7.97993708 C7.15174135,8.42774623 7.51632818,8.79205508 7.96447902,8.79205508 C8.41261057,8.79205508 8.7772167,8.42774623 8.7772167,7.97993708 C8.7772167,7.53212793 8.41262987,7.16781908 7.96447902,7.16781908 Z" id="形状结合"></path>
            </g>
        </g>
    </g>
</svg>
