<?xml version="1.0" encoding="UTF-8"?>
<svg width="16px" height="16px" viewBox="0 0 16 16" version="1.1" xmlns="http://www.w3.org/2000/svg" xmlns:xlink="http://www.w3.org/1999/xlink">
    <title>形状备份 10</title>
    <g id="3.0优化" stroke="none" stroke-width="1" fill="none" fill-rule="evenodd">
        <g id="预置2" transform="translate(-305.000000, -1828.000000)" fill="#FFFFFF" fill-rule="nonzero">
            <g id="编组-3" transform="translate(-4.000000, 1743.000000)">
                <path d="M315.106501,90.0806661 C315.718297,89.4696812 315.793724,88.52391 315.223831,87.8375982 L313.47225,85.6280089 C312.893977,84.9082185 311.829619,84.7910433 311.108873,85.3601799 C311.066969,85.4355068 310.991542,85.4355068 310.991542,85.4773551 L309.466242,87.0006326 C308.016369,88.4485831 310.078038,92.4074306 313.849385,96.173776 C317.620732,99.9401213 321.509409,101.957209 322.959282,100.551106 L324.484583,99.0278288 C325.171806,98.341517 325.171806,97.2785706 324.484583,96.6675857 L324.367252,96.5504105 L322.154728,94.8011523 C321.467505,94.2320157 320.512097,94.3073426 319.908682,94.9183275 L318.953274,95.8724683 C317.922439,95.2614834 317.050839,94.5751716 316.246285,93.7800542 C315.483635,93.0184155 314.838316,92.1396016 314.184616,91.1185035 L315.106501,90.0806661 L315.106501,90.0806661 Z M314.310327,88.5992369 C314.461181,88.8252177 314.461181,89.1683736 314.268423,89.3190274 L313.011308,90.6163241 C312.81855,90.8088262 312.785027,91.0766552 312.893977,91.3026359 C313.539296,92.5246058 314.377373,93.6210308 315.374685,94.6170199 C316.363616,95.6046393 317.469878,96.441605 318.69347,97.0944382 C318.919751,97.2116133 319.187936,97.1697651 319.380693,96.977263 L320.679713,95.6799662 C320.905994,95.4539855 321.174178,95.4539855 321.400459,95.6381179 L323.612982,97.4292244 C323.612982,97.4292244 323.654886,97.4292244 323.654886,97.4710727 C323.881167,97.6635748 323.881167,98.0067307 323.69679,98.2327114 L323.654886,98.2745597 L322.129586,99.7978372 C321.40884,100.517628 317.897297,98.6595639 314.586893,95.4205069 C311.29325,92.1396016 309.466242,88.5992369 310.228892,87.8375982 L311.787715,86.2808421 C312.013996,86.1301883 312.399512,86.1301883 312.592269,86.3980173 L314.310327,88.5992369 Z" id="形状备份-10"></path>
            </g>
        </g>
    </g>
</svg>
