<?xml version="1.0" encoding="UTF-8"?>
<svg width="13px" height="13px" viewBox="0 0 14 14" version="1.1" xmlns="http://www.w3.org/2000/svg" xmlns:xlink="http://www.w3.org/1999/xlink">
    <title>图标/通用操作/f7</title>
    <g id="预算-多状态页签" stroke="none" stroke-width="1" fill="none" fill-rule="evenodd">
        <g id="方案1更多备份" transform="translate(-1699.000000, -112.000000)" fill="#999999">
            <g id="编组-2" transform="translate(1682.000000, 95.000000)">
                <g id="2.导航/1.树控件/元素/搜索框/默认状态" transform="translate(8.000000, 8.000000)">
                    <g id="编组-2" transform="translate(9.000000, 7.000000)">
                        <g id="图标/通用操作/f7" transform="translate(0.000000, 2.000000)">
                            <path d="M12.4913182,13.8249339 C12.371264,13.7039298 12.1489525,13.4798593 11.7425466,13.0702379 C10.9179549,12.2391221 10.2767656,11.5928596 9.93048234,11.2438366 L9.80796169,11.1203466 C9.79025108,11.1024959 9.77391723,11.0860328 9.75899319,11.0709907 L9.69213717,11.0036057 C8.68373085,11.7571705 7.43314094,12.2013798 6.07916642,12.2013798 C2.72173552,12.2013798 0,9.47000788 0,6.10068989 C0,2.7313719 2.72173552,0 6.07916642,0 C9.43659733,0 12.1583328,2.7313719 12.1583328,6.10068989 C12.1583328,7.68260213 11.5583668,9.12388866 10.5743302,10.2078895 L13.3224907,12.9781429 C13.5306944,13.1879939 13.5507175,13.5168776 13.3883886,13.7528794 L13.326,13.826 L13.2550235,13.8876198 C13.0497574,14.0325897 12.7783981,14.0365325 12.5730316,13.8934056 L12.495,13.828 L12.49,13.824 L12.493,13.826 Z M6.07916642,0.90380591 C3.21913269,0.90380591 0.900617248,3.23053012 0.900617248,6.10068989 C0.900617248,8.97084966 3.21913269,11.2975739 6.07916642,11.2975739 C8.93920016,11.2975739 11.2577156,8.97084966 11.2577156,6.10068989 C11.2577156,3.23053012 8.93920016,0.90380591 6.07916642,0.90380591 Z" id="Combined-Shape"></path>
                        </g>
                    </g>
                </g>
            </g>
        </g>
    </g>
</svg>