<?xml version="1.0" encoding="UTF-8"?>
<svg width="520px" height="340px" viewBox="0 0 520 340" version="1.1" xmlns="http://www.w3.org/2000/svg" xmlns:xlink="http://www.w3.org/1999/xlink">
    <title>im/1</title>
    <defs>
        <rect id="path-1" x="0" y="0" width="368" height="226" rx="8"></rect>
        <filter x="-6.0%" y="-8.8%" width="112.0%" height="119.5%" filterUnits="objectBoundingBox" id="filter-3">
            <feOffset dx="0" dy="2" in="SourceAlpha" result="shadowOffsetOuter1"></feOffset>
            <feGaussianBlur stdDeviation="7" in="shadowOffsetOuter1" result="shadowBlurOuter1"></feGaussianBlur>
            <feColorMatrix values="0 0 0 0 0   0 0 0 0 0.191532657   0 0 0 0 0.708531476  0 0 0 0.101589816 0" type="matrix" in="shadowBlurOuter1"></feColorMatrix>
        </filter>
    </defs>
    <g id="im/1" stroke="none" stroke-width="1" fill="none" fill-rule="evenodd">
        <g id="编组-2" transform="translate(63, 57)">
            <g id="矩形" transform="translate(16, 0)">
                <mask id="mask-2" fill="white">
                    <use xlink:href="#path-1"></use>
                </mask>
                <g id="蒙版">
                    <use fill="black" fill-opacity="1" filter="url(#filter-3)" xlink:href="#path-1"></use>
                    <use fill="#FFFFFF" fill-rule="evenodd" xlink:href="#path-1"></use>
                </g>
                <rect fill="#E2E8F3" mask="url(#mask-2)" x="-50" y="-29" width="177" height="290"></rect>
            </g>
            <g id="编组" transform="translate(16, 12)">
                <rect id="矩形" fill="#CBD5E8" x="0" y="0" width="127" height="32"></rect>
                <rect id="矩形" fill="#FDFDFE" opacity="0.5" x="10" y="10" width="12" height="12"></rect>
                <rect id="矩形备份" fill="#FDFDFE" opacity="0.5" x="29" y="10" width="48" height="12"></rect>
            </g>
            <g id="编组备份" transform="translate(16, 47)">
                <rect id="矩形" fill="#CBD5E8" x="0" y="0" width="127" height="32"></rect>
                <rect id="矩形" fill="#FDFDFE" opacity="0.5" x="10" y="10" width="12" height="12"></rect>
                <rect id="矩形备份" fill="#FDFDFE" opacity="0.5" x="29" y="10" width="48" height="12"></rect>
            </g>
            <g id="编组备份-2" transform="translate(16, 82)">
                <rect id="矩形" fill="#CBD5E8" x="0" y="0" width="127" height="32"></rect>
                <rect id="矩形" fill="#FDFDFE" opacity="0.5" x="10" y="10" width="12" height="12"></rect>
                <rect id="矩形备份" fill="#FDFDFE" opacity="0.5" x="29" y="10" width="48" height="12"></rect>
            </g>
            <g id="编组备份-3" transform="translate(0, 117)">
                <rect id="矩形" fill="#007AFF" x="0" y="0" width="159" height="32" rx="4"></rect>
                <rect id="矩形" fill="#FFFFFF" x="16" y="10" width="12" height="12" rx="2"></rect>
                <rect id="矩形备份" fill="#FFFFFF" x="35" y="10" width="73" height="12" rx="2"></rect>
            </g>
            <g id="编组备份-4" transform="translate(16, 152)">
                <rect id="矩形" fill="#CBD5E8" x="0" y="0" width="127" height="32"></rect>
                <rect id="矩形" fill="#FDFDFE" opacity="0.5" x="10" y="10" width="12" height="12"></rect>
                <rect id="矩形备份" fill="#FDFDFE" opacity="0.5" x="29" y="10" width="48" height="12"></rect>
            </g>
            <g id="编组备份-5" transform="translate(16, 187)">
                <rect id="矩形" fill="#CBD5E8" x="0" y="0" width="127" height="32"></rect>
                <rect id="矩形" fill="#FDFDFE" opacity="0.5" x="10" y="10" width="12" height="12"></rect>
                <rect id="矩形备份" fill="#FDFDFE" opacity="0.5" x="29" y="10" width="48" height="12"></rect>
            </g>
        </g>
        <rect id="矩形" fill="#E2E8F3" opacity="0.5" x="245" y="96" width="165" height="18"></rect>
        <rect id="矩形备份-2" fill="#E2E8F3" opacity="0.5" x="245" y="128" width="106" height="18"></rect>
        <rect id="矩形备份-3" fill="#E2E8F3" opacity="0.5" x="245" y="160" width="165" height="18"></rect>
        <rect id="矩形备份-4" fill="#E2E8F3" opacity="0.5" x="245" y="192" width="106" height="18"></rect>
    </g>
</svg>