<?xml version="1.0" encoding="UTF-8"?>
<svg width="20px" height="20px" viewBox="0 0 32 32" version="1.1" xmlns="http://www.w3.org/2000/svg" xmlns:xlink="http://www.w3.org/1999/xlink">
    <title>2图标/通用操作/视图_卡片</title>
    <g id="控件" stroke="none" stroke-width="1" fill="none" fill-rule="evenodd">
        <g id="2图标/通用操作/视图_卡片" fill="#0E5FD8">
            <path d="M12.8181818,3 C14.0231667,3 15,3.97683327 15,5.18181818 L15,12.8181818 C15,14.0231667 14.0231667,15 12.8181818,15 L5.18181818,15 C3.97683327,15 3,14.0231667 3,12.8181818 L3,5.18181818 C3,3.97683327 3.97683327,3 5.18181818,3 L12.8181818,3 Z M13,5 L5,5 L5,13 L13,13 L13,5 Z M12.8181818,17 C14.0231667,17 15,17.9768333 15,19.1818182 L15,26.8181818 C15,28.0231667 14.0231667,29 12.8181818,29 L5.18181818,29 C3.97683327,29 3,28.0231667 3,26.8181818 L3,19.1818182 C3,17.9768333 3.97683327,17 5.18181818,17 L12.8181818,17 Z M13,19 L5,19 L5,27 L13,27 L13,19 Z M26.8181818,3 C28.0231667,3 29,3.97683327 29,5.18181818 L29,12.8181818 C29,14.0231667 28.0231667,15 26.8181818,15 L19.1818182,15 C17.9768333,15 17,14.0231667 17,12.8181818 L17,5.18181818 C17,3.97683327 17.9768333,3 19.1818182,3 L26.8181818,3 Z M27,5 L19,5 L19,13 L27,13 L27,5 Z M26.8181818,17 C28.0231667,17 29,17.9768333 29,19.1818182 L29,26.8181818 C29,28.0231667 28.0231667,29 26.8181818,29 L19.1818182,29 C17.9768333,29 17,28.0231667 17,26.8181818 L17,19.1818182 C17,17.9768333 17.9768333,17 19.1818182,17 L26.8181818,17 Z M27,19 L19,19 L19,27 L27,27 L27,19 Z" id="形状结合"></path>
        </g>
    </g>
</svg>