<?xml version="1.0" encoding="UTF-8"?>
<svg width="90px" height="100px" viewBox="0 0 90 100" version="1.1" xmlns="http://www.w3.org/2000/svg" xmlns:xlink="http://www.w3.org/1999/xlink">
    <!-- Generator: Sketch 55.2 (78181) - https://sketchapp.com -->
    <title>订单查询 (1)</title>
    <desc>Created with Sketch.</desc>
    <g id="页面1" stroke="none" stroke-width="1" fill="none" fill-rule="evenodd">
        <g id="自定义预设-2" transform="translate(-50.000000, -42.000000)" fill="#949494" fill-rule="nonzero">
            <g id="订单查询-(1)" transform="translate(50.000000, 42.000000)">
                <path d="M34.1666667,89.6069869 L9.1666667,89.6069869 C7.0833334,89.6069869 5.4166667,87.9475982 5.4166667,85.8733624 L5.4166667,9.12663758 C5.4166667,7.05240181 7.0833334,5.39301313 9.1666667,5.39301313 L75.4166667,5.39301313 C77.5,5.39301313 79.1666667,7.05240181 79.1666667,9.12663758 L79.1666667,49.7816594 C79.1666667,51.441048 80.4166667,52.6855895 82.0833334,52.6855895 C83.7500001,52.6855895 85,51.441048 85,49.7816594 L85,9.12663758 C85,4.14847165 80.8333334,0 75.4166667,0 L9.5833334,0 C4.1666667,0 0,4.14847165 0,9.12663758 L0,85.8733624 C0,90.8515284 4.1666667,95 9.1666667,95 L34.1666667,95 C35.8333334,95 37.0833334,93.7554585 37.0833334,92.0960698 C37.0833334,90.8515284 35.8333334,89.6069869 34.1666667,89.6069869 Z" id="路径"></path>
                <path d="M89.1324441,94.6609311 L81.2212446,86.7282388 C83.7195181,83.3881579 85.3850338,79.6305668 85.3850338,75.0379554 C85.3850338,64.6002023 77.0574555,56.2499999 66.6479824,56.2499999 C56.2385094,56.2499999 47.910931,64.6002023 47.910931,75.0379554 C47.910931,85.4757084 56.2385094,93.8259108 66.6479824,93.8259108 C70.3953927,93.8259108 74.142803,92.5733804 77.0574555,90.4858299 L85.3850338,98.8360323 C85.8014128,99.2535424 86.6341706,99.6710526 87.4669284,99.6710526 C88.2996862,99.6710526 88.7160652,99.2535424 89.5488231,98.8360323 C89.965202,97.1659917 89.965202,95.4959513 89.1324441,94.6609311 L89.1324441,94.6609311 Z M53.7590322,74.9895766 C53.7590322,67.9600635 59.4813679,62.1710526 66.4299183,62.1710526 C73.3784687,62.1710526 79.1008044,67.9600634 79.1008044,74.9895766 C79.1008044,82.0190898 73.3784688,87.8081007 66.4299183,87.8081006 C59.4813679,88.2216014 53.7590322,82.4325905 53.7590322,74.9895766 Z M70.5063291,24.9605263 C70.5063291,23.2687969 69.2561915,22 67.5893414,22 L15.5002752,22 C14.2501376,22.4229324 13,23.6917294 13,24.9605263 C13,26.6522556 14.2501376,27.9210526 15.9169877,27.9210526 L68.0060539,27.9210526 C69.2561915,27.9210526 70.5063291,26.6522556 70.5063291,24.9605263 Z M15.746374,45.3947368 C14.0754879,45.3947368 12.8223234,46.6635338 12.8223234,48.3552631 C12.8223234,50.0469924 14.0754879,51.3157894 15.746374,51.3157894 L56.6830828,51.3157894 C58.3539689,51.3157894 59.6071335,50.0469924 59.6071335,48.3552631 C59.6071335,46.6635338 58.3539689,45.3947368 56.6830828,45.3947368 L15.746374,45.3947368 L15.746374,45.3947368 Z M38.7345551,68 L15.9531457,68 C14.2656339,68 13,69.268797 13,70.9605263 C13,72.6522557 14.2656339,73.9210526 15.9531457,73.9210526 L38.3126771,73.9210526 C40.0001889,73.9210526 41.2658228,72.6522557 41.2658228,70.9605263 C41.2658228,69.268797 40.0001889,68 38.7345551,68 Z" id="形状"></path>
            </g>
        </g>
    </g>
</svg>