<?xml version="1.0" encoding="UTF-8"?>
<svg width="96px" height="96px" viewBox="0 0 96 96" version="1.1" xmlns="http://www.w3.org/2000/svg" xmlns:xlink="http://www.w3.org/1999/xlink">
    <title>错误转移</title>
    <g id="错误转移" stroke="none" stroke-width="1" fill="none" fill-rule="evenodd">
        <g transform="translate(2.000000, 3.000000)">
            <path d="M27.8995533,3.96387097 C41.0346663,3.96387097 51.6827792,14.6119839 51.6827792,27.7470968 C51.6827792,40.1742783 42.1515193,50.3753148 30.0003973,51.4388087 L30,71 L24,71 L23.9997267,51.2121405 C12.7199028,49.351483 4.11632754,39.5540262 4.11632754,27.7470968 C4.11632754,14.6119839 14.7644404,3.96387097 27.8995533,3.96387097 Z M27.8995533,11.643871 C19.0059873,11.643871 11.7963275,18.8535307 11.7963275,27.7470968 C11.7963275,36.6406628 19.0059873,43.8503226 27.8995533,43.8503226 C36.7931194,43.8503226 44.0027792,36.6406628 44.0027792,27.7470968 C44.0027792,18.8535307 36.7931194,11.643871 27.8995533,11.643871 Z" id="形状结合" fill="#E5AFAF" fill-rule="nonzero"></path>
            <circle id="椭圆形" fill="#FFFFFF" cx="24" cy="25" r="18"></circle>
            <path d="M23.7832258,0 C36.9183387,0 47.5664516,10.6481129 47.5664516,23.7832258 C47.5664516,35.8909729 38.5188867,45.885548 26.8157746,47.3749333 L26.651,70.071 L69.793,70.126 L69.7939381,62.2864695 C69.7939381,61.1819 70.6893686,60.2864695 71.7939381,60.2864695 C72.1707189,60.2864695 72.5398364,60.3929015 72.8587743,60.5935065 L90.8512105,71.9103504 C91.7862082,72.4984432 92.0674301,73.733152 91.4793373,74.6681496 C91.3212179,74.9195406 91.1090974,75.1325625 90.858379,75.2917463 L72.8659428,86.7153426 C71.933447,87.3073945 70.697557,87.0314102 70.1055051,86.0989144 C69.9020042,85.7783955 69.7939381,85.406574 69.7939381,85.0269097 L69.793,77.807 L22.7782764,77.7464783 C20.715116,77.7438191 19.0358315,76.1150802 18.9469253,74.0771082 L18.9433267,73.8786484 L19.1370723,47.1128557 C8.22626284,44.9521365 -5.68434189e-14,35.3283545 -5.68434189e-14,23.7832258 C-5.68434189e-14,10.6481129 10.6481129,0 23.7832258,0 Z M38.0307001,16.2713907 L16.2713907,38.0307001 C18.5140828,39.2155859 21.0703098,39.8864516 23.7832258,39.8864516 C32.6767918,39.8864516 39.8864516,32.6767918 39.8864516,23.7832258 C39.8864516,21.0703098 39.2155859,18.5140828 38.0307001,16.2713907 Z M23.7832258,7.68 C14.8896598,7.68 7.68,14.8896598 7.68,23.7832258 C7.68,27.1760635 8.72927438,30.32383 10.5210248,32.9197271 L32.9197271,10.5210248 C30.32383,8.72927438 27.1760635,7.68 23.7832258,7.68 Z" id="形状结合" fill="#FB2323" fill-rule="nonzero"></path>
            <polygon id="直线-3" fill="#FB2323" fill-rule="nonzero" points="11.8916129 7.46103282 39.2759399 34.8453598 33.8453598 40.2759399 6.46103282 12.8916129"></polygon>
        </g>
    </g>
</svg>