<?xml version="1.0" standalone="no"?><!DOCTYPE svg PUBLIC "-//W3C//DTD SVG 1.1//EN" "http://www.w3.org/Graphics/SVG/1.1/DTD/svg11.dtd"><svg t="1624350316225" class="icon" viewBox="0 0 1024 1024" version="1.1" xmlns="http://www.w3.org/2000/svg" p-id="2720" xmlns:xlink="http://www.w3.org/1999/xlink" width="24" height="24"><defs><style type="text/css"></style></defs><path d="M57.6 275.2c38.4 19.2 89.6 38.4 156.8 48 67.2 12.8 137.6 19.2 217.6 19.2s150.4-6.4 217.6-19.2c67.2-12.8 118.4-28.8 156.8-51.2 38.4-22.4 57.6-44.8 57.6-67.2V137.6c0-25.6-19.2-48-57.6-67.2C768 48 716.8 32 649.6 19.2 582.4 6.4 508.8 0 432 0S281.6 6.4 214.4 19.2C147.2 32 96 48 57.6 67.2 19.2 89.6 0 112 0 137.6v67.2c0 25.6 19.2 48 57.6 70.4z" p-id="2721" fill="#5582f3"></path><path d="M57.6 480c38.4 22.4 89.6 38.4 156.8 51.2 67.2 12.8 137.6 19.2 217.6 19.2s147.2 6.4 214.4-6.4c0 0 19.2-3.2 35.2-9.6 32-64 112-105.6 182.4-108.8V320c-44.8 28.8-105.6 51.2-182.4 67.2-76.8 16-160 22.4-249.6 22.4s-172.8-6.4-249.6-22.4C105.6 374.4 44.8 348.8 0 320v89.6c0 25.6 19.2 48 57.6 70.4zM57.6 684.8c38.4 22.4 89.6 38.4 156.8 51.2 67.2 12.8 137.6 19.2 217.6 19.2 73.6 0 121.6 3.2 185.6-9.6l44.8-51.2c-9.6-19.2-12.8-64-12.8-92.8-73.6 12.8-131.2 12.8-214.4 12.8-89.6 0-172.8-6.4-249.6-22.4-76.8-16-137.6-38.4-182.4-67.2v89.6c-3.2 28.8 16 51.2 54.4 70.4zM432 822.4c-89.6 0-172.8-6.4-249.6-22.4-76.8-16-137.6-38.4-182.4-67.2v89.6c0 25.6 19.2 48 57.6 67.2 38.4 22.4 89.6 38.4 156.8 51.2 67.2 12.8 137.6 19.2 217.6 19.2h32c3.2-19.2 6.4-28.8 22.4-57.6l73.6-83.2c-44.8 3.2-80 3.2-128 3.2z" p-id="2722" data-spm-anchor-id="a313x.7781069.0.i2" fill="#5582f3" class="selected"></path><path d="M1008 588.8l-54.4 57.6c-25.6 25.6-64 25.6-89.6 3.2-25.6-25.6-25.6-64-3.2-89.6l54.4-57.6c-6.4-3.2-16-6.4-25.6-6.4-92.8-22.4-182.4 35.2-204.8 128-6.4 35.2-6.4 67.2 6.4 96l-160 179.2c-25.6 28.8-25.6 76.8 3.2 102.4 28.8 28.8 73.6 25.6 99.2-3.2l156.8-176c6.4 3.2 12.8 3.2 19.2 6.4 92.8 22.4 182.4-35.2 204.8-128 12.8-41.6 6.4-76.8-6.4-112z" p-id="2723" fill="#5582f3"></path></svg>