<?xml version="1.0" encoding="utf-8"?>
<!-- Generator: Adobe Illustrator 15.0.0, SVG Export Plug-In . SVG Version: 6.00 Build 0)  -->
<!DOCTYPE svg PUBLIC "-//W3C//DTD SVG 1.1//EN" "http://www.w3.org/Graphics/SVG/1.1/DTD/svg11.dtd">
<svg version="1.1" id="图层_1" xmlns="http://www.w3.org/2000/svg" xmlns:xlink="http://www.w3.org/1999/xlink" x="0px" y="0px"
	 width="24px" height="24px" viewBox="0 0 24 24" enable-background="new 0 0 24 24" xml:space="preserve">
<title>苍穹/icon/租户 copy备份 22@2x</title>
<g id="视觉">
	<g id="图标" transform="translate(-336.000000, -108.000000)">
		<g id="苍穹_x2F_icon_x2F_租户-copy备份-22" transform="translate(331.000000, 103.000000)">
			<path id="Shape" fill="#5582F3" d="M27.729,8.083c-0.168-0.161-0.4-0.25-0.645-0.247c-0.242-0.005-0.479,0.085-0.643,0.247
				l-1.86,1.679c-1.022-0.873-2.22-1.564-3.521-2.038C19.771,7.247,18.393,7.002,17,7.001c-2.501-0.039-4.937,0.729-6.873,2.168
				c-1.952,1.436-3.314,3.429-3.866,5.653v0.092c-0.002,0.111,0.047,0.216,0.135,0.292c0.083,0.081,0.201,0.126,0.323,0.125h2.849
				c0.206,0.004,0.386-0.125,0.43-0.307c0.223-0.521,0.476-1.028,0.758-1.522c1.329-1.976,3.696-3.18,6.245-3.176
				c1.856-0.023,3.647,0.617,4.994,1.784l-1.966,1.795c-0.184,0.149-0.285,0.363-0.285,0.588c0,0.223,0.104,0.435,0.285,0.586
				c0.166,0.163,0.398,0.253,0.646,0.247h6.412c0.243,0.002,0.476-0.087,0.642-0.247c0.18-0.154,0.276-0.366,0.271-0.587v-5.83
				C28.002,8.441,27.902,8.232,27.729,8.083z M27.186,18.664H24.43c-0.203-0.006-0.381,0.119-0.424,0.298
				c-0.404,0.864-0.66,1.374-0.762,1.523c-0.652,0.968-1.566,1.772-2.656,2.329c-1.095,0.558-2.331,0.852-3.589,0.847
				c-0.917,0.003-1.827-0.153-2.678-0.463c-0.853-0.309-1.635-0.758-2.305-1.326l1.961-1.782c0.259-0.24,0.337-0.594,0.195-0.904
				c-0.14-0.311-0.472-0.512-0.84-0.512H6.917C6.414,18.676,6.006,19.046,6,19.504v5.83c-0.003,0.338,0.22,0.644,0.564,0.771
				c0.343,0.13,0.738,0.058,0.998-0.187l1.848-1.68c1.008,0.879,2.192,1.571,3.487,2.043c1.285,0.475,2.659,0.718,4.046,0.716
				c2.493,0.039,4.917-0.729,6.842-2.166c1.945-1.438,3.299-3.431,3.842-5.655c0.018-0.025,0.023-0.059,0.018-0.091
				c0.002-0.231-0.203-0.42-0.457-0.422l0,0H27.186z"/>
		</g>
	</g>
</g>
</svg>
