<?xml version="1.0" encoding="UTF-8"?>
<svg width="96px" height="96px" viewBox="0 0 96 96" version="1.1" xmlns="http://www.w3.org/2000/svg" xmlns:xlink="http://www.w3.org/1999/xlink">
    <title>普通转移</title>
    <g id="普通转移" stroke="none" stroke-width="1" fill="none" fill-rule="evenodd">
        <g id="勾绿" transform="translate(2.000000, 2.000000)">
            <path d="" id="形状结合" stroke="#E1E1E1" stroke-width="8.25806452"></path>
            <circle id="椭圆形" fill="#FFFFFF" cx="24" cy="26" r="18"></circle>
            <path d="M23.7832258,0 C36.9183387,0 47.5664516,10.6481129 47.5664516,23.7832258 C47.5664516,35.9816431 38.3828719,46.0351205 26.5524104,47.40696 L26.747,70.947 L69.793,71.002 L69.7939381,63.2864695 C69.7939381,62.1819 70.6893686,61.2864695 71.7939381,61.2864695 C72.1707189,61.2864695 72.5398364,61.3929015 72.8587743,61.5935065 L90.8512105,72.9103504 C91.7862082,73.4984432 92.0674301,74.733152 91.4793373,75.6681496 C91.3212179,75.9195406 91.1090974,76.1325625 90.858379,76.2917463 L72.8659428,87.7153426 C71.933447,88.3073945 70.697557,88.0314102 70.1055051,87.0989144 C69.9020042,86.7783955 69.7939381,86.406574 69.7939381,86.0269097 L69.793,78.931 L22.7781168,78.8703492 C20.6592777,78.8676182 18.930484,77.2028087 18.8245036,75.1102783 L18.8193548,74.9064815 L18.6160571,47.0035694 C7.96543709,44.6440519 0,35.1438526 0,23.7832258 C0,10.6481129 10.6481129,0 23.7832258,0 Z M23.7832258,12.3870968 C17.4893175,12.3870968 12.3870968,17.4893175 12.3870968,23.7832258 C12.3870968,30.0771341 17.4893175,35.1793548 23.7832258,35.1793548 C30.0771341,35.1793548 35.1793548,30.0771341 35.1793548,23.7832258 C35.1793548,17.4893175 30.0771341,12.3870968 23.7832258,12.3870968 Z" id="形状结合" fill="#A8A8A8" fill-rule="nonzero"></path>
        </g>
    </g>
</svg>