<?xml version="1.0" encoding="UTF-8"?>
<svg width="14px" height="14px" viewBox="0 0 14 14" version="1.1" xmlns="http://www.w3.org/2000/svg" xmlns:xlink="http://www.w3.org/1999/xlink">
    <!-- Generator: Sketch 51.1 (57501) - http://www.bohemiancoding.com/sketch -->
    <title>icon_f7更多</title>
    <desc>Created with Sketch.</desc>
    <defs></defs>
    <g id="Page-1" stroke="none" stroke-width="1" fill="none" fill-rule="evenodd">
        <g id="流程服务云-工作台" transform="translate(-1268.000000, -549.000000)" stroke="#7F93BC">
            <g id="右侧流程设置" transform="translate(855.000000, 153.000000)">
                <g id="icon_f7更多" transform="translate(420.000000, 403.000000) scale(1, -1) translate(-420.000000, -403.000000) translate(413.000000, 396.000000)">
                    <path d="M2.50002883,0.997060412 C2.50293164,0.724767485 2.73099711,0.5 3.00247329,0.5 L12.9975267,0.5 C13.2721149,0.5 13.5,0.728974589 13.5,1.00247329 L13.5,10.9975267 C13.5,11.2672667 13.2786455,11.4928897 13.0103934,11.4998337 L13.0233322,11.9996662 L13.5232494,12.0087632 C13.5234569,11.9950804 13.5234569,11.9950804 13.5234985,11.9813693 L13.5234985,0.491394043 L2.02597183,0.491394043 C2.00649408,0.491478488 2.00649408,0.491478488 1.98707262,0.491899033 L2.00005724,0.991730404 L2.50002883,0.997060412 Z M0.5,3.00247329 L0.5,12.9975267 C0.5,13.2710254 0.727885113,13.5 1.00247329,13.5 L10.9975267,13.5 C11.2710254,13.5 11.5,13.2721149 11.5,12.9975267 L11.5,3.00247329 C11.5,2.72897459 11.2721149,2.5 10.9975267,2.5 L1.00247329,2.5 C0.728974589,2.5 0.5,2.72788511 0.5,3.00247329 Z" id="Combined-Shape"></path>
                </g>
            </g>
        </g>
    </g>
</svg>