<?xml version="1.0" encoding="UTF-8"?>
<svg width="20px" height="20px" viewBox="0 0 20 20" version="1.1" xmlns="http://www.w3.org/2000/svg" xmlns:xlink="http://www.w3.org/1999/xlink">
    <title>表</title>
    <g id="表" stroke="none" stroke-width="1" fill="none" fill-rule="evenodd">
        <path d="M18.25,4 L18.25,16.5 L2,16.5 L2,4 L18.25,4 Z M5.75,12.75 L3.25,12.75 L3.25,15.25 L5.75,15.25 L5.75,12.75 Z M9.5,12.75 L7,12.75 L7,15.25 L9.5,15.25 L9.5,12.75 Z M13.25,12.75 L10.75,12.75 L10.75,15.25 L13.25,15.25 L13.25,12.75 Z M16.999,12.75 L14.5,12.75 L14.5,15.25 L17,15.25 L16.999,12.75 Z M5.75,9 L3.25,9 L3.25,11.5 L5.75,11.5 L5.75,9 Z M9.5,9 L7,9 L7,11.5 L9.5,11.5 L9.5,9 Z M10.75,9 L10.75,11.5 L13.25,11.5 L13.25,9 L10.75,9 Z M17,5.25 L3.25,5.25 L3.25,7.75 L16.999,7.75 L17,5.25 Z M14.5,11.5 L16.999,11.5 L16.999,9 L14.5,9 L14.5,11.5 Z" id="Combined-Shape" fill="#FFFFFF" fill-rule="nonzero"></path>
    </g>
</svg>