<?xml version="1.0" encoding="UTF-8"?>
<svg width="26px" height="24px" viewBox="0 0 26 24" version="1.1" xmlns="http://www.w3.org/2000/svg" xmlns:xlink="http://www.w3.org/1999/xlink">
    <title>合并@1.5x</title>
    <g id="图标" stroke="none" stroke-width="1" fill="none" fill-rule="evenodd">
        <g id="合并" transform="translate(-2.000000, -3.000000)">
            <g id="编组" transform="translate(2.000000, 3.000000)">
                <rect id="矩形备份" x="0" y="0" width="26" height="24" rx="4"></rect>
                <path d="M22,7 C22.5522847,7 23,7.44771525 23,8 L23,19 C23,19.5522847 22.5522847,20 22,20 L7,20 C6.44771525,20 6,19.5522847 6,19 L6,17 L4,17 C3.44771525,17 3,16.5522847 3,16 L3,5 C3,4.44771525 3.44771525,4 4,4 L19,4 C19.5522847,4 20,4.44771525 20,5 L20,7 L22,7 Z M7,19 L10,19 L10,16 L7,16 L7,19 Z M14,16 L11,16 L11,19 L14,19 L14,16 Z M18,16 L15,16 L15,19 L18,19 L18,16 Z M22,16 L19,16 L19,19 L22,19 L22,16 Z M6,16 L6,13 L4,13 L4,16 L6,16 Z M7,15 L10,15 L10,12 L7,12 L7,15 Z M14,12 L11,12 L11,15 L14,15 L14,12 Z M18,12 L15,12 L15,15 L18,15 L18,12 Z M22,12 L19,12 L19,15 L22,15 L22,12 Z M6,12 L6,9 L4,9 L4,12 L6,12 Z M7,11 L22,11 L22,8 L7,8 L7,11 Z M19,5 L4,5 L4,8 L6,8 C6,7.44771525 6.44771525,7 7,7 L19,7 L19,5 Z" id="形状结合" fill="#FFFFFF" fill-rule="nonzero"></path>
            </g>
        </g>
    </g>
</svg>