<?xml version="1.0" encoding="UTF-8"?>
<svg width="30px" height="30px" viewBox="0 0 30 30" version="1.1" xmlns="http://www.w3.org/2000/svg" xmlns:xlink="http://www.w3.org/1999/xlink">
    <title>@1.5x黄底SQL</title>
    <g id="黄底SQL" stroke="none" stroke-width="1" fill="none" fill-rule="evenodd">
        <rect id="矩形" x="0" y="0" width="30" height="30" rx="4"></rect>
        <rect id="矩形备份" stroke="#FFFFFF" x="4.5" y="4.5" width="21" height="21" rx="4"></rect>
        <g id="SQL" transform="translate(7.680000, 9.480000)" fill="#FFFFFF" fill-rule="nonzero">
            <path d="M2.58,6.388 C2.496,6.292 2.4,6.208 2.256,6.124 L2.232,6.112 C2.124,6.04 2.028,5.98 1.8,5.872 L1.704,5.824 C1.464,5.704 1.344,5.632 1.2,5.548 L1.188,5.548 C0.96,5.392 0.768,5.236 0.6,5.044 C0.204,4.6 0,4.012 0,3.244 L0,1.8 C0,0.804 0.804,0 1.8,0 L2.28,0 C3.276,0 4.08,0.804 4.08,1.8 L4.08,3.22 L2.88,3.22 L2.88,1.8 C2.88,1.476 2.616,1.2 2.292,1.2 L1.8,1.2 C1.476,1.2 1.2,1.464 1.2,1.788 L1.2,3.22 C1.2,3.724 1.308,4.036 1.5,4.252 C1.584,4.348 1.68,4.432 1.824,4.516 L1.848,4.528 C1.956,4.6 2.052,4.66 2.28,4.768 L2.376,4.816 C2.616,4.936 2.736,5.008 2.88,5.092 L2.892,5.092 C3.12,5.248 3.312,5.404 3.48,5.596 C3.876,6.04 4.08,6.628 4.08,7.396 L4.08,8.84 C4.08,9.836 3.276,10.64 2.28,10.64 L1.8,10.64 C0.804,10.64 0,9.836 0,8.84 L0,7.42 L1.2,7.42 L1.2,8.84 C1.2,9.164 1.464,9.44 1.788,9.44 L2.28,9.44 C2.604,9.44 2.88,9.176 2.88,8.852 L2.88,7.42 C2.88,6.916 2.772,6.604 2.58,6.388 Z" id="路径"></path>
            <path d="M7.32,0 C8.448,0 9.36,0.912 9.36,2.04 L9.36,8.6 C9.36,8.876 9.3,9.14 9.204,9.392 L9.708,9.896 L8.964,10.64 L8.544,10.232 C8.208,10.484 7.776,10.64 7.32,10.64 C6.192,10.64 5.28,9.728 5.28,8.6 L5.28,2.04 C5.28,0.912 6.192,0 7.32,0 Z M6.48,8.6 C6.48,9.068 6.852,9.44 7.32,9.44 C7.452,9.44 7.572,9.416 7.68,9.356 L6.972,8.648 L7.716,7.904 L8.16,8.348 L8.16,2.04 C8.16,1.572 7.788,1.2 7.32,1.2 C6.864,1.2 6.492,1.572 6.48,2.028 L6.48,8.6 Z" id="形状"></path>
            <polygon id="路径" points="11.88 0.12 11.88 9.32 14.76 9.32 14.76 10.52 10.68 10.52 10.68 0.12"></polygon>
        </g>
    </g>
</svg>