<?xml version="1.0" encoding="UTF-8"?>
<svg width="18px" height="18px" viewBox="0 0 18 18" version="1.1" xmlns="http://www.w3.org/2000/svg" xmlns:xlink="http://www.w3.org/1999/xlink">
    <title>邮编</title>
    <g id="邮编" stroke="none" stroke-width="1" fill="none" fill-rule="evenodd">
        <g id="编组" fill="#999999" fill-rule="nonzero">
            <g id="0.-全局样式/1.图标/1.系统图标/线性图标/书备份-4">
                <path d="M6.75,2.8125 C7.57699482,2.8125 8.32308408,3.17026849 8.83876807,3.74370685 L8.92734895,3.84711172 L8.998875,3.938625 L9.03517147,3.8913966 C9.49770752,3.30129601 10.190962,2.90068962 10.9791375,2.82537483 L11.1279996,2.81509848 L11.25,2.8125 L16.3125,2.8125 C16.6009702,2.8125 16.8387228,3.02964761 16.8712157,3.30940062 L16.875,3.375 L16.875,14.625 C16.875,14.9134702 16.6578524,15.1512228 16.3780994,15.1837157 L16.3125,15.1875 L11.1015382,15.1875 C10.6097684,15.1875 10.1533913,15.432757 9.88796395,15.8236755 L9.83406605,15.909637 L9.77668536,16.0163645 C9.68952811,16.1784761 9.5294672,16.2863729 9.34954727,16.3083486 L9.28125,16.3125 L8.71875,16.3125 C8.50569072,16.3125 8.31091771,16.1921237 8.21563471,16.0015576 C7.98177144,15.5338311 7.51898105,15.2276115 7.00243567,15.1911611 L6.89846176,15.1875 L1.6875,15.1875 C1.39902984,15.1875 1.16127722,14.9703524 1.12878435,14.6905994 L1.125,14.625 L1.125,3.375 C1.125,3.08652984 1.34214761,2.84877722 1.62190062,2.81628435 L1.6875,2.8125 L6.75,2.8125 Z M6.75,3.9375 L2.25,3.9375 L2.25,14.0625 L6.89846176,14.0625 C7.66344939,14.0625 8.37738933,14.3985407 8.86403385,14.9616951 L8.95257305,15.0699214 L9,15.1340625 L9.06196744,15.0513044 C9.49512535,14.5020417 10.1345188,14.1484499 10.8345066,14.0762276 L10.975269,14.0655601 L11.1015382,14.0625 L15.75,14.0625 L15.75,3.9375 L11.25,3.9375 C10.3845895,3.9375 9.67133167,4.58894282 9.57385305,5.42820185 L9.56536464,5.52584656 L9.5625,5.625 L9.5625,10.6875 C9.5625,10.9981602 9.31066017,11.25 9,11.25 C8.71152984,11.25 8.47377722,11.0328524 8.44128435,10.7530994 L8.4375,10.6875 L8.43766903,5.63878871 L8.43542465,5.54031722 C8.39304197,4.67804728 7.70446087,3.9901567 6.84937535,3.94038466 L6.75,3.9375 Z" id="形状"></path>
            </g>
        </g>
    </g>
</svg>