<?xml version="1.0" encoding="UTF-8"?>
<svg width="18px" height="18px" viewBox="0 0 18 18" version="1.1" xmlns="http://www.w3.org/2000/svg" xmlns:xlink="http://www.w3.org/1999/xlink">
    <title>编组</title>
    <g id="收货地址" stroke="none" stroke-width="1" fill="none" fill-rule="evenodd">
        <g id="编组">
            <rect id="矩形" x="0" y="0" width="18" height="18"></rect>
            <path d="M15.3211447,2 L2.67885533,2 C1.75463699,2 1,2.76268952 1,3.69676994 L1,13.3032301 C1,14.2373105 1.75463699,15 2.67885533,15 L15.3211447,15 C16.245363,15 17,14.2373105 17,13.3032301 L17,3.69676994 C17,2.76268952 16.245363,2 15.3211447,2 Z M15.1515633,3.13974951 L9.30948596,7.91298616 C9.29252782,7.9215557 9.27556969,7.93869479 9.26709062,7.95583388 C9.12294648,8.10151615 8.88553259,8.10151615 8.74138845,7.95583388 L8.69899311,7.91298616 L2.85691574,3.13974951 L15.1515633,3.13974951 Z M15.3211447,13.8602505 L2.67885533,13.8602505 C2.3736089,13.8602505 2.13619502,13.6117337 2.13619502,13.3117996 L2.13619502,4.02241266 L7.96131426,8.78707976 C8.24960254,9.06987475 8.62268151,9.20698748 8.99576047,9.20698748 C9.36883943,9.20698748 9.74191839,9.06987475 10.0302067,8.78707976 L15.8553259,4.02241266 L15.8553259,13.3032301 C15.863805,13.6117337 15.6263911,13.8602505 15.3211447,13.8602505 Z" id="形状" fill="#999999" fill-rule="nonzero"></path>
        </g>
    </g>
</svg>