<?xml version="1.0" encoding="UTF-8"?>
<svg width="168px" height="96px" viewBox="0 0 168 96" version="1.1" xmlns="http://www.w3.org/2000/svg" xmlns:xlink="http://www.w3.org/1999/xlink">
    <title>暂无优惠券</title>
    <defs>
        <linearGradient x1="50%" y1="0%" x2="50%" y2="100%" id="linearGradient-1">
            <stop stop-color="#D6DCE7" offset="0%"></stop>
            <stop stop-color="#D6DCE7" stop-opacity="0" offset="100%"></stop>
        </linearGradient>
    </defs>
    <g id="收货地址" stroke="none" stroke-width="1" fill="none" fill-rule="evenodd">
        <g id="1_1.确认订单_配送到家_收货地址" transform="translate(-111.000000, -302.000000)">
            <g id="编组-6" transform="translate(90.000000, 302.000000)">
                <g id="暂无优惠券" transform="translate(21.000000, 0.000000)">
                    <g id="编组" transform="translate(108.000000, 40.000000)" fill="url(#linearGradient-1)" opacity="0.300000012">
                        <g id="形状结合">
                            <path d="M3,39 L3,24 C3,15.7157288 9.71572875,9 18,9 C25.4616776,9 31.6508469,14.4482558 32.8063948,21.5836543 C33.797875,21.2064779 34.8748247,21 36,21 C40.9705627,21 45,25.0294373 45,30 L45,39 L3,39 Z"></path>
                        </g>
                    </g>
                    <g id="编组" transform="translate(12.000000, 32.000000)" fill="url(#linearGradient-1)" opacity="0.300000012">
                        <g id="形状结合" transform="translate(24.000000, 24.000000) scale(-1, 1) translate(-24.000000, -24.000000) ">
                            <path d="M3,39 L3,24 C3,15.7157288 9.71572875,9 18,9 C25.4616776,9 31.6508469,14.4482558 32.8063948,21.5836543 C33.797875,21.2064779 34.8748247,21 36,21 C40.9705627,21 45,25.0294373 45,30 L45,39 L3,39 Z"></path>
                        </g>
                    </g>
                    <g id="加密网页" transform="translate(36.000000, 0.000000)">
                        <g id="编组-2">
                            <rect id="矩形" x="0" y="0" width="96" height="96"></rect>
                        </g>
                        <ellipse id="椭圆形" fill="#CAD0DB" cx="48" cy="81" rx="18" ry="6"></ellipse>
                        <path d="M69.2132034,17.7867966 C80.7159189,29.2895121 80.9250592,47.8091556 69.8406243,59.5670321 L69.2132034,60.2132034 L50.1730135,80.2170111 C49.0307032,81.4171333 47.1317865,81.4639991 45.9316643,80.3216888 L26.7867966,60.2132034 L26.0698184,59.4716239 C20.6899395,53.7155333 18,46.3577666 18,39 C18,31.3223305 20.9289322,23.6446609 26.7867966,17.7867966 C38.5025253,6.07106781 57.4974747,6.07106781 69.2132034,17.7867966 Z M48,30 C43.0294373,30 39,34.0294373 39,39 C39,43.9705627 43.0294373,48 48,48 C52.9705627,48 57,43.9705627 57,39 C57,34.0294373 52.9705627,30 48,30 Z" id="形状结合" fill="#E2E8F3"></path>
                    </g>
                </g>
            </g>
        </g>
    </g>
</svg>