<?xml version="1.0" standalone="no"?><!DOCTYPE svg PUBLIC "-//W3C//DTD SVG 1.1//EN" "http://www.w3.org/Graphics/SVG/1.1/DTD/svg11.dtd"><svg t="1706574111160" class="icon" viewBox="0 0 1024 1024" version="1.1" xmlns="http://www.w3.org/2000/svg" p-id="5369" xmlns:xlink="http://www.w3.org/1999/xlink" width="22" height="22"><path d="M135.54650112 420.10396445V467.7025189l227.21573888 92.05380666v-54.33419776L210.9857189 443.90324111 362.76224 382.38435556v-55.68132778zM482.46253 230.60783446l-100.13657999 331.84274887h48.94568221l101.48371-331.84274887zM550.96585444 505.4221278v54.33419776l227.21574002-92.05380666v-47.59855445l-227.21574002-93.40093667v55.68132778l151.77652224 61.51888555z" fill="#3B71E9" p-id="5370"></path><path d="M223.66814777 47.78666668h485.45185223c103.1585189 0 163.84 60.6814811 163.84 157.77185222v287.32681444h-60.6814811V205.5585189c0-54.61333333-42.47703666-97.09036999-103.1585189-97.09037112H223.66814777c-66.74963001 0-103.1585189 42.47703666-103.15851776 97.09037112v485.45185109c12.19697778 70.32376889 34.51562667 93.51016334 103.15851776 109.22666667h292.56362667v60.68148224c-195.04241778 2.02069333-292.56362667 2.02069333-292.56362667 0-103.1585189 0-163.84-69.78370333-163.84-169.90814891V205.5585189c0-97.09036999 60.6814811-157.77185223 163.84-157.77185222z" fill="#3B71E9" p-id="5371"></path><path d="M636.30222222 681.63508111c0-11.58409443 9.17504-20.96545223 20.48-20.96545109h122.88c11.31102777 0 20.48 9.38135666 20.48 20.96545109v22.63419335c0 15.30387001-6.52932779 29.84922112-17.87676444 39.79491556L745.91118222 775.96444445l36.34820779 31.89418666a52.93245667 52.93245667 0 0 1 17.88283221 39.79491557v22.64026112c0 11.57802667-9.17504 20.96545223-20.48 20.96545109h-122.88a20.24334222 20.24334222 0 0 1-14.48467-6.14096555 21.21424555 21.21424555 0 0 1-5.99533-14.82448554v-22.63419336a52.95672889 52.95672889 0 0 1 17.87676445-39.79491555l36.35427555-31.90025444-36.34820778-31.89418667a52.93245667 52.93245667 0 0 1-17.88283222-39.80098332v-22.63419335z m143.36 0h-122.88v22.63419335a31.76068779 31.76068779 0 0 0 10.74062223 23.8781622l36.34213888 31.89418667a21.17176889 21.17176889 0 0 1 7.16041557 15.91675335 21.17783666 21.17783666 0 0 1-7.16041557 15.91675222l-36.34820665 31.90632333a31.76068779 31.76068779 0 0 0-10.73455446 23.87816221v22.63419336h122.88v-22.63419336a31.76068779 31.76068779 0 0 0-10.74062222-23.87816221l-36.34213888-31.90632333a21.17176889 21.17176889 0 0 1-7.16041557-15.91675222 21.17783666 21.17783666 0 0 1 7.16041557-15.91675335l36.34820665-31.88811776a31.76068779 31.76068779 0 0 0 10.73455445-23.88423111v-22.63419335z" fill="#05C8C8" p-id="5372"></path><path d="M720.40675556 762.7783589c2.92484779 0 5.72226333-1.21363001 7.71868444-3.36782222l21.8514011-23.05896334a12.01493333 12.01493333 0 0 0 2.36657778-12.56106666c-1.69301333-4.31445333-5.66764999-7.12400555-10.09132999-7.12400555h-43.69066667c-4.42368 0-8.39831666 2.80955221-10.09739889 7.11793777a11.99672889 11.99672889 0 0 0 2.37264668 12.56106667l21.84533333 23.05896221c2.00248889 2.15419221 4.79383666 3.37388999 7.72475222 3.37389112z" fill="#05C8C8" p-id="5373"></path><path d="M598.67970333 630.3288889a29.12711111 29.12711111 0 0 0-29.12711111 29.12711111v233.01688889a29.12711111 29.12711111 0 0 0 29.12711111 29.12711111h233.01688889a29.12711111 29.12711111 0 0 0 29.12711111-29.12711111v-233.01688889a29.12711111 29.12711111 0 0 0-29.12711111-29.12711111h-233.01688889z m7.71261667-42.47703667h211.52350777c43.8059611 0 79.31676445 35.51080334 79.31676445 79.31676445v211.52350777c0 43.8059611-35.51080334 79.31676445-79.31676445 79.31676445H606.38625224c-43.8059611 0-79.31676445-35.51080334-79.31676445-79.31676445V667.16254778c0-43.8059611 35.51080334-79.31676445 79.31676445-79.31676445z" fill="#00CCFE" p-id="5374"></path><path d="M872.96 830.52316445h60.74823112c14.59996445 0 29.84315221-21.7300389 29.84315221-36.33000334V582.20847446c0-14.59996445-21.80892445-36.864-36.40888889-36.864H733.51395556c-14.59996445 0-30.48030777 21.91208334-30.48030777 36.51811556v36.36641109h-42.30712889v-36.36641109c0-43.81203001 28.98147555-78.97088 72.78743666-78.97088h193.62247111c43.8059611 0 79.31676445 35.51080334 79.31676445 79.31676444l0.05461333 211.97861888c0 43.8059611-28.99968 78.86165333-72.80564111 78.86165334H872.96v-42.53165z" fill="#00CCFE" p-id="5375"></path></svg>