<?xml version="1.0" encoding="UTF-8"?>
<svg width="16px" height="16px" viewBox="0 0 16 16" version="1.1" xmlns="http://www.w3.org/2000/svg" xmlns:xlink="http://www.w3.org/1999/xlink">
    <title>地球(语言)</title>
    <g id="采购云-供应商门户（激活）0217" stroke="none" stroke-width="1" fill="none" fill-rule="evenodd">
        <g id="金蝶供应商门户_未登录" transform="translate(-1204.000000, -24.000000)" stroke="#B3BBD1">
            <g id="编组-14" transform="translate(1204.000000, 22.000000)">
                <g id="编组" transform="translate(0.000000, 2.000000)">
                    <g id="编组-4" transform="translate(-0.000000, 0.000000)">
                        <circle id="椭圆形备份-14" transform="translate(8.000000, 8.000000) rotate(-270.000000) translate(-8.000000, -8.000000) " cx="8" cy="8" r="7.5"></circle>
                        <path d="M7.41830667,0.874811372 L7.66265773,0.647794772 L8.54071154,1.59302954 L8.04356326,2.12491163 L8.04356326,3.19731465 L6.46170942,3.72970704 L6.69158085,4.58085192 L8.20417185,5.0041605 L9.02713925,3.90744146 L8.59972033,6.46875772 L7.66265773,5.35535864 L6.29845584,6.06496248 L5.34147191,6.66165666 L5.77517279,8.5257855 L7.1527793,8.5257855 L8.78801207,9.52220779 L9.8296004,9.94514746 L9.8296004,10.8114222 L10.926941,10.9959503 L10.5074058,12.7195332 C10.2109841,13.481011 9.98504901,14.0328708 9.8296004,14.3751127 C9.67415178,14.7173546 9.59860928,14.7374369 9.60297291,14.4353598 L9.23120146,13.0588017 L8.50509821,11.2957621 L6.8789203,10.8114222 L6.80482676,9.41781588 L5.72901747,8.91688756 L5.34147191,8.07394909 L3.9734486,8.81389058 L3.24014903,6.85995446 L2.44116047,6.10997928 L1.96927696,6.66165666 L0.926940997,6.1938539 C2.46964303,4.05551113 3.48514556,2.69919704 3.9734486,2.12491163 C4.46175164,1.55062621 5.61003766,1.13392612 7.41830667,0.874811372 Z" id="路径-13" fill="#B3BBD1" stroke-linejoin="round"></path>
                        <path d="M13.5328397,5.06157668 L13.2578543,5.71585853 L13.2903516,6.20889089 L11.8223501,7.56157668 L12.8150606,8.88120136 L12.8150606,10.0615767 L14.8223501,8.39037773 C14.555682,7.79544335 14.3459037,7.40656285 14.1930151,7.22373621 C14.0401265,7.04090958 14.2499048,7.03417609 14.8223501,7.20353575 L14.8223501,5.71585853 L14.1932226,5.59356854 L13.5328397,5.06157668 Z" id="路径-14" fill="#B3BBD1" stroke-linejoin="round" transform="translate(13.322350, 7.561577) rotate(-11.000000) translate(-13.322350, -7.561577) "></path>
                    </g>
                </g>
            </g>
        </g>
    </g>
</svg>