<?xml version="1.0" encoding="UTF-8"?>
<svg width="37px" height="31px" viewBox="0 0 37 31" version="1.1" xmlns="http://www.w3.org/2000/svg" xmlns:xlink="http://www.w3.org/1999/xlink">
    <title>编组 3</title>
    <g id="视觉" stroke="none" stroke-width="1" fill="none" fill-rule="evenodd">
        <g id="画板" transform="translate(-378.000000, -112.000000)" fill="#FB2425">
            <g id="编组-3" transform="translate(378.000000, 112.000000)">
                <path d="M0,0 L32,0 C34.7614237,-5.07265313e-16 37,2.23857625 37,5 L37,30.5 L37,30.5 L0,0 Z" id="矩形备份-10" opacity="0.177562314"></path>
                <g id="编组备份" transform="translate(22.000000, 5.000000)" fill-rule="nonzero">
                    <path d="M5.38573635,4.5 L8.81543351,1.07030285 C8.93355419,0.953200834 9,0.79376379 9,0.62743467 C9,0.461105549 8.93355419,0.301668505 8.81543351,0.184566493 C8.69833149,0.0664458132 8.53889445,0 8.37256533,0 C8.20623621,0 8.04679917,0.0664458132 7.92969715,0.184566493 L4.5,3.61426365 L1.07030285,0.184566493 C0.953200834,0.0664458132 0.79376379,0 0.62743467,0 C0.461105549,0 0.301668505,0.0664458132 0.184566493,0.184566493 C0.0664458132,0.301668505 0,0.461105549 0,0.62743467 C0,0.79376379 0.0664458132,0.953200834 0.184566493,1.07030285 L3.61426365,4.5 L0.184566493,7.92969715 C0.0664458132,8.04679917 0,8.20623621 0,8.37256533 C0,8.53889445 0.0664458132,8.69833149 0.184566493,8.81543351 C0.301668505,8.93355419 0.461105549,9 0.62743467,9 C0.79376379,9 0.953200834,8.93355419 1.07030285,8.81543351 L4.5,5.38573635 L7.92969715,8.81543351 C8.04679917,8.93355419 8.20623621,9 8.37256533,9 C8.53889445,9 8.69833149,8.93355419 8.81543351,8.81543351 C8.93355419,8.69833149 9,8.53889445 9,8.37256533 C9,8.20623621 8.93355419,8.04679917 8.81543351,7.92969715 L5.38573635,4.5 Z" id="路径"></path>
                </g>
            </g>
        </g>
    </g>
</svg>