<?xml version="1.0" encoding="UTF-8"?>
<svg width="37px" height="31px" viewBox="0 0 37 31" version="1.1" xmlns="http://www.w3.org/2000/svg" xmlns:xlink="http://www.w3.org/1999/xlink">
    <title>编组 5</title>
    <g id="视觉" stroke="none" stroke-width="1" fill="none" fill-rule="evenodd">
        <g id="画板" transform="translate(-893.000000, -115.000000)">
            <g id="编组-5" transform="translate(893.000000, 115.000000)">
                <path d="M0,0 L32,0 C34.7614237,-5.07265313e-16 37,2.23857625 37,5 L37,30.5 L37,30.5 L0,0 Z" id="矩形备份-12" fill="#CCCCCC" opacity="0.177562314"></path>
                <g id="编组备份-3" transform="translate(21.000000, 4.000000)" fill="#999999" fill-rule="nonzero">
                    <path d="M1.35860525,3.23939161 C0.674842018,4.78942702 0.975472835,6.61071862 2.18237119,7.81762119 C3.38864453,9.02389874 5.21055479,9.32515563 6.76058478,8.64139001 L7.49997409,9.38140691 C5.50618551,10.4439312 3.0561381,10.1226738 1.46673234,8.53326254 C-0.122673414,6.94385123 -0.443929631,4.49379526 0.618590929,2.49999972 L1.35860525,3.23939161 Z M7.82310534,2.17686734 C6.61558198,0.968089728 4.7874216,0.669332904 3.23551657,1.36434878 L2.49987733,0.627456947 C4.49366591,-0.445692566 6.94683839,-0.126310271 8.53686915,1.46310104 C10.1268999,3.05313736 10.4456561,5.50694341 9.37188531,7.50011394 L8.63562106,6.76447213 C9.3300095,5.21256168 9.03125372,3.38501994 7.82310534,2.17686734 Z M0.740468288,0.866212401 L0.866720731,0.739959517 C1.02163945,0.585393509 1.27243786,0.585393509 1.42735658,0.739959517 L9.25875812,8.57326345 C9.41318014,8.72775405 9.41318014,8.97816063 9.25875812,9.13265123 L9.13313069,9.25890411 C8.97821197,9.41347012 8.72741356,9.41347012 8.57249484,9.25890411 L0.7410933,1.42622519 C0.587087308,1.27180647 0.587087308,1.02188115 0.7410933,0.86746243 L0.7410933,0.866837415 L0.740468288,0.866212401 Z" id="形状"></path>
                </g>
            </g>
        </g>
    </g>
</svg>