<?xml version="1.0" encoding="UTF-8"?>
<svg width="37px" height="31px" viewBox="0 0 37 31" version="1.1" xmlns="http://www.w3.org/2000/svg" xmlns:xlink="http://www.w3.org/1999/xlink">
    <title>编组 9</title>
    <g id="视觉" stroke="none" stroke-width="1" fill="none" fill-rule="evenodd">
        <g id="画板" transform="translate(-639.000000, -200.000000)" fill="#FC981D">
            <g id="编组-9" transform="translate(639.000000, 200.000000)">
                <g id="编组-7备份" opacity="0.177562314">
                    <g id="编组-4备份">
                        <path d="M0,0 L32,0 C34.7614237,-5.07265313e-16 37,2.23857625 37,5 L37,30.5 L37,30.5 L0,0 Z" id="矩形备份-11"></path>
                    </g>
                </g>
                <path d="M24.7101449,5 C25.0696636,5 25.3667837,5.25080345 25.4138071,5.57620395 L25.4202899,5.66666667 L25.4202899,12.3333333 C25.4202899,12.7015232 25.1023471,13 24.7101449,13 C24.3506262,13 24.0535061,12.7491965 24.0064828,12.4237961 L24,12.3333333 L24,5.66666667 C24,5.29847683 24.3179427,5 24.7101449,5 Z M30.2898551,5 C30.6493738,5 30.9464939,5.25080345 30.9935172,5.57620395 L31,5.66666667 L31,12.3333333 C31,12.7015232 30.6820573,13 30.2898551,13 C29.9303364,13 29.6332163,12.7491965 29.5861929,12.4237961 L29.5797101,12.3333333 L29.5797101,5.66666667 C29.5797101,5.29847683 29.8976529,5 30.2898551,5 Z" id="已挂起备份" fill-rule="nonzero"></path>
            </g>
        </g>
    </g>
</svg>