<?xml version="1.0" encoding="UTF-8"?>
<svg width="18px" height="18px" viewBox="0 0 18 18" version="1.1" xmlns="http://www.w3.org/2000/svg" xmlns:xlink="http://www.w3.org/1999/xlink">
    <title>地址</title>
    <g id="地址" stroke="none" stroke-width="1" fill="none" fill-rule="evenodd">
        <path d="M14.625,7.875 C15.0000732,7.875 15.1876098,8.0625 15.1876098,8.4375 L15.1874539,15.6456781 C15.1902404,15.8222002 15.120281,15.992385 14.9933583,16.1178393 C14.8664356,16.2432937 14.6932419,16.3134489 14.5128492,16.3125 L3.48989761,16.3125 C3.30911776,16.3139174 3.13537279,16.2440004 3.00791843,16.118524 C2.88046407,15.9930477 2.8100555,15.8226003 2.81260075,15.6456926 L2.81260075,8.53761652 C2.8125141,8.09587217 2.99998052,7.875 3.375,7.875 C3.75,7.875 3.9375,8.0625 3.9375,8.4375 L3.9375,15.1875 L14.0625,15.1875 L14.0625,8.4375 C14.0625,8.0625 14.25,7.875 14.625,7.875 Z M5.90625,12.9375 C6.21691017,12.9375 6.46875,13.1893398 6.46875,13.5 C6.46875,13.8106602 6.21691017,14.0625 5.90625,14.0625 C5.59558983,14.0625 5.34375,13.8106602 5.34375,13.5 C5.34375,13.1893398 5.59558983,12.9375 5.90625,12.9375 Z M12.09375,12.9375 C12.4044102,12.9375 12.65625,13.1893398 12.65625,13.5 C12.65625,13.8106602 12.4044102,14.0625 12.09375,14.0625 L8.15625,14.0625 C7.84558983,14.0625 7.59375,13.8106602 7.59375,13.5 C7.59375,13.1893398 7.84558983,12.9375 8.15625,12.9375 L12.09375,12.9375 Z M5.90625,10.125 C6.21691017,10.125 6.46875,10.3768398 6.46875,10.6875 C6.46875,10.9981602 6.21691017,11.25 5.90625,11.25 C5.59558983,11.25 5.34375,10.9981602 5.34375,10.6875 C5.34375,10.3768398 5.59558983,10.125 5.90625,10.125 Z M12.09375,10.125 C12.4044102,10.125 12.65625,10.3768398 12.65625,10.6875 C12.65625,10.9981602 12.4044102,11.25 12.09375,11.25 L8.15625,11.25 C7.84558983,11.25 7.59375,10.9981602 7.59375,10.6875 C7.59375,10.3768398 7.84558983,10.125 8.15625,10.125 L12.09375,10.125 Z M5.90625,7.3125 C6.21691017,7.3125 6.46875,7.56433983 6.46875,7.875 C6.46875,8.18566017 6.21691017,8.4375 5.90625,8.4375 C5.59558983,8.4375 5.34375,8.18566017 5.34375,7.875 C5.34375,7.56433983 5.59558983,7.3125 5.90625,7.3125 Z M12.09375,7.3125 C12.4044102,7.3125 12.65625,7.56433983 12.65625,7.875 C12.65625,8.18566017 12.4044102,8.4375 12.09375,8.4375 L8.15625,8.4375 C7.84558983,8.4375 7.59375,8.18566017 7.59375,7.875 C7.59375,7.56433983 7.84558983,7.3125 8.15625,7.3125 L12.09375,7.3125 Z M8.98825148,1.125 C9.16690578,1.12666721 9.33704392,1.20067929 9.45892138,1.32974691 L16.6765946,6.74672844 C16.8048062,6.87122629 16.8764067,7.04178975 16.8751591,7.21939436 C16.8751591,7.38969243 16.8062497,7.55294864 16.6834397,7.67244527 C16.5589032,7.80046532 16.4922141,7.8734855 16.3125,7.875 C16.1327975,7.87377426 15.9614574,7.79976382 15.8385091,7.67025309 L9,2.53125 L2.25,7.59375 C2.12909769,7.71977506 1.96124338,7.79140154 1.78549355,7.79196335 C1.6056809,7.79030269 1.44186712,7.79941474 1.31839871,7.67025309 C1.19445798,7.55228342 1.12462863,7.38944116 1.12496719,7.21940869 C1.12322949,7.04385473 1.1931833,6.87499776 1.31908031,6.75109848 L8.52526777,1.32321335 C8.64568427,1.19739456 8.81298805,1.12576819 8.98825148,1.125 Z" id="形状结合" fill="#999999"></path>
    </g>
</svg>