<?xml version="1.0" encoding="UTF-8"?>
<svg width="22px" height="24px" viewBox="0 0 22 24" version="1.1" xmlns="http://www.w3.org/2000/svg" xmlns:xlink="http://www.w3.org/1999/xlink">
    <title>编组 4</title>
    <g id="我的" stroke="none" stroke-width="1" fill="none" fill-rule="evenodd">
        <g id="个人中心" transform="translate(-185.000000, -227.000000)" fill-rule="nonzero">
            <g id="编组-4" transform="translate(185.500000, 227.750000)">
                <path d="M14.875,0 C15.3582492,0 15.75,0.391750844 15.75,0.875 L15.75,1.75 L20.125,1.75 C20.6082492,1.75 21,2.14175084 21,2.625 L21,21.875 C21,22.3582492 20.6082492,22.75 20.125,22.75 L0.875,22.75 C0.391750844,22.75 0,22.3582492 0,21.875 L0,2.625 C0,2.14175084 0.391750844,1.75 0.875,1.75 L5.25,1.75 L5.25,0.875 C5.25,0.391750844 5.64175084,0 6.125,0 C6.60824916,0 7,0.391750844 7,0.875 L7,1.75 L14,1.75 L14,0.875 C14,0.391750844 14.3917508,0 14.875,0 Z M19.25,8.75 L1.75,8.75 L1.75,21 L19.25,21 L19.25,8.75 Z M5.25,3.5 L1.75,3.5 L1.75,7 L19.25,7 L19.25,3.5 L15.75,3.5 L15.75,4.375 C15.75,4.85824916 15.3582492,5.25 14.875,5.25 C14.3917508,5.25 14,4.85824916 14,4.375 L14,3.5 L7,3.5 L7,4.375 C7,4.85824916 6.60824916,5.25 6.125,5.25 C5.64175084,5.25 5.25,4.85824916 5.25,4.375 L5.25,3.5 Z" id="形状结合" fill="#404040"></path>
                <path d="M6.125,11.375 L14.875,11.375 C15.3582492,11.375 15.75,11.7667508 15.75,12.25 C15.75,12.7332492 15.3582492,13.125 14.875,13.125 L6.125,13.125 C5.64175084,13.125 5.25,12.7332492 5.25,12.25 C5.25,11.7667508 5.64175084,11.375 6.125,11.375 Z" id="路径" fill="#699DFF"></path>
                <path d="M6.125,16.625 L14.875,16.625 C15.3582492,16.625 15.75,17.0167508 15.75,17.5 C15.75,17.9832492 15.3582492,18.375 14.875,18.375 L6.125,18.375 C5.64175084,18.375 5.25,17.9832492 5.25,17.5 C5.25,17.0167508 5.64175084,16.625 6.125,16.625 Z" id="路径" fill="#699DFF"></path>
            </g>
        </g>
    </g>
</svg>