<?xml version="1.0" encoding="UTF-8"?>
<svg width="28px" height="28px" viewBox="0 0 28 28" version="1.1" xmlns="http://www.w3.org/2000/svg" xmlns:xlink="http://www.w3.org/1999/xlink">
    <title>已完成</title>
    <g id="已完成" stroke="none" stroke-width="1" fill="none" fill-rule="evenodd">
        <g id="编组-9" transform="translate(4.250000, 3.437500)" fill-rule="nonzero">
            <path d="M18.6875,-9.59232693e-14 C19.1041791,-9.59232693e-14 19.4475996,0.313657655 19.4945337,0.717745336 L19.5,0.8125 L19.5,21.125 C19.5,21.6972085 18.9295187,22.0799016 18.410125,21.8889285 L18.324139,21.8517221 L15.4626875,20.421375 L12.9968629,21.8304476 C12.8095211,21.9375 12.5901963,21.9642631 12.3868631,21.9107369 L12.2867511,21.877283 L12.1906371,21.8304476 L9.75,20.436 L7.30936289,21.8304476 C7.12202111,21.9375 6.90269633,21.9642631 6.69936306,21.9107369 L6.59925115,21.877283 L6.50313711,21.8304476 L4.0365,20.421375 L1.17586105,21.8517221 C0.694167994,22.0925686 0.136632275,21.8063493 0.0214599961,21.3133332 L0.00517565565,21.2185474 L0,21.125 L0,0.8125 C0,0.395820881 0.313657655,0.0524004319 0.717745336,0.0054662817 L0.8125,-9.59232693e-14 L18.6875,-9.59232693e-14 Z M17.875,1.625 L1.625,1.625 L1.625,19.8095625 L3.69913895,18.7732779 C3.88137534,18.6821597 4.08872263,18.6638708 4.28051358,18.7172824 L4.37492442,18.7499581 L4.46561289,18.7945524 L6.90625,20.1881875 L9.34688711,18.7945524 C9.53422889,18.6875 9.75355367,18.6607369 9.95688694,18.7142631 L10.0569989,18.747717 L10.1531129,18.7945524 L12.59375,20.1881875 L15.0343871,18.7945524 C15.2112886,18.6934659 15.4173021,18.6637036 15.6117606,18.7063943 L15.7078386,18.7337827 L15.800861,18.7732779 L17.875,19.810375 L17.875,1.625 Z" id="形状结合备份-2" fill="#404040"></path>
            <path d="M15.2528096,6.62072554 C15.5701106,6.93802652 15.5701106,7.45247307 15.2528096,7.76977405 L9.50756702,13.5150167 L9.44518318,13.5692148 C9.39480339,13.653947 9.33023939,13.7374644 9.25260191,13.8151019 C8.93530092,14.1324029 8.51978641,14.2313349 8.32452426,14.0360728 L4.78899035,10.5005389 C4.59372821,10.3052767 4.69266024,9.88976221 5.00996122,9.57246122 C5.32726221,9.25516024 5.74277673,9.15622821 5.93803887,9.35149035 L8.65482508,12.0687498 L14.1037611,6.62072554 C14.4210621,6.30342455 14.9355086,6.30342455 15.2528096,6.62072554 Z" id="形状结合备份-3" fill="#699DFF"></path>
        </g>
    </g>
</svg>