<?xml version="1.0" encoding="UTF-8"?>
<svg width="28px" height="28px" viewBox="0 0 28 28" version="1.1" xmlns="http://www.w3.org/2000/svg" xmlns:xlink="http://www.w3.org/1999/xlink">
    <title>待审批</title>
    <g id="待审批" stroke="none" stroke-width="1" fill="none" fill-rule="evenodd">
        <g id="编组-4" transform="translate(4.250000, 2.625000)" fill-rule="nonzero">
            <path d="M5.6875,0.8125 L5.6875,1.625 C5.6875,1.92134475 5.76682625,2.19916187 5.90540286,2.43837547 L1.625,2.4375 L1.625,20.3125 L17.875,20.3125 L17.875,2.4375 L13.5945971,2.43837547 C13.7100777,2.2390308 13.7844121,2.01287814 13.8059824,1.77153546 L13.8125,1.625 L13.8125,0.8125 L18.6875,0.8125 C19.1362314,0.8125 19.5,1.17626864 19.5,1.625 L19.5,21.125 C19.5,21.5737314 19.1362314,21.9375 18.6875,21.9375 L0.8125,21.9375 C0.363768641,21.9375 0,21.5737314 0,21.125 L0,1.625 C0,1.17626864 0.363768641,0.8125 0.8125,0.8125 L5.6875,0.8125 Z" id="路径备份-2" fill="#404040"></path>
            <path d="M13.8125,12.5625 C14.2612314,12.5625 14.625,12.9262686 14.625,13.375 C14.625,13.8237314 14.2612314,14.1875 13.8125,14.1875 L5.6875,14.1875 C5.23876864,14.1875 4.875,13.8237314 4.875,13.375 C4.875,12.9262686 5.23876864,12.5625 5.6875,12.5625 L13.8125,12.5625 Z" id="路径备份-3" fill="#699DFF"></path>
            <path d="M13.8125,7.6875 C14.2612314,7.6875 14.625,8.05126864 14.625,8.5 C14.625,8.94873136 14.2612314,9.3125 13.8125,9.3125 L5.6875,9.3125 C5.23876864,9.3125 4.875,8.94873136 4.875,8.5 C4.875,8.05126864 5.23876864,7.6875 5.6875,7.6875 L13.8125,7.6875 Z" id="路径备份-4" fill="#699DFF"></path>
            <path d="M12.1875,0 C12.6362314,0 13,0.363768641 13,0.8125 L13,1.625 C13,2.07373136 12.6362314,2.4375 12.1875,2.4375 L7.3125,2.4375 C6.86376864,2.4375 6.5,2.07373136 6.5,1.625 L6.5,0.8125 C6.5,0.363768641 6.86376864,0 7.3125,0 L12.1875,0 Z" id="路径备份-5" fill="#404040"></path>
        </g>
    </g>
</svg>