<?xml version="1.0" encoding="UTF-8"?>
<svg width="28px" height="28px" viewBox="0 0 28 28" version="1.1" xmlns="http://www.w3.org/2000/svg" xmlns:xlink="http://www.w3.org/1999/xlink">
    <title>待收货</title>
    <g id="待收货" stroke="none" stroke-width="1" fill="none" fill-rule="evenodd">
        <g id="编组-8" transform="translate(2.625000, 5.250000)" fill-rule="nonzero">
            <path d="M5.6875,13.8125 C7.48242544,13.8125 8.9375,15.2675746 8.9375,17.0625 C8.9375,18.8574254 7.48242544,20.3125 5.6875,20.3125 C3.89257456,20.3125 2.4375,18.8574254 2.4375,17.0625 C2.4375,15.2675746 3.89257456,13.8125 5.6875,13.8125 Z M5.6875,15.4375 C4.79003728,15.4375 4.0625,16.1650373 4.0625,17.0625 C4.0625,17.9599627 4.79003728,18.6875 5.6875,18.6875 C6.58496272,18.6875 7.3125,17.9599627 7.3125,17.0625 C7.3125,16.1650373 6.58496272,15.4375 5.6875,15.4375 Z" id="形状结合备份-4" fill="#699DFF"></path>
            <path d="M18.6875,13.8125 C20.4824254,13.8125 21.9375,15.2675746 21.9375,17.0625 C21.9375,18.8574254 20.4824254,20.3125 18.6875,20.3125 C16.8925746,20.3125 15.4375,18.8574254 15.4375,17.0625 C15.4375,15.2675746 16.8925746,13.8125 18.6875,13.8125 Z M18.6875,15.4375 C17.7900373,15.4375 17.0625,16.1650373 17.0625,17.0625 C17.0625,17.9599627 17.7900373,18.6875 18.6875,18.6875 C19.5849627,18.6875 20.3125,17.9599627 20.3125,17.0625 C20.3125,16.1650373 19.5849627,15.4375 18.6875,15.4375 Z" id="形状结合备份-5" fill="#699DFF"></path>
            <path d="M13.8125,3.73034936e-14 C14.2612314,3.73034936e-14 14.625,0.363768641 14.625,0.8125 L14.625,4.0616875 L19.8776632,4.0625 C20.1493252,4.0625 20.4030131,4.19826967 20.5537041,4.42430609 L23.4260409,8.7328113 C23.5150191,8.86627865 23.5625,9.0230974 23.5625,9.18350521 L23.5625,16.25 C23.5625,16.6987314 23.1987314,17.0625 22.75,17.0625 L21.8351617,17.0626978 C21.6707602,16.4237857 21.3169608,15.8608989 20.8371799,15.4374537 L21.9375,15.4375 L21.9375,11.375 L17.875,11.375 C17.4583209,11.375 17.1149004,11.0613423 17.0679663,10.6572547 L17.0625,10.5625 L17.0625,5.6866875 L14.625,5.6875 L14.625,15.4375 L16.5378201,15.4374537 C16.0580392,15.8608989 15.7042398,16.4237857 15.5398383,17.0626978 L13.54925,17.0616875 L8.8351617,17.0626978 C8.67076021,16.4237857 8.31696084,15.8608989 7.83717988,15.4374537 L13,15.4375 L13,1.625 L1.625,1.625 L1.625,15.4375 L3.53782012,15.4374537 C3.05803916,15.8608989 2.70423979,16.4237857 2.5398383,17.0626978 L0.8125,17.0625 C0.363768641,17.0625 0,16.6987314 0,16.25 L0,0.8125 C0,0.363768641 0.363768641,3.73034936e-14 0.8125,3.73034936e-14 L13.8125,3.73034936e-14 Z M18.6875,5.6866875 L18.6875,9.75 L21.9375,9.75 L21.9375,9.4306875 L19.4423125,5.6875 L18.6875,5.6866875 Z" id="形状结合备份-6" fill="#404040"></path>
        </g>
    </g>
</svg>