<?xml version="1.0" encoding="UTF-8"?>
<svg width="28px" height="28px" viewBox="0 0 28 28" version="1.1" xmlns="http://www.w3.org/2000/svg" xmlns:xlink="http://www.w3.org/1999/xlink">
    <title>待发货</title>
    <g id="待发货" stroke="none" stroke-width="1" fill="none" fill-rule="evenodd">
        <g id="编组-7" transform="translate(3.437500, 3.437500)" fill-rule="nonzero">
            <path d="M20.3125,0 C20.7612314,0 21.125,0.363768641 21.125,0.8125 L21.125,4.88946101 C21.125,5.30085898 20.8189567,5.64183356 20.4205676,5.69481488 L20.3130353,5.70208242 L20.3135416,11.1392158 L20.2802611,11.1017809 C21.3107845,12.2520383 21.9375,13.7715805 21.9375,15.4375 C21.9375,19.0273509 19.0273509,21.9375 15.4375,21.9375 C13.8592605,21.9375 12.4123956,21.3750185 11.2864369,20.4395871 L11.1392158,20.3135416 L1.625,20.3125 C1.17626864,20.3125 0.8125,19.9487314 0.8125,19.5 L0.8125,5.6875 C0.363768641,5.6875 0,5.32373136 0,4.875 L0,0.8125 C0,0.363768641 0.363768641,0 0.8125,0 L20.3125,0 Z M15.4375,10.5625 C12.7451118,10.5625 10.5625,12.7451118 10.5625,15.4375 C10.5625,18.1298882 12.7451118,20.3125 15.4375,20.3125 C18.1298882,20.3125 20.3125,18.1298882 20.3125,15.4375 C20.3125,12.7451118 18.1298882,10.5625 15.4375,10.5625 Z M18.6875,5.6875 L2.4366875,5.6875 L2.4375,18.6875 L9.80762944,18.6884423 L9.82842108,18.7241089 C9.26218019,17.7598187 8.9375,16.6365759 8.9375,15.4375 C8.9375,11.8476491 11.8476491,8.9375 15.4375,8.9375 C16.5443393,8.9375 17.5865634,9.21415057 18.4987966,9.702076 L18.6884423,9.80762944 L18.6875,5.6875 Z M19.5,1.625 L1.62592486,1.625 L1.625,4.0625 L19.5,4.0625 L19.5,1.625 Z" id="形状结合备份" fill="#404040"></path>
            <path d="M15.4375,11.375 C15.8541791,11.375 16.1975996,11.6886577 16.2445337,12.0927453 L16.25,12.1875 L16.25,15.1003125 L17.6370243,16.4879757 C17.9299175,16.780869 17.9524477,17.2417442 17.704615,17.5604808 L17.6370243,17.6370243 C17.344131,17.9299175 16.8832558,17.9524477 16.5645192,17.704615 L16.4879757,17.6370243 L14.8629757,16.0120243 C14.735998,15.8850465 14.6553889,15.7203679 14.6320464,15.5442982 L14.625,15.4375 L14.625,12.1875 C14.625,11.7387686 14.9887686,11.375 15.4375,11.375 Z" id="路径备份" fill="#699DFF"></path>
        </g>
    </g>
</svg>