<?xml version="1.0" standalone="no"?><!DOCTYPE svg PUBLIC "-//W3C//DTD SVG 1.1//EN" "http://www.w3.org/Graphics/SVG/1.1/DTD/svg11.dtd"><svg t="1706574062890" class="icon" viewBox="0 0 1024 1024" version="1.1" xmlns="http://www.w3.org/2000/svg" p-id="4735" xmlns:xlink="http://www.w3.org/1999/xlink" width="22" height="22"><path d="M210.549333 476.565333V518.4l199.701334 80.906667v-47.754667L276.853333 497.482667 410.250667 443.413333v-48.938666zM515.456 310.016l-88.010667 291.658667h43.018667l89.194667-291.658667zM575.664 551.552v47.754667l199.701333-80.906667v-41.834667l-199.701333-82.090666v48.938666l133.397333 54.069334z" fill="#3B71E9" p-id="4736"></path><path d="M277.333333 144h426.666667c90.666667 0 144 53.333333 144 138.666667v304h-53.333333V282.666667c0-48-37.333333-85.333333-90.666667-85.333334H277.333333c-58.666667 0-90.666667 37.333333-90.666666 85.333334v426.666666c10.72 61.808 30.336 82.186667 90.666666 96l352 5.333334v48c-234.666667 1.776-352 1.776-352 0-90.666667 0-144-61.333333-144-149.333334V282.666667c0-85.333333 53.333333-138.666667 144-138.666667z" fill="#3B71E9" p-id="4737"></path><path d="M669.162667 875.877333h87.482666v29.765334H640v-267.877334h116.645333v29.76h-87.482666z" fill="#00CCFE" p-id="4738"></path><path d="M829.546667 875.877333h29.162666v29.765334h-29.157333zM873.290667 875.877333h29.162666v29.765334h-29.162666zM917.034667 905.642667v-29.76h29.162666v29.76zM917.034667 801.466667v-29.76h29.162666v29.76zM917.034667 846.112v-29.76h29.162666v29.76zM917.034667 756.821333v-29.76h29.162666v29.76zM917.034667 712.176v-29.765333h29.162666v29.76zM917.034667 637.76h29.162666v29.770667h-29.162666zM873.290667 667.530667v-29.765334h29.162666v29.76zM829.546667 667.530667v-29.765334h29.162666v29.76z" fill="#05C8C8" p-id="4739"></path><path d="M785.808 608h29.162667v327.408h-29.162667z" fill="#3B71E9" p-id="4740"></path><path d="M700.245333 821.333333v-64.090666h0.821334L738.4 821.333333H762.666667v-80h-17.44v60.288h-0.821334L710.058667 741.333333H682.666667v80z" fill="#00CCFE" p-id="4741"></path><path d="M844.245333 821.333333v-64.090666h0.821334L882.4 821.333333H906.666667v-80h-17.44v60.288h-0.821334L854.058667 741.333333H826.666667v80z" fill="#05C8C8" p-id="4742"></path></svg>