<?xml version="1.0" encoding="UTF-8"?>
<svg width="192px" height="192px" viewBox="0 0 192 192" version="1.1" xmlns="http://www.w3.org/2000/svg" xmlns:xlink="http://www.w3.org/1999/xlink">
    <title>DataExtract.DataRead	数据读取</title>
    <g id="DataExtract.DataRead-数据读取" stroke="none" stroke-width="1" fill="none" fill-rule="evenodd">
        <g id="数据读取" transform="translate(20.000000, 25.000000)">
            <g id="查询" transform="translate(78.000000, 73.000000)">
                <circle id="椭圆形" stroke="#FFFFFF" stroke-width="3" fill="#05C8C8" cx="37.5" cy="37.5" r="36"></circle>
                <line x1="60.5" y1="58.5" x2="74.5" y2="71.5" id="直线" stroke="#05C8C8" stroke-width="10" stroke-linecap="round"></line>
                <circle id="椭圆形" fill="#FFFFFF" cx="37.5" cy="37.5" r="27.5"></circle>
                <g id="1:1" transform="translate(19.220000, 27.000000)" fill="#3B71E9" fill-rule="nonzero">
                    <path d="M9.54,21 L9.54,0 L6.15,0 C6.03,0.8 5.78,1.47 5.4,2.01 C5.02,2.55 4.555,2.985 4.005,3.315 C3.455,3.645 2.835,3.875 2.145,4.005 C1.455,4.135 0.74,4.19 0,4.17 L0,7.38 L5.28,7.38 L5.28,21 L9.54,21 Z" id="路径"></path>
                    <path d="M21.187185,10.38 L21.187185,5.76 L16.477185,5.76 L16.477185,10.38 L21.187185,10.38 Z M16.477185,16.38 L16.477185,21 L21.187185,21 L21.187185,16.38 L16.477185,16.38 Z" id="形状"></path>
                    <path d="M34.93437,21 L34.93437,0 L31.54437,0 C31.42437,0.8 31.17437,1.47 30.79437,2.01 C30.41437,2.55 29.94937,2.985 29.39937,3.315 C28.84937,3.645 28.22937,3.875 27.53937,4.005 C26.84937,4.135 26.13437,4.19 25.39437,4.17 L25.39437,7.38 L30.67437,7.38 L30.67437,21 L34.93437,21 Z" id="路径"></path>
                </g>
            </g>
            <g id="数据库" fill-rule="nonzero">
                <path d="M22.7921018,120.64301 C24.364404,120.661875 25.8778208,120.045607 26.9896864,118.933741 C28.101552,117.821876 28.7178199,116.308459 28.6989555,114.736157 C28.7150751,113.167313 28.098973,111.658027 26.9895743,110.548628 C25.8801757,109.43923 24.3708897,108.823128 22.802046,108.839247 C21.2314879,108.820434 19.7196184,109.435346 18.6080512,110.545042 C17.4964839,111.654738 16.8790252,113.165569 16.8951924,114.736157 C16.8951924,118.047575 19.4906281,120.64301 22.802046,120.64301 L22.7921018,120.64301 Z M21.0816998,114.736157 C21.1224487,113.805108 21.8707767,113.061106 22.802046,113.025755 C23.7294353,113.066132 24.4720704,113.808767 24.5124482,114.736157 C24.4770974,115.667426 23.7330948,116.415754 22.802046,116.456503 C21.8671131,116.4208 21.1174033,115.67109 21.0816998,114.736157 L21.0816998,114.736157 Z M22.802046,20.1270568 C21.2314879,20.1082433 19.7196184,20.7231556 18.6080512,21.8328515 C17.4964839,22.9425474 16.8790252,24.4533786 16.8951924,26.0239662 C16.8951924,29.32544 19.4906281,31.9208756 22.802046,31.9208756 C24.3708897,31.9369952 25.8801757,31.3208931 26.9895743,30.2114945 C28.098973,29.1020959 28.7150751,27.5928099 28.6989555,26.0239662 C28.7150751,24.4551225 28.098973,22.9458365 26.9895743,21.8364379 C25.8801757,20.7270393 24.3708897,20.1109373 22.802046,20.1270568 L22.802046,20.1270568 Z M24.5124482,26.0239662 C24.4720704,26.9513555 23.7294353,27.6939905 22.802046,27.7343682 C21.8707767,27.6990174 21.1224487,26.9550149 21.0816998,26.0239662 C21.1224486,25.0929175 21.8707767,24.3489149 22.802046,24.3135641 C23.7294354,24.3539418 24.4720705,25.0965769 24.5124482,26.0239662 L24.5124482,26.0239662 Z M22.802046,63.782086 C21.2314879,63.7632725 19.7196184,64.3781848 18.6080511,65.4878807 C17.4964839,66.5975767 16.8790251,68.1084079 16.8951924,69.6789956 C16.8951924,72.9804694 19.4906281,75.575905 22.802046,75.575905 C24.3708897,75.5920245 25.8801757,74.9759224 26.9895743,73.8665239 C28.098973,72.7571253 28.7150751,71.2478393 28.6989555,69.6789956 C28.7150751,68.1101518 28.098973,66.6008658 26.9895744,65.4914672 C25.8801758,64.3820686 24.3708898,63.7659665 22.802046,63.782086 L22.802046,63.782086 Z M24.5124482,69.6789956 C24.4720704,70.6063849 23.7294353,71.3490199 22.802046,71.3893976 C21.8707767,71.3540468 21.1224487,70.6100443 21.0816998,69.6789956 C21.1174033,68.7440626 21.8671131,67.9943527 22.802046,67.9586492 C23.7330948,67.999398 24.4770974,68.7477262 24.5124482,69.6789956 L24.5124482,69.6789956 Z" id="形状" fill="#00CCFE"></path>
                <path d="M10.8391758,0 C4.87265703,0 0,4.86271282 0,10.8391758 L0,128.160824 C0,134.137287 4.87265703,139 10.8391758,139 L95,139 L86.5,131.5 C36.8333333,131.5 12,131.5 12,131.5 C10,131.5 8,130 8,128 C8,128 8,116.5 8,93.5 L85,93.5 L90,86.5 L8,86.5 L8,51 L131.5,51 L131.5,79 L139,84 L139,10.8391758 C139,4.86062258 134.159256,0.0109697689 128.180712,0 L10.8391758,0 Z M131.283302,42.7202747 L7.73658608,42.7202747 L7.73658608,12.2313635 C7.73658608,9.50665326 9.94419801,7.29904133 12.6689083,7.29904133 L125.774217,7.29904133 C128.817141,7.29904133 131.283302,9.77514658 131.283302,12.8180713 L131.283302,42.7202747 Z" id="形状" fill="#3B71E9"></path>
            </g>
        </g>
    </g>
</svg>