<?xml version="1.0" encoding="UTF-8"?>
<svg width="192px" height="192px" viewBox="0 0 192 192" version="1.1" xmlns="http://www.w3.org/2000/svg" xmlns:xlink="http://www.w3.org/1999/xlink">
    <title>DataLoad.TableAction	数据表操作</title>
    <g id="DataLoad.TableAction-数据表操作" stroke="none" stroke-width="1" fill="none" fill-rule="evenodd">
        <g id="数据表操作" transform="translate(22.500000, 28.500000)">
            <g id="数据表备份">
                <g id="编组" transform="translate(53.279221, 28.068182)" fill="#05C8C8">
                    <rect id="矩形" x="0" y="0" width="29.3896104" height="5.68181818" rx="0.95"></rect>
                    <rect id="矩形备份" x="0" y="22.7272727" width="29.3896104" height="5.68181818" rx="0.95"></rect>
                    <rect id="矩形备份-2" x="0" y="45.4545455" width="29.3896104" height="5.68181818" rx="0.95"></rect>
                    <rect id="矩形备份-3" x="0" y="68.1818182" width="29.3896104" height="5.68181818" rx="0.95"></rect>
                </g>
                <path d="M136.5,0 C143.5,0 146.5,3 146.5,9.5 C146.5,9.5 146.5,28.8333333 146.5,67.5 L136.5,67.5 L136.5,13.5 C136.5,11.290861 134.709139,9.5 132.5,9.5 L14,9.5 C11.790861,9.5 10,11.290861 10,13.5 L10,112 C10,114.209139 11.790861,116 14,116 L88.5,116 L88.5,116 L88.5,125.5 C36.1666667,125.5 10,125.5 10,125.5 C3,125.5 0,122 0,116 C0,116 0,9.5 0,9.5 C0,3 2.5,0 10,0 C10,0 136.5,0 136.5,0 Z" id="路径-3" fill="#3B71E9"></path>
                <g id="编组备份" transform="translate(92.149351, 28.068182)" fill="#00CCFE">
                    <rect id="矩形" x="0" y="0" width="29.3896104" height="5.68181818" rx="0.95"></rect>
                    <rect id="矩形备份" x="0" y="22.7272727" width="29.3896104" height="5.68181818" rx="0.95"></rect>
                    <rect id="矩形备份-2" x="0" y="45.4545455" width="29.3896104" height="5.68181818" rx="0.95"></rect>
                    <rect id="矩形备份-3" x="0" y="68.1818182" width="29.3896104" height="5.68181818" rx="0.95"></rect>
                </g>
                <g id="编组备份-2" transform="translate(12.512987, 28.068182)" fill="#00CCFE">
                    <rect id="矩形" x="0" y="0" width="29.3896104" height="5.68181818" rx="0.95"></rect>
                    <rect id="矩形备份" x="0" y="22.7272727" width="29.3896104" height="5.68181818" rx="0.95"></rect>
                    <rect id="矩形备份-2" x="0" y="45.4545455" width="29.3896104" height="5.68181818" rx="0.95"></rect>
                    <rect id="矩形备份-3" x="0" y="68.1818182" width="29.3896104" height="5.68181818" rx="0.95"></rect>
                </g>
            </g>
            <g id="操作" transform="translate(73.500000, 83.500000)">
                <rect id="矩形" fill="#FFFFFF" x="0" y="0" width="79" height="48"></rect>
                <path d="M55.014804,27.4390819 L23.985196,27.4390819 C22.2075682,27.4390819 20.7533858,25.9838167 20.7533858,24.2048652 L20.7533858,20.7933708 C20.7533858,19.0144193 22.2075682,17.5591541 23.985196,17.5591541 L55.014804,17.5591541 C56.7924318,17.5591541 58.2466142,19.0144193 58.2466142,20.7933708 L58.2466142,24.2048652 C58.2466142,25.9838167 56.7924318,27.4390819 55.014804,27.4390819 Z" id="路径" fill="#3B71E9" fill-rule="nonzero"></path>
                <path d="M30.969678,44 L21.4840023,44 C15.7659809,44 10.3766929,41.7580096 6.30850755,37.6867949 C2.24032218,33.6155803 0,28.2222792 0,22.5 C0,16.7777208 2.24032218,11.3844197 6.30850755,7.31320507 C10.3766929,3.2419904 15.7659809,1 21.4840023,1 L30.969678,1 C32.5137553,1 33.7643526,2.25241006 33.7643526,3.79675514 C33.7643526,5.3419822 32.512874,6.59351028 30.969678,6.59351028 L21.4840023,6.59351028 C12.7201299,6.59351028 5.59022959,13.7287197 5.59022959,22.499118 C5.59022959,31.2695163 12.7201299,38.4047258 21.4840023,38.4047258 L30.969678,38.4047258 C32.5137553,38.4047258 33.7643526,39.6571358 33.7643526,41.2014809 C33.7652335,42.7475899 32.5137553,44 30.969678,44 L30.969678,44 Z M57.5159977,44 L48.030322,44 C46.4862447,44 45.2356478,42.7475899 45.2356478,41.2032449 C45.2356478,39.6580178 46.487126,38.4064897 48.030322,38.4064897 L57.5159977,38.4064897 C66.2798701,38.4064897 73.4097704,31.2712803 73.4097704,22.500882 C73.4097704,13.7304837 66.2798701,6.59527423 57.5159977,6.59527423 L48.030322,6.59527423 C46.4862447,6.59527423 45.2356478,5.34286418 45.2356478,3.7985191 C45.2356478,2.25329204 46.487126,1.00176396 48.030322,1.00176396 L57.5159977,1.00176396 C63.2340191,1.00176396 68.6233071,3.24375436 72.6914924,7.31496903 C76.7596778,11.3861837 79,16.7794848 79,22.501764 C79,28.2240432 76.7596778,33.6173442 72.6914924,37.6885589 C68.6233071,41.7580096 63.2340191,44 57.5159977,44 L57.5159977,44 Z" id="形状" fill="#3B71E9" fill-rule="nonzero"></path>
            </g>
        </g>
    </g>
</svg>