<?xml version="1.0" standalone="no"?><!DOCTYPE svg PUBLIC "-//W3C//DTD SVG 1.1//EN" "http://www.w3.org/Graphics/SVG/1.1/DTD/svg11.dtd"><svg t="1706574048493" class="icon" viewBox="0 0 1024 1024" version="1.1" xmlns="http://www.w3.org/2000/svg" p-id="4422" xmlns:xlink="http://www.w3.org/1999/xlink" width="22" height="22"><path d="M365.333333 781.333333l1.216-399.04a26.912 26.912 0 0 0-6.869333-17.418666L183.749333 165.845333h528.325334l-175.402667 198.501334a29.024 29.024 0 0 0-6.869333 17.946666L530.666667 848c-25.776-14.224-44-24.442667-54.666667-30.666667-7.797333-4.549333-27.973333-4.784-34.666667 5.333334-7.04 10.645333-0.202667 31.893333 8 36 16 8 69.333333 37.333333 81.333334 44s18.666667 4 24 4c3.557333 0 9.776-3.557333 18.666666-10.666667 4.874667-5.157333 7.770667-14.24 8-21.333333 0.154667-4.725333 0.586667-165.509333 1.301334-482.346667l208.693333-232.805333a27.434667 27.434667 0 0 0 4.746667-31.68A28 28 0 0 0 771.253333 112H123.514667a27.472 27.472 0 0 0-24.298667 15.84 27.434667 27.434667 0 0 0 4.224 31.674667L314.773333 395.493333l-1.216 388.48a26.933333 26.933333 0 0 0 24.832 24.282667A26.933333 26.933333 0 0 0 365.333333 781.333333z" fill="#3B71E9" p-id="4423"></path><path d="M895.744 523.253333h-231.936a26.954667 26.954667 0 0 1-27.701333-11.429333 26.906667 26.906667 0 0 1 0-29.946667 26.954667 26.954667 0 0 1 27.701333-11.418666h231.936a26.954667 26.954667 0 0 1 27.706667 11.418666 26.906667 26.906667 0 0 1 0 29.946667 26.954667 26.954667 0 0 1-27.706667 11.424z" fill="#3B71E9" p-id="4424"></path><path d="M663.808 692.181333a26.933333 26.933333 0 0 1-21.632-26.394666 26.933333 26.933333 0 0 1 21.632-26.4h179.04a26.933333 26.933333 0 0 1 21.632 26.4 26.933333 26.933333 0 0 1-21.637333 26.4h-179.034667z" fill="#00CCFE" p-id="4425"></path><path d="M757.28 862.186667l-93.472-1.066667a26.933333 26.933333 0 0 1-21.632-26.4 26.933333 26.933333 0 0 1 21.632-26.4l93.472 1.077333a26.933333 26.933333 0 0 1 21.632 26.394667 26.933333 26.933333 0 0 1-21.632 26.4z" fill="#05C8C8" p-id="4426"></path><path d="M815.648 906.666667v-128.186667h1.472L884.336 906.666667H928v-160h-31.402667v120.576h-1.472L833.312 746.666667H784v160z" fill="#05C8C8" p-id="4427"></path></svg>