<?xml version="1.0" standalone="no"?><!DOCTYPE svg PUBLIC "-//W3C//DTD SVG 1.1//EN" "http://www.w3.org/Graphics/SVG/1.1/DTD/svg11.dtd"><svg t="1706574036893" class="icon" viewBox="0 0 1024 1024" version="1.1" xmlns="http://www.w3.org/2000/svg" p-id="4118" xmlns:xlink="http://www.w3.org/1999/xlink" width="22" height="22"><path d="M596.72 485.744c17.472 0.016 31.904 11.946667 32.928 27.226667 1.024 15.28-11.717333 28.608-29.066667 30.416l-3.861333 0.202666h-33.029333v289.226667h330.256v-289.226667h-33.024c-16.746667 0-30.837333-10.976-32.794667-25.536l-0.229333-3.386666c0-14.666667 12.533333-27.002667 29.162666-28.72l3.861334-0.202667h66.053333c16.741333 0 30.832 10.976 32.794667 25.536l0.229333 3.386667v347.077333c0 14.666667-12.533333 27.002667-29.162667 28.72l-3.861333 0.202667H530.666667c-16.746667 0-30.837333-10.976-32.794667-25.541334l-0.229333-3.381333V514.666667c0-14.666667 12.533333-27.002667 29.157333-28.72l3.866667-0.202667h66.053333zM728.821333 138.666667c16.746667 0 30.837333 10.976 32.794667 25.541333l0.229333 3.381333v520.613334c0 14.666667-12.533333 27.008-29.162666 28.725333l-3.861334 0.202667h-66.053333c-17.472-0.021333-31.909333-11.952-32.933333-27.232-1.024-15.274667 11.717333-28.608 29.066666-30.416l3.866667-0.202667h33.029333V196.512H167.386667v462.773333H398.56c16.746667 0 30.832 10.970667 32.794667 25.536l0.229333 3.381334c0 14.666667-12.533333 27.008-29.162667 28.725333l-3.861333 0.202667H134.357333c-16.741333 0-30.832-10.981333-32.794666-25.541334l-0.229334-3.386666V167.589333c0-14.666667 12.533333-27.002667 29.162667-28.72l3.861333-0.202666h594.464z" fill="#3B71E9" p-id="4119"></path><path d="M398.56 398.976c17.477333 0.016 31.914667 11.946667 32.938667 27.226667 1.024 15.274667-11.717333 28.608-29.066667 30.416l-3.866667 0.202666H266.453333c-17.472-0.016-31.904-11.952-32.928-27.226666-1.024-15.28 11.717333-28.608 29.066667-30.416l3.866667-0.202667H398.56z" fill="#00CCFE" p-id="4120"></path><path d="M530.666667 283.28c17.472 0.021333 31.909333 11.952 32.933333 27.232 1.024 15.274667-11.717333 28.608-29.066667 30.416l-3.866666 0.202667H266.464c-17.477333-0.021333-31.909333-11.952-32.933333-27.232-1.024-15.274667 11.717333-28.608 29.066666-30.416l3.866667-0.202667H530.666667z" fill="#05C8C8" p-id="4121"></path></svg>