<?xml version="1.0" encoding="UTF-8"?>
<svg width="192px" height="192px" viewBox="0 0 192 192" version="1.1" xmlns="http://www.w3.org/2000/svg" xmlns:xlink="http://www.w3.org/1999/xlink">
    <title>DataModel.Entity	实体</title>
    <g id="DataModel.Entity-实体" stroke="none" stroke-width="1" fill="none" fill-rule="evenodd">
        <g id="实体" transform="translate(21.000000, 26.000000)" fill-rule="nonzero">
            <g id="立方体3" transform="translate(39.733333, 0.000000)" fill="#3B71E9">
                <path d="M66.7740741,25.0776465 L42.2718519,38.3024011 C40.0092593,39.5096401 38.6296296,41.9241181 38.6296296,44.6129686 L38.6296296,70.1844856 C38.6296296,72.9282106 41.3337037,74.7390691 43.5962963,73.4769556 L68.0985185,60.2522011 C70.3059259,59.0449621 71.7407407,56.6304841 71.7407407,53.9416336 L71.7407407,28.4249911 C71.7407407,25.6263915 69.0366667,23.8704075 66.7740741,25.0776465 Z M29.4688889,38.2475266 L4.96666667,25.0776465 C2.70407407,23.8704075 0,25.6263915 0,28.3701166 L0,54.0513826 C0,56.7402331 1.37962963,59.1547111 3.64222222,60.3619501 L28.1444444,73.5318301 C30.407037,74.7390691 33.1111111,72.9282106 33.1111111,70.1844856 L33.1111111,44.5580941 C33.1111111,41.8692436 31.7314815,39.4547656 29.4688889,38.2475266 Z M64.5114815,19.096326 C65.6703704,18.4927065 66.2222222,17.450091 66.1118519,16.46235 C66.2222222,15.4197345 65.6703704,14.4319935 64.5114815,13.828374 L39.5677778,0.877992002 C38.4640741,0.274372501 37.1396296,0 35.8151852,0 C34.4907407,0 33.1662963,0.274372501 32.0625926,0.877992002 L7.11888889,13.7734995 C5.96,14.377119 5.46333333,15.4197345 5.51851852,16.4074755 C5.46333333,17.450091 5.96,18.4927065 7.11888889,19.096326 L32.0625926,31.9918336 C33.1662963,32.5954531 34.4907407,32.8698256 35.8151852,32.8698256 C37.1396296,32.8698256 38.4640741,32.5954531 39.5677778,31.9918336 L64.5114815,19.096326 Z" id="形状"></path>
            </g>
            <g id="立方体2" transform="translate(0.000000, 65.087302)" fill="#00CCFE">
                <path d="M66.7740741,25.0776465 L42.2718519,38.3024011 C40.0092593,39.5096401 38.6296296,41.9241181 38.6296296,44.6129686 L38.6296296,70.1844856 C38.6296296,72.9282106 41.3337037,74.7390691 43.5962963,73.4769556 L68.0985185,60.2522011 C70.3059259,59.0449621 71.7407407,56.6304841 71.7407407,53.9416336 L71.7407407,28.4249911 C71.7407407,25.6263915 69.0366667,23.8704075 66.7740741,25.0776465 Z M29.4688889,38.2475266 L4.96666667,25.0776465 C2.70407407,23.8704075 0,25.6263915 0,28.3701166 L0,54.0513826 C0,56.7402331 1.37962963,59.1547111 3.64222222,60.3619501 L28.1444444,73.5318301 C30.407037,74.7390691 33.1111111,72.9282106 33.1111111,70.1844856 L33.1111111,44.5580941 C33.1111111,41.8692436 31.7314815,39.4547656 29.4688889,38.2475266 Z M64.5114815,19.096326 C65.6703704,18.4927065 66.2222222,17.450091 66.1118519,16.46235 C66.2222222,15.4197345 65.6703704,14.4319935 64.5114815,13.828374 L39.5677778,0.877992002 C38.4640741,0.274372501 37.1396296,0 35.8151852,0 C34.4907407,0 33.1662963,0.274372501 32.0625926,0.877992002 L7.11888889,13.7734995 C5.96,14.377119 5.46333333,15.4197345 5.51851852,16.4074755 C5.46333333,17.450091 5.96,18.4927065 7.11888889,19.096326 L32.0625926,31.9918336 C33.1662963,32.5954531 34.4907407,32.8698256 35.8151852,32.8698256 C37.1396296,32.8698256 38.4640741,32.5954531 39.5677778,31.9918336 L64.5114815,19.096326 Z" id="形状"></path>
            </g>
            <g id="立方体1" transform="translate(77.259259, 65.087302)" fill="#05C8C8">
                <path d="M66.7740741,25.0776465 L42.2718519,38.3024011 C40.0092593,39.5096401 38.6296296,41.9241181 38.6296296,44.6129686 L38.6296296,70.1844856 C38.6296296,72.9282106 41.3337037,74.7390691 43.5962963,73.4769556 L68.0985185,60.2522011 C70.3059259,59.0449621 71.7407407,56.6304841 71.7407407,53.9416336 L71.7407407,28.4249911 C71.7407407,25.6263915 69.0366667,23.8704075 66.7740741,25.0776465 Z M29.4688889,38.2475266 L4.96666667,25.0776465 C2.70407407,23.8704075 0,25.6263915 0,28.3701166 L0,54.0513826 C0,56.7402331 1.37962963,59.1547111 3.64222222,60.3619501 L28.1444444,73.5318301 C30.407037,74.7390691 33.1111111,72.9282106 33.1111111,70.1844856 L33.1111111,44.5580941 C33.1111111,41.8692436 31.7314815,39.4547656 29.4688889,38.2475266 Z M64.5114815,19.096326 C65.6703704,18.4927065 66.2222222,17.450091 66.1118519,16.46235 C66.2222222,15.4197345 65.6703704,14.4319935 64.5114815,13.828374 L39.5677778,0.877992002 C38.4640741,0.274372501 37.1396296,0 35.8151852,0 C34.4907407,0 33.1662963,0.274372501 32.0625926,0.877992002 L7.11888889,13.7734995 C5.96,14.377119 5.46333333,15.4197345 5.51851852,16.4074755 C5.46333333,17.450091 5.96,18.4927065 7.11888889,19.096326 L32.0625926,31.9918336 C33.1662963,32.5954531 34.4907407,32.8698256 35.8151852,32.8698256 C37.1396296,32.8698256 38.4640741,32.5954531 39.5677778,31.9918336 L64.5114815,19.096326 Z" id="形状"></path>
            </g>
        </g>
    </g>
</svg>