<?xml version="1.0" encoding="UTF-8"?>
<svg width="192px" height="192px" viewBox="0 0 192 192" version="1.1" xmlns="http://www.w3.org/2000/svg" xmlns:xlink="http://www.w3.org/1999/xlink">
    <title>DataLoad.NoticeSend	通知发送</title>
    <g id="DataLoad.NoticeSend-通知发送" stroke="none" stroke-width="1" fill="none" fill-rule="evenodd">
        <g id="通知发送" transform="translate(25.000000, 32.000000)" fill-rule="nonzero">
            <path d="M77.7690044,1.48367685 C79.8110036,-0.102781331 82.6488646,-0.451901406 85.0533356,0.605536822 C87.4631134,1.66327589 89,3.92240316 89,6.40219358 L89,6.40219358 L88,123.59746 C88,126.082515 86.4629526,128.341642 84.0588032,129.394116 C83.131075,129.799794 82.143042,130 81.155009,130 C79.5906234,130 78.0262378,129.496852 76.7747936,128.521391 L76.7747936,128.521391 L38.5992205,96.0568606 L6.84499105,96.0568606 C5.02250112,96.0568606 3.27704047,95.3841915 1.99809735,94.1725749 C0.713525791,92.9711867 0,91.3383998 0,89.6338635 L0,89.6338635 L0.142640833,38.4093295 C0.142640833,36.7046428 0.872730328,35.0771206 2.16260871,33.8808466 C3.44155182,32.6845726 5.18154485,32.0171681 6.98747107,32.0171681 L6.98747107,32.0171681 L38.3959533,32.1352462 Z M72.3005579,16.5786206 L38.8986566,43.8513476 L13.4124409,43.8513476 C12.0135844,43.8513476 10.6657993,44.3266526 9.67513992,45.1786023 C8.67601014,46.0305519 8.11048848,47.1896233 8.11048848,48.4036489 L8,80.8841902 C8,82.0981086 8.55269154,83.2609293 9.5477107,84.1165212 C10.5383701,84.9793973 11.8903904,85.4584516 13.3020769,85.4584516 L38.8986566,85.4584516 L71.3008071,113.468972 C72.270166,114.163665 73.4819269,114.521991 74.6936879,114.521991 C75.4590106,114.521991 76.2243333,114.379411 76.9429444,114.0905 C78.8051798,113.34096 79.9957648,111.732079 79.9957648,109.962299 L81,20.0814373 C81,18.3154066 79.8095395,16.7065255 77.9429444,15.9532362 C76.0804598,15.2001612 73.8822747,15.4487938 72.3005579,16.5786206 Z" id="形状结合" fill="#3B71E9"></path>
            <path d="M106.579042,37.5025445 C103.944201,36.2661373 100.812441,37.3921355 99.5314202,39.9922876 C98.2546672,42.6010284 99.3600903,45.7578314 101.973468,47.0622018 C102.311986,47.2363419 110.315038,51.3619315 110.315038,63.1097296 C110.315038,75.6605141 102.830368,79.8199608 102.581846,79.9560116 C99.9427376,81.2646142 98.8717059,84.4511666 100.19126,87.0683718 C101.133763,88.9292686 103.014626,90 104.981092,90 C105.782264,90 106.600505,89.8215033 107.363143,89.4434736 C107.920059,89.1630321 121,82.4501113 121,63.1098541 C121,44.4493533 107.165957,37.7788784 106.579042,37.502669 L106.579042,37.502669 L106.579042,37.5025445 Z" id="路径" fill="#00CCFE"></path>
            <path d="M123.094902,21.8341834 C120.66408,20.2624915 117.438631,20.97802 115.849004,23.4229711 C114.267924,25.8679222 114.961241,29.1560589 117.379306,30.7661852 C117.950011,31.145288 131.456696,40.4179582 131.456696,63.4996793 C131.456696,86.6324383 118.499538,95.9137188 117.983822,96.2672403 C115.557212,97.8985803 114.906251,101.191085 116.521143,103.636036 C117.53573,105.169418 119.209823,106 120.913516,106 C121.91547,106 122.934267,105.706127 123.834663,105.105527 C124.574425,104.611495 142,92.5744194 142,63.4954365 C142,34.361173 123.868475,22.3325826 123.094902,21.8343082 L123.094902,21.8343082 L123.094902,21.8341834 Z" id="路径" fill="#05C8C8"></path>
        </g>
    </g>
</svg>