<?xml version="1.0" encoding="UTF-8"?>
<svg width="192px" height="192px" viewBox="0 0 192 192" version="1.1" xmlns="http://www.w3.org/2000/svg" xmlns:xlink="http://www.w3.org/1999/xlink">
    <title>DataLoad.UserDefEventRaiser	自定义事件触发</title>
    <g id="DataLoad.UserDefEventRaiser-自定义事件触发" stroke="none" stroke-width="1" fill="none" fill-rule="evenodd">
        <g id="事件触发" transform="translate(12.000000, 16.000000)">
            <g id="事件">
                <path d="M140.384615,0 L31.8205129,0 C28.7133334,0 26.2051283,2.51249994 26.2051283,5.625 L26.2051283,30 L5.61538462,30 C2.50820507,30 0,32.5125 0,35.6250001 L0,129.375 C0,132.4875 2.50820507,135 5.61538462,135 L140.384615,135 C143.491795,135 146,132.4875 146,129.375 L146,5.625 C146,2.51249994 143.491795,0 140.384615,0 Z M11.2307692,41.2500001 L26.2051283,41.2500001 L26.2051283,123.75 L11.2307692,123.75 L11.2307692,41.2500001 L11.2307692,41.2500001 Z M134.769231,123.75 L37.4358976,123.75 L37.4358976,11.25 L134.769231,11.25 L134.769231,123.75 Z" id="形状" fill="#3B71E9" fill-rule="nonzero"></path>
                <path d="M106.692308,41.2500001 L58.0256411,41.2500001 C54.9243498,41.2500001 52.4102565,38.7316018 52.4102565,35.6250001 C52.4102565,32.5183983 54.9243498,30.0000001 58.0256411,30.0000001 L106.692308,30.0000001 C109.793599,30.0000001 112.307692,32.5183983 112.307692,35.6250001 C112.307692,38.7316018 109.793599,41.2500001 106.692308,41.2500001 Z M106.692308,71.2499999 L58.0256411,71.2499999 C54.9243498,71.2499999 52.4102565,68.7316017 52.4102565,65.6249999 C52.4102565,62.5183982 54.9243498,59.9999999 58.0256411,59.9999999 L106.692308,59.9999999 C109.793599,59.9999999 112.307692,62.5183982 112.307692,65.6249999 C112.307692,68.7316017 109.793599,71.2499999 106.692308,71.2499999 Z M106.692308,105 L58.0256411,105 C54.9243498,105 52.4102565,102.481602 52.4102565,99.3749999 C52.4102565,96.2683982 54.9243498,93.7499999 58.0256411,93.7499999 L106.692308,93.7499999 C109.793599,93.7499999 112.307692,96.2683982 112.307692,99.3749999 C112.307692,102.481602 109.793599,105 106.692308,105 Z" id="形状" fill="#3B71E9" fill-rule="nonzero"></path>
                <circle id="椭圆形" fill="#FFFFFF" cx="123.161473" cy="114.36147" r="45.5"></circle>
            </g>
            <g id="触发" transform="translate(86.000000, 78.000000)" fill-rule="nonzero">
                <path d="M49.4663341,73.3126732 L41.6957606,46.5326553 C40.9376559,43.8736464 43.2119701,41.4045667 45.8653367,41.7844252 L72.5885287,45.5830092 C76,46.1527968 77.1371571,50.5211686 74.1047382,52.4204606 L61.7855362,60.7773456 L56.6683292,73.6925316 C55.3416459,76.9213281 50.6034913,76.7313989 49.4663341,73.3126732 L49.4663341,73.3126732 Z M50.7930175,50.1413101 L53.8254364,60.5874165 L55.7206982,55.6492571 L61.7855362,51.6607438 L50.7930175,50.1413101 Z" id="形状" fill="#297AFF"></path>
                <path d="M38.0947631,49.3815933 C37.9052369,49.3815933 37.9052369,49.3815933 38.0947631,49.3815933 C31.6508728,49.3815933 26.5336659,44.2535048 26.5336659,37.985841 C26.5336659,31.7181773 31.6508728,26.5900887 37.9052369,26.5900887 C43.9700749,26.5900887 48.8977556,31.3383188 49.276808,37.2261242 L56.8578553,38.1757702 L56.8578553,37.7959119 C56.8578553,27.3498056 48.329177,18.8029913 37.9052369,18.8029913 C27.4812968,18.8029913 18.9526185,27.3498055 18.9526185,37.7959119 C18.9526185,48.2420182 27.4812968,56.7888323 37.9052369,56.7888323 C38.6633416,56.7888323 39.4214464,56.7888323 39.990025,56.5989032 L38.0947631,49.3815933 Z" id="路径" fill="#05C8C8"></path>
                <path d="M43.0224439,67.9946555 C41.3167082,68.1845846 39.6109726,68.3745139 37.9052369,68.3745138 C21.2269327,68.3745138 7.58104744,54.699611 7.58104744,37.985841 C7.58104744,21.272071 21.2269327,7.59716826 37.9052369,7.59716826 C54.5835411,7.59716826 68.2294264,21.272071 68.2294264,37.985841 L68.2294264,39.8851331 L75.8104738,40.8347791 C75.8104738,39.8851331 76,38.9354871 76,37.985841 C76,17.0936285 58.9426434,0 38.0947631,0 C17.2468828,0 0,17.0936285 0,37.985841 C0,58.8780536 17.0573566,75.9716821 37.9052369,75.9716821 C40.3690773,75.9716821 42.6433915,75.7817529 44.9177057,75.2119652 L43.0224439,67.9946555 Z" id="路径" fill="#00CCFE"></path>
            </g>
        </g>
    </g>
</svg>