<?xml version="1.0" encoding="UTF-8"?>
<svg width="180px" height="180px" viewBox="0 0 180 180" version="1.1" xmlns="http://www.w3.org/2000/svg" xmlns:xlink="http://www.w3.org/1999/xlink">
    <title>2</title>
    <g id="2" stroke="none" stroke-width="1" fill="none" fill-rule="evenodd">
        <g id="1备份" transform="translate(13, 21)">
            <g id="DataMapping.FieldMapping_字段映射" fill-rule="nonzero">
                <path d="M100.602874,137.998494 C96.8554336,138.052474 93.2330674,136.653254 90.4977245,134.095152 C87.8505193,131.564945 86.3685237,128.054742 86.4027494,124.395937 L86.4027494,110.832808 L97.6451736,110.832808 L97.6451736,124.395937 C97.5887305,125.18527 97.8864977,125.958831 98.4578785,126.507241 C99.0292594,127.055651 99.8151653,127.322197 100.602874,127.234732 L139.79143,127.234732 C141.328067,127.109661 142.565226,125.923822 142.75308,124.395937 L142.75308,13.6040963 C142.809711,12.8139974 142.511432,12.0396847 141.939124,11.4911166 C141.366815,10.9425485 140.579781,10.6765699 139.79143,10.7653019 L100.591028,10.7653019 C99.0559206,10.8921487 97.8208575,12.0775592 97.6333271,13.6040963 L97.6333271,27.6009303 L86.3852711,27.6009303 L86.3852711,13.6040963 C86.3527283,9.94529163 87.8347239,6.43508865 90.481929,3.90488178 C93.2172719,1.3467799 96.8396382,-0.0524407771 100.587079,0.00153943696 L139.79143,0.00153943696 C143.540156,-0.0530528051 147.163975,1.34618208 149.900529,3.90488178 C152.548792,6.43468376 154.032178,9.94479506 154.000995,13.6040963 L154.000995,124.395937 C154.032178,128.055239 152.548792,131.56535 149.900529,134.095152 C147.165186,136.653254 143.54282,138.052474 139.795379,137.998494 L100.594977,137.998494 L100.602874,137.998494 Z" id="路径" fill="#3B71E9"></path>
                <path d="M14.2056152,137.998494 C10.4581739,138.052474 6.8358076,136.653254 4.10046471,134.095152 C1.4522021,131.56535 -0.0311839062,128.055239 0,124.395937 L0,13.6040963 C-0.0311839062,9.94479506 1.4522021,6.43468376 4.10046471,3.90488178 C6.83580762,1.3467799 10.4581739,-0.0524407771 14.2056152,0.00153943696 L53.4060174,0.00153943696 C57.1534587,-0.0524407421 60.7758249,1.34677993 63.5111678,3.90488178 C66.1583729,6.43508863 67.6403686,9.94529161 67.6061429,13.6040963 L67.6061429,27.1672256 L56.3637187,27.1672256 L56.3637187,13.6040963 C56.3502498,12.8354773 56.0306393,12.1038871 55.4755804,11.5711429 C54.9205215,11.0383987 54.1757568,10.7484042 53.4060174,10.7653019 L14.2174618,10.7653019 C12.6194755,10.7452843 11.3009766,12.009089 11.2558117,13.6040963 L11.2558117,124.395937 C11.1991806,125.186036 11.4974592,125.960349 12.0697679,126.508917 C12.6420766,127.057485 13.4291105,127.323464 14.2174618,127.234732 L53.4178639,127.234732 C55.0143213,127.252579 56.3304188,125.989392 56.3755653,124.395937 L56.3755653,110.832808 L67.6196723,110.832808 L67.6196723,124.395937 C67.6522152,128.054742 66.1702196,131.564945 63.5230144,134.095152 C60.7876715,136.653254 57.1653053,138.052474 53.4178639,137.998494 L14.2174618,137.998494 L14.2056152,137.998494 Z" id="路径" fill="#3B71E9"></path>
                <path d="M76.8878534,102.753606 C75.4102839,102.751818 73.9923236,102.171352 72.9389865,101.136759 C71.8606728,100.1649 71.2452264,98.7823942 71.2452264,97.3319863 C71.2452264,95.8815785 71.8606728,94.4990722 72.9389865,93.5272132 L80.4773735,86.3513714 L49.1352167,86.3513714 C47.1503518,92.0815113 41.9391936,96.0815203 35.8828192,96.5237184 L35.8828192,96.5631461 L34.5796931,96.5631461 C29.1908176,96.7792774 24.1160148,94.0319751 21.3571424,89.4049677 C18.5982701,84.7779602 18.5982701,79.0141221 21.3571424,74.3871146 C24.1160148,69.7601072 29.1908176,67.0128049 34.5796931,67.2289362 C40.3920918,67.1677202 45.7412448,70.3875164 48.4007274,75.5481812 L80.520811,75.5481812 L72.9745263,68.3723396 C71.8962125,67.4004805 71.2807661,66.0179742 71.2807661,64.5675664 C71.2807661,63.1171586 71.8962125,61.7346523 72.9745263,60.7627932 C74.0243836,59.7172375 75.448808,59.133358 76.9316147,59.1405559 C78.4144213,59.1481632 79.8329268,59.7462354 80.8722602,60.802221 L101.978954,80.9497763 L80.8525159,101.136759 C79.7989156,102.180681 78.3721493,102.762425 76.8878534,102.753606 Z" id="路径" fill="#00CCFE"></path>
                <path d="M34.5757443,75.2327597 C32.0966074,75.0852045 29.7398589,76.3219629 28.4556508,78.4444205 C27.1714427,80.5668782 27.1714427,83.2252043 28.4556508,85.3476619 C29.7398589,87.4701196 32.0966074,88.706878 34.5757443,88.5593228 C37.507593,88.6062528 40.1602518,86.8300649 41.2295851,84.1039924 L41.2295851,79.6486622 C40.14198,76.9425735 37.4957281,75.1863562 34.5757443,75.2327597 L34.5757443,75.2327597 Z" id="路径" fill="#FFFFFF"></path>
                <path d="M121.820136,93.8426347 C115.264025,93.5644172 110.148326,88.0784103 110.337908,81.5292464 C110.52749,74.9800825 115.951995,69.7982463 122.513256,69.8985717 C129.074517,69.9988972 134.337559,75.3441521 134.326253,81.8960412 C134.17519,88.6408448 128.579438,93.9879546 121.824085,93.8426347 L121.820136,93.8426347 Z" id="路径" fill="#05C8C8"></path>
            </g>
            <polyline id="路径-5" stroke="#00CCFE" stroke-width="8" stroke-linecap="round" stroke-linejoin="round" points="25.0004973 62 25.0004973 38 27.714783 38 42.6433544 62 44.0004973 62 44.0004973 38"></polyline>
            <line x1="122.000497" y1="38" x2="122.000497" y2="59" id="路径-8" stroke="#05C8C8" stroke-width="8" stroke-linecap="round" stroke-linejoin="round"></line>
        </g>
    </g>
</svg>