<?xml version="1.0" encoding="UTF-8"?>
<svg width="192px" height="192px" viewBox="0 0 192 192" version="1.1" xmlns="http://www.w3.org/2000/svg" xmlns:xlink="http://www.w3.org/1999/xlink">
    <title>DataWeaver.DataFilter   数据过滤</title>
    <g id="DataWeaver.DataFilter---数据过滤" stroke="none" stroke-width="1" fill="none" fill-rule="evenodd">
        <g id="过滤器" transform="translate(18.000000, 21.000000)" fill-rule="nonzero">
            <path d="M81.3327596,125.5 L81.1047847,50.680203 C81.1291104,49.4724826 81.5860266,48.3135134 82.3925804,47.4137056 L115.379963,10.0964467 L16.3187535,10.0964467 L49.2070751,47.3147208 C50.0061816,48.2579762 50.4603323,49.4448384 50.4948708,50.680203 L50.3327596,138 C55.166093,135.333333 58.5827596,133.416667 60.5827596,132.25 C62.0445615,131.397282 65.8281678,131.352826 67.0827596,133.25 C68.4029185,135.246323 67.1209102,139.230925 65.5827596,140 C62.5827596,141.5 52.5827596,147 50.3327596,148.25 C48.0827596,149.5 46.8327596,149 45.8327596,149 C45.1662398,149 43.9995732,148.333333 42.3327596,147 C41.4184722,146.033423 40.8758285,144.329305 40.8327596,143 C40.8040471,142.113797 40.7227105,111.967435 40.5887499,52.5609137 L1.45957201,8.90862944 C-0.082391673,7.32527917 -0.441169694,4.93527131 0.568021121,2.96954315 C1.43138086,1.17802903 3.23415561,0.0282096624 5.22389798,0 L126.672941,0 C128.633776,0.0423060505 130.400436,1.19358651 131.229757,2.96954315 C132.264763,4.91471002 131.94616,7.3023874 130.437267,8.90862944 L90.8127832,53.1548223 L91.0407582,125.994924 C90.8061557,128.443388 88.8397144,130.366505 86.3848813,130.548223 C83.5946716,130.548223 81.3327596,128.288057 81.3327596,125.5 Z" id="路径" fill="#3B71E9" transform="translate(65.916380, 74.549383) scale(-1, 1) translate(-65.916380, -74.549383) "></path>
            <path d="M149.952325,77.1091371 L106.464454,77.1091371 C104.458718,77.5119739 102.407843,76.6663365 101.270093,74.9673457 C100.132342,73.2683549 100.132342,71.051442 101.270093,69.3524512 C102.407843,67.6534604 104.458718,66.807823 106.464454,67.2106599 L149.952325,67.2106599 C151.958062,66.807823 154.008937,67.6534604 155.146687,69.3524512 C156.284438,71.051442 156.284438,73.2683549 155.146687,74.9673457 C154.008937,76.6663365 151.958062,77.5119739 149.952325,77.1091371 L149.952325,77.1091371 Z" id="路径" fill="#3B71E9"></path>
            <path d="M106.464454,108.784264 C104.10521,108.310428 102.407886,106.239598 102.407886,103.835025 C102.407886,101.430453 104.10521,99.3596232 106.464454,98.8857868 L140.03325,98.8857868 C142.392495,99.3596232 144.089819,101.430453 144.089819,103.835025 C144.089819,106.239598 142.392495,108.310428 140.03325,108.784264 L106.464454,108.784264 Z" id="路径" fill="#00CCFE"></path>
            <path d="M123.989674,140.660221 L106.464454,140.459391 C104.10521,139.985555 102.407886,137.914725 102.407886,135.510152 C102.407886,133.10558 104.10521,131.03475 106.464454,130.560914 L123.989674,130.761744 C126.348918,131.23558 128.046243,133.30641 128.046243,135.710983 C128.046243,138.115555 126.348918,140.186385 123.989674,140.660221 Z" id="路径" fill="#05C8C8"></path>
        </g>
    </g>
</svg>