<?xml version="1.0" standalone="no"?><!DOCTYPE svg PUBLIC "-//W3C//DTD SVG 1.1//EN" "http://www.w3.org/Graphics/SVG/1.1/DTD/svg11.dtd"><svg t="1706574026498" class="icon" viewBox="0 0 1024 1024" version="1.1" xmlns="http://www.w3.org/2000/svg" p-id="3808" xmlns:xlink="http://www.w3.org/1999/xlink" width="22" height="22"><path d="M277.333333 144h426.666667c90.666667 0 144 53.333333 144 138.666667v304h-53.333333V282.666667c0-48-37.333333-85.333333-90.666667-85.333334H277.333333c-58.666667 0-90.666667 37.333333-90.666666 85.333334v426.666666c10.72 61.808 30.336 82.186667 90.666666 96l352 5.333334v48c-234.666667 1.776-352 1.776-352 0-90.666667 0-144-61.333333-144-149.333334V282.666667c0-85.333333 53.333333-138.666667 144-138.666667z" fill="#3B71E9" p-id="3809"></path><path d="M720 572.666667V669.333333H256v-96.666666h464z m-29.002667 29.002666H285.002667v38.666667h406.005333v-38.666667zM256 304h464v96.666667H256zM720 439.333333V536H256V439.333333h464z m-29.002667 29.002667H285.002667v38.666667h406.005333v-38.666667z" fill="#00CCFE" p-id="3810"></path><path d="M722.666667 722.666667m-192 0a192 192 0 1 0 384 0 192 192 0 1 0-384 0Z" fill="#05C8C8" p-id="3811"></path><path d="M722.666667 722.666667m-146.666667 0a146.666667 146.666667 0 1 0 293.333333 0 146.666667 146.666667 0 1 0-293.333333 0Z" fill="#FFFFFF" p-id="3812"></path><path d="M681.386667 778.666667v-112h-18.08c-0.64 4.266667-1.973333 7.84-4 10.72-2.026667 2.88-4.506667 5.2-7.44 6.96-2.933333 1.76-6.24 2.986667-9.92 3.68-3.68 0.693333-7.493333 0.986667-11.44 0.88v17.12h28.16V778.666667h22.72zM743.504 722.026667v-24.64h-25.12v24.64h25.12z m-25.12 32V778.666667h25.12v-24.64h-25.12z" fill="#3B71E9" p-id="3813"></path><path d="M844.405333 744.554667c1.722667 0.96 2.826667 2.394667 3.333334 4.298666 0.506667 1.904 0.272 3.712-0.693334 5.418667l-3.594666 6.106667c-0.96 1.706667-2.410667 2.8-4.330667 3.306666-1.92 0.501333-3.749333 0.266667-5.466667-0.693333l-14.901333-8.485333v17.045333c0 1.930667-0.704 3.589333-2.133333 5.002667-1.424 1.397333-3.093333 2.112-5.04 2.112h-7.173334c-1.941333 0-3.616-0.698667-5.04-2.112a6.816 6.816 0 0 1-2.133333-5.002667v-17.045333l-14.896 8.485333c-1.722667 0.96-3.536 1.194667-5.466667 0.693333-1.92-0.506667-3.370667-1.6-4.336-3.306666l-3.578666-6.106667a6.970667 6.970667 0 0 1-0.693334-5.418667c0.506667-1.904 1.610667-3.344 3.333334-4.298666l14.896-8.549334-14.896-8.549333a6.698667 6.698667 0 0 1-3.333334-4.298667 6.976 6.976 0 0 1 0.693334-5.418666l3.594666-6.117334c0.96-1.706667 2.410667-2.8 4.330667-3.306666 1.92-0.501333 3.749333-0.266667 5.466667 0.693333l14.901333 8.485333v-17.045333c0-1.930667 0.704-3.589333 2.133333-5.002667a6.933333 6.933333 0 0 1 5.04-2.112h7.173334c1.941333 0 3.616 0.698667 5.04 2.112 1.413333 1.413333 2.133333 3.072 2.133333 5.002667v17.045333l14.896-8.485333c1.722667-0.96 3.536-1.194667 5.466667-0.693333 1.92 0.506667 3.370667 1.6 4.336 3.306666l3.578666 6.106667c0.965333 1.706667 1.2 3.504 0.693334 5.418667a6.698667 6.698667 0 0 1-3.333334 4.298666L829.509333 736l14.896 8.56z" fill="#3B71E9" p-id="3814"></path></svg>