<?xml version="1.0" standalone="no"?><!DOCTYPE svg PUBLIC "-//W3C//DTD SVG 1.1//EN" "http://www.w3.org/Graphics/SVG/1.1/DTD/svg11.dtd"><svg t="1706574010342" class="icon" viewBox="0 0 1024 1024" version="1.1" xmlns="http://www.w3.org/2000/svg" p-id="3654" xmlns:xlink="http://www.w3.org/1999/xlink" width="22" height="22"><path d="M277.333333 144h426.666667c90.666667 0 144 53.333333 144 138.666667v304h-53.333333V282.666667c0-48-37.333333-85.333333-90.666667-85.333334H277.333333c-58.666667 0-90.666667 37.333333-90.666666 85.333334v426.666666c10.72 61.808 30.336 82.186667 90.666666 96l352 5.333334v48c-234.666667 1.776-352 1.776-352 0-90.666667 0-144-61.333333-144-149.333334V282.666667c0-85.333333 53.333333-138.666667 144-138.666667z" fill="#3B71E9" p-id="3655"></path><path d="M362.666667 453.333333h25.157333v103.306667H362.666667V453.333333z m74.72 165.333334V515.84L512 567.008 437.386667 618.666667z" fill="#00CCFE" p-id="3656"></path><path d="M458.666667 554.666667v21.333333H362.666667v-21.333333zM463.029333 309.333333v147.104H288V309.333333h175.029333zM688 498.229333V645.333333H512.970667V498.229333H688z" fill="#00CCFE" p-id="3657"></path><path d="M722.666667 722.666667m-192 0a192 192 0 1 0 384 0 192 192 0 1 0-384 0Z" fill="#05C8C8" p-id="3658"></path><path d="M722.666667 722.666667m-146.666667 0a146.666667 146.666667 0 1 0 293.333333 0 146.666667 146.666667 0 1 0-293.333333 0Z" fill="#FFFFFF" p-id="3659"></path><path d="M681.386667 778.666667v-112h-18.08c-0.64 4.266667-1.973333 7.84-4 10.72-2.026667 2.88-4.506667 5.2-7.44 6.96-2.933333 1.76-6.24 2.986667-9.92 3.68-3.68 0.693333-7.493333 0.986667-11.44 0.88v17.12h28.16V778.666667h22.72zM743.504 722.026667v-24.64h-25.12v24.64h25.12z m-25.12 32V778.666667h25.12v-24.64h-25.12zM797.322667 667.610667c-10.314667 0-18.506667 4.906667-24.442667 11.205333-6.074667 6.154667-9.04 14.506667-9.04 25.205333h14.976c0-6.453333 2.154667-9.738667 4.698667-13.253333 2.826667-4.106667 7.450667-6.24 13.813333-6.24 5.082667 0 8.474667 1.466667 11.296 4.4 2.688 2.933333 3.818667 5.125333 3.818667 10.256 0 3.808-1.274667 7.328-3.818667 10.693333l-6.074667 6.154667c-8.757333 8.058667-10.453333 10.698667-12.426666 14.8-1.84 3.808-2.688 8.496-2.688 13.92v2.490667h15.114666v-2.490667c0-3.664 0.709333-6.885333 2.261334-9.813333 1.274667-2.64 3.253333-5.130667 5.792-7.477334 6.784-6.005333 10.736-9.813333 12.010666-11.429333 3.392-4.688 5.226667-10.693333 5.226667-17.872 0-8.794667-2.826667-15.824-8.336-20.954667-5.653333-5.274667-12.997333-9.6-22.181333-9.6z m-2.4 87.541333c-2.965333 0-5.370667 0.88-7.205334 2.933333-2.122667 1.904-3.109333 4.394667-3.109333 7.472 0 2.933333 0.986667 5.418667 3.109333 7.472 1.834667 2.053333 4.24 3.077333 7.2 3.077334a10.986667 10.986667 0 0 0 7.493334-2.933334c1.973333-2.048 2.965333-4.538667 2.965333-7.616s-0.986667-5.568-2.965333-7.472c-1.978667-2.053333-4.522667-2.933333-7.488-2.933333z" fill="#3B71E9" p-id="3660"></path></svg>