<?xml version="1.0" standalone="no"?><!DOCTYPE svg PUBLIC "-//W3C//DTD SVG 1.1//EN" "http://www.w3.org/Graphics/SVG/1.1/DTD/svg11.dtd"><svg t="1706574042191" class="icon" viewBox="0 0 1024 1024" version="1.1" xmlns="http://www.w3.org/2000/svg" p-id="4269" xmlns:xlink="http://www.w3.org/1999/xlink" width="22" height="22"><path d="M514.666667 133.333333C307.344 133.333333 138.666667 303.2 138.666667 512s168.677333 378.666667 376 378.666667c207.322667 0 376-169.866667 376-378.666667s-168.677333-378.666667-376-378.666667z m0 714.666667C330.864 848 181.333333 697.274667 181.333333 512c0-185.269333 149.530667-336 333.333334-336S848 326.730667 848 512c0 185.274667-149.530667 336-333.333333 336z" fill="#3B71E9" p-id="4270"></path><path d="M236.069333 428.784h104.853334c20.202667 0 40.757333 4.208 56.154666 20.410667 1.04 1.098667 2.666667 3.168 5.36 4.64 1.157333 0.64 3.045333 1.477333 4.192 1.909333 1.973333 0.746667 3.770667 0.885333 4.693334 0.885333 2.714667 0 5.776-1.370667 8.821333-3.797333 2.890667-2.304 4.784-5.616 5.637333-7.493333 2.634667-6.416 0.256-17.68-4.832-23.04-19.749333-20.778667-54.122667-32.917333-80.032-32.917334h-104.853333c-6.661333 0-12.064 12-12.064 20.282667s5.402667 19.12 12.069333 19.12z" fill="#05C8C8" p-id="4271"></path><path d="M687.466667 395.36l-103.381334-68.144c-5.706667-3.765333-15.034667 2.346667-18.437333 8.64-3.408 6.293333-3.770667 16.885333 1.936 20.64l57.546667 36.986667h-90.005334c-60.266667 0-119.184 54.096-119.184 120.586666 0 51.850667-28.352 85.616-75.354666 85.616H236.032c-6.645333 0-12.032 9.354667-12.032 16.693334 0 7.328 5.386667 18.288 12.032 18.288H340.586667C400.853333 634.666667 453.333333 580.565333 453.333333 514.074667c0-51.850667 34.794667-86.250667 81.792-86.250667h90.005334l-57.546667 28.805333c-5.706667 3.76-3.157333 17.338667 0 22.832 3.157333 5.493333 11.674667 9.957333 16.501333 6.837334L687.466667 427.824c3.637333-2.4 6.314667-10.218667 6.314666-14.890667 0-4.677333-2.677333-15.173333-6.314666-17.568z" fill="#05C8C8" p-id="4272"></path><path d="M676.805333 601.386667L583.413333 521.530667c-5.701333-3.946667-17.498667 0.517333-22.24 6.448-4.746667 5.930667-5.706667 17.130667 0 21.072l58.896 47.178666H524.570667c-20.88 0-40.986667-8.666667-56.570667-24.693333-4.981333-5.114667-13.978667-5.744-18.4 0-4.405333 5.744-8.32 19.584-3.36 24.693333 20 20.56 51.546667 33.632 78.330667 33.632h93.637333l-57.045333 43.557334c-5.701333 3.941333-4.373333 15.6 0 21.84 3.898667 5.552 17.002667 6.688 22.245333 5.52l93.397333-75.504c3.637333-2.512 5.861333-7.04 5.861334-11.946667 0-4.896-2.224-9.429333-5.861334-11.941333z" fill="#05C8C8" p-id="4273"></path><path d="M760 448c33.872 0 61.333333 27.461333 61.333333 61.333333s-27.461333 61.333333-61.333333 61.333334-61.333333-27.461333-61.333333-61.333334S726.128 448 760 448z m-0.378667 26.288a34.666667 34.666667 0 1 0 0 69.333333 34.666667 34.666667 0 0 0 0-69.333333z" fill="#00CCFE" p-id="4274"></path></svg>