<?xml version="1.0" encoding="UTF-8"?>
<svg width="192px" height="192px" viewBox="0 0 192 192" version="1.1" xmlns="http://www.w3.org/2000/svg" xmlns:xlink="http://www.w3.org/1999/xlink">
    <title>DataMapping.FieldMapping	字段映射</title>
    <g id="DataMapping.FieldMapping-字段映射" stroke="none" stroke-width="1" fill="none" fill-rule="evenodd">
        <g id="映射备份" transform="translate(19.000513, 27.000000)" fill-rule="nonzero">
            <path d="M100.601864,137.998494 C96.854423,138.052474 93.2320568,136.653254 90.4967139,134.095152 C87.8495087,131.564945 86.3675131,128.054742 86.4017388,124.395937 L86.4017388,110.832808 L97.644163,110.832808 L97.644163,124.395937 C97.5877199,125.18527 97.8854871,125.958831 98.4568679,126.507241 C99.0282488,127.055651 99.8141547,127.322197 100.601864,127.234732 L139.79042,127.234732 C141.327057,127.109661 142.564216,125.923822 142.75207,124.395937 L142.75207,13.6040963 C142.808701,12.8139974 142.510422,12.0396847 141.938114,11.4911166 C141.365805,10.9425485 140.578771,10.6765699 139.79042,10.7653019 L100.590018,10.7653019 C99.05491,10.8921487 97.8198469,12.0775592 97.6323165,13.6040963 L97.6323165,27.6009303 L86.3853635,27.6009303 L86.3853635,13.6040963 C86.3517177,9.94529163 87.8337133,6.43508865 90.4809184,3.90488178 C93.2162613,1.3467799 96.8386276,-0.0524407771 100.586069,0.00153943696 L139.79042,0.00153943696 C143.539146,-0.0530528051 147.162965,1.34618208 149.899519,3.90488178 C152.547782,6.43468376 154.031168,9.94479506 153.998973,13.6040963 L153.998973,124.395937 C154.031168,128.055239 152.547782,131.56535 149.899519,134.095152 C147.164176,136.653254 143.54181,138.052474 139.794369,137.998494 L100.593967,137.998494 L100.601864,137.998494 Z" id="路径" fill="#3B71E9"></path>
            <path d="M14.2046046,137.998494 C10.4571633,138.052474 6.834797,136.653254 4.09945411,134.095152 C1.4511915,131.56535 -0.0321945007,128.055239 0,124.395937 L0,13.6040963 C-0.0321945007,9.94479506 1.4511915,6.43468376 4.09945411,3.90488178 C6.83479702,1.3467799 10.4571633,-0.0524407771 14.2046046,0.00153943696 L53.4050068,0.00153943696 C57.1524481,-0.0524407421 60.7748143,1.34677993 63.5101572,3.90488178 C66.1573623,6.43508863 67.639358,9.94529161 67.6051323,13.6040963 L67.6051323,27.1672256 L56.3627081,27.1672256 L56.3627081,13.6040963 C56.3492392,12.8354773 56.0296287,12.1038871 55.4745698,11.5711429 C54.9195109,11.0383987 54.1747462,10.7484042 53.4050068,10.7653019 L14.2164512,10.7653019 C12.6184649,10.7452843 11.299966,12.009089 11.2548011,13.6040963 L11.2548011,124.395937 C11.19817,125.186036 11.4964486,125.960349 12.0687573,126.508917 C12.641066,127.057485 13.4280999,127.323464 14.2164512,127.234732 L53.4168533,127.234732 C55.0133107,127.252579 56.3294082,125.989392 56.3745547,124.395937 L56.3745547,110.832808 L67.6175587,110.832808 L67.6175587,124.395937 C67.6512046,128.054742 66.169209,131.564945 63.5220038,134.095152 C60.7866609,136.653254 57.1642947,138.052474 53.4168533,137.998494 L14.2164512,137.998494 L14.2046046,137.998494 Z" id="路径" fill="#3B71E9"></path>
            <path d="M74.8868428,88.7534011 C73.4092733,88.7518182 71.991313,88.171352 70.9379759,87.1367595 C69.8596622,86.1649004 69.2442158,84.7823942 69.2442158,83.3319863 C69.2442158,81.8815785 69.8596622,80.4990722 70.9379759,79.5272132 L78.4763629,72.3513714 L47.1342061,72.3513714 C45.1493412,78.0815113 39.938183,82.0815203 33.8818086,82.5237184 L33.8818086,82.5631461 L32.5786825,82.5631461 C27.189807,82.7792774 22.1150042,80.0319751 19.3561318,75.4049677 C16.5972595,70.7779602 16.5972595,65.0141221 19.3561318,60.3871146 C22.1150042,55.7601072 27.189807,53.0128049 32.5786825,53.2289362 C38.3910812,53.1677202 43.7402342,56.3875164 46.3997168,61.5481812 L78.5198004,61.5481812 L70.9735157,54.3723396 C69.8952019,53.4004805 69.2797555,52.0179742 69.2797555,50.5675664 C69.2797555,49.1171586 69.8952019,47.7346523 70.9735157,46.7627932 C72.023373,45.7172375 73.4477974,45.133358 74.9306041,45.1406911 C76.4134107,45.1481632 77.8319162,45.7462354 78.8712496,46.802221 L99.9779434,66.9497763 L78.8515053,87.1367595 C77.797905,88.1806807 76.3711387,88.7624247 74.8868428,88.7534011 Z" id="路径" fill="#00CCFE"></path>
            <path d="M32.5747337,61.2327597 C30.0955968,61.0852045 27.7388483,62.3219629 26.4546402,64.4444205 C25.1704321,66.5668782 25.1704321,69.2252043 26.4546402,71.3476619 C27.7388483,73.4701196 30.0955968,74.706878 32.5747337,74.5593228 C35.5065824,74.6062528 38.1592412,72.8300649 39.2285745,70.1039924 L39.2285745,65.6486622 C38.1409694,62.9425735 35.4947175,61.1863562 32.5747337,61.2327597 L32.5747337,61.2327597 Z" id="路径" fill="#FFFFFF"></path>
            <path d="M121.819126,79.8426347 C115.263015,79.5644172 110.147316,74.0784103 110.336898,67.5292464 C110.52648,60.9800825 115.950985,55.7982463 122.512246,55.8985717 C129.073507,55.9988972 134.336549,61.3441521 134.325206,67.8960412 C134.17418,74.6408448 128.578428,79.9879546 121.823075,79.8426347 L121.819126,79.8426347 Z" id="路径" fill="#05C8C8"></path>
        </g>
    </g>
</svg>