<?xml version="1.0" encoding="UTF-8"?>
<svg width="192px" height="192px" viewBox="0 0 192 192" version="1.1" xmlns="http://www.w3.org/2000/svg" xmlns:xlink="http://www.w3.org/1999/xlink">
    <title>DataLoad.EntityAction	实体操作</title>
    <g id="DataLoad.EntityAction-实体操作" stroke="none" stroke-width="1" fill="none" fill-rule="evenodd">
        <g id="实体操作" transform="translate(12.000000, 26.000000)">
            <g id="实体备份" fill-rule="nonzero">
                <g id="立方体3" transform="translate(39.733333, 0.000000)" fill="#3B71E9">
                    <path d="M66.7740741,25.0776465 L42.2718519,38.3024011 C40.0092593,39.5096401 38.6296296,41.9241181 38.6296296,44.6129686 L38.6296296,70.1844856 C38.6296296,72.9282106 41.3337037,74.7390691 43.5962963,73.4769556 L68.0985185,60.2522011 C70.3059259,59.0449621 71.7407407,56.6304841 71.7407407,53.9416336 L71.7407407,28.4249911 C71.7407407,25.6263915 69.0366667,23.8704075 66.7740741,25.0776465 Z M29.4688889,38.2475266 L4.96666667,25.0776465 C2.70407407,23.8704075 0,25.6263915 0,28.3701166 L0,54.0513826 C0,56.7402331 1.37962963,59.1547111 3.64222222,60.3619501 L28.1444444,73.5318301 C30.407037,74.7390691 33.1111111,72.9282106 33.1111111,70.1844856 L33.1111111,44.5580941 C33.1111111,41.8692436 31.7314815,39.4547656 29.4688889,38.2475266 Z M64.5114815,19.096326 C65.6703704,18.4927065 66.2222222,17.450091 66.1118519,16.46235 C66.2222222,15.4197345 65.6703704,14.4319935 64.5114815,13.828374 L39.5677778,0.877992002 C38.4640741,0.274372501 37.1396296,0 35.8151852,0 C34.4907407,0 33.1662963,0.274372501 32.0625926,0.877992002 L7.11888889,13.7734995 C5.96,14.377119 5.46333333,15.4197345 5.51851852,16.4074755 C5.46333333,17.450091 5.96,18.4927065 7.11888889,19.096326 L32.0625926,31.9918336 C33.1662963,32.5954531 34.4907407,32.8698256 35.8151852,32.8698256 C37.1396296,32.8698256 38.4640741,32.5954531 39.5677778,31.9918336 L64.5114815,19.096326 Z" id="形状"></path>
                </g>
                <g id="立方体2" transform="translate(0.000000, 65.087302)" fill="#00CCFE">
                    <path d="M66.7740741,25.0776465 L42.2718519,38.3024011 C40.0092593,39.5096401 38.6296296,41.9241181 38.6296296,44.6129686 L38.6296296,70.1844856 C38.6296296,72.9282106 41.3337037,74.7390691 43.5962963,73.4769556 L68.0985185,60.2522011 C70.3059259,59.0449621 71.7407407,56.6304841 71.7407407,53.9416336 L71.7407407,28.4249911 C71.7407407,25.6263915 69.0366667,23.8704075 66.7740741,25.0776465 Z M29.4688889,38.2475266 L4.96666667,25.0776465 C2.70407407,23.8704075 0,25.6263915 0,28.3701166 L0,54.0513826 C0,56.7402331 1.37962963,59.1547111 3.64222222,60.3619501 L28.1444444,73.5318301 C30.407037,74.7390691 33.1111111,72.9282106 33.1111111,70.1844856 L33.1111111,44.5580941 C33.1111111,41.8692436 31.7314815,39.4547656 29.4688889,38.2475266 Z M64.5114815,19.096326 C65.6703704,18.4927065 66.2222222,17.450091 66.1118519,16.46235 C66.2222222,15.4197345 65.6703704,14.4319935 64.5114815,13.828374 L39.5677778,0.877992002 C38.4640741,0.274372501 37.1396296,0 35.8151852,0 C34.4907407,0 33.1662963,0.274372501 32.0625926,0.877992002 L7.11888889,13.7734995 C5.96,14.377119 5.46333333,15.4197345 5.51851852,16.4074755 C5.46333333,17.450091 5.96,18.4927065 7.11888889,19.096326 L32.0625926,31.9918336 C33.1662963,32.5954531 34.4907407,32.8698256 35.8151852,32.8698256 C37.1396296,32.8698256 38.4640741,32.5954531 39.5677778,31.9918336 L64.5114815,19.096326 Z" id="形状"></path>
                </g>
                <g id="立方体1" transform="translate(77.259259, 65.087302)" fill="#05C8C8">
                    <path d="M66.7740741,25.0776465 L42.2718519,38.3024011 C40.0092593,39.5096401 38.6296296,41.9241181 38.6296296,44.6129686 L38.6296296,70.1844856 C38.6296296,72.9282106 41.3337037,74.7390691 43.5962963,73.4769556 L68.0985185,60.2522011 C70.3059259,59.0449621 71.7407407,56.6304841 71.7407407,53.9416336 L71.7407407,28.4249911 C71.7407407,25.6263915 69.0366667,23.8704075 66.7740741,25.0776465 Z M29.4688889,38.2475266 L4.96666667,25.0776465 C2.70407407,23.8704075 0,25.6263915 0,28.3701166 L0,54.0513826 C0,56.7402331 1.37962963,59.1547111 3.64222222,60.3619501 L28.1444444,73.5318301 C30.407037,74.7390691 33.1111111,72.9282106 33.1111111,70.1844856 L33.1111111,44.5580941 C33.1111111,41.8692436 31.7314815,39.4547656 29.4688889,38.2475266 Z M64.5114815,19.096326 C65.6703704,18.4927065 66.2222222,17.450091 66.1118519,16.46235 C66.2222222,15.4197345 65.6703704,14.4319935 64.5114815,13.828374 L39.5677778,0.877992002 C38.4640741,0.274372501 37.1396296,0 35.8151852,0 C34.4907407,0 33.1662963,0.274372501 32.0625926,0.877992002 L7.11888889,13.7734995 C5.96,14.377119 5.46333333,15.4197345 5.51851852,16.4074755 C5.46333333,17.450091 5.96,18.4927065 7.11888889,19.096326 L32.0625926,31.9918336 C33.1662963,32.5954531 34.4907407,32.8698256 35.8151852,32.8698256 C37.1396296,32.8698256 38.4640741,32.5954531 39.5677778,31.9918336 L64.5114815,19.096326 Z" id="形状"></path>
                </g>
            </g>
            <g id="操作备份-2" transform="translate(88.000000, 91.000000)">
                <rect id="矩形" fill="#FFFFFF" x="0" y="0" width="79" height="48"></rect>
                <path d="M55.014804,27.4390819 L23.985196,27.4390819 C22.2075682,27.4390819 20.7533858,25.9838167 20.7533858,24.2048652 L20.7533858,20.7933708 C20.7533858,19.0144193 22.2075682,17.5591541 23.985196,17.5591541 L55.014804,17.5591541 C56.7924318,17.5591541 58.2466142,19.0144193 58.2466142,20.7933708 L58.2466142,24.2048652 C58.2466142,25.9838167 56.7924318,27.4390819 55.014804,27.4390819 Z" id="路径" fill="#3B71E9" fill-rule="nonzero"></path>
                <path d="M30.969678,44 L21.4840023,44 C15.7659809,44 10.3766929,41.7580096 6.30850755,37.6867949 C2.24032218,33.6155803 0,28.2222792 0,22.5 C0,16.7777208 2.24032218,11.3844197 6.30850755,7.31320507 C10.3766929,3.2419904 15.7659809,1 21.4840023,1 L30.969678,1 C32.5137553,1 33.7643526,2.25241006 33.7643526,3.79675514 C33.7643526,5.3419822 32.512874,6.59351028 30.969678,6.59351028 L21.4840023,6.59351028 C12.7201299,6.59351028 5.59022959,13.7287197 5.59022959,22.499118 C5.59022959,31.2695163 12.7201299,38.4047258 21.4840023,38.4047258 L30.969678,38.4047258 C32.5137553,38.4047258 33.7643526,39.6571358 33.7643526,41.2014809 C33.7652335,42.7475899 32.5137553,44 30.969678,44 L30.969678,44 Z M57.5159977,44 L48.030322,44 C46.4862447,44 45.2356478,42.7475899 45.2356478,41.2032449 C45.2356478,39.6580178 46.487126,38.4064897 48.030322,38.4064897 L57.5159977,38.4064897 C66.2798701,38.4064897 73.4097704,31.2712803 73.4097704,22.500882 C73.4097704,13.7304837 66.2798701,6.59527423 57.5159977,6.59527423 L48.030322,6.59527423 C46.4862447,6.59527423 45.2356478,5.34286418 45.2356478,3.7985191 C45.2356478,2.25329204 46.487126,1.00176396 48.030322,1.00176396 L57.5159977,1.00176396 C63.2340191,1.00176396 68.6233071,3.24375436 72.6914924,7.31496903 C76.7596778,11.3861837 79,16.7794848 79,22.501764 C79,28.2240432 76.7596778,33.6173442 72.6914924,37.6885589 C68.6233071,41.7580096 63.2340191,44 57.5159977,44 L57.5159977,44 Z" id="形状" fill="#3B71E9" fill-rule="nonzero"></path>
            </g>
        </g>
    </g>
</svg>