<?xml version="1.0" encoding="UTF-8"?>
<svg width="192px" height="192px" viewBox="0 0 192 192" version="1.1" xmlns="http://www.w3.org/2000/svg" xmlns:xlink="http://www.w3.org/1999/xlink">
    <title>DataModel.DataComb 	数据组合</title>
    <g id="DataModel.DataComb--数据组合" stroke="none" stroke-width="1" fill="none" fill-rule="evenodd">
        <g id="多数的数据组合" transform="translate(22.000000, 11.000000)" fill-rule="nonzero">
            <path d="M74,37.3259641 C79.4965826,37.3239983 84.4930132,40.5002886 86.7998563,45.4629858 C89.1066994,50.425683 88.3031759,56.2695678 84.7413898,60.4338502 L106.844407,90.6423623 C114.370876,90.1186047 120.977493,95.5826549 121.833463,103.039169 C122.689434,110.495683 117.49123,117.300574 110.039807,118.478069 C102.588384,119.655563 95.5260239,114.788119 94.0167632,107.43484 L53.9832368,107.43484 C52.4323143,115.01706 45.0000085,119.916501 37.3756645,118.382697 C29.7513205,116.848893 24.8170981,109.461654 26.350088,101.875827 C27.883078,94.2899993 35.3037785,89.3731835 42.9317281,90.8891455 L63.6138372,60.8320686 C59.830627,56.7343002 58.8408846,50.7992066 61.0913758,45.7058646 C63.341867,40.6125226 68.4068452,37.3244876 74,37.3259641 Z M76.0129534,65.2292973 C74.7531374,65.4078122 73.4749274,65.4172443 72.2125876,65.2573408 L51.6206949,96.21742 L96.5597379,96.2118113 C97.0164584,95.6004619 97.5295642,95.0339822 98.0821396,94.5011547 L76.0129534,65.2236886 L76.0129534,65.2292973 Z" id="Shape" fill="#00CCFE"></path>
            <path d="M74,0 L148,42.5028044 L148,127.497196 L74,170 L0,127.497196 L0,42.5028044 L74,0 Z M74,12.9561201 L11.2714112,48.9752557 L11.2714112,121.019136 L74,157.038271 L136.72295,121.019136 L136.72295,48.9752557 L74,12.9561201 Z" id="Combined-Shape" fill="#3B71E9"></path>
        </g>
    </g>
</svg>