<?xml version="1.0" encoding="UTF-8"?>
<svg width="192px" height="192px" viewBox="0 0 192 192" version="1.1" xmlns="http://www.w3.org/2000/svg" xmlns:xlink="http://www.w3.org/1999/xlink">
    <title>DataWeaver.ScriptCompare	脚本比较</title>
    <g id="DataWeaver.ScriptCompare-脚本比较" stroke="none" stroke-width="1" fill="none" fill-rule="evenodd">
        <g id="脚本比较" transform="translate(25.000000, 27.000000)">
            <g id="脚本" fill="#3B71E9">
                <g id="&lt;/&gt;" transform="translate(14.478000, 31.128000)" fill-rule="nonzero">
                    <polygon id="路径" points="0 31.228 0 39.072 37.444 54.242 37.444 45.288 12.432 35.15 37.444 25.012 37.444 15.836"></polygon>
                    <polygon id="路径" points="57.1695952 0 40.6675952 54.686 48.7335952 54.686 65.4575952 0"></polygon>
                    <polygon id="路径" points="68.4591903 45.288 68.4591903 54.242 105.90319 39.072 105.90319 31.228 68.4591903 15.836 68.4591903 25.012 93.4711903 35.15"></polygon>
                </g>
                <path d="M27,0 C27,0 107,0 107,0 C124,0 134,10 134,26 C134,36.6666667 134,55.6666667 134,83 L124,83 C124,45 124,26 124,26 C124,17 117,10 107,10 C107,10 27,10 27,10 C16,10 10,17 10,26 C10,26 10,106 10,106 C12.0102506,117.588503 15.6879222,121.410488 27,124 C27,124 49,124.333333 93,125 L93,134 C49,134.333333 27,134.333333 27,134 C10,134 0,122.5 0,106 C0,106 0,26 0,26 C0,10 10,0 27,0 Z" id="路径-2"></path>
            </g>
            <g id="对比" transform="translate(95.000000, 87.000000)" fill-rule="nonzero">
                <polygon id="路径" fill="#00CCFE" points="5.46778712 50.2272728 21.8711485 50.2272728 21.8711485 55.8080808 0 55.8080808 0 5.5808081 21.8711485 5.5808081 21.8711485 11.1616161 5.46778712 11.1616161"></polygon>
                <polygon id="路径" fill="#05C8C8" points="35.5406162 50.2272728 41.0084033 50.2272728 41.0084033 55.8080808 35.5406162 55.8080808"></polygon>
                <polygon id="路径" fill="#05C8C8" points="43.7422969 50.2272728 49.210084 50.2272728 49.210084 55.8080808 43.7422969 55.8080808"></polygon>
                <polygon id="路径" fill="#05C8C8" points="51.9439776 55.8080808 51.9439776 50.2272728 57.4117647 50.2272728 57.4117647 55.8080808"></polygon>
                <polygon id="路径" fill="#05C8C8" points="51.9439776 36.2752525 51.9439776 30.6944444 57.4117647 30.6944444 57.4117647 36.2752525"></polygon>
                <polygon id="路径" fill="#05C8C8" points="51.9439776 44.6464647 51.9439776 39.0656566 57.4117647 39.0656566 57.4117647 44.6464647"></polygon>
                <polygon id="路径" fill="#05C8C8" points="51.9439776 27.9040404 51.9439776 22.3232323 57.4117647 22.3232323 57.4117647 27.9040404"></polygon>
                <polygon id="路径" fill="#05C8C8" points="51.9439776 19.5328282 51.9439776 13.9520202 57.4117647 13.9520202 57.4117647 19.5328282"></polygon>
                <polygon id="路径" fill="#05C8C8" points="51.9439776 5.5808081 57.4117647 5.5808081 57.4117647 11.1616161 51.9439776 11.1616161"></polygon>
                <polygon id="路径" fill="#05C8C8" points="43.7422969 11.1616161 43.7422969 5.5808081 49.210084 5.5808081 49.210084 11.1616161"></polygon>
                <polygon id="路径" fill="#05C8C8" points="35.5406162 11.1616161 35.5406162 5.5808081 41.0084033 5.5808081 41.0084033 11.1616161"></polygon>
                <polygon id="路径" fill="#3B71E9" points="27.3389356 0 32.8067227 0 32.8067227 61.3888889 27.3389356 61.3888889"></polygon>
            </g>
        </g>
    </g>
</svg>