<?xml version="1.0" encoding="UTF-8"?>
<svg width="192px" height="192px" viewBox="0 0 192 192" version="1.1" xmlns="http://www.w3.org/2000/svg" xmlns:xlink="http://www.w3.org/1999/xlink">
    <title>DataWeaver.DataFlow	数据流</title>
    <g id="DataWeaver.DataFlow-数据流" stroke="none" stroke-width="1" fill="none" fill-rule="evenodd">
        <g id="数据流" transform="translate(95.728681, 100.344871) scale(1, -1) translate(-95.728681, -100.344871) translate(20.457363, 19.689741)" fill-rule="nonzero">
            <path d="M28.0769556,85.5045739 C12.0215422,82.2746602 -0.0297366657,67.9929936 0.125763707,51.0262181 C0.281264079,31.958053 15.714676,16.586777 34.7245966,16.4311185 L35.307723,16.4311185 L73.9106904,16.7424355 L67.4574249,9.93237652 C65.3581699,7.71424302 65.4359201,4.21192697 67.5740502,2.07162272 L67.6906755,1.95487886 C69.9065558,-0.146510771 73.4053142,-0.0686815258 75.5434443,2.07162272 L75.6600696,2.18836659 L91.1712317,18.6103374 C93.1149864,20.6728124 93.2316117,23.8248968 91.4433574,26.0041157 L91.3656072,26.1208596 L75.5434443,44.6831346 C73.5219395,47.0569266 69.984306,47.329329 67.6129253,45.3057686 C65.2804197,43.3211228 64.969419,39.8577214 66.8742985,37.4839294 L66.9520487,37.3671855 L74.9214428,27.9887615 L35.1522226,27.6774445 C22.0901913,27.5607006 11.4384158,38.0676488 11.3217905,51.1040474 C11.2051652,64.0237021 21.5070649,74.6084795 34.3747207,74.9197965 L34.7634717,74.9197965 L114.496288,75.5813451 L115.079414,75.5813451 C134.089335,76.0483205 149.250621,91.6919989 149.09512,110.760164 C148.93962,130.022902 133.195207,145.510922 113.913161,145.356427 L54.9785201,144.888288 L55.0562702,133.603048 L113.990911,134.070023 L114.379662,134.070023 C127.247318,133.953279 137.704718,123.563075 137.821343,110.64342 C137.937969,97.6070215 127.441694,86.9444149 114.379662,86.827671" id="路径" fill="#3B71E9"></path>
            <path d="M22.401192,161.310259 C21.9346909,161.310259 21.4681898,161.310259 21.0016887,161.271344 C15.0537995,160.921113 9.57241133,158.236004 5.60715183,153.760822 C1.64189234,149.285641 -0.34073741,143.526276 0.0480135204,137.533424 C0.397889358,131.579487 3.08027078,126.092525 7.55090649,122.123234 C12.0215422,118.153942 17.775056,116.169297 23.7618203,116.558443 C29.7097096,116.947589 35.1910977,119.593783 39.1563572,124.068965 C43.1216167,128.544147 45.1042464,134.303511 44.7154955,140.296363 C44.3267446,146.2503 41.6832382,151.737262 37.2126025,155.706553 C33.0529676,159.325613 27.8437051,161.310259 22.401192,161.310259 L22.401192,161.310259 Z M22.3234419,125.314233 C19.0190589,125.314233 15.8701764,126.520586 13.3821705,128.699805 C10.6609139,131.112512 9.06703512,134.420255 8.83378456,138.039315 C8.600534,141.658374 9.80566189,145.160691 12.2159177,147.845799 C14.6261734,150.569823 17.9305563,152.165323 21.54594,152.39881 C25.1613237,152.632298 28.660082,151.425945 31.3424635,149.013238 C34.06372,146.600532 35.6575988,143.292789 35.8908494,139.673729 C36.1240999,136.054669 34.918972,132.552353 32.5087163,129.867244 C30.0984605,127.14322 26.7940776,125.547721 23.1786939,125.314233 C22.9065683,125.353148 22.6344426,125.314233 22.3234419,125.314233 Z" id="形状" fill="#3B71E9"></path>
            <path d="M143.143815,32.3524888 C146.689327,26.9988873 147.112305,20.1585237 144.253416,14.4080967 C141.394527,8.65766963 135.688105,4.8708059 129.283703,4.47398038 C119.383356,3.86054127 110.860754,11.3972286 110.247938,21.3076428 C109.635122,31.2180569 117.164153,39.7493256 127.0645,40.3627647 C133.468902,40.7595902 139.598302,37.7060903 143.143815,32.3524888 Z" id="路径"></path>
            <path d="M128.18032,44.7998785 C127.713819,44.7998785 127.247318,44.7998785 126.780817,44.7609639 C120.832928,44.4107323 115.35154,41.7256233 111.38628,37.2504417 C107.421021,32.7752601 105.438391,27.0158959 105.827142,21.023044 C106.177018,15.0691067 108.859399,9.58214491 113.330035,5.61285339 C117.80067,1.64356187 123.554184,-0.341083885 129.540949,0.0480623424 C135.488838,0.43720857 140.970226,3.08340292 144.935485,7.55858453 C148.900745,12.0337661 150.883375,17.7931303 150.494624,23.7859822 C150.105873,29.7399195 147.462367,35.2268813 142.991731,39.1961728 C138.832096,42.8541473 133.622833,44.7998785 128.18032,44.7998785 Z M128.141445,8.84276708 C124.837062,8.84276708 121.68818,10.0491204 119.200174,12.2283393 C116.478917,14.6410459 114.885039,17.9487888 114.651788,21.5678487 C114.418537,25.1869086 115.623665,28.6892247 118.033921,31.3743336 C120.444177,34.0983572 123.74856,35.6938568 127.363943,35.9273445 C130.979327,36.1608322 134.478085,34.9544789 137.160467,32.5417723 C139.881723,30.1290657 141.475602,26.8213228 141.708853,23.2022629 C141.942103,19.583203 140.736975,16.0808869 138.32672,13.3957779 C135.916464,10.6717543 132.612081,9.07625482 128.996697,8.84276708 L128.141445,8.84276708 Z" id="形状" fill="#3B71E9"></path>
        </g>
    </g>
</svg>