<?xml version="1.0" encoding="UTF-8"?>
<svg width="192px" height="192px" viewBox="0 0 192 192" version="1.1" xmlns="http://www.w3.org/2000/svg" xmlns:xlink="http://www.w3.org/1999/xlink">
    <title>DataExtract.ScriptRead	脚本读取</title>
    <g id="DataExtract.ScriptRead-脚本读取" stroke="none" stroke-width="1" fill="none" fill-rule="evenodd">
        <g id="脚本" transform="translate(25.000000, 27.000000)" fill="#3B71E9">
            <g id="&lt;/&gt;" transform="translate(14.478000, 31.128000)" fill-rule="nonzero">
                <polygon id="路径" points="0 31.228 0 39.072 37.444 54.242 37.444 45.288 12.432 35.15 37.444 25.012 37.444 15.836"></polygon>
                <polygon id="路径" points="57.1695952 0 40.6675952 54.686 48.7335952 54.686 65.4575952 0"></polygon>
                <polygon id="路径" points="68.4591903 45.288 68.4591903 54.242 105.90319 39.072 105.90319 31.228 68.4591903 15.836 68.4591903 25.012 93.4711903 35.15"></polygon>
            </g>
            <path d="M27,0 C27,0 107,0 107,0 C124,0 134,10 134,26 C134,36.6666667 134,55.6666667 134,83 L124,83 C124,45 124,26 124,26 C124,17 117,10 107,10 C107,10 27,10 27,10 C16,10 10,17 10,26 C10,26 10,106 10,106 C12.0102506,117.588503 15.6879222,121.410488 27,124 C27,124 49,124.333333 93,125 L93,134 C49,134.333333 27,134.333333 27,134 C10,134 0,122.5 0,106 C0,106 0,26 0,26 C0,10 10,0 27,0 Z" id="路径-2"></path>
        </g>
        <g id="查询" transform="translate(98.000000, 98.000000)">
            <circle id="椭圆形" stroke="#FFFFFF" stroke-width="3" fill="#05C8C8" cx="37.5" cy="37.5" r="36"></circle>
            <line x1="60.5" y1="58.5" x2="74.5" y2="71.5" id="直线" stroke="#05C8C8" stroke-width="10" stroke-linecap="round"></line>
            <circle id="椭圆形" fill="#FFFFFF" cx="37.5" cy="37.5" r="27.5"></circle>
            <g id="1:1" transform="translate(18.220000, 27.000000)" fill="#3B71E9" fill-rule="nonzero">
                <path d="M9.54,21 L9.54,0 L6.15,0 C6.03,0.8 5.78,1.47 5.4,2.01 C5.02,2.55 4.555,2.985 4.005,3.315 C3.455,3.645 2.835,3.875 2.145,4.005 C1.455,4.135 0.74,4.19 0,4.17 L0,7.38 L5.28,7.38 L5.28,21 L9.54,21 Z" id="路径"></path>
                <path d="M21.187185,10.38 L21.187185,5.76 L16.477185,5.76 L16.477185,10.38 L21.187185,10.38 Z M16.477185,16.38 L16.477185,21 L21.187185,21 L21.187185,16.38 L16.477185,16.38 Z" id="形状"></path>
                <path d="M34.93437,21 L34.93437,0 L31.54437,0 C31.42437,0.8 31.17437,1.47 30.79437,2.01 C30.41437,2.55 29.94937,2.985 29.39937,3.315 C28.84937,3.645 28.22937,3.875 27.53937,4.005 C26.84937,4.135 26.13437,4.19 25.39437,4.17 L25.39437,7.38 L30.67437,7.38 L30.67437,21 L34.93437,21 Z" id="路径"></path>
            </g>
        </g>
    </g>
</svg>