<?xml version="1.0" encoding="UTF-8"?>
<svg width="192px" height="192px" viewBox="0 0 192 192" version="1.1" xmlns="http://www.w3.org/2000/svg" xmlns:xlink="http://www.w3.org/1999/xlink">
    <title>DataWeaver.SubDataFlow	子数据流</title>
    <g id="DataWeaver.SubDataFlow-子数据流" stroke="none" stroke-width="1" fill="none" fill-rule="evenodd">
        <g id="子数据流备份" transform="translate(12.457363, 19.689741)">
            <g id="数据流" transform="translate(75.271319, 80.655129) scale(1, -1) translate(-75.271319, -80.655129) " fill-rule="nonzero">
                <path d="M28.0769556,85.5045739 C12.0215422,82.2746602 -0.0297366657,67.9929936 0.125763707,51.0262181 C0.281264079,31.958053 15.714676,16.586777 34.7245966,16.4311185 L35.307723,16.4311185 L73.9106904,16.7424355 L67.4574249,9.93237652 C65.3581699,7.71424302 65.4359201,4.21192697 67.5740502,2.07162272 L67.6906755,1.95487886 C69.9065558,-0.146510771 73.4053142,-0.0686815258 75.5434443,2.07162272 L75.6600696,2.18836659 L91.1712317,18.6103374 C93.1149864,20.6728124 93.2316117,23.8248968 91.4433574,26.0041157 L91.3656072,26.1208596 L75.5434443,44.6831346 C73.5219395,47.0569266 69.984306,47.329329 67.6129253,45.3057686 C65.2804197,43.3211228 64.969419,39.8577214 66.8742985,37.4839294 L66.9520487,37.3671855 L74.9214428,27.9887615 L35.1522226,27.6774445 C22.0901913,27.5607006 11.4384158,38.0676488 11.3217905,51.1040474 C11.2051652,64.0237021 21.5070649,74.6084795 34.3747207,74.9197965 L34.7634717,74.9197965 L114.496288,75.5813451 L115.079414,75.5813451 C134.089335,76.0483205 149.250621,91.6919989 149.09512,110.760164 C148.93962,130.022902 133.195207,145.510922 113.913161,145.356427 L54.9785201,144.888288 C55.0426373,145 55.0426373,133.5 55.0562702,133.603048 L113.990911,134.070023 L114.379662,134.070023 C127.247318,133.953279 137.704718,123.563075 137.821343,110.64342 C137.937969,97.6070215 127.441694,86.9444149 114.379662,86.827671" id="路径" fill="#3B71E9"></path>
                <path d="M22.401192,161.310259 C21.9346909,161.310259 21.4681898,161.310259 21.0016887,161.271344 C15.0537995,160.921113 9.57241133,158.236004 5.60715183,153.760822 C1.64189234,149.285641 -0.34073741,143.526276 0.0480135204,137.533424 C0.397889358,131.579487 3.08027078,126.092525 7.55090649,122.123234 C12.0215422,118.153942 17.775056,116.169297 23.7618203,116.558443 C29.7097096,116.947589 35.1910977,119.593783 39.1563572,124.068965 C43.1216167,128.544147 45.1042464,134.303511 44.7154955,140.296363 C44.3267446,146.2503 41.6832382,151.737262 37.2126025,155.706553 C33.0529676,159.325613 27.8437051,161.310259 22.401192,161.310259 L22.401192,161.310259 Z M22.3234419,125.314233 C19.0190589,125.314233 15.8701764,126.520586 13.3821705,128.699805 C10.6609139,131.112512 9.06703512,134.420255 8.83378456,138.039315 C8.600534,141.658374 9.80566189,145.160691 12.2159177,147.845799 C14.6261734,150.569823 17.9305563,152.165323 21.54594,152.39881 C25.1613237,152.632298 28.660082,151.425945 31.3424635,149.013238 C34.06372,146.600532 35.6575988,143.292789 35.8908494,139.673729 C36.1240999,136.054669 34.918972,132.552353 32.5087163,129.867244 C30.0984605,127.14322 26.7940776,125.547721 23.1786939,125.314233 C22.9065683,125.353148 22.6344426,125.314233 22.3234419,125.314233 Z" id="形状" fill="#3B71E9"></path>
                <path d="M143.143815,32.3524888 C146.689327,26.9988873 147.112305,20.1585237 144.253416,14.4080967 C141.394527,8.65766963 135.688105,4.8708059 129.283703,4.47398038 C119.383356,3.86054127 110.860754,11.3972286 110.247938,21.3076428 C109.635122,31.2180569 117.164153,39.7493256 127.0645,40.3627647 C133.468902,40.7595902 139.598302,37.7060903 143.143815,32.3524888 Z" id="路径"></path>
                <path d="M128.18032,44.7998785 C127.713819,44.7998785 127.247318,44.7998785 126.780817,44.7609639 C120.832928,44.4107323 115.35154,41.7256233 111.38628,37.2504417 C107.421021,32.7752601 105.438391,27.0158959 105.827142,21.023044 C106.177018,15.0691067 108.859399,9.58214491 113.330035,5.61285339 C117.80067,1.64356187 123.554184,-0.341083885 129.540949,0.0480623424 C135.488838,0.43720857 140.970226,3.08340292 144.935485,7.55858453 C148.900745,12.0337661 150.883375,17.7931303 150.494624,23.7859822 C150.105873,29.7399195 147.462367,35.2268813 142.991731,39.1961728 C138.832096,42.8541473 133.622833,44.7998785 128.18032,44.7998785 Z M128.141445,8.84276708 C124.837062,8.84276708 121.68818,10.0491204 119.200174,12.2283393 C116.478917,14.6410459 114.885039,17.9487888 114.651788,21.5678487 C114.418537,25.1869086 115.623665,28.6892247 118.033921,31.3743336 C120.444177,34.0983572 123.74856,35.6938568 127.363943,35.9273445 C130.979327,36.1608322 134.478085,34.9544789 137.160467,32.5417723 C139.881723,30.1290657 141.475602,26.8213228 141.708853,23.2022629 C141.942103,19.583203 140.736975,16.0808869 138.32672,13.3957779 C135.916464,10.6717543 132.612081,9.07625482 128.996697,8.84276708 L128.141445,8.84276708 Z" id="形状" fill="#3B71E9"></path>
            </g>
            <g id="子" transform="translate(93.542637, 10.310259)">
                <circle id="椭圆形" stroke="#FFFFFF" stroke-width="3" fill="#3B71E9" cx="37.5" cy="37.5" r="36"></circle>
                <g id="sub" transform="translate(13.782000, 23.724000)" fill="#FFFFFF" fill-rule="nonzero">
                    <path d="M4.216,18.292 L0,18.292 L0,18.938 C0,19.822 0.102,20.621 0.306,21.335 C0.51,22.049 0.867,22.6553333 1.377,23.154 C1.887,23.6526667 2.57833333,24.0266667 3.451,24.276 C4.32366667,24.5253333 5.41733333,24.65 6.732,24.65 C7.72933333,24.65 8.64166667,24.548 9.469,24.344 C10.2963333,24.14 11.0103333,23.8 11.611,23.324 C12.2116667,22.848 12.682,22.253 13.022,21.539 C13.362,20.825 13.532,19.9806667 13.532,19.006 C13.532,17.6233333 13.226,16.5296667 12.614,15.725 C12.002,14.9203333 10.9593333,14.2686667 9.486,13.77 L6.664,12.818 C5.87066667,12.5686667 5.33233333,12.2626667 5.049,11.9 C4.76566667,11.5373333 4.624,11.1293333 4.624,10.676 C4.624,10.0186667 4.845,9.52566667 5.287,9.197 C5.729,8.86833333 6.24466667,8.704 6.834,8.704 C7.60466667,8.704 8.143,8.925 8.449,9.367 C8.755,9.809 8.908,10.506 8.908,11.458 L13.124,11.458 L13.124,10.71 C13.124,9.05533333 12.614,7.77466667 11.594,6.868 C10.574,5.96133333 8.99866667,5.508 6.868,5.508 C5.66666667,5.508 4.641,5.65533333 3.791,5.95 C2.941,6.24466667 2.244,6.64133333 1.7,7.14 C1.156,7.63866667 0.759333333,8.22233333 0.51,8.891 C0.260666667,9.55966667 0.136,10.268 0.136,11.016 C0.136,12.308 0.464666667,13.3676667 1.122,14.195 C1.77933333,15.0223333 2.754,15.6626667 4.046,16.116 L7.344,17.306 C7.79733333,17.4873333 8.194,17.731 8.534,18.037 C8.874,18.343 9.044,18.7906667 9.044,19.38 C9.044,20.1053333 8.82866667,20.6493333 8.398,21.012 C7.96733333,21.3746667 7.38933333,21.556 6.664,21.556 C5.87066667,21.556 5.26433333,21.3123333 4.845,20.825 C4.42566667,20.3376667 4.216,19.6973333 4.216,18.904 L4.216,18.292 Z" id="路径"></path>
                    <path d="M25.474143,22.134 L25.474143,24.276 L29.962143,24.276 L29.962143,5.984 L25.270143,5.984 L25.270143,18.122 C25.270143,20.1393333 24.4428097,21.148 22.788143,21.148 C22.0854763,21.148 21.5754763,20.961 21.258143,20.587 C20.9408097,20.213 20.782143,19.55 20.782143,18.598 L20.782143,5.984 L16.090143,5.984 L16.090143,19.55 C16.090143,21.386 16.4924763,22.695 17.297143,23.477 C18.1018097,24.259 19.252143,24.65 20.748143,24.65 C21.768143,24.65 22.6748097,24.4573333 23.468143,24.072 C24.2614763,23.6866667 24.9074763,23.0406667 25.406143,22.134 L25.474143,22.134 Z" id="路径"></path>
                    <path d="M33.302286,0 L33.302286,24.276 L37.790286,24.276 L37.790286,22.338 L37.858286,22.338 C38.3796193,23.1993333 38.963286,23.8 39.609286,24.14 C40.255286,24.48 41.054286,24.65 42.006286,24.65 C43.9329527,24.65 45.3496193,23.9133333 46.256286,22.44 C47.1629527,20.9666667 47.616286,18.53 47.616286,15.13 C47.616286,11.73 47.1629527,9.27633333 46.256286,7.769 C45.3496193,6.26166667 43.9329527,5.508 42.006286,5.508 C41.122286,5.508 40.3686193,5.68933333 39.745286,6.052 C39.1219527,6.41466667 38.5609527,6.95866667 38.062286,7.684 L37.994286,7.684 L37.994286,0 L33.302286,0 Z M37.994286,15.13 C37.994286,13.1353333 38.147286,11.6336667 38.453286,10.625 C38.759286,9.61633333 39.4336193,9.112 40.476286,9.112 C41.496286,9.112 42.159286,9.61633333 42.465286,10.625 C42.771286,11.6336667 42.924286,13.1353333 42.924286,15.13 C42.924286,17.1246667 42.771286,18.6263333 42.465286,19.635 C42.159286,20.6436667 41.496286,21.148 40.476286,21.148 C39.4336193,21.148 38.759286,20.6436667 38.453286,19.635 C38.147286,18.6263333 37.994286,17.1246667 37.994286,15.13 Z" id="形状"></path>
                </g>
            </g>
        </g>
    </g>
</svg>