<?xml version="1.0" encoding="UTF-8"?>
<svg width="192px" height="192px" viewBox="0 0 192 192" version="1.1" xmlns="http://www.w3.org/2000/svg" xmlns:xlink="http://www.w3.org/1999/xlink">
    <title>DataLoad.MessagePublish	MQ发布</title>
    <g id="DataLoad.MessagePublish-MQ发布" stroke="none" stroke-width="1" fill="none" fill-rule="evenodd">
        <path d="M155.292611,41.7079251 C155.171295,40.7988706 154.887974,39.9191974 154.456216,39.1110334 L154,38.5 C153.579989,37.8438942 153.067789,37.2522053 152.479281,36.7432791 C151.579558,35.827266 150.488899,35.1229629 149.285772,34.6810415 L148.601449,34.6810415 C147.869183,34.5907402 147.128672,34.5907402 146.396407,34.6810415 L145.483975,34.6810415 C144.562901,34.7958375 143.665136,35.0534997 142.822718,35.4448332 L39.714478,89.9008992 C36.8622397,91.077817 34.4700479,92.8594187 34.4700479,95.9568389 C34.4700479,99.0542591 36.3322876,101.844994 39.1845259,103.021912 L55,111.5 C55.9900912,112.035991 60.4608543,112.03096 62,110 C63.7596402,107.678089 62.5083347,103.234439 62,103 L52,96 L128.75,55.75 L82.4008983,109.958975 C81.1784099,111.351399 80.5026596,113.143433 80.5,115 L80.5,147.919422 C80.5,152.665015 81.7903274,157 86.5145947,157 C91.2388619,157 93.25,152.666765 93.25,147.921172 L92,122.75 L125.25,141.75 C127.764649,143.004902 135.485351,146.004902 138,144.75 C140.521063,143.6559 142.782234,139.968371 143.25,137.25 L155.292611,43.8465419 C155.343429,43.3386268 155.343429,42.8268736 155.292611,42.3189585 L155.292611,41.7079251 Z M133.25,132.25 L96,112.25 L142,57 L133.25,132.25 Z" id="形状" fill="#3B71E9" fill-rule="nonzero"></path>
    </g>
</svg>