<?xml version="1.0" encoding="UTF-8"?>
<svg width="192px" height="192px" viewBox="0 0 192 192" version="1.1" xmlns="http://www.w3.org/2000/svg" xmlns:xlink="http://www.w3.org/1999/xlink">
    <title>DataWeaver.DataCompare	数据比较</title>
    <g id="DataWeaver.DataCompare-数据比较" stroke="none" stroke-width="1" fill="none" fill-rule="evenodd">
        <path d="M42.7921018,145.64301 C44.364404,145.661875 45.8778208,145.045607 46.9896864,143.933741 C48.101552,142.821876 48.7178199,141.308459 48.6989555,139.736157 C48.7150751,138.167313 48.098973,136.658027 46.9895743,135.548628 C45.8801757,134.43923 44.3708897,133.823128 42.802046,133.839247 C41.2314879,133.820434 39.7196184,134.435346 38.6080512,135.545042 C37.4964839,136.654738 36.8790252,138.165569 36.8951924,139.736157 C36.8951924,143.047575 39.4906281,145.64301 42.802046,145.64301 L42.7921018,145.64301 Z M41.0816998,139.736157 C41.1224487,138.805108 41.8707767,138.061106 42.802046,138.025755 C43.7294353,138.066132 44.4720704,138.808767 44.5124482,139.736157 C44.4770974,140.667426 43.7330948,141.415754 42.802046,141.456503 C41.8671131,141.4208 41.1174033,140.67109 41.0816998,139.736157 L41.0816998,139.736157 Z M42.802046,45.1270568 C41.2314879,45.1082433 39.7196184,45.7231556 38.6080512,46.8328515 C37.4964839,47.9425474 36.8790252,49.4533786 36.8951924,51.0239662 C36.8951924,54.32544 39.4906281,56.9208756 42.802046,56.9208756 C44.3708897,56.9369952 45.8801757,56.3208931 46.9895743,55.2114945 C48.098973,54.1020959 48.7150751,52.5928099 48.6989555,51.0239662 C48.7150751,49.4551225 48.098973,47.9458365 46.9895743,46.8364379 C45.8801757,45.7270393 44.3708897,45.1109373 42.802046,45.1270568 L42.802046,45.1270568 Z M44.5124482,51.0239662 C44.4720704,51.9513555 43.7294353,52.6939905 42.802046,52.7343682 C41.8707767,52.6990174 41.1224487,51.9550149 41.0816998,51.0239662 C41.1224486,50.0929175 41.8707767,49.3489149 42.802046,49.3135641 C43.7294354,49.3539418 44.4720705,50.0965769 44.5124482,51.0239662 L44.5124482,51.0239662 Z M42.802046,88.782086 C41.2314879,88.7632725 39.7196184,89.3781848 38.6080511,90.4878807 C37.4964839,91.5975767 36.8790251,93.1084079 36.8951924,94.6789956 C36.8951924,97.9804694 39.4906281,100.575905 42.802046,100.575905 C44.3708897,100.592025 45.8801757,99.9759224 46.9895743,98.8665239 C48.098973,97.7571253 48.7150751,96.2478393 48.6989555,94.6789956 C48.7150751,93.1101518 48.098973,91.6008658 46.9895744,90.4914672 C45.8801758,89.3820686 44.3708898,88.7659665 42.802046,88.782086 L42.802046,88.782086 Z M44.5124482,94.6789956 C44.4720704,95.6063849 43.7294353,96.3490199 42.802046,96.3893976 C41.8707767,96.3540468 41.1224487,95.6100443 41.0816998,94.6789956 C41.1174033,93.7440626 41.8671131,92.9943527 42.802046,92.9586492 C43.7330948,92.999398 44.4770974,93.7477262 44.5124482,94.6789956 L44.5124482,94.6789956 Z" id="形状" fill="#00CCFE" fill-rule="nonzero"></path>
        <path d="M30.8391758,25 C24.872657,25 20,29.8627128 20,35.8391758 L20,153.160824 C20,159.137287 24.872657,164 30.8391758,164 L112,164 L112,157 L112,118.5 L159,118.5 L159,35.8391758 C159,29.8606226 154.159256,25.0109698 148.180712,25 L30.8391758,25 Z M27.7365861,118.61468 L112,118.5 L112,156.5 L33.2456718,156.720847 C30.1975958,156.720847 27.7266419,154.249893 27.7266419,151.201817 L27.7266419,118.624624 L27.7365861,118.61468 Z M27.7365861,111.433586 L27.7365861,75.9142938 L151.283302,75.9142938 L151.283302,111.464294 L27.7365861,111.464294 L27.7365861,111.443822 L27.7365861,111.433586 Z M151.283302,67.7202747 L27.7365861,67.7202747 L27.7365861,37.2313635 C27.7365861,34.5066533 29.944198,32.2990413 32.6689083,32.2990413 L145.774217,32.2990413 C148.817141,32.2990413 151.283302,34.7751466 151.283302,37.8180713 L151.283302,67.7202747 Z" id="形状" fill="#3B71E9" fill-rule="nonzero"></path>
        <polygon id="路径" fill="#00CCFE" fill-rule="nonzero" points="121.467787 172.227273 137.871148 172.227273 137.871148 177.808081 116 177.808081 116 127.580808 137.871148 127.580808 137.871148 133.161616 121.467787 133.161616"></polygon>
        <polygon id="路径" fill="#05C8C8" fill-rule="nonzero" points="151.540616 172.227273 157.008403 172.227273 157.008403 177.808081 151.540616 177.808081"></polygon>
        <polygon id="路径" fill="#05C8C8" fill-rule="nonzero" points="159.742297 172.227273 165.210084 172.227273 165.210084 177.808081 159.742297 177.808081"></polygon>
        <polygon id="路径" fill="#05C8C8" fill-rule="nonzero" points="167.943978 177.808081 167.943978 172.227273 173.411765 172.227273 173.411765 177.808081"></polygon>
        <polygon id="路径" fill="#05C8C8" fill-rule="nonzero" points="167.943978 158.275253 167.943978 152.694444 173.411765 152.694444 173.411765 158.275253"></polygon>
        <polygon id="路径" fill="#05C8C8" fill-rule="nonzero" points="167.943978 166.646465 167.943978 161.065657 173.411765 161.065657 173.411765 166.646465"></polygon>
        <polygon id="路径" fill="#05C8C8" fill-rule="nonzero" points="167.943978 149.90404 167.943978 144.323232 173.411765 144.323232 173.411765 149.90404"></polygon>
        <polygon id="路径" fill="#05C8C8" fill-rule="nonzero" points="167.943978 141.532828 167.943978 135.95202 173.411765 135.95202 173.411765 141.532828"></polygon>
        <polygon id="路径" fill="#05C8C8" fill-rule="nonzero" points="167.943978 127.580808 173.411765 127.580808 173.411765 133.161616 167.943978 133.161616"></polygon>
        <polygon id="路径" fill="#05C8C8" fill-rule="nonzero" points="159.742297 133.161616 159.742297 127.580808 165.210084 127.580808 165.210084 133.161616"></polygon>
        <polygon id="路径" fill="#05C8C8" fill-rule="nonzero" points="151.540616 133.161616 151.540616 127.580808 157.008403 127.580808 157.008403 133.161616"></polygon>
        <polygon id="路径" fill="#3B71E9" fill-rule="nonzero" points="143.338936 122 148.806723 122 148.806723 183.388889 143.338936 183.388889"></polygon>
    </g>
</svg>