<?xml version="1.0" encoding="UTF-8"?>
<svg width="192px" height="192px" viewBox="0 0 192 192" version="1.1" xmlns="http://www.w3.org/2000/svg" xmlns:xlink="http://www.w3.org/1999/xlink">
    <title>DataModel.Query	SQL视图</title>
    <g id="DataModel.Query-SQL视图" stroke="none" stroke-width="1" fill="none" fill-rule="evenodd">
        <g id="SQL视图" transform="translate(26.000000, 23.000000)" fill-rule="nonzero">
            <g id="查找" fill="#3B71E9">
                <path d="M64.84375,129.53125 C29.0625,129.53125 0,100.46875 0,64.6875 C0,29.0625 29.0625,0 64.84375,0 C100.625,0 129.6875,29.0625 129.6875,64.84375 C129.6875,100.46875 100.625,129.53125 64.84375,129.53125 Z M64.84375,9.375 C34.21875,9.375 9.375,34.21875 9.375,64.6875 C9.375,95.3125 34.21875,120.15625 64.84375,120.15625 C95.46875,120.15625 120.3125,95.3125 120.3125,64.84375 C120.3125,34.21875 95.46875,9.375 64.84375,9.375 Z" id="形状"></path>
                <path d="M134.6875,146.875 C133.4375,146.875 132.34375,146.40625 131.40625,145.46875 L100,114.0625 C98.125,112.1875 98.125,109.21875 100,107.5 C101.875,105.625 104.84375,105.625 106.5625,107.5 L137.96875,138.90625 C139.84375,140.78125 139.84375,143.75 137.96875,145.46875 C137.03125,146.40625 135.9375,146.875 134.6875,146.875 L134.6875,146.875 Z" id="路径"></path>
            </g>
            <g id="SQL" transform="translate(18.150154, 47.912000)">
                <path d="M7.29784615,23.712 L0.00184615385,23.712 C-0.0301538462,25.824 0.353846154,27.648 1.15384615,29.184 C1.95384615,30.72 3.03384615,31.984 4.39384615,32.976 C5.75384615,33.968 7.32184615,34.696 9.09784615,35.16 C10.8738462,35.624 12.7058462,35.856 14.5938462,35.856 C16.9298462,35.856 18.9858462,35.584 20.7618462,35.04 C22.5378462,34.496 24.0258462,33.736 25.2258462,32.76 C26.4258462,31.784 27.3298462,30.624 27.9378462,29.28 C28.5458462,27.936 28.8498462,26.48 28.8498462,24.912 C28.8498462,22.992 28.4418462,21.416 27.6258462,20.184 C26.8098462,18.952 25.8418462,17.968 24.7218462,17.232 C23.6018462,16.496 22.4738462,15.96 21.3378462,15.624 C20.2018462,15.288 19.3138462,15.056 18.6738462,14.928 C16.5298462,14.384 14.7938462,13.936 13.4658462,13.584 C12.1378462,13.232 11.0978462,12.88 10.3458462,12.528 C9.59384615,12.176 9.08984615,11.792 8.83384615,11.376 C8.57784615,10.96 8.44984615,10.416 8.44984615,9.744 C8.44984615,9.008 8.60984615,8.4 8.92984615,7.92 C9.24984615,7.44 9.65784615,7.04 10.1538462,6.72 C10.6498462,6.4 11.2018462,6.176 11.8098462,6.048 C12.4178462,5.92 13.0258462,5.856 13.6338462,5.856 C14.5618462,5.856 15.4178462,5.936 16.2018462,6.096 C16.9858462,6.256 17.6818462,6.528 18.2898462,6.912 C18.8978462,7.296 19.3858462,7.824 19.7538462,8.496 C20.1218462,9.168 20.3378462,10.016 20.4018462,11.04 L27.6978462,11.04 C27.6978462,9.056 27.3218462,7.368 26.5698462,5.976 C25.8178462,4.584 24.8018462,3.44 23.5218462,2.544 C22.2418462,1.648 20.7778462,1 19.1298462,0.6 C17.4818462,0.2 15.7618462,0 13.9698462,0 C12.4338462,0 10.8978462,0.208 9.36184615,0.624 C7.82584615,1.04 6.44984615,1.68 5.23384615,2.544 C4.01784615,3.408 3.03384615,4.488 2.28184615,5.784 C1.52984615,7.08 1.15384615,8.608 1.15384615,10.368 C1.15384615,11.936 1.44984615,13.272 2.04184615,14.376 C2.63384615,15.48 3.40984615,16.4 4.36984615,17.136 C5.32984615,17.872 6.41784615,18.472 7.63384615,18.936 C8.84984615,19.4 10.0978462,19.792 11.3778462,20.112 C12.6258462,20.464 13.8578462,20.784 15.0738462,21.072 C16.2898462,21.36 17.3778462,21.696 18.3378462,22.08 C19.2978462,22.464 20.0738462,22.944 20.6658462,23.52 C21.2578462,24.096 21.5538462,24.848 21.5538462,25.776 C21.5538462,26.64 21.3298462,27.352 20.8818462,27.912 C20.4338462,28.472 19.8738462,28.912 19.2018462,29.232 C18.5298462,29.552 17.8098462,29.768 17.0418462,29.88 C16.2738462,29.992 15.5538462,30.048 14.8818462,30.048 C13.8898462,30.048 12.9298462,29.928 12.0018462,29.688 C11.0738462,29.448 10.2658462,29.08 9.57784615,28.584 C8.88984615,28.088 8.33784615,27.44 7.92184615,26.64 C7.50584615,25.84 7.29784615,24.864 7.29784615,23.712 Z" id="路径" fill="#00CCFE"></path>
                <path d="M56.1733422,25.968 C56.8133422,25.104 57.3253422,24.032 57.7093422,22.752 C58.0933422,21.472 58.2853422,19.92 58.2853422,18.096 C58.2853422,16.592 58.1173422,15.136 57.7813422,13.728 C57.4453422,12.32 56.9093422,11.064 56.1733422,9.96 C55.4373422,8.856 54.4773422,7.976 53.2933422,7.32 C52.1093422,6.664 50.6693422,6.336 48.9733422,6.336 C47.2773422,6.336 45.8373422,6.664 44.6533422,7.32 C43.4693422,7.976 42.5093422,8.856 41.7733422,9.96 C41.0373422,11.064 40.5013422,12.32 40.1653422,13.728 C39.8293422,15.136 39.6613422,16.592 39.6613422,18.096 C39.6613422,19.536 39.8293422,20.936 40.1653422,22.296 C40.5013422,23.656 41.0373422,24.88 41.7733422,25.968 C42.5093422,27.056 43.4693422,27.928 44.6533422,28.584 C45.8373422,29.24 47.2773422,29.568 48.9733422,29.568 C49.7733422,29.568 50.3813422,29.536 50.7973422,29.472 C51.2133422,29.408 51.6133422,29.28 51.9973422,29.088 L48.7813422,26.16 L52.2853422,22.416 L56.1733422,25.968 Z M57.2773422,33.888 C55.0053422,35.2 52.2373422,35.856 48.9733422,35.856 C46.3493422,35.856 43.9893422,35.4 41.8933422,34.488 C39.7973422,33.576 38.0293422,32.32 36.5893422,30.72 C35.1493422,29.12 34.0453422,27.24 33.2773422,25.08 C32.5093422,22.92 32.1253422,20.592 32.1253422,18.096 C32.1253422,15.536 32.5093422,13.16 33.2773422,10.968 C34.0453422,8.776 35.1493422,6.864 36.5893422,5.232 C38.0293422,3.6 39.7973422,2.32 41.8933422,1.392 C43.9893422,0.464 46.3493422,0 48.9733422,0 C51.6293422,0 53.9973422,0.464 56.0773422,1.392 C58.1573422,2.32 59.9173422,3.6 61.3573422,5.232 C62.7973422,6.864 63.9013422,8.776 64.6693422,10.968 C65.4373422,13.16 65.8213422,15.536 65.8213422,18.096 C65.8213422,20.592 65.4373422,22.912 64.6693422,25.056 C63.9013422,27.2 62.7973422,29.088 61.3573422,30.72 L65.6293422,34.608 L62.1253422,38.256 L57.2773422,33.888 Z" id="形状" fill="#05C8C8"></path>
                <polygon id="路径" fill="#00CCFE" points="71.2568382 0.816 71.2568382 35.088 95.4968382 35.088 95.4968382 28.752 78.7928382 28.752 78.7928382 0.816"></polygon>
            </g>
        </g>
    </g>
</svg>