<?xml version="1.0" encoding="UTF-8"?>
<svg width="192px" height="192px" viewBox="0 0 192 192" version="1.1" xmlns="http://www.w3.org/2000/svg" xmlns:xlink="http://www.w3.org/1999/xlink">
    <title>DataLoad.ScriptLoad	脚本加载</title>
    <g id="DataLoad.ScriptLoad-脚本加载" stroke="none" stroke-width="1" fill="none" fill-rule="evenodd">
        <g id="脚本加载" transform="translate(25.000000, 27.000000)">
            <g id="脚本" fill="#3B71E9">
                <g id="&lt;/&gt;" transform="translate(12.478000, 30.128000)" fill-rule="nonzero">
                    <polygon id="路径" points="0 31.228 0 39.072 37.444 54.242 37.444 45.288 12.432 35.15 37.444 25.012 37.444 15.836"></polygon>
                    <polygon id="路径" points="57.1695952 0 40.6675952 54.686 48.7335952 54.686 65.4575952 0"></polygon>
                    <polygon id="路径" points="68.4591903 45.288 68.4591903 54.242 105.90319 39.072 105.90319 31.228 68.4591903 15.836 68.4591903 25.012 93.4711903 35.15"></polygon>
                </g>
                <path d="M27,0 C27,0 107,0 107,0 C124,0 134,10 134,26 C134,36.6666667 134,55.6666667 134,83 L124,83 C124,45 124,26 124,26 C124,17 117,10 107,10 C107,10 27,10 27,10 C16,10 10,17 10,26 C10,26 10,106 10,106 C12.0102506,117.588503 15.6879222,121.410488 27,124 C27,124 49,124.333333 93,125 L93,134 C49,134.333333 27,134.333333 27,134 C10,134 0,122.5 0,106 C0,106 0,26 0,26 C0,10 10,0 27,0 Z" id="路径-2"></path>
            </g>
            <g id="加载" transform="translate(72.000000, 73.000000)">
                <circle id="椭圆形" stroke="#FFFFFF" stroke-width="3" fill="#00CCFE" cx="37.5" cy="37.5" r="36"></circle>
                <circle id="椭圆形" fill="#FFFFFF" cx="37.5" cy="37.5" r="27.5"></circle>
                <g id="漏斗" transform="translate(23.000000, 16.000000)" fill="#05C8C8" fill-rule="nonzero">
                    <path d="M2.04983587e-05,3.81839999 C2.04983587e-05,1.70880001 1.68003684,0 3.75003146,0 L26.2499733,0 C28.321168,0 29.9999819,1.70880001 29.9999819,3.81839999 L29.9999819,7.94159999 C29.9999819,10.7292 28.8047667,13.3776 26.7263721,15.1896 L20.0699893,21 L26.7263721,26.8092 C28.8119916,28.6398788 30.0053621,31.2820987 29.9999819,34.0572 L29.9999819,38.1816 C29.9999819,40.29 28.319968,42 26.2499733,42 L3.75003146,42 C2.75169875,41.9985357 1.79593606,41.5954709 1.09803832,40.8816 C0.392628848,40.1600864 -0.00160710605,39.1906512 2.04983587e-05,38.1816 L2.04983587e-05,34.0584 C2.04983587e-05,31.272 1.19643805,28.6248 3.27363271,26.8104 L9.93001549,21 L3.27363271,15.1908 C1.18769756,13.3598454 -0.00570373127,10.7171197 2.04983587e-05,7.94159999 L2.04983587e-05,3.81839999 Z M26.2499837,3.81839999 L3.75002321,3.81839999 L3.75002321,7.94159999 C3.74721885,9.60687515 4.46377158,11.1922194 5.71562638,12.2904 L12.3708092,18.0996 C13.2054652,18.8316566 13.6831857,19.8885941 13.6812058,20.9988 C13.6812058,22.1136 13.2024071,23.172 12.3708092,23.898 L5.71562638,29.7096 C4.46377158,30.8077806 3.74721885,32.3931249 3.75002321,34.0584 L3.75002321,38.1816 L26.2499837,38.1816 L26.2499837,34.0584 C26.2527859,32.3931249 25.5362332,30.8077806 24.2843784,29.7096 L17.6291956,23.898 C16.7945396,23.1659434 16.3168191,22.1090059 16.318799,20.9988 C16.318799,19.884 16.7975977,18.8256 17.6291956,18.0996 L24.2843784,12.2916 C25.5365488,11.1931436 26.2531324,9.60729359 26.2499837,7.94159999 L26.2499837,3.81839999 L26.2499837,3.81839999 Z" id="形状"></path>
                    <path d="M15.4000039,10.1999105 C15.9360151,10.1999105 16.4479663,10.4224554 16.8136003,10.8144 L20.81439,15.0144 C21.3855885,15.6156 21.557188,16.5192 21.2475889,17.3028 C20.9379896,18.0876 20.2095916,18.5988 19.3995936,18.5988 L11.3992143,18.5988 C10.5904164,18.5988 9.86201827,18.0876 9.55121908,17.3028 C9.24140314,16.5201689 9.41055962,15.6290577 9.98561792,15.0144 L13.9864076,10.8144 C14.3520416,10.4224554 14.8639927,10.1999105 15.4000039,10.1999105 Z" id="路径" transform="translate(15.399085, 14.399355) scale(1, -1) translate(-15.399085, -14.399355) "></path>
                </g>
            </g>
        </g>
    </g>
</svg>