<?xml version="1.0" encoding="UTF-8"?>
<svg width="192px" height="192px" viewBox="0 0 192 192" version="1.1" xmlns="http://www.w3.org/2000/svg" xmlns:xlink="http://www.w3.org/1999/xlink">
    <title>DataModel.Struct	数据结构</title>
    <g id="DataModel.Struct-数据结构" stroke="none" stroke-width="1" fill="none" fill-rule="evenodd">
        <g id="结构" transform="translate(15.976973, 17.979689)">
            <path d="M133.523027,21.6455082 C143.023027,21.6455082 151.766526,28.4234073 151.766526,39.051202 C151.766526,50.051202 143.023027,57.385437 133.523027,57.385437 C129.604822,57.385437 124.90406,56.361214 122.331949,53.9116182 C122.331949,53.9116182 117.840504,57.3033214 108.857615,64.0867277 L104.141296,57.385437 C112.906073,50.4787997 117.288462,47.0254811 117.288462,47.0254811 C115.11324,42.3562473 115.11324,36.3355503 117.288462,32.1598687 C119.463684,27.9841871 124.535408,21.6455082 133.523027,21.6455082 Z M134.141296,28.6455082 C128.034041,28.6455082 123.141296,33.5905095 123.141296,39.6914846 C123.141296,43.1194011 124.867728,46.4042282 127.320977,48.4047674 C129.233999,49.96477 131.530593,50.6455082 134.175997,50.6455082 C140.213851,50.6455082 145.141296,45.7924598 145.141296,39.6914846 C145.141296,33.5905095 140.248552,28.6455082 134.141296,28.6455082 Z" id="形状结合" stroke="#05C8C8" stroke-width="2" fill="#05C8C8"></path>
            <path d="M39.417173,61.0203109 C49.5903523,61.0203109 58.9534238,68.3665503 58.9534238,79.8855067 C58.9534238,91.8078785 49.5903523,99.7571036 39.417173,99.7571036 C35.2213203,99.7571036 30.1874574,98.6469975 27.4330838,95.9919982 C27.4330838,95.9919982 22.6233711,99.6681025 13.0039456,107.020311 L7.9534238,99.7571036 C17.3392815,92.2713311 22.0322104,88.5284449 22.0322104,88.5284449 C19.7028499,83.4676866 19.7028499,76.9421422 22.0322104,72.4163214 C24.3615709,67.8905006 29.7926827,61.0203109 39.417173,61.0203109 Z M40.0792532,68.6072748 C33.5392316,68.6072748 28.2997825,73.9669243 28.2997825,80.5794783 C28.2997825,84.2948324 30.1485506,87.8550987 32.7756395,90.0233871 C34.8242199,91.714199 37.2835532,92.4520184 40.1164125,92.4520184 C46.5821157,92.4520184 51.858724,87.1920323 51.858724,80.5794783 C51.858724,73.9669243 46.6192749,68.6072748 40.0792532,68.6072748 Z" id="形状结合" stroke="#00CCFE" stroke-width="2.16" fill="#00CCFE" transform="translate(33.453424, 84.020311) scale(-1, -1) rotate(29.000000) translate(-33.453424, -84.020311) "></path>
            <path d="M68.417173,7.0203109 C78.5903523,7.0203109 87.9534238,14.3665503 87.9534238,25.8855067 C87.9534238,37.8078785 78.5903523,45.7571036 68.417173,45.7571036 C64.2213203,45.7571036 59.1874574,44.6469975 56.4330838,41.9919982 C56.4330838,41.9919982 51.6233711,45.6681025 42.0039456,53.0203109 L36.9534238,45.7571036 C46.3392815,38.2713311 51.0322104,34.5284449 51.0322104,34.5284449 C48.7028499,29.4676866 48.7028499,22.9421422 51.0322104,18.4163214 C53.3615709,13.8905006 58.7926827,7.0203109 68.417173,7.0203109 Z M69.0792532,14.6072748 C62.5392316,14.6072748 57.2997825,19.9669243 57.2997825,26.5794783 C57.2997825,30.2948324 59.1485506,33.8550987 61.7756395,36.0233871 C63.8242199,37.714199 66.2835532,38.4520184 69.1164125,38.4520184 C75.5821157,38.4520184 80.858724,33.1920323 80.858724,26.5794783 C80.858724,19.9669243 75.6192749,14.6072748 69.0792532,14.6072748 Z" id="形状结合备份" stroke="#3B71E9" stroke-width="2.16" fill="#3B71E9" transform="translate(62.453424, 30.020311) scale(-1, -1) rotate(103.000000) translate(-62.453424, -30.020311) "></path>
            <path d="M128.417173,87.0203109 C138.590352,87.0203109 147.953424,94.3665503 147.953424,105.885507 C147.953424,117.807879 138.590352,125.757104 128.417173,125.757104 C124.22132,125.757104 119.187457,124.646998 116.433084,121.991998 C116.433084,121.991998 111.623371,125.668102 102.003946,133.020311 L96.9534238,125.757104 C106.339282,118.271331 111.03221,114.528445 111.03221,114.528445 C108.70285,109.467687 108.70285,102.942142 111.03221,98.4163214 C113.361571,93.8905006 118.792683,87.0203109 128.417173,87.0203109 Z M129.079253,94.6072748 C122.539232,94.6072748 117.299782,99.9669243 117.299782,106.579478 C117.299782,110.294832 119.148551,113.855099 121.775639,116.023387 C123.82422,117.714199 126.283553,118.452018 129.116412,118.452018 C135.582116,118.452018 140.858724,113.192032 140.858724,106.579478 C140.858724,99.9669243 135.619275,94.6072748 129.079253,94.6072748 Z" id="形状结合备份-2" stroke="#3B71E9" stroke-width="2.16" fill="#3B71E9" transform="translate(122.453424, 110.020311) scale(-1, -1) rotate(267.000000) translate(-122.453424, -110.020311) "></path>
            <path d="M69.6331118,100 C81.8010321,100 93,108.783547 93,122.556212 C93,136.811222 81.8010321,146.31573 69.6331118,146.31573 C64.6145428,146.31573 58.593648,144.98843 55.2992012,141.813974 C55.2992012,141.813974 49.5464076,146.209316 38.0408202,155 L32,146.31573 C39.0163888,140.721743 43.840156,136.875876 46.4713018,134.778131 L46.7765147,134.534793 C48.1517269,133.438371 48.839333,132.89016 48.839333,132.89016 C46.0532352,126.839253 46.0532352,119.036972 48.839333,113.625665 C51.6254308,108.214357 58.1214665,100 69.6331118,100 Z M70.4250117,109.07137 C62.6026329,109.07137 56.3358407,115.479646 56.3358407,123.385961 C56.3358407,127.828232 58.5471124,132.085072 61.6893168,134.677591 C64.1395796,136.699214 67.0811352,137.581389 70.469457,137.581389 C78.2029452,137.581389 84.5141827,131.292276 84.5141827,123.385961 C84.5141827,115.479646 78.2473905,109.07137 70.4250117,109.07137 Z" id="形状结合备份-3" stroke="#3B71E9" stroke-width="2.592" fill="#3B71E9" transform="translate(62.500000, 127.500000) scale(-1, -1) rotate(331.000000) translate(-62.500000, -127.500000) "></path>
            <path d="M84.5,49 C98.6577287,49 110,60.4634121 110,74.6065818 C110,88.7497514 98.5772871,100 84.5804416,100 C78.4479157,100 73.1239923,98.4219252 68.6892599,94.8055556 C63.0021821,90.1679419 59,82.5531155 59,74.6065818 C59,60.4634121 70.3422713,49 84.5,49 Z M83.6052632,57.0526316 C73.9183961,57.0526316 66.1578947,65.0971313 66.1578947,75.0221626 C66.1578947,80.5986776 68.8962298,85.9424154 72.7873884,89.1968811 C75.8216789,91.7346843 79.4643634,92.8421053 83.6603022,92.8421053 C93.2370912,92.8421053 101.052632,84.947194 101.052632,75.0221626 C101.052632,65.0971313 93.2921302,57.0526316 83.6052632,57.0526316 Z" id="形状结合" stroke="#3B71E9" stroke-width="3.639168" fill="#3B71E9"></path>
        </g>
    </g>
</svg>