<?xml version="1.0" standalone="no"?><!DOCTYPE svg PUBLIC "-//W3C//DTD SVG 1.1//EN" "http://www.w3.org/Graphics/SVG/1.1/DTD/svg11.dtd"><svg t="1706574080556" class="icon" viewBox="0 0 1024 1024" version="1.1" xmlns="http://www.w3.org/2000/svg" p-id="5211" xmlns:xlink="http://www.w3.org/1999/xlink" width="22" height="22"><path d="M584.544 831.989333a77.274667 77.274667 0 0 1-53.893333-20.816 70.645333 70.645333 0 0 1-21.84-51.733333v-72.330667h59.962666v72.336c-0.304 4.213333 1.285333 8.336 4.330667 11.258667a14.250667 14.250667 0 0 0 11.44 3.882667h209.008a17.322667 17.322667 0 0 0 15.797333-15.146667V168.565333a14.202667 14.202667 0 0 0-4.341333-11.274666 14.250667 14.250667 0 0 0-11.456-3.872h-209.066667a17.322667 17.322667 0 0 0-15.776 15.146666V243.2H508.725333V168.554667a70.656 70.656 0 0 1 21.84-51.733334 77.274667 77.274667 0 0 1 53.898667-20.810666h209.088a77.296 77.296 0 0 1 53.914667 20.816 70.677333 70.677333 0 0 1 21.866666 51.733333v590.88a70.677333 70.677333 0 0 1-21.866666 51.733333 77.274667 77.274667 0 0 1-53.893334 20.816h-209.066666 0.037333zM123.76 831.989333a77.274667 77.274667 0 0 1-53.893333-20.816 70.677333 70.677333 0 0 1-21.866667-51.733333V168.565333a70.677333 70.677333 0 0 1 21.866667-51.733333 77.274667 77.274667 0 0 1 53.893333-20.816h209.066667a77.274667 77.274667 0 0 1 53.898666 20.816 70.645333 70.645333 0 0 1 21.84 51.733333v72.330667H348.602667V168.554667a15.402667 15.402667 0 0 0-4.736-10.842667 15.450667 15.450667 0 0 0-11.04-4.298667H123.829333a15.594667 15.594667 0 0 0-15.797333 15.146667v590.88c-0.298667 4.218667 1.290667 8.346667 4.341333 11.274667 3.056 2.922667 7.253333 4.341333 11.456 3.872h209.066667a15.594667 15.594667 0 0 0 15.776-15.146667v-72.330667h59.962667v72.336a70.656 70.656 0 0 1-21.84 51.733334 77.274667 77.274667 0 0 1-53.898667 20.810666H123.76z" fill="#3B71E9" p-id="5212"></path><path d="M447.397333 612.016a30.101333 30.101333 0 0 1-21.061333-8.618667 27.317333 27.317333 0 0 1 0-40.586666l40.208-38.272H299.386667a81.024 81.024 0 0 1-70.682667 54.256v0.213333H221.76a78.437333 78.437333 0 0 1-70.517333-38.181333 78.186667 78.186667 0 0 1 0-80.096 78.437333 78.437333 0 0 1 70.517333-38.176 81.941333 81.941333 0 0 1 73.712 44.373333h171.306667l-40.245334-38.277333a27.317333 27.317333 0 0 1 0-40.586667 29.701333 29.701333 0 0 1 42.122667 0.213333l112.565333 107.456-112.672 107.664a29.786667 29.786667 0 0 1-21.146666 8.618667z" fill="#00CCFE" p-id="5213"></path><path d="M216.4 465.242667a35.669333 35.669333 0 0 0-32.64 17.125333 35.552 35.552 0 0 0 0 36.821333 35.669333 35.669333 0 0 0 32.64 17.125334 37.466667 37.466667 0 0 0 35.488-23.76v-23.76a37.594667 37.594667 0 0 0-35.488-23.552z" fill="#FFFFFF" p-id="5214"></path><path d="M697.706667 564.496c-34.965333-1.488-62.250667-30.746667-61.242667-65.674667 1.013333-34.928 29.941333-62.56 64.938667-62.026666 34.992 0.533333 63.061333 29.04 63.002666 63.984-0.805333 35.973333-30.650667 64.490667-66.677333 63.717333h-0.021333z" fill="#05C8C8" p-id="5215"></path><path d="M193.578667 373.333333V309.242667h0.821333L231.733333 373.333333H256V293.333333h-17.44v60.288h-0.821333L203.392 293.333333H176v80z" fill="#00CCFE" p-id="5216"></path><path d="M678.912 373.333333V309.242667h0.821333L717.066667 373.333333H741.333333V293.333333h-17.44v60.288h-0.821333L688.725333 293.333333H661.333333v80z" fill="#05C8C8" p-id="5217"></path><path d="M770.666667 728m-192 0a192 192 0 1 0 384 0 192 192 0 1 0-384 0Z" fill="#3B71E9" p-id="5218"></path><path d="M637.856 723.178667V742.4l91.754667 37.173333v-21.941333L668.32 732.789333l61.290667-24.842666v-22.485334zM779.701333 646.656l-40.437333 134.005333h19.765333l40.981334-134.005333zM809.12 757.632v21.941333l91.754667-37.173333v-19.221333L809.12 685.461333v22.485334l61.290667 24.842666z" fill="#FFFFFF" p-id="5219"></path><path d="M456 306.666667m-13.333333 0a13.333333 13.333333 0 1 0 26.666666 0 13.333333 13.333333 0 1 0-26.666666 0Z" fill="#00CCFE" p-id="5220"></path><path d="M456 349.333333m-13.333333 0a13.333333 13.333333 0 1 0 26.666666 0 13.333333 13.333333 0 1 0-26.666666 0Z" fill="#00CCFE" p-id="5221"></path></svg>