<?xml version="1.0" encoding="UTF-8"?>
<svg width="192px" height="192px" viewBox="0 0 192 192" version="1.1" xmlns="http://www.w3.org/2000/svg" xmlns:xlink="http://www.w3.org/1999/xlink">
    <title>DataModel.Table	数据表</title>
    <g id="DataModel.Table-数据表" stroke="none" stroke-width="1" fill="none" fill-rule="evenodd">
        <g id="数据表" transform="translate(22.500000, 30.500000)">
            <g id="编组" transform="translate(59.279221, 28.068182)" fill="#05C8C8">
                <rect id="矩形" x="0" y="0" width="29.3896104" height="5.68181818" rx="0.95"></rect>
                <rect id="矩形备份" x="0" y="22.7272727" width="29.3896104" height="5.68181818" rx="0.95"></rect>
                <rect id="矩形备份-2" x="0" y="45.4545455" width="29.3896104" height="5.68181818" rx="0.95"></rect>
                <rect id="矩形备份-3" x="0" y="68.1818182" width="29.3896104" height="5.68181818" rx="0.95"></rect>
            </g>
            <g id="编组备份" transform="translate(98.149351, 28.068182)" fill="#00CCFE">
                <rect id="矩形" x="0" y="0" width="29.3896104" height="5.68181818" rx="0.95"></rect>
                <rect id="矩形备份" x="0" y="22.7272727" width="29.3896104" height="5.68181818" rx="0.95"></rect>
                <rect id="矩形备份-2" x="0" y="45.4545455" width="29.3896104" height="5.68181818" rx="0.95"></rect>
                <rect id="矩形备份-3" x="0" y="68.1818182" width="29.3896104" height="5.68181818" rx="0.95"></rect>
            </g>
            <g id="编组备份-2" transform="translate(18.512987, 28.068182)" fill="#00CCFE">
                <rect id="矩形" x="0" y="0" width="29.3896104" height="5.68181818" rx="0.95"></rect>
                <rect id="矩形备份" x="0" y="22.7272727" width="29.3896104" height="5.68181818" rx="0.95"></rect>
                <rect id="矩形备份-2" x="0" y="45.4545455" width="29.3896104" height="5.68181818" rx="0.95"></rect>
                <rect id="矩形备份-3" x="0" y="68.1818182" width="29.3896104" height="5.68181818" rx="0.95"></rect>
            </g>
            <path d="M136.5,0 C143.5,0 146.5,3 146.5,9.5 L146.5,116 L146.5,116 C146.5,122.5 143.705871,124.998493 136.5,125.5 L10,125.5 L10,125.5 C3,125.5 0,122 0,116 L0,9.5 L0,9.5 C0,3 2.5,0 10,0 L136.5,0 L136.5,0 Z M132.96,10 L13.04,10 C10.8087696,10 9,11.8087696 9,14.04 L9,14.04 L9,110.96 C9,113.19123 10.8087696,115 13.04,115 L13.04,115 L132.96,115 C135.19123,115 137,113.19123 137,110.96 L137,110.96 L137,14.04 C137,11.8087696 135.19123,10 132.96,10 L132.96,10 Z" id="形状结合" fill="#3B71E9"></path>
        </g>
    </g>
</svg>