<?xml version="1.0" encoding="UTF-8"?>
<svg width="192px" height="192px" viewBox="0 0 192 192" version="1.1" xmlns="http://www.w3.org/2000/svg" xmlns:xlink="http://www.w3.org/1999/xlink">
    <title>DataModel.CompositeTable	组合表</title>
    <g id="DataModel.CompositeTable-组合表" stroke="none" stroke-width="1" fill="none" fill-rule="evenodd">
        <g id="数据表备份-2" transform="translate(41.012987, 53.568182)">
            <g id="编组" transform="translate(40.766234, 0.000000)" fill="#05C8C8">
                <rect id="矩形" x="0" y="0" width="29.3896104" height="5.68181818" rx="0.95"></rect>
                <rect id="矩形备份" x="0" y="22.7272727" width="29.3896104" height="5.68181818" rx="0.95"></rect>
                <rect id="矩形备份-2" x="0" y="45.4545455" width="29.3896104" height="5.68181818" rx="0.95"></rect>
                <rect id="矩形备份-3" x="0" y="68.1818182" width="29.3896104" height="5.68181818" rx="0.95"></rect>
            </g>
            <g id="编组备份" transform="translate(79.636364, 0.000000)" fill="#00CCFE">
                <rect id="矩形" x="0" y="0" width="29.3896104" height="5.68181818" rx="0.95"></rect>
                <rect id="矩形备份" x="0" y="22.7272727" width="29.3896104" height="5.68181818" rx="0.95"></rect>
            </g>
            <g id="编组备份-2" fill="#00CCFE">
                <rect id="矩形" x="0" y="0" width="29.3896104" height="5.68181818" rx="0.95"></rect>
                <rect id="矩形备份" x="0" y="22.7272727" width="29.3896104" height="5.68181818" rx="0.95"></rect>
                <rect id="矩形备份-2" x="0" y="45.4545455" width="29.3896104" height="5.68181818" rx="0.95"></rect>
                <rect id="矩形备份-3" x="0" y="68.1818182" width="29.3896104" height="5.68181818" rx="0.95"></rect>
            </g>
        </g>
        <path d="M159,28.5 C166,28.5 169,31.5 169,38 C169,38 169,57.3333333 169,96 L159,96 L159,42 C159,39.790861 157.209139,38 155,38 L36.5,38 C34.290861,38 32.5,39.790861 32.5,42 L32.5,140.5 C32.5,142.709139 34.290861,144.5 36.5,144.5 L111,144.5 L111,144.5 L111,154 C58.6666667,154 32.5,154 32.5,154 C25.5,154 22.5,150.5 22.5,144.5 C22.5,144.5 22.5,38 22.5,38 C22.5,31.5 25,28.5 32.5,28.5 C32.5,28.5 159,28.5 159,28.5 Z" id="路径-3" fill="#3B71E9"></path>
        <g id="数据表" transform="translate(112.000000, 97.000000)">
            <g id="编组" transform="translate(29.538451, 14.090004)" fill="#05C8C8">
                <rect id="矩形" x="0" y="0" width="14.6446523" height="2.85222745" rx="0.475"></rect>
                <rect id="矩形备份" x="0" y="11.4089098" width="14.6446523" height="2.85222745" rx="0.475"></rect>
                <rect id="矩形备份-2" x="0" y="22.8178196" width="14.6446523" height="2.85222745" rx="0.475"></rect>
                <rect id="矩形备份-3" x="0" y="34.2267294" width="14.6446523" height="2.85222745" rx="0.475"></rect>
            </g>
            <g id="编组备份" transform="translate(48.907185, 14.090004)" fill="#00CCFE">
                <rect id="矩形" x="0" y="0" width="14.6446523" height="2.85222745" rx="0.475"></rect>
                <rect id="矩形备份" x="0" y="11.4089098" width="14.6446523" height="2.85222745" rx="0.475"></rect>
                <rect id="矩形备份-2" x="0" y="22.8178196" width="14.6446523" height="2.85222745" rx="0.475"></rect>
                <rect id="矩形备份-3" x="0" y="34.2267294" width="14.6446523" height="2.85222745" rx="0.475"></rect>
            </g>
            <g id="编组备份-2" transform="translate(9.224901, 14.090004)" fill="#00CCFE">
                <rect id="矩形" x="0" y="0" width="14.6446523" height="2.85222745" rx="0.475"></rect>
                <rect id="矩形备份" x="0" y="11.4089098" width="14.6446523" height="2.85222745" rx="0.475"></rect>
                <rect id="矩形备份-2" x="0" y="22.8178196" width="14.6446523" height="2.85222745" rx="0.475"></rect>
                <rect id="矩形备份-3" x="0" y="34.2267294" width="14.6446523" height="2.85222745" rx="0.475"></rect>
            </g>
            <path d="M68.0170648,0 C71.5051195,0 73,1.5059761 73,4.7689243 L73,58.2310757 L73,58.2310757 C73,61.4940239 71.6077036,62.7482472 68.0170648,63 L4.98293515,63 L4.98293515,63 C1.49488055,63 0,61.2430279 0,58.2310757 L0,4.7689243 L0,4.7689243 C0,1.5059761 1.24573379,0 4.98293515,0 L68.0170648,0 L68.0170648,0 Z M66.2462116,5.01992032 L6.50464164,5.01992032 C5.38902644,5.01992032 4.48464164,5.92430512 4.48464164,7.03992032 L4.48464164,7.03992032 L4.48464164,55.7090837 C4.48464164,56.8246989 5.38902644,57.7290837 6.50464164,57.7290837 L6.50464164,57.7290837 L66.2462116,57.7290837 C67.3618268,57.7290837 68.2662116,56.8246989 68.2662116,55.7090837 L68.2662116,55.7090837 L68.2662116,7.03992032 C68.2662116,5.92430512 67.3618268,5.01992032 66.2462116,5.01992032 L66.2462116,5.01992032 Z" id="形状结合" fill="#3B71E9"></path>
        </g>
    </g>
</svg>