<?xml version="1.0" encoding="UTF-8"?>
<svg width="192px" height="192px" viewBox="0 0 192 192" version="1.1" xmlns="http://www.w3.org/2000/svg" xmlns:xlink="http://www.w3.org/1999/xlink">
    <title>EventModel.UserDefined	自定义事件</title>
    <g id="EventModel.UserDefined-自定义事件" stroke="none" stroke-width="1" fill="none" fill-rule="evenodd">
        <g id="自定义事件" transform="translate(18.000000, 26.000000)">
            <g id="事件">
                <path d="M140.384615,0 L31.8205129,0 C28.7133334,0 26.2051283,2.51249994 26.2051283,5.625 L26.2051283,30 L5.61538462,30 C2.50820507,30 0,32.5125 0,35.6250001 L0,129.375 C0,132.4875 2.50820507,135 5.61538462,135 L140.384615,135 C143.491795,135 146,132.4875 146,129.375 L146,5.625 C146,2.51249994 143.491795,0 140.384615,0 Z M11.2307692,41.2500001 L26.2051283,41.2500001 L26.2051283,123.75 L11.2307692,123.75 L11.2307692,41.2500001 L11.2307692,41.2500001 Z M134.769231,123.75 L37.4358976,123.75 L37.4358976,11.25 L134.769231,11.25 L134.769231,123.75 Z" id="形状" fill="#3B71E9" fill-rule="nonzero"></path>
                <path d="M106.692308,41.2500001 L58.0256411,41.2500001 C54.9243498,41.2500001 52.4102565,38.7316018 52.4102565,35.6250001 C52.4102565,32.5183983 54.9243498,30.0000001 58.0256411,30.0000001 L106.692308,30.0000001 C109.793599,30.0000001 112.307692,32.5183983 112.307692,35.6250001 C112.307692,38.7316018 109.793599,41.2500001 106.692308,41.2500001 Z M106.692308,71.2499999 L58.0256411,71.2499999 C54.9243498,71.2499999 52.4102565,68.7316017 52.4102565,65.6249999 C52.4102565,62.5183982 54.9243498,59.9999999 58.0256411,59.9999999 L106.692308,59.9999999 C109.793599,59.9999999 112.307692,62.5183982 112.307692,65.6249999 C112.307692,68.7316017 109.793599,71.2499999 106.692308,71.2499999 Z M106.692308,105 L58.0256411,105 C54.9243498,105 52.4102565,102.481602 52.4102565,99.3749999 C52.4102565,96.2683982 54.9243498,93.7499999 58.0256411,93.7499999 L106.692308,93.7499999 C109.793599,93.7499999 112.307692,96.2683982 112.307692,99.3749999 C112.307692,102.481602 109.793599,105 106.692308,105 Z" id="形状" fill="#3B71E9" fill-rule="nonzero"></path>
                <ellipse id="椭圆形" fill="#FFFFFF" cx="131.161473" cy="107.36147" rx="37.5" ry="46.5"></ellipse>
            </g>
            <g id="自定义" transform="translate(128.068866, 96.850641) rotate(-1.000000) translate(-128.068866, -96.850641) translate(87.358340, 56.565831)" fill-rule="nonzero">
                <path d="M8.44837344,55.0104486 C8.81832753,54.6405571 9.68241609,53.7671502 11.0405215,52.3862531 C12.398627,51.005356 14.0977581,49.3016806 16.1339168,47.277565 L22.895398,40.5577913 L30.3947883,33.100222 L50.3050446,13.306467 L67.6232704,30.6136252 L47.7128965,50.4072634 L40.3044072,57.8627283 C37.8363219,60.2568523 35.6121288,62.4515341 33.6359436,64.4449033 C31.6618752,66.4402599 30.0247167,68.0822088 28.7287014,69.3707499 C27.4326862,70.6592911 26.6616153,71.3969698 26.4134897,71.5798112 C25.7975267,72.1326611 25.0864293,72.7162573 24.284431,73.3286125 C23.4824326,73.9430719 22.6472724,74.4341953 21.7831839,74.8020994 C20.9190953,75.2316131 19.6541251,75.7535997 17.9859215,76.3680592 C16.3198346,76.9804143 14.5751941,77.5785069 12.7541169,78.1621031 C10.9330396,78.7456993 9.20486252,79.2533065 7.56770397,79.6828202 C5.93266213,80.1102296 4.71308367,80.3876482 3.91096771,80.5109843 C2.24276406,80.6938258 1.13278421,80.4493747 0.576677129,79.7731887 C0.0205700481,79.0991071 -0.132303541,77.9627779 0.113587748,76.3680592 C0.237650545,75.5090317 0.531167837,74.2658502 0.994139623,72.6382808 C1.47678885,70.9473535 1.97014915,69.2594659 2.47419116,67.5747186 C2.99925314,65.8259173 3.50773422,64.2168191 4.00386781,62.7434491 C4.4978847,61.2699622 4.89888388,60.2568523 5.20686537,59.7041193 C5.57681945,58.8450919 5.99439954,58.0642748 6.45748892,57.3573424 C6.9208135,56.6523975 7.58428487,55.8694761 8.44837344,55.0104486 L8.44837344,55.0104486 Z" id="路径" fill="#00CCFE"></path>
                <path d="M80.5880092,10.0841788 C80.8381339,10.6370287 81.0386335,11.2822345 81.1895079,12.0179258 C81.3444982,12.7557214 81.4210526,13.5221591 81.4210526,14.3195769 C81.4210526,15.1169947 81.2660623,15.9142956 80.9579633,16.7137009 C80.6478651,17.5110018 80.1538482,18.2796606 79.475795,19.0153519 C78.7357692,19.7510432 78.0721803,20.396366 77.4851457,20.9469946 C76.8981111,21.4998445 76.38963,21.9909678 75.9575857,22.4204815 C75.4635689,22.9116049 75.0004795,23.3411186 74.5684352,23.7089058 L57.2502094,6.49422042 C57.9902352,5.82013874 58.870787,5.00635404 59.8898659,4.05497063 C60.9089448,3.10358722 61.7564524,2.35339955 62.4365047,1.79856228 C63.3005933,1.1244806 64.1956094,0.649841055 65.1216705,0.372422423 C66.0477317,0.0971081049 66.9593287,-0.0262280335 67.8543447,0.00463522771 C68.7493608,0.0354984889 69.6134494,0.173097195 70.4464928,0.419769472 C71.2795363,0.664337435 72.0050979,0.939651753 72.6231776,1.24793365 C73.9191928,1.92400273 75.3538527,3.10358722 76.928921,4.79077883 C78.5044597,6.47972404 79.7240382,8.24290474 80.5880092,10.0841788 L80.5880092,10.0841788 Z" id="路径" fill="#05C8C8"></path>
            </g>
        </g>
    </g>
</svg>