<?xml version="1.0" encoding="UTF-8"?>
<svg width="192px" height="192px" viewBox="0 0 192 192" version="1.1" xmlns="http://www.w3.org/2000/svg" xmlns:xlink="http://www.w3.org/1999/xlink">
    <title>EventModel.Manual	人工启动</title>
    <g id="EventModel.Manual-人工启动" stroke="none" stroke-width="1" fill="none" fill-rule="evenodd">
        <g id="人工启动" transform="translate(17.030901, 10.948622)">
            <g id="人工" fill="#3B71E9">
                <path d="M79.6698956,82.0879524 C97.2557959,83.2253574 109.49539,90.6804178 115.453721,94.0513784 C112.275768,94.0513784 104.695609,94.0513784 99.5856852,97.1109873 C90.6967825,101.340955 66.5731903,118.051378 82.3635035,151.558334 C82.3635035,151.558334 83.7415452,154.904174 90.6967825,160.491447 C30.8074903,164.361939 4.5552386,155.641371 0,129.562959 C0,97.1109873 31.9939023,84.5513784 55.9900244,82.0879524 C70.2480517,81.3271335 70.2480517,81.3271335 79.6698956,82.0879524 Z" id="路径-4"></path>
                <path d="M72.6046778,0 C91.2977455,0 110.058603,19.25 110.058603,38.5 C110.058603,57.75 91.2299562,77 72.6046778,77 C53.9793994,77 35.4219108,57.75 35.4219108,38.5 C35.4219108,19.25 53.91161,0 72.6046778,0 Z" id="路径"></path>
            </g>
            <g id="启动" transform="translate(82.969099, 95.051378)">
                <circle id="椭圆形" stroke="#FFFFFF" stroke-width="3" fill="#00CCFE" cx="37.5" cy="37.5" r="36"></circle>
                <circle id="椭圆形" fill="#FFFFFF" cx="37.5" cy="37.5" r="27.5"></circle>
                <polygon id="三角形" fill="#05C8C8" transform="translate(41.500000, 37.500000) rotate(90.000000) translate(-41.500000, -37.500000) " points="41.5 27 55 48 28 48"></polygon>
            </g>
        </g>
    </g>
</svg>