<?xml version="1.0" encoding="UTF-8"?>
<svg width="192px" height="192px" viewBox="0 0 192 192" version="1.1" xmlns="http://www.w3.org/2000/svg" xmlns:xlink="http://www.w3.org/1999/xlink">
    <title>EventModel.BizEvent	单据事件</title>
    <g id="EventModel.BizEvent-单据事件" stroke="none" stroke-width="1" fill="none" fill-rule="evenodd">
        <g id="事件" transform="translate(23.000000, 13.000000)">
            <path d="M63.2483184,0 C73.2074106,0 79.5054952,3.34770265 83.8973528,13.0462567 C84.5447213,15.9712567 88.3341411,19.5 91.247299,19.5 L91.247299,19.5 L113.509168,19.5 C119.011799,19.5 123,23.7249999 123,29.25 L123,29.25 L123,146.25 C123,151.775 118.792105,156 113.289474,156 L113.289474,156 L9.71052632,156 C4.20789469,156 0,151.775 0,146.25 L0,146.25 L0,29.25 C0,23.7249999 4.20789469,19.5 9.71052632,19.5 L9.71052632,19.5 L34.7846066,19.5 C37.6977647,19.5 41.451519,15.9712567 42.0988874,13.0462567 C45.6043223,4.0107437 53.2892262,0 63.2483184,0 Z M62,14 C53.6747043,14 49.4224379,17.9623495 47.4203585,23.5050973 C46.8462966,26.0042399 42.3124663,29.3733481 39.7291877,29.3733481 L19.6109282,29.3733481 C14.7314022,29.3733481 11,32.9832207 11,37.7038233 L11,137.669525 C11,142.390127 14.7314022,146 19.6109282,146 L104.389072,146 C109.268598,146 113,142.390127 113,137.669525 L113,39.1199401 C113,34.3993374 109.268598,29.3733481 104.389072,29.3733481 L85.3416836,29.3733481 C82.7584051,29.3733481 78.4333846,26.0042399 77.8593227,23.5050973 C74.3020706,15.7809758 70.3252957,14 62,14 Z M73.9008771,112.201976 C73.6203561,112.630331 72.7922331,114.674536 72.4414379,116 C72.0906426,117.325464 71.9497544,118.475009 71.6684756,119.670063 L23.2899687,119.670063 C21.3478634,119.670063 19.4210526,117.35 19.4210526,116 C19.4210526,114.65 20.7746034,112.201976 22.7167087,112.201976 L73.9008771,112.201976 Z M87.3947369,82.062301 C89.3368422,82.062301 90.631579,85.4 90.631579,86.7500001 C90.631579,88.1000001 89.3368422,91 87.3947369,91 L22.6578947,91 C20.7157894,91 19.4210526,88.1000001 19.4210526,86.7500001 C19.4210526,85.4 20.7157894,82.062301 22.6578947,82.062301 L87.3947369,82.062301 Z M100.342105,53.2183423 C102.284211,53.2183423 103.578947,56.15 103.578947,57.5000001 C103.578947,58.8500001 102.284211,62.0644376 100.342105,62.0644376 L22.6578947,62.0644376 C20.7157894,62.0644376 19.4210526,58.8500001 19.4210526,57.5000001 C19.4210526,56.15 20.7157894,53.2183423 22.6578947,53.2183423 L100.342105,53.2183423 Z M70.5424391,21.0564797 C73.3118057,21.0564797 73.4575619,24.4575832 73.4652333,24.994575 L73.4652333,25.1183845 C73.4575619,25.6553763 73.3118057,29.0564797 70.5424391,29.0564797 L55.1998203,29.0564797 C52.5395557,29.0564797 52.4676566,25.4690485 52.4657134,25.0812447 L52.4656594,25.0564797 C52.4656594,24.8459808 52.4656594,21.0564797 55.1998203,21.0564797 L70.5424391,21.0564797 L70.5424391,21.0564797 Z" id="形状结合" fill="#3B71E9" fill-rule="nonzero"></path>
            <circle id="椭圆形" stroke="#FFFFFF" stroke-width="3" fill="#00CCFE" cx="108.5" cy="128.5" r="36"></circle>
            <circle id="椭圆形" fill="#FFFFFF" cx="108.5" cy="128.5" r="27.5"></circle>
            <path d="M102.870013,132.995622 L94.5517049,132.995622 C93.4656748,132.995622 92.7165104,131.943617 93.1029759,130.962112 L101.368584,109.966005 C101.597515,109.38445 102.173732,109 102.816797,109 L116.764688,109 C117.865184,109 118.615382,110.079006 118.199983,111.065511 L113.387248,122.497569 L122.447487,122.497569 C123.779967,122.497569 124.490898,124.017576 123.61205,124.986581 L101.398551,149.481706 C100.318721,150.672712 98.3166435,149.640707 98.7356589,148.109199 L102.870013,132.995622 Z" id="路径" fill="#05C8C8" fill-rule="nonzero"></path>
        </g>
    </g>
</svg>