<?xml version="1.0" encoding="UTF-8"?>
<svg width="192px" height="192px" viewBox="0 0 192 192" version="1.1" xmlns="http://www.w3.org/2000/svg" xmlns:xlink="http://www.w3.org/1999/xlink">
    <title>EventModel.Poll	轮询事件</title>
    <g id="EventModel.Poll-轮询事件" stroke="none" stroke-width="1" fill="none" fill-rule="evenodd">
        <g id="轮询事件" transform="translate(22.000000, 20.000000)" fill-rule="nonzero">
            <path d="M66.5054142,83.0444181 L50.7654211,83.0444181 C48.7104232,83.0444181 47.2928462,81.0597429 48.0241204,79.2080712 L63.6643943,39.5975778 C64.0975803,38.5004372 65.1879027,37.7751479 66.4047174,37.7751479 L92.7970686,37.7751479 C94.8794403,37.7751479 96.2989726,39.8107606 95.5129506,41.6718651 L86.4062403,63.2391713 L103.550124,63.2391713 C106.071455,63.2391713 107.416687,66.1067628 105.753723,67.9348523 L63.7210974,114.146466 C61.6778313,116.393375 57.8894788,114.446431 58.6823443,111.557144 L66.5054142,83.0444181 Z" id="事件" fill="#05C8C8"></path>
            <path d="M77.8592635,13.8229942 C97.4514,13.7925951 115.972738,22.5953103 128.086694,37.6949849 L119.803237,37.6949849 C117.287295,37.6949849 114.962879,39.0108324 113.700555,41.147456 C112.441495,43.2792731 112.441495,45.9249233 113.700555,48.0567405 C114.962879,50.1933641 117.287295,51.5135542 119.803237,51.513554 L140.949338,51.513554 C144.840778,51.513554 147.996588,48.417187 147.996587,44.6042695 L147.996587,19.4685442 C147.996587,15.6556267 144.840778,12.5636023 140.944985,12.5636023 C137.053546,12.5636023 133.902089,15.6556265 133.902089,19.4685442 L133.902089,23.24672 C119.211251,8.35983901 98.9836,-0.0303167787 77.8592635,0 C34.8836663,0.00442513483 0,33.9993211 0,76.0022126 C0,118.009447 34.8836663,152 77.8592635,152 C108.107154,152 134.328667,135.15889 147.221782,110.561664 C148.372603,108.368024 148.239262,105.724038 146.873554,103.656722 C145.487732,101.571888 143.100767,100.372921 140.596758,100.503899 C138.096037,100.61835 135.843319,102.046165 134.676895,104.256019 C123.725147,125.114154 101.791182,138.216173 77.8592635,138.181431 C42.6099587,138.181431 14.0944985,110.314128 14.0944985,76.0022126 C14.0944985,41.69464 42.6056058,13.8229942 77.8592635,13.8229942 L77.8592635,13.8229942 Z" id="路径" fill="#3B71E9"></path>
        </g>
    </g>
</svg>