<?xml version="1.0" encoding="UTF-8"?>
<svg width="192px" height="192px" viewBox="0 0 192 192" version="1.1" xmlns="http://www.w3.org/2000/svg" xmlns:xlink="http://www.w3.org/1999/xlink">
    <title>EventModel.Timer	定时启动</title>
    <g id="EventModel.Timer-定时启动" stroke="none" stroke-width="1" fill="none" fill-rule="evenodd">
        <g id="定时启动" transform="translate(16.000000, 18.000000)">
            <g id="定时" fill="#3B71E9" fill-rule="nonzero">
                <path d="M84.7847539,43.8166527 C84.7847539,39.6069434 82.1762501,36.1557403 78.9944487,36.1557403 C75.8126473,36.1557403 73.2041434,39.6069434 73.2041434,43.8166527 L73.2041434,74.7257793 L57.8970989,91.6025417 C55.4319194,94.3710893 55.1166057,99.1876035 57.151812,102.411255 C59.1870183,105.634906 62.8561227,106.09001 65.3213021,103.397313 L82.7208828,84.2071065 C84.0394671,82.7659448 84.8134188,80.6042022 84.8134188,78.2907584 L84.8134188,43.8166527 L84.7847539,43.8166527 Z" id="路径"></path>
                <path d="M15.5294463,2.6725715 C17.9517716,-0.407059561 22.3465617,-0.891495907 25.357166,1.56528842 C28.3677703,3.95286755 28.8522354,8.34739726 26.4645147,11.3578231 L12.4496327,28.8667368 C10.0273074,31.9463678 5.63251729,32.4308042 2.62191301,29.9740199 C-0.388691275,27.5864407 -0.873156332,23.191911 1.5145643,20.1814851 L15.5294463,2.6725715 Z" id="路径"></path>
                <path d="M76.9017471,10 C119.350963,10 144.438299,39.2192366 144.438299,71.5 C144.438299,79.5442594 142.652058,91.959365 139.990475,95.3989716 C138.631599,93.7941779 136.920677,92.8577565 132.433032,89.9463121 C133.844112,86.4297012 135.760076,75.5193821 135.760076,71.5513047 C135.919679,46.0039928 116.989491,18.6732086 76.9131853,18.6732086 C42.5846999,18.6732086 20.1665234,40.539208 18.0195878,71.5513047 C15.8746273,100.661645 39.5101574,140.618172 85.820724,135.651977 C87.4707311,137.987675 89.4937566,139.059017 91.0076662,142.019489 C33.0627137,150.454067 7.5676682,102.563401 10.1819154,71.5513047 C10.1819154,45.3234008 32.7653786,10 76.9017471,10 Z" id="路径备份"></path>
                <path d="M128.617432,1.56528842 C131.628037,-0.891495907 136.057431,-0.407059561 138.445152,2.6725715 L152.460034,20.1814851 C154.882359,23.191911 154.397894,27.5864407 151.352685,29.9740199 C148.342081,32.4308042 143.912686,31.9463678 141.524966,28.8667368 L127.510084,11.3578231 C125.087758,8.34739726 125.606828,3.95286755 128.617432,1.56528842 L128.617432,1.56528842 Z" id="路径"></path>
            </g>
            <g id="启动" transform="translate(84.000000, 88.000000)">
                <circle id="椭圆形" stroke="#FFFFFF" stroke-width="3" fill="#00CCFE" cx="37.5" cy="37.5" r="36"></circle>
                <circle id="椭圆形" fill="#FFFFFF" cx="37.5" cy="37.5" r="27.5"></circle>
                <polygon id="三角形" fill="#05C8C8" transform="translate(41.500000, 37.500000) rotate(90.000000) translate(-41.500000, -37.500000) " points="41.5 27 55 48 28 48"></polygon>
            </g>
        </g>
    </g>
</svg>