<?xml version="1.0" encoding="UTF-8"?>
<svg width="192px" height="192px" viewBox="0 0 192 192" version="1.1" xmlns="http://www.w3.org/2000/svg" xmlns:xlink="http://www.w3.org/1999/xlink">
    <title>EventModel.MQ	MQ订阅</title>
    <g id="EventModel.MQ-MQ订阅" stroke="none" stroke-width="1" fill="none" fill-rule="evenodd">
        <g id="MQ订阅" transform="translate(25.000000, 17.000000)" fill-rule="nonzero">
            <path d="M106.949147,107.675481 L98.8024452,97.9903846 C104.959836,90.8689904 109.033187,81.1838942 109.033187,70.9290865 C109.033187,60.6742788 105.433482,52.0336538 99.3708198,44.9122596 L104.486191,40.3545673 C107.517522,41.8737981 110.643582,42.9182692 114.148558,42.9182692 C125.894966,42.9182692 135.557334,33.2331731 135.557334,21.4591346 C135.557334,9.68509615 125.894966,0 114.148558,0 C102.402151,0 92.7397832,9.68509615 92.7397832,21.4591346 C92.7397832,24.0228365 93.2134286,27.0612981 94.2554487,29.1502404 L87.6244121,34.7524038 C81.2775628,31.0492788 74.0781516,29.1502404 66.7840114,29.1502404 C58.6373093,29.1502404 50.9642527,31.7139423 44.3332161,35.2271635 L36.6601594,25.5420673 C36.6601594,24.4975962 37.1338049,22.9783654 37.1338049,21.9338942 C37.1338049,14.3377404 31.0711429,8.16586538 23.4928154,8.16586538 L23.3980863,8.16586538 C15.8197587,8.16586538 9.6623676,14.2427885 9.6623676,21.8389423 L9.6623676,21.9338942 C9.6623676,29.5300481 15.7250296,35.7019231 23.3033572,35.7019231 L24.9137518,35.7019231 L33.0604539,45.8617788 C27.9450828,52.9831731 24.4401063,61.71875 24.4401063,70.8341346 C24.4401063,77.4807692 25.9557718,84.1274038 28.9871028,89.7295673 L22.3560662,95.3317308 C20.8404007,94.2872596 18.7563606,94.2872596 16.7670497,94.2872596 C7.57832753,94.2872596 0,101.978365 0,111.09375 C0,120.304087 7.67305663,127.90024 16.7670497,127.90024 C25.8610427,127.90024 33.5340993,120.209135 33.5340993,111.09375 C33.5340993,109.574519 33.5340993,108.055288 33.0604539,106.536058 L38.6494704,101.408654 C46.322527,108.055288 55.9848946,112.138221 67.1629278,112.138221 C73.3203189,112.138221 78.9093354,111.09375 83.9299774,108.530048 L92.550325,119.259615 C90.4662849,122.867788 109.506833,106.63101 106.949147,107.675481 Z M66.6892823,104.067308 C48.311838,104.067308 33.0604539,89.2548077 33.0604539,70.9290865 C33.0604539,52.5084135 48.311838,37.7908654 66.6892823,37.7908654 C85.0667266,37.7908654 100.318111,52.6033654 100.318111,70.9290865 C100.318111,89.3497596 85.0667266,104.067308 66.6892823,104.067308 Z" id="形状" fill="#3B71E9"></path>
            <path d="M55.1,70.2 C55.2,73.8 52.4,76.7 48.8,76.8 C45.2,76.9 42.3,74.1 42.2,70.5 L42.2,70.2 C42.2,66.6 45.1,63.8 48.7,63.8 C52.3,63.7 55.1,66.6 55.1,70.2 L55.1,70.2 Z" id="路径" fill="#00CCFE"></path>
            <path d="M90.1,70.2 C90.1,73.8 87.2,76.7 83.7,76.7 C80.2,76.7 77.2,73.8 77.2,70.3 C77.2,66.7 80.1,63.9 83.7,63.9 C87.2,63.7 90.1,66.6 90.1,70.2 L90.1,70.2 Z" id="路径" fill="#00CCFE"></path>
            <path d="M72.3,70.2 C72.3,73.8 69.4,76.7 65.9,76.7 C62.3,76.7 59.4,73.8 59.4,70.3 C59.4,66.7 62.3,63.9 65.9,63.9 C69.5,63.9 72.3,66.6 72.3,70.2 L72.3,70.2 Z" id="路径" fill="#05C8C8"></path>
            <path d="M113.705426,105 C128.496124,105 140,116.179688 140,131.085937 C140,145.992188 128.085271,158 113.705426,158 C98.9147287,158 87,145.992188 87,131.5 C87,116.59375 98.9147287,105 113.705426,105 Z M114.124031,115 C105.193798,115 98,122 98,131 C98,139.75 105.193798,147 114.124031,147 C122.806202,147 130,139.75 130,130.75 L130,130.75 C130,121.75 123.054264,115 114.124031,115 Z" id="形状结合" fill="#3B71E9"></path>
        </g>
    </g>
</svg>