<?xml version="1.0" encoding="UTF-8"?>
<svg width="192px" height="192px" viewBox="0 0 192 192" version="1.1" xmlns="http://www.w3.org/2000/svg" xmlns:xlink="http://www.w3.org/1999/xlink">
    <title>EventModel.API	API触发</title>
    <g id="EventModel.API-API触发" stroke="none" stroke-width="1" fill="none" fill-rule="evenodd">
        <g id="API调用" transform="translate(27.820000, 19.395336)" fill-rule="nonzero">
            <g id="编组" transform="translate(17.393220, 0.000000)">
                <path d="M94.1325001,130.123728 C92.5925001,131.470995 90.8600001,132.818261 88.9350001,134.165528 C87.2025002,135.320329 85.4700001,136.475129 83.3525,137.629929 C81.4275,138.784729 79.31,139.747062 77.1925001,140.516929 C75.075,141.479263 72.765,142.249129 71.0325001,142.826529 C68.915,143.40393 66.605,143.98133 64.2950001,144.55873 C61.7925,145.13613 59.6750001,145.521063 57.5575001,145.71353 C55.44,145.905997 53.9000001,147.638197 54.0925,149.75533 C54.2850001,151.679997 56.0175,153.219731 57.9425,153.219731 L58.3275,153.219731 C60.83,153.027264 63.3325001,152.642331 66.2200001,152.064931 C68.7225001,151.487531 71.0325001,150.910131 73.3425001,150.332731 C75.4600001,149.75533 78.1550001,148.792997 80.6575001,147.638197 C82.7750002,146.675863 85.0850001,145.71353 87.2025001,144.366263 C89.5125,143.211463 91.2450001,142.056663 92.9775001,140.901863 L92.9775001,145.905997 C92.9775001,148.02313 94.71,149.75533 96.8275001,149.75533 C98.9450001,149.75533 100.6775,148.02313 100.6775,145.905997 L100.6775,133.010728 C100.485,131.470995 99.5225,130.123728 98.175,129.546328 C96.8275001,128.968927 95.095,129.161394 94.1325001,130.123728 Z" id="路径" fill="#05C8C8"></path>
                <path d="M42.3500001,0.0162426248 C39.8475,0.208709379 37.345,0.593642738 34.4575,1.1710427 C31.955,1.74844281 29.4524999,2.32584293 27.335,2.90324304 L27.1425001,2.90324304 C24.8325001,3.67310976 22.3300001,4.44297662 20.02,5.5977767 C17.9024999,6.56011017 15.5924999,7.52244364 13.475,8.86971047 C11.1650001,10.0245107 9.43249996,11.1793108 7.70000002,12.334111 L7.70000002,7.32997689 C7.70000002,5.21284319 5.96750007,3.480643 3.85000001,3.480643 C1.73249994,3.480643 0,5.21284319 0,7.32997689 L0,20.2252454 C0,21.764979 0.962500002,23.1122458 2.30999997,23.6896459 C2.88750001,23.8821126 3.27249998,24.0745793 3.85000001,24.0745793 C4.81250001,24.0745793 5.77500001,23.6896459 6.35250004,23.1122458 C7.89250008,21.764979 9.62500002,20.4177121 11.55,19.0704453 C13.2825,17.9156451 15.0150001,16.760845 17.1325,15.6060448 C19.0575,14.4512445 21.175,13.6813778 23.2925001,12.7190444 C25.2175001,11.9491776 27.3350002,11.1793108 29.645,10.4094441 C31.57,9.83204394 33.88,9.25464383 36.3825,8.67724372 C38.885,8.0998436 41.0025,7.71491024 43.12,7.52244364 C45.2375001,7.32997689 46.7775,5.5977767 46.5850001,3.480643 C46.3925,1.36350945 44.6600001,-0.17622413 42.3500001,0.0162426248 Z" id="路径" fill="#00CCFE"></path>
            </g>
            <g id="API" transform="translate(0.000000, 74.184664)" fill="#3B71E9">
                <path d="M7.65,13.14 L10.44,5.28 L10.5,5.28 L13.2,13.14 L7.65,13.14 Z M8.1,0 L0,21.42 L4.74,21.42 L6.42,16.65 L14.43,16.65 L16.05,21.42 L20.94,21.42 L12.93,0 L8.1,0 Z" id="形状"></path>
                <path d="M27.697185,10.08 L27.697185,3.66 L31.357185,3.66 C31.897185,3.66 32.417185,3.7 32.917185,3.78 C33.417185,3.86 33.857185,4.015 34.237185,4.245 C34.617185,4.475 34.922185,4.8 35.152185,5.22 C35.382185,5.64 35.497185,6.19 35.497185,6.87 C35.497185,7.55 35.382185,8.1 35.152185,8.52 C34.922185,8.94 34.617185,9.265 34.237185,9.495 C33.857185,9.725 33.417185,9.88 32.917185,9.96 C32.417185,10.04 31.897185,10.08 31.357185,10.08 L27.697185,10.08 Z M22.987185,0 L22.987185,21.42 L27.697185,21.42 L27.697185,13.74 L32.647185,13.74 C33.987185,13.74 35.127185,13.545 36.067185,13.155 C37.007185,12.765 37.772185,12.25 38.362185,11.61 C38.952185,10.97 39.382185,10.235 39.652185,9.405 C39.922185,8.575 40.057185,7.73 40.057185,6.87 C40.057185,5.99 39.922185,5.14 39.652185,4.32 C39.382185,3.5 38.952185,2.77 38.362185,2.13 C37.772185,1.49 37.007185,0.975 36.067185,0.585 C35.127185,0.195 33.987185,0 32.647185,0 L22.987185,0 Z" id="形状"></path>
                <polygon id="路径" points="43.18437 0 43.18437 21.42 47.89437 21.42 47.89437 0"></polygon>
            </g>
            <g id="API备份" transform="translate(86.000000, 49.184664)" fill="#3B71E9">
                <path d="M7.65,13.14 L10.44,5.28 L10.5,5.28 L13.2,13.14 L7.65,13.14 Z M8.1,0 L0,21.42 L4.74,21.42 L6.42,16.65 L14.43,16.65 L16.05,21.42 L20.94,21.42 L12.93,0 L8.1,0 Z" id="形状"></path>
                <path d="M27.697185,10.08 L27.697185,3.66 L31.357185,3.66 C31.897185,3.66 32.417185,3.7 32.917185,3.78 C33.417185,3.86 33.857185,4.015 34.237185,4.245 C34.617185,4.475 34.922185,4.8 35.152185,5.22 C35.382185,5.64 35.497185,6.19 35.497185,6.87 C35.497185,7.55 35.382185,8.1 35.152185,8.52 C34.922185,8.94 34.617185,9.265 34.237185,9.495 C33.857185,9.725 33.417185,9.88 32.917185,9.96 C32.417185,10.04 31.897185,10.08 31.357185,10.08 L27.697185,10.08 Z M22.987185,0 L22.987185,21.42 L27.697185,21.42 L27.697185,13.74 L32.647185,13.74 C33.987185,13.74 35.127185,13.545 36.067185,13.155 C37.007185,12.765 37.772185,12.25 38.362185,11.61 C38.952185,10.97 39.382185,10.235 39.652185,9.405 C39.922185,8.575 40.057185,7.73 40.057185,6.87 C40.057185,5.99 39.922185,5.14 39.652185,4.32 C39.382185,3.5 38.952185,2.77 38.362185,2.13 C37.772185,1.49 37.007185,0.975 36.067185,0.585 C35.127185,0.195 33.987185,0 32.647185,0 L22.987185,0 Z" id="形状"></path>
                <polygon id="路径" points="43.18437 0 43.18437 21.42 47.89437 21.42 47.89437 0"></polygon>
            </g>
        </g>
        <path d="M24.4483959,37.038304 C24.4483959,37.038304 88.3,68.4192059 88.3,68.4192059 C90.6539411,69.7322624 91.8144651,71.7469481 91.8144651,74.6159044 L91.8144651,162.071615 L91.8144651,162.071615 C91.8144651,167.431323 87.7102406,172.138765 80.7707294,169.376618 C80.7707294,169.376618 67.1255753,162.589262 52.6617119,155.394664 L50.8118021,154.474484 C50.503072,154.320916 50.1942183,154.167286 49.8853647,154.013657 L48.0332311,153.092371 C33.2319761,145.729948 19,138.650695 19,138.650695 C16.3851544,137.162782 15.7426198,135.724545 15.5706717,130.936425 L15.5706717,43.1565788 L15.5706717,43.1565788 C15.5706717,39.7651303 19.6234603,34.9202134 24.4483959,37.038304 Z M22.9780194,43.4699149 L22.9780194,132.766164 L84.7658358,163.371658 L84.7658358,74.5955351 L22.9780194,43.4699149 Z" id="形状结合" fill="#3B71E9"></path>
        <path d="M110.448396,14.038304 C110.448396,14.038304 174.3,45.4192059 174.3,45.4192059 C176.653941,46.7322624 177.814465,48.7469481 177.814465,51.6159044 L177.814465,139.071615 L177.814465,139.071615 C177.814465,144.431323 173.710241,149.138765 166.770729,146.376618 C166.770729,146.376618 153.125575,139.589262 138.661712,132.394664 L136.811802,131.474484 C136.503072,131.320916 136.194218,131.167286 135.885365,131.013657 L134.033231,130.092371 C119.231976,122.729948 105,115.650695 105,115.650695 C102.385154,114.162782 101.74262,112.724545 101.570672,107.936425 L101.570672,20.1565788 L101.570672,20.1565788 C101.570672,16.7651303 105.62346,11.9202134 110.448396,14.038304 Z M108.978019,20.4699149 L108.978019,109.766164 L170.765836,140.371658 L170.765836,51.5955351 L108.978019,20.4699149 Z" id="形状结合备份" fill="#3B71E9"></path>
    </g>
</svg>