<?xml version="1.0" encoding="UTF-8"?>
<svg width="192px" height="192px" viewBox="0 0 192 192" version="1.1" xmlns="http://www.w3.org/2000/svg" xmlns:xlink="http://www.w3.org/1999/xlink">
    <title>Function.ScriptFunction	脚本函数</title>
    <g id="Function.ScriptFunction-脚本函数" stroke="none" stroke-width="1" fill="none" fill-rule="evenodd">
        <g id="脚本函数" transform="translate(25.000000, 27.000000)">
            <g id="函数" fill="#3B71E9">
                <g id="fn" transform="translate(19.927218, 20.873076)" fill-rule="nonzero">
                    <path d="M8.7261,29.97672 L8.7261,73.29924 L23.30382,73.29924 L23.30382,29.97672 L33.3645,29.97672 L33.3645,20.22402 L23.30382,20.22402 L23.30382,17.04156 C23.30382,14.85148 23.73157,13.29447 24.58707,12.37053 C25.44257,11.44659 26.8627,10.98462 28.84746,10.98462 C30.69534,10.98462 32.47478,11.08728 34.18578,11.2926 L34.18578,0.41064 C32.95386,0.3422 31.68772,0.25665 30.38736,0.15399 C29.087,0.05133 27.78664,0 26.48628,0 C20.532,0 16.0834,1.50568 13.14048,4.51704 C10.19756,7.5284 8.7261,11.39526 8.7261,16.11762 L8.7261,20.22402 L0,20.22402 L0,29.97672 L8.7261,29.97672 Z" id="路径"></path>
                    <path d="M39.6053271,27.54474 L39.6053271,73.29924 L52.1723271,73.29924 L52.1723271,49.31574 C52.1723271,44.65474 52.9393271,41.30649 54.4733271,39.27099 C56.0073271,37.23549 58.4853271,36.21774 61.9073271,36.21774 C64.9163271,36.21774 67.0108271,37.14699 68.1908271,39.00549 C69.3708271,40.86399 69.9608271,43.68124 69.9608271,47.45724 L69.9608271,73.29924 L82.5278271,73.29924 L82.5278271,45.15624 C82.5278271,42.32424 82.2770771,39.74299 81.7755771,37.41249 C81.2740771,35.08199 80.4038271,33.10549 79.1648271,31.48299 C77.9258271,29.86049 76.2295771,28.59199 74.0760771,27.67749 C71.9225771,26.76299 69.1643271,26.30574 65.8013271,26.30574 C63.1463271,26.30574 60.5503271,26.91049 58.0133271,28.11999 C55.4763271,29.32949 53.4113271,31.26174 51.8183271,33.91674 L51.5528271,33.91674 L51.5528271,27.54474 L39.6053271,27.54474 Z" id="路径"></path>
                </g>
                <path d="M27,0 C27,0 107,0 107,0 C124,0 134,10 134,26 C134,36.6666667 134,55.6666667 134,83 L124,83 C124,45 124,26 124,26 C124,17 117,10 107,10 C107,10 27,10 27,10 C16,10 10,17 10,26 C10,26 10,106 10,106 C12.0102506,117.588503 15.6879222,121.410488 27,124 C27,124 49,124.333333 93,125 L93,134 C49,134.333333 27,134.333333 27,134 C10,134 0,122.5 0,106 C0,106 0,26 0,26 C0,10 10,0 27,0 Z" id="路径-2"></path>
            </g>
            <g id="脚本" transform="translate(78.000000, 67.000000)">
                <circle id="椭圆形" stroke="#FFFFFF" stroke-width="3" fill="#00CCFE" cx="37.5" cy="37.5" r="36"></circle>
                <g id="&lt;/&gt;" transform="translate(12.598000, 22.248000)" fill="#FFFFFF" fill-rule="nonzero">
                    <polygon id="路径" points="0 14.348 0 17.952 17.204 24.922 17.204 20.808 5.712 16.15 17.204 11.492 17.204 7.276"></polygon>
                    <polygon id="路径" points="26.596143 0 19.014143 25.126 22.720143 25.126 30.404143 0"></polygon>
                    <polygon id="路径" points="32.112286 20.808 32.112286 24.922 49.316286 17.952 49.316286 14.348 32.112286 7.276 32.112286 11.492 43.604286 16.15"></polygon>
                </g>
            </g>
        </g>
    </g>
</svg>