<?xml version="1.0" encoding="UTF-8"?>
<svg width="192px" height="192px" viewBox="0 0 192 192" version="1.1" xmlns="http://www.w3.org/2000/svg" xmlns:xlink="http://www.w3.org/1999/xlink">
    <title>Function.ExternalAPI	外部API</title>
    <g id="Function.ExternalAPI-外部API" stroke="none" stroke-width="1" fill="none" fill-rule="evenodd">
        <g id="外部API" transform="translate(31.971631, 14.833642)" fill="#3B71E9">
            <path d="M55.1324415,4.40340123 L55.1324415,16.1346676 L55.1324415,16.1346676 L61.394085,16.1346676 L61.394085,4.40340123 L61.394085,4.40340123 C61.394085,-1.03042361 70.8902191,-1.03042361 70.8902191,4.40340123 L70.8902191,16.1346676 L70.8902191,16.1346676 L76.0872423,16.1346676 L76.0872423,4.40340123 L76.0872423,4.40340123 C76.0872423,-0.757371993 86.3822424,-0.757371993 86.3822424,4.40340123 L86.3822424,16.1346676 L86.3822424,16.1346676 L91.9818493,16.1346676 L91.9818493,4.40340123 L91.9818493,4.40340123 C91.9818493,-0.638761336 101.906971,-0.638761336 101.906971,4.40340123 L101.906971,16.1346676 L101.906971,16.1346676 L108.878148,16.1346676 L108.878148,16.1346676 C123.127952,16.1346676 130.156028,17.7086112 130.156028,37.1698885 L130.156028,126.899336 L130.156028,126.899336 C130.156028,141.967601 126.484192,146.247344 108.878148,146.247344 L71.9143984,146.247344 L71.9143984,146.247344 L71.9143984,156.035325 L71.9143984,156.035325 C71.9143984,162.094886 61.394085,162.094886 61.394085,156.035325 L61.394085,146.247344 L61.394085,146.247344 L56.0128259,146.247344 L56.0128259,156.035325 L56.0128259,156.035325 C56.0128259,162.285924 45.7856334,162.285924 45.7856334,156.035325 L45.7856334,146.247344 L45.7856334,146.247344 L40.3808847,146.247344 C40.4082659,147.332202 40.4233256,148.589563 40.4260637,150.019426 L40.4260637,150.998224 C40.4233256,152.504755 40.4082659,154.183789 40.3808847,156.035325 C40.2896142,162.20711 29.9617345,162.20711 29.9617345,156.035325 L29.9617345,146.247344 L29.9617345,146.247344 L24.6972436,146.247344 L24.6972436,156.035325 L24.6972436,156.035325 C24.6972436,162.190834 14.2914513,162.190834 14.2914513,156.035325 L14.2914513,144.880055 L14.2914513,144.880055 C3.26986386,144.880055 0,138.094384 0,125.031674 L0,37.1698885 L0,37.1698885 C0,19.3075975 6.44131002,16.1346676 21.0344621,16.1346676 L44.9516142,16.1346676 L44.9516142,16.1346676 L44.9516142,4.40340123 L44.9516142,4.40340123 C44.9516142,-1.46780041 55.1324415,-1.46780041 55.1324415,4.40340123 Z M112.931744,28.1878327 L17.7033698,28.4140748 C14.9465917,28.4206243 12.7152487,30.6572748 12.7152487,33.4140607 L12.7152487,33.4140607 L12.7152487,128.277671 C12.7152487,131.039094 14.953825,133.277671 17.7152487,133.277671 L17.7152487,133.277671 L112.943623,133.277671 C115.705047,133.277671 117.943623,131.039094 117.943623,128.277671 L117.943623,128.277671 L117.943609,33.1759397 C117.937049,30.4145237 115.69316,28.1812721 112.931744,28.1878327 L112.931744,28.1878327 Z" id="形状结合"></path>
            <g id="API" transform="translate(22.775614, 58.509229)" fill-rule="nonzero">
                <path d="M12.852,22.0752 L17.5392,8.8704 L17.64,8.8704 L22.176,22.0752 L12.852,22.0752 Z M13.608,0 L0,35.9856 L7.9632,35.9856 L10.7856,27.972 L24.2424,27.972 L26.964,35.9856 L35.1792,35.9856 L21.7224,0 L13.608,0 Z" id="形状"></path>
                <path d="M46.5312708,16.9344 L46.5312708,6.1488 L52.6800708,6.1488 C53.5872708,6.1488 54.4608708,6.216 55.3008708,6.3504 C56.1408708,6.4848 56.8800708,6.7452 57.5184708,7.1316 C58.1568708,7.518 58.6692708,8.064 59.0556708,8.7696 C59.4420708,9.4752 59.6352708,10.3992 59.6352708,11.5416 C59.6352708,12.684 59.4420708,13.608 59.0556708,14.3136 C58.6692708,15.0192 58.1568708,15.5652 57.5184708,15.9516 C56.8800708,16.338 56.1408708,16.5984 55.3008708,16.7328 C54.4608708,16.8672 53.5872708,16.9344 52.6800708,16.9344 L46.5312708,16.9344 Z M38.6184708,0 L38.6184708,35.9856 L46.5312708,35.9856 L46.5312708,23.0832 L54.8472708,23.0832 C57.0984708,23.0832 59.0136708,22.7556 60.5928708,22.1004 C62.1720708,21.4452 63.4572708,20.58 64.4484708,19.5048 C65.4396708,18.4296 66.1620708,17.1948 66.6156708,15.8004 C67.0692708,14.406 67.2960708,12.9864 67.2960708,11.5416 C67.2960708,10.0632 67.0692708,8.6352 66.6156708,7.2576 C66.1620708,5.88 65.4396708,4.6536 64.4484708,3.5784 C63.4572708,2.5032 62.1720708,1.638 60.5928708,0.9828 C59.0136708,0.3276 57.0984708,0 54.8472708,0 L38.6184708,0 Z" id="形状"></path>
                <polygon id="路径" points="72.5497416 0 72.5497416 35.9856 80.4625416 35.9856 80.4625416 0"></polygon>
            </g>
        </g>
        <path d="M31.9716312,58.922916 C28.7411434,58.922916 25.1325516,58.922916 21.1458558,58.922916 C15.165812,58.922916 15.165812,69.1881073 21.1458558,69.1881073 C25.1325516,69.1881073 28.7411434,69.1881073 31.9716312,69.1881073 L31.9716312,58.922916 Z M31.9716312,74.922916 C28.7411434,74.922916 25.1325516,74.922916 21.1458558,74.922916 C15.165812,74.922916 15.165812,85.1881073 21.1458558,85.1881073 C25.1325516,85.1881073 28.7411434,85.1881073 31.9716312,85.1881073 L31.9716312,74.922916 Z M31.9716312,90.922916 C28.7411434,90.922916 25.1325516,90.922916 21.1458558,90.922916 C15.165812,90.922916 15.165812,101.188107 21.1458558,101.188107 C25.1325516,101.188107 28.7411434,101.188107 31.9716312,101.188107 L31.9716312,90.922916 Z M31.9716312,106.922916 C28.7411434,106.922916 25.1325516,106.922916 21.1458558,106.922916 C15.165812,106.922916 15.165812,117.188107 21.1458558,117.188107 C25.1325516,117.188107 28.7411434,117.188107 31.9716312,117.188107 L31.9716312,106.922916 Z" id="形状结合" fill="#00CCFE"></path>
        <path d="M176.971631,85.922916 C173.741143,85.922916 170.132552,85.922916 166.145856,85.922916 C160.165812,85.922916 160.165812,96.1881073 166.145856,96.1881073 C170.132552,96.1881073 173.741143,96.1881073 176.971631,96.1881073 L176.971631,85.922916 Z M176.971631,100.922916 C173.741143,100.922916 170.132552,100.922916 166.145856,100.922916 C160.165812,100.922916 160.165812,111.188107 166.145856,111.188107 C170.132552,111.188107 173.741143,111.188107 176.971631,111.188107 L176.971631,100.922916 Z M176.971631,115.922916 C173.741143,115.922916 170.132552,115.922916 166.145856,115.922916 C160.165812,115.922916 160.165812,126.188107 166.145856,126.188107 C170.132552,126.188107 173.741143,126.188107 176.971631,126.188107 L176.971631,115.922916 Z M176.971631,130.922916 C173.741143,130.922916 170.132552,130.922916 166.145856,130.922916 C160.165812,130.922916 160.165812,141.188107 166.145856,141.188107 C170.132552,141.188107 173.741143,141.188107 176.971631,141.188107 L176.971631,130.922916 Z" id="形状结合备份" fill="#05C8C8" transform="translate(169.316227, 113.555512) scale(-1, 1) translate(-169.316227, -113.555512) "></path>
    </g>
</svg>