<?xml version="1.0" encoding="UTF-8"?>
<svg width="192px" height="192px" viewBox="0 0 192 192" version="1.1" xmlns="http://www.w3.org/2000/svg" xmlns:xlink="http://www.w3.org/1999/xlink">
    <title>ValueConvert.AutoMappingRule	候选键映射</title>
    <g id="ValueConvert.AutoMappingRule-候选键映射" stroke="none" stroke-width="1" fill="none" fill-rule="evenodd">
        <g id="值转换" transform="translate(13.000000, 19.000000)">
            <g id="转换" fill="#3B71E9" fill-rule="nonzero">
                <path d="M92.522839,1.55902576 C95.0069554,2.06740572 97.4872205,2.71443485 99.9058639,3.45774797 C102.324507,4.20106109 104.673827,5.07146931 106.984633,6.04586418 C109.295439,7.02025906 111.536921,8.1024923 113.716781,9.2887122 C115.896641,10.4749321 118.018731,11.7651389 120.063794,13.1400757 C128.262655,18.6784482 135.322705,25.7385345 140.861048,33.9374383 C142.24368,35.9825124 143.556988,38.120019 144.712391,40.2883366 C145.867794,42.4566542 146.992387,44.7366614 147.955222,47.0243714 C148.918058,49.3120814 149.803867,51.7114808 150.547176,54.099326 C151.290486,56.4871713 151.937511,58.9982604 152.445889,61.4823897 C152.959249,64.0109674 153.344872,66.5638068 153.601292,69.1311976 C154.132903,74.3684338 154.132903,79.646038 153.601292,84.8832742 C153.344872,87.4506649 152.959249,90.0035043 152.445889,92.5320819 C151.937511,95.0123599 151.290486,97.4964895 150.547176,99.9151457 C149.803867,102.333802 148.933463,104.686985 147.955222,106.9901 C146.019712,111.571775 143.643836,115.954656 140.861048,120.077033 C135.322705,128.275937 128.262655,135.336024 120.063794,140.874396 C118.018731,142.257036 115.881236,143.570351 113.716781,144.725759 C111.552326,145.881168 109.268479,147.001915 106.984633,147.968607 C104.700786,148.9353 102.293697,149.813411 99.9058639,150.560575 C97.518031,151.30774 95.0069552,151.950917 92.522839,152.459297 C90.0387228,152.967677 87.439066,153.364368 84.8779226,153.614706 C82.2607088,153.875067 79.632055,154.003608 77.0019256,153.999923 C74.3717963,154.003608 71.7431424,153.875067 69.1259287,153.614706 C64.0248956,153.116306 58.9889097,152.092842 54.0979873,150.560575 C46.9406673,148.333185 40.1480329,145.069849 33.9362054,140.874396 C25.7384416,135.334694 18.6786251,128.27484 13.1389519,120.077033 C11.7563197,118.031959 10.4430116,115.894453 9.28760854,113.726135 C8.13220552,111.557817 7.00761329,109.27781 6.04092615,106.9901 C4.07721578,102.328685 2.57444733,97.4862619 1.55411127,92.5320819 C1.04103293,90.0034544 0.655411855,87.4506293 0.398708392,84.8832742 C-0.132902797,79.646038 -0.132902797,74.3684338 0.398708392,69.1311976 C0.65541185,66.5638425 1.04103292,64.0110173 1.55411127,61.4823897 C2.06248855,59.0021117 2.70951429,56.5179821 3.45282351,54.099326 C4.19613273,51.68067 5.06653639,49.3274868 6.04092615,47.0243714 C7.01531592,44.7212561 8.09754348,42.4720598 9.28760854,40.2883366 C10.4776736,38.1046134 11.7640223,35.9825122 13.1389519,33.9374383 C18.6786251,25.7396315 25.7384416,18.679778 33.9362054,13.1400757 C35.9851199,11.7574363 38.1226155,10.4441213 40.2870705,9.2887122 C42.4515254,8.13330311 44.7353719,7.01255639 47.0192184,6.04586418 C51.6798532,4.08007049 56.522457,2.57723008 61.477161,1.55902576 C64.0050811,1.04202829 66.5580935,0.656374829 69.1259287,0.403616677 C76.9384751,-0.395787339 84.827065,-0.00622528672 92.522839,1.55902576 Z M90.3052906,12.3363085 C83.7089129,10.994664 76.9472644,10.6607535 70.250796,11.3459573 C68.0497944,11.5626073 65.8614981,11.8931676 63.6947094,12.3363085 C59.4478203,13.2090555 55.2970171,14.497205 51.3021872,16.1821719 C49.3446045,17.0107656 47.3870218,17.9714062 45.5317747,18.9617573 C43.6765276,19.9521084 41.8443885,21.0778076 40.088176,22.2629277 C33.0615214,27.0112463 27.0102501,33.0625523 22.2619587,40.0892474 C21.0834477,41.8421688 19.9808631,43.6611135 18.9608073,45.5328772 C17.9407516,47.4046409 17.0131279,49.3325244 16.1779367,51.3066242 C15.3427455,53.2807241 14.5966852,55.2977393 13.959563,57.3708741 C13.3224408,59.4440089 12.7678473,61.5732639 12.3320954,63.6992175 C11.8923139,65.8666137 11.5617816,68.0547506 11.3417501,70.2553419 C10.8860833,74.7444037 10.8860833,79.2680667 11.3417501,83.7571285 C11.5617816,85.9577197 11.8923139,88.1458566 12.3320954,90.3132528 C13.2066691,94.5596949 14.4947564,98.7103449 16.1779367,102.705846 C17.0065257,104.666741 17.9704619,106.621034 18.9608073,108.479593 C19.9511528,110.338152 21.0768454,112.170301 22.2619587,113.923223 C27.0102501,120.949918 33.0615213,127.001224 40.088176,131.749543 C45.4125996,135.345647 51.2348576,138.142794 57.3697034,140.051986 C61.5619226,141.365358 65.8784819,142.242614 70.250796,142.669814 C72.4941221,142.89298 74.747254,143.003158 77.0016505,143 C79.2560471,143.003158 81.509179,142.89298 83.7525051,142.669814 C85.9477708,142.455238 88.1760481,142.115217 90.3052906,141.679463 C92.434533,141.243709 94.5868837,140.692413 96.6335976,140.051986 C98.6803115,139.411559 100.743531,138.658892 102.701114,137.830298 C104.658697,137.001705 106.61628,136.041064 108.471527,135.050713 C110.326773,134.060362 112.158912,132.934663 113.911824,131.749543 C120.939419,127.002364 126.99089,120.950858 131.738041,113.923223 C134.123288,110.389755 136.159753,106.632998 137.818762,102.705846 C138.657254,100.731746 139.403315,98.7147313 140.040437,96.6415963 C140.677559,94.5684614 141.232153,92.4392064 141.667905,90.3132528 C142.107928,88.1458994 142.438462,85.9577503 142.65825,83.7571285 C143.113917,79.2680667 143.113917,74.7444037 142.65825,70.2553419 C142.438462,68.0547201 142.107928,65.8665709 141.667905,63.6992175 C141.232153,61.5699628 140.677559,59.4175996 140.040437,57.3708741 C139.403315,55.3241485 138.64405,53.2675195 137.818762,51.3066242 C136.993474,49.3457289 136.029538,47.3914361 135.039193,45.5328772 C134.048847,43.6743183 132.923155,41.8421689 131.738041,40.0892474 C126.99089,33.061612 120.939419,27.0101065 113.911824,22.2629277 C112.158913,21.0844099 110.339978,19.9785177 108.471527,18.9617573 C106.603075,17.9449969 104.681805,17.0173679 102.701114,16.1821719 C100.720423,15.3469759 98.7067205,14.6009113 96.6335976,13.9637855 C94.5604747,13.3266596 92.4345332,12.7720629 90.3052906,12.3363085 Z" id="形状结合"></path>
                <path d="M42.3163355,84.6021246 C39.8748627,84.5436989 37.5934246,85.812813 36.3555101,87.9180012 C35.1175957,90.0231894 35.1175957,92.6338723 36.3555101,94.7390605 C37.5934246,96.8442487 39.8748627,98.1133628 42.3163355,98.0549372 L107.789171,98.0549372 L103.525734,102.318396 C101.829184,104.015643 101.166973,106.489066 101.788549,108.806952 C102.410125,111.124837 104.221056,112.935043 106.539181,113.555683 C108.857307,114.176322 111.330448,113.513105 113.026998,111.815859 L128.759735,96.0830391 C128.8021,96.0445255 128.836762,96.0021604 128.871424,95.9636468 L128.983113,95.8404031 C129.001382,95.8225743 129.018129,95.8032503 129.03318,95.7826328 L129.083248,95.7248623 C129.106629,95.7032756 129.128504,95.6801132 129.148721,95.6555377 L129.214193,95.5785104 C129.257244,95.533486 129.29593,95.484483 129.329734,95.4321586 L129.368247,95.3820909 C129.379999,95.3635325 129.394255,95.3466843 129.410612,95.3320232 L129.472233,95.2472931 L129.545409,95.1548605 L129.57622,95.1047927 L129.60703,95.0585764 C129.623697,95.0274386 129.643025,94.997801 129.6648,94.9699951 C129.687852,94.943124 129.707274,94.9133423 129.722571,94.8814136 C129.737536,94.8451553 129.759826,94.8123766 129.788044,94.7851296 C129.802134,94.755429 129.818892,94.7270692 129.838111,94.7003995 C129.857034,94.6721918 129.873772,94.6425784 129.888178,94.6118182 C129.905229,94.575769 129.928723,94.5431385 129.957503,94.5155341 L129.980611,94.4654664 C130.003993,94.4242463 130.022108,94.3802534 130.034529,94.33452 C130.046018,94.3015034 130.064397,94.2713082 130.088448,94.2459387 C130.113358,94.205009 130.132781,94.1609833 130.146218,94.1149923 C130.147676,94.1073585 130.147676,94.099518 130.146218,94.0918842 C130.156205,94.0667801 130.167783,94.0423385 130.180881,94.0187082 C130.194036,93.9951076 130.205616,93.9706623 130.215543,93.9455323 L130.26561,93.7953291 L130.296421,93.7144506 C130.296421,93.687491 130.319529,93.6566801 130.327232,93.6335719 C130.334934,93.6104638 130.327232,93.5873556 130.354191,93.5680987 L130.377299,93.506477 C130.390142,93.4657345 130.405579,93.4258555 130.423515,93.3870847 L130.446623,93.3254628 C130.448722,93.3062632 130.448722,93.286892 130.446623,93.2676924 C130.444612,93.2484881 130.444612,93.2291262 130.446623,93.2099219 L130.500542,93.0135023 C130.507667,92.9818031 130.507667,92.9489176 130.500542,92.9172183 L130.52365,92.8170828 L130.546758,92.7169474 C130.544865,92.7016001 130.544865,92.6860783 130.546758,92.670731 C130.549128,92.6476836 130.549128,92.6244539 130.546758,92.6014065 C130.566904,92.5311611 130.578541,92.4587506 130.58142,92.3857301 C130.579386,92.3652398 130.579386,92.3445986 130.58142,92.3241083 C130.583463,92.3023317 130.583463,92.2804117 130.58142,92.2586351 C130.59069,92.1934901 130.59069,92.1273606 130.58142,92.0622156 C130.579649,92.0352851 130.579649,92.0082674 130.58142,91.9813369 C130.583272,91.9544092 130.583272,91.927386 130.58142,91.9004583 C130.5797,91.8786678 130.5797,91.8567756 130.58142,91.8349851 C130.583749,91.8042182 130.583749,91.7733193 130.58142,91.7425524 L130.58142,91.5807952 L130.58142,91.4190379 C130.588373,91.3100531 130.588373,91.2006567 130.58142,91.091672 C130.589554,91.0380596 130.589554,90.983527 130.58142,90.9299147 C130.588373,90.876239 130.588373,90.8218332 130.58142,90.7681575 C130.58345,90.7348098 130.58345,90.7013696 130.58142,90.668022 C130.579636,90.6359521 130.579636,90.6038078 130.58142,90.571738 C130.583463,90.5499614 130.583463,90.5280414 130.58142,90.5062648 C130.579152,90.4844993 130.579152,90.4625571 130.58142,90.4407916 L130.58142,90.3368048 C130.585525,90.3009759 130.585525,90.2647955 130.58142,90.2289666 C130.583353,90.2136218 130.583353,90.1980951 130.58142,90.1827503 C130.576954,90.1598579 130.576954,90.1363181 130.58142,90.1134257 L130.558312,90.0132903 L130.535204,89.9131548 C130.528079,89.8814555 130.528079,89.84857 130.535204,89.8168708 L130.481285,89.6204512 C130.478785,89.6012756 130.478785,89.5818564 130.481285,89.5626807 C130.483385,89.5434811 130.483385,89.5241098 130.481285,89.5049102 C130.467142,89.4427291 130.443775,89.3830139 130.411961,89.3277476 L130.388853,89.269977 C130.381253,89.2463533 130.372251,89.223204 130.361894,89.2006526 L130.331083,89.1197739 C130.331083,89.0928144 130.307975,89.0620034 130.300272,89.0388953 L130.250205,88.8925434 C130.24057,88.8672875 130.228981,88.8428214 130.215543,88.8193676 C130.202445,88.7957372 130.190867,88.7712956 130.180881,88.7461916 L130.15007,88.6653131 C130.15007,88.6383535 130.126962,88.6075426 130.119259,88.5844344 L130.119259,88.5613263 C130.105321,88.5286532 130.085769,88.4986733 130.061489,88.4727448 C130.062802,88.4599405 130.062802,88.4470355 130.061489,88.4342312 C130.036579,88.3933015 130.017156,88.3492758 130.003719,88.3032848 C129.985722,88.2678021 129.962337,88.2353222 129.934395,88.2070008 C129.934395,88.1723386 129.899733,88.1453791 129.884327,88.1184194 L129.838111,88.0336894 C129.820579,87.9979265 129.797142,87.9653756 129.768787,87.9374053 C129.753395,87.9075999 129.735349,87.879242 129.714868,87.8526754 C129.692693,87.8251574 129.673339,87.7954813 129.657098,87.7640939 C129.647365,87.7462147 129.635745,87.7294296 129.622436,87.7140262 C129.610319,87.6985462 129.599984,87.6817512 129.591625,87.6639585 C129.567306,87.620313 129.538938,87.5790503 129.506895,87.540715 C129.4911,87.5241228 129.476914,87.5060688 129.464531,87.4867959 C129.448816,87.4729306 129.434615,87.4574386 129.422166,87.4405794 L129.379801,87.3905117 L129.322031,87.3173359 L129.260409,87.2403086 C129.243209,87.2167523 129.223871,87.1948348 129.202639,87.1748354 C129.180512,87.155722 129.161079,87.133697 129.144869,87.1093623 C129.125661,87.0924413 129.108821,87.0730097 129.094802,87.0515918 L129.048586,86.9938212 C129.007616,86.9551133 128.969032,86.9139566 128.933045,86.8705777 L128.825208,86.7511854 L128.701965,86.6356445 L128.578722,86.5201037 L128.520952,86.4738872 L128.45933,86.4238195 C128.436933,86.4066441 128.416292,86.3872928 128.397709,86.366049 L128.332236,86.3082786 C128.288179,86.2668539 128.240487,86.2294736 128.189736,86.196589 C128.175439,86.179861 128.158532,86.1655547 128.139669,86.1542241 L128.089601,86.1157104 L128.004872,86.0502372 L127.912439,85.9809127 L127.862372,85.9501018 L127.816156,85.9192908 C127.785288,85.9021728 127.755685,85.8828667 127.727575,85.8615204 C127.699588,85.8399989 127.669972,85.8206839 127.638994,85.8037499 C127.603767,85.7869312 127.571301,85.7648546 127.54271,85.7382768 L127.454129,85.6882091 L127.365549,85.6381414 C127.329955,85.6219677 127.297391,85.5998239 127.269265,85.5726682 L127.219197,85.54956 C127.178516,85.5241785 127.134424,85.504726 127.088252,85.4917895 L127.061292,85.4917895 C127.028996,85.4788202 126.999066,85.4606016 126.972712,85.4378704 C126.930665,85.4124771 126.885301,85.3930353 126.837914,85.3801 L126.814806,85.3801 C126.787786,85.3718032 126.761909,85.3601586 126.73778,85.3454377 L126.660753,85.3146269 L126.514402,85.2645592 L126.433523,85.2337482 L126.348794,85.2029372 L126.287172,85.1798291 L126.2217,85.156721 C126.180764,85.1460406 126.14082,85.131867 126.102308,85.1143559 L126.040686,85.0912478 L125.979065,85.0912478 C125.959932,85.0943405 125.940427,85.0943405 125.921295,85.0912478 L125.724876,85.0411801 L125.605485,85.0411801 L125.50535,85.0180718 L125.397512,84.9949636 L125.281972,84.9949636 C125.211727,84.9748176 125.139317,84.9631802 125.066297,84.9603014 L124.9315,84.9603014 C124.866295,84.9519194 124.800286,84.9519194 124.735081,84.9603014 L124.095758,84.9603014 L42.3163355,84.6021246 Z" id="路径" transform="translate(83.007724, 99.192277) scale(-1, 1) translate(-83.007724, -99.192277) "></path>
                <path d="M57.6947492,40.1573902 C55.9138291,40.1536992 54.20538,40.862321 52.9498942,42.125437 L37.2133057,57.8582567 L37.0977654,57.9853518 C37.0615685,58.0261029 37.0243265,58.0659136 36.9860765,58.1047441 L36.9398603,58.158663 C36.9247548,58.1792372 36.9080111,58.198557 36.8897929,58.2164335 C36.8735833,58.2407683 36.8541496,58.2627933 36.8320227,58.2819067 C36.8097555,58.300878 36.7903035,58.3229237 36.7742526,58.3473799 C36.731237,58.3924344 36.6925533,58.441434 36.6587123,58.4937317 L36.6163475,58.5437994 L36.5739827,58.5900159 L36.5085099,58.6785972 L36.4391857,58.7710299 C36.4308271,58.7888226 36.4204918,58.8056177 36.408375,58.8210976 C36.395066,58.8365011 36.3834456,58.8532861 36.3737128,58.8711653 C36.3566294,58.9020541 36.3373217,58.9316593 36.3159428,58.9597467 C36.2945976,58.9865081 36.2752869,59.0148306 36.2581725,59.0444767 C36.2429278,59.081722 36.2207048,59.1157102 36.1926997,59.1446121 L36.1426323,59.2331934 C36.1243426,59.2617869 36.1076286,59.2913581 36.0925648,59.3217749 C36.07626,59.3593838 36.0527031,59.3934106 36.0232406,59.4219103 L36.0001326,59.4681266 C35.9768536,59.5098879 35.9575134,59.5537259 35.9423624,59.599073 C35.9308743,59.6320896 35.9124947,59.6622849 35.8884436,59.6876544 C35.8638335,59.7287399 35.844428,59.7727261 35.8306735,59.8186008 L35.8306735,59.841709 C35.8220935,59.8667786 35.811799,59.8912283 35.7998627,59.9148848 C35.7857696,59.9379911 35.7741514,59.9625186 35.7652007,59.9880608 L35.7151332,60.1344125 C35.706156,60.162405 35.6945502,60.1894852 35.680471,60.2152911 L35.6496604,60.2961698 L35.622701,60.361643 L35.5957416,60.4271162 C35.5855358,60.4681965 35.571347,60.5081833 35.5533768,60.5465084 L35.5302687,60.6081302 C35.5282573,60.6273345 35.5282573,60.6466964 35.5302687,60.6659007 C35.5340068,60.6849761 35.5340068,60.7045957 35.5302687,60.7236711 L35.4802013,60.9200906 C35.4732021,60.9518038 35.4732021,60.9846617 35.4802013,61.0163748 C35.4802013,61.0548884 35.4802013,61.0972534 35.4532419,61.1319157 L35.4532419,61.2166457 C35.4551354,61.231993 35.4551354,61.2475148 35.4532419,61.262862 C35.4506979,61.2859002 35.4506979,61.3091484 35.4532419,61.3321866 C35.4361667,61.4016365 35.4258484,61.4725751 35.4224311,61.5440116 C35.4245934,61.5657824 35.4245934,61.587714 35.4224311,61.6094848 C35.4182713,61.631111 35.4182713,61.6533318 35.4224311,61.674958 C35.415698,61.7402233 35.415698,61.8061122 35.4224311,61.8713775 C35.4241001,61.8970261 35.4241001,61.9227561 35.4224311,61.9484048 C35.4208121,61.97534 35.4208121,62.0023482 35.4224311,62.0292834 C35.4242582,62.0523555 35.4242582,62.0755358 35.4224311,62.0986079 C35.4187204,62.129307 35.4187204,62.1603414 35.4224311,62.1910406 L35.4224311,62.5107038 C35.4145738,62.6196844 35.4145738,62.7290892 35.4224311,62.8380697 C35.415698,62.8813985 35.415698,62.9256873 35.4224311,62.9690161 C35.4242864,62.9843657 35.4242864,62.9998828 35.4224311,63.0152324 C35.4134536,63.0687778 35.4134536,63.1234443 35.4224311,63.1769897 C35.4205548,63.209057 35.4205548,63.2412065 35.4224311,63.2732738 C35.4242396,63.305343 35.4242396,63.3374886 35.4224311,63.3695578 C35.4203881,63.3913344 35.4203881,63.4132544 35.4224311,63.435031 C35.4246995,63.4567965 35.4246995,63.4787387 35.4224311,63.5005042 C35.4249504,63.5364061 35.4249504,63.5724405 35.4224311,63.6083424 C35.4200887,63.6429651 35.4200887,63.6777065 35.4224311,63.7123292 C35.4205376,63.7276765 35.4205376,63.7431982 35.4224311,63.7585455 C35.4248006,63.7815929 35.4248006,63.8048226 35.4224311,63.8278701 L35.4455391,63.9126002 L35.4455391,64.0435465 C35.4435229,64.0601748 35.4435229,64.0769859 35.4455391,64.0936142 C35.4472887,64.10897 35.4472887,64.1244747 35.4455391,64.1398305 L35.4956065,64.33625 C35.4981071,64.3554257 35.4981071,64.3748449 35.4956065,64.3940206 C35.4918685,64.4130959 35.4918685,64.4327155 35.4956065,64.4517909 C35.5073615,64.5153099 35.5294808,64.5764637 35.5610794,64.6328051 L35.5841876,64.6982783 L35.6072956,64.7637515 C35.6072956,64.7868596 35.6304036,64.8138192 35.6419576,64.84463 C35.6419576,64.8715895 35.668917,64.9024005 35.6766198,64.9255087 L35.7266872,65.0718605 C35.7352478,65.0981875 35.7455405,65.1239194 35.7574979,65.1488877 C35.7693704,65.1725737 35.7796631,65.1970191 35.7883087,65.2220637 L35.8191195,65.299091 C35.8306408,65.3229371 35.8409247,65.3473614 35.8499301,65.3722668 L35.8499301,65.3992264 C35.8608352,65.4325148 35.8792886,65.4628313 35.903849,65.4878077 L35.9308084,65.5378754 C35.9558809,65.5787199 35.9753138,65.6227679 35.9885786,65.6688218 C36.0049441,65.7043073 36.027067,65.7368412 36.0540514,65.7651059 L36.1041189,65.8536872 L36.1503349,65.9384173 C36.1676224,65.9754711 36.1910621,66.0093286 36.2196591,66.0385527 C36.2366703,66.0694849 36.2559814,66.0990954 36.2774293,66.127134 C36.3000676,66.1543124 36.3194556,66.1840408 36.3351994,66.2157155 L36.3698616,66.2657832 C36.3827189,66.2815314 36.3943092,66.298273 36.4045236,66.3158509 C36.4276902,66.35809 36.4547682,66.3980625 36.4854019,66.4352432 L36.5316179,66.4930136 L36.5739827,66.5430814 C36.5859392,66.5603399 36.600192,66.5758884 36.6163475,66.5892977 C36.6335126,66.6164776 36.6528313,66.642236 36.6741176,66.6663249 C36.6954364,66.6890157 36.7147644,66.7134979 36.7318878,66.7395009 C36.7486003,66.7634447 36.7679816,66.7854103 36.789658,66.8049741 L36.8474281,66.8704473 L36.8974955,66.9282177 L36.9475629,66.9859882 C36.9899278,67.0245018 37.0245898,67.0668668 37.059252,67.1053805 L37.1709409,67.2247726 L37.2941839,67.3403136 C37.3348972,67.3738279 37.3734852,67.4098435 37.4097242,67.4481517 L37.4674944,67.4982195 L37.5291158,67.5482872 C37.5527289,67.5654164 37.5746527,67.584761 37.5945887,67.6060576 C37.6158672,67.6274095 37.639074,67.6467486 37.6639129,67.6638281 C37.70797,67.7052528 37.7556619,67.7426331 37.8064126,67.7755176 L37.85648,67.8178826 C37.8749032,67.8298172 37.8917282,67.8440539 37.9065475,67.8602477 L37.9951283,67.9257208 L38.0837093,67.991194 L38.1337768,68.022005 L38.1838442,68.0566672 C38.2152313,68.0729088 38.2449073,68.0922628 38.2724251,68.1144376 L38.3571547,68.1722081 C38.3944445,68.1873676 38.428448,68.2096008 38.4572896,68.2376813 L38.5458704,68.287749 L38.6344514,68.3378166 C38.6700449,68.3539903 38.7026092,68.3761341 38.7307349,68.4032898 L38.7808024,68.4263981 C38.8214839,68.4517796 38.865576,68.4712321 38.911748,68.4841685 L38.9348562,68.4841685 C38.9664042,68.4963276 38.9952095,68.5146584 39.0195857,68.5380876 C39.0616326,68.5634809 39.1069967,68.5829228 39.1543827,68.5958581 L39.1851934,68.5958581 L39.258369,68.6266689 L39.3315445,68.6574799 L39.4778955,68.7075476 L39.5587738,68.7422098 L39.639652,68.7730208 L39.7051248,68.7961289 L39.7744489,68.8192372 L39.8899893,68.8616021 L39.9554622,68.8847104 C39.9745947,68.8878031 39.9940997,68.8878031 40.0132322,68.8847104 C40.0323167,68.8810674 40.051918,68.8810674 40.0710024,68.8847104 L40.2712722,68.9347781 L40.3868126,68.9347781 L40.4869475,68.9578862 L40.5870823,68.9809944 L40.6332985,68.9809944 C40.6575501,68.9846937 40.6822224,68.9846937 40.706474,68.9809944 C40.775473,69.0008391 40.8465725,69.0124736 40.9182979,69.0156567 L41.053095,69.0156567 C41.1182995,69.0240388 41.1843089,69.0240388 41.2495135,69.0156567 L123.610489,69.0156567 C126.051962,69.0740824 128.3334,67.8049683 129.571314,65.6997801 C130.809229,63.5945919 130.809229,60.983909 129.571314,58.8787208 C128.3334,56.7735326 126.051962,55.5044185 123.610489,55.5628441 L58.1376536,55.5628441 L62.4010906,51.2993848 C64.3241899,49.378788 64.9003061,46.4885215 63.8605919,43.9773415 C62.8208778,41.4661615 60.3702813,39.8290705 57.6523844,39.8300241 L57.6947492,40.1573902 Z" id="路径" transform="translate(82.957724, 54.425984) scale(-1, 1) translate(-82.957724, -54.425984) "></path>
            </g>
            <g id="值" transform="translate(91.000000, 79.000000)">
                <circle id="椭圆形" stroke="#FFFFFF" stroke-width="3" fill="#00CCFE" cx="37.5" cy="37.5" r="36"></circle>
                <circle id="椭圆形" fill="#FFFFFF" cx="37.5" cy="37.5" r="27.5"></circle>
                <g id="Key" transform="translate(17.500000, 25.580000)" fill="#3B71E9" fill-rule="nonzero">
                    <polygon id="路径" points="4.32 0 0 0 0 21.42 4.32 21.42 4.32 15.06 5.91 12.63 10.32 21.42 15.18 21.42 8.7 9.18 14.52 0 9.84 0 4.38 8.58 4.32 8.58"></polygon>
                    <path d="M24.3414162,11.52 L20.1114162,11.52 L20.1114162,10.89 C20.1114162,10.51 20.1464162,10.13 20.2164162,9.75 C20.2864162,9.37 20.4014162,9.025 20.5614162,8.715 C20.7214162,8.405 20.9364162,8.155 21.2064162,7.965 C21.4764162,7.775 21.8214162,7.68 22.2414162,7.68 C22.6614162,7.68 23.0064162,7.765 23.2764162,7.935 C23.5464162,8.105 23.7564162,8.355 23.9064162,8.685 C24.0564162,9.015 24.1614162,9.415 24.2214162,9.885 C24.2814162,10.355 24.3214162,10.9 24.3414162,11.52 Z M20.1114162,13.98 L28.3014162,13.98 L28.3014162,13.05 C28.3014162,11.81 28.2214162,10.685 28.0614162,9.675 C27.9014162,8.665 27.6014162,7.805 27.1614162,7.095 C26.7214162,6.385 26.1164162,5.835 25.3464162,5.445 C24.5764162,5.055 23.5914162,4.86 22.3914162,4.86 C20.9914162,4.86 19.8714162,5.09 19.0314162,5.55 C18.1914162,6.01 17.5464162,6.63 17.0964162,7.41 C16.6464162,8.19 16.3464162,9.08 16.1964162,10.08 C16.0464162,11.08 15.9714162,12.12 15.9714162,13.2 C15.9714162,14.22 16.0164162,15.24 16.1064162,16.26 C16.1964162,17.28 16.4414162,18.2 16.8414162,19.02 C17.2414162,19.84 17.8614162,20.5 18.7014162,21 C19.5414162,21.5 20.7114162,21.75 22.2114162,21.75 C24.1914162,21.75 25.6414162,21.26 26.5614162,20.28 C27.4814162,19.3 27.9814162,17.87 28.0614162,15.99 L24.3414162,15.99 C24.2214162,17.01 24.0014162,17.77 23.6814162,18.27 C23.3614162,18.77 22.8514162,19.02 22.1514162,19.02 C21.7714162,19.02 21.4514162,18.915 21.1914162,18.705 C20.9314162,18.495 20.7214162,18.215 20.5614162,17.865 C20.4014162,17.515 20.2864162,17.115 20.2164162,16.665 C20.1464162,16.215 20.1114162,15.75 20.1114162,15.27 L20.1114162,13.98 Z" id="形状"></path>
                    <path d="M31.0428325,23.52 L31.0428325,26.61 L32.7228325,26.61 C33.6828325,26.61 34.4778325,26.54 35.1078325,26.4 C35.7378325,26.26 36.2778325,25.965 36.7278325,25.515 C37.1778325,25.065 37.5678325,24.425 37.8978325,23.595 C38.2278325,22.765 38.5728325,21.68 38.9328325,20.34 L42.8328325,5.28 L38.6928325,5.28 L36.5928325,16.44 L36.5328325,16.44 L34.1328325,5.28 L29.8128325,5.28 L34.3428325,21.42 C34.2828325,22.08 34.0878325,22.61 33.7578325,23.01 C33.4278325,23.41 32.8828325,23.61 32.1228325,23.61 C31.7628325,23.61 31.4028325,23.58 31.0428325,23.52 Z" id="路径"></path>
                </g>
            </g>
        </g>
    </g>
</svg>