<?xml version="1.0" encoding="UTF-8"?>
<svg width="192px" height="192px" viewBox="0 0 192 192" version="1.1" xmlns="http://www.w3.org/2000/svg" xmlns:xlink="http://www.w3.org/1999/xlink">
    <title>ValueConvert.JavaRule	Java规则</title>
    <g id="ValueConvert.JavaRule-Java规则" stroke="none" stroke-width="1" fill="none" fill-rule="evenodd">
        <g id="值转换" transform="translate(14.000000, 19.000000)">
            <g id="转换" fill="#3B71E9" fill-rule="nonzero">
                <path d="M92.522839,1.55902576 C95.0069554,2.06740572 97.4872205,2.71443485 99.9058639,3.45774797 C102.324507,4.20106109 104.673827,5.07146931 106.984633,6.04586418 C109.295439,7.02025906 111.536921,8.1024923 113.716781,9.2887122 C115.896641,10.4749321 118.018731,11.7651389 120.063794,13.1400757 C128.262655,18.6784482 135.322705,25.7385345 140.861048,33.9374383 C142.24368,35.9825124 143.556988,38.120019 144.712391,40.2883366 C145.867794,42.4566542 146.992387,44.7366614 147.955222,47.0243714 C148.918058,49.3120814 149.803867,51.7114808 150.547176,54.099326 C151.290486,56.4871713 151.937511,58.9982604 152.445889,61.4823897 C152.959249,64.0109674 153.344872,66.5638068 153.601292,69.1311976 C154.132903,74.3684338 154.132903,79.646038 153.601292,84.8832742 C153.344872,87.4506649 152.959249,90.0035043 152.445889,92.5320819 C151.937511,95.0123599 151.290486,97.4964895 150.547176,99.9151457 C149.803867,102.333802 148.933463,104.686985 147.955222,106.9901 C146.019712,111.571775 143.643836,115.954656 140.861048,120.077033 C135.322705,128.275937 128.262655,135.336024 120.063794,140.874396 C118.018731,142.257036 115.881236,143.570351 113.716781,144.725759 C111.552326,145.881168 109.268479,147.001915 106.984633,147.968607 C104.700786,148.9353 102.293697,149.813411 99.9058639,150.560575 C97.518031,151.30774 95.0069552,151.950917 92.522839,152.459297 C90.0387228,152.967677 87.439066,153.364368 84.8779226,153.614706 C82.2607088,153.875067 79.632055,154.003608 77.0019256,153.999923 C74.3717963,154.003608 71.7431424,153.875067 69.1259287,153.614706 C64.0248956,153.116306 58.9889097,152.092842 54.0979873,150.560575 C46.9406673,148.333185 40.1480329,145.069849 33.9362054,140.874396 C25.7384416,135.334694 18.6786251,128.27484 13.1389519,120.077033 C11.7563197,118.031959 10.4430116,115.894453 9.28760854,113.726135 C8.13220552,111.557817 7.00761329,109.27781 6.04092615,106.9901 C4.07721578,102.328685 2.57444733,97.4862619 1.55411127,92.5320819 C1.04103293,90.0034544 0.655411855,87.4506293 0.398708392,84.8832742 C-0.132902797,79.646038 -0.132902797,74.3684338 0.398708392,69.1311976 C0.65541185,66.5638425 1.04103292,64.0110173 1.55411127,61.4823897 C2.06248855,59.0021117 2.70951429,56.5179821 3.45282351,54.099326 C4.19613273,51.68067 5.06653639,49.3274868 6.04092615,47.0243714 C7.01531592,44.7212561 8.09754348,42.4720598 9.28760854,40.2883366 C10.4776736,38.1046134 11.7640223,35.9825122 13.1389519,33.9374383 C18.6786251,25.7396315 25.7384416,18.679778 33.9362054,13.1400757 C35.9851199,11.7574363 38.1226155,10.4441213 40.2870705,9.2887122 C42.4515254,8.13330311 44.7353719,7.01255639 47.0192184,6.04586418 C51.6798532,4.08007049 56.522457,2.57723008 61.477161,1.55902576 C64.0050811,1.04202829 66.5580935,0.656374829 69.1259287,0.403616677 C76.9384751,-0.395787339 84.827065,-0.00622528672 92.522839,1.55902576 Z M90.3052906,12.3363085 C83.7089129,10.994664 76.9472644,10.6607535 70.250796,11.3459573 C68.0497944,11.5626073 65.8614981,11.8931676 63.6947094,12.3363085 C59.4478203,13.2090555 55.2970171,14.497205 51.3021872,16.1821719 C49.3446045,17.0107656 47.3870218,17.9714062 45.5317747,18.9617573 C43.6765276,19.9521084 41.8443885,21.0778076 40.088176,22.2629277 C33.0615214,27.0112463 27.0102501,33.0625523 22.2619587,40.0892474 C21.0834477,41.8421688 19.9808631,43.6611135 18.9608073,45.5328772 C17.9407516,47.4046409 17.0131279,49.3325244 16.1779367,51.3066242 C15.3427455,53.2807241 14.5966852,55.2977393 13.959563,57.3708741 C13.3224408,59.4440089 12.7678473,61.5732639 12.3320954,63.6992175 C11.8923139,65.8666137 11.5617816,68.0547506 11.3417501,70.2553419 C10.8860833,74.7444037 10.8860833,79.2680667 11.3417501,83.7571285 C11.5617816,85.9577197 11.8923139,88.1458566 12.3320954,90.3132528 C13.2066691,94.5596949 14.4947564,98.7103449 16.1779367,102.705846 C17.0065257,104.666741 17.9704619,106.621034 18.9608073,108.479593 C19.9511528,110.338152 21.0768454,112.170301 22.2619587,113.923223 C27.0102501,120.949918 33.0615213,127.001224 40.088176,131.749543 C45.4125996,135.345647 51.2348576,138.142794 57.3697034,140.051986 C61.5619226,141.365358 65.8784819,142.242614 70.250796,142.669814 C72.4941221,142.89298 74.747254,143.003158 77.0016505,143 C79.2560471,143.003158 81.509179,142.89298 83.7525051,142.669814 C85.9477708,142.455238 88.1760481,142.115217 90.3052906,141.679463 C92.434533,141.243709 94.5868837,140.692413 96.6335976,140.051986 C98.6803115,139.411559 100.743531,138.658892 102.701114,137.830298 C104.658697,137.001705 106.61628,136.041064 108.471527,135.050713 C110.326773,134.060362 112.158912,132.934663 113.911824,131.749543 C120.939419,127.002364 126.99089,120.950858 131.738041,113.923223 C134.123288,110.389755 136.159753,106.632998 137.818762,102.705846 C138.657254,100.731746 139.403315,98.7147313 140.040437,96.6415963 C140.677559,94.5684614 141.232153,92.4392064 141.667905,90.3132528 C142.107928,88.1458994 142.438462,85.9577503 142.65825,83.7571285 C143.113917,79.2680667 143.113917,74.7444037 142.65825,70.2553419 C142.438462,68.0547201 142.107928,65.8665709 141.667905,63.6992175 C141.232153,61.5699628 140.677559,59.4175996 140.040437,57.3708741 C139.403315,55.3241485 138.64405,53.2675195 137.818762,51.3066242 C136.993474,49.3457289 136.029538,47.3914361 135.039193,45.5328772 C134.048847,43.6743183 132.923155,41.8421689 131.738041,40.0892474 C126.99089,33.061612 120.939419,27.0101065 113.911824,22.2629277 C112.158913,21.0844099 110.339978,19.9785177 108.471527,18.9617573 C106.603075,17.9449969 104.681805,17.0173679 102.701114,16.1821719 C100.720423,15.3469759 98.7067205,14.6009113 96.6335976,13.9637855 C94.5604747,13.3266596 92.4345332,12.7720629 90.3052906,12.3363085 Z" id="形状结合"></path>
                <path d="M35.3163355,84.6021246 C32.8748627,84.5436989 30.5934246,85.812813 29.3555101,87.9180012 C28.1175957,90.0231894 28.1175957,92.6338723 29.3555101,94.7390605 C30.5934246,96.8442487 32.8748627,98.1133628 35.3163355,98.0549372 L100.789171,98.0549372 L96.5257338,102.318396 C94.8291844,104.015643 94.1669734,106.489066 94.7885494,108.806952 C95.4101254,111.124837 97.2210561,112.935043 99.5391814,113.555683 C101.857307,114.176322 104.330448,113.513105 106.026998,111.815859 L121.759735,96.0830391 C121.8021,96.0445255 121.836762,96.0021604 121.871424,95.9636468 L121.983113,95.8404031 C122.001382,95.8225743 122.018129,95.8032503 122.03318,95.7826328 L122.083248,95.7248623 C122.106629,95.7032756 122.128504,95.6801132 122.148721,95.6555377 L122.214193,95.5785104 C122.257244,95.533486 122.29593,95.484483 122.329734,95.4321586 L122.368247,95.3820909 C122.379999,95.3635325 122.394255,95.3466843 122.410612,95.3320232 L122.472233,95.2472931 L122.545409,95.1548605 L122.57622,95.1047927 L122.60703,95.0585764 C122.623697,95.0274386 122.643025,94.997801 122.6648,94.9699951 C122.687852,94.943124 122.707274,94.9133423 122.722571,94.8814136 C122.737536,94.8451553 122.759826,94.8123766 122.788044,94.7851296 C122.802134,94.755429 122.818892,94.7270692 122.838111,94.7003995 C122.857034,94.6721918 122.873772,94.6425784 122.888178,94.6118182 C122.905229,94.575769 122.928723,94.5431385 122.957503,94.5155341 L122.980611,94.4654664 C123.003993,94.4242463 123.022108,94.3802534 123.034529,94.33452 C123.046018,94.3015034 123.064397,94.2713082 123.088448,94.2459387 C123.113358,94.205009 123.132781,94.1609833 123.146218,94.1149923 C123.147676,94.1073585 123.147676,94.099518 123.146218,94.0918842 C123.156205,94.0667801 123.167783,94.0423385 123.180881,94.0187082 C123.194036,93.9951076 123.205616,93.9706623 123.215543,93.9455323 L123.26561,93.7953291 L123.296421,93.7144506 C123.296421,93.687491 123.319529,93.6566801 123.327232,93.6335719 C123.334934,93.6104638 123.327232,93.5873556 123.354191,93.5680987 L123.377299,93.506477 C123.390142,93.4657345 123.405579,93.4258555 123.423515,93.3870847 L123.446623,93.3254628 C123.448722,93.3062632 123.448722,93.286892 123.446623,93.2676924 C123.444612,93.2484881 123.444612,93.2291262 123.446623,93.2099219 L123.500542,93.0135023 C123.507667,92.9818031 123.507667,92.9489176 123.500542,92.9172183 L123.52365,92.8170828 L123.546758,92.7169474 C123.544865,92.7016001 123.544865,92.6860783 123.546758,92.670731 C123.549128,92.6476836 123.549128,92.6244539 123.546758,92.6014065 C123.566904,92.5311611 123.578541,92.4587506 123.58142,92.3857301 C123.579386,92.3652398 123.579386,92.3445986 123.58142,92.3241083 C123.583463,92.3023317 123.583463,92.2804117 123.58142,92.2586351 C123.59069,92.1934901 123.59069,92.1273606 123.58142,92.0622156 C123.579649,92.0352851 123.579649,92.0082674 123.58142,91.9813369 C123.583272,91.9544092 123.583272,91.927386 123.58142,91.9004583 C123.5797,91.8786678 123.5797,91.8567756 123.58142,91.8349851 C123.583749,91.8042182 123.583749,91.7733193 123.58142,91.7425524 L123.58142,91.5807952 L123.58142,91.4190379 C123.588373,91.3100531 123.588373,91.2006567 123.58142,91.091672 C123.589554,91.0380596 123.589554,90.983527 123.58142,90.9299147 C123.588373,90.876239 123.588373,90.8218332 123.58142,90.7681575 C123.58345,90.7348098 123.58345,90.7013696 123.58142,90.668022 C123.579636,90.6359521 123.579636,90.6038078 123.58142,90.571738 C123.583463,90.5499614 123.583463,90.5280414 123.58142,90.5062648 C123.579152,90.4844993 123.579152,90.4625571 123.58142,90.4407916 L123.58142,90.3368048 C123.585525,90.3009759 123.585525,90.2647955 123.58142,90.2289666 C123.583353,90.2136218 123.583353,90.1980951 123.58142,90.1827503 C123.576954,90.1598579 123.576954,90.1363181 123.58142,90.1134257 L123.558312,90.0132903 L123.535204,89.9131548 C123.528079,89.8814555 123.528079,89.84857 123.535204,89.8168708 L123.481285,89.6204512 C123.478785,89.6012756 123.478785,89.5818564 123.481285,89.5626807 C123.483385,89.5434811 123.483385,89.5241098 123.481285,89.5049102 C123.467142,89.4427291 123.443775,89.3830139 123.411961,89.3277476 L123.388853,89.269977 C123.381253,89.2463533 123.372251,89.223204 123.361894,89.2006526 L123.331083,89.1197739 C123.331083,89.0928144 123.307975,89.0620034 123.300272,89.0388953 L123.250205,88.8925434 C123.24057,88.8672875 123.228981,88.8428214 123.215543,88.8193676 C123.202445,88.7957372 123.190867,88.7712956 123.180881,88.7461916 L123.15007,88.6653131 C123.15007,88.6383535 123.126962,88.6075426 123.119259,88.5844344 L123.119259,88.5613263 C123.105321,88.5286532 123.085769,88.4986733 123.061489,88.4727448 C123.062802,88.4599405 123.062802,88.4470355 123.061489,88.4342312 C123.036579,88.3933015 123.017156,88.3492758 123.003719,88.3032848 C122.985722,88.2678021 122.962337,88.2353222 122.934395,88.2070008 C122.934395,88.1723386 122.899733,88.1453791 122.884327,88.1184194 L122.838111,88.0336894 C122.820579,87.9979265 122.797142,87.9653756 122.768787,87.9374053 C122.753395,87.9075999 122.735349,87.879242 122.714868,87.8526754 C122.692693,87.8251574 122.673339,87.7954813 122.657098,87.7640939 C122.647365,87.7462147 122.635745,87.7294296 122.622436,87.7140262 C122.610319,87.6985462 122.599984,87.6817512 122.591625,87.6639585 C122.567306,87.620313 122.538938,87.5790503 122.506895,87.540715 C122.4911,87.5241228 122.476914,87.5060688 122.464531,87.4867959 C122.448816,87.4729306 122.434615,87.4574386 122.422166,87.4405794 L122.379801,87.3905117 L122.322031,87.3173359 L122.260409,87.2403086 C122.243209,87.2167523 122.223871,87.1948348 122.202639,87.1748354 C122.180512,87.155722 122.161079,87.133697 122.144869,87.1093623 C122.125661,87.0924413 122.108821,87.0730097 122.094802,87.0515918 L122.048586,86.9938212 C122.007616,86.9551133 121.969032,86.9139566 121.933045,86.8705777 L121.825208,86.7511854 L121.701965,86.6356445 L121.578722,86.5201037 L121.520952,86.4738872 L121.45933,86.4238195 C121.436933,86.4066441 121.416292,86.3872928 121.397709,86.366049 L121.332236,86.3082786 C121.288179,86.2668539 121.240487,86.2294736 121.189736,86.196589 C121.175439,86.179861 121.158532,86.1655547 121.139669,86.1542241 L121.089601,86.1157104 L121.004872,86.0502372 L120.912439,85.9809127 L120.862372,85.9501018 L120.816156,85.9192908 C120.785288,85.9021728 120.755685,85.8828667 120.727575,85.8615204 C120.699588,85.8399989 120.669972,85.8206839 120.638994,85.8037499 C120.603767,85.7869312 120.571301,85.7648546 120.54271,85.7382768 L120.454129,85.6882091 L120.365549,85.6381414 C120.329955,85.6219677 120.297391,85.5998239 120.269265,85.5726682 L120.219197,85.54956 C120.178516,85.5241785 120.134424,85.504726 120.088252,85.4917895 L120.061292,85.4917895 C120.028996,85.4788202 119.999066,85.4606016 119.972712,85.4378704 C119.930665,85.4124771 119.885301,85.3930353 119.837914,85.3801 L119.814806,85.3801 C119.787786,85.3718032 119.761909,85.3601586 119.73778,85.3454377 L119.660753,85.3146269 L119.514402,85.2645592 L119.433523,85.2337482 L119.348794,85.2029372 L119.287172,85.1798291 L119.2217,85.156721 C119.180764,85.1460406 119.14082,85.131867 119.102308,85.1143559 L119.040686,85.0912478 L118.979065,85.0912478 C118.959932,85.0943405 118.940427,85.0943405 118.921295,85.0912478 L118.724876,85.0411801 L118.605485,85.0411801 L118.50535,85.0180718 L118.397512,84.9949636 L118.281972,84.9949636 C118.211727,84.9748176 118.139317,84.9631802 118.066297,84.9603014 L117.9315,84.9603014 C117.866295,84.9519194 117.800286,84.9519194 117.735081,84.9603014 L117.095758,84.9603014 L35.3163355,84.6021246 Z" id="路径" transform="translate(76.007724, 99.192277) scale(-1, 1) translate(-76.007724, -99.192277) "></path>
                <path d="M50.6947492,40.1573902 C48.9138291,40.1536992 47.20538,40.862321 45.9498942,42.125437 L30.2133057,57.8582567 L30.0977654,57.9853518 C30.0615685,58.0261029 30.0243265,58.0659136 29.9860765,58.1047441 L29.9398603,58.158663 C29.9247548,58.1792372 29.9080111,58.198557 29.8897929,58.2164335 C29.8735833,58.2407683 29.8541496,58.2627933 29.8320227,58.2819067 C29.8097555,58.300878 29.7903035,58.3229237 29.7742526,58.3473799 C29.731237,58.3924344 29.6925533,58.441434 29.6587123,58.4937317 L29.6163475,58.5437994 L29.5739827,58.5900159 L29.5085099,58.6785972 L29.4391857,58.7710299 C29.4308271,58.7888226 29.4204918,58.8056177 29.408375,58.8210976 C29.395066,58.8365011 29.3834456,58.8532861 29.3737128,58.8711653 C29.3566294,58.9020541 29.3373217,58.9316593 29.3159428,58.9597467 C29.2945976,58.9865081 29.2752869,59.0148306 29.2581725,59.0444767 C29.2429278,59.081722 29.2207048,59.1157102 29.1926997,59.1446121 L29.1426323,59.2331934 C29.1243426,59.2617869 29.1076286,59.2913581 29.0925648,59.3217749 C29.07626,59.3593838 29.0527031,59.3934106 29.0232406,59.4219103 L29.0001326,59.4681266 C28.9768536,59.5098879 28.9575134,59.5537259 28.9423624,59.599073 C28.9308743,59.6320896 28.9124947,59.6622849 28.8884436,59.6876544 C28.8638335,59.7287399 28.844428,59.7727261 28.8306735,59.8186008 L28.8306735,59.841709 C28.8220935,59.8667786 28.811799,59.8912283 28.7998627,59.9148848 C28.7857696,59.9379911 28.7741514,59.9625186 28.7652007,59.9880608 L28.7151332,60.1344125 C28.706156,60.162405 28.6945502,60.1894852 28.680471,60.2152911 L28.6496604,60.2961698 L28.622701,60.361643 L28.5957416,60.4271162 C28.5855358,60.4681965 28.571347,60.5081833 28.5533768,60.5465084 L28.5302687,60.6081302 C28.5282573,60.6273345 28.5282573,60.6466964 28.5302687,60.6659007 C28.5340068,60.6849761 28.5340068,60.7045957 28.5302687,60.7236711 L28.4802013,60.9200906 C28.4732021,60.9518038 28.4732021,60.9846617 28.4802013,61.0163748 C28.4802013,61.0548884 28.4802013,61.0972534 28.4532419,61.1319157 L28.4532419,61.2166457 C28.4551354,61.231993 28.4551354,61.2475148 28.4532419,61.262862 C28.4506979,61.2859002 28.4506979,61.3091484 28.4532419,61.3321866 C28.4361667,61.4016365 28.4258484,61.4725751 28.4224311,61.5440116 C28.4245934,61.5657824 28.4245934,61.587714 28.4224311,61.6094848 C28.4182713,61.631111 28.4182713,61.6533318 28.4224311,61.674958 C28.415698,61.7402233 28.415698,61.8061122 28.4224311,61.8713775 C28.4241001,61.8970261 28.4241001,61.9227561 28.4224311,61.9484048 C28.4208121,61.97534 28.4208121,62.0023482 28.4224311,62.0292834 C28.4242582,62.0523555 28.4242582,62.0755358 28.4224311,62.0986079 C28.4187204,62.129307 28.4187204,62.1603414 28.4224311,62.1910406 L28.4224311,62.5107038 C28.4145738,62.6196844 28.4145738,62.7290892 28.4224311,62.8380697 C28.415698,62.8813985 28.415698,62.9256873 28.4224311,62.9690161 C28.4242864,62.9843657 28.4242864,62.9998828 28.4224311,63.0152324 C28.4134536,63.0687778 28.4134536,63.1234443 28.4224311,63.1769897 C28.4205548,63.209057 28.4205548,63.2412065 28.4224311,63.2732738 C28.4242396,63.305343 28.4242396,63.3374886 28.4224311,63.3695578 C28.4203881,63.3913344 28.4203881,63.4132544 28.4224311,63.435031 C28.4246995,63.4567965 28.4246995,63.4787387 28.4224311,63.5005042 C28.4249504,63.5364061 28.4249504,63.5724405 28.4224311,63.6083424 C28.4200887,63.6429651 28.4200887,63.6777065 28.4224311,63.7123292 C28.4205376,63.7276765 28.4205376,63.7431982 28.4224311,63.7585455 C28.4248006,63.7815929 28.4248006,63.8048226 28.4224311,63.8278701 L28.4455391,63.9126002 L28.4455391,64.0435465 C28.4435229,64.0601748 28.4435229,64.0769859 28.4455391,64.0936142 C28.4472887,64.10897 28.4472887,64.1244747 28.4455391,64.1398305 L28.4956065,64.33625 C28.4981071,64.3554257 28.4981071,64.3748449 28.4956065,64.3940206 C28.4918685,64.4130959 28.4918685,64.4327155 28.4956065,64.4517909 C28.5073615,64.5153099 28.5294808,64.5764637 28.5610794,64.6328051 L28.5841876,64.6982783 L28.6072956,64.7637515 C28.6072956,64.7868596 28.6304036,64.8138192 28.6419576,64.84463 C28.6419576,64.8715895 28.668917,64.9024005 28.6766198,64.9255087 L28.7266872,65.0718605 C28.7352478,65.0981875 28.7455405,65.1239194 28.7574979,65.1488877 C28.7693704,65.1725737 28.7796631,65.1970191 28.7883087,65.2220637 L28.8191195,65.299091 C28.8306408,65.3229371 28.8409247,65.3473614 28.8499301,65.3722668 L28.8499301,65.3992264 C28.8608352,65.4325148 28.8792886,65.4628313 28.903849,65.4878077 L28.9308084,65.5378754 C28.9558809,65.5787199 28.9753138,65.6227679 28.9885786,65.6688218 C29.0049441,65.7043073 29.027067,65.7368412 29.0540514,65.7651059 L29.1041189,65.8536872 L29.1503349,65.9384173 C29.1676224,65.9754711 29.1910621,66.0093286 29.2196591,66.0385527 C29.2366703,66.0694849 29.2559814,66.0990954 29.2774293,66.127134 C29.3000676,66.1543124 29.3194556,66.1840408 29.3351994,66.2157155 L29.3698616,66.2657832 C29.3827189,66.2815314 29.3943092,66.298273 29.4045236,66.3158509 C29.4276902,66.35809 29.4547682,66.3980625 29.4854019,66.4352432 L29.5316179,66.4930136 L29.5739827,66.5430814 C29.5859392,66.5603399 29.600192,66.5758884 29.6163475,66.5892977 C29.6335126,66.6164776 29.6528313,66.642236 29.6741176,66.6663249 C29.6954364,66.6890157 29.7147644,66.7134979 29.7318878,66.7395009 C29.7486003,66.7634447 29.7679816,66.7854103 29.789658,66.8049741 L29.8474281,66.8704473 L29.8974955,66.9282177 L29.9475629,66.9859882 C29.9899278,67.0245018 30.0245898,67.0668668 30.059252,67.1053805 L30.1709409,67.2247726 L30.2941839,67.3403136 C30.3348972,67.3738279 30.3734852,67.4098435 30.4097242,67.4481517 L30.4674944,67.4982195 L30.5291158,67.5482872 C30.5527289,67.5654164 30.5746527,67.584761 30.5945887,67.6060576 C30.6158672,67.6274095 30.639074,67.6467486 30.6639129,67.6638281 C30.70797,67.7052528 30.7556619,67.7426331 30.8064126,67.7755176 L30.85648,67.8178826 C30.8749032,67.8298172 30.8917282,67.8440539 30.9065475,67.8602477 L30.9951283,67.9257208 L31.0837093,67.991194 L31.1337768,68.022005 L31.1838442,68.0566672 C31.2152313,68.0729088 31.2449073,68.0922628 31.2724251,68.1144376 L31.3571547,68.1722081 C31.3944445,68.1873676 31.428448,68.2096008 31.4572896,68.2376813 L31.5458704,68.287749 L31.6344514,68.3378166 C31.6700449,68.3539903 31.7026092,68.3761341 31.7307349,68.4032898 L31.7808024,68.4263981 C31.8214839,68.4517796 31.865576,68.4712321 31.911748,68.4841685 L31.9348562,68.4841685 C31.9664042,68.4963276 31.9952095,68.5146584 32.0195857,68.5380876 C32.0616326,68.5634809 32.1069967,68.5829228 32.1543827,68.5958581 L32.1851934,68.5958581 L32.258369,68.6266689 L32.3315445,68.6574799 L32.4778955,68.7075476 L32.5587738,68.7422098 L32.639652,68.7730208 L32.7051248,68.7961289 L32.7744489,68.8192372 L32.8899893,68.8616021 L32.9554622,68.8847104 C32.9745947,68.8878031 32.9940997,68.8878031 33.0132322,68.8847104 C33.0323167,68.8810674 33.051918,68.8810674 33.0710024,68.8847104 L33.2712722,68.9347781 L33.3868126,68.9347781 L33.4869475,68.9578862 L33.5870823,68.9809944 L33.6332985,68.9809944 C33.6575501,68.9846937 33.6822224,68.9846937 33.706474,68.9809944 C33.775473,69.0008391 33.8465725,69.0124736 33.9182979,69.0156567 L34.053095,69.0156567 C34.1182995,69.0240388 34.1843089,69.0240388 34.2495135,69.0156567 L116.610489,69.0156567 C119.051962,69.0740824 121.3334,67.8049683 122.571314,65.6997801 C123.809229,63.5945919 123.809229,60.983909 122.571314,58.8787208 C121.3334,56.7735326 119.051962,55.5044185 116.610489,55.5628441 L51.1376536,55.5628441 L55.4010906,51.2993848 C57.3241899,49.378788 57.9003061,46.4885215 56.8605919,43.9773415 C55.8208778,41.4661615 53.3702813,39.8290705 50.6523844,39.8300241 L50.6947492,40.1573902 Z" id="路径" transform="translate(75.957724, 54.425984) scale(-1, 1) translate(-75.957724, -54.425984) "></path>
            </g>
            <g id="值" transform="translate(90.000000, 79.000000)">
                <circle id="椭圆形" stroke="#FFFFFF" stroke-width="3" fill="#00CCFE" cx="37.5" cy="37.5" r="36"></circle>
                <circle id="椭圆形" fill="#FFFFFF" cx="37.5" cy="37.5" r="27.5"></circle>
                <g id="Java" transform="translate(12.390000, 28.436000)" fill="#3B71E9" fill-rule="nonzero">
                    <path d="M10.504,0 L6.76,0 L6.76,13.26 C6.76,14.248 6.65166667,14.9803333 6.435,15.457 C6.21833333,15.9336667 5.772,16.172 5.096,16.172 C4.42,16.172 3.97366667,15.9336667 3.757,15.457 C3.54033333,14.9803333 3.432,14.248 3.432,13.26 L3.432,12.688 L0,12.688 L0,13.494 C0,14.222 0.0693333333,14.9153333 0.208,15.574 C0.346666667,16.2326667 0.602333333,16.809 0.975,17.303 C1.34766667,17.797 1.85033333,18.1783333 2.483,18.447 C3.11566667,18.7156667 3.926,18.85 4.914,18.85 C6.80333333,18.85 8.20733333,18.4296667 9.126,17.589 C10.0446667,16.7483333 10.504,15.34 10.504,13.364 L10.504,0 Z" id="路径"></path>
                    <path d="M19.8738941,11.57 L19.8738941,14.326 C19.8738941,14.7073333 19.8045607,15.0366667 19.6658941,15.314 C19.5272274,15.5913333 19.3495607,15.8166667 19.1328941,15.99 C18.9162274,16.1633333 18.6778941,16.289 18.4178941,16.367 C18.1578941,16.445 17.9065607,16.484 17.6638941,16.484 C17.1785607,16.484 16.8318941,16.2933333 16.6238941,15.912 C16.4158941,15.5306667 16.3118941,15.0713333 16.3118941,14.534 C16.3118941,13.91 16.4678941,13.416 16.7798941,13.052 C17.0918941,12.688 17.6118941,12.428 18.3398941,12.272 C18.5652274,12.22 18.8165607,12.1376667 19.0938941,12.025 C19.3712274,11.9123333 19.6312274,11.7606667 19.8738941,11.57 Z M13.3218941,8.866 L16.5458941,8.866 L16.5458941,8.476 C16.5458941,7.92133333 16.6845607,7.47933333 16.9618941,7.15 C17.2392274,6.82066667 17.6552274,6.656 18.2098941,6.656 C18.8165607,6.656 19.2455607,6.80766667 19.4968941,7.111 C19.7482274,7.41433333 19.8738941,7.83466667 19.8738941,8.372 C19.8738941,8.84 19.7698941,9.19533333 19.5618941,9.438 C19.3538941,9.68066667 18.9812274,9.87133333 18.4438941,10.01 L16.4158941,10.556 C15.7918941,10.7293333 15.2588941,10.9286667 14.8168941,11.154 C14.3748941,11.3793333 14.0108941,11.661 13.7248941,11.999 C13.4388941,12.337 13.2265607,12.7443333 13.0878941,13.221 C12.9492274,13.6976667 12.8798941,14.2653333 12.8798941,14.924 C12.8798941,15.392 12.9405607,15.8643333 13.0618941,16.341 C13.1832274,16.8176667 13.3738941,17.2466667 13.6338941,17.628 C13.8938941,18.0093333 14.2405607,18.3083333 14.6738941,18.525 C15.1072274,18.7416667 15.6358941,18.85 16.2598941,18.85 C17.1265607,18.85 17.8328941,18.7416667 18.3788941,18.525 C18.9248941,18.3083333 19.4058941,17.836 19.8218941,17.108 L19.8738941,17.108 C19.9258941,17.3506667 19.9822274,17.5976667 20.0428941,17.849 C20.1035607,18.1003333 20.1945607,18.3386667 20.3158941,18.564 L23.7478941,18.564 C23.5745607,18.148 23.4575607,17.758 23.3968941,17.394 C23.3362274,17.03 23.3058941,16.5186667 23.3058941,15.86 L23.3058941,8.502 C23.3058941,7.878 23.2408941,7.30166667 23.1108941,6.773 C22.9808941,6.24433333 22.7338941,5.78933333 22.3698941,5.408 C22.0058941,5.02666667 21.4945607,4.732 20.8358941,4.524 C20.1772274,4.316 19.3105607,4.212 18.2358941,4.212 C17.5598941,4.212 16.9228941,4.28566667 16.3248941,4.433 C15.7268941,4.58033333 15.2068941,4.823 14.7648941,5.161 C14.3228941,5.499 13.9718941,5.941 13.7118941,6.487 C13.4518941,7.033 13.3218941,7.71333333 13.3218941,8.528 L13.3218941,8.866 Z" id="形状"></path>
                    <polygon id="路径" points="32.9877882 4.576 31.0897882 14.586 31.0377882 14.586 29.0357882 4.576 25.2917882 4.576 28.9057882 18.564 33.0657882 18.564 36.5757882 4.576"></polygon>
                    <path d="M44.9316822,11.57 L44.9316822,14.326 C44.9316822,14.7073333 44.8623489,15.0366667 44.7236822,15.314 C44.5850156,15.5913333 44.4073489,15.8166667 44.1906822,15.99 C43.9740156,16.1633333 43.7356822,16.289 43.4756822,16.367 C43.2156822,16.445 42.9643489,16.484 42.7216822,16.484 C42.2363489,16.484 41.8896822,16.2933333 41.6816822,15.912 C41.4736822,15.5306667 41.3696822,15.0713333 41.3696822,14.534 C41.3696822,13.91 41.5256822,13.416 41.8376822,13.052 C42.1496822,12.688 42.6696822,12.428 43.3976822,12.272 C43.6230156,12.22 43.8743489,12.1376667 44.1516822,12.025 C44.4290156,11.9123333 44.6890156,11.7606667 44.9316822,11.57 Z M38.3796822,8.866 L41.6036822,8.866 L41.6036822,8.476 C41.6036822,7.92133333 41.7423489,7.47933333 42.0196822,7.15 C42.2970156,6.82066667 42.7130156,6.656 43.2676822,6.656 C43.8743489,6.656 44.3033489,6.80766667 44.5546822,7.111 C44.8060156,7.41433333 44.9316822,7.83466667 44.9316822,8.372 C44.9316822,8.84 44.8276822,9.19533333 44.6196822,9.438 C44.4116822,9.68066667 44.0390156,9.87133333 43.5016822,10.01 L41.4736822,10.556 C40.8496822,10.7293333 40.3166822,10.9286667 39.8746822,11.154 C39.4326822,11.3793333 39.0686822,11.661 38.7826822,11.999 C38.4966822,12.337 38.2843489,12.7443333 38.1456822,13.221 C38.0070156,13.6976667 37.9376822,14.2653333 37.9376822,14.924 C37.9376822,15.392 37.9983489,15.8643333 38.1196822,16.341 C38.2410156,16.8176667 38.4316822,17.2466667 38.6916822,17.628 C38.9516822,18.0093333 39.2983489,18.3083333 39.7316822,18.525 C40.1650156,18.7416667 40.6936822,18.85 41.3176822,18.85 C42.1843489,18.85 42.8906822,18.7416667 43.4366822,18.525 C43.9826822,18.3083333 44.4636822,17.836 44.8796822,17.108 L44.9316822,17.108 C44.9836822,17.3506667 45.0400156,17.5976667 45.1006822,17.849 C45.1613489,18.1003333 45.2523489,18.3386667 45.3736822,18.564 L48.8056822,18.564 C48.6323489,18.148 48.5153489,17.758 48.4546822,17.394 C48.3940156,17.03 48.3636822,16.5186667 48.3636822,15.86 L48.3636822,8.502 C48.3636822,7.878 48.2986822,7.30166667 48.1686822,6.773 C48.0386822,6.24433333 47.7916822,5.78933333 47.4276822,5.408 C47.0636822,5.02666667 46.5523489,4.732 45.8936822,4.524 C45.2350156,4.316 44.3683489,4.212 43.2936822,4.212 C42.6176822,4.212 41.9806822,4.28566667 41.3826822,4.433 C40.7846822,4.58033333 40.2646822,4.823 39.8226822,5.161 C39.3806822,5.499 39.0296822,5.941 38.7696822,6.487 C38.5096822,7.033 38.3796822,7.71333333 38.3796822,8.528 L38.3796822,8.866 Z" id="形状"></path>
                </g>
            </g>
        </g>
    </g>
</svg>