<?xml version="1.0" encoding="UTF-8"?>
<svg width="192px" height="192px" viewBox="0 0 192 192" version="1.1" xmlns="http://www.w3.org/2000/svg" xmlns:xlink="http://www.w3.org/1999/xlink">
    <title>ValueConvert.ConstLookupTable	常量转换</title>
    <g id="ValueConvert.ConstLookupTable-常量转换" stroke="none" stroke-width="1" fill="none" fill-rule="evenodd">
        <g id="值转换" transform="translate(13.000000, 19.000000)">
            <g id="转换-" fill="#3B71E9" fill-rule="nonzero">
                <path d="M92.522839,1.55902576 C95.0069554,2.06740572 97.4872205,2.71443485 99.9058639,3.45774797 C102.324507,4.20106109 104.673827,5.07146931 106.984633,6.04586418 C109.295439,7.02025906 111.536921,8.1024923 113.716781,9.2887122 C115.896641,10.4749321 118.018731,11.7651389 120.063794,13.1400757 C128.262655,18.6784482 135.322705,25.7385345 140.861048,33.9374383 C142.24368,35.9825124 143.556988,38.120019 144.712391,40.2883366 C145.867794,42.4566542 146.992387,44.7366614 147.955222,47.0243714 C148.918058,49.3120814 149.803867,51.7114808 150.547176,54.099326 C151.290486,56.4871713 151.937511,58.9982604 152.445889,61.4823897 C152.959249,64.0109674 153.344872,66.5638068 153.601292,69.1311976 C154.132903,74.3684338 154.132903,79.646038 153.601292,84.8832742 C153.344872,87.4506649 152.959249,90.0035043 152.445889,92.5320819 C151.937511,95.0123599 151.290486,97.4964895 150.547176,99.9151457 C149.803867,102.333802 148.933463,104.686985 147.955222,106.9901 C146.019712,111.571775 143.643836,115.954656 140.861048,120.077033 C135.322705,128.275937 128.262655,135.336024 120.063794,140.874396 C118.018731,142.257036 115.881236,143.570351 113.716781,144.725759 C111.552326,145.881168 109.268479,147.001915 106.984633,147.968607 C104.700786,148.9353 102.293697,149.813411 99.9058639,150.560575 C97.518031,151.30774 95.0069552,151.950917 92.522839,152.459297 C90.0387228,152.967677 87.439066,153.364368 84.8779226,153.614706 C82.2607088,153.875067 79.632055,154.003608 77.0019256,153.999923 C74.3717963,154.003608 71.7431424,153.875067 69.1259287,153.614706 C64.0248956,153.116306 58.9889097,152.092842 54.0979873,150.560575 C46.9406673,148.333185 40.1480329,145.069849 33.9362054,140.874396 C25.7384416,135.334694 18.6786251,128.27484 13.1389519,120.077033 C11.7563197,118.031959 10.4430116,115.894453 9.28760854,113.726135 C8.13220552,111.557817 7.00761329,109.27781 6.04092615,106.9901 C4.07721578,102.328685 2.57444733,97.4862619 1.55411127,92.5320819 C1.04103293,90.0034544 0.655411855,87.4506293 0.398708392,84.8832742 C-0.132902797,79.646038 -0.132902797,74.3684338 0.398708392,69.1311976 C0.65541185,66.5638425 1.04103292,64.0110173 1.55411127,61.4823897 C2.06248855,59.0021117 2.70951429,56.5179821 3.45282351,54.099326 C4.19613273,51.68067 5.06653639,49.3274868 6.04092615,47.0243714 C7.01531592,44.7212561 8.09754348,42.4720598 9.28760854,40.2883366 C10.4776736,38.1046134 11.7640223,35.9825122 13.1389519,33.9374383 C18.6786251,25.7396315 25.7384416,18.679778 33.9362054,13.1400757 C35.9851199,11.7574363 38.1226155,10.4441213 40.2870705,9.2887122 C42.4515254,8.13330311 44.7353719,7.01255639 47.0192184,6.04586418 C51.6798532,4.08007049 56.522457,2.57723008 61.477161,1.55902576 C64.0050811,1.04202829 66.5580935,0.656374829 69.1259287,0.403616677 C76.9384751,-0.395787339 84.827065,-0.00622528672 92.522839,1.55902576 Z M90.3052906,12.3363085 C83.7089129,10.994664 76.9472644,10.6607535 70.250796,11.3459573 C68.0497944,11.5626073 65.8614981,11.8931676 63.6947094,12.3363085 C59.4478203,13.2090555 55.2970171,14.497205 51.3021872,16.1821719 C49.3446045,17.0107656 47.3870218,17.9714062 45.5317747,18.9617573 C43.6765276,19.9521084 41.8443885,21.0778076 40.088176,22.2629277 C33.0615214,27.0112463 27.0102501,33.0625523 22.2619587,40.0892474 C21.0834477,41.8421688 19.9808631,43.6611135 18.9608073,45.5328772 C17.9407516,47.4046409 17.0131279,49.3325244 16.1779367,51.3066242 C15.3427455,53.2807241 14.5966852,55.2977393 13.959563,57.3708741 C13.3224408,59.4440089 12.7678473,61.5732639 12.3320954,63.6992175 C11.8923139,65.8666137 11.5617816,68.0547506 11.3417501,70.2553419 C10.8860833,74.7444037 10.8860833,79.2680667 11.3417501,83.7571285 C11.5617816,85.9577197 11.8923139,88.1458566 12.3320954,90.3132528 C13.2066691,94.5596949 14.4947564,98.7103449 16.1779367,102.705846 C17.0065257,104.666741 17.9704619,106.621034 18.9608073,108.479593 C19.9511528,110.338152 21.0768454,112.170301 22.2619587,113.923223 C27.0102501,120.949918 33.0615213,127.001224 40.088176,131.749543 C45.4125996,135.345647 51.2348576,138.142794 57.3697034,140.051986 C61.5619226,141.365358 65.8784819,142.242614 70.250796,142.669814 C72.4941221,142.89298 74.747254,143.003158 77.0016505,143 C79.2560471,143.003158 81.509179,142.89298 83.7525051,142.669814 C85.9477708,142.455238 88.1760481,142.115217 90.3052906,141.679463 C92.434533,141.243709 94.5868837,140.692413 96.6335976,140.051986 C98.6803115,139.411559 100.743531,138.658892 102.701114,137.830298 C104.658697,137.001705 106.61628,136.041064 108.471527,135.050713 C110.326773,134.060362 112.158912,132.934663 113.911824,131.749543 C120.939419,127.002364 126.99089,120.950858 131.738041,113.923223 C134.123288,110.389755 136.159753,106.632998 137.818762,102.705846 C138.657254,100.731746 139.403315,98.7147313 140.040437,96.6415963 C140.677559,94.5684614 141.232153,92.4392064 141.667905,90.3132528 C142.107928,88.1458994 142.438462,85.9577503 142.65825,83.7571285 C143.113917,79.2680667 143.113917,74.7444037 142.65825,70.2553419 C142.438462,68.0547201 142.107928,65.8665709 141.667905,63.6992175 C141.232153,61.5699628 140.677559,59.4175996 140.040437,57.3708741 C139.403315,55.3241485 138.64405,53.2675195 137.818762,51.3066242 C136.993474,49.3457289 136.029538,47.3914361 135.039193,45.5328772 C134.048847,43.6743183 132.923155,41.8421689 131.738041,40.0892474 C126.99089,33.061612 120.939419,27.0101065 113.911824,22.2629277 C112.158913,21.0844099 110.339978,19.9785177 108.471527,18.9617573 C106.603075,17.9449969 104.681805,17.0173679 102.701114,16.1821719 C100.720423,15.3469759 98.7067205,14.6009113 96.6335976,13.9637855 C94.5604747,13.3266596 92.4345332,12.7720629 90.3052906,12.3363085 Z" id="形状结合"></path>
                <path d="M36.3163355,84.6021246 C33.8748627,84.5436989 31.5934246,85.812813 30.3555101,87.9180012 C29.1175957,90.0231894 29.1175957,92.6338723 30.3555101,94.7390605 C31.5934246,96.8442487 33.8748627,98.1133628 36.3163355,98.0549372 L101.789171,98.0549372 L97.5257338,102.318396 C95.8291844,104.015643 95.1669734,106.489066 95.7885494,108.806952 C96.4101254,111.124837 98.2210561,112.935043 100.539181,113.555683 C102.857307,114.176322 105.330448,113.513105 107.026998,111.815859 L122.759735,96.0830391 C122.8021,96.0445255 122.836762,96.0021604 122.871424,95.9636468 L122.983113,95.8404031 C123.001382,95.8225743 123.018129,95.8032503 123.03318,95.7826328 L123.083248,95.7248623 C123.106629,95.7032756 123.128504,95.6801132 123.148721,95.6555377 L123.214193,95.5785104 C123.257244,95.533486 123.29593,95.484483 123.329734,95.4321586 L123.368247,95.3820909 C123.379999,95.3635325 123.394255,95.3466843 123.410612,95.3320232 L123.472233,95.2472931 L123.545409,95.1548605 L123.57622,95.1047927 L123.60703,95.0585764 C123.623697,95.0274386 123.643025,94.997801 123.6648,94.9699951 C123.687852,94.943124 123.707274,94.9133423 123.722571,94.8814136 C123.737536,94.8451553 123.759826,94.8123766 123.788044,94.7851296 C123.802134,94.755429 123.818892,94.7270692 123.838111,94.7003995 C123.857034,94.6721918 123.873772,94.6425784 123.888178,94.6118182 C123.905229,94.575769 123.928723,94.5431385 123.957503,94.5155341 L123.980611,94.4654664 C124.003993,94.4242463 124.022108,94.3802534 124.034529,94.33452 C124.046018,94.3015034 124.064397,94.2713082 124.088448,94.2459387 C124.113358,94.205009 124.132781,94.1609833 124.146218,94.1149923 C124.147676,94.1073585 124.147676,94.099518 124.146218,94.0918842 C124.156205,94.0667801 124.167783,94.0423385 124.180881,94.0187082 C124.194036,93.9951076 124.205616,93.9706623 124.215543,93.9455323 L124.26561,93.7953291 L124.296421,93.7144506 C124.296421,93.687491 124.319529,93.6566801 124.327232,93.6335719 C124.334934,93.6104638 124.327232,93.5873556 124.354191,93.5680987 L124.377299,93.506477 C124.390142,93.4657345 124.405579,93.4258555 124.423515,93.3870847 L124.446623,93.3254628 C124.448722,93.3062632 124.448722,93.286892 124.446623,93.2676924 C124.444612,93.2484881 124.444612,93.2291262 124.446623,93.2099219 L124.500542,93.0135023 C124.507667,92.9818031 124.507667,92.9489176 124.500542,92.9172183 L124.52365,92.8170828 L124.546758,92.7169474 C124.544865,92.7016001 124.544865,92.6860783 124.546758,92.670731 C124.549128,92.6476836 124.549128,92.6244539 124.546758,92.6014065 C124.566904,92.5311611 124.578541,92.4587506 124.58142,92.3857301 C124.579386,92.3652398 124.579386,92.3445986 124.58142,92.3241083 C124.583463,92.3023317 124.583463,92.2804117 124.58142,92.2586351 C124.59069,92.1934901 124.59069,92.1273606 124.58142,92.0622156 C124.579649,92.0352851 124.579649,92.0082674 124.58142,91.9813369 C124.583272,91.9544092 124.583272,91.927386 124.58142,91.9004583 C124.5797,91.8786678 124.5797,91.8567756 124.58142,91.8349851 C124.583749,91.8042182 124.583749,91.7733193 124.58142,91.7425524 L124.58142,91.5807952 L124.58142,91.4190379 C124.588373,91.3100531 124.588373,91.2006567 124.58142,91.091672 C124.589554,91.0380596 124.589554,90.983527 124.58142,90.9299147 C124.588373,90.876239 124.588373,90.8218332 124.58142,90.7681575 C124.58345,90.7348098 124.58345,90.7013696 124.58142,90.668022 C124.579636,90.6359521 124.579636,90.6038078 124.58142,90.571738 C124.583463,90.5499614 124.583463,90.5280414 124.58142,90.5062648 C124.579152,90.4844993 124.579152,90.4625571 124.58142,90.4407916 L124.58142,90.3368048 C124.585525,90.3009759 124.585525,90.2647955 124.58142,90.2289666 C124.583353,90.2136218 124.583353,90.1980951 124.58142,90.1827503 C124.576954,90.1598579 124.576954,90.1363181 124.58142,90.1134257 L124.558312,90.0132903 L124.535204,89.9131548 C124.528079,89.8814555 124.528079,89.84857 124.535204,89.8168708 L124.481285,89.6204512 C124.478785,89.6012756 124.478785,89.5818564 124.481285,89.5626807 C124.483385,89.5434811 124.483385,89.5241098 124.481285,89.5049102 C124.467142,89.4427291 124.443775,89.3830139 124.411961,89.3277476 L124.388853,89.269977 C124.381253,89.2463533 124.372251,89.223204 124.361894,89.2006526 L124.331083,89.1197739 C124.331083,89.0928144 124.307975,89.0620034 124.300272,89.0388953 L124.250205,88.8925434 C124.24057,88.8672875 124.228981,88.8428214 124.215543,88.8193676 C124.202445,88.7957372 124.190867,88.7712956 124.180881,88.7461916 L124.15007,88.6653131 C124.15007,88.6383535 124.126962,88.6075426 124.119259,88.5844344 L124.119259,88.5613263 C124.105321,88.5286532 124.085769,88.4986733 124.061489,88.4727448 C124.062802,88.4599405 124.062802,88.4470355 124.061489,88.4342312 C124.036579,88.3933015 124.017156,88.3492758 124.003719,88.3032848 C123.985722,88.2678021 123.962337,88.2353222 123.934395,88.2070008 C123.934395,88.1723386 123.899733,88.1453791 123.884327,88.1184194 L123.838111,88.0336894 C123.820579,87.9979265 123.797142,87.9653756 123.768787,87.9374053 C123.753395,87.9075999 123.735349,87.879242 123.714868,87.8526754 C123.692693,87.8251574 123.673339,87.7954813 123.657098,87.7640939 C123.647365,87.7462147 123.635745,87.7294296 123.622436,87.7140262 C123.610319,87.6985462 123.599984,87.6817512 123.591625,87.6639585 C123.567306,87.620313 123.538938,87.5790503 123.506895,87.540715 C123.4911,87.5241228 123.476914,87.5060688 123.464531,87.4867959 C123.448816,87.4729306 123.434615,87.4574386 123.422166,87.4405794 L123.379801,87.3905117 L123.322031,87.3173359 L123.260409,87.2403086 C123.243209,87.2167523 123.223871,87.1948348 123.202639,87.1748354 C123.180512,87.155722 123.161079,87.133697 123.144869,87.1093623 C123.125661,87.0924413 123.108821,87.0730097 123.094802,87.0515918 L123.048586,86.9938212 C123.007616,86.9551133 122.969032,86.9139566 122.933045,86.8705777 L122.825208,86.7511854 L122.701965,86.6356445 L122.578722,86.5201037 L122.520952,86.4738872 L122.45933,86.4238195 C122.436933,86.4066441 122.416292,86.3872928 122.397709,86.366049 L122.332236,86.3082786 C122.288179,86.2668539 122.240487,86.2294736 122.189736,86.196589 C122.175439,86.179861 122.158532,86.1655547 122.139669,86.1542241 L122.089601,86.1157104 L122.004872,86.0502372 L121.912439,85.9809127 L121.862372,85.9501018 L121.816156,85.9192908 C121.785288,85.9021728 121.755685,85.8828667 121.727575,85.8615204 C121.699588,85.8399989 121.669972,85.8206839 121.638994,85.8037499 C121.603767,85.7869312 121.571301,85.7648546 121.54271,85.7382768 L121.454129,85.6882091 L121.365549,85.6381414 C121.329955,85.6219677 121.297391,85.5998239 121.269265,85.5726682 L121.219197,85.54956 C121.178516,85.5241785 121.134424,85.504726 121.088252,85.4917895 L121.061292,85.4917895 C121.028996,85.4788202 120.999066,85.4606016 120.972712,85.4378704 C120.930665,85.4124771 120.885301,85.3930353 120.837914,85.3801 L120.814806,85.3801 C120.787786,85.3718032 120.761909,85.3601586 120.73778,85.3454377 L120.660753,85.3146269 L120.514402,85.2645592 L120.433523,85.2337482 L120.348794,85.2029372 L120.287172,85.1798291 L120.2217,85.156721 C120.180764,85.1460406 120.14082,85.131867 120.102308,85.1143559 L120.040686,85.0912478 L119.979065,85.0912478 C119.959932,85.0943405 119.940427,85.0943405 119.921295,85.0912478 L119.724876,85.0411801 L119.605485,85.0411801 L119.50535,85.0180718 L119.397512,84.9949636 L119.281972,84.9949636 C119.211727,84.9748176 119.139317,84.9631802 119.066297,84.9603014 L118.9315,84.9603014 C118.866295,84.9519194 118.800286,84.9519194 118.735081,84.9603014 L118.095758,84.9603014 L36.3163355,84.6021246 Z" id="路径" transform="translate(77.007724, 99.192277) scale(-1, 1) translate(-77.007724, -99.192277) "></path>
                <path d="M51.6947492,40.1573902 C49.9138291,40.1536992 48.20538,40.862321 46.9498942,42.125437 L31.2133057,57.8582567 L31.0977654,57.9853518 C31.0615685,58.0261029 31.0243265,58.0659136 30.9860765,58.1047441 L30.9398603,58.158663 C30.9247548,58.1792372 30.9080111,58.198557 30.8897929,58.2164335 C30.8735833,58.2407683 30.8541496,58.2627933 30.8320227,58.2819067 C30.8097555,58.300878 30.7903035,58.3229237 30.7742526,58.3473799 C30.731237,58.3924344 30.6925533,58.441434 30.6587123,58.4937317 L30.6163475,58.5437994 L30.5739827,58.5900159 L30.5085099,58.6785972 L30.4391857,58.7710299 C30.4308271,58.7888226 30.4204918,58.8056177 30.408375,58.8210976 C30.395066,58.8365011 30.3834456,58.8532861 30.3737128,58.8711653 C30.3566294,58.9020541 30.3373217,58.9316593 30.3159428,58.9597467 C30.2945976,58.9865081 30.2752869,59.0148306 30.2581725,59.0444767 C30.2429278,59.081722 30.2207048,59.1157102 30.1926997,59.1446121 L30.1426323,59.2331934 C30.1243426,59.2617869 30.1076286,59.2913581 30.0925648,59.3217749 C30.07626,59.3593838 30.0527031,59.3934106 30.0232406,59.4219103 L30.0001326,59.4681266 C29.9768536,59.5098879 29.9575134,59.5537259 29.9423624,59.599073 C29.9308743,59.6320896 29.9124947,59.6622849 29.8884436,59.6876544 C29.8638335,59.7287399 29.844428,59.7727261 29.8306735,59.8186008 L29.8306735,59.841709 C29.8220935,59.8667786 29.811799,59.8912283 29.7998627,59.9148848 C29.7857696,59.9379911 29.7741514,59.9625186 29.7652007,59.9880608 L29.7151332,60.1344125 C29.706156,60.162405 29.6945502,60.1894852 29.680471,60.2152911 L29.6496604,60.2961698 L29.622701,60.361643 L29.5957416,60.4271162 C29.5855358,60.4681965 29.571347,60.5081833 29.5533768,60.5465084 L29.5302687,60.6081302 C29.5282573,60.6273345 29.5282573,60.6466964 29.5302687,60.6659007 C29.5340068,60.6849761 29.5340068,60.7045957 29.5302687,60.7236711 L29.4802013,60.9200906 C29.4732021,60.9518038 29.4732021,60.9846617 29.4802013,61.0163748 C29.4802013,61.0548884 29.4802013,61.0972534 29.4532419,61.1319157 L29.4532419,61.2166457 C29.4551354,61.231993 29.4551354,61.2475148 29.4532419,61.262862 C29.4506979,61.2859002 29.4506979,61.3091484 29.4532419,61.3321866 C29.4361667,61.4016365 29.4258484,61.4725751 29.4224311,61.5440116 C29.4245934,61.5657824 29.4245934,61.587714 29.4224311,61.6094848 C29.4182713,61.631111 29.4182713,61.6533318 29.4224311,61.674958 C29.415698,61.7402233 29.415698,61.8061122 29.4224311,61.8713775 C29.4241001,61.8970261 29.4241001,61.9227561 29.4224311,61.9484048 C29.4208121,61.97534 29.4208121,62.0023482 29.4224311,62.0292834 C29.4242582,62.0523555 29.4242582,62.0755358 29.4224311,62.0986079 C29.4187204,62.129307 29.4187204,62.1603414 29.4224311,62.1910406 L29.4224311,62.5107038 C29.4145738,62.6196844 29.4145738,62.7290892 29.4224311,62.8380697 C29.415698,62.8813985 29.415698,62.9256873 29.4224311,62.9690161 C29.4242864,62.9843657 29.4242864,62.9998828 29.4224311,63.0152324 C29.4134536,63.0687778 29.4134536,63.1234443 29.4224311,63.1769897 C29.4205548,63.209057 29.4205548,63.2412065 29.4224311,63.2732738 C29.4242396,63.305343 29.4242396,63.3374886 29.4224311,63.3695578 C29.4203881,63.3913344 29.4203881,63.4132544 29.4224311,63.435031 C29.4246995,63.4567965 29.4246995,63.4787387 29.4224311,63.5005042 C29.4249504,63.5364061 29.4249504,63.5724405 29.4224311,63.6083424 C29.4200887,63.6429651 29.4200887,63.6777065 29.4224311,63.7123292 C29.4205376,63.7276765 29.4205376,63.7431982 29.4224311,63.7585455 C29.4248006,63.7815929 29.4248006,63.8048226 29.4224311,63.8278701 L29.4455391,63.9126002 L29.4455391,64.0435465 C29.4435229,64.0601748 29.4435229,64.0769859 29.4455391,64.0936142 C29.4472887,64.10897 29.4472887,64.1244747 29.4455391,64.1398305 L29.4956065,64.33625 C29.4981071,64.3554257 29.4981071,64.3748449 29.4956065,64.3940206 C29.4918685,64.4130959 29.4918685,64.4327155 29.4956065,64.4517909 C29.5073615,64.5153099 29.5294808,64.5764637 29.5610794,64.6328051 L29.5841876,64.6982783 L29.6072956,64.7637515 C29.6072956,64.7868596 29.6304036,64.8138192 29.6419576,64.84463 C29.6419576,64.8715895 29.668917,64.9024005 29.6766198,64.9255087 L29.7266872,65.0718605 C29.7352478,65.0981875 29.7455405,65.1239194 29.7574979,65.1488877 C29.7693704,65.1725737 29.7796631,65.1970191 29.7883087,65.2220637 L29.8191195,65.299091 C29.8306408,65.3229371 29.8409247,65.3473614 29.8499301,65.3722668 L29.8499301,65.3992264 C29.8608352,65.4325148 29.8792886,65.4628313 29.903849,65.4878077 L29.9308084,65.5378754 C29.9558809,65.5787199 29.9753138,65.6227679 29.9885786,65.6688218 C30.0049441,65.7043073 30.027067,65.7368412 30.0540514,65.7651059 L30.1041189,65.8536872 L30.1503349,65.9384173 C30.1676224,65.9754711 30.1910621,66.0093286 30.2196591,66.0385527 C30.2366703,66.0694849 30.2559814,66.0990954 30.2774293,66.127134 C30.3000676,66.1543124 30.3194556,66.1840408 30.3351994,66.2157155 L30.3698616,66.2657832 C30.3827189,66.2815314 30.3943092,66.298273 30.4045236,66.3158509 C30.4276902,66.35809 30.4547682,66.3980625 30.4854019,66.4352432 L30.5316179,66.4930136 L30.5739827,66.5430814 C30.5859392,66.5603399 30.600192,66.5758884 30.6163475,66.5892977 C30.6335126,66.6164776 30.6528313,66.642236 30.6741176,66.6663249 C30.6954364,66.6890157 30.7147644,66.7134979 30.7318878,66.7395009 C30.7486003,66.7634447 30.7679816,66.7854103 30.789658,66.8049741 L30.8474281,66.8704473 L30.8974955,66.9282177 L30.9475629,66.9859882 C30.9899278,67.0245018 31.0245898,67.0668668 31.059252,67.1053805 L31.1709409,67.2247726 L31.2941839,67.3403136 C31.3348972,67.3738279 31.3734852,67.4098435 31.4097242,67.4481517 L31.4674944,67.4982195 L31.5291158,67.5482872 C31.5527289,67.5654164 31.5746527,67.584761 31.5945887,67.6060576 C31.6158672,67.6274095 31.639074,67.6467486 31.6639129,67.6638281 C31.70797,67.7052528 31.7556619,67.7426331 31.8064126,67.7755176 L31.85648,67.8178826 C31.8749032,67.8298172 31.8917282,67.8440539 31.9065475,67.8602477 L31.9951283,67.9257208 L32.0837093,67.991194 L32.1337768,68.022005 L32.1838442,68.0566672 C32.2152313,68.0729088 32.2449073,68.0922628 32.2724251,68.1144376 L32.3571547,68.1722081 C32.3944445,68.1873676 32.428448,68.2096008 32.4572896,68.2376813 L32.5458704,68.287749 L32.6344514,68.3378166 C32.6700449,68.3539903 32.7026092,68.3761341 32.7307349,68.4032898 L32.7808024,68.4263981 C32.8214839,68.4517796 32.865576,68.4712321 32.911748,68.4841685 L32.9348562,68.4841685 C32.9664042,68.4963276 32.9952095,68.5146584 33.0195857,68.5380876 C33.0616326,68.5634809 33.1069967,68.5829228 33.1543827,68.5958581 L33.1851934,68.5958581 L33.258369,68.6266689 L33.3315445,68.6574799 L33.4778955,68.7075476 L33.5587738,68.7422098 L33.639652,68.7730208 L33.7051248,68.7961289 L33.7744489,68.8192372 L33.8899893,68.8616021 L33.9554622,68.8847104 C33.9745947,68.8878031 33.9940997,68.8878031 34.0132322,68.8847104 C34.0323167,68.8810674 34.051918,68.8810674 34.0710024,68.8847104 L34.2712722,68.9347781 L34.3868126,68.9347781 L34.4869475,68.9578862 L34.5870823,68.9809944 L34.6332985,68.9809944 C34.6575501,68.9846937 34.6822224,68.9846937 34.706474,68.9809944 C34.775473,69.0008391 34.8465725,69.0124736 34.9182979,69.0156567 L35.053095,69.0156567 C35.1182995,69.0240388 35.1843089,69.0240388 35.2495135,69.0156567 L117.610489,69.0156567 C120.051962,69.0740824 122.3334,67.8049683 123.571314,65.6997801 C124.809229,63.5945919 124.809229,60.983909 123.571314,58.8787208 C122.3334,56.7735326 120.051962,55.5044185 117.610489,55.5628441 L52.1376536,55.5628441 L56.4010906,51.2993848 C58.3241899,49.378788 58.9003061,46.4885215 57.8605919,43.9773415 C56.8208778,41.4661615 54.3702813,39.8290705 51.6523844,39.8300241 L51.6947492,40.1573902 Z" id="路径" transform="translate(76.957724, 54.425984) scale(-1, 1) translate(-76.957724, -54.425984) "></path>
            </g>
            <g id="值" transform="translate(90.000000, 79.000000)">
                <circle id="椭圆形" stroke="#FFFFFF" stroke-width="3" fill="#00CCFE" cx="37.5" cy="37.5" r="36"></circle>
                <circle id="椭圆形" fill="#FFFFFF" cx="37.5" cy="37.5" r="27.5"></circle>
                <g id="123" transform="translate(18.776000, 28.864000)" fill="#3B71E9" fill-rule="nonzero">
                    <path d="M7.632,17.136 L7.632,0.336 L4.92,0.336 C4.824,0.976 4.624,1.512 4.32,1.944 C4.016,2.376 3.644,2.724 3.204,2.988 C2.764,3.252 2.268,3.436 1.716,3.54 C1.164,3.644 0.592,3.688 0,3.672 L0,6.24 L4.224,6.24 L4.224,17.136 L7.632,17.136 Z" id="路径"></path>
                    <path d="M12.605748,6.792 L15.869748,6.792 C15.869748,6.344 15.913748,5.892 16.001748,5.436 C16.089748,4.98 16.237748,4.564 16.445748,4.188 C16.653748,3.812 16.929748,3.508 17.273748,3.276 C17.617748,3.044 18.037748,2.928 18.533748,2.928 C19.269748,2.928 19.873748,3.156 20.345748,3.612 C20.817748,4.068 21.053748,4.704 21.053748,5.52 C21.053748,6.032 20.937748,6.488 20.705748,6.888 C20.473748,7.288 20.185748,7.648 19.841748,7.968 C19.497748,8.288 19.117748,8.58 18.701748,8.844 C18.285748,9.108 17.893748,9.368 17.525748,9.624 C16.805748,10.12 16.121748,10.608 15.473748,11.088 C14.825748,11.568 14.261748,12.092 13.781748,12.66 C13.301748,13.228 12.921748,13.872 12.641748,14.592 C12.361748,15.312 12.221748,16.16 12.221748,17.136 L24.557748,17.136 L24.557748,14.208 L16.613748,14.208 C17.029748,13.632 17.509748,13.128 18.053748,12.696 C18.597748,12.264 19.157748,11.86 19.733748,11.484 C20.309748,11.108 20.881748,10.728 21.449748,10.344 C22.017748,9.96 22.525748,9.532 22.973748,9.06 C23.421748,8.588 23.781748,8.048 24.053748,7.44 C24.325748,6.832 24.461748,6.104 24.461748,5.256 C24.461748,4.44 24.305748,3.704 23.993748,3.048 C23.681748,2.392 23.261748,1.84 22.733748,1.392 C22.205748,0.944 21.593748,0.6 20.897748,0.36 C20.201748,0.12 19.469748,0 18.701748,0 C17.693748,0 16.801748,0.172 16.025748,0.516 C15.249748,0.86 14.605748,1.34 14.093748,1.956 C13.581748,2.572 13.197748,3.292 12.941748,4.116 C12.685748,4.94 12.573748,5.832 12.605748,6.792 Z" id="路径"></path>
                    <path d="M30.683496,7.128 L30.683496,9.528 C31.099496,9.528 31.535496,9.54 31.991496,9.564 C32.447496,9.588 32.867496,9.676 33.251496,9.828 C33.635496,9.98 33.951496,10.224 34.199496,10.56 C34.447496,10.896 34.571496,11.384 34.571496,12.024 C34.571496,12.84 34.307496,13.484 33.779496,13.956 C33.251496,14.428 32.603496,14.664 31.835496,14.664 C31.339496,14.664 30.911496,14.576 30.551496,14.4 C30.191496,14.224 29.891496,13.988 29.651496,13.692 C29.411496,13.396 29.227496,13.044 29.099496,12.636 C28.971496,12.228 28.899496,11.8 28.883496,11.352 L25.643496,11.352 C25.627496,12.328 25.767496,13.192 26.063496,13.944 C26.359496,14.696 26.779496,15.332 27.323496,15.852 C27.867496,16.372 28.527496,16.768 29.303496,17.04 C30.079496,17.312 30.939496,17.448 31.883496,17.448 C32.699496,17.448 33.483496,17.328 34.235496,17.088 C34.987496,16.848 35.651496,16.496 36.227496,16.032 C36.803496,15.568 37.263496,14.992 37.607496,14.304 C37.951496,13.616 38.123496,12.832 38.123496,11.952 C38.123496,10.992 37.859496,10.168 37.331496,9.48 C36.803496,8.792 36.075496,8.344 35.147496,8.136 L35.147496,8.088 C35.931496,7.864 36.519496,7.44 36.911496,6.816 C37.303496,6.192 37.499496,5.472 37.499496,4.656 C37.499496,3.904 37.331496,3.24 36.995496,2.664 C36.659496,2.088 36.223496,1.6 35.687496,1.2 C35.151496,0.8 34.547496,0.5 33.875496,0.3 C33.203496,0.1 32.531496,0 31.859496,0 C30.995496,0 30.211496,0.14 29.507496,0.42 C28.803496,0.7 28.199496,1.096 27.695496,1.608 C27.191496,2.12 26.799496,2.732 26.519496,3.444 C26.239496,4.156 26.083496,4.944 26.051496,5.808 L29.291496,5.808 C29.275496,4.944 29.487496,4.228 29.927496,3.66 C30.367496,3.092 31.019496,2.808 31.883496,2.808 C32.507496,2.808 33.059496,3 33.539496,3.384 C34.019496,3.768 34.259496,4.32 34.259496,5.04 C34.259496,5.52 34.143496,5.904 33.911496,6.192 C33.679496,6.48 33.383496,6.7 33.023496,6.852 C32.663496,7.004 32.275496,7.096 31.859496,7.128 C31.443496,7.16 31.051496,7.16 30.683496,7.128 Z" id="路径"></path>
                </g>
            </g>
        </g>
    </g>
</svg>