<?xml version="1.0" encoding="UTF-8"?>
<svg width="192px" height="192px" viewBox="0 0 192 192" version="1.1" xmlns="http://www.w3.org/2000/svg" xmlns:xlink="http://www.w3.org/1999/xlink">
    <title>ValueConvert.CompositeRule	组合规则</title>
    <g id="ValueConvert.CompositeRule-组合规则" stroke="none" stroke-width="1" fill="none" fill-rule="evenodd">
        <g id="组合规则" transform="translate(11.000000, 15.000000)">
            <g id="转换-" transform="translate(84.000000, 73.000000)" fill="#3B71E9" fill-rule="nonzero">
                <path d="M51.0678007,0.860501232 C52.4389039,1.14110056 53.8078815,1.49822703 55.142847,1.90849725 C56.4778125,2.31876748 57.7745149,2.7991876 59.0499597,3.33700296 C60.3254045,3.87481831 61.562586,4.47215484 62.7657557,5.1268866 C63.9689254,5.78161836 65.1402088,6.49374552 66.2689775,7.25263919 C70.7943228,10.3095331 74.6911032,14.206334 77.7479811,18.731703 C78.5111223,19.8604776 79.2360001,21.0402702 79.8737225,22.2370689 C80.5114448,23.4338676 81.1321614,24.6923131 81.6635967,25.9550102 C82.195032,27.2177073 82.6839526,28.5420511 83.0942207,29.8600176 C83.5044888,31.1779842 83.8616134,32.5639749 84.1422112,33.9350852 C84.4255596,35.3307288 84.6384036,36.7397635 84.7799337,38.1568299 C85.0733554,41.0475122 85.0733554,43.9604755 84.7799337,46.8511578 C84.6384036,48.2682241 84.4255596,49.6772588 84.1422112,51.0729024 C83.8616134,52.441887 83.5044888,53.8129975 83.0942207,55.14797 C82.6839526,56.4829426 82.203535,57.7817774 81.6635967,59.0529775 C80.5952955,61.5818237 79.2839355,64.0009468 77.7479811,66.2762846 C74.6911032,70.8016536 70.7943228,74.6984545 66.2689775,77.7553485 C65.1402088,78.5184936 63.9604223,79.2433753 62.7657557,79.881101 C61.5710891,80.5188267 60.3105244,81.1374207 59.0499597,81.6709846 C57.789395,82.2045485 56.4608067,82.6892201 55.142847,83.1016161 C53.8248872,83.5140121 52.4389039,83.8690128 51.0678007,84.1496121 C49.6966976,84.4302115 48.2618221,84.649164 46.848204,84.7873379 C45.403638,84.9310432 43.9527576,85.0019913 42.5010628,84.9999575 C41.0493681,85.0019913 39.5984877,84.9310432 38.1539217,84.7873379 C35.3384164,84.5122469 32.5588138,83.9473478 29.8592787,83.1016161 C25.9088098,81.8722127 22.1596285,80.0710207 18.7310224,77.7553485 C14.2062827,74.6977206 10.3096307,70.8010481 7.25201888,66.2762846 C6.48887774,65.14751 5.76399989,63.9677174 5.12627744,62.7709187 C4.48855499,61.57412 3.8678385,60.3156745 3.33427742,59.0529775 C2.25041131,56.4801181 1.42096119,53.8073524 0.857788686,51.0729024 C0.574596096,49.6772313 0.361753297,48.2682045 0.22006632,46.8511578 C-0.0733554402,43.9604755 -0.0733554402,41.0475122 0.22006632,38.1568299 C0.361753294,36.7397832 0.574596093,35.3307563 0.857788686,33.9350852 C1.13838654,32.5661006 1.49551113,31.1949901 1.90577921,29.8600176 C2.31604729,28.5250451 2.79646489,27.2262102 3.33427742,25.9550102 C3.87208995,24.6838102 4.46942335,23.4423707 5.12627744,22.2370689 C5.78313153,21.0317671 6.49312919,19.8604775 7.25201888,18.731703 C10.3096307,14.2069395 14.2062827,10.3102671 18.7310224,7.25263919 C19.8619168,6.48949405 21.0417034,5.76461239 22.2363701,5.1268866 C23.4310368,4.48916081 24.6916014,3.87056684 25.952166,3.33700296 C28.5245943,2.25198696 31.19746,1.42249712 33.9321993,0.860501232 C35.3274798,0.575145485 36.73661,0.362284808 38.1539217,0.222775439 C42.4660415,-0.218454051 46.8201333,-0.00343603488 51.0678007,0.860501232 Z M49.6566336,7.71877198 C46.1085819,6.9971299 42.4716346,6.81752653 38.8697463,7.18608311 C37.6858743,7.30261452 36.5088361,7.48041588 35.3433664,7.71877198 C33.0590548,8.18820407 30.8264258,8.8810724 28.6776916,9.78738034 C27.6247494,10.2330633 26.5718072,10.7497715 25.5739091,11.2824604 C24.576011,11.8151492 23.5905423,12.4206389 22.6459129,13.0580899 C18.8664244,15.6121098 15.6115739,18.8669789 13.0575687,22.6464891 C12.4236726,23.5893483 11.8306158,24.5677201 11.2819494,25.5745021 C10.733283,26.5812841 10.234334,27.6182517 9.78510232,28.6800782 C9.33587067,29.7419046 8.93458067,30.8268143 8.59188616,31.9419095 C8.24919165,33.0570048 7.95088758,34.2022859 7.71650584,35.3457912 C7.47995674,36.5115877 7.3021704,37.6885401 7.1838201,38.8721915 C6.93872663,41.2867626 6.93872663,43.719945 7.1838201,46.1345161 C7.3021704,47.3181674 7.47995674,48.4951198 7.71650584,49.6609163 C8.18692052,51.9449874 8.87975533,54.177534 9.78510232,56.3266294 C10.2307828,57.3813533 10.7492636,58.432526 11.2819494,59.4322054 C11.8146352,60.4318848 12.4201214,61.4173591 13.0575687,62.3602184 C15.6115739,66.1397286 18.8664244,69.3945978 22.6459129,71.9486177 C25.5098074,73.882886 28.6414765,75.3874119 31.9412799,76.4143258 C34.1961857,77.1207609 36.5179713,77.592618 38.8697463,77.8224 C40.0763838,77.9424363 41.2882957,78.0016988 42.5008878,78 C43.7134799,78.0016988 44.9253917,77.9424363 46.1320292,77.8224 C47.3128161,77.7069841 48.5113592,77.5240943 49.6566336,77.2897112 C50.8019079,77.0553281 51.9596117,76.7587979 53.0604957,76.4143258 C54.1613797,76.0698537 55.2711417,75.6650102 56.324084,75.2193272 C57.3770262,74.7736442 58.4299685,74.2569359 59.4278665,73.7242471 C60.4257645,73.1915583 61.4112332,72.5860686 62.3540871,71.9486177 C66.1340814,69.3952109 69.3890391,66.1402344 71.9424313,62.3602184 C73.2254049,60.4596411 74.3207762,58.4389609 75.213122,56.3266294 C75.6641293,55.2648029 76.0654193,54.1798933 76.4081138,53.064798 C76.7508083,51.9497027 77.0491124,50.8044216 77.2834941,49.6609163 C77.5201733,48.4951428 77.6979606,47.3181839 77.8161799,46.1345161 C78.0612734,43.719945 78.0612734,41.2867626 77.8161799,38.8721915 C77.6979606,37.6885237 77.5201733,36.5115647 77.2834941,35.3457912 C77.0491124,34.2005103 76.7508083,33.0427998 76.4081138,31.9419095 C76.0654193,30.8410193 75.6570268,29.7348022 75.213122,28.6800782 C74.7692172,27.6253542 74.2507363,26.5741815 73.7180505,25.5745021 C73.1853648,24.5748227 72.5798786,23.5893484 71.9424313,22.6464891 C69.3890391,18.8664731 66.1340814,15.6114967 62.3540871,13.0580899 C61.4112333,12.4241901 60.4328671,11.8293542 59.4278665,11.2824604 C58.422866,10.7355665 57.3894555,10.2366146 56.324084,9.78738034 C55.2587124,9.33814611 54.1755845,8.93685381 53.0604957,8.59415733 C51.9454069,8.25146085 50.801908,7.95315506 49.6566336,7.71877198 Z" id="形状结合"></path>
                <path d="M21.280551,48.2453659 C19.9171311,48.2127386 18.6430813,48.921465 17.9517784,50.0970902 C17.2604755,51.2727154 17.2604755,52.7306299 17.9517784,53.9062551 C18.6430813,55.0818802 19.9171311,55.7906066 21.280551,55.7579793 L57.8433031,55.7579793 L55.4624228,58.1388734 C54.5149991,59.0866867 54.145193,60.4679497 54.4923068,61.762354 C54.8394207,63.0567584 55.8507196,64.0676532 57.1452571,64.4142442 C58.4397947,64.7608352 59.8208997,64.390467 60.7683234,63.4426537 L69.5541376,54.6567889 C69.5777959,54.6352813 69.5971526,54.6116229 69.6165094,54.5901153 L69.6788811,54.5212909 C69.6890832,54.5113345 69.6984356,54.5005431 69.7068408,54.4890295 L69.7348007,54.456768 C69.7478576,54.4447131 69.7600738,54.4317782 69.7713634,54.4180542 L69.8079262,54.375039 C69.8319672,54.3498955 69.8535713,54.3225302 69.8724487,54.29331 L69.8939562,54.2653501 C69.9005187,54.2549863 69.9084798,54.2455776 69.9176144,54.2373902 L69.9520264,54.1900734 L69.9928906,54.1384552 L70.0100967,54.1104952 L70.0273027,54.0846861 C70.0366098,54.0672974 70.0474038,54.0507466 70.0595639,54.0352186 C70.0724367,54.0202127 70.0832831,54.0035813 70.0918252,53.985751 C70.1001827,53.9655028 70.11263,53.9471978 70.1283879,53.931982 C70.1362565,53.9153959 70.1456148,53.8995586 70.1563477,53.8846651 C70.1669149,53.8689128 70.176262,53.8523754 70.1843074,53.8351976 C70.1938293,53.8150662 70.2069492,53.796844 70.2230209,53.7814285 L70.2359254,53.7534686 C70.2489832,53.7304496 70.2590992,53.7058822 70.2660359,53.6803427 C70.2724513,53.6619049 70.2827153,53.6450426 70.2961464,53.6308752 C70.310057,53.6080184 70.3209036,53.5834326 70.3284076,53.5577493 C70.3292214,53.5534862 70.3292214,53.5491077 70.3284076,53.5448447 C70.3339847,53.5308256 70.3404501,53.5171764 70.3477644,53.5039802 C70.3551112,53.4908006 70.3615775,53.4771493 70.3671212,53.4631157 L70.3950809,53.3792359 L70.4122869,53.33407 C70.4122869,53.3190147 70.4251914,53.3018085 70.429493,53.288904 C70.4337945,53.2759994 70.429493,53.2630949 70.4445481,53.252341 L70.4574527,53.2179288 C70.4646247,53.1951765 70.4732453,53.1729065 70.4832617,53.1512552 L70.4961661,53.1168429 C70.4973385,53.1061211 70.4973385,53.0953034 70.4961661,53.0845815 C70.4950429,53.073857 70.4950429,53.0630446 70.4961661,53.0523201 L70.5262767,52.9426312 C70.5302555,52.924929 70.5302555,52.9065643 70.5262767,52.8888622 L70.5391812,52.8329423 L70.5520857,52.7770225 C70.5510283,52.7684519 70.5510283,52.7597839 70.5520857,52.7512133 C70.5534089,52.7383427 70.5534089,52.7253703 70.5520857,52.7124996 C70.563336,52.6732717 70.5698348,52.6328346 70.5714424,52.5920569 C70.5703067,52.5806143 70.5703067,52.5690873 70.5714424,52.5576447 C70.5725833,52.5454838 70.5725833,52.5332427 70.5714424,52.5210818 C70.5766193,52.484702 70.5766193,52.4477726 70.5714424,52.4113929 C70.5704534,52.3963538 70.5704534,52.3812659 70.5714424,52.3662268 C70.5724768,52.3511893 70.5724768,52.3360984 70.5714424,52.3210608 C70.5704817,52.3088921 70.5704817,52.2966666 70.5714424,52.2844979 C70.5727428,52.2673163 70.5727428,52.2500611 70.5714424,52.2328795 L70.5714424,52.1425476 L70.5714424,52.0522155 C70.5753251,51.9913539 70.5753251,51.9302623 70.5714424,51.8694007 C70.5759847,51.8394613 70.5759847,51.809008 70.5714424,51.7790687 C70.5753251,51.7490939 70.5753251,51.7187114 70.5714424,51.6887367 C70.5725758,51.6701139 70.5725758,51.6514395 70.5714424,51.6328168 C70.5704459,51.6149076 70.5704459,51.5969569 70.5714424,51.5790478 C70.5725833,51.5668868 70.5725833,51.5546458 70.5714424,51.5424848 C70.5701757,51.5303301 70.5701757,51.5180766 70.5714424,51.5059219 L70.5714424,51.4478513 C70.5737347,51.4278429 70.5737347,51.4076383 70.5714424,51.3876299 C70.572522,51.3790607 70.572522,51.37039 70.5714424,51.3618208 C70.5689483,51.3490367 70.5689483,51.3358911 70.5714424,51.3231071 L70.5585379,51.2671873 L70.5456335,51.2112674 C70.5416546,51.1935652 70.5416546,51.1752005 70.5456335,51.1574984 L70.515523,51.0478095 C70.5141265,51.037101 70.5141265,51.0262565 70.515523,51.015548 C70.5166953,51.0048261 70.5166953,50.9940084 70.515523,50.9832865 C70.5076247,50.948562 70.4945758,50.9152145 70.4768094,50.8843515 L70.4639049,50.85209 C70.4596609,50.8388975 70.4546335,50.82597 70.4488497,50.8133764 L70.4316437,50.7682103 C70.4316437,50.753155 70.4187392,50.7359489 70.4144377,50.7230443 L70.3864779,50.6413153 C70.3810977,50.6272114 70.3746259,50.6135485 70.3671212,50.6004509 C70.3598068,50.5872547 70.3533414,50.5736055 70.3477644,50.5595863 L70.3305584,50.5144204 C70.3305584,50.499365 70.3176539,50.4821589 70.3133524,50.4692544 L70.3133524,50.4563498 C70.3055687,50.4381038 70.2946501,50.4213617 70.2810912,50.4068822 C70.2818246,50.3997318 70.2818246,50.392525 70.2810912,50.3853746 C70.2671806,50.3625177 70.2563339,50.337932 70.2488299,50.3122487 C70.2387801,50.2924336 70.2257207,50.2742955 70.2101164,50.2584796 C70.2101164,50.2391228 70.1907597,50.2240675 70.1821566,50.209012 L70.1563477,50.1616953 C70.1465569,50.1417238 70.133469,50.123546 70.1176341,50.1079262 C70.1090388,50.0912816 70.0989612,50.0754454 70.0875236,50.0606095 C70.0751404,50.0452423 70.0643324,50.0286699 70.0552624,50.0111419 C70.0498272,50.0011574 70.0433379,49.9917839 70.0359056,49.983182 C70.0291391,49.9745373 70.0233674,49.9651583 70.0186997,49.9552221 C70.005119,49.9308486 69.9892771,49.9078058 69.9713831,49.8863977 C69.9625621,49.877132 69.9546405,49.8670499 69.9477249,49.8562871 C69.938949,49.8485441 69.9310186,49.8398927 69.9240667,49.8304779 L69.9004084,49.802518 L69.8681471,49.7616535 L69.8337351,49.7186383 C69.8241299,49.7054834 69.8133303,49.6932438 69.8014738,49.6820753 C69.7891173,49.6714015 69.7782647,49.6591019 69.7692126,49.6455123 C69.7584862,49.636063 69.7490817,49.6252115 69.7412529,49.6132509 L69.7154439,49.5809894 C69.692565,49.5593733 69.6710179,49.5363896 69.6509214,49.5121651 L69.5907003,49.4454914 L69.5218764,49.3809685 L69.4530524,49.3164457 L69.4207911,49.2906365 L69.3863791,49.2626766 C69.3738716,49.2530851 69.3623447,49.2422786 69.3519671,49.2304151 L69.3154044,49.1981537 C69.290801,49.1750204 69.2641679,49.1541457 69.2358266,49.1357816 C69.2278428,49.1264399 69.2184011,49.1184507 69.2078669,49.1121232 L69.1799071,49.0906155 L69.1325906,49.0540526 L69.0809726,49.0153389 L69.0530128,48.9981328 L69.0272038,48.9809267 C69.0099659,48.9713673 68.9934346,48.9605859 68.9777366,48.9486653 C68.9621078,48.9366467 68.9455689,48.9258604 68.9282693,48.9164038 C68.908597,48.9070115 68.890467,48.894683 68.8745006,48.8798408 L68.8250333,48.8518809 L68.7755661,48.823921 C68.7556892,48.814889 68.7375039,48.802523 68.7217973,48.7873581 L68.6938376,48.7744535 C68.6711193,48.7602794 68.6464964,48.7494163 68.6207121,48.742192 L68.6056568,48.742192 C68.5876212,48.7349494 68.5709069,48.7247754 68.5561896,48.7120814 C68.5327088,48.6979007 68.5073756,48.6870436 68.4809133,48.67982 L68.4680088,48.67982 C68.4529194,48.6751866 68.4384689,48.6686838 68.4249938,48.6604631 L68.3819788,48.643257 L68.3002503,48.6152971 L68.2550845,48.598091 L68.2077681,48.5808849 L68.173356,48.5679803 L68.1367933,48.5550757 C68.113933,48.5491114 68.0916267,48.5411962 68.07012,48.5314173 L68.035708,48.5185128 L68.001296,48.5185128 C67.9906116,48.5202399 67.9797192,48.5202399 67.9690348,48.5185128 L67.8593465,48.4905529 L67.7926732,48.4905529 L67.7367538,48.4776482 L67.6765327,48.4647437 L67.6120102,48.4647437 C67.5727825,48.4534933 67.5323457,48.4469945 67.4915683,48.4453869 L67.416292,48.4453869 C67.3798791,48.440706 67.3430167,48.440706 67.3066037,48.4453869 L66.9495792,48.4453869 L21.280551,48.2453659 Z" id="路径" transform="translate(44.004313, 56.393117) scale(-1, 1) translate(-44.004313, -56.393117) "></path>
                <path d="M29.8684963,23.4255668 C28.8739565,23.4235056 27.9198875,23.8192296 27.2187721,24.5246065 L18.4308071,33.3104712 L18.3662846,33.3814464 C18.3460707,33.4042035 18.3252732,33.4264355 18.3039129,33.4481201 L18.2781038,33.4782307 C18.2696682,33.4897202 18.2603179,33.5005091 18.2501441,33.5104921 C18.241092,33.5240817 18.2302394,33.5363813 18.2178828,33.5470551 C18.2054479,33.5576494 18.1945851,33.5699607 18.1856216,33.5836181 C18.1615999,33.6087784 18.1399973,33.6361418 18.1210991,33.665347 L18.0974408,33.6933069 L18.0737826,33.7191161 L18.0372198,33.7685837 L17.9985063,33.820202 C17.9938385,33.8301382 17.9880668,33.8395172 17.9813003,33.8481619 C17.973868,33.8567638 17.9673787,33.8661372 17.9619435,33.8761218 C17.9524034,33.8933713 17.9416212,33.9099041 17.9296823,33.9255893 C17.9177623,33.940534 17.9069784,33.9563505 17.897421,33.9729061 C17.8889077,33.9937054 17.8764975,34.0126859 17.8608583,34.0288259 L17.8328985,34.0782934 C17.8226848,34.0942612 17.813351,34.110775 17.8049388,34.127761 C17.7958335,34.1487634 17.7826783,34.1677654 17.7662253,34.1836808 L17.7533208,34.2094899 C17.7403209,34.2328111 17.7295205,34.2572921 17.7210595,34.2826158 C17.7146441,34.3010537 17.7043801,34.317916 17.690949,34.3320834 C17.6772057,34.3550273 17.6663689,34.379591 17.6586878,34.4052094 L17.6586878,34.4181139 C17.6538964,34.4321139 17.6481475,34.4457676 17.6414818,34.4589784 C17.6336116,34.4718819 17.6271235,34.4855791 17.622125,34.4998429 L17.5941653,34.5815718 C17.589152,34.597204 17.5826709,34.6123267 17.5748085,34.6267378 L17.5576026,34.6719039 L17.5425473,34.7084668 L17.527492,34.7450298 C17.5217927,34.7679708 17.5138691,34.7903011 17.5038338,34.8117034 L17.4909293,34.8461156 C17.489806,34.8568401 17.489806,34.8676526 17.4909293,34.8783771 C17.4930168,34.8890296 17.4930168,34.899986 17.4909293,34.9106385 L17.4629696,35.0203274 C17.4590609,35.0380373 17.4590609,35.0563865 17.4629696,35.0740965 C17.4629696,35.0956041 17.4629696,35.1192625 17.4479143,35.1386193 L17.4479143,35.1859361 C17.4489717,35.1945067 17.4489717,35.2031747 17.4479143,35.2117452 C17.4464937,35.2246107 17.4464937,35.2375935 17.4479143,35.250459 C17.4383788,35.2892427 17.4326166,35.3288578 17.4307083,35.3687509 C17.4319158,35.3809087 17.4319158,35.3931562 17.4307083,35.4053139 C17.4283853,35.4173909 17.4283853,35.4297999 17.4307083,35.4418769 C17.4269482,35.4783238 17.4269482,35.5151189 17.4307083,35.5515658 C17.4316403,35.565889 17.4316403,35.5802577 17.4307083,35.594581 C17.4298041,35.6096228 17.4298041,35.6247053 17.4307083,35.639747 C17.4317286,35.6526314 17.4317286,35.6655763 17.4307083,35.6784607 C17.4286361,35.6956044 17.4286361,35.7129353 17.4307083,35.730079 L17.4307083,35.9085923 C17.4263204,35.9694516 17.4263204,36.0305479 17.4307083,36.0914071 C17.4269482,36.1156037 17.4269482,36.1403365 17.4307083,36.1645331 C17.4317444,36.1731049 17.4317444,36.1817703 17.4307083,36.1903422 C17.4256949,36.2202442 17.4256949,36.2507722 17.4307083,36.2806742 C17.4296605,36.2985819 17.4296605,36.3165356 17.4307083,36.3344433 C17.4317182,36.3523521 17.4317182,36.3703036 17.4307083,36.3882123 C17.4295674,36.4003733 17.4295674,36.4126143 17.4307083,36.4247753 C17.431975,36.43693 17.431975,36.4491835 17.4307083,36.4613383 C17.4321151,36.4813874 17.4321151,36.5015105 17.4307083,36.5215596 C17.4294002,36.5408944 17.4294002,36.5602954 17.4307083,36.5796302 C17.4296509,36.5882008 17.4296509,36.5968688 17.4307083,36.6054393 C17.4320315,36.61831 17.4320315,36.6312824 17.4307083,36.6441531 L17.4436127,36.6914699 L17.4436127,36.7645958 C17.4424868,36.7738818 17.4424868,36.7832697 17.4436127,36.7925557 C17.4445898,36.801131 17.4445898,36.8097895 17.4436127,36.8183648 L17.4715725,36.9280537 C17.4729689,36.9387622 17.4729689,36.9496067 17.4715725,36.9603152 C17.469485,36.9709677 17.469485,36.9819241 17.4715725,36.9925766 C17.4781369,37.0280482 17.4904893,37.0621991 17.5081352,37.0936625 L17.5210398,37.1302254 L17.5339443,37.1667884 C17.5339443,37.179693 17.5468488,37.1947483 17.553301,37.2119543 C17.553301,37.2270097 17.5683563,37.2442158 17.5726578,37.2571204 L17.6006175,37.3388494 C17.6053981,37.3535515 17.611146,37.3679212 17.6178235,37.3818646 C17.6244536,37.3950918 17.6302015,37.4087431 17.6350295,37.4227291 L17.6522356,37.4657444 C17.6586696,37.479061 17.6644125,37.4927006 17.6694415,37.5066088 L17.6694415,37.5216642 C17.6755313,37.5402538 17.6858365,37.5571838 17.699552,37.5711317 L17.7146073,37.5990916 C17.7286088,37.6219008 17.739461,37.6464991 17.7468686,37.6722175 C17.7560077,37.6920341 17.7683621,37.7102024 17.7834313,37.7259866 L17.811391,37.7754541 L17.8372,37.8227709 C17.8468541,37.8434633 17.8599438,37.8623708 17.8759135,37.8786907 C17.8854133,37.8959646 17.8961974,37.9125003 17.9081748,37.9281582 C17.920817,37.9433358 17.931644,37.9599373 17.940436,37.9776259 L17.9597928,38.0055857 C17.9669729,38.0143802 17.9734454,38.0237294 17.9791496,38.0335456 C17.9920867,38.0571337 18.0072082,38.0794561 18.0243153,38.1002193 L18.0501243,38.1324807 L18.0737826,38.1604407 C18.0804596,38.1700785 18.0884189,38.1787615 18.0974408,38.1862498 C18.1070265,38.2014282 18.1178149,38.2158128 18.129702,38.229265 C18.1416074,38.2419365 18.1524009,38.2556084 18.1619633,38.2701296 C18.1712963,38.2835008 18.1821196,38.2957672 18.1942246,38.3066925 L18.2264858,38.3432555 L18.2544455,38.3755169 L18.2824053,38.4077783 C18.3060636,38.429286 18.3254203,38.4529444 18.3447771,38.474452 L18.4071488,38.5411255 L18.4759728,38.6056485 C18.4987088,38.6243643 18.520258,38.6444769 18.5404953,38.6658698 L18.5727566,38.6938298 L18.6071686,38.7217897 C18.6203551,38.7313553 18.6325983,38.7421581 18.6437313,38.754051 C18.6556142,38.7659749 18.6685738,38.7767746 18.6824449,38.7863125 C18.7070482,38.8094458 18.7336813,38.8303205 18.7620226,38.8486846 L18.7899824,38.872343 C18.8002706,38.8790078 18.8096664,38.8869581 18.8179421,38.8960014 L18.8674093,38.9325644 L18.9168766,38.9691273 L18.9448364,38.9863335 L18.9727961,39.0056903 C18.990324,39.0147603 19.0068963,39.0255684 19.0222633,39.0379517 L19.0695799,39.0702132 C19.0904041,39.0786789 19.109393,39.0910948 19.1254994,39.1067761 L19.1749666,39.134736 L19.2244339,39.1626959 C19.2443108,39.171728 19.262496,39.184094 19.2782026,39.1992589 L19.3061624,39.2121635 C19.3288806,39.2263376 19.3535035,39.2372007 19.3792879,39.2444249 L19.3921924,39.2444249 C19.4098101,39.2512151 19.4258962,39.2614517 19.4395089,39.2745356 C19.4629896,39.2887163 19.4883228,39.2995734 19.5147852,39.3067971 L19.5319911,39.3067971 L19.5728554,39.3240031 L19.6137196,39.3412092 L19.6954482,39.3691691 L19.7406139,39.388526 L19.7857797,39.4057321 L19.8223424,39.4186367 L19.8610559,39.4315413 L19.9255785,39.4551996 L19.9621412,39.4681043 C19.9728256,39.4698314 19.983718,39.4698314 19.9944024,39.4681043 C20.00506,39.4660699 20.0160062,39.4660699 20.0266637,39.4681043 L20.1385026,39.4960642 L20.2030252,39.4960642 L20.2589447,39.5089687 L20.3148642,39.5218733 L20.3406732,39.5218733 C20.3542163,39.5239391 20.3679944,39.5239391 20.3815374,39.5218733 C20.4200694,39.5329554 20.4597742,39.5394526 20.4998287,39.5412302 L20.575105,39.5412302 C20.6115179,39.5459111 20.6483803,39.5459111 20.6847932,39.5412302 L66.6785847,39.5412302 C68.0420046,39.5738575 69.3160544,38.8651311 70.0073573,37.6895059 C70.6986602,36.5138807 70.6986602,35.0559662 70.0073573,33.880341 C69.3160544,32.7047159 68.0420046,31.9959895 66.6785847,32.0286168 L30.1158326,32.0286168 L32.4967129,29.6477227 C33.5706515,28.5751811 33.8923787,26.9611354 33.3117591,25.5587874 C32.7311395,24.1564394 31.3626246,23.2422193 29.844838,23.2427518 L29.8684963,23.4255668 Z" id="路径" transform="translate(43.976391, 31.393746) scale(-1, 1) translate(-43.976391, -31.393746) "></path>
            </g>
            <g id="转换-备份" fill="#3B71E9" fill-rule="nonzero">
                <path d="M51.0678007,0.860501232 C52.4389039,1.14110056 53.8078815,1.49822703 55.142847,1.90849725 C56.4778125,2.31876748 57.7745149,2.7991876 59.0499597,3.33700296 C60.3254045,3.87481831 61.562586,4.47215484 62.7657557,5.1268866 C63.9689254,5.78161836 65.1402088,6.49374552 66.2689775,7.25263919 C70.7943228,10.3095331 74.6911032,14.206334 77.7479811,18.731703 C78.5111223,19.8604776 79.2360001,21.0402702 79.8737225,22.2370689 C80.5114448,23.4338676 81.1321614,24.6923131 81.6635967,25.9550102 C82.195032,27.2177073 82.6839526,28.5420511 83.0942207,29.8600176 C83.5044888,31.1779842 83.8616134,32.5639749 84.1422112,33.9350852 C84.4255596,35.3307288 84.6384036,36.7397635 84.7799337,38.1568299 C85.0733554,41.0475122 85.0733554,43.9604755 84.7799337,46.8511578 C84.6384036,48.2682241 84.4255596,49.6772588 84.1422112,51.0729024 C83.8616134,52.441887 83.5044888,53.8129975 83.0942207,55.14797 C82.6839526,56.4829426 82.203535,57.7817774 81.6635967,59.0529775 C80.5952955,61.5818237 79.2839355,64.0009468 77.7479811,66.2762846 C74.6911032,70.8016536 70.7943228,74.6984545 66.2689775,77.7553485 C65.1402088,78.5184936 63.9604223,79.2433753 62.7657557,79.881101 C61.5710891,80.5188267 60.3105244,81.1374207 59.0499597,81.6709846 C57.789395,82.2045485 56.4608067,82.6892201 55.142847,83.1016161 C53.8248872,83.5140121 52.4389039,83.8690128 51.0678007,84.1496121 C49.6966976,84.4302115 48.2618221,84.649164 46.848204,84.7873379 C45.403638,84.9310432 43.9527576,85.0019913 42.5010628,84.9999575 C41.0493681,85.0019913 39.5984877,84.9310432 38.1539217,84.7873379 C35.3384164,84.5122469 32.5588138,83.9473478 29.8592787,83.1016161 C25.9088098,81.8722127 22.1596285,80.0710207 18.7310224,77.7553485 C14.2062827,74.6977206 10.3096307,70.8010481 7.25201888,66.2762846 C6.48887774,65.14751 5.76399989,63.9677174 5.12627744,62.7709187 C4.48855499,61.57412 3.8678385,60.3156745 3.33427742,59.0529775 C2.25041131,56.4801181 1.42096119,53.8073524 0.857788686,51.0729024 C0.574596096,49.6772313 0.361753297,48.2682045 0.22006632,46.8511578 C-0.0733554402,43.9604755 -0.0733554402,41.0475122 0.22006632,38.1568299 C0.361753294,36.7397832 0.574596093,35.3307563 0.857788686,33.9350852 C1.13838654,32.5661006 1.49551113,31.1949901 1.90577921,29.8600176 C2.31604729,28.5250451 2.79646489,27.2262102 3.33427742,25.9550102 C3.87208995,24.6838102 4.46942335,23.4423707 5.12627744,22.2370689 C5.78313153,21.0317671 6.49312919,19.8604775 7.25201888,18.731703 C10.3096307,14.2069395 14.2062827,10.3102671 18.7310224,7.25263919 C19.8619168,6.48949405 21.0417034,5.76461239 22.2363701,5.1268866 C23.4310368,4.48916081 24.6916014,3.87056684 25.952166,3.33700296 C28.5245943,2.25198696 31.19746,1.42249712 33.9321993,0.860501232 C35.3274798,0.575145485 36.73661,0.362284808 38.1539217,0.222775439 C42.4660415,-0.218454051 46.8201333,-0.00343603488 51.0678007,0.860501232 Z M49.6566336,7.71877198 C46.1085819,6.9971299 42.4716346,6.81752653 38.8697463,7.18608311 C37.6858743,7.30261452 36.5088361,7.48041588 35.3433664,7.71877198 C33.0590548,8.18820407 30.8264258,8.8810724 28.6776916,9.78738034 C27.6247494,10.2330633 26.5718072,10.7497715 25.5739091,11.2824604 C24.576011,11.8151492 23.5905423,12.4206389 22.6459129,13.0580899 C18.8664244,15.6121098 15.6115739,18.8669789 13.0575687,22.6464891 C12.4236726,23.5893483 11.8306158,24.5677201 11.2819494,25.5745021 C10.733283,26.5812841 10.234334,27.6182517 9.78510232,28.6800782 C9.33587067,29.7419046 8.93458067,30.8268143 8.59188616,31.9419095 C8.24919165,33.0570048 7.95088758,34.2022859 7.71650584,35.3457912 C7.47995674,36.5115877 7.3021704,37.6885401 7.1838201,38.8721915 C6.93872663,41.2867626 6.93872663,43.719945 7.1838201,46.1345161 C7.3021704,47.3181674 7.47995674,48.4951198 7.71650584,49.6609163 C8.18692052,51.9449874 8.87975533,54.177534 9.78510232,56.3266294 C10.2307828,57.3813533 10.7492636,58.432526 11.2819494,59.4322054 C11.8146352,60.4318848 12.4201214,61.4173591 13.0575687,62.3602184 C15.6115739,66.1397286 18.8664244,69.3945978 22.6459129,71.9486177 C25.5098074,73.882886 28.6414765,75.3874119 31.9412799,76.4143258 C34.1961857,77.1207609 36.5179713,77.592618 38.8697463,77.8224 C40.0763838,77.9424363 41.2882957,78.0016988 42.5008878,78 C43.7134799,78.0016988 44.9253917,77.9424363 46.1320292,77.8224 C47.3128161,77.7069841 48.5113592,77.5240943 49.6566336,77.2897112 C50.8019079,77.0553281 51.9596117,76.7587979 53.0604957,76.4143258 C54.1613797,76.0698537 55.2711417,75.6650102 56.324084,75.2193272 C57.3770262,74.7736442 58.4299685,74.2569359 59.4278665,73.7242471 C60.4257645,73.1915583 61.4112332,72.5860686 62.3540871,71.9486177 C66.1340814,69.3952109 69.3890391,66.1402344 71.9424313,62.3602184 C73.2254049,60.4596411 74.3207762,58.4389609 75.213122,56.3266294 C75.6641293,55.2648029 76.0654193,54.1798933 76.4081138,53.064798 C76.7508083,51.9497027 77.0491124,50.8044216 77.2834941,49.6609163 C77.5201733,48.4951428 77.6979606,47.3181839 77.8161799,46.1345161 C78.0612734,43.719945 78.0612734,41.2867626 77.8161799,38.8721915 C77.6979606,37.6885237 77.5201733,36.5115647 77.2834941,35.3457912 C77.0491124,34.2005103 76.7508083,33.0427998 76.4081138,31.9419095 C76.0654193,30.8410193 75.6570268,29.7348022 75.213122,28.6800782 C74.7692172,27.6253542 74.2507363,26.5741815 73.7180505,25.5745021 C73.1853648,24.5748227 72.5798786,23.5893484 71.9424313,22.6464891 C69.3890391,18.8664731 66.1340814,15.6114967 62.3540871,13.0580899 C61.4112333,12.4241901 60.4328671,11.8293542 59.4278665,11.2824604 C58.422866,10.7355665 57.3894555,10.2366146 56.324084,9.78738034 C55.2587124,9.33814611 54.1755845,8.93685381 53.0604957,8.59415733 C51.9454069,8.25146085 50.801908,7.95315506 49.6566336,7.71877198 Z" id="形状结合"></path>
                <path d="M20.280551,46.2453659 C18.9171311,46.2127386 17.6430813,46.921465 16.9517784,48.0970902 C16.2604755,49.2727154 16.2604755,50.7306299 16.9517784,51.9062551 C17.6430813,53.0818802 18.9171311,53.7906066 20.280551,53.7579793 L56.8433031,53.7579793 L54.4624228,56.1388734 C53.5149991,57.0866867 53.145193,58.4679497 53.4923068,59.762354 C53.8394207,61.0567584 54.8507196,62.0676532 56.1452571,62.4142442 C57.4397947,62.7608352 58.8208997,62.390467 59.7683234,61.4426537 L68.5541376,52.6567889 C68.5777959,52.6352813 68.5971526,52.6116229 68.6165094,52.5901153 L68.6788811,52.5212909 C68.6890832,52.5113345 68.6984356,52.5005431 68.7068408,52.4890295 L68.7348007,52.456768 C68.7478576,52.4447131 68.7600738,52.4317782 68.7713634,52.4180542 L68.8079262,52.375039 C68.8319672,52.3498955 68.8535713,52.3225302 68.8724487,52.29331 L68.8939562,52.2653501 C68.9005187,52.2549863 68.9084798,52.2455776 68.9176144,52.2373902 L68.9520264,52.1900734 L68.9928906,52.1384552 L69.0100967,52.1104952 L69.0273027,52.0846861 C69.0366098,52.0672974 69.0474038,52.0507466 69.0595639,52.0352186 C69.0724367,52.0202127 69.0832831,52.0035813 69.0918252,51.985751 C69.1001827,51.9655028 69.11263,51.9471978 69.1283879,51.931982 C69.1362565,51.9153959 69.1456148,51.8995586 69.1563477,51.8846651 C69.1669149,51.8689128 69.176262,51.8523754 69.1843074,51.8351976 C69.1938293,51.8150662 69.2069492,51.796844 69.2230209,51.7814285 L69.2359254,51.7534686 C69.2489832,51.7304496 69.2590992,51.7058822 69.2660359,51.6803427 C69.2724513,51.6619049 69.2827153,51.6450426 69.2961464,51.6308752 C69.310057,51.6080184 69.3209036,51.5834326 69.3284076,51.5577493 C69.3292214,51.5534862 69.3292214,51.5491077 69.3284076,51.5448447 C69.3339847,51.5308256 69.3404501,51.5171764 69.3477644,51.5039802 C69.3551112,51.4908006 69.3615775,51.4771493 69.3671212,51.4631157 L69.3950809,51.3792359 L69.4122869,51.33407 C69.4122869,51.3190147 69.4251914,51.3018085 69.429493,51.288904 C69.4337945,51.2759994 69.429493,51.2630949 69.4445481,51.252341 L69.4574527,51.2179288 C69.4646247,51.1951765 69.4732453,51.1729065 69.4832617,51.1512552 L69.4961661,51.1168429 C69.4973385,51.1061211 69.4973385,51.0953034 69.4961661,51.0845815 C69.4950429,51.073857 69.4950429,51.0630446 69.4961661,51.0523201 L69.5262767,50.9426312 C69.5302555,50.924929 69.5302555,50.9065643 69.5262767,50.8888622 L69.5391812,50.8329423 L69.5520857,50.7770225 C69.5510283,50.7684519 69.5510283,50.7597839 69.5520857,50.7512133 C69.5534089,50.7383427 69.5534089,50.7253703 69.5520857,50.7124996 C69.563336,50.6732717 69.5698348,50.6328346 69.5714424,50.5920569 C69.5703067,50.5806143 69.5703067,50.5690873 69.5714424,50.5576447 C69.5725833,50.5454838 69.5725833,50.5332427 69.5714424,50.5210818 C69.5766193,50.484702 69.5766193,50.4477726 69.5714424,50.4113929 C69.5704534,50.3963538 69.5704534,50.3812659 69.5714424,50.3662268 C69.5724768,50.3511893 69.5724768,50.3360984 69.5714424,50.3210608 C69.5704817,50.3088921 69.5704817,50.2966666 69.5714424,50.2844979 C69.5727428,50.2673163 69.5727428,50.2500611 69.5714424,50.2328795 L69.5714424,50.1425476 L69.5714424,50.0522155 C69.5753251,49.9913539 69.5753251,49.9302623 69.5714424,49.8694007 C69.5759847,49.8394613 69.5759847,49.809008 69.5714424,49.7790687 C69.5753251,49.7490939 69.5753251,49.7187114 69.5714424,49.6887367 C69.5725758,49.6701139 69.5725758,49.6514395 69.5714424,49.6328168 C69.5704459,49.6149076 69.5704459,49.5969569 69.5714424,49.5790478 C69.5725833,49.5668868 69.5725833,49.5546458 69.5714424,49.5424848 C69.5701757,49.5303301 69.5701757,49.5180766 69.5714424,49.5059219 L69.5714424,49.4478513 C69.5737347,49.4278429 69.5737347,49.4076383 69.5714424,49.3876299 C69.572522,49.3790607 69.572522,49.37039 69.5714424,49.3618208 C69.5689483,49.3490367 69.5689483,49.3358911 69.5714424,49.3231071 L69.5585379,49.2671873 L69.5456335,49.2112674 C69.5416546,49.1935652 69.5416546,49.1752005 69.5456335,49.1574984 L69.515523,49.0478095 C69.5141265,49.037101 69.5141265,49.0262565 69.515523,49.015548 C69.5166953,49.0048261 69.5166953,48.9940084 69.515523,48.9832865 C69.5076247,48.948562 69.4945758,48.9152145 69.4768094,48.8843515 L69.4639049,48.85209 C69.4596609,48.8388975 69.4546335,48.82597 69.4488497,48.8133764 L69.4316437,48.7682103 C69.4316437,48.753155 69.4187392,48.7359489 69.4144377,48.7230443 L69.3864779,48.6413153 C69.3810977,48.6272114 69.3746259,48.6135485 69.3671212,48.6004509 C69.3598068,48.5872547 69.3533414,48.5736055 69.3477644,48.5595863 L69.3305584,48.5144204 C69.3305584,48.499365 69.3176539,48.4821589 69.3133524,48.4692544 L69.3133524,48.4563498 C69.3055687,48.4381038 69.2946501,48.4213617 69.2810912,48.4068822 C69.2818246,48.3997318 69.2818246,48.392525 69.2810912,48.3853746 C69.2671806,48.3625177 69.2563339,48.337932 69.2488299,48.3122487 C69.2387801,48.2924336 69.2257207,48.2742955 69.2101164,48.2584796 C69.2101164,48.2391228 69.1907597,48.2240675 69.1821566,48.209012 L69.1563477,48.1616953 C69.1465569,48.1417238 69.133469,48.123546 69.1176341,48.1079262 C69.1090388,48.0912816 69.0989612,48.0754454 69.0875236,48.0606095 C69.0751404,48.0452423 69.0643324,48.0286699 69.0552624,48.0111419 C69.0498272,48.0011574 69.0433379,47.9917839 69.0359056,47.983182 C69.0291391,47.9745373 69.0233674,47.9651583 69.0186997,47.9552221 C69.005119,47.9308486 68.9892771,47.9078058 68.9713831,47.8863977 C68.9625621,47.877132 68.9546405,47.8670499 68.9477249,47.8562871 C68.938949,47.8485441 68.9310186,47.8398927 68.9240667,47.8304779 L68.9004084,47.802518 L68.8681471,47.7616535 L68.8337351,47.7186383 C68.8241299,47.7054834 68.8133303,47.6932438 68.8014738,47.6820753 C68.7891173,47.6714015 68.7782647,47.6591019 68.7692126,47.6455123 C68.7584862,47.636063 68.7490817,47.6252115 68.7412529,47.6132509 L68.7154439,47.5809894 C68.692565,47.5593733 68.6710179,47.5363896 68.6509214,47.5121651 L68.5907003,47.4454914 L68.5218764,47.3809685 L68.4530524,47.3164457 L68.4207911,47.2906365 L68.3863791,47.2626766 C68.3738716,47.2530851 68.3623447,47.2422786 68.3519671,47.2304151 L68.3154044,47.1981537 C68.290801,47.1750204 68.2641679,47.1541457 68.2358266,47.1357816 C68.2278428,47.1264399 68.2184011,47.1184507 68.2078669,47.1121232 L68.1799071,47.0906155 L68.1325906,47.0540526 L68.0809726,47.0153389 L68.0530128,46.9981328 L68.0272038,46.9809267 C68.0099659,46.9713673 67.9934346,46.9605859 67.9777366,46.9486653 C67.9621078,46.9366467 67.9455689,46.9258604 67.9282693,46.9164038 C67.908597,46.9070115 67.890467,46.894683 67.8745006,46.8798408 L67.8250333,46.8518809 L67.7755661,46.823921 C67.7556892,46.814889 67.7375039,46.802523 67.7217973,46.7873581 L67.6938376,46.7744535 C67.6711193,46.7602794 67.6464964,46.7494163 67.6207121,46.742192 L67.6056568,46.742192 C67.5876212,46.7349494 67.5709069,46.7247754 67.5561896,46.7120814 C67.5327088,46.6979007 67.5073756,46.6870436 67.4809133,46.67982 L67.4680088,46.67982 C67.4529194,46.6751866 67.4384689,46.6686838 67.4249938,46.6604631 L67.3819788,46.643257 L67.3002503,46.6152971 L67.2550845,46.598091 L67.2077681,46.5808849 L67.173356,46.5679803 L67.1367933,46.5550757 C67.113933,46.5491114 67.0916267,46.5411962 67.07012,46.5314173 L67.035708,46.5185128 L67.001296,46.5185128 C66.9906116,46.5202399 66.9797192,46.5202399 66.9690348,46.5185128 L66.8593465,46.4905529 L66.7926732,46.4905529 L66.7367538,46.4776482 L66.6765327,46.4647437 L66.6120102,46.4647437 C66.5727825,46.4534933 66.5323457,46.4469945 66.4915683,46.4453869 L66.416292,46.4453869 C66.3798791,46.440706 66.3430167,46.440706 66.3066037,46.4453869 L65.9495792,46.4453869 L20.280551,46.2453659 Z" id="路径" transform="translate(43.004313, 54.393117) scale(-1, 1) translate(-43.004313, -54.393117) "></path>
                <path d="M28.8684963,21.4255668 C27.8739565,21.4235056 26.9198875,21.8192296 26.2187721,22.5246065 L17.4308071,31.3104712 L17.3662846,31.3814464 C17.3460707,31.4042035 17.3252732,31.4264355 17.3039129,31.4481201 L17.2781038,31.4782307 C17.2696682,31.4897202 17.2603179,31.5005091 17.2501441,31.5104921 C17.241092,31.5240817 17.2302394,31.5363813 17.2178828,31.5470551 C17.2054479,31.5576494 17.1945851,31.5699607 17.1856216,31.5836181 C17.1615999,31.6087784 17.1399973,31.6361418 17.1210991,31.665347 L17.0974408,31.6933069 L17.0737826,31.7191161 L17.0372198,31.7685837 L16.9985063,31.820202 C16.9938385,31.8301382 16.9880668,31.8395172 16.9813003,31.8481619 C16.973868,31.8567638 16.9673787,31.8661372 16.9619435,31.8761218 C16.9524034,31.8933713 16.9416212,31.9099041 16.9296823,31.9255893 C16.9177623,31.940534 16.9069784,31.9563505 16.897421,31.9729061 C16.8889077,31.9937054 16.8764975,32.0126859 16.8608583,32.0288259 L16.8328985,32.0782934 C16.8226848,32.0942612 16.813351,32.110775 16.8049388,32.127761 C16.7958335,32.1487634 16.7826783,32.1677654 16.7662253,32.1836808 L16.7533208,32.2094899 C16.7403209,32.2328111 16.7295205,32.2572921 16.7210595,32.2826158 C16.7146441,32.3010537 16.7043801,32.317916 16.690949,32.3320834 C16.6772057,32.3550273 16.6663689,32.379591 16.6586878,32.4052094 L16.6586878,32.4181139 C16.6538964,32.4321139 16.6481475,32.4457676 16.6414818,32.4589784 C16.6336116,32.4718819 16.6271235,32.4855791 16.622125,32.4998429 L16.5941653,32.5815718 C16.589152,32.597204 16.5826709,32.6123267 16.5748085,32.6267378 L16.5576026,32.6719039 L16.5425473,32.7084668 L16.527492,32.7450298 C16.5217927,32.7679708 16.5138691,32.7903011 16.5038338,32.8117034 L16.4909293,32.8461156 C16.489806,32.8568401 16.489806,32.8676526 16.4909293,32.8783771 C16.4930168,32.8890296 16.4930168,32.899986 16.4909293,32.9106385 L16.4629696,33.0203274 C16.4590609,33.0380373 16.4590609,33.0563865 16.4629696,33.0740965 C16.4629696,33.0956041 16.4629696,33.1192625 16.4479143,33.1386193 L16.4479143,33.1859361 C16.4489717,33.1945067 16.4489717,33.2031747 16.4479143,33.2117452 C16.4464937,33.2246107 16.4464937,33.2375935 16.4479143,33.250459 C16.4383788,33.2892427 16.4326166,33.3288578 16.4307083,33.3687509 C16.4319158,33.3809087 16.4319158,33.3931562 16.4307083,33.4053139 C16.4283853,33.4173909 16.4283853,33.4297999 16.4307083,33.4418769 C16.4269482,33.4783238 16.4269482,33.5151189 16.4307083,33.5515658 C16.4316403,33.565889 16.4316403,33.5802577 16.4307083,33.594581 C16.4298041,33.6096228 16.4298041,33.6247053 16.4307083,33.639747 C16.4317286,33.6526314 16.4317286,33.6655763 16.4307083,33.6784607 C16.4286361,33.6956044 16.4286361,33.7129353 16.4307083,33.730079 L16.4307083,33.9085923 C16.4263204,33.9694516 16.4263204,34.0305479 16.4307083,34.0914071 C16.4269482,34.1156037 16.4269482,34.1403365 16.4307083,34.1645331 C16.4317444,34.1731049 16.4317444,34.1817703 16.4307083,34.1903422 C16.4256949,34.2202442 16.4256949,34.2507722 16.4307083,34.2806742 C16.4296605,34.2985819 16.4296605,34.3165356 16.4307083,34.3344433 C16.4317182,34.3523521 16.4317182,34.3703036 16.4307083,34.3882123 C16.4295674,34.4003733 16.4295674,34.4126143 16.4307083,34.4247753 C16.431975,34.43693 16.431975,34.4491835 16.4307083,34.4613383 C16.4321151,34.4813874 16.4321151,34.5015105 16.4307083,34.5215596 C16.4294002,34.5408944 16.4294002,34.5602954 16.4307083,34.5796302 C16.4296509,34.5882008 16.4296509,34.5968688 16.4307083,34.6054393 C16.4320315,34.61831 16.4320315,34.6312824 16.4307083,34.6441531 L16.4436127,34.6914699 L16.4436127,34.7645958 C16.4424868,34.7738818 16.4424868,34.7832697 16.4436127,34.7925557 C16.4445898,34.801131 16.4445898,34.8097895 16.4436127,34.8183648 L16.4715725,34.9280537 C16.4729689,34.9387622 16.4729689,34.9496067 16.4715725,34.9603152 C16.469485,34.9709677 16.469485,34.9819241 16.4715725,34.9925766 C16.4781369,35.0280482 16.4904893,35.0621991 16.5081352,35.0936625 L16.5210398,35.1302254 L16.5339443,35.1667884 C16.5339443,35.179693 16.5468488,35.1947483 16.553301,35.2119543 C16.553301,35.2270097 16.5683563,35.2442158 16.5726578,35.2571204 L16.6006175,35.3388494 C16.6053981,35.3535515 16.611146,35.3679212 16.6178235,35.3818646 C16.6244536,35.3950918 16.6302015,35.4087431 16.6350295,35.4227291 L16.6522356,35.4657444 C16.6586696,35.479061 16.6644125,35.4927006 16.6694415,35.5066088 L16.6694415,35.5216642 C16.6755313,35.5402538 16.6858365,35.5571838 16.699552,35.5711317 L16.7146073,35.5990916 C16.7286088,35.6219008 16.739461,35.6464991 16.7468686,35.6722175 C16.7560077,35.6920341 16.7683621,35.7102024 16.7834313,35.7259866 L16.811391,35.7754541 L16.8372,35.8227709 C16.8468541,35.8434633 16.8599438,35.8623708 16.8759135,35.8786907 C16.8854133,35.8959646 16.8961974,35.9125003 16.9081748,35.9281582 C16.920817,35.9433358 16.931644,35.9599373 16.940436,35.9776259 L16.9597928,36.0055857 C16.9669729,36.0143802 16.9734454,36.0237294 16.9791496,36.0335456 C16.9920867,36.0571337 17.0072082,36.0794561 17.0243153,36.1002193 L17.0501243,36.1324807 L17.0737826,36.1604407 C17.0804596,36.1700785 17.0884189,36.1787615 17.0974408,36.1862498 C17.1070265,36.2014282 17.1178149,36.2158128 17.129702,36.229265 C17.1416074,36.2419365 17.1524009,36.2556084 17.1619633,36.2701296 C17.1712963,36.2835008 17.1821196,36.2957672 17.1942246,36.3066925 L17.2264858,36.3432555 L17.2544455,36.3755169 L17.2824053,36.4077783 C17.3060636,36.429286 17.3254203,36.4529444 17.3447771,36.474452 L17.4071488,36.5411255 L17.4759728,36.6056485 C17.4987088,36.6243643 17.520258,36.6444769 17.5404953,36.6658698 L17.5727566,36.6938298 L17.6071686,36.7217897 C17.6203551,36.7313553 17.6325983,36.7421581 17.6437313,36.754051 C17.6556142,36.7659749 17.6685738,36.7767746 17.6824449,36.7863125 C17.7070482,36.8094458 17.7336813,36.8303205 17.7620226,36.8486846 L17.7899824,36.872343 C17.8002706,36.8790078 17.8096664,36.8869581 17.8179421,36.8960014 L17.8674093,36.9325644 L17.9168766,36.9691273 L17.9448364,36.9863335 L17.9727961,37.0056903 C17.990324,37.0147603 18.0068963,37.0255684 18.0222633,37.0379517 L18.0695799,37.0702132 C18.0904041,37.0786789 18.109393,37.0910948 18.1254994,37.1067761 L18.1749666,37.134736 L18.2244339,37.1626959 C18.2443108,37.171728 18.262496,37.184094 18.2782026,37.1992589 L18.3061624,37.2121635 C18.3288806,37.2263376 18.3535035,37.2372007 18.3792879,37.2444249 L18.3921924,37.2444249 C18.4098101,37.2512151 18.4258962,37.2614517 18.4395089,37.2745356 C18.4629896,37.2887163 18.4883228,37.2995734 18.5147852,37.3067971 L18.5319911,37.3067971 L18.5728554,37.3240031 L18.6137196,37.3412092 L18.6954482,37.3691691 L18.7406139,37.388526 L18.7857797,37.4057321 L18.8223424,37.4186367 L18.8610559,37.4315413 L18.9255785,37.4551996 L18.9621412,37.4681043 C18.9728256,37.4698314 18.983718,37.4698314 18.9944024,37.4681043 C19.00506,37.4660699 19.0160062,37.4660699 19.0266637,37.4681043 L19.1385026,37.4960642 L19.2030252,37.4960642 L19.2589447,37.5089687 L19.3148642,37.5218733 L19.3406732,37.5218733 C19.3542163,37.5239391 19.3679944,37.5239391 19.3815374,37.5218733 C19.4200694,37.5329554 19.4597742,37.5394526 19.4998287,37.5412302 L19.575105,37.5412302 C19.6115179,37.5459111 19.6483803,37.5459111 19.6847932,37.5412302 L65.6785847,37.5412302 C67.0420046,37.5738575 68.3160544,36.8651311 69.0073573,35.6895059 C69.6986602,34.5138807 69.6986602,33.0559662 69.0073573,31.880341 C68.3160544,30.7047159 67.0420046,29.9959895 65.6785847,30.0286168 L29.1158326,30.0286168 L31.4967129,27.6477227 C32.5706515,26.5751811 32.8923787,24.9611354 32.3117591,23.5587874 C31.7311395,22.1564394 30.3626246,21.2422193 28.844838,21.2427518 L28.8684963,21.4255668 Z" id="路径" transform="translate(42.976391, 29.393746) scale(-1, 1) translate(-42.976391, -29.393746) "></path>
            </g>
            <path d="M90,29.5 C128,29.5 128,67.5 128,67.5" id="路径-2" stroke="#05C8C8" stroke-width="12"></path>
            <path d="M42,92 C67.3333333,92 80,104.666667 80,130" id="路径-2备份" stroke="#00CCFE" stroke-width="12" transform="translate(61.000000, 111.000000) scale(-1, -1) translate(-61.000000, -111.000000) "></path>
        </g>
    </g>
</svg>