<?xml version="1.0" encoding="UTF-8"?>
<svg width="20px" height="20px" viewBox="0 0 32 32" version="1.1" xmlns="http://www.w3.org/2000/svg" xmlns:xlink="http://www.w3.org/1999/xlink">
    <title>2图标/通用操作/视图_列表</title>
    <g id="控件" stroke="none" stroke-width="1" fill="none" fill-rule="evenodd">
        <g id="2图标/通用操作/视图_列表" fill="#7F93BC">
            <path d="M4,3 L28,3 C28.5522847,3 29,3.44771525 29,4 C29,4.55228475 28.5522847,5 28,5 L4,5 C3.44771525,5 3,4.55228475 3,4 C3,3.44771525 3.44771525,3 4,3 Z M4,19 L28,19 C28.5522847,19 29,19.4477153 29,20 C29,20.5522847 28.5522847,21 28,21 L4,21 C3.44771525,21 3,20.5522847 3,20 C3,19.4477153 3.44771525,19 4,19 Z M4,11 L28,11 C28.5522847,11 29,11.4477153 29,12 C29,12.5522847 28.5522847,13 28,13 L4,13 C3.44771525,13 3,12.5522847 3,12 C3,11.4477153 3.44771525,11 4,11 Z M4,27 L28,27 C28.5522847,27 29,27.4477153 29,28 C29,28.5522847 28.5522847,29 28,29 L4,29 C3.44771525,29 3,28.5522847 3,28 C3,27.4477153 3.44771525,27 4,27 Z" id="形状结合"></path>
        </g>
    </g>
</svg>