<?xml version="1.0" encoding="UTF-8"?>
<svg width="18px" height="18px" viewBox="0 0 18 18" version="1.1" xmlns="http://www.w3.org/2000/svg" xmlns:xlink="http://www.w3.org/1999/xlink">
    <title>2图标/通用操作/头部导航_搜索</title>
    <g id="2图标/通用操作/头部导航_搜索" stroke="none" stroke-width="1" fill="none" fill-rule="evenodd">
        <path d="M15.1612112,16.5564135 L12.5716745,13.9689788 C11.3203225,14.9048689 9.76694446,15.4591028 8.0841182,15.4591028 C3.94198257,15.4591028 0.584118195,12.1012384 0.584118195,7.95910278 C0.584118195,3.81696715 3.94198257,0.459102778 8.0841182,0.459102778 C12.2262538,0.459102778 15.5841182,3.81696715 15.5841182,7.95910278 C15.5841182,9.88911979 14.8551026,11.6488661 13.6574172,12.977996 L17.1323925,16.4536558 C17.3926228,16.713886 17.4178644,17.1195196 17.2036633,17.4077604 L17.1322152,17.490448 C16.8718959,17.7507673 16.4661435,17.7760375 16.1807937,17.5647527 L16.1051182,17.5001028 L16.0990667,17.4942691 L16.1008374,17.4960398 L15.1612112,16.5564135 L15.1612112,16.5564135 Z M8.0841182,1.45910278 C4.49426732,1.45910278 1.5841182,4.3692519 1.5841182,7.95910278 C1.5841182,11.5489537 4.49426732,14.4591028 8.0841182,14.4591028 C11.6739691,14.4591028 14.5841182,11.5489537 14.5841182,7.95910278 C14.5841182,4.3692519 11.6739691,1.45910278 8.0841182,1.45910278 Z" id="Combined-Shape" fill="#666666"></path>
    </g>
</svg>