<?xml version="1.0" encoding="UTF-8"?>
<svg width="37px" height="31px" viewBox="0 0 37 31" version="1.1" xmlns="http://www.w3.org/2000/svg" xmlns:xlink="http://www.w3.org/1999/xlink">
    <title>编组 8</title>
    <g id="视觉" stroke="none" stroke-width="1" fill="none" fill-rule="evenodd">
        <g id="画板" transform="translate(-378.000000, -207.000000)" fill="#21A854">
            <g id="编组-8" transform="translate(378.000000, 207.000000)">
                <g id="编组-2备份" opacity="0.177562314">
                    <path d="M0,0 L32,0 C34.7614237,-5.07265313e-16 37,2.23857625 37,5 L37,30.5 L37,30.5 L0,0 Z" id="矩形备份-9"></path>
                </g>
                <path d="M28.7279954,6.1421434 C28.9689391,5.94701665 29.3153173,5.95597664 29.5448205,6.14938311 L29.6166879,6.22065634 L32.8525436,9.99422964 C33.1748824,10.370133 32.9349666,10.9293782 32.4596107,10.993871 L32.3678022,11 L23.6309919,11 C23.2825047,11 23,10.7254585 23,10.3867943 C23,10.0789179 23.2334749,9.82403526 23.5377485,9.7802374 L23.6309919,9.77358868 L31.0203919,9.77358868 L28.6472052,7.00578574 C28.4464187,6.77163364 28.4556386,6.4350191 28.6546549,6.21198504 L28.7279954,6.1421434 Z" id="arrive" fill-rule="nonzero"></path>
            </g>
        </g>
    </g>
</svg>