<?xml version="1.0" encoding="utf-8"?>
<!-- Generator: Adobe Illustrator 24.0.0, SVG Export Plug-In . SVG Version: 6.00 Build 0)  -->
<svg version="1.1" id="图层_1" xmlns="http://www.w3.org/2000/svg" xmlns:xlink="http://www.w3.org/1999/xlink" x="0px" y="0px"
	 viewBox="0 0 82 68" style="enable-background:new 0 0 82 68;" xml:space="preserve">
<style type="text/css">
	.st0{opacity:0.1776;fill:#5400FF;enable-background:new    ;}
	.st1{fill:#5400FF;}
	.st2{fill-rule:evenodd;clip-rule:evenodd;fill:#7248F7;}
	.st3{display:none;fill-rule:evenodd;clip-rule:evenodd;fill:#5400FF;}
	.st4{fill:#FFFFFF;}
</style>
<title>矩形备份-9</title>
<g id="页面-2">
	<g id="编组" transform="translate(0.590164, 0.500000)">
		<path id="矩形备份-9" class="st0" d="M0,0h70.3c6.1,0,11,4.9,11,11v56L0,0z"/>
		<g transform="translate(48.909836, 5.500000)">
			<path id="形状" class="st1" d="M12.7,0L13,0c4.2,0.2,7.5,3.8,7.5,8.1c0,2.1-0.8,4.1-2.1,5.5c-3.7,0.6-6.6,4-6.6,8
				c0,2.6,1.1,4.8,2.9,6.3L1.4,28c-0.5,0-0.9-0.4-0.9-0.9c0-5.5,3.4-10.2,8.2-12c-2.3-1.4-3.9-4-3.9-7C4.8,3.6,8.4,0,12.7,0z"/>
			<path class="st1" d="M22.6,28c0-0.2,0.1-0.4,0.1-0.5c0.2-0.7,0.5-1.2,0.9-1.7c0.4-0.5,0.8-1,1.4-1.3c0.1,0,0.1-0.1,0.2-0.1
				c-0.9-4.3-4-7.8-7.9-9.2c2.3-1.4,3.9-4,3.9-7c0-4.5-3.5-8.1-7.8-8.1L13,0C8.8,0.2,5.5,3.8,5.5,8.1c0,2.1,0.8,4.1,2.1,5.5
				c3.7,0.6,2.2,3.9,2.2,8c0,2.6,3.3,4.9,1.5,6.4L22.6,28z"/>
		</g>
		<path id="路径备份-4-2" class="st1" d="M72.5,23.3c0.3-0.3,0.8-0.3,1.1,0c0.3,0.3,0.3,0.9,0,1.2l-6.2,7
			c-0.3,0.3-0.7,0.3-1.1,0L62.7,28c-0.3-0.3-0.4-0.9-0.1-1.2c0.3-0.4,0.8-0.4,1.1-0.1l3.1,3L72.5,23.3z"/>
		<path id="路径" class="st2" d="M69.7,19.2c4.3,0,7.7,3.4,7.7,7.7s-3.4,7.7-7.7,7.7S62,31.1,62,26.8S65.5,19.2,69.7,19.2z"/>
		<path id="路径_1_" class="st3" d="M67.4,19.5c3.9,0,7,3.1,7,7s-3.1,7-7,7s-7-3.1-7-7S63.5,19.5,67.4,19.5z"/>
		<path id="路径备份-4" class="st4" d="M73.4,24.1c0.2-0.3,0.6-0.3,0.9,0c0.2,0.3,0.2,0.7,0,1l-4.9,5.5c-0.2,0.3-0.6,0.3-0.8,0
			l-2.9-2.8c-0.3-0.2-0.3-0.7-0.1-1s0.6-0.3,0.9-0.1l2.4,2.4L73.4,24.1z"/>
	</g>
</g>
</svg>
