<?xml version="1.0" encoding="UTF-8"?>
<svg width="37px" height="31px" viewBox="0 0 37 31" version="1.1" xmlns="http://www.w3.org/2000/svg" xmlns:xlink="http://www.w3.org/1999/xlink">
    <title>编组 6</title>
    <g id="视觉" stroke="none" stroke-width="1" fill="none" fill-rule="evenodd">
        <g id="画板" transform="translate(-1141.000000, -112.000000)" fill="#296EF7">
            <g id="编组-6" transform="translate(1141.000000, 112.000000)">
                <path d="M0,0 L32,0 C34.7614237,-5.07265313e-16 37,2.23857625 37,5 L37,30.5 L37,30.5 L0,0 Z" id="矩形备份-13" opacity="0.177562314"></path>
                <path d="M28.68237,6.19092082 L30.8257004,8.53907639 C30.937301,8.66130976 31,8.82711313 31,9 C31,9.17288688 30.937301,9.33869025 30.8257004,9.46092362 L28.68237,11.8090792 C28.4500138,12.0636403 28.07329,12.0636403 27.8409338,11.8090792 C27.6085776,11.5545181 27.6085776,11.141793 27.8409338,10.8872319 L29.563546,9 L27.8409338,7.11276806 C27.6085776,6.85820697 27.6085776,6.4454819 27.8409338,6.19092082 C28.07329,5.93635973 28.4500138,5.93635973 28.68237,6.19092082 Z M22.0157128,6.19093519 L24.1590344,8.53908495 C24.2706346,8.66131801 24.3333333,8.82712097 24.3333333,9 C24.3333333,9.17289387 24.2706346,9.33869683 24.1590344,9.4609299 L22.0157128,11.8090797 C21.7833575,12.0636401 21.4066352,12.0636401 21.17428,11.8090797 C20.9419247,11.5545192 20.9419247,11.1417952 21.17428,10.8872347 L22.8968852,9 L21.17428,7.11278015 C21.0239725,6.94810841 20.9652707,6.70809412 21.0202871,6.48314833 C21.0753035,6.25820255 21.2356796,6.08249989 21.4410035,6.02222585 C21.6463274,5.96195181 21.8654053,6.02626345 22.0157128,6.19093519 Z M25.3489011,6.1909352 L27.4923926,8.53908496 C27.6039768,8.66131803 27.6666667,8.82712099 27.6666667,9 C27.6666667,9.17289389 27.6039768,9.33869685 27.4923926,9.46092991 L25.3489011,11.8090797 C25.116579,12.0636401 24.7399105,12.0636401 24.5075885,11.8090797 C24.2752664,11.5545192 24.2752664,11.1417952 24.5075885,10.8872347 L26.2299478,9 L24.5075885,7.11278016 C24.3573024,6.94810843 24.298609,6.70809413 24.3536175,6.48314834 C24.408626,6.25820255 24.5689793,6.08249989 24.7742739,6.02222585 C24.9795684,5.96195181 25.1986151,6.02626345 25.3489011,6.1909352 Z" id="形状结合备份-4" fill-rule="nonzero"></path>
            </g>
        </g>
    </g>
</svg>