<?xml version="1.0" encoding="UTF-8"?>
<svg width="37px" height="31px" viewBox="0 0 37 31" version="1.1" xmlns="http://www.w3.org/2000/svg" xmlns:xlink="http://www.w3.org/1999/xlink">
    <title>编组 4</title>
    <g id="视觉" stroke="none" stroke-width="1" fill="none" fill-rule="evenodd">
        <g id="画板" transform="translate(-639.000000, -112.000000)" fill="#FC981D">
            <g id="编组-4" transform="translate(639.000000, 112.000000)">
                <path d="M0,0 L32,0 C34.7614237,-5.07265313e-16 37,2.23857625 37,5 L37,30.5 L37,30.5 L0,0 Z" id="矩形备份-11" opacity="0.177562314"></path>
                <g id="编组备份-8" transform="translate(22.000000, 5.000000)" fill-rule="nonzero">
                    <path d="M5.94594595,1.89189189 L2.2972973,1.89189189 L3.04054054,1.14864865 C3.31081081,0.878378378 3.31081081,0.472972973 3.04054054,0.202702703 C2.77027027,-0.0675675676 2.36486486,-0.0675675676 2.09459459,0.202702703 L0.202702703,2.09459459 C-0.0675675676,2.36486486 -0.0675675676,2.77027027 0.202702703,3.04054054 L2.09459459,4.93243243 C2.36486486,5.2027027 2.77027027,5.2027027 3.04054054,4.93243243 C3.31081081,4.66216216 3.31081081,4.25675676 3.04054054,3.98648649 L2.2972973,3.24324324 L5.94594595,3.24324324 C7.43243243,3.24324324 8.64864865,4.45945946 8.64864865,5.94594595 C8.64864865,7.43243243 7.43243243,8.64864865 5.94594595,8.64864865 L1.89189189,8.64864865 C1.48648649,8.64864865 1.21621622,8.91891892 1.21621622,9.32432432 C1.21621622,9.72972973 1.48648649,10 1.89189189,10 L5.94594595,10 C8.17567568,10 10,8.17567568 10,5.94594595 C10,3.71621622 8.17567568,1.89189189 5.94594595,1.89189189" id="路径"></path>
                </g>
            </g>
        </g>
    </g>
</svg>