<?xml version="1.0" encoding="UTF-8"?>
<svg width="16px" height="16px" viewBox="0 0 16 16" version="1.1" xmlns="http://www.w3.org/2000/svg" xmlns:xlink="http://www.w3.org/1999/xlink">
    <title>展开</title>
    <g id="决策分析" stroke="none" stroke-width="1" fill="none" fill-rule="evenodd">
        <g id="卡片规则/饼图间距" transform="translate(-148, -1460)" fill="#999999" fill-rule="nonzero">
            <g id="展开" transform="translate(148, 1460)">
                <path d="M13.3333333,0 C14.8060927,0 16,1.19390733 16,2.66666667 L16,13.3333333 C16,14.8060927 14.8060927,16 13.3333333,16 L2.66666667,16 C1.19390733,16 0,14.8060927 0,13.3333333 L0,2.66666667 C0,1.19390733 1.19390733,0 2.66666667,0 L13.3333333,0 Z M13.3333333,1.33333333 L2.66666667,1.33333333 C1.930287,1.33333333 1.33333333,1.930287 1.33333333,2.66666667 L1.33333333,13.3333333 C1.33333333,14.069713 1.930287,14.6666667 2.66666667,14.6666667 L13.3333333,14.6666667 C14.069713,14.6666667 14.6666667,14.069713 14.6666667,13.3333333 L14.6666667,2.66666667 C14.6666667,1.930287 14.069713,1.33333333 13.3333333,1.33333333 Z M3.13118365,13.3020914 L3.10082397,13.2916668 C3.08251835,13.284854 3.06459289,13.2772601 3.04708813,13.2689255 C3.028661,13.2602151 3.01009456,13.2503116 2.99193279,13.2394687 C2.98157265,13.233206 2.97170302,13.2269437 2.96201363,13.2204338 C2.9473225,13.2106328 2.93287018,13.2000617 2.91876742,13.1888365 C2.90547162,13.1782244 2.89249862,13.1670769 2.8799731,13.1554538 C2.8739332,13.1498544 2.86788862,13.144031 2.86192881,13.1380712 L2.84454622,13.1200269 C2.83292313,13.1075014 2.82177559,13.0945284 2.81113234,13.0811366 L2.86192881,13.1380712 C2.83068687,13.1068292 2.80319396,13.073258 2.77945008,13.0379163 C2.77305629,13.028297 2.76679395,13.0184274 2.76078825,13.0083866 C2.7496884,12.9899054 2.73978486,12.971339 2.73082073,12.952438 C2.68977906,12.8661812 2.66666667,12.769123 2.66666667,12.6666667 L2.66666667,9.33333333 C2.66666667,8.9651435 2.9651435,8.66666667 3.33333333,8.66666667 C3.70152317,8.66666667 4,8.9651435 4,9.33333333 L4,11.056 L6.19526215,8.86192881 C6.45561167,8.60157928 6.87772166,8.60157928 7.13807119,8.86192881 C7.39842072,9.12227834 7.39842072,9.54438833 7.13807119,9.80473785 L4.942,12 L6.66666667,12 C7.00855723,12 7.29033811,12.2573601 7.32884818,12.5889192 L7.33333333,12.6666667 C7.33333333,13.0348565 7.0348565,13.3333333 6.66666667,13.3333333 L3.33333333,13.3333333 C3.26638973,13.3333333 3.20175068,13.3234663 3.14079119,13.3051073 Z M12.6666667,2.66666667 C12.7336103,2.66666667 12.7982493,2.67653367 12.8592088,2.69489269 C12.8789696,2.70112943 12.889061,2.70459928 12.8990809,2.70831816 C12.9174817,2.71514596 12.9354071,2.7227399 12.9529119,2.73107452 C12.971339,2.73978486 12.9899054,2.7496884 13.0080672,2.76053135 C13.0184274,2.76679395 13.028297,2.77305629 13.0379864,2.7795662 C13.0526775,2.7893672 13.0671298,2.79993834 13.0812326,2.81116349 C13.0945284,2.82177559 13.1075014,2.83292313 13.1200269,2.84454622 C13.1260668,2.85014562 13.1321114,2.855969 13.1380712,2.86192881 L13.1554538,2.8799731 C13.1670769,2.89249862 13.1782244,2.90547162 13.1888677,2.9188634 L13.1380712,2.86192881 C13.1693131,2.89317076 13.196806,2.92674205 13.2205499,2.96208365 C13.2269437,2.97170302 13.233206,2.98157265 13.2392117,2.99161345 C13.2503116,3.01009456 13.2602151,3.028661 13.2691793,3.047562 C13.3102209,3.13381878 13.3333333,3.23087696 13.3333333,3.33333333 L13.3333333,6.66666667 C13.3333333,7.0348565 13.0348565,7.33333333 12.6666667,7.33333333 C12.2984768,7.33333333 12,7.0348565 12,6.66666667 L12,4.942 L9.80473785,7.13807119 C9.54438833,7.39842072 9.12227834,7.39842072 8.86192881,7.13807119 C8.60157928,6.87772166 8.60157928,6.45561167 8.86192881,6.19526215 L11.056,4 L9.33333333,4 C8.99144277,4 8.70966189,3.74263987 8.67115182,3.41108075 L8.66666667,3.33333333 C8.66666667,2.9651435 8.9651435,2.66666667 9.33333333,2.66666667 L12.6666667,2.66666667 Z" id="形状结合"></path>
            </g>
        </g>
    </g>
</svg>