<?xml version="1.0" encoding="UTF-8"?>
<svg width="16px" height="16px" viewBox="0 0 16 16" version="1.1" xmlns="http://www.w3.org/2000/svg" xmlns:xlink="http://www.w3.org/1999/xlink">
    <title>链接点2</title>
    <g id="链接点2" stroke="none" stroke-width="1" fill="none" fill-rule="evenodd">
        <g id="形状结合-2" transform="translate(1.000000, 1.000000)" fill="#276FF5">
            <path d="M7,0 C10.8659932,0 14,3.13400675 14,7 C14,10.8659932 10.8659932,14 7,14 C3.13400675,14 0,10.8659932 0,7 C0,3.13400675 3.13400675,0 7,0 Z M7.00803564,2.99917775 L6.90575782,3.00401473 C6.61780758,3.03311682 6.4980149,3.19426059 6.4980149,3.50692761 L6.4970149,6.49817775 L3.50576477,6.49917775 C3.19042538,6.49917775 2.9980149,6.63739474 2.9980149,6.9988322 C2.9980149,7.36026966 3.18508064,7.49917775 3.50576477,7.49917775 L6.4970149,7.49817775 L6.4980149,10.4914279 C6.4980149,10.812112 6.63692299,10.9991777 6.99836045,10.9991777 L7.10018008,10.9934749 C7.38605914,10.9594664 7.4980149,10.7752333 7.4980149,10.4914279 L7.4970149,7.49817775 L10.490265,7.49917775 C10.8376728,7.49917775 10.9980149,7.35128555 10.9980149,6.98915701 C10.9980149,6.62633739 10.8125526,6.49917775 10.490265,6.49917775 L7.4970149,6.49817775 L7.4980149,3.50692761 C7.4980149,3.18464006 7.37085526,2.99917775 7.00803564,2.99917775 Z" id="形状结合"></path>
        </g>
    </g>
</svg>