<?xml version="1.0" encoding="UTF-8"?>
<svg width="20px" height="20px" viewBox="0 0 20 20" version="1.1" xmlns="http://www.w3.org/2000/svg" xmlns:xlink="http://www.w3.org/1999/xlink">
    <title>12@1.5x</title>
    <g id="12" stroke="none" stroke-width="1" fill="none" fill-rule="evenodd">
        <g id="编组-2">
            <rect id="矩形" x="0" y="0" width="20" height="20"></rect>
            <g id="编组" transform="translate(3.750000, 3.760750)" fill="#2B87F3">
                <path d="M6.698,9.988 L5.24212391,11.4458288 L5.242,13.738 L0,13.7394142 L0,9.98941422 L6.698,9.988 Z M5.44875,11.2375 L1.25,11.23875 L1.25,12.48875 L5.24125,12.48875 L5.24212391,11.4458288 L5.44875,11.2375 Z M11.693,4.994 L10.080844,6.60668508 L7.943,8.743 L0,8.74470711 L0,4.99470711 L11.693,4.994 Z M10.4425,6.24375 L1.25,6.24375 L1.25,7.49375 L9.1925,7.49375 L10.4425,6.24375 Z M12.5,0 L12.5,3.75 L0,3.75 L0,0 L12.5,0 Z M11.25,1.25 L1.25,1.25 L1.25,2.5 L11.25,2.5 L11.25,1.25 Z" id="形状结合" fill-rule="nonzero"></path>
                <path d="M10.0811239,8.37442206 L11.8761239,10.1244221 L8.26861833,13.7487727 L6.49212391,13.7487727 L6.49212391,11.9635565 L10.0811239,8.37442206 Z M12.6062584,5.84942206 L14.3740253,7.61718901 L12.7581239,9.23842206 L10.9641239,7.49142206 L12.6062584,5.84942206 Z" id="形状结合"></path>
            </g>
        </g>
    </g>
</svg>