<?xml version="1.0" encoding="UTF-8"?>
<svg width="16px" height="16px" viewBox="0 0 16 16" version="1.1" xmlns="http://www.w3.org/2000/svg" xmlns:xlink="http://www.w3.org/1999/xlink">
    <title>警告</title>
    <g id="警告" stroke="none" stroke-width="1" fill="none" fill-rule="evenodd">
        <g id="1组件/反馈/反馈浮层/内容元素/通过" transform="translate(1.000000, 1.000000)" fill="#FB2323">
            <path d="M7,0 C10.8659932,0 14,3.13400675 14,7 C14,10.8659932 10.8659932,14 7,14 C3.13400675,14 0,10.8659932 0,7 C0,3.13400675 3.13400675,0 7,0 Z M7,10 C6.58578644,10 6.25,10.3357864 6.25,10.75 C6.25,11.1642136 6.58578644,11.5 7,11.5 C7.41421356,11.5 7.75,11.1642136 7.75,10.75 C7.75,10.3357864 7.41421356,10 7,10 Z M7,2.5 C6.72385763,2.5 6.5,2.72385763 6.5,3 L6.5,8.5 C6.5,8.77614237 6.72385763,9 7,9 C7.27614237,9 7.5,8.77614237 7.5,8.5 L7.5,3 C7.5,2.72385763 7.27614237,2.5 7,2.5 Z" id="形状结合"></path>
        </g>
    </g>
</svg>