<?xml version="1.0" encoding="UTF-8"?>
<svg width="20px" height="15px" viewBox="0 0 20 15" version="1.1" xmlns="http://www.w3.org/2000/svg" xmlns:xlink="http://www.w3.org/1999/xlink">
    <title>节点2/字段设置</title>
    <g id="页面-1" stroke="none" stroke-width="1" fill="none" fill-rule="evenodd">
        <g id="图标" transform="translate(-198.000000, -74.000000)">
            <g id="节点2/字段设置" transform="translate(198.000000, 72.000000)">
                <rect id="矩形" x="0" y="0" width="20" height="20"></rect>
                <g id="编组-157" transform="translate(0.937500, 3.324132)">
                    <g id="编组" stroke="#2B87F3" stroke-width="1.25">
                        <polyline id="路径" points="11.555984 10.0009433 0 10 0 0 15 0 15.0011124 6.90396741"></polyline>
                    </g>
                    <rect id="矩形备份-45" fill="#2B87F3" x="2.5" y="2.72673607" width="7.5" height="1.25"></rect>
                    <g id="设置_填充备份" transform="translate(9.375000, 4.601736)" fill="#2B87F3" fill-rule="nonzero">
                        <path d="M8.64586882,5.16375392 C8.89385007,4.17180272 8.62106391,3.5243965 8.62106391,3.5243965 L7.67225681,3.47781961 C7.58911192,3.18003562 7.46734502,2.89922743 7.31263409,2.63945491 L7.95271699,1.91277011 C7.42665915,1.03604512 6.77594697,0.771127537 6.77594697,0.771127537 L6.07118721,1.40995865 C5.80864277,1.2572345 5.52464595,1.13892706 5.22424495,1.05882488 L5.1637733,0.104139063 C4.17185798,-0.143880228 3.52441113,0.128982657 3.52441113,0.128982657 L3.47935534,1.04663562 C3.18328551,1.12105013 2.90158508,1.23086967 2.641182,1.37580355 L1.97407532,0.771117848 C1.97407532,0.771117848 1.32336313,1.03603543 0.797305297,1.91276042 C0.964515569,2.10255617 1.29350035,2.32048022 1.31323769,2.59953463 C1.31810178,2.66842618 0.996606918,3.48179226 0.982741362,3.48248989 L0.128948683,3.52438681 C0.128948683,3.52438681 -0.143837477,4.17178334 0.104105017,5.16374423 L0.950262436,5.21736531 C1.03017106,5.55381966 1.15841049,5.87072082 1.32819815,6.16134435 L0.771095424,6.77591323 C0.771095424,6.77591323 1.03601378,7.42662353 1.91274131,7.95267984 L2.54767912,7.39344706 C2.83533854,7.56564688 3.14936286,7.69684121 3.48313421,7.78036374 L3.52441113,8.62103452 C3.52441113,8.62103452 4.17184829,8.89385864 5.1637733,8.64587811 L5.21938086,7.76845549 C5.55739618,7.67884802 5.87464708,7.54037696 6.16398276,7.35968923 L6.83724222,7.95268953 C7.71400851,7.42667198 7.97892686,6.77592292 7.97892686,6.77592292 L7.3656352,6.09935164 C7.51673197,5.82785496 7.63012722,5.5334138 7.7043094,5.2234018 L8.64586882,5.16375392 Z M4.3750063,6.41311344 C3.24940609,6.41311344 2.33692461,5.5006346 2.33692461,4.3749989 C2.33692461,3.24940195 3.24940609,2.33692312 4.3750063,2.33692312 C5.50060651,2.33692312 6.41312674,3.24940195 6.41312674,4.3749989 C6.41312674,5.50064429 5.50060651,6.41311344 4.3750063,6.41311344 Z" id="形状"></path>
                    </g>
                </g>
            </g>
        </g>
    </g>
</svg>