<?xml version="1.0" encoding="UTF-8"?>
<svg width="36px" height="36px" viewBox="0 0 36 36" version="1.1" xmlns="http://www.w3.org/2000/svg" xmlns:xlink="http://www.w3.org/1999/xlink">
    <title>icon/2@2x</title>
    <g id="页面-2" stroke="none" stroke-width="1" fill="none" fill-rule="evenodd">
        <g id="画板" transform="translate(-14.000000, -14.000000)" fill="#FFFFFF" fill-rule="nonzero">
            <path d="M16,39 L16.0009687,40.0767468 L16.0094173,40.7195937 C16.0568417,42.9594728 16.2889994,43.9485683 16.8321572,44.9641851 C17.342986,45.9193519 18.0806481,46.657014 19.0358149,47.1678428 L19.3131034,47.3083609 C20.3344544,47.7960167 21.4454027,47.9841513 23.9232532,47.9990313 L39.7444592,48 C42.6937963,48 43.8119216,47.78408 44.9641851,47.1678428 C45.9193519,46.657014 46.657014,45.9193519 47.1678428,44.9641851 L47.3083609,44.6868966 C47.7960167,43.6655456 47.9841513,42.5545973 47.9990313,40.0767468 L48,39 L50,39 L50,39.7444592 L49.9947169,40.450585 L49.9781111,41.1200335 C49.8891605,43.6743327 49.5306787,44.7869584 48.9314692,45.9073828 C48.2342408,47.2110865 47.2110865,48.2342408 45.9073828,48.9314692 L45.6370527,49.0710579 C44.4145037,49.6781457 43.064598,50 39.7444592,50 L24.2555408,50 L23.549415,49.9947169 L22.8799665,49.9781111 C20.3256673,49.8891605 19.2130416,49.5306787 18.0926172,48.9314692 C16.7889135,48.2342408 15.7657592,47.2110865 15.0685308,45.9073828 L14.9289421,45.6370527 L14.7987438,45.3625297 C14.2968504,44.2500599 14.02247,42.9291034 14.0013226,40.1053492 L14,39 L16,39 Z M39.9652271,26.9775659 C41.3785754,26.9775659 42.4688727,27.4823331 43.1957375,28.5120583 L43.1957375,27.2602356 L45.1946158,27.2602356 L45.1946158,41.6965788 L43.0544027,41.6965788 L43.0544027,36.1643298 C42.2063937,37.3757712 41.1362872,37.9814919 39.8642737,37.9814919 C38.349972,37.9814919 37.1789119,37.4363432 36.330903,36.346046 C35.5232754,35.3365115 35.1396523,34.064498 35.1396523,32.5300056 C35.1396523,30.9147504 35.5434661,29.6225463 36.3510937,28.6130118 C37.2192933,27.5227145 38.4307347,26.9775659 39.9652271,26.9775659 Z M28.9411105,26.9775659 C31.6466629,26.9775659 33.140774,28.0678632 33.3830623,30.2686483 L31.3034212,30.2686483 C31.1418957,29.703309 30.8996074,29.3196859 30.5563657,29.0975883 C30.1929333,28.8553001 29.6275939,28.7341559 28.9007291,28.7341559 C28.254627,28.7341559 27.7700505,28.8149187 27.4469994,29.0168256 C27.0633763,29.2187325 26.8816601,29.5417835 26.8816601,29.9455973 C26.8816601,30.3090297 27.1643298,30.6118901 27.7296691,30.874369 C28.0931015,31.0358946 28.779585,31.2378015 29.8295008,31.5002804 C31.0207515,31.7829501 31.9091419,32.1261918 32.4744812,32.4896242 C33.3022995,33.0145822 33.726304,33.741447 33.726304,34.6702187 C33.726304,36.8710039 32.1716209,37.9814919 29.0824453,37.9814919 C26.2153674,37.9814919 24.6808749,36.7498598 24.4385867,34.326977 L26.5384184,34.326977 C26.6595625,35.0336511 26.9220415,35.5384184 27.2854739,35.8210881 C27.6489063,36.083567 28.2142457,36.2249019 29.0218732,36.2249019 C30.6775098,36.2249019 31.5255188,35.7403253 31.5255188,34.8115536 C31.5255188,34.3067863 31.2024678,33.9029725 30.5967471,33.6203029 C30.273696,33.4587773 29.5670219,33.2568704 28.4969153,33.0145822 C27.2652832,32.7319125 26.3970836,32.4290522 25.912507,32.1060011 C25.1048794,31.6012339 24.7010656,30.8945597 24.7010656,30.0061694 C24.7010656,29.057207 25.0846887,28.3101514 25.8721256,27.7851935 C26.6595625,27.2400449 27.6892877,26.9775659 28.9411105,26.9775659 Z M16.1402131,23 L16.1402131,31.5608525 L20.6629277,27.2602356 L23.4290522,27.2602356 L18.8053842,31.5608525 L23.832866,37.6988222 L21.0869321,37.6988222 L17.3314638,32.9338194 L16.1402131,34.0443073 L16.1402131,37.6988222 L14,37.6988222 L14,23 L16.1402131,23 Z M50,23 L50,37.6988222 L47.8597869,37.6988222 L47.8597869,23 L50,23 Z M40.2882782,28.7139652 C39.2383623,28.7139652 38.4509254,29.0773976 37.9663489,29.8446439 C37.5423444,30.4907459 37.3404375,31.3791363 37.3404375,32.5300056 C37.3404375,33.6808749 37.5625351,34.5692653 38.0269209,35.2153674 C38.5114975,35.9018508 39.2989344,36.2450925 40.3488503,36.2450925 C41.1362872,36.2450925 41.7823892,35.9220415 42.3073472,35.2961301 C42.8323051,34.6096467 43.1149748,33.7010656 43.1149748,32.5905777 L43.1149748,32.4088615 C43.1149748,31.3387549 42.8928772,30.4705552 42.448682,29.8244532 C41.9237241,29.0773976 41.2170499,28.7139652 40.2882782,28.7139652 Z M39.7444592,14 C43.3105342,14 44.6036791,14.3713024 45.9073828,15.0685308 C47.2110865,15.7657592 48.2342408,16.7889135 48.9314692,18.0926172 L49.0710579,18.3629473 C49.4252928,19.0763031 49.6824141,19.83302 49.8351465,20.9992118 L47.8196661,21.0002772 C47.68895,20.1930846 47.479637,19.6188195 47.1678428,19.0358149 C46.657014,18.0806481 45.9193519,17.342986 44.9641851,16.8321572 L44.6868966,16.6916391 C43.6655456,16.2039833 42.5545973,16.0158487 40.0767468,16.0009687 L24.2555408,16 C21.3062037,16 20.1880784,16.21592 19.0358149,16.8321572 C18.0806481,17.342986 17.342986,18.0806481 16.8321572,19.0358149 L16.6916391,19.3131034 C16.4560314,19.8065625 16.2903402,20.320936 16.1803253,21.0002772 L14.1648512,20.9992298 C14.3369722,19.6849814 14.6416697,18.8907781 15.0685308,18.0926172 C15.7657592,16.7889135 16.7889135,15.7657592 18.0926172,15.0685308 L18.3629473,14.9289421 L18.6374703,14.7987438 C19.7499401,14.2968504 21.0708966,14.02247 23.8946508,14.0013226 L39.7444592,14 Z" id="icon/2"></path>
        </g>
    </g>
</svg>