<?xml version="1.0" encoding="UTF-8"?>
<svg width="12px" height="12px" viewBox="0 0 12 12" version="1.1" xmlns="http://www.w3.org/2000/svg" xmlns:xlink="http://www.w3.org/1999/xlink">
    <title>链接点1</title>
    <g id="链接点1" stroke="none" stroke-width="1" fill="none" fill-rule="evenodd">
        <g id="编组-2" fill="#276FF5" fill-rule="nonzero">
            <path d="M6,0 C9.3137085,0 12,2.6862915 12,6 C12,9.3137085 9.3137085,12 6,12 C2.6862915,12 0,9.3137085 0,6 C0,2.6862915 2.6862915,0 6,0 Z M6,3 C4.34314575,3 3,4.34314575 3,6 C3,7.65685425 4.34314575,9 6,9 C7.65685425,9 9,7.65685425 9,6 C9,4.34314575 7.65685425,3 6,3 Z M6,4 C7.1045695,4 8,4.8954305 8,6 C8,7.1045695 7.1045695,8 6,8 C4.8954305,8 4,7.1045695 4,6 C4,4.8954305 4.8954305,4 6,4 Z" id="形状结合"></path>
        </g>
    </g>
</svg>