<?xml version="1.0" encoding="UTF-8"?>
<svg width="20px" height="15px" viewBox="0 0 20 15" version="1.1" xmlns="http://www.w3.org/2000/svg" xmlns:xlink="http://www.w3.org/1999/xlink">
    <title>节点2/选择字段</title>
    <g id="页面-1" stroke="none" stroke-width="1" fill="none" fill-rule="evenodd">
        <g id="图标" transform="translate(-198.000000, -37.000000)">
            <g id="选择字段" transform="translate(198.000000, 34.000000)">
                <rect id="矩形" x="0" y="0" width="20" height="20"></rect>
                <g id="编组-156" transform="translate(1.250000, 3.750000)">
                    <g id="编组">
                        <polygon id="路径" stroke="#2B87F3" stroke-width="1.25" points="15 10 0 10 0 0 15 0"></polygon>
                        <path d="M11.875,5.55927504 L11.943757,11.3734088 C11.947369,11.6786949 12.2037444,11.9233262 12.5164063,11.9198103 C12.6503797,11.9182982 12.7794623,11.8704404 12.8807011,11.7847467 L14.3293655,10.5585719 L15.8065412,13.0568383 C15.9628778,13.3212382 16.3091238,13.4118334 16.5799019,13.2591793 L17.2005834,12.9092701 C17.4713729,12.756616 17.5641422,12.418526 17.4078056,12.1541261 L15.9306412,9.65584861 L17.7437703,9.04347432 C18.0392666,8.94368032 18.1959542,8.62886375 18.0937415,8.34032796 C18.0500004,8.2168416 17.9628776,8.11247553 17.8478286,8.04574439 L12.7302751,5.07760812 C12.4614445,4.92169243 12.1140775,5.00808622 11.9543893,5.27058447 C11.9012916,5.35787399 11.8738374,5.4577556 11.875,5.55927504 Z" id="路径" fill="#2B87F3" fill-rule="nonzero"></path>
                    </g>
                    <rect id="矩形" fill="#2B87F3" x="2.5" y="4.0625" width="7.5" height="1.25"></rect>
                </g>
            </g>
        </g>
    </g>
</svg>