<?xml version="1.0" encoding="UTF-8"?>
<svg width="36px" height="36px" viewBox="0 0 36 36" version="1.1" xmlns="http://www.w3.org/2000/svg" xmlns:xlink="http://www.w3.org/1999/xlink">
    <title>icon/1@2x</title>
    <g id="页面-2" stroke="none" stroke-width="1" fill="none" fill-rule="evenodd">
        <g id="画板备份" transform="translate(-14.000000, -14.000000)" fill="#FFFFFF" fill-rule="nonzero">
            <path d="M39.7444592,14 C43.3105342,14 44.6036791,14.3713024 45.9073828,15.0685308 C47.2110865,15.7657592 48.2342408,16.7889135 48.9314692,18.0926172 C49.6286976,19.3963209 50,20.6894658 50,24.2555408 L50,39.7444592 C50,43.3105342 49.6286976,44.6036791 48.9314692,45.9073828 C48.2342408,47.2110865 47.2110865,48.2342408 45.9073828,48.9314692 C44.6036791,49.6286976 43.3105342,50 39.7444592,50 L24.2555408,50 C20.6894658,50 19.3963209,49.6286976 18.0926172,48.9314692 C16.7889135,48.2342408 15.7657592,47.2110865 15.0685308,45.9073828 C14.3713024,44.6036791 14,43.3105342 14,39.7444592 L14,24.2555408 C14,20.6894658 14.3713024,19.3963209 15.0685308,18.0926172 C15.7657592,16.7889135 16.7889135,15.7657592 18.0926172,15.0685308 C19.3963209,14.3713024 20.6894658,14 24.2555408,14 L39.7444592,14 Z M40.0767468,16.0009687 L24.2555408,16 C21.3062037,16 20.1880784,16.21592 19.0358149,16.8321572 C18.0806481,17.342986 17.342986,18.0806481 16.8321572,19.0358149 C16.2396214,20.1437605 16.0172014,21.2201436 16.0009687,23.9232532 L16,39.7444592 C16,42.6937963 16.21592,43.8119216 16.8321572,44.9641851 C17.342986,45.9193519 18.0806481,46.657014 19.0358149,47.1678428 C20.1880784,47.78408 21.3062037,48 24.2555408,48 L39.7444592,48 C42.6937963,48 43.8119216,47.78408 44.9641851,47.1678428 C45.9193519,46.657014 46.657014,45.9193519 47.1678428,44.9641851 C47.78408,43.8119216 48,42.6937963 48,39.7444592 L48,24.2555408 C48,21.3062037 47.78408,20.1880784 47.1678428,19.0358149 C46.657014,18.0806481 45.9193519,17.342986 44.9641851,16.8321572 C43.8562395,16.2396214 42.7798564,16.0172014 40.0767468,16.0009687 Z M35.0652275,26.9775659 C36.4785758,26.9775659 37.568873,27.4823331 38.2957379,28.5120583 L38.2957379,27.2602356 L40.2946162,27.2602356 L40.2946162,41.6965788 L38.154403,41.6965788 L38.154403,36.1643298 C37.3063941,37.3757712 36.2362875,37.9814919 34.964274,37.9814919 C33.4499723,37.9814919 32.2789123,37.4363432 31.4309033,36.346046 C30.6232757,35.3365115 30.2396526,34.064498 30.2396526,32.5300056 C30.2396526,30.9147504 30.6434664,29.6225463 31.451094,28.6130118 C32.3192937,27.5227145 33.5307351,26.9775659 35.0652275,26.9775659 Z M24.0411108,26.9775659 C26.7466633,26.9775659 28.2407743,28.0678632 28.4830626,30.2686483 L26.4034215,30.2686483 C26.241896,29.703309 25.9996078,29.3196859 25.656366,29.0975883 C25.2929336,28.8553001 24.7275943,28.7341559 24.0007295,28.7341559 C23.3546274,28.7341559 22.8700508,28.8149187 22.5469998,29.0168256 C22.1633767,29.2187325 21.9816605,29.5417835 21.9816605,29.9455973 C21.9816605,30.3090297 22.2643301,30.6118901 22.8296694,30.874369 C23.1931019,31.0358946 23.8795853,31.2378015 24.9295012,31.5002804 C26.1207519,31.7829501 27.0091422,32.1261918 27.5744816,32.4896242 C28.4022998,33.0145822 28.8263043,33.741447 28.8263043,34.6702187 C28.8263043,36.8710039 27.2716212,37.9814919 24.1824457,37.9814919 C21.3153677,37.9814919 19.7808753,36.7498598 19.538587,34.326977 L21.6384187,34.326977 C21.7595629,35.0336511 22.0220419,35.5384184 22.3854743,35.8210881 C22.7489067,36.083567 23.314246,36.2249019 24.1218736,36.2249019 C25.7775102,36.2249019 26.6255191,35.7403253 26.6255191,34.8115536 C26.6255191,34.3067863 26.3024681,33.9029725 25.6967474,33.6203029 C25.3736964,33.4587773 24.6670222,33.2568704 23.5969157,33.0145822 C22.3652836,32.7319125 21.4970839,32.4290522 21.0125074,32.1060011 C20.2048798,31.6012339 19.801066,30.8945597 19.801066,30.0061694 C19.801066,29.057207 20.1846891,28.3101514 20.972126,27.7851935 C21.7595629,27.2400449 22.7892881,26.9775659 24.0411108,26.9775659 Z M45.1000003,23 L45.1000003,37.6988222 L42.9597872,37.6988222 L42.9597872,23 L45.1000003,23 Z M35.3882785,28.7139652 C34.3383627,28.7139652 33.5509258,29.0773976 33.0663492,29.8446439 C32.6423447,30.4907459 32.4404378,31.3791363 32.4404378,32.5300056 C32.4404378,33.6808749 32.6625354,34.5692653 33.1269213,35.2153674 C33.6114978,35.9018508 34.3989347,36.2450925 35.4488506,36.2450925 C36.2362875,36.2450925 36.8823896,35.9220415 37.4073475,35.2961301 C37.9323055,34.6096467 38.2149751,33.7010656 38.2149751,32.5905777 L38.2149751,32.4088615 C38.2149751,31.3387549 37.9928775,30.4705552 37.5486823,29.8244532 C37.0237244,29.0773976 36.3170503,28.7139652 35.3882785,28.7139652 Z" id="icon/1"></path>
        </g>
    </g>
</svg>